<?xml version="1.0" encoding="utf-8" standalone="no"?>
<!DOCTYPE svg PUBLIC "-//W3C//DTD SVG 1.1//EN"
  "http://www.w3.org/Graphics/SVG/1.1/DTD/svg11.dtd">
<svg xmlns:xlink="http://www.w3.org/1999/xlink" width="360pt" height="216pt" viewBox="0 0 360 216" xmlns="http://www.w3.org/2000/svg" version="1.1">
 <metadata>
  <rdf:RDF xmlns:dc="http://purl.org/dc/elements/1.1/" xmlns:cc="http://creativecommons.org/ns#" xmlns:rdf="http://www.w3.org/1999/02/22-rdf-syntax-ns#">
   <cc:Work>
    <dc:type rdf:resource="http://purl.org/dc/dcmitype/StillImage"/>
    <dc:date>2024-02-22T14:27:13.602103</dc:date>
    <dc:format>image/svg+xml</dc:format>
    <dc:creator>
     <cc:Agent>
      <dc:title>Matplotlib v3.7.1, https://matplotlib.org/</dc:title>
     </cc:Agent>
    </dc:creator>
   </cc:Work>
  </rdf:RDF>
 </metadata>
 <defs>
  <style type="text/css">*{stroke-linejoin: round; stroke-linecap: butt}</style>
 </defs>
 <g id="figure_1">
  <g id="patch_1">
   <path d="M 0 216 
L 360 216 
L 360 0 
L 0 0 
z
" style="fill: #ffffff"/>
  </g>
  <g id="axes_1">
   <g id="patch_2">
    <path d="M 51.95 188.12 
L 349.2 188.12 
L 349.2 10.8 
L 51.95 10.8 
z
" style="fill: #ffffff"/>
   </g>
   <g id="matplotlib.axis_1">
    <g id="xtick_1">
     <g id="line2d_1">
      <defs>
       <path id="me3f4990eef" d="M 0 0 
L 0 3.5 
" style="stroke: #37539c; stroke-width: 0.8"/>
      </defs>
      <g>
       <use xlink:href="#me3f4990eef" x="65.461364" y="188.12" style="fill: #37539c; stroke: #37539c; stroke-width: 0.8"/>
      </g>
     </g>
     <g id="text_1">
      <!-- 2013 -->
      <g style="fill: #37539c" transform="translate(54.026989 202.718437) scale(0.1 -0.1)">
       <defs>
        <path id="OpenSans-Bold-32" d="M 3450 0 
L 256 0 
L 256 672 
L 1403 1831 
Q 1750 2188 1961 2427 
Q 2172 2666 2267 2862 
Q 2363 3059 2363 3284 
Q 2363 3556 2211 3692 
Q 2059 3828 1806 3828 
Q 1541 3828 1291 3706 
Q 1041 3584 769 3359 
L 244 3981 
Q 441 4150 661 4300 
Q 881 4450 1173 4542 
Q 1466 4634 1875 4634 
Q 2325 4634 2648 4471 
Q 2972 4309 3147 4029 
Q 3322 3750 3322 3397 
Q 3322 3019 3172 2706 
Q 3022 2394 2736 2087 
Q 2450 1781 2047 1409 
L 1459 856 
L 1459 813 
L 3450 813 
L 3450 0 
z
" transform="scale(0.015625)"/>
        <path id="OpenSans-Bold-30" d="M 3425 2284 
Q 3425 1731 3339 1297 
Q 3253 863 3064 559 
Q 2875 256 2569 96 
Q 2263 -63 1825 -63 
Q 1275 -63 922 217 
Q 569 497 400 1023 
Q 231 1550 231 2284 
Q 231 3025 386 3551 
Q 541 4078 891 4359 
Q 1241 4641 1825 4641 
Q 2372 4641 2726 4361 
Q 3081 4081 3253 3554 
Q 3425 3028 3425 2284 
z
M 1191 2284 
Q 1191 1763 1248 1414 
Q 1306 1066 1443 891 
Q 1581 716 1825 716 
Q 2066 716 2205 889 
Q 2344 1063 2403 1411 
Q 2463 1759 2463 2284 
Q 2463 2806 2403 3156 
Q 2344 3506 2205 3682 
Q 2066 3859 1825 3859 
Q 1581 3859 1443 3682 
Q 1306 3506 1248 3156 
Q 1191 2806 1191 2284 
z
" transform="scale(0.015625)"/>
        <path id="OpenSans-Bold-31" d="M 2644 0 
L 1678 0 
L 1678 2644 
Q 1678 2753 1681 2914 
Q 1684 3075 1690 3245 
Q 1697 3416 1703 3553 
Q 1669 3513 1564 3414 
Q 1459 3316 1369 3238 
L 844 2816 
L 378 3397 
L 1850 4569 
L 2644 4569 
L 2644 0 
z
" transform="scale(0.015625)"/>
        <path id="OpenSans-Bold-33" d="M 3272 3547 
Q 3272 3231 3140 3000 
Q 3009 2769 2786 2622 
Q 2563 2475 2284 2406 
L 2284 2388 
Q 2834 2319 3120 2050 
Q 3406 1781 3406 1331 
Q 3406 931 3211 615 
Q 3016 300 2609 118 
Q 2203 -63 1563 -63 
Q 1184 -63 857 -2 
Q 531 59 244 184 
L 244 1006 
Q 538 856 859 779 
Q 1181 703 1459 703 
Q 1978 703 2186 883 
Q 2394 1063 2394 1388 
Q 2394 1578 2297 1709 
Q 2200 1841 1961 1909 
Q 1722 1978 1294 1978 
L 947 1978 
L 947 2719 
L 1300 2719 
Q 1722 2719 1942 2798 
Q 2163 2878 2242 3017 
Q 2322 3156 2322 3334 
Q 2322 3578 2172 3715 
Q 2022 3853 1672 3853 
Q 1453 3853 1273 3798 
Q 1094 3744 950 3667 
Q 806 3591 697 3519 
L 250 4184 
Q 519 4378 880 4506 
Q 1241 4634 1741 4634 
Q 2447 4634 2859 4350 
Q 3272 4066 3272 3547 
z
" transform="scale(0.015625)"/>
       </defs>
       <use xlink:href="#OpenSans-Bold-32"/>
       <use xlink:href="#OpenSans-Bold-30" x="57.177734"/>
       <use xlink:href="#OpenSans-Bold-31" x="114.355469"/>
       <use xlink:href="#OpenSans-Bold-33" x="171.533203"/>
      </g>
     </g>
    </g>
    <g id="xtick_2">
     <g id="line2d_2">
      <g>
       <use xlink:href="#me3f4990eef" x="104.06526" y="188.12" style="fill: #37539c; stroke: #37539c; stroke-width: 0.8"/>
      </g>
     </g>
     <g id="text_2">
      <!-- 2014 -->
      <g style="fill: #37539c" transform="translate(92.630885 202.718437) scale(0.1 -0.1)">
       <defs>
        <path id="OpenSans-Bold-34" d="M 3553 947 
L 3003 947 
L 3003 0 
L 2059 0 
L 2059 947 
L 109 947 
L 109 1619 
L 2113 4569 
L 3003 4569 
L 3003 1697 
L 3553 1697 
L 3553 947 
z
M 2059 1697 
L 2059 2472 
Q 2059 2581 2064 2731 
Q 2069 2881 2075 3031 
Q 2081 3181 2089 3298 
Q 2097 3416 2100 3463 
L 2075 3463 
Q 2016 3334 1950 3214 
Q 1884 3094 1797 2963 
L 959 1697 
L 2059 1697 
z
" transform="scale(0.015625)"/>
       </defs>
       <use xlink:href="#OpenSans-Bold-32"/>
       <use xlink:href="#OpenSans-Bold-30" x="57.177734"/>
       <use xlink:href="#OpenSans-Bold-31" x="114.355469"/>
       <use xlink:href="#OpenSans-Bold-34" x="171.533203"/>
      </g>
     </g>
    </g>
    <g id="xtick_3">
     <g id="line2d_3">
      <g>
       <use xlink:href="#me3f4990eef" x="142.669156" y="188.12" style="fill: #37539c; stroke: #37539c; stroke-width: 0.8"/>
      </g>
     </g>
     <g id="text_3">
      <!-- 2015 -->
      <g style="fill: #37539c" transform="translate(131.234781 202.718437) scale(0.1 -0.1)">
       <defs>
        <path id="OpenSans-Bold-35" d="M 1919 2919 
Q 2338 2919 2664 2759 
Q 2991 2600 3178 2290 
Q 3366 1981 3366 1528 
Q 3366 1034 3161 676 
Q 2956 319 2551 128 
Q 2147 -63 1544 -63 
Q 1184 -63 867 -2 
Q 550 59 313 184 
L 313 1019 
Q 550 894 883 808 
Q 1216 722 1509 722 
Q 1797 722 1994 798 
Q 2191 875 2292 1036 
Q 2394 1197 2394 1447 
Q 2394 1781 2169 1959 
Q 1944 2138 1478 2138 
Q 1300 2138 1108 2103 
Q 916 2069 788 2034 
L 403 2241 
L 575 4569 
L 3053 4569 
L 3053 3750 
L 1422 3750 
L 1338 2853 
Q 1444 2875 1569 2897 
Q 1694 2919 1919 2919 
z
" transform="scale(0.015625)"/>
       </defs>
       <use xlink:href="#OpenSans-Bold-32"/>
       <use xlink:href="#OpenSans-Bold-30" x="57.177734"/>
       <use xlink:href="#OpenSans-Bold-31" x="114.355469"/>
       <use xlink:href="#OpenSans-Bold-35" x="171.533203"/>
      </g>
     </g>
    </g>
    <g id="xtick_4">
     <g id="line2d_4">
      <g>
       <use xlink:href="#me3f4990eef" x="181.273052" y="188.12" style="fill: #37539c; stroke: #37539c; stroke-width: 0.8"/>
      </g>
     </g>
     <g id="text_4">
      <!-- 2016 -->
      <g style="fill: #37539c" transform="translate(169.838677 202.718437) scale(0.1 -0.1)">
       <defs>
        <path id="OpenSans-Bold-36" d="M 225 1941 
Q 225 2334 283 2720 
Q 341 3106 484 3448 
Q 628 3791 887 4055 
Q 1147 4319 1547 4470 
Q 1947 4622 2516 4622 
Q 2650 4622 2829 4611 
Q 3009 4600 3128 4575 
L 3128 3803 
Q 3003 3831 2861 3848 
Q 2719 3866 2578 3866 
Q 2009 3866 1698 3684 
Q 1388 3503 1261 3183 
Q 1134 2863 1113 2438 
L 1153 2438 
Q 1241 2591 1373 2709 
Q 1506 2828 1697 2898 
Q 1888 2969 2144 2969 
Q 2544 2969 2837 2798 
Q 3131 2628 3290 2306 
Q 3450 1984 3450 1522 
Q 3450 1028 3259 672 
Q 3069 316 2720 126 
Q 2372 -63 1894 -63 
Q 1544 -63 1241 57 
Q 938 178 709 425 
Q 481 672 353 1048 
Q 225 1425 225 1941 
z
M 1875 709 
Q 2159 709 2337 903 
Q 2516 1097 2516 1509 
Q 2516 1844 2361 2036 
Q 2206 2228 1894 2228 
Q 1681 2228 1520 2133 
Q 1359 2038 1271 1892 
Q 1184 1747 1184 1594 
Q 1184 1434 1228 1278 
Q 1272 1122 1359 994 
Q 1447 866 1576 787 
Q 1706 709 1875 709 
z
" transform="scale(0.015625)"/>
       </defs>
       <use xlink:href="#OpenSans-Bold-32"/>
       <use xlink:href="#OpenSans-Bold-30" x="57.177734"/>
       <use xlink:href="#OpenSans-Bold-31" x="114.355469"/>
       <use xlink:href="#OpenSans-Bold-36" x="171.533203"/>
      </g>
     </g>
    </g>
    <g id="xtick_5">
     <g id="line2d_5">
      <g>
       <use xlink:href="#me3f4990eef" x="219.876948" y="188.12" style="fill: #37539c; stroke: #37539c; stroke-width: 0.8"/>
      </g>
     </g>
     <g id="text_5">
      <!-- 2017 -->
      <g style="fill: #37539c" transform="translate(208.442573 202.718437) scale(0.1 -0.1)">
       <defs>
        <path id="OpenSans-Bold-37" d="M 709 0 
L 2425 3756 
L 172 3756 
L 172 4569 
L 3450 4569 
L 3450 3963 
L 1722 0 
L 709 0 
z
" transform="scale(0.015625)"/>
       </defs>
       <use xlink:href="#OpenSans-Bold-32"/>
       <use xlink:href="#OpenSans-Bold-30" x="57.177734"/>
       <use xlink:href="#OpenSans-Bold-31" x="114.355469"/>
       <use xlink:href="#OpenSans-Bold-37" x="171.533203"/>
      </g>
     </g>
    </g>
    <g id="xtick_6">
     <g id="line2d_6">
      <g>
       <use xlink:href="#me3f4990eef" x="258.480844" y="188.12" style="fill: #37539c; stroke: #37539c; stroke-width: 0.8"/>
      </g>
     </g>
     <g id="text_6">
      <!-- 2018 -->
      <g style="fill: #37539c" transform="translate(247.046469 202.718437) scale(0.1 -0.1)">
       <defs>
        <path id="OpenSans-Bold-38" d="M 1831 4628 
Q 2225 4628 2558 4506 
Q 2891 4384 3091 4139 
Q 3291 3894 3291 3525 
Q 3291 3250 3183 3044 
Q 3075 2838 2890 2683 
Q 2706 2528 2472 2413 
Q 2716 2284 2934 2114 
Q 3153 1944 3292 1716 
Q 3431 1488 3431 1184 
Q 3431 803 3228 523 
Q 3025 244 2665 90 
Q 2306 -63 1831 -63 
Q 1319 -63 959 84 
Q 600 231 412 504 
Q 225 778 225 1159 
Q 225 1472 342 1703 
Q 459 1934 659 2101 
Q 859 2269 1100 2388 
Q 897 2516 730 2678 
Q 563 2841 464 3050 
Q 366 3259 366 3531 
Q 366 3894 570 4137 
Q 775 4381 1109 4504 
Q 1444 4628 1831 4628 
z
M 1119 1216 
Q 1119 969 1295 808 
Q 1472 647 1819 647 
Q 2178 647 2356 801 
Q 2534 956 2534 1209 
Q 2534 1384 2432 1515 
Q 2331 1647 2178 1751 
Q 2025 1856 1869 1947 
L 1784 1991 
Q 1584 1900 1436 1787 
Q 1288 1675 1203 1534 
Q 1119 1394 1119 1216 
z
M 1825 3922 
Q 1588 3922 1431 3800 
Q 1275 3678 1275 3456 
Q 1275 3300 1351 3183 
Q 1428 3066 1554 2978 
Q 1681 2891 1831 2816 
Q 1975 2884 2100 2968 
Q 2225 3053 2303 3172 
Q 2381 3291 2381 3456 
Q 2381 3678 2223 3800 
Q 2066 3922 1825 3922 
z
" transform="scale(0.015625)"/>
       </defs>
       <use xlink:href="#OpenSans-Bold-32"/>
       <use xlink:href="#OpenSans-Bold-30" x="57.177734"/>
       <use xlink:href="#OpenSans-Bold-31" x="114.355469"/>
       <use xlink:href="#OpenSans-Bold-38" x="171.533203"/>
      </g>
     </g>
    </g>
    <g id="xtick_7">
     <g id="line2d_7">
      <g>
       <use xlink:href="#me3f4990eef" x="297.08474" y="188.12" style="fill: #37539c; stroke: #37539c; stroke-width: 0.8"/>
      </g>
     </g>
     <g id="text_7">
      <!-- 2019 -->
      <g style="fill: #37539c" transform="translate(285.650365 202.718437) scale(0.1 -0.1)">
       <defs>
        <path id="OpenSans-Bold-39" d="M 3431 2619 
Q 3431 2225 3373 1837 
Q 3316 1450 3172 1108 
Q 3028 766 2768 502 
Q 2509 238 2109 87 
Q 1709 -63 1141 -63 
Q 1006 -63 825 -52 
Q 644 -41 525 -19 
L 525 756 
Q 650 725 790 708 
Q 931 691 1075 691 
Q 1647 691 1958 872 
Q 2269 1053 2395 1375 
Q 2522 1697 2541 2119 
L 2503 2119 
Q 2413 1969 2289 1848 
Q 2166 1728 1975 1658 
Q 1784 1588 1491 1588 
Q 1100 1588 811 1758 
Q 522 1928 364 2251 
Q 206 2575 206 3034 
Q 206 3531 395 3886 
Q 584 4241 934 4431 
Q 1284 4622 1759 4622 
Q 2109 4622 2412 4501 
Q 2716 4381 2945 4134 
Q 3175 3888 3303 3509 
Q 3431 3131 3431 2619 
z
M 1778 3847 
Q 1497 3847 1319 3653 
Q 1141 3459 1141 3047 
Q 1141 2716 1294 2522 
Q 1447 2328 1759 2328 
Q 1975 2328 2134 2423 
Q 2294 2519 2383 2664 
Q 2472 2809 2472 2963 
Q 2472 3122 2428 3278 
Q 2384 3434 2296 3562 
Q 2209 3691 2079 3769 
Q 1950 3847 1778 3847 
z
" transform="scale(0.015625)"/>
       </defs>
       <use xlink:href="#OpenSans-Bold-32"/>
       <use xlink:href="#OpenSans-Bold-30" x="57.177734"/>
       <use xlink:href="#OpenSans-Bold-31" x="114.355469"/>
       <use xlink:href="#OpenSans-Bold-39" x="171.533203"/>
      </g>
     </g>
    </g>
    <g id="xtick_8">
     <g id="line2d_8">
      <g>
       <use xlink:href="#me3f4990eef" x="335.688636" y="188.12" style="fill: #37539c; stroke: #37539c; stroke-width: 0.8"/>
      </g>
     </g>
     <g id="text_8">
      <!-- 2020 -->
      <g style="fill: #37539c" transform="translate(324.254261 202.718437) scale(0.1 -0.1)">
       <use xlink:href="#OpenSans-Bold-32"/>
       <use xlink:href="#OpenSans-Bold-30" x="57.177734"/>
       <use xlink:href="#OpenSans-Bold-32" x="114.355469"/>
       <use xlink:href="#OpenSans-Bold-30" x="171.533203"/>
      </g>
     </g>
    </g>
   </g>
   <g id="matplotlib.axis_2">
    <g id="ytick_1">
     <g id="line2d_9">
      <path d="M 51.95 180.06 
L 349.2 180.06 
" clip-path="url(#p830be74825)" style="fill: none; stroke-dasharray: 2.96,1.28; stroke-dashoffset: 0; stroke: #b0b0b0; stroke-width: 0.8"/>
     </g>
     <g id="line2d_10">
      <defs>
       <path id="m5d7d813949" d="M 0 0 
L -3.5 0 
" style="stroke: #37539c; stroke-width: 0.8"/>
      </defs>
      <g>
       <use xlink:href="#m5d7d813949" x="51.95" y="180.06" style="fill: #37539c; stroke: #37539c; stroke-width: 0.8"/>
      </g>
     </g>
     <g id="text_9">
      <!-- 44.4 -->
      <g style="fill: #37539c" transform="translate(24.946875 183.859219) scale(0.1 -0.1)">
       <defs>
        <path id="OpenSans-Bold-2e" d="M 366 447 
Q 366 741 527 859 
Q 688 978 916 978 
Q 1138 978 1298 859 
Q 1459 741 1459 447 
Q 1459 166 1298 41 
Q 1138 -84 916 -84 
Q 688 -84 527 41 
Q 366 166 366 447 
z
" transform="scale(0.015625)"/>
       </defs>
       <use xlink:href="#OpenSans-Bold-34"/>
       <use xlink:href="#OpenSans-Bold-34" x="57.177734"/>
       <use xlink:href="#OpenSans-Bold-2e" x="114.355469"/>
       <use xlink:href="#OpenSans-Bold-34" x="142.871094"/>
      </g>
     </g>
    </g>
    <g id="ytick_2">
     <g id="line2d_11">
      <path d="M 51.95 157.031429 
L 349.2 157.031429 
" clip-path="url(#p830be74825)" style="fill: none; stroke-dasharray: 2.96,1.28; stroke-dashoffset: 0; stroke: #b0b0b0; stroke-width: 0.8"/>
     </g>
     <g id="line2d_12">
      <g>
       <use xlink:href="#m5d7d813949" x="51.95" y="157.031429" style="fill: #37539c; stroke: #37539c; stroke-width: 0.8"/>
      </g>
     </g>
     <g id="text_10">
      <!-- 44.6 -->
      <g style="fill: #37539c" transform="translate(24.946875 160.830647) scale(0.1 -0.1)">
       <use xlink:href="#OpenSans-Bold-34"/>
       <use xlink:href="#OpenSans-Bold-34" x="57.177734"/>
       <use xlink:href="#OpenSans-Bold-2e" x="114.355469"/>
       <use xlink:href="#OpenSans-Bold-36" x="142.871094"/>
      </g>
     </g>
    </g>
    <g id="ytick_3">
     <g id="line2d_13">
      <path d="M 51.95 134.002857 
L 349.2 134.002857 
" clip-path="url(#p830be74825)" style="fill: none; stroke-dasharray: 2.96,1.28; stroke-dashoffset: 0; stroke: #b0b0b0; stroke-width: 0.8"/>
     </g>
     <g id="line2d_14">
      <g>
       <use xlink:href="#m5d7d813949" x="51.95" y="134.002857" style="fill: #37539c; stroke: #37539c; stroke-width: 0.8"/>
      </g>
     </g>
     <g id="text_11">
      <!-- 44.8 -->
      <g style="fill: #37539c" transform="translate(24.946875 137.802076) scale(0.1 -0.1)">
       <use xlink:href="#OpenSans-Bold-34"/>
       <use xlink:href="#OpenSans-Bold-34" x="57.177734"/>
       <use xlink:href="#OpenSans-Bold-2e" x="114.355469"/>
       <use xlink:href="#OpenSans-Bold-38" x="142.871094"/>
      </g>
     </g>
    </g>
    <g id="ytick_4">
     <g id="line2d_15">
      <path d="M 51.95 110.974286 
L 349.2 110.974286 
" clip-path="url(#p830be74825)" style="fill: none; stroke-dasharray: 2.96,1.28; stroke-dashoffset: 0; stroke: #b0b0b0; stroke-width: 0.8"/>
     </g>
     <g id="line2d_16">
      <g>
       <use xlink:href="#m5d7d813949" x="51.95" y="110.974286" style="fill: #37539c; stroke: #37539c; stroke-width: 0.8"/>
      </g>
     </g>
     <g id="text_12">
      <!-- 45.0 -->
      <g style="fill: #37539c" transform="translate(24.946875 114.773504) scale(0.1 -0.1)">
       <use xlink:href="#OpenSans-Bold-34"/>
       <use xlink:href="#OpenSans-Bold-35" x="57.177734"/>
       <use xlink:href="#OpenSans-Bold-2e" x="114.355469"/>
       <use xlink:href="#OpenSans-Bold-30" x="142.871094"/>
      </g>
     </g>
    </g>
    <g id="ytick_5">
     <g id="line2d_17">
      <path d="M 51.95 87.945714 
L 349.2 87.945714 
" clip-path="url(#p830be74825)" style="fill: none; stroke-dasharray: 2.96,1.28; stroke-dashoffset: 0; stroke: #b0b0b0; stroke-width: 0.8"/>
     </g>
     <g id="line2d_18">
      <g>
       <use xlink:href="#m5d7d813949" x="51.95" y="87.945714" style="fill: #37539c; stroke: #37539c; stroke-width: 0.8"/>
      </g>
     </g>
     <g id="text_13">
      <!-- 45.2 -->
      <g style="fill: #37539c" transform="translate(24.946875 91.744933) scale(0.1 -0.1)">
       <use xlink:href="#OpenSans-Bold-34"/>
       <use xlink:href="#OpenSans-Bold-35" x="57.177734"/>
       <use xlink:href="#OpenSans-Bold-2e" x="114.355469"/>
       <use xlink:href="#OpenSans-Bold-32" x="142.871094"/>
      </g>
     </g>
    </g>
    <g id="ytick_6">
     <g id="line2d_19">
      <path d="M 51.95 64.917143 
L 349.2 64.917143 
" clip-path="url(#p830be74825)" style="fill: none; stroke-dasharray: 2.96,1.28; stroke-dashoffset: 0; stroke: #b0b0b0; stroke-width: 0.8"/>
     </g>
     <g id="line2d_20">
      <g>
       <use xlink:href="#m5d7d813949" x="51.95" y="64.917143" style="fill: #37539c; stroke: #37539c; stroke-width: 0.8"/>
      </g>
     </g>
     <g id="text_14">
      <!-- 45.4 -->
      <g style="fill: #37539c" transform="translate(24.946875 68.716362) scale(0.1 -0.1)">
       <use xlink:href="#OpenSans-Bold-34"/>
       <use xlink:href="#OpenSans-Bold-35" x="57.177734"/>
       <use xlink:href="#OpenSans-Bold-2e" x="114.355469"/>
       <use xlink:href="#OpenSans-Bold-34" x="142.871094"/>
      </g>
     </g>
    </g>
    <g id="ytick_7">
     <g id="line2d_21">
      <path d="M 51.95 41.888571 
L 349.2 41.888571 
" clip-path="url(#p830be74825)" style="fill: none; stroke-dasharray: 2.96,1.28; stroke-dashoffset: 0; stroke: #b0b0b0; stroke-width: 0.8"/>
     </g>
     <g id="line2d_22">
      <g>
       <use xlink:href="#m5d7d813949" x="51.95" y="41.888571" style="fill: #37539c; stroke: #37539c; stroke-width: 0.8"/>
      </g>
     </g>
     <g id="text_15">
      <!-- 45.6 -->
      <g style="fill: #37539c" transform="translate(24.946875 45.68779) scale(0.1 -0.1)">
       <use xlink:href="#OpenSans-Bold-34"/>
       <use xlink:href="#OpenSans-Bold-35" x="57.177734"/>
       <use xlink:href="#OpenSans-Bold-2e" x="114.355469"/>
       <use xlink:href="#OpenSans-Bold-36" x="142.871094"/>
      </g>
     </g>
    </g>
    <g id="ytick_8">
     <g id="line2d_23">
      <path d="M 51.95 18.86 
L 349.2 18.86 
" clip-path="url(#p830be74825)" style="fill: none; stroke-dasharray: 2.96,1.28; stroke-dashoffset: 0; stroke: #b0b0b0; stroke-width: 0.8"/>
     </g>
     <g id="line2d_24">
      <g>
       <use xlink:href="#m5d7d813949" x="51.95" y="18.86" style="fill: #37539c; stroke: #37539c; stroke-width: 0.8"/>
      </g>
     </g>
     <g id="text_16">
      <!-- 45.8 -->
      <g style="fill: #37539c" transform="translate(24.946875 22.659219) scale(0.1 -0.1)">
       <use xlink:href="#OpenSans-Bold-34"/>
       <use xlink:href="#OpenSans-Bold-35" x="57.177734"/>
       <use xlink:href="#OpenSans-Bold-2e" x="114.355469"/>
       <use xlink:href="#OpenSans-Bold-38" x="142.871094"/>
      </g>
     </g>
    </g>
    <g id="text_17">
     <!-- Ãndice de Gini -->
     <g style="fill: #37539c" transform="translate(18.54375 133.290469) rotate(-90) scale(0.1 -0.1)">
      <defs>
       <path id="OpenSans-Bold-cd" d="M 575 0 
L 575 4569 
L 1544 4569 
L 1544 0 
L 575 0 
z
M 2411 5991 
L 2411 5926 
Q 2321 5838 2174 5710 
Q 2027 5582 1858 5443 
Q 1690 5304 1527 5177 
Q 1365 5051 1243 4966 
L 608 4966 
L 608 5051 
Q 711 5169 847 5333 
Q 983 5497 1117 5672 
Q 1252 5847 1343 5991 
L 2411 5991 
z
" transform="scale(0.015625)"/>
       <path id="OpenSans-Bold-6e" d="M 2484 3559 
Q 3044 3559 3384 3254 
Q 3725 2950 3725 2278 
L 3725 0 
L 2772 0 
L 2772 2041 
Q 2772 2416 2636 2606 
Q 2500 2797 2209 2797 
Q 1772 2797 1612 2500 
Q 1453 2203 1453 1644 
L 1453 0 
L 500 0 
L 500 3494 
L 1228 3494 
L 1356 3047 
L 1409 3047 
Q 1522 3228 1689 3340 
Q 1856 3453 2061 3506 
Q 2266 3559 2484 3559 
z
" transform="scale(0.015625)"/>
       <path id="OpenSans-Bold-64" d="M 1606 -63 
Q 1022 -63 655 395 
Q 288 853 288 1741 
Q 288 2638 659 3098 
Q 1031 3559 1631 3559 
Q 1881 3559 2072 3490 
Q 2263 3422 2402 3306 
Q 2541 3191 2638 3047 
L 2669 3047 
Q 2650 3147 2623 3342 
Q 2597 3538 2597 3744 
L 2597 4863 
L 3553 4863 
L 3553 0 
L 2822 0 
L 2638 453 
L 2597 453 
Q 2506 309 2370 192 
Q 2234 75 2046 6 
Q 1859 -63 1606 -63 
z
M 1941 697 
Q 2331 697 2492 930 
Q 2653 1163 2663 1631 
L 2663 1734 
Q 2663 2244 2506 2514 
Q 2350 2784 1925 2784 
Q 1609 2784 1431 2512 
Q 1253 2241 1253 1728 
Q 1253 1216 1433 956 
Q 1613 697 1941 697 
z
" transform="scale(0.015625)"/>
       <path id="OpenSans-Bold-69" d="M 1453 3494 
L 1453 0 
L 500 0 
L 500 3494 
L 1453 3494 
z
M 978 4863 
Q 1191 4863 1344 4764 
Q 1497 4666 1497 4397 
Q 1497 4131 1344 4029 
Q 1191 3928 978 3928 
Q 763 3928 611 4029 
Q 459 4131 459 4397 
Q 459 4666 611 4764 
Q 763 4863 978 4863 
z
" transform="scale(0.015625)"/>
       <path id="OpenSans-Bold-63" d="M 1919 -63 
Q 1400 -63 1034 126 
Q 669 316 478 712 
Q 288 1109 288 1728 
Q 288 2369 505 2773 
Q 722 3178 1108 3368 
Q 1494 3559 2003 3559 
Q 2366 3559 2630 3489 
Q 2894 3419 3091 3322 
L 2809 2584 
Q 2584 2675 2390 2733 
Q 2197 2791 2003 2791 
Q 1753 2791 1587 2673 
Q 1422 2556 1340 2322 
Q 1259 2088 1259 1734 
Q 1259 1388 1346 1159 
Q 1434 931 1600 820 
Q 1766 709 2003 709 
Q 2300 709 2531 789 
Q 2763 869 2981 1013 
L 2981 197 
Q 2763 59 2523 -2 
Q 2284 -63 1919 -63 
z
" transform="scale(0.015625)"/>
       <path id="OpenSans-Bold-65" d="M 1941 3559 
Q 2425 3559 2775 3373 
Q 3125 3188 3315 2834 
Q 3506 2481 3506 1972 
L 3506 1509 
L 1253 1509 
Q 1269 1106 1495 876 
Q 1722 647 2125 647 
Q 2459 647 2737 715 
Q 3016 784 3309 922 
L 3309 184 
Q 3050 56 2767 -3 
Q 2484 -63 2081 -63 
Q 1556 -63 1151 131 
Q 747 325 517 722 
Q 288 1119 288 1722 
Q 288 2334 495 2742 
Q 703 3150 1075 3354 
Q 1447 3559 1941 3559 
z
M 1947 2881 
Q 1669 2881 1486 2703 
Q 1303 2525 1275 2144 
L 2613 2144 
Q 2609 2356 2536 2522 
Q 2463 2688 2317 2784 
Q 2172 2881 1947 2881 
z
" transform="scale(0.015625)"/>
       <path id="OpenSans-Bold-20" transform="scale(0.015625)"/>
       <path id="OpenSans-Bold-47" d="M 2309 2566 
L 4122 2566 
L 4122 197 
Q 3763 78 3375 7 
Q 2988 -63 2497 -63 
Q 1816 -63 1341 206 
Q 866 475 619 1000 
Q 372 1525 372 2291 
Q 372 3009 648 3534 
Q 925 4059 1458 4346 
Q 1991 4634 2759 4634 
Q 3122 4634 3475 4556 
Q 3828 4478 4116 4353 
L 3794 3578 
Q 3584 3684 3315 3756 
Q 3047 3828 2753 3828 
Q 2331 3828 2020 3634 
Q 1709 3441 1539 3092 
Q 1369 2744 1369 2272 
Q 1369 1825 1491 1479 
Q 1613 1134 1875 939 
Q 2138 744 2559 744 
Q 2766 744 2908 764 
Q 3050 784 3175 806 
L 3175 1759 
L 2309 1759 
L 2309 2566 
z
" transform="scale(0.015625)"/>
      </defs>
      <use xlink:href="#OpenSans-Bold-cd"/>
      <use xlink:href="#OpenSans-Bold-6e" x="33.105469"/>
      <use xlink:href="#OpenSans-Bold-64" x="98.828125"/>
      <use xlink:href="#OpenSans-Bold-69" x="162.109375"/>
      <use xlink:href="#OpenSans-Bold-63" x="192.626953"/>
      <use xlink:href="#OpenSans-Bold-65" x="244.042969"/>
      <use xlink:href="#OpenSans-Bold-20" x="303.125"/>
      <use xlink:href="#OpenSans-Bold-64" x="329.101562"/>
      <use xlink:href="#OpenSans-Bold-65" x="392.382812"/>
      <use xlink:href="#OpenSans-Bold-20" x="451.464844"/>
      <use xlink:href="#OpenSans-Bold-47" x="477.441406"/>
      <use xlink:href="#OpenSans-Bold-69" x="549.853516"/>
      <use xlink:href="#OpenSans-Bold-6e" x="580.371094"/>
      <use xlink:href="#OpenSans-Bold-69" x="646.09375"/>
     </g>
    </g>
   </g>
   <g id="line2d_25">
    <path d="M 65.461364 18.86 
L 142.669156 180.06 
L 219.876948 180.06 
L 335.688636 122.488571 
" clip-path="url(#p830be74825)" style="fill: none; stroke: #37539c; stroke-width: 1.5; stroke-linecap: square"/>
    <defs>
     <path id="m7a3a702666" d="M 0 2 
C 0.530406 2 1.03916 1.789267 1.414214 1.414214 
C 1.789267 1.03916 2 0.530406 2 0 
C 2 -0.530406 1.789267 -1.03916 1.414214 -1.414214 
C 1.03916 -1.789267 0.530406 -2 0 -2 
C -0.530406 -2 -1.03916 -1.789267 -1.414214 -1.414214 
C -1.789267 -1.03916 -2 -0.530406 -2 0 
C -2 0.530406 -1.789267 1.03916 -1.414214 1.414214 
C -1.03916 1.789267 -0.530406 2 0 2 
z
" style="stroke: #37539c"/>
    </defs>
    <g clip-path="url(#p830be74825)">
     <use xlink:href="#m7a3a702666" x="65.461364" y="18.86" style="fill: #37539c; stroke: #37539c"/>
     <use xlink:href="#m7a3a702666" x="142.669156" y="180.06" style="fill: #37539c; stroke: #37539c"/>
     <use xlink:href="#m7a3a702666" x="219.876948" y="180.06" style="fill: #37539c; stroke: #37539c"/>
     <use xlink:href="#m7a3a702666" x="335.688636" y="122.488571" style="fill: #37539c; stroke: #37539c"/>
    </g>
   </g>
   <g id="patch_3">
    <path d="M 51.95 188.12 
L 51.95 10.8 
" style="fill: none; stroke: #000000; stroke-width: 0.8; stroke-linejoin: miter; stroke-linecap: square"/>
   </g>
   <g id="patch_4">
    <path d="M 51.95 188.12 
L 349.2 188.12 
" style="fill: none; stroke: #000000; stroke-width: 0.8; stroke-linejoin: miter; stroke-linecap: square"/>
   </g>
   <g id="text_18">
    <!-- 45.8 -->
    <g style="fill: #37539c" transform="translate(69.321753 18.86) scale(0.08 -0.08)">
     <use xlink:href="#OpenSans-Bold-34"/>
     <use xlink:href="#OpenSans-Bold-35" x="57.177734"/>
     <use xlink:href="#OpenSans-Bold-2e" x="114.355469"/>
     <use xlink:href="#OpenSans-Bold-38" x="142.871094"/>
    </g>
   </g>
   <g id="text_19">
    <!-- 44.9 -->
    <g style="fill: #37539c" transform="translate(316.386688 122.488571) scale(0.08 -0.08)">
     <use xlink:href="#OpenSans-Bold-34"/>
     <use xlink:href="#OpenSans-Bold-34" x="57.177734"/>
     <use xlink:href="#OpenSans-Bold-2e" x="114.355469"/>
     <use xlink:href="#OpenSans-Bold-39" x="142.871094"/>
    </g>
   </g>
  </g>
 </g>
 <defs>
  <clipPath id="p830be74825">
   <rect x="51.95" y="10.8" width="297.25" height="177.32"/>
  </clipPath>
 </defs>
</svg>
