<?xml version="1.0" encoding="utf-8" standalone="no"?>
<!DOCTYPE svg PUBLIC "-//W3C//DTD SVG 1.1//EN"
  "http://www.w3.org/Graphics/SVG/1.1/DTD/svg11.dtd">
<svg xmlns:xlink="http://www.w3.org/1999/xlink" width="432pt" height="252pt" viewBox="0 0 432 252" xmlns="http://www.w3.org/2000/svg" version="1.1">
 <metadata>
  <rdf:RDF xmlns:dc="http://purl.org/dc/elements/1.1/" xmlns:cc="http://creativecommons.org/ns#" xmlns:rdf="http://www.w3.org/1999/02/22-rdf-syntax-ns#">
   <cc:Work>
    <dc:type rdf:resource="http://purl.org/dc/dcmitype/StillImage"/>
    <dc:date>2024-02-22T14:27:17.613181</dc:date>
    <dc:format>image/svg+xml</dc:format>
    <dc:creator>
     <cc:Agent>
      <dc:title>Matplotlib v3.7.1, https://matplotlib.org/</dc:title>
     </cc:Agent>
    </dc:creator>
   </cc:Work>
  </rdf:RDF>
 </metadata>
 <defs>
  <style type="text/css">*{stroke-linejoin: round; stroke-linecap: butt}</style>
 </defs>
 <g id="figure_1">
  <g id="patch_1">
   <path d="M 0 252 
L 432 252 
L 432 0 
L 0 0 
z
" style="fill: #ffffff"/>
  </g>
  <g id="axes_1">
   <g id="patch_2">
    <path d="M 54.974 215.553594 
L 421.2 215.553594 
L 421.2 10.8 
L 54.974 10.8 
z
" style="fill: #ffffff"/>
   </g>
   <g id="matplotlib.axis_1">
    <g id="xtick_1">
     <g id="line2d_1">
      <defs>
       <path id="m0753e679ba" d="M 0 0 
L 0 3.5 
" style="stroke: #37539c; stroke-width: 0.8"/>
      </defs>
      <g>
       <use xlink:href="#m0753e679ba" x="71.620636" y="215.553594" style="fill: #37539c; stroke: #37539c; stroke-width: 0.8"/>
      </g>
     </g>
     <g id="text_1">
      <!-- 2013 -->
      <g style="fill: #37539c" transform="translate(66.621833 239.788438) rotate(-45) scale(0.08 -0.08)">
       <defs>
        <path id="OpenSans-Bold-32" d="M 3450 0 
L 256 0 
L 256 672 
L 1403 1831 
Q 1750 2188 1961 2427 
Q 2172 2666 2267 2862 
Q 2363 3059 2363 3284 
Q 2363 3556 2211 3692 
Q 2059 3828 1806 3828 
Q 1541 3828 1291 3706 
Q 1041 3584 769 3359 
L 244 3981 
Q 441 4150 661 4300 
Q 881 4450 1173 4542 
Q 1466 4634 1875 4634 
Q 2325 4634 2648 4471 
Q 2972 4309 3147 4029 
Q 3322 3750 3322 3397 
Q 3322 3019 3172 2706 
Q 3022 2394 2736 2087 
Q 2450 1781 2047 1409 
L 1459 856 
L 1459 813 
L 3450 813 
L 3450 0 
z
" transform="scale(0.015625)"/>
        <path id="OpenSans-Bold-30" d="M 3425 2284 
Q 3425 1731 3339 1297 
Q 3253 863 3064 559 
Q 2875 256 2569 96 
Q 2263 -63 1825 -63 
Q 1275 -63 922 217 
Q 569 497 400 1023 
Q 231 1550 231 2284 
Q 231 3025 386 3551 
Q 541 4078 891 4359 
Q 1241 4641 1825 4641 
Q 2372 4641 2726 4361 
Q 3081 4081 3253 3554 
Q 3425 3028 3425 2284 
z
M 1191 2284 
Q 1191 1763 1248 1414 
Q 1306 1066 1443 891 
Q 1581 716 1825 716 
Q 2066 716 2205 889 
Q 2344 1063 2403 1411 
Q 2463 1759 2463 2284 
Q 2463 2806 2403 3156 
Q 2344 3506 2205 3682 
Q 2066 3859 1825 3859 
Q 1581 3859 1443 3682 
Q 1306 3506 1248 3156 
Q 1191 2806 1191 2284 
z
" transform="scale(0.015625)"/>
        <path id="OpenSans-Bold-31" d="M 2644 0 
L 1678 0 
L 1678 2644 
Q 1678 2753 1681 2914 
Q 1684 3075 1690 3245 
Q 1697 3416 1703 3553 
Q 1669 3513 1564 3414 
Q 1459 3316 1369 3238 
L 844 2816 
L 378 3397 
L 1850 4569 
L 2644 4569 
L 2644 0 
z
" transform="scale(0.015625)"/>
        <path id="OpenSans-Bold-33" d="M 3272 3547 
Q 3272 3231 3140 3000 
Q 3009 2769 2786 2622 
Q 2563 2475 2284 2406 
L 2284 2388 
Q 2834 2319 3120 2050 
Q 3406 1781 3406 1331 
Q 3406 931 3211 615 
Q 3016 300 2609 118 
Q 2203 -63 1563 -63 
Q 1184 -63 857 -2 
Q 531 59 244 184 
L 244 1006 
Q 538 856 859 779 
Q 1181 703 1459 703 
Q 1978 703 2186 883 
Q 2394 1063 2394 1388 
Q 2394 1578 2297 1709 
Q 2200 1841 1961 1909 
Q 1722 1978 1294 1978 
L 947 1978 
L 947 2719 
L 1300 2719 
Q 1722 2719 1942 2798 
Q 2163 2878 2242 3017 
Q 2322 3156 2322 3334 
Q 2322 3578 2172 3715 
Q 2022 3853 1672 3853 
Q 1453 3853 1273 3798 
Q 1094 3744 950 3667 
Q 806 3591 697 3519 
L 250 4184 
Q 519 4378 880 4506 
Q 1241 4634 1741 4634 
Q 2447 4634 2859 4350 
Q 3272 4066 3272 3547 
z
" transform="scale(0.015625)"/>
       </defs>
       <use xlink:href="#OpenSans-Bold-32"/>
       <use xlink:href="#OpenSans-Bold-30" x="57.177734"/>
       <use xlink:href="#OpenSans-Bold-31" x="114.355469"/>
       <use xlink:href="#OpenSans-Bold-33" x="171.533203"/>
      </g>
     </g>
    </g>
    <g id="xtick_2">
     <g id="line2d_2">
      <g>
       <use xlink:href="#m0753e679ba" x="108.613162" y="215.553594" style="fill: #37539c; stroke: #37539c; stroke-width: 0.8"/>
      </g>
     </g>
     <g id="text_2">
      <!-- 2014 -->
      <g style="fill: #37539c" transform="translate(103.614359 239.788438) rotate(-45) scale(0.08 -0.08)">
       <defs>
        <path id="OpenSans-Bold-34" d="M 3553 947 
L 3003 947 
L 3003 0 
L 2059 0 
L 2059 947 
L 109 947 
L 109 1619 
L 2113 4569 
L 3003 4569 
L 3003 1697 
L 3553 1697 
L 3553 947 
z
M 2059 1697 
L 2059 2472 
Q 2059 2581 2064 2731 
Q 2069 2881 2075 3031 
Q 2081 3181 2089 3298 
Q 2097 3416 2100 3463 
L 2075 3463 
Q 2016 3334 1950 3214 
Q 1884 3094 1797 2963 
L 959 1697 
L 2059 1697 
z
" transform="scale(0.015625)"/>
       </defs>
       <use xlink:href="#OpenSans-Bold-32"/>
       <use xlink:href="#OpenSans-Bold-30" x="57.177734"/>
       <use xlink:href="#OpenSans-Bold-31" x="114.355469"/>
       <use xlink:href="#OpenSans-Bold-34" x="171.533203"/>
      </g>
     </g>
    </g>
    <g id="xtick_3">
     <g id="line2d_3">
      <g>
       <use xlink:href="#m0753e679ba" x="145.605687" y="215.553594" style="fill: #37539c; stroke: #37539c; stroke-width: 0.8"/>
      </g>
     </g>
     <g id="text_3">
      <!-- 2015 -->
      <g style="fill: #37539c" transform="translate(140.606884 239.788438) rotate(-45) scale(0.08 -0.08)">
       <defs>
        <path id="OpenSans-Bold-35" d="M 1919 2919 
Q 2338 2919 2664 2759 
Q 2991 2600 3178 2290 
Q 3366 1981 3366 1528 
Q 3366 1034 3161 676 
Q 2956 319 2551 128 
Q 2147 -63 1544 -63 
Q 1184 -63 867 -2 
Q 550 59 313 184 
L 313 1019 
Q 550 894 883 808 
Q 1216 722 1509 722 
Q 1797 722 1994 798 
Q 2191 875 2292 1036 
Q 2394 1197 2394 1447 
Q 2394 1781 2169 1959 
Q 1944 2138 1478 2138 
Q 1300 2138 1108 2103 
Q 916 2069 788 2034 
L 403 2241 
L 575 4569 
L 3053 4569 
L 3053 3750 
L 1422 3750 
L 1338 2853 
Q 1444 2875 1569 2897 
Q 1694 2919 1919 2919 
z
" transform="scale(0.015625)"/>
       </defs>
       <use xlink:href="#OpenSans-Bold-32"/>
       <use xlink:href="#OpenSans-Bold-30" x="57.177734"/>
       <use xlink:href="#OpenSans-Bold-31" x="114.355469"/>
       <use xlink:href="#OpenSans-Bold-35" x="171.533203"/>
      </g>
     </g>
    </g>
    <g id="xtick_4">
     <g id="line2d_4">
      <g>
       <use xlink:href="#m0753e679ba" x="182.598212" y="215.553594" style="fill: #37539c; stroke: #37539c; stroke-width: 0.8"/>
      </g>
     </g>
     <g id="text_4">
      <!-- 2016 -->
      <g style="fill: #37539c" transform="translate(177.599409 239.788438) rotate(-45) scale(0.08 -0.08)">
       <defs>
        <path id="OpenSans-Bold-36" d="M 225 1941 
Q 225 2334 283 2720 
Q 341 3106 484 3448 
Q 628 3791 887 4055 
Q 1147 4319 1547 4470 
Q 1947 4622 2516 4622 
Q 2650 4622 2829 4611 
Q 3009 4600 3128 4575 
L 3128 3803 
Q 3003 3831 2861 3848 
Q 2719 3866 2578 3866 
Q 2009 3866 1698 3684 
Q 1388 3503 1261 3183 
Q 1134 2863 1113 2438 
L 1153 2438 
Q 1241 2591 1373 2709 
Q 1506 2828 1697 2898 
Q 1888 2969 2144 2969 
Q 2544 2969 2837 2798 
Q 3131 2628 3290 2306 
Q 3450 1984 3450 1522 
Q 3450 1028 3259 672 
Q 3069 316 2720 126 
Q 2372 -63 1894 -63 
Q 1544 -63 1241 57 
Q 938 178 709 425 
Q 481 672 353 1048 
Q 225 1425 225 1941 
z
M 1875 709 
Q 2159 709 2337 903 
Q 2516 1097 2516 1509 
Q 2516 1844 2361 2036 
Q 2206 2228 1894 2228 
Q 1681 2228 1520 2133 
Q 1359 2038 1271 1892 
Q 1184 1747 1184 1594 
Q 1184 1434 1228 1278 
Q 1272 1122 1359 994 
Q 1447 866 1576 787 
Q 1706 709 1875 709 
z
" transform="scale(0.015625)"/>
       </defs>
       <use xlink:href="#OpenSans-Bold-32"/>
       <use xlink:href="#OpenSans-Bold-30" x="57.177734"/>
       <use xlink:href="#OpenSans-Bold-31" x="114.355469"/>
       <use xlink:href="#OpenSans-Bold-36" x="171.533203"/>
      </g>
     </g>
    </g>
    <g id="xtick_5">
     <g id="line2d_5">
      <g>
       <use xlink:href="#m0753e679ba" x="219.590737" y="215.553594" style="fill: #37539c; stroke: #37539c; stroke-width: 0.8"/>
      </g>
     </g>
     <g id="text_5">
      <!-- 2017 -->
      <g style="fill: #37539c" transform="translate(214.591934 239.788438) rotate(-45) scale(0.08 -0.08)">
       <defs>
        <path id="OpenSans-Bold-37" d="M 709 0 
L 2425 3756 
L 172 3756 
L 172 4569 
L 3450 4569 
L 3450 3963 
L 1722 0 
L 709 0 
z
" transform="scale(0.015625)"/>
       </defs>
       <use xlink:href="#OpenSans-Bold-32"/>
       <use xlink:href="#OpenSans-Bold-30" x="57.177734"/>
       <use xlink:href="#OpenSans-Bold-31" x="114.355469"/>
       <use xlink:href="#OpenSans-Bold-37" x="171.533203"/>
      </g>
     </g>
    </g>
    <g id="xtick_6">
     <g id="line2d_6">
      <g>
       <use xlink:href="#m0753e679ba" x="256.583263" y="215.553594" style="fill: #37539c; stroke: #37539c; stroke-width: 0.8"/>
      </g>
     </g>
     <g id="text_6">
      <!-- 2018 -->
      <g style="fill: #37539c" transform="translate(251.58446 239.788438) rotate(-45) scale(0.08 -0.08)">
       <defs>
        <path id="OpenSans-Bold-38" d="M 1831 4628 
Q 2225 4628 2558 4506 
Q 2891 4384 3091 4139 
Q 3291 3894 3291 3525 
Q 3291 3250 3183 3044 
Q 3075 2838 2890 2683 
Q 2706 2528 2472 2413 
Q 2716 2284 2934 2114 
Q 3153 1944 3292 1716 
Q 3431 1488 3431 1184 
Q 3431 803 3228 523 
Q 3025 244 2665 90 
Q 2306 -63 1831 -63 
Q 1319 -63 959 84 
Q 600 231 412 504 
Q 225 778 225 1159 
Q 225 1472 342 1703 
Q 459 1934 659 2101 
Q 859 2269 1100 2388 
Q 897 2516 730 2678 
Q 563 2841 464 3050 
Q 366 3259 366 3531 
Q 366 3894 570 4137 
Q 775 4381 1109 4504 
Q 1444 4628 1831 4628 
z
M 1119 1216 
Q 1119 969 1295 808 
Q 1472 647 1819 647 
Q 2178 647 2356 801 
Q 2534 956 2534 1209 
Q 2534 1384 2432 1515 
Q 2331 1647 2178 1751 
Q 2025 1856 1869 1947 
L 1784 1991 
Q 1584 1900 1436 1787 
Q 1288 1675 1203 1534 
Q 1119 1394 1119 1216 
z
M 1825 3922 
Q 1588 3922 1431 3800 
Q 1275 3678 1275 3456 
Q 1275 3300 1351 3183 
Q 1428 3066 1554 2978 
Q 1681 2891 1831 2816 
Q 1975 2884 2100 2968 
Q 2225 3053 2303 3172 
Q 2381 3291 2381 3456 
Q 2381 3678 2223 3800 
Q 2066 3922 1825 3922 
z
" transform="scale(0.015625)"/>
       </defs>
       <use xlink:href="#OpenSans-Bold-32"/>
       <use xlink:href="#OpenSans-Bold-30" x="57.177734"/>
       <use xlink:href="#OpenSans-Bold-31" x="114.355469"/>
       <use xlink:href="#OpenSans-Bold-38" x="171.533203"/>
      </g>
     </g>
    </g>
    <g id="xtick_7">
     <g id="line2d_7">
      <g>
       <use xlink:href="#m0753e679ba" x="293.575788" y="215.553594" style="fill: #37539c; stroke: #37539c; stroke-width: 0.8"/>
      </g>
     </g>
     <g id="text_7">
      <!-- 2019 -->
      <g style="fill: #37539c" transform="translate(288.576985 239.788438) rotate(-45) scale(0.08 -0.08)">
       <defs>
        <path id="OpenSans-Bold-39" d="M 3431 2619 
Q 3431 2225 3373 1837 
Q 3316 1450 3172 1108 
Q 3028 766 2768 502 
Q 2509 238 2109 87 
Q 1709 -63 1141 -63 
Q 1006 -63 825 -52 
Q 644 -41 525 -19 
L 525 756 
Q 650 725 790 708 
Q 931 691 1075 691 
Q 1647 691 1958 872 
Q 2269 1053 2395 1375 
Q 2522 1697 2541 2119 
L 2503 2119 
Q 2413 1969 2289 1848 
Q 2166 1728 1975 1658 
Q 1784 1588 1491 1588 
Q 1100 1588 811 1758 
Q 522 1928 364 2251 
Q 206 2575 206 3034 
Q 206 3531 395 3886 
Q 584 4241 934 4431 
Q 1284 4622 1759 4622 
Q 2109 4622 2412 4501 
Q 2716 4381 2945 4134 
Q 3175 3888 3303 3509 
Q 3431 3131 3431 2619 
z
M 1778 3847 
Q 1497 3847 1319 3653 
Q 1141 3459 1141 3047 
Q 1141 2716 1294 2522 
Q 1447 2328 1759 2328 
Q 1975 2328 2134 2423 
Q 2294 2519 2383 2664 
Q 2472 2809 2472 2963 
Q 2472 3122 2428 3278 
Q 2384 3434 2296 3562 
Q 2209 3691 2079 3769 
Q 1950 3847 1778 3847 
z
" transform="scale(0.015625)"/>
       </defs>
       <use xlink:href="#OpenSans-Bold-32"/>
       <use xlink:href="#OpenSans-Bold-30" x="57.177734"/>
       <use xlink:href="#OpenSans-Bold-31" x="114.355469"/>
       <use xlink:href="#OpenSans-Bold-39" x="171.533203"/>
      </g>
     </g>
    </g>
    <g id="xtick_8">
     <g id="line2d_8">
      <g>
       <use xlink:href="#m0753e679ba" x="330.568313" y="215.553594" style="fill: #37539c; stroke: #37539c; stroke-width: 0.8"/>
      </g>
     </g>
     <g id="text_8">
      <!-- 2020 -->
      <g style="fill: #37539c" transform="translate(325.56951 239.788438) rotate(-45) scale(0.08 -0.08)">
       <use xlink:href="#OpenSans-Bold-32"/>
       <use xlink:href="#OpenSans-Bold-30" x="57.177734"/>
       <use xlink:href="#OpenSans-Bold-32" x="114.355469"/>
       <use xlink:href="#OpenSans-Bold-30" x="171.533203"/>
      </g>
     </g>
    </g>
    <g id="xtick_9">
     <g id="line2d_9">
      <g>
       <use xlink:href="#m0753e679ba" x="367.560838" y="215.553594" style="fill: #37539c; stroke: #37539c; stroke-width: 0.8"/>
      </g>
     </g>
     <g id="text_9">
      <!-- 2021 -->
      <g style="fill: #37539c" transform="translate(362.562035 239.788438) rotate(-45) scale(0.08 -0.08)">
       <use xlink:href="#OpenSans-Bold-32"/>
       <use xlink:href="#OpenSans-Bold-30" x="57.177734"/>
       <use xlink:href="#OpenSans-Bold-32" x="114.355469"/>
       <use xlink:href="#OpenSans-Bold-31" x="171.533203"/>
      </g>
     </g>
    </g>
    <g id="xtick_10">
     <g id="line2d_10">
      <g>
       <use xlink:href="#m0753e679ba" x="404.553364" y="215.553594" style="fill: #37539c; stroke: #37539c; stroke-width: 0.8"/>
      </g>
     </g>
     <g id="text_10">
      <!-- 2022 -->
      <g style="fill: #37539c" transform="translate(399.554561 239.788438) rotate(-45) scale(0.08 -0.08)">
       <use xlink:href="#OpenSans-Bold-32"/>
       <use xlink:href="#OpenSans-Bold-30" x="57.177734"/>
       <use xlink:href="#OpenSans-Bold-32" x="114.355469"/>
       <use xlink:href="#OpenSans-Bold-32" x="171.533203"/>
      </g>
     </g>
    </g>
   </g>
   <g id="matplotlib.axis_2">
    <g id="ytick_1">
     <g id="line2d_11">
      <path d="M 54.974 209.29868 
L 421.2 209.29868 
" clip-path="url(#pe2cc028d2d)" style="fill: none; stroke-dasharray: 2.96,1.28; stroke-dashoffset: 0; stroke: #b0b0b0; stroke-width: 0.8"/>
     </g>
     <g id="line2d_12">
      <defs>
       <path id="m04320ec1a1" d="M 0 0 
L -3.5 0 
" style="stroke: #37539c; stroke-width: 0.8"/>
      </defs>
      <g>
       <use xlink:href="#m04320ec1a1" x="54.974" y="209.29868" style="fill: #37539c; stroke: #37539c; stroke-width: 0.8"/>
      </g>
     </g>
     <g id="text_11">
      <!-- −4 -->
      <g style="fill: #37539c" transform="translate(36.539625 213.097899) scale(0.1 -0.1)">
       <defs>
        <path id="OpenSans-Bold-2212" d="M 275 1913 
L 275 2597 
L 3378 2597 
L 3378 1913 
L 275 1913 
z
" transform="scale(0.015625)"/>
       </defs>
       <use xlink:href="#OpenSans-Bold-2212"/>
       <use xlink:href="#OpenSans-Bold-34" x="57.177734"/>
      </g>
     </g>
    </g>
    <g id="ytick_2">
     <g id="line2d_13">
      <path d="M 54.974 165.187862 
L 421.2 165.187862 
" clip-path="url(#pe2cc028d2d)" style="fill: none; stroke-dasharray: 2.96,1.28; stroke-dashoffset: 0; stroke: #b0b0b0; stroke-width: 0.8"/>
     </g>
     <g id="line2d_14">
      <g>
       <use xlink:href="#m04320ec1a1" x="54.974" y="165.187862" style="fill: #37539c; stroke: #37539c; stroke-width: 0.8"/>
      </g>
     </g>
     <g id="text_12">
      <!-- −2 -->
      <g style="fill: #37539c" transform="translate(36.539625 168.987081) scale(0.1 -0.1)">
       <use xlink:href="#OpenSans-Bold-2212"/>
       <use xlink:href="#OpenSans-Bold-32" x="57.177734"/>
      </g>
     </g>
    </g>
    <g id="ytick_3">
     <g id="line2d_15">
      <path d="M 54.974 121.077045 
L 421.2 121.077045 
" clip-path="url(#pe2cc028d2d)" style="fill: none; stroke-dasharray: 2.96,1.28; stroke-dashoffset: 0; stroke: #b0b0b0; stroke-width: 0.8"/>
     </g>
     <g id="line2d_16">
      <g>
       <use xlink:href="#m04320ec1a1" x="54.974" y="121.077045" style="fill: #37539c; stroke: #37539c; stroke-width: 0.8"/>
      </g>
     </g>
     <g id="text_13">
      <!-- 0 -->
      <g style="fill: #37539c" transform="translate(42.256813 124.876263) scale(0.1 -0.1)">
       <use xlink:href="#OpenSans-Bold-30"/>
      </g>
     </g>
    </g>
    <g id="ytick_4">
     <g id="line2d_17">
      <path d="M 54.974 76.966227 
L 421.2 76.966227 
" clip-path="url(#pe2cc028d2d)" style="fill: none; stroke-dasharray: 2.96,1.28; stroke-dashoffset: 0; stroke: #b0b0b0; stroke-width: 0.8"/>
     </g>
     <g id="line2d_18">
      <g>
       <use xlink:href="#m04320ec1a1" x="54.974" y="76.966227" style="fill: #37539c; stroke: #37539c; stroke-width: 0.8"/>
      </g>
     </g>
     <g id="text_14">
      <!-- 2 -->
      <g style="fill: #37539c" transform="translate(42.256813 80.765445) scale(0.1 -0.1)">
       <use xlink:href="#OpenSans-Bold-32"/>
      </g>
     </g>
    </g>
    <g id="ytick_5">
     <g id="line2d_19">
      <path d="M 54.974 32.855409 
L 421.2 32.855409 
" clip-path="url(#pe2cc028d2d)" style="fill: none; stroke-dasharray: 2.96,1.28; stroke-dashoffset: 0; stroke: #b0b0b0; stroke-width: 0.8"/>
     </g>
     <g id="line2d_20">
      <g>
       <use xlink:href="#m04320ec1a1" x="54.974" y="32.855409" style="fill: #37539c; stroke: #37539c; stroke-width: 0.8"/>
      </g>
     </g>
     <g id="text_15">
      <!-- 4 -->
      <g style="fill: #37539c" transform="translate(42.256813 36.654628) scale(0.1 -0.1)">
       <use xlink:href="#OpenSans-Bold-34"/>
      </g>
     </g>
    </g>
    <g id="text_16">
     <!-- Variación anual de la Productividad Total -->
     <g style="fill: #37539c" transform="translate(18.61525 215.690078) rotate(-90) scale(0.1 -0.1)">
      <defs>
       <path id="OpenSans-Bold-56" d="M 4159 4569 
L 2606 0 
L 1550 0 
L 0 4569 
L 978 4569 
L 1838 1850 
Q 1859 1781 1909 1592 
Q 1959 1403 2011 1192 
Q 2063 981 2081 844 
Q 2100 981 2148 1190 
Q 2197 1400 2245 1589 
Q 2294 1778 2316 1850 
L 3181 4569 
L 4159 4569 
z
" transform="scale(0.015625)"/>
       <path id="OpenSans-Bold-61" d="M 1931 3566 
Q 2634 3566 3009 3259 
Q 3384 2953 3384 2328 
L 3384 0 
L 2719 0 
L 2534 475 
L 2509 475 
Q 2359 288 2203 169 
Q 2047 50 1844 -6 
Q 1641 -63 1350 -63 
Q 1041 -63 795 56 
Q 550 175 409 420 
Q 269 666 269 1044 
Q 269 1600 659 1864 
Q 1050 2128 1831 2156 
L 2438 2175 
L 2438 2328 
Q 2438 2603 2294 2731 
Q 2150 2859 1894 2859 
Q 1641 2859 1397 2787 
Q 1153 2716 909 2606 
L 594 3250 
Q 872 3397 1217 3481 
Q 1563 3566 1931 3566 
z
M 2438 1619 
L 2069 1606 
Q 1606 1594 1426 1441 
Q 1247 1288 1247 1038 
Q 1247 819 1375 726 
Q 1503 634 1709 634 
Q 2016 634 2227 815 
Q 2438 997 2438 1331 
L 2438 1619 
z
" transform="scale(0.015625)"/>
       <path id="OpenSans-Bold-72" d="M 2450 3559 
Q 2522 3559 2617 3551 
Q 2713 3544 2772 3531 
L 2700 2638 
Q 2653 2653 2567 2661 
Q 2481 2669 2419 2669 
Q 2234 2669 2061 2622 
Q 1888 2575 1750 2470 
Q 1613 2366 1533 2195 
Q 1453 2025 1453 1778 
L 1453 0 
L 500 0 
L 500 3494 
L 1222 3494 
L 1363 2906 
L 1409 2906 
Q 1513 3084 1667 3232 
Q 1822 3381 2020 3470 
Q 2219 3559 2450 3559 
z
" transform="scale(0.015625)"/>
       <path id="OpenSans-Bold-69" d="M 1453 3494 
L 1453 0 
L 500 0 
L 500 3494 
L 1453 3494 
z
M 978 4863 
Q 1191 4863 1344 4764 
Q 1497 4666 1497 4397 
Q 1497 4131 1344 4029 
Q 1191 3928 978 3928 
Q 763 3928 611 4029 
Q 459 4131 459 4397 
Q 459 4666 611 4764 
Q 763 4863 978 4863 
z
" transform="scale(0.015625)"/>
       <path id="OpenSans-Bold-63" d="M 1919 -63 
Q 1400 -63 1034 126 
Q 669 316 478 712 
Q 288 1109 288 1728 
Q 288 2369 505 2773 
Q 722 3178 1108 3368 
Q 1494 3559 2003 3559 
Q 2366 3559 2630 3489 
Q 2894 3419 3091 3322 
L 2809 2584 
Q 2584 2675 2390 2733 
Q 2197 2791 2003 2791 
Q 1753 2791 1587 2673 
Q 1422 2556 1340 2322 
Q 1259 2088 1259 1734 
Q 1259 1388 1346 1159 
Q 1434 931 1600 820 
Q 1766 709 2003 709 
Q 2300 709 2531 789 
Q 2763 869 2981 1013 
L 2981 197 
Q 2763 59 2523 -2 
Q 2284 -63 1919 -63 
z
" transform="scale(0.015625)"/>
       <path id="OpenSans-Bold-f3" d="M 3675 1753 
Q 3675 1316 3558 978 
Q 3441 641 3217 408 
Q 2994 175 2680 56 
Q 2366 -63 1972 -63 
Q 1603 -63 1295 56 
Q 988 175 761 408 
Q 534 641 411 978 
Q 288 1316 288 1753 
Q 288 2334 494 2737 
Q 700 3141 1081 3350 
Q 1463 3559 1991 3559 
Q 2481 3559 2861 3350 
Q 3241 3141 3458 2737 
Q 3675 2334 3675 1753 
z
M 1259 1753 
Q 1259 1409 1334 1175 
Q 1409 941 1568 822 
Q 1728 703 1984 703 
Q 2238 703 2395 822 
Q 2553 941 2626 1175 
Q 2700 1409 2700 1753 
Q 2700 2100 2626 2329 
Q 2553 2559 2393 2675 
Q 2234 2791 1978 2791 
Q 1600 2791 1429 2531 
Q 1259 2272 1259 1753 
z
M 3211 4903 
L 3211 4838 
Q 3121 4750 2974 4622 
Q 2827 4494 2658 4355 
Q 2490 4216 2327 4089 
Q 2165 3963 2043 3878 
L 1408 3878 
L 1408 3963 
Q 1511 4081 1647 4245 
Q 1783 4409 1917 4584 
Q 2052 4759 2143 4903 
L 3211 4903 
z
" transform="scale(0.015625)"/>
       <path id="OpenSans-Bold-6e" d="M 2484 3559 
Q 3044 3559 3384 3254 
Q 3725 2950 3725 2278 
L 3725 0 
L 2772 0 
L 2772 2041 
Q 2772 2416 2636 2606 
Q 2500 2797 2209 2797 
Q 1772 2797 1612 2500 
Q 1453 2203 1453 1644 
L 1453 0 
L 500 0 
L 500 3494 
L 1228 3494 
L 1356 3047 
L 1409 3047 
Q 1522 3228 1689 3340 
Q 1856 3453 2061 3506 
Q 2266 3559 2484 3559 
z
" transform="scale(0.015625)"/>
       <path id="OpenSans-Bold-20" transform="scale(0.015625)"/>
       <path id="OpenSans-Bold-75" d="M 3706 3494 
L 3706 0 
L 2975 0 
L 2847 447 
L 2797 447 
Q 2684 269 2515 156 
Q 2347 44 2144 -9 
Q 1941 -63 1722 -63 
Q 1347 -63 1069 70 
Q 791 203 636 484 
Q 481 766 481 1216 
L 481 3494 
L 1434 3494 
L 1434 1453 
Q 1434 1078 1568 887 
Q 1703 697 1997 697 
Q 2288 697 2453 830 
Q 2619 963 2686 1220 
Q 2753 1478 2753 1850 
L 2753 3494 
L 3706 3494 
z
" transform="scale(0.015625)"/>
       <path id="OpenSans-Bold-6c" d="M 1453 0 
L 500 0 
L 500 4863 
L 1453 4863 
L 1453 0 
z
" transform="scale(0.015625)"/>
       <path id="OpenSans-Bold-64" d="M 1606 -63 
Q 1022 -63 655 395 
Q 288 853 288 1741 
Q 288 2638 659 3098 
Q 1031 3559 1631 3559 
Q 1881 3559 2072 3490 
Q 2263 3422 2402 3306 
Q 2541 3191 2638 3047 
L 2669 3047 
Q 2650 3147 2623 3342 
Q 2597 3538 2597 3744 
L 2597 4863 
L 3553 4863 
L 3553 0 
L 2822 0 
L 2638 453 
L 2597 453 
Q 2506 309 2370 192 
Q 2234 75 2046 6 
Q 1859 -63 1606 -63 
z
M 1941 697 
Q 2331 697 2492 930 
Q 2653 1163 2663 1631 
L 2663 1734 
Q 2663 2244 2506 2514 
Q 2350 2784 1925 2784 
Q 1609 2784 1431 2512 
Q 1253 2241 1253 1728 
Q 1253 1216 1433 956 
Q 1613 697 1941 697 
z
" transform="scale(0.015625)"/>
       <path id="OpenSans-Bold-65" d="M 1941 3559 
Q 2425 3559 2775 3373 
Q 3125 3188 3315 2834 
Q 3506 2481 3506 1972 
L 3506 1509 
L 1253 1509 
Q 1269 1106 1495 876 
Q 1722 647 2125 647 
Q 2459 647 2737 715 
Q 3016 784 3309 922 
L 3309 184 
Q 3050 56 2767 -3 
Q 2484 -63 2081 -63 
Q 1556 -63 1151 131 
Q 747 325 517 722 
Q 288 1119 288 1722 
Q 288 2334 495 2742 
Q 703 3150 1075 3354 
Q 1447 3559 1941 3559 
z
M 1947 2881 
Q 1669 2881 1486 2703 
Q 1303 2525 1275 2144 
L 2613 2144 
Q 2609 2356 2536 2522 
Q 2463 2688 2317 2784 
Q 2172 2881 1947 2881 
z
" transform="scale(0.015625)"/>
       <path id="OpenSans-Bold-50" d="M 2034 4569 
Q 2919 4569 3325 4189 
Q 3731 3809 3731 3144 
Q 3731 2844 3640 2570 
Q 3550 2297 3345 2084 
Q 3141 1872 2800 1748 
Q 2459 1625 1959 1625 
L 1544 1625 
L 1544 0 
L 575 0 
L 575 4569 
L 2034 4569 
z
M 1984 3775 
L 1544 3775 
L 1544 2419 
L 1863 2419 
Q 2134 2419 2334 2491 
Q 2534 2563 2643 2716 
Q 2753 2869 2753 3109 
Q 2753 3447 2565 3611 
Q 2378 3775 1984 3775 
z
" transform="scale(0.015625)"/>
       <path id="OpenSans-Bold-6f" d="M 3675 1753 
Q 3675 1316 3558 978 
Q 3441 641 3217 408 
Q 2994 175 2680 56 
Q 2366 -63 1972 -63 
Q 1603 -63 1295 56 
Q 988 175 761 408 
Q 534 641 411 978 
Q 288 1316 288 1753 
Q 288 2334 494 2737 
Q 700 3141 1081 3350 
Q 1463 3559 1991 3559 
Q 2481 3559 2861 3350 
Q 3241 3141 3458 2737 
Q 3675 2334 3675 1753 
z
M 1259 1753 
Q 1259 1409 1334 1175 
Q 1409 941 1568 822 
Q 1728 703 1984 703 
Q 2238 703 2395 822 
Q 2553 941 2626 1175 
Q 2700 1409 2700 1753 
Q 2700 2100 2626 2329 
Q 2553 2559 2393 2675 
Q 2234 2791 1978 2791 
Q 1600 2791 1429 2531 
Q 1259 2272 1259 1753 
z
" transform="scale(0.015625)"/>
       <path id="OpenSans-Bold-74" d="M 1972 697 
Q 2128 697 2276 728 
Q 2425 759 2572 806 
L 2572 97 
Q 2419 28 2192 -17 
Q 1966 -63 1697 -63 
Q 1384 -63 1136 39 
Q 888 141 745 392 
Q 603 644 603 1094 
L 603 2778 
L 147 2778 
L 147 3181 
L 672 3500 
L 947 4238 
L 1556 4238 
L 1556 3494 
L 2534 3494 
L 2534 2778 
L 1556 2778 
L 1556 1094 
Q 1556 894 1670 795 
Q 1784 697 1972 697 
z
" transform="scale(0.015625)"/>
       <path id="OpenSans-Bold-76" d="M 1331 0 
L 0 3494 
L 997 3494 
L 1672 1503 
Q 1728 1328 1761 1134 
Q 1794 941 1806 788 
L 1831 788 
Q 1841 953 1877 1140 
Q 1913 1328 1972 1503 
L 2644 3494 
L 3641 3494 
L 2309 0 
L 1331 0 
z
" transform="scale(0.015625)"/>
       <path id="OpenSans-Bold-54" d="M 2338 0 
L 1369 0 
L 1369 3763 
L 128 3763 
L 128 4569 
L 3578 4569 
L 3578 3763 
L 2338 3763 
L 2338 0 
z
" transform="scale(0.015625)"/>
      </defs>
      <use xlink:href="#OpenSans-Bold-56"/>
      <use xlink:href="#OpenSans-Bold-61" x="64.990234"/>
      <use xlink:href="#OpenSans-Bold-72" x="125.390625"/>
      <use xlink:href="#OpenSans-Bold-69" x="170.800781"/>
      <use xlink:href="#OpenSans-Bold-61" x="201.318359"/>
      <use xlink:href="#OpenSans-Bold-63" x="261.71875"/>
      <use xlink:href="#OpenSans-Bold-69" x="313.134766"/>
      <use xlink:href="#OpenSans-Bold-f3" x="343.652344"/>
      <use xlink:href="#OpenSans-Bold-6e" x="405.566406"/>
      <use xlink:href="#OpenSans-Bold-20" x="471.289062"/>
      <use xlink:href="#OpenSans-Bold-61" x="497.265625"/>
      <use xlink:href="#OpenSans-Bold-6e" x="557.666016"/>
      <use xlink:href="#OpenSans-Bold-75" x="623.388672"/>
      <use xlink:href="#OpenSans-Bold-61" x="689.111328"/>
      <use xlink:href="#OpenSans-Bold-6c" x="749.511719"/>
      <use xlink:href="#OpenSans-Bold-20" x="780.029297"/>
      <use xlink:href="#OpenSans-Bold-64" x="806.005859"/>
      <use xlink:href="#OpenSans-Bold-65" x="869.287109"/>
      <use xlink:href="#OpenSans-Bold-20" x="928.369141"/>
      <use xlink:href="#OpenSans-Bold-6c" x="954.345703"/>
      <use xlink:href="#OpenSans-Bold-61" x="984.863281"/>
      <use xlink:href="#OpenSans-Bold-20" x="1045.263672"/>
      <use xlink:href="#OpenSans-Bold-50" x="1071.240234"/>
      <use xlink:href="#OpenSans-Bold-72" x="1134.033203"/>
      <use xlink:href="#OpenSans-Bold-6f" x="1179.443359"/>
      <use xlink:href="#OpenSans-Bold-64" x="1241.357422"/>
      <use xlink:href="#OpenSans-Bold-75" x="1304.638672"/>
      <use xlink:href="#OpenSans-Bold-63" x="1370.361328"/>
      <use xlink:href="#OpenSans-Bold-74" x="1421.777344"/>
      <use xlink:href="#OpenSans-Bold-69" x="1465.185547"/>
      <use xlink:href="#OpenSans-Bold-76" x="1495.703125"/>
      <use xlink:href="#OpenSans-Bold-69" x="1552.587891"/>
      <use xlink:href="#OpenSans-Bold-64" x="1583.105469"/>
      <use xlink:href="#OpenSans-Bold-61" x="1646.386719"/>
      <use xlink:href="#OpenSans-Bold-64" x="1706.787109"/>
      <use xlink:href="#OpenSans-Bold-20" x="1770.068359"/>
      <use xlink:href="#OpenSans-Bold-54" x="1796.044922"/>
      <use xlink:href="#OpenSans-Bold-6f" x="1853.955078"/>
      <use xlink:href="#OpenSans-Bold-74" x="1915.869141"/>
      <use xlink:href="#OpenSans-Bold-61" x="1959.277344"/>
      <use xlink:href="#OpenSans-Bold-6c" x="2019.677734"/>
     </g>
     <!-- de Factores (%) -->
     <g style="fill: #37539c" transform="translate(30.1365 151.098672) rotate(-90) scale(0.1 -0.1)">
      <defs>
       <path id="OpenSans-Bold-46" d="M 1528 0 
L 575 0 
L 575 4569 
L 3194 4569 
L 3194 3775 
L 1528 3775 
L 1528 2597 
L 3078 2597 
L 3078 1806 
L 1528 1806 
L 1528 0 
z
" transform="scale(0.015625)"/>
       <path id="OpenSans-Bold-73" d="M 2938 1038 
Q 2938 681 2770 436 
Q 2603 191 2272 64 
Q 1941 -63 1447 -63 
Q 1081 -63 820 -16 
Q 559 31 294 141 
L 294 928 
Q 578 800 904 717 
Q 1231 634 1478 634 
Q 1756 634 1876 717 
Q 1997 800 1997 934 
Q 1997 1022 1948 1092 
Q 1900 1163 1740 1252 
Q 1581 1341 1241 1484 
Q 913 1622 702 1762 
Q 491 1903 389 2095 
Q 288 2288 288 2584 
Q 288 3069 664 3314 
Q 1041 3559 1672 3559 
Q 1997 3559 2292 3493 
Q 2588 3428 2900 3284 
L 2613 2597 
Q 2353 2709 2123 2781 
Q 1894 2853 1656 2853 
Q 1447 2853 1340 2797 
Q 1234 2741 1234 2625 
Q 1234 2541 1289 2475 
Q 1344 2409 1501 2329 
Q 1659 2250 1966 2125 
Q 2263 2003 2481 1870 
Q 2700 1738 2819 1542 
Q 2938 1347 2938 1038 
z
" transform="scale(0.015625)"/>
       <path id="OpenSans-Bold-28" d="M 256 1753 
Q 256 2275 356 2773 
Q 456 3272 665 3726 
Q 875 4181 1197 4569 
L 1978 4569 
Q 1541 3969 1314 3244 
Q 1088 2519 1088 1759 
Q 1088 1266 1188 777 
Q 1288 288 1486 -165 
Q 1684 -619 1972 -1013 
L 1197 -1013 
Q 875 -638 665 -192 
Q 456 253 356 745 
Q 256 1238 256 1753 
z
" transform="scale(0.015625)"/>
       <path id="OpenSans-Bold-25" d="M 1275 4634 
Q 1813 4634 2091 4259 
Q 2369 3884 2369 3206 
Q 2369 2528 2106 2147 
Q 1844 1766 1275 1766 
Q 747 1766 472 2147 
Q 197 2528 197 3206 
Q 197 3884 455 4259 
Q 713 4634 1275 4634 
z
M 1281 3981 
Q 1128 3981 1056 3787 
Q 984 3594 984 3200 
Q 984 2806 1056 2609 
Q 1128 2413 1281 2413 
Q 1434 2413 1507 2608 
Q 1581 2803 1581 3200 
Q 1581 3594 1507 3787 
Q 1434 3981 1281 3981 
z
M 4519 4569 
L 1984 0 
L 1234 0 
L 3769 4569 
L 4519 4569 
z
M 4475 2809 
Q 5013 2809 5291 2434 
Q 5569 2059 5569 1381 
Q 5569 706 5306 325 
Q 5044 -56 4475 -56 
Q 3947 -56 3672 325 
Q 3397 706 3397 1381 
Q 3397 2059 3655 2434 
Q 3913 2809 4475 2809 
z
M 4481 2156 
Q 4328 2156 4256 1962 
Q 4184 1769 4184 1375 
Q 4184 981 4256 784 
Q 4328 588 4481 588 
Q 4634 588 4707 783 
Q 4781 978 4781 1375 
Q 4781 1769 4707 1962 
Q 4634 2156 4481 2156 
z
" transform="scale(0.015625)"/>
       <path id="OpenSans-Bold-29" d="M 1913 1753 
Q 1913 1238 1813 745 
Q 1713 253 1505 -192 
Q 1297 -638 972 -1013 
L 197 -1013 
Q 488 -619 684 -165 
Q 881 288 981 777 
Q 1081 1266 1081 1759 
Q 1081 2266 979 2759 
Q 878 3253 681 3711 
Q 484 4169 191 4569 
L 972 4569 
Q 1297 4181 1505 3726 
Q 1713 3272 1813 2773 
Q 1913 2275 1913 1753 
z
" transform="scale(0.015625)"/>
      </defs>
      <use xlink:href="#OpenSans-Bold-64"/>
      <use xlink:href="#OpenSans-Bold-65" x="63.28125"/>
      <use xlink:href="#OpenSans-Bold-20" x="122.363281"/>
      <use xlink:href="#OpenSans-Bold-46" x="148.339844"/>
      <use xlink:href="#OpenSans-Bold-61" x="203.222656"/>
      <use xlink:href="#OpenSans-Bold-63" x="263.623047"/>
      <use xlink:href="#OpenSans-Bold-74" x="315.039062"/>
      <use xlink:href="#OpenSans-Bold-6f" x="358.447266"/>
      <use xlink:href="#OpenSans-Bold-72" x="420.361328"/>
      <use xlink:href="#OpenSans-Bold-65" x="465.771484"/>
      <use xlink:href="#OpenSans-Bold-73" x="524.853516"/>
      <use xlink:href="#OpenSans-Bold-20" x="574.560547"/>
      <use xlink:href="#OpenSans-Bold-28" x="600.537109"/>
      <use xlink:href="#OpenSans-Bold-25" x="634.423828"/>
      <use xlink:href="#OpenSans-Bold-29" x="724.511719"/>
     </g>
    </g>
   </g>
   <g id="line2d_21">
    <path d="M 71.620636 130.56087 
L 108.613162 119.709609 
L 145.605687 129.105213 
L 182.598212 109.586177 
L 219.590737 128.377385 
L 256.583263 94.39 
L 293.575788 135.611559 
L 330.568313 72.709533 
L 367.560838 23.525971 
L 404.553364 184.067292 
" clip-path="url(#pe2cc028d2d)" style="fill: none; stroke-dasharray: 5.55,2.4; stroke-dashoffset: 0; stroke: #37539c; stroke-width: 1.5"/>
    <defs>
     <path id="m92edcc971f" d="M 0 2 
C 0.530406 2 1.03916 1.789267 1.414214 1.414214 
C 1.789267 1.03916 2 0.530406 2 0 
C 2 -0.530406 1.789267 -1.03916 1.414214 -1.414214 
C 1.03916 -1.789267 0.530406 -2 0 -2 
C -0.530406 -2 -1.03916 -1.789267 -1.414214 -1.414214 
C -1.789267 -1.03916 -2 -0.530406 -2 0 
C -2 0.530406 -1.789267 1.03916 -1.414214 1.414214 
C -1.03916 1.789267 -0.530406 2 0 2 
z
" style="stroke: #37539c"/>
    </defs>
    <g clip-path="url(#pe2cc028d2d)">
     <use xlink:href="#m92edcc971f" x="71.620636" y="130.56087" style="fill: #37539c; stroke: #37539c"/>
     <use xlink:href="#m92edcc971f" x="108.613162" y="119.709609" style="fill: #37539c; stroke: #37539c"/>
     <use xlink:href="#m92edcc971f" x="145.605687" y="129.105213" style="fill: #37539c; stroke: #37539c"/>
     <use xlink:href="#m92edcc971f" x="182.598212" y="109.586177" style="fill: #37539c; stroke: #37539c"/>
     <use xlink:href="#m92edcc971f" x="219.590737" y="128.377385" style="fill: #37539c; stroke: #37539c"/>
     <use xlink:href="#m92edcc971f" x="256.583263" y="94.39" style="fill: #37539c; stroke: #37539c"/>
     <use xlink:href="#m92edcc971f" x="293.575788" y="135.611559" style="fill: #37539c; stroke: #37539c"/>
     <use xlink:href="#m92edcc971f" x="330.568313" y="72.709533" style="fill: #37539c; stroke: #37539c"/>
     <use xlink:href="#m92edcc971f" x="367.560838" y="23.525971" style="fill: #37539c; stroke: #37539c"/>
     <use xlink:href="#m92edcc971f" x="404.553364" y="184.067292" style="fill: #37539c; stroke: #37539c"/>
    </g>
   </g>
   <g id="line2d_22">
    <path d="M 71.620636 134.817564 
L 108.613162 130.472649 
L 145.605687 142.779567 
L 182.598212 123.238475 
L 219.590737 134.089736 
L 256.583263 92.868177 
L 293.575788 155.792258 
L 330.568313 77.054448 
L 367.560838 52.374446 
L 404.553364 206.409422 
" clip-path="url(#pe2cc028d2d)" style="fill: none; stroke-dasharray: 5.55,2.4; stroke-dashoffset: 0; stroke: #f45b69; stroke-width: 1.5"/>
    <defs>
     <path id="m185e3e8416" d="M 0 2 
C 0.530406 2 1.03916 1.789267 1.414214 1.414214 
C 1.789267 1.03916 2 0.530406 2 0 
C 2 -0.530406 1.789267 -1.03916 1.414214 -1.414214 
C 1.03916 -1.789267 0.530406 -2 0 -2 
C -0.530406 -2 -1.03916 -1.789267 -1.414214 -1.414214 
C -1.789267 -1.03916 -2 -0.530406 -2 0 
C -2 0.530406 -1.789267 1.03916 -1.414214 1.414214 
C -1.03916 1.789267 -0.530406 2 0 2 
z
" style="stroke: #f45b69"/>
    </defs>
    <g clip-path="url(#pe2cc028d2d)">
     <use xlink:href="#m185e3e8416" x="71.620636" y="134.817564" style="fill: #f45b69; stroke: #f45b69"/>
     <use xlink:href="#m185e3e8416" x="108.613162" y="130.472649" style="fill: #f45b69; stroke: #f45b69"/>
     <use xlink:href="#m185e3e8416" x="145.605687" y="142.779567" style="fill: #f45b69; stroke: #f45b69"/>
     <use xlink:href="#m185e3e8416" x="182.598212" y="123.238475" style="fill: #f45b69; stroke: #f45b69"/>
     <use xlink:href="#m185e3e8416" x="219.590737" y="134.089736" style="fill: #f45b69; stroke: #f45b69"/>
     <use xlink:href="#m185e3e8416" x="256.583263" y="92.868177" style="fill: #f45b69; stroke: #f45b69"/>
     <use xlink:href="#m185e3e8416" x="293.575788" y="155.792258" style="fill: #f45b69; stroke: #f45b69"/>
     <use xlink:href="#m185e3e8416" x="330.568313" y="77.054448" style="fill: #f45b69; stroke: #f45b69"/>
     <use xlink:href="#m185e3e8416" x="367.560838" y="52.374446" style="fill: #f45b69; stroke: #f45b69"/>
     <use xlink:href="#m185e3e8416" x="404.553364" y="206.409422" style="fill: #f45b69; stroke: #f45b69"/>
    </g>
   </g>
   <g id="line2d_23">
    <path d="M 71.620636 118.263621 
L 74.289436 116.522868 
L 76.958235 115.065935 
L 79.627035 113.877191 
L 82.295834 112.941006 
L 84.964633 112.24175 
L 87.633433 111.763795 
L 90.302232 111.491509 
L 92.971032 111.409264 
L 96.307031 111.54989 
L 99.64303 111.932505 
L 102.97903 112.526582 
L 106.982229 113.475623 
L 111.652628 114.841765 
L 116.990226 116.641941 
L 135.671822 123.184869 
L 140.342221 124.450693 
L 144.34542 125.287752 
L 147.68142 125.772935 
L 151.684619 126.11447 
L 156.355018 126.263227 
L 163.027016 126.207799 
L 172.367814 126.129516 
L 177.038213 126.321464 
L 181.041412 126.715546 
L 184.377412 127.253808 
L 188.380611 128.138242 
L 193.71821 129.578377 
L 204.393407 132.557503 
L 208.396606 133.435159 
L 211.732606 133.96418 
L 215.068605 134.253986 
L 217.737404 134.278787 
L 220.406204 134.091108 
L 223.075003 133.686173 
L 226.411003 132.922186 
L 229.747002 131.934535 
L 234.417401 130.304186 
L 245.759798 126.203492 
L 249.095798 125.245515 
L 252.431797 124.521432 
L 255.100596 124.155788 
L 257.769396 124.016364 
L 260.438195 124.106655 
L 263.106995 124.395506 
L 266.442994 124.985396 
L 270.446193 125.94358 
L 276.450992 127.660248 
L 283.79019 129.720894 
L 287.793389 130.59901 
L 291.129388 131.093948 
L 293.798188 131.288366 
L 296.466987 131.277935 
L 299.135787 131.071304 
L 302.471786 130.559645 
L 305.807785 129.793434 
L 309.143784 128.801565 
L 313.146984 127.35414 
L 317.150183 125.673307 
L 321.820582 123.483947 
L 328.49258 120.080272 
L 343.838177 112.119155 
L 349.175776 109.622692 
L 353.846175 107.671974 
L 357.849374 106.222062 
L 361.852573 105.017729 
L 365.188572 104.229416 
L 368.524572 103.660535 
L 371.860571 103.333307 
L 375.19657 103.269955 
L 377.865369 103.424198 
L 380.534169 103.772923 
L 383.202968 104.327506 
L 385.871768 105.099327 
L 388.540567 106.099764 
L 391.209367 107.340194 
L 393.878166 108.831995 
L 396.546965 110.586546 
L 399.215765 112.615225 
L 401.884564 114.929409 
L 404.553364 117.540476 
L 404.553364 117.540476 
" clip-path="url(#pe2cc028d2d)" style="fill: none; stroke: #f45b69; stroke-width: 1.5; stroke-linecap: square"/>
   </g>
   <g id="line2d_24">
    <path d="M 71.620636 93.677244 
L 74.956636 92.380854 
L 78.292635 91.313944 
L 81.628634 90.46426 
L 84.964633 89.819548 
L 88.967833 89.299206 
L 92.971032 89.035205 
L 96.974231 89.006372 
L 100.97743 89.191531 
L 105.647829 89.649767 
L 110.318228 90.336827 
L 115.655827 91.359099 
L 121.660625 92.751416 
L 128.999824 94.70084 
L 144.34542 99.108006 
L 157.022218 102.567856 
L 166.363016 105.226349 
L 173.035014 107.368147 
L 178.372613 109.310481 
L 183.043012 111.224284 
L 189.047811 113.970601 
L 200.390208 119.236758 
L 204.393407 120.85455 
L 208.396606 122.221186 
L 211.732606 123.111996 
L 214.401405 123.629828 
L 217.070205 123.949487 
L 219.739004 124.047895 
L 222.407803 123.91301 
L 225.076603 123.570174 
L 228.412602 122.899859 
L 232.415801 121.826614 
L 237.7534 120.123635 
L 246.426998 117.331629 
L 250.430197 116.299253 
L 253.766197 115.676872 
L 256.434996 115.381466 
L 259.103795 115.293416 
L 262.439795 115.44858 
L 265.775794 115.846542 
L 269.778993 116.566291 
L 275.116592 117.779172 
L 284.45739 119.958622 
L 288.460589 120.665717 
L 291.796588 121.04899 
L 295.132588 121.186938 
L 298.468587 121.05867 
L 301.804586 120.679819 
L 305.140585 120.067866 
L 308.476585 119.240292 
L 312.479784 117.987198 
L 316.482983 116.478989 
L 320.486182 114.745874 
L 325.156581 112.47995 
L 330.49418 109.627355 
L 337.166178 105.788493 
L 349.842976 98.445705 
L 355.180574 95.656981 
L 359.183774 93.795004 
L 363.186973 92.187845 
L 366.522972 91.080889 
L 369.858971 90.217404 
L 372.527771 89.722231 
L 375.19657 89.417708 
L 377.865369 89.319314 
L 380.534169 89.442528 
L 383.202968 89.80283 
L 385.871768 90.415699 
L 388.540567 91.296615 
L 391.209367 92.461056 
L 393.878166 93.924503 
L 396.546965 95.702435 
L 399.215765 97.81033 
L 401.884564 100.263669 
L 404.553364 103.077931 
L 404.553364 103.077931 
" clip-path="url(#pe2cc028d2d)" style="fill: none; stroke: #37539c; stroke-width: 1.5; stroke-linecap: square"/>
   </g>
   <g id="patch_3">
    <path d="M 54.974 215.553594 
L 54.974 10.8 
" style="fill: none; stroke: #000000; stroke-width: 0.8; stroke-linejoin: miter; stroke-linecap: square"/>
   </g>
   <g id="patch_4">
    <path d="M 54.974 215.553594 
L 421.2 215.553594 
" style="fill: none; stroke: #000000; stroke-width: 0.8; stroke-linejoin: miter; stroke-linecap: square"/>
   </g>
   <g id="legend_1">
    <g id="patch_5">
     <path d="M 60.574 65.255 
L 210.5865 65.255 
Q 212.1865 65.255 212.1865 63.655 
L 212.1865 16.4 
Q 212.1865 14.8 210.5865 14.8 
L 60.574 14.8 
Q 58.974 14.8 58.974 16.4 
L 58.974 63.655 
Q 58.974 65.255 60.574 65.255 
z
" style="fill: #ffffff; opacity: 0.8; stroke: #cccccc; stroke-linejoin: miter"/>
    </g>
    <g id="line2d_25">
     <path d="M 62.174 21.27875 
L 70.174 21.27875 
L 78.174 21.27875 
" style="fill: none; stroke-dasharray: 5.55,2.4; stroke-dashoffset: 0; stroke: #37539c; stroke-width: 1.5"/>
     <g>
      <use xlink:href="#m92edcc971f" x="70.174" y="21.27875" style="fill: #37539c; stroke: #37539c"/>
     </g>
    </g>
    <g id="text_17">
     <!-- Sin minería -->
     <g style="fill: #37539c" transform="translate(84.574 24.07875) scale(0.08 -0.08)">
      <defs>
       <path id="OpenSans-Bold-53" d="M 3272 1269 
Q 3272 863 3075 563 
Q 2878 263 2501 100 
Q 2125 -63 1588 -63 
Q 1350 -63 1123 -31 
Q 897 0 689 61 
Q 481 122 294 213 
L 294 1113 
Q 619 969 969 853 
Q 1319 738 1663 738 
Q 1900 738 2045 800 
Q 2191 863 2256 972 
Q 2322 1081 2322 1222 
Q 2322 1394 2206 1516 
Q 2091 1638 1889 1744 
Q 1688 1850 1434 1972 
Q 1275 2047 1087 2155 
Q 900 2263 731 2419 
Q 563 2575 455 2798 
Q 347 3022 347 3334 
Q 347 3744 534 4034 
Q 722 4325 1070 4479 
Q 1419 4634 1894 4634 
Q 2250 4634 2573 4551 
Q 2897 4469 3250 4313 
L 2938 3559 
Q 2622 3688 2372 3758 
Q 2122 3828 1863 3828 
Q 1681 3828 1553 3770 
Q 1425 3713 1359 3608 
Q 1294 3503 1294 3366 
Q 1294 3203 1389 3092 
Q 1484 2981 1676 2878 
Q 1869 2775 2156 2638 
Q 2506 2472 2754 2292 
Q 3003 2113 3137 1870 
Q 3272 1628 3272 1269 
z
" transform="scale(0.015625)"/>
       <path id="OpenSans-Bold-6d" d="M 4603 3559 
Q 5197 3559 5501 3254 
Q 5806 2950 5806 2278 
L 5806 0 
L 4850 0 
L 4850 2041 
Q 4850 2416 4722 2606 
Q 4594 2797 4325 2797 
Q 3947 2797 3787 2526 
Q 3628 2256 3628 1753 
L 3628 0 
L 2675 0 
L 2675 2041 
Q 2675 2291 2619 2459 
Q 2563 2628 2447 2712 
Q 2331 2797 2150 2797 
Q 1884 2797 1732 2664 
Q 1581 2531 1517 2273 
Q 1453 2016 1453 1644 
L 1453 0 
L 500 0 
L 500 3494 
L 1228 3494 
L 1356 3047 
L 1409 3047 
Q 1516 3228 1677 3340 
Q 1838 3453 2031 3506 
Q 2225 3559 2425 3559 
Q 2809 3559 3076 3434 
Q 3344 3309 3488 3047 
L 3572 3047 
Q 3728 3316 4014 3437 
Q 4300 3559 4603 3559 
z
" transform="scale(0.015625)"/>
       <path id="OpenSans-Bold-ed" d="M 1453 0 
L 500 0 
L 500 3494 
L 1453 3494 
L 1453 0 
z
M 2203 4903 
L 2203 4838 
Q 2113 4750 1966 4622 
Q 1819 4494 1650 4355 
Q 1482 4216 1319 4089 
Q 1157 3963 1035 3878 
L 400 3878 
L 400 3963 
Q 503 4081 639 4245 
Q 775 4409 909 4584 
Q 1044 4759 1135 4903 
L 2203 4903 
z
" transform="scale(0.015625)"/>
      </defs>
      <use xlink:href="#OpenSans-Bold-53"/>
      <use xlink:href="#OpenSans-Bold-69" x="55.078125"/>
      <use xlink:href="#OpenSans-Bold-6e" x="85.595703"/>
      <use xlink:href="#OpenSans-Bold-20" x="151.318359"/>
      <use xlink:href="#OpenSans-Bold-6d" x="177.294922"/>
      <use xlink:href="#OpenSans-Bold-69" x="275.488281"/>
      <use xlink:href="#OpenSans-Bold-6e" x="306.005859"/>
      <use xlink:href="#OpenSans-Bold-65" x="371.728516"/>
      <use xlink:href="#OpenSans-Bold-72" x="430.810547"/>
      <use xlink:href="#OpenSans-Bold-ed" x="476.220703"/>
      <use xlink:href="#OpenSans-Bold-61" x="506.738281"/>
     </g>
    </g>
    <g id="line2d_26">
     <path d="M 62.174 33.28 
L 70.174 33.28 
L 78.174 33.28 
" style="fill: none; stroke-dasharray: 5.55,2.4; stroke-dashoffset: 0; stroke: #f45b69; stroke-width: 1.5"/>
     <g>
      <use xlink:href="#m185e3e8416" x="70.174" y="33.28" style="fill: #f45b69; stroke: #f45b69"/>
     </g>
    </g>
    <g id="text_18">
     <!-- PTF agregada -->
     <g style="fill: #37539c" transform="translate(84.574 36.08) scale(0.08 -0.08)">
      <defs>
       <path id="OpenSans-Bold-67" d="M 1522 -1538 
Q 791 -1538 405 -1283 
Q 19 -1028 19 -569 
Q 19 -253 216 -40 
Q 413 172 794 263 
Q 647 325 537 467 
Q 428 609 428 769 
Q 428 969 543 1101 
Q 659 1234 878 1363 
Q 603 1481 442 1743 
Q 281 2006 281 2363 
Q 281 2744 448 3011 
Q 616 3278 936 3418 
Q 1256 3559 1716 3559 
Q 1813 3559 1941 3546 
Q 2069 3534 2176 3518 
Q 2284 3503 2322 3494 
L 3541 3494 
L 3541 3009 
L 2994 2869 
Q 3069 2753 3106 2622 
Q 3144 2491 3144 2344 
Q 3144 1781 2751 1467 
Q 2359 1153 1663 1153 
Q 1497 1163 1350 1178 
Q 1278 1122 1240 1059 
Q 1203 997 1203 928 
Q 1203 859 1261 814 
Q 1319 769 1436 745 
Q 1553 722 1728 722 
L 2322 722 
Q 2897 722 3198 475 
Q 3500 228 3500 -250 
Q 3500 -863 2989 -1200 
Q 2478 -1538 1522 -1538 
z
M 1563 -916 
Q 1903 -916 2148 -852 
Q 2394 -788 2525 -670 
Q 2656 -553 2656 -391 
Q 2656 -259 2579 -182 
Q 2503 -106 2348 -75 
Q 2194 -44 1953 -44 
L 1459 -44 
Q 1284 -44 1145 -100 
Q 1006 -156 925 -257 
Q 844 -359 844 -494 
Q 844 -691 1033 -803 
Q 1222 -916 1563 -916 
z
M 1716 1734 
Q 1984 1734 2109 1900 
Q 2234 2066 2234 2350 
Q 2234 2666 2104 2823 
Q 1975 2981 1716 2981 
Q 1453 2981 1322 2823 
Q 1191 2666 1191 2350 
Q 1191 2066 1320 1900 
Q 1450 1734 1716 1734 
z
" transform="scale(0.015625)"/>
      </defs>
      <use xlink:href="#OpenSans-Bold-50"/>
      <use xlink:href="#OpenSans-Bold-54" x="62.792969"/>
      <use xlink:href="#OpenSans-Bold-46" x="120.703125"/>
      <use xlink:href="#OpenSans-Bold-20" x="175.585938"/>
      <use xlink:href="#OpenSans-Bold-61" x="201.5625"/>
      <use xlink:href="#OpenSans-Bold-67" x="261.962891"/>
      <use xlink:href="#OpenSans-Bold-72" x="318.457031"/>
      <use xlink:href="#OpenSans-Bold-65" x="363.867188"/>
      <use xlink:href="#OpenSans-Bold-67" x="422.949219"/>
      <use xlink:href="#OpenSans-Bold-61" x="479.443359"/>
      <use xlink:href="#OpenSans-Bold-64" x="539.84375"/>
      <use xlink:href="#OpenSans-Bold-61" x="603.125"/>
     </g>
    </g>
    <g id="line2d_27">
     <path d="M 62.174 45.33125 
L 70.174 45.33125 
L 78.174 45.33125 
" style="fill: none; stroke: #f45b69; stroke-width: 1.5; stroke-linecap: square"/>
    </g>
    <g id="text_19">
     <!-- Media móvil Agregada (5 años) -->
     <g style="fill: #37539c" transform="translate(84.574 48.13125) scale(0.08 -0.08)">
      <defs>
       <path id="OpenSans-Bold-4d" d="M 2509 0 
L 1409 3584 
L 1381 3584 
Q 1388 3456 1402 3198 
Q 1416 2941 1428 2650 
Q 1441 2359 1441 2125 
L 1441 0 
L 575 0 
L 575 4569 
L 1894 4569 
L 2975 1075 
L 2994 1075 
L 4141 4569 
L 5459 4569 
L 5459 0 
L 4556 0 
L 4556 2163 
Q 4556 2378 4564 2659 
Q 4572 2941 4584 3195 
Q 4597 3450 4603 3578 
L 4575 3578 
L 3397 0 
L 2509 0 
z
" transform="scale(0.015625)"/>
       <path id="OpenSans-Bold-41" d="M 3372 0 
L 3041 1088 
L 1375 1088 
L 1044 0 
L 0 0 
L 1613 4588 
L 2797 4588 
L 4416 0 
L 3372 0 
z
M 2809 1900 
L 2478 2963 
Q 2447 3069 2395 3236 
Q 2344 3403 2292 3576 
Q 2241 3750 2209 3878 
Q 2178 3750 2123 3561 
Q 2069 3372 2019 3203 
Q 1969 3034 1947 2963 
L 1619 1900 
L 2809 1900 
z
" transform="scale(0.015625)"/>
       <path id="OpenSans-Bold-f1" d="M 2484 3559 
Q 3044 3559 3384 3254 
Q 3725 2950 3725 2278 
L 3725 0 
L 2772 0 
L 2772 2041 
Q 2772 2416 2636 2606 
Q 2500 2797 2209 2797 
Q 1772 2797 1612 2500 
Q 1453 2203 1453 1644 
L 1453 0 
L 500 0 
L 500 3494 
L 1228 3494 
L 1356 3047 
L 1409 3047 
Q 1522 3228 1689 3340 
Q 1856 3453 2061 3506 
Q 2266 3559 2484 3559 
z
M 808 3872 
Q 827 4122 899 4305 
Q 971 4488 1086 4605 
Q 1202 4722 1347 4780 
Q 1493 4838 1658 4838 
Q 1786 4838 1909 4789 
Q 2033 4741 2153 4675 
Q 2274 4609 2391 4561 
Q 2508 4513 2621 4513 
Q 2715 4513 2804 4595 
Q 2893 4678 2933 4844 
L 3399 4844 
Q 3361 4350 3117 4114 
Q 2874 3878 2549 3878 
Q 2421 3878 2297 3928 
Q 2174 3978 2053 4042 
Q 1933 4106 1817 4156 
Q 1702 4206 1590 4206 
Q 1493 4206 1404 4123 
Q 1315 4041 1274 3872 
L 808 3872 
z
" transform="scale(0.015625)"/>
      </defs>
      <use xlink:href="#OpenSans-Bold-4d"/>
      <use xlink:href="#OpenSans-Bold-65" x="94.287109"/>
      <use xlink:href="#OpenSans-Bold-64" x="153.369141"/>
      <use xlink:href="#OpenSans-Bold-69" x="216.650391"/>
      <use xlink:href="#OpenSans-Bold-61" x="247.167969"/>
      <use xlink:href="#OpenSans-Bold-20" x="307.568359"/>
      <use xlink:href="#OpenSans-Bold-6d" x="333.544922"/>
      <use xlink:href="#OpenSans-Bold-f3" x="431.738281"/>
      <use xlink:href="#OpenSans-Bold-76" x="493.652344"/>
      <use xlink:href="#OpenSans-Bold-69" x="550.537109"/>
      <use xlink:href="#OpenSans-Bold-6c" x="581.054688"/>
      <use xlink:href="#OpenSans-Bold-20" x="611.572266"/>
      <use xlink:href="#OpenSans-Bold-41" x="637.548828"/>
      <use xlink:href="#OpenSans-Bold-67" x="706.542969"/>
      <use xlink:href="#OpenSans-Bold-72" x="763.037109"/>
      <use xlink:href="#OpenSans-Bold-65" x="808.447266"/>
      <use xlink:href="#OpenSans-Bold-67" x="867.529297"/>
      <use xlink:href="#OpenSans-Bold-61" x="924.023438"/>
      <use xlink:href="#OpenSans-Bold-64" x="984.423828"/>
      <use xlink:href="#OpenSans-Bold-61" x="1047.705078"/>
      <use xlink:href="#OpenSans-Bold-20" x="1108.105469"/>
      <use xlink:href="#OpenSans-Bold-28" x="1134.082031"/>
      <use xlink:href="#OpenSans-Bold-35" x="1167.96875"/>
      <use xlink:href="#OpenSans-Bold-20" x="1225.146484"/>
      <use xlink:href="#OpenSans-Bold-61" x="1251.123047"/>
      <use xlink:href="#OpenSans-Bold-f1" x="1311.523438"/>
      <use xlink:href="#OpenSans-Bold-6f" x="1377.246094"/>
      <use xlink:href="#OpenSans-Bold-73" x="1439.160156"/>
      <use xlink:href="#OpenSans-Bold-29" x="1488.867188"/>
     </g>
    </g>
    <g id="line2d_28">
     <path d="M 62.174 57.3325 
L 70.174 57.3325 
L 78.174 57.3325 
" style="fill: none; stroke: #37539c; stroke-width: 1.5; stroke-linecap: square"/>
    </g>
    <g id="text_20">
     <!-- Media móvil s/ Minería (5 años) -->
     <g style="fill: #37539c" transform="translate(84.574 60.1325) scale(0.08 -0.08)">
      <defs>
       <path id="OpenSans-Bold-2f" d="M 2613 4569 
L 909 0 
L 44 0 
L 1747 4569 
L 2613 4569 
z
" transform="scale(0.015625)"/>
      </defs>
      <use xlink:href="#OpenSans-Bold-4d"/>
      <use xlink:href="#OpenSans-Bold-65" x="94.287109"/>
      <use xlink:href="#OpenSans-Bold-64" x="153.369141"/>
      <use xlink:href="#OpenSans-Bold-69" x="216.650391"/>
      <use xlink:href="#OpenSans-Bold-61" x="247.167969"/>
      <use xlink:href="#OpenSans-Bold-20" x="307.568359"/>
      <use xlink:href="#OpenSans-Bold-6d" x="333.544922"/>
      <use xlink:href="#OpenSans-Bold-f3" x="431.738281"/>
      <use xlink:href="#OpenSans-Bold-76" x="493.652344"/>
      <use xlink:href="#OpenSans-Bold-69" x="550.537109"/>
      <use xlink:href="#OpenSans-Bold-6c" x="581.054688"/>
      <use xlink:href="#OpenSans-Bold-20" x="611.572266"/>
      <use xlink:href="#OpenSans-Bold-73" x="637.548828"/>
      <use xlink:href="#OpenSans-Bold-2f" x="687.255859"/>
      <use xlink:href="#OpenSans-Bold-20" x="728.564453"/>
      <use xlink:href="#OpenSans-Bold-4d" x="754.541016"/>
      <use xlink:href="#OpenSans-Bold-69" x="848.828125"/>
      <use xlink:href="#OpenSans-Bold-6e" x="879.345703"/>
      <use xlink:href="#OpenSans-Bold-65" x="945.068359"/>
      <use xlink:href="#OpenSans-Bold-72" x="1004.150391"/>
      <use xlink:href="#OpenSans-Bold-ed" x="1049.560547"/>
      <use xlink:href="#OpenSans-Bold-61" x="1080.078125"/>
      <use xlink:href="#OpenSans-Bold-20" x="1140.478516"/>
      <use xlink:href="#OpenSans-Bold-28" x="1166.455078"/>
      <use xlink:href="#OpenSans-Bold-35" x="1200.341797"/>
      <use xlink:href="#OpenSans-Bold-20" x="1257.519531"/>
      <use xlink:href="#OpenSans-Bold-61" x="1283.496094"/>
      <use xlink:href="#OpenSans-Bold-f1" x="1343.896484"/>
      <use xlink:href="#OpenSans-Bold-6f" x="1409.619141"/>
      <use xlink:href="#OpenSans-Bold-73" x="1471.533203"/>
      <use xlink:href="#OpenSans-Bold-29" x="1521.240234"/>
     </g>
    </g>
   </g>
  </g>
 </g>
 <defs>
  <clipPath id="pe2cc028d2d">
   <rect x="54.974" y="10.8" width="366.226" height="204.753594"/>
  </clipPath>
 </defs>
</svg>
