<?xml version="1.0" encoding="utf-8" standalone="no"?>
<!DOCTYPE svg PUBLIC "-//W3C//DTD SVG 1.1//EN"
  "http://www.w3.org/Graphics/SVG/1.1/DTD/svg11.dtd">
<svg xmlns:xlink="http://www.w3.org/1999/xlink" width="460.8pt" height="345.6pt" viewBox="0 0 460.8 345.6" xmlns="http://www.w3.org/2000/svg" version="1.1">
 <metadata>
  <rdf:RDF xmlns:dc="http://purl.org/dc/elements/1.1/" xmlns:cc="http://creativecommons.org/ns#" xmlns:rdf="http://www.w3.org/1999/02/22-rdf-syntax-ns#">
   <cc:Work>
    <dc:type rdf:resource="http://purl.org/dc/dcmitype/StillImage"/>
    <dc:date>2024-02-22T15:01:33.502493</dc:date>
    <dc:format>image/svg+xml</dc:format>
    <dc:creator>
     <cc:Agent>
      <dc:title>Matplotlib v3.7.1, https://matplotlib.org/</dc:title>
     </cc:Agent>
    </dc:creator>
   </cc:Work>
  </rdf:RDF>
 </metadata>
 <defs>
  <style type="text/css">*{stroke-linejoin: round; stroke-linecap: butt}</style>
 </defs>
 <g id="figure_1">
  <g id="patch_1">
   <path d="M 0 345.6 
L 460.8 345.6 
L 460.8 0 
L 0 0 
z
" style="fill: #ffffff"/>
  </g>
  <g id="axes_1">
   <g id="patch_2">
    <path d="M 36.83 322.04 
L 452.16 322.04 
L 452.16 8.64 
L 36.83 8.64 
z
" style="fill: #ffffff"/>
   </g>
   <g id="matplotlib.axis_1">
    <g id="xtick_1">
     <g id="line2d_1">
      <defs>
       <path id="m50facbd86a" d="M 0 0 
L 0 3.5 
" style="stroke: #37539c; stroke-width: 0.8"/>
      </defs>
      <g>
       <use xlink:href="#m50facbd86a" x="112.344545" y="322.04" style="fill: #37539c; stroke: #37539c; stroke-width: 0.8"/>
      </g>
     </g>
     <g id="text_1">
      <!-- Grandes -->
      <g style="fill: #37539c" transform="translate(95.704545 335.11875) scale(0.08 -0.08)">
       <defs>
        <path id="OpenSans-Bold-47" d="M 2309 2566 
L 4122 2566 
L 4122 197 
Q 3763 78 3375 7 
Q 2988 -63 2497 -63 
Q 1816 -63 1341 206 
Q 866 475 619 1000 
Q 372 1525 372 2291 
Q 372 3009 648 3534 
Q 925 4059 1458 4346 
Q 1991 4634 2759 4634 
Q 3122 4634 3475 4556 
Q 3828 4478 4116 4353 
L 3794 3578 
Q 3584 3684 3315 3756 
Q 3047 3828 2753 3828 
Q 2331 3828 2020 3634 
Q 1709 3441 1539 3092 
Q 1369 2744 1369 2272 
Q 1369 1825 1491 1479 
Q 1613 1134 1875 939 
Q 2138 744 2559 744 
Q 2766 744 2908 764 
Q 3050 784 3175 806 
L 3175 1759 
L 2309 1759 
L 2309 2566 
z
" transform="scale(0.015625)"/>
        <path id="OpenSans-Bold-72" d="M 2450 3559 
Q 2522 3559 2617 3551 
Q 2713 3544 2772 3531 
L 2700 2638 
Q 2653 2653 2567 2661 
Q 2481 2669 2419 2669 
Q 2234 2669 2061 2622 
Q 1888 2575 1750 2470 
Q 1613 2366 1533 2195 
Q 1453 2025 1453 1778 
L 1453 0 
L 500 0 
L 500 3494 
L 1222 3494 
L 1363 2906 
L 1409 2906 
Q 1513 3084 1667 3232 
Q 1822 3381 2020 3470 
Q 2219 3559 2450 3559 
z
" transform="scale(0.015625)"/>
        <path id="OpenSans-Bold-61" d="M 1931 3566 
Q 2634 3566 3009 3259 
Q 3384 2953 3384 2328 
L 3384 0 
L 2719 0 
L 2534 475 
L 2509 475 
Q 2359 288 2203 169 
Q 2047 50 1844 -6 
Q 1641 -63 1350 -63 
Q 1041 -63 795 56 
Q 550 175 409 420 
Q 269 666 269 1044 
Q 269 1600 659 1864 
Q 1050 2128 1831 2156 
L 2438 2175 
L 2438 2328 
Q 2438 2603 2294 2731 
Q 2150 2859 1894 2859 
Q 1641 2859 1397 2787 
Q 1153 2716 909 2606 
L 594 3250 
Q 872 3397 1217 3481 
Q 1563 3566 1931 3566 
z
M 2438 1619 
L 2069 1606 
Q 1606 1594 1426 1441 
Q 1247 1288 1247 1038 
Q 1247 819 1375 726 
Q 1503 634 1709 634 
Q 2016 634 2227 815 
Q 2438 997 2438 1331 
L 2438 1619 
z
" transform="scale(0.015625)"/>
        <path id="OpenSans-Bold-6e" d="M 2484 3559 
Q 3044 3559 3384 3254 
Q 3725 2950 3725 2278 
L 3725 0 
L 2772 0 
L 2772 2041 
Q 2772 2416 2636 2606 
Q 2500 2797 2209 2797 
Q 1772 2797 1612 2500 
Q 1453 2203 1453 1644 
L 1453 0 
L 500 0 
L 500 3494 
L 1228 3494 
L 1356 3047 
L 1409 3047 
Q 1522 3228 1689 3340 
Q 1856 3453 2061 3506 
Q 2266 3559 2484 3559 
z
" transform="scale(0.015625)"/>
        <path id="OpenSans-Bold-64" d="M 1606 -63 
Q 1022 -63 655 395 
Q 288 853 288 1741 
Q 288 2638 659 3098 
Q 1031 3559 1631 3559 
Q 1881 3559 2072 3490 
Q 2263 3422 2402 3306 
Q 2541 3191 2638 3047 
L 2669 3047 
Q 2650 3147 2623 3342 
Q 2597 3538 2597 3744 
L 2597 4863 
L 3553 4863 
L 3553 0 
L 2822 0 
L 2638 453 
L 2597 453 
Q 2506 309 2370 192 
Q 2234 75 2046 6 
Q 1859 -63 1606 -63 
z
M 1941 697 
Q 2331 697 2492 930 
Q 2653 1163 2663 1631 
L 2663 1734 
Q 2663 2244 2506 2514 
Q 2350 2784 1925 2784 
Q 1609 2784 1431 2512 
Q 1253 2241 1253 1728 
Q 1253 1216 1433 956 
Q 1613 697 1941 697 
z
" transform="scale(0.015625)"/>
        <path id="OpenSans-Bold-65" d="M 1941 3559 
Q 2425 3559 2775 3373 
Q 3125 3188 3315 2834 
Q 3506 2481 3506 1972 
L 3506 1509 
L 1253 1509 
Q 1269 1106 1495 876 
Q 1722 647 2125 647 
Q 2459 647 2737 715 
Q 3016 784 3309 922 
L 3309 184 
Q 3050 56 2767 -3 
Q 2484 -63 2081 -63 
Q 1556 -63 1151 131 
Q 747 325 517 722 
Q 288 1119 288 1722 
Q 288 2334 495 2742 
Q 703 3150 1075 3354 
Q 1447 3559 1941 3559 
z
M 1947 2881 
Q 1669 2881 1486 2703 
Q 1303 2525 1275 2144 
L 2613 2144 
Q 2609 2356 2536 2522 
Q 2463 2688 2317 2784 
Q 2172 2881 1947 2881 
z
" transform="scale(0.015625)"/>
        <path id="OpenSans-Bold-73" d="M 2938 1038 
Q 2938 681 2770 436 
Q 2603 191 2272 64 
Q 1941 -63 1447 -63 
Q 1081 -63 820 -16 
Q 559 31 294 141 
L 294 928 
Q 578 800 904 717 
Q 1231 634 1478 634 
Q 1756 634 1876 717 
Q 1997 800 1997 934 
Q 1997 1022 1948 1092 
Q 1900 1163 1740 1252 
Q 1581 1341 1241 1484 
Q 913 1622 702 1762 
Q 491 1903 389 2095 
Q 288 2288 288 2584 
Q 288 3069 664 3314 
Q 1041 3559 1672 3559 
Q 1997 3559 2292 3493 
Q 2588 3428 2900 3284 
L 2613 2597 
Q 2353 2709 2123 2781 
Q 1894 2853 1656 2853 
Q 1447 2853 1340 2797 
Q 1234 2741 1234 2625 
Q 1234 2541 1289 2475 
Q 1344 2409 1501 2329 
Q 1659 2250 1966 2125 
Q 2263 2003 2481 1870 
Q 2700 1738 2819 1542 
Q 2938 1347 2938 1038 
z
" transform="scale(0.015625)"/>
       </defs>
       <use xlink:href="#OpenSans-Bold-47"/>
       <use xlink:href="#OpenSans-Bold-72" x="72.412109"/>
       <use xlink:href="#OpenSans-Bold-61" x="117.822266"/>
       <use xlink:href="#OpenSans-Bold-6e" x="178.222656"/>
       <use xlink:href="#OpenSans-Bold-64" x="243.945312"/>
       <use xlink:href="#OpenSans-Bold-65" x="307.226562"/>
       <use xlink:href="#OpenSans-Bold-73" x="366.308594"/>
      </g>
     </g>
    </g>
    <g id="xtick_2">
     <g id="line2d_2">
      <g>
       <use xlink:href="#m50facbd86a" x="263.373636" y="322.04" style="fill: #37539c; stroke: #37539c; stroke-width: 0.8"/>
      </g>
     </g>
     <g id="text_2">
      <!-- Medianas -->
      <g style="fill: #37539c" transform="translate(244.038011 335.11875) scale(0.08 -0.08)">
       <defs>
        <path id="OpenSans-Bold-4d" d="M 2509 0 
L 1409 3584 
L 1381 3584 
Q 1388 3456 1402 3198 
Q 1416 2941 1428 2650 
Q 1441 2359 1441 2125 
L 1441 0 
L 575 0 
L 575 4569 
L 1894 4569 
L 2975 1075 
L 2994 1075 
L 4141 4569 
L 5459 4569 
L 5459 0 
L 4556 0 
L 4556 2163 
Q 4556 2378 4564 2659 
Q 4572 2941 4584 3195 
Q 4597 3450 4603 3578 
L 4575 3578 
L 3397 0 
L 2509 0 
z
" transform="scale(0.015625)"/>
        <path id="OpenSans-Bold-69" d="M 1453 3494 
L 1453 0 
L 500 0 
L 500 3494 
L 1453 3494 
z
M 978 4863 
Q 1191 4863 1344 4764 
Q 1497 4666 1497 4397 
Q 1497 4131 1344 4029 
Q 1191 3928 978 3928 
Q 763 3928 611 4029 
Q 459 4131 459 4397 
Q 459 4666 611 4764 
Q 763 4863 978 4863 
z
" transform="scale(0.015625)"/>
       </defs>
       <use xlink:href="#OpenSans-Bold-4d"/>
       <use xlink:href="#OpenSans-Bold-65" x="94.287109"/>
       <use xlink:href="#OpenSans-Bold-64" x="153.369141"/>
       <use xlink:href="#OpenSans-Bold-69" x="216.650391"/>
       <use xlink:href="#OpenSans-Bold-61" x="247.167969"/>
       <use xlink:href="#OpenSans-Bold-6e" x="307.568359"/>
       <use xlink:href="#OpenSans-Bold-61" x="373.291016"/>
       <use xlink:href="#OpenSans-Bold-73" x="433.691406"/>
      </g>
     </g>
    </g>
    <g id="xtick_3">
     <g id="line2d_3">
      <g>
       <use xlink:href="#m50facbd86a" x="414.402727" y="322.04" style="fill: #37539c; stroke: #37539c; stroke-width: 0.8"/>
      </g>
     </g>
     <g id="text_3">
      <!-- Pequeñas -->
      <g style="fill: #37539c" transform="translate(394.971477 335.11875) scale(0.08 -0.08)">
       <defs>
        <path id="OpenSans-Bold-50" d="M 2034 4569 
Q 2919 4569 3325 4189 
Q 3731 3809 3731 3144 
Q 3731 2844 3640 2570 
Q 3550 2297 3345 2084 
Q 3141 1872 2800 1748 
Q 2459 1625 1959 1625 
L 1544 1625 
L 1544 0 
L 575 0 
L 575 4569 
L 2034 4569 
z
M 1984 3775 
L 1544 3775 
L 1544 2419 
L 1863 2419 
Q 2134 2419 2334 2491 
Q 2534 2563 2643 2716 
Q 2753 2869 2753 3109 
Q 2753 3447 2565 3611 
Q 2378 3775 1984 3775 
z
" transform="scale(0.015625)"/>
        <path id="OpenSans-Bold-71" d="M 2597 -1538 
L 2597 -72 
Q 2597 59 2608 192 
Q 2619 325 2638 453 
L 2597 453 
Q 2463 238 2227 87 
Q 1991 -63 1606 -63 
Q 1016 -63 652 395 
Q 288 853 288 1741 
Q 288 2338 456 2742 
Q 625 3147 926 3353 
Q 1228 3559 1625 3559 
Q 2009 3559 2248 3411 
Q 2488 3263 2638 3047 
L 2663 3047 
L 2747 3494 
L 3553 3494 
L 3553 -1538 
L 2597 -1538 
z
M 1947 684 
Q 2209 684 2364 787 
Q 2519 891 2587 1098 
Q 2656 1306 2663 1619 
L 2663 1734 
Q 2663 2244 2506 2514 
Q 2350 2784 1931 2784 
Q 1591 2784 1425 2512 
Q 1259 2241 1259 1728 
Q 1259 1206 1428 945 
Q 1597 684 1947 684 
z
" transform="scale(0.015625)"/>
        <path id="OpenSans-Bold-75" d="M 3706 3494 
L 3706 0 
L 2975 0 
L 2847 447 
L 2797 447 
Q 2684 269 2515 156 
Q 2347 44 2144 -9 
Q 1941 -63 1722 -63 
Q 1347 -63 1069 70 
Q 791 203 636 484 
Q 481 766 481 1216 
L 481 3494 
L 1434 3494 
L 1434 1453 
Q 1434 1078 1568 887 
Q 1703 697 1997 697 
Q 2288 697 2453 830 
Q 2619 963 2686 1220 
Q 2753 1478 2753 1850 
L 2753 3494 
L 3706 3494 
z
" transform="scale(0.015625)"/>
        <path id="OpenSans-Bold-f1" d="M 2484 3559 
Q 3044 3559 3384 3254 
Q 3725 2950 3725 2278 
L 3725 0 
L 2772 0 
L 2772 2041 
Q 2772 2416 2636 2606 
Q 2500 2797 2209 2797 
Q 1772 2797 1612 2500 
Q 1453 2203 1453 1644 
L 1453 0 
L 500 0 
L 500 3494 
L 1228 3494 
L 1356 3047 
L 1409 3047 
Q 1522 3228 1689 3340 
Q 1856 3453 2061 3506 
Q 2266 3559 2484 3559 
z
M 808 3872 
Q 827 4122 899 4305 
Q 971 4488 1086 4605 
Q 1202 4722 1347 4780 
Q 1493 4838 1658 4838 
Q 1786 4838 1909 4789 
Q 2033 4741 2153 4675 
Q 2274 4609 2391 4561 
Q 2508 4513 2621 4513 
Q 2715 4513 2804 4595 
Q 2893 4678 2933 4844 
L 3399 4844 
Q 3361 4350 3117 4114 
Q 2874 3878 2549 3878 
Q 2421 3878 2297 3928 
Q 2174 3978 2053 4042 
Q 1933 4106 1817 4156 
Q 1702 4206 1590 4206 
Q 1493 4206 1404 4123 
Q 1315 4041 1274 3872 
L 808 3872 
z
" transform="scale(0.015625)"/>
       </defs>
       <use xlink:href="#OpenSans-Bold-50"/>
       <use xlink:href="#OpenSans-Bold-65" x="62.792969"/>
       <use xlink:href="#OpenSans-Bold-71" x="121.875"/>
       <use xlink:href="#OpenSans-Bold-75" x="185.15625"/>
       <use xlink:href="#OpenSans-Bold-65" x="250.878906"/>
       <use xlink:href="#OpenSans-Bold-f1" x="309.960938"/>
       <use xlink:href="#OpenSans-Bold-61" x="375.683594"/>
       <use xlink:href="#OpenSans-Bold-73" x="436.083984"/>
      </g>
     </g>
    </g>
   </g>
   <g id="matplotlib.axis_2">
    <g id="ytick_1">
     <g id="line2d_4">
      <path d="M 36.83 322.04 
L 452.16 322.04 
" clip-path="url(#p0804d79a1a)" style="fill: none; stroke-dasharray: 2.96,1.28; stroke-dashoffset: 0; stroke: #b0b0b0; stroke-width: 0.8"/>
     </g>
     <g id="line2d_5">
      <defs>
       <path id="m79b0834fc7" d="M 0 0 
L -3.5 0 
" style="stroke: #37539c; stroke-width: 0.8"/>
      </defs>
      <g>
       <use xlink:href="#m79b0834fc7" x="36.83" y="322.04" style="fill: #37539c; stroke: #37539c; stroke-width: 0.8"/>
      </g>
     </g>
     <g id="text_4">
      <!-- 0 -->
      <g style="fill: #37539c" transform="translate(25.25625 325.079375) scale(0.08 -0.08)">
       <defs>
        <path id="OpenSans-Bold-30" d="M 3425 2284 
Q 3425 1731 3339 1297 
Q 3253 863 3064 559 
Q 2875 256 2569 96 
Q 2263 -63 1825 -63 
Q 1275 -63 922 217 
Q 569 497 400 1023 
Q 231 1550 231 2284 
Q 231 3025 386 3551 
Q 541 4078 891 4359 
Q 1241 4641 1825 4641 
Q 2372 4641 2726 4361 
Q 3081 4081 3253 3554 
Q 3425 3028 3425 2284 
z
M 1191 2284 
Q 1191 1763 1248 1414 
Q 1306 1066 1443 891 
Q 1581 716 1825 716 
Q 2066 716 2205 889 
Q 2344 1063 2403 1411 
Q 2463 1759 2463 2284 
Q 2463 2806 2403 3156 
Q 2344 3506 2205 3682 
Q 2066 3859 1825 3859 
Q 1581 3859 1443 3682 
Q 1306 3506 1248 3156 
Q 1191 2806 1191 2284 
z
" transform="scale(0.015625)"/>
       </defs>
       <use xlink:href="#OpenSans-Bold-30"/>
      </g>
     </g>
    </g>
    <g id="ytick_2">
     <g id="line2d_6">
      <path d="M 36.83 273.07125 
L 452.16 273.07125 
" clip-path="url(#p0804d79a1a)" style="fill: none; stroke-dasharray: 2.96,1.28; stroke-dashoffset: 0; stroke: #b0b0b0; stroke-width: 0.8"/>
     </g>
     <g id="line2d_7">
      <g>
       <use xlink:href="#m79b0834fc7" x="36.83" y="273.07125" style="fill: #37539c; stroke: #37539c; stroke-width: 0.8"/>
      </g>
     </g>
     <g id="text_5">
      <!-- 5 -->
      <g style="fill: #37539c" transform="translate(25.25625 276.110625) scale(0.08 -0.08)">
       <defs>
        <path id="OpenSans-Bold-35" d="M 1919 2919 
Q 2338 2919 2664 2759 
Q 2991 2600 3178 2290 
Q 3366 1981 3366 1528 
Q 3366 1034 3161 676 
Q 2956 319 2551 128 
Q 2147 -63 1544 -63 
Q 1184 -63 867 -2 
Q 550 59 313 184 
L 313 1019 
Q 550 894 883 808 
Q 1216 722 1509 722 
Q 1797 722 1994 798 
Q 2191 875 2292 1036 
Q 2394 1197 2394 1447 
Q 2394 1781 2169 1959 
Q 1944 2138 1478 2138 
Q 1300 2138 1108 2103 
Q 916 2069 788 2034 
L 403 2241 
L 575 4569 
L 3053 4569 
L 3053 3750 
L 1422 3750 
L 1338 2853 
Q 1444 2875 1569 2897 
Q 1694 2919 1919 2919 
z
" transform="scale(0.015625)"/>
       </defs>
       <use xlink:href="#OpenSans-Bold-35"/>
      </g>
     </g>
    </g>
    <g id="ytick_3">
     <g id="line2d_8">
      <path d="M 36.83 224.1025 
L 452.16 224.1025 
" clip-path="url(#p0804d79a1a)" style="fill: none; stroke-dasharray: 2.96,1.28; stroke-dashoffset: 0; stroke: #b0b0b0; stroke-width: 0.8"/>
     </g>
     <g id="line2d_9">
      <g>
       <use xlink:href="#m79b0834fc7" x="36.83" y="224.1025" style="fill: #37539c; stroke: #37539c; stroke-width: 0.8"/>
      </g>
     </g>
     <g id="text_6">
      <!-- 10 -->
      <g style="fill: #37539c" transform="translate(20.6825 227.141875) scale(0.08 -0.08)">
       <defs>
        <path id="OpenSans-Bold-31" d="M 2644 0 
L 1678 0 
L 1678 2644 
Q 1678 2753 1681 2914 
Q 1684 3075 1690 3245 
Q 1697 3416 1703 3553 
Q 1669 3513 1564 3414 
Q 1459 3316 1369 3238 
L 844 2816 
L 378 3397 
L 1850 4569 
L 2644 4569 
L 2644 0 
z
" transform="scale(0.015625)"/>
       </defs>
       <use xlink:href="#OpenSans-Bold-31"/>
       <use xlink:href="#OpenSans-Bold-30" x="57.177734"/>
      </g>
     </g>
    </g>
    <g id="ytick_4">
     <g id="line2d_10">
      <path d="M 36.83 175.13375 
L 452.16 175.13375 
" clip-path="url(#p0804d79a1a)" style="fill: none; stroke-dasharray: 2.96,1.28; stroke-dashoffset: 0; stroke: #b0b0b0; stroke-width: 0.8"/>
     </g>
     <g id="line2d_11">
      <g>
       <use xlink:href="#m79b0834fc7" x="36.83" y="175.13375" style="fill: #37539c; stroke: #37539c; stroke-width: 0.8"/>
      </g>
     </g>
     <g id="text_7">
      <!-- 15 -->
      <g style="fill: #37539c" transform="translate(20.6825 178.173125) scale(0.08 -0.08)">
       <use xlink:href="#OpenSans-Bold-31"/>
       <use xlink:href="#OpenSans-Bold-35" x="57.177734"/>
      </g>
     </g>
    </g>
    <g id="ytick_5">
     <g id="line2d_12">
      <path d="M 36.83 126.165 
L 452.16 126.165 
" clip-path="url(#p0804d79a1a)" style="fill: none; stroke-dasharray: 2.96,1.28; stroke-dashoffset: 0; stroke: #b0b0b0; stroke-width: 0.8"/>
     </g>
     <g id="line2d_13">
      <g>
       <use xlink:href="#m79b0834fc7" x="36.83" y="126.165" style="fill: #37539c; stroke: #37539c; stroke-width: 0.8"/>
      </g>
     </g>
     <g id="text_8">
      <!-- 20 -->
      <g style="fill: #37539c" transform="translate(20.6825 129.204375) scale(0.08 -0.08)">
       <defs>
        <path id="OpenSans-Bold-32" d="M 3450 0 
L 256 0 
L 256 672 
L 1403 1831 
Q 1750 2188 1961 2427 
Q 2172 2666 2267 2862 
Q 2363 3059 2363 3284 
Q 2363 3556 2211 3692 
Q 2059 3828 1806 3828 
Q 1541 3828 1291 3706 
Q 1041 3584 769 3359 
L 244 3981 
Q 441 4150 661 4300 
Q 881 4450 1173 4542 
Q 1466 4634 1875 4634 
Q 2325 4634 2648 4471 
Q 2972 4309 3147 4029 
Q 3322 3750 3322 3397 
Q 3322 3019 3172 2706 
Q 3022 2394 2736 2087 
Q 2450 1781 2047 1409 
L 1459 856 
L 1459 813 
L 3450 813 
L 3450 0 
z
" transform="scale(0.015625)"/>
       </defs>
       <use xlink:href="#OpenSans-Bold-32"/>
       <use xlink:href="#OpenSans-Bold-30" x="57.177734"/>
      </g>
     </g>
    </g>
    <g id="ytick_6">
     <g id="line2d_14">
      <path d="M 36.83 77.19625 
L 452.16 77.19625 
" clip-path="url(#p0804d79a1a)" style="fill: none; stroke-dasharray: 2.96,1.28; stroke-dashoffset: 0; stroke: #b0b0b0; stroke-width: 0.8"/>
     </g>
     <g id="line2d_15">
      <g>
       <use xlink:href="#m79b0834fc7" x="36.83" y="77.19625" style="fill: #37539c; stroke: #37539c; stroke-width: 0.8"/>
      </g>
     </g>
     <g id="text_9">
      <!-- 25 -->
      <g style="fill: #37539c" transform="translate(20.6825 80.235625) scale(0.08 -0.08)">
       <use xlink:href="#OpenSans-Bold-32"/>
       <use xlink:href="#OpenSans-Bold-35" x="57.177734"/>
      </g>
     </g>
    </g>
    <g id="ytick_7">
     <g id="line2d_16">
      <path d="M 36.83 28.2275 
L 452.16 28.2275 
" clip-path="url(#p0804d79a1a)" style="fill: none; stroke-dasharray: 2.96,1.28; stroke-dashoffset: 0; stroke: #b0b0b0; stroke-width: 0.8"/>
     </g>
     <g id="line2d_17">
      <g>
       <use xlink:href="#m79b0834fc7" x="36.83" y="28.2275" style="fill: #37539c; stroke: #37539c; stroke-width: 0.8"/>
      </g>
     </g>
     <g id="text_10">
      <!-- 30 -->
      <g style="fill: #37539c" transform="translate(20.6825 31.266875) scale(0.08 -0.08)">
       <defs>
        <path id="OpenSans-Bold-33" d="M 3272 3547 
Q 3272 3231 3140 3000 
Q 3009 2769 2786 2622 
Q 2563 2475 2284 2406 
L 2284 2388 
Q 2834 2319 3120 2050 
Q 3406 1781 3406 1331 
Q 3406 931 3211 615 
Q 3016 300 2609 118 
Q 2203 -63 1563 -63 
Q 1184 -63 857 -2 
Q 531 59 244 184 
L 244 1006 
Q 538 856 859 779 
Q 1181 703 1459 703 
Q 1978 703 2186 883 
Q 2394 1063 2394 1388 
Q 2394 1578 2297 1709 
Q 2200 1841 1961 1909 
Q 1722 1978 1294 1978 
L 947 1978 
L 947 2719 
L 1300 2719 
Q 1722 2719 1942 2798 
Q 2163 2878 2242 3017 
Q 2322 3156 2322 3334 
Q 2322 3578 2172 3715 
Q 2022 3853 1672 3853 
Q 1453 3853 1273 3798 
Q 1094 3744 950 3667 
Q 806 3591 697 3519 
L 250 4184 
Q 519 4378 880 4506 
Q 1241 4634 1741 4634 
Q 2447 4634 2859 4350 
Q 3272 4066 3272 3547 
z
" transform="scale(0.015625)"/>
       </defs>
       <use xlink:href="#OpenSans-Bold-33"/>
       <use xlink:href="#OpenSans-Bold-30" x="57.177734"/>
      </g>
     </g>
    </g>
    <g id="text_11">
     <!-- Porcentaje respecto al total de empresas en Chile -->
     <g style="fill: #37539c" transform="translate(14.76 264.0225) rotate(-90) scale(0.08 -0.08)">
      <defs>
       <path id="OpenSans-Bold-6f" d="M 3675 1753 
Q 3675 1316 3558 978 
Q 3441 641 3217 408 
Q 2994 175 2680 56 
Q 2366 -63 1972 -63 
Q 1603 -63 1295 56 
Q 988 175 761 408 
Q 534 641 411 978 
Q 288 1316 288 1753 
Q 288 2334 494 2737 
Q 700 3141 1081 3350 
Q 1463 3559 1991 3559 
Q 2481 3559 2861 3350 
Q 3241 3141 3458 2737 
Q 3675 2334 3675 1753 
z
M 1259 1753 
Q 1259 1409 1334 1175 
Q 1409 941 1568 822 
Q 1728 703 1984 703 
Q 2238 703 2395 822 
Q 2553 941 2626 1175 
Q 2700 1409 2700 1753 
Q 2700 2100 2626 2329 
Q 2553 2559 2393 2675 
Q 2234 2791 1978 2791 
Q 1600 2791 1429 2531 
Q 1259 2272 1259 1753 
z
" transform="scale(0.015625)"/>
       <path id="OpenSans-Bold-63" d="M 1919 -63 
Q 1400 -63 1034 126 
Q 669 316 478 712 
Q 288 1109 288 1728 
Q 288 2369 505 2773 
Q 722 3178 1108 3368 
Q 1494 3559 2003 3559 
Q 2366 3559 2630 3489 
Q 2894 3419 3091 3322 
L 2809 2584 
Q 2584 2675 2390 2733 
Q 2197 2791 2003 2791 
Q 1753 2791 1587 2673 
Q 1422 2556 1340 2322 
Q 1259 2088 1259 1734 
Q 1259 1388 1346 1159 
Q 1434 931 1600 820 
Q 1766 709 2003 709 
Q 2300 709 2531 789 
Q 2763 869 2981 1013 
L 2981 197 
Q 2763 59 2523 -2 
Q 2284 -63 1919 -63 
z
" transform="scale(0.015625)"/>
       <path id="OpenSans-Bold-74" d="M 1972 697 
Q 2128 697 2276 728 
Q 2425 759 2572 806 
L 2572 97 
Q 2419 28 2192 -17 
Q 1966 -63 1697 -63 
Q 1384 -63 1136 39 
Q 888 141 745 392 
Q 603 644 603 1094 
L 603 2778 
L 147 2778 
L 147 3181 
L 672 3500 
L 947 4238 
L 1556 4238 
L 1556 3494 
L 2534 3494 
L 2534 2778 
L 1556 2778 
L 1556 1094 
Q 1556 894 1670 795 
Q 1784 697 1972 697 
z
" transform="scale(0.015625)"/>
       <path id="OpenSans-Bold-6a" d="M 219 -1538 
Q 56 -1538 -119 -1514 
Q -294 -1491 -409 -1459 
L -409 -709 
Q -294 -741 -192 -755 
Q -91 -769 38 -769 
Q 231 -769 365 -661 
Q 500 -553 500 -238 
L 500 3494 
L 1453 3494 
L 1453 -378 
Q 1453 -697 1331 -961 
Q 1209 -1225 937 -1381 
Q 666 -1538 219 -1538 
z
M 459 4397 
Q 459 4666 611 4764 
Q 763 4863 978 4863 
Q 1191 4863 1344 4764 
Q 1497 4666 1497 4397 
Q 1497 4131 1344 4029 
Q 1191 3928 978 3928 
Q 763 3928 611 4029 
Q 459 4131 459 4397 
z
" transform="scale(0.015625)"/>
       <path id="OpenSans-Bold-20" transform="scale(0.015625)"/>
       <path id="OpenSans-Bold-70" d="M 2444 3559 
Q 3034 3559 3398 3100 
Q 3763 2641 3763 1753 
Q 3763 1159 3591 754 
Q 3419 350 3116 143 
Q 2813 -63 2419 -63 
Q 2166 -63 1984 1 
Q 1803 66 1675 167 
Q 1547 269 1453 384 
L 1403 384 
Q 1428 259 1440 128 
Q 1453 -3 1453 -128 
L 1453 -1538 
L 500 -1538 
L 500 3494 
L 1275 3494 
L 1409 3041 
L 1453 3041 
Q 1547 3181 1681 3300 
Q 1816 3419 2005 3489 
Q 2194 3559 2444 3559 
z
M 2138 2797 
Q 1888 2797 1741 2694 
Q 1594 2591 1526 2384 
Q 1459 2178 1453 1863 
L 1453 1759 
Q 1453 1422 1517 1187 
Q 1581 953 1732 831 
Q 1884 709 2150 709 
Q 2369 709 2509 831 
Q 2650 953 2720 1189 
Q 2791 1425 2791 1766 
Q 2791 2278 2631 2537 
Q 2472 2797 2138 2797 
z
" transform="scale(0.015625)"/>
       <path id="OpenSans-Bold-6c" d="M 1453 0 
L 500 0 
L 500 4863 
L 1453 4863 
L 1453 0 
z
" transform="scale(0.015625)"/>
       <path id="OpenSans-Bold-6d" d="M 4603 3559 
Q 5197 3559 5501 3254 
Q 5806 2950 5806 2278 
L 5806 0 
L 4850 0 
L 4850 2041 
Q 4850 2416 4722 2606 
Q 4594 2797 4325 2797 
Q 3947 2797 3787 2526 
Q 3628 2256 3628 1753 
L 3628 0 
L 2675 0 
L 2675 2041 
Q 2675 2291 2619 2459 
Q 2563 2628 2447 2712 
Q 2331 2797 2150 2797 
Q 1884 2797 1732 2664 
Q 1581 2531 1517 2273 
Q 1453 2016 1453 1644 
L 1453 0 
L 500 0 
L 500 3494 
L 1228 3494 
L 1356 3047 
L 1409 3047 
Q 1516 3228 1677 3340 
Q 1838 3453 2031 3506 
Q 2225 3559 2425 3559 
Q 2809 3559 3076 3434 
Q 3344 3309 3488 3047 
L 3572 3047 
Q 3728 3316 4014 3437 
Q 4300 3559 4603 3559 
z
" transform="scale(0.015625)"/>
       <path id="OpenSans-Bold-43" d="M 2516 3828 
Q 2238 3828 2023 3720 
Q 1809 3613 1664 3409 
Q 1519 3206 1444 2918 
Q 1369 2631 1369 2272 
Q 1369 1788 1489 1445 
Q 1609 1103 1862 923 
Q 2116 744 2516 744 
Q 2794 744 3073 806 
Q 3353 869 3681 984 
L 3681 172 
Q 3378 47 3084 -8 
Q 2791 -63 2425 -63 
Q 1719 -63 1264 229 
Q 809 522 590 1048 
Q 372 1575 372 2278 
Q 372 2797 512 3228 
Q 653 3659 925 3975 
Q 1197 4291 1597 4462 
Q 1997 4634 2516 4634 
Q 2856 4634 3198 4548 
Q 3541 4463 3853 4313 
L 3541 3525 
Q 3284 3647 3025 3737 
Q 2766 3828 2516 3828 
z
" transform="scale(0.015625)"/>
       <path id="OpenSans-Bold-68" d="M 1453 4863 
L 1453 3872 
Q 1453 3613 1436 3378 
Q 1419 3144 1409 3047 
L 1459 3047 
Q 1572 3228 1726 3340 
Q 1881 3453 2068 3506 
Q 2256 3559 2472 3559 
Q 2850 3559 3131 3426 
Q 3413 3294 3569 3011 
Q 3725 2728 3725 2278 
L 3725 0 
L 2772 0 
L 2772 2041 
Q 2772 2416 2634 2606 
Q 2497 2797 2209 2797 
Q 1922 2797 1756 2664 
Q 1591 2531 1522 2273 
Q 1453 2016 1453 1644 
L 1453 0 
L 500 0 
L 500 4863 
L 1453 4863 
z
" transform="scale(0.015625)"/>
      </defs>
      <use xlink:href="#OpenSans-Bold-50"/>
      <use xlink:href="#OpenSans-Bold-6f" x="62.792969"/>
      <use xlink:href="#OpenSans-Bold-72" x="124.707031"/>
      <use xlink:href="#OpenSans-Bold-63" x="170.117188"/>
      <use xlink:href="#OpenSans-Bold-65" x="221.533203"/>
      <use xlink:href="#OpenSans-Bold-6e" x="280.615234"/>
      <use xlink:href="#OpenSans-Bold-74" x="346.337891"/>
      <use xlink:href="#OpenSans-Bold-61" x="389.746094"/>
      <use xlink:href="#OpenSans-Bold-6a" x="450.146484"/>
      <use xlink:href="#OpenSans-Bold-65" x="480.664062"/>
      <use xlink:href="#OpenSans-Bold-20" x="539.746094"/>
      <use xlink:href="#OpenSans-Bold-72" x="565.722656"/>
      <use xlink:href="#OpenSans-Bold-65" x="611.132812"/>
      <use xlink:href="#OpenSans-Bold-73" x="670.214844"/>
      <use xlink:href="#OpenSans-Bold-70" x="719.921875"/>
      <use xlink:href="#OpenSans-Bold-65" x="783.203125"/>
      <use xlink:href="#OpenSans-Bold-63" x="842.285156"/>
      <use xlink:href="#OpenSans-Bold-74" x="893.701172"/>
      <use xlink:href="#OpenSans-Bold-6f" x="937.109375"/>
      <use xlink:href="#OpenSans-Bold-20" x="999.023438"/>
      <use xlink:href="#OpenSans-Bold-61" x="1025"/>
      <use xlink:href="#OpenSans-Bold-6c" x="1085.400391"/>
      <use xlink:href="#OpenSans-Bold-20" x="1115.917969"/>
      <use xlink:href="#OpenSans-Bold-74" x="1141.894531"/>
      <use xlink:href="#OpenSans-Bold-6f" x="1185.302734"/>
      <use xlink:href="#OpenSans-Bold-74" x="1247.216797"/>
      <use xlink:href="#OpenSans-Bold-61" x="1290.625"/>
      <use xlink:href="#OpenSans-Bold-6c" x="1351.025391"/>
      <use xlink:href="#OpenSans-Bold-20" x="1381.542969"/>
      <use xlink:href="#OpenSans-Bold-64" x="1407.519531"/>
      <use xlink:href="#OpenSans-Bold-65" x="1470.800781"/>
      <use xlink:href="#OpenSans-Bold-20" x="1529.882812"/>
      <use xlink:href="#OpenSans-Bold-65" x="1555.859375"/>
      <use xlink:href="#OpenSans-Bold-6d" x="1614.941406"/>
      <use xlink:href="#OpenSans-Bold-70" x="1713.134766"/>
      <use xlink:href="#OpenSans-Bold-72" x="1776.416016"/>
      <use xlink:href="#OpenSans-Bold-65" x="1821.826172"/>
      <use xlink:href="#OpenSans-Bold-73" x="1880.908203"/>
      <use xlink:href="#OpenSans-Bold-61" x="1930.615234"/>
      <use xlink:href="#OpenSans-Bold-73" x="1991.015625"/>
      <use xlink:href="#OpenSans-Bold-20" x="2040.722656"/>
      <use xlink:href="#OpenSans-Bold-65" x="2066.699219"/>
      <use xlink:href="#OpenSans-Bold-6e" x="2125.78125"/>
      <use xlink:href="#OpenSans-Bold-20" x="2191.503906"/>
      <use xlink:href="#OpenSans-Bold-43" x="2217.480469"/>
      <use xlink:href="#OpenSans-Bold-68" x="2281.201172"/>
      <use xlink:href="#OpenSans-Bold-69" x="2346.923828"/>
      <use xlink:href="#OpenSans-Bold-6c" x="2377.441406"/>
      <use xlink:href="#OpenSans-Bold-65" x="2407.958984"/>
     </g>
    </g>
   </g>
   <g id="patch_3">
    <path d="M 411.231116 321.8833 
L 417.574338 321.8833 
Q 432.677247 321.8833 432.677247 317.9658 
L 432.677247 175.29045 
Q 432.677247 171.37295 417.574338 171.37295 
L 411.231116 171.37295 
Q 396.128207 171.37295 396.128207 175.29045 
L 396.128207 317.9658 
Q 396.128207 321.8833 411.231116 321.8833 
z
" clip-path="url(#p0804d79a1a)" style="fill: #4969be"/>
   </g>
   <g id="patch_4">
    <path d="M 260.202025 321.8833 
L 266.545247 321.8833 
Q 281.648156 321.8833 281.648156 317.9658 
L 281.648156 105.754825 
Q 281.648156 101.837325 266.545247 101.837325 
L 260.202025 101.837325 
Q 245.099116 101.837325 245.099116 105.754825 
L 245.099116 317.9658 
Q 245.099116 321.8833 260.202025 321.8833 
z
" clip-path="url(#p0804d79a1a)" style="fill: #4969be"/>
   </g>
   <g id="patch_5">
    <path d="M 109.172935 321.8833 
L 115.516156 321.8833 
Q 130.619065 321.8833 130.619065 317.9658 
L 130.619065 99.878575 
Q 130.619065 95.961075 115.516156 95.961075 
L 109.172935 95.961075 
Q 94.070025 95.961075 94.070025 99.878575 
L 94.070025 317.9658 
Q 94.070025 321.8833 109.172935 321.8833 
z
" clip-path="url(#p0804d79a1a)" style="fill: #4969be"/>
   </g>
   <g id="patch_6">
    <path d="M 373.473844 321.8833 
L 379.817065 321.8833 
Q 394.919975 321.8833 394.919975 317.9658 
L 394.919975 207.609825 
Q 394.919975 203.692325 379.817065 203.692325 
L 373.473844 203.692325 
Q 358.370935 203.692325 358.370935 207.609825 
L 358.370935 317.9658 
Q 358.370935 321.8833 373.473844 321.8833 
z
" clip-path="url(#p0804d79a1a)" style="fill: #869cd4"/>
   </g>
   <g id="patch_7">
    <path d="M 222.444753 321.8833 
L 228.787975 321.8833 
Q 243.890884 321.8833 243.890884 317.9658 
L 243.890884 115.548575 
Q 243.890884 111.631075 228.787975 111.631075 
L 222.444753 111.631075 
Q 207.341844 111.631075 207.341844 115.548575 
L 207.341844 317.9658 
Q 207.341844 321.8833 222.444753 321.8833 
z
" clip-path="url(#p0804d79a1a)" style="fill: #869cd4"/>
   </g>
   <g id="patch_8">
    <path d="M 71.415662 321.8833 
L 77.758884 321.8833 
Q 92.861793 321.8833 92.861793 317.9658 
L 92.861793 60.703575 
Q 92.861793 56.786075 77.758884 56.786075 
L 71.415662 56.786075 
Q 56.312753 56.786075 56.312753 60.703575 
L 56.312753 317.9658 
Q 56.312753 321.8833 71.415662 321.8833 
z
" clip-path="url(#p0804d79a1a)" style="fill: #869cd4"/>
   </g>
   <g id="patch_9">
    <path d="M 36.83 322.04 
L 36.83 8.64 
" style="fill: none; stroke: #000000; stroke-width: 0.8; stroke-linejoin: miter; stroke-linecap: square"/>
   </g>
   <g id="patch_10">
    <path d="M 36.83 322.04 
L 452.16 322.04 
" style="fill: none; stroke: #000000; stroke-width: 0.8; stroke-linejoin: miter; stroke-linecap: square"/>
   </g>
   <g id="text_12">
    <!-- 27.1% -->
    <g style="fill: #37539c" transform="translate(62.982273 51.706875) scale(0.08 -0.08)">
     <defs>
      <path id="OpenSans-Bold-37" d="M 709 0 
L 2425 3756 
L 172 3756 
L 172 4569 
L 3450 4569 
L 3450 3963 
L 1722 0 
L 709 0 
z
" transform="scale(0.015625)"/>
      <path id="OpenSans-Bold-2e" d="M 366 447 
Q 366 741 527 859 
Q 688 978 916 978 
Q 1138 978 1298 859 
Q 1459 741 1459 447 
Q 1459 166 1298 41 
Q 1138 -84 916 -84 
Q 688 -84 527 41 
Q 366 166 366 447 
z
" transform="scale(0.015625)"/>
      <path id="OpenSans-Bold-25" d="M 1275 4634 
Q 1813 4634 2091 4259 
Q 2369 3884 2369 3206 
Q 2369 2528 2106 2147 
Q 1844 1766 1275 1766 
Q 747 1766 472 2147 
Q 197 2528 197 3206 
Q 197 3884 455 4259 
Q 713 4634 1275 4634 
z
M 1281 3981 
Q 1128 3981 1056 3787 
Q 984 3594 984 3200 
Q 984 2806 1056 2609 
Q 1128 2413 1281 2413 
Q 1434 2413 1507 2608 
Q 1581 2803 1581 3200 
Q 1581 3594 1507 3787 
Q 1434 3981 1281 3981 
z
M 4519 4569 
L 1984 0 
L 1234 0 
L 3769 4569 
L 4519 4569 
z
M 4475 2809 
Q 5013 2809 5291 2434 
Q 5569 2059 5569 1381 
Q 5569 706 5306 325 
Q 5044 -56 4475 -56 
Q 3947 -56 3672 325 
Q 3397 706 3397 1381 
Q 3397 2059 3655 2434 
Q 3913 2809 4475 2809 
z
M 4481 2156 
Q 4328 2156 4256 1962 
Q 4184 1769 4184 1375 
Q 4184 981 4256 784 
Q 4328 588 4481 588 
Q 4634 588 4707 783 
Q 4781 978 4781 1375 
Q 4781 1769 4707 1962 
Q 4634 2156 4481 2156 
z
" transform="scale(0.015625)"/>
     </defs>
     <use xlink:href="#OpenSans-Bold-32"/>
     <use xlink:href="#OpenSans-Bold-37" x="57.177734"/>
     <use xlink:href="#OpenSans-Bold-2e" x="114.355469"/>
     <use xlink:href="#OpenSans-Bold-31" x="142.871094"/>
     <use xlink:href="#OpenSans-Bold-25" x="200.048828"/>
    </g>
   </g>
   <g id="text_13">
    <!-- 21.5% -->
    <g style="fill: #37539c" transform="translate(214.011364 106.551875) scale(0.08 -0.08)">
     <use xlink:href="#OpenSans-Bold-32"/>
     <use xlink:href="#OpenSans-Bold-31" x="57.177734"/>
     <use xlink:href="#OpenSans-Bold-2e" x="114.355469"/>
     <use xlink:href="#OpenSans-Bold-35" x="142.871094"/>
     <use xlink:href="#OpenSans-Bold-25" x="200.048828"/>
    </g>
   </g>
   <g id="text_14">
    <!-- 12.1% -->
    <g style="fill: #37539c" transform="translate(365.040455 198.613125) scale(0.08 -0.08)">
     <use xlink:href="#OpenSans-Bold-31"/>
     <use xlink:href="#OpenSans-Bold-32" x="57.177734"/>
     <use xlink:href="#OpenSans-Bold-2e" x="114.355469"/>
     <use xlink:href="#OpenSans-Bold-31" x="142.871094"/>
     <use xlink:href="#OpenSans-Bold-25" x="200.048828"/>
    </g>
   </g>
   <g id="text_15">
    <!-- 23.1% -->
    <g style="fill: #37539c" transform="translate(100.739545 90.881875) scale(0.08 -0.08)">
     <use xlink:href="#OpenSans-Bold-32"/>
     <use xlink:href="#OpenSans-Bold-33" x="57.177734"/>
     <use xlink:href="#OpenSans-Bold-2e" x="114.355469"/>
     <use xlink:href="#OpenSans-Bold-31" x="142.871094"/>
     <use xlink:href="#OpenSans-Bold-25" x="200.048828"/>
    </g>
   </g>
   <g id="text_16">
    <!-- 22.5% -->
    <g style="fill: #37539c" transform="translate(251.768636 96.758125) scale(0.08 -0.08)">
     <use xlink:href="#OpenSans-Bold-32"/>
     <use xlink:href="#OpenSans-Bold-32" x="57.177734"/>
     <use xlink:href="#OpenSans-Bold-2e" x="114.355469"/>
     <use xlink:href="#OpenSans-Bold-35" x="142.871094"/>
     <use xlink:href="#OpenSans-Bold-25" x="200.048828"/>
    </g>
   </g>
   <g id="text_17">
    <!-- 15.4% -->
    <g style="fill: #37539c" transform="translate(402.797727 166.29375) scale(0.08 -0.08)">
     <defs>
      <path id="OpenSans-Bold-34" d="M 3553 947 
L 3003 947 
L 3003 0 
L 2059 0 
L 2059 947 
L 109 947 
L 109 1619 
L 2113 4569 
L 3003 4569 
L 3003 1697 
L 3553 1697 
L 3553 947 
z
M 2059 1697 
L 2059 2472 
Q 2059 2581 2064 2731 
Q 2069 2881 2075 3031 
Q 2081 3181 2089 3298 
Q 2097 3416 2100 3463 
L 2075 3463 
Q 2016 3334 1950 3214 
Q 1884 3094 1797 2963 
L 959 1697 
L 2059 1697 
z
" transform="scale(0.015625)"/>
     </defs>
     <use xlink:href="#OpenSans-Bold-31"/>
     <use xlink:href="#OpenSans-Bold-35" x="57.177734"/>
     <use xlink:href="#OpenSans-Bold-2e" x="114.355469"/>
     <use xlink:href="#OpenSans-Bold-34" x="142.871094"/>
     <use xlink:href="#OpenSans-Bold-25" x="200.048828"/>
    </g>
   </g>
   <g id="legend_1">
    <g id="patch_11">
     <path d="M 42.43 27.04125 
L 184.7575 27.04125 
Q 186.3575 27.04125 186.3575 25.44125 
L 186.3575 14.24 
Q 186.3575 12.64 184.7575 12.64 
L 42.43 12.64 
Q 40.83 12.64 40.83 14.24 
L 40.83 25.44125 
Q 40.83 27.04125 42.43 27.04125 
z
" style="fill: #ffffff; opacity: 0.8; stroke: #cccccc; stroke-linejoin: miter"/>
    </g>
    <g id="patch_12">
     <path d="M 44.03 21.91875 
L 60.03 21.91875 
L 60.03 16.31875 
L 44.03 16.31875 
z
" style="fill: #869cd4"/>
    </g>
    <g id="text_18">
     <!-- 2017-2018 -->
     <g style="fill: #37539c" transform="translate(66.43 21.91875) scale(0.08 -0.08)">
      <defs>
       <path id="OpenSans-Bold-2d" d="M 191 1325 
L 191 2106 
L 1869 2106 
L 1869 1325 
L 191 1325 
z
" transform="scale(0.015625)"/>
       <path id="OpenSans-Bold-38" d="M 1831 4628 
Q 2225 4628 2558 4506 
Q 2891 4384 3091 4139 
Q 3291 3894 3291 3525 
Q 3291 3250 3183 3044 
Q 3075 2838 2890 2683 
Q 2706 2528 2472 2413 
Q 2716 2284 2934 2114 
Q 3153 1944 3292 1716 
Q 3431 1488 3431 1184 
Q 3431 803 3228 523 
Q 3025 244 2665 90 
Q 2306 -63 1831 -63 
Q 1319 -63 959 84 
Q 600 231 412 504 
Q 225 778 225 1159 
Q 225 1472 342 1703 
Q 459 1934 659 2101 
Q 859 2269 1100 2388 
Q 897 2516 730 2678 
Q 563 2841 464 3050 
Q 366 3259 366 3531 
Q 366 3894 570 4137 
Q 775 4381 1109 4504 
Q 1444 4628 1831 4628 
z
M 1119 1216 
Q 1119 969 1295 808 
Q 1472 647 1819 647 
Q 2178 647 2356 801 
Q 2534 956 2534 1209 
Q 2534 1384 2432 1515 
Q 2331 1647 2178 1751 
Q 2025 1856 1869 1947 
L 1784 1991 
Q 1584 1900 1436 1787 
Q 1288 1675 1203 1534 
Q 1119 1394 1119 1216 
z
M 1825 3922 
Q 1588 3922 1431 3800 
Q 1275 3678 1275 3456 
Q 1275 3300 1351 3183 
Q 1428 3066 1554 2978 
Q 1681 2891 1831 2816 
Q 1975 2884 2100 2968 
Q 2225 3053 2303 3172 
Q 2381 3291 2381 3456 
Q 2381 3678 2223 3800 
Q 2066 3922 1825 3922 
z
" transform="scale(0.015625)"/>
      </defs>
      <use xlink:href="#OpenSans-Bold-32"/>
      <use xlink:href="#OpenSans-Bold-30" x="57.177734"/>
      <use xlink:href="#OpenSans-Bold-31" x="114.355469"/>
      <use xlink:href="#OpenSans-Bold-37" x="171.533203"/>
      <use xlink:href="#OpenSans-Bold-2d" x="228.710938"/>
      <use xlink:href="#OpenSans-Bold-32" x="260.888672"/>
      <use xlink:href="#OpenSans-Bold-30" x="318.066406"/>
      <use xlink:href="#OpenSans-Bold-31" x="375.244141"/>
      <use xlink:href="#OpenSans-Bold-38" x="432.421875"/>
     </g>
    </g>
    <g id="patch_13">
     <path d="M 121.59375 21.91875 
L 137.59375 21.91875 
L 137.59375 16.31875 
L 121.59375 16.31875 
z
" style="fill: #4969be"/>
    </g>
    <g id="text_19">
     <!-- 2019-2020 -->
     <g style="fill: #37539c" transform="translate(143.99375 21.91875) scale(0.08 -0.08)">
      <defs>
       <path id="OpenSans-Bold-39" d="M 3431 2619 
Q 3431 2225 3373 1837 
Q 3316 1450 3172 1108 
Q 3028 766 2768 502 
Q 2509 238 2109 87 
Q 1709 -63 1141 -63 
Q 1006 -63 825 -52 
Q 644 -41 525 -19 
L 525 756 
Q 650 725 790 708 
Q 931 691 1075 691 
Q 1647 691 1958 872 
Q 2269 1053 2395 1375 
Q 2522 1697 2541 2119 
L 2503 2119 
Q 2413 1969 2289 1848 
Q 2166 1728 1975 1658 
Q 1784 1588 1491 1588 
Q 1100 1588 811 1758 
Q 522 1928 364 2251 
Q 206 2575 206 3034 
Q 206 3531 395 3886 
Q 584 4241 934 4431 
Q 1284 4622 1759 4622 
Q 2109 4622 2412 4501 
Q 2716 4381 2945 4134 
Q 3175 3888 3303 3509 
Q 3431 3131 3431 2619 
z
M 1778 3847 
Q 1497 3847 1319 3653 
Q 1141 3459 1141 3047 
Q 1141 2716 1294 2522 
Q 1447 2328 1759 2328 
Q 1975 2328 2134 2423 
Q 2294 2519 2383 2664 
Q 2472 2809 2472 2963 
Q 2472 3122 2428 3278 
Q 2384 3434 2296 3562 
Q 2209 3691 2079 3769 
Q 1950 3847 1778 3847 
z
" transform="scale(0.015625)"/>
      </defs>
      <use xlink:href="#OpenSans-Bold-32"/>
      <use xlink:href="#OpenSans-Bold-30" x="57.177734"/>
      <use xlink:href="#OpenSans-Bold-31" x="114.355469"/>
      <use xlink:href="#OpenSans-Bold-39" x="171.533203"/>
      <use xlink:href="#OpenSans-Bold-2d" x="228.710938"/>
      <use xlink:href="#OpenSans-Bold-32" x="260.888672"/>
      <use xlink:href="#OpenSans-Bold-30" x="318.066406"/>
      <use xlink:href="#OpenSans-Bold-32" x="375.244141"/>
      <use xlink:href="#OpenSans-Bold-30" x="432.421875"/>
     </g>
    </g>
   </g>
  </g>
 </g>
 <defs>
  <clipPath id="p0804d79a1a">
   <rect x="36.83" y="8.64" width="415.33" height="313.4"/>
  </clipPath>
 </defs>
</svg>
