<?xml version="1.0" encoding="utf-8" standalone="no"?>
<!DOCTYPE svg PUBLIC "-//W3C//DTD SVG 1.1//EN"
  "http://www.w3.org/Graphics/SVG/1.1/DTD/svg11.dtd">
<svg xmlns:xlink="http://www.w3.org/1999/xlink" width="504pt" height="432pt" viewBox="0 0 504 432" xmlns="http://www.w3.org/2000/svg" version="1.1">
 <metadata>
  <rdf:RDF xmlns:dc="http://purl.org/dc/elements/1.1/" xmlns:cc="http://creativecommons.org/ns#" xmlns:rdf="http://www.w3.org/1999/02/22-rdf-syntax-ns#">
   <cc:Work>
    <dc:type rdf:resource="http://purl.org/dc/dcmitype/StillImage"/>
    <dc:date>2024-02-23T20:39:44.833897</dc:date>
    <dc:format>image/svg+xml</dc:format>
    <dc:creator>
     <cc:Agent>
      <dc:title>Matplotlib v3.7.1, https://matplotlib.org/</dc:title>
     </cc:Agent>
    </dc:creator>
   </cc:Work>
  </rdf:RDF>
 </metadata>
 <defs>
  <style type="text/css">*{stroke-linejoin: round; stroke-linecap: butt}</style>
 </defs>
 <g id="figure_1">
  <g id="patch_1">
   <path d="M 0 432 
L 504 432 
L 504 0 
L 0 0 
z
" style="fill: #ffffff"/>
  </g>
  <g id="axes_1">
   <g id="patch_2">
    <path d="M 95.83 396.52 
L 495.36 396.52 
L 495.36 22.56 
L 95.83 22.56 
z
" style="fill: #ffffff"/>
   </g>
   <g id="matplotlib.axis_1">
    <g id="xtick_1">
     <g id="line2d_1">
      <path d="M 95.83 396.52 
L 95.83 22.56 
" clip-path="url(#p9eedd77793)" style="fill: none; stroke-dasharray: 2.96,1.28; stroke-dashoffset: 0; stroke: #b0b0b0; stroke-width: 0.8"/>
     </g>
     <g id="line2d_2">
      <defs>
       <path id="m27c0d1da9e" d="M 0 0 
L 0 3.5 
" style="stroke: #37539c; stroke-width: 0.8"/>
      </defs>
      <g>
       <use xlink:href="#m27c0d1da9e" x="95.83" y="396.52" style="fill: #37539c; stroke: #37539c; stroke-width: 0.8"/>
      </g>
     </g>
     <g id="text_1">
      <!-- 0 -->
      <g style="fill: #37539c" transform="translate(93.543125 409.59875) scale(0.08 -0.08)">
       <defs>
        <path id="OpenSans-Bold-30" d="M 3425 2284 
Q 3425 1731 3339 1297 
Q 3253 863 3064 559 
Q 2875 256 2569 96 
Q 2263 -63 1825 -63 
Q 1275 -63 922 217 
Q 569 497 400 1023 
Q 231 1550 231 2284 
Q 231 3025 386 3551 
Q 541 4078 891 4359 
Q 1241 4641 1825 4641 
Q 2372 4641 2726 4361 
Q 3081 4081 3253 3554 
Q 3425 3028 3425 2284 
z
M 1191 2284 
Q 1191 1763 1248 1414 
Q 1306 1066 1443 891 
Q 1581 716 1825 716 
Q 2066 716 2205 889 
Q 2344 1063 2403 1411 
Q 2463 1759 2463 2284 
Q 2463 2806 2403 3156 
Q 2344 3506 2205 3682 
Q 2066 3859 1825 3859 
Q 1581 3859 1443 3682 
Q 1306 3506 1248 3156 
Q 1191 2806 1191 2284 
z
" transform="scale(0.015625)"/>
       </defs>
       <use xlink:href="#OpenSans-Bold-30"/>
      </g>
     </g>
    </g>
    <g id="xtick_2">
     <g id="line2d_3">
      <path d="M 144.553171 396.52 
L 144.553171 22.56 
" clip-path="url(#p9eedd77793)" style="fill: none; stroke-dasharray: 2.96,1.28; stroke-dashoffset: 0; stroke: #b0b0b0; stroke-width: 0.8"/>
     </g>
     <g id="line2d_4">
      <g>
       <use xlink:href="#m27c0d1da9e" x="144.553171" y="396.52" style="fill: #37539c; stroke: #37539c; stroke-width: 0.8"/>
      </g>
     </g>
     <g id="text_2">
      <!-- 25 -->
      <g style="fill: #37539c" transform="translate(139.979421 409.59875) scale(0.08 -0.08)">
       <defs>
        <path id="OpenSans-Bold-32" d="M 3450 0 
L 256 0 
L 256 672 
L 1403 1831 
Q 1750 2188 1961 2427 
Q 2172 2666 2267 2862 
Q 2363 3059 2363 3284 
Q 2363 3556 2211 3692 
Q 2059 3828 1806 3828 
Q 1541 3828 1291 3706 
Q 1041 3584 769 3359 
L 244 3981 
Q 441 4150 661 4300 
Q 881 4450 1173 4542 
Q 1466 4634 1875 4634 
Q 2325 4634 2648 4471 
Q 2972 4309 3147 4029 
Q 3322 3750 3322 3397 
Q 3322 3019 3172 2706 
Q 3022 2394 2736 2087 
Q 2450 1781 2047 1409 
L 1459 856 
L 1459 813 
L 3450 813 
L 3450 0 
z
" transform="scale(0.015625)"/>
        <path id="OpenSans-Bold-35" d="M 1919 2919 
Q 2338 2919 2664 2759 
Q 2991 2600 3178 2290 
Q 3366 1981 3366 1528 
Q 3366 1034 3161 676 
Q 2956 319 2551 128 
Q 2147 -63 1544 -63 
Q 1184 -63 867 -2 
Q 550 59 313 184 
L 313 1019 
Q 550 894 883 808 
Q 1216 722 1509 722 
Q 1797 722 1994 798 
Q 2191 875 2292 1036 
Q 2394 1197 2394 1447 
Q 2394 1781 2169 1959 
Q 1944 2138 1478 2138 
Q 1300 2138 1108 2103 
Q 916 2069 788 2034 
L 403 2241 
L 575 4569 
L 3053 4569 
L 3053 3750 
L 1422 3750 
L 1338 2853 
Q 1444 2875 1569 2897 
Q 1694 2919 1919 2919 
z
" transform="scale(0.015625)"/>
       </defs>
       <use xlink:href="#OpenSans-Bold-32"/>
       <use xlink:href="#OpenSans-Bold-35" x="57.177734"/>
      </g>
     </g>
    </g>
    <g id="xtick_3">
     <g id="line2d_5">
      <path d="M 193.276341 396.52 
L 193.276341 22.56 
" clip-path="url(#p9eedd77793)" style="fill: none; stroke-dasharray: 2.96,1.28; stroke-dashoffset: 0; stroke: #b0b0b0; stroke-width: 0.8"/>
     </g>
     <g id="line2d_6">
      <g>
       <use xlink:href="#m27c0d1da9e" x="193.276341" y="396.52" style="fill: #37539c; stroke: #37539c; stroke-width: 0.8"/>
      </g>
     </g>
     <g id="text_3">
      <!-- 50 -->
      <g style="fill: #37539c" transform="translate(188.702591 409.59875) scale(0.08 -0.08)">
       <use xlink:href="#OpenSans-Bold-35"/>
       <use xlink:href="#OpenSans-Bold-30" x="57.177734"/>
      </g>
     </g>
    </g>
    <g id="xtick_4">
     <g id="line2d_7">
      <path d="M 241.999512 396.52 
L 241.999512 22.56 
" clip-path="url(#p9eedd77793)" style="fill: none; stroke-dasharray: 2.96,1.28; stroke-dashoffset: 0; stroke: #b0b0b0; stroke-width: 0.8"/>
     </g>
     <g id="line2d_8">
      <g>
       <use xlink:href="#m27c0d1da9e" x="241.999512" y="396.52" style="fill: #37539c; stroke: #37539c; stroke-width: 0.8"/>
      </g>
     </g>
     <g id="text_4">
      <!-- 75 -->
      <g style="fill: #37539c" transform="translate(237.425762 409.59875) scale(0.08 -0.08)">
       <defs>
        <path id="OpenSans-Bold-37" d="M 709 0 
L 2425 3756 
L 172 3756 
L 172 4569 
L 3450 4569 
L 3450 3963 
L 1722 0 
L 709 0 
z
" transform="scale(0.015625)"/>
       </defs>
       <use xlink:href="#OpenSans-Bold-37"/>
       <use xlink:href="#OpenSans-Bold-35" x="57.177734"/>
      </g>
     </g>
    </g>
    <g id="xtick_5">
     <g id="line2d_9">
      <path d="M 290.722683 396.52 
L 290.722683 22.56 
" clip-path="url(#p9eedd77793)" style="fill: none; stroke-dasharray: 2.96,1.28; stroke-dashoffset: 0; stroke: #b0b0b0; stroke-width: 0.8"/>
     </g>
     <g id="line2d_10">
      <g>
       <use xlink:href="#m27c0d1da9e" x="290.722683" y="396.52" style="fill: #37539c; stroke: #37539c; stroke-width: 0.8"/>
      </g>
     </g>
     <g id="text_5">
      <!-- 100 -->
      <g style="fill: #37539c" transform="translate(283.862058 409.59875) scale(0.08 -0.08)">
       <defs>
        <path id="OpenSans-Bold-31" d="M 2644 0 
L 1678 0 
L 1678 2644 
Q 1678 2753 1681 2914 
Q 1684 3075 1690 3245 
Q 1697 3416 1703 3553 
Q 1669 3513 1564 3414 
Q 1459 3316 1369 3238 
L 844 2816 
L 378 3397 
L 1850 4569 
L 2644 4569 
L 2644 0 
z
" transform="scale(0.015625)"/>
       </defs>
       <use xlink:href="#OpenSans-Bold-31"/>
       <use xlink:href="#OpenSans-Bold-30" x="57.177734"/>
       <use xlink:href="#OpenSans-Bold-30" x="114.355469"/>
      </g>
     </g>
    </g>
    <g id="xtick_6">
     <g id="line2d_11">
      <path d="M 339.445854 396.52 
L 339.445854 22.56 
" clip-path="url(#p9eedd77793)" style="fill: none; stroke-dasharray: 2.96,1.28; stroke-dashoffset: 0; stroke: #b0b0b0; stroke-width: 0.8"/>
     </g>
     <g id="line2d_12">
      <g>
       <use xlink:href="#m27c0d1da9e" x="339.445854" y="396.52" style="fill: #37539c; stroke: #37539c; stroke-width: 0.8"/>
      </g>
     </g>
     <g id="text_6">
      <!-- 125 -->
      <g style="fill: #37539c" transform="translate(332.585229 409.59875) scale(0.08 -0.08)">
       <use xlink:href="#OpenSans-Bold-31"/>
       <use xlink:href="#OpenSans-Bold-32" x="57.177734"/>
       <use xlink:href="#OpenSans-Bold-35" x="114.355469"/>
      </g>
     </g>
    </g>
    <g id="xtick_7">
     <g id="line2d_13">
      <path d="M 388.169024 396.52 
L 388.169024 22.56 
" clip-path="url(#p9eedd77793)" style="fill: none; stroke-dasharray: 2.96,1.28; stroke-dashoffset: 0; stroke: #b0b0b0; stroke-width: 0.8"/>
     </g>
     <g id="line2d_14">
      <g>
       <use xlink:href="#m27c0d1da9e" x="388.169024" y="396.52" style="fill: #37539c; stroke: #37539c; stroke-width: 0.8"/>
      </g>
     </g>
     <g id="text_7">
      <!-- 150 -->
      <g style="fill: #37539c" transform="translate(381.308399 409.59875) scale(0.08 -0.08)">
       <use xlink:href="#OpenSans-Bold-31"/>
       <use xlink:href="#OpenSans-Bold-35" x="57.177734"/>
       <use xlink:href="#OpenSans-Bold-30" x="114.355469"/>
      </g>
     </g>
    </g>
    <g id="xtick_8">
     <g id="line2d_15">
      <path d="M 436.892195 396.52 
L 436.892195 22.56 
" clip-path="url(#p9eedd77793)" style="fill: none; stroke-dasharray: 2.96,1.28; stroke-dashoffset: 0; stroke: #b0b0b0; stroke-width: 0.8"/>
     </g>
     <g id="line2d_16">
      <g>
       <use xlink:href="#m27c0d1da9e" x="436.892195" y="396.52" style="fill: #37539c; stroke: #37539c; stroke-width: 0.8"/>
      </g>
     </g>
     <g id="text_8">
      <!-- 175 -->
      <g style="fill: #37539c" transform="translate(430.03157 409.59875) scale(0.08 -0.08)">
       <use xlink:href="#OpenSans-Bold-31"/>
       <use xlink:href="#OpenSans-Bold-37" x="57.177734"/>
       <use xlink:href="#OpenSans-Bold-35" x="114.355469"/>
      </g>
     </g>
    </g>
    <g id="xtick_9">
     <g id="line2d_17">
      <path d="M 485.615366 396.52 
L 485.615366 22.56 
" clip-path="url(#p9eedd77793)" style="fill: none; stroke-dasharray: 2.96,1.28; stroke-dashoffset: 0; stroke: #b0b0b0; stroke-width: 0.8"/>
     </g>
     <g id="line2d_18">
      <g>
       <use xlink:href="#m27c0d1da9e" x="485.615366" y="396.52" style="fill: #37539c; stroke: #37539c; stroke-width: 0.8"/>
      </g>
     </g>
     <g id="text_9">
      <!-- 200 -->
      <g style="fill: #37539c" transform="translate(478.754741 409.59875) scale(0.08 -0.08)">
       <use xlink:href="#OpenSans-Bold-32"/>
       <use xlink:href="#OpenSans-Bold-30" x="57.177734"/>
       <use xlink:href="#OpenSans-Bold-30" x="114.355469"/>
      </g>
     </g>
    </g>
    <g id="text_10">
     <!-- Cantidad -->
     <g style="fill: #37539c" transform="translate(277.565625 421.6) scale(0.08 -0.08)">
      <defs>
       <path id="OpenSans-Bold-43" d="M 2516 3828 
Q 2238 3828 2023 3720 
Q 1809 3613 1664 3409 
Q 1519 3206 1444 2918 
Q 1369 2631 1369 2272 
Q 1369 1788 1489 1445 
Q 1609 1103 1862 923 
Q 2116 744 2516 744 
Q 2794 744 3073 806 
Q 3353 869 3681 984 
L 3681 172 
Q 3378 47 3084 -8 
Q 2791 -63 2425 -63 
Q 1719 -63 1264 229 
Q 809 522 590 1048 
Q 372 1575 372 2278 
Q 372 2797 512 3228 
Q 653 3659 925 3975 
Q 1197 4291 1597 4462 
Q 1997 4634 2516 4634 
Q 2856 4634 3198 4548 
Q 3541 4463 3853 4313 
L 3541 3525 
Q 3284 3647 3025 3737 
Q 2766 3828 2516 3828 
z
" transform="scale(0.015625)"/>
       <path id="OpenSans-Bold-61" d="M 1931 3566 
Q 2634 3566 3009 3259 
Q 3384 2953 3384 2328 
L 3384 0 
L 2719 0 
L 2534 475 
L 2509 475 
Q 2359 288 2203 169 
Q 2047 50 1844 -6 
Q 1641 -63 1350 -63 
Q 1041 -63 795 56 
Q 550 175 409 420 
Q 269 666 269 1044 
Q 269 1600 659 1864 
Q 1050 2128 1831 2156 
L 2438 2175 
L 2438 2328 
Q 2438 2603 2294 2731 
Q 2150 2859 1894 2859 
Q 1641 2859 1397 2787 
Q 1153 2716 909 2606 
L 594 3250 
Q 872 3397 1217 3481 
Q 1563 3566 1931 3566 
z
M 2438 1619 
L 2069 1606 
Q 1606 1594 1426 1441 
Q 1247 1288 1247 1038 
Q 1247 819 1375 726 
Q 1503 634 1709 634 
Q 2016 634 2227 815 
Q 2438 997 2438 1331 
L 2438 1619 
z
" transform="scale(0.015625)"/>
       <path id="OpenSans-Bold-6e" d="M 2484 3559 
Q 3044 3559 3384 3254 
Q 3725 2950 3725 2278 
L 3725 0 
L 2772 0 
L 2772 2041 
Q 2772 2416 2636 2606 
Q 2500 2797 2209 2797 
Q 1772 2797 1612 2500 
Q 1453 2203 1453 1644 
L 1453 0 
L 500 0 
L 500 3494 
L 1228 3494 
L 1356 3047 
L 1409 3047 
Q 1522 3228 1689 3340 
Q 1856 3453 2061 3506 
Q 2266 3559 2484 3559 
z
" transform="scale(0.015625)"/>
       <path id="OpenSans-Bold-74" d="M 1972 697 
Q 2128 697 2276 728 
Q 2425 759 2572 806 
L 2572 97 
Q 2419 28 2192 -17 
Q 1966 -63 1697 -63 
Q 1384 -63 1136 39 
Q 888 141 745 392 
Q 603 644 603 1094 
L 603 2778 
L 147 2778 
L 147 3181 
L 672 3500 
L 947 4238 
L 1556 4238 
L 1556 3494 
L 2534 3494 
L 2534 2778 
L 1556 2778 
L 1556 1094 
Q 1556 894 1670 795 
Q 1784 697 1972 697 
z
" transform="scale(0.015625)"/>
       <path id="OpenSans-Bold-69" d="M 1453 3494 
L 1453 0 
L 500 0 
L 500 3494 
L 1453 3494 
z
M 978 4863 
Q 1191 4863 1344 4764 
Q 1497 4666 1497 4397 
Q 1497 4131 1344 4029 
Q 1191 3928 978 3928 
Q 763 3928 611 4029 
Q 459 4131 459 4397 
Q 459 4666 611 4764 
Q 763 4863 978 4863 
z
" transform="scale(0.015625)"/>
       <path id="OpenSans-Bold-64" d="M 1606 -63 
Q 1022 -63 655 395 
Q 288 853 288 1741 
Q 288 2638 659 3098 
Q 1031 3559 1631 3559 
Q 1881 3559 2072 3490 
Q 2263 3422 2402 3306 
Q 2541 3191 2638 3047 
L 2669 3047 
Q 2650 3147 2623 3342 
Q 2597 3538 2597 3744 
L 2597 4863 
L 3553 4863 
L 3553 0 
L 2822 0 
L 2638 453 
L 2597 453 
Q 2506 309 2370 192 
Q 2234 75 2046 6 
Q 1859 -63 1606 -63 
z
M 1941 697 
Q 2331 697 2492 930 
Q 2653 1163 2663 1631 
L 2663 1734 
Q 2663 2244 2506 2514 
Q 2350 2784 1925 2784 
Q 1609 2784 1431 2512 
Q 1253 2241 1253 1728 
Q 1253 1216 1433 956 
Q 1613 697 1941 697 
z
" transform="scale(0.015625)"/>
      </defs>
      <use xlink:href="#OpenSans-Bold-43"/>
      <use xlink:href="#OpenSans-Bold-61" x="63.720703"/>
      <use xlink:href="#OpenSans-Bold-6e" x="124.121094"/>
      <use xlink:href="#OpenSans-Bold-74" x="189.84375"/>
      <use xlink:href="#OpenSans-Bold-69" x="233.251953"/>
      <use xlink:href="#OpenSans-Bold-64" x="263.769531"/>
      <use xlink:href="#OpenSans-Bold-61" x="327.050781"/>
      <use xlink:href="#OpenSans-Bold-64" x="387.451172"/>
     </g>
    </g>
   </g>
   <g id="matplotlib.axis_2">
    <g id="ytick_1">
     <g id="line2d_19">
      <defs>
       <path id="m9c196e221e" d="M 0 0 
L -3.5 0 
" style="stroke: #37539c; stroke-width: 0.8"/>
      </defs>
      <g>
       <use xlink:href="#m9c196e221e" x="95.83" y="379.521818" style="fill: #37539c; stroke: #37539c; stroke-width: 0.8"/>
      </g>
     </g>
     <g id="text_11">
      <!-- Región de Los Lagos -->
      <g style="fill: #37539c" transform="translate(29.236875 381.820099) scale(0.06 -0.06)">
       <defs>
        <path id="OpenSans-Bold-52" d="M 1906 4569 
Q 2528 4569 2933 4419 
Q 3338 4269 3534 3966 
Q 3731 3663 3731 3200 
Q 3731 2888 3612 2653 
Q 3494 2419 3300 2256 
Q 3106 2094 2881 1991 
L 4225 0 
L 3150 0 
L 2059 1753 
L 1544 1753 
L 1544 0 
L 575 0 
L 575 4569 
L 1906 4569 
z
M 1838 3775 
L 1544 3775 
L 1544 2541 
L 1856 2541 
Q 2338 2541 2545 2702 
Q 2753 2863 2753 3175 
Q 2753 3500 2529 3637 
Q 2306 3775 1838 3775 
z
" transform="scale(0.015625)"/>
        <path id="OpenSans-Bold-65" d="M 1941 3559 
Q 2425 3559 2775 3373 
Q 3125 3188 3315 2834 
Q 3506 2481 3506 1972 
L 3506 1509 
L 1253 1509 
Q 1269 1106 1495 876 
Q 1722 647 2125 647 
Q 2459 647 2737 715 
Q 3016 784 3309 922 
L 3309 184 
Q 3050 56 2767 -3 
Q 2484 -63 2081 -63 
Q 1556 -63 1151 131 
Q 747 325 517 722 
Q 288 1119 288 1722 
Q 288 2334 495 2742 
Q 703 3150 1075 3354 
Q 1447 3559 1941 3559 
z
M 1947 2881 
Q 1669 2881 1486 2703 
Q 1303 2525 1275 2144 
L 2613 2144 
Q 2609 2356 2536 2522 
Q 2463 2688 2317 2784 
Q 2172 2881 1947 2881 
z
" transform="scale(0.015625)"/>
        <path id="OpenSans-Bold-67" d="M 1522 -1538 
Q 791 -1538 405 -1283 
Q 19 -1028 19 -569 
Q 19 -253 216 -40 
Q 413 172 794 263 
Q 647 325 537 467 
Q 428 609 428 769 
Q 428 969 543 1101 
Q 659 1234 878 1363 
Q 603 1481 442 1743 
Q 281 2006 281 2363 
Q 281 2744 448 3011 
Q 616 3278 936 3418 
Q 1256 3559 1716 3559 
Q 1813 3559 1941 3546 
Q 2069 3534 2176 3518 
Q 2284 3503 2322 3494 
L 3541 3494 
L 3541 3009 
L 2994 2869 
Q 3069 2753 3106 2622 
Q 3144 2491 3144 2344 
Q 3144 1781 2751 1467 
Q 2359 1153 1663 1153 
Q 1497 1163 1350 1178 
Q 1278 1122 1240 1059 
Q 1203 997 1203 928 
Q 1203 859 1261 814 
Q 1319 769 1436 745 
Q 1553 722 1728 722 
L 2322 722 
Q 2897 722 3198 475 
Q 3500 228 3500 -250 
Q 3500 -863 2989 -1200 
Q 2478 -1538 1522 -1538 
z
M 1563 -916 
Q 1903 -916 2148 -852 
Q 2394 -788 2525 -670 
Q 2656 -553 2656 -391 
Q 2656 -259 2579 -182 
Q 2503 -106 2348 -75 
Q 2194 -44 1953 -44 
L 1459 -44 
Q 1284 -44 1145 -100 
Q 1006 -156 925 -257 
Q 844 -359 844 -494 
Q 844 -691 1033 -803 
Q 1222 -916 1563 -916 
z
M 1716 1734 
Q 1984 1734 2109 1900 
Q 2234 2066 2234 2350 
Q 2234 2666 2104 2823 
Q 1975 2981 1716 2981 
Q 1453 2981 1322 2823 
Q 1191 2666 1191 2350 
Q 1191 2066 1320 1900 
Q 1450 1734 1716 1734 
z
" transform="scale(0.015625)"/>
        <path id="OpenSans-Bold-f3" d="M 3675 1753 
Q 3675 1316 3558 978 
Q 3441 641 3217 408 
Q 2994 175 2680 56 
Q 2366 -63 1972 -63 
Q 1603 -63 1295 56 
Q 988 175 761 408 
Q 534 641 411 978 
Q 288 1316 288 1753 
Q 288 2334 494 2737 
Q 700 3141 1081 3350 
Q 1463 3559 1991 3559 
Q 2481 3559 2861 3350 
Q 3241 3141 3458 2737 
Q 3675 2334 3675 1753 
z
M 1259 1753 
Q 1259 1409 1334 1175 
Q 1409 941 1568 822 
Q 1728 703 1984 703 
Q 2238 703 2395 822 
Q 2553 941 2626 1175 
Q 2700 1409 2700 1753 
Q 2700 2100 2626 2329 
Q 2553 2559 2393 2675 
Q 2234 2791 1978 2791 
Q 1600 2791 1429 2531 
Q 1259 2272 1259 1753 
z
M 3211 4903 
L 3211 4838 
Q 3121 4750 2974 4622 
Q 2827 4494 2658 4355 
Q 2490 4216 2327 4089 
Q 2165 3963 2043 3878 
L 1408 3878 
L 1408 3963 
Q 1511 4081 1647 4245 
Q 1783 4409 1917 4584 
Q 2052 4759 2143 4903 
L 3211 4903 
z
" transform="scale(0.015625)"/>
        <path id="OpenSans-Bold-20" transform="scale(0.015625)"/>
        <path id="OpenSans-Bold-4c" d="M 575 0 
L 575 4569 
L 1544 4569 
L 1544 800 
L 3397 800 
L 3397 0 
L 575 0 
z
" transform="scale(0.015625)"/>
        <path id="OpenSans-Bold-6f" d="M 3675 1753 
Q 3675 1316 3558 978 
Q 3441 641 3217 408 
Q 2994 175 2680 56 
Q 2366 -63 1972 -63 
Q 1603 -63 1295 56 
Q 988 175 761 408 
Q 534 641 411 978 
Q 288 1316 288 1753 
Q 288 2334 494 2737 
Q 700 3141 1081 3350 
Q 1463 3559 1991 3559 
Q 2481 3559 2861 3350 
Q 3241 3141 3458 2737 
Q 3675 2334 3675 1753 
z
M 1259 1753 
Q 1259 1409 1334 1175 
Q 1409 941 1568 822 
Q 1728 703 1984 703 
Q 2238 703 2395 822 
Q 2553 941 2626 1175 
Q 2700 1409 2700 1753 
Q 2700 2100 2626 2329 
Q 2553 2559 2393 2675 
Q 2234 2791 1978 2791 
Q 1600 2791 1429 2531 
Q 1259 2272 1259 1753 
z
" transform="scale(0.015625)"/>
        <path id="OpenSans-Bold-73" d="M 2938 1038 
Q 2938 681 2770 436 
Q 2603 191 2272 64 
Q 1941 -63 1447 -63 
Q 1081 -63 820 -16 
Q 559 31 294 141 
L 294 928 
Q 578 800 904 717 
Q 1231 634 1478 634 
Q 1756 634 1876 717 
Q 1997 800 1997 934 
Q 1997 1022 1948 1092 
Q 1900 1163 1740 1252 
Q 1581 1341 1241 1484 
Q 913 1622 702 1762 
Q 491 1903 389 2095 
Q 288 2288 288 2584 
Q 288 3069 664 3314 
Q 1041 3559 1672 3559 
Q 1997 3559 2292 3493 
Q 2588 3428 2900 3284 
L 2613 2597 
Q 2353 2709 2123 2781 
Q 1894 2853 1656 2853 
Q 1447 2853 1340 2797 
Q 1234 2741 1234 2625 
Q 1234 2541 1289 2475 
Q 1344 2409 1501 2329 
Q 1659 2250 1966 2125 
Q 2263 2003 2481 1870 
Q 2700 1738 2819 1542 
Q 2938 1347 2938 1038 
z
" transform="scale(0.015625)"/>
       </defs>
       <use xlink:href="#OpenSans-Bold-52"/>
       <use xlink:href="#OpenSans-Bold-65" x="66.015625"/>
       <use xlink:href="#OpenSans-Bold-67" x="125.097656"/>
       <use xlink:href="#OpenSans-Bold-69" x="181.591797"/>
       <use xlink:href="#OpenSans-Bold-f3" x="212.109375"/>
       <use xlink:href="#OpenSans-Bold-6e" x="274.023438"/>
       <use xlink:href="#OpenSans-Bold-20" x="339.746094"/>
       <use xlink:href="#OpenSans-Bold-64" x="365.722656"/>
       <use xlink:href="#OpenSans-Bold-65" x="429.003906"/>
       <use xlink:href="#OpenSans-Bold-20" x="488.085938"/>
       <use xlink:href="#OpenSans-Bold-4c" x="514.0625"/>
       <use xlink:href="#OpenSans-Bold-6f" x="570.556641"/>
       <use xlink:href="#OpenSans-Bold-73" x="632.470703"/>
       <use xlink:href="#OpenSans-Bold-20" x="682.177734"/>
       <use xlink:href="#OpenSans-Bold-4c" x="708.154297"/>
       <use xlink:href="#OpenSans-Bold-61" x="764.648438"/>
       <use xlink:href="#OpenSans-Bold-67" x="825.048828"/>
       <use xlink:href="#OpenSans-Bold-6f" x="881.542969"/>
       <use xlink:href="#OpenSans-Bold-73" x="943.457031"/>
      </g>
     </g>
    </g>
    <g id="ytick_2">
     <g id="line2d_20">
      <g>
       <use xlink:href="#m9c196e221e" x="95.83" y="353.370769" style="fill: #37539c; stroke: #37539c; stroke-width: 0.8"/>
      </g>
     </g>
     <g id="text_12">
      <!-- Región de Los Ríos -->
      <g style="fill: #37539c" transform="translate(33.849375 355.66905) scale(0.06 -0.06)">
       <defs>
        <path id="OpenSans-Bold-ed" d="M 1453 0 
L 500 0 
L 500 3494 
L 1453 3494 
L 1453 0 
z
M 2203 4903 
L 2203 4838 
Q 2113 4750 1966 4622 
Q 1819 4494 1650 4355 
Q 1482 4216 1319 4089 
Q 1157 3963 1035 3878 
L 400 3878 
L 400 3963 
Q 503 4081 639 4245 
Q 775 4409 909 4584 
Q 1044 4759 1135 4903 
L 2203 4903 
z
" transform="scale(0.015625)"/>
       </defs>
       <use xlink:href="#OpenSans-Bold-52"/>
       <use xlink:href="#OpenSans-Bold-65" x="66.015625"/>
       <use xlink:href="#OpenSans-Bold-67" x="125.097656"/>
       <use xlink:href="#OpenSans-Bold-69" x="181.591797"/>
       <use xlink:href="#OpenSans-Bold-f3" x="212.109375"/>
       <use xlink:href="#OpenSans-Bold-6e" x="274.023438"/>
       <use xlink:href="#OpenSans-Bold-20" x="339.746094"/>
       <use xlink:href="#OpenSans-Bold-64" x="365.722656"/>
       <use xlink:href="#OpenSans-Bold-65" x="429.003906"/>
       <use xlink:href="#OpenSans-Bold-20" x="488.085938"/>
       <use xlink:href="#OpenSans-Bold-4c" x="514.0625"/>
       <use xlink:href="#OpenSans-Bold-6f" x="570.556641"/>
       <use xlink:href="#OpenSans-Bold-73" x="632.470703"/>
       <use xlink:href="#OpenSans-Bold-20" x="682.177734"/>
       <use xlink:href="#OpenSans-Bold-52" x="708.154297"/>
       <use xlink:href="#OpenSans-Bold-ed" x="774.169922"/>
       <use xlink:href="#OpenSans-Bold-6f" x="804.6875"/>
       <use xlink:href="#OpenSans-Bold-73" x="866.601562"/>
      </g>
     </g>
    </g>
    <g id="ytick_3">
     <g id="line2d_21">
      <g>
       <use xlink:href="#m9c196e221e" x="95.83" y="327.21972" style="fill: #37539c; stroke: #37539c; stroke-width: 0.8"/>
      </g>
     </g>
     <g id="text_13">
      <!-- Región de La Araucanía -->
      <g style="fill: #37539c" transform="translate(18.871875 329.518002) scale(0.06 -0.06)">
       <defs>
        <path id="OpenSans-Bold-41" d="M 3372 0 
L 3041 1088 
L 1375 1088 
L 1044 0 
L 0 0 
L 1613 4588 
L 2797 4588 
L 4416 0 
L 3372 0 
z
M 2809 1900 
L 2478 2963 
Q 2447 3069 2395 3236 
Q 2344 3403 2292 3576 
Q 2241 3750 2209 3878 
Q 2178 3750 2123 3561 
Q 2069 3372 2019 3203 
Q 1969 3034 1947 2963 
L 1619 1900 
L 2809 1900 
z
" transform="scale(0.015625)"/>
        <path id="OpenSans-Bold-72" d="M 2450 3559 
Q 2522 3559 2617 3551 
Q 2713 3544 2772 3531 
L 2700 2638 
Q 2653 2653 2567 2661 
Q 2481 2669 2419 2669 
Q 2234 2669 2061 2622 
Q 1888 2575 1750 2470 
Q 1613 2366 1533 2195 
Q 1453 2025 1453 1778 
L 1453 0 
L 500 0 
L 500 3494 
L 1222 3494 
L 1363 2906 
L 1409 2906 
Q 1513 3084 1667 3232 
Q 1822 3381 2020 3470 
Q 2219 3559 2450 3559 
z
" transform="scale(0.015625)"/>
        <path id="OpenSans-Bold-75" d="M 3706 3494 
L 3706 0 
L 2975 0 
L 2847 447 
L 2797 447 
Q 2684 269 2515 156 
Q 2347 44 2144 -9 
Q 1941 -63 1722 -63 
Q 1347 -63 1069 70 
Q 791 203 636 484 
Q 481 766 481 1216 
L 481 3494 
L 1434 3494 
L 1434 1453 
Q 1434 1078 1568 887 
Q 1703 697 1997 697 
Q 2288 697 2453 830 
Q 2619 963 2686 1220 
Q 2753 1478 2753 1850 
L 2753 3494 
L 3706 3494 
z
" transform="scale(0.015625)"/>
        <path id="OpenSans-Bold-63" d="M 1919 -63 
Q 1400 -63 1034 126 
Q 669 316 478 712 
Q 288 1109 288 1728 
Q 288 2369 505 2773 
Q 722 3178 1108 3368 
Q 1494 3559 2003 3559 
Q 2366 3559 2630 3489 
Q 2894 3419 3091 3322 
L 2809 2584 
Q 2584 2675 2390 2733 
Q 2197 2791 2003 2791 
Q 1753 2791 1587 2673 
Q 1422 2556 1340 2322 
Q 1259 2088 1259 1734 
Q 1259 1388 1346 1159 
Q 1434 931 1600 820 
Q 1766 709 2003 709 
Q 2300 709 2531 789 
Q 2763 869 2981 1013 
L 2981 197 
Q 2763 59 2523 -2 
Q 2284 -63 1919 -63 
z
" transform="scale(0.015625)"/>
       </defs>
       <use xlink:href="#OpenSans-Bold-52"/>
       <use xlink:href="#OpenSans-Bold-65" x="66.015625"/>
       <use xlink:href="#OpenSans-Bold-67" x="125.097656"/>
       <use xlink:href="#OpenSans-Bold-69" x="181.591797"/>
       <use xlink:href="#OpenSans-Bold-f3" x="212.109375"/>
       <use xlink:href="#OpenSans-Bold-6e" x="274.023438"/>
       <use xlink:href="#OpenSans-Bold-20" x="339.746094"/>
       <use xlink:href="#OpenSans-Bold-64" x="365.722656"/>
       <use xlink:href="#OpenSans-Bold-65" x="429.003906"/>
       <use xlink:href="#OpenSans-Bold-20" x="488.085938"/>
       <use xlink:href="#OpenSans-Bold-4c" x="514.0625"/>
       <use xlink:href="#OpenSans-Bold-61" x="570.556641"/>
       <use xlink:href="#OpenSans-Bold-20" x="630.957031"/>
       <use xlink:href="#OpenSans-Bold-41" x="656.933594"/>
       <use xlink:href="#OpenSans-Bold-72" x="725.927734"/>
       <use xlink:href="#OpenSans-Bold-61" x="771.337891"/>
       <use xlink:href="#OpenSans-Bold-75" x="831.738281"/>
       <use xlink:href="#OpenSans-Bold-63" x="897.460938"/>
       <use xlink:href="#OpenSans-Bold-61" x="948.876953"/>
       <use xlink:href="#OpenSans-Bold-6e" x="1009.277344"/>
       <use xlink:href="#OpenSans-Bold-ed" x="1075"/>
       <use xlink:href="#OpenSans-Bold-61" x="1105.517578"/>
      </g>
     </g>
    </g>
    <g id="ytick_4">
     <g id="line2d_22">
      <g>
       <use xlink:href="#m9c196e221e" x="95.83" y="301.068671" style="fill: #37539c; stroke: #37539c; stroke-width: 0.8"/>
      </g>
     </g>
     <g id="text_14">
      <!-- Región del Biobío -->
      <g style="fill: #37539c" transform="translate(37.23375 303.366953) scale(0.06 -0.06)">
       <defs>
        <path id="OpenSans-Bold-6c" d="M 1453 0 
L 500 0 
L 500 4863 
L 1453 4863 
L 1453 0 
z
" transform="scale(0.015625)"/>
        <path id="OpenSans-Bold-42" d="M 575 4569 
L 1997 4569 
Q 2909 4569 3378 4312 
Q 3847 4056 3847 3413 
Q 3847 3153 3764 2943 
Q 3681 2734 3525 2600 
Q 3369 2466 3144 2425 
L 3144 2394 
Q 3372 2347 3556 2233 
Q 3741 2119 3852 1901 
Q 3963 1684 3963 1325 
Q 3963 909 3759 612 
Q 3556 316 3179 158 
Q 2803 0 2284 0 
L 575 0 
L 575 4569 
z
M 1544 2759 
L 2106 2759 
Q 2528 2759 2690 2892 
Q 2853 3025 2853 3284 
Q 2853 3547 2661 3661 
Q 2469 3775 2053 3775 
L 1544 3775 
L 1544 2759 
z
M 1544 1991 
L 1544 800 
L 2175 800 
Q 2613 800 2784 969 
Q 2956 1138 2956 1422 
Q 2956 1591 2881 1719 
Q 2806 1847 2629 1919 
Q 2453 1991 2144 1991 
L 1544 1991 
z
" transform="scale(0.015625)"/>
        <path id="OpenSans-Bold-62" d="M 1453 4863 
L 1453 3731 
Q 1453 3534 1442 3340 
Q 1431 3147 1416 3041 
L 1453 3041 
Q 1591 3256 1828 3407 
Q 2066 3559 2444 3559 
Q 3031 3559 3397 3100 
Q 3763 2641 3763 1753 
Q 3763 1156 3594 751 
Q 3425 347 3122 142 
Q 2819 -63 2419 -63 
Q 2034 -63 1812 75 
Q 1591 213 1453 384 
L 1388 384 
L 1228 0 
L 500 0 
L 500 4863 
L 1453 4863 
z
M 2138 2797 
Q 1888 2797 1741 2694 
Q 1594 2591 1526 2384 
Q 1459 2178 1453 1863 
L 1453 1759 
Q 1453 1250 1603 979 
Q 1753 709 2150 709 
Q 2444 709 2617 981 
Q 2791 1253 2791 1766 
Q 2791 2278 2616 2537 
Q 2441 2797 2138 2797 
z
" transform="scale(0.015625)"/>
       </defs>
       <use xlink:href="#OpenSans-Bold-52"/>
       <use xlink:href="#OpenSans-Bold-65" x="66.015625"/>
       <use xlink:href="#OpenSans-Bold-67" x="125.097656"/>
       <use xlink:href="#OpenSans-Bold-69" x="181.591797"/>
       <use xlink:href="#OpenSans-Bold-f3" x="212.109375"/>
       <use xlink:href="#OpenSans-Bold-6e" x="274.023438"/>
       <use xlink:href="#OpenSans-Bold-20" x="339.746094"/>
       <use xlink:href="#OpenSans-Bold-64" x="365.722656"/>
       <use xlink:href="#OpenSans-Bold-65" x="429.003906"/>
       <use xlink:href="#OpenSans-Bold-6c" x="488.085938"/>
       <use xlink:href="#OpenSans-Bold-20" x="518.603516"/>
       <use xlink:href="#OpenSans-Bold-42" x="544.580078"/>
       <use xlink:href="#OpenSans-Bold-69" x="611.767578"/>
       <use xlink:href="#OpenSans-Bold-6f" x="642.285156"/>
       <use xlink:href="#OpenSans-Bold-62" x="704.199219"/>
       <use xlink:href="#OpenSans-Bold-ed" x="767.480469"/>
       <use xlink:href="#OpenSans-Bold-6f" x="797.998047"/>
      </g>
     </g>
    </g>
    <g id="ytick_5">
     <g id="line2d_23">
      <g>
       <use xlink:href="#m9c196e221e" x="95.83" y="274.917622" style="fill: #37539c; stroke: #37539c; stroke-width: 0.8"/>
      </g>
     </g>
     <g id="text_15">
      <!-- Región de Ñuble -->
      <g style="fill: #37539c" transform="translate(39.991875 277.698247) scale(0.06 -0.06)">
       <defs>
        <path id="OpenSans-Bold-d1" d="M 4628 0 
L 3397 0 
L 1409 3456 
L 1381 3456 
Q 1394 3241 1403 3022 
Q 1413 2803 1422 2586 
Q 1431 2369 1441 2150 
L 1441 0 
L 575 0 
L 575 4569 
L 1797 4569 
L 3781 1147 
L 3803 1147 
Q 3797 1359 3787 1568 
Q 3778 1778 3770 1987 
Q 3763 2197 3756 2406 
L 3756 4569 
L 4628 4569 
L 4628 0 
z
M 1304 4960 
Q 1323 5210 1395 5393 
Q 1467 5576 1582 5693 
Q 1698 5810 1843 5868 
Q 1989 5926 2154 5926 
Q 2282 5926 2405 5877 
Q 2529 5829 2649 5763 
Q 2770 5697 2887 5649 
Q 3004 5601 3117 5601 
Q 3211 5601 3300 5683 
Q 3389 5766 3429 5932 
L 3895 5932 
Q 3857 5438 3613 5202 
Q 3370 4966 3045 4966 
Q 2917 4966 2793 5016 
Q 2670 5066 2549 5130 
Q 2429 5194 2313 5244 
Q 2198 5294 2086 5294 
Q 1989 5294 1900 5211 
Q 1811 5129 1770 4960 
L 1304 4960 
z
" transform="scale(0.015625)"/>
       </defs>
       <use xlink:href="#OpenSans-Bold-52"/>
       <use xlink:href="#OpenSans-Bold-65" x="66.015625"/>
       <use xlink:href="#OpenSans-Bold-67" x="125.097656"/>
       <use xlink:href="#OpenSans-Bold-69" x="181.591797"/>
       <use xlink:href="#OpenSans-Bold-f3" x="212.109375"/>
       <use xlink:href="#OpenSans-Bold-6e" x="274.023438"/>
       <use xlink:href="#OpenSans-Bold-20" x="339.746094"/>
       <use xlink:href="#OpenSans-Bold-64" x="365.722656"/>
       <use xlink:href="#OpenSans-Bold-65" x="429.003906"/>
       <use xlink:href="#OpenSans-Bold-20" x="488.085938"/>
       <use xlink:href="#OpenSans-Bold-d1" x="514.0625"/>
       <use xlink:href="#OpenSans-Bold-75" x="595.361328"/>
       <use xlink:href="#OpenSans-Bold-62" x="661.083984"/>
       <use xlink:href="#OpenSans-Bold-6c" x="724.365234"/>
       <use xlink:href="#OpenSans-Bold-65" x="754.882812"/>
      </g>
     </g>
    </g>
    <g id="ytick_6">
     <g id="line2d_24">
      <g>
       <use xlink:href="#m9c196e221e" x="95.83" y="248.766573" style="fill: #37539c; stroke: #37539c; stroke-width: 0.8"/>
      </g>
     </g>
     <g id="text_16">
      <!-- Región del Maule -->
      <g style="fill: #37539c" transform="translate(37.554375 251.064855) scale(0.06 -0.06)">
       <defs>
        <path id="OpenSans-Bold-4d" d="M 2509 0 
L 1409 3584 
L 1381 3584 
Q 1388 3456 1402 3198 
Q 1416 2941 1428 2650 
Q 1441 2359 1441 2125 
L 1441 0 
L 575 0 
L 575 4569 
L 1894 4569 
L 2975 1075 
L 2994 1075 
L 4141 4569 
L 5459 4569 
L 5459 0 
L 4556 0 
L 4556 2163 
Q 4556 2378 4564 2659 
Q 4572 2941 4584 3195 
Q 4597 3450 4603 3578 
L 4575 3578 
L 3397 0 
L 2509 0 
z
" transform="scale(0.015625)"/>
       </defs>
       <use xlink:href="#OpenSans-Bold-52"/>
       <use xlink:href="#OpenSans-Bold-65" x="66.015625"/>
       <use xlink:href="#OpenSans-Bold-67" x="125.097656"/>
       <use xlink:href="#OpenSans-Bold-69" x="181.591797"/>
       <use xlink:href="#OpenSans-Bold-f3" x="212.109375"/>
       <use xlink:href="#OpenSans-Bold-6e" x="274.023438"/>
       <use xlink:href="#OpenSans-Bold-20" x="339.746094"/>
       <use xlink:href="#OpenSans-Bold-64" x="365.722656"/>
       <use xlink:href="#OpenSans-Bold-65" x="429.003906"/>
       <use xlink:href="#OpenSans-Bold-6c" x="488.085938"/>
       <use xlink:href="#OpenSans-Bold-20" x="518.603516"/>
       <use xlink:href="#OpenSans-Bold-4d" x="544.580078"/>
       <use xlink:href="#OpenSans-Bold-61" x="638.867188"/>
       <use xlink:href="#OpenSans-Bold-75" x="699.267578"/>
       <use xlink:href="#OpenSans-Bold-6c" x="764.990234"/>
       <use xlink:href="#OpenSans-Bold-65" x="795.507812"/>
      </g>
     </g>
    </g>
    <g id="ytick_7">
     <g id="line2d_25">
      <g>
       <use xlink:href="#m9c196e221e" x="95.83" y="222.615524" style="fill: #37539c; stroke: #37539c; stroke-width: 0.8"/>
      </g>
     </g>
     <g id="text_17">
      <!-- Región del Libertador Gral. -->
      <g style="fill: #37539c" transform="translate(8.608125 221.913337) scale(0.06 -0.06)">
       <defs>
        <path id="OpenSans-Bold-47" d="M 2309 2566 
L 4122 2566 
L 4122 197 
Q 3763 78 3375 7 
Q 2988 -63 2497 -63 
Q 1816 -63 1341 206 
Q 866 475 619 1000 
Q 372 1525 372 2291 
Q 372 3009 648 3534 
Q 925 4059 1458 4346 
Q 1991 4634 2759 4634 
Q 3122 4634 3475 4556 
Q 3828 4478 4116 4353 
L 3794 3578 
Q 3584 3684 3315 3756 
Q 3047 3828 2753 3828 
Q 2331 3828 2020 3634 
Q 1709 3441 1539 3092 
Q 1369 2744 1369 2272 
Q 1369 1825 1491 1479 
Q 1613 1134 1875 939 
Q 2138 744 2559 744 
Q 2766 744 2908 764 
Q 3050 784 3175 806 
L 3175 1759 
L 2309 1759 
L 2309 2566 
z
" transform="scale(0.015625)"/>
        <path id="OpenSans-Bold-2e" d="M 366 447 
Q 366 741 527 859 
Q 688 978 916 978 
Q 1138 978 1298 859 
Q 1459 741 1459 447 
Q 1459 166 1298 41 
Q 1138 -84 916 -84 
Q 688 -84 527 41 
Q 366 166 366 447 
z
" transform="scale(0.015625)"/>
       </defs>
       <use xlink:href="#OpenSans-Bold-52"/>
       <use xlink:href="#OpenSans-Bold-65" x="66.015625"/>
       <use xlink:href="#OpenSans-Bold-67" x="125.097656"/>
       <use xlink:href="#OpenSans-Bold-69" x="181.591797"/>
       <use xlink:href="#OpenSans-Bold-f3" x="212.109375"/>
       <use xlink:href="#OpenSans-Bold-6e" x="274.023438"/>
       <use xlink:href="#OpenSans-Bold-20" x="339.746094"/>
       <use xlink:href="#OpenSans-Bold-64" x="365.722656"/>
       <use xlink:href="#OpenSans-Bold-65" x="429.003906"/>
       <use xlink:href="#OpenSans-Bold-6c" x="488.085938"/>
       <use xlink:href="#OpenSans-Bold-20" x="518.603516"/>
       <use xlink:href="#OpenSans-Bold-4c" x="544.580078"/>
       <use xlink:href="#OpenSans-Bold-69" x="601.074219"/>
       <use xlink:href="#OpenSans-Bold-62" x="631.591797"/>
       <use xlink:href="#OpenSans-Bold-65" x="694.873047"/>
       <use xlink:href="#OpenSans-Bold-72" x="753.955078"/>
       <use xlink:href="#OpenSans-Bold-74" x="799.365234"/>
       <use xlink:href="#OpenSans-Bold-61" x="842.773438"/>
       <use xlink:href="#OpenSans-Bold-64" x="903.173828"/>
       <use xlink:href="#OpenSans-Bold-6f" x="966.455078"/>
       <use xlink:href="#OpenSans-Bold-72" x="1028.369141"/>
       <use xlink:href="#OpenSans-Bold-20" x="1073.779297"/>
       <use xlink:href="#OpenSans-Bold-47" x="1099.755859"/>
       <use xlink:href="#OpenSans-Bold-72" x="1172.167969"/>
       <use xlink:href="#OpenSans-Bold-61" x="1217.578125"/>
       <use xlink:href="#OpenSans-Bold-6c" x="1277.978516"/>
       <use xlink:href="#OpenSans-Bold-2e" x="1308.496094"/>
      </g>
      <!-- Bernardo O’Higgins -->
      <g style="fill: #37539c" transform="translate(31.131563 228.826087) scale(0.06 -0.06)">
       <defs>
        <path id="OpenSans-Bold-4f" d="M 4722 2291 
Q 4722 1763 4590 1330 
Q 4459 897 4192 584 
Q 3925 272 3515 104 
Q 3106 -63 2547 -63 
Q 1988 -63 1578 104 
Q 1169 272 901 584 
Q 634 897 503 1331 
Q 372 1766 372 2297 
Q 372 3006 605 3532 
Q 838 4059 1322 4350 
Q 1806 4641 2553 4641 
Q 3297 4641 3776 4350 
Q 4256 4059 4489 3531 
Q 4722 3003 4722 2291 
z
M 1388 2291 
Q 1388 1813 1508 1467 
Q 1628 1122 1884 936 
Q 2141 750 2547 750 
Q 2959 750 3215 936 
Q 3472 1122 3589 1467 
Q 3706 1813 3706 2291 
Q 3706 3009 3437 3421 
Q 3169 3834 2553 3834 
Q 2144 3834 1886 3648 
Q 1628 3463 1508 3117 
Q 1388 2772 1388 2291 
z
" transform="scale(0.015625)"/>
        <path id="OpenSans-Bold-2019" d="M 1269 4569 
L 1313 4500 
Q 1256 4272 1167 4014 
Q 1078 3756 973 3497 
Q 869 3238 763 3003 
L 78 3003 
Q 122 3191 167 3397 
Q 213 3603 255 3809 
Q 297 4016 331 4209 
Q 366 4403 391 4569 
L 1269 4569 
z
" transform="scale(0.015625)"/>
        <path id="OpenSans-Bold-48" d="M 4319 0 
L 3353 0 
L 3353 1972 
L 1544 1972 
L 1544 0 
L 575 0 
L 575 4569 
L 1544 4569 
L 1544 2778 
L 3353 2778 
L 3353 4569 
L 4319 4569 
L 4319 0 
z
" transform="scale(0.015625)"/>
       </defs>
       <use xlink:href="#OpenSans-Bold-42"/>
       <use xlink:href="#OpenSans-Bold-65" x="67.1875"/>
       <use xlink:href="#OpenSans-Bold-72" x="126.269531"/>
       <use xlink:href="#OpenSans-Bold-6e" x="171.679688"/>
       <use xlink:href="#OpenSans-Bold-61" x="237.402344"/>
       <use xlink:href="#OpenSans-Bold-72" x="297.802734"/>
       <use xlink:href="#OpenSans-Bold-64" x="343.212891"/>
       <use xlink:href="#OpenSans-Bold-6f" x="406.494141"/>
       <use xlink:href="#OpenSans-Bold-20" x="468.408203"/>
       <use xlink:href="#OpenSans-Bold-4f" x="494.384766"/>
       <use xlink:href="#OpenSans-Bold-2019" x="573.974609"/>
       <use xlink:href="#OpenSans-Bold-48" x="595.654297"/>
       <use xlink:href="#OpenSans-Bold-69" x="672.167969"/>
       <use xlink:href="#OpenSans-Bold-67" x="702.685547"/>
       <use xlink:href="#OpenSans-Bold-67" x="759.179688"/>
       <use xlink:href="#OpenSans-Bold-69" x="815.673828"/>
       <use xlink:href="#OpenSans-Bold-6e" x="846.191406"/>
       <use xlink:href="#OpenSans-Bold-73" x="911.914062"/>
      </g>
     </g>
    </g>
    <g id="ytick_8">
     <g id="line2d_26">
      <g>
       <use xlink:href="#m9c196e221e" x="95.83" y="196.464476" style="fill: #37539c; stroke: #37539c; stroke-width: 0.8"/>
      </g>
     </g>
     <g id="text_18">
      <!-- Región Metropolitana -->
      <g style="fill: #37539c" transform="translate(23.67 195.762288) scale(0.06 -0.06)">
       <defs>
        <path id="OpenSans-Bold-70" d="M 2444 3559 
Q 3034 3559 3398 3100 
Q 3763 2641 3763 1753 
Q 3763 1159 3591 754 
Q 3419 350 3116 143 
Q 2813 -63 2419 -63 
Q 2166 -63 1984 1 
Q 1803 66 1675 167 
Q 1547 269 1453 384 
L 1403 384 
Q 1428 259 1440 128 
Q 1453 -3 1453 -128 
L 1453 -1538 
L 500 -1538 
L 500 3494 
L 1275 3494 
L 1409 3041 
L 1453 3041 
Q 1547 3181 1681 3300 
Q 1816 3419 2005 3489 
Q 2194 3559 2444 3559 
z
M 2138 2797 
Q 1888 2797 1741 2694 
Q 1594 2591 1526 2384 
Q 1459 2178 1453 1863 
L 1453 1759 
Q 1453 1422 1517 1187 
Q 1581 953 1732 831 
Q 1884 709 2150 709 
Q 2369 709 2509 831 
Q 2650 953 2720 1189 
Q 2791 1425 2791 1766 
Q 2791 2278 2631 2537 
Q 2472 2797 2138 2797 
z
" transform="scale(0.015625)"/>
       </defs>
       <use xlink:href="#OpenSans-Bold-52"/>
       <use xlink:href="#OpenSans-Bold-65" x="66.015625"/>
       <use xlink:href="#OpenSans-Bold-67" x="125.097656"/>
       <use xlink:href="#OpenSans-Bold-69" x="181.591797"/>
       <use xlink:href="#OpenSans-Bold-f3" x="212.109375"/>
       <use xlink:href="#OpenSans-Bold-6e" x="274.023438"/>
       <use xlink:href="#OpenSans-Bold-20" x="339.746094"/>
       <use xlink:href="#OpenSans-Bold-4d" x="365.722656"/>
       <use xlink:href="#OpenSans-Bold-65" x="460.009766"/>
       <use xlink:href="#OpenSans-Bold-74" x="519.091797"/>
       <use xlink:href="#OpenSans-Bold-72" x="562.5"/>
       <use xlink:href="#OpenSans-Bold-6f" x="607.910156"/>
       <use xlink:href="#OpenSans-Bold-70" x="669.824219"/>
       <use xlink:href="#OpenSans-Bold-6f" x="733.105469"/>
       <use xlink:href="#OpenSans-Bold-6c" x="795.019531"/>
       <use xlink:href="#OpenSans-Bold-69" x="825.537109"/>
       <use xlink:href="#OpenSans-Bold-74" x="856.054688"/>
       <use xlink:href="#OpenSans-Bold-61" x="899.462891"/>
       <use xlink:href="#OpenSans-Bold-6e" x="959.863281"/>
       <use xlink:href="#OpenSans-Bold-61" x="1025.585938"/>
      </g>
      <!-- de Santiago -->
      <g style="fill: #37539c" transform="translate(53.892188 202.675038) scale(0.06 -0.06)">
       <defs>
        <path id="OpenSans-Bold-53" d="M 3272 1269 
Q 3272 863 3075 563 
Q 2878 263 2501 100 
Q 2125 -63 1588 -63 
Q 1350 -63 1123 -31 
Q 897 0 689 61 
Q 481 122 294 213 
L 294 1113 
Q 619 969 969 853 
Q 1319 738 1663 738 
Q 1900 738 2045 800 
Q 2191 863 2256 972 
Q 2322 1081 2322 1222 
Q 2322 1394 2206 1516 
Q 2091 1638 1889 1744 
Q 1688 1850 1434 1972 
Q 1275 2047 1087 2155 
Q 900 2263 731 2419 
Q 563 2575 455 2798 
Q 347 3022 347 3334 
Q 347 3744 534 4034 
Q 722 4325 1070 4479 
Q 1419 4634 1894 4634 
Q 2250 4634 2573 4551 
Q 2897 4469 3250 4313 
L 2938 3559 
Q 2622 3688 2372 3758 
Q 2122 3828 1863 3828 
Q 1681 3828 1553 3770 
Q 1425 3713 1359 3608 
Q 1294 3503 1294 3366 
Q 1294 3203 1389 3092 
Q 1484 2981 1676 2878 
Q 1869 2775 2156 2638 
Q 2506 2472 2754 2292 
Q 3003 2113 3137 1870 
Q 3272 1628 3272 1269 
z
" transform="scale(0.015625)"/>
       </defs>
       <use xlink:href="#OpenSans-Bold-64"/>
       <use xlink:href="#OpenSans-Bold-65" x="63.28125"/>
       <use xlink:href="#OpenSans-Bold-20" x="122.363281"/>
       <use xlink:href="#OpenSans-Bold-53" x="148.339844"/>
       <use xlink:href="#OpenSans-Bold-61" x="203.417969"/>
       <use xlink:href="#OpenSans-Bold-6e" x="263.818359"/>
       <use xlink:href="#OpenSans-Bold-74" x="329.541016"/>
       <use xlink:href="#OpenSans-Bold-69" x="372.949219"/>
       <use xlink:href="#OpenSans-Bold-61" x="403.466797"/>
       <use xlink:href="#OpenSans-Bold-67" x="463.867188"/>
       <use xlink:href="#OpenSans-Bold-6f" x="520.361328"/>
      </g>
     </g>
    </g>
    <g id="ytick_9">
     <g id="line2d_27">
      <g>
       <use xlink:href="#m9c196e221e" x="95.83" y="170.313427" style="fill: #37539c; stroke: #37539c; stroke-width: 0.8"/>
      </g>
     </g>
     <g id="text_19">
      <!-- Región de Valparaíso -->
      <g style="fill: #37539c" transform="translate(26.3325 172.611708) scale(0.06 -0.06)">
       <defs>
        <path id="OpenSans-Bold-56" d="M 4159 4569 
L 2606 0 
L 1550 0 
L 0 4569 
L 978 4569 
L 1838 1850 
Q 1859 1781 1909 1592 
Q 1959 1403 2011 1192 
Q 2063 981 2081 844 
Q 2100 981 2148 1190 
Q 2197 1400 2245 1589 
Q 2294 1778 2316 1850 
L 3181 4569 
L 4159 4569 
z
" transform="scale(0.015625)"/>
       </defs>
       <use xlink:href="#OpenSans-Bold-52"/>
       <use xlink:href="#OpenSans-Bold-65" x="66.015625"/>
       <use xlink:href="#OpenSans-Bold-67" x="125.097656"/>
       <use xlink:href="#OpenSans-Bold-69" x="181.591797"/>
       <use xlink:href="#OpenSans-Bold-f3" x="212.109375"/>
       <use xlink:href="#OpenSans-Bold-6e" x="274.023438"/>
       <use xlink:href="#OpenSans-Bold-20" x="339.746094"/>
       <use xlink:href="#OpenSans-Bold-64" x="365.722656"/>
       <use xlink:href="#OpenSans-Bold-65" x="429.003906"/>
       <use xlink:href="#OpenSans-Bold-20" x="488.085938"/>
       <use xlink:href="#OpenSans-Bold-56" x="514.0625"/>
       <use xlink:href="#OpenSans-Bold-61" x="579.052734"/>
       <use xlink:href="#OpenSans-Bold-6c" x="639.453125"/>
       <use xlink:href="#OpenSans-Bold-70" x="669.970703"/>
       <use xlink:href="#OpenSans-Bold-61" x="733.251953"/>
       <use xlink:href="#OpenSans-Bold-72" x="793.652344"/>
       <use xlink:href="#OpenSans-Bold-61" x="839.0625"/>
       <use xlink:href="#OpenSans-Bold-ed" x="899.462891"/>
       <use xlink:href="#OpenSans-Bold-73" x="929.980469"/>
       <use xlink:href="#OpenSans-Bold-6f" x="979.6875"/>
      </g>
     </g>
    </g>
    <g id="ytick_10">
     <g id="line2d_28">
      <g>
       <use xlink:href="#m9c196e221e" x="95.83" y="144.162378" style="fill: #37539c; stroke: #37539c; stroke-width: 0.8"/>
      </g>
     </g>
     <g id="text_20">
      <!-- Región de Coquimbo -->
      <g style="fill: #37539c" transform="translate(27.4725 146.460659) scale(0.06 -0.06)">
       <defs>
        <path id="OpenSans-Bold-71" d="M 2597 -1538 
L 2597 -72 
Q 2597 59 2608 192 
Q 2619 325 2638 453 
L 2597 453 
Q 2463 238 2227 87 
Q 1991 -63 1606 -63 
Q 1016 -63 652 395 
Q 288 853 288 1741 
Q 288 2338 456 2742 
Q 625 3147 926 3353 
Q 1228 3559 1625 3559 
Q 2009 3559 2248 3411 
Q 2488 3263 2638 3047 
L 2663 3047 
L 2747 3494 
L 3553 3494 
L 3553 -1538 
L 2597 -1538 
z
M 1947 684 
Q 2209 684 2364 787 
Q 2519 891 2587 1098 
Q 2656 1306 2663 1619 
L 2663 1734 
Q 2663 2244 2506 2514 
Q 2350 2784 1931 2784 
Q 1591 2784 1425 2512 
Q 1259 2241 1259 1728 
Q 1259 1206 1428 945 
Q 1597 684 1947 684 
z
" transform="scale(0.015625)"/>
        <path id="OpenSans-Bold-6d" d="M 4603 3559 
Q 5197 3559 5501 3254 
Q 5806 2950 5806 2278 
L 5806 0 
L 4850 0 
L 4850 2041 
Q 4850 2416 4722 2606 
Q 4594 2797 4325 2797 
Q 3947 2797 3787 2526 
Q 3628 2256 3628 1753 
L 3628 0 
L 2675 0 
L 2675 2041 
Q 2675 2291 2619 2459 
Q 2563 2628 2447 2712 
Q 2331 2797 2150 2797 
Q 1884 2797 1732 2664 
Q 1581 2531 1517 2273 
Q 1453 2016 1453 1644 
L 1453 0 
L 500 0 
L 500 3494 
L 1228 3494 
L 1356 3047 
L 1409 3047 
Q 1516 3228 1677 3340 
Q 1838 3453 2031 3506 
Q 2225 3559 2425 3559 
Q 2809 3559 3076 3434 
Q 3344 3309 3488 3047 
L 3572 3047 
Q 3728 3316 4014 3437 
Q 4300 3559 4603 3559 
z
" transform="scale(0.015625)"/>
       </defs>
       <use xlink:href="#OpenSans-Bold-52"/>
       <use xlink:href="#OpenSans-Bold-65" x="66.015625"/>
       <use xlink:href="#OpenSans-Bold-67" x="125.097656"/>
       <use xlink:href="#OpenSans-Bold-69" x="181.591797"/>
       <use xlink:href="#OpenSans-Bold-f3" x="212.109375"/>
       <use xlink:href="#OpenSans-Bold-6e" x="274.023438"/>
       <use xlink:href="#OpenSans-Bold-20" x="339.746094"/>
       <use xlink:href="#OpenSans-Bold-64" x="365.722656"/>
       <use xlink:href="#OpenSans-Bold-65" x="429.003906"/>
       <use xlink:href="#OpenSans-Bold-20" x="488.085938"/>
       <use xlink:href="#OpenSans-Bold-43" x="514.0625"/>
       <use xlink:href="#OpenSans-Bold-6f" x="577.783203"/>
       <use xlink:href="#OpenSans-Bold-71" x="639.697266"/>
       <use xlink:href="#OpenSans-Bold-75" x="702.978516"/>
       <use xlink:href="#OpenSans-Bold-69" x="768.701172"/>
       <use xlink:href="#OpenSans-Bold-6d" x="799.21875"/>
       <use xlink:href="#OpenSans-Bold-62" x="897.412109"/>
       <use xlink:href="#OpenSans-Bold-6f" x="960.693359"/>
      </g>
     </g>
    </g>
    <g id="ytick_11">
     <g id="line2d_29">
      <g>
       <use xlink:href="#m9c196e221e" x="95.83" y="118.011329" style="fill: #37539c; stroke: #37539c; stroke-width: 0.8"/>
      </g>
     </g>
     <g id="text_21">
      <!-- Región de Atacama -->
      <g style="fill: #37539c" transform="translate(31.39125 120.30961) scale(0.06 -0.06)">
       <use xlink:href="#OpenSans-Bold-52"/>
       <use xlink:href="#OpenSans-Bold-65" x="66.015625"/>
       <use xlink:href="#OpenSans-Bold-67" x="125.097656"/>
       <use xlink:href="#OpenSans-Bold-69" x="181.591797"/>
       <use xlink:href="#OpenSans-Bold-f3" x="212.109375"/>
       <use xlink:href="#OpenSans-Bold-6e" x="274.023438"/>
       <use xlink:href="#OpenSans-Bold-20" x="339.746094"/>
       <use xlink:href="#OpenSans-Bold-64" x="365.722656"/>
       <use xlink:href="#OpenSans-Bold-65" x="429.003906"/>
       <use xlink:href="#OpenSans-Bold-20" x="488.085938"/>
       <use xlink:href="#OpenSans-Bold-41" x="514.0625"/>
       <use xlink:href="#OpenSans-Bold-74" x="583.056641"/>
       <use xlink:href="#OpenSans-Bold-61" x="626.464844"/>
       <use xlink:href="#OpenSans-Bold-63" x="686.865234"/>
       <use xlink:href="#OpenSans-Bold-61" x="738.28125"/>
       <use xlink:href="#OpenSans-Bold-6d" x="798.681641"/>
       <use xlink:href="#OpenSans-Bold-61" x="896.875"/>
      </g>
     </g>
    </g>
    <g id="ytick_12">
     <g id="line2d_30">
      <g>
       <use xlink:href="#m9c196e221e" x="95.83" y="91.86028" style="fill: #37539c; stroke: #37539c; stroke-width: 0.8"/>
      </g>
     </g>
     <g id="text_22">
      <!-- Región de Antofagasta -->
      <g style="fill: #37539c" transform="translate(21.409688 94.158561) scale(0.06 -0.06)">
       <defs>
        <path id="OpenSans-Bold-66" d="M 2431 2778 
L 1606 2778 
L 1606 0 
L 653 0 
L 653 2778 
L 128 2778 
L 128 3238 
L 653 3494 
L 653 3750 
Q 653 4197 804 4445 
Q 956 4694 1232 4795 
Q 1509 4897 1888 4897 
Q 2166 4897 2394 4851 
Q 2622 4806 2766 4750 
L 2522 4050 
Q 2413 4084 2284 4112 
Q 2156 4141 1991 4141 
Q 1791 4141 1698 4020 
Q 1606 3900 1606 3713 
L 1606 3494 
L 2431 3494 
L 2431 2778 
z
" transform="scale(0.015625)"/>
       </defs>
       <use xlink:href="#OpenSans-Bold-52"/>
       <use xlink:href="#OpenSans-Bold-65" x="66.015625"/>
       <use xlink:href="#OpenSans-Bold-67" x="125.097656"/>
       <use xlink:href="#OpenSans-Bold-69" x="181.591797"/>
       <use xlink:href="#OpenSans-Bold-f3" x="212.109375"/>
       <use xlink:href="#OpenSans-Bold-6e" x="274.023438"/>
       <use xlink:href="#OpenSans-Bold-20" x="339.746094"/>
       <use xlink:href="#OpenSans-Bold-64" x="365.722656"/>
       <use xlink:href="#OpenSans-Bold-65" x="429.003906"/>
       <use xlink:href="#OpenSans-Bold-20" x="488.085938"/>
       <use xlink:href="#OpenSans-Bold-41" x="514.0625"/>
       <use xlink:href="#OpenSans-Bold-6e" x="583.056641"/>
       <use xlink:href="#OpenSans-Bold-74" x="648.779297"/>
       <use xlink:href="#OpenSans-Bold-6f" x="692.1875"/>
       <use xlink:href="#OpenSans-Bold-66" x="754.101562"/>
       <use xlink:href="#OpenSans-Bold-61" x="792.822266"/>
       <use xlink:href="#OpenSans-Bold-67" x="853.222656"/>
       <use xlink:href="#OpenSans-Bold-61" x="909.716797"/>
       <use xlink:href="#OpenSans-Bold-73" x="970.117188"/>
       <use xlink:href="#OpenSans-Bold-74" x="1019.824219"/>
       <use xlink:href="#OpenSans-Bold-61" x="1063.232422"/>
      </g>
     </g>
    </g>
    <g id="ytick_13">
     <g id="line2d_31">
      <g>
       <use xlink:href="#m9c196e221e" x="95.83" y="65.709231" style="fill: #37539c; stroke: #37539c; stroke-width: 0.8"/>
      </g>
     </g>
     <g id="text_23">
      <!-- Región de Tarapacá -->
      <g style="fill: #37539c" transform="translate(30.406875 68.007512) scale(0.06 -0.06)">
       <defs>
        <path id="OpenSans-Bold-54" d="M 2338 0 
L 1369 0 
L 1369 3763 
L 128 3763 
L 128 4569 
L 3578 4569 
L 3578 3763 
L 2338 3763 
L 2338 0 
z
" transform="scale(0.015625)"/>
        <path id="OpenSans-Bold-e1" d="M 1931 3566 
Q 2634 3566 3009 3259 
Q 3384 2953 3384 2328 
L 3384 0 
L 2719 0 
L 2534 475 
L 2509 475 
Q 2359 288 2203 169 
Q 2047 50 1844 -6 
Q 1641 -63 1350 -63 
Q 1041 -63 795 56 
Q 550 175 409 420 
Q 269 666 269 1044 
Q 269 1600 659 1864 
Q 1050 2128 1831 2156 
L 2438 2175 
L 2438 2328 
Q 2438 2603 2294 2731 
Q 2150 2859 1894 2859 
Q 1641 2859 1397 2787 
Q 1153 2716 909 2606 
L 594 3250 
Q 872 3397 1217 3481 
Q 1563 3566 1931 3566 
z
M 2438 1619 
L 2069 1606 
Q 1606 1594 1426 1441 
Q 1247 1288 1247 1038 
Q 1247 819 1375 726 
Q 1503 634 1709 634 
Q 2016 634 2227 815 
Q 2438 997 2438 1331 
L 2438 1619 
z
M 3163 4903 
L 3163 4838 
Q 3073 4750 2926 4622 
Q 2779 4494 2610 4355 
Q 2442 4216 2279 4089 
Q 2117 3963 1995 3878 
L 1360 3878 
L 1360 3963 
Q 1463 4081 1599 4245 
Q 1735 4409 1869 4584 
Q 2004 4759 2095 4903 
L 3163 4903 
z
" transform="scale(0.015625)"/>
       </defs>
       <use xlink:href="#OpenSans-Bold-52"/>
       <use xlink:href="#OpenSans-Bold-65" x="66.015625"/>
       <use xlink:href="#OpenSans-Bold-67" x="125.097656"/>
       <use xlink:href="#OpenSans-Bold-69" x="181.591797"/>
       <use xlink:href="#OpenSans-Bold-f3" x="212.109375"/>
       <use xlink:href="#OpenSans-Bold-6e" x="274.023438"/>
       <use xlink:href="#OpenSans-Bold-20" x="339.746094"/>
       <use xlink:href="#OpenSans-Bold-64" x="365.722656"/>
       <use xlink:href="#OpenSans-Bold-65" x="429.003906"/>
       <use xlink:href="#OpenSans-Bold-20" x="488.085938"/>
       <use xlink:href="#OpenSans-Bold-54" x="514.0625"/>
       <use xlink:href="#OpenSans-Bold-61" x="571.972656"/>
       <use xlink:href="#OpenSans-Bold-72" x="632.373047"/>
       <use xlink:href="#OpenSans-Bold-61" x="677.783203"/>
       <use xlink:href="#OpenSans-Bold-70" x="738.183594"/>
       <use xlink:href="#OpenSans-Bold-61" x="801.464844"/>
       <use xlink:href="#OpenSans-Bold-63" x="861.865234"/>
       <use xlink:href="#OpenSans-Bold-e1" x="913.28125"/>
      </g>
     </g>
    </g>
    <g id="ytick_14">
     <g id="line2d_32">
      <g>
       <use xlink:href="#m9c196e221e" x="95.83" y="39.558182" style="fill: #37539c; stroke: #37539c; stroke-width: 0.8"/>
      </g>
     </g>
     <g id="text_24">
      <!-- Región de Arica -->
      <g style="fill: #37539c" transform="translate(42.580313 38.855994) scale(0.06 -0.06)">
       <use xlink:href="#OpenSans-Bold-52"/>
       <use xlink:href="#OpenSans-Bold-65" x="66.015625"/>
       <use xlink:href="#OpenSans-Bold-67" x="125.097656"/>
       <use xlink:href="#OpenSans-Bold-69" x="181.591797"/>
       <use xlink:href="#OpenSans-Bold-f3" x="212.109375"/>
       <use xlink:href="#OpenSans-Bold-6e" x="274.023438"/>
       <use xlink:href="#OpenSans-Bold-20" x="339.746094"/>
       <use xlink:href="#OpenSans-Bold-64" x="365.722656"/>
       <use xlink:href="#OpenSans-Bold-65" x="429.003906"/>
       <use xlink:href="#OpenSans-Bold-20" x="488.085938"/>
       <use xlink:href="#OpenSans-Bold-41" x="514.0625"/>
       <use xlink:href="#OpenSans-Bold-72" x="583.056641"/>
       <use xlink:href="#OpenSans-Bold-69" x="628.466797"/>
       <use xlink:href="#OpenSans-Bold-63" x="658.984375"/>
       <use xlink:href="#OpenSans-Bold-61" x="710.400391"/>
      </g>
      <!-- y Parinacota -->
      <g style="fill: #37539c" transform="translate(51.313125 45.768744) scale(0.06 -0.06)">
       <defs>
        <path id="OpenSans-Bold-79" d="M 0 3494 
L 1044 3494 
L 1703 1528 
Q 1734 1434 1756 1337 
Q 1778 1241 1793 1137 
Q 1809 1034 1819 922 
L 1838 922 
Q 1856 1091 1889 1237 
Q 1922 1384 1972 1528 
L 2619 3494 
L 3641 3494 
L 2163 -447 
Q 2028 -809 1812 -1051 
Q 1597 -1294 1317 -1416 
Q 1038 -1538 703 -1538 
Q 541 -1538 422 -1520 
Q 303 -1503 219 -1484 
L 219 -728 
Q 284 -744 384 -756 
Q 484 -769 594 -769 
Q 794 -769 937 -684 
Q 1081 -600 1178 -458 
Q 1275 -316 1331 -147 
L 1388 25 
L 0 3494 
z
" transform="scale(0.015625)"/>
        <path id="OpenSans-Bold-50" d="M 2034 4569 
Q 2919 4569 3325 4189 
Q 3731 3809 3731 3144 
Q 3731 2844 3640 2570 
Q 3550 2297 3345 2084 
Q 3141 1872 2800 1748 
Q 2459 1625 1959 1625 
L 1544 1625 
L 1544 0 
L 575 0 
L 575 4569 
L 2034 4569 
z
M 1984 3775 
L 1544 3775 
L 1544 2419 
L 1863 2419 
Q 2134 2419 2334 2491 
Q 2534 2563 2643 2716 
Q 2753 2869 2753 3109 
Q 2753 3447 2565 3611 
Q 2378 3775 1984 3775 
z
" transform="scale(0.015625)"/>
       </defs>
       <use xlink:href="#OpenSans-Bold-79"/>
       <use xlink:href="#OpenSans-Bold-20" x="56.884766"/>
       <use xlink:href="#OpenSans-Bold-50" x="82.861328"/>
       <use xlink:href="#OpenSans-Bold-61" x="145.654297"/>
       <use xlink:href="#OpenSans-Bold-72" x="206.054688"/>
       <use xlink:href="#OpenSans-Bold-69" x="251.464844"/>
       <use xlink:href="#OpenSans-Bold-6e" x="281.982422"/>
       <use xlink:href="#OpenSans-Bold-61" x="347.705078"/>
       <use xlink:href="#OpenSans-Bold-63" x="408.105469"/>
       <use xlink:href="#OpenSans-Bold-6f" x="459.521484"/>
       <use xlink:href="#OpenSans-Bold-74" x="521.435547"/>
       <use xlink:href="#OpenSans-Bold-61" x="564.84375"/>
      </g>
     </g>
    </g>
   </g>
   <g id="patch_3">
    <path d="M 96.032688 39.139765 
L 99.525165 39.139765 
Q 99.720058 39.139765 99.720058 28.679345 
L 99.720058 39.976599 
Q 99.720058 29.516179 99.525165 29.516179 
L 96.032688 29.516179 
Q 95.837796 29.516179 95.837796 39.976599 
L 95.837796 28.679345 
Q 95.837796 39.139765 96.032688 39.139765 
z
" clip-path="url(#p9eedd77793)" style="fill: #869cd4"/>
   </g>
   <g id="patch_4">
    <path d="M 96.032688 65.290814 
L 97.576238 65.290814 
Q 97.771131 65.290814 97.771131 54.830394 
L 97.771131 66.127648 
Q 97.771131 55.667228 97.576238 55.667228 
L 96.032688 55.667228 
Q 95.837796 55.667228 95.837796 66.127648 
L 95.837796 54.830394 
Q 95.837796 65.290814 96.032688 65.290814 
z
" clip-path="url(#p9eedd77793)" style="fill: #869cd4"/>
   </g>
   <g id="patch_5">
    <path d="M 96.032688 91.441863 
L 105.371946 91.441863 
Q 105.566838 91.441863 105.566838 80.981443 
L 105.566838 92.278697 
Q 105.566838 81.818277 105.371946 81.818277 
L 96.032688 81.818277 
Q 95.837796 81.818277 95.837796 92.278697 
L 95.837796 80.981443 
Q 95.837796 91.441863 96.032688 91.441863 
z
" clip-path="url(#p9eedd77793)" style="fill: #869cd4"/>
   </g>
   <g id="patch_6">
    <path d="M 96.032688 117.592912 
L 97.576238 117.592912 
Q 97.771131 117.592912 97.771131 107.132492 
L 97.771131 118.429745 
Q 97.771131 107.969326 97.576238 107.969326 
L 96.032688 107.969326 
Q 95.837796 107.969326 95.837796 118.429745 
L 95.837796 107.132492 
Q 95.837796 117.592912 96.032688 117.592912 
z
" clip-path="url(#p9eedd77793)" style="fill: #869cd4"/>
   </g>
   <g id="patch_7">
    <path d="M 96.032688 143.743961 
L 103.423019 143.743961 
Q 103.617912 143.743961 103.617912 133.283541 
L 103.617912 144.580794 
Q 103.617912 134.120375 103.423019 134.120375 
L 96.032688 134.120375 
Q 95.837796 134.120375 95.837796 144.580794 
L 95.837796 133.283541 
Q 95.837796 143.743961 96.032688 143.743961 
z
" clip-path="url(#p9eedd77793)" style="fill: #869cd4"/>
   </g>
   <g id="patch_8">
    <path d="M 96.032688 169.89501 
L 148.248336 169.89501 
Q 148.443229 169.89501 148.443229 159.43459 
L 148.443229 170.731843 
Q 148.443229 160.271424 148.248336 160.271424 
L 96.032688 160.271424 
Q 95.837796 160.271424 95.837796 170.731843 
L 95.837796 159.43459 
Q 95.837796 169.89501 96.032688 169.89501 
z
" clip-path="url(#p9eedd77793)" style="fill: #869cd4"/>
   </g>
   <g id="patch_9">
    <path d="M 96.032688 196.046059 
L 469.821263 196.046059 
Q 470.016156 196.046059 470.016156 185.585639 
L 470.016156 196.882892 
Q 470.016156 186.422473 469.821263 186.422473 
L 96.032688 186.422473 
Q 95.837796 186.422473 95.837796 196.882892 
L 95.837796 185.585639 
Q 95.837796 196.046059 96.032688 196.046059 
z
" clip-path="url(#p9eedd77793)" style="fill: #869cd4"/>
   </g>
   <g id="patch_10">
    <path d="M 96.032688 222.197108 
L 101.474092 222.197108 
Q 101.668985 222.197108 101.668985 211.736688 
L 101.668985 223.033941 
Q 101.668985 212.573522 101.474092 212.573522 
L 96.032688 212.573522 
Q 95.837796 212.573522 95.837796 223.033941 
L 95.837796 211.736688 
Q 95.837796 222.197108 96.032688 222.197108 
z
" clip-path="url(#p9eedd77793)" style="fill: #869cd4"/>
   </g>
   <g id="patch_11">
    <path d="M 96.032688 248.348157 
L 111.218726 248.348157 
Q 111.413619 248.348157 111.413619 237.887737 
L 111.413619 249.18499 
Q 111.413619 238.724571 111.218726 238.724571 
L 96.032688 238.724571 
Q 95.837796 238.724571 95.837796 249.18499 
L 95.837796 237.887737 
Q 95.837796 248.348157 96.032688 248.348157 
z
" clip-path="url(#p9eedd77793)" style="fill: #869cd4"/>
   </g>
   <g id="patch_12">
    <path d="M 96.032688 274.499206 
L 99.525165 274.499206 
Q 99.720058 274.499206 99.720058 264.038786 
L 99.720058 275.336039 
Q 99.720058 264.87562 99.525165 264.87562 
L 96.032688 264.87562 
Q 95.837796 264.87562 95.837796 275.336039 
L 95.837796 264.038786 
Q 95.837796 274.499206 96.032688 274.499206 
z
" clip-path="url(#p9eedd77793)" style="fill: #869cd4"/>
   </g>
   <g id="patch_13">
    <path d="M 96.032688 300.650255 
L 156.044043 300.650255 
Q 156.238936 300.650255 156.238936 290.189835 
L 156.238936 301.487088 
Q 156.238936 291.026669 156.044043 291.026669 
L 96.032688 291.026669 
Q 95.837796 291.026669 95.837796 301.487088 
L 95.837796 290.189835 
Q 95.837796 300.650255 96.032688 300.650255 
z
" clip-path="url(#p9eedd77793)" style="fill: #869cd4"/>
   </g>
   <g id="patch_14">
    <path d="M 96.032688 326.801303 
L 115.11658 326.801303 
Q 115.311473 326.801303 115.311473 316.340884 
L 115.311473 327.638137 
Q 115.311473 317.177717 115.11658 317.177717 
L 96.032688 317.177717 
Q 95.837796 317.177717 95.837796 327.638137 
L 95.837796 316.340884 
Q 95.837796 326.801303 96.032688 326.801303 
z
" clip-path="url(#p9eedd77793)" style="fill: #869cd4"/>
   </g>
   <g id="patch_15">
    <path d="M 96.032688 352.952352 
L 99.525165 352.952352 
Q 99.720058 352.952352 99.720058 342.491933 
L 99.720058 353.789186 
Q 99.720058 343.328766 99.525165 343.328766 
L 96.032688 343.328766 
Q 95.837796 343.328766 95.837796 353.789186 
L 95.837796 342.491933 
Q 95.837796 352.952352 96.032688 352.952352 
z
" clip-path="url(#p9eedd77793)" style="fill: #869cd4"/>
   </g>
   <g id="patch_16">
    <path d="M 96.032688 379.103401 
L 120.96336 379.103401 
Q 121.158253 379.103401 121.158253 368.642982 
L 121.158253 379.940235 
Q 121.158253 369.479815 120.96336 369.479815 
L 96.032688 369.479815 
Q 95.837796 369.479815 95.837796 379.940235 
L 95.837796 368.642982 
Q 95.837796 379.103401 96.032688 379.103401 
z
" clip-path="url(#p9eedd77793)" style="fill: #869cd4"/>
   </g>
   <g id="patch_17">
    <path d="M 96.032688 49.600185 
L 99.525165 49.600185 
Q 99.720058 49.600185 99.720058 39.139765 
L 99.720058 50.437018 
Q 99.720058 39.976599 99.525165 39.976599 
L 96.032688 39.976599 
Q 95.837796 39.976599 95.837796 50.437018 
L 95.837796 39.139765 
Q 95.837796 49.600185 96.032688 49.600185 
z
" clip-path="url(#p9eedd77793)" style="fill: #4969be"/>
   </g>
   <g id="patch_18">
    <path d="M 96.032688 75.751234 
L 99.525165 75.751234 
Q 99.720058 75.751234 99.720058 65.290814 
L 99.720058 76.588067 
Q 99.720058 66.127648 99.525165 66.127648 
L 96.032688 66.127648 
Q 95.837796 66.127648 95.837796 76.588067 
L 95.837796 65.290814 
Q 95.837796 75.751234 96.032688 75.751234 
z
" clip-path="url(#p9eedd77793)" style="fill: #4969be"/>
   </g>
   <g id="patch_19">
    <path d="M 96.032688 101.902283 
L 107.320873 101.902283 
Q 107.515765 101.902283 107.515765 91.441863 
L 107.515765 102.739116 
Q 107.515765 92.278697 107.320873 92.278697 
L 96.032688 92.278697 
Q 95.837796 92.278697 95.837796 102.739116 
L 95.837796 91.441863 
Q 95.837796 101.902283 96.032688 101.902283 
z
" clip-path="url(#p9eedd77793)" style="fill: #4969be"/>
   </g>
   <g id="patch_20">
    <path d="M 96.032688 128.053331 
L 97.576238 128.053331 
Q 97.771131 128.053331 97.771131 117.592912 
L 97.771131 128.890165 
Q 97.771131 118.429745 97.576238 118.429745 
L 96.032688 118.429745 
Q 95.837796 118.429745 95.837796 128.890165 
L 95.837796 117.592912 
Q 95.837796 128.053331 96.032688 128.053331 
z
" clip-path="url(#p9eedd77793)" style="fill: #4969be"/>
   </g>
   <g id="patch_21">
    <path d="M 96.032688 154.20438 
L 103.423019 154.20438 
Q 103.617912 154.20438 103.617912 143.743961 
L 103.617912 155.041214 
Q 103.617912 144.580794 103.423019 144.580794 
L 96.032688 144.580794 
Q 95.837796 144.580794 95.837796 155.041214 
L 95.837796 143.743961 
Q 95.837796 154.20438 96.032688 154.20438 
z
" clip-path="url(#p9eedd77793)" style="fill: #4969be"/>
   </g>
   <g id="patch_22">
    <path d="M 96.032688 180.355429 
L 169.686531 180.355429 
Q 169.881424 180.355429 169.881424 169.89501 
L 169.881424 181.192263 
Q 169.881424 170.731843 169.686531 170.731843 
L 96.032688 170.731843 
Q 95.837796 170.731843 95.837796 181.192263 
L 95.837796 169.89501 
Q 95.837796 180.355429 96.032688 180.355429 
z
" clip-path="url(#p9eedd77793)" style="fill: #4969be"/>
   </g>
   <g id="patch_23">
    <path d="M 96.032688 206.506478 
L 471.77019 206.506478 
Q 471.965082 206.506478 471.965082 196.046059 
L 471.965082 207.343312 
Q 471.965082 196.882892 471.77019 196.882892 
L 96.032688 196.882892 
Q 95.837796 196.882892 95.837796 207.343312 
L 95.837796 196.046059 
Q 95.837796 206.506478 96.032688 206.506478 
z
" clip-path="url(#p9eedd77793)" style="fill: #4969be"/>
   </g>
   <g id="patch_24">
    <path d="M 96.032688 232.657527 
L 105.371946 232.657527 
Q 105.566838 232.657527 105.566838 222.197108 
L 105.566838 233.494361 
Q 105.566838 223.033941 105.371946 223.033941 
L 96.032688 223.033941 
Q 95.837796 223.033941 95.837796 233.494361 
L 95.837796 222.197108 
Q 95.837796 232.657527 96.032688 232.657527 
z
" clip-path="url(#p9eedd77793)" style="fill: #4969be"/>
   </g>
   <g id="patch_25">
    <path d="M 96.032688 258.808576 
L 107.320873 258.808576 
Q 107.515765 258.808576 107.515765 248.348157 
L 107.515765 259.64541 
Q 107.515765 249.18499 107.320873 249.18499 
L 96.032688 249.18499 
Q 95.837796 249.18499 95.837796 259.64541 
L 95.837796 248.348157 
Q 95.837796 258.808576 96.032688 258.808576 
z
" clip-path="url(#p9eedd77793)" style="fill: #4969be"/>
   </g>
   <g id="patch_26">
    <path d="M 96.032688 284.959625 
L 111.218726 284.959625 
Q 111.413619 284.959625 111.413619 274.499206 
L 111.413619 285.796459 
Q 111.413619 275.336039 111.218726 275.336039 
L 96.032688 275.336039 
Q 95.837796 275.336039 95.837796 285.796459 
L 95.837796 274.499206 
Q 95.837796 284.959625 96.032688 284.959625 
z
" clip-path="url(#p9eedd77793)" style="fill: #4969be"/>
   </g>
   <g id="patch_27">
    <path d="M 96.032688 311.110674 
L 156.044043 311.110674 
Q 156.238936 311.110674 156.238936 300.650255 
L 156.238936 311.947508 
Q 156.238936 301.487088 156.044043 301.487088 
L 96.032688 301.487088 
Q 95.837796 301.487088 95.837796 311.947508 
L 95.837796 300.650255 
Q 95.837796 311.110674 96.032688 311.110674 
z
" clip-path="url(#p9eedd77793)" style="fill: #4969be"/>
   </g>
   <g id="patch_28">
    <path d="M 96.032688 337.261723 
L 117.065507 337.261723 
Q 117.260399 337.261723 117.260399 326.801303 
L 117.260399 338.098557 
Q 117.260399 327.638137 117.065507 327.638137 
L 96.032688 327.638137 
Q 95.837796 327.638137 95.837796 338.098557 
L 95.837796 326.801303 
Q 95.837796 337.261723 96.032688 337.261723 
z
" clip-path="url(#p9eedd77793)" style="fill: #4969be"/>
   </g>
   <g id="patch_29">
    <path d="M 96.032688 363.412772 
L 120.96336 363.412772 
Q 121.158253 363.412772 121.158253 352.952352 
L 121.158253 364.249606 
Q 121.158253 353.789186 120.96336 353.789186 
L 96.032688 353.789186 
Q 95.837796 353.789186 95.837796 364.249606 
L 95.837796 352.952352 
Q 95.837796 363.412772 96.032688 363.412772 
z
" clip-path="url(#p9eedd77793)" style="fill: #4969be"/>
   </g>
   <g id="patch_30">
    <path d="M 96.032688 389.563821 
L 113.167653 389.563821 
Q 113.362546 389.563821 113.362546 379.103401 
L 113.362546 390.400655 
Q 113.362546 379.940235 113.167653 379.940235 
L 96.032688 379.940235 
Q 95.837796 379.940235 95.837796 390.400655 
L 95.837796 379.103401 
Q 95.837796 389.563821 96.032688 389.563821 
z
" clip-path="url(#p9eedd77793)" style="fill: #4969be"/>
   </g>
   <g id="patch_31">
    <path d="M 95.83 396.52 
L 95.83 22.56 
" style="fill: none; stroke: #000000; stroke-width: 0.8; stroke-linejoin: miter; stroke-linecap: square"/>
   </g>
   <g id="patch_32">
    <path d="M 95.83 396.52 
L 495.36 396.52 
" style="fill: none; stroke: #000000; stroke-width: 0.8; stroke-linejoin: miter; stroke-linecap: square"/>
   </g>
   <g id="text_25">
    <!-- 9 -->
    <g style="fill: #37539c" transform="translate(115.370341 386.830153) scale(0.08 -0.08)">
     <defs>
      <path id="OpenSans-Bold-39" d="M 3431 2619 
Q 3431 2225 3373 1837 
Q 3316 1450 3172 1108 
Q 3028 766 2768 502 
Q 2509 238 2109 87 
Q 1709 -63 1141 -63 
Q 1006 -63 825 -52 
Q 644 -41 525 -19 
L 525 756 
Q 650 725 790 708 
Q 931 691 1075 691 
Q 1647 691 1958 872 
Q 2269 1053 2395 1375 
Q 2522 1697 2541 2119 
L 2503 2119 
Q 2413 1969 2289 1848 
Q 2166 1728 1975 1658 
Q 1784 1588 1491 1588 
Q 1100 1588 811 1758 
Q 522 1928 364 2251 
Q 206 2575 206 3034 
Q 206 3531 395 3886 
Q 584 4241 934 4431 
Q 1284 4622 1759 4622 
Q 2109 4622 2412 4501 
Q 2716 4381 2945 4134 
Q 3175 3888 3303 3509 
Q 3431 3131 3431 2619 
z
M 1778 3847 
Q 1497 3847 1319 3653 
Q 1141 3459 1141 3047 
Q 1141 2716 1294 2522 
Q 1447 2328 1759 2328 
Q 1975 2328 2134 2423 
Q 2294 2519 2383 2664 
Q 2472 2809 2472 2963 
Q 2472 3122 2428 3278 
Q 2384 3434 2296 3562 
Q 2209 3691 2079 3769 
Q 1950 3847 1778 3847 
z
" transform="scale(0.015625)"/>
     </defs>
     <use xlink:href="#OpenSans-Bold-39"/>
    </g>
   </g>
   <g id="text_26">
    <!-- 13 -->
    <g style="fill: #37539c" transform="translate(123.166049 360.679104) scale(0.08 -0.08)">
     <defs>
      <path id="OpenSans-Bold-33" d="M 3272 3547 
Q 3272 3231 3140 3000 
Q 3009 2769 2786 2622 
Q 2563 2475 2284 2406 
L 2284 2388 
Q 2834 2319 3120 2050 
Q 3406 1781 3406 1331 
Q 3406 931 3211 615 
Q 3016 300 2609 118 
Q 2203 -63 1563 -63 
Q 1184 -63 857 -2 
Q 531 59 244 184 
L 244 1006 
Q 538 856 859 779 
Q 1181 703 1459 703 
Q 1978 703 2186 883 
Q 2394 1063 2394 1388 
Q 2394 1578 2297 1709 
Q 2200 1841 1961 1909 
Q 1722 1978 1294 1978 
L 947 1978 
L 947 2719 
L 1300 2719 
Q 1722 2719 1942 2798 
Q 2163 2878 2242 3017 
Q 2322 3156 2322 3334 
Q 2322 3578 2172 3715 
Q 2022 3853 1672 3853 
Q 1453 3853 1273 3798 
Q 1094 3744 950 3667 
Q 806 3591 697 3519 
L 250 4184 
Q 519 4378 880 4506 
Q 1241 4634 1741 4634 
Q 2447 4634 2859 4350 
Q 3272 4066 3272 3547 
z
" transform="scale(0.015625)"/>
     </defs>
     <use xlink:href="#OpenSans-Bold-31"/>
     <use xlink:href="#OpenSans-Bold-33" x="57.177734"/>
    </g>
   </g>
   <g id="text_27">
    <!-- 11 -->
    <g style="fill: #37539c" transform="translate(119.268195 334.528055) scale(0.08 -0.08)">
     <use xlink:href="#OpenSans-Bold-31"/>
     <use xlink:href="#OpenSans-Bold-31" x="57.177734"/>
    </g>
   </g>
   <g id="text_28">
    <!-- 31 -->
    <g style="fill: #37539c" transform="translate(158.246732 308.377006) scale(0.08 -0.08)">
     <use xlink:href="#OpenSans-Bold-33"/>
     <use xlink:href="#OpenSans-Bold-31" x="57.177734"/>
    </g>
   </g>
   <g id="text_29">
    <!-- 8 -->
    <g style="fill: #37539c" transform="translate(113.421415 282.225957) scale(0.08 -0.08)">
     <defs>
      <path id="OpenSans-Bold-38" d="M 1831 4628 
Q 2225 4628 2558 4506 
Q 2891 4384 3091 4139 
Q 3291 3894 3291 3525 
Q 3291 3250 3183 3044 
Q 3075 2838 2890 2683 
Q 2706 2528 2472 2413 
Q 2716 2284 2934 2114 
Q 3153 1944 3292 1716 
Q 3431 1488 3431 1184 
Q 3431 803 3228 523 
Q 3025 244 2665 90 
Q 2306 -63 1831 -63 
Q 1319 -63 959 84 
Q 600 231 412 504 
Q 225 778 225 1159 
Q 225 1472 342 1703 
Q 459 1934 659 2101 
Q 859 2269 1100 2388 
Q 897 2516 730 2678 
Q 563 2841 464 3050 
Q 366 3259 366 3531 
Q 366 3894 570 4137 
Q 775 4381 1109 4504 
Q 1444 4628 1831 4628 
z
M 1119 1216 
Q 1119 969 1295 808 
Q 1472 647 1819 647 
Q 2178 647 2356 801 
Q 2534 956 2534 1209 
Q 2534 1384 2432 1515 
Q 2331 1647 2178 1751 
Q 2025 1856 1869 1947 
L 1784 1991 
Q 1584 1900 1436 1787 
Q 1288 1675 1203 1534 
Q 1119 1394 1119 1216 
z
M 1825 3922 
Q 1588 3922 1431 3800 
Q 1275 3678 1275 3456 
Q 1275 3300 1351 3183 
Q 1428 3066 1554 2978 
Q 1681 2891 1831 2816 
Q 1975 2884 2100 2968 
Q 2225 3053 2303 3172 
Q 2381 3291 2381 3456 
Q 2381 3678 2223 3800 
Q 2066 3922 1825 3922 
z
" transform="scale(0.015625)"/>
     </defs>
     <use xlink:href="#OpenSans-Bold-38"/>
    </g>
   </g>
   <g id="text_30">
    <!-- 6 -->
    <g style="fill: #37539c" transform="translate(109.523561 256.074908) scale(0.08 -0.08)">
     <defs>
      <path id="OpenSans-Bold-36" d="M 225 1941 
Q 225 2334 283 2720 
Q 341 3106 484 3448 
Q 628 3791 887 4055 
Q 1147 4319 1547 4470 
Q 1947 4622 2516 4622 
Q 2650 4622 2829 4611 
Q 3009 4600 3128 4575 
L 3128 3803 
Q 3003 3831 2861 3848 
Q 2719 3866 2578 3866 
Q 2009 3866 1698 3684 
Q 1388 3503 1261 3183 
Q 1134 2863 1113 2438 
L 1153 2438 
Q 1241 2591 1373 2709 
Q 1506 2828 1697 2898 
Q 1888 2969 2144 2969 
Q 2544 2969 2837 2798 
Q 3131 2628 3290 2306 
Q 3450 1984 3450 1522 
Q 3450 1028 3259 672 
Q 3069 316 2720 126 
Q 2372 -63 1894 -63 
Q 1544 -63 1241 57 
Q 938 178 709 425 
Q 481 672 353 1048 
Q 225 1425 225 1941 
z
M 1875 709 
Q 2159 709 2337 903 
Q 2516 1097 2516 1509 
Q 2516 1844 2361 2036 
Q 2206 2228 1894 2228 
Q 1681 2228 1520 2133 
Q 1359 2038 1271 1892 
Q 1184 1747 1184 1594 
Q 1184 1434 1228 1278 
Q 1272 1122 1359 994 
Q 1447 866 1576 787 
Q 1706 709 1875 709 
z
" transform="scale(0.015625)"/>
     </defs>
     <use xlink:href="#OpenSans-Bold-36"/>
    </g>
   </g>
   <g id="text_31">
    <!-- 5 -->
    <g style="fill: #37539c" transform="translate(107.574634 229.923859) scale(0.08 -0.08)">
     <use xlink:href="#OpenSans-Bold-35"/>
    </g>
   </g>
   <g id="text_32">
    <!-- 193 -->
    <g style="fill: #37539c" transform="translate(473.972878 203.77281) scale(0.08 -0.08)">
     <use xlink:href="#OpenSans-Bold-31"/>
     <use xlink:href="#OpenSans-Bold-39" x="57.177734"/>
     <use xlink:href="#OpenSans-Bold-33" x="114.355469"/>
    </g>
   </g>
   <g id="text_33">
    <!-- 38 -->
    <g style="fill: #37539c" transform="translate(171.88922 177.621761) scale(0.08 -0.08)">
     <use xlink:href="#OpenSans-Bold-33"/>
     <use xlink:href="#OpenSans-Bold-38" x="57.177734"/>
    </g>
   </g>
   <g id="text_34">
    <!-- 4 -->
    <g style="fill: #37539c" transform="translate(105.625707 151.470712) scale(0.08 -0.08)">
     <defs>
      <path id="OpenSans-Bold-34" d="M 3553 947 
L 3003 947 
L 3003 0 
L 2059 0 
L 2059 947 
L 109 947 
L 109 1619 
L 2113 4569 
L 3003 4569 
L 3003 1697 
L 3553 1697 
L 3553 947 
z
M 2059 1697 
L 2059 2472 
Q 2059 2581 2064 2731 
Q 2069 2881 2075 3031 
Q 2081 3181 2089 3298 
Q 2097 3416 2100 3463 
L 2075 3463 
Q 2016 3334 1950 3214 
Q 1884 3094 1797 2963 
L 959 1697 
L 2059 1697 
z
" transform="scale(0.015625)"/>
     </defs>
     <use xlink:href="#OpenSans-Bold-34"/>
    </g>
   </g>
   <g id="text_35">
    <!-- 1 -->
    <g style="fill: #37539c" transform="translate(99.778927 125.319663) scale(0.08 -0.08)">
     <use xlink:href="#OpenSans-Bold-31"/>
    </g>
   </g>
   <g id="text_36">
    <!-- 6 -->
    <g style="fill: #37539c" transform="translate(109.523561 99.168615) scale(0.08 -0.08)">
     <use xlink:href="#OpenSans-Bold-36"/>
    </g>
   </g>
   <g id="text_37">
    <!-- 2 -->
    <g style="fill: #37539c" transform="translate(101.727854 73.017566) scale(0.08 -0.08)">
     <use xlink:href="#OpenSans-Bold-32"/>
    </g>
   </g>
   <g id="text_38">
    <!-- 2 -->
    <g style="fill: #37539c" transform="translate(101.727854 46.866517) scale(0.08 -0.08)">
     <use xlink:href="#OpenSans-Bold-32"/>
    </g>
   </g>
   <g id="text_39">
    <!-- 13 -->
    <g style="fill: #37539c" transform="translate(123.166049 376.369733) scale(0.08 -0.08)">
     <use xlink:href="#OpenSans-Bold-31"/>
     <use xlink:href="#OpenSans-Bold-33" x="57.177734"/>
    </g>
   </g>
   <g id="text_40">
    <!-- 2 -->
    <g style="fill: #37539c" transform="translate(101.727854 350.218684) scale(0.08 -0.08)">
     <use xlink:href="#OpenSans-Bold-32"/>
    </g>
   </g>
   <g id="text_41">
    <!-- 10 -->
    <g style="fill: #37539c" transform="translate(117.319268 324.067635) scale(0.08 -0.08)">
     <use xlink:href="#OpenSans-Bold-31"/>
     <use xlink:href="#OpenSans-Bold-30" x="57.177734"/>
    </g>
   </g>
   <g id="text_42">
    <!-- 31 -->
    <g style="fill: #37539c" transform="translate(158.246732 297.916587) scale(0.08 -0.08)">
     <use xlink:href="#OpenSans-Bold-33"/>
     <use xlink:href="#OpenSans-Bold-31" x="57.177734"/>
    </g>
   </g>
   <g id="text_43">
    <!-- 2 -->
    <g style="fill: #37539c" transform="translate(101.727854 271.765538) scale(0.08 -0.08)">
     <use xlink:href="#OpenSans-Bold-32"/>
    </g>
   </g>
   <g id="text_44">
    <!-- 8 -->
    <g style="fill: #37539c" transform="translate(113.421415 245.614489) scale(0.08 -0.08)">
     <use xlink:href="#OpenSans-Bold-38"/>
    </g>
   </g>
   <g id="text_45">
    <!-- 3 -->
    <g style="fill: #37539c" transform="translate(103.67678 219.46344) scale(0.08 -0.08)">
     <use xlink:href="#OpenSans-Bold-33"/>
    </g>
   </g>
   <g id="text_46">
    <!-- 192 -->
    <g style="fill: #37539c" transform="translate(472.023951 193.312391) scale(0.08 -0.08)">
     <use xlink:href="#OpenSans-Bold-31"/>
     <use xlink:href="#OpenSans-Bold-39" x="57.177734"/>
     <use xlink:href="#OpenSans-Bold-32" x="114.355469"/>
    </g>
   </g>
   <g id="text_47">
    <!-- 27 -->
    <g style="fill: #37539c" transform="translate(150.451024 167.161342) scale(0.08 -0.08)">
     <use xlink:href="#OpenSans-Bold-32"/>
     <use xlink:href="#OpenSans-Bold-37" x="57.177734"/>
    </g>
   </g>
   <g id="text_48">
    <!-- 4 -->
    <g style="fill: #37539c" transform="translate(105.625707 141.010293) scale(0.08 -0.08)">
     <use xlink:href="#OpenSans-Bold-34"/>
    </g>
   </g>
   <g id="text_49">
    <!-- 1 -->
    <g style="fill: #37539c" transform="translate(99.778927 114.859244) scale(0.08 -0.08)">
     <use xlink:href="#OpenSans-Bold-31"/>
    </g>
   </g>
   <g id="text_50">
    <!-- 5 -->
    <g style="fill: #37539c" transform="translate(107.574634 88.708195) scale(0.08 -0.08)">
     <use xlink:href="#OpenSans-Bold-35"/>
    </g>
   </g>
   <g id="text_51">
    <!-- 1 -->
    <g style="fill: #37539c" transform="translate(99.778927 62.557146) scale(0.08 -0.08)">
     <use xlink:href="#OpenSans-Bold-31"/>
    </g>
   </g>
   <g id="text_52">
    <!-- 2 -->
    <g style="fill: #37539c" transform="translate(101.727854 36.406097) scale(0.08 -0.08)">
     <use xlink:href="#OpenSans-Bold-32"/>
    </g>
   </g>
   <g id="text_53">
    <!-- EBCT por regiones -->
    <g style="fill: #37539c" transform="translate(250.829375 16.56) scale(0.1 -0.1)">
     <defs>
      <path id="OpenSans-Bold-45" d="M 3206 0 
L 575 0 
L 575 4569 
L 3206 4569 
L 3206 3775 
L 1544 3775 
L 1544 2772 
L 3091 2772 
L 3091 1978 
L 1544 1978 
L 1544 800 
L 3206 800 
L 3206 0 
z
" transform="scale(0.015625)"/>
     </defs>
     <use xlink:href="#OpenSans-Bold-45"/>
     <use xlink:href="#OpenSans-Bold-42" x="56.005859"/>
     <use xlink:href="#OpenSans-Bold-43" x="123.193359"/>
     <use xlink:href="#OpenSans-Bold-54" x="186.914062"/>
     <use xlink:href="#OpenSans-Bold-20" x="244.824219"/>
     <use xlink:href="#OpenSans-Bold-70" x="270.800781"/>
     <use xlink:href="#OpenSans-Bold-6f" x="334.082031"/>
     <use xlink:href="#OpenSans-Bold-72" x="395.996094"/>
     <use xlink:href="#OpenSans-Bold-20" x="441.40625"/>
     <use xlink:href="#OpenSans-Bold-72" x="467.382812"/>
     <use xlink:href="#OpenSans-Bold-65" x="512.792969"/>
     <use xlink:href="#OpenSans-Bold-67" x="571.875"/>
     <use xlink:href="#OpenSans-Bold-69" x="628.369141"/>
     <use xlink:href="#OpenSans-Bold-6f" x="658.886719"/>
     <use xlink:href="#OpenSans-Bold-6e" x="720.800781"/>
     <use xlink:href="#OpenSans-Bold-65" x="786.523438"/>
     <use xlink:href="#OpenSans-Bold-73" x="845.605469"/>
    </g>
   </g>
   <g id="legend_1">
    <g id="patch_33">
     <path d="M 445.865 52.9625 
L 489.76 52.9625 
Q 491.36 52.9625 491.36 51.3625 
L 491.36 28.16 
Q 491.36 26.56 489.76 26.56 
L 445.865 26.56 
Q 444.265 26.56 444.265 28.16 
L 444.265 51.3625 
Q 444.265 52.9625 445.865 52.9625 
z
" style="fill: #ffffff; opacity: 0.8; stroke: #cccccc; stroke-linejoin: miter"/>
    </g>
    <g id="patch_34">
     <path d="M 447.465 35.83875 
L 463.465 35.83875 
L 463.465 30.23875 
L 447.465 30.23875 
z
" style="fill: #4969be"/>
    </g>
    <g id="text_54">
     <!-- 2020 -->
     <g style="fill: #37539c" transform="translate(469.865 35.83875) scale(0.08 -0.08)">
      <use xlink:href="#OpenSans-Bold-32"/>
      <use xlink:href="#OpenSans-Bold-30" x="57.177734"/>
      <use xlink:href="#OpenSans-Bold-32" x="114.355469"/>
      <use xlink:href="#OpenSans-Bold-30" x="171.533203"/>
     </g>
    </g>
    <g id="patch_35">
     <path d="M 447.465 47.84 
L 463.465 47.84 
L 463.465 42.24 
L 447.465 42.24 
z
" style="fill: #869cd4"/>
    </g>
    <g id="text_55">
     <!-- 2018 -->
     <g style="fill: #37539c" transform="translate(469.865 47.84) scale(0.08 -0.08)">
      <use xlink:href="#OpenSans-Bold-32"/>
      <use xlink:href="#OpenSans-Bold-30" x="57.177734"/>
      <use xlink:href="#OpenSans-Bold-31" x="114.355469"/>
      <use xlink:href="#OpenSans-Bold-38" x="171.533203"/>
     </g>
    </g>
   </g>
  </g>
 </g>
 <defs>
  <clipPath id="p9eedd77793">
   <rect x="95.83" y="22.56" width="399.53" height="373.96"/>
  </clipPath>
 </defs>
</svg>
