<?xml version="1.0" encoding="utf-8" standalone="no"?>
<!DOCTYPE svg PUBLIC "-//W3C//DTD SVG 1.1//EN"
  "http://www.w3.org/Graphics/SVG/1.1/DTD/svg11.dtd">
<svg xmlns:xlink="http://www.w3.org/1999/xlink" width="576pt" height="288pt" viewBox="0 0 576 288" xmlns="http://www.w3.org/2000/svg" version="1.1">
 <metadata>
  <rdf:RDF xmlns:dc="http://purl.org/dc/elements/1.1/" xmlns:cc="http://creativecommons.org/ns#" xmlns:rdf="http://www.w3.org/1999/02/22-rdf-syntax-ns#">
   <cc:Work>
    <dc:type rdf:resource="http://purl.org/dc/dcmitype/StillImage"/>
    <dc:date>2024-02-23T20:38:20.026818</dc:date>
    <dc:format>image/svg+xml</dc:format>
    <dc:creator>
     <cc:Agent>
      <dc:title>Matplotlib v3.7.1, https://matplotlib.org/</dc:title>
     </cc:Agent>
    </dc:creator>
   </cc:Work>
  </rdf:RDF>
 </metadata>
 <defs>
  <style type="text/css">*{stroke-linejoin: round; stroke-linecap: butt}</style>
 </defs>
 <g id="figure_1">
  <g id="patch_1">
   <path d="M 0 288 
L 576 288 
L 576 0 
L 0 0 
z
" style="fill: #ffffff"/>
  </g>
  <g id="axes_1">
   <g id="patch_2">
    <path d="M 54.83 260.12 
L 404.24 260.12 
L 404.24 10.8 
L 54.83 10.8 
z
" style="fill: #ffffff"/>
   </g>
   <g id="matplotlib.axis_1">
    <g id="xtick_1">
     <g id="line2d_1">
      <defs>
       <path id="m657e23f8a5" d="M 0 0 
L 0 3.5 
" style="stroke: #37539c; stroke-width: 0.8"/>
      </defs>
      <g>
       <use xlink:href="#m657e23f8a5" x="70.712273" y="260.12" style="fill: #37539c; stroke: #37539c; stroke-width: 0.8"/>
      </g>
     </g>
     <g id="text_1">
      <!-- 2013 -->
      <g style="fill: #37539c" transform="translate(59.277898 274.718437) scale(0.1 -0.1)">
       <defs>
        <path id="OpenSans-Bold-32" d="M 3450 0 
L 256 0 
L 256 672 
L 1403 1831 
Q 1750 2188 1961 2427 
Q 2172 2666 2267 2862 
Q 2363 3059 2363 3284 
Q 2363 3556 2211 3692 
Q 2059 3828 1806 3828 
Q 1541 3828 1291 3706 
Q 1041 3584 769 3359 
L 244 3981 
Q 441 4150 661 4300 
Q 881 4450 1173 4542 
Q 1466 4634 1875 4634 
Q 2325 4634 2648 4471 
Q 2972 4309 3147 4029 
Q 3322 3750 3322 3397 
Q 3322 3019 3172 2706 
Q 3022 2394 2736 2087 
Q 2450 1781 2047 1409 
L 1459 856 
L 1459 813 
L 3450 813 
L 3450 0 
z
" transform="scale(0.015625)"/>
        <path id="OpenSans-Bold-30" d="M 3425 2284 
Q 3425 1731 3339 1297 
Q 3253 863 3064 559 
Q 2875 256 2569 96 
Q 2263 -63 1825 -63 
Q 1275 -63 922 217 
Q 569 497 400 1023 
Q 231 1550 231 2284 
Q 231 3025 386 3551 
Q 541 4078 891 4359 
Q 1241 4641 1825 4641 
Q 2372 4641 2726 4361 
Q 3081 4081 3253 3554 
Q 3425 3028 3425 2284 
z
M 1191 2284 
Q 1191 1763 1248 1414 
Q 1306 1066 1443 891 
Q 1581 716 1825 716 
Q 2066 716 2205 889 
Q 2344 1063 2403 1411 
Q 2463 1759 2463 2284 
Q 2463 2806 2403 3156 
Q 2344 3506 2205 3682 
Q 2066 3859 1825 3859 
Q 1581 3859 1443 3682 
Q 1306 3506 1248 3156 
Q 1191 2806 1191 2284 
z
" transform="scale(0.015625)"/>
        <path id="OpenSans-Bold-31" d="M 2644 0 
L 1678 0 
L 1678 2644 
Q 1678 2753 1681 2914 
Q 1684 3075 1690 3245 
Q 1697 3416 1703 3553 
Q 1669 3513 1564 3414 
Q 1459 3316 1369 3238 
L 844 2816 
L 378 3397 
L 1850 4569 
L 2644 4569 
L 2644 0 
z
" transform="scale(0.015625)"/>
        <path id="OpenSans-Bold-33" d="M 3272 3547 
Q 3272 3231 3140 3000 
Q 3009 2769 2786 2622 
Q 2563 2475 2284 2406 
L 2284 2388 
Q 2834 2319 3120 2050 
Q 3406 1781 3406 1331 
Q 3406 931 3211 615 
Q 3016 300 2609 118 
Q 2203 -63 1563 -63 
Q 1184 -63 857 -2 
Q 531 59 244 184 
L 244 1006 
Q 538 856 859 779 
Q 1181 703 1459 703 
Q 1978 703 2186 883 
Q 2394 1063 2394 1388 
Q 2394 1578 2297 1709 
Q 2200 1841 1961 1909 
Q 1722 1978 1294 1978 
L 947 1978 
L 947 2719 
L 1300 2719 
Q 1722 2719 1942 2798 
Q 2163 2878 2242 3017 
Q 2322 3156 2322 3334 
Q 2322 3578 2172 3715 
Q 2022 3853 1672 3853 
Q 1453 3853 1273 3798 
Q 1094 3744 950 3667 
Q 806 3591 697 3519 
L 250 4184 
Q 519 4378 880 4506 
Q 1241 4634 1741 4634 
Q 2447 4634 2859 4350 
Q 3272 4066 3272 3547 
z
" transform="scale(0.015625)"/>
       </defs>
       <use xlink:href="#OpenSans-Bold-32"/>
       <use xlink:href="#OpenSans-Bold-30" x="57.177734"/>
       <use xlink:href="#OpenSans-Bold-31" x="114.355469"/>
       <use xlink:href="#OpenSans-Bold-33" x="171.533203"/>
      </g>
     </g>
    </g>
    <g id="xtick_2">
     <g id="line2d_2">
      <g>
       <use xlink:href="#m657e23f8a5" x="134.241364" y="260.12" style="fill: #37539c; stroke: #37539c; stroke-width: 0.8"/>
      </g>
     </g>
     <g id="text_2">
      <!-- 2014 -->
      <g style="fill: #37539c" transform="translate(122.806989 274.718437) scale(0.1 -0.1)">
       <defs>
        <path id="OpenSans-Bold-34" d="M 3553 947 
L 3003 947 
L 3003 0 
L 2059 0 
L 2059 947 
L 109 947 
L 109 1619 
L 2113 4569 
L 3003 4569 
L 3003 1697 
L 3553 1697 
L 3553 947 
z
M 2059 1697 
L 2059 2472 
Q 2059 2581 2064 2731 
Q 2069 2881 2075 3031 
Q 2081 3181 2089 3298 
Q 2097 3416 2100 3463 
L 2075 3463 
Q 2016 3334 1950 3214 
Q 1884 3094 1797 2963 
L 959 1697 
L 2059 1697 
z
" transform="scale(0.015625)"/>
       </defs>
       <use xlink:href="#OpenSans-Bold-32"/>
       <use xlink:href="#OpenSans-Bold-30" x="57.177734"/>
       <use xlink:href="#OpenSans-Bold-31" x="114.355469"/>
       <use xlink:href="#OpenSans-Bold-34" x="171.533203"/>
      </g>
     </g>
    </g>
    <g id="xtick_3">
     <g id="line2d_3">
      <g>
       <use xlink:href="#m657e23f8a5" x="197.770455" y="260.12" style="fill: #37539c; stroke: #37539c; stroke-width: 0.8"/>
      </g>
     </g>
     <g id="text_3">
      <!-- 2015 -->
      <g style="fill: #37539c" transform="translate(186.33608 274.718437) scale(0.1 -0.1)">
       <defs>
        <path id="OpenSans-Bold-35" d="M 1919 2919 
Q 2338 2919 2664 2759 
Q 2991 2600 3178 2290 
Q 3366 1981 3366 1528 
Q 3366 1034 3161 676 
Q 2956 319 2551 128 
Q 2147 -63 1544 -63 
Q 1184 -63 867 -2 
Q 550 59 313 184 
L 313 1019 
Q 550 894 883 808 
Q 1216 722 1509 722 
Q 1797 722 1994 798 
Q 2191 875 2292 1036 
Q 2394 1197 2394 1447 
Q 2394 1781 2169 1959 
Q 1944 2138 1478 2138 
Q 1300 2138 1108 2103 
Q 916 2069 788 2034 
L 403 2241 
L 575 4569 
L 3053 4569 
L 3053 3750 
L 1422 3750 
L 1338 2853 
Q 1444 2875 1569 2897 
Q 1694 2919 1919 2919 
z
" transform="scale(0.015625)"/>
       </defs>
       <use xlink:href="#OpenSans-Bold-32"/>
       <use xlink:href="#OpenSans-Bold-30" x="57.177734"/>
       <use xlink:href="#OpenSans-Bold-31" x="114.355469"/>
       <use xlink:href="#OpenSans-Bold-35" x="171.533203"/>
      </g>
     </g>
    </g>
    <g id="xtick_4">
     <g id="line2d_4">
      <g>
       <use xlink:href="#m657e23f8a5" x="261.299545" y="260.12" style="fill: #37539c; stroke: #37539c; stroke-width: 0.8"/>
      </g>
     </g>
     <g id="text_4">
      <!-- 2016 -->
      <g style="fill: #37539c" transform="translate(249.86517 274.718437) scale(0.1 -0.1)">
       <defs>
        <path id="OpenSans-Bold-36" d="M 225 1941 
Q 225 2334 283 2720 
Q 341 3106 484 3448 
Q 628 3791 887 4055 
Q 1147 4319 1547 4470 
Q 1947 4622 2516 4622 
Q 2650 4622 2829 4611 
Q 3009 4600 3128 4575 
L 3128 3803 
Q 3003 3831 2861 3848 
Q 2719 3866 2578 3866 
Q 2009 3866 1698 3684 
Q 1388 3503 1261 3183 
Q 1134 2863 1113 2438 
L 1153 2438 
Q 1241 2591 1373 2709 
Q 1506 2828 1697 2898 
Q 1888 2969 2144 2969 
Q 2544 2969 2837 2798 
Q 3131 2628 3290 2306 
Q 3450 1984 3450 1522 
Q 3450 1028 3259 672 
Q 3069 316 2720 126 
Q 2372 -63 1894 -63 
Q 1544 -63 1241 57 
Q 938 178 709 425 
Q 481 672 353 1048 
Q 225 1425 225 1941 
z
M 1875 709 
Q 2159 709 2337 903 
Q 2516 1097 2516 1509 
Q 2516 1844 2361 2036 
Q 2206 2228 1894 2228 
Q 1681 2228 1520 2133 
Q 1359 2038 1271 1892 
Q 1184 1747 1184 1594 
Q 1184 1434 1228 1278 
Q 1272 1122 1359 994 
Q 1447 866 1576 787 
Q 1706 709 1875 709 
z
" transform="scale(0.015625)"/>
       </defs>
       <use xlink:href="#OpenSans-Bold-32"/>
       <use xlink:href="#OpenSans-Bold-30" x="57.177734"/>
       <use xlink:href="#OpenSans-Bold-31" x="114.355469"/>
       <use xlink:href="#OpenSans-Bold-36" x="171.533203"/>
      </g>
     </g>
    </g>
    <g id="xtick_5">
     <g id="line2d_5">
      <g>
       <use xlink:href="#m657e23f8a5" x="324.828636" y="260.12" style="fill: #37539c; stroke: #37539c; stroke-width: 0.8"/>
      </g>
     </g>
     <g id="text_5">
      <!-- 2017 -->
      <g style="fill: #37539c" transform="translate(313.394261 274.718437) scale(0.1 -0.1)">
       <defs>
        <path id="OpenSans-Bold-37" d="M 709 0 
L 2425 3756 
L 172 3756 
L 172 4569 
L 3450 4569 
L 3450 3963 
L 1722 0 
L 709 0 
z
" transform="scale(0.015625)"/>
       </defs>
       <use xlink:href="#OpenSans-Bold-32"/>
       <use xlink:href="#OpenSans-Bold-30" x="57.177734"/>
       <use xlink:href="#OpenSans-Bold-31" x="114.355469"/>
       <use xlink:href="#OpenSans-Bold-37" x="171.533203"/>
      </g>
     </g>
    </g>
    <g id="xtick_6">
     <g id="line2d_6">
      <g>
       <use xlink:href="#m657e23f8a5" x="388.357727" y="260.12" style="fill: #37539c; stroke: #37539c; stroke-width: 0.8"/>
      </g>
     </g>
     <g id="text_6">
      <!-- 2018 -->
      <g style="fill: #37539c" transform="translate(376.923352 274.718437) scale(0.1 -0.1)">
       <defs>
        <path id="OpenSans-Bold-38" d="M 1831 4628 
Q 2225 4628 2558 4506 
Q 2891 4384 3091 4139 
Q 3291 3894 3291 3525 
Q 3291 3250 3183 3044 
Q 3075 2838 2890 2683 
Q 2706 2528 2472 2413 
Q 2716 2284 2934 2114 
Q 3153 1944 3292 1716 
Q 3431 1488 3431 1184 
Q 3431 803 3228 523 
Q 3025 244 2665 90 
Q 2306 -63 1831 -63 
Q 1319 -63 959 84 
Q 600 231 412 504 
Q 225 778 225 1159 
Q 225 1472 342 1703 
Q 459 1934 659 2101 
Q 859 2269 1100 2388 
Q 897 2516 730 2678 
Q 563 2841 464 3050 
Q 366 3259 366 3531 
Q 366 3894 570 4137 
Q 775 4381 1109 4504 
Q 1444 4628 1831 4628 
z
M 1119 1216 
Q 1119 969 1295 808 
Q 1472 647 1819 647 
Q 2178 647 2356 801 
Q 2534 956 2534 1209 
Q 2534 1384 2432 1515 
Q 2331 1647 2178 1751 
Q 2025 1856 1869 1947 
L 1784 1991 
Q 1584 1900 1436 1787 
Q 1288 1675 1203 1534 
Q 1119 1394 1119 1216 
z
M 1825 3922 
Q 1588 3922 1431 3800 
Q 1275 3678 1275 3456 
Q 1275 3300 1351 3183 
Q 1428 3066 1554 2978 
Q 1681 2891 1831 2816 
Q 1975 2884 2100 2968 
Q 2225 3053 2303 3172 
Q 2381 3291 2381 3456 
Q 2381 3678 2223 3800 
Q 2066 3922 1825 3922 
z
" transform="scale(0.015625)"/>
       </defs>
       <use xlink:href="#OpenSans-Bold-32"/>
       <use xlink:href="#OpenSans-Bold-30" x="57.177734"/>
       <use xlink:href="#OpenSans-Bold-31" x="114.355469"/>
       <use xlink:href="#OpenSans-Bold-38" x="171.533203"/>
      </g>
     </g>
    </g>
   </g>
   <g id="matplotlib.axis_2">
    <g id="ytick_1">
     <g id="line2d_7">
      <path d="M 54.83 228.547391 
L 404.24 228.547391 
" clip-path="url(#p68035c2fbf)" style="fill: none; stroke-dasharray: 2.96,1.28; stroke-dashoffset: 0; stroke: #b0b0b0; stroke-width: 0.8"/>
     </g>
     <g id="line2d_8">
      <defs>
       <path id="m4c033260a4" d="M 0 0 
L -3.5 0 
" style="stroke: #37539c; stroke-width: 0.8"/>
      </defs>
      <g>
       <use xlink:href="#m4c033260a4" x="54.83" y="228.547391" style="fill: #37539c; stroke: #37539c; stroke-width: 0.8"/>
      </g>
     </g>
     <g id="text_7">
      <!-- 500 -->
      <g style="fill: #37539c" transform="translate(30.678438 232.34661) scale(0.1 -0.1)">
       <use xlink:href="#OpenSans-Bold-35"/>
       <use xlink:href="#OpenSans-Bold-30" x="57.177734"/>
       <use xlink:href="#OpenSans-Bold-30" x="114.355469"/>
      </g>
     </g>
    </g>
    <g id="ytick_2">
     <g id="line2d_9">
      <path d="M 54.83 188.388896 
L 404.24 188.388896 
" clip-path="url(#p68035c2fbf)" style="fill: none; stroke-dasharray: 2.96,1.28; stroke-dashoffset: 0; stroke: #b0b0b0; stroke-width: 0.8"/>
     </g>
     <g id="line2d_10">
      <g>
       <use xlink:href="#m4c033260a4" x="54.83" y="188.388896" style="fill: #37539c; stroke: #37539c; stroke-width: 0.8"/>
      </g>
     </g>
     <g id="text_8">
      <!-- 1000 -->
      <g style="fill: #37539c" transform="translate(24.96125 192.188115) scale(0.1 -0.1)">
       <use xlink:href="#OpenSans-Bold-31"/>
       <use xlink:href="#OpenSans-Bold-30" x="57.177734"/>
       <use xlink:href="#OpenSans-Bold-30" x="114.355469"/>
       <use xlink:href="#OpenSans-Bold-30" x="171.533203"/>
      </g>
     </g>
    </g>
    <g id="ytick_3">
     <g id="line2d_11">
      <path d="M 54.83 148.230401 
L 404.24 148.230401 
" clip-path="url(#p68035c2fbf)" style="fill: none; stroke-dasharray: 2.96,1.28; stroke-dashoffset: 0; stroke: #b0b0b0; stroke-width: 0.8"/>
     </g>
     <g id="line2d_12">
      <g>
       <use xlink:href="#m4c033260a4" x="54.83" y="148.230401" style="fill: #37539c; stroke: #37539c; stroke-width: 0.8"/>
      </g>
     </g>
     <g id="text_9">
      <!-- 1500 -->
      <g style="fill: #37539c" transform="translate(24.96125 152.02962) scale(0.1 -0.1)">
       <use xlink:href="#OpenSans-Bold-31"/>
       <use xlink:href="#OpenSans-Bold-35" x="57.177734"/>
       <use xlink:href="#OpenSans-Bold-30" x="114.355469"/>
       <use xlink:href="#OpenSans-Bold-30" x="171.533203"/>
      </g>
     </g>
    </g>
    <g id="ytick_4">
     <g id="line2d_13">
      <path d="M 54.83 108.071906 
L 404.24 108.071906 
" clip-path="url(#p68035c2fbf)" style="fill: none; stroke-dasharray: 2.96,1.28; stroke-dashoffset: 0; stroke: #b0b0b0; stroke-width: 0.8"/>
     </g>
     <g id="line2d_14">
      <g>
       <use xlink:href="#m4c033260a4" x="54.83" y="108.071906" style="fill: #37539c; stroke: #37539c; stroke-width: 0.8"/>
      </g>
     </g>
     <g id="text_10">
      <!-- 2000 -->
      <g style="fill: #37539c" transform="translate(24.96125 111.871125) scale(0.1 -0.1)">
       <use xlink:href="#OpenSans-Bold-32"/>
       <use xlink:href="#OpenSans-Bold-30" x="57.177734"/>
       <use xlink:href="#OpenSans-Bold-30" x="114.355469"/>
       <use xlink:href="#OpenSans-Bold-30" x="171.533203"/>
      </g>
     </g>
    </g>
    <g id="ytick_5">
     <g id="line2d_15">
      <path d="M 54.83 67.913412 
L 404.24 67.913412 
" clip-path="url(#p68035c2fbf)" style="fill: none; stroke-dasharray: 2.96,1.28; stroke-dashoffset: 0; stroke: #b0b0b0; stroke-width: 0.8"/>
     </g>
     <g id="line2d_16">
      <g>
       <use xlink:href="#m4c033260a4" x="54.83" y="67.913412" style="fill: #37539c; stroke: #37539c; stroke-width: 0.8"/>
      </g>
     </g>
     <g id="text_11">
      <!-- 2500 -->
      <g style="fill: #37539c" transform="translate(24.96125 71.71263) scale(0.1 -0.1)">
       <use xlink:href="#OpenSans-Bold-32"/>
       <use xlink:href="#OpenSans-Bold-35" x="57.177734"/>
       <use xlink:href="#OpenSans-Bold-30" x="114.355469"/>
       <use xlink:href="#OpenSans-Bold-30" x="171.533203"/>
      </g>
     </g>
    </g>
    <g id="ytick_6">
     <g id="line2d_17">
      <path d="M 54.83 27.754917 
L 404.24 27.754917 
" clip-path="url(#p68035c2fbf)" style="fill: none; stroke-dasharray: 2.96,1.28; stroke-dashoffset: 0; stroke: #b0b0b0; stroke-width: 0.8"/>
     </g>
     <g id="line2d_18">
      <g>
       <use xlink:href="#m4c033260a4" x="54.83" y="27.754917" style="fill: #37539c; stroke: #37539c; stroke-width: 0.8"/>
      </g>
     </g>
     <g id="text_12">
      <!-- 3000 -->
      <g style="fill: #37539c" transform="translate(24.96125 31.554135) scale(0.1 -0.1)">
       <use xlink:href="#OpenSans-Bold-33"/>
       <use xlink:href="#OpenSans-Bold-30" x="57.177734"/>
       <use xlink:href="#OpenSans-Bold-30" x="114.355469"/>
       <use xlink:href="#OpenSans-Bold-30" x="171.533203"/>
      </g>
     </g>
    </g>
    <g id="text_13">
     <!-- Jornadas completas equivalentes trabajadas -->
     <g style="fill: #37539c" transform="translate(18.558125 246.281875) rotate(-90) scale(0.1 -0.1)">
      <defs>
       <path id="OpenSans-Bold-4a" d="M 97 -1344 
Q -91 -1344 -233 -1323 
Q -375 -1303 -475 -1275 
L -475 -469 
Q -375 -491 -261 -511 
Q -147 -531 -19 -531 
Q 150 -531 284 -467 
Q 419 -403 497 -225 
Q 575 -47 575 288 
L 575 4569 
L 1544 4569 
L 1544 294 
Q 1544 -294 1361 -655 
Q 1178 -1016 851 -1180 
Q 525 -1344 97 -1344 
z
" transform="scale(0.015625)"/>
       <path id="OpenSans-Bold-6f" d="M 3675 1753 
Q 3675 1316 3558 978 
Q 3441 641 3217 408 
Q 2994 175 2680 56 
Q 2366 -63 1972 -63 
Q 1603 -63 1295 56 
Q 988 175 761 408 
Q 534 641 411 978 
Q 288 1316 288 1753 
Q 288 2334 494 2737 
Q 700 3141 1081 3350 
Q 1463 3559 1991 3559 
Q 2481 3559 2861 3350 
Q 3241 3141 3458 2737 
Q 3675 2334 3675 1753 
z
M 1259 1753 
Q 1259 1409 1334 1175 
Q 1409 941 1568 822 
Q 1728 703 1984 703 
Q 2238 703 2395 822 
Q 2553 941 2626 1175 
Q 2700 1409 2700 1753 
Q 2700 2100 2626 2329 
Q 2553 2559 2393 2675 
Q 2234 2791 1978 2791 
Q 1600 2791 1429 2531 
Q 1259 2272 1259 1753 
z
" transform="scale(0.015625)"/>
       <path id="OpenSans-Bold-72" d="M 2450 3559 
Q 2522 3559 2617 3551 
Q 2713 3544 2772 3531 
L 2700 2638 
Q 2653 2653 2567 2661 
Q 2481 2669 2419 2669 
Q 2234 2669 2061 2622 
Q 1888 2575 1750 2470 
Q 1613 2366 1533 2195 
Q 1453 2025 1453 1778 
L 1453 0 
L 500 0 
L 500 3494 
L 1222 3494 
L 1363 2906 
L 1409 2906 
Q 1513 3084 1667 3232 
Q 1822 3381 2020 3470 
Q 2219 3559 2450 3559 
z
" transform="scale(0.015625)"/>
       <path id="OpenSans-Bold-6e" d="M 2484 3559 
Q 3044 3559 3384 3254 
Q 3725 2950 3725 2278 
L 3725 0 
L 2772 0 
L 2772 2041 
Q 2772 2416 2636 2606 
Q 2500 2797 2209 2797 
Q 1772 2797 1612 2500 
Q 1453 2203 1453 1644 
L 1453 0 
L 500 0 
L 500 3494 
L 1228 3494 
L 1356 3047 
L 1409 3047 
Q 1522 3228 1689 3340 
Q 1856 3453 2061 3506 
Q 2266 3559 2484 3559 
z
" transform="scale(0.015625)"/>
       <path id="OpenSans-Bold-61" d="M 1931 3566 
Q 2634 3566 3009 3259 
Q 3384 2953 3384 2328 
L 3384 0 
L 2719 0 
L 2534 475 
L 2509 475 
Q 2359 288 2203 169 
Q 2047 50 1844 -6 
Q 1641 -63 1350 -63 
Q 1041 -63 795 56 
Q 550 175 409 420 
Q 269 666 269 1044 
Q 269 1600 659 1864 
Q 1050 2128 1831 2156 
L 2438 2175 
L 2438 2328 
Q 2438 2603 2294 2731 
Q 2150 2859 1894 2859 
Q 1641 2859 1397 2787 
Q 1153 2716 909 2606 
L 594 3250 
Q 872 3397 1217 3481 
Q 1563 3566 1931 3566 
z
M 2438 1619 
L 2069 1606 
Q 1606 1594 1426 1441 
Q 1247 1288 1247 1038 
Q 1247 819 1375 726 
Q 1503 634 1709 634 
Q 2016 634 2227 815 
Q 2438 997 2438 1331 
L 2438 1619 
z
" transform="scale(0.015625)"/>
       <path id="OpenSans-Bold-64" d="M 1606 -63 
Q 1022 -63 655 395 
Q 288 853 288 1741 
Q 288 2638 659 3098 
Q 1031 3559 1631 3559 
Q 1881 3559 2072 3490 
Q 2263 3422 2402 3306 
Q 2541 3191 2638 3047 
L 2669 3047 
Q 2650 3147 2623 3342 
Q 2597 3538 2597 3744 
L 2597 4863 
L 3553 4863 
L 3553 0 
L 2822 0 
L 2638 453 
L 2597 453 
Q 2506 309 2370 192 
Q 2234 75 2046 6 
Q 1859 -63 1606 -63 
z
M 1941 697 
Q 2331 697 2492 930 
Q 2653 1163 2663 1631 
L 2663 1734 
Q 2663 2244 2506 2514 
Q 2350 2784 1925 2784 
Q 1609 2784 1431 2512 
Q 1253 2241 1253 1728 
Q 1253 1216 1433 956 
Q 1613 697 1941 697 
z
" transform="scale(0.015625)"/>
       <path id="OpenSans-Bold-73" d="M 2938 1038 
Q 2938 681 2770 436 
Q 2603 191 2272 64 
Q 1941 -63 1447 -63 
Q 1081 -63 820 -16 
Q 559 31 294 141 
L 294 928 
Q 578 800 904 717 
Q 1231 634 1478 634 
Q 1756 634 1876 717 
Q 1997 800 1997 934 
Q 1997 1022 1948 1092 
Q 1900 1163 1740 1252 
Q 1581 1341 1241 1484 
Q 913 1622 702 1762 
Q 491 1903 389 2095 
Q 288 2288 288 2584 
Q 288 3069 664 3314 
Q 1041 3559 1672 3559 
Q 1997 3559 2292 3493 
Q 2588 3428 2900 3284 
L 2613 2597 
Q 2353 2709 2123 2781 
Q 1894 2853 1656 2853 
Q 1447 2853 1340 2797 
Q 1234 2741 1234 2625 
Q 1234 2541 1289 2475 
Q 1344 2409 1501 2329 
Q 1659 2250 1966 2125 
Q 2263 2003 2481 1870 
Q 2700 1738 2819 1542 
Q 2938 1347 2938 1038 
z
" transform="scale(0.015625)"/>
       <path id="OpenSans-Bold-20" transform="scale(0.015625)"/>
       <path id="OpenSans-Bold-63" d="M 1919 -63 
Q 1400 -63 1034 126 
Q 669 316 478 712 
Q 288 1109 288 1728 
Q 288 2369 505 2773 
Q 722 3178 1108 3368 
Q 1494 3559 2003 3559 
Q 2366 3559 2630 3489 
Q 2894 3419 3091 3322 
L 2809 2584 
Q 2584 2675 2390 2733 
Q 2197 2791 2003 2791 
Q 1753 2791 1587 2673 
Q 1422 2556 1340 2322 
Q 1259 2088 1259 1734 
Q 1259 1388 1346 1159 
Q 1434 931 1600 820 
Q 1766 709 2003 709 
Q 2300 709 2531 789 
Q 2763 869 2981 1013 
L 2981 197 
Q 2763 59 2523 -2 
Q 2284 -63 1919 -63 
z
" transform="scale(0.015625)"/>
       <path id="OpenSans-Bold-6d" d="M 4603 3559 
Q 5197 3559 5501 3254 
Q 5806 2950 5806 2278 
L 5806 0 
L 4850 0 
L 4850 2041 
Q 4850 2416 4722 2606 
Q 4594 2797 4325 2797 
Q 3947 2797 3787 2526 
Q 3628 2256 3628 1753 
L 3628 0 
L 2675 0 
L 2675 2041 
Q 2675 2291 2619 2459 
Q 2563 2628 2447 2712 
Q 2331 2797 2150 2797 
Q 1884 2797 1732 2664 
Q 1581 2531 1517 2273 
Q 1453 2016 1453 1644 
L 1453 0 
L 500 0 
L 500 3494 
L 1228 3494 
L 1356 3047 
L 1409 3047 
Q 1516 3228 1677 3340 
Q 1838 3453 2031 3506 
Q 2225 3559 2425 3559 
Q 2809 3559 3076 3434 
Q 3344 3309 3488 3047 
L 3572 3047 
Q 3728 3316 4014 3437 
Q 4300 3559 4603 3559 
z
" transform="scale(0.015625)"/>
       <path id="OpenSans-Bold-70" d="M 2444 3559 
Q 3034 3559 3398 3100 
Q 3763 2641 3763 1753 
Q 3763 1159 3591 754 
Q 3419 350 3116 143 
Q 2813 -63 2419 -63 
Q 2166 -63 1984 1 
Q 1803 66 1675 167 
Q 1547 269 1453 384 
L 1403 384 
Q 1428 259 1440 128 
Q 1453 -3 1453 -128 
L 1453 -1538 
L 500 -1538 
L 500 3494 
L 1275 3494 
L 1409 3041 
L 1453 3041 
Q 1547 3181 1681 3300 
Q 1816 3419 2005 3489 
Q 2194 3559 2444 3559 
z
M 2138 2797 
Q 1888 2797 1741 2694 
Q 1594 2591 1526 2384 
Q 1459 2178 1453 1863 
L 1453 1759 
Q 1453 1422 1517 1187 
Q 1581 953 1732 831 
Q 1884 709 2150 709 
Q 2369 709 2509 831 
Q 2650 953 2720 1189 
Q 2791 1425 2791 1766 
Q 2791 2278 2631 2537 
Q 2472 2797 2138 2797 
z
" transform="scale(0.015625)"/>
       <path id="OpenSans-Bold-6c" d="M 1453 0 
L 500 0 
L 500 4863 
L 1453 4863 
L 1453 0 
z
" transform="scale(0.015625)"/>
       <path id="OpenSans-Bold-65" d="M 1941 3559 
Q 2425 3559 2775 3373 
Q 3125 3188 3315 2834 
Q 3506 2481 3506 1972 
L 3506 1509 
L 1253 1509 
Q 1269 1106 1495 876 
Q 1722 647 2125 647 
Q 2459 647 2737 715 
Q 3016 784 3309 922 
L 3309 184 
Q 3050 56 2767 -3 
Q 2484 -63 2081 -63 
Q 1556 -63 1151 131 
Q 747 325 517 722 
Q 288 1119 288 1722 
Q 288 2334 495 2742 
Q 703 3150 1075 3354 
Q 1447 3559 1941 3559 
z
M 1947 2881 
Q 1669 2881 1486 2703 
Q 1303 2525 1275 2144 
L 2613 2144 
Q 2609 2356 2536 2522 
Q 2463 2688 2317 2784 
Q 2172 2881 1947 2881 
z
" transform="scale(0.015625)"/>
       <path id="OpenSans-Bold-74" d="M 1972 697 
Q 2128 697 2276 728 
Q 2425 759 2572 806 
L 2572 97 
Q 2419 28 2192 -17 
Q 1966 -63 1697 -63 
Q 1384 -63 1136 39 
Q 888 141 745 392 
Q 603 644 603 1094 
L 603 2778 
L 147 2778 
L 147 3181 
L 672 3500 
L 947 4238 
L 1556 4238 
L 1556 3494 
L 2534 3494 
L 2534 2778 
L 1556 2778 
L 1556 1094 
Q 1556 894 1670 795 
Q 1784 697 1972 697 
z
" transform="scale(0.015625)"/>
       <path id="OpenSans-Bold-71" d="M 2597 -1538 
L 2597 -72 
Q 2597 59 2608 192 
Q 2619 325 2638 453 
L 2597 453 
Q 2463 238 2227 87 
Q 1991 -63 1606 -63 
Q 1016 -63 652 395 
Q 288 853 288 1741 
Q 288 2338 456 2742 
Q 625 3147 926 3353 
Q 1228 3559 1625 3559 
Q 2009 3559 2248 3411 
Q 2488 3263 2638 3047 
L 2663 3047 
L 2747 3494 
L 3553 3494 
L 3553 -1538 
L 2597 -1538 
z
M 1947 684 
Q 2209 684 2364 787 
Q 2519 891 2587 1098 
Q 2656 1306 2663 1619 
L 2663 1734 
Q 2663 2244 2506 2514 
Q 2350 2784 1931 2784 
Q 1591 2784 1425 2512 
Q 1259 2241 1259 1728 
Q 1259 1206 1428 945 
Q 1597 684 1947 684 
z
" transform="scale(0.015625)"/>
       <path id="OpenSans-Bold-75" d="M 3706 3494 
L 3706 0 
L 2975 0 
L 2847 447 
L 2797 447 
Q 2684 269 2515 156 
Q 2347 44 2144 -9 
Q 1941 -63 1722 -63 
Q 1347 -63 1069 70 
Q 791 203 636 484 
Q 481 766 481 1216 
L 481 3494 
L 1434 3494 
L 1434 1453 
Q 1434 1078 1568 887 
Q 1703 697 1997 697 
Q 2288 697 2453 830 
Q 2619 963 2686 1220 
Q 2753 1478 2753 1850 
L 2753 3494 
L 3706 3494 
z
" transform="scale(0.015625)"/>
       <path id="OpenSans-Bold-69" d="M 1453 3494 
L 1453 0 
L 500 0 
L 500 3494 
L 1453 3494 
z
M 978 4863 
Q 1191 4863 1344 4764 
Q 1497 4666 1497 4397 
Q 1497 4131 1344 4029 
Q 1191 3928 978 3928 
Q 763 3928 611 4029 
Q 459 4131 459 4397 
Q 459 4666 611 4764 
Q 763 4863 978 4863 
z
" transform="scale(0.015625)"/>
       <path id="OpenSans-Bold-76" d="M 1331 0 
L 0 3494 
L 997 3494 
L 1672 1503 
Q 1728 1328 1761 1134 
Q 1794 941 1806 788 
L 1831 788 
Q 1841 953 1877 1140 
Q 1913 1328 1972 1503 
L 2644 3494 
L 3641 3494 
L 2309 0 
L 1331 0 
z
" transform="scale(0.015625)"/>
       <path id="OpenSans-Bold-62" d="M 1453 4863 
L 1453 3731 
Q 1453 3534 1442 3340 
Q 1431 3147 1416 3041 
L 1453 3041 
Q 1591 3256 1828 3407 
Q 2066 3559 2444 3559 
Q 3031 3559 3397 3100 
Q 3763 2641 3763 1753 
Q 3763 1156 3594 751 
Q 3425 347 3122 142 
Q 2819 -63 2419 -63 
Q 2034 -63 1812 75 
Q 1591 213 1453 384 
L 1388 384 
L 1228 0 
L 500 0 
L 500 4863 
L 1453 4863 
z
M 2138 2797 
Q 1888 2797 1741 2694 
Q 1594 2591 1526 2384 
Q 1459 2178 1453 1863 
L 1453 1759 
Q 1453 1250 1603 979 
Q 1753 709 2150 709 
Q 2444 709 2617 981 
Q 2791 1253 2791 1766 
Q 2791 2278 2616 2537 
Q 2441 2797 2138 2797 
z
" transform="scale(0.015625)"/>
       <path id="OpenSans-Bold-6a" d="M 219 -1538 
Q 56 -1538 -119 -1514 
Q -294 -1491 -409 -1459 
L -409 -709 
Q -294 -741 -192 -755 
Q -91 -769 38 -769 
Q 231 -769 365 -661 
Q 500 -553 500 -238 
L 500 3494 
L 1453 3494 
L 1453 -378 
Q 1453 -697 1331 -961 
Q 1209 -1225 937 -1381 
Q 666 -1538 219 -1538 
z
M 459 4397 
Q 459 4666 611 4764 
Q 763 4863 978 4863 
Q 1191 4863 1344 4764 
Q 1497 4666 1497 4397 
Q 1497 4131 1344 4029 
Q 1191 3928 978 3928 
Q 763 3928 611 4029 
Q 459 4131 459 4397 
z
" transform="scale(0.015625)"/>
      </defs>
      <use xlink:href="#OpenSans-Bold-4a"/>
      <use xlink:href="#OpenSans-Bold-6f" x="33.105469"/>
      <use xlink:href="#OpenSans-Bold-72" x="95.019531"/>
      <use xlink:href="#OpenSans-Bold-6e" x="140.429688"/>
      <use xlink:href="#OpenSans-Bold-61" x="206.152344"/>
      <use xlink:href="#OpenSans-Bold-64" x="266.552734"/>
      <use xlink:href="#OpenSans-Bold-61" x="329.833984"/>
      <use xlink:href="#OpenSans-Bold-73" x="390.234375"/>
      <use xlink:href="#OpenSans-Bold-20" x="439.941406"/>
      <use xlink:href="#OpenSans-Bold-63" x="465.917969"/>
      <use xlink:href="#OpenSans-Bold-6f" x="517.333984"/>
      <use xlink:href="#OpenSans-Bold-6d" x="579.248047"/>
      <use xlink:href="#OpenSans-Bold-70" x="677.441406"/>
      <use xlink:href="#OpenSans-Bold-6c" x="740.722656"/>
      <use xlink:href="#OpenSans-Bold-65" x="771.240234"/>
      <use xlink:href="#OpenSans-Bold-74" x="830.322266"/>
      <use xlink:href="#OpenSans-Bold-61" x="873.730469"/>
      <use xlink:href="#OpenSans-Bold-73" x="934.130859"/>
      <use xlink:href="#OpenSans-Bold-20" x="983.837891"/>
      <use xlink:href="#OpenSans-Bold-65" x="1009.814453"/>
      <use xlink:href="#OpenSans-Bold-71" x="1068.896484"/>
      <use xlink:href="#OpenSans-Bold-75" x="1132.177734"/>
      <use xlink:href="#OpenSans-Bold-69" x="1197.900391"/>
      <use xlink:href="#OpenSans-Bold-76" x="1228.417969"/>
      <use xlink:href="#OpenSans-Bold-61" x="1285.302734"/>
      <use xlink:href="#OpenSans-Bold-6c" x="1345.703125"/>
      <use xlink:href="#OpenSans-Bold-65" x="1376.220703"/>
      <use xlink:href="#OpenSans-Bold-6e" x="1435.302734"/>
      <use xlink:href="#OpenSans-Bold-74" x="1501.025391"/>
      <use xlink:href="#OpenSans-Bold-65" x="1544.433594"/>
      <use xlink:href="#OpenSans-Bold-73" x="1603.515625"/>
      <use xlink:href="#OpenSans-Bold-20" x="1653.222656"/>
      <use xlink:href="#OpenSans-Bold-74" x="1679.199219"/>
      <use xlink:href="#OpenSans-Bold-72" x="1722.607422"/>
      <use xlink:href="#OpenSans-Bold-61" x="1768.017578"/>
      <use xlink:href="#OpenSans-Bold-62" x="1828.417969"/>
      <use xlink:href="#OpenSans-Bold-61" x="1891.699219"/>
      <use xlink:href="#OpenSans-Bold-6a" x="1952.099609"/>
      <use xlink:href="#OpenSans-Bold-61" x="1982.617188"/>
      <use xlink:href="#OpenSans-Bold-64" x="2043.017578"/>
      <use xlink:href="#OpenSans-Bold-61" x="2106.298828"/>
      <use xlink:href="#OpenSans-Bold-73" x="2166.699219"/>
     </g>
    </g>
   </g>
   <g id="line2d_19">
    <path d="M 70.712273 208.628778 
L 134.241364 206.058634 
L 197.770455 183.730511 
L 261.299545 194.814256 
L 324.828636 187.264458 
L 388.357727 194.733939 
" clip-path="url(#p68035c2fbf)" style="fill: none; stroke: #37539c; stroke-width: 1.5; stroke-linecap: square"/>
    <defs>
     <path id="m82f438a4f3" d="M 0 2 
C 0.530406 2 1.03916 1.789267 1.414214 1.414214 
C 1.789267 1.03916 2 0.530406 2 0 
C 2 -0.530406 1.789267 -1.03916 1.414214 -1.414214 
C 1.03916 -1.789267 0.530406 -2 0 -2 
C -0.530406 -2 -1.03916 -1.789267 -1.414214 -1.414214 
C -1.789267 -1.03916 -2 -0.530406 -2 0 
C -2 0.530406 -1.789267 1.03916 -1.414214 1.414214 
C -1.03916 1.789267 -0.530406 2 0 2 
z
" style="stroke: #37539c"/>
    </defs>
    <g clip-path="url(#p68035c2fbf)">
     <use xlink:href="#m82f438a4f3" x="70.712273" y="208.628778" style="fill: #37539c; stroke: #37539c"/>
     <use xlink:href="#m82f438a4f3" x="134.241364" y="206.058634" style="fill: #37539c; stroke: #37539c"/>
     <use xlink:href="#m82f438a4f3" x="197.770455" y="183.730511" style="fill: #37539c; stroke: #37539c"/>
     <use xlink:href="#m82f438a4f3" x="261.299545" y="194.814256" style="fill: #37539c; stroke: #37539c"/>
     <use xlink:href="#m82f438a4f3" x="324.828636" y="187.264458" style="fill: #37539c; stroke: #37539c"/>
     <use xlink:href="#m82f438a4f3" x="388.357727" y="194.733939" style="fill: #37539c; stroke: #37539c"/>
    </g>
   </g>
   <g id="line2d_20">
    <path d="M 70.712273 166.060773 
L 134.241364 95.542456 
L 197.770455 92.49041 
L 261.299545 59.239177 
L 324.828636 47.994798 
L 388.357727 22.132727 
" clip-path="url(#p68035c2fbf)" style="fill: none; stroke: #59c3c3; stroke-width: 1.5; stroke-linecap: square"/>
    <defs>
     <path id="mc0615ec566" d="M 0 2 
C 0.530406 2 1.03916 1.789267 1.414214 1.414214 
C 1.789267 1.03916 2 0.530406 2 0 
C 2 -0.530406 1.789267 -1.03916 1.414214 -1.414214 
C 1.03916 -1.789267 0.530406 -2 0 -2 
C -0.530406 -2 -1.03916 -1.789267 -1.414214 -1.414214 
C -1.789267 -1.03916 -2 -0.530406 -2 0 
C -2 0.530406 -1.789267 1.03916 -1.414214 1.414214 
C -1.03916 1.789267 -0.530406 2 0 2 
z
" style="stroke: #59c3c3"/>
    </defs>
    <g clip-path="url(#p68035c2fbf)">
     <use xlink:href="#mc0615ec566" x="70.712273" y="166.060773" style="fill: #59c3c3; stroke: #59c3c3"/>
     <use xlink:href="#mc0615ec566" x="134.241364" y="95.542456" style="fill: #59c3c3; stroke: #59c3c3"/>
     <use xlink:href="#mc0615ec566" x="197.770455" y="92.49041" style="fill: #59c3c3; stroke: #59c3c3"/>
     <use xlink:href="#mc0615ec566" x="261.299545" y="59.239177" style="fill: #59c3c3; stroke: #59c3c3"/>
     <use xlink:href="#mc0615ec566" x="324.828636" y="47.994798" style="fill: #59c3c3; stroke: #59c3c3"/>
     <use xlink:href="#mc0615ec566" x="388.357727" y="22.132727" style="fill: #59c3c3; stroke: #59c3c3"/>
    </g>
   </g>
   <g id="line2d_21">
    <path d="M 70.712273 112.168073 
L 134.241364 56.187131 
L 197.770455 51.609063 
L 261.299545 26.228894 
L 324.828636 31.529815 
L 388.357727 37.714223 
" clip-path="url(#p68035c2fbf)" style="fill: none; stroke: #f45b69; stroke-width: 1.5; stroke-linecap: square"/>
    <defs>
     <path id="m5d9784a459" d="M 0 2 
C 0.530406 2 1.03916 1.789267 1.414214 1.414214 
C 1.789267 1.03916 2 0.530406 2 0 
C 2 -0.530406 1.789267 -1.03916 1.414214 -1.414214 
C 1.03916 -1.789267 0.530406 -2 0 -2 
C -0.530406 -2 -1.03916 -1.789267 -1.414214 -1.414214 
C -1.789267 -1.03916 -2 -0.530406 -2 0 
C -2 0.530406 -1.789267 1.03916 -1.414214 1.414214 
C -1.03916 1.789267 -0.530406 2 0 2 
z
" style="stroke: #f45b69"/>
    </defs>
    <g clip-path="url(#p68035c2fbf)">
     <use xlink:href="#m5d9784a459" x="70.712273" y="112.168073" style="fill: #f45b69; stroke: #f45b69"/>
     <use xlink:href="#m5d9784a459" x="134.241364" y="56.187131" style="fill: #f45b69; stroke: #f45b69"/>
     <use xlink:href="#m5d9784a459" x="197.770455" y="51.609063" style="fill: #f45b69; stroke: #f45b69"/>
     <use xlink:href="#m5d9784a459" x="261.299545" y="26.228894" style="fill: #f45b69; stroke: #f45b69"/>
     <use xlink:href="#m5d9784a459" x="324.828636" y="31.529815" style="fill: #f45b69; stroke: #f45b69"/>
     <use xlink:href="#m5d9784a459" x="388.357727" y="37.714223" style="fill: #f45b69; stroke: #f45b69"/>
    </g>
   </g>
   <g id="line2d_22">
    <path d="M 70.712273 208.950046 
L 134.241364 205.817683 
L 197.770455 206.620853 
L 261.299545 207.022438 
L 324.828636 204.050709 
L 388.357727 196.902497 
" clip-path="url(#p68035c2fbf)" style="fill: none; stroke: #52489c; stroke-width: 1.5; stroke-linecap: square"/>
    <defs>
     <path id="mdfb3be5db1" d="M 0 2 
C 0.530406 2 1.03916 1.789267 1.414214 1.414214 
C 1.789267 1.03916 2 0.530406 2 0 
C 2 -0.530406 1.789267 -1.03916 1.414214 -1.414214 
C 1.03916 -1.789267 0.530406 -2 0 -2 
C -0.530406 -2 -1.03916 -1.789267 -1.414214 -1.414214 
C -1.789267 -1.03916 -2 -0.530406 -2 0 
C -2 0.530406 -1.789267 1.03916 -1.414214 1.414214 
C -1.03916 1.789267 -0.530406 2 0 2 
z
" style="stroke: #52489c"/>
    </defs>
    <g clip-path="url(#p68035c2fbf)">
     <use xlink:href="#mdfb3be5db1" x="70.712273" y="208.950046" style="fill: #52489c; stroke: #52489c"/>
     <use xlink:href="#mdfb3be5db1" x="134.241364" y="205.817683" style="fill: #52489c; stroke: #52489c"/>
     <use xlink:href="#mdfb3be5db1" x="197.770455" y="206.620853" style="fill: #52489c; stroke: #52489c"/>
     <use xlink:href="#mdfb3be5db1" x="261.299545" y="207.022438" style="fill: #52489c; stroke: #52489c"/>
     <use xlink:href="#mdfb3be5db1" x="324.828636" y="204.050709" style="fill: #52489c; stroke: #52489c"/>
     <use xlink:href="#mdfb3be5db1" x="388.357727" y="196.902497" style="fill: #52489c; stroke: #52489c"/>
    </g>
   </g>
   <g id="line2d_23">
    <path d="M 70.712273 198.589154 
L 134.241364 196.259961 
L 197.770455 178.188639 
L 261.299545 167.024577 
L 324.828636 166.462358 
L 388.357727 176.02008 
" clip-path="url(#p68035c2fbf)" style="fill: none; stroke: #9fb7b9; stroke-width: 1.5; stroke-linecap: square"/>
    <defs>
     <path id="mb23ea73e3a" d="M 0 2 
C 0.530406 2 1.03916 1.789267 1.414214 1.414214 
C 1.789267 1.03916 2 0.530406 2 0 
C 2 -0.530406 1.789267 -1.03916 1.414214 -1.414214 
C 1.03916 -1.789267 0.530406 -2 0 -2 
C -0.530406 -2 -1.03916 -1.789267 -1.414214 -1.414214 
C -1.789267 -1.03916 -2 -0.530406 -2 0 
C -2 0.530406 -1.789267 1.03916 -1.414214 1.414214 
C -1.03916 1.789267 -0.530406 2 0 2 
z
" style="stroke: #9fb7b9"/>
    </defs>
    <g clip-path="url(#p68035c2fbf)">
     <use xlink:href="#mb23ea73e3a" x="70.712273" y="198.589154" style="fill: #9fb7b9; stroke: #9fb7b9"/>
     <use xlink:href="#mb23ea73e3a" x="134.241364" y="196.259961" style="fill: #9fb7b9; stroke: #9fb7b9"/>
     <use xlink:href="#mb23ea73e3a" x="197.770455" y="178.188639" style="fill: #9fb7b9; stroke: #9fb7b9"/>
     <use xlink:href="#mb23ea73e3a" x="261.299545" y="167.024577" style="fill: #9fb7b9; stroke: #9fb7b9"/>
     <use xlink:href="#mb23ea73e3a" x="324.828636" y="166.462358" style="fill: #9fb7b9; stroke: #9fb7b9"/>
     <use xlink:href="#mb23ea73e3a" x="388.357727" y="176.02008" style="fill: #9fb7b9; stroke: #9fb7b9"/>
    </g>
   </g>
   <g id="line2d_24">
    <path d="M 70.712273 248.787273 
L 134.241364 247.341567 
L 197.770455 248.787273 
L 261.299545 236.177505 
L 324.828636 244.209204 
L 388.357727 245.494276 
" clip-path="url(#p68035c2fbf)" style="fill: none; stroke: #bcc1ba; stroke-width: 1.5; stroke-linecap: square"/>
    <defs>
     <path id="m2c4b0a1cf1" d="M 0 2 
C 0.530406 2 1.03916 1.789267 1.414214 1.414214 
C 1.789267 1.03916 2 0.530406 2 0 
C 2 -0.530406 1.789267 -1.03916 1.414214 -1.414214 
C 1.03916 -1.789267 0.530406 -2 0 -2 
C -0.530406 -2 -1.03916 -1.789267 -1.414214 -1.414214 
C -1.789267 -1.03916 -2 -0.530406 -2 0 
C -2 0.530406 -1.789267 1.03916 -1.414214 1.414214 
C -1.03916 1.789267 -0.530406 2 0 2 
z
" style="stroke: #bcc1ba"/>
    </defs>
    <g clip-path="url(#p68035c2fbf)">
     <use xlink:href="#m2c4b0a1cf1" x="70.712273" y="248.787273" style="fill: #bcc1ba; stroke: #bcc1ba"/>
     <use xlink:href="#m2c4b0a1cf1" x="134.241364" y="247.341567" style="fill: #bcc1ba; stroke: #bcc1ba"/>
     <use xlink:href="#m2c4b0a1cf1" x="197.770455" y="248.787273" style="fill: #bcc1ba; stroke: #bcc1ba"/>
     <use xlink:href="#m2c4b0a1cf1" x="261.299545" y="236.177505" style="fill: #bcc1ba; stroke: #bcc1ba"/>
     <use xlink:href="#m2c4b0a1cf1" x="324.828636" y="244.209204" style="fill: #bcc1ba; stroke: #bcc1ba"/>
     <use xlink:href="#m2c4b0a1cf1" x="388.357727" y="245.494276" style="fill: #bcc1ba; stroke: #bcc1ba"/>
    </g>
   </g>
   <g id="patch_3">
    <path d="M 54.83 260.12 
L 54.83 10.8 
" style="fill: none; stroke: #000000; stroke-width: 0.8; stroke-linejoin: miter; stroke-linecap: square"/>
   </g>
   <g id="patch_4">
    <path d="M 54.83 260.12 
L 404.24 260.12 
" style="fill: none; stroke: #000000; stroke-width: 0.8; stroke-linejoin: miter; stroke-linecap: square"/>
   </g>
   <g id="legend_1">
    <g id="patch_5">
     <path d="M 409.84 89.3575 
L 563.38 89.3575 
Q 564.98 89.3575 564.98 87.7575 
L 564.98 16.4 
Q 564.98 14.8 563.38 14.8 
L 409.84 14.8 
Q 408.24 14.8 408.24 16.4 
L 408.24 87.7575 
Q 408.24 89.3575 409.84 89.3575 
z
" style="fill: #ffffff; opacity: 0.8; stroke: #cccccc; stroke-linejoin: miter"/>
    </g>
    <g id="line2d_25">
     <path d="M 411.44 21.32875 
L 419.44 21.32875 
L 427.44 21.32875 
" style="fill: none; stroke: #37539c; stroke-width: 1.5; stroke-linecap: square"/>
     <g>
      <use xlink:href="#m82f438a4f3" x="419.44" y="21.32875" style="fill: #37539c; stroke: #37539c"/>
     </g>
    </g>
    <g id="text_14">
     <!-- Ciencias agrícolas y veterinarias -->
     <g style="fill: #37539c" transform="translate(433.84 24.12875) scale(0.08 -0.08)">
      <defs>
       <path id="OpenSans-Bold-43" d="M 2516 3828 
Q 2238 3828 2023 3720 
Q 1809 3613 1664 3409 
Q 1519 3206 1444 2918 
Q 1369 2631 1369 2272 
Q 1369 1788 1489 1445 
Q 1609 1103 1862 923 
Q 2116 744 2516 744 
Q 2794 744 3073 806 
Q 3353 869 3681 984 
L 3681 172 
Q 3378 47 3084 -8 
Q 2791 -63 2425 -63 
Q 1719 -63 1264 229 
Q 809 522 590 1048 
Q 372 1575 372 2278 
Q 372 2797 512 3228 
Q 653 3659 925 3975 
Q 1197 4291 1597 4462 
Q 1997 4634 2516 4634 
Q 2856 4634 3198 4548 
Q 3541 4463 3853 4313 
L 3541 3525 
Q 3284 3647 3025 3737 
Q 2766 3828 2516 3828 
z
" transform="scale(0.015625)"/>
       <path id="OpenSans-Bold-67" d="M 1522 -1538 
Q 791 -1538 405 -1283 
Q 19 -1028 19 -569 
Q 19 -253 216 -40 
Q 413 172 794 263 
Q 647 325 537 467 
Q 428 609 428 769 
Q 428 969 543 1101 
Q 659 1234 878 1363 
Q 603 1481 442 1743 
Q 281 2006 281 2363 
Q 281 2744 448 3011 
Q 616 3278 936 3418 
Q 1256 3559 1716 3559 
Q 1813 3559 1941 3546 
Q 2069 3534 2176 3518 
Q 2284 3503 2322 3494 
L 3541 3494 
L 3541 3009 
L 2994 2869 
Q 3069 2753 3106 2622 
Q 3144 2491 3144 2344 
Q 3144 1781 2751 1467 
Q 2359 1153 1663 1153 
Q 1497 1163 1350 1178 
Q 1278 1122 1240 1059 
Q 1203 997 1203 928 
Q 1203 859 1261 814 
Q 1319 769 1436 745 
Q 1553 722 1728 722 
L 2322 722 
Q 2897 722 3198 475 
Q 3500 228 3500 -250 
Q 3500 -863 2989 -1200 
Q 2478 -1538 1522 -1538 
z
M 1563 -916 
Q 1903 -916 2148 -852 
Q 2394 -788 2525 -670 
Q 2656 -553 2656 -391 
Q 2656 -259 2579 -182 
Q 2503 -106 2348 -75 
Q 2194 -44 1953 -44 
L 1459 -44 
Q 1284 -44 1145 -100 
Q 1006 -156 925 -257 
Q 844 -359 844 -494 
Q 844 -691 1033 -803 
Q 1222 -916 1563 -916 
z
M 1716 1734 
Q 1984 1734 2109 1900 
Q 2234 2066 2234 2350 
Q 2234 2666 2104 2823 
Q 1975 2981 1716 2981 
Q 1453 2981 1322 2823 
Q 1191 2666 1191 2350 
Q 1191 2066 1320 1900 
Q 1450 1734 1716 1734 
z
" transform="scale(0.015625)"/>
       <path id="OpenSans-Bold-ed" d="M 1453 0 
L 500 0 
L 500 3494 
L 1453 3494 
L 1453 0 
z
M 2203 4903 
L 2203 4838 
Q 2113 4750 1966 4622 
Q 1819 4494 1650 4355 
Q 1482 4216 1319 4089 
Q 1157 3963 1035 3878 
L 400 3878 
L 400 3963 
Q 503 4081 639 4245 
Q 775 4409 909 4584 
Q 1044 4759 1135 4903 
L 2203 4903 
z
" transform="scale(0.015625)"/>
       <path id="OpenSans-Bold-79" d="M 0 3494 
L 1044 3494 
L 1703 1528 
Q 1734 1434 1756 1337 
Q 1778 1241 1793 1137 
Q 1809 1034 1819 922 
L 1838 922 
Q 1856 1091 1889 1237 
Q 1922 1384 1972 1528 
L 2619 3494 
L 3641 3494 
L 2163 -447 
Q 2028 -809 1812 -1051 
Q 1597 -1294 1317 -1416 
Q 1038 -1538 703 -1538 
Q 541 -1538 422 -1520 
Q 303 -1503 219 -1484 
L 219 -728 
Q 284 -744 384 -756 
Q 484 -769 594 -769 
Q 794 -769 937 -684 
Q 1081 -600 1178 -458 
Q 1275 -316 1331 -147 
L 1388 25 
L 0 3494 
z
" transform="scale(0.015625)"/>
      </defs>
      <use xlink:href="#OpenSans-Bold-43"/>
      <use xlink:href="#OpenSans-Bold-69" x="63.720703"/>
      <use xlink:href="#OpenSans-Bold-65" x="94.238281"/>
      <use xlink:href="#OpenSans-Bold-6e" x="153.320312"/>
      <use xlink:href="#OpenSans-Bold-63" x="219.042969"/>
      <use xlink:href="#OpenSans-Bold-69" x="270.458984"/>
      <use xlink:href="#OpenSans-Bold-61" x="300.976562"/>
      <use xlink:href="#OpenSans-Bold-73" x="361.376953"/>
      <use xlink:href="#OpenSans-Bold-20" x="411.083984"/>
      <use xlink:href="#OpenSans-Bold-61" x="437.060547"/>
      <use xlink:href="#OpenSans-Bold-67" x="497.460938"/>
      <use xlink:href="#OpenSans-Bold-72" x="553.955078"/>
      <use xlink:href="#OpenSans-Bold-ed" x="599.365234"/>
      <use xlink:href="#OpenSans-Bold-63" x="629.882812"/>
      <use xlink:href="#OpenSans-Bold-6f" x="681.298828"/>
      <use xlink:href="#OpenSans-Bold-6c" x="743.212891"/>
      <use xlink:href="#OpenSans-Bold-61" x="773.730469"/>
      <use xlink:href="#OpenSans-Bold-73" x="834.130859"/>
      <use xlink:href="#OpenSans-Bold-20" x="883.837891"/>
      <use xlink:href="#OpenSans-Bold-79" x="909.814453"/>
      <use xlink:href="#OpenSans-Bold-20" x="966.699219"/>
      <use xlink:href="#OpenSans-Bold-76" x="992.675781"/>
      <use xlink:href="#OpenSans-Bold-65" x="1049.560547"/>
      <use xlink:href="#OpenSans-Bold-74" x="1108.642578"/>
      <use xlink:href="#OpenSans-Bold-65" x="1152.050781"/>
      <use xlink:href="#OpenSans-Bold-72" x="1211.132812"/>
      <use xlink:href="#OpenSans-Bold-69" x="1256.542969"/>
      <use xlink:href="#OpenSans-Bold-6e" x="1287.060547"/>
      <use xlink:href="#OpenSans-Bold-61" x="1352.783203"/>
      <use xlink:href="#OpenSans-Bold-72" x="1413.183594"/>
      <use xlink:href="#OpenSans-Bold-69" x="1458.59375"/>
      <use xlink:href="#OpenSans-Bold-61" x="1489.111328"/>
      <use xlink:href="#OpenSans-Bold-73" x="1549.511719"/>
     </g>
    </g>
    <g id="line2d_26">
     <path d="M 411.44 33.33 
L 419.44 33.33 
L 427.44 33.33 
" style="fill: none; stroke: #59c3c3; stroke-width: 1.5; stroke-linecap: square"/>
     <g>
      <use xlink:href="#mc0615ec566" x="419.44" y="33.33" style="fill: #59c3c3; stroke: #59c3c3"/>
     </g>
    </g>
    <g id="text_15">
     <!-- Ciencias naturales -->
     <g style="fill: #37539c" transform="translate(433.84 36.13) scale(0.08 -0.08)">
      <use xlink:href="#OpenSans-Bold-43"/>
      <use xlink:href="#OpenSans-Bold-69" x="63.720703"/>
      <use xlink:href="#OpenSans-Bold-65" x="94.238281"/>
      <use xlink:href="#OpenSans-Bold-6e" x="153.320312"/>
      <use xlink:href="#OpenSans-Bold-63" x="219.042969"/>
      <use xlink:href="#OpenSans-Bold-69" x="270.458984"/>
      <use xlink:href="#OpenSans-Bold-61" x="300.976562"/>
      <use xlink:href="#OpenSans-Bold-73" x="361.376953"/>
      <use xlink:href="#OpenSans-Bold-20" x="411.083984"/>
      <use xlink:href="#OpenSans-Bold-6e" x="437.060547"/>
      <use xlink:href="#OpenSans-Bold-61" x="502.783203"/>
      <use xlink:href="#OpenSans-Bold-74" x="563.183594"/>
      <use xlink:href="#OpenSans-Bold-75" x="606.591797"/>
      <use xlink:href="#OpenSans-Bold-72" x="672.314453"/>
      <use xlink:href="#OpenSans-Bold-61" x="717.724609"/>
      <use xlink:href="#OpenSans-Bold-6c" x="778.125"/>
      <use xlink:href="#OpenSans-Bold-65" x="808.642578"/>
      <use xlink:href="#OpenSans-Bold-73" x="867.724609"/>
     </g>
    </g>
    <g id="line2d_27">
     <path d="M 411.44 45.38125 
L 419.44 45.38125 
L 427.44 45.38125 
" style="fill: none; stroke: #f45b69; stroke-width: 1.5; stroke-linecap: square"/>
     <g>
      <use xlink:href="#m5d9784a459" x="419.44" y="45.38125" style="fill: #f45b69; stroke: #f45b69"/>
     </g>
    </g>
    <g id="text_16">
     <!-- Ingeniería y tecnología -->
     <g style="fill: #37539c" transform="translate(433.84 48.18125) scale(0.08 -0.08)">
      <defs>
       <path id="OpenSans-Bold-49" d="M 575 0 
L 575 4569 
L 1544 4569 
L 1544 0 
L 575 0 
z
" transform="scale(0.015625)"/>
      </defs>
      <use xlink:href="#OpenSans-Bold-49"/>
      <use xlink:href="#OpenSans-Bold-6e" x="33.105469"/>
      <use xlink:href="#OpenSans-Bold-67" x="98.828125"/>
      <use xlink:href="#OpenSans-Bold-65" x="155.322266"/>
      <use xlink:href="#OpenSans-Bold-6e" x="214.404297"/>
      <use xlink:href="#OpenSans-Bold-69" x="280.126953"/>
      <use xlink:href="#OpenSans-Bold-65" x="310.644531"/>
      <use xlink:href="#OpenSans-Bold-72" x="369.726562"/>
      <use xlink:href="#OpenSans-Bold-ed" x="415.136719"/>
      <use xlink:href="#OpenSans-Bold-61" x="445.654297"/>
      <use xlink:href="#OpenSans-Bold-20" x="506.054688"/>
      <use xlink:href="#OpenSans-Bold-79" x="532.03125"/>
      <use xlink:href="#OpenSans-Bold-20" x="588.916016"/>
      <use xlink:href="#OpenSans-Bold-74" x="614.892578"/>
      <use xlink:href="#OpenSans-Bold-65" x="658.300781"/>
      <use xlink:href="#OpenSans-Bold-63" x="717.382812"/>
      <use xlink:href="#OpenSans-Bold-6e" x="768.798828"/>
      <use xlink:href="#OpenSans-Bold-6f" x="834.521484"/>
      <use xlink:href="#OpenSans-Bold-6c" x="896.435547"/>
      <use xlink:href="#OpenSans-Bold-6f" x="926.953125"/>
      <use xlink:href="#OpenSans-Bold-67" x="988.867188"/>
      <use xlink:href="#OpenSans-Bold-ed" x="1045.361328"/>
      <use xlink:href="#OpenSans-Bold-61" x="1075.878906"/>
     </g>
    </g>
    <g id="line2d_28">
     <path d="M 411.44 57.4325 
L 419.44 57.4325 
L 427.44 57.4325 
" style="fill: none; stroke: #52489c; stroke-width: 1.5; stroke-linecap: square"/>
     <g>
      <use xlink:href="#mdfb3be5db1" x="419.44" y="57.4325" style="fill: #52489c; stroke: #52489c"/>
     </g>
    </g>
    <g id="text_17">
     <!-- Ciencias médicas y de la salud -->
     <g style="fill: #37539c" transform="translate(433.84 60.2325) scale(0.08 -0.08)">
      <defs>
       <path id="OpenSans-Bold-e9" d="M 1941 3559 
Q 2425 3559 2775 3373 
Q 3125 3188 3315 2834 
Q 3506 2481 3506 1972 
L 3506 1509 
L 1253 1509 
Q 1269 1106 1495 876 
Q 1722 647 2125 647 
Q 2459 647 2737 715 
Q 3016 784 3309 922 
L 3309 184 
Q 3050 56 2767 -3 
Q 2484 -63 2081 -63 
Q 1556 -63 1151 131 
Q 747 325 517 722 
Q 288 1119 288 1722 
Q 288 2334 495 2742 
Q 703 3150 1075 3354 
Q 1447 3559 1941 3559 
z
M 1947 2881 
Q 1669 2881 1486 2703 
Q 1303 2525 1275 2144 
L 2613 2144 
Q 2609 2356 2536 2522 
Q 2463 2688 2317 2784 
Q 2172 2881 1947 2881 
z
M 3123 4903 
L 3123 4838 
Q 3033 4750 2886 4622 
Q 2739 4494 2570 4355 
Q 2402 4216 2239 4089 
Q 2077 3963 1955 3878 
L 1320 3878 
L 1320 3963 
Q 1423 4081 1559 4245 
Q 1695 4409 1829 4584 
Q 1964 4759 2055 4903 
L 3123 4903 
z
" transform="scale(0.015625)"/>
      </defs>
      <use xlink:href="#OpenSans-Bold-43"/>
      <use xlink:href="#OpenSans-Bold-69" x="63.720703"/>
      <use xlink:href="#OpenSans-Bold-65" x="94.238281"/>
      <use xlink:href="#OpenSans-Bold-6e" x="153.320312"/>
      <use xlink:href="#OpenSans-Bold-63" x="219.042969"/>
      <use xlink:href="#OpenSans-Bold-69" x="270.458984"/>
      <use xlink:href="#OpenSans-Bold-61" x="300.976562"/>
      <use xlink:href="#OpenSans-Bold-73" x="361.376953"/>
      <use xlink:href="#OpenSans-Bold-20" x="411.083984"/>
      <use xlink:href="#OpenSans-Bold-6d" x="437.060547"/>
      <use xlink:href="#OpenSans-Bold-e9" x="535.253906"/>
      <use xlink:href="#OpenSans-Bold-64" x="594.335938"/>
      <use xlink:href="#OpenSans-Bold-69" x="657.617188"/>
      <use xlink:href="#OpenSans-Bold-63" x="688.134766"/>
      <use xlink:href="#OpenSans-Bold-61" x="739.550781"/>
      <use xlink:href="#OpenSans-Bold-73" x="799.951172"/>
      <use xlink:href="#OpenSans-Bold-20" x="849.658203"/>
      <use xlink:href="#OpenSans-Bold-79" x="875.634766"/>
      <use xlink:href="#OpenSans-Bold-20" x="932.519531"/>
      <use xlink:href="#OpenSans-Bold-64" x="958.496094"/>
      <use xlink:href="#OpenSans-Bold-65" x="1021.777344"/>
      <use xlink:href="#OpenSans-Bold-20" x="1080.859375"/>
      <use xlink:href="#OpenSans-Bold-6c" x="1106.835938"/>
      <use xlink:href="#OpenSans-Bold-61" x="1137.353516"/>
      <use xlink:href="#OpenSans-Bold-20" x="1197.753906"/>
      <use xlink:href="#OpenSans-Bold-73" x="1223.730469"/>
      <use xlink:href="#OpenSans-Bold-61" x="1273.4375"/>
      <use xlink:href="#OpenSans-Bold-6c" x="1333.837891"/>
      <use xlink:href="#OpenSans-Bold-75" x="1364.355469"/>
      <use xlink:href="#OpenSans-Bold-64" x="1430.078125"/>
     </g>
    </g>
    <g id="line2d_29">
     <path d="M 411.44 69.43375 
L 419.44 69.43375 
L 427.44 69.43375 
" style="fill: none; stroke: #9fb7b9; stroke-width: 1.5; stroke-linecap: square"/>
     <g>
      <use xlink:href="#mb23ea73e3a" x="419.44" y="69.43375" style="fill: #9fb7b9; stroke: #9fb7b9"/>
     </g>
    </g>
    <g id="text_18">
     <!-- Ciencias sociales -->
     <g style="fill: #37539c" transform="translate(433.84 72.23375) scale(0.08 -0.08)">
      <use xlink:href="#OpenSans-Bold-43"/>
      <use xlink:href="#OpenSans-Bold-69" x="63.720703"/>
      <use xlink:href="#OpenSans-Bold-65" x="94.238281"/>
      <use xlink:href="#OpenSans-Bold-6e" x="153.320312"/>
      <use xlink:href="#OpenSans-Bold-63" x="219.042969"/>
      <use xlink:href="#OpenSans-Bold-69" x="270.458984"/>
      <use xlink:href="#OpenSans-Bold-61" x="300.976562"/>
      <use xlink:href="#OpenSans-Bold-73" x="361.376953"/>
      <use xlink:href="#OpenSans-Bold-20" x="411.083984"/>
      <use xlink:href="#OpenSans-Bold-73" x="437.060547"/>
      <use xlink:href="#OpenSans-Bold-6f" x="486.767578"/>
      <use xlink:href="#OpenSans-Bold-63" x="548.681641"/>
      <use xlink:href="#OpenSans-Bold-69" x="600.097656"/>
      <use xlink:href="#OpenSans-Bold-61" x="630.615234"/>
      <use xlink:href="#OpenSans-Bold-6c" x="691.015625"/>
      <use xlink:href="#OpenSans-Bold-65" x="721.533203"/>
      <use xlink:href="#OpenSans-Bold-73" x="780.615234"/>
     </g>
    </g>
    <g id="line2d_30">
     <path d="M 411.44 81.435 
L 419.44 81.435 
L 427.44 81.435 
" style="fill: none; stroke: #bcc1ba; stroke-width: 1.5; stroke-linecap: square"/>
     <g>
      <use xlink:href="#m2c4b0a1cf1" x="419.44" y="81.435" style="fill: #bcc1ba; stroke: #bcc1ba"/>
     </g>
    </g>
    <g id="text_19">
     <!-- Humanidades y arte -->
     <g style="fill: #37539c" transform="translate(433.84 84.235) scale(0.08 -0.08)">
      <defs>
       <path id="OpenSans-Bold-48" d="M 4319 0 
L 3353 0 
L 3353 1972 
L 1544 1972 
L 1544 0 
L 575 0 
L 575 4569 
L 1544 4569 
L 1544 2778 
L 3353 2778 
L 3353 4569 
L 4319 4569 
L 4319 0 
z
" transform="scale(0.015625)"/>
      </defs>
      <use xlink:href="#OpenSans-Bold-48"/>
      <use xlink:href="#OpenSans-Bold-75" x="76.513672"/>
      <use xlink:href="#OpenSans-Bold-6d" x="142.236328"/>
      <use xlink:href="#OpenSans-Bold-61" x="240.429688"/>
      <use xlink:href="#OpenSans-Bold-6e" x="300.830078"/>
      <use xlink:href="#OpenSans-Bold-69" x="366.552734"/>
      <use xlink:href="#OpenSans-Bold-64" x="397.070312"/>
      <use xlink:href="#OpenSans-Bold-61" x="460.351562"/>
      <use xlink:href="#OpenSans-Bold-64" x="520.751953"/>
      <use xlink:href="#OpenSans-Bold-65" x="584.033203"/>
      <use xlink:href="#OpenSans-Bold-73" x="643.115234"/>
      <use xlink:href="#OpenSans-Bold-20" x="692.822266"/>
      <use xlink:href="#OpenSans-Bold-79" x="718.798828"/>
      <use xlink:href="#OpenSans-Bold-20" x="775.683594"/>
      <use xlink:href="#OpenSans-Bold-61" x="801.660156"/>
      <use xlink:href="#OpenSans-Bold-72" x="862.060547"/>
      <use xlink:href="#OpenSans-Bold-74" x="907.470703"/>
      <use xlink:href="#OpenSans-Bold-65" x="950.878906"/>
     </g>
    </g>
   </g>
  </g>
 </g>
 <defs>
  <clipPath id="p68035c2fbf">
   <rect x="54.83" y="10.8" width="349.41" height="249.32"/>
  </clipPath>
 </defs>
</svg>
