<?xml version="1.0" encoding="utf-8" standalone="no"?>
<!DOCTYPE svg PUBLIC "-//W3C//DTD SVG 1.1//EN"
  "http://www.w3.org/Graphics/SVG/1.1/DTD/svg11.dtd">
<svg xmlns:xlink="http://www.w3.org/1999/xlink" width="720pt" height="288pt" viewBox="0 0 720 288" xmlns="http://www.w3.org/2000/svg" version="1.1">
 <metadata>
  <rdf:RDF xmlns:dc="http://purl.org/dc/elements/1.1/" xmlns:cc="http://creativecommons.org/ns#" xmlns:rdf="http://www.w3.org/1999/02/22-rdf-syntax-ns#">
   <cc:Work>
    <dc:type rdf:resource="http://purl.org/dc/dcmitype/StillImage"/>
    <dc:date>2024-02-23T20:38:27.318008</dc:date>
    <dc:format>image/svg+xml</dc:format>
    <dc:creator>
     <cc:Agent>
      <dc:title>Matplotlib v3.7.1, https://matplotlib.org/</dc:title>
     </cc:Agent>
    </dc:creator>
   </cc:Work>
  </rdf:RDF>
 </metadata>
 <defs>
  <style type="text/css">*{stroke-linejoin: round; stroke-linecap: butt}</style>
 </defs>
 <g id="figure_1">
  <g id="patch_1">
   <path d="M 0 288 
L 720 288 
L 720 0 
L 0 0 
z
" style="fill: #ffffff"/>
  </g>
  <g id="axes_1">
   <g id="patch_2">
    <path d="M 45.902 194.74 
L 711.36 194.74 
L 711.36 8.64 
L 45.902 8.64 
z
" style="fill: #ffffff"/>
   </g>
   <g id="matplotlib.axis_1">
    <g id="xtick_1">
     <g id="line2d_1">
      <defs>
       <path id="m3dafd894bc" d="M 0 0 
L 0 3.5 
" style="stroke: #37539c; stroke-width: 0.8"/>
      </defs>
      <g>
       <use xlink:href="#m3dafd894bc" x="55.144472" y="194.74" style="fill: #37539c; stroke: #37539c; stroke-width: 0.8"/>
      </g>
     </g>
     <g id="text_1">
      <!-- Corea del Sur -->
      <g style="fill: #37539c" transform="translate(57.222597 254.66625) rotate(-90) scale(0.08 -0.08)">
       <defs>
        <path id="OpenSans-Bold-43" d="M 2516 3828 
Q 2238 3828 2023 3720 
Q 1809 3613 1664 3409 
Q 1519 3206 1444 2918 
Q 1369 2631 1369 2272 
Q 1369 1788 1489 1445 
Q 1609 1103 1862 923 
Q 2116 744 2516 744 
Q 2794 744 3073 806 
Q 3353 869 3681 984 
L 3681 172 
Q 3378 47 3084 -8 
Q 2791 -63 2425 -63 
Q 1719 -63 1264 229 
Q 809 522 590 1048 
Q 372 1575 372 2278 
Q 372 2797 512 3228 
Q 653 3659 925 3975 
Q 1197 4291 1597 4462 
Q 1997 4634 2516 4634 
Q 2856 4634 3198 4548 
Q 3541 4463 3853 4313 
L 3541 3525 
Q 3284 3647 3025 3737 
Q 2766 3828 2516 3828 
z
" transform="scale(0.015625)"/>
        <path id="OpenSans-Bold-6f" d="M 3675 1753 
Q 3675 1316 3558 978 
Q 3441 641 3217 408 
Q 2994 175 2680 56 
Q 2366 -63 1972 -63 
Q 1603 -63 1295 56 
Q 988 175 761 408 
Q 534 641 411 978 
Q 288 1316 288 1753 
Q 288 2334 494 2737 
Q 700 3141 1081 3350 
Q 1463 3559 1991 3559 
Q 2481 3559 2861 3350 
Q 3241 3141 3458 2737 
Q 3675 2334 3675 1753 
z
M 1259 1753 
Q 1259 1409 1334 1175 
Q 1409 941 1568 822 
Q 1728 703 1984 703 
Q 2238 703 2395 822 
Q 2553 941 2626 1175 
Q 2700 1409 2700 1753 
Q 2700 2100 2626 2329 
Q 2553 2559 2393 2675 
Q 2234 2791 1978 2791 
Q 1600 2791 1429 2531 
Q 1259 2272 1259 1753 
z
" transform="scale(0.015625)"/>
        <path id="OpenSans-Bold-72" d="M 2450 3559 
Q 2522 3559 2617 3551 
Q 2713 3544 2772 3531 
L 2700 2638 
Q 2653 2653 2567 2661 
Q 2481 2669 2419 2669 
Q 2234 2669 2061 2622 
Q 1888 2575 1750 2470 
Q 1613 2366 1533 2195 
Q 1453 2025 1453 1778 
L 1453 0 
L 500 0 
L 500 3494 
L 1222 3494 
L 1363 2906 
L 1409 2906 
Q 1513 3084 1667 3232 
Q 1822 3381 2020 3470 
Q 2219 3559 2450 3559 
z
" transform="scale(0.015625)"/>
        <path id="OpenSans-Bold-65" d="M 1941 3559 
Q 2425 3559 2775 3373 
Q 3125 3188 3315 2834 
Q 3506 2481 3506 1972 
L 3506 1509 
L 1253 1509 
Q 1269 1106 1495 876 
Q 1722 647 2125 647 
Q 2459 647 2737 715 
Q 3016 784 3309 922 
L 3309 184 
Q 3050 56 2767 -3 
Q 2484 -63 2081 -63 
Q 1556 -63 1151 131 
Q 747 325 517 722 
Q 288 1119 288 1722 
Q 288 2334 495 2742 
Q 703 3150 1075 3354 
Q 1447 3559 1941 3559 
z
M 1947 2881 
Q 1669 2881 1486 2703 
Q 1303 2525 1275 2144 
L 2613 2144 
Q 2609 2356 2536 2522 
Q 2463 2688 2317 2784 
Q 2172 2881 1947 2881 
z
" transform="scale(0.015625)"/>
        <path id="OpenSans-Bold-61" d="M 1931 3566 
Q 2634 3566 3009 3259 
Q 3384 2953 3384 2328 
L 3384 0 
L 2719 0 
L 2534 475 
L 2509 475 
Q 2359 288 2203 169 
Q 2047 50 1844 -6 
Q 1641 -63 1350 -63 
Q 1041 -63 795 56 
Q 550 175 409 420 
Q 269 666 269 1044 
Q 269 1600 659 1864 
Q 1050 2128 1831 2156 
L 2438 2175 
L 2438 2328 
Q 2438 2603 2294 2731 
Q 2150 2859 1894 2859 
Q 1641 2859 1397 2787 
Q 1153 2716 909 2606 
L 594 3250 
Q 872 3397 1217 3481 
Q 1563 3566 1931 3566 
z
M 2438 1619 
L 2069 1606 
Q 1606 1594 1426 1441 
Q 1247 1288 1247 1038 
Q 1247 819 1375 726 
Q 1503 634 1709 634 
Q 2016 634 2227 815 
Q 2438 997 2438 1331 
L 2438 1619 
z
" transform="scale(0.015625)"/>
        <path id="OpenSans-Bold-20" transform="scale(0.015625)"/>
        <path id="OpenSans-Bold-64" d="M 1606 -63 
Q 1022 -63 655 395 
Q 288 853 288 1741 
Q 288 2638 659 3098 
Q 1031 3559 1631 3559 
Q 1881 3559 2072 3490 
Q 2263 3422 2402 3306 
Q 2541 3191 2638 3047 
L 2669 3047 
Q 2650 3147 2623 3342 
Q 2597 3538 2597 3744 
L 2597 4863 
L 3553 4863 
L 3553 0 
L 2822 0 
L 2638 453 
L 2597 453 
Q 2506 309 2370 192 
Q 2234 75 2046 6 
Q 1859 -63 1606 -63 
z
M 1941 697 
Q 2331 697 2492 930 
Q 2653 1163 2663 1631 
L 2663 1734 
Q 2663 2244 2506 2514 
Q 2350 2784 1925 2784 
Q 1609 2784 1431 2512 
Q 1253 2241 1253 1728 
Q 1253 1216 1433 956 
Q 1613 697 1941 697 
z
" transform="scale(0.015625)"/>
        <path id="OpenSans-Bold-6c" d="M 1453 0 
L 500 0 
L 500 4863 
L 1453 4863 
L 1453 0 
z
" transform="scale(0.015625)"/>
        <path id="OpenSans-Bold-53" d="M 3272 1269 
Q 3272 863 3075 563 
Q 2878 263 2501 100 
Q 2125 -63 1588 -63 
Q 1350 -63 1123 -31 
Q 897 0 689 61 
Q 481 122 294 213 
L 294 1113 
Q 619 969 969 853 
Q 1319 738 1663 738 
Q 1900 738 2045 800 
Q 2191 863 2256 972 
Q 2322 1081 2322 1222 
Q 2322 1394 2206 1516 
Q 2091 1638 1889 1744 
Q 1688 1850 1434 1972 
Q 1275 2047 1087 2155 
Q 900 2263 731 2419 
Q 563 2575 455 2798 
Q 347 3022 347 3334 
Q 347 3744 534 4034 
Q 722 4325 1070 4479 
Q 1419 4634 1894 4634 
Q 2250 4634 2573 4551 
Q 2897 4469 3250 4313 
L 2938 3559 
Q 2622 3688 2372 3758 
Q 2122 3828 1863 3828 
Q 1681 3828 1553 3770 
Q 1425 3713 1359 3608 
Q 1294 3503 1294 3366 
Q 1294 3203 1389 3092 
Q 1484 2981 1676 2878 
Q 1869 2775 2156 2638 
Q 2506 2472 2754 2292 
Q 3003 2113 3137 1870 
Q 3272 1628 3272 1269 
z
" transform="scale(0.015625)"/>
        <path id="OpenSans-Bold-75" d="M 3706 3494 
L 3706 0 
L 2975 0 
L 2847 447 
L 2797 447 
Q 2684 269 2515 156 
Q 2347 44 2144 -9 
Q 1941 -63 1722 -63 
Q 1347 -63 1069 70 
Q 791 203 636 484 
Q 481 766 481 1216 
L 481 3494 
L 1434 3494 
L 1434 1453 
Q 1434 1078 1568 887 
Q 1703 697 1997 697 
Q 2288 697 2453 830 
Q 2619 963 2686 1220 
Q 2753 1478 2753 1850 
L 2753 3494 
L 3706 3494 
z
" transform="scale(0.015625)"/>
       </defs>
       <use xlink:href="#OpenSans-Bold-43"/>
       <use xlink:href="#OpenSans-Bold-6f" x="63.720703"/>
       <use xlink:href="#OpenSans-Bold-72" x="125.634766"/>
       <use xlink:href="#OpenSans-Bold-65" x="171.044922"/>
       <use xlink:href="#OpenSans-Bold-61" x="230.126953"/>
       <use xlink:href="#OpenSans-Bold-20" x="290.527344"/>
       <use xlink:href="#OpenSans-Bold-64" x="316.503906"/>
       <use xlink:href="#OpenSans-Bold-65" x="379.785156"/>
       <use xlink:href="#OpenSans-Bold-6c" x="438.867188"/>
       <use xlink:href="#OpenSans-Bold-20" x="469.384766"/>
       <use xlink:href="#OpenSans-Bold-53" x="495.361328"/>
       <use xlink:href="#OpenSans-Bold-75" x="550.439453"/>
       <use xlink:href="#OpenSans-Bold-72" x="616.162109"/>
      </g>
     </g>
    </g>
    <g id="xtick_2">
     <g id="line2d_2">
      <g>
       <use xlink:href="#m3dafd894bc" x="73.629417" y="194.74" style="fill: #37539c; stroke: #37539c; stroke-width: 0.8"/>
      </g>
     </g>
     <g id="text_2">
      <!-- Finlandia -->
      <g style="fill: #37539c" transform="translate(75.707542 238.6975) rotate(-90) scale(0.08 -0.08)">
       <defs>
        <path id="OpenSans-Bold-46" d="M 1528 0 
L 575 0 
L 575 4569 
L 3194 4569 
L 3194 3775 
L 1528 3775 
L 1528 2597 
L 3078 2597 
L 3078 1806 
L 1528 1806 
L 1528 0 
z
" transform="scale(0.015625)"/>
        <path id="OpenSans-Bold-69" d="M 1453 3494 
L 1453 0 
L 500 0 
L 500 3494 
L 1453 3494 
z
M 978 4863 
Q 1191 4863 1344 4764 
Q 1497 4666 1497 4397 
Q 1497 4131 1344 4029 
Q 1191 3928 978 3928 
Q 763 3928 611 4029 
Q 459 4131 459 4397 
Q 459 4666 611 4764 
Q 763 4863 978 4863 
z
" transform="scale(0.015625)"/>
        <path id="OpenSans-Bold-6e" d="M 2484 3559 
Q 3044 3559 3384 3254 
Q 3725 2950 3725 2278 
L 3725 0 
L 2772 0 
L 2772 2041 
Q 2772 2416 2636 2606 
Q 2500 2797 2209 2797 
Q 1772 2797 1612 2500 
Q 1453 2203 1453 1644 
L 1453 0 
L 500 0 
L 500 3494 
L 1228 3494 
L 1356 3047 
L 1409 3047 
Q 1522 3228 1689 3340 
Q 1856 3453 2061 3506 
Q 2266 3559 2484 3559 
z
" transform="scale(0.015625)"/>
       </defs>
       <use xlink:href="#OpenSans-Bold-46"/>
       <use xlink:href="#OpenSans-Bold-69" x="54.882812"/>
       <use xlink:href="#OpenSans-Bold-6e" x="85.400391"/>
       <use xlink:href="#OpenSans-Bold-6c" x="151.123047"/>
       <use xlink:href="#OpenSans-Bold-61" x="181.640625"/>
       <use xlink:href="#OpenSans-Bold-6e" x="242.041016"/>
       <use xlink:href="#OpenSans-Bold-64" x="307.763672"/>
       <use xlink:href="#OpenSans-Bold-69" x="371.044922"/>
       <use xlink:href="#OpenSans-Bold-61" x="401.5625"/>
      </g>
     </g>
    </g>
    <g id="xtick_3">
     <g id="line2d_3">
      <g>
       <use xlink:href="#m3dafd894bc" x="92.114361" y="194.74" style="fill: #37539c; stroke: #37539c; stroke-width: 0.8"/>
      </g>
     </g>
     <g id="text_3">
      <!-- Suecia -->
      <g style="fill: #37539c" transform="translate(94.192486 227.5175) rotate(-90) scale(0.08 -0.08)">
       <defs>
        <path id="OpenSans-Bold-63" d="M 1919 -63 
Q 1400 -63 1034 126 
Q 669 316 478 712 
Q 288 1109 288 1728 
Q 288 2369 505 2773 
Q 722 3178 1108 3368 
Q 1494 3559 2003 3559 
Q 2366 3559 2630 3489 
Q 2894 3419 3091 3322 
L 2809 2584 
Q 2584 2675 2390 2733 
Q 2197 2791 2003 2791 
Q 1753 2791 1587 2673 
Q 1422 2556 1340 2322 
Q 1259 2088 1259 1734 
Q 1259 1388 1346 1159 
Q 1434 931 1600 820 
Q 1766 709 2003 709 
Q 2300 709 2531 789 
Q 2763 869 2981 1013 
L 2981 197 
Q 2763 59 2523 -2 
Q 2284 -63 1919 -63 
z
" transform="scale(0.015625)"/>
       </defs>
       <use xlink:href="#OpenSans-Bold-53"/>
       <use xlink:href="#OpenSans-Bold-75" x="55.078125"/>
       <use xlink:href="#OpenSans-Bold-65" x="120.800781"/>
       <use xlink:href="#OpenSans-Bold-63" x="179.882812"/>
       <use xlink:href="#OpenSans-Bold-69" x="231.298828"/>
       <use xlink:href="#OpenSans-Bold-61" x="261.816406"/>
      </g>
     </g>
    </g>
    <g id="xtick_4">
     <g id="line2d_4">
      <g>
       <use xlink:href="#m3dafd894bc" x="110.599306" y="194.74" style="fill: #37539c; stroke: #37539c; stroke-width: 0.8"/>
      </g>
     </g>
     <g id="text_4">
      <!-- Dinamarca -->
      <g style="fill: #37539c" transform="translate(112.677431 245.46) rotate(-90) scale(0.08 -0.08)">
       <defs>
        <path id="OpenSans-Bold-44" d="M 4366 2328 
Q 4366 1556 4070 1039 
Q 3775 522 3215 261 
Q 2656 0 1869 0 
L 575 0 
L 575 4569 
L 2009 4569 
Q 2728 4569 3256 4314 
Q 3784 4059 4075 3561 
Q 4366 3063 4366 2328 
z
M 3359 2303 
Q 3359 2809 3211 3136 
Q 3063 3463 2773 3619 
Q 2484 3775 2059 3775 
L 1544 3775 
L 1544 800 
L 1959 800 
Q 2669 800 3014 1178 
Q 3359 1556 3359 2303 
z
" transform="scale(0.015625)"/>
        <path id="OpenSans-Bold-6d" d="M 4603 3559 
Q 5197 3559 5501 3254 
Q 5806 2950 5806 2278 
L 5806 0 
L 4850 0 
L 4850 2041 
Q 4850 2416 4722 2606 
Q 4594 2797 4325 2797 
Q 3947 2797 3787 2526 
Q 3628 2256 3628 1753 
L 3628 0 
L 2675 0 
L 2675 2041 
Q 2675 2291 2619 2459 
Q 2563 2628 2447 2712 
Q 2331 2797 2150 2797 
Q 1884 2797 1732 2664 
Q 1581 2531 1517 2273 
Q 1453 2016 1453 1644 
L 1453 0 
L 500 0 
L 500 3494 
L 1228 3494 
L 1356 3047 
L 1409 3047 
Q 1516 3228 1677 3340 
Q 1838 3453 2031 3506 
Q 2225 3559 2425 3559 
Q 2809 3559 3076 3434 
Q 3344 3309 3488 3047 
L 3572 3047 
Q 3728 3316 4014 3437 
Q 4300 3559 4603 3559 
z
" transform="scale(0.015625)"/>
       </defs>
       <use xlink:href="#OpenSans-Bold-44"/>
       <use xlink:href="#OpenSans-Bold-69" x="74.023438"/>
       <use xlink:href="#OpenSans-Bold-6e" x="104.541016"/>
       <use xlink:href="#OpenSans-Bold-61" x="170.263672"/>
       <use xlink:href="#OpenSans-Bold-6d" x="230.664062"/>
       <use xlink:href="#OpenSans-Bold-61" x="328.857422"/>
       <use xlink:href="#OpenSans-Bold-72" x="389.257812"/>
       <use xlink:href="#OpenSans-Bold-63" x="434.667969"/>
       <use xlink:href="#OpenSans-Bold-61" x="486.083984"/>
      </g>
     </g>
    </g>
    <g id="xtick_5">
     <g id="line2d_5">
      <g>
       <use xlink:href="#m3dafd894bc" x="129.08425" y="194.74" style="fill: #37539c; stroke: #37539c; stroke-width: 0.8"/>
      </g>
     </g>
     <g id="text_5">
      <!-- Bélgica -->
      <g style="fill: #37539c" transform="translate(131.187375 230.19) rotate(-90) scale(0.08 -0.08)">
       <defs>
        <path id="OpenSans-Bold-42" d="M 575 4569 
L 1997 4569 
Q 2909 4569 3378 4312 
Q 3847 4056 3847 3413 
Q 3847 3153 3764 2943 
Q 3681 2734 3525 2600 
Q 3369 2466 3144 2425 
L 3144 2394 
Q 3372 2347 3556 2233 
Q 3741 2119 3852 1901 
Q 3963 1684 3963 1325 
Q 3963 909 3759 612 
Q 3556 316 3179 158 
Q 2803 0 2284 0 
L 575 0 
L 575 4569 
z
M 1544 2759 
L 2106 2759 
Q 2528 2759 2690 2892 
Q 2853 3025 2853 3284 
Q 2853 3547 2661 3661 
Q 2469 3775 2053 3775 
L 1544 3775 
L 1544 2759 
z
M 1544 1991 
L 1544 800 
L 2175 800 
Q 2613 800 2784 969 
Q 2956 1138 2956 1422 
Q 2956 1591 2881 1719 
Q 2806 1847 2629 1919 
Q 2453 1991 2144 1991 
L 1544 1991 
z
" transform="scale(0.015625)"/>
        <path id="OpenSans-Bold-e9" d="M 1941 3559 
Q 2425 3559 2775 3373 
Q 3125 3188 3315 2834 
Q 3506 2481 3506 1972 
L 3506 1509 
L 1253 1509 
Q 1269 1106 1495 876 
Q 1722 647 2125 647 
Q 2459 647 2737 715 
Q 3016 784 3309 922 
L 3309 184 
Q 3050 56 2767 -3 
Q 2484 -63 2081 -63 
Q 1556 -63 1151 131 
Q 747 325 517 722 
Q 288 1119 288 1722 
Q 288 2334 495 2742 
Q 703 3150 1075 3354 
Q 1447 3559 1941 3559 
z
M 1947 2881 
Q 1669 2881 1486 2703 
Q 1303 2525 1275 2144 
L 2613 2144 
Q 2609 2356 2536 2522 
Q 2463 2688 2317 2784 
Q 2172 2881 1947 2881 
z
M 3123 4903 
L 3123 4838 
Q 3033 4750 2886 4622 
Q 2739 4494 2570 4355 
Q 2402 4216 2239 4089 
Q 2077 3963 1955 3878 
L 1320 3878 
L 1320 3963 
Q 1423 4081 1559 4245 
Q 1695 4409 1829 4584 
Q 1964 4759 2055 4903 
L 3123 4903 
z
" transform="scale(0.015625)"/>
        <path id="OpenSans-Bold-67" d="M 1522 -1538 
Q 791 -1538 405 -1283 
Q 19 -1028 19 -569 
Q 19 -253 216 -40 
Q 413 172 794 263 
Q 647 325 537 467 
Q 428 609 428 769 
Q 428 969 543 1101 
Q 659 1234 878 1363 
Q 603 1481 442 1743 
Q 281 2006 281 2363 
Q 281 2744 448 3011 
Q 616 3278 936 3418 
Q 1256 3559 1716 3559 
Q 1813 3559 1941 3546 
Q 2069 3534 2176 3518 
Q 2284 3503 2322 3494 
L 3541 3494 
L 3541 3009 
L 2994 2869 
Q 3069 2753 3106 2622 
Q 3144 2491 3144 2344 
Q 3144 1781 2751 1467 
Q 2359 1153 1663 1153 
Q 1497 1163 1350 1178 
Q 1278 1122 1240 1059 
Q 1203 997 1203 928 
Q 1203 859 1261 814 
Q 1319 769 1436 745 
Q 1553 722 1728 722 
L 2322 722 
Q 2897 722 3198 475 
Q 3500 228 3500 -250 
Q 3500 -863 2989 -1200 
Q 2478 -1538 1522 -1538 
z
M 1563 -916 
Q 1903 -916 2148 -852 
Q 2394 -788 2525 -670 
Q 2656 -553 2656 -391 
Q 2656 -259 2579 -182 
Q 2503 -106 2348 -75 
Q 2194 -44 1953 -44 
L 1459 -44 
Q 1284 -44 1145 -100 
Q 1006 -156 925 -257 
Q 844 -359 844 -494 
Q 844 -691 1033 -803 
Q 1222 -916 1563 -916 
z
M 1716 1734 
Q 1984 1734 2109 1900 
Q 2234 2066 2234 2350 
Q 2234 2666 2104 2823 
Q 1975 2981 1716 2981 
Q 1453 2981 1322 2823 
Q 1191 2666 1191 2350 
Q 1191 2066 1320 1900 
Q 1450 1734 1716 1734 
z
" transform="scale(0.015625)"/>
       </defs>
       <use xlink:href="#OpenSans-Bold-42"/>
       <use xlink:href="#OpenSans-Bold-e9" x="67.1875"/>
       <use xlink:href="#OpenSans-Bold-6c" x="126.269531"/>
       <use xlink:href="#OpenSans-Bold-67" x="156.787109"/>
       <use xlink:href="#OpenSans-Bold-69" x="213.28125"/>
       <use xlink:href="#OpenSans-Bold-63" x="243.798828"/>
       <use xlink:href="#OpenSans-Bold-61" x="295.214844"/>
      </g>
     </g>
    </g>
    <g id="xtick_6">
     <g id="line2d_6">
      <g>
       <use xlink:href="#m3dafd894bc" x="147.569194" y="194.74" style="fill: #37539c; stroke: #37539c; stroke-width: 0.8"/>
      </g>
     </g>
     <g id="text_6">
      <!-- Noruega -->
      <g style="fill: #37539c" transform="translate(149.647319 236.16625) rotate(-90) scale(0.08 -0.08)">
       <defs>
        <path id="OpenSans-Bold-4e" d="M 4628 0 
L 3397 0 
L 1409 3456 
L 1381 3456 
Q 1394 3241 1403 3022 
Q 1413 2803 1422 2586 
Q 1431 2369 1441 2150 
L 1441 0 
L 575 0 
L 575 4569 
L 1797 4569 
L 3781 1147 
L 3803 1147 
Q 3797 1359 3787 1568 
Q 3778 1778 3770 1987 
Q 3763 2197 3756 2406 
L 3756 4569 
L 4628 4569 
L 4628 0 
z
" transform="scale(0.015625)"/>
       </defs>
       <use xlink:href="#OpenSans-Bold-4e"/>
       <use xlink:href="#OpenSans-Bold-6f" x="81.298828"/>
       <use xlink:href="#OpenSans-Bold-72" x="143.212891"/>
       <use xlink:href="#OpenSans-Bold-75" x="188.623047"/>
       <use xlink:href="#OpenSans-Bold-65" x="254.345703"/>
       <use xlink:href="#OpenSans-Bold-67" x="313.427734"/>
       <use xlink:href="#OpenSans-Bold-61" x="369.921875"/>
      </g>
     </g>
    </g>
    <g id="xtick_7">
     <g id="line2d_7">
      <g>
       <use xlink:href="#m3dafd894bc" x="166.054139" y="194.74" style="fill: #37539c; stroke: #37539c; stroke-width: 0.8"/>
      </g>
     </g>
     <g id="text_7">
      <!-- Austria -->
      <g style="fill: #37539c" transform="translate(168.132264 230.8725) rotate(-90) scale(0.08 -0.08)">
       <defs>
        <path id="OpenSans-Bold-41" d="M 3372 0 
L 3041 1088 
L 1375 1088 
L 1044 0 
L 0 0 
L 1613 4588 
L 2797 4588 
L 4416 0 
L 3372 0 
z
M 2809 1900 
L 2478 2963 
Q 2447 3069 2395 3236 
Q 2344 3403 2292 3576 
Q 2241 3750 2209 3878 
Q 2178 3750 2123 3561 
Q 2069 3372 2019 3203 
Q 1969 3034 1947 2963 
L 1619 1900 
L 2809 1900 
z
" transform="scale(0.015625)"/>
        <path id="OpenSans-Bold-73" d="M 2938 1038 
Q 2938 681 2770 436 
Q 2603 191 2272 64 
Q 1941 -63 1447 -63 
Q 1081 -63 820 -16 
Q 559 31 294 141 
L 294 928 
Q 578 800 904 717 
Q 1231 634 1478 634 
Q 1756 634 1876 717 
Q 1997 800 1997 934 
Q 1997 1022 1948 1092 
Q 1900 1163 1740 1252 
Q 1581 1341 1241 1484 
Q 913 1622 702 1762 
Q 491 1903 389 2095 
Q 288 2288 288 2584 
Q 288 3069 664 3314 
Q 1041 3559 1672 3559 
Q 1997 3559 2292 3493 
Q 2588 3428 2900 3284 
L 2613 2597 
Q 2353 2709 2123 2781 
Q 1894 2853 1656 2853 
Q 1447 2853 1340 2797 
Q 1234 2741 1234 2625 
Q 1234 2541 1289 2475 
Q 1344 2409 1501 2329 
Q 1659 2250 1966 2125 
Q 2263 2003 2481 1870 
Q 2700 1738 2819 1542 
Q 2938 1347 2938 1038 
z
" transform="scale(0.015625)"/>
        <path id="OpenSans-Bold-74" d="M 1972 697 
Q 2128 697 2276 728 
Q 2425 759 2572 806 
L 2572 97 
Q 2419 28 2192 -17 
Q 1966 -63 1697 -63 
Q 1384 -63 1136 39 
Q 888 141 745 392 
Q 603 644 603 1094 
L 603 2778 
L 147 2778 
L 147 3181 
L 672 3500 
L 947 4238 
L 1556 4238 
L 1556 3494 
L 2534 3494 
L 2534 2778 
L 1556 2778 
L 1556 1094 
Q 1556 894 1670 795 
Q 1784 697 1972 697 
z
" transform="scale(0.015625)"/>
       </defs>
       <use xlink:href="#OpenSans-Bold-41"/>
       <use xlink:href="#OpenSans-Bold-75" x="68.994141"/>
       <use xlink:href="#OpenSans-Bold-73" x="134.716797"/>
       <use xlink:href="#OpenSans-Bold-74" x="184.423828"/>
       <use xlink:href="#OpenSans-Bold-72" x="227.832031"/>
       <use xlink:href="#OpenSans-Bold-69" x="273.242188"/>
       <use xlink:href="#OpenSans-Bold-61" x="303.759766"/>
      </g>
     </g>
    </g>
    <g id="xtick_8">
     <g id="line2d_8">
      <g>
       <use xlink:href="#m3dafd894bc" x="184.539083" y="194.74" style="fill: #37539c; stroke: #37539c; stroke-width: 0.8"/>
      </g>
     </g>
     <g id="text_8">
      <!-- Francia -->
      <g style="fill: #37539c" transform="translate(186.617208 231.24125) rotate(-90) scale(0.08 -0.08)">
       <use xlink:href="#OpenSans-Bold-46"/>
       <use xlink:href="#OpenSans-Bold-72" x="54.882812"/>
       <use xlink:href="#OpenSans-Bold-61" x="100.292969"/>
       <use xlink:href="#OpenSans-Bold-6e" x="160.693359"/>
       <use xlink:href="#OpenSans-Bold-63" x="226.416016"/>
       <use xlink:href="#OpenSans-Bold-69" x="277.832031"/>
       <use xlink:href="#OpenSans-Bold-61" x="308.349609"/>
      </g>
     </g>
    </g>
    <g id="xtick_9">
     <g id="line2d_9">
      <g>
       <use xlink:href="#m3dafd894bc" x="203.024028" y="194.74" style="fill: #37539c; stroke: #37539c; stroke-width: 0.8"/>
      </g>
     </g>
     <g id="text_9">
      <!-- Portugal -->
      <g style="fill: #37539c" transform="translate(205.102153 235.87375) rotate(-90) scale(0.08 -0.08)">
       <defs>
        <path id="OpenSans-Bold-50" d="M 2034 4569 
Q 2919 4569 3325 4189 
Q 3731 3809 3731 3144 
Q 3731 2844 3640 2570 
Q 3550 2297 3345 2084 
Q 3141 1872 2800 1748 
Q 2459 1625 1959 1625 
L 1544 1625 
L 1544 0 
L 575 0 
L 575 4569 
L 2034 4569 
z
M 1984 3775 
L 1544 3775 
L 1544 2419 
L 1863 2419 
Q 2134 2419 2334 2491 
Q 2534 2563 2643 2716 
Q 2753 2869 2753 3109 
Q 2753 3447 2565 3611 
Q 2378 3775 1984 3775 
z
" transform="scale(0.015625)"/>
       </defs>
       <use xlink:href="#OpenSans-Bold-50"/>
       <use xlink:href="#OpenSans-Bold-6f" x="62.792969"/>
       <use xlink:href="#OpenSans-Bold-72" x="124.707031"/>
       <use xlink:href="#OpenSans-Bold-74" x="170.117188"/>
       <use xlink:href="#OpenSans-Bold-75" x="213.525391"/>
       <use xlink:href="#OpenSans-Bold-67" x="279.248047"/>
       <use xlink:href="#OpenSans-Bold-61" x="335.742188"/>
       <use xlink:href="#OpenSans-Bold-6c" x="396.142578"/>
      </g>
     </g>
    </g>
    <g id="xtick_10">
     <g id="line2d_10">
      <g>
       <use xlink:href="#m3dafd894bc" x="221.508972" y="194.74" style="fill: #37539c; stroke: #37539c; stroke-width: 0.8"/>
      </g>
     </g>
     <g id="text_10">
      <!-- Irlanda -->
      <g style="fill: #37539c" transform="translate(223.587097 230.4475) rotate(-90) scale(0.08 -0.08)">
       <defs>
        <path id="OpenSans-Bold-49" d="M 575 0 
L 575 4569 
L 1544 4569 
L 1544 0 
L 575 0 
z
" transform="scale(0.015625)"/>
       </defs>
       <use xlink:href="#OpenSans-Bold-49"/>
       <use xlink:href="#OpenSans-Bold-72" x="33.105469"/>
       <use xlink:href="#OpenSans-Bold-6c" x="78.515625"/>
       <use xlink:href="#OpenSans-Bold-61" x="109.033203"/>
       <use xlink:href="#OpenSans-Bold-6e" x="169.433594"/>
       <use xlink:href="#OpenSans-Bold-64" x="235.15625"/>
       <use xlink:href="#OpenSans-Bold-61" x="298.4375"/>
      </g>
     </g>
    </g>
    <g id="xtick_11">
     <g id="line2d_11">
      <g>
       <use xlink:href="#m3dafd894bc" x="239.993917" y="194.74" style="fill: #37539c; stroke: #37539c; stroke-width: 0.8"/>
      </g>
     </g>
     <g id="text_11">
      <!-- Países Bajos -->
      <g style="fill: #37539c" transform="translate(242.097042 250.37375) rotate(-90) scale(0.08 -0.08)">
       <defs>
        <path id="OpenSans-Bold-ed" d="M 1453 0 
L 500 0 
L 500 3494 
L 1453 3494 
L 1453 0 
z
M 2203 4903 
L 2203 4838 
Q 2113 4750 1966 4622 
Q 1819 4494 1650 4355 
Q 1482 4216 1319 4089 
Q 1157 3963 1035 3878 
L 400 3878 
L 400 3963 
Q 503 4081 639 4245 
Q 775 4409 909 4584 
Q 1044 4759 1135 4903 
L 2203 4903 
z
" transform="scale(0.015625)"/>
        <path id="OpenSans-Bold-6a" d="M 219 -1538 
Q 56 -1538 -119 -1514 
Q -294 -1491 -409 -1459 
L -409 -709 
Q -294 -741 -192 -755 
Q -91 -769 38 -769 
Q 231 -769 365 -661 
Q 500 -553 500 -238 
L 500 3494 
L 1453 3494 
L 1453 -378 
Q 1453 -697 1331 -961 
Q 1209 -1225 937 -1381 
Q 666 -1538 219 -1538 
z
M 459 4397 
Q 459 4666 611 4764 
Q 763 4863 978 4863 
Q 1191 4863 1344 4764 
Q 1497 4666 1497 4397 
Q 1497 4131 1344 4029 
Q 1191 3928 978 3928 
Q 763 3928 611 4029 
Q 459 4131 459 4397 
z
" transform="scale(0.015625)"/>
       </defs>
       <use xlink:href="#OpenSans-Bold-50"/>
       <use xlink:href="#OpenSans-Bold-61" x="62.792969"/>
       <use xlink:href="#OpenSans-Bold-ed" x="123.193359"/>
       <use xlink:href="#OpenSans-Bold-73" x="153.710938"/>
       <use xlink:href="#OpenSans-Bold-65" x="203.417969"/>
       <use xlink:href="#OpenSans-Bold-73" x="262.5"/>
       <use xlink:href="#OpenSans-Bold-20" x="312.207031"/>
       <use xlink:href="#OpenSans-Bold-42" x="338.183594"/>
       <use xlink:href="#OpenSans-Bold-61" x="405.371094"/>
       <use xlink:href="#OpenSans-Bold-6a" x="465.771484"/>
       <use xlink:href="#OpenSans-Bold-6f" x="496.289062"/>
       <use xlink:href="#OpenSans-Bold-73" x="558.203125"/>
      </g>
     </g>
    </g>
    <g id="xtick_12">
     <g id="line2d_12">
      <g>
       <use xlink:href="#m3dafd894bc" x="258.478861" y="194.74" style="fill: #37539c; stroke: #37539c; stroke-width: 0.8"/>
      </g>
     </g>
     <g id="text_12">
      <!-- Nueva Zelanda -->
      <g style="fill: #37539c" transform="translate(260.556986 261.475) rotate(-90) scale(0.08 -0.08)">
       <defs>
        <path id="OpenSans-Bold-76" d="M 1331 0 
L 0 3494 
L 997 3494 
L 1672 1503 
Q 1728 1328 1761 1134 
Q 1794 941 1806 788 
L 1831 788 
Q 1841 953 1877 1140 
Q 1913 1328 1972 1503 
L 2644 3494 
L 3641 3494 
L 2309 0 
L 1331 0 
z
" transform="scale(0.015625)"/>
        <path id="OpenSans-Bold-5a" d="M 3553 0 
L 153 0 
L 153 628 
L 2344 3769 
L 213 3769 
L 213 4569 
L 3494 4569 
L 3494 3944 
L 1306 800 
L 3553 800 
L 3553 0 
z
" transform="scale(0.015625)"/>
       </defs>
       <use xlink:href="#OpenSans-Bold-4e"/>
       <use xlink:href="#OpenSans-Bold-75" x="81.298828"/>
       <use xlink:href="#OpenSans-Bold-65" x="147.021484"/>
       <use xlink:href="#OpenSans-Bold-76" x="206.103516"/>
       <use xlink:href="#OpenSans-Bold-61" x="262.988281"/>
       <use xlink:href="#OpenSans-Bold-20" x="323.388672"/>
       <use xlink:href="#OpenSans-Bold-5a" x="349.365234"/>
       <use xlink:href="#OpenSans-Bold-65" x="407.275391"/>
       <use xlink:href="#OpenSans-Bold-6c" x="466.357422"/>
       <use xlink:href="#OpenSans-Bold-61" x="496.875"/>
       <use xlink:href="#OpenSans-Bold-6e" x="557.275391"/>
       <use xlink:href="#OpenSans-Bold-64" x="622.998047"/>
       <use xlink:href="#OpenSans-Bold-61" x="686.279297"/>
      </g>
     </g>
    </g>
    <g id="xtick_13">
     <g id="line2d_13">
      <g>
       <use xlink:href="#m3dafd894bc" x="276.963806" y="194.74" style="fill: #37539c; stroke: #37539c; stroke-width: 0.8"/>
      </g>
     </g>
     <g id="text_13">
      <!-- Islandia -->
      <g style="fill: #37539c" transform="translate(279.041931 233.2325) rotate(-90) scale(0.08 -0.08)">
       <use xlink:href="#OpenSans-Bold-49"/>
       <use xlink:href="#OpenSans-Bold-73" x="33.105469"/>
       <use xlink:href="#OpenSans-Bold-6c" x="82.8125"/>
       <use xlink:href="#OpenSans-Bold-61" x="113.330078"/>
       <use xlink:href="#OpenSans-Bold-6e" x="173.730469"/>
       <use xlink:href="#OpenSans-Bold-64" x="239.453125"/>
       <use xlink:href="#OpenSans-Bold-69" x="302.734375"/>
       <use xlink:href="#OpenSans-Bold-61" x="333.251953"/>
      </g>
     </g>
    </g>
    <g id="xtick_14">
     <g id="line2d_14">
      <g>
       <use xlink:href="#m3dafd894bc" x="295.44875" y="194.74" style="fill: #37539c; stroke: #37539c; stroke-width: 0.8"/>
      </g>
     </g>
     <g id="text_14">
      <!-- Alemania -->
      <g style="fill: #37539c" transform="translate(297.526875 239.64625) rotate(-90) scale(0.08 -0.08)">
       <use xlink:href="#OpenSans-Bold-41"/>
       <use xlink:href="#OpenSans-Bold-6c" x="68.994141"/>
       <use xlink:href="#OpenSans-Bold-65" x="99.511719"/>
       <use xlink:href="#OpenSans-Bold-6d" x="158.59375"/>
       <use xlink:href="#OpenSans-Bold-61" x="256.787109"/>
       <use xlink:href="#OpenSans-Bold-6e" x="317.1875"/>
       <use xlink:href="#OpenSans-Bold-69" x="382.910156"/>
       <use xlink:href="#OpenSans-Bold-61" x="413.427734"/>
      </g>
     </g>
    </g>
    <g id="xtick_15">
     <g id="line2d_15">
      <g>
       <use xlink:href="#m3dafd894bc" x="313.933694" y="194.74" style="fill: #37539c; stroke: #37539c; stroke-width: 0.8"/>
      </g>
     </g>
     <g id="text_15">
      <!-- Japón -->
      <g style="fill: #37539c" transform="translate(316.036819 224.495) rotate(-90) scale(0.08 -0.08)">
       <defs>
        <path id="OpenSans-Bold-4a" d="M 97 -1344 
Q -91 -1344 -233 -1323 
Q -375 -1303 -475 -1275 
L -475 -469 
Q -375 -491 -261 -511 
Q -147 -531 -19 -531 
Q 150 -531 284 -467 
Q 419 -403 497 -225 
Q 575 -47 575 288 
L 575 4569 
L 1544 4569 
L 1544 294 
Q 1544 -294 1361 -655 
Q 1178 -1016 851 -1180 
Q 525 -1344 97 -1344 
z
" transform="scale(0.015625)"/>
        <path id="OpenSans-Bold-70" d="M 2444 3559 
Q 3034 3559 3398 3100 
Q 3763 2641 3763 1753 
Q 3763 1159 3591 754 
Q 3419 350 3116 143 
Q 2813 -63 2419 -63 
Q 2166 -63 1984 1 
Q 1803 66 1675 167 
Q 1547 269 1453 384 
L 1403 384 
Q 1428 259 1440 128 
Q 1453 -3 1453 -128 
L 1453 -1538 
L 500 -1538 
L 500 3494 
L 1275 3494 
L 1409 3041 
L 1453 3041 
Q 1547 3181 1681 3300 
Q 1816 3419 2005 3489 
Q 2194 3559 2444 3559 
z
M 2138 2797 
Q 1888 2797 1741 2694 
Q 1594 2591 1526 2384 
Q 1459 2178 1453 1863 
L 1453 1759 
Q 1453 1422 1517 1187 
Q 1581 953 1732 831 
Q 1884 709 2150 709 
Q 2369 709 2509 831 
Q 2650 953 2720 1189 
Q 2791 1425 2791 1766 
Q 2791 2278 2631 2537 
Q 2472 2797 2138 2797 
z
" transform="scale(0.015625)"/>
        <path id="OpenSans-Bold-f3" d="M 3675 1753 
Q 3675 1316 3558 978 
Q 3441 641 3217 408 
Q 2994 175 2680 56 
Q 2366 -63 1972 -63 
Q 1603 -63 1295 56 
Q 988 175 761 408 
Q 534 641 411 978 
Q 288 1316 288 1753 
Q 288 2334 494 2737 
Q 700 3141 1081 3350 
Q 1463 3559 1991 3559 
Q 2481 3559 2861 3350 
Q 3241 3141 3458 2737 
Q 3675 2334 3675 1753 
z
M 1259 1753 
Q 1259 1409 1334 1175 
Q 1409 941 1568 822 
Q 1728 703 1984 703 
Q 2238 703 2395 822 
Q 2553 941 2626 1175 
Q 2700 1409 2700 1753 
Q 2700 2100 2626 2329 
Q 2553 2559 2393 2675 
Q 2234 2791 1978 2791 
Q 1600 2791 1429 2531 
Q 1259 2272 1259 1753 
z
M 3211 4903 
L 3211 4838 
Q 3121 4750 2974 4622 
Q 2827 4494 2658 4355 
Q 2490 4216 2327 4089 
Q 2165 3963 2043 3878 
L 1408 3878 
L 1408 3963 
Q 1511 4081 1647 4245 
Q 1783 4409 1917 4584 
Q 2052 4759 2143 4903 
L 3211 4903 
z
" transform="scale(0.015625)"/>
       </defs>
       <use xlink:href="#OpenSans-Bold-4a"/>
       <use xlink:href="#OpenSans-Bold-61" x="33.105469"/>
       <use xlink:href="#OpenSans-Bold-70" x="93.505859"/>
       <use xlink:href="#OpenSans-Bold-f3" x="156.787109"/>
       <use xlink:href="#OpenSans-Bold-6e" x="218.701172"/>
      </g>
     </g>
    </g>
    <g id="xtick_16">
     <g id="line2d_16">
      <g>
       <use xlink:href="#m3dafd894bc" x="332.418639" y="194.74" style="fill: #37539c; stroke: #37539c; stroke-width: 0.8"/>
      </g>
     </g>
     <g id="text_16">
      <!-- Estados Unidos -->
      <g style="fill: #37539c" transform="translate(334.496764 262.31125) rotate(-90) scale(0.08 -0.08)">
       <defs>
        <path id="OpenSans-Bold-45" d="M 3206 0 
L 575 0 
L 575 4569 
L 3206 4569 
L 3206 3775 
L 1544 3775 
L 1544 2772 
L 3091 2772 
L 3091 1978 
L 1544 1978 
L 1544 800 
L 3206 800 
L 3206 0 
z
" transform="scale(0.015625)"/>
        <path id="OpenSans-Bold-55" d="M 4294 4569 
L 4294 1613 
Q 4294 1141 4086 761 
Q 3878 381 3458 159 
Q 3038 -63 2400 -63 
Q 1494 -63 1019 400 
Q 544 863 544 1625 
L 544 4569 
L 1509 4569 
L 1509 1772 
Q 1509 1206 1740 978 
Q 1972 750 2425 750 
Q 2744 750 2942 859 
Q 3141 969 3234 1197 
Q 3328 1425 3328 1778 
L 3328 4569 
L 4294 4569 
z
" transform="scale(0.015625)"/>
       </defs>
       <use xlink:href="#OpenSans-Bold-45"/>
       <use xlink:href="#OpenSans-Bold-73" x="56.005859"/>
       <use xlink:href="#OpenSans-Bold-74" x="105.712891"/>
       <use xlink:href="#OpenSans-Bold-61" x="149.121094"/>
       <use xlink:href="#OpenSans-Bold-64" x="209.521484"/>
       <use xlink:href="#OpenSans-Bold-6f" x="272.802734"/>
       <use xlink:href="#OpenSans-Bold-73" x="334.716797"/>
       <use xlink:href="#OpenSans-Bold-20" x="384.423828"/>
       <use xlink:href="#OpenSans-Bold-55" x="410.400391"/>
       <use xlink:href="#OpenSans-Bold-6e" x="485.986328"/>
       <use xlink:href="#OpenSans-Bold-69" x="551.708984"/>
       <use xlink:href="#OpenSans-Bold-64" x="582.226562"/>
       <use xlink:href="#OpenSans-Bold-6f" x="645.507812"/>
       <use xlink:href="#OpenSans-Bold-73" x="707.421875"/>
      </g>
     </g>
    </g>
    <g id="xtick_17">
     <g id="line2d_17">
      <g>
       <use xlink:href="#m3dafd894bc" x="350.903583" y="194.74" style="fill: #37539c; stroke: #37539c; stroke-width: 0.8"/>
      </g>
     </g>
     <g id="text_17">
      <!-- Eslovenia -->
      <g style="fill: #37539c" transform="translate(352.981708 239.4) rotate(-90) scale(0.08 -0.08)">
       <use xlink:href="#OpenSans-Bold-45"/>
       <use xlink:href="#OpenSans-Bold-73" x="56.005859"/>
       <use xlink:href="#OpenSans-Bold-6c" x="105.712891"/>
       <use xlink:href="#OpenSans-Bold-6f" x="136.230469"/>
       <use xlink:href="#OpenSans-Bold-76" x="198.144531"/>
       <use xlink:href="#OpenSans-Bold-65" x="255.029297"/>
       <use xlink:href="#OpenSans-Bold-6e" x="314.111328"/>
       <use xlink:href="#OpenSans-Bold-69" x="379.833984"/>
       <use xlink:href="#OpenSans-Bold-61" x="410.351562"/>
      </g>
     </g>
    </g>
    <g id="xtick_18">
     <g id="line2d_18">
      <g>
       <use xlink:href="#m3dafd894bc" x="369.388528" y="194.74" style="fill: #37539c; stroke: #37539c; stroke-width: 0.8"/>
      </g>
     </g>
     <g id="text_18">
      <!-- Reino Unido -->
      <g style="fill: #37539c" transform="translate(371.466653 250.24125) rotate(-90) scale(0.08 -0.08)">
       <defs>
        <path id="OpenSans-Bold-52" d="M 1906 4569 
Q 2528 4569 2933 4419 
Q 3338 4269 3534 3966 
Q 3731 3663 3731 3200 
Q 3731 2888 3612 2653 
Q 3494 2419 3300 2256 
Q 3106 2094 2881 1991 
L 4225 0 
L 3150 0 
L 2059 1753 
L 1544 1753 
L 1544 0 
L 575 0 
L 575 4569 
L 1906 4569 
z
M 1838 3775 
L 1544 3775 
L 1544 2541 
L 1856 2541 
Q 2338 2541 2545 2702 
Q 2753 2863 2753 3175 
Q 2753 3500 2529 3637 
Q 2306 3775 1838 3775 
z
" transform="scale(0.015625)"/>
       </defs>
       <use xlink:href="#OpenSans-Bold-52"/>
       <use xlink:href="#OpenSans-Bold-65" x="66.015625"/>
       <use xlink:href="#OpenSans-Bold-69" x="125.097656"/>
       <use xlink:href="#OpenSans-Bold-6e" x="155.615234"/>
       <use xlink:href="#OpenSans-Bold-6f" x="221.337891"/>
       <use xlink:href="#OpenSans-Bold-20" x="283.251953"/>
       <use xlink:href="#OpenSans-Bold-55" x="309.228516"/>
       <use xlink:href="#OpenSans-Bold-6e" x="384.814453"/>
       <use xlink:href="#OpenSans-Bold-69" x="450.537109"/>
       <use xlink:href="#OpenSans-Bold-64" x="481.054688"/>
       <use xlink:href="#OpenSans-Bold-6f" x="544.335938"/>
      </g>
     </g>
    </g>
    <g id="xtick_19">
     <g id="line2d_19">
      <g>
       <use xlink:href="#m3dafd894bc" x="387.873472" y="194.74" style="fill: #37539c; stroke: #37539c; stroke-width: 0.8"/>
      </g>
     </g>
     <g id="text_19">
      <!-- Suiza -->
      <g style="fill: #37539c" transform="translate(389.951597 222.58) rotate(-90) scale(0.08 -0.08)">
       <defs>
        <path id="OpenSans-Bold-7a" d="M 2931 0 
L 172 0 
L 172 563 
L 1791 2766 
L 269 2766 
L 269 3494 
L 2875 3494 
L 2875 2875 
L 1300 728 
L 2931 728 
L 2931 0 
z
" transform="scale(0.015625)"/>
       </defs>
       <use xlink:href="#OpenSans-Bold-53"/>
       <use xlink:href="#OpenSans-Bold-75" x="55.078125"/>
       <use xlink:href="#OpenSans-Bold-69" x="120.800781"/>
       <use xlink:href="#OpenSans-Bold-7a" x="151.318359"/>
       <use xlink:href="#OpenSans-Bold-61" x="200.097656"/>
      </g>
     </g>
    </g>
    <g id="xtick_20">
     <g id="line2d_20">
      <g>
       <use xlink:href="#m3dafd894bc" x="406.358417" y="194.74" style="fill: #37539c; stroke: #37539c; stroke-width: 0.8"/>
      </g>
     </g>
     <g id="text_20">
      <!-- Grecia -->
      <g style="fill: #37539c" transform="translate(408.436542 227.27875) rotate(-90) scale(0.08 -0.08)">
       <defs>
        <path id="OpenSans-Bold-47" d="M 2309 2566 
L 4122 2566 
L 4122 197 
Q 3763 78 3375 7 
Q 2988 -63 2497 -63 
Q 1816 -63 1341 206 
Q 866 475 619 1000 
Q 372 1525 372 2291 
Q 372 3009 648 3534 
Q 925 4059 1458 4346 
Q 1991 4634 2759 4634 
Q 3122 4634 3475 4556 
Q 3828 4478 4116 4353 
L 3794 3578 
Q 3584 3684 3315 3756 
Q 3047 3828 2753 3828 
Q 2331 3828 2020 3634 
Q 1709 3441 1539 3092 
Q 1369 2744 1369 2272 
Q 1369 1825 1491 1479 
Q 1613 1134 1875 939 
Q 2138 744 2559 744 
Q 2766 744 2908 764 
Q 3050 784 3175 806 
L 3175 1759 
L 2309 1759 
L 2309 2566 
z
" transform="scale(0.015625)"/>
       </defs>
       <use xlink:href="#OpenSans-Bold-47"/>
       <use xlink:href="#OpenSans-Bold-72" x="72.412109"/>
       <use xlink:href="#OpenSans-Bold-65" x="117.822266"/>
       <use xlink:href="#OpenSans-Bold-63" x="176.904297"/>
       <use xlink:href="#OpenSans-Bold-69" x="228.320312"/>
       <use xlink:href="#OpenSans-Bold-61" x="258.837891"/>
      </g>
     </g>
    </g>
    <g id="xtick_21">
     <g id="line2d_21">
      <g>
       <use xlink:href="#m3dafd894bc" x="424.843361" y="194.74" style="fill: #37539c; stroke: #37539c; stroke-width: 0.8"/>
      </g>
     </g>
     <g id="text_21">
      <!-- Unión Europea -->
      <g style="fill: #37539c" transform="translate(426.946486 260.72125) rotate(-90) scale(0.08 -0.08)">
       <use xlink:href="#OpenSans-Bold-55"/>
       <use xlink:href="#OpenSans-Bold-6e" x="75.585938"/>
       <use xlink:href="#OpenSans-Bold-69" x="141.308594"/>
       <use xlink:href="#OpenSans-Bold-f3" x="171.826172"/>
       <use xlink:href="#OpenSans-Bold-6e" x="233.740234"/>
       <use xlink:href="#OpenSans-Bold-20" x="299.462891"/>
       <use xlink:href="#OpenSans-Bold-45" x="325.439453"/>
       <use xlink:href="#OpenSans-Bold-75" x="381.445312"/>
       <use xlink:href="#OpenSans-Bold-72" x="447.167969"/>
       <use xlink:href="#OpenSans-Bold-6f" x="492.578125"/>
       <use xlink:href="#OpenSans-Bold-70" x="554.492188"/>
       <use xlink:href="#OpenSans-Bold-65" x="617.773438"/>
       <use xlink:href="#OpenSans-Bold-61" x="676.855469"/>
      </g>
     </g>
    </g>
    <g id="xtick_22">
     <g id="line2d_22">
      <g>
       <use xlink:href="#m3dafd894bc" x="443.328306" y="194.74" style="fill: #37539c; stroke: #37539c; stroke-width: 0.8"/>
      </g>
     </g>
     <g id="text_22">
      <!-- OCDE - Total -->
      <g style="fill: #37539c" transform="translate(445.406431 250.67125) rotate(-90) scale(0.08 -0.08)">
       <defs>
        <path id="OpenSans-Bold-4f" d="M 4722 2291 
Q 4722 1763 4590 1330 
Q 4459 897 4192 584 
Q 3925 272 3515 104 
Q 3106 -63 2547 -63 
Q 1988 -63 1578 104 
Q 1169 272 901 584 
Q 634 897 503 1331 
Q 372 1766 372 2297 
Q 372 3006 605 3532 
Q 838 4059 1322 4350 
Q 1806 4641 2553 4641 
Q 3297 4641 3776 4350 
Q 4256 4059 4489 3531 
Q 4722 3003 4722 2291 
z
M 1388 2291 
Q 1388 1813 1508 1467 
Q 1628 1122 1884 936 
Q 2141 750 2547 750 
Q 2959 750 3215 936 
Q 3472 1122 3589 1467 
Q 3706 1813 3706 2291 
Q 3706 3009 3437 3421 
Q 3169 3834 2553 3834 
Q 2144 3834 1886 3648 
Q 1628 3463 1508 3117 
Q 1388 2772 1388 2291 
z
" transform="scale(0.015625)"/>
        <path id="OpenSans-Bold-2d" d="M 191 1325 
L 191 2106 
L 1869 2106 
L 1869 1325 
L 191 1325 
z
" transform="scale(0.015625)"/>
        <path id="OpenSans-Bold-54" d="M 2338 0 
L 1369 0 
L 1369 3763 
L 128 3763 
L 128 4569 
L 3578 4569 
L 3578 3763 
L 2338 3763 
L 2338 0 
z
" transform="scale(0.015625)"/>
       </defs>
       <use xlink:href="#OpenSans-Bold-4f"/>
       <use xlink:href="#OpenSans-Bold-43" x="79.589844"/>
       <use xlink:href="#OpenSans-Bold-44" x="143.310547"/>
       <use xlink:href="#OpenSans-Bold-45" x="217.333984"/>
       <use xlink:href="#OpenSans-Bold-20" x="273.339844"/>
       <use xlink:href="#OpenSans-Bold-2d" x="299.316406"/>
       <use xlink:href="#OpenSans-Bold-20" x="331.494141"/>
       <use xlink:href="#OpenSans-Bold-54" x="357.470703"/>
       <use xlink:href="#OpenSans-Bold-6f" x="415.380859"/>
       <use xlink:href="#OpenSans-Bold-74" x="477.294922"/>
       <use xlink:href="#OpenSans-Bold-61" x="520.703125"/>
       <use xlink:href="#OpenSans-Bold-6c" x="581.103516"/>
      </g>
     </g>
    </g>
    <g id="xtick_23">
     <g id="line2d_23">
      <g>
       <use xlink:href="#m3dafd894bc" x="461.81325" y="194.74" style="fill: #37539c; stroke: #37539c; stroke-width: 0.8"/>
      </g>
     </g>
     <g id="text_23">
      <!-- Hungría -->
      <g style="fill: #37539c" transform="translate(463.916375 233.8025) rotate(-90) scale(0.08 -0.08)">
       <defs>
        <path id="OpenSans-Bold-48" d="M 4319 0 
L 3353 0 
L 3353 1972 
L 1544 1972 
L 1544 0 
L 575 0 
L 575 4569 
L 1544 4569 
L 1544 2778 
L 3353 2778 
L 3353 4569 
L 4319 4569 
L 4319 0 
z
" transform="scale(0.015625)"/>
       </defs>
       <use xlink:href="#OpenSans-Bold-48"/>
       <use xlink:href="#OpenSans-Bold-75" x="76.513672"/>
       <use xlink:href="#OpenSans-Bold-6e" x="142.236328"/>
       <use xlink:href="#OpenSans-Bold-67" x="207.958984"/>
       <use xlink:href="#OpenSans-Bold-72" x="264.453125"/>
       <use xlink:href="#OpenSans-Bold-ed" x="309.863281"/>
       <use xlink:href="#OpenSans-Bold-61" x="340.380859"/>
      </g>
     </g>
    </g>
    <g id="xtick_24">
     <g id="line2d_24">
      <g>
       <use xlink:href="#m3dafd894bc" x="480.298194" y="194.74" style="fill: #37539c; stroke: #37539c; stroke-width: 0.8"/>
      </g>
     </g>
     <g id="text_24">
      <!-- Canadá -->
      <g style="fill: #37539c" transform="translate(482.376319 231.655) rotate(-90) scale(0.08 -0.08)">
       <defs>
        <path id="OpenSans-Bold-e1" d="M 1931 3566 
Q 2634 3566 3009 3259 
Q 3384 2953 3384 2328 
L 3384 0 
L 2719 0 
L 2534 475 
L 2509 475 
Q 2359 288 2203 169 
Q 2047 50 1844 -6 
Q 1641 -63 1350 -63 
Q 1041 -63 795 56 
Q 550 175 409 420 
Q 269 666 269 1044 
Q 269 1600 659 1864 
Q 1050 2128 1831 2156 
L 2438 2175 
L 2438 2328 
Q 2438 2603 2294 2731 
Q 2150 2859 1894 2859 
Q 1641 2859 1397 2787 
Q 1153 2716 909 2606 
L 594 3250 
Q 872 3397 1217 3481 
Q 1563 3566 1931 3566 
z
M 2438 1619 
L 2069 1606 
Q 1606 1594 1426 1441 
Q 1247 1288 1247 1038 
Q 1247 819 1375 726 
Q 1503 634 1709 634 
Q 2016 634 2227 815 
Q 2438 997 2438 1331 
L 2438 1619 
z
M 3163 4903 
L 3163 4838 
Q 3073 4750 2926 4622 
Q 2779 4494 2610 4355 
Q 2442 4216 2279 4089 
Q 2117 3963 1995 3878 
L 1360 3878 
L 1360 3963 
Q 1463 4081 1599 4245 
Q 1735 4409 1869 4584 
Q 2004 4759 2095 4903 
L 3163 4903 
z
" transform="scale(0.015625)"/>
       </defs>
       <use xlink:href="#OpenSans-Bold-43"/>
       <use xlink:href="#OpenSans-Bold-61" x="63.720703"/>
       <use xlink:href="#OpenSans-Bold-6e" x="124.121094"/>
       <use xlink:href="#OpenSans-Bold-61" x="189.84375"/>
       <use xlink:href="#OpenSans-Bold-64" x="250.244141"/>
       <use xlink:href="#OpenSans-Bold-e1" x="313.525391"/>
      </g>
     </g>
    </g>
    <g id="xtick_25">
     <g id="line2d_25">
      <g>
       <use xlink:href="#m3dafd894bc" x="498.783139" y="194.74" style="fill: #37539c; stroke: #37539c; stroke-width: 0.8"/>
      </g>
     </g>
     <g id="text_25">
      <!-- República Checa -->
      <g style="fill: #37539c" transform="translate(500.886264 267.065) rotate(-90) scale(0.08 -0.08)">
       <defs>
        <path id="OpenSans-Bold-fa" d="M 3706 3494 
L 3706 0 
L 2975 0 
L 2847 447 
L 2797 447 
Q 2684 269 2515 156 
Q 2347 44 2144 -9 
Q 1941 -63 1722 -63 
Q 1347 -63 1069 70 
Q 791 203 636 484 
Q 481 766 481 1216 
L 481 3494 
L 1434 3494 
L 1434 1453 
Q 1434 1078 1568 887 
Q 1703 697 1997 697 
Q 2288 697 2453 830 
Q 2619 963 2686 1220 
Q 2753 1478 2753 1850 
L 2753 3494 
L 3706 3494 
z
M 3331 4903 
L 3331 4838 
Q 3241 4750 3094 4622 
Q 2947 4494 2778 4355 
Q 2610 4216 2447 4089 
Q 2285 3963 2163 3878 
L 1528 3878 
L 1528 3963 
Q 1631 4081 1767 4245 
Q 1903 4409 2037 4584 
Q 2172 4759 2263 4903 
L 3331 4903 
z
" transform="scale(0.015625)"/>
        <path id="OpenSans-Bold-62" d="M 1453 4863 
L 1453 3731 
Q 1453 3534 1442 3340 
Q 1431 3147 1416 3041 
L 1453 3041 
Q 1591 3256 1828 3407 
Q 2066 3559 2444 3559 
Q 3031 3559 3397 3100 
Q 3763 2641 3763 1753 
Q 3763 1156 3594 751 
Q 3425 347 3122 142 
Q 2819 -63 2419 -63 
Q 2034 -63 1812 75 
Q 1591 213 1453 384 
L 1388 384 
L 1228 0 
L 500 0 
L 500 4863 
L 1453 4863 
z
M 2138 2797 
Q 1888 2797 1741 2694 
Q 1594 2591 1526 2384 
Q 1459 2178 1453 1863 
L 1453 1759 
Q 1453 1250 1603 979 
Q 1753 709 2150 709 
Q 2444 709 2617 981 
Q 2791 1253 2791 1766 
Q 2791 2278 2616 2537 
Q 2441 2797 2138 2797 
z
" transform="scale(0.015625)"/>
        <path id="OpenSans-Bold-68" d="M 1453 4863 
L 1453 3872 
Q 1453 3613 1436 3378 
Q 1419 3144 1409 3047 
L 1459 3047 
Q 1572 3228 1726 3340 
Q 1881 3453 2068 3506 
Q 2256 3559 2472 3559 
Q 2850 3559 3131 3426 
Q 3413 3294 3569 3011 
Q 3725 2728 3725 2278 
L 3725 0 
L 2772 0 
L 2772 2041 
Q 2772 2416 2634 2606 
Q 2497 2797 2209 2797 
Q 1922 2797 1756 2664 
Q 1591 2531 1522 2273 
Q 1453 2016 1453 1644 
L 1453 0 
L 500 0 
L 500 4863 
L 1453 4863 
z
" transform="scale(0.015625)"/>
       </defs>
       <use xlink:href="#OpenSans-Bold-52"/>
       <use xlink:href="#OpenSans-Bold-65" x="66.015625"/>
       <use xlink:href="#OpenSans-Bold-70" x="125.097656"/>
       <use xlink:href="#OpenSans-Bold-fa" x="188.378906"/>
       <use xlink:href="#OpenSans-Bold-62" x="254.101562"/>
       <use xlink:href="#OpenSans-Bold-6c" x="317.382812"/>
       <use xlink:href="#OpenSans-Bold-69" x="347.900391"/>
       <use xlink:href="#OpenSans-Bold-63" x="378.417969"/>
       <use xlink:href="#OpenSans-Bold-61" x="429.833984"/>
       <use xlink:href="#OpenSans-Bold-20" x="490.234375"/>
       <use xlink:href="#OpenSans-Bold-43" x="516.210938"/>
       <use xlink:href="#OpenSans-Bold-68" x="579.931641"/>
       <use xlink:href="#OpenSans-Bold-65" x="645.654297"/>
       <use xlink:href="#OpenSans-Bold-63" x="704.736328"/>
       <use xlink:href="#OpenSans-Bold-61" x="756.152344"/>
      </g>
     </g>
    </g>
    <g id="xtick_26">
     <g id="line2d_26">
      <g>
       <use xlink:href="#m3dafd894bc" x="517.268083" y="194.74" style="fill: #37539c; stroke: #37539c; stroke-width: 0.8"/>
      </g>
     </g>
     <g id="text_26">
      <!-- Estonia -->
      <g style="fill: #37539c" transform="translate(519.346208 231.15375) rotate(-90) scale(0.08 -0.08)">
       <use xlink:href="#OpenSans-Bold-45"/>
       <use xlink:href="#OpenSans-Bold-73" x="56.005859"/>
       <use xlink:href="#OpenSans-Bold-74" x="105.712891"/>
       <use xlink:href="#OpenSans-Bold-6f" x="149.121094"/>
       <use xlink:href="#OpenSans-Bold-6e" x="211.035156"/>
       <use xlink:href="#OpenSans-Bold-69" x="276.757812"/>
       <use xlink:href="#OpenSans-Bold-61" x="307.275391"/>
      </g>
     </g>
    </g>
    <g id="xtick_27">
     <g id="line2d_27">
      <g>
       <use xlink:href="#m3dafd894bc" x="535.753028" y="194.74" style="fill: #37539c; stroke: #37539c; stroke-width: 0.8"/>
      </g>
     </g>
     <g id="text_27">
      <!-- Polonia -->
      <g style="fill: #37539c" transform="translate(537.831153 231.64375) rotate(-90) scale(0.08 -0.08)">
       <use xlink:href="#OpenSans-Bold-50"/>
       <use xlink:href="#OpenSans-Bold-6f" x="62.792969"/>
       <use xlink:href="#OpenSans-Bold-6c" x="124.707031"/>
       <use xlink:href="#OpenSans-Bold-6f" x="155.224609"/>
       <use xlink:href="#OpenSans-Bold-6e" x="217.138672"/>
       <use xlink:href="#OpenSans-Bold-69" x="282.861328"/>
       <use xlink:href="#OpenSans-Bold-61" x="313.378906"/>
      </g>
     </g>
    </g>
    <g id="xtick_28">
     <g id="line2d_28">
      <g>
       <use xlink:href="#m3dafd894bc" x="554.237972" y="194.74" style="fill: #37539c; stroke: #37539c; stroke-width: 0.8"/>
      </g>
     </g>
     <g id="text_28">
      <!-- España -->
      <g style="fill: #37539c" transform="translate(556.316097 230.18125) rotate(-90) scale(0.08 -0.08)">
       <defs>
        <path id="OpenSans-Bold-f1" d="M 2484 3559 
Q 3044 3559 3384 3254 
Q 3725 2950 3725 2278 
L 3725 0 
L 2772 0 
L 2772 2041 
Q 2772 2416 2636 2606 
Q 2500 2797 2209 2797 
Q 1772 2797 1612 2500 
Q 1453 2203 1453 1644 
L 1453 0 
L 500 0 
L 500 3494 
L 1228 3494 
L 1356 3047 
L 1409 3047 
Q 1522 3228 1689 3340 
Q 1856 3453 2061 3506 
Q 2266 3559 2484 3559 
z
M 808 3872 
Q 827 4122 899 4305 
Q 971 4488 1086 4605 
Q 1202 4722 1347 4780 
Q 1493 4838 1658 4838 
Q 1786 4838 1909 4789 
Q 2033 4741 2153 4675 
Q 2274 4609 2391 4561 
Q 2508 4513 2621 4513 
Q 2715 4513 2804 4595 
Q 2893 4678 2933 4844 
L 3399 4844 
Q 3361 4350 3117 4114 
Q 2874 3878 2549 3878 
Q 2421 3878 2297 3928 
Q 2174 3978 2053 4042 
Q 1933 4106 1817 4156 
Q 1702 4206 1590 4206 
Q 1493 4206 1404 4123 
Q 1315 4041 1274 3872 
L 808 3872 
z
" transform="scale(0.015625)"/>
       </defs>
       <use xlink:href="#OpenSans-Bold-45"/>
       <use xlink:href="#OpenSans-Bold-73" x="56.005859"/>
       <use xlink:href="#OpenSans-Bold-70" x="105.712891"/>
       <use xlink:href="#OpenSans-Bold-61" x="168.994141"/>
       <use xlink:href="#OpenSans-Bold-f1" x="229.394531"/>
       <use xlink:href="#OpenSans-Bold-61" x="295.117188"/>
      </g>
     </g>
    </g>
    <g id="xtick_29">
     <g id="line2d_29">
      <g>
       <use xlink:href="#m3dafd894bc" x="572.722917" y="194.74" style="fill: #37539c; stroke: #37539c; stroke-width: 0.8"/>
      </g>
     </g>
     <g id="text_29">
      <!-- Letonia -->
      <g style="fill: #37539c" transform="translate(574.801042 231.94375) rotate(-90) scale(0.08 -0.08)">
       <defs>
        <path id="OpenSans-Bold-4c" d="M 575 0 
L 575 4569 
L 1544 4569 
L 1544 800 
L 3397 800 
L 3397 0 
L 575 0 
z
" transform="scale(0.015625)"/>
       </defs>
       <use xlink:href="#OpenSans-Bold-4c"/>
       <use xlink:href="#OpenSans-Bold-65" x="56.494141"/>
       <use xlink:href="#OpenSans-Bold-74" x="115.576172"/>
       <use xlink:href="#OpenSans-Bold-6f" x="158.984375"/>
       <use xlink:href="#OpenSans-Bold-6e" x="220.898438"/>
       <use xlink:href="#OpenSans-Bold-69" x="286.621094"/>
       <use xlink:href="#OpenSans-Bold-61" x="317.138672"/>
      </g>
     </g>
    </g>
    <g id="xtick_30">
     <g id="line2d_30">
      <g>
       <use xlink:href="#m3dafd894bc" x="591.207861" y="194.74" style="fill: #37539c; stroke: #37539c; stroke-width: 0.8"/>
      </g>
     </g>
     <g id="text_30">
      <!-- Eslovaquia -->
      <g style="fill: #37539c" transform="translate(593.285986 244.56875) rotate(-90) scale(0.08 -0.08)">
       <defs>
        <path id="OpenSans-Bold-71" d="M 2597 -1538 
L 2597 -72 
Q 2597 59 2608 192 
Q 2619 325 2638 453 
L 2597 453 
Q 2463 238 2227 87 
Q 1991 -63 1606 -63 
Q 1016 -63 652 395 
Q 288 853 288 1741 
Q 288 2338 456 2742 
Q 625 3147 926 3353 
Q 1228 3559 1625 3559 
Q 2009 3559 2248 3411 
Q 2488 3263 2638 3047 
L 2663 3047 
L 2747 3494 
L 3553 3494 
L 3553 -1538 
L 2597 -1538 
z
M 1947 684 
Q 2209 684 2364 787 
Q 2519 891 2587 1098 
Q 2656 1306 2663 1619 
L 2663 1734 
Q 2663 2244 2506 2514 
Q 2350 2784 1931 2784 
Q 1591 2784 1425 2512 
Q 1259 2241 1259 1728 
Q 1259 1206 1428 945 
Q 1597 684 1947 684 
z
" transform="scale(0.015625)"/>
       </defs>
       <use xlink:href="#OpenSans-Bold-45"/>
       <use xlink:href="#OpenSans-Bold-73" x="56.005859"/>
       <use xlink:href="#OpenSans-Bold-6c" x="105.712891"/>
       <use xlink:href="#OpenSans-Bold-6f" x="136.230469"/>
       <use xlink:href="#OpenSans-Bold-76" x="198.144531"/>
       <use xlink:href="#OpenSans-Bold-61" x="255.029297"/>
       <use xlink:href="#OpenSans-Bold-71" x="315.429688"/>
       <use xlink:href="#OpenSans-Bold-75" x="378.710938"/>
       <use xlink:href="#OpenSans-Bold-69" x="444.433594"/>
       <use xlink:href="#OpenSans-Bold-61" x="474.951172"/>
      </g>
     </g>
    </g>
    <g id="xtick_31">
     <g id="line2d_31">
      <g>
       <use xlink:href="#m3dafd894bc" x="609.692806" y="194.74" style="fill: #37539c; stroke: #37539c; stroke-width: 0.8"/>
      </g>
     </g>
     <g id="text_31">
      <!-- Luxemburgo -->
      <g style="fill: #37539c" transform="translate(611.770931 252.15) rotate(-90) scale(0.08 -0.08)">
       <defs>
        <path id="OpenSans-Bold-78" d="M 1216 1784 
L 91 3494 
L 1172 3494 
L 1850 2381 
L 2534 3494 
L 3616 3494 
L 2478 1784 
L 3669 0 
L 2584 0 
L 1850 1197 
L 1113 0 
L 31 0 
L 1216 1784 
z
" transform="scale(0.015625)"/>
       </defs>
       <use xlink:href="#OpenSans-Bold-4c"/>
       <use xlink:href="#OpenSans-Bold-75" x="56.494141"/>
       <use xlink:href="#OpenSans-Bold-78" x="122.216797"/>
       <use xlink:href="#OpenSans-Bold-65" x="180.029297"/>
       <use xlink:href="#OpenSans-Bold-6d" x="239.111328"/>
       <use xlink:href="#OpenSans-Bold-62" x="337.304688"/>
       <use xlink:href="#OpenSans-Bold-75" x="400.585938"/>
       <use xlink:href="#OpenSans-Bold-72" x="466.308594"/>
       <use xlink:href="#OpenSans-Bold-67" x="511.71875"/>
       <use xlink:href="#OpenSans-Bold-6f" x="568.212891"/>
      </g>
     </g>
    </g>
    <g id="xtick_32">
     <g id="line2d_32">
      <g>
       <use xlink:href="#m3dafd894bc" x="628.17775" y="194.74" style="fill: #37539c; stroke: #37539c; stroke-width: 0.8"/>
      </g>
     </g>
     <g id="text_32">
      <!-- Italia -->
      <g style="fill: #37539c" transform="translate(630.255875 222.40875) rotate(-90) scale(0.08 -0.08)">
       <use xlink:href="#OpenSans-Bold-49"/>
       <use xlink:href="#OpenSans-Bold-74" x="33.105469"/>
       <use xlink:href="#OpenSans-Bold-61" x="76.513672"/>
       <use xlink:href="#OpenSans-Bold-6c" x="136.914062"/>
       <use xlink:href="#OpenSans-Bold-69" x="167.431641"/>
       <use xlink:href="#OpenSans-Bold-61" x="197.949219"/>
      </g>
     </g>
    </g>
    <g id="xtick_33">
     <g id="line2d_33">
      <g>
       <use xlink:href="#m3dafd894bc" x="646.662694" y="194.74" style="fill: #37539c; stroke: #37539c; stroke-width: 0.8"/>
      </g>
     </g>
     <g id="text_33">
      <!-- Turquía -->
      <g style="fill: #37539c" transform="translate(648.765819 232.85625) rotate(-90) scale(0.08 -0.08)">
       <use xlink:href="#OpenSans-Bold-54"/>
       <use xlink:href="#OpenSans-Bold-75" x="57.910156"/>
       <use xlink:href="#OpenSans-Bold-72" x="123.632812"/>
       <use xlink:href="#OpenSans-Bold-71" x="169.042969"/>
       <use xlink:href="#OpenSans-Bold-75" x="232.324219"/>
       <use xlink:href="#OpenSans-Bold-ed" x="298.046875"/>
       <use xlink:href="#OpenSans-Bold-61" x="328.564453"/>
      </g>
     </g>
    </g>
    <g id="xtick_34">
     <g id="line2d_34">
      <g>
       <use xlink:href="#m3dafd894bc" x="665.147639" y="194.74" style="fill: #37539c; stroke: #37539c; stroke-width: 0.8"/>
      </g>
     </g>
     <g id="text_34">
      <!-- Lituania -->
      <g style="fill: #37539c" transform="translate(667.225764 234.795) rotate(-90) scale(0.08 -0.08)">
       <use xlink:href="#OpenSans-Bold-4c"/>
       <use xlink:href="#OpenSans-Bold-69" x="56.494141"/>
       <use xlink:href="#OpenSans-Bold-74" x="87.011719"/>
       <use xlink:href="#OpenSans-Bold-75" x="130.419922"/>
       <use xlink:href="#OpenSans-Bold-61" x="196.142578"/>
       <use xlink:href="#OpenSans-Bold-6e" x="256.542969"/>
       <use xlink:href="#OpenSans-Bold-69" x="322.265625"/>
       <use xlink:href="#OpenSans-Bold-61" x="352.783203"/>
      </g>
     </g>
    </g>
    <g id="xtick_35">
     <g id="line2d_35">
      <g>
       <use xlink:href="#m3dafd894bc" x="683.632583" y="194.74" style="fill: #37539c; stroke: #37539c; stroke-width: 0.8"/>
      </g>
     </g>
     <g id="text_35">
      <!-- Chile -->
      <g style="fill: #37539c" transform="translate(685.710708 221.70375) rotate(-90) scale(0.08 -0.08)">
       <use xlink:href="#OpenSans-Bold-43"/>
       <use xlink:href="#OpenSans-Bold-68" x="63.720703"/>
       <use xlink:href="#OpenSans-Bold-69" x="129.443359"/>
       <use xlink:href="#OpenSans-Bold-6c" x="159.960938"/>
       <use xlink:href="#OpenSans-Bold-65" x="190.478516"/>
      </g>
     </g>
    </g>
    <g id="xtick_36">
     <g id="line2d_36">
      <g>
       <use xlink:href="#m3dafd894bc" x="702.117528" y="194.74" style="fill: #37539c; stroke: #37539c; stroke-width: 0.8"/>
      </g>
     </g>
     <g id="text_36">
      <!-- México -->
      <g style="fill: #37539c" transform="translate(704.195653 230.1425) rotate(-90) scale(0.08 -0.08)">
       <defs>
        <path id="OpenSans-Bold-4d" d="M 2509 0 
L 1409 3584 
L 1381 3584 
Q 1388 3456 1402 3198 
Q 1416 2941 1428 2650 
Q 1441 2359 1441 2125 
L 1441 0 
L 575 0 
L 575 4569 
L 1894 4569 
L 2975 1075 
L 2994 1075 
L 4141 4569 
L 5459 4569 
L 5459 0 
L 4556 0 
L 4556 2163 
Q 4556 2378 4564 2659 
Q 4572 2941 4584 3195 
Q 4597 3450 4603 3578 
L 4575 3578 
L 3397 0 
L 2509 0 
z
" transform="scale(0.015625)"/>
       </defs>
       <use xlink:href="#OpenSans-Bold-4d"/>
       <use xlink:href="#OpenSans-Bold-e9" x="94.287109"/>
       <use xlink:href="#OpenSans-Bold-78" x="153.369141"/>
       <use xlink:href="#OpenSans-Bold-69" x="211.181641"/>
       <use xlink:href="#OpenSans-Bold-63" x="241.699219"/>
       <use xlink:href="#OpenSans-Bold-6f" x="293.115234"/>
      </g>
     </g>
    </g>
    <g id="text_37">
     <!-- País -->
     <g style="fill: #37539c" transform="translate(370.494125 277.14375) scale(0.08 -0.08)">
      <use xlink:href="#OpenSans-Bold-50"/>
      <use xlink:href="#OpenSans-Bold-61" x="62.792969"/>
      <use xlink:href="#OpenSans-Bold-ed" x="123.193359"/>
      <use xlink:href="#OpenSans-Bold-73" x="153.710938"/>
     </g>
    </g>
   </g>
   <g id="matplotlib.axis_2">
    <g id="ytick_1">
     <g id="line2d_37">
      <path d="M 45.902 194.74 
L 711.36 194.74 
" clip-path="url(#paf22b81a35)" style="fill: none; stroke-dasharray: 2.96,1.28; stroke-dashoffset: 0; stroke: #b0b0b0; stroke-width: 0.8"/>
     </g>
     <g id="line2d_38">
      <defs>
       <path id="m54022eb474" d="M 0 0 
L -3.5 0 
" style="stroke: #37539c; stroke-width: 0.8"/>
      </defs>
      <g>
       <use xlink:href="#m54022eb474" x="45.902" y="194.74" style="fill: #37539c; stroke: #37539c; stroke-width: 0.8"/>
      </g>
     </g>
     <g id="text_38">
      <!-- 0 -->
      <g style="fill: #37539c" transform="translate(34.32825 197.779375) scale(0.08 -0.08)">
       <defs>
        <path id="OpenSans-Bold-30" d="M 3425 2284 
Q 3425 1731 3339 1297 
Q 3253 863 3064 559 
Q 2875 256 2569 96 
Q 2263 -63 1825 -63 
Q 1275 -63 922 217 
Q 569 497 400 1023 
Q 231 1550 231 2284 
Q 231 3025 386 3551 
Q 541 4078 891 4359 
Q 1241 4641 1825 4641 
Q 2372 4641 2726 4361 
Q 3081 4081 3253 3554 
Q 3425 3028 3425 2284 
z
M 1191 2284 
Q 1191 1763 1248 1414 
Q 1306 1066 1443 891 
Q 1581 716 1825 716 
Q 2066 716 2205 889 
Q 2344 1063 2403 1411 
Q 2463 1759 2463 2284 
Q 2463 2806 2403 3156 
Q 2344 3506 2205 3682 
Q 2066 3859 1825 3859 
Q 1581 3859 1443 3682 
Q 1306 3506 1248 3156 
Q 1191 2806 1191 2284 
z
" transform="scale(0.015625)"/>
       </defs>
       <use xlink:href="#OpenSans-Bold-30"/>
      </g>
     </g>
    </g>
    <g id="ytick_2">
     <g id="line2d_39">
      <path d="M 45.902 173.386013 
L 711.36 173.386013 
" clip-path="url(#paf22b81a35)" style="fill: none; stroke-dasharray: 2.96,1.28; stroke-dashoffset: 0; stroke: #b0b0b0; stroke-width: 0.8"/>
     </g>
     <g id="line2d_40">
      <g>
       <use xlink:href="#m54022eb474" x="45.902" y="173.386013" style="fill: #37539c; stroke: #37539c; stroke-width: 0.8"/>
      </g>
     </g>
     <g id="text_39">
      <!-- 2 -->
      <g style="fill: #37539c" transform="translate(34.32825 176.425388) scale(0.08 -0.08)">
       <defs>
        <path id="OpenSans-Bold-32" d="M 3450 0 
L 256 0 
L 256 672 
L 1403 1831 
Q 1750 2188 1961 2427 
Q 2172 2666 2267 2862 
Q 2363 3059 2363 3284 
Q 2363 3556 2211 3692 
Q 2059 3828 1806 3828 
Q 1541 3828 1291 3706 
Q 1041 3584 769 3359 
L 244 3981 
Q 441 4150 661 4300 
Q 881 4450 1173 4542 
Q 1466 4634 1875 4634 
Q 2325 4634 2648 4471 
Q 2972 4309 3147 4029 
Q 3322 3750 3322 3397 
Q 3322 3019 3172 2706 
Q 3022 2394 2736 2087 
Q 2450 1781 2047 1409 
L 1459 856 
L 1459 813 
L 3450 813 
L 3450 0 
z
" transform="scale(0.015625)"/>
       </defs>
       <use xlink:href="#OpenSans-Bold-32"/>
      </g>
     </g>
    </g>
    <g id="ytick_3">
     <g id="line2d_41">
      <path d="M 45.902 152.032025 
L 711.36 152.032025 
" clip-path="url(#paf22b81a35)" style="fill: none; stroke-dasharray: 2.96,1.28; stroke-dashoffset: 0; stroke: #b0b0b0; stroke-width: 0.8"/>
     </g>
     <g id="line2d_42">
      <g>
       <use xlink:href="#m54022eb474" x="45.902" y="152.032025" style="fill: #37539c; stroke: #37539c; stroke-width: 0.8"/>
      </g>
     </g>
     <g id="text_40">
      <!-- 4 -->
      <g style="fill: #37539c" transform="translate(34.32825 155.0714) scale(0.08 -0.08)">
       <defs>
        <path id="OpenSans-Bold-34" d="M 3553 947 
L 3003 947 
L 3003 0 
L 2059 0 
L 2059 947 
L 109 947 
L 109 1619 
L 2113 4569 
L 3003 4569 
L 3003 1697 
L 3553 1697 
L 3553 947 
z
M 2059 1697 
L 2059 2472 
Q 2059 2581 2064 2731 
Q 2069 2881 2075 3031 
Q 2081 3181 2089 3298 
Q 2097 3416 2100 3463 
L 2075 3463 
Q 2016 3334 1950 3214 
Q 1884 3094 1797 2963 
L 959 1697 
L 2059 1697 
z
" transform="scale(0.015625)"/>
       </defs>
       <use xlink:href="#OpenSans-Bold-34"/>
      </g>
     </g>
    </g>
    <g id="ytick_4">
     <g id="line2d_43">
      <path d="M 45.902 130.678038 
L 711.36 130.678038 
" clip-path="url(#paf22b81a35)" style="fill: none; stroke-dasharray: 2.96,1.28; stroke-dashoffset: 0; stroke: #b0b0b0; stroke-width: 0.8"/>
     </g>
     <g id="line2d_44">
      <g>
       <use xlink:href="#m54022eb474" x="45.902" y="130.678038" style="fill: #37539c; stroke: #37539c; stroke-width: 0.8"/>
      </g>
     </g>
     <g id="text_41">
      <!-- 6 -->
      <g style="fill: #37539c" transform="translate(34.32825 133.717413) scale(0.08 -0.08)">
       <defs>
        <path id="OpenSans-Bold-36" d="M 225 1941 
Q 225 2334 283 2720 
Q 341 3106 484 3448 
Q 628 3791 887 4055 
Q 1147 4319 1547 4470 
Q 1947 4622 2516 4622 
Q 2650 4622 2829 4611 
Q 3009 4600 3128 4575 
L 3128 3803 
Q 3003 3831 2861 3848 
Q 2719 3866 2578 3866 
Q 2009 3866 1698 3684 
Q 1388 3503 1261 3183 
Q 1134 2863 1113 2438 
L 1153 2438 
Q 1241 2591 1373 2709 
Q 1506 2828 1697 2898 
Q 1888 2969 2144 2969 
Q 2544 2969 2837 2798 
Q 3131 2628 3290 2306 
Q 3450 1984 3450 1522 
Q 3450 1028 3259 672 
Q 3069 316 2720 126 
Q 2372 -63 1894 -63 
Q 1544 -63 1241 57 
Q 938 178 709 425 
Q 481 672 353 1048 
Q 225 1425 225 1941 
z
M 1875 709 
Q 2159 709 2337 903 
Q 2516 1097 2516 1509 
Q 2516 1844 2361 2036 
Q 2206 2228 1894 2228 
Q 1681 2228 1520 2133 
Q 1359 2038 1271 1892 
Q 1184 1747 1184 1594 
Q 1184 1434 1228 1278 
Q 1272 1122 1359 994 
Q 1447 866 1576 787 
Q 1706 709 1875 709 
z
" transform="scale(0.015625)"/>
       </defs>
       <use xlink:href="#OpenSans-Bold-36"/>
      </g>
     </g>
    </g>
    <g id="ytick_5">
     <g id="line2d_45">
      <path d="M 45.902 109.32405 
L 711.36 109.32405 
" clip-path="url(#paf22b81a35)" style="fill: none; stroke-dasharray: 2.96,1.28; stroke-dashoffset: 0; stroke: #b0b0b0; stroke-width: 0.8"/>
     </g>
     <g id="line2d_46">
      <g>
       <use xlink:href="#m54022eb474" x="45.902" y="109.32405" style="fill: #37539c; stroke: #37539c; stroke-width: 0.8"/>
      </g>
     </g>
     <g id="text_42">
      <!-- 8 -->
      <g style="fill: #37539c" transform="translate(34.32825 112.363425) scale(0.08 -0.08)">
       <defs>
        <path id="OpenSans-Bold-38" d="M 1831 4628 
Q 2225 4628 2558 4506 
Q 2891 4384 3091 4139 
Q 3291 3894 3291 3525 
Q 3291 3250 3183 3044 
Q 3075 2838 2890 2683 
Q 2706 2528 2472 2413 
Q 2716 2284 2934 2114 
Q 3153 1944 3292 1716 
Q 3431 1488 3431 1184 
Q 3431 803 3228 523 
Q 3025 244 2665 90 
Q 2306 -63 1831 -63 
Q 1319 -63 959 84 
Q 600 231 412 504 
Q 225 778 225 1159 
Q 225 1472 342 1703 
Q 459 1934 659 2101 
Q 859 2269 1100 2388 
Q 897 2516 730 2678 
Q 563 2841 464 3050 
Q 366 3259 366 3531 
Q 366 3894 570 4137 
Q 775 4381 1109 4504 
Q 1444 4628 1831 4628 
z
M 1119 1216 
Q 1119 969 1295 808 
Q 1472 647 1819 647 
Q 2178 647 2356 801 
Q 2534 956 2534 1209 
Q 2534 1384 2432 1515 
Q 2331 1647 2178 1751 
Q 2025 1856 1869 1947 
L 1784 1991 
Q 1584 1900 1436 1787 
Q 1288 1675 1203 1534 
Q 1119 1394 1119 1216 
z
M 1825 3922 
Q 1588 3922 1431 3800 
Q 1275 3678 1275 3456 
Q 1275 3300 1351 3183 
Q 1428 3066 1554 2978 
Q 1681 2891 1831 2816 
Q 1975 2884 2100 2968 
Q 2225 3053 2303 3172 
Q 2381 3291 2381 3456 
Q 2381 3678 2223 3800 
Q 2066 3922 1825 3922 
z
" transform="scale(0.015625)"/>
       </defs>
       <use xlink:href="#OpenSans-Bold-38"/>
      </g>
     </g>
    </g>
    <g id="ytick_6">
     <g id="line2d_47">
      <path d="M 45.902 87.970063 
L 711.36 87.970063 
" clip-path="url(#paf22b81a35)" style="fill: none; stroke-dasharray: 2.96,1.28; stroke-dashoffset: 0; stroke: #b0b0b0; stroke-width: 0.8"/>
     </g>
     <g id="line2d_48">
      <g>
       <use xlink:href="#m54022eb474" x="45.902" y="87.970063" style="fill: #37539c; stroke: #37539c; stroke-width: 0.8"/>
      </g>
     </g>
     <g id="text_43">
      <!-- 10 -->
      <g style="fill: #37539c" transform="translate(29.7545 91.009438) scale(0.08 -0.08)">
       <defs>
        <path id="OpenSans-Bold-31" d="M 2644 0 
L 1678 0 
L 1678 2644 
Q 1678 2753 1681 2914 
Q 1684 3075 1690 3245 
Q 1697 3416 1703 3553 
Q 1669 3513 1564 3414 
Q 1459 3316 1369 3238 
L 844 2816 
L 378 3397 
L 1850 4569 
L 2644 4569 
L 2644 0 
z
" transform="scale(0.015625)"/>
       </defs>
       <use xlink:href="#OpenSans-Bold-31"/>
       <use xlink:href="#OpenSans-Bold-30" x="57.177734"/>
      </g>
     </g>
    </g>
    <g id="ytick_7">
     <g id="line2d_49">
      <path d="M 45.902 66.616076 
L 711.36 66.616076 
" clip-path="url(#paf22b81a35)" style="fill: none; stroke-dasharray: 2.96,1.28; stroke-dashoffset: 0; stroke: #b0b0b0; stroke-width: 0.8"/>
     </g>
     <g id="line2d_50">
      <g>
       <use xlink:href="#m54022eb474" x="45.902" y="66.616076" style="fill: #37539c; stroke: #37539c; stroke-width: 0.8"/>
      </g>
     </g>
     <g id="text_44">
      <!-- 12 -->
      <g style="fill: #37539c" transform="translate(29.7545 69.655451) scale(0.08 -0.08)">
       <use xlink:href="#OpenSans-Bold-31"/>
       <use xlink:href="#OpenSans-Bold-32" x="57.177734"/>
      </g>
     </g>
    </g>
    <g id="ytick_8">
     <g id="line2d_51">
      <path d="M 45.902 45.262088 
L 711.36 45.262088 
" clip-path="url(#paf22b81a35)" style="fill: none; stroke-dasharray: 2.96,1.28; stroke-dashoffset: 0; stroke: #b0b0b0; stroke-width: 0.8"/>
     </g>
     <g id="line2d_52">
      <g>
       <use xlink:href="#m54022eb474" x="45.902" y="45.262088" style="fill: #37539c; stroke: #37539c; stroke-width: 0.8"/>
      </g>
     </g>
     <g id="text_45">
      <!-- 14 -->
      <g style="fill: #37539c" transform="translate(29.7545 48.301463) scale(0.08 -0.08)">
       <use xlink:href="#OpenSans-Bold-31"/>
       <use xlink:href="#OpenSans-Bold-34" x="57.177734"/>
      </g>
     </g>
    </g>
    <g id="ytick_9">
     <g id="line2d_53">
      <path d="M 45.902 23.908101 
L 711.36 23.908101 
" clip-path="url(#paf22b81a35)" style="fill: none; stroke-dasharray: 2.96,1.28; stroke-dashoffset: 0; stroke: #b0b0b0; stroke-width: 0.8"/>
     </g>
     <g id="line2d_54">
      <g>
       <use xlink:href="#m54022eb474" x="45.902" y="23.908101" style="fill: #37539c; stroke: #37539c; stroke-width: 0.8"/>
      </g>
     </g>
     <g id="text_46">
      <!-- 16 -->
      <g style="fill: #37539c" transform="translate(29.7545 26.947476) scale(0.08 -0.08)">
       <use xlink:href="#OpenSans-Bold-31"/>
       <use xlink:href="#OpenSans-Bold-36" x="57.177734"/>
      </g>
     </g>
    </g>
    <g id="text_47">
     <!-- Investigadores/as cada 1000 personas -->
     <g style="fill: #37539c" transform="translate(14.555 177.030625) rotate(-90) scale(0.08 -0.08)">
      <defs>
       <path id="OpenSans-Bold-2f" d="M 2613 4569 
L 909 0 
L 44 0 
L 1747 4569 
L 2613 4569 
z
" transform="scale(0.015625)"/>
      </defs>
      <use xlink:href="#OpenSans-Bold-49"/>
      <use xlink:href="#OpenSans-Bold-6e" x="33.105469"/>
      <use xlink:href="#OpenSans-Bold-76" x="98.828125"/>
      <use xlink:href="#OpenSans-Bold-65" x="155.712891"/>
      <use xlink:href="#OpenSans-Bold-73" x="214.794922"/>
      <use xlink:href="#OpenSans-Bold-74" x="264.501953"/>
      <use xlink:href="#OpenSans-Bold-69" x="307.910156"/>
      <use xlink:href="#OpenSans-Bold-67" x="338.427734"/>
      <use xlink:href="#OpenSans-Bold-61" x="394.921875"/>
      <use xlink:href="#OpenSans-Bold-64" x="455.322266"/>
      <use xlink:href="#OpenSans-Bold-6f" x="518.603516"/>
      <use xlink:href="#OpenSans-Bold-72" x="580.517578"/>
      <use xlink:href="#OpenSans-Bold-65" x="625.927734"/>
      <use xlink:href="#OpenSans-Bold-73" x="685.009766"/>
      <use xlink:href="#OpenSans-Bold-2f" x="734.716797"/>
      <use xlink:href="#OpenSans-Bold-61" x="776.025391"/>
      <use xlink:href="#OpenSans-Bold-73" x="836.425781"/>
      <use xlink:href="#OpenSans-Bold-20" x="886.132812"/>
      <use xlink:href="#OpenSans-Bold-63" x="912.109375"/>
      <use xlink:href="#OpenSans-Bold-61" x="963.525391"/>
      <use xlink:href="#OpenSans-Bold-64" x="1023.925781"/>
      <use xlink:href="#OpenSans-Bold-61" x="1087.207031"/>
      <use xlink:href="#OpenSans-Bold-20" x="1147.607422"/>
      <use xlink:href="#OpenSans-Bold-31" x="1173.583984"/>
      <use xlink:href="#OpenSans-Bold-30" x="1230.761719"/>
      <use xlink:href="#OpenSans-Bold-30" x="1287.939453"/>
      <use xlink:href="#OpenSans-Bold-30" x="1345.117188"/>
      <use xlink:href="#OpenSans-Bold-20" x="1402.294922"/>
      <use xlink:href="#OpenSans-Bold-70" x="1428.271484"/>
      <use xlink:href="#OpenSans-Bold-65" x="1491.552734"/>
      <use xlink:href="#OpenSans-Bold-72" x="1550.634766"/>
      <use xlink:href="#OpenSans-Bold-73" x="1596.044922"/>
      <use xlink:href="#OpenSans-Bold-6f" x="1645.751953"/>
      <use xlink:href="#OpenSans-Bold-6e" x="1707.666016"/>
      <use xlink:href="#OpenSans-Bold-61" x="1773.388672"/>
      <use xlink:href="#OpenSans-Bold-73" x="1833.789062"/>
     </g>
     <!-- trabajando en el país -->
     <g style="fill: #37539c" transform="translate(23.832 143.73) rotate(-90) scale(0.08 -0.08)">
      <use xlink:href="#OpenSans-Bold-74"/>
      <use xlink:href="#OpenSans-Bold-72" x="43.408203"/>
      <use xlink:href="#OpenSans-Bold-61" x="88.818359"/>
      <use xlink:href="#OpenSans-Bold-62" x="149.21875"/>
      <use xlink:href="#OpenSans-Bold-61" x="212.5"/>
      <use xlink:href="#OpenSans-Bold-6a" x="272.900391"/>
      <use xlink:href="#OpenSans-Bold-61" x="303.417969"/>
      <use xlink:href="#OpenSans-Bold-6e" x="363.818359"/>
      <use xlink:href="#OpenSans-Bold-64" x="429.541016"/>
      <use xlink:href="#OpenSans-Bold-6f" x="492.822266"/>
      <use xlink:href="#OpenSans-Bold-20" x="554.736328"/>
      <use xlink:href="#OpenSans-Bold-65" x="580.712891"/>
      <use xlink:href="#OpenSans-Bold-6e" x="639.794922"/>
      <use xlink:href="#OpenSans-Bold-20" x="705.517578"/>
      <use xlink:href="#OpenSans-Bold-65" x="731.494141"/>
      <use xlink:href="#OpenSans-Bold-6c" x="790.576172"/>
      <use xlink:href="#OpenSans-Bold-20" x="821.09375"/>
      <use xlink:href="#OpenSans-Bold-70" x="847.070312"/>
      <use xlink:href="#OpenSans-Bold-61" x="910.351562"/>
      <use xlink:href="#OpenSans-Bold-ed" x="970.751953"/>
      <use xlink:href="#OpenSans-Bold-73" x="1001.269531"/>
     </g>
    </g>
   </g>
   <g id="patch_3">
    <path d="M 699.418726 194.569168 
L 704.81633 194.569168 
Q 706.664824 194.569168 706.664824 190.298371 
L 706.664824 186.369237 
Q 706.664824 182.098439 704.81633 182.098439 
L 699.418726 182.098439 
Q 697.570231 182.098439 697.570231 186.369237 
L 697.570231 190.298371 
Q 697.570231 194.569168 699.418726 194.569168 
z
" clip-path="url(#paf22b81a35)" style="fill: #37539c"/>
   </g>
   <g id="patch_4">
    <path d="M 680.933781 194.569168 
L 686.331385 194.569168 
Q 688.17988 194.569168 688.17988 190.298371 
L 688.17988 185.301538 
Q 688.17988 181.03074 686.331385 181.03074 
L 680.933781 181.03074 
Q 679.085287 181.03074 679.085287 185.301538 
L 679.085287 190.298371 
Q 679.085287 194.569168 680.933781 194.569168 
z
" clip-path="url(#paf22b81a35)" style="fill: #f45b69"/>
   </g>
   <g id="patch_5">
    <path d="M 662.448837 194.569168 
L 667.846441 194.569168 
Q 669.694935 194.569168 669.694935 190.298371 
L 669.694935 150.067458 
Q 669.694935 145.796661 667.846441 145.796661 
L 662.448837 145.796661 
Q 660.600343 145.796661 660.600343 150.067458 
L 660.600343 190.298371 
Q 660.600343 194.569168 662.448837 194.569168 
z
" clip-path="url(#paf22b81a35)" style="fill: #37539c"/>
   </g>
   <g id="patch_6">
    <path d="M 643.963893 194.569168 
L 649.361496 194.569168 
Q 651.209991 194.569168 651.209991 190.298371 
L 651.209991 138.322765 
Q 651.209991 134.051968 649.361496 134.051968 
L 643.963893 134.051968 
Q 642.115398 134.051968 642.115398 138.322765 
L 642.115398 190.298371 
Q 642.115398 194.569168 643.963893 194.569168 
z
" clip-path="url(#paf22b81a35)" style="fill: #37539c"/>
   </g>
   <g id="patch_7">
    <path d="M 625.478948 194.569168 
L 630.876552 194.569168 
Q 632.725046 194.569168 632.725046 190.298371 
L 632.725046 129.78117 
Q 632.725046 125.510373 630.876552 125.510373 
L 625.478948 125.510373 
Q 623.630454 125.510373 623.630454 129.78117 
L 623.630454 190.298371 
Q 623.630454 194.569168 625.478948 194.569168 
z
" clip-path="url(#paf22b81a35)" style="fill: #37539c"/>
   </g>
   <g id="patch_8">
    <path d="M 606.994004 194.569168 
L 612.391607 194.569168 
Q 614.240102 194.569168 614.240102 190.298371 
L 614.240102 129.78117 
Q 614.240102 125.510373 612.391607 125.510373 
L 606.994004 125.510373 
Q 605.145509 125.510373 605.145509 129.78117 
L 605.145509 190.298371 
Q 605.145509 194.569168 606.994004 194.569168 
z
" clip-path="url(#paf22b81a35)" style="fill: #37539c"/>
   </g>
   <g id="patch_9">
    <path d="M 588.509059 194.569168 
L 593.906663 194.569168 
Q 595.755157 194.569168 595.755157 190.298371 
L 595.755157 122.307275 
Q 595.755157 118.036477 593.906663 118.036477 
L 588.509059 118.036477 
Q 586.660565 118.036477 586.660565 122.307275 
L 586.660565 190.298371 
Q 586.660565 194.569168 588.509059 194.569168 
z
" clip-path="url(#paf22b81a35)" style="fill: #37539c"/>
   </g>
   <g id="patch_10">
    <path d="M 570.024115 194.569168 
L 575.421719 194.569168 
Q 577.270213 194.569168 577.270213 190.298371 
L 577.270213 120.171876 
Q 577.270213 115.901079 575.421719 115.901079 
L 570.024115 115.901079 
Q 568.17562 115.901079 568.17562 120.171876 
L 568.17562 190.298371 
Q 568.17562 194.569168 570.024115 194.569168 
z
" clip-path="url(#paf22b81a35)" style="fill: #37539c"/>
   </g>
   <g id="patch_11">
    <path d="M 551.53917 194.569168 
L 556.936774 194.569168 
Q 558.785269 194.569168 558.785269 190.298371 
L 558.785269 120.171876 
Q 558.785269 115.901079 556.936774 115.901079 
L 551.53917 115.901079 
Q 549.690676 115.901079 549.690676 120.171876 
L 549.690676 190.298371 
Q 549.690676 194.569168 551.53917 194.569168 
z
" clip-path="url(#paf22b81a35)" style="fill: #37539c"/>
   </g>
   <g id="patch_12">
    <path d="M 533.054226 194.569168 
L 538.45183 194.569168 
Q 540.300324 194.569168 540.300324 190.298371 
L 540.300324 118.036477 
Q 540.300324 113.76568 538.45183 113.76568 
L 533.054226 113.76568 
Q 531.205731 113.76568 531.205731 118.036477 
L 531.205731 190.298371 
Q 531.205731 194.569168 533.054226 194.569168 
z
" clip-path="url(#paf22b81a35)" style="fill: #37539c"/>
   </g>
   <g id="patch_13">
    <path d="M 514.569281 194.569168 
L 519.966885 194.569168 
Q 521.81538 194.569168 521.81538 190.298371 
L 521.81538 112.69798 
Q 521.81538 108.427183 519.966885 108.427183 
L 514.569281 108.427183 
Q 512.720787 108.427183 512.720787 112.69798 
L 512.720787 190.298371 
Q 512.720787 194.569168 514.569281 194.569168 
z
" clip-path="url(#paf22b81a35)" style="fill: #37539c"/>
   </g>
   <g id="patch_14">
    <path d="M 496.084337 194.569168 
L 501.481941 194.569168 
Q 503.330435 194.569168 503.330435 190.298371 
L 503.330435 110.562582 
Q 503.330435 106.291784 501.481941 106.291784 
L 496.084337 106.291784 
Q 494.235843 106.291784 494.235843 110.562582 
L 494.235843 190.298371 
Q 494.235843 194.569168 496.084337 194.569168 
z
" clip-path="url(#paf22b81a35)" style="fill: #37539c"/>
   </g>
   <g id="patch_15">
    <path d="M 477.599393 194.569168 
L 482.996996 194.569168 
Q 484.845491 194.569168 484.845491 190.298371 
L 484.845491 105.224085 
Q 484.845491 100.953287 482.996996 100.953287 
L 477.599393 100.953287 
Q 475.750898 100.953287 475.750898 105.224085 
L 475.750898 190.298371 
Q 475.750898 194.569168 477.599393 194.569168 
z
" clip-path="url(#paf22b81a35)" style="fill: #37539c"/>
   </g>
   <g id="patch_16">
    <path d="M 459.114448 194.569168 
L 464.512052 194.569168 
Q 466.360546 194.569168 466.360546 190.298371 
L 466.360546 103.088686 
Q 466.360546 98.817889 464.512052 98.817889 
L 459.114448 98.817889 
Q 457.265954 98.817889 457.265954 103.088686 
L 457.265954 190.298371 
Q 457.265954 194.569168 459.114448 194.569168 
z
" clip-path="url(#paf22b81a35)" style="fill: #37539c"/>
   </g>
   <g id="patch_17">
    <path d="M 440.629504 194.569168 
L 446.027107 194.569168 
Q 447.875602 194.569168 447.875602 190.298371 
L 447.875602 100.953287 
Q 447.875602 96.68249 446.027107 96.68249 
L 440.629504 96.68249 
Q 438.781009 96.68249 438.781009 100.953287 
L 438.781009 190.298371 
Q 438.781009 194.569168 440.629504 194.569168 
z
" clip-path="url(#paf22b81a35)" style="fill: #f45b69"/>
   </g>
   <g id="patch_18">
    <path d="M 422.144559 194.569168 
L 427.542163 194.569168 
Q 429.390657 194.569168 429.390657 190.298371 
L 429.390657 100.953287 
Q 429.390657 96.68249 427.542163 96.68249 
L 422.144559 96.68249 
Q 420.296065 96.68249 420.296065 100.953287 
L 420.296065 190.298371 
Q 420.296065 194.569168 422.144559 194.569168 
z
" clip-path="url(#paf22b81a35)" style="fill: #37539c"/>
   </g>
   <g id="patch_19">
    <path d="M 403.659615 194.569168 
L 409.057219 194.569168 
Q 410.905713 194.569168 410.905713 190.298371 
L 410.905713 99.885588 
Q 410.905713 95.614791 409.057219 95.614791 
L 403.659615 95.614791 
Q 401.81112 95.614791 401.81112 99.885588 
L 401.81112 190.298371 
Q 401.81112 194.569168 403.659615 194.569168 
z
" clip-path="url(#paf22b81a35)" style="fill: #37539c"/>
   </g>
   <g id="patch_20">
    <path d="M 385.17467 194.569168 
L 390.572274 194.569168 
Q 392.420769 194.569168 392.420769 190.298371 
L 392.420769 98.817889 
Q 392.420769 94.547091 390.572274 94.547091 
L 385.17467 94.547091 
Q 383.326176 94.547091 383.326176 98.817889 
L 383.326176 190.298371 
Q 383.326176 194.569168 385.17467 194.569168 
z
" clip-path="url(#paf22b81a35)" style="fill: #37539c"/>
   </g>
   <g id="patch_21">
    <path d="M 366.689726 194.569168 
L 372.08733 194.569168 
Q 373.935824 194.569168 373.935824 190.298371 
L 373.935824 96.68249 
Q 373.935824 92.411692 372.08733 92.411692 
L 366.689726 92.411692 
Q 364.841231 92.411692 364.841231 96.68249 
L 364.841231 190.298371 
Q 364.841231 194.569168 366.689726 194.569168 
z
" clip-path="url(#paf22b81a35)" style="fill: #37539c"/>
   </g>
   <g id="patch_22">
    <path d="M 348.204781 194.569168 
L 353.602385 194.569168 
Q 355.45088 194.569168 355.45088 190.298371 
L 355.45088 93.479392 
Q 355.45088 89.208594 353.602385 89.208594 
L 348.204781 89.208594 
Q 346.356287 89.208594 346.356287 93.479392 
L 346.356287 190.298371 
Q 346.356287 194.569168 348.204781 194.569168 
z
" clip-path="url(#paf22b81a35)" style="fill: #37539c"/>
   </g>
   <g id="patch_23">
    <path d="M 329.719837 194.569168 
L 335.117441 194.569168 
Q 336.965935 194.569168 336.965935 190.298371 
L 336.965935 93.479392 
Q 336.965935 89.208594 335.117441 89.208594 
L 329.719837 89.208594 
Q 327.871343 89.208594 327.871343 93.479392 
L 327.871343 190.298371 
Q 327.871343 194.569168 329.719837 194.569168 
z
" clip-path="url(#paf22b81a35)" style="fill: #37539c"/>
   </g>
   <g id="patch_24">
    <path d="M 311.234893 194.569168 
L 316.632496 194.569168 
Q 318.480991 194.569168 318.480991 190.298371 
L 318.480991 92.411692 
Q 318.480991 88.140895 316.632496 88.140895 
L 311.234893 88.140895 
Q 309.386398 88.140895 309.386398 92.411692 
L 309.386398 190.298371 
Q 309.386398 194.569168 311.234893 194.569168 
z
" clip-path="url(#paf22b81a35)" style="fill: #37539c"/>
   </g>
   <g id="patch_25">
    <path d="M 292.749948 194.569168 
L 298.147552 194.569168 
Q 299.996046 194.569168 299.996046 190.298371 
L 299.996046 91.343993 
Q 299.996046 87.073196 298.147552 87.073196 
L 292.749948 87.073196 
Q 290.901454 87.073196 290.901454 91.343993 
L 290.901454 190.298371 
Q 290.901454 194.569168 292.749948 194.569168 
z
" clip-path="url(#paf22b81a35)" style="fill: #37539c"/>
   </g>
   <g id="patch_26">
    <path d="M 274.265004 194.569168 
L 279.662607 194.569168 
Q 281.511102 194.569168 281.511102 190.298371 
L 281.511102 88.140895 
Q 281.511102 83.870098 279.662607 83.870098 
L 274.265004 83.870098 
Q 272.416509 83.870098 272.416509 88.140895 
L 272.416509 190.298371 
Q 272.416509 194.569168 274.265004 194.569168 
z
" clip-path="url(#paf22b81a35)" style="fill: #37539c"/>
   </g>
   <g id="patch_27">
    <path d="M 255.780059 194.569168 
L 261.177663 194.569168 
Q 263.026157 194.569168 263.026157 190.298371 
L 263.026157 86.005496 
Q 263.026157 81.734699 261.177663 81.734699 
L 255.780059 81.734699 
Q 253.931565 81.734699 253.931565 86.005496 
L 253.931565 190.298371 
Q 253.931565 194.569168 255.780059 194.569168 
z
" clip-path="url(#paf22b81a35)" style="fill: #37539c"/>
   </g>
   <g id="patch_28">
    <path d="M 237.295115 194.569168 
L 242.692719 194.569168 
Q 244.541213 194.569168 244.541213 190.298371 
L 244.541213 86.005496 
Q 244.541213 81.734699 242.692719 81.734699 
L 237.295115 81.734699 
Q 235.44662 81.734699 235.44662 86.005496 
L 235.44662 190.298371 
Q 235.44662 194.569168 237.295115 194.569168 
z
" clip-path="url(#paf22b81a35)" style="fill: #37539c"/>
   </g>
   <g id="patch_29">
    <path d="M 218.81017 194.569168 
L 224.207774 194.569168 
Q 226.056269 194.569168 226.056269 190.298371 
L 226.056269 86.005496 
Q 226.056269 81.734699 224.207774 81.734699 
L 218.81017 81.734699 
Q 216.961676 81.734699 216.961676 86.005496 
L 216.961676 190.298371 
Q 216.961676 194.569168 218.81017 194.569168 
z
" clip-path="url(#paf22b81a35)" style="fill: #37539c"/>
   </g>
   <g id="patch_30">
    <path d="M 200.325226 194.569168 
L 205.72283 194.569168 
Q 207.571324 194.569168 207.571324 190.298371 
L 207.571324 82.802398 
Q 207.571324 78.531601 205.72283 78.531601 
L 200.325226 78.531601 
Q 198.476731 78.531601 198.476731 82.802398 
L 198.476731 190.298371 
Q 198.476731 194.569168 200.325226 194.569168 
z
" clip-path="url(#paf22b81a35)" style="fill: #37539c"/>
   </g>
   <g id="patch_31">
    <path d="M 181.840281 194.569168 
L 187.237885 194.569168 
Q 189.08638 194.569168 189.08638 190.298371 
L 189.08638 77.463901 
Q 189.08638 73.193104 187.237885 73.193104 
L 181.840281 73.193104 
Q 179.991787 73.193104 179.991787 77.463901 
L 179.991787 190.298371 
Q 179.991787 194.569168 181.840281 194.569168 
z
" clip-path="url(#paf22b81a35)" style="fill: #37539c"/>
   </g>
   <g id="patch_32">
    <path d="M 163.355337 194.569168 
L 168.752941 194.569168 
Q 170.601435 194.569168 170.601435 190.298371 
L 170.601435 75.328503 
Q 170.601435 71.057705 168.752941 71.057705 
L 163.355337 71.057705 
Q 161.506843 71.057705 161.506843 75.328503 
L 161.506843 190.298371 
Q 161.506843 194.569168 163.355337 194.569168 
z
" clip-path="url(#paf22b81a35)" style="fill: #37539c"/>
   </g>
   <g id="patch_33">
    <path d="M 144.870393 194.569168 
L 150.267996 194.569168 
Q 152.116491 194.569168 152.116491 190.298371 
L 152.116491 60.380711 
Q 152.116491 56.109914 150.267996 56.109914 
L 144.870393 56.109914 
Q 143.021898 56.109914 143.021898 60.380711 
L 143.021898 190.298371 
Q 143.021898 194.569168 144.870393 194.569168 
z
" clip-path="url(#paf22b81a35)" style="fill: #37539c"/>
   </g>
   <g id="patch_34">
    <path d="M 126.385448 194.569168 
L 131.783052 194.569168 
Q 133.631546 194.569168 133.631546 190.298371 
L 133.631546 53.974515 
Q 133.631546 49.703718 131.783052 49.703718 
L 126.385448 49.703718 
Q 124.536954 49.703718 124.536954 53.974515 
L 124.536954 190.298371 
Q 124.536954 194.569168 126.385448 194.569168 
z
" clip-path="url(#paf22b81a35)" style="fill: #37539c"/>
   </g>
   <g id="patch_35">
    <path d="M 107.900504 194.569168 
L 113.298107 194.569168 
Q 115.146602 194.569168 115.146602 190.298371 
L 115.146602 40.094423 
Q 115.146602 35.823626 113.298107 35.823626 
L 107.900504 35.823626 
Q 106.052009 35.823626 106.052009 40.094423 
L 106.052009 190.298371 
Q 106.052009 194.569168 107.900504 194.569168 
z
" clip-path="url(#paf22b81a35)" style="fill: #37539c"/>
   </g>
   <g id="patch_36">
    <path d="M 89.415559 194.569168 
L 94.813163 194.569168 
Q 96.661657 194.569168 96.661657 190.298371 
L 96.661657 30.485129 
Q 96.661657 26.214332 94.813163 26.214332 
L 89.415559 26.214332 
Q 87.567065 26.214332 87.567065 30.485129 
L 87.567065 190.298371 
Q 87.567065 194.569168 89.415559 194.569168 
z
" clip-path="url(#paf22b81a35)" style="fill: #37539c"/>
   </g>
   <g id="patch_37">
    <path d="M 70.930615 194.569168 
L 76.328219 194.569168 
Q 78.176713 194.569168 78.176713 190.298371 
L 78.176713 29.41743 
Q 78.176713 25.146632 76.328219 25.146632 
L 70.930615 25.146632 
Q 69.08212 25.146632 69.08212 29.41743 
L 69.08212 190.298371 
Q 69.08212 194.569168 70.930615 194.569168 
z
" clip-path="url(#paf22b81a35)" style="fill: #37539c"/>
   </g>
   <g id="patch_38">
    <path d="M 52.44567 194.569168 
L 57.843274 194.569168 
Q 59.691769 194.569168 59.691769 190.298371 
L 59.691769 21.943534 
Q 59.691769 17.672737 57.843274 17.672737 
L 52.44567 17.672737 
Q 50.597176 17.672737 50.597176 21.943534 
L 50.597176 190.298371 
Q 50.597176 194.569168 52.44567 194.569168 
z
" clip-path="url(#paf22b81a35)" style="fill: #37539c"/>
   </g>
   <g id="patch_39">
    <path d="M 45.902 194.74 
L 45.902 8.64 
" style="fill: none; stroke: #000000; stroke-width: 0.8; stroke-linejoin: miter; stroke-linecap: square"/>
   </g>
   <g id="patch_40">
    <path d="M 45.902 194.74 
L 711.36 194.74 
" style="fill: none; stroke: #000000; stroke-width: 0.8; stroke-linejoin: miter; stroke-linecap: square"/>
   </g>
   <g id="text_48">
    <!-- 9.2 -->
    <g style="fill: #37539c" transform="translate(437.613931 94.589158) scale(0.08 -0.08)">
     <defs>
      <path id="OpenSans-Bold-39" d="M 3431 2619 
Q 3431 2225 3373 1837 
Q 3316 1450 3172 1108 
Q 3028 766 2768 502 
Q 2509 238 2109 87 
Q 1709 -63 1141 -63 
Q 1006 -63 825 -52 
Q 644 -41 525 -19 
L 525 756 
Q 650 725 790 708 
Q 931 691 1075 691 
Q 1647 691 1958 872 
Q 2269 1053 2395 1375 
Q 2522 1697 2541 2119 
L 2503 2119 
Q 2413 1969 2289 1848 
Q 2166 1728 1975 1658 
Q 1784 1588 1491 1588 
Q 1100 1588 811 1758 
Q 522 1928 364 2251 
Q 206 2575 206 3034 
Q 206 3531 395 3886 
Q 584 4241 934 4431 
Q 1284 4622 1759 4622 
Q 2109 4622 2412 4501 
Q 2716 4381 2945 4134 
Q 3175 3888 3303 3509 
Q 3431 3131 3431 2619 
z
M 1778 3847 
Q 1497 3847 1319 3653 
Q 1141 3459 1141 3047 
Q 1141 2716 1294 2522 
Q 1447 2328 1759 2328 
Q 1975 2328 2134 2423 
Q 2294 2519 2383 2664 
Q 2472 2809 2472 2963 
Q 2472 3122 2428 3278 
Q 2384 3434 2296 3562 
Q 2209 3691 2079 3769 
Q 1950 3847 1778 3847 
z
" transform="scale(0.015625)"/>
      <path id="OpenSans-Bold-2e" d="M 366 447 
Q 366 741 527 859 
Q 688 978 916 978 
Q 1138 978 1298 859 
Q 1459 741 1459 447 
Q 1459 166 1298 41 
Q 1138 -84 916 -84 
Q 688 -84 527 41 
Q 366 166 366 447 
z
" transform="scale(0.015625)"/>
     </defs>
     <use xlink:href="#OpenSans-Bold-39"/>
     <use xlink:href="#OpenSans-Bold-2e" x="57.177734"/>
     <use xlink:href="#OpenSans-Bold-32" x="85.693359"/>
    </g>
   </g>
   <g id="text_49">
    <!-- 1.3 -->
    <g style="fill: #37539c" transform="translate(677.918208 178.937408) scale(0.08 -0.08)">
     <defs>
      <path id="OpenSans-Bold-33" d="M 3272 3547 
Q 3272 3231 3140 3000 
Q 3009 2769 2786 2622 
Q 2563 2475 2284 2406 
L 2284 2388 
Q 2834 2319 3120 2050 
Q 3406 1781 3406 1331 
Q 3406 931 3211 615 
Q 3016 300 2609 118 
Q 2203 -63 1563 -63 
Q 1184 -63 857 -2 
Q 531 59 244 184 
L 244 1006 
Q 538 856 859 779 
Q 1181 703 1459 703 
Q 1978 703 2186 883 
Q 2394 1063 2394 1388 
Q 2394 1578 2297 1709 
Q 2200 1841 1961 1909 
Q 1722 1978 1294 1978 
L 947 1978 
L 947 2719 
L 1300 2719 
Q 1722 2719 1942 2798 
Q 2163 2878 2242 3017 
Q 2322 3156 2322 3334 
Q 2322 3578 2172 3715 
Q 2022 3853 1672 3853 
Q 1453 3853 1273 3798 
Q 1094 3744 950 3667 
Q 806 3591 697 3519 
L 250 4184 
Q 519 4378 880 4506 
Q 1241 4634 1741 4634 
Q 2447 4634 2859 4350 
Q 3272 4066 3272 3547 
z
" transform="scale(0.015625)"/>
     </defs>
     <use xlink:href="#OpenSans-Bold-31"/>
     <use xlink:href="#OpenSans-Bold-2e" x="57.177734"/>
     <use xlink:href="#OpenSans-Bold-33" x="85.693359"/>
    </g>
   </g>
  </g>
 </g>
 <defs>
  <clipPath id="paf22b81a35">
   <rect x="45.902" y="8.64" width="665.458" height="186.1"/>
  </clipPath>
 </defs>
</svg>
