<?xml version="1.0" encoding="utf-8" standalone="no"?>
<!DOCTYPE svg PUBLIC "-//W3C//DTD SVG 1.1//EN"
  "http://www.w3.org/Graphics/SVG/1.1/DTD/svg11.dtd">
<svg xmlns:xlink="http://www.w3.org/1999/xlink" width="460.8pt" height="345.6pt" viewBox="0 0 460.8 345.6" xmlns="http://www.w3.org/2000/svg" version="1.1">
 <metadata>
  <rdf:RDF xmlns:dc="http://purl.org/dc/elements/1.1/" xmlns:cc="http://creativecommons.org/ns#" xmlns:rdf="http://www.w3.org/1999/02/22-rdf-syntax-ns#">
   <cc:Work>
    <dc:type rdf:resource="http://purl.org/dc/dcmitype/StillImage"/>
    <dc:date>2024-02-22T15:00:58.652101</dc:date>
    <dc:format>image/svg+xml</dc:format>
    <dc:creator>
     <cc:Agent>
      <dc:title>Matplotlib v3.7.1, https://matplotlib.org/</dc:title>
     </cc:Agent>
    </dc:creator>
   </cc:Work>
  </rdf:RDF>
 </metadata>
 <defs>
  <style type="text/css">*{stroke-linejoin: round; stroke-linecap: butt}</style>
 </defs>
 <g id="figure_1">
  <g id="patch_1">
   <path d="M 0 345.6 
L 460.8 345.6 
L 460.8 0 
L 0 0 
z
" style="fill: #ffffff"/>
  </g>
  <g id="axes_1">
   <g id="patch_2">
    <path d="M 46.01 322.04 
L 452.16 322.04 
L 452.16 11.52 
L 46.01 11.52 
z
" style="fill: #ffffff"/>
   </g>
   <g id="matplotlib.axis_1">
    <g id="xtick_1">
     <g id="line2d_1">
      <defs>
       <path id="m0dfc8a09d0" d="M 0 0 
L 0 3.5 
" style="stroke: #37539c; stroke-width: 0.8"/>
      </defs>
      <g>
       <use xlink:href="#m0dfc8a09d0" x="147.5475" y="322.04" style="fill: #37539c; stroke: #37539c; stroke-width: 0.8"/>
      </g>
     </g>
     <g id="text_1">
      <!-- 2021 -->
      <g style="fill: #37539c" transform="translate(138.4 335.11875) scale(0.08 -0.08)">
       <defs>
        <path id="OpenSans-Bold-32" d="M 3450 0 
L 256 0 
L 256 672 
L 1403 1831 
Q 1750 2188 1961 2427 
Q 2172 2666 2267 2862 
Q 2363 3059 2363 3284 
Q 2363 3556 2211 3692 
Q 2059 3828 1806 3828 
Q 1541 3828 1291 3706 
Q 1041 3584 769 3359 
L 244 3981 
Q 441 4150 661 4300 
Q 881 4450 1173 4542 
Q 1466 4634 1875 4634 
Q 2325 4634 2648 4471 
Q 2972 4309 3147 4029 
Q 3322 3750 3322 3397 
Q 3322 3019 3172 2706 
Q 3022 2394 2736 2087 
Q 2450 1781 2047 1409 
L 1459 856 
L 1459 813 
L 3450 813 
L 3450 0 
z
" transform="scale(0.015625)"/>
        <path id="OpenSans-Bold-30" d="M 3425 2284 
Q 3425 1731 3339 1297 
Q 3253 863 3064 559 
Q 2875 256 2569 96 
Q 2263 -63 1825 -63 
Q 1275 -63 922 217 
Q 569 497 400 1023 
Q 231 1550 231 2284 
Q 231 3025 386 3551 
Q 541 4078 891 4359 
Q 1241 4641 1825 4641 
Q 2372 4641 2726 4361 
Q 3081 4081 3253 3554 
Q 3425 3028 3425 2284 
z
M 1191 2284 
Q 1191 1763 1248 1414 
Q 1306 1066 1443 891 
Q 1581 716 1825 716 
Q 2066 716 2205 889 
Q 2344 1063 2403 1411 
Q 2463 1759 2463 2284 
Q 2463 2806 2403 3156 
Q 2344 3506 2205 3682 
Q 2066 3859 1825 3859 
Q 1581 3859 1443 3682 
Q 1306 3506 1248 3156 
Q 1191 2806 1191 2284 
z
" transform="scale(0.015625)"/>
        <path id="OpenSans-Bold-31" d="M 2644 0 
L 1678 0 
L 1678 2644 
Q 1678 2753 1681 2914 
Q 1684 3075 1690 3245 
Q 1697 3416 1703 3553 
Q 1669 3513 1564 3414 
Q 1459 3316 1369 3238 
L 844 2816 
L 378 3397 
L 1850 4569 
L 2644 4569 
L 2644 0 
z
" transform="scale(0.015625)"/>
       </defs>
       <use xlink:href="#OpenSans-Bold-32"/>
       <use xlink:href="#OpenSans-Bold-30" x="57.177734"/>
       <use xlink:href="#OpenSans-Bold-32" x="114.355469"/>
       <use xlink:href="#OpenSans-Bold-31" x="171.533203"/>
      </g>
     </g>
    </g>
    <g id="xtick_2">
     <g id="line2d_2">
      <g>
       <use xlink:href="#m0dfc8a09d0" x="373.186389" y="322.04" style="fill: #37539c; stroke: #37539c; stroke-width: 0.8"/>
      </g>
     </g>
     <g id="text_2">
      <!-- 2022 -->
      <g style="fill: #37539c" transform="translate(364.038889 335.11875) scale(0.08 -0.08)">
       <use xlink:href="#OpenSans-Bold-32"/>
       <use xlink:href="#OpenSans-Bold-30" x="57.177734"/>
       <use xlink:href="#OpenSans-Bold-32" x="114.355469"/>
       <use xlink:href="#OpenSans-Bold-32" x="171.533203"/>
      </g>
     </g>
    </g>
   </g>
   <g id="matplotlib.axis_2">
    <g id="ytick_1">
     <g id="line2d_3">
      <path d="M 46.01 322.04 
L 452.16 322.04 
" clip-path="url(#p4e0944b072)" style="fill: none; stroke-dasharray: 2.96,1.28; stroke-dashoffset: 0; stroke: #b0b0b0; stroke-width: 0.8"/>
     </g>
     <g id="line2d_4">
      <defs>
       <path id="m532dc310b3" d="M 0 0 
L -3.5 0 
" style="stroke: #37539c; stroke-width: 0.8"/>
      </defs>
      <g>
       <use xlink:href="#m532dc310b3" x="46.01" y="322.04" style="fill: #37539c; stroke: #37539c; stroke-width: 0.8"/>
      </g>
     </g>
     <g id="text_3">
      <!-- 0 -->
      <g style="fill: #37539c" transform="translate(34.43625 325.079375) scale(0.08 -0.08)">
       <use xlink:href="#OpenSans-Bold-30"/>
      </g>
     </g>
    </g>
    <g id="ytick_2">
     <g id="line2d_5">
      <path d="M 46.01 259.936 
L 452.16 259.936 
" clip-path="url(#p4e0944b072)" style="fill: none; stroke-dasharray: 2.96,1.28; stroke-dashoffset: 0; stroke: #b0b0b0; stroke-width: 0.8"/>
     </g>
     <g id="line2d_6">
      <g>
       <use xlink:href="#m532dc310b3" x="46.01" y="259.936" style="fill: #37539c; stroke: #37539c; stroke-width: 0.8"/>
      </g>
     </g>
     <g id="text_4">
      <!-- 200 -->
      <g style="fill: #37539c" transform="translate(25.28875 262.975375) scale(0.08 -0.08)">
       <use xlink:href="#OpenSans-Bold-32"/>
       <use xlink:href="#OpenSans-Bold-30" x="57.177734"/>
       <use xlink:href="#OpenSans-Bold-30" x="114.355469"/>
      </g>
     </g>
    </g>
    <g id="ytick_3">
     <g id="line2d_7">
      <path d="M 46.01 197.832 
L 452.16 197.832 
" clip-path="url(#p4e0944b072)" style="fill: none; stroke-dasharray: 2.96,1.28; stroke-dashoffset: 0; stroke: #b0b0b0; stroke-width: 0.8"/>
     </g>
     <g id="line2d_8">
      <g>
       <use xlink:href="#m532dc310b3" x="46.01" y="197.832" style="fill: #37539c; stroke: #37539c; stroke-width: 0.8"/>
      </g>
     </g>
     <g id="text_5">
      <!-- 400 -->
      <g style="fill: #37539c" transform="translate(25.28875 200.871375) scale(0.08 -0.08)">
       <defs>
        <path id="OpenSans-Bold-34" d="M 3553 947 
L 3003 947 
L 3003 0 
L 2059 0 
L 2059 947 
L 109 947 
L 109 1619 
L 2113 4569 
L 3003 4569 
L 3003 1697 
L 3553 1697 
L 3553 947 
z
M 2059 1697 
L 2059 2472 
Q 2059 2581 2064 2731 
Q 2069 2881 2075 3031 
Q 2081 3181 2089 3298 
Q 2097 3416 2100 3463 
L 2075 3463 
Q 2016 3334 1950 3214 
Q 1884 3094 1797 2963 
L 959 1697 
L 2059 1697 
z
" transform="scale(0.015625)"/>
       </defs>
       <use xlink:href="#OpenSans-Bold-34"/>
       <use xlink:href="#OpenSans-Bold-30" x="57.177734"/>
       <use xlink:href="#OpenSans-Bold-30" x="114.355469"/>
      </g>
     </g>
    </g>
    <g id="ytick_4">
     <g id="line2d_9">
      <path d="M 46.01 135.728 
L 452.16 135.728 
" clip-path="url(#p4e0944b072)" style="fill: none; stroke-dasharray: 2.96,1.28; stroke-dashoffset: 0; stroke: #b0b0b0; stroke-width: 0.8"/>
     </g>
     <g id="line2d_10">
      <g>
       <use xlink:href="#m532dc310b3" x="46.01" y="135.728" style="fill: #37539c; stroke: #37539c; stroke-width: 0.8"/>
      </g>
     </g>
     <g id="text_6">
      <!-- 600 -->
      <g style="fill: #37539c" transform="translate(25.28875 138.767375) scale(0.08 -0.08)">
       <defs>
        <path id="OpenSans-Bold-36" d="M 225 1941 
Q 225 2334 283 2720 
Q 341 3106 484 3448 
Q 628 3791 887 4055 
Q 1147 4319 1547 4470 
Q 1947 4622 2516 4622 
Q 2650 4622 2829 4611 
Q 3009 4600 3128 4575 
L 3128 3803 
Q 3003 3831 2861 3848 
Q 2719 3866 2578 3866 
Q 2009 3866 1698 3684 
Q 1388 3503 1261 3183 
Q 1134 2863 1113 2438 
L 1153 2438 
Q 1241 2591 1373 2709 
Q 1506 2828 1697 2898 
Q 1888 2969 2144 2969 
Q 2544 2969 2837 2798 
Q 3131 2628 3290 2306 
Q 3450 1984 3450 1522 
Q 3450 1028 3259 672 
Q 3069 316 2720 126 
Q 2372 -63 1894 -63 
Q 1544 -63 1241 57 
Q 938 178 709 425 
Q 481 672 353 1048 
Q 225 1425 225 1941 
z
M 1875 709 
Q 2159 709 2337 903 
Q 2516 1097 2516 1509 
Q 2516 1844 2361 2036 
Q 2206 2228 1894 2228 
Q 1681 2228 1520 2133 
Q 1359 2038 1271 1892 
Q 1184 1747 1184 1594 
Q 1184 1434 1228 1278 
Q 1272 1122 1359 994 
Q 1447 866 1576 787 
Q 1706 709 1875 709 
z
" transform="scale(0.015625)"/>
       </defs>
       <use xlink:href="#OpenSans-Bold-36"/>
       <use xlink:href="#OpenSans-Bold-30" x="57.177734"/>
       <use xlink:href="#OpenSans-Bold-30" x="114.355469"/>
      </g>
     </g>
    </g>
    <g id="ytick_5">
     <g id="line2d_11">
      <path d="M 46.01 73.624 
L 452.16 73.624 
" clip-path="url(#p4e0944b072)" style="fill: none; stroke-dasharray: 2.96,1.28; stroke-dashoffset: 0; stroke: #b0b0b0; stroke-width: 0.8"/>
     </g>
     <g id="line2d_12">
      <g>
       <use xlink:href="#m532dc310b3" x="46.01" y="73.624" style="fill: #37539c; stroke: #37539c; stroke-width: 0.8"/>
      </g>
     </g>
     <g id="text_7">
      <!-- 800 -->
      <g style="fill: #37539c" transform="translate(25.28875 76.663375) scale(0.08 -0.08)">
       <defs>
        <path id="OpenSans-Bold-38" d="M 1831 4628 
Q 2225 4628 2558 4506 
Q 2891 4384 3091 4139 
Q 3291 3894 3291 3525 
Q 3291 3250 3183 3044 
Q 3075 2838 2890 2683 
Q 2706 2528 2472 2413 
Q 2716 2284 2934 2114 
Q 3153 1944 3292 1716 
Q 3431 1488 3431 1184 
Q 3431 803 3228 523 
Q 3025 244 2665 90 
Q 2306 -63 1831 -63 
Q 1319 -63 959 84 
Q 600 231 412 504 
Q 225 778 225 1159 
Q 225 1472 342 1703 
Q 459 1934 659 2101 
Q 859 2269 1100 2388 
Q 897 2516 730 2678 
Q 563 2841 464 3050 
Q 366 3259 366 3531 
Q 366 3894 570 4137 
Q 775 4381 1109 4504 
Q 1444 4628 1831 4628 
z
M 1119 1216 
Q 1119 969 1295 808 
Q 1472 647 1819 647 
Q 2178 647 2356 801 
Q 2534 956 2534 1209 
Q 2534 1384 2432 1515 
Q 2331 1647 2178 1751 
Q 2025 1856 1869 1947 
L 1784 1991 
Q 1584 1900 1436 1787 
Q 1288 1675 1203 1534 
Q 1119 1394 1119 1216 
z
M 1825 3922 
Q 1588 3922 1431 3800 
Q 1275 3678 1275 3456 
Q 1275 3300 1351 3183 
Q 1428 3066 1554 2978 
Q 1681 2891 1831 2816 
Q 1975 2884 2100 2968 
Q 2225 3053 2303 3172 
Q 2381 3291 2381 3456 
Q 2381 3678 2223 3800 
Q 2066 3922 1825 3922 
z
" transform="scale(0.015625)"/>
       </defs>
       <use xlink:href="#OpenSans-Bold-38"/>
       <use xlink:href="#OpenSans-Bold-30" x="57.177734"/>
       <use xlink:href="#OpenSans-Bold-30" x="114.355469"/>
      </g>
     </g>
    </g>
    <g id="ytick_6">
     <g id="line2d_13">
      <path d="M 46.01 11.52 
L 452.16 11.52 
" clip-path="url(#p4e0944b072)" style="fill: none; stroke-dasharray: 2.96,1.28; stroke-dashoffset: 0; stroke: #b0b0b0; stroke-width: 0.8"/>
     </g>
     <g id="line2d_14">
      <g>
       <use xlink:href="#m532dc310b3" x="46.01" y="11.52" style="fill: #37539c; stroke: #37539c; stroke-width: 0.8"/>
      </g>
     </g>
     <g id="text_8">
      <!-- 1000 -->
      <g style="fill: #37539c" transform="translate(20.715 14.559375) scale(0.08 -0.08)">
       <use xlink:href="#OpenSans-Bold-31"/>
       <use xlink:href="#OpenSans-Bold-30" x="57.177734"/>
       <use xlink:href="#OpenSans-Bold-30" x="114.355469"/>
       <use xlink:href="#OpenSans-Bold-30" x="171.533203"/>
      </g>
     </g>
    </g>
    <g id="text_9">
     <!-- Cantidad -->
     <g style="fill: #37539c" transform="translate(14.7925 184.809375) rotate(-90) scale(0.08 -0.08)">
      <defs>
       <path id="OpenSans-Bold-43" d="M 2516 3828 
Q 2238 3828 2023 3720 
Q 1809 3613 1664 3409 
Q 1519 3206 1444 2918 
Q 1369 2631 1369 2272 
Q 1369 1788 1489 1445 
Q 1609 1103 1862 923 
Q 2116 744 2516 744 
Q 2794 744 3073 806 
Q 3353 869 3681 984 
L 3681 172 
Q 3378 47 3084 -8 
Q 2791 -63 2425 -63 
Q 1719 -63 1264 229 
Q 809 522 590 1048 
Q 372 1575 372 2278 
Q 372 2797 512 3228 
Q 653 3659 925 3975 
Q 1197 4291 1597 4462 
Q 1997 4634 2516 4634 
Q 2856 4634 3198 4548 
Q 3541 4463 3853 4313 
L 3541 3525 
Q 3284 3647 3025 3737 
Q 2766 3828 2516 3828 
z
" transform="scale(0.015625)"/>
       <path id="OpenSans-Bold-61" d="M 1931 3566 
Q 2634 3566 3009 3259 
Q 3384 2953 3384 2328 
L 3384 0 
L 2719 0 
L 2534 475 
L 2509 475 
Q 2359 288 2203 169 
Q 2047 50 1844 -6 
Q 1641 -63 1350 -63 
Q 1041 -63 795 56 
Q 550 175 409 420 
Q 269 666 269 1044 
Q 269 1600 659 1864 
Q 1050 2128 1831 2156 
L 2438 2175 
L 2438 2328 
Q 2438 2603 2294 2731 
Q 2150 2859 1894 2859 
Q 1641 2859 1397 2787 
Q 1153 2716 909 2606 
L 594 3250 
Q 872 3397 1217 3481 
Q 1563 3566 1931 3566 
z
M 2438 1619 
L 2069 1606 
Q 1606 1594 1426 1441 
Q 1247 1288 1247 1038 
Q 1247 819 1375 726 
Q 1503 634 1709 634 
Q 2016 634 2227 815 
Q 2438 997 2438 1331 
L 2438 1619 
z
" transform="scale(0.015625)"/>
       <path id="OpenSans-Bold-6e" d="M 2484 3559 
Q 3044 3559 3384 3254 
Q 3725 2950 3725 2278 
L 3725 0 
L 2772 0 
L 2772 2041 
Q 2772 2416 2636 2606 
Q 2500 2797 2209 2797 
Q 1772 2797 1612 2500 
Q 1453 2203 1453 1644 
L 1453 0 
L 500 0 
L 500 3494 
L 1228 3494 
L 1356 3047 
L 1409 3047 
Q 1522 3228 1689 3340 
Q 1856 3453 2061 3506 
Q 2266 3559 2484 3559 
z
" transform="scale(0.015625)"/>
       <path id="OpenSans-Bold-74" d="M 1972 697 
Q 2128 697 2276 728 
Q 2425 759 2572 806 
L 2572 97 
Q 2419 28 2192 -17 
Q 1966 -63 1697 -63 
Q 1384 -63 1136 39 
Q 888 141 745 392 
Q 603 644 603 1094 
L 603 2778 
L 147 2778 
L 147 3181 
L 672 3500 
L 947 4238 
L 1556 4238 
L 1556 3494 
L 2534 3494 
L 2534 2778 
L 1556 2778 
L 1556 1094 
Q 1556 894 1670 795 
Q 1784 697 1972 697 
z
" transform="scale(0.015625)"/>
       <path id="OpenSans-Bold-69" d="M 1453 3494 
L 1453 0 
L 500 0 
L 500 3494 
L 1453 3494 
z
M 978 4863 
Q 1191 4863 1344 4764 
Q 1497 4666 1497 4397 
Q 1497 4131 1344 4029 
Q 1191 3928 978 3928 
Q 763 3928 611 4029 
Q 459 4131 459 4397 
Q 459 4666 611 4764 
Q 763 4863 978 4863 
z
" transform="scale(0.015625)"/>
       <path id="OpenSans-Bold-64" d="M 1606 -63 
Q 1022 -63 655 395 
Q 288 853 288 1741 
Q 288 2638 659 3098 
Q 1031 3559 1631 3559 
Q 1881 3559 2072 3490 
Q 2263 3422 2402 3306 
Q 2541 3191 2638 3047 
L 2669 3047 
Q 2650 3147 2623 3342 
Q 2597 3538 2597 3744 
L 2597 4863 
L 3553 4863 
L 3553 0 
L 2822 0 
L 2638 453 
L 2597 453 
Q 2506 309 2370 192 
Q 2234 75 2046 6 
Q 1859 -63 1606 -63 
z
M 1941 697 
Q 2331 697 2492 930 
Q 2653 1163 2663 1631 
L 2663 1734 
Q 2663 2244 2506 2514 
Q 2350 2784 1925 2784 
Q 1609 2784 1431 2512 
Q 1253 2241 1253 1728 
Q 1253 1216 1433 956 
Q 1613 697 1941 697 
z
" transform="scale(0.015625)"/>
      </defs>
      <use xlink:href="#OpenSans-Bold-43"/>
      <use xlink:href="#OpenSans-Bold-61" x="63.720703"/>
      <use xlink:href="#OpenSans-Bold-6e" x="124.121094"/>
      <use xlink:href="#OpenSans-Bold-74" x="189.84375"/>
      <use xlink:href="#OpenSans-Bold-69" x="233.251953"/>
      <use xlink:href="#OpenSans-Bold-64" x="263.769531"/>
      <use xlink:href="#OpenSans-Bold-61" x="327.050781"/>
      <use xlink:href="#OpenSans-Bold-64" x="387.451172"/>
     </g>
    </g>
   </g>
   <g id="patch_3">
    <path d="M 124.983611 322.04 
L 170.111389 322.04 
L 170.111389 270.8042 
L 124.983611 270.8042 
z
" clip-path="url(#p4e0944b072)" style="fill: #f45b69"/>
   </g>
   <g id="patch_4">
    <path d="M 350.6225 322.04 
L 395.750278 322.04 
L 395.750278 256.8308 
L 350.6225 256.8308 
z
" clip-path="url(#p4e0944b072)" style="fill: #f45b69"/>
   </g>
   <g id="patch_5">
    <path d="M 124.983611 270.8042 
L 170.111389 270.8042 
L 170.111389 67.4136 
L 124.983611 67.4136 
z
" clip-path="url(#p4e0944b072)" style="fill: #59c3c3"/>
   </g>
   <g id="patch_6">
    <path d="M 350.6225 256.8308 
L 395.750278 256.8308 
L 395.750278 46.60876 
L 350.6225 46.60876 
z
" clip-path="url(#p4e0944b072)" style="fill: #59c3c3"/>
   </g>
   <g id="patch_7">
    <path d="M 46.01 322.04 
L 46.01 11.52 
" style="fill: none; stroke: #000000; stroke-width: 0.8; stroke-linejoin: miter; stroke-linecap: square"/>
   </g>
   <g id="patch_8">
    <path d="M 46.01 322.04 
L 452.16 322.04 
" style="fill: none; stroke: #000000; stroke-width: 0.8; stroke-linejoin: miter; stroke-linecap: square"/>
   </g>
   <g id="text_10">
    <!-- 165 -->
    <g style="fill: #37539c" transform="translate(140.686875 298.500225) scale(0.08 -0.08)">
     <defs>
      <path id="OpenSans-Bold-35" d="M 1919 2919 
Q 2338 2919 2664 2759 
Q 2991 2600 3178 2290 
Q 3366 1981 3366 1528 
Q 3366 1034 3161 676 
Q 2956 319 2551 128 
Q 2147 -63 1544 -63 
Q 1184 -63 867 -2 
Q 550 59 313 184 
L 313 1019 
Q 550 894 883 808 
Q 1216 722 1509 722 
Q 1797 722 1994 798 
Q 2191 875 2292 1036 
Q 2394 1197 2394 1447 
Q 2394 1781 2169 1959 
Q 1944 2138 1478 2138 
Q 1300 2138 1108 2103 
Q 916 2069 788 2034 
L 403 2241 
L 575 4569 
L 3053 4569 
L 3053 3750 
L 1422 3750 
L 1338 2853 
Q 1444 2875 1569 2897 
Q 1694 2919 1919 2919 
z
" transform="scale(0.015625)"/>
     </defs>
     <use xlink:href="#OpenSans-Bold-31"/>
     <use xlink:href="#OpenSans-Bold-36" x="57.177734"/>
     <use xlink:href="#OpenSans-Bold-35" x="114.355469"/>
    </g>
   </g>
   <g id="text_11">
    <!-- 210 -->
    <g style="fill: #37539c" transform="translate(366.325764 291.513525) scale(0.08 -0.08)">
     <use xlink:href="#OpenSans-Bold-32"/>
     <use xlink:href="#OpenSans-Bold-31" x="57.177734"/>
     <use xlink:href="#OpenSans-Bold-30" x="114.355469"/>
    </g>
   </g>
   <g id="text_12">
    <!-- 655 -->
    <g style="fill: #37539c" transform="translate(140.686875 171.187025) scale(0.08 -0.08)">
     <use xlink:href="#OpenSans-Bold-36"/>
     <use xlink:href="#OpenSans-Bold-35" x="57.177734"/>
     <use xlink:href="#OpenSans-Bold-35" x="114.355469"/>
    </g>
   </g>
   <g id="text_13">
    <!-- 677 -->
    <g style="fill: #37539c" transform="translate(366.325764 153.797905) scale(0.08 -0.08)">
     <defs>
      <path id="OpenSans-Bold-37" d="M 709 0 
L 2425 3756 
L 172 3756 
L 172 4569 
L 3450 4569 
L 3450 3963 
L 1722 0 
L 709 0 
z
" transform="scale(0.015625)"/>
     </defs>
     <use xlink:href="#OpenSans-Bold-36"/>
     <use xlink:href="#OpenSans-Bold-37" x="57.177734"/>
     <use xlink:href="#OpenSans-Bold-37" x="114.355469"/>
    </g>
   </g>
   <g id="legend_1">
    <g id="patch_9">
     <path d="M 51.61 41.9225 
L 157.955 41.9225 
Q 159.555 41.9225 159.555 40.3225 
L 159.555 17.12 
Q 159.555 15.52 157.955 15.52 
L 51.61 15.52 
Q 50.01 15.52 50.01 17.12 
L 50.01 40.3225 
Q 50.01 41.9225 51.61 41.9225 
z
" style="fill: #ffffff; opacity: 0.8; stroke: #cccccc; stroke-linejoin: miter"/>
    </g>
    <g id="patch_10">
     <path d="M 53.21 24.79875 
L 69.21 24.79875 
L 69.21 19.19875 
L 53.21 19.19875 
z
" style="fill: #f45b69"/>
    </g>
    <g id="text_14">
     <!-- Inventoras mujeres -->
     <g style="fill: #37539c" transform="translate(75.61 24.79875) scale(0.08 -0.08)">
      <defs>
       <path id="OpenSans-Bold-49" d="M 575 0 
L 575 4569 
L 1544 4569 
L 1544 0 
L 575 0 
z
" transform="scale(0.015625)"/>
       <path id="OpenSans-Bold-76" d="M 1331 0 
L 0 3494 
L 997 3494 
L 1672 1503 
Q 1728 1328 1761 1134 
Q 1794 941 1806 788 
L 1831 788 
Q 1841 953 1877 1140 
Q 1913 1328 1972 1503 
L 2644 3494 
L 3641 3494 
L 2309 0 
L 1331 0 
z
" transform="scale(0.015625)"/>
       <path id="OpenSans-Bold-65" d="M 1941 3559 
Q 2425 3559 2775 3373 
Q 3125 3188 3315 2834 
Q 3506 2481 3506 1972 
L 3506 1509 
L 1253 1509 
Q 1269 1106 1495 876 
Q 1722 647 2125 647 
Q 2459 647 2737 715 
Q 3016 784 3309 922 
L 3309 184 
Q 3050 56 2767 -3 
Q 2484 -63 2081 -63 
Q 1556 -63 1151 131 
Q 747 325 517 722 
Q 288 1119 288 1722 
Q 288 2334 495 2742 
Q 703 3150 1075 3354 
Q 1447 3559 1941 3559 
z
M 1947 2881 
Q 1669 2881 1486 2703 
Q 1303 2525 1275 2144 
L 2613 2144 
Q 2609 2356 2536 2522 
Q 2463 2688 2317 2784 
Q 2172 2881 1947 2881 
z
" transform="scale(0.015625)"/>
       <path id="OpenSans-Bold-6f" d="M 3675 1753 
Q 3675 1316 3558 978 
Q 3441 641 3217 408 
Q 2994 175 2680 56 
Q 2366 -63 1972 -63 
Q 1603 -63 1295 56 
Q 988 175 761 408 
Q 534 641 411 978 
Q 288 1316 288 1753 
Q 288 2334 494 2737 
Q 700 3141 1081 3350 
Q 1463 3559 1991 3559 
Q 2481 3559 2861 3350 
Q 3241 3141 3458 2737 
Q 3675 2334 3675 1753 
z
M 1259 1753 
Q 1259 1409 1334 1175 
Q 1409 941 1568 822 
Q 1728 703 1984 703 
Q 2238 703 2395 822 
Q 2553 941 2626 1175 
Q 2700 1409 2700 1753 
Q 2700 2100 2626 2329 
Q 2553 2559 2393 2675 
Q 2234 2791 1978 2791 
Q 1600 2791 1429 2531 
Q 1259 2272 1259 1753 
z
" transform="scale(0.015625)"/>
       <path id="OpenSans-Bold-72" d="M 2450 3559 
Q 2522 3559 2617 3551 
Q 2713 3544 2772 3531 
L 2700 2638 
Q 2653 2653 2567 2661 
Q 2481 2669 2419 2669 
Q 2234 2669 2061 2622 
Q 1888 2575 1750 2470 
Q 1613 2366 1533 2195 
Q 1453 2025 1453 1778 
L 1453 0 
L 500 0 
L 500 3494 
L 1222 3494 
L 1363 2906 
L 1409 2906 
Q 1513 3084 1667 3232 
Q 1822 3381 2020 3470 
Q 2219 3559 2450 3559 
z
" transform="scale(0.015625)"/>
       <path id="OpenSans-Bold-73" d="M 2938 1038 
Q 2938 681 2770 436 
Q 2603 191 2272 64 
Q 1941 -63 1447 -63 
Q 1081 -63 820 -16 
Q 559 31 294 141 
L 294 928 
Q 578 800 904 717 
Q 1231 634 1478 634 
Q 1756 634 1876 717 
Q 1997 800 1997 934 
Q 1997 1022 1948 1092 
Q 1900 1163 1740 1252 
Q 1581 1341 1241 1484 
Q 913 1622 702 1762 
Q 491 1903 389 2095 
Q 288 2288 288 2584 
Q 288 3069 664 3314 
Q 1041 3559 1672 3559 
Q 1997 3559 2292 3493 
Q 2588 3428 2900 3284 
L 2613 2597 
Q 2353 2709 2123 2781 
Q 1894 2853 1656 2853 
Q 1447 2853 1340 2797 
Q 1234 2741 1234 2625 
Q 1234 2541 1289 2475 
Q 1344 2409 1501 2329 
Q 1659 2250 1966 2125 
Q 2263 2003 2481 1870 
Q 2700 1738 2819 1542 
Q 2938 1347 2938 1038 
z
" transform="scale(0.015625)"/>
       <path id="OpenSans-Bold-20" transform="scale(0.015625)"/>
       <path id="OpenSans-Bold-6d" d="M 4603 3559 
Q 5197 3559 5501 3254 
Q 5806 2950 5806 2278 
L 5806 0 
L 4850 0 
L 4850 2041 
Q 4850 2416 4722 2606 
Q 4594 2797 4325 2797 
Q 3947 2797 3787 2526 
Q 3628 2256 3628 1753 
L 3628 0 
L 2675 0 
L 2675 2041 
Q 2675 2291 2619 2459 
Q 2563 2628 2447 2712 
Q 2331 2797 2150 2797 
Q 1884 2797 1732 2664 
Q 1581 2531 1517 2273 
Q 1453 2016 1453 1644 
L 1453 0 
L 500 0 
L 500 3494 
L 1228 3494 
L 1356 3047 
L 1409 3047 
Q 1516 3228 1677 3340 
Q 1838 3453 2031 3506 
Q 2225 3559 2425 3559 
Q 2809 3559 3076 3434 
Q 3344 3309 3488 3047 
L 3572 3047 
Q 3728 3316 4014 3437 
Q 4300 3559 4603 3559 
z
" transform="scale(0.015625)"/>
       <path id="OpenSans-Bold-75" d="M 3706 3494 
L 3706 0 
L 2975 0 
L 2847 447 
L 2797 447 
Q 2684 269 2515 156 
Q 2347 44 2144 -9 
Q 1941 -63 1722 -63 
Q 1347 -63 1069 70 
Q 791 203 636 484 
Q 481 766 481 1216 
L 481 3494 
L 1434 3494 
L 1434 1453 
Q 1434 1078 1568 887 
Q 1703 697 1997 697 
Q 2288 697 2453 830 
Q 2619 963 2686 1220 
Q 2753 1478 2753 1850 
L 2753 3494 
L 3706 3494 
z
" transform="scale(0.015625)"/>
       <path id="OpenSans-Bold-6a" d="M 219 -1538 
Q 56 -1538 -119 -1514 
Q -294 -1491 -409 -1459 
L -409 -709 
Q -294 -741 -192 -755 
Q -91 -769 38 -769 
Q 231 -769 365 -661 
Q 500 -553 500 -238 
L 500 3494 
L 1453 3494 
L 1453 -378 
Q 1453 -697 1331 -961 
Q 1209 -1225 937 -1381 
Q 666 -1538 219 -1538 
z
M 459 4397 
Q 459 4666 611 4764 
Q 763 4863 978 4863 
Q 1191 4863 1344 4764 
Q 1497 4666 1497 4397 
Q 1497 4131 1344 4029 
Q 1191 3928 978 3928 
Q 763 3928 611 4029 
Q 459 4131 459 4397 
z
" transform="scale(0.015625)"/>
      </defs>
      <use xlink:href="#OpenSans-Bold-49"/>
      <use xlink:href="#OpenSans-Bold-6e" x="33.105469"/>
      <use xlink:href="#OpenSans-Bold-76" x="98.828125"/>
      <use xlink:href="#OpenSans-Bold-65" x="155.712891"/>
      <use xlink:href="#OpenSans-Bold-6e" x="214.794922"/>
      <use xlink:href="#OpenSans-Bold-74" x="280.517578"/>
      <use xlink:href="#OpenSans-Bold-6f" x="323.925781"/>
      <use xlink:href="#OpenSans-Bold-72" x="385.839844"/>
      <use xlink:href="#OpenSans-Bold-61" x="431.25"/>
      <use xlink:href="#OpenSans-Bold-73" x="491.650391"/>
      <use xlink:href="#OpenSans-Bold-20" x="541.357422"/>
      <use xlink:href="#OpenSans-Bold-6d" x="567.333984"/>
      <use xlink:href="#OpenSans-Bold-75" x="665.527344"/>
      <use xlink:href="#OpenSans-Bold-6a" x="731.25"/>
      <use xlink:href="#OpenSans-Bold-65" x="761.767578"/>
      <use xlink:href="#OpenSans-Bold-72" x="820.849609"/>
      <use xlink:href="#OpenSans-Bold-65" x="866.259766"/>
      <use xlink:href="#OpenSans-Bold-73" x="925.341797"/>
     </g>
    </g>
    <g id="patch_11">
     <path d="M 53.21 36.8 
L 69.21 36.8 
L 69.21 31.2 
L 53.21 31.2 
z
" style="fill: #59c3c3"/>
    </g>
    <g id="text_15">
     <!-- Inventores hombres -->
     <g style="fill: #37539c" transform="translate(75.61 36.8) scale(0.08 -0.08)">
      <defs>
       <path id="OpenSans-Bold-68" d="M 1453 4863 
L 1453 3872 
Q 1453 3613 1436 3378 
Q 1419 3144 1409 3047 
L 1459 3047 
Q 1572 3228 1726 3340 
Q 1881 3453 2068 3506 
Q 2256 3559 2472 3559 
Q 2850 3559 3131 3426 
Q 3413 3294 3569 3011 
Q 3725 2728 3725 2278 
L 3725 0 
L 2772 0 
L 2772 2041 
Q 2772 2416 2634 2606 
Q 2497 2797 2209 2797 
Q 1922 2797 1756 2664 
Q 1591 2531 1522 2273 
Q 1453 2016 1453 1644 
L 1453 0 
L 500 0 
L 500 4863 
L 1453 4863 
z
" transform="scale(0.015625)"/>
       <path id="OpenSans-Bold-62" d="M 1453 4863 
L 1453 3731 
Q 1453 3534 1442 3340 
Q 1431 3147 1416 3041 
L 1453 3041 
Q 1591 3256 1828 3407 
Q 2066 3559 2444 3559 
Q 3031 3559 3397 3100 
Q 3763 2641 3763 1753 
Q 3763 1156 3594 751 
Q 3425 347 3122 142 
Q 2819 -63 2419 -63 
Q 2034 -63 1812 75 
Q 1591 213 1453 384 
L 1388 384 
L 1228 0 
L 500 0 
L 500 4863 
L 1453 4863 
z
M 2138 2797 
Q 1888 2797 1741 2694 
Q 1594 2591 1526 2384 
Q 1459 2178 1453 1863 
L 1453 1759 
Q 1453 1250 1603 979 
Q 1753 709 2150 709 
Q 2444 709 2617 981 
Q 2791 1253 2791 1766 
Q 2791 2278 2616 2537 
Q 2441 2797 2138 2797 
z
" transform="scale(0.015625)"/>
      </defs>
      <use xlink:href="#OpenSans-Bold-49"/>
      <use xlink:href="#OpenSans-Bold-6e" x="33.105469"/>
      <use xlink:href="#OpenSans-Bold-76" x="98.828125"/>
      <use xlink:href="#OpenSans-Bold-65" x="155.712891"/>
      <use xlink:href="#OpenSans-Bold-6e" x="214.794922"/>
      <use xlink:href="#OpenSans-Bold-74" x="280.517578"/>
      <use xlink:href="#OpenSans-Bold-6f" x="323.925781"/>
      <use xlink:href="#OpenSans-Bold-72" x="385.839844"/>
      <use xlink:href="#OpenSans-Bold-65" x="431.25"/>
      <use xlink:href="#OpenSans-Bold-73" x="490.332031"/>
      <use xlink:href="#OpenSans-Bold-20" x="540.039062"/>
      <use xlink:href="#OpenSans-Bold-68" x="566.015625"/>
      <use xlink:href="#OpenSans-Bold-6f" x="631.738281"/>
      <use xlink:href="#OpenSans-Bold-6d" x="693.652344"/>
      <use xlink:href="#OpenSans-Bold-62" x="791.845703"/>
      <use xlink:href="#OpenSans-Bold-72" x="855.126953"/>
      <use xlink:href="#OpenSans-Bold-65" x="900.537109"/>
      <use xlink:href="#OpenSans-Bold-73" x="959.619141"/>
     </g>
    </g>
   </g>
  </g>
 </g>
 <defs>
  <clipPath id="p4e0944b072">
   <rect x="46.01" y="11.52" width="406.15" height="310.52"/>
  </clipPath>
 </defs>
</svg>
