<?xml version="1.0" encoding="utf-8" standalone="no"?>
<!DOCTYPE svg PUBLIC "-//W3C//DTD SVG 1.1//EN"
  "http://www.w3.org/Graphics/SVG/1.1/DTD/svg11.dtd">
<svg xmlns:xlink="http://www.w3.org/1999/xlink" width="460.8pt" height="345.6pt" viewBox="0 0 460.8 345.6" xmlns="http://www.w3.org/2000/svg" version="1.1">
 <metadata>
  <rdf:RDF xmlns:dc="http://purl.org/dc/elements/1.1/" xmlns:cc="http://creativecommons.org/ns#" xmlns:rdf="http://www.w3.org/1999/02/22-rdf-syntax-ns#">
   <cc:Work>
    <dc:type rdf:resource="http://purl.org/dc/dcmitype/StillImage"/>
    <dc:date>2024-02-22T15:32:03.009541</dc:date>
    <dc:format>image/svg+xml</dc:format>
    <dc:creator>
     <cc:Agent>
      <dc:title>Matplotlib v3.7.1, https://matplotlib.org/</dc:title>
     </cc:Agent>
    </dc:creator>
   </cc:Work>
  </rdf:RDF>
 </metadata>
 <defs>
  <style type="text/css">*{stroke-linejoin: round; stroke-linecap: butt}</style>
 </defs>
 <g id="figure_1">
  <g id="patch_1">
   <path d="M 0 345.6 
L 460.8 345.6 
L 460.8 0 
L 0 0 
z
" style="fill: #ffffff"/>
  </g>
  <g id="axes_1">
   <g id="patch_2">
    <path d="M 55.19 296.358286 
L 423.97 296.358286 
L 423.97 21.84 
L 55.19 21.84 
z
" style="fill: #ffffff"/>
   </g>
   <g id="matplotlib.axis_1">
    <g id="xtick_1">
     <g id="line2d_1">
      <defs>
       <path id="m44d8ad4f0f" d="M 0 0 
L 0 3.5 
" style="stroke: #37539c; stroke-width: 0.8"/>
      </defs>
      <g>
       <use xlink:href="#m44d8ad4f0f" x="92.538533" y="296.358286" style="fill: #37539c; stroke: #37539c; stroke-width: 0.8"/>
      </g>
     </g>
     <g id="text_1">
      <!-- 2009-2010 -->
      <g style="fill: #37539c" transform="translate(80.161512 335.349564) rotate(-45) scale(0.08 -0.08)">
       <defs>
        <path id="OpenSans-Bold-32" d="M 3450 0 
L 256 0 
L 256 672 
L 1403 1831 
Q 1750 2188 1961 2427 
Q 2172 2666 2267 2862 
Q 2363 3059 2363 3284 
Q 2363 3556 2211 3692 
Q 2059 3828 1806 3828 
Q 1541 3828 1291 3706 
Q 1041 3584 769 3359 
L 244 3981 
Q 441 4150 661 4300 
Q 881 4450 1173 4542 
Q 1466 4634 1875 4634 
Q 2325 4634 2648 4471 
Q 2972 4309 3147 4029 
Q 3322 3750 3322 3397 
Q 3322 3019 3172 2706 
Q 3022 2394 2736 2087 
Q 2450 1781 2047 1409 
L 1459 856 
L 1459 813 
L 3450 813 
L 3450 0 
z
" transform="scale(0.015625)"/>
        <path id="OpenSans-Bold-30" d="M 3425 2284 
Q 3425 1731 3339 1297 
Q 3253 863 3064 559 
Q 2875 256 2569 96 
Q 2263 -63 1825 -63 
Q 1275 -63 922 217 
Q 569 497 400 1023 
Q 231 1550 231 2284 
Q 231 3025 386 3551 
Q 541 4078 891 4359 
Q 1241 4641 1825 4641 
Q 2372 4641 2726 4361 
Q 3081 4081 3253 3554 
Q 3425 3028 3425 2284 
z
M 1191 2284 
Q 1191 1763 1248 1414 
Q 1306 1066 1443 891 
Q 1581 716 1825 716 
Q 2066 716 2205 889 
Q 2344 1063 2403 1411 
Q 2463 1759 2463 2284 
Q 2463 2806 2403 3156 
Q 2344 3506 2205 3682 
Q 2066 3859 1825 3859 
Q 1581 3859 1443 3682 
Q 1306 3506 1248 3156 
Q 1191 2806 1191 2284 
z
" transform="scale(0.015625)"/>
        <path id="OpenSans-Bold-39" d="M 3431 2619 
Q 3431 2225 3373 1837 
Q 3316 1450 3172 1108 
Q 3028 766 2768 502 
Q 2509 238 2109 87 
Q 1709 -63 1141 -63 
Q 1006 -63 825 -52 
Q 644 -41 525 -19 
L 525 756 
Q 650 725 790 708 
Q 931 691 1075 691 
Q 1647 691 1958 872 
Q 2269 1053 2395 1375 
Q 2522 1697 2541 2119 
L 2503 2119 
Q 2413 1969 2289 1848 
Q 2166 1728 1975 1658 
Q 1784 1588 1491 1588 
Q 1100 1588 811 1758 
Q 522 1928 364 2251 
Q 206 2575 206 3034 
Q 206 3531 395 3886 
Q 584 4241 934 4431 
Q 1284 4622 1759 4622 
Q 2109 4622 2412 4501 
Q 2716 4381 2945 4134 
Q 3175 3888 3303 3509 
Q 3431 3131 3431 2619 
z
M 1778 3847 
Q 1497 3847 1319 3653 
Q 1141 3459 1141 3047 
Q 1141 2716 1294 2522 
Q 1447 2328 1759 2328 
Q 1975 2328 2134 2423 
Q 2294 2519 2383 2664 
Q 2472 2809 2472 2963 
Q 2472 3122 2428 3278 
Q 2384 3434 2296 3562 
Q 2209 3691 2079 3769 
Q 1950 3847 1778 3847 
z
" transform="scale(0.015625)"/>
        <path id="OpenSans-Bold-2d" d="M 191 1325 
L 191 2106 
L 1869 2106 
L 1869 1325 
L 191 1325 
z
" transform="scale(0.015625)"/>
        <path id="OpenSans-Bold-31" d="M 2644 0 
L 1678 0 
L 1678 2644 
Q 1678 2753 1681 2914 
Q 1684 3075 1690 3245 
Q 1697 3416 1703 3553 
Q 1669 3513 1564 3414 
Q 1459 3316 1369 3238 
L 844 2816 
L 378 3397 
L 1850 4569 
L 2644 4569 
L 2644 0 
z
" transform="scale(0.015625)"/>
       </defs>
       <use xlink:href="#OpenSans-Bold-32"/>
       <use xlink:href="#OpenSans-Bold-30" x="57.177734"/>
       <use xlink:href="#OpenSans-Bold-30" x="114.355469"/>
       <use xlink:href="#OpenSans-Bold-39" x="171.533203"/>
       <use xlink:href="#OpenSans-Bold-2d" x="228.710938"/>
       <use xlink:href="#OpenSans-Bold-32" x="260.888672"/>
       <use xlink:href="#OpenSans-Bold-30" x="318.066406"/>
       <use xlink:href="#OpenSans-Bold-31" x="375.244141"/>
       <use xlink:href="#OpenSans-Bold-30" x="432.421875"/>
      </g>
     </g>
    </g>
    <g id="xtick_2">
     <g id="line2d_2">
      <g>
       <use xlink:href="#m44d8ad4f0f" x="151.35512" y="296.358286" style="fill: #37539c; stroke: #37539c; stroke-width: 0.8"/>
      </g>
     </g>
     <g id="text_2">
      <!-- 2011-2012 -->
      <g style="fill: #37539c" transform="translate(138.978099 335.349564) rotate(-45) scale(0.08 -0.08)">
       <use xlink:href="#OpenSans-Bold-32"/>
       <use xlink:href="#OpenSans-Bold-30" x="57.177734"/>
       <use xlink:href="#OpenSans-Bold-31" x="114.355469"/>
       <use xlink:href="#OpenSans-Bold-31" x="171.533203"/>
       <use xlink:href="#OpenSans-Bold-2d" x="228.710938"/>
       <use xlink:href="#OpenSans-Bold-32" x="260.888672"/>
       <use xlink:href="#OpenSans-Bold-30" x="318.066406"/>
       <use xlink:href="#OpenSans-Bold-31" x="375.244141"/>
       <use xlink:href="#OpenSans-Bold-32" x="432.421875"/>
      </g>
     </g>
    </g>
    <g id="xtick_3">
     <g id="line2d_3">
      <g>
       <use xlink:href="#m44d8ad4f0f" x="210.171707" y="296.358286" style="fill: #37539c; stroke: #37539c; stroke-width: 0.8"/>
      </g>
     </g>
     <g id="text_3">
      <!-- 2013-2014 -->
      <g style="fill: #37539c" transform="translate(197.794686 335.349564) rotate(-45) scale(0.08 -0.08)">
       <defs>
        <path id="OpenSans-Bold-33" d="M 3272 3547 
Q 3272 3231 3140 3000 
Q 3009 2769 2786 2622 
Q 2563 2475 2284 2406 
L 2284 2388 
Q 2834 2319 3120 2050 
Q 3406 1781 3406 1331 
Q 3406 931 3211 615 
Q 3016 300 2609 118 
Q 2203 -63 1563 -63 
Q 1184 -63 857 -2 
Q 531 59 244 184 
L 244 1006 
Q 538 856 859 779 
Q 1181 703 1459 703 
Q 1978 703 2186 883 
Q 2394 1063 2394 1388 
Q 2394 1578 2297 1709 
Q 2200 1841 1961 1909 
Q 1722 1978 1294 1978 
L 947 1978 
L 947 2719 
L 1300 2719 
Q 1722 2719 1942 2798 
Q 2163 2878 2242 3017 
Q 2322 3156 2322 3334 
Q 2322 3578 2172 3715 
Q 2022 3853 1672 3853 
Q 1453 3853 1273 3798 
Q 1094 3744 950 3667 
Q 806 3591 697 3519 
L 250 4184 
Q 519 4378 880 4506 
Q 1241 4634 1741 4634 
Q 2447 4634 2859 4350 
Q 3272 4066 3272 3547 
z
" transform="scale(0.015625)"/>
        <path id="OpenSans-Bold-34" d="M 3553 947 
L 3003 947 
L 3003 0 
L 2059 0 
L 2059 947 
L 109 947 
L 109 1619 
L 2113 4569 
L 3003 4569 
L 3003 1697 
L 3553 1697 
L 3553 947 
z
M 2059 1697 
L 2059 2472 
Q 2059 2581 2064 2731 
Q 2069 2881 2075 3031 
Q 2081 3181 2089 3298 
Q 2097 3416 2100 3463 
L 2075 3463 
Q 2016 3334 1950 3214 
Q 1884 3094 1797 2963 
L 959 1697 
L 2059 1697 
z
" transform="scale(0.015625)"/>
       </defs>
       <use xlink:href="#OpenSans-Bold-32"/>
       <use xlink:href="#OpenSans-Bold-30" x="57.177734"/>
       <use xlink:href="#OpenSans-Bold-31" x="114.355469"/>
       <use xlink:href="#OpenSans-Bold-33" x="171.533203"/>
       <use xlink:href="#OpenSans-Bold-2d" x="228.710938"/>
       <use xlink:href="#OpenSans-Bold-32" x="260.888672"/>
       <use xlink:href="#OpenSans-Bold-30" x="318.066406"/>
       <use xlink:href="#OpenSans-Bold-31" x="375.244141"/>
       <use xlink:href="#OpenSans-Bold-34" x="432.421875"/>
      </g>
     </g>
    </g>
    <g id="xtick_4">
     <g id="line2d_4">
      <g>
       <use xlink:href="#m44d8ad4f0f" x="268.988293" y="296.358286" style="fill: #37539c; stroke: #37539c; stroke-width: 0.8"/>
      </g>
     </g>
     <g id="text_4">
      <!-- 2015-2016 -->
      <g style="fill: #37539c" transform="translate(256.611273 335.349564) rotate(-45) scale(0.08 -0.08)">
       <defs>
        <path id="OpenSans-Bold-35" d="M 1919 2919 
Q 2338 2919 2664 2759 
Q 2991 2600 3178 2290 
Q 3366 1981 3366 1528 
Q 3366 1034 3161 676 
Q 2956 319 2551 128 
Q 2147 -63 1544 -63 
Q 1184 -63 867 -2 
Q 550 59 313 184 
L 313 1019 
Q 550 894 883 808 
Q 1216 722 1509 722 
Q 1797 722 1994 798 
Q 2191 875 2292 1036 
Q 2394 1197 2394 1447 
Q 2394 1781 2169 1959 
Q 1944 2138 1478 2138 
Q 1300 2138 1108 2103 
Q 916 2069 788 2034 
L 403 2241 
L 575 4569 
L 3053 4569 
L 3053 3750 
L 1422 3750 
L 1338 2853 
Q 1444 2875 1569 2897 
Q 1694 2919 1919 2919 
z
" transform="scale(0.015625)"/>
        <path id="OpenSans-Bold-36" d="M 225 1941 
Q 225 2334 283 2720 
Q 341 3106 484 3448 
Q 628 3791 887 4055 
Q 1147 4319 1547 4470 
Q 1947 4622 2516 4622 
Q 2650 4622 2829 4611 
Q 3009 4600 3128 4575 
L 3128 3803 
Q 3003 3831 2861 3848 
Q 2719 3866 2578 3866 
Q 2009 3866 1698 3684 
Q 1388 3503 1261 3183 
Q 1134 2863 1113 2438 
L 1153 2438 
Q 1241 2591 1373 2709 
Q 1506 2828 1697 2898 
Q 1888 2969 2144 2969 
Q 2544 2969 2837 2798 
Q 3131 2628 3290 2306 
Q 3450 1984 3450 1522 
Q 3450 1028 3259 672 
Q 3069 316 2720 126 
Q 2372 -63 1894 -63 
Q 1544 -63 1241 57 
Q 938 178 709 425 
Q 481 672 353 1048 
Q 225 1425 225 1941 
z
M 1875 709 
Q 2159 709 2337 903 
Q 2516 1097 2516 1509 
Q 2516 1844 2361 2036 
Q 2206 2228 1894 2228 
Q 1681 2228 1520 2133 
Q 1359 2038 1271 1892 
Q 1184 1747 1184 1594 
Q 1184 1434 1228 1278 
Q 1272 1122 1359 994 
Q 1447 866 1576 787 
Q 1706 709 1875 709 
z
" transform="scale(0.015625)"/>
       </defs>
       <use xlink:href="#OpenSans-Bold-32"/>
       <use xlink:href="#OpenSans-Bold-30" x="57.177734"/>
       <use xlink:href="#OpenSans-Bold-31" x="114.355469"/>
       <use xlink:href="#OpenSans-Bold-35" x="171.533203"/>
       <use xlink:href="#OpenSans-Bold-2d" x="228.710938"/>
       <use xlink:href="#OpenSans-Bold-32" x="260.888672"/>
       <use xlink:href="#OpenSans-Bold-30" x="318.066406"/>
       <use xlink:href="#OpenSans-Bold-31" x="375.244141"/>
       <use xlink:href="#OpenSans-Bold-36" x="432.421875"/>
      </g>
     </g>
    </g>
    <g id="xtick_5">
     <g id="line2d_5">
      <g>
       <use xlink:href="#m44d8ad4f0f" x="327.80488" y="296.358286" style="fill: #37539c; stroke: #37539c; stroke-width: 0.8"/>
      </g>
     </g>
     <g id="text_5">
      <!-- 2017-2018 -->
      <g style="fill: #37539c" transform="translate(315.42786 335.349564) rotate(-45) scale(0.08 -0.08)">
       <defs>
        <path id="OpenSans-Bold-37" d="M 709 0 
L 2425 3756 
L 172 3756 
L 172 4569 
L 3450 4569 
L 3450 3963 
L 1722 0 
L 709 0 
z
" transform="scale(0.015625)"/>
        <path id="OpenSans-Bold-38" d="M 1831 4628 
Q 2225 4628 2558 4506 
Q 2891 4384 3091 4139 
Q 3291 3894 3291 3525 
Q 3291 3250 3183 3044 
Q 3075 2838 2890 2683 
Q 2706 2528 2472 2413 
Q 2716 2284 2934 2114 
Q 3153 1944 3292 1716 
Q 3431 1488 3431 1184 
Q 3431 803 3228 523 
Q 3025 244 2665 90 
Q 2306 -63 1831 -63 
Q 1319 -63 959 84 
Q 600 231 412 504 
Q 225 778 225 1159 
Q 225 1472 342 1703 
Q 459 1934 659 2101 
Q 859 2269 1100 2388 
Q 897 2516 730 2678 
Q 563 2841 464 3050 
Q 366 3259 366 3531 
Q 366 3894 570 4137 
Q 775 4381 1109 4504 
Q 1444 4628 1831 4628 
z
M 1119 1216 
Q 1119 969 1295 808 
Q 1472 647 1819 647 
Q 2178 647 2356 801 
Q 2534 956 2534 1209 
Q 2534 1384 2432 1515 
Q 2331 1647 2178 1751 
Q 2025 1856 1869 1947 
L 1784 1991 
Q 1584 1900 1436 1787 
Q 1288 1675 1203 1534 
Q 1119 1394 1119 1216 
z
M 1825 3922 
Q 1588 3922 1431 3800 
Q 1275 3678 1275 3456 
Q 1275 3300 1351 3183 
Q 1428 3066 1554 2978 
Q 1681 2891 1831 2816 
Q 1975 2884 2100 2968 
Q 2225 3053 2303 3172 
Q 2381 3291 2381 3456 
Q 2381 3678 2223 3800 
Q 2066 3922 1825 3922 
z
" transform="scale(0.015625)"/>
       </defs>
       <use xlink:href="#OpenSans-Bold-32"/>
       <use xlink:href="#OpenSans-Bold-30" x="57.177734"/>
       <use xlink:href="#OpenSans-Bold-31" x="114.355469"/>
       <use xlink:href="#OpenSans-Bold-37" x="171.533203"/>
       <use xlink:href="#OpenSans-Bold-2d" x="228.710938"/>
       <use xlink:href="#OpenSans-Bold-32" x="260.888672"/>
       <use xlink:href="#OpenSans-Bold-30" x="318.066406"/>
       <use xlink:href="#OpenSans-Bold-31" x="375.244141"/>
       <use xlink:href="#OpenSans-Bold-38" x="432.421875"/>
      </g>
     </g>
    </g>
    <g id="xtick_6">
     <g id="line2d_6">
      <g>
       <use xlink:href="#m44d8ad4f0f" x="386.621467" y="296.358286" style="fill: #37539c; stroke: #37539c; stroke-width: 0.8"/>
      </g>
     </g>
     <g id="text_6">
      <!-- 2019-2020 -->
      <g style="fill: #37539c" transform="translate(374.244447 335.349564) rotate(-45) scale(0.08 -0.08)">
       <use xlink:href="#OpenSans-Bold-32"/>
       <use xlink:href="#OpenSans-Bold-30" x="57.177734"/>
       <use xlink:href="#OpenSans-Bold-31" x="114.355469"/>
       <use xlink:href="#OpenSans-Bold-39" x="171.533203"/>
       <use xlink:href="#OpenSans-Bold-2d" x="228.710938"/>
       <use xlink:href="#OpenSans-Bold-32" x="260.888672"/>
       <use xlink:href="#OpenSans-Bold-30" x="318.066406"/>
       <use xlink:href="#OpenSans-Bold-32" x="375.244141"/>
       <use xlink:href="#OpenSans-Bold-30" x="432.421875"/>
      </g>
     </g>
    </g>
   </g>
   <g id="matplotlib.axis_2">
    <g id="ytick_1">
     <g id="line2d_7">
      <path d="M 55.19 296.358286 
L 423.97 296.358286 
" clip-path="url(#p740ff85d45)" style="fill: none; stroke-dasharray: 2.96,1.28; stroke-dashoffset: 0; stroke: #b0b0b0; stroke-width: 0.8"/>
     </g>
     <g id="line2d_8">
      <defs>
       <path id="m579f5576b9" d="M 0 0 
L -3.5 0 
" style="stroke: #37539c; stroke-width: 0.8"/>
      </defs>
      <g>
       <use xlink:href="#m579f5576b9" x="55.19" y="296.358286" style="fill: #37539c; stroke: #37539c; stroke-width: 0.8"/>
      </g>
     </g>
     <g id="text_7">
      <!-- 0 -->
      <g style="fill: #37539c" transform="translate(43.61625 299.397661) scale(0.08 -0.08)">
       <use xlink:href="#OpenSans-Bold-30"/>
      </g>
     </g>
    </g>
    <g id="ytick_2">
     <g id="line2d_9">
      <path d="M 55.19 261.972801 
L 423.97 261.972801 
" clip-path="url(#p740ff85d45)" style="fill: none; stroke-dasharray: 2.96,1.28; stroke-dashoffset: 0; stroke: #b0b0b0; stroke-width: 0.8"/>
     </g>
     <g id="line2d_10">
      <g>
       <use xlink:href="#m579f5576b9" x="55.19" y="261.972801" style="fill: #37539c; stroke: #37539c; stroke-width: 0.8"/>
      </g>
     </g>
     <g id="text_8">
      <!-- 25000 -->
      <g style="fill: #37539c" transform="translate(25.32125 265.012176) scale(0.08 -0.08)">
       <use xlink:href="#OpenSans-Bold-32"/>
       <use xlink:href="#OpenSans-Bold-35" x="57.177734"/>
       <use xlink:href="#OpenSans-Bold-30" x="114.355469"/>
       <use xlink:href="#OpenSans-Bold-30" x="171.533203"/>
       <use xlink:href="#OpenSans-Bold-30" x="228.710938"/>
      </g>
     </g>
    </g>
    <g id="ytick_3">
     <g id="line2d_11">
      <path d="M 55.19 227.587317 
L 423.97 227.587317 
" clip-path="url(#p740ff85d45)" style="fill: none; stroke-dasharray: 2.96,1.28; stroke-dashoffset: 0; stroke: #b0b0b0; stroke-width: 0.8"/>
     </g>
     <g id="line2d_12">
      <g>
       <use xlink:href="#m579f5576b9" x="55.19" y="227.587317" style="fill: #37539c; stroke: #37539c; stroke-width: 0.8"/>
      </g>
     </g>
     <g id="text_9">
      <!-- 50000 -->
      <g style="fill: #37539c" transform="translate(25.32125 230.626692) scale(0.08 -0.08)">
       <use xlink:href="#OpenSans-Bold-35"/>
       <use xlink:href="#OpenSans-Bold-30" x="57.177734"/>
       <use xlink:href="#OpenSans-Bold-30" x="114.355469"/>
       <use xlink:href="#OpenSans-Bold-30" x="171.533203"/>
       <use xlink:href="#OpenSans-Bold-30" x="228.710938"/>
      </g>
     </g>
    </g>
    <g id="ytick_4">
     <g id="line2d_13">
      <path d="M 55.19 193.201833 
L 423.97 193.201833 
" clip-path="url(#p740ff85d45)" style="fill: none; stroke-dasharray: 2.96,1.28; stroke-dashoffset: 0; stroke: #b0b0b0; stroke-width: 0.8"/>
     </g>
     <g id="line2d_14">
      <g>
       <use xlink:href="#m579f5576b9" x="55.19" y="193.201833" style="fill: #37539c; stroke: #37539c; stroke-width: 0.8"/>
      </g>
     </g>
     <g id="text_10">
      <!-- 75000 -->
      <g style="fill: #37539c" transform="translate(25.32125 196.241208) scale(0.08 -0.08)">
       <use xlink:href="#OpenSans-Bold-37"/>
       <use xlink:href="#OpenSans-Bold-35" x="57.177734"/>
       <use xlink:href="#OpenSans-Bold-30" x="114.355469"/>
       <use xlink:href="#OpenSans-Bold-30" x="171.533203"/>
       <use xlink:href="#OpenSans-Bold-30" x="228.710938"/>
      </g>
     </g>
    </g>
    <g id="ytick_5">
     <g id="line2d_15">
      <path d="M 55.19 158.816348 
L 423.97 158.816348 
" clip-path="url(#p740ff85d45)" style="fill: none; stroke-dasharray: 2.96,1.28; stroke-dashoffset: 0; stroke: #b0b0b0; stroke-width: 0.8"/>
     </g>
     <g id="line2d_16">
      <g>
       <use xlink:href="#m579f5576b9" x="55.19" y="158.816348" style="fill: #37539c; stroke: #37539c; stroke-width: 0.8"/>
      </g>
     </g>
     <g id="text_11">
      <!-- 100000 -->
      <g style="fill: #37539c" transform="translate(20.7475 161.855723) scale(0.08 -0.08)">
       <use xlink:href="#OpenSans-Bold-31"/>
       <use xlink:href="#OpenSans-Bold-30" x="57.177734"/>
       <use xlink:href="#OpenSans-Bold-30" x="114.355469"/>
       <use xlink:href="#OpenSans-Bold-30" x="171.533203"/>
       <use xlink:href="#OpenSans-Bold-30" x="228.710938"/>
       <use xlink:href="#OpenSans-Bold-30" x="285.888672"/>
      </g>
     </g>
    </g>
    <g id="ytick_6">
     <g id="line2d_17">
      <path d="M 55.19 124.430864 
L 423.97 124.430864 
" clip-path="url(#p740ff85d45)" style="fill: none; stroke-dasharray: 2.96,1.28; stroke-dashoffset: 0; stroke: #b0b0b0; stroke-width: 0.8"/>
     </g>
     <g id="line2d_18">
      <g>
       <use xlink:href="#m579f5576b9" x="55.19" y="124.430864" style="fill: #37539c; stroke: #37539c; stroke-width: 0.8"/>
      </g>
     </g>
     <g id="text_12">
      <!-- 125000 -->
      <g style="fill: #37539c" transform="translate(20.7475 127.470239) scale(0.08 -0.08)">
       <use xlink:href="#OpenSans-Bold-31"/>
       <use xlink:href="#OpenSans-Bold-32" x="57.177734"/>
       <use xlink:href="#OpenSans-Bold-35" x="114.355469"/>
       <use xlink:href="#OpenSans-Bold-30" x="171.533203"/>
       <use xlink:href="#OpenSans-Bold-30" x="228.710938"/>
       <use xlink:href="#OpenSans-Bold-30" x="285.888672"/>
      </g>
     </g>
    </g>
    <g id="ytick_7">
     <g id="line2d_19">
      <path d="M 55.19 90.04538 
L 423.97 90.04538 
" clip-path="url(#p740ff85d45)" style="fill: none; stroke-dasharray: 2.96,1.28; stroke-dashoffset: 0; stroke: #b0b0b0; stroke-width: 0.8"/>
     </g>
     <g id="line2d_20">
      <g>
       <use xlink:href="#m579f5576b9" x="55.19" y="90.04538" style="fill: #37539c; stroke: #37539c; stroke-width: 0.8"/>
      </g>
     </g>
     <g id="text_13">
      <!-- 150000 -->
      <g style="fill: #37539c" transform="translate(20.7475 93.084755) scale(0.08 -0.08)">
       <use xlink:href="#OpenSans-Bold-31"/>
       <use xlink:href="#OpenSans-Bold-35" x="57.177734"/>
       <use xlink:href="#OpenSans-Bold-30" x="114.355469"/>
       <use xlink:href="#OpenSans-Bold-30" x="171.533203"/>
       <use xlink:href="#OpenSans-Bold-30" x="228.710938"/>
       <use xlink:href="#OpenSans-Bold-30" x="285.888672"/>
      </g>
     </g>
    </g>
    <g id="ytick_8">
     <g id="line2d_21">
      <path d="M 55.19 55.659895 
L 423.97 55.659895 
" clip-path="url(#p740ff85d45)" style="fill: none; stroke-dasharray: 2.96,1.28; stroke-dashoffset: 0; stroke: #b0b0b0; stroke-width: 0.8"/>
     </g>
     <g id="line2d_22">
      <g>
       <use xlink:href="#m579f5576b9" x="55.19" y="55.659895" style="fill: #37539c; stroke: #37539c; stroke-width: 0.8"/>
      </g>
     </g>
     <g id="text_14">
      <!-- 175000 -->
      <g style="fill: #37539c" transform="translate(20.7475 58.69927) scale(0.08 -0.08)">
       <use xlink:href="#OpenSans-Bold-31"/>
       <use xlink:href="#OpenSans-Bold-37" x="57.177734"/>
       <use xlink:href="#OpenSans-Bold-35" x="114.355469"/>
       <use xlink:href="#OpenSans-Bold-30" x="171.533203"/>
       <use xlink:href="#OpenSans-Bold-30" x="228.710938"/>
       <use xlink:href="#OpenSans-Bold-30" x="285.888672"/>
      </g>
     </g>
    </g>
    <g id="text_15">
     <!-- Cantidad de empresas -->
     <g style="fill: #37539c" transform="translate(14.825 203.495393) rotate(-90) scale(0.08 -0.08)">
      <defs>
       <path id="OpenSans-Bold-43" d="M 2516 3828 
Q 2238 3828 2023 3720 
Q 1809 3613 1664 3409 
Q 1519 3206 1444 2918 
Q 1369 2631 1369 2272 
Q 1369 1788 1489 1445 
Q 1609 1103 1862 923 
Q 2116 744 2516 744 
Q 2794 744 3073 806 
Q 3353 869 3681 984 
L 3681 172 
Q 3378 47 3084 -8 
Q 2791 -63 2425 -63 
Q 1719 -63 1264 229 
Q 809 522 590 1048 
Q 372 1575 372 2278 
Q 372 2797 512 3228 
Q 653 3659 925 3975 
Q 1197 4291 1597 4462 
Q 1997 4634 2516 4634 
Q 2856 4634 3198 4548 
Q 3541 4463 3853 4313 
L 3541 3525 
Q 3284 3647 3025 3737 
Q 2766 3828 2516 3828 
z
" transform="scale(0.015625)"/>
       <path id="OpenSans-Bold-61" d="M 1931 3566 
Q 2634 3566 3009 3259 
Q 3384 2953 3384 2328 
L 3384 0 
L 2719 0 
L 2534 475 
L 2509 475 
Q 2359 288 2203 169 
Q 2047 50 1844 -6 
Q 1641 -63 1350 -63 
Q 1041 -63 795 56 
Q 550 175 409 420 
Q 269 666 269 1044 
Q 269 1600 659 1864 
Q 1050 2128 1831 2156 
L 2438 2175 
L 2438 2328 
Q 2438 2603 2294 2731 
Q 2150 2859 1894 2859 
Q 1641 2859 1397 2787 
Q 1153 2716 909 2606 
L 594 3250 
Q 872 3397 1217 3481 
Q 1563 3566 1931 3566 
z
M 2438 1619 
L 2069 1606 
Q 1606 1594 1426 1441 
Q 1247 1288 1247 1038 
Q 1247 819 1375 726 
Q 1503 634 1709 634 
Q 2016 634 2227 815 
Q 2438 997 2438 1331 
L 2438 1619 
z
" transform="scale(0.015625)"/>
       <path id="OpenSans-Bold-6e" d="M 2484 3559 
Q 3044 3559 3384 3254 
Q 3725 2950 3725 2278 
L 3725 0 
L 2772 0 
L 2772 2041 
Q 2772 2416 2636 2606 
Q 2500 2797 2209 2797 
Q 1772 2797 1612 2500 
Q 1453 2203 1453 1644 
L 1453 0 
L 500 0 
L 500 3494 
L 1228 3494 
L 1356 3047 
L 1409 3047 
Q 1522 3228 1689 3340 
Q 1856 3453 2061 3506 
Q 2266 3559 2484 3559 
z
" transform="scale(0.015625)"/>
       <path id="OpenSans-Bold-74" d="M 1972 697 
Q 2128 697 2276 728 
Q 2425 759 2572 806 
L 2572 97 
Q 2419 28 2192 -17 
Q 1966 -63 1697 -63 
Q 1384 -63 1136 39 
Q 888 141 745 392 
Q 603 644 603 1094 
L 603 2778 
L 147 2778 
L 147 3181 
L 672 3500 
L 947 4238 
L 1556 4238 
L 1556 3494 
L 2534 3494 
L 2534 2778 
L 1556 2778 
L 1556 1094 
Q 1556 894 1670 795 
Q 1784 697 1972 697 
z
" transform="scale(0.015625)"/>
       <path id="OpenSans-Bold-69" d="M 1453 3494 
L 1453 0 
L 500 0 
L 500 3494 
L 1453 3494 
z
M 978 4863 
Q 1191 4863 1344 4764 
Q 1497 4666 1497 4397 
Q 1497 4131 1344 4029 
Q 1191 3928 978 3928 
Q 763 3928 611 4029 
Q 459 4131 459 4397 
Q 459 4666 611 4764 
Q 763 4863 978 4863 
z
" transform="scale(0.015625)"/>
       <path id="OpenSans-Bold-64" d="M 1606 -63 
Q 1022 -63 655 395 
Q 288 853 288 1741 
Q 288 2638 659 3098 
Q 1031 3559 1631 3559 
Q 1881 3559 2072 3490 
Q 2263 3422 2402 3306 
Q 2541 3191 2638 3047 
L 2669 3047 
Q 2650 3147 2623 3342 
Q 2597 3538 2597 3744 
L 2597 4863 
L 3553 4863 
L 3553 0 
L 2822 0 
L 2638 453 
L 2597 453 
Q 2506 309 2370 192 
Q 2234 75 2046 6 
Q 1859 -63 1606 -63 
z
M 1941 697 
Q 2331 697 2492 930 
Q 2653 1163 2663 1631 
L 2663 1734 
Q 2663 2244 2506 2514 
Q 2350 2784 1925 2784 
Q 1609 2784 1431 2512 
Q 1253 2241 1253 1728 
Q 1253 1216 1433 956 
Q 1613 697 1941 697 
z
" transform="scale(0.015625)"/>
       <path id="OpenSans-Bold-20" transform="scale(0.015625)"/>
       <path id="OpenSans-Bold-65" d="M 1941 3559 
Q 2425 3559 2775 3373 
Q 3125 3188 3315 2834 
Q 3506 2481 3506 1972 
L 3506 1509 
L 1253 1509 
Q 1269 1106 1495 876 
Q 1722 647 2125 647 
Q 2459 647 2737 715 
Q 3016 784 3309 922 
L 3309 184 
Q 3050 56 2767 -3 
Q 2484 -63 2081 -63 
Q 1556 -63 1151 131 
Q 747 325 517 722 
Q 288 1119 288 1722 
Q 288 2334 495 2742 
Q 703 3150 1075 3354 
Q 1447 3559 1941 3559 
z
M 1947 2881 
Q 1669 2881 1486 2703 
Q 1303 2525 1275 2144 
L 2613 2144 
Q 2609 2356 2536 2522 
Q 2463 2688 2317 2784 
Q 2172 2881 1947 2881 
z
" transform="scale(0.015625)"/>
       <path id="OpenSans-Bold-6d" d="M 4603 3559 
Q 5197 3559 5501 3254 
Q 5806 2950 5806 2278 
L 5806 0 
L 4850 0 
L 4850 2041 
Q 4850 2416 4722 2606 
Q 4594 2797 4325 2797 
Q 3947 2797 3787 2526 
Q 3628 2256 3628 1753 
L 3628 0 
L 2675 0 
L 2675 2041 
Q 2675 2291 2619 2459 
Q 2563 2628 2447 2712 
Q 2331 2797 2150 2797 
Q 1884 2797 1732 2664 
Q 1581 2531 1517 2273 
Q 1453 2016 1453 1644 
L 1453 0 
L 500 0 
L 500 3494 
L 1228 3494 
L 1356 3047 
L 1409 3047 
Q 1516 3228 1677 3340 
Q 1838 3453 2031 3506 
Q 2225 3559 2425 3559 
Q 2809 3559 3076 3434 
Q 3344 3309 3488 3047 
L 3572 3047 
Q 3728 3316 4014 3437 
Q 4300 3559 4603 3559 
z
" transform="scale(0.015625)"/>
       <path id="OpenSans-Bold-70" d="M 2444 3559 
Q 3034 3559 3398 3100 
Q 3763 2641 3763 1753 
Q 3763 1159 3591 754 
Q 3419 350 3116 143 
Q 2813 -63 2419 -63 
Q 2166 -63 1984 1 
Q 1803 66 1675 167 
Q 1547 269 1453 384 
L 1403 384 
Q 1428 259 1440 128 
Q 1453 -3 1453 -128 
L 1453 -1538 
L 500 -1538 
L 500 3494 
L 1275 3494 
L 1409 3041 
L 1453 3041 
Q 1547 3181 1681 3300 
Q 1816 3419 2005 3489 
Q 2194 3559 2444 3559 
z
M 2138 2797 
Q 1888 2797 1741 2694 
Q 1594 2591 1526 2384 
Q 1459 2178 1453 1863 
L 1453 1759 
Q 1453 1422 1517 1187 
Q 1581 953 1732 831 
Q 1884 709 2150 709 
Q 2369 709 2509 831 
Q 2650 953 2720 1189 
Q 2791 1425 2791 1766 
Q 2791 2278 2631 2537 
Q 2472 2797 2138 2797 
z
" transform="scale(0.015625)"/>
       <path id="OpenSans-Bold-72" d="M 2450 3559 
Q 2522 3559 2617 3551 
Q 2713 3544 2772 3531 
L 2700 2638 
Q 2653 2653 2567 2661 
Q 2481 2669 2419 2669 
Q 2234 2669 2061 2622 
Q 1888 2575 1750 2470 
Q 1613 2366 1533 2195 
Q 1453 2025 1453 1778 
L 1453 0 
L 500 0 
L 500 3494 
L 1222 3494 
L 1363 2906 
L 1409 2906 
Q 1513 3084 1667 3232 
Q 1822 3381 2020 3470 
Q 2219 3559 2450 3559 
z
" transform="scale(0.015625)"/>
       <path id="OpenSans-Bold-73" d="M 2938 1038 
Q 2938 681 2770 436 
Q 2603 191 2272 64 
Q 1941 -63 1447 -63 
Q 1081 -63 820 -16 
Q 559 31 294 141 
L 294 928 
Q 578 800 904 717 
Q 1231 634 1478 634 
Q 1756 634 1876 717 
Q 1997 800 1997 934 
Q 1997 1022 1948 1092 
Q 1900 1163 1740 1252 
Q 1581 1341 1241 1484 
Q 913 1622 702 1762 
Q 491 1903 389 2095 
Q 288 2288 288 2584 
Q 288 3069 664 3314 
Q 1041 3559 1672 3559 
Q 1997 3559 2292 3493 
Q 2588 3428 2900 3284 
L 2613 2597 
Q 2353 2709 2123 2781 
Q 1894 2853 1656 2853 
Q 1447 2853 1340 2797 
Q 1234 2741 1234 2625 
Q 1234 2541 1289 2475 
Q 1344 2409 1501 2329 
Q 1659 2250 1966 2125 
Q 2263 2003 2481 1870 
Q 2700 1738 2819 1542 
Q 2938 1347 2938 1038 
z
" transform="scale(0.015625)"/>
      </defs>
      <use xlink:href="#OpenSans-Bold-43"/>
      <use xlink:href="#OpenSans-Bold-61" x="63.720703"/>
      <use xlink:href="#OpenSans-Bold-6e" x="124.121094"/>
      <use xlink:href="#OpenSans-Bold-74" x="189.84375"/>
      <use xlink:href="#OpenSans-Bold-69" x="233.251953"/>
      <use xlink:href="#OpenSans-Bold-64" x="263.769531"/>
      <use xlink:href="#OpenSans-Bold-61" x="327.050781"/>
      <use xlink:href="#OpenSans-Bold-64" x="387.451172"/>
      <use xlink:href="#OpenSans-Bold-20" x="450.732422"/>
      <use xlink:href="#OpenSans-Bold-64" x="476.708984"/>
      <use xlink:href="#OpenSans-Bold-65" x="539.990234"/>
      <use xlink:href="#OpenSans-Bold-20" x="599.072266"/>
      <use xlink:href="#OpenSans-Bold-65" x="625.048828"/>
      <use xlink:href="#OpenSans-Bold-6d" x="684.130859"/>
      <use xlink:href="#OpenSans-Bold-70" x="782.324219"/>
      <use xlink:href="#OpenSans-Bold-72" x="845.605469"/>
      <use xlink:href="#OpenSans-Bold-65" x="891.015625"/>
      <use xlink:href="#OpenSans-Bold-73" x="950.097656"/>
      <use xlink:href="#OpenSans-Bold-61" x="999.804688"/>
      <use xlink:href="#OpenSans-Bold-73" x="1060.205078"/>
     </g>
    </g>
   </g>
   <g id="patch_3">
    <path d="M 372.152587 252.57535 
L 401.090348 252.57535 
Q 406.972006 252.57535 406.972006 252.5748 
L 406.972006 34.912871 
Q 406.972006 34.912321 401.090348 34.912321 
L 372.152587 34.912321 
Q 366.270928 34.912321 366.270928 34.912871 
L 366.270928 252.5748 
Q 366.270928 252.57535 372.152587 252.57535 
z
" clip-path="url(#p740ff85d45)" style="fill: #9fb7b9"/>
   </g>
   <g id="patch_4">
    <path d="M 313.336 262.420877 
L 342.273761 262.420877 
Q 348.155419 262.420877 348.155419 262.420327 
L 348.155419 55.263755 
Q 348.155419 55.263205 342.273761 55.263205 
L 313.336 55.263205 
Q 307.454341 55.263205 307.454341 55.263755 
L 307.454341 262.420327 
Q 307.454341 262.420877 313.336 262.420877 
z
" clip-path="url(#p740ff85d45)" style="fill: #9fb7b9"/>
   </g>
   <g id="patch_5">
    <path d="M 254.519413 259.709431 
L 283.457174 259.709431 
Q 289.338833 259.709431 289.338833 259.70888 
L 289.338833 53.054048 
Q 289.338833 53.053498 283.457174 53.053498 
L 254.519413 53.053498 
Q 248.637754 53.053498 248.637754 53.054048 
L 248.637754 259.70888 
Q 248.637754 259.709431 254.519413 259.709431 
z
" clip-path="url(#p740ff85d45)" style="fill: #9fb7b9"/>
   </g>
   <g id="patch_6">
    <path d="M 195.702826 259.001461 
L 224.640587 259.001461 
Q 230.522246 259.001461 230.522246 259.000911 
L 230.522246 71.590492 
Q 230.522246 71.589942 224.640587 71.589942 
L 195.702826 71.589942 
Q 189.821167 71.589942 189.821167 71.590492 
L 189.821167 259.000911 
Q 189.821167 259.001461 195.702826 259.001461 
z
" clip-path="url(#p740ff85d45)" style="fill: #9fb7b9"/>
   </g>
   <g id="patch_7">
    <path d="M 136.886239 249.40842 
L 165.824 249.40842 
Q 171.705659 249.40842 171.705659 249.40787 
L 171.705659 98.097657 
Q 171.705659 98.097107 165.824 98.097107 
L 136.886239 98.097107 
Q 131.004581 98.097107 131.004581 98.097657 
L 131.004581 249.40787 
Q 131.004581 249.40842 136.886239 249.40842 
z
" clip-path="url(#p740ff85d45)" style="fill: #9fb7b9"/>
   </g>
   <g id="patch_8">
    <path d="M 78.069652 262.829748 
L 107.007413 262.829748 
Q 112.889072 262.829748 112.889072 262.829198 
L 112.889072 121.929548 
Q 112.889072 121.928998 107.007413 121.928998 
L 78.069652 121.928998 
Q 72.187994 121.928998 72.187994 121.929548 
L 72.187994 262.829198 
Q 72.187994 262.829748 78.069652 262.829748 
z
" clip-path="url(#p740ff85d45)" style="fill: #9fb7b9"/>
   </g>
   <g id="patch_9">
    <path d="M 372.152587 296.358264 
L 401.090348 296.358264 
Q 406.972006 296.358264 406.972006 296.357714 
L 406.972006 252.575945 
Q 406.972006 252.575394 401.090348 252.575394 
L 372.152587 252.575394 
Q 366.270928 252.575394 366.270928 252.575945 
L 366.270928 296.357714 
Q 366.270928 296.358264 372.152587 296.358264 
z
" clip-path="url(#p740ff85d45)" style="fill: #37539c"/>
   </g>
   <g id="patch_10">
    <path d="M 313.336 296.358264 
L 342.273761 296.358264 
Q 348.155419 296.358264 348.155419 296.357714 
L 348.155419 262.421471 
Q 348.155419 262.420921 342.273761 262.420921 
L 313.336 262.420921 
Q 307.454341 262.420921 307.454341 262.421471 
L 307.454341 296.357714 
Q 307.454341 296.358264 313.336 296.358264 
z
" clip-path="url(#p740ff85d45)" style="fill: #37539c"/>
   </g>
   <g id="patch_11">
    <path d="M 254.519413 296.358264 
L 283.457174 296.358264 
Q 289.338833 296.358264 289.338833 296.357714 
L 289.338833 259.710025 
Q 289.338833 259.709475 283.457174 259.709475 
L 254.519413 259.709475 
Q 248.637754 259.709475 248.637754 259.710025 
L 248.637754 296.357714 
Q 248.637754 296.358264 254.519413 296.358264 
z
" clip-path="url(#p740ff85d45)" style="fill: #37539c"/>
   </g>
   <g id="patch_12">
    <path d="M 195.702826 296.358264 
L 224.640587 296.358264 
Q 230.522246 296.358264 230.522246 296.357714 
L 230.522246 259.002055 
Q 230.522246 259.001505 224.640587 259.001505 
L 195.702826 259.001505 
Q 189.821167 259.001505 189.821167 259.002055 
L 189.821167 296.357714 
Q 189.821167 296.358264 195.702826 296.358264 
z
" clip-path="url(#p740ff85d45)" style="fill: #37539c"/>
   </g>
   <g id="patch_13">
    <path d="M 136.886239 296.358264 
L 165.824 296.358264 
Q 171.705659 296.358264 171.705659 296.357714 
L 171.705659 249.409014 
Q 171.705659 249.408464 165.824 249.408464 
L 136.886239 249.408464 
Q 131.004581 249.408464 131.004581 249.409014 
L 131.004581 296.357714 
Q 131.004581 296.358264 136.886239 296.358264 
z
" clip-path="url(#p740ff85d45)" style="fill: #37539c"/>
   </g>
   <g id="patch_14">
    <path d="M 78.069652 296.358264 
L 107.007413 296.358264 
Q 112.889072 296.358264 112.889072 296.357714 
L 112.889072 262.830342 
Q 112.889072 262.829792 107.007413 262.829792 
L 78.069652 262.829792 
Q 72.187994 262.829792 72.187994 262.830342 
L 72.187994 296.357714 
Q 72.187994 296.358264 78.069652 296.358264 
z
" clip-path="url(#p740ff85d45)" style="fill: #37539c"/>
   </g>
   <g id="patch_15">
    <path d="M 55.19 296.358286 
L 55.19 21.84 
" style="fill: none; stroke: #000000; stroke-width: 0.8; stroke-linejoin: miter; stroke-linecap: square"/>
   </g>
   <g id="patch_16">
    <path d="M 55.19 296.358286 
L 423.97 296.358286 
" style="fill: none; stroke: #000000; stroke-width: 0.8; stroke-linejoin: miter; stroke-linecap: square"/>
   </g>
   <g id="text_16">
    <!-- Total de empresas -->
    <g style="fill: #37539c" transform="translate(195.74025 15.84) scale(0.096 -0.096)">
     <defs>
      <path id="OpenSans-Bold-54" d="M 2338 0 
L 1369 0 
L 1369 3763 
L 128 3763 
L 128 4569 
L 3578 4569 
L 3578 3763 
L 2338 3763 
L 2338 0 
z
" transform="scale(0.015625)"/>
      <path id="OpenSans-Bold-6f" d="M 3675 1753 
Q 3675 1316 3558 978 
Q 3441 641 3217 408 
Q 2994 175 2680 56 
Q 2366 -63 1972 -63 
Q 1603 -63 1295 56 
Q 988 175 761 408 
Q 534 641 411 978 
Q 288 1316 288 1753 
Q 288 2334 494 2737 
Q 700 3141 1081 3350 
Q 1463 3559 1991 3559 
Q 2481 3559 2861 3350 
Q 3241 3141 3458 2737 
Q 3675 2334 3675 1753 
z
M 1259 1753 
Q 1259 1409 1334 1175 
Q 1409 941 1568 822 
Q 1728 703 1984 703 
Q 2238 703 2395 822 
Q 2553 941 2626 1175 
Q 2700 1409 2700 1753 
Q 2700 2100 2626 2329 
Q 2553 2559 2393 2675 
Q 2234 2791 1978 2791 
Q 1600 2791 1429 2531 
Q 1259 2272 1259 1753 
z
" transform="scale(0.015625)"/>
      <path id="OpenSans-Bold-6c" d="M 1453 0 
L 500 0 
L 500 4863 
L 1453 4863 
L 1453 0 
z
" transform="scale(0.015625)"/>
     </defs>
     <use xlink:href="#OpenSans-Bold-54"/>
     <use xlink:href="#OpenSans-Bold-6f" x="57.910156"/>
     <use xlink:href="#OpenSans-Bold-74" x="119.824219"/>
     <use xlink:href="#OpenSans-Bold-61" x="163.232422"/>
     <use xlink:href="#OpenSans-Bold-6c" x="223.632812"/>
     <use xlink:href="#OpenSans-Bold-20" x="254.150391"/>
     <use xlink:href="#OpenSans-Bold-64" x="280.126953"/>
     <use xlink:href="#OpenSans-Bold-65" x="343.408203"/>
     <use xlink:href="#OpenSans-Bold-20" x="402.490234"/>
     <use xlink:href="#OpenSans-Bold-65" x="428.466797"/>
     <use xlink:href="#OpenSans-Bold-6d" x="487.548828"/>
     <use xlink:href="#OpenSans-Bold-70" x="585.742188"/>
     <use xlink:href="#OpenSans-Bold-72" x="649.023438"/>
     <use xlink:href="#OpenSans-Bold-65" x="694.433594"/>
     <use xlink:href="#OpenSans-Bold-73" x="753.515625"/>
     <use xlink:href="#OpenSans-Bold-61" x="803.222656"/>
     <use xlink:href="#OpenSans-Bold-73" x="863.623047"/>
    </g>
   </g>
   <g id="legend_1">
    <g id="patch_17">
     <path d="M 60.79 52.2425 
L 188.97625 52.2425 
Q 190.57625 52.2425 190.57625 50.6425 
L 190.57625 27.44 
Q 190.57625 25.84 188.97625 25.84 
L 60.79 25.84 
Q 59.19 25.84 59.19 27.44 
L 59.19 50.6425 
Q 59.19 52.2425 60.79 52.2425 
z
" style="fill: #ffffff; opacity: 0.8; stroke: #cccccc; stroke-linejoin: miter"/>
    </g>
    <g id="patch_18">
     <path d="M 62.39 35.11875 
L 78.39 35.11875 
L 78.39 29.51875 
L 62.39 29.51875 
z
" style="fill: #37539c"/>
    </g>
    <g id="text_17">
     <!-- Empresas que innovan -->
     <g style="fill: #37539c" transform="translate(84.79 35.11875) scale(0.08 -0.08)">
      <defs>
       <path id="OpenSans-Bold-45" d="M 3206 0 
L 575 0 
L 575 4569 
L 3206 4569 
L 3206 3775 
L 1544 3775 
L 1544 2772 
L 3091 2772 
L 3091 1978 
L 1544 1978 
L 1544 800 
L 3206 800 
L 3206 0 
z
" transform="scale(0.015625)"/>
       <path id="OpenSans-Bold-71" d="M 2597 -1538 
L 2597 -72 
Q 2597 59 2608 192 
Q 2619 325 2638 453 
L 2597 453 
Q 2463 238 2227 87 
Q 1991 -63 1606 -63 
Q 1016 -63 652 395 
Q 288 853 288 1741 
Q 288 2338 456 2742 
Q 625 3147 926 3353 
Q 1228 3559 1625 3559 
Q 2009 3559 2248 3411 
Q 2488 3263 2638 3047 
L 2663 3047 
L 2747 3494 
L 3553 3494 
L 3553 -1538 
L 2597 -1538 
z
M 1947 684 
Q 2209 684 2364 787 
Q 2519 891 2587 1098 
Q 2656 1306 2663 1619 
L 2663 1734 
Q 2663 2244 2506 2514 
Q 2350 2784 1931 2784 
Q 1591 2784 1425 2512 
Q 1259 2241 1259 1728 
Q 1259 1206 1428 945 
Q 1597 684 1947 684 
z
" transform="scale(0.015625)"/>
       <path id="OpenSans-Bold-75" d="M 3706 3494 
L 3706 0 
L 2975 0 
L 2847 447 
L 2797 447 
Q 2684 269 2515 156 
Q 2347 44 2144 -9 
Q 1941 -63 1722 -63 
Q 1347 -63 1069 70 
Q 791 203 636 484 
Q 481 766 481 1216 
L 481 3494 
L 1434 3494 
L 1434 1453 
Q 1434 1078 1568 887 
Q 1703 697 1997 697 
Q 2288 697 2453 830 
Q 2619 963 2686 1220 
Q 2753 1478 2753 1850 
L 2753 3494 
L 3706 3494 
z
" transform="scale(0.015625)"/>
       <path id="OpenSans-Bold-76" d="M 1331 0 
L 0 3494 
L 997 3494 
L 1672 1503 
Q 1728 1328 1761 1134 
Q 1794 941 1806 788 
L 1831 788 
Q 1841 953 1877 1140 
Q 1913 1328 1972 1503 
L 2644 3494 
L 3641 3494 
L 2309 0 
L 1331 0 
z
" transform="scale(0.015625)"/>
      </defs>
      <use xlink:href="#OpenSans-Bold-45"/>
      <use xlink:href="#OpenSans-Bold-6d" x="56.005859"/>
      <use xlink:href="#OpenSans-Bold-70" x="154.199219"/>
      <use xlink:href="#OpenSans-Bold-72" x="217.480469"/>
      <use xlink:href="#OpenSans-Bold-65" x="262.890625"/>
      <use xlink:href="#OpenSans-Bold-73" x="321.972656"/>
      <use xlink:href="#OpenSans-Bold-61" x="371.679688"/>
      <use xlink:href="#OpenSans-Bold-73" x="432.080078"/>
      <use xlink:href="#OpenSans-Bold-20" x="481.787109"/>
      <use xlink:href="#OpenSans-Bold-71" x="507.763672"/>
      <use xlink:href="#OpenSans-Bold-75" x="571.044922"/>
      <use xlink:href="#OpenSans-Bold-65" x="636.767578"/>
      <use xlink:href="#OpenSans-Bold-20" x="695.849609"/>
      <use xlink:href="#OpenSans-Bold-69" x="721.826172"/>
      <use xlink:href="#OpenSans-Bold-6e" x="752.34375"/>
      <use xlink:href="#OpenSans-Bold-6e" x="818.066406"/>
      <use xlink:href="#OpenSans-Bold-6f" x="883.789062"/>
      <use xlink:href="#OpenSans-Bold-76" x="945.703125"/>
      <use xlink:href="#OpenSans-Bold-61" x="1002.587891"/>
      <use xlink:href="#OpenSans-Bold-6e" x="1062.988281"/>
     </g>
    </g>
    <g id="patch_19">
     <path d="M 62.39 47.12 
L 78.39 47.12 
L 78.39 41.52 
L 62.39 41.52 
z
" style="fill: #9fb7b9"/>
    </g>
    <g id="text_18">
     <!-- Empresas que no innovan -->
     <g style="fill: #37539c" transform="translate(84.79 47.12) scale(0.08 -0.08)">
      <use xlink:href="#OpenSans-Bold-45"/>
      <use xlink:href="#OpenSans-Bold-6d" x="56.005859"/>
      <use xlink:href="#OpenSans-Bold-70" x="154.199219"/>
      <use xlink:href="#OpenSans-Bold-72" x="217.480469"/>
      <use xlink:href="#OpenSans-Bold-65" x="262.890625"/>
      <use xlink:href="#OpenSans-Bold-73" x="321.972656"/>
      <use xlink:href="#OpenSans-Bold-61" x="371.679688"/>
      <use xlink:href="#OpenSans-Bold-73" x="432.080078"/>
      <use xlink:href="#OpenSans-Bold-20" x="481.787109"/>
      <use xlink:href="#OpenSans-Bold-71" x="507.763672"/>
      <use xlink:href="#OpenSans-Bold-75" x="571.044922"/>
      <use xlink:href="#OpenSans-Bold-65" x="636.767578"/>
      <use xlink:href="#OpenSans-Bold-20" x="695.849609"/>
      <use xlink:href="#OpenSans-Bold-6e" x="721.826172"/>
      <use xlink:href="#OpenSans-Bold-6f" x="787.548828"/>
      <use xlink:href="#OpenSans-Bold-20" x="849.462891"/>
      <use xlink:href="#OpenSans-Bold-69" x="875.439453"/>
      <use xlink:href="#OpenSans-Bold-6e" x="905.957031"/>
      <use xlink:href="#OpenSans-Bold-6e" x="971.679688"/>
      <use xlink:href="#OpenSans-Bold-6f" x="1037.402344"/>
      <use xlink:href="#OpenSans-Bold-76" x="1099.316406"/>
      <use xlink:href="#OpenSans-Bold-61" x="1156.201172"/>
      <use xlink:href="#OpenSans-Bold-6e" x="1216.601562"/>
     </g>
    </g>
   </g>
  </g>
  <g id="axes_2">
   <g id="matplotlib.axis_3">
    <g id="ytick_9">
     <g id="line2d_23">
      <defs>
       <path id="m7ba399d5de" d="M 0 0 
L 3.5 0 
" style="stroke: #f45b69; stroke-width: 0.8"/>
      </defs>
      <g>
       <use xlink:href="#m7ba399d5de" x="423.97" y="296.358286" style="fill: #f45b69; stroke: #f45b69; stroke-width: 0.8"/>
      </g>
     </g>
     <g id="text_19">
      <!-- 0 -->
      <g style="fill: #f45b69" transform="translate(430.97 299.397661) scale(0.08 -0.08)">
       <use xlink:href="#OpenSans-Bold-30"/>
      </g>
     </g>
    </g>
    <g id="ytick_10">
     <g id="line2d_24">
      <g>
       <use xlink:href="#m7ba399d5de" x="423.97" y="250.605238" style="fill: #f45b69; stroke: #f45b69; stroke-width: 0.8"/>
      </g>
     </g>
     <g id="text_20">
      <!-- 5 -->
      <g style="fill: #f45b69" transform="translate(430.97 253.644613) scale(0.08 -0.08)">
       <use xlink:href="#OpenSans-Bold-35"/>
      </g>
     </g>
    </g>
    <g id="ytick_11">
     <g id="line2d_25">
      <g>
       <use xlink:href="#m7ba399d5de" x="423.97" y="204.852191" style="fill: #f45b69; stroke: #f45b69; stroke-width: 0.8"/>
      </g>
     </g>
     <g id="text_21">
      <!-- 10 -->
      <g style="fill: #f45b69" transform="translate(430.97 207.891566) scale(0.08 -0.08)">
       <use xlink:href="#OpenSans-Bold-31"/>
       <use xlink:href="#OpenSans-Bold-30" x="57.177734"/>
      </g>
     </g>
    </g>
    <g id="ytick_12">
     <g id="line2d_26">
      <g>
       <use xlink:href="#m7ba399d5de" x="423.97" y="159.099143" style="fill: #f45b69; stroke: #f45b69; stroke-width: 0.8"/>
      </g>
     </g>
     <g id="text_22">
      <!-- 15 -->
      <g style="fill: #f45b69" transform="translate(430.97 162.138518) scale(0.08 -0.08)">
       <use xlink:href="#OpenSans-Bold-31"/>
       <use xlink:href="#OpenSans-Bold-35" x="57.177734"/>
      </g>
     </g>
    </g>
    <g id="ytick_13">
     <g id="line2d_27">
      <g>
       <use xlink:href="#m7ba399d5de" x="423.97" y="113.346095" style="fill: #f45b69; stroke: #f45b69; stroke-width: 0.8"/>
      </g>
     </g>
     <g id="text_23">
      <!-- 20 -->
      <g style="fill: #f45b69" transform="translate(430.97 116.38547) scale(0.08 -0.08)">
       <use xlink:href="#OpenSans-Bold-32"/>
       <use xlink:href="#OpenSans-Bold-30" x="57.177734"/>
      </g>
     </g>
    </g>
    <g id="ytick_14">
     <g id="line2d_28">
      <g>
       <use xlink:href="#m7ba399d5de" x="423.97" y="67.593048" style="fill: #f45b69; stroke: #f45b69; stroke-width: 0.8"/>
      </g>
     </g>
     <g id="text_24">
      <!-- 25 -->
      <g style="fill: #f45b69" transform="translate(430.97 70.632423) scale(0.08 -0.08)">
       <use xlink:href="#OpenSans-Bold-32"/>
       <use xlink:href="#OpenSans-Bold-35" x="57.177734"/>
      </g>
     </g>
    </g>
    <g id="ytick_15">
     <g id="line2d_29">
      <g>
       <use xlink:href="#m7ba399d5de" x="423.97" y="21.84" style="fill: #f45b69; stroke: #f45b69; stroke-width: 0.8"/>
      </g>
     </g>
     <g id="text_25">
      <!-- 30 -->
      <g style="fill: #f45b69" transform="translate(430.97 24.879375) scale(0.08 -0.08)">
       <use xlink:href="#OpenSans-Bold-33"/>
       <use xlink:href="#OpenSans-Bold-30" x="57.177734"/>
      </g>
     </g>
    </g>
    <g id="text_26">
     <!-- Tasa de innovación empresarial (%) -->
     <g style="fill: #37539c" transform="translate(450.24625 229.712268) rotate(-90) scale(0.08 -0.08)">
      <defs>
       <path id="OpenSans-Bold-63" d="M 1919 -63 
Q 1400 -63 1034 126 
Q 669 316 478 712 
Q 288 1109 288 1728 
Q 288 2369 505 2773 
Q 722 3178 1108 3368 
Q 1494 3559 2003 3559 
Q 2366 3559 2630 3489 
Q 2894 3419 3091 3322 
L 2809 2584 
Q 2584 2675 2390 2733 
Q 2197 2791 2003 2791 
Q 1753 2791 1587 2673 
Q 1422 2556 1340 2322 
Q 1259 2088 1259 1734 
Q 1259 1388 1346 1159 
Q 1434 931 1600 820 
Q 1766 709 2003 709 
Q 2300 709 2531 789 
Q 2763 869 2981 1013 
L 2981 197 
Q 2763 59 2523 -2 
Q 2284 -63 1919 -63 
z
" transform="scale(0.015625)"/>
       <path id="OpenSans-Bold-f3" d="M 3675 1753 
Q 3675 1316 3558 978 
Q 3441 641 3217 408 
Q 2994 175 2680 56 
Q 2366 -63 1972 -63 
Q 1603 -63 1295 56 
Q 988 175 761 408 
Q 534 641 411 978 
Q 288 1316 288 1753 
Q 288 2334 494 2737 
Q 700 3141 1081 3350 
Q 1463 3559 1991 3559 
Q 2481 3559 2861 3350 
Q 3241 3141 3458 2737 
Q 3675 2334 3675 1753 
z
M 1259 1753 
Q 1259 1409 1334 1175 
Q 1409 941 1568 822 
Q 1728 703 1984 703 
Q 2238 703 2395 822 
Q 2553 941 2626 1175 
Q 2700 1409 2700 1753 
Q 2700 2100 2626 2329 
Q 2553 2559 2393 2675 
Q 2234 2791 1978 2791 
Q 1600 2791 1429 2531 
Q 1259 2272 1259 1753 
z
M 3211 4903 
L 3211 4838 
Q 3121 4750 2974 4622 
Q 2827 4494 2658 4355 
Q 2490 4216 2327 4089 
Q 2165 3963 2043 3878 
L 1408 3878 
L 1408 3963 
Q 1511 4081 1647 4245 
Q 1783 4409 1917 4584 
Q 2052 4759 2143 4903 
L 3211 4903 
z
" transform="scale(0.015625)"/>
       <path id="OpenSans-Bold-28" d="M 256 1753 
Q 256 2275 356 2773 
Q 456 3272 665 3726 
Q 875 4181 1197 4569 
L 1978 4569 
Q 1541 3969 1314 3244 
Q 1088 2519 1088 1759 
Q 1088 1266 1188 777 
Q 1288 288 1486 -165 
Q 1684 -619 1972 -1013 
L 1197 -1013 
Q 875 -638 665 -192 
Q 456 253 356 745 
Q 256 1238 256 1753 
z
" transform="scale(0.015625)"/>
       <path id="OpenSans-Bold-25" d="M 1275 4634 
Q 1813 4634 2091 4259 
Q 2369 3884 2369 3206 
Q 2369 2528 2106 2147 
Q 1844 1766 1275 1766 
Q 747 1766 472 2147 
Q 197 2528 197 3206 
Q 197 3884 455 4259 
Q 713 4634 1275 4634 
z
M 1281 3981 
Q 1128 3981 1056 3787 
Q 984 3594 984 3200 
Q 984 2806 1056 2609 
Q 1128 2413 1281 2413 
Q 1434 2413 1507 2608 
Q 1581 2803 1581 3200 
Q 1581 3594 1507 3787 
Q 1434 3981 1281 3981 
z
M 4519 4569 
L 1984 0 
L 1234 0 
L 3769 4569 
L 4519 4569 
z
M 4475 2809 
Q 5013 2809 5291 2434 
Q 5569 2059 5569 1381 
Q 5569 706 5306 325 
Q 5044 -56 4475 -56 
Q 3947 -56 3672 325 
Q 3397 706 3397 1381 
Q 3397 2059 3655 2434 
Q 3913 2809 4475 2809 
z
M 4481 2156 
Q 4328 2156 4256 1962 
Q 4184 1769 4184 1375 
Q 4184 981 4256 784 
Q 4328 588 4481 588 
Q 4634 588 4707 783 
Q 4781 978 4781 1375 
Q 4781 1769 4707 1962 
Q 4634 2156 4481 2156 
z
" transform="scale(0.015625)"/>
       <path id="OpenSans-Bold-29" d="M 1913 1753 
Q 1913 1238 1813 745 
Q 1713 253 1505 -192 
Q 1297 -638 972 -1013 
L 197 -1013 
Q 488 -619 684 -165 
Q 881 288 981 777 
Q 1081 1266 1081 1759 
Q 1081 2266 979 2759 
Q 878 3253 681 3711 
Q 484 4169 191 4569 
L 972 4569 
Q 1297 4181 1505 3726 
Q 1713 3272 1813 2773 
Q 1913 2275 1913 1753 
z
" transform="scale(0.015625)"/>
      </defs>
      <use xlink:href="#OpenSans-Bold-54"/>
      <use xlink:href="#OpenSans-Bold-61" x="57.910156"/>
      <use xlink:href="#OpenSans-Bold-73" x="118.310547"/>
      <use xlink:href="#OpenSans-Bold-61" x="168.017578"/>
      <use xlink:href="#OpenSans-Bold-20" x="228.417969"/>
      <use xlink:href="#OpenSans-Bold-64" x="254.394531"/>
      <use xlink:href="#OpenSans-Bold-65" x="317.675781"/>
      <use xlink:href="#OpenSans-Bold-20" x="376.757812"/>
      <use xlink:href="#OpenSans-Bold-69" x="402.734375"/>
      <use xlink:href="#OpenSans-Bold-6e" x="433.251953"/>
      <use xlink:href="#OpenSans-Bold-6e" x="498.974609"/>
      <use xlink:href="#OpenSans-Bold-6f" x="564.697266"/>
      <use xlink:href="#OpenSans-Bold-76" x="626.611328"/>
      <use xlink:href="#OpenSans-Bold-61" x="683.496094"/>
      <use xlink:href="#OpenSans-Bold-63" x="743.896484"/>
      <use xlink:href="#OpenSans-Bold-69" x="795.3125"/>
      <use xlink:href="#OpenSans-Bold-f3" x="825.830078"/>
      <use xlink:href="#OpenSans-Bold-6e" x="887.744141"/>
      <use xlink:href="#OpenSans-Bold-20" x="953.466797"/>
      <use xlink:href="#OpenSans-Bold-65" x="979.443359"/>
      <use xlink:href="#OpenSans-Bold-6d" x="1038.525391"/>
      <use xlink:href="#OpenSans-Bold-70" x="1136.71875"/>
      <use xlink:href="#OpenSans-Bold-72" x="1200"/>
      <use xlink:href="#OpenSans-Bold-65" x="1245.410156"/>
      <use xlink:href="#OpenSans-Bold-73" x="1304.492188"/>
      <use xlink:href="#OpenSans-Bold-61" x="1354.199219"/>
      <use xlink:href="#OpenSans-Bold-72" x="1414.599609"/>
      <use xlink:href="#OpenSans-Bold-69" x="1460.009766"/>
      <use xlink:href="#OpenSans-Bold-61" x="1490.527344"/>
      <use xlink:href="#OpenSans-Bold-6c" x="1550.927734"/>
      <use xlink:href="#OpenSans-Bold-20" x="1581.445312"/>
      <use xlink:href="#OpenSans-Bold-28" x="1607.421875"/>
      <use xlink:href="#OpenSans-Bold-25" x="1641.308594"/>
      <use xlink:href="#OpenSans-Bold-29" x="1731.396484"/>
     </g>
    </g>
   </g>
   <g id="line2d_30">
    <path d="M 92.538533 120.466772 
L 151.35512 79.664506 
L 210.171707 144.273932 
L 268.988293 158.523295 
L 327.80488 167.551119 
L 386.621467 143.118089 
" clip-path="url(#p740ff85d45)" style="fill: none; stroke: #f45b69; stroke-width: 1.5; stroke-linecap: square"/>
    <defs>
     <path id="m094a90fdc0" d="M 0 3 
C 0.795609 3 1.55874 2.683901 2.12132 2.12132 
C 2.683901 1.55874 3 0.795609 3 0 
C 3 -0.795609 2.683901 -1.55874 2.12132 -2.12132 
C 1.55874 -2.683901 0.795609 -3 0 -3 
C -0.795609 -3 -1.55874 -2.683901 -2.12132 -2.12132 
C -2.683901 -1.55874 -3 -0.795609 -3 0 
C -3 0.795609 -2.683901 1.55874 -2.12132 2.12132 
C -1.55874 2.683901 -0.795609 3 0 3 
z
" style="stroke: #f45b69"/>
    </defs>
    <g clip-path="url(#p740ff85d45)">
     <use xlink:href="#m094a90fdc0" x="92.538533" y="120.466772" style="fill: #f45b69; stroke: #f45b69"/>
     <use xlink:href="#m094a90fdc0" x="151.35512" y="79.664506" style="fill: #f45b69; stroke: #f45b69"/>
     <use xlink:href="#m094a90fdc0" x="210.171707" y="144.273932" style="fill: #f45b69; stroke: #f45b69"/>
     <use xlink:href="#m094a90fdc0" x="268.988293" y="158.523295" style="fill: #f45b69; stroke: #f45b69"/>
     <use xlink:href="#m094a90fdc0" x="327.80488" y="167.551119" style="fill: #f45b69; stroke: #f45b69"/>
     <use xlink:href="#m094a90fdc0" x="386.621467" y="143.118089" style="fill: #f45b69; stroke: #f45b69"/>
    </g>
   </g>
   <g id="patch_20">
    <path d="M 55.19 296.358286 
L 55.19 21.84 
" style="fill: none; stroke: #000000; stroke-width: 0.8; stroke-linejoin: miter; stroke-linecap: square"/>
   </g>
   <g id="patch_21">
    <path d="M 423.97 296.358286 
L 423.97 21.84 
" style="fill: none; stroke: #f45b69; stroke-width: 0.8; stroke-linejoin: miter; stroke-linecap: square"/>
   </g>
   <g id="patch_22">
    <path d="M 55.19 296.358286 
L 423.97 296.358286 
" style="fill: none; stroke: #000000; stroke-width: 0.8; stroke-linejoin: miter; stroke-linecap: square"/>
   </g>
   <g id="text_27">
    <!-- 19.22% -->
    <g style="fill: #f45b69" transform="translate(92.538533 131.447503) scale(0.08 -0.08)">
     <defs>
      <path id="OpenSans-Bold-2e" d="M 366 447 
Q 366 741 527 859 
Q 688 978 916 978 
Q 1138 978 1298 859 
Q 1459 741 1459 447 
Q 1459 166 1298 41 
Q 1138 -84 916 -84 
Q 688 -84 527 41 
Q 366 166 366 447 
z
" transform="scale(0.015625)"/>
     </defs>
     <use xlink:href="#OpenSans-Bold-31"/>
     <use xlink:href="#OpenSans-Bold-39" x="57.177734"/>
     <use xlink:href="#OpenSans-Bold-2e" x="114.355469"/>
     <use xlink:href="#OpenSans-Bold-32" x="142.871094"/>
     <use xlink:href="#OpenSans-Bold-32" x="200.048828"/>
     <use xlink:href="#OpenSans-Bold-25" x="257.226562"/>
    </g>
   </g>
   <g id="text_28">
    <!-- 23.68% -->
    <g style="fill: #f45b69" transform="translate(151.35512 75.089201) scale(0.08 -0.08)">
     <use xlink:href="#OpenSans-Bold-32"/>
     <use xlink:href="#OpenSans-Bold-33" x="57.177734"/>
     <use xlink:href="#OpenSans-Bold-2e" x="114.355469"/>
     <use xlink:href="#OpenSans-Bold-36" x="142.871094"/>
     <use xlink:href="#OpenSans-Bold-38" x="200.048828"/>
     <use xlink:href="#OpenSans-Bold-25" x="257.226562"/>
    </g>
   </g>
   <g id="text_29">
    <!-- 16.62% -->
    <g style="fill: #f45b69" transform="translate(210.171707 139.698628) scale(0.08 -0.08)">
     <use xlink:href="#OpenSans-Bold-31"/>
     <use xlink:href="#OpenSans-Bold-36" x="57.177734"/>
     <use xlink:href="#OpenSans-Bold-2e" x="114.355469"/>
     <use xlink:href="#OpenSans-Bold-36" x="142.871094"/>
     <use xlink:href="#OpenSans-Bold-32" x="200.048828"/>
     <use xlink:href="#OpenSans-Bold-25" x="257.226562"/>
    </g>
   </g>
   <g id="text_30">
    <!-- 15.06% -->
    <g style="fill: #f45b69" transform="translate(268.988293 153.94799) scale(0.08 -0.08)">
     <use xlink:href="#OpenSans-Bold-31"/>
     <use xlink:href="#OpenSans-Bold-35" x="57.177734"/>
     <use xlink:href="#OpenSans-Bold-2e" x="114.355469"/>
     <use xlink:href="#OpenSans-Bold-30" x="142.871094"/>
     <use xlink:href="#OpenSans-Bold-36" x="200.048828"/>
     <use xlink:href="#OpenSans-Bold-25" x="257.226562"/>
    </g>
   </g>
   <g id="text_31">
    <!-- 14.08% -->
    <g style="fill: #f45b69" transform="translate(327.80488 178.53185) scale(0.08 -0.08)">
     <use xlink:href="#OpenSans-Bold-31"/>
     <use xlink:href="#OpenSans-Bold-34" x="57.177734"/>
     <use xlink:href="#OpenSans-Bold-2e" x="114.355469"/>
     <use xlink:href="#OpenSans-Bold-30" x="142.871094"/>
     <use xlink:href="#OpenSans-Bold-38" x="200.048828"/>
     <use xlink:href="#OpenSans-Bold-25" x="257.226562"/>
    </g>
   </g>
   <g id="text_32">
    <!-- 16.75% -->
    <g style="fill: #f45b69" transform="translate(386.621467 138.542784) scale(0.08 -0.08)">
     <use xlink:href="#OpenSans-Bold-31"/>
     <use xlink:href="#OpenSans-Bold-36" x="57.177734"/>
     <use xlink:href="#OpenSans-Bold-2e" x="114.355469"/>
     <use xlink:href="#OpenSans-Bold-37" x="142.871094"/>
     <use xlink:href="#OpenSans-Bold-35" x="200.048828"/>
     <use xlink:href="#OpenSans-Bold-25" x="257.226562"/>
    </g>
   </g>
  </g>
 </g>
 <defs>
  <clipPath id="p740ff85d45">
   <rect x="55.19" y="21.84" width="368.78" height="274.518286"/>
  </clipPath>
 </defs>
</svg>
