<?xml version="1.0" encoding="utf-8" standalone="no"?>
<!DOCTYPE svg PUBLIC "-//W3C//DTD SVG 1.1//EN"
  "http://www.w3.org/Graphics/SVG/1.1/DTD/svg11.dtd">
<svg xmlns:xlink="http://www.w3.org/1999/xlink" width="576pt" height="288pt" viewBox="0 0 576 288" xmlns="http://www.w3.org/2000/svg" version="1.1">
 <metadata>
  <rdf:RDF xmlns:dc="http://purl.org/dc/elements/1.1/" xmlns:cc="http://creativecommons.org/ns#" xmlns:rdf="http://www.w3.org/1999/02/22-rdf-syntax-ns#">
   <cc:Work>
    <dc:type rdf:resource="http://purl.org/dc/dcmitype/StillImage"/>
    <dc:date>2024-02-22T18:18:44.314480</dc:date>
    <dc:format>image/svg+xml</dc:format>
    <dc:creator>
     <cc:Agent>
      <dc:title>Matplotlib v3.7.1, https://matplotlib.org/</dc:title>
     </cc:Agent>
    </dc:creator>
   </cc:Work>
  </rdf:RDF>
 </metadata>
 <defs>
  <style type="text/css">*{stroke-linejoin: round; stroke-linecap: butt}</style>
 </defs>
 <g id="figure_1">
  <g id="patch_1">
   <path d="M 0 288 
L 576 288 
L 576 0 
L 0 0 
z
" style="fill: #ffffff"/>
  </g>
  <g id="axes_1">
   <g id="patch_2">
    <path d="M 31.66 210.391494 
L 275.905159 210.391494 
L 275.905159 35.28 
L 31.66 35.28 
z
" style="fill: #ffffff"/>
   </g>
   <g id="matplotlib.axis_1">
    <g id="xtick_1">
     <g id="line2d_1">
      <defs>
       <path id="m5ac0e07f09" d="M 0 0 
L 0 3.5 
" style="stroke: #37539c; stroke-width: 0.8"/>
      </defs>
      <g>
       <use xlink:href="#m5ac0e07f09" x="52.013763" y="210.391494" style="fill: #37539c; stroke: #37539c; stroke-width: 0.8"/>
      </g>
     </g>
     <g id="text_1">
      <!-- Ciencias Agrícolas -->
      <g style="fill: #37539c" transform="translate(28.258511 272.209947) rotate(-45) scale(0.08 -0.08)">
       <defs>
        <path id="OpenSans-Bold-43" d="M 2516 3828 
Q 2238 3828 2023 3720 
Q 1809 3613 1664 3409 
Q 1519 3206 1444 2918 
Q 1369 2631 1369 2272 
Q 1369 1788 1489 1445 
Q 1609 1103 1862 923 
Q 2116 744 2516 744 
Q 2794 744 3073 806 
Q 3353 869 3681 984 
L 3681 172 
Q 3378 47 3084 -8 
Q 2791 -63 2425 -63 
Q 1719 -63 1264 229 
Q 809 522 590 1048 
Q 372 1575 372 2278 
Q 372 2797 512 3228 
Q 653 3659 925 3975 
Q 1197 4291 1597 4462 
Q 1997 4634 2516 4634 
Q 2856 4634 3198 4548 
Q 3541 4463 3853 4313 
L 3541 3525 
Q 3284 3647 3025 3737 
Q 2766 3828 2516 3828 
z
" transform="scale(0.015625)"/>
        <path id="OpenSans-Bold-69" d="M 1453 3494 
L 1453 0 
L 500 0 
L 500 3494 
L 1453 3494 
z
M 978 4863 
Q 1191 4863 1344 4764 
Q 1497 4666 1497 4397 
Q 1497 4131 1344 4029 
Q 1191 3928 978 3928 
Q 763 3928 611 4029 
Q 459 4131 459 4397 
Q 459 4666 611 4764 
Q 763 4863 978 4863 
z
" transform="scale(0.015625)"/>
        <path id="OpenSans-Bold-65" d="M 1941 3559 
Q 2425 3559 2775 3373 
Q 3125 3188 3315 2834 
Q 3506 2481 3506 1972 
L 3506 1509 
L 1253 1509 
Q 1269 1106 1495 876 
Q 1722 647 2125 647 
Q 2459 647 2737 715 
Q 3016 784 3309 922 
L 3309 184 
Q 3050 56 2767 -3 
Q 2484 -63 2081 -63 
Q 1556 -63 1151 131 
Q 747 325 517 722 
Q 288 1119 288 1722 
Q 288 2334 495 2742 
Q 703 3150 1075 3354 
Q 1447 3559 1941 3559 
z
M 1947 2881 
Q 1669 2881 1486 2703 
Q 1303 2525 1275 2144 
L 2613 2144 
Q 2609 2356 2536 2522 
Q 2463 2688 2317 2784 
Q 2172 2881 1947 2881 
z
" transform="scale(0.015625)"/>
        <path id="OpenSans-Bold-6e" d="M 2484 3559 
Q 3044 3559 3384 3254 
Q 3725 2950 3725 2278 
L 3725 0 
L 2772 0 
L 2772 2041 
Q 2772 2416 2636 2606 
Q 2500 2797 2209 2797 
Q 1772 2797 1612 2500 
Q 1453 2203 1453 1644 
L 1453 0 
L 500 0 
L 500 3494 
L 1228 3494 
L 1356 3047 
L 1409 3047 
Q 1522 3228 1689 3340 
Q 1856 3453 2061 3506 
Q 2266 3559 2484 3559 
z
" transform="scale(0.015625)"/>
        <path id="OpenSans-Bold-63" d="M 1919 -63 
Q 1400 -63 1034 126 
Q 669 316 478 712 
Q 288 1109 288 1728 
Q 288 2369 505 2773 
Q 722 3178 1108 3368 
Q 1494 3559 2003 3559 
Q 2366 3559 2630 3489 
Q 2894 3419 3091 3322 
L 2809 2584 
Q 2584 2675 2390 2733 
Q 2197 2791 2003 2791 
Q 1753 2791 1587 2673 
Q 1422 2556 1340 2322 
Q 1259 2088 1259 1734 
Q 1259 1388 1346 1159 
Q 1434 931 1600 820 
Q 1766 709 2003 709 
Q 2300 709 2531 789 
Q 2763 869 2981 1013 
L 2981 197 
Q 2763 59 2523 -2 
Q 2284 -63 1919 -63 
z
" transform="scale(0.015625)"/>
        <path id="OpenSans-Bold-61" d="M 1931 3566 
Q 2634 3566 3009 3259 
Q 3384 2953 3384 2328 
L 3384 0 
L 2719 0 
L 2534 475 
L 2509 475 
Q 2359 288 2203 169 
Q 2047 50 1844 -6 
Q 1641 -63 1350 -63 
Q 1041 -63 795 56 
Q 550 175 409 420 
Q 269 666 269 1044 
Q 269 1600 659 1864 
Q 1050 2128 1831 2156 
L 2438 2175 
L 2438 2328 
Q 2438 2603 2294 2731 
Q 2150 2859 1894 2859 
Q 1641 2859 1397 2787 
Q 1153 2716 909 2606 
L 594 3250 
Q 872 3397 1217 3481 
Q 1563 3566 1931 3566 
z
M 2438 1619 
L 2069 1606 
Q 1606 1594 1426 1441 
Q 1247 1288 1247 1038 
Q 1247 819 1375 726 
Q 1503 634 1709 634 
Q 2016 634 2227 815 
Q 2438 997 2438 1331 
L 2438 1619 
z
" transform="scale(0.015625)"/>
        <path id="OpenSans-Bold-73" d="M 2938 1038 
Q 2938 681 2770 436 
Q 2603 191 2272 64 
Q 1941 -63 1447 -63 
Q 1081 -63 820 -16 
Q 559 31 294 141 
L 294 928 
Q 578 800 904 717 
Q 1231 634 1478 634 
Q 1756 634 1876 717 
Q 1997 800 1997 934 
Q 1997 1022 1948 1092 
Q 1900 1163 1740 1252 
Q 1581 1341 1241 1484 
Q 913 1622 702 1762 
Q 491 1903 389 2095 
Q 288 2288 288 2584 
Q 288 3069 664 3314 
Q 1041 3559 1672 3559 
Q 1997 3559 2292 3493 
Q 2588 3428 2900 3284 
L 2613 2597 
Q 2353 2709 2123 2781 
Q 1894 2853 1656 2853 
Q 1447 2853 1340 2797 
Q 1234 2741 1234 2625 
Q 1234 2541 1289 2475 
Q 1344 2409 1501 2329 
Q 1659 2250 1966 2125 
Q 2263 2003 2481 1870 
Q 2700 1738 2819 1542 
Q 2938 1347 2938 1038 
z
" transform="scale(0.015625)"/>
        <path id="OpenSans-Bold-20" transform="scale(0.015625)"/>
        <path id="OpenSans-Bold-41" d="M 3372 0 
L 3041 1088 
L 1375 1088 
L 1044 0 
L 0 0 
L 1613 4588 
L 2797 4588 
L 4416 0 
L 3372 0 
z
M 2809 1900 
L 2478 2963 
Q 2447 3069 2395 3236 
Q 2344 3403 2292 3576 
Q 2241 3750 2209 3878 
Q 2178 3750 2123 3561 
Q 2069 3372 2019 3203 
Q 1969 3034 1947 2963 
L 1619 1900 
L 2809 1900 
z
" transform="scale(0.015625)"/>
        <path id="OpenSans-Bold-67" d="M 1522 -1538 
Q 791 -1538 405 -1283 
Q 19 -1028 19 -569 
Q 19 -253 216 -40 
Q 413 172 794 263 
Q 647 325 537 467 
Q 428 609 428 769 
Q 428 969 543 1101 
Q 659 1234 878 1363 
Q 603 1481 442 1743 
Q 281 2006 281 2363 
Q 281 2744 448 3011 
Q 616 3278 936 3418 
Q 1256 3559 1716 3559 
Q 1813 3559 1941 3546 
Q 2069 3534 2176 3518 
Q 2284 3503 2322 3494 
L 3541 3494 
L 3541 3009 
L 2994 2869 
Q 3069 2753 3106 2622 
Q 3144 2491 3144 2344 
Q 3144 1781 2751 1467 
Q 2359 1153 1663 1153 
Q 1497 1163 1350 1178 
Q 1278 1122 1240 1059 
Q 1203 997 1203 928 
Q 1203 859 1261 814 
Q 1319 769 1436 745 
Q 1553 722 1728 722 
L 2322 722 
Q 2897 722 3198 475 
Q 3500 228 3500 -250 
Q 3500 -863 2989 -1200 
Q 2478 -1538 1522 -1538 
z
M 1563 -916 
Q 1903 -916 2148 -852 
Q 2394 -788 2525 -670 
Q 2656 -553 2656 -391 
Q 2656 -259 2579 -182 
Q 2503 -106 2348 -75 
Q 2194 -44 1953 -44 
L 1459 -44 
Q 1284 -44 1145 -100 
Q 1006 -156 925 -257 
Q 844 -359 844 -494 
Q 844 -691 1033 -803 
Q 1222 -916 1563 -916 
z
M 1716 1734 
Q 1984 1734 2109 1900 
Q 2234 2066 2234 2350 
Q 2234 2666 2104 2823 
Q 1975 2981 1716 2981 
Q 1453 2981 1322 2823 
Q 1191 2666 1191 2350 
Q 1191 2066 1320 1900 
Q 1450 1734 1716 1734 
z
" transform="scale(0.015625)"/>
        <path id="OpenSans-Bold-72" d="M 2450 3559 
Q 2522 3559 2617 3551 
Q 2713 3544 2772 3531 
L 2700 2638 
Q 2653 2653 2567 2661 
Q 2481 2669 2419 2669 
Q 2234 2669 2061 2622 
Q 1888 2575 1750 2470 
Q 1613 2366 1533 2195 
Q 1453 2025 1453 1778 
L 1453 0 
L 500 0 
L 500 3494 
L 1222 3494 
L 1363 2906 
L 1409 2906 
Q 1513 3084 1667 3232 
Q 1822 3381 2020 3470 
Q 2219 3559 2450 3559 
z
" transform="scale(0.015625)"/>
        <path id="OpenSans-Bold-ed" d="M 1453 0 
L 500 0 
L 500 3494 
L 1453 3494 
L 1453 0 
z
M 2203 4903 
L 2203 4838 
Q 2113 4750 1966 4622 
Q 1819 4494 1650 4355 
Q 1482 4216 1319 4089 
Q 1157 3963 1035 3878 
L 400 3878 
L 400 3963 
Q 503 4081 639 4245 
Q 775 4409 909 4584 
Q 1044 4759 1135 4903 
L 2203 4903 
z
" transform="scale(0.015625)"/>
        <path id="OpenSans-Bold-6f" d="M 3675 1753 
Q 3675 1316 3558 978 
Q 3441 641 3217 408 
Q 2994 175 2680 56 
Q 2366 -63 1972 -63 
Q 1603 -63 1295 56 
Q 988 175 761 408 
Q 534 641 411 978 
Q 288 1316 288 1753 
Q 288 2334 494 2737 
Q 700 3141 1081 3350 
Q 1463 3559 1991 3559 
Q 2481 3559 2861 3350 
Q 3241 3141 3458 2737 
Q 3675 2334 3675 1753 
z
M 1259 1753 
Q 1259 1409 1334 1175 
Q 1409 941 1568 822 
Q 1728 703 1984 703 
Q 2238 703 2395 822 
Q 2553 941 2626 1175 
Q 2700 1409 2700 1753 
Q 2700 2100 2626 2329 
Q 2553 2559 2393 2675 
Q 2234 2791 1978 2791 
Q 1600 2791 1429 2531 
Q 1259 2272 1259 1753 
z
" transform="scale(0.015625)"/>
        <path id="OpenSans-Bold-6c" d="M 1453 0 
L 500 0 
L 500 4863 
L 1453 4863 
L 1453 0 
z
" transform="scale(0.015625)"/>
       </defs>
       <use xlink:href="#OpenSans-Bold-43"/>
       <use xlink:href="#OpenSans-Bold-69" x="63.720703"/>
       <use xlink:href="#OpenSans-Bold-65" x="94.238281"/>
       <use xlink:href="#OpenSans-Bold-6e" x="153.320312"/>
       <use xlink:href="#OpenSans-Bold-63" x="219.042969"/>
       <use xlink:href="#OpenSans-Bold-69" x="270.458984"/>
       <use xlink:href="#OpenSans-Bold-61" x="300.976562"/>
       <use xlink:href="#OpenSans-Bold-73" x="361.376953"/>
       <use xlink:href="#OpenSans-Bold-20" x="411.083984"/>
       <use xlink:href="#OpenSans-Bold-41" x="437.060547"/>
       <use xlink:href="#OpenSans-Bold-67" x="506.054688"/>
       <use xlink:href="#OpenSans-Bold-72" x="562.548828"/>
       <use xlink:href="#OpenSans-Bold-ed" x="607.958984"/>
       <use xlink:href="#OpenSans-Bold-63" x="638.476562"/>
       <use xlink:href="#OpenSans-Bold-6f" x="689.892578"/>
       <use xlink:href="#OpenSans-Bold-6c" x="751.806641"/>
       <use xlink:href="#OpenSans-Bold-61" x="782.324219"/>
       <use xlink:href="#OpenSans-Bold-73" x="842.724609"/>
      </g>
     </g>
    </g>
    <g id="xtick_2">
     <g id="line2d_2">
      <g>
       <use xlink:href="#m5ac0e07f09" x="92.72129" y="210.391494" style="fill: #37539c; stroke: #37539c; stroke-width: 0.8"/>
      </g>
     </g>
     <g id="text_2">
      <!-- Ciencias Médicas -->
      <g style="fill: #37539c" transform="translate(67.010622 269.532664) rotate(-45) scale(0.08 -0.08)">
       <defs>
        <path id="OpenSans-Bold-4d" d="M 2509 0 
L 1409 3584 
L 1381 3584 
Q 1388 3456 1402 3198 
Q 1416 2941 1428 2650 
Q 1441 2359 1441 2125 
L 1441 0 
L 575 0 
L 575 4569 
L 1894 4569 
L 2975 1075 
L 2994 1075 
L 4141 4569 
L 5459 4569 
L 5459 0 
L 4556 0 
L 4556 2163 
Q 4556 2378 4564 2659 
Q 4572 2941 4584 3195 
Q 4597 3450 4603 3578 
L 4575 3578 
L 3397 0 
L 2509 0 
z
" transform="scale(0.015625)"/>
        <path id="OpenSans-Bold-e9" d="M 1941 3559 
Q 2425 3559 2775 3373 
Q 3125 3188 3315 2834 
Q 3506 2481 3506 1972 
L 3506 1509 
L 1253 1509 
Q 1269 1106 1495 876 
Q 1722 647 2125 647 
Q 2459 647 2737 715 
Q 3016 784 3309 922 
L 3309 184 
Q 3050 56 2767 -3 
Q 2484 -63 2081 -63 
Q 1556 -63 1151 131 
Q 747 325 517 722 
Q 288 1119 288 1722 
Q 288 2334 495 2742 
Q 703 3150 1075 3354 
Q 1447 3559 1941 3559 
z
M 1947 2881 
Q 1669 2881 1486 2703 
Q 1303 2525 1275 2144 
L 2613 2144 
Q 2609 2356 2536 2522 
Q 2463 2688 2317 2784 
Q 2172 2881 1947 2881 
z
M 3123 4903 
L 3123 4838 
Q 3033 4750 2886 4622 
Q 2739 4494 2570 4355 
Q 2402 4216 2239 4089 
Q 2077 3963 1955 3878 
L 1320 3878 
L 1320 3963 
Q 1423 4081 1559 4245 
Q 1695 4409 1829 4584 
Q 1964 4759 2055 4903 
L 3123 4903 
z
" transform="scale(0.015625)"/>
        <path id="OpenSans-Bold-64" d="M 1606 -63 
Q 1022 -63 655 395 
Q 288 853 288 1741 
Q 288 2638 659 3098 
Q 1031 3559 1631 3559 
Q 1881 3559 2072 3490 
Q 2263 3422 2402 3306 
Q 2541 3191 2638 3047 
L 2669 3047 
Q 2650 3147 2623 3342 
Q 2597 3538 2597 3744 
L 2597 4863 
L 3553 4863 
L 3553 0 
L 2822 0 
L 2638 453 
L 2597 453 
Q 2506 309 2370 192 
Q 2234 75 2046 6 
Q 1859 -63 1606 -63 
z
M 1941 697 
Q 2331 697 2492 930 
Q 2653 1163 2663 1631 
L 2663 1734 
Q 2663 2244 2506 2514 
Q 2350 2784 1925 2784 
Q 1609 2784 1431 2512 
Q 1253 2241 1253 1728 
Q 1253 1216 1433 956 
Q 1613 697 1941 697 
z
" transform="scale(0.015625)"/>
       </defs>
       <use xlink:href="#OpenSans-Bold-43"/>
       <use xlink:href="#OpenSans-Bold-69" x="63.720703"/>
       <use xlink:href="#OpenSans-Bold-65" x="94.238281"/>
       <use xlink:href="#OpenSans-Bold-6e" x="153.320312"/>
       <use xlink:href="#OpenSans-Bold-63" x="219.042969"/>
       <use xlink:href="#OpenSans-Bold-69" x="270.458984"/>
       <use xlink:href="#OpenSans-Bold-61" x="300.976562"/>
       <use xlink:href="#OpenSans-Bold-73" x="361.376953"/>
       <use xlink:href="#OpenSans-Bold-20" x="411.083984"/>
       <use xlink:href="#OpenSans-Bold-4d" x="437.060547"/>
       <use xlink:href="#OpenSans-Bold-e9" x="531.347656"/>
       <use xlink:href="#OpenSans-Bold-64" x="590.429688"/>
       <use xlink:href="#OpenSans-Bold-69" x="653.710938"/>
       <use xlink:href="#OpenSans-Bold-63" x="684.228516"/>
       <use xlink:href="#OpenSans-Bold-61" x="735.644531"/>
       <use xlink:href="#OpenSans-Bold-73" x="796.044922"/>
      </g>
      <!-- y de Salud -->
      <g style="fill: #37539c" transform="translate(83.131419 266.446674) rotate(-45) scale(0.08 -0.08)">
       <defs>
        <path id="OpenSans-Bold-79" d="M 0 3494 
L 1044 3494 
L 1703 1528 
Q 1734 1434 1756 1337 
Q 1778 1241 1793 1137 
Q 1809 1034 1819 922 
L 1838 922 
Q 1856 1091 1889 1237 
Q 1922 1384 1972 1528 
L 2619 3494 
L 3641 3494 
L 2163 -447 
Q 2028 -809 1812 -1051 
Q 1597 -1294 1317 -1416 
Q 1038 -1538 703 -1538 
Q 541 -1538 422 -1520 
Q 303 -1503 219 -1484 
L 219 -728 
Q 284 -744 384 -756 
Q 484 -769 594 -769 
Q 794 -769 937 -684 
Q 1081 -600 1178 -458 
Q 1275 -316 1331 -147 
L 1388 25 
L 0 3494 
z
" transform="scale(0.015625)"/>
        <path id="OpenSans-Bold-53" d="M 3272 1269 
Q 3272 863 3075 563 
Q 2878 263 2501 100 
Q 2125 -63 1588 -63 
Q 1350 -63 1123 -31 
Q 897 0 689 61 
Q 481 122 294 213 
L 294 1113 
Q 619 969 969 853 
Q 1319 738 1663 738 
Q 1900 738 2045 800 
Q 2191 863 2256 972 
Q 2322 1081 2322 1222 
Q 2322 1394 2206 1516 
Q 2091 1638 1889 1744 
Q 1688 1850 1434 1972 
Q 1275 2047 1087 2155 
Q 900 2263 731 2419 
Q 563 2575 455 2798 
Q 347 3022 347 3334 
Q 347 3744 534 4034 
Q 722 4325 1070 4479 
Q 1419 4634 1894 4634 
Q 2250 4634 2573 4551 
Q 2897 4469 3250 4313 
L 2938 3559 
Q 2622 3688 2372 3758 
Q 2122 3828 1863 3828 
Q 1681 3828 1553 3770 
Q 1425 3713 1359 3608 
Q 1294 3503 1294 3366 
Q 1294 3203 1389 3092 
Q 1484 2981 1676 2878 
Q 1869 2775 2156 2638 
Q 2506 2472 2754 2292 
Q 3003 2113 3137 1870 
Q 3272 1628 3272 1269 
z
" transform="scale(0.015625)"/>
        <path id="OpenSans-Bold-75" d="M 3706 3494 
L 3706 0 
L 2975 0 
L 2847 447 
L 2797 447 
Q 2684 269 2515 156 
Q 2347 44 2144 -9 
Q 1941 -63 1722 -63 
Q 1347 -63 1069 70 
Q 791 203 636 484 
Q 481 766 481 1216 
L 481 3494 
L 1434 3494 
L 1434 1453 
Q 1434 1078 1568 887 
Q 1703 697 1997 697 
Q 2288 697 2453 830 
Q 2619 963 2686 1220 
Q 2753 1478 2753 1850 
L 2753 3494 
L 3706 3494 
z
" transform="scale(0.015625)"/>
       </defs>
       <use xlink:href="#OpenSans-Bold-79"/>
       <use xlink:href="#OpenSans-Bold-20" x="56.884766"/>
       <use xlink:href="#OpenSans-Bold-64" x="82.861328"/>
       <use xlink:href="#OpenSans-Bold-65" x="146.142578"/>
       <use xlink:href="#OpenSans-Bold-20" x="205.224609"/>
       <use xlink:href="#OpenSans-Bold-53" x="231.201172"/>
       <use xlink:href="#OpenSans-Bold-61" x="286.279297"/>
       <use xlink:href="#OpenSans-Bold-6c" x="346.679688"/>
       <use xlink:href="#OpenSans-Bold-75" x="377.197266"/>
       <use xlink:href="#OpenSans-Bold-64" x="442.919922"/>
      </g>
     </g>
    </g>
    <g id="xtick_3">
     <g id="line2d_3">
      <g>
       <use xlink:href="#m5ac0e07f09" x="133.428816" y="210.391494" style="fill: #37539c; stroke: #37539c; stroke-width: 0.8"/>
      </g>
     </g>
     <g id="text_3">
      <!-- Ciencias Naturales -->
      <g style="fill: #37539c" transform="translate(108.509048 274.46827) rotate(-45) scale(0.08 -0.08)">
       <defs>
        <path id="OpenSans-Bold-4e" d="M 4628 0 
L 3397 0 
L 1409 3456 
L 1381 3456 
Q 1394 3241 1403 3022 
Q 1413 2803 1422 2586 
Q 1431 2369 1441 2150 
L 1441 0 
L 575 0 
L 575 4569 
L 1797 4569 
L 3781 1147 
L 3803 1147 
Q 3797 1359 3787 1568 
Q 3778 1778 3770 1987 
Q 3763 2197 3756 2406 
L 3756 4569 
L 4628 4569 
L 4628 0 
z
" transform="scale(0.015625)"/>
        <path id="OpenSans-Bold-74" d="M 1972 697 
Q 2128 697 2276 728 
Q 2425 759 2572 806 
L 2572 97 
Q 2419 28 2192 -17 
Q 1966 -63 1697 -63 
Q 1384 -63 1136 39 
Q 888 141 745 392 
Q 603 644 603 1094 
L 603 2778 
L 147 2778 
L 147 3181 
L 672 3500 
L 947 4238 
L 1556 4238 
L 1556 3494 
L 2534 3494 
L 2534 2778 
L 1556 2778 
L 1556 1094 
Q 1556 894 1670 795 
Q 1784 697 1972 697 
z
" transform="scale(0.015625)"/>
       </defs>
       <use xlink:href="#OpenSans-Bold-43"/>
       <use xlink:href="#OpenSans-Bold-69" x="63.720703"/>
       <use xlink:href="#OpenSans-Bold-65" x="94.238281"/>
       <use xlink:href="#OpenSans-Bold-6e" x="153.320312"/>
       <use xlink:href="#OpenSans-Bold-63" x="219.042969"/>
       <use xlink:href="#OpenSans-Bold-69" x="270.458984"/>
       <use xlink:href="#OpenSans-Bold-61" x="300.976562"/>
       <use xlink:href="#OpenSans-Bold-73" x="361.376953"/>
       <use xlink:href="#OpenSans-Bold-20" x="411.083984"/>
       <use xlink:href="#OpenSans-Bold-4e" x="437.060547"/>
       <use xlink:href="#OpenSans-Bold-61" x="518.359375"/>
       <use xlink:href="#OpenSans-Bold-74" x="578.759766"/>
       <use xlink:href="#OpenSans-Bold-75" x="622.167969"/>
       <use xlink:href="#OpenSans-Bold-72" x="687.890625"/>
       <use xlink:href="#OpenSans-Bold-61" x="733.300781"/>
       <use xlink:href="#OpenSans-Bold-6c" x="793.701172"/>
       <use xlink:href="#OpenSans-Bold-65" x="824.21875"/>
       <use xlink:href="#OpenSans-Bold-73" x="883.300781"/>
      </g>
     </g>
    </g>
    <g id="xtick_4">
     <g id="line2d_4">
      <g>
       <use xlink:href="#m5ac0e07f09" x="174.136343" y="210.391494" style="fill: #37539c; stroke: #37539c; stroke-width: 0.8"/>
      </g>
     </g>
     <g id="text_4">
      <!-- Ciencias Sociales -->
      <g style="fill: #37539c" transform="translate(151.968545 268.964327) rotate(-45) scale(0.08 -0.08)">
       <use xlink:href="#OpenSans-Bold-43"/>
       <use xlink:href="#OpenSans-Bold-69" x="63.720703"/>
       <use xlink:href="#OpenSans-Bold-65" x="94.238281"/>
       <use xlink:href="#OpenSans-Bold-6e" x="153.320312"/>
       <use xlink:href="#OpenSans-Bold-63" x="219.042969"/>
       <use xlink:href="#OpenSans-Bold-69" x="270.458984"/>
       <use xlink:href="#OpenSans-Bold-61" x="300.976562"/>
       <use xlink:href="#OpenSans-Bold-73" x="361.376953"/>
       <use xlink:href="#OpenSans-Bold-20" x="411.083984"/>
       <use xlink:href="#OpenSans-Bold-53" x="437.060547"/>
       <use xlink:href="#OpenSans-Bold-6f" x="492.138672"/>
       <use xlink:href="#OpenSans-Bold-63" x="554.052734"/>
       <use xlink:href="#OpenSans-Bold-69" x="605.46875"/>
       <use xlink:href="#OpenSans-Bold-61" x="635.986328"/>
       <use xlink:href="#OpenSans-Bold-6c" x="696.386719"/>
       <use xlink:href="#OpenSans-Bold-65" x="726.904297"/>
       <use xlink:href="#OpenSans-Bold-73" x="785.986328"/>
      </g>
     </g>
    </g>
    <g id="xtick_5">
     <g id="line2d_5">
      <g>
       <use xlink:href="#m5ac0e07f09" x="214.84387" y="210.391494" style="fill: #37539c; stroke: #37539c; stroke-width: 0.8"/>
      </g>
     </g>
     <g id="text_5">
      <!-- Humanidades -->
      <g style="fill: #37539c" transform="translate(196.717629 260.881213) rotate(-45) scale(0.08 -0.08)">
       <defs>
        <path id="OpenSans-Bold-48" d="M 4319 0 
L 3353 0 
L 3353 1972 
L 1544 1972 
L 1544 0 
L 575 0 
L 575 4569 
L 1544 4569 
L 1544 2778 
L 3353 2778 
L 3353 4569 
L 4319 4569 
L 4319 0 
z
" transform="scale(0.015625)"/>
        <path id="OpenSans-Bold-6d" d="M 4603 3559 
Q 5197 3559 5501 3254 
Q 5806 2950 5806 2278 
L 5806 0 
L 4850 0 
L 4850 2041 
Q 4850 2416 4722 2606 
Q 4594 2797 4325 2797 
Q 3947 2797 3787 2526 
Q 3628 2256 3628 1753 
L 3628 0 
L 2675 0 
L 2675 2041 
Q 2675 2291 2619 2459 
Q 2563 2628 2447 2712 
Q 2331 2797 2150 2797 
Q 1884 2797 1732 2664 
Q 1581 2531 1517 2273 
Q 1453 2016 1453 1644 
L 1453 0 
L 500 0 
L 500 3494 
L 1228 3494 
L 1356 3047 
L 1409 3047 
Q 1516 3228 1677 3340 
Q 1838 3453 2031 3506 
Q 2225 3559 2425 3559 
Q 2809 3559 3076 3434 
Q 3344 3309 3488 3047 
L 3572 3047 
Q 3728 3316 4014 3437 
Q 4300 3559 4603 3559 
z
" transform="scale(0.015625)"/>
       </defs>
       <use xlink:href="#OpenSans-Bold-48"/>
       <use xlink:href="#OpenSans-Bold-75" x="76.513672"/>
       <use xlink:href="#OpenSans-Bold-6d" x="142.236328"/>
       <use xlink:href="#OpenSans-Bold-61" x="240.429688"/>
       <use xlink:href="#OpenSans-Bold-6e" x="300.830078"/>
       <use xlink:href="#OpenSans-Bold-69" x="366.552734"/>
       <use xlink:href="#OpenSans-Bold-64" x="397.070312"/>
       <use xlink:href="#OpenSans-Bold-61" x="460.351562"/>
       <use xlink:href="#OpenSans-Bold-64" x="520.751953"/>
       <use xlink:href="#OpenSans-Bold-65" x="584.033203"/>
       <use xlink:href="#OpenSans-Bold-73" x="643.115234"/>
      </g>
     </g>
    </g>
    <g id="xtick_6">
     <g id="line2d_6">
      <g>
       <use xlink:href="#m5ac0e07f09" x="255.551396" y="210.391494" style="fill: #37539c; stroke: #37539c; stroke-width: 0.8"/>
      </g>
     </g>
     <g id="text_6">
      <!-- Ingeniería -->
      <g style="fill: #37539c" transform="translate(239.445448 253.540119) rotate(-45) scale(0.08 -0.08)">
       <defs>
        <path id="OpenSans-Bold-49" d="M 575 0 
L 575 4569 
L 1544 4569 
L 1544 0 
L 575 0 
z
" transform="scale(0.015625)"/>
       </defs>
       <use xlink:href="#OpenSans-Bold-49"/>
       <use xlink:href="#OpenSans-Bold-6e" x="33.105469"/>
       <use xlink:href="#OpenSans-Bold-67" x="98.828125"/>
       <use xlink:href="#OpenSans-Bold-65" x="155.322266"/>
       <use xlink:href="#OpenSans-Bold-6e" x="214.404297"/>
       <use xlink:href="#OpenSans-Bold-69" x="280.126953"/>
       <use xlink:href="#OpenSans-Bold-65" x="310.644531"/>
       <use xlink:href="#OpenSans-Bold-72" x="369.726562"/>
       <use xlink:href="#OpenSans-Bold-ed" x="415.136719"/>
       <use xlink:href="#OpenSans-Bold-61" x="445.654297"/>
      </g>
      <!-- y Tecnología -->
      <g style="fill: #37539c" transform="translate(242.816668 263.288558) rotate(-45) scale(0.08 -0.08)">
       <defs>
        <path id="OpenSans-Bold-54" d="M 2338 0 
L 1369 0 
L 1369 3763 
L 128 3763 
L 128 4569 
L 3578 4569 
L 3578 3763 
L 2338 3763 
L 2338 0 
z
" transform="scale(0.015625)"/>
       </defs>
       <use xlink:href="#OpenSans-Bold-79"/>
       <use xlink:href="#OpenSans-Bold-20" x="56.884766"/>
       <use xlink:href="#OpenSans-Bold-54" x="82.861328"/>
       <use xlink:href="#OpenSans-Bold-65" x="140.771484"/>
       <use xlink:href="#OpenSans-Bold-63" x="199.853516"/>
       <use xlink:href="#OpenSans-Bold-6e" x="251.269531"/>
       <use xlink:href="#OpenSans-Bold-6f" x="316.992188"/>
       <use xlink:href="#OpenSans-Bold-6c" x="378.90625"/>
       <use xlink:href="#OpenSans-Bold-6f" x="409.423828"/>
       <use xlink:href="#OpenSans-Bold-67" x="471.337891"/>
       <use xlink:href="#OpenSans-Bold-ed" x="527.832031"/>
       <use xlink:href="#OpenSans-Bold-61" x="558.349609"/>
      </g>
     </g>
    </g>
   </g>
   <g id="matplotlib.axis_2">
    <g id="ytick_1">
     <g id="line2d_7">
      <path d="M 31.66 210.391494 
L 275.905159 210.391494 
" clip-path="url(#peeac5edbdf)" style="fill: none; stroke-dasharray: 2.96,1.28; stroke-dashoffset: 0; stroke: #b0b0b0; stroke-width: 0.8"/>
     </g>
     <g id="line2d_8">
      <defs>
       <path id="m7134b03259" d="M 0 0 
L -3.5 0 
" style="stroke: #37539c; stroke-width: 0.8"/>
      </defs>
      <g>
       <use xlink:href="#m7134b03259" x="31.66" y="210.391494" style="fill: #37539c; stroke: #37539c; stroke-width: 0.8"/>
      </g>
     </g>
     <g id="text_7">
      <!-- 0 -->
      <g style="fill: #37539c" transform="translate(20.08625 213.430869) scale(0.08 -0.08)">
       <defs>
        <path id="OpenSans-Bold-30" d="M 3425 2284 
Q 3425 1731 3339 1297 
Q 3253 863 3064 559 
Q 2875 256 2569 96 
Q 2263 -63 1825 -63 
Q 1275 -63 922 217 
Q 569 497 400 1023 
Q 231 1550 231 2284 
Q 231 3025 386 3551 
Q 541 4078 891 4359 
Q 1241 4641 1825 4641 
Q 2372 4641 2726 4361 
Q 3081 4081 3253 3554 
Q 3425 3028 3425 2284 
z
M 1191 2284 
Q 1191 1763 1248 1414 
Q 1306 1066 1443 891 
Q 1581 716 1825 716 
Q 2066 716 2205 889 
Q 2344 1063 2403 1411 
Q 2463 1759 2463 2284 
Q 2463 2806 2403 3156 
Q 2344 3506 2205 3682 
Q 2066 3859 1825 3859 
Q 1581 3859 1443 3682 
Q 1306 3506 1248 3156 
Q 1191 2806 1191 2284 
z
" transform="scale(0.015625)"/>
       </defs>
       <use xlink:href="#OpenSans-Bold-30"/>
      </g>
     </g>
    </g>
    <g id="ytick_2">
     <g id="line2d_9">
      <path d="M 31.66 188.502557 
L 275.905159 188.502557 
" clip-path="url(#peeac5edbdf)" style="fill: none; stroke-dasharray: 2.96,1.28; stroke-dashoffset: 0; stroke: #b0b0b0; stroke-width: 0.8"/>
     </g>
     <g id="line2d_10">
      <g>
       <use xlink:href="#m7134b03259" x="31.66" y="188.502557" style="fill: #37539c; stroke: #37539c; stroke-width: 0.8"/>
      </g>
     </g>
     <g id="text_8">
      <!-- 25 -->
      <g style="fill: #37539c" transform="translate(15.5125 191.541932) scale(0.08 -0.08)">
       <defs>
        <path id="OpenSans-Bold-32" d="M 3450 0 
L 256 0 
L 256 672 
L 1403 1831 
Q 1750 2188 1961 2427 
Q 2172 2666 2267 2862 
Q 2363 3059 2363 3284 
Q 2363 3556 2211 3692 
Q 2059 3828 1806 3828 
Q 1541 3828 1291 3706 
Q 1041 3584 769 3359 
L 244 3981 
Q 441 4150 661 4300 
Q 881 4450 1173 4542 
Q 1466 4634 1875 4634 
Q 2325 4634 2648 4471 
Q 2972 4309 3147 4029 
Q 3322 3750 3322 3397 
Q 3322 3019 3172 2706 
Q 3022 2394 2736 2087 
Q 2450 1781 2047 1409 
L 1459 856 
L 1459 813 
L 3450 813 
L 3450 0 
z
" transform="scale(0.015625)"/>
        <path id="OpenSans-Bold-35" d="M 1919 2919 
Q 2338 2919 2664 2759 
Q 2991 2600 3178 2290 
Q 3366 1981 3366 1528 
Q 3366 1034 3161 676 
Q 2956 319 2551 128 
Q 2147 -63 1544 -63 
Q 1184 -63 867 -2 
Q 550 59 313 184 
L 313 1019 
Q 550 894 883 808 
Q 1216 722 1509 722 
Q 1797 722 1994 798 
Q 2191 875 2292 1036 
Q 2394 1197 2394 1447 
Q 2394 1781 2169 1959 
Q 1944 2138 1478 2138 
Q 1300 2138 1108 2103 
Q 916 2069 788 2034 
L 403 2241 
L 575 4569 
L 3053 4569 
L 3053 3750 
L 1422 3750 
L 1338 2853 
Q 1444 2875 1569 2897 
Q 1694 2919 1919 2919 
z
" transform="scale(0.015625)"/>
       </defs>
       <use xlink:href="#OpenSans-Bold-32"/>
       <use xlink:href="#OpenSans-Bold-35" x="57.177734"/>
      </g>
     </g>
    </g>
    <g id="ytick_3">
     <g id="line2d_11">
      <path d="M 31.66 166.613621 
L 275.905159 166.613621 
" clip-path="url(#peeac5edbdf)" style="fill: none; stroke-dasharray: 2.96,1.28; stroke-dashoffset: 0; stroke: #b0b0b0; stroke-width: 0.8"/>
     </g>
     <g id="line2d_12">
      <g>
       <use xlink:href="#m7134b03259" x="31.66" y="166.613621" style="fill: #37539c; stroke: #37539c; stroke-width: 0.8"/>
      </g>
     </g>
     <g id="text_9">
      <!-- 50 -->
      <g style="fill: #37539c" transform="translate(15.5125 169.652996) scale(0.08 -0.08)">
       <use xlink:href="#OpenSans-Bold-35"/>
       <use xlink:href="#OpenSans-Bold-30" x="57.177734"/>
      </g>
     </g>
    </g>
    <g id="ytick_4">
     <g id="line2d_13">
      <path d="M 31.66 144.724684 
L 275.905159 144.724684 
" clip-path="url(#peeac5edbdf)" style="fill: none; stroke-dasharray: 2.96,1.28; stroke-dashoffset: 0; stroke: #b0b0b0; stroke-width: 0.8"/>
     </g>
     <g id="line2d_14">
      <g>
       <use xlink:href="#m7134b03259" x="31.66" y="144.724684" style="fill: #37539c; stroke: #37539c; stroke-width: 0.8"/>
      </g>
     </g>
     <g id="text_10">
      <!-- 75 -->
      <g style="fill: #37539c" transform="translate(15.5125 147.764059) scale(0.08 -0.08)">
       <defs>
        <path id="OpenSans-Bold-37" d="M 709 0 
L 2425 3756 
L 172 3756 
L 172 4569 
L 3450 4569 
L 3450 3963 
L 1722 0 
L 709 0 
z
" transform="scale(0.015625)"/>
       </defs>
       <use xlink:href="#OpenSans-Bold-37"/>
       <use xlink:href="#OpenSans-Bold-35" x="57.177734"/>
      </g>
     </g>
    </g>
    <g id="ytick_5">
     <g id="line2d_15">
      <path d="M 31.66 122.835747 
L 275.905159 122.835747 
" clip-path="url(#peeac5edbdf)" style="fill: none; stroke-dasharray: 2.96,1.28; stroke-dashoffset: 0; stroke: #b0b0b0; stroke-width: 0.8"/>
     </g>
     <g id="line2d_16">
      <g>
       <use xlink:href="#m7134b03259" x="31.66" y="122.835747" style="fill: #37539c; stroke: #37539c; stroke-width: 0.8"/>
      </g>
     </g>
     <g id="text_11">
      <!-- 100 -->
      <g style="fill: #37539c" transform="translate(10.93875 125.875122) scale(0.08 -0.08)">
       <defs>
        <path id="OpenSans-Bold-31" d="M 2644 0 
L 1678 0 
L 1678 2644 
Q 1678 2753 1681 2914 
Q 1684 3075 1690 3245 
Q 1697 3416 1703 3553 
Q 1669 3513 1564 3414 
Q 1459 3316 1369 3238 
L 844 2816 
L 378 3397 
L 1850 4569 
L 2644 4569 
L 2644 0 
z
" transform="scale(0.015625)"/>
       </defs>
       <use xlink:href="#OpenSans-Bold-31"/>
       <use xlink:href="#OpenSans-Bold-30" x="57.177734"/>
       <use xlink:href="#OpenSans-Bold-30" x="114.355469"/>
      </g>
     </g>
    </g>
    <g id="ytick_6">
     <g id="line2d_17">
      <path d="M 31.66 100.94681 
L 275.905159 100.94681 
" clip-path="url(#peeac5edbdf)" style="fill: none; stroke-dasharray: 2.96,1.28; stroke-dashoffset: 0; stroke: #b0b0b0; stroke-width: 0.8"/>
     </g>
     <g id="line2d_18">
      <g>
       <use xlink:href="#m7134b03259" x="31.66" y="100.94681" style="fill: #37539c; stroke: #37539c; stroke-width: 0.8"/>
      </g>
     </g>
     <g id="text_12">
      <!-- 125 -->
      <g style="fill: #37539c" transform="translate(10.93875 103.986185) scale(0.08 -0.08)">
       <use xlink:href="#OpenSans-Bold-31"/>
       <use xlink:href="#OpenSans-Bold-32" x="57.177734"/>
       <use xlink:href="#OpenSans-Bold-35" x="114.355469"/>
      </g>
     </g>
    </g>
    <g id="ytick_7">
     <g id="line2d_19">
      <path d="M 31.66 79.057874 
L 275.905159 79.057874 
" clip-path="url(#peeac5edbdf)" style="fill: none; stroke-dasharray: 2.96,1.28; stroke-dashoffset: 0; stroke: #b0b0b0; stroke-width: 0.8"/>
     </g>
     <g id="line2d_20">
      <g>
       <use xlink:href="#m7134b03259" x="31.66" y="79.057874" style="fill: #37539c; stroke: #37539c; stroke-width: 0.8"/>
      </g>
     </g>
     <g id="text_13">
      <!-- 150 -->
      <g style="fill: #37539c" transform="translate(10.93875 82.097249) scale(0.08 -0.08)">
       <use xlink:href="#OpenSans-Bold-31"/>
       <use xlink:href="#OpenSans-Bold-35" x="57.177734"/>
       <use xlink:href="#OpenSans-Bold-30" x="114.355469"/>
      </g>
     </g>
    </g>
    <g id="ytick_8">
     <g id="line2d_21">
      <path d="M 31.66 57.168937 
L 275.905159 57.168937 
" clip-path="url(#peeac5edbdf)" style="fill: none; stroke-dasharray: 2.96,1.28; stroke-dashoffset: 0; stroke: #b0b0b0; stroke-width: 0.8"/>
     </g>
     <g id="line2d_22">
      <g>
       <use xlink:href="#m7134b03259" x="31.66" y="57.168937" style="fill: #37539c; stroke: #37539c; stroke-width: 0.8"/>
      </g>
     </g>
     <g id="text_14">
      <!-- 175 -->
      <g style="fill: #37539c" transform="translate(10.93875 60.208312) scale(0.08 -0.08)">
       <use xlink:href="#OpenSans-Bold-31"/>
       <use xlink:href="#OpenSans-Bold-37" x="57.177734"/>
       <use xlink:href="#OpenSans-Bold-35" x="114.355469"/>
      </g>
     </g>
    </g>
    <g id="ytick_9">
     <g id="line2d_23">
      <path d="M 31.66 35.28 
L 275.905159 35.28 
" clip-path="url(#peeac5edbdf)" style="fill: none; stroke-dasharray: 2.96,1.28; stroke-dashoffset: 0; stroke: #b0b0b0; stroke-width: 0.8"/>
     </g>
     <g id="line2d_24">
      <g>
       <use xlink:href="#m7134b03259" x="31.66" y="35.28" style="fill: #37539c; stroke: #37539c; stroke-width: 0.8"/>
      </g>
     </g>
     <g id="text_15">
      <!-- 200 -->
      <g style="fill: #37539c" transform="translate(10.93875 38.319375) scale(0.08 -0.08)">
       <use xlink:href="#OpenSans-Bold-32"/>
       <use xlink:href="#OpenSans-Bold-30" x="57.177734"/>
       <use xlink:href="#OpenSans-Bold-30" x="114.355469"/>
      </g>
     </g>
    </g>
   </g>
   <g id="patch_3">
    <path d="M 264.87342 210.377485 
L 261.494695 210.377485 
Q 265.565448 210.377485 265.565448 210.027262 
L 265.565448 182.737887 
Q 265.565448 182.387664 261.494695 182.387664 
L 264.87342 182.387664 
Q 260.802667 182.387664 260.802667 182.737887 
L 260.802667 210.027262 
Q 260.802667 210.377485 264.87342 210.377485 
z
" clip-path="url(#peeac5edbdf)" style="fill: #354f95"/>
   </g>
   <g id="patch_4">
    <path d="M 224.165893 210.377485 
L 220.787168 210.377485 
Q 224.857921 210.377485 224.857921 210.027262 
L 224.857921 164.35118 
Q 224.857921 164.000957 220.787168 164.000957 
L 224.165893 164.000957 
Q 220.095141 164.000957 220.095141 164.35118 
L 220.095141 210.027262 
Q 220.095141 210.377485 224.165893 210.377485 
z
" clip-path="url(#peeac5edbdf)" style="fill: #354f95"/>
   </g>
   <g id="patch_5">
    <path d="M 183.458367 210.377485 
L 180.079642 210.377485 
Q 184.150395 210.377485 184.150395 210.027262 
L 184.150395 140.711128 
Q 184.150395 140.360905 180.079642 140.360905 
L 183.458367 140.360905 
Q 179.387614 140.360905 179.387614 140.711128 
L 179.387614 210.027262 
Q 179.387614 210.377485 183.458367 210.377485 
z
" clip-path="url(#peeac5edbdf)" style="fill: #354f95"/>
   </g>
   <g id="patch_6">
    <path d="M 142.75084 210.377485 
L 139.372115 210.377485 
Q 143.442868 210.377485 143.442868 210.027262 
L 143.442868 159.097835 
Q 143.442868 158.747612 139.372115 158.747612 
L 142.75084 158.747612 
Q 138.680087 158.747612 138.680087 159.097835 
L 138.680087 210.027262 
Q 138.680087 210.377485 142.75084 210.377485 
z
" clip-path="url(#peeac5edbdf)" style="fill: #354f95"/>
   </g>
   <g id="patch_7">
    <path d="M 102.043313 210.377485 
L 98.664589 210.377485 
Q 102.735341 210.377485 102.735341 210.027262 
L 102.735341 191.493462 
Q 102.735341 191.143239 98.664589 191.143239 
L 102.043313 191.143239 
Q 97.972561 191.143239 97.972561 191.493462 
L 97.972561 210.027262 
Q 97.972561 210.377485 102.043313 210.377485 
z
" clip-path="url(#peeac5edbdf)" style="fill: #354f95"/>
   </g>
   <g id="patch_8">
    <path d="M 61.335787 210.377485 
L 57.957062 210.377485 
Q 62.027815 210.377485 62.027815 210.027262 
L 62.027815 206.377939 
Q 62.027815 206.027716 57.957062 206.027716 
L 61.335787 206.027716 
Q 57.265034 206.027716 57.265034 206.377939 
L 57.265034 210.027262 
Q 57.265034 210.377485 61.335787 210.377485 
z
" clip-path="url(#peeac5edbdf)" style="fill: #354f95"/>
   </g>
   <g id="patch_9">
    <path d="M 259.784979 210.377485 
L 256.406254 210.377485 
Q 260.477007 210.377485 260.477007 210.027262 
L 260.477007 187.115674 
Q 260.477007 186.765451 256.406254 186.765451 
L 259.784979 186.765451 
Q 255.714226 186.765451 255.714226 187.115674 
L 255.714226 210.027262 
Q 255.714226 210.377485 259.784979 210.377485 
z
" clip-path="url(#peeac5edbdf)" style="fill: #4062bb"/>
   </g>
   <g id="patch_10">
    <path d="M 219.077452 210.377485 
L 215.698728 210.377485 
Q 219.76948 210.377485 219.76948 210.027262 
L 219.76948 171.35564 
Q 219.76948 171.005417 215.698728 171.005417 
L 219.077452 171.005417 
Q 215.0067 171.005417 215.0067 171.35564 
L 215.0067 210.027262 
Q 215.0067 210.377485 219.077452 210.377485 
z
" clip-path="url(#peeac5edbdf)" style="fill: #4062bb"/>
   </g>
   <g id="patch_11">
    <path d="M 178.369926 210.377485 
L 174.991201 210.377485 
Q 179.061954 210.377485 179.061954 210.027262 
L 179.061954 131.955554 
Q 179.061954 131.605331 174.991201 131.605331 
L 178.369926 131.605331 
Q 174.299173 131.605331 174.299173 131.955554 
L 174.299173 210.027262 
Q 174.299173 210.377485 178.369926 210.377485 
z
" clip-path="url(#peeac5edbdf)" style="fill: #4062bb"/>
   </g>
   <g id="patch_12">
    <path d="M 137.662399 210.377485 
L 134.283674 210.377485 
Q 138.354427 210.377485 138.354427 210.027262 
L 138.354427 159.973393 
Q 138.354427 159.62317 134.283674 159.62317 
L 137.662399 159.62317 
Q 133.591647 159.62317 133.591647 159.973393 
L 133.591647 210.027262 
Q 133.591647 210.377485 137.662399 210.377485 
z
" clip-path="url(#peeac5edbdf)" style="fill: #4062bb"/>
   </g>
   <g id="patch_13">
    <path d="M 96.954873 210.377485 
L 93.576148 210.377485 
Q 97.646901 210.377485 97.646901 210.027262 
L 97.646901 191.493462 
Q 97.646901 191.143239 93.576148 191.143239 
L 96.954873 191.143239 
Q 92.88412 191.143239 92.88412 191.493462 
L 92.88412 210.027262 
Q 92.88412 210.377485 96.954873 210.377485 
z
" clip-path="url(#peeac5edbdf)" style="fill: #4062bb"/>
   </g>
   <g id="patch_14">
    <path d="M 56.247346 210.377485 
L 52.868621 210.377485 
Q 56.939374 210.377485 56.939374 210.027262 
L 56.939374 202.875709 
Q 56.939374 202.525486 52.868621 202.525486 
L 56.247346 202.525486 
Q 52.176593 202.525486 52.176593 202.875709 
L 52.176593 210.027262 
Q 52.176593 210.377485 56.247346 210.377485 
z
" clip-path="url(#peeac5edbdf)" style="fill: #4062bb"/>
   </g>
   <g id="patch_15">
    <path d="M 254.696538 210.377485 
L 251.317813 210.377485 
Q 255.388566 210.377485 255.388566 210.027262 
L 255.388566 188.866789 
Q 255.388566 188.516566 251.317813 188.516566 
L 254.696538 188.516566 
Q 250.625785 188.516566 250.625785 188.866789 
L 250.625785 210.027262 
Q 250.625785 210.377485 254.696538 210.377485 
z
" clip-path="url(#peeac5edbdf)" style="fill: #4969be"/>
   </g>
   <g id="patch_16">
    <path d="M 213.989012 210.377485 
L 210.610287 210.377485 
Q 214.681039 210.377485 214.681039 210.027262 
L 214.681039 174.85787 
Q 214.681039 174.507647 210.610287 174.507647 
L 213.989012 174.507647 
Q 209.918259 174.507647 209.918259 174.85787 
L 209.918259 210.027262 
Q 209.918259 210.377485 213.989012 210.377485 
z
" clip-path="url(#peeac5edbdf)" style="fill: #4969be"/>
   </g>
   <g id="patch_17">
    <path d="M 173.281485 210.377485 
L 169.90276 210.377485 
Q 173.973513 210.377485 173.973513 210.027262 
L 173.973513 131.079996 
Q 173.973513 130.729773 169.90276 130.729773 
L 173.281485 130.729773 
Q 169.210732 130.729773 169.210732 131.079996 
L 169.210732 210.027262 
Q 169.210732 210.377485 173.281485 210.377485 
z
" clip-path="url(#peeac5edbdf)" style="fill: #4969be"/>
   </g>
   <g id="patch_18">
    <path d="M 132.573958 210.377485 
L 129.195234 210.377485 
Q 133.265986 210.377485 133.265986 210.027262 
L 133.265986 156.471163 
Q 133.265986 156.12094 129.195234 156.12094 
L 132.573958 156.12094 
Q 128.503206 156.12094 128.503206 156.471163 
L 128.503206 210.027262 
Q 128.503206 210.377485 132.573958 210.377485 
z
" clip-path="url(#peeac5edbdf)" style="fill: #4969be"/>
   </g>
   <g id="patch_19">
    <path d="M 91.866432 210.377485 
L 88.487707 210.377485 
Q 92.55846 210.377485 92.55846 210.027262 
L 92.55846 191.493462 
Q 92.55846 191.143239 88.487707 191.143239 
L 91.866432 191.143239 
Q 87.795679 191.143239 87.795679 191.493462 
L 87.795679 210.027262 
Q 87.795679 210.377485 91.866432 210.377485 
z
" clip-path="url(#peeac5edbdf)" style="fill: #4969be"/>
   </g>
   <g id="patch_20">
    <path d="M 51.158905 210.377485 
L 47.780181 210.377485 
Q 51.850933 210.377485 51.850933 210.027262 
L 51.850933 202.875709 
Q 51.850933 202.525486 47.780181 202.525486 
L 51.158905 202.525486 
Q 47.088153 202.525486 47.088153 202.875709 
L 47.088153 210.027262 
Q 47.088153 210.377485 51.158905 210.377485 
z
" clip-path="url(#peeac5edbdf)" style="fill: #4969be"/>
   </g>
   <g id="patch_21">
    <path d="M 249.608097 210.377485 
L 246.229373 210.377485 
Q 250.300125 210.377485 250.300125 210.027262 
L 250.300125 182.737887 
Q 250.300125 182.387664 246.229373 182.387664 
L 249.608097 182.387664 
Q 245.537345 182.387664 245.537345 182.737887 
L 245.537345 210.027262 
Q 245.537345 210.377485 249.608097 210.377485 
z
" clip-path="url(#peeac5edbdf)" style="fill: #869cd4"/>
   </g>
   <g id="patch_22">
    <path d="M 208.900571 210.377485 
L 205.521846 210.377485 
Q 209.592599 210.377485 209.592599 210.027262 
L 209.592599 183.613445 
Q 209.592599 183.263222 205.521846 183.263222 
L 208.900571 183.263222 
Q 204.829818 183.263222 204.829818 183.613445 
L 204.829818 210.027262 
Q 204.829818 210.377485 208.900571 210.377485 
z
" clip-path="url(#peeac5edbdf)" style="fill: #869cd4"/>
   </g>
   <g id="patch_23">
    <path d="M 168.193044 210.377485 
L 164.814319 210.377485 
Q 168.885072 210.377485 168.885072 210.027262 
L 168.885072 128.453324 
Q 168.885072 128.103101 164.814319 128.103101 
L 168.193044 128.103101 
Q 164.122291 128.103101 164.122291 128.453324 
L 164.122291 210.027262 
Q 164.122291 210.377485 168.193044 210.377485 
z
" clip-path="url(#peeac5edbdf)" style="fill: #869cd4"/>
   </g>
   <g id="patch_24">
    <path d="M 127.485518 210.377485 
L 124.106793 210.377485 
Q 128.177546 210.377485 128.177546 210.027262 
L 128.177546 150.342261 
Q 128.177546 149.992038 124.106793 149.992038 
L 127.485518 149.992038 
Q 123.414765 149.992038 123.414765 150.342261 
L 123.414765 210.027262 
Q 123.414765 210.377485 127.485518 210.377485 
z
" clip-path="url(#peeac5edbdf)" style="fill: #869cd4"/>
   </g>
   <g id="patch_25">
    <path d="M 86.777991 210.377485 
L 83.399266 210.377485 
Q 87.470019 210.377485 87.470019 210.027262 
L 87.470019 195.871249 
Q 87.470019 195.521026 83.399266 195.521026 
L 86.777991 195.521026 
Q 82.707238 195.521026 82.707238 195.871249 
L 82.707238 210.027262 
Q 82.707238 210.377485 86.777991 210.377485 
z
" clip-path="url(#peeac5edbdf)" style="fill: #869cd4"/>
   </g>
   <g id="patch_26">
    <path d="M 46.070464 210.377485 
L 42.69174 210.377485 
Q 46.762492 210.377485 46.762492 210.027262 
L 46.762492 203.751266 
Q 46.762492 203.401043 42.69174 203.401043 
L 46.070464 203.401043 
Q 41.999712 203.401043 41.999712 203.751266 
L 41.999712 210.027262 
Q 41.999712 210.377485 46.070464 210.377485 
z
" clip-path="url(#peeac5edbdf)" style="fill: #869cd4"/>
   </g>
   <g id="patch_27">
    <path d="M 31.66 210.391494 
L 31.66 35.28 
" style="fill: none; stroke: #000000; stroke-width: 0.8; stroke-linejoin: miter; stroke-linecap: square"/>
   </g>
   <g id="patch_28">
    <path d="M 31.66 210.391494 
L 275.905159 210.391494 
" style="fill: none; stroke: #000000; stroke-width: 0.8; stroke-linejoin: miter; stroke-linecap: square"/>
   </g>
  </g>
  <g id="axes_2">
   <g id="patch_29">
    <path d="M 314.26 210.391494 
L 558.505159 210.391494 
L 558.505159 35.28 
L 314.26 35.28 
z
" style="fill: #ffffff"/>
   </g>
   <g id="matplotlib.axis_3">
    <g id="xtick_7">
     <g id="line2d_25">
      <g>
       <use xlink:href="#m5ac0e07f09" x="334.613763" y="210.391494" style="fill: #37539c; stroke: #37539c; stroke-width: 0.8"/>
      </g>
     </g>
     <g id="text_16">
      <!-- Ciencias Agrícolas -->
      <g style="fill: #37539c" transform="translate(310.858511 272.209947) rotate(-45) scale(0.08 -0.08)">
       <use xlink:href="#OpenSans-Bold-43"/>
       <use xlink:href="#OpenSans-Bold-69" x="63.720703"/>
       <use xlink:href="#OpenSans-Bold-65" x="94.238281"/>
       <use xlink:href="#OpenSans-Bold-6e" x="153.320312"/>
       <use xlink:href="#OpenSans-Bold-63" x="219.042969"/>
       <use xlink:href="#OpenSans-Bold-69" x="270.458984"/>
       <use xlink:href="#OpenSans-Bold-61" x="300.976562"/>
       <use xlink:href="#OpenSans-Bold-73" x="361.376953"/>
       <use xlink:href="#OpenSans-Bold-20" x="411.083984"/>
       <use xlink:href="#OpenSans-Bold-41" x="437.060547"/>
       <use xlink:href="#OpenSans-Bold-67" x="506.054688"/>
       <use xlink:href="#OpenSans-Bold-72" x="562.548828"/>
       <use xlink:href="#OpenSans-Bold-ed" x="607.958984"/>
       <use xlink:href="#OpenSans-Bold-63" x="638.476562"/>
       <use xlink:href="#OpenSans-Bold-6f" x="689.892578"/>
       <use xlink:href="#OpenSans-Bold-6c" x="751.806641"/>
       <use xlink:href="#OpenSans-Bold-61" x="782.324219"/>
       <use xlink:href="#OpenSans-Bold-73" x="842.724609"/>
      </g>
     </g>
    </g>
    <g id="xtick_8">
     <g id="line2d_26">
      <g>
       <use xlink:href="#m5ac0e07f09" x="375.32129" y="210.391494" style="fill: #37539c; stroke: #37539c; stroke-width: 0.8"/>
      </g>
     </g>
     <g id="text_17">
      <!-- Ciencias Médicas -->
      <g style="fill: #37539c" transform="translate(349.610622 269.532664) rotate(-45) scale(0.08 -0.08)">
       <use xlink:href="#OpenSans-Bold-43"/>
       <use xlink:href="#OpenSans-Bold-69" x="63.720703"/>
       <use xlink:href="#OpenSans-Bold-65" x="94.238281"/>
       <use xlink:href="#OpenSans-Bold-6e" x="153.320312"/>
       <use xlink:href="#OpenSans-Bold-63" x="219.042969"/>
       <use xlink:href="#OpenSans-Bold-69" x="270.458984"/>
       <use xlink:href="#OpenSans-Bold-61" x="300.976562"/>
       <use xlink:href="#OpenSans-Bold-73" x="361.376953"/>
       <use xlink:href="#OpenSans-Bold-20" x="411.083984"/>
       <use xlink:href="#OpenSans-Bold-4d" x="437.060547"/>
       <use xlink:href="#OpenSans-Bold-e9" x="531.347656"/>
       <use xlink:href="#OpenSans-Bold-64" x="590.429688"/>
       <use xlink:href="#OpenSans-Bold-69" x="653.710938"/>
       <use xlink:href="#OpenSans-Bold-63" x="684.228516"/>
       <use xlink:href="#OpenSans-Bold-61" x="735.644531"/>
       <use xlink:href="#OpenSans-Bold-73" x="796.044922"/>
      </g>
      <!-- y de Salud -->
      <g style="fill: #37539c" transform="translate(365.731419 266.446674) rotate(-45) scale(0.08 -0.08)">
       <use xlink:href="#OpenSans-Bold-79"/>
       <use xlink:href="#OpenSans-Bold-20" x="56.884766"/>
       <use xlink:href="#OpenSans-Bold-64" x="82.861328"/>
       <use xlink:href="#OpenSans-Bold-65" x="146.142578"/>
       <use xlink:href="#OpenSans-Bold-20" x="205.224609"/>
       <use xlink:href="#OpenSans-Bold-53" x="231.201172"/>
       <use xlink:href="#OpenSans-Bold-61" x="286.279297"/>
       <use xlink:href="#OpenSans-Bold-6c" x="346.679688"/>
       <use xlink:href="#OpenSans-Bold-75" x="377.197266"/>
       <use xlink:href="#OpenSans-Bold-64" x="442.919922"/>
      </g>
     </g>
    </g>
    <g id="xtick_9">
     <g id="line2d_27">
      <g>
       <use xlink:href="#m5ac0e07f09" x="416.028816" y="210.391494" style="fill: #37539c; stroke: #37539c; stroke-width: 0.8"/>
      </g>
     </g>
     <g id="text_18">
      <!-- Ciencias Naturales -->
      <g style="fill: #37539c" transform="translate(391.109048 274.46827) rotate(-45) scale(0.08 -0.08)">
       <use xlink:href="#OpenSans-Bold-43"/>
       <use xlink:href="#OpenSans-Bold-69" x="63.720703"/>
       <use xlink:href="#OpenSans-Bold-65" x="94.238281"/>
       <use xlink:href="#OpenSans-Bold-6e" x="153.320312"/>
       <use xlink:href="#OpenSans-Bold-63" x="219.042969"/>
       <use xlink:href="#OpenSans-Bold-69" x="270.458984"/>
       <use xlink:href="#OpenSans-Bold-61" x="300.976562"/>
       <use xlink:href="#OpenSans-Bold-73" x="361.376953"/>
       <use xlink:href="#OpenSans-Bold-20" x="411.083984"/>
       <use xlink:href="#OpenSans-Bold-4e" x="437.060547"/>
       <use xlink:href="#OpenSans-Bold-61" x="518.359375"/>
       <use xlink:href="#OpenSans-Bold-74" x="578.759766"/>
       <use xlink:href="#OpenSans-Bold-75" x="622.167969"/>
       <use xlink:href="#OpenSans-Bold-72" x="687.890625"/>
       <use xlink:href="#OpenSans-Bold-61" x="733.300781"/>
       <use xlink:href="#OpenSans-Bold-6c" x="793.701172"/>
       <use xlink:href="#OpenSans-Bold-65" x="824.21875"/>
       <use xlink:href="#OpenSans-Bold-73" x="883.300781"/>
      </g>
     </g>
    </g>
    <g id="xtick_10">
     <g id="line2d_28">
      <g>
       <use xlink:href="#m5ac0e07f09" x="456.736343" y="210.391494" style="fill: #37539c; stroke: #37539c; stroke-width: 0.8"/>
      </g>
     </g>
     <g id="text_19">
      <!-- Ciencias Sociales -->
      <g style="fill: #37539c" transform="translate(434.568545 268.964327) rotate(-45) scale(0.08 -0.08)">
       <use xlink:href="#OpenSans-Bold-43"/>
       <use xlink:href="#OpenSans-Bold-69" x="63.720703"/>
       <use xlink:href="#OpenSans-Bold-65" x="94.238281"/>
       <use xlink:href="#OpenSans-Bold-6e" x="153.320312"/>
       <use xlink:href="#OpenSans-Bold-63" x="219.042969"/>
       <use xlink:href="#OpenSans-Bold-69" x="270.458984"/>
       <use xlink:href="#OpenSans-Bold-61" x="300.976562"/>
       <use xlink:href="#OpenSans-Bold-73" x="361.376953"/>
       <use xlink:href="#OpenSans-Bold-20" x="411.083984"/>
       <use xlink:href="#OpenSans-Bold-53" x="437.060547"/>
       <use xlink:href="#OpenSans-Bold-6f" x="492.138672"/>
       <use xlink:href="#OpenSans-Bold-63" x="554.052734"/>
       <use xlink:href="#OpenSans-Bold-69" x="605.46875"/>
       <use xlink:href="#OpenSans-Bold-61" x="635.986328"/>
       <use xlink:href="#OpenSans-Bold-6c" x="696.386719"/>
       <use xlink:href="#OpenSans-Bold-65" x="726.904297"/>
       <use xlink:href="#OpenSans-Bold-73" x="785.986328"/>
      </g>
     </g>
    </g>
    <g id="xtick_11">
     <g id="line2d_29">
      <g>
       <use xlink:href="#m5ac0e07f09" x="497.44387" y="210.391494" style="fill: #37539c; stroke: #37539c; stroke-width: 0.8"/>
      </g>
     </g>
     <g id="text_20">
      <!-- Humanidades -->
      <g style="fill: #37539c" transform="translate(479.317629 260.881213) rotate(-45) scale(0.08 -0.08)">
       <use xlink:href="#OpenSans-Bold-48"/>
       <use xlink:href="#OpenSans-Bold-75" x="76.513672"/>
       <use xlink:href="#OpenSans-Bold-6d" x="142.236328"/>
       <use xlink:href="#OpenSans-Bold-61" x="240.429688"/>
       <use xlink:href="#OpenSans-Bold-6e" x="300.830078"/>
       <use xlink:href="#OpenSans-Bold-69" x="366.552734"/>
       <use xlink:href="#OpenSans-Bold-64" x="397.070312"/>
       <use xlink:href="#OpenSans-Bold-61" x="460.351562"/>
       <use xlink:href="#OpenSans-Bold-64" x="520.751953"/>
       <use xlink:href="#OpenSans-Bold-65" x="584.033203"/>
       <use xlink:href="#OpenSans-Bold-73" x="643.115234"/>
      </g>
     </g>
    </g>
    <g id="xtick_12">
     <g id="line2d_30">
      <g>
       <use xlink:href="#m5ac0e07f09" x="538.151396" y="210.391494" style="fill: #37539c; stroke: #37539c; stroke-width: 0.8"/>
      </g>
     </g>
     <g id="text_21">
      <!-- Ingeniería -->
      <g style="fill: #37539c" transform="translate(522.045448 253.540119) rotate(-45) scale(0.08 -0.08)">
       <use xlink:href="#OpenSans-Bold-49"/>
       <use xlink:href="#OpenSans-Bold-6e" x="33.105469"/>
       <use xlink:href="#OpenSans-Bold-67" x="98.828125"/>
       <use xlink:href="#OpenSans-Bold-65" x="155.322266"/>
       <use xlink:href="#OpenSans-Bold-6e" x="214.404297"/>
       <use xlink:href="#OpenSans-Bold-69" x="280.126953"/>
       <use xlink:href="#OpenSans-Bold-65" x="310.644531"/>
       <use xlink:href="#OpenSans-Bold-72" x="369.726562"/>
       <use xlink:href="#OpenSans-Bold-ed" x="415.136719"/>
       <use xlink:href="#OpenSans-Bold-61" x="445.654297"/>
      </g>
      <!-- y Tecnología -->
      <g style="fill: #37539c" transform="translate(525.416668 263.288558) rotate(-45) scale(0.08 -0.08)">
       <use xlink:href="#OpenSans-Bold-79"/>
       <use xlink:href="#OpenSans-Bold-20" x="56.884766"/>
       <use xlink:href="#OpenSans-Bold-54" x="82.861328"/>
       <use xlink:href="#OpenSans-Bold-65" x="140.771484"/>
       <use xlink:href="#OpenSans-Bold-63" x="199.853516"/>
       <use xlink:href="#OpenSans-Bold-6e" x="251.269531"/>
       <use xlink:href="#OpenSans-Bold-6f" x="316.992188"/>
       <use xlink:href="#OpenSans-Bold-6c" x="378.90625"/>
       <use xlink:href="#OpenSans-Bold-6f" x="409.423828"/>
       <use xlink:href="#OpenSans-Bold-67" x="471.337891"/>
       <use xlink:href="#OpenSans-Bold-ed" x="527.832031"/>
       <use xlink:href="#OpenSans-Bold-61" x="558.349609"/>
      </g>
     </g>
    </g>
   </g>
   <g id="matplotlib.axis_4">
    <g id="ytick_10">
     <g id="line2d_31">
      <path d="M 314.26 210.391494 
L 558.505159 210.391494 
" clip-path="url(#ped096f59ee)" style="fill: none; stroke-dasharray: 2.96,1.28; stroke-dashoffset: 0; stroke: #b0b0b0; stroke-width: 0.8"/>
     </g>
     <g id="line2d_32">
      <g>
       <use xlink:href="#m7134b03259" x="314.26" y="210.391494" style="fill: #37539c; stroke: #37539c; stroke-width: 0.8"/>
      </g>
     </g>
     <g id="text_22">
      <!-- 0 -->
      <g style="fill: #37539c" transform="translate(302.68625 213.430869) scale(0.08 -0.08)">
       <use xlink:href="#OpenSans-Bold-30"/>
      </g>
     </g>
    </g>
    <g id="ytick_11">
     <g id="line2d_33">
      <path d="M 314.26 188.502557 
L 558.505159 188.502557 
" clip-path="url(#ped096f59ee)" style="fill: none; stroke-dasharray: 2.96,1.28; stroke-dashoffset: 0; stroke: #b0b0b0; stroke-width: 0.8"/>
     </g>
     <g id="line2d_34">
      <g>
       <use xlink:href="#m7134b03259" x="314.26" y="188.502557" style="fill: #37539c; stroke: #37539c; stroke-width: 0.8"/>
      </g>
     </g>
     <g id="text_23">
      <!-- 25 -->
      <g style="fill: #37539c" transform="translate(298.1125 191.541932) scale(0.08 -0.08)">
       <use xlink:href="#OpenSans-Bold-32"/>
       <use xlink:href="#OpenSans-Bold-35" x="57.177734"/>
      </g>
     </g>
    </g>
    <g id="ytick_12">
     <g id="line2d_35">
      <path d="M 314.26 166.613621 
L 558.505159 166.613621 
" clip-path="url(#ped096f59ee)" style="fill: none; stroke-dasharray: 2.96,1.28; stroke-dashoffset: 0; stroke: #b0b0b0; stroke-width: 0.8"/>
     </g>
     <g id="line2d_36">
      <g>
       <use xlink:href="#m7134b03259" x="314.26" y="166.613621" style="fill: #37539c; stroke: #37539c; stroke-width: 0.8"/>
      </g>
     </g>
     <g id="text_24">
      <!-- 50 -->
      <g style="fill: #37539c" transform="translate(298.1125 169.652996) scale(0.08 -0.08)">
       <use xlink:href="#OpenSans-Bold-35"/>
       <use xlink:href="#OpenSans-Bold-30" x="57.177734"/>
      </g>
     </g>
    </g>
    <g id="ytick_13">
     <g id="line2d_37">
      <path d="M 314.26 144.724684 
L 558.505159 144.724684 
" clip-path="url(#ped096f59ee)" style="fill: none; stroke-dasharray: 2.96,1.28; stroke-dashoffset: 0; stroke: #b0b0b0; stroke-width: 0.8"/>
     </g>
     <g id="line2d_38">
      <g>
       <use xlink:href="#m7134b03259" x="314.26" y="144.724684" style="fill: #37539c; stroke: #37539c; stroke-width: 0.8"/>
      </g>
     </g>
     <g id="text_25">
      <!-- 75 -->
      <g style="fill: #37539c" transform="translate(298.1125 147.764059) scale(0.08 -0.08)">
       <use xlink:href="#OpenSans-Bold-37"/>
       <use xlink:href="#OpenSans-Bold-35" x="57.177734"/>
      </g>
     </g>
    </g>
    <g id="ytick_14">
     <g id="line2d_39">
      <path d="M 314.26 122.835747 
L 558.505159 122.835747 
" clip-path="url(#ped096f59ee)" style="fill: none; stroke-dasharray: 2.96,1.28; stroke-dashoffset: 0; stroke: #b0b0b0; stroke-width: 0.8"/>
     </g>
     <g id="line2d_40">
      <g>
       <use xlink:href="#m7134b03259" x="314.26" y="122.835747" style="fill: #37539c; stroke: #37539c; stroke-width: 0.8"/>
      </g>
     </g>
     <g id="text_26">
      <!-- 100 -->
      <g style="fill: #37539c" transform="translate(293.53875 125.875122) scale(0.08 -0.08)">
       <use xlink:href="#OpenSans-Bold-31"/>
       <use xlink:href="#OpenSans-Bold-30" x="57.177734"/>
       <use xlink:href="#OpenSans-Bold-30" x="114.355469"/>
      </g>
     </g>
    </g>
    <g id="ytick_15">
     <g id="line2d_41">
      <path d="M 314.26 100.94681 
L 558.505159 100.94681 
" clip-path="url(#ped096f59ee)" style="fill: none; stroke-dasharray: 2.96,1.28; stroke-dashoffset: 0; stroke: #b0b0b0; stroke-width: 0.8"/>
     </g>
     <g id="line2d_42">
      <g>
       <use xlink:href="#m7134b03259" x="314.26" y="100.94681" style="fill: #37539c; stroke: #37539c; stroke-width: 0.8"/>
      </g>
     </g>
     <g id="text_27">
      <!-- 125 -->
      <g style="fill: #37539c" transform="translate(293.53875 103.986185) scale(0.08 -0.08)">
       <use xlink:href="#OpenSans-Bold-31"/>
       <use xlink:href="#OpenSans-Bold-32" x="57.177734"/>
       <use xlink:href="#OpenSans-Bold-35" x="114.355469"/>
      </g>
     </g>
    </g>
    <g id="ytick_16">
     <g id="line2d_43">
      <path d="M 314.26 79.057874 
L 558.505159 79.057874 
" clip-path="url(#ped096f59ee)" style="fill: none; stroke-dasharray: 2.96,1.28; stroke-dashoffset: 0; stroke: #b0b0b0; stroke-width: 0.8"/>
     </g>
     <g id="line2d_44">
      <g>
       <use xlink:href="#m7134b03259" x="314.26" y="79.057874" style="fill: #37539c; stroke: #37539c; stroke-width: 0.8"/>
      </g>
     </g>
     <g id="text_28">
      <!-- 150 -->
      <g style="fill: #37539c" transform="translate(293.53875 82.097249) scale(0.08 -0.08)">
       <use xlink:href="#OpenSans-Bold-31"/>
       <use xlink:href="#OpenSans-Bold-35" x="57.177734"/>
       <use xlink:href="#OpenSans-Bold-30" x="114.355469"/>
      </g>
     </g>
    </g>
    <g id="ytick_17">
     <g id="line2d_45">
      <path d="M 314.26 57.168937 
L 558.505159 57.168937 
" clip-path="url(#ped096f59ee)" style="fill: none; stroke-dasharray: 2.96,1.28; stroke-dashoffset: 0; stroke: #b0b0b0; stroke-width: 0.8"/>
     </g>
     <g id="line2d_46">
      <g>
       <use xlink:href="#m7134b03259" x="314.26" y="57.168937" style="fill: #37539c; stroke: #37539c; stroke-width: 0.8"/>
      </g>
     </g>
     <g id="text_29">
      <!-- 175 -->
      <g style="fill: #37539c" transform="translate(293.53875 60.208312) scale(0.08 -0.08)">
       <use xlink:href="#OpenSans-Bold-31"/>
       <use xlink:href="#OpenSans-Bold-37" x="57.177734"/>
       <use xlink:href="#OpenSans-Bold-35" x="114.355469"/>
      </g>
     </g>
    </g>
    <g id="ytick_18">
     <g id="line2d_47">
      <path d="M 314.26 35.28 
L 558.505159 35.28 
" clip-path="url(#ped096f59ee)" style="fill: none; stroke-dasharray: 2.96,1.28; stroke-dashoffset: 0; stroke: #b0b0b0; stroke-width: 0.8"/>
     </g>
     <g id="line2d_48">
      <g>
       <use xlink:href="#m7134b03259" x="314.26" y="35.28" style="fill: #37539c; stroke: #37539c; stroke-width: 0.8"/>
      </g>
     </g>
     <g id="text_30">
      <!-- 200 -->
      <g style="fill: #37539c" transform="translate(293.53875 38.319375) scale(0.08 -0.08)">
       <use xlink:href="#OpenSans-Bold-32"/>
       <use xlink:href="#OpenSans-Bold-30" x="57.177734"/>
       <use xlink:href="#OpenSans-Bold-30" x="114.355469"/>
      </g>
     </g>
    </g>
   </g>
   <g id="patch_30">
    <path d="M 339.702204 210.391494 
L 344.790645 210.391494 
L 344.790645 210.391494 
L 339.702204 210.391494 
z
" clip-path="url(#ped096f59ee)" style="fill: #354f95"/>
   </g>
   <g id="patch_31">
    <path d="M 380.409731 210.391494 
L 385.498172 210.391494 
L 385.498172 210.391494 
L 380.409731 210.391494 
z
" clip-path="url(#ped096f59ee)" style="fill: #354f95"/>
   </g>
   <g id="patch_32">
    <path d="M 421.117257 210.391494 
L 426.205698 210.391494 
L 426.205698 210.391494 
L 421.117257 210.391494 
z
" clip-path="url(#ped096f59ee)" style="fill: #354f95"/>
   </g>
   <g id="patch_33">
    <path d="M 461.824784 210.391494 
L 466.913225 210.391494 
L 466.913225 210.391494 
L 461.824784 210.391494 
z
" clip-path="url(#ped096f59ee)" style="fill: #354f95"/>
   </g>
   <g id="patch_34">
    <path d="M 502.53231 210.391494 
L 507.620751 210.391494 
L 507.620751 210.391494 
L 502.53231 210.391494 
z
" clip-path="url(#ped096f59ee)" style="fill: #354f95"/>
   </g>
   <g id="patch_35">
    <path d="M 543.239837 210.391494 
L 548.328278 210.391494 
L 548.328278 210.391494 
L 543.239837 210.391494 
z
" clip-path="url(#ped096f59ee)" style="fill: #354f95"/>
   </g>
   <g id="patch_36">
    <path d="M 543.239837 210.391494 
L 548.328278 210.391494 
L 548.328278 210.391494 
L 543.239837 210.391494 
z
" clip-path="url(#ped096f59ee)" style="fill: #354f95"/>
   </g>
   <g id="patch_37">
    <path d="M 502.53231 210.391494 
L 507.620751 210.391494 
L 507.620751 210.391494 
L 502.53231 210.391494 
z
" clip-path="url(#ped096f59ee)" style="fill: #354f95"/>
   </g>
   <g id="patch_38">
    <path d="M 461.824784 210.391494 
L 466.913225 210.391494 
L 466.913225 210.391494 
L 461.824784 210.391494 
z
" clip-path="url(#ped096f59ee)" style="fill: #354f95"/>
   </g>
   <g id="patch_39">
    <path d="M 421.117257 210.391494 
L 426.205698 210.391494 
L 426.205698 210.391494 
L 421.117257 210.391494 
z
" clip-path="url(#ped096f59ee)" style="fill: #354f95"/>
   </g>
   <g id="patch_40">
    <path d="M 380.409731 210.391494 
L 385.498172 210.391494 
L 385.498172 210.391494 
L 380.409731 210.391494 
z
" clip-path="url(#ped096f59ee)" style="fill: #354f95"/>
   </g>
   <g id="patch_41">
    <path d="M 339.702204 210.391494 
L 344.790645 210.391494 
L 344.790645 210.391494 
L 339.702204 210.391494 
z
" clip-path="url(#ped096f59ee)" style="fill: #354f95"/>
   </g>
   <g id="patch_42">
    <path d="M 542.384979 210.377485 
L 539.006254 210.377485 
Q 543.077007 210.377485 543.077007 210.027262 
L 543.077007 187.115674 
Q 543.077007 186.765451 539.006254 186.765451 
L 542.384979 186.765451 
Q 538.314226 186.765451 538.314226 187.115674 
L 538.314226 210.027262 
Q 538.314226 210.377485 542.384979 210.377485 
z
" clip-path="url(#ped096f59ee)" style="fill: #4062bb"/>
   </g>
   <g id="patch_43">
    <path d="M 501.677452 210.377485 
L 498.298728 210.377485 
Q 502.36948 210.377485 502.36948 210.027262 
L 502.36948 157.34672 
Q 502.36948 156.996497 498.298728 156.996497 
L 501.677452 156.996497 
Q 497.6067 156.996497 497.6067 157.34672 
L 497.6067 210.027262 
Q 497.6067 210.377485 501.677452 210.377485 
z
" clip-path="url(#ped096f59ee)" style="fill: #4062bb"/>
   </g>
   <g id="patch_44">
    <path d="M 460.969926 210.377485 
L 457.591201 210.377485 
Q 461.661954 210.377485 461.661954 210.027262 
L 461.661954 85.551008 
Q 461.661954 85.200785 457.591201 85.200785 
L 460.969926 85.200785 
Q 456.899173 85.200785 456.899173 85.551008 
L 456.899173 210.027262 
Q 456.899173 210.377485 460.969926 210.377485 
z
" clip-path="url(#ped096f59ee)" style="fill: #4062bb"/>
   </g>
   <g id="patch_45">
    <path d="M 420.262399 210.377485 
L 416.883674 210.377485 
Q 420.954427 210.377485 420.954427 210.027262 
L 420.954427 188.866789 
Q 420.954427 188.516566 416.883674 188.516566 
L 420.262399 188.516566 
Q 416.191647 188.516566 416.191647 188.866789 
L 416.191647 210.027262 
Q 416.191647 210.377485 420.262399 210.377485 
z
" clip-path="url(#ped096f59ee)" style="fill: #4062bb"/>
   </g>
   <g id="patch_46">
    <path d="M 379.554873 210.377485 
L 376.176148 210.377485 
Q 380.246901 210.377485 380.246901 210.027262 
L 380.246901 199.373479 
Q 380.246901 199.023256 376.176148 199.023256 
L 379.554873 199.023256 
Q 375.48412 199.023256 375.48412 199.373479 
L 375.48412 210.027262 
Q 375.48412 210.377485 379.554873 210.377485 
z
" clip-path="url(#ped096f59ee)" style="fill: #4062bb"/>
   </g>
   <g id="patch_47">
    <path d="M 338.847346 210.377485 
L 335.468621 210.377485 
Q 339.539374 210.377485 339.539374 210.027262 
L 339.539374 205.502381 
Q 339.539374 205.152158 335.468621 205.152158 
L 338.847346 205.152158 
Q 334.776593 205.152158 334.776593 205.502381 
L 334.776593 210.027262 
Q 334.776593 210.377485 338.847346 210.377485 
z
" clip-path="url(#ped096f59ee)" style="fill: #4062bb"/>
   </g>
   <g id="patch_48">
    <path d="M 537.296538 210.377485 
L 533.917813 210.377485 
Q 537.988566 210.377485 537.988566 210.027262 
L 537.988566 187.991232 
Q 537.988566 187.641009 533.917813 187.641009 
L 537.296538 187.641009 
Q 533.225785 187.641009 533.225785 187.991232 
L 533.225785 210.027262 
Q 533.225785 210.377485 537.296538 210.377485 
z
" clip-path="url(#ped096f59ee)" style="fill: #4969be"/>
   </g>
   <g id="patch_49">
    <path d="M 496.589012 210.377485 
L 493.210287 210.377485 
Q 497.281039 210.377485 497.281039 210.027262 
L 497.281039 166.102295 
Q 497.281039 165.752072 493.210287 165.752072 
L 496.589012 165.752072 
Q 492.518259 165.752072 492.518259 166.102295 
L 492.518259 210.027262 
Q 492.518259 210.377485 496.589012 210.377485 
z
" clip-path="url(#ped096f59ee)" style="fill: #4969be"/>
   </g>
   <g id="patch_50">
    <path d="M 455.881485 210.377485 
L 452.50276 210.377485 
Q 456.573513 210.377485 456.573513 210.027262 
L 456.573513 69.790973 
Q 456.573513 69.44075 452.50276 69.44075 
L 455.881485 69.44075 
Q 451.810732 69.44075 451.810732 69.790973 
L 451.810732 210.027262 
Q 451.810732 210.377485 455.881485 210.377485 
z
" clip-path="url(#ped096f59ee)" style="fill: #4969be"/>
   </g>
   <g id="patch_51">
    <path d="M 415.173958 210.377485 
L 411.795234 210.377485 
Q 415.865986 210.377485 415.865986 210.027262 
L 415.865986 189.742347 
Q 415.865986 189.392124 411.795234 189.392124 
L 415.173958 189.392124 
Q 411.103206 189.392124 411.103206 189.742347 
L 411.103206 210.027262 
Q 411.103206 210.377485 415.173958 210.377485 
z
" clip-path="url(#ped096f59ee)" style="fill: #4969be"/>
   </g>
   <g id="patch_52">
    <path d="M 374.466432 210.377485 
L 371.087707 210.377485 
Q 375.15846 210.377485 375.15846 210.027262 
L 375.15846 194.995692 
Q 375.15846 194.645469 371.087707 194.645469 
L 374.466432 194.645469 
Q 370.395679 194.645469 370.395679 194.995692 
L 370.395679 210.027262 
Q 370.395679 210.377485 374.466432 210.377485 
z
" clip-path="url(#ped096f59ee)" style="fill: #4969be"/>
   </g>
   <g id="patch_53">
    <path d="M 333.758905 210.377485 
L 330.380181 210.377485 
Q 334.450933 210.377485 334.450933 210.027262 
L 334.450933 199.373479 
Q 334.450933 199.023256 330.380181 199.023256 
L 333.758905 199.023256 
Q 329.688153 199.023256 329.688153 199.373479 
L 329.688153 210.027262 
Q 329.688153 210.377485 333.758905 210.377485 
z
" clip-path="url(#ped096f59ee)" style="fill: #4969be"/>
   </g>
   <g id="patch_54">
    <path d="M 532.208097 210.377485 
L 528.829373 210.377485 
Q 532.900125 210.377485 532.900125 210.027262 
L 532.900125 181.86233 
Q 532.900125 181.512107 528.829373 181.512107 
L 532.208097 181.512107 
Q 528.137345 181.512107 528.137345 181.86233 
L 528.137345 210.027262 
Q 528.137345 210.377485 532.208097 210.377485 
z
" clip-path="url(#ped096f59ee)" style="fill: #869cd4"/>
   </g>
   <g id="patch_55">
    <path d="M 491.500571 210.377485 
L 488.121846 210.377485 
Q 492.192599 210.377485 492.192599 210.027262 
L 492.192599 151.217818 
Q 492.192599 150.867595 488.121846 150.867595 
L 491.500571 150.867595 
Q 487.429818 150.867595 487.429818 151.217818 
L 487.429818 210.027262 
Q 487.429818 210.377485 491.500571 210.377485 
z
" clip-path="url(#ped096f59ee)" style="fill: #869cd4"/>
   </g>
   <g id="patch_56">
    <path d="M 450.793044 210.377485 
L 447.414319 210.377485 
Q 451.485072 210.377485 451.485072 210.027262 
L 451.485072 38.270904 
Q 451.485072 37.920681 447.414319 37.920681 
L 450.793044 37.920681 
Q 446.722291 37.920681 446.722291 38.270904 
L 446.722291 210.027262 
Q 446.722291 210.377485 450.793044 210.377485 
z
" clip-path="url(#ped096f59ee)" style="fill: #869cd4"/>
   </g>
   <g id="patch_57">
    <path d="M 410.085518 210.377485 
L 406.706793 210.377485 
Q 410.777546 210.377485 410.777546 210.027262 
L 410.777546 181.86233 
Q 410.777546 181.512107 406.706793 181.512107 
L 410.085518 181.512107 
Q 406.014765 181.512107 406.014765 181.86233 
L 406.014765 210.027262 
Q 406.014765 210.377485 410.085518 210.377485 
z
" clip-path="url(#ped096f59ee)" style="fill: #869cd4"/>
   </g>
   <g id="patch_58">
    <path d="M 369.377991 210.377485 
L 365.999266 210.377485 
Q 370.070019 210.377485 370.070019 210.027262 
L 370.070019 192.369019 
Q 370.070019 192.018796 365.999266 192.018796 
L 369.377991 192.018796 
Q 365.307238 192.018796 365.307238 192.369019 
L 365.307238 210.027262 
Q 365.307238 210.377485 369.377991 210.377485 
z
" clip-path="url(#ped096f59ee)" style="fill: #869cd4"/>
   </g>
   <g id="patch_59">
    <path d="M 328.670464 210.377485 
L 325.29174 210.377485 
Q 329.362492 210.377485 329.362492 210.027262 
L 329.362492 205.502381 
Q 329.362492 205.152158 325.29174 205.152158 
L 328.670464 205.152158 
Q 324.599712 205.152158 324.599712 205.502381 
L 324.599712 210.027262 
Q 324.599712 210.377485 328.670464 210.377485 
z
" clip-path="url(#ped096f59ee)" style="fill: #869cd4"/>
   </g>
   <g id="patch_60">
    <path d="M 314.26 210.391494 
L 314.26 35.28 
" style="fill: none; stroke: #000000; stroke-width: 0.8; stroke-linejoin: miter; stroke-linecap: square"/>
   </g>
   <g id="patch_61">
    <path d="M 314.26 210.391494 
L 558.505159 210.391494 
" style="fill: none; stroke: #000000; stroke-width: 0.8; stroke-linejoin: miter; stroke-linecap: square"/>
   </g>
   <g id="legend_1">
    <g id="patch_62">
     <path d="M 496.636409 103.28625 
L 551.505159 103.28625 
Q 553.505159 103.28625 553.505159 101.28625 
L 553.505159 42.28 
Q 553.505159 40.28 551.505159 40.28 
L 496.636409 40.28 
Q 494.636409 40.28 494.636409 42.28 
L 494.636409 101.28625 
Q 494.636409 103.28625 496.636409 103.28625 
z
" style="fill: #ffffff; opacity: 0.8; stroke: #cccccc; stroke-linejoin: miter"/>
    </g>
    <g id="patch_63">
     <path d="M 498.636409 51.878438 
L 518.636409 51.878438 
L 518.636409 44.878438 
L 498.636409 44.878438 
z
" style="fill: #869cd4"/>
    </g>
    <g id="text_31">
     <!-- 2017 -->
     <g style="fill: #37539c" transform="translate(526.636409 51.878438) scale(0.1 -0.1)">
      <use xlink:href="#OpenSans-Bold-32"/>
      <use xlink:href="#OpenSans-Bold-30" x="57.177734"/>
      <use xlink:href="#OpenSans-Bold-31" x="114.355469"/>
      <use xlink:href="#OpenSans-Bold-37" x="171.533203"/>
     </g>
    </g>
    <g id="patch_64">
     <path d="M 498.636409 66.88 
L 518.636409 66.88 
L 518.636409 59.88 
L 498.636409 59.88 
z
" style="fill: #4969be"/>
    </g>
    <g id="text_32">
     <!-- 2018 -->
     <g style="fill: #37539c" transform="translate(526.636409 66.88) scale(0.1 -0.1)">
      <defs>
       <path id="OpenSans-Bold-38" d="M 1831 4628 
Q 2225 4628 2558 4506 
Q 2891 4384 3091 4139 
Q 3291 3894 3291 3525 
Q 3291 3250 3183 3044 
Q 3075 2838 2890 2683 
Q 2706 2528 2472 2413 
Q 2716 2284 2934 2114 
Q 3153 1944 3292 1716 
Q 3431 1488 3431 1184 
Q 3431 803 3228 523 
Q 3025 244 2665 90 
Q 2306 -63 1831 -63 
Q 1319 -63 959 84 
Q 600 231 412 504 
Q 225 778 225 1159 
Q 225 1472 342 1703 
Q 459 1934 659 2101 
Q 859 2269 1100 2388 
Q 897 2516 730 2678 
Q 563 2841 464 3050 
Q 366 3259 366 3531 
Q 366 3894 570 4137 
Q 775 4381 1109 4504 
Q 1444 4628 1831 4628 
z
M 1119 1216 
Q 1119 969 1295 808 
Q 1472 647 1819 647 
Q 2178 647 2356 801 
Q 2534 956 2534 1209 
Q 2534 1384 2432 1515 
Q 2331 1647 2178 1751 
Q 2025 1856 1869 1947 
L 1784 1991 
Q 1584 1900 1436 1787 
Q 1288 1675 1203 1534 
Q 1119 1394 1119 1216 
z
M 1825 3922 
Q 1588 3922 1431 3800 
Q 1275 3678 1275 3456 
Q 1275 3300 1351 3183 
Q 1428 3066 1554 2978 
Q 1681 2891 1831 2816 
Q 1975 2884 2100 2968 
Q 2225 3053 2303 3172 
Q 2381 3291 2381 3456 
Q 2381 3678 2223 3800 
Q 2066 3922 1825 3922 
z
" transform="scale(0.015625)"/>
      </defs>
      <use xlink:href="#OpenSans-Bold-32"/>
      <use xlink:href="#OpenSans-Bold-30" x="57.177734"/>
      <use xlink:href="#OpenSans-Bold-31" x="114.355469"/>
      <use xlink:href="#OpenSans-Bold-38" x="171.533203"/>
     </g>
    </g>
    <g id="patch_65">
     <path d="M 498.636409 81.881563 
L 518.636409 81.881563 
L 518.636409 74.881563 
L 498.636409 74.881563 
z
" style="fill: #4062bb"/>
    </g>
    <g id="text_33">
     <!-- 2019 -->
     <g style="fill: #37539c" transform="translate(526.636409 81.881563) scale(0.1 -0.1)">
      <defs>
       <path id="OpenSans-Bold-39" d="M 3431 2619 
Q 3431 2225 3373 1837 
Q 3316 1450 3172 1108 
Q 3028 766 2768 502 
Q 2509 238 2109 87 
Q 1709 -63 1141 -63 
Q 1006 -63 825 -52 
Q 644 -41 525 -19 
L 525 756 
Q 650 725 790 708 
Q 931 691 1075 691 
Q 1647 691 1958 872 
Q 2269 1053 2395 1375 
Q 2522 1697 2541 2119 
L 2503 2119 
Q 2413 1969 2289 1848 
Q 2166 1728 1975 1658 
Q 1784 1588 1491 1588 
Q 1100 1588 811 1758 
Q 522 1928 364 2251 
Q 206 2575 206 3034 
Q 206 3531 395 3886 
Q 584 4241 934 4431 
Q 1284 4622 1759 4622 
Q 2109 4622 2412 4501 
Q 2716 4381 2945 4134 
Q 3175 3888 3303 3509 
Q 3431 3131 3431 2619 
z
M 1778 3847 
Q 1497 3847 1319 3653 
Q 1141 3459 1141 3047 
Q 1141 2716 1294 2522 
Q 1447 2328 1759 2328 
Q 1975 2328 2134 2423 
Q 2294 2519 2383 2664 
Q 2472 2809 2472 2963 
Q 2472 3122 2428 3278 
Q 2384 3434 2296 3562 
Q 2209 3691 2079 3769 
Q 1950 3847 1778 3847 
z
" transform="scale(0.015625)"/>
      </defs>
      <use xlink:href="#OpenSans-Bold-32"/>
      <use xlink:href="#OpenSans-Bold-30" x="57.177734"/>
      <use xlink:href="#OpenSans-Bold-31" x="114.355469"/>
      <use xlink:href="#OpenSans-Bold-39" x="171.533203"/>
     </g>
    </g>
    <g id="patch_66">
     <path d="M 498.636409 96.883125 
L 518.636409 96.883125 
L 518.636409 89.883125 
L 498.636409 89.883125 
z
" style="fill: #354f95"/>
    </g>
    <g id="text_34">
     <!-- 2020 -->
     <g style="fill: #37539c" transform="translate(526.636409 96.883125) scale(0.1 -0.1)">
      <use xlink:href="#OpenSans-Bold-32"/>
      <use xlink:href="#OpenSans-Bold-30" x="57.177734"/>
      <use xlink:href="#OpenSans-Bold-32" x="114.355469"/>
      <use xlink:href="#OpenSans-Bold-30" x="171.533203"/>
     </g>
    </g>
   </g>
  </g>
  <g id="text_35">
   <!-- Magíster -->
   <g style="fill: #37539c" transform="translate(267.73125 22.060938) scale(0.1 -0.1)">
    <defs>
     <path id="OpenSans-Regular-4d" d="M 2634 0 
L 1100 4044 
L 1075 4044 
Q 1088 3916 1097 3731 
Q 1106 3547 1112 3330 
Q 1119 3113 1119 2888 
L 1119 0 
L 625 0 
L 625 4569 
L 1413 4569 
L 2859 769 
L 2881 769 
L 4350 4569 
L 5131 4569 
L 5131 0 
L 4606 0 
L 4606 2925 
Q 4606 3128 4612 3333 
Q 4619 3538 4628 3720 
Q 4638 3903 4647 4038 
L 4622 4038 
L 3069 0 
L 2634 0 
z
" transform="scale(0.015625)"/>
     <path id="OpenSans-Regular-61" d="M 1828 3481 
Q 2441 3481 2737 3206 
Q 3034 2931 3034 2328 
L 3034 0 
L 2656 0 
L 2556 506 
L 2531 506 
Q 2388 319 2231 192 
Q 2075 66 1870 1 
Q 1666 -63 1369 -63 
Q 1056 -63 814 46 
Q 572 156 433 378 
Q 294 600 294 941 
Q 294 1453 700 1728 
Q 1106 2003 1938 2028 
L 2528 2053 
L 2528 2263 
Q 2528 2706 2337 2884 
Q 2147 3063 1800 3063 
Q 1531 3063 1287 2984 
Q 1044 2906 825 2800 
L 666 3194 
Q 897 3313 1197 3397 
Q 1497 3481 1828 3481 
z
M 2522 1688 
L 2000 1666 
Q 1359 1641 1096 1456 
Q 834 1272 834 934 
Q 834 641 1012 500 
Q 1191 359 1484 359 
Q 1941 359 2231 612 
Q 2522 866 2522 1372 
L 2522 1688 
z
" transform="scale(0.015625)"/>
     <path id="OpenSans-Regular-67" d="M 1503 -1538 
Q 828 -1538 462 -1286 
Q 97 -1034 97 -581 
Q 97 -259 301 -31 
Q 506 197 869 272 
Q 734 334 639 459 
Q 544 584 544 747 
Q 544 934 648 1076 
Q 753 1219 969 1350 
Q 700 1459 533 1720 
Q 366 1981 366 2328 
Q 366 2697 519 2958 
Q 672 3219 962 3356 
Q 1253 3494 1666 3494 
Q 1756 3494 1848 3486 
Q 1941 3478 2025 3464 
Q 2109 3450 2172 3431 
L 3347 3431 
L 3347 3097 
L 2716 3019 
Q 2809 2897 2871 2725 
Q 2934 2553 2934 2344 
Q 2934 1831 2587 1529 
Q 2241 1228 1634 1228 
Q 1491 1228 1341 1253 
Q 1188 1169 1108 1066 
Q 1028 963 1028 828 
Q 1028 728 1089 668 
Q 1150 609 1265 582 
Q 1381 556 1544 556 
L 2147 556 
Q 2706 556 3004 322 
Q 3303 88 3303 -363 
Q 3303 -931 2840 -1234 
Q 2378 -1538 1503 -1538 
z
M 1519 -1131 
Q 1944 -1131 2223 -1045 
Q 2503 -959 2642 -798 
Q 2781 -638 2781 -416 
Q 2781 -209 2687 -104 
Q 2594 0 2412 36 
Q 2231 72 1969 72 
L 1375 72 
Q 1144 72 972 0 
Q 800 -72 708 -212 
Q 616 -353 616 -563 
Q 616 -841 850 -986 
Q 1084 -1131 1519 -1131 
z
M 1653 1606 
Q 2025 1606 2212 1793 
Q 2400 1981 2400 2341 
Q 2400 2725 2209 2917 
Q 2019 3109 1647 3109 
Q 1291 3109 1098 2911 
Q 906 2713 906 2331 
Q 906 1981 1100 1793 
Q 1294 1606 1653 1606 
z
" transform="scale(0.015625)"/>
     <path id="OpenSans-Regular-ed" d="M 1066 0 
L 547 0 
L 547 3425 
L 1066 3425 
L 1066 0 
z
M 1714 4903 
L 1714 4841 
Q 1651 4750 1543 4623 
Q 1436 4497 1304 4358 
Q 1173 4219 1040 4094 
Q 908 3969 795 3878 
L 448 3878 
L 448 3953 
Q 548 4072 667 4239 
Q 786 4406 898 4582 
Q 1011 4759 1086 4903 
L 1714 4903 
z
" transform="scale(0.015625)"/>
     <path id="OpenSans-Regular-73" d="M 2763 938 
Q 2763 609 2598 386 
Q 2434 163 2129 50 
Q 1825 -63 1403 -63 
Q 1044 -63 781 -6 
Q 519 50 322 153 
L 322 631 
Q 531 528 822 443 
Q 1113 359 1416 359 
Q 1859 359 2059 503 
Q 2259 647 2259 894 
Q 2259 1034 2179 1142 
Q 2100 1250 1912 1351 
Q 1725 1453 1394 1575 
Q 1066 1700 827 1823 
Q 588 1947 458 2125 
Q 328 2303 328 2588 
Q 328 3022 679 3255 
Q 1031 3488 1603 3488 
Q 1913 3488 2183 3427 
Q 2453 3366 2688 3263 
L 2513 2847 
Q 2300 2938 2059 3000 
Q 1819 3063 1569 3063 
Q 1209 3063 1017 2944 
Q 825 2825 825 2619 
Q 825 2459 914 2356 
Q 1003 2253 1200 2162 
Q 1397 2072 1719 1950 
Q 2041 1831 2275 1704 
Q 2509 1578 2636 1398 
Q 2763 1219 2763 938 
z
" transform="scale(0.015625)"/>
     <path id="OpenSans-Regular-74" d="M 1653 363 
Q 1781 363 1915 384 
Q 2050 406 2134 438 
L 2134 34 
Q 2044 -6 1883 -34 
Q 1722 -63 1569 -63 
Q 1297 -63 1075 32 
Q 853 128 720 356 
Q 588 584 588 988 
L 588 3019 
L 100 3019 
L 100 3272 
L 591 3475 
L 797 4219 
L 1109 4219 
L 1109 3425 
L 2113 3425 
L 2113 3019 
L 1109 3019 
L 1109 1003 
Q 1109 681 1257 522 
Q 1406 363 1653 363 
z
" transform="scale(0.015625)"/>
     <path id="OpenSans-Regular-65" d="M 1866 3488 
Q 2303 3488 2615 3294 
Q 2928 3100 3093 2751 
Q 3259 2403 3259 1938 
L 3259 1616 
L 894 1616 
Q 903 1013 1193 697 
Q 1484 381 2013 381 
Q 2338 381 2588 440 
Q 2838 500 3106 616 
L 3106 159 
Q 2847 44 2592 -9 
Q 2338 -63 1991 -63 
Q 1497 -63 1130 139 
Q 763 341 559 731 
Q 356 1122 356 1688 
Q 356 2241 542 2645 
Q 728 3050 1067 3269 
Q 1406 3488 1866 3488 
z
M 1859 3063 
Q 1444 3063 1197 2791 
Q 950 2519 903 2031 
L 2716 2031 
Q 2713 2338 2620 2570 
Q 2528 2803 2340 2933 
Q 2153 3063 1859 3063 
z
" transform="scale(0.015625)"/>
     <path id="OpenSans-Regular-72" d="M 2103 3488 
Q 2206 3488 2318 3477 
Q 2431 3466 2519 3447 
L 2453 2966 
Q 2369 2988 2266 3000 
Q 2163 3013 2072 3013 
Q 1866 3013 1683 2930 
Q 1500 2847 1362 2692 
Q 1225 2538 1147 2320 
Q 1069 2103 1069 1838 
L 1069 0 
L 547 0 
L 547 3425 
L 978 3425 
L 1034 2794 
L 1056 2794 
Q 1163 2984 1313 3142 
Q 1463 3300 1661 3394 
Q 1859 3488 2103 3488 
z
" transform="scale(0.015625)"/>
    </defs>
    <use xlink:href="#OpenSans-Regular-4d"/>
    <use xlink:href="#OpenSans-Regular-61" x="89.941406"/>
    <use xlink:href="#OpenSans-Regular-67" x="145.507812"/>
    <use xlink:href="#OpenSans-Regular-ed" x="199.804688"/>
    <use xlink:href="#OpenSans-Regular-73" x="225.048828"/>
    <use xlink:href="#OpenSans-Regular-74" x="272.705078"/>
    <use xlink:href="#OpenSans-Regular-65" x="308.349609"/>
    <use xlink:href="#OpenSans-Regular-72" x="364.501953"/>
   </g>
  </g>
 </g>
 <defs>
  <clipPath id="peeac5edbdf">
   <rect x="31.66" y="35.28" width="244.245159" height="175.111494"/>
  </clipPath>
  <clipPath id="ped096f59ee">
   <rect x="314.26" y="35.28" width="244.245159" height="175.111494"/>
  </clipPath>
 </defs>
</svg>
