<?xml version="1.0" encoding="utf-8" standalone="no"?>
<!DOCTYPE svg PUBLIC "-//W3C//DTD SVG 1.1//EN"
  "http://www.w3.org/Graphics/SVG/1.1/DTD/svg11.dtd">
<svg xmlns:xlink="http://www.w3.org/1999/xlink" width="648pt" height="288pt" viewBox="0 0 648 288" xmlns="http://www.w3.org/2000/svg" version="1.1">
 <metadata>
  <rdf:RDF xmlns:dc="http://purl.org/dc/elements/1.1/" xmlns:cc="http://creativecommons.org/ns#" xmlns:rdf="http://www.w3.org/1999/02/22-rdf-syntax-ns#">
   <cc:Work>
    <dc:type rdf:resource="http://purl.org/dc/dcmitype/StillImage"/>
    <dc:date>2024-02-22T18:19:54.609554</dc:date>
    <dc:format>image/svg+xml</dc:format>
    <dc:creator>
     <cc:Agent>
      <dc:title>Matplotlib v3.7.1, https://matplotlib.org/</dc:title>
     </cc:Agent>
    </dc:creator>
   </cc:Work>
  </rdf:RDF>
 </metadata>
 <defs>
  <style type="text/css">*{stroke-linejoin: round; stroke-linecap: butt}</style>
 </defs>
 <g id="figure_1">
  <g id="patch_1">
   <path d="M 0 288 
L 648 288 
L 648 0 
L 0 0 
z
" style="fill: #ffffff"/>
  </g>
  <g id="axes_1">
   <g id="patch_2">
    <path d="M 43.4 235.064 
L 637.2 235.064 
L 637.2 10.8 
L 43.4 10.8 
z
" style="fill: #ffffff"/>
   </g>
   <g id="matplotlib.axis_1">
    <g id="xtick_1">
     <g id="line2d_1">
      <defs>
       <path id="mb3ed71d384" d="M 0 0 
L 0 3.5 
" style="stroke: #37539c; stroke-width: 0.8"/>
      </defs>
      <g>
       <use xlink:href="#mb3ed71d384" x="102.78" y="235.064" style="fill: #37539c; stroke: #37539c; stroke-width: 0.8"/>
      </g>
     </g>
     <g id="text_1">
      <!-- Accede a documentales -->
      <g style="fill: #37539c" transform="translate(55.81625 248.14275) scale(0.08 -0.08)">
       <defs>
        <path id="OpenSans-Bold-41" d="M 3372 0 
L 3041 1088 
L 1375 1088 
L 1044 0 
L 0 0 
L 1613 4588 
L 2797 4588 
L 4416 0 
L 3372 0 
z
M 2809 1900 
L 2478 2963 
Q 2447 3069 2395 3236 
Q 2344 3403 2292 3576 
Q 2241 3750 2209 3878 
Q 2178 3750 2123 3561 
Q 2069 3372 2019 3203 
Q 1969 3034 1947 2963 
L 1619 1900 
L 2809 1900 
z
" transform="scale(0.015625)"/>
        <path id="OpenSans-Bold-63" d="M 1919 -63 
Q 1400 -63 1034 126 
Q 669 316 478 712 
Q 288 1109 288 1728 
Q 288 2369 505 2773 
Q 722 3178 1108 3368 
Q 1494 3559 2003 3559 
Q 2366 3559 2630 3489 
Q 2894 3419 3091 3322 
L 2809 2584 
Q 2584 2675 2390 2733 
Q 2197 2791 2003 2791 
Q 1753 2791 1587 2673 
Q 1422 2556 1340 2322 
Q 1259 2088 1259 1734 
Q 1259 1388 1346 1159 
Q 1434 931 1600 820 
Q 1766 709 2003 709 
Q 2300 709 2531 789 
Q 2763 869 2981 1013 
L 2981 197 
Q 2763 59 2523 -2 
Q 2284 -63 1919 -63 
z
" transform="scale(0.015625)"/>
        <path id="OpenSans-Bold-65" d="M 1941 3559 
Q 2425 3559 2775 3373 
Q 3125 3188 3315 2834 
Q 3506 2481 3506 1972 
L 3506 1509 
L 1253 1509 
Q 1269 1106 1495 876 
Q 1722 647 2125 647 
Q 2459 647 2737 715 
Q 3016 784 3309 922 
L 3309 184 
Q 3050 56 2767 -3 
Q 2484 -63 2081 -63 
Q 1556 -63 1151 131 
Q 747 325 517 722 
Q 288 1119 288 1722 
Q 288 2334 495 2742 
Q 703 3150 1075 3354 
Q 1447 3559 1941 3559 
z
M 1947 2881 
Q 1669 2881 1486 2703 
Q 1303 2525 1275 2144 
L 2613 2144 
Q 2609 2356 2536 2522 
Q 2463 2688 2317 2784 
Q 2172 2881 1947 2881 
z
" transform="scale(0.015625)"/>
        <path id="OpenSans-Bold-64" d="M 1606 -63 
Q 1022 -63 655 395 
Q 288 853 288 1741 
Q 288 2638 659 3098 
Q 1031 3559 1631 3559 
Q 1881 3559 2072 3490 
Q 2263 3422 2402 3306 
Q 2541 3191 2638 3047 
L 2669 3047 
Q 2650 3147 2623 3342 
Q 2597 3538 2597 3744 
L 2597 4863 
L 3553 4863 
L 3553 0 
L 2822 0 
L 2638 453 
L 2597 453 
Q 2506 309 2370 192 
Q 2234 75 2046 6 
Q 1859 -63 1606 -63 
z
M 1941 697 
Q 2331 697 2492 930 
Q 2653 1163 2663 1631 
L 2663 1734 
Q 2663 2244 2506 2514 
Q 2350 2784 1925 2784 
Q 1609 2784 1431 2512 
Q 1253 2241 1253 1728 
Q 1253 1216 1433 956 
Q 1613 697 1941 697 
z
" transform="scale(0.015625)"/>
        <path id="OpenSans-Bold-20" transform="scale(0.015625)"/>
        <path id="OpenSans-Bold-61" d="M 1931 3566 
Q 2634 3566 3009 3259 
Q 3384 2953 3384 2328 
L 3384 0 
L 2719 0 
L 2534 475 
L 2509 475 
Q 2359 288 2203 169 
Q 2047 50 1844 -6 
Q 1641 -63 1350 -63 
Q 1041 -63 795 56 
Q 550 175 409 420 
Q 269 666 269 1044 
Q 269 1600 659 1864 
Q 1050 2128 1831 2156 
L 2438 2175 
L 2438 2328 
Q 2438 2603 2294 2731 
Q 2150 2859 1894 2859 
Q 1641 2859 1397 2787 
Q 1153 2716 909 2606 
L 594 3250 
Q 872 3397 1217 3481 
Q 1563 3566 1931 3566 
z
M 2438 1619 
L 2069 1606 
Q 1606 1594 1426 1441 
Q 1247 1288 1247 1038 
Q 1247 819 1375 726 
Q 1503 634 1709 634 
Q 2016 634 2227 815 
Q 2438 997 2438 1331 
L 2438 1619 
z
" transform="scale(0.015625)"/>
        <path id="OpenSans-Bold-6f" d="M 3675 1753 
Q 3675 1316 3558 978 
Q 3441 641 3217 408 
Q 2994 175 2680 56 
Q 2366 -63 1972 -63 
Q 1603 -63 1295 56 
Q 988 175 761 408 
Q 534 641 411 978 
Q 288 1316 288 1753 
Q 288 2334 494 2737 
Q 700 3141 1081 3350 
Q 1463 3559 1991 3559 
Q 2481 3559 2861 3350 
Q 3241 3141 3458 2737 
Q 3675 2334 3675 1753 
z
M 1259 1753 
Q 1259 1409 1334 1175 
Q 1409 941 1568 822 
Q 1728 703 1984 703 
Q 2238 703 2395 822 
Q 2553 941 2626 1175 
Q 2700 1409 2700 1753 
Q 2700 2100 2626 2329 
Q 2553 2559 2393 2675 
Q 2234 2791 1978 2791 
Q 1600 2791 1429 2531 
Q 1259 2272 1259 1753 
z
" transform="scale(0.015625)"/>
        <path id="OpenSans-Bold-75" d="M 3706 3494 
L 3706 0 
L 2975 0 
L 2847 447 
L 2797 447 
Q 2684 269 2515 156 
Q 2347 44 2144 -9 
Q 1941 -63 1722 -63 
Q 1347 -63 1069 70 
Q 791 203 636 484 
Q 481 766 481 1216 
L 481 3494 
L 1434 3494 
L 1434 1453 
Q 1434 1078 1568 887 
Q 1703 697 1997 697 
Q 2288 697 2453 830 
Q 2619 963 2686 1220 
Q 2753 1478 2753 1850 
L 2753 3494 
L 3706 3494 
z
" transform="scale(0.015625)"/>
        <path id="OpenSans-Bold-6d" d="M 4603 3559 
Q 5197 3559 5501 3254 
Q 5806 2950 5806 2278 
L 5806 0 
L 4850 0 
L 4850 2041 
Q 4850 2416 4722 2606 
Q 4594 2797 4325 2797 
Q 3947 2797 3787 2526 
Q 3628 2256 3628 1753 
L 3628 0 
L 2675 0 
L 2675 2041 
Q 2675 2291 2619 2459 
Q 2563 2628 2447 2712 
Q 2331 2797 2150 2797 
Q 1884 2797 1732 2664 
Q 1581 2531 1517 2273 
Q 1453 2016 1453 1644 
L 1453 0 
L 500 0 
L 500 3494 
L 1228 3494 
L 1356 3047 
L 1409 3047 
Q 1516 3228 1677 3340 
Q 1838 3453 2031 3506 
Q 2225 3559 2425 3559 
Q 2809 3559 3076 3434 
Q 3344 3309 3488 3047 
L 3572 3047 
Q 3728 3316 4014 3437 
Q 4300 3559 4603 3559 
z
" transform="scale(0.015625)"/>
        <path id="OpenSans-Bold-6e" d="M 2484 3559 
Q 3044 3559 3384 3254 
Q 3725 2950 3725 2278 
L 3725 0 
L 2772 0 
L 2772 2041 
Q 2772 2416 2636 2606 
Q 2500 2797 2209 2797 
Q 1772 2797 1612 2500 
Q 1453 2203 1453 1644 
L 1453 0 
L 500 0 
L 500 3494 
L 1228 3494 
L 1356 3047 
L 1409 3047 
Q 1522 3228 1689 3340 
Q 1856 3453 2061 3506 
Q 2266 3559 2484 3559 
z
" transform="scale(0.015625)"/>
        <path id="OpenSans-Bold-74" d="M 1972 697 
Q 2128 697 2276 728 
Q 2425 759 2572 806 
L 2572 97 
Q 2419 28 2192 -17 
Q 1966 -63 1697 -63 
Q 1384 -63 1136 39 
Q 888 141 745 392 
Q 603 644 603 1094 
L 603 2778 
L 147 2778 
L 147 3181 
L 672 3500 
L 947 4238 
L 1556 4238 
L 1556 3494 
L 2534 3494 
L 2534 2778 
L 1556 2778 
L 1556 1094 
Q 1556 894 1670 795 
Q 1784 697 1972 697 
z
" transform="scale(0.015625)"/>
        <path id="OpenSans-Bold-6c" d="M 1453 0 
L 500 0 
L 500 4863 
L 1453 4863 
L 1453 0 
z
" transform="scale(0.015625)"/>
        <path id="OpenSans-Bold-73" d="M 2938 1038 
Q 2938 681 2770 436 
Q 2603 191 2272 64 
Q 1941 -63 1447 -63 
Q 1081 -63 820 -16 
Q 559 31 294 141 
L 294 928 
Q 578 800 904 717 
Q 1231 634 1478 634 
Q 1756 634 1876 717 
Q 1997 800 1997 934 
Q 1997 1022 1948 1092 
Q 1900 1163 1740 1252 
Q 1581 1341 1241 1484 
Q 913 1622 702 1762 
Q 491 1903 389 2095 
Q 288 2288 288 2584 
Q 288 3069 664 3314 
Q 1041 3559 1672 3559 
Q 1997 3559 2292 3493 
Q 2588 3428 2900 3284 
L 2613 2597 
Q 2353 2709 2123 2781 
Q 1894 2853 1656 2853 
Q 1447 2853 1340 2797 
Q 1234 2741 1234 2625 
Q 1234 2541 1289 2475 
Q 1344 2409 1501 2329 
Q 1659 2250 1966 2125 
Q 2263 2003 2481 1870 
Q 2700 1738 2819 1542 
Q 2938 1347 2938 1038 
z
" transform="scale(0.015625)"/>
       </defs>
       <use xlink:href="#OpenSans-Bold-41"/>
       <use xlink:href="#OpenSans-Bold-63" x="68.994141"/>
       <use xlink:href="#OpenSans-Bold-63" x="120.410156"/>
       <use xlink:href="#OpenSans-Bold-65" x="171.826172"/>
       <use xlink:href="#OpenSans-Bold-64" x="230.908203"/>
       <use xlink:href="#OpenSans-Bold-65" x="294.189453"/>
       <use xlink:href="#OpenSans-Bold-20" x="353.271484"/>
       <use xlink:href="#OpenSans-Bold-61" x="379.248047"/>
       <use xlink:href="#OpenSans-Bold-20" x="439.648438"/>
       <use xlink:href="#OpenSans-Bold-64" x="465.625"/>
       <use xlink:href="#OpenSans-Bold-6f" x="528.90625"/>
       <use xlink:href="#OpenSans-Bold-63" x="590.820312"/>
       <use xlink:href="#OpenSans-Bold-75" x="642.236328"/>
       <use xlink:href="#OpenSans-Bold-6d" x="707.958984"/>
       <use xlink:href="#OpenSans-Bold-65" x="806.152344"/>
       <use xlink:href="#OpenSans-Bold-6e" x="865.234375"/>
       <use xlink:href="#OpenSans-Bold-74" x="930.957031"/>
       <use xlink:href="#OpenSans-Bold-61" x="974.365234"/>
       <use xlink:href="#OpenSans-Bold-6c" x="1034.765625"/>
       <use xlink:href="#OpenSans-Bold-65" x="1065.283203"/>
       <use xlink:href="#OpenSans-Bold-73" x="1124.365234"/>
      </g>
      <!-- por televisión o internet -->
      <g style="fill: #37539c" transform="translate(54.37375 257.41975) scale(0.08 -0.08)">
       <defs>
        <path id="OpenSans-Bold-70" d="M 2444 3559 
Q 3034 3559 3398 3100 
Q 3763 2641 3763 1753 
Q 3763 1159 3591 754 
Q 3419 350 3116 143 
Q 2813 -63 2419 -63 
Q 2166 -63 1984 1 
Q 1803 66 1675 167 
Q 1547 269 1453 384 
L 1403 384 
Q 1428 259 1440 128 
Q 1453 -3 1453 -128 
L 1453 -1538 
L 500 -1538 
L 500 3494 
L 1275 3494 
L 1409 3041 
L 1453 3041 
Q 1547 3181 1681 3300 
Q 1816 3419 2005 3489 
Q 2194 3559 2444 3559 
z
M 2138 2797 
Q 1888 2797 1741 2694 
Q 1594 2591 1526 2384 
Q 1459 2178 1453 1863 
L 1453 1759 
Q 1453 1422 1517 1187 
Q 1581 953 1732 831 
Q 1884 709 2150 709 
Q 2369 709 2509 831 
Q 2650 953 2720 1189 
Q 2791 1425 2791 1766 
Q 2791 2278 2631 2537 
Q 2472 2797 2138 2797 
z
" transform="scale(0.015625)"/>
        <path id="OpenSans-Bold-72" d="M 2450 3559 
Q 2522 3559 2617 3551 
Q 2713 3544 2772 3531 
L 2700 2638 
Q 2653 2653 2567 2661 
Q 2481 2669 2419 2669 
Q 2234 2669 2061 2622 
Q 1888 2575 1750 2470 
Q 1613 2366 1533 2195 
Q 1453 2025 1453 1778 
L 1453 0 
L 500 0 
L 500 3494 
L 1222 3494 
L 1363 2906 
L 1409 2906 
Q 1513 3084 1667 3232 
Q 1822 3381 2020 3470 
Q 2219 3559 2450 3559 
z
" transform="scale(0.015625)"/>
        <path id="OpenSans-Bold-76" d="M 1331 0 
L 0 3494 
L 997 3494 
L 1672 1503 
Q 1728 1328 1761 1134 
Q 1794 941 1806 788 
L 1831 788 
Q 1841 953 1877 1140 
Q 1913 1328 1972 1503 
L 2644 3494 
L 3641 3494 
L 2309 0 
L 1331 0 
z
" transform="scale(0.015625)"/>
        <path id="OpenSans-Bold-69" d="M 1453 3494 
L 1453 0 
L 500 0 
L 500 3494 
L 1453 3494 
z
M 978 4863 
Q 1191 4863 1344 4764 
Q 1497 4666 1497 4397 
Q 1497 4131 1344 4029 
Q 1191 3928 978 3928 
Q 763 3928 611 4029 
Q 459 4131 459 4397 
Q 459 4666 611 4764 
Q 763 4863 978 4863 
z
" transform="scale(0.015625)"/>
        <path id="OpenSans-Bold-f3" d="M 3675 1753 
Q 3675 1316 3558 978 
Q 3441 641 3217 408 
Q 2994 175 2680 56 
Q 2366 -63 1972 -63 
Q 1603 -63 1295 56 
Q 988 175 761 408 
Q 534 641 411 978 
Q 288 1316 288 1753 
Q 288 2334 494 2737 
Q 700 3141 1081 3350 
Q 1463 3559 1991 3559 
Q 2481 3559 2861 3350 
Q 3241 3141 3458 2737 
Q 3675 2334 3675 1753 
z
M 1259 1753 
Q 1259 1409 1334 1175 
Q 1409 941 1568 822 
Q 1728 703 1984 703 
Q 2238 703 2395 822 
Q 2553 941 2626 1175 
Q 2700 1409 2700 1753 
Q 2700 2100 2626 2329 
Q 2553 2559 2393 2675 
Q 2234 2791 1978 2791 
Q 1600 2791 1429 2531 
Q 1259 2272 1259 1753 
z
M 3211 4903 
L 3211 4838 
Q 3121 4750 2974 4622 
Q 2827 4494 2658 4355 
Q 2490 4216 2327 4089 
Q 2165 3963 2043 3878 
L 1408 3878 
L 1408 3963 
Q 1511 4081 1647 4245 
Q 1783 4409 1917 4584 
Q 2052 4759 2143 4903 
L 3211 4903 
z
" transform="scale(0.015625)"/>
       </defs>
       <use xlink:href="#OpenSans-Bold-70"/>
       <use xlink:href="#OpenSans-Bold-6f" x="63.28125"/>
       <use xlink:href="#OpenSans-Bold-72" x="125.195312"/>
       <use xlink:href="#OpenSans-Bold-20" x="170.605469"/>
       <use xlink:href="#OpenSans-Bold-74" x="196.582031"/>
       <use xlink:href="#OpenSans-Bold-65" x="239.990234"/>
       <use xlink:href="#OpenSans-Bold-6c" x="299.072266"/>
       <use xlink:href="#OpenSans-Bold-65" x="329.589844"/>
       <use xlink:href="#OpenSans-Bold-76" x="388.671875"/>
       <use xlink:href="#OpenSans-Bold-69" x="445.556641"/>
       <use xlink:href="#OpenSans-Bold-73" x="476.074219"/>
       <use xlink:href="#OpenSans-Bold-69" x="525.78125"/>
       <use xlink:href="#OpenSans-Bold-f3" x="556.298828"/>
       <use xlink:href="#OpenSans-Bold-6e" x="618.212891"/>
       <use xlink:href="#OpenSans-Bold-20" x="683.935547"/>
       <use xlink:href="#OpenSans-Bold-6f" x="709.912109"/>
       <use xlink:href="#OpenSans-Bold-20" x="771.826172"/>
       <use xlink:href="#OpenSans-Bold-69" x="797.802734"/>
       <use xlink:href="#OpenSans-Bold-6e" x="828.320312"/>
       <use xlink:href="#OpenSans-Bold-74" x="894.042969"/>
       <use xlink:href="#OpenSans-Bold-65" x="937.451172"/>
       <use xlink:href="#OpenSans-Bold-72" x="996.533203"/>
       <use xlink:href="#OpenSans-Bold-6e" x="1041.943359"/>
       <use xlink:href="#OpenSans-Bold-65" x="1107.666016"/>
       <use xlink:href="#OpenSans-Bold-74" x="1166.748047"/>
      </g>
     </g>
    </g>
    <g id="xtick_2">
     <g id="line2d_2">
      <g>
       <use xlink:href="#mb3ed71d384" x="221.54" y="235.064" style="fill: #37539c; stroke: #37539c; stroke-width: 0.8"/>
      </g>
     </g>
     <g id="text_2">
      <!-- Utiliza Redes Sociales o -->
      <g style="fill: #37539c" transform="translate(175.32375 248.14275) scale(0.08 -0.08)">
       <defs>
        <path id="OpenSans-Bold-55" d="M 4294 4569 
L 4294 1613 
Q 4294 1141 4086 761 
Q 3878 381 3458 159 
Q 3038 -63 2400 -63 
Q 1494 -63 1019 400 
Q 544 863 544 1625 
L 544 4569 
L 1509 4569 
L 1509 1772 
Q 1509 1206 1740 978 
Q 1972 750 2425 750 
Q 2744 750 2942 859 
Q 3141 969 3234 1197 
Q 3328 1425 3328 1778 
L 3328 4569 
L 4294 4569 
z
" transform="scale(0.015625)"/>
        <path id="OpenSans-Bold-7a" d="M 2931 0 
L 172 0 
L 172 563 
L 1791 2766 
L 269 2766 
L 269 3494 
L 2875 3494 
L 2875 2875 
L 1300 728 
L 2931 728 
L 2931 0 
z
" transform="scale(0.015625)"/>
        <path id="OpenSans-Bold-52" d="M 1906 4569 
Q 2528 4569 2933 4419 
Q 3338 4269 3534 3966 
Q 3731 3663 3731 3200 
Q 3731 2888 3612 2653 
Q 3494 2419 3300 2256 
Q 3106 2094 2881 1991 
L 4225 0 
L 3150 0 
L 2059 1753 
L 1544 1753 
L 1544 0 
L 575 0 
L 575 4569 
L 1906 4569 
z
M 1838 3775 
L 1544 3775 
L 1544 2541 
L 1856 2541 
Q 2338 2541 2545 2702 
Q 2753 2863 2753 3175 
Q 2753 3500 2529 3637 
Q 2306 3775 1838 3775 
z
" transform="scale(0.015625)"/>
        <path id="OpenSans-Bold-53" d="M 3272 1269 
Q 3272 863 3075 563 
Q 2878 263 2501 100 
Q 2125 -63 1588 -63 
Q 1350 -63 1123 -31 
Q 897 0 689 61 
Q 481 122 294 213 
L 294 1113 
Q 619 969 969 853 
Q 1319 738 1663 738 
Q 1900 738 2045 800 
Q 2191 863 2256 972 
Q 2322 1081 2322 1222 
Q 2322 1394 2206 1516 
Q 2091 1638 1889 1744 
Q 1688 1850 1434 1972 
Q 1275 2047 1087 2155 
Q 900 2263 731 2419 
Q 563 2575 455 2798 
Q 347 3022 347 3334 
Q 347 3744 534 4034 
Q 722 4325 1070 4479 
Q 1419 4634 1894 4634 
Q 2250 4634 2573 4551 
Q 2897 4469 3250 4313 
L 2938 3559 
Q 2622 3688 2372 3758 
Q 2122 3828 1863 3828 
Q 1681 3828 1553 3770 
Q 1425 3713 1359 3608 
Q 1294 3503 1294 3366 
Q 1294 3203 1389 3092 
Q 1484 2981 1676 2878 
Q 1869 2775 2156 2638 
Q 2506 2472 2754 2292 
Q 3003 2113 3137 1870 
Q 3272 1628 3272 1269 
z
" transform="scale(0.015625)"/>
       </defs>
       <use xlink:href="#OpenSans-Bold-55"/>
       <use xlink:href="#OpenSans-Bold-74" x="75.585938"/>
       <use xlink:href="#OpenSans-Bold-69" x="118.994141"/>
       <use xlink:href="#OpenSans-Bold-6c" x="149.511719"/>
       <use xlink:href="#OpenSans-Bold-69" x="180.029297"/>
       <use xlink:href="#OpenSans-Bold-7a" x="210.546875"/>
       <use xlink:href="#OpenSans-Bold-61" x="259.326172"/>
       <use xlink:href="#OpenSans-Bold-20" x="319.726562"/>
       <use xlink:href="#OpenSans-Bold-52" x="345.703125"/>
       <use xlink:href="#OpenSans-Bold-65" x="411.71875"/>
       <use xlink:href="#OpenSans-Bold-64" x="470.800781"/>
       <use xlink:href="#OpenSans-Bold-65" x="534.082031"/>
       <use xlink:href="#OpenSans-Bold-73" x="593.164062"/>
       <use xlink:href="#OpenSans-Bold-20" x="642.871094"/>
       <use xlink:href="#OpenSans-Bold-53" x="668.847656"/>
       <use xlink:href="#OpenSans-Bold-6f" x="723.925781"/>
       <use xlink:href="#OpenSans-Bold-63" x="785.839844"/>
       <use xlink:href="#OpenSans-Bold-69" x="837.255859"/>
       <use xlink:href="#OpenSans-Bold-61" x="867.773438"/>
       <use xlink:href="#OpenSans-Bold-6c" x="928.173828"/>
       <use xlink:href="#OpenSans-Bold-65" x="958.691406"/>
       <use xlink:href="#OpenSans-Bold-73" x="1017.773438"/>
       <use xlink:href="#OpenSans-Bold-20" x="1067.480469"/>
       <use xlink:href="#OpenSans-Bold-6f" x="1093.457031"/>
      </g>
      <!-- buscadores de internet -->
      <g style="fill: #37539c" transform="translate(175.276875 257.35975) scale(0.08 -0.08)">
       <defs>
        <path id="OpenSans-Bold-62" d="M 1453 4863 
L 1453 3731 
Q 1453 3534 1442 3340 
Q 1431 3147 1416 3041 
L 1453 3041 
Q 1591 3256 1828 3407 
Q 2066 3559 2444 3559 
Q 3031 3559 3397 3100 
Q 3763 2641 3763 1753 
Q 3763 1156 3594 751 
Q 3425 347 3122 142 
Q 2819 -63 2419 -63 
Q 2034 -63 1812 75 
Q 1591 213 1453 384 
L 1388 384 
L 1228 0 
L 500 0 
L 500 4863 
L 1453 4863 
z
M 2138 2797 
Q 1888 2797 1741 2694 
Q 1594 2591 1526 2384 
Q 1459 2178 1453 1863 
L 1453 1759 
Q 1453 1250 1603 979 
Q 1753 709 2150 709 
Q 2444 709 2617 981 
Q 2791 1253 2791 1766 
Q 2791 2278 2616 2537 
Q 2441 2797 2138 2797 
z
" transform="scale(0.015625)"/>
       </defs>
       <use xlink:href="#OpenSans-Bold-62"/>
       <use xlink:href="#OpenSans-Bold-75" x="63.28125"/>
       <use xlink:href="#OpenSans-Bold-73" x="129.003906"/>
       <use xlink:href="#OpenSans-Bold-63" x="178.710938"/>
       <use xlink:href="#OpenSans-Bold-61" x="230.126953"/>
       <use xlink:href="#OpenSans-Bold-64" x="290.527344"/>
       <use xlink:href="#OpenSans-Bold-6f" x="353.808594"/>
       <use xlink:href="#OpenSans-Bold-72" x="415.722656"/>
       <use xlink:href="#OpenSans-Bold-65" x="461.132812"/>
       <use xlink:href="#OpenSans-Bold-73" x="520.214844"/>
       <use xlink:href="#OpenSans-Bold-20" x="569.921875"/>
       <use xlink:href="#OpenSans-Bold-64" x="595.898438"/>
       <use xlink:href="#OpenSans-Bold-65" x="659.179688"/>
       <use xlink:href="#OpenSans-Bold-20" x="718.261719"/>
       <use xlink:href="#OpenSans-Bold-69" x="744.238281"/>
       <use xlink:href="#OpenSans-Bold-6e" x="774.755859"/>
       <use xlink:href="#OpenSans-Bold-74" x="840.478516"/>
       <use xlink:href="#OpenSans-Bold-65" x="883.886719"/>
       <use xlink:href="#OpenSans-Bold-72" x="942.96875"/>
       <use xlink:href="#OpenSans-Bold-6e" x="988.378906"/>
       <use xlink:href="#OpenSans-Bold-65" x="1054.101562"/>
       <use xlink:href="#OpenSans-Bold-74" x="1113.183594"/>
      </g>
      <!-- para acceder a -->
      <g style="fill: #37539c" transform="translate(192.26125 266.57675) scale(0.08 -0.08)">
       <use xlink:href="#OpenSans-Bold-70"/>
       <use xlink:href="#OpenSans-Bold-61" x="63.28125"/>
       <use xlink:href="#OpenSans-Bold-72" x="123.681641"/>
       <use xlink:href="#OpenSans-Bold-61" x="169.091797"/>
       <use xlink:href="#OpenSans-Bold-20" x="229.492188"/>
       <use xlink:href="#OpenSans-Bold-61" x="255.46875"/>
       <use xlink:href="#OpenSans-Bold-63" x="315.869141"/>
       <use xlink:href="#OpenSans-Bold-63" x="367.285156"/>
       <use xlink:href="#OpenSans-Bold-65" x="418.701172"/>
       <use xlink:href="#OpenSans-Bold-64" x="477.783203"/>
       <use xlink:href="#OpenSans-Bold-65" x="541.064453"/>
       <use xlink:href="#OpenSans-Bold-72" x="600.146484"/>
       <use xlink:href="#OpenSans-Bold-20" x="645.556641"/>
       <use xlink:href="#OpenSans-Bold-61" x="671.533203"/>
      </g>
      <!-- información sobre CTCI -->
      <g style="fill: #37539c" transform="translate(175.129375 275.79375) scale(0.08 -0.08)">
       <defs>
        <path id="OpenSans-Bold-66" d="M 2431 2778 
L 1606 2778 
L 1606 0 
L 653 0 
L 653 2778 
L 128 2778 
L 128 3238 
L 653 3494 
L 653 3750 
Q 653 4197 804 4445 
Q 956 4694 1232 4795 
Q 1509 4897 1888 4897 
Q 2166 4897 2394 4851 
Q 2622 4806 2766 4750 
L 2522 4050 
Q 2413 4084 2284 4112 
Q 2156 4141 1991 4141 
Q 1791 4141 1698 4020 
Q 1606 3900 1606 3713 
L 1606 3494 
L 2431 3494 
L 2431 2778 
z
" transform="scale(0.015625)"/>
        <path id="OpenSans-Bold-43" d="M 2516 3828 
Q 2238 3828 2023 3720 
Q 1809 3613 1664 3409 
Q 1519 3206 1444 2918 
Q 1369 2631 1369 2272 
Q 1369 1788 1489 1445 
Q 1609 1103 1862 923 
Q 2116 744 2516 744 
Q 2794 744 3073 806 
Q 3353 869 3681 984 
L 3681 172 
Q 3378 47 3084 -8 
Q 2791 -63 2425 -63 
Q 1719 -63 1264 229 
Q 809 522 590 1048 
Q 372 1575 372 2278 
Q 372 2797 512 3228 
Q 653 3659 925 3975 
Q 1197 4291 1597 4462 
Q 1997 4634 2516 4634 
Q 2856 4634 3198 4548 
Q 3541 4463 3853 4313 
L 3541 3525 
Q 3284 3647 3025 3737 
Q 2766 3828 2516 3828 
z
" transform="scale(0.015625)"/>
        <path id="OpenSans-Bold-54" d="M 2338 0 
L 1369 0 
L 1369 3763 
L 128 3763 
L 128 4569 
L 3578 4569 
L 3578 3763 
L 2338 3763 
L 2338 0 
z
" transform="scale(0.015625)"/>
        <path id="OpenSans-Bold-49" d="M 575 0 
L 575 4569 
L 1544 4569 
L 1544 0 
L 575 0 
z
" transform="scale(0.015625)"/>
       </defs>
       <use xlink:href="#OpenSans-Bold-69"/>
       <use xlink:href="#OpenSans-Bold-6e" x="30.517578"/>
       <use xlink:href="#OpenSans-Bold-66" x="96.240234"/>
       <use xlink:href="#OpenSans-Bold-6f" x="134.960938"/>
       <use xlink:href="#OpenSans-Bold-72" x="196.875"/>
       <use xlink:href="#OpenSans-Bold-6d" x="242.285156"/>
       <use xlink:href="#OpenSans-Bold-61" x="340.478516"/>
       <use xlink:href="#OpenSans-Bold-63" x="400.878906"/>
       <use xlink:href="#OpenSans-Bold-69" x="452.294922"/>
       <use xlink:href="#OpenSans-Bold-f3" x="482.8125"/>
       <use xlink:href="#OpenSans-Bold-6e" x="544.726562"/>
       <use xlink:href="#OpenSans-Bold-20" x="610.449219"/>
       <use xlink:href="#OpenSans-Bold-73" x="636.425781"/>
       <use xlink:href="#OpenSans-Bold-6f" x="686.132812"/>
       <use xlink:href="#OpenSans-Bold-62" x="748.046875"/>
       <use xlink:href="#OpenSans-Bold-72" x="811.328125"/>
       <use xlink:href="#OpenSans-Bold-65" x="856.738281"/>
       <use xlink:href="#OpenSans-Bold-20" x="915.820312"/>
       <use xlink:href="#OpenSans-Bold-43" x="941.796875"/>
       <use xlink:href="#OpenSans-Bold-54" x="1005.517578"/>
       <use xlink:href="#OpenSans-Bold-43" x="1063.427734"/>
       <use xlink:href="#OpenSans-Bold-49" x="1127.148438"/>
      </g>
     </g>
    </g>
    <g id="xtick_3">
     <g id="line2d_3">
      <g>
       <use xlink:href="#mb3ed71d384" x="340.3" y="235.064" style="fill: #37539c; stroke: #37539c; stroke-width: 0.8"/>
      </g>
     </g>
     <g id="text_3">
      <!-- Conversa con familiares o -->
      <g style="fill: #37539c" transform="translate(288.890625 248.14275) scale(0.08 -0.08)">
       <use xlink:href="#OpenSans-Bold-43"/>
       <use xlink:href="#OpenSans-Bold-6f" x="63.720703"/>
       <use xlink:href="#OpenSans-Bold-6e" x="125.634766"/>
       <use xlink:href="#OpenSans-Bold-76" x="191.357422"/>
       <use xlink:href="#OpenSans-Bold-65" x="248.242188"/>
       <use xlink:href="#OpenSans-Bold-72" x="307.324219"/>
       <use xlink:href="#OpenSans-Bold-73" x="352.734375"/>
       <use xlink:href="#OpenSans-Bold-61" x="402.441406"/>
       <use xlink:href="#OpenSans-Bold-20" x="462.841797"/>
       <use xlink:href="#OpenSans-Bold-63" x="488.818359"/>
       <use xlink:href="#OpenSans-Bold-6f" x="540.234375"/>
       <use xlink:href="#OpenSans-Bold-6e" x="602.148438"/>
       <use xlink:href="#OpenSans-Bold-20" x="667.871094"/>
       <use xlink:href="#OpenSans-Bold-66" x="693.847656"/>
       <use xlink:href="#OpenSans-Bold-61" x="732.568359"/>
       <use xlink:href="#OpenSans-Bold-6d" x="792.96875"/>
       <use xlink:href="#OpenSans-Bold-69" x="891.162109"/>
       <use xlink:href="#OpenSans-Bold-6c" x="921.679688"/>
       <use xlink:href="#OpenSans-Bold-69" x="952.197266"/>
       <use xlink:href="#OpenSans-Bold-61" x="982.714844"/>
       <use xlink:href="#OpenSans-Bold-72" x="1043.115234"/>
       <use xlink:href="#OpenSans-Bold-65" x="1088.525391"/>
       <use xlink:href="#OpenSans-Bold-73" x="1147.607422"/>
       <use xlink:href="#OpenSans-Bold-20" x="1197.314453"/>
       <use xlink:href="#OpenSans-Bold-6f" x="1223.291016"/>
      </g>
      <!-- colegas sobre CTCI -->
      <g style="fill: #37539c" transform="translate(303.525625 257.35975) scale(0.08 -0.08)">
       <defs>
        <path id="OpenSans-Bold-67" d="M 1522 -1538 
Q 791 -1538 405 -1283 
Q 19 -1028 19 -569 
Q 19 -253 216 -40 
Q 413 172 794 263 
Q 647 325 537 467 
Q 428 609 428 769 
Q 428 969 543 1101 
Q 659 1234 878 1363 
Q 603 1481 442 1743 
Q 281 2006 281 2363 
Q 281 2744 448 3011 
Q 616 3278 936 3418 
Q 1256 3559 1716 3559 
Q 1813 3559 1941 3546 
Q 2069 3534 2176 3518 
Q 2284 3503 2322 3494 
L 3541 3494 
L 3541 3009 
L 2994 2869 
Q 3069 2753 3106 2622 
Q 3144 2491 3144 2344 
Q 3144 1781 2751 1467 
Q 2359 1153 1663 1153 
Q 1497 1163 1350 1178 
Q 1278 1122 1240 1059 
Q 1203 997 1203 928 
Q 1203 859 1261 814 
Q 1319 769 1436 745 
Q 1553 722 1728 722 
L 2322 722 
Q 2897 722 3198 475 
Q 3500 228 3500 -250 
Q 3500 -863 2989 -1200 
Q 2478 -1538 1522 -1538 
z
M 1563 -916 
Q 1903 -916 2148 -852 
Q 2394 -788 2525 -670 
Q 2656 -553 2656 -391 
Q 2656 -259 2579 -182 
Q 2503 -106 2348 -75 
Q 2194 -44 1953 -44 
L 1459 -44 
Q 1284 -44 1145 -100 
Q 1006 -156 925 -257 
Q 844 -359 844 -494 
Q 844 -691 1033 -803 
Q 1222 -916 1563 -916 
z
M 1716 1734 
Q 1984 1734 2109 1900 
Q 2234 2066 2234 2350 
Q 2234 2666 2104 2823 
Q 1975 2981 1716 2981 
Q 1453 2981 1322 2823 
Q 1191 2666 1191 2350 
Q 1191 2066 1320 1900 
Q 1450 1734 1716 1734 
z
" transform="scale(0.015625)"/>
       </defs>
       <use xlink:href="#OpenSans-Bold-63"/>
       <use xlink:href="#OpenSans-Bold-6f" x="51.416016"/>
       <use xlink:href="#OpenSans-Bold-6c" x="113.330078"/>
       <use xlink:href="#OpenSans-Bold-65" x="143.847656"/>
       <use xlink:href="#OpenSans-Bold-67" x="202.929688"/>
       <use xlink:href="#OpenSans-Bold-61" x="259.423828"/>
       <use xlink:href="#OpenSans-Bold-73" x="319.824219"/>
       <use xlink:href="#OpenSans-Bold-20" x="369.53125"/>
       <use xlink:href="#OpenSans-Bold-73" x="395.507812"/>
       <use xlink:href="#OpenSans-Bold-6f" x="445.214844"/>
       <use xlink:href="#OpenSans-Bold-62" x="507.128906"/>
       <use xlink:href="#OpenSans-Bold-72" x="570.410156"/>
       <use xlink:href="#OpenSans-Bold-65" x="615.820312"/>
       <use xlink:href="#OpenSans-Bold-20" x="674.902344"/>
       <use xlink:href="#OpenSans-Bold-43" x="700.878906"/>
       <use xlink:href="#OpenSans-Bold-54" x="764.599609"/>
       <use xlink:href="#OpenSans-Bold-43" x="822.509766"/>
       <use xlink:href="#OpenSans-Bold-49" x="886.230469"/>
      </g>
     </g>
    </g>
    <g id="xtick_4">
     <g id="line2d_4">
      <g>
       <use xlink:href="#mb3ed71d384" x="459.06" y="235.064" style="fill: #37539c; stroke: #37539c; stroke-width: 0.8"/>
      </g>
     </g>
     <g id="text_4">
      <!-- Accede a noticias de CTCI -->
      <g style="fill: #37539c" transform="translate(408.978125 248.14275) scale(0.08 -0.08)">
       <use xlink:href="#OpenSans-Bold-41"/>
       <use xlink:href="#OpenSans-Bold-63" x="68.994141"/>
       <use xlink:href="#OpenSans-Bold-63" x="120.410156"/>
       <use xlink:href="#OpenSans-Bold-65" x="171.826172"/>
       <use xlink:href="#OpenSans-Bold-64" x="230.908203"/>
       <use xlink:href="#OpenSans-Bold-65" x="294.189453"/>
       <use xlink:href="#OpenSans-Bold-20" x="353.271484"/>
       <use xlink:href="#OpenSans-Bold-61" x="379.248047"/>
       <use xlink:href="#OpenSans-Bold-20" x="439.648438"/>
       <use xlink:href="#OpenSans-Bold-6e" x="465.625"/>
       <use xlink:href="#OpenSans-Bold-6f" x="531.347656"/>
       <use xlink:href="#OpenSans-Bold-74" x="593.261719"/>
       <use xlink:href="#OpenSans-Bold-69" x="636.669922"/>
       <use xlink:href="#OpenSans-Bold-63" x="667.1875"/>
       <use xlink:href="#OpenSans-Bold-69" x="718.603516"/>
       <use xlink:href="#OpenSans-Bold-61" x="749.121094"/>
       <use xlink:href="#OpenSans-Bold-73" x="809.521484"/>
       <use xlink:href="#OpenSans-Bold-20" x="859.228516"/>
       <use xlink:href="#OpenSans-Bold-64" x="885.205078"/>
       <use xlink:href="#OpenSans-Bold-65" x="948.486328"/>
       <use xlink:href="#OpenSans-Bold-20" x="1007.568359"/>
       <use xlink:href="#OpenSans-Bold-43" x="1033.544922"/>
       <use xlink:href="#OpenSans-Bold-54" x="1097.265625"/>
       <use xlink:href="#OpenSans-Bold-43" x="1155.175781"/>
       <use xlink:href="#OpenSans-Bold-49" x="1218.896484"/>
      </g>
      <!-- que se publican en los -->
      <g style="fill: #37539c" transform="translate(415.11625 257.35975) scale(0.08 -0.08)">
       <defs>
        <path id="OpenSans-Bold-71" d="M 2597 -1538 
L 2597 -72 
Q 2597 59 2608 192 
Q 2619 325 2638 453 
L 2597 453 
Q 2463 238 2227 87 
Q 1991 -63 1606 -63 
Q 1016 -63 652 395 
Q 288 853 288 1741 
Q 288 2338 456 2742 
Q 625 3147 926 3353 
Q 1228 3559 1625 3559 
Q 2009 3559 2248 3411 
Q 2488 3263 2638 3047 
L 2663 3047 
L 2747 3494 
L 3553 3494 
L 3553 -1538 
L 2597 -1538 
z
M 1947 684 
Q 2209 684 2364 787 
Q 2519 891 2587 1098 
Q 2656 1306 2663 1619 
L 2663 1734 
Q 2663 2244 2506 2514 
Q 2350 2784 1931 2784 
Q 1591 2784 1425 2512 
Q 1259 2241 1259 1728 
Q 1259 1206 1428 945 
Q 1597 684 1947 684 
z
" transform="scale(0.015625)"/>
       </defs>
       <use xlink:href="#OpenSans-Bold-71"/>
       <use xlink:href="#OpenSans-Bold-75" x="63.28125"/>
       <use xlink:href="#OpenSans-Bold-65" x="129.003906"/>
       <use xlink:href="#OpenSans-Bold-20" x="188.085938"/>
       <use xlink:href="#OpenSans-Bold-73" x="214.0625"/>
       <use xlink:href="#OpenSans-Bold-65" x="263.769531"/>
       <use xlink:href="#OpenSans-Bold-20" x="322.851562"/>
       <use xlink:href="#OpenSans-Bold-70" x="348.828125"/>
       <use xlink:href="#OpenSans-Bold-75" x="412.109375"/>
       <use xlink:href="#OpenSans-Bold-62" x="477.832031"/>
       <use xlink:href="#OpenSans-Bold-6c" x="541.113281"/>
       <use xlink:href="#OpenSans-Bold-69" x="571.630859"/>
       <use xlink:href="#OpenSans-Bold-63" x="602.148438"/>
       <use xlink:href="#OpenSans-Bold-61" x="653.564453"/>
       <use xlink:href="#OpenSans-Bold-6e" x="713.964844"/>
       <use xlink:href="#OpenSans-Bold-20" x="779.6875"/>
       <use xlink:href="#OpenSans-Bold-65" x="805.664062"/>
       <use xlink:href="#OpenSans-Bold-6e" x="864.746094"/>
       <use xlink:href="#OpenSans-Bold-20" x="930.46875"/>
       <use xlink:href="#OpenSans-Bold-6c" x="956.445312"/>
       <use xlink:href="#OpenSans-Bold-6f" x="986.962891"/>
       <use xlink:href="#OpenSans-Bold-73" x="1048.876953"/>
      </g>
      <!-- diarios o prensa digital -->
      <g style="fill: #37539c" transform="translate(413.445625 266.57675) scale(0.08 -0.08)">
       <use xlink:href="#OpenSans-Bold-64"/>
       <use xlink:href="#OpenSans-Bold-69" x="63.28125"/>
       <use xlink:href="#OpenSans-Bold-61" x="93.798828"/>
       <use xlink:href="#OpenSans-Bold-72" x="154.199219"/>
       <use xlink:href="#OpenSans-Bold-69" x="199.609375"/>
       <use xlink:href="#OpenSans-Bold-6f" x="230.126953"/>
       <use xlink:href="#OpenSans-Bold-73" x="292.041016"/>
       <use xlink:href="#OpenSans-Bold-20" x="341.748047"/>
       <use xlink:href="#OpenSans-Bold-6f" x="367.724609"/>
       <use xlink:href="#OpenSans-Bold-20" x="429.638672"/>
       <use xlink:href="#OpenSans-Bold-70" x="455.615234"/>
       <use xlink:href="#OpenSans-Bold-72" x="518.896484"/>
       <use xlink:href="#OpenSans-Bold-65" x="564.306641"/>
       <use xlink:href="#OpenSans-Bold-6e" x="623.388672"/>
       <use xlink:href="#OpenSans-Bold-73" x="689.111328"/>
       <use xlink:href="#OpenSans-Bold-61" x="738.818359"/>
       <use xlink:href="#OpenSans-Bold-20" x="799.21875"/>
       <use xlink:href="#OpenSans-Bold-64" x="825.195312"/>
       <use xlink:href="#OpenSans-Bold-69" x="888.476562"/>
       <use xlink:href="#OpenSans-Bold-67" x="918.994141"/>
       <use xlink:href="#OpenSans-Bold-69" x="975.488281"/>
       <use xlink:href="#OpenSans-Bold-74" x="1006.005859"/>
       <use xlink:href="#OpenSans-Bold-61" x="1049.414062"/>
       <use xlink:href="#OpenSans-Bold-6c" x="1109.814453"/>
      </g>
     </g>
    </g>
    <g id="xtick_5">
     <g id="line2d_5">
      <g>
       <use xlink:href="#mb3ed71d384" x="577.82" y="235.064" style="fill: #37539c; stroke: #37539c; stroke-width: 0.8"/>
      </g>
     </g>
     <g id="text_5">
      <!-- Accede a secciones o -->
      <g style="fill: #37539c" transform="translate(536.535 248.14275) scale(0.08 -0.08)">
       <use xlink:href="#OpenSans-Bold-41"/>
       <use xlink:href="#OpenSans-Bold-63" x="68.994141"/>
       <use xlink:href="#OpenSans-Bold-63" x="120.410156"/>
       <use xlink:href="#OpenSans-Bold-65" x="171.826172"/>
       <use xlink:href="#OpenSans-Bold-64" x="230.908203"/>
       <use xlink:href="#OpenSans-Bold-65" x="294.189453"/>
       <use xlink:href="#OpenSans-Bold-20" x="353.271484"/>
       <use xlink:href="#OpenSans-Bold-61" x="379.248047"/>
       <use xlink:href="#OpenSans-Bold-20" x="439.648438"/>
       <use xlink:href="#OpenSans-Bold-73" x="465.625"/>
       <use xlink:href="#OpenSans-Bold-65" x="515.332031"/>
       <use xlink:href="#OpenSans-Bold-63" x="574.414062"/>
       <use xlink:href="#OpenSans-Bold-63" x="625.830078"/>
       <use xlink:href="#OpenSans-Bold-69" x="677.246094"/>
       <use xlink:href="#OpenSans-Bold-6f" x="707.763672"/>
       <use xlink:href="#OpenSans-Bold-6e" x="769.677734"/>
       <use xlink:href="#OpenSans-Bold-65" x="835.400391"/>
       <use xlink:href="#OpenSans-Bold-73" x="894.482422"/>
       <use xlink:href="#OpenSans-Bold-20" x="944.189453"/>
       <use xlink:href="#OpenSans-Bold-6f" x="970.166016"/>
      </g>
      <!-- programas de radio y/o -->
      <g style="fill: #37539c" transform="translate(531.2925 257.35975) scale(0.08 -0.08)">
       <defs>
        <path id="OpenSans-Bold-79" d="M 0 3494 
L 1044 3494 
L 1703 1528 
Q 1734 1434 1756 1337 
Q 1778 1241 1793 1137 
Q 1809 1034 1819 922 
L 1838 922 
Q 1856 1091 1889 1237 
Q 1922 1384 1972 1528 
L 2619 3494 
L 3641 3494 
L 2163 -447 
Q 2028 -809 1812 -1051 
Q 1597 -1294 1317 -1416 
Q 1038 -1538 703 -1538 
Q 541 -1538 422 -1520 
Q 303 -1503 219 -1484 
L 219 -728 
Q 284 -744 384 -756 
Q 484 -769 594 -769 
Q 794 -769 937 -684 
Q 1081 -600 1178 -458 
Q 1275 -316 1331 -147 
L 1388 25 
L 0 3494 
z
" transform="scale(0.015625)"/>
        <path id="OpenSans-Bold-2f" d="M 2613 4569 
L 909 0 
L 44 0 
L 1747 4569 
L 2613 4569 
z
" transform="scale(0.015625)"/>
       </defs>
       <use xlink:href="#OpenSans-Bold-70"/>
       <use xlink:href="#OpenSans-Bold-72" x="63.28125"/>
       <use xlink:href="#OpenSans-Bold-6f" x="108.691406"/>
       <use xlink:href="#OpenSans-Bold-67" x="170.605469"/>
       <use xlink:href="#OpenSans-Bold-72" x="227.099609"/>
       <use xlink:href="#OpenSans-Bold-61" x="272.509766"/>
       <use xlink:href="#OpenSans-Bold-6d" x="332.910156"/>
       <use xlink:href="#OpenSans-Bold-61" x="431.103516"/>
       <use xlink:href="#OpenSans-Bold-73" x="491.503906"/>
       <use xlink:href="#OpenSans-Bold-20" x="541.210938"/>
       <use xlink:href="#OpenSans-Bold-64" x="567.1875"/>
       <use xlink:href="#OpenSans-Bold-65" x="630.46875"/>
       <use xlink:href="#OpenSans-Bold-20" x="689.550781"/>
       <use xlink:href="#OpenSans-Bold-72" x="715.527344"/>
       <use xlink:href="#OpenSans-Bold-61" x="760.9375"/>
       <use xlink:href="#OpenSans-Bold-64" x="821.337891"/>
       <use xlink:href="#OpenSans-Bold-69" x="884.619141"/>
       <use xlink:href="#OpenSans-Bold-6f" x="915.136719"/>
       <use xlink:href="#OpenSans-Bold-20" x="977.050781"/>
       <use xlink:href="#OpenSans-Bold-79" x="1003.027344"/>
       <use xlink:href="#OpenSans-Bold-2f" x="1059.912109"/>
       <use xlink:href="#OpenSans-Bold-6f" x="1101.220703"/>
      </g>
      <!-- podcast sobre CTCI -->
      <g style="fill: #37539c" transform="translate(540.090625 266.57675) scale(0.08 -0.08)">
       <use xlink:href="#OpenSans-Bold-70"/>
       <use xlink:href="#OpenSans-Bold-6f" x="63.28125"/>
       <use xlink:href="#OpenSans-Bold-64" x="125.195312"/>
       <use xlink:href="#OpenSans-Bold-63" x="188.476562"/>
       <use xlink:href="#OpenSans-Bold-61" x="239.892578"/>
       <use xlink:href="#OpenSans-Bold-73" x="300.292969"/>
       <use xlink:href="#OpenSans-Bold-74" x="350"/>
       <use xlink:href="#OpenSans-Bold-20" x="393.408203"/>
       <use xlink:href="#OpenSans-Bold-73" x="419.384766"/>
       <use xlink:href="#OpenSans-Bold-6f" x="469.091797"/>
       <use xlink:href="#OpenSans-Bold-62" x="531.005859"/>
       <use xlink:href="#OpenSans-Bold-72" x="594.287109"/>
       <use xlink:href="#OpenSans-Bold-65" x="639.697266"/>
       <use xlink:href="#OpenSans-Bold-20" x="698.779297"/>
       <use xlink:href="#OpenSans-Bold-43" x="724.755859"/>
       <use xlink:href="#OpenSans-Bold-54" x="788.476562"/>
       <use xlink:href="#OpenSans-Bold-43" x="846.386719"/>
       <use xlink:href="#OpenSans-Bold-49" x="910.107422"/>
      </g>
     </g>
    </g>
   </g>
   <g id="matplotlib.axis_2">
    <g id="ytick_1">
     <g id="line2d_6">
      <path d="M 43.4 235.064 
L 637.2 235.064 
" clip-path="url(#pba3d3e6b17)" style="fill: none; stroke-dasharray: 2.96,1.28; stroke-dashoffset: 0; stroke: #b0b0b0; stroke-width: 0.8"/>
     </g>
     <g id="line2d_7">
      <defs>
       <path id="ma681f0a0dc" d="M 0 0 
L -3.5 0 
" style="stroke: #37539c; stroke-width: 0.8"/>
      </defs>
      <g>
       <use xlink:href="#ma681f0a0dc" x="43.4" y="235.064" style="fill: #37539c; stroke: #37539c; stroke-width: 0.8"/>
      </g>
     </g>
     <g id="text_6">
      <!-- 0 -->
      <g style="fill: #37539c" transform="translate(30.682813 238.863219) scale(0.1 -0.1)">
       <defs>
        <path id="OpenSans-Bold-30" d="M 3425 2284 
Q 3425 1731 3339 1297 
Q 3253 863 3064 559 
Q 2875 256 2569 96 
Q 2263 -63 1825 -63 
Q 1275 -63 922 217 
Q 569 497 400 1023 
Q 231 1550 231 2284 
Q 231 3025 386 3551 
Q 541 4078 891 4359 
Q 1241 4641 1825 4641 
Q 2372 4641 2726 4361 
Q 3081 4081 3253 3554 
Q 3425 3028 3425 2284 
z
M 1191 2284 
Q 1191 1763 1248 1414 
Q 1306 1066 1443 891 
Q 1581 716 1825 716 
Q 2066 716 2205 889 
Q 2344 1063 2403 1411 
Q 2463 1759 2463 2284 
Q 2463 2806 2403 3156 
Q 2344 3506 2205 3682 
Q 2066 3859 1825 3859 
Q 1581 3859 1443 3682 
Q 1306 3506 1248 3156 
Q 1191 2806 1191 2284 
z
" transform="scale(0.015625)"/>
       </defs>
       <use xlink:href="#OpenSans-Bold-30"/>
      </g>
     </g>
    </g>
    <g id="ytick_2">
     <g id="line2d_8">
      <path d="M 43.4 200.561846 
L 637.2 200.561846 
" clip-path="url(#pba3d3e6b17)" style="fill: none; stroke-dasharray: 2.96,1.28; stroke-dashoffset: 0; stroke: #b0b0b0; stroke-width: 0.8"/>
     </g>
     <g id="line2d_9">
      <g>
       <use xlink:href="#ma681f0a0dc" x="43.4" y="200.561846" style="fill: #37539c; stroke: #37539c; stroke-width: 0.8"/>
      </g>
     </g>
     <g id="text_7">
      <!-- 10 -->
      <g style="fill: #37539c" transform="translate(24.965625 204.361065) scale(0.1 -0.1)">
       <defs>
        <path id="OpenSans-Bold-31" d="M 2644 0 
L 1678 0 
L 1678 2644 
Q 1678 2753 1681 2914 
Q 1684 3075 1690 3245 
Q 1697 3416 1703 3553 
Q 1669 3513 1564 3414 
Q 1459 3316 1369 3238 
L 844 2816 
L 378 3397 
L 1850 4569 
L 2644 4569 
L 2644 0 
z
" transform="scale(0.015625)"/>
       </defs>
       <use xlink:href="#OpenSans-Bold-31"/>
       <use xlink:href="#OpenSans-Bold-30" x="57.177734"/>
      </g>
     </g>
    </g>
    <g id="ytick_3">
     <g id="line2d_10">
      <path d="M 43.4 166.059692 
L 637.2 166.059692 
" clip-path="url(#pba3d3e6b17)" style="fill: none; stroke-dasharray: 2.96,1.28; stroke-dashoffset: 0; stroke: #b0b0b0; stroke-width: 0.8"/>
     </g>
     <g id="line2d_11">
      <g>
       <use xlink:href="#ma681f0a0dc" x="43.4" y="166.059692" style="fill: #37539c; stroke: #37539c; stroke-width: 0.8"/>
      </g>
     </g>
     <g id="text_8">
      <!-- 20 -->
      <g style="fill: #37539c" transform="translate(24.965625 169.858911) scale(0.1 -0.1)">
       <defs>
        <path id="OpenSans-Bold-32" d="M 3450 0 
L 256 0 
L 256 672 
L 1403 1831 
Q 1750 2188 1961 2427 
Q 2172 2666 2267 2862 
Q 2363 3059 2363 3284 
Q 2363 3556 2211 3692 
Q 2059 3828 1806 3828 
Q 1541 3828 1291 3706 
Q 1041 3584 769 3359 
L 244 3981 
Q 441 4150 661 4300 
Q 881 4450 1173 4542 
Q 1466 4634 1875 4634 
Q 2325 4634 2648 4471 
Q 2972 4309 3147 4029 
Q 3322 3750 3322 3397 
Q 3322 3019 3172 2706 
Q 3022 2394 2736 2087 
Q 2450 1781 2047 1409 
L 1459 856 
L 1459 813 
L 3450 813 
L 3450 0 
z
" transform="scale(0.015625)"/>
       </defs>
       <use xlink:href="#OpenSans-Bold-32"/>
       <use xlink:href="#OpenSans-Bold-30" x="57.177734"/>
      </g>
     </g>
    </g>
    <g id="ytick_4">
     <g id="line2d_12">
      <path d="M 43.4 131.557538 
L 637.2 131.557538 
" clip-path="url(#pba3d3e6b17)" style="fill: none; stroke-dasharray: 2.96,1.28; stroke-dashoffset: 0; stroke: #b0b0b0; stroke-width: 0.8"/>
     </g>
     <g id="line2d_13">
      <g>
       <use xlink:href="#ma681f0a0dc" x="43.4" y="131.557538" style="fill: #37539c; stroke: #37539c; stroke-width: 0.8"/>
      </g>
     </g>
     <g id="text_9">
      <!-- 30 -->
      <g style="fill: #37539c" transform="translate(24.965625 135.356757) scale(0.1 -0.1)">
       <defs>
        <path id="OpenSans-Bold-33" d="M 3272 3547 
Q 3272 3231 3140 3000 
Q 3009 2769 2786 2622 
Q 2563 2475 2284 2406 
L 2284 2388 
Q 2834 2319 3120 2050 
Q 3406 1781 3406 1331 
Q 3406 931 3211 615 
Q 3016 300 2609 118 
Q 2203 -63 1563 -63 
Q 1184 -63 857 -2 
Q 531 59 244 184 
L 244 1006 
Q 538 856 859 779 
Q 1181 703 1459 703 
Q 1978 703 2186 883 
Q 2394 1063 2394 1388 
Q 2394 1578 2297 1709 
Q 2200 1841 1961 1909 
Q 1722 1978 1294 1978 
L 947 1978 
L 947 2719 
L 1300 2719 
Q 1722 2719 1942 2798 
Q 2163 2878 2242 3017 
Q 2322 3156 2322 3334 
Q 2322 3578 2172 3715 
Q 2022 3853 1672 3853 
Q 1453 3853 1273 3798 
Q 1094 3744 950 3667 
Q 806 3591 697 3519 
L 250 4184 
Q 519 4378 880 4506 
Q 1241 4634 1741 4634 
Q 2447 4634 2859 4350 
Q 3272 4066 3272 3547 
z
" transform="scale(0.015625)"/>
       </defs>
       <use xlink:href="#OpenSans-Bold-33"/>
       <use xlink:href="#OpenSans-Bold-30" x="57.177734"/>
      </g>
     </g>
    </g>
    <g id="ytick_5">
     <g id="line2d_14">
      <path d="M 43.4 97.055385 
L 637.2 97.055385 
" clip-path="url(#pba3d3e6b17)" style="fill: none; stroke-dasharray: 2.96,1.28; stroke-dashoffset: 0; stroke: #b0b0b0; stroke-width: 0.8"/>
     </g>
     <g id="line2d_15">
      <g>
       <use xlink:href="#ma681f0a0dc" x="43.4" y="97.055385" style="fill: #37539c; stroke: #37539c; stroke-width: 0.8"/>
      </g>
     </g>
     <g id="text_10">
      <!-- 40 -->
      <g style="fill: #37539c" transform="translate(24.965625 100.854603) scale(0.1 -0.1)">
       <defs>
        <path id="OpenSans-Bold-34" d="M 3553 947 
L 3003 947 
L 3003 0 
L 2059 0 
L 2059 947 
L 109 947 
L 109 1619 
L 2113 4569 
L 3003 4569 
L 3003 1697 
L 3553 1697 
L 3553 947 
z
M 2059 1697 
L 2059 2472 
Q 2059 2581 2064 2731 
Q 2069 2881 2075 3031 
Q 2081 3181 2089 3298 
Q 2097 3416 2100 3463 
L 2075 3463 
Q 2016 3334 1950 3214 
Q 1884 3094 1797 2963 
L 959 1697 
L 2059 1697 
z
" transform="scale(0.015625)"/>
       </defs>
       <use xlink:href="#OpenSans-Bold-34"/>
       <use xlink:href="#OpenSans-Bold-30" x="57.177734"/>
      </g>
     </g>
    </g>
    <g id="ytick_6">
     <g id="line2d_16">
      <path d="M 43.4 62.553231 
L 637.2 62.553231 
" clip-path="url(#pba3d3e6b17)" style="fill: none; stroke-dasharray: 2.96,1.28; stroke-dashoffset: 0; stroke: #b0b0b0; stroke-width: 0.8"/>
     </g>
     <g id="line2d_17">
      <g>
       <use xlink:href="#ma681f0a0dc" x="43.4" y="62.553231" style="fill: #37539c; stroke: #37539c; stroke-width: 0.8"/>
      </g>
     </g>
     <g id="text_11">
      <!-- 50 -->
      <g style="fill: #37539c" transform="translate(24.965625 66.35245) scale(0.1 -0.1)">
       <defs>
        <path id="OpenSans-Bold-35" d="M 1919 2919 
Q 2338 2919 2664 2759 
Q 2991 2600 3178 2290 
Q 3366 1981 3366 1528 
Q 3366 1034 3161 676 
Q 2956 319 2551 128 
Q 2147 -63 1544 -63 
Q 1184 -63 867 -2 
Q 550 59 313 184 
L 313 1019 
Q 550 894 883 808 
Q 1216 722 1509 722 
Q 1797 722 1994 798 
Q 2191 875 2292 1036 
Q 2394 1197 2394 1447 
Q 2394 1781 2169 1959 
Q 1944 2138 1478 2138 
Q 1300 2138 1108 2103 
Q 916 2069 788 2034 
L 403 2241 
L 575 4569 
L 3053 4569 
L 3053 3750 
L 1422 3750 
L 1338 2853 
Q 1444 2875 1569 2897 
Q 1694 2919 1919 2919 
z
" transform="scale(0.015625)"/>
       </defs>
       <use xlink:href="#OpenSans-Bold-35"/>
       <use xlink:href="#OpenSans-Bold-30" x="57.177734"/>
      </g>
     </g>
    </g>
    <g id="ytick_7">
     <g id="line2d_18">
      <path d="M 43.4 28.051077 
L 637.2 28.051077 
" clip-path="url(#pba3d3e6b17)" style="fill: none; stroke-dasharray: 2.96,1.28; stroke-dashoffset: 0; stroke: #b0b0b0; stroke-width: 0.8"/>
     </g>
     <g id="line2d_19">
      <g>
       <use xlink:href="#ma681f0a0dc" x="43.4" y="28.051077" style="fill: #37539c; stroke: #37539c; stroke-width: 0.8"/>
      </g>
     </g>
     <g id="text_12">
      <!-- 60 -->
      <g style="fill: #37539c" transform="translate(24.965625 31.850296) scale(0.1 -0.1)">
       <defs>
        <path id="OpenSans-Bold-36" d="M 225 1941 
Q 225 2334 283 2720 
Q 341 3106 484 3448 
Q 628 3791 887 4055 
Q 1147 4319 1547 4470 
Q 1947 4622 2516 4622 
Q 2650 4622 2829 4611 
Q 3009 4600 3128 4575 
L 3128 3803 
Q 3003 3831 2861 3848 
Q 2719 3866 2578 3866 
Q 2009 3866 1698 3684 
Q 1388 3503 1261 3183 
Q 1134 2863 1113 2438 
L 1153 2438 
Q 1241 2591 1373 2709 
Q 1506 2828 1697 2898 
Q 1888 2969 2144 2969 
Q 2544 2969 2837 2798 
Q 3131 2628 3290 2306 
Q 3450 1984 3450 1522 
Q 3450 1028 3259 672 
Q 3069 316 2720 126 
Q 2372 -63 1894 -63 
Q 1544 -63 1241 57 
Q 938 178 709 425 
Q 481 672 353 1048 
Q 225 1425 225 1941 
z
M 1875 709 
Q 2159 709 2337 903 
Q 2516 1097 2516 1509 
Q 2516 1844 2361 2036 
Q 2206 2228 1894 2228 
Q 1681 2228 1520 2133 
Q 1359 2038 1271 1892 
Q 1184 1747 1184 1594 
Q 1184 1434 1228 1278 
Q 1272 1122 1359 994 
Q 1447 866 1576 787 
Q 1706 709 1875 709 
z
" transform="scale(0.015625)"/>
       </defs>
       <use xlink:href="#OpenSans-Bold-36"/>
       <use xlink:href="#OpenSans-Bold-30" x="57.177734"/>
      </g>
     </g>
    </g>
    <g id="text_13">
     <!-- Porcentaje de respuestas -->
     <g style="fill: #37539c" transform="translate(18.5625 185.910125) rotate(-90) scale(0.1 -0.1)">
      <defs>
       <path id="OpenSans-Bold-50" d="M 2034 4569 
Q 2919 4569 3325 4189 
Q 3731 3809 3731 3144 
Q 3731 2844 3640 2570 
Q 3550 2297 3345 2084 
Q 3141 1872 2800 1748 
Q 2459 1625 1959 1625 
L 1544 1625 
L 1544 0 
L 575 0 
L 575 4569 
L 2034 4569 
z
M 1984 3775 
L 1544 3775 
L 1544 2419 
L 1863 2419 
Q 2134 2419 2334 2491 
Q 2534 2563 2643 2716 
Q 2753 2869 2753 3109 
Q 2753 3447 2565 3611 
Q 2378 3775 1984 3775 
z
" transform="scale(0.015625)"/>
       <path id="OpenSans-Bold-6a" d="M 219 -1538 
Q 56 -1538 -119 -1514 
Q -294 -1491 -409 -1459 
L -409 -709 
Q -294 -741 -192 -755 
Q -91 -769 38 -769 
Q 231 -769 365 -661 
Q 500 -553 500 -238 
L 500 3494 
L 1453 3494 
L 1453 -378 
Q 1453 -697 1331 -961 
Q 1209 -1225 937 -1381 
Q 666 -1538 219 -1538 
z
M 459 4397 
Q 459 4666 611 4764 
Q 763 4863 978 4863 
Q 1191 4863 1344 4764 
Q 1497 4666 1497 4397 
Q 1497 4131 1344 4029 
Q 1191 3928 978 3928 
Q 763 3928 611 4029 
Q 459 4131 459 4397 
z
" transform="scale(0.015625)"/>
      </defs>
      <use xlink:href="#OpenSans-Bold-50"/>
      <use xlink:href="#OpenSans-Bold-6f" x="62.792969"/>
      <use xlink:href="#OpenSans-Bold-72" x="124.707031"/>
      <use xlink:href="#OpenSans-Bold-63" x="170.117188"/>
      <use xlink:href="#OpenSans-Bold-65" x="221.533203"/>
      <use xlink:href="#OpenSans-Bold-6e" x="280.615234"/>
      <use xlink:href="#OpenSans-Bold-74" x="346.337891"/>
      <use xlink:href="#OpenSans-Bold-61" x="389.746094"/>
      <use xlink:href="#OpenSans-Bold-6a" x="450.146484"/>
      <use xlink:href="#OpenSans-Bold-65" x="480.664062"/>
      <use xlink:href="#OpenSans-Bold-20" x="539.746094"/>
      <use xlink:href="#OpenSans-Bold-64" x="565.722656"/>
      <use xlink:href="#OpenSans-Bold-65" x="629.003906"/>
      <use xlink:href="#OpenSans-Bold-20" x="688.085938"/>
      <use xlink:href="#OpenSans-Bold-72" x="714.0625"/>
      <use xlink:href="#OpenSans-Bold-65" x="759.472656"/>
      <use xlink:href="#OpenSans-Bold-73" x="818.554688"/>
      <use xlink:href="#OpenSans-Bold-70" x="868.261719"/>
      <use xlink:href="#OpenSans-Bold-75" x="931.542969"/>
      <use xlink:href="#OpenSans-Bold-65" x="997.265625"/>
      <use xlink:href="#OpenSans-Bold-73" x="1056.347656"/>
      <use xlink:href="#OpenSans-Bold-74" x="1106.054688"/>
      <use xlink:href="#OpenSans-Bold-61" x="1149.462891"/>
      <use xlink:href="#OpenSans-Bold-73" x="1209.863281"/>
     </g>
    </g>
   </g>
   <g id="patch_3">
    <path d="M 600.067707 235.008797 
L 595.15896 235.008797 
Q 607.03496 235.008797 607.03496 233.62871 
L 607.03496 193.716619 
Q 607.03496 192.336533 595.15896 192.336533 
L 600.067707 192.336533 
Q 588.191707 192.336533 588.191707 193.716619 
L 588.191707 233.62871 
Q 588.191707 235.008797 600.067707 235.008797 
z
" clip-path="url(#pba3d3e6b17)" style="fill: #f45b69"/>
   </g>
   <g id="patch_4">
    <path d="M 481.307707 235.008797 
L 476.39896 235.008797 
Q 488.27496 235.008797 488.27496 233.62871 
L 488.27496 185.781123 
Q 488.27496 184.401037 476.39896 184.401037 
L 481.307707 184.401037 
Q 469.431707 184.401037 469.431707 185.781123 
L 469.431707 233.62871 
Q 469.431707 235.008797 481.307707 235.008797 
z
" clip-path="url(#pba3d3e6b17)" style="fill: #f45b69"/>
   </g>
   <g id="patch_5">
    <path d="M 362.547707 235.008797 
L 357.63896 235.008797 
Q 369.51496 235.008797 369.51496 233.62871 
L 369.51496 143.343474 
Q 369.51496 141.963388 357.63896 141.963388 
L 362.547707 141.963388 
Q 350.671707 141.963388 350.671707 143.343474 
L 350.671707 233.62871 
Q 350.671707 235.008797 362.547707 235.008797 
z
" clip-path="url(#pba3d3e6b17)" style="fill: #f45b69"/>
   </g>
   <g id="patch_6">
    <path d="M 243.787707 235.008797 
L 238.87896 235.008797 
Q 250.75496 235.008797 250.75496 233.62871 
L 250.75496 185.781123 
Q 250.75496 184.401037 238.87896 184.401037 
L 243.787707 184.401037 
Q 231.911707 184.401037 231.911707 185.781123 
L 231.911707 233.62871 
Q 231.911707 235.008797 243.787707 235.008797 
z
" clip-path="url(#pba3d3e6b17)" style="fill: #f45b69"/>
   </g>
   <g id="patch_7">
    <path d="M 125.027707 235.008797 
L 120.11896 235.008797 
Q 131.99496 235.008797 131.99496 233.62871 
L 131.99496 212.00276 
Q 131.99496 210.622674 120.11896 210.622674 
L 125.027707 210.622674 
Q 113.151707 210.622674 113.151707 212.00276 
L 113.151707 233.62871 
Q 113.151707 235.008797 125.027707 235.008797 
z
" clip-path="url(#pba3d3e6b17)" style="fill: #f45b69"/>
   </g>
   <g id="patch_8">
    <path d="M 580.274373 235.008797 
L 575.365627 235.008797 
Q 587.241627 235.008797 587.241627 233.62871 
L 587.241627 112.636557 
Q 587.241627 111.256471 575.365627 111.256471 
L 580.274373 111.256471 
Q 568.398373 111.256471 568.398373 112.636557 
L 568.398373 233.62871 
Q 568.398373 235.008797 580.274373 235.008797 
z
" clip-path="url(#pba3d3e6b17)" style="fill: #59c3c3"/>
   </g>
   <g id="patch_9">
    <path d="M 461.514373 235.008797 
L 456.605627 235.008797 
Q 468.481627 235.008797 468.481627 233.62871 
L 468.481627 96.765567 
Q 468.481627 95.38548 456.605627 95.38548 
L 461.514373 95.38548 
Q 449.638373 95.38548 449.638373 96.765567 
L 449.638373 233.62871 
Q 449.638373 235.008797 461.514373 235.008797 
z
" clip-path="url(#pba3d3e6b17)" style="fill: #59c3c3"/>
   </g>
   <g id="patch_10">
    <path d="M 342.754373 235.008797 
L 337.845627 235.008797 
Q 349.721627 235.008797 349.721627 233.62871 
L 349.721627 198.891942 
Q 349.721627 197.511856 337.845627 197.511856 
L 342.754373 197.511856 
Q 330.878373 197.511856 330.878373 198.891942 
L 330.878373 233.62871 
Q 330.878373 235.008797 342.754373 235.008797 
z
" clip-path="url(#pba3d3e6b17)" style="fill: #59c3c3"/>
   </g>
   <g id="patch_11">
    <path d="M 223.994373 235.008797 
L 219.085627 235.008797 
Q 230.961627 235.008797 230.961627 233.62871 
L 230.961627 147.828754 
Q 230.961627 146.448668 219.085627 146.448668 
L 223.994373 146.448668 
Q 212.118373 146.448668 212.118373 147.828754 
L 212.118373 233.62871 
Q 212.118373 235.008797 223.994373 235.008797 
z
" clip-path="url(#pba3d3e6b17)" style="fill: #59c3c3"/>
   </g>
   <g id="patch_12">
    <path d="M 105.234373 235.008797 
L 100.325627 235.008797 
Q 112.201627 235.008797 112.201627 233.62871 
L 112.201627 113.671622 
Q 112.201627 112.291536 100.325627 112.291536 
L 105.234373 112.291536 
Q 93.358373 112.291536 93.358373 113.671622 
L 93.358373 233.62871 
Q 93.358373 235.008797 105.234373 235.008797 
z
" clip-path="url(#pba3d3e6b17)" style="fill: #59c3c3"/>
   </g>
   <g id="patch_13">
    <path d="M 560.48104 235.008797 
L 555.572293 235.008797 
Q 567.448293 235.008797 567.448293 233.62871 
L 567.448293 67.438736 
Q 567.448293 66.05865 555.572293 66.05865 
L 560.48104 66.05865 
Q 548.60504 66.05865 548.60504 67.438736 
L 548.60504 233.62871 
Q 548.60504 235.008797 560.48104 235.008797 
z
" clip-path="url(#pba3d3e6b17)" style="fill: #37539c"/>
   </g>
   <g id="patch_14">
    <path d="M 441.72104 235.008797 
L 436.812293 235.008797 
Q 448.688293 235.008797 448.688293 233.62871 
L 448.688293 90.210157 
Q 448.688293 88.830071 436.812293 88.830071 
L 441.72104 88.830071 
Q 429.84504 88.830071 429.84504 90.210157 
L 429.84504 233.62871 
Q 429.84504 235.008797 441.72104 235.008797 
z
" clip-path="url(#pba3d3e6b17)" style="fill: #37539c"/>
   </g>
   <g id="patch_15">
    <path d="M 322.96104 235.008797 
L 318.052293 235.008797 
Q 329.928293 235.008797 329.928293 233.62871 
L 329.928293 36.041776 
Q 329.928293 34.66169 318.052293 34.66169 
L 322.96104 34.66169 
Q 311.08504 34.66169 311.08504 36.041776 
L 311.08504 233.62871 
Q 311.08504 235.008797 322.96104 235.008797 
z
" clip-path="url(#pba3d3e6b17)" style="fill: #37539c"/>
   </g>
   <g id="patch_16">
    <path d="M 204.20104 235.008797 
L 199.292293 235.008797 
Q 211.168293 235.008797 211.168293 233.62871 
L 211.168293 36.041776 
Q 211.168293 34.66169 199.292293 34.66169 
L 204.20104 34.66169 
Q 192.32504 34.66169 192.32504 36.041776 
L 192.32504 233.62871 
Q 192.32504 235.008797 204.20104 235.008797 
z
" clip-path="url(#pba3d3e6b17)" style="fill: #37539c"/>
   </g>
   <g id="patch_17">
    <path d="M 85.44104 235.008797 
L 80.532293 235.008797 
Q 92.408293 235.008797 92.408293 233.62871 
L 92.408293 41.907142 
Q 92.408293 40.527056 80.532293 40.527056 
L 85.44104 40.527056 
Q 73.56504 40.527056 73.56504 41.907142 
L 73.56504 233.62871 
Q 73.56504 235.008797 85.44104 235.008797 
z
" clip-path="url(#pba3d3e6b17)" style="fill: #37539c"/>
   </g>
   <g id="patch_18">
    <path d="M 43.4 235.064 
L 43.4 10.8 
" style="fill: none; stroke: #000000; stroke-width: 0.8; stroke-linejoin: miter; stroke-linecap: square"/>
   </g>
   <g id="patch_19">
    <path d="M 43.4 235.064 
L 637.2 235.064 
" style="fill: none; stroke: #000000; stroke-width: 0.8; stroke-linejoin: miter; stroke-linecap: square"/>
   </g>
   <g id="text_14">
    <!-- 56.4% -->
    <g style="fill: #37539c" transform="translate(71.381667 37.549352) scale(0.08 -0.08)">
     <defs>
      <path id="OpenSans-Bold-2e" d="M 366 447 
Q 366 741 527 859 
Q 688 978 916 978 
Q 1138 978 1298 859 
Q 1459 741 1459 447 
Q 1459 166 1298 41 
Q 1138 -84 916 -84 
Q 688 -84 527 41 
Q 366 166 366 447 
z
" transform="scale(0.015625)"/>
      <path id="OpenSans-Bold-25" d="M 1275 4634 
Q 1813 4634 2091 4259 
Q 2369 3884 2369 3206 
Q 2369 2528 2106 2147 
Q 1844 1766 1275 1766 
Q 747 1766 472 2147 
Q 197 2528 197 3206 
Q 197 3884 455 4259 
Q 713 4634 1275 4634 
z
M 1281 3981 
Q 1128 3981 1056 3787 
Q 984 3594 984 3200 
Q 984 2806 1056 2609 
Q 1128 2413 1281 2413 
Q 1434 2413 1507 2608 
Q 1581 2803 1581 3200 
Q 1581 3594 1507 3787 
Q 1434 3981 1281 3981 
z
M 4519 4569 
L 1984 0 
L 1234 0 
L 3769 4569 
L 4519 4569 
z
M 4475 2809 
Q 5013 2809 5291 2434 
Q 5569 2059 5569 1381 
Q 5569 706 5306 325 
Q 5044 -56 4475 -56 
Q 3947 -56 3672 325 
Q 3397 706 3397 1381 
Q 3397 2059 3655 2434 
Q 3913 2809 4475 2809 
z
M 4481 2156 
Q 4328 2156 4256 1962 
Q 4184 1769 4184 1375 
Q 4184 981 4256 784 
Q 4328 588 4481 588 
Q 4634 588 4707 783 
Q 4781 978 4781 1375 
Q 4781 1769 4707 1962 
Q 4634 2156 4481 2156 
z
" transform="scale(0.015625)"/>
     </defs>
     <use xlink:href="#OpenSans-Bold-35"/>
     <use xlink:href="#OpenSans-Bold-36" x="57.177734"/>
     <use xlink:href="#OpenSans-Bold-2e" x="114.355469"/>
     <use xlink:href="#OpenSans-Bold-34" x="142.871094"/>
     <use xlink:href="#OpenSans-Bold-25" x="200.048828"/>
    </g>
   </g>
   <g id="text_15">
    <!-- 58.1% -->
    <g style="fill: #37539c" transform="translate(190.141667 31.683986) scale(0.08 -0.08)">
     <defs>
      <path id="OpenSans-Bold-38" d="M 1831 4628 
Q 2225 4628 2558 4506 
Q 2891 4384 3091 4139 
Q 3291 3894 3291 3525 
Q 3291 3250 3183 3044 
Q 3075 2838 2890 2683 
Q 2706 2528 2472 2413 
Q 2716 2284 2934 2114 
Q 3153 1944 3292 1716 
Q 3431 1488 3431 1184 
Q 3431 803 3228 523 
Q 3025 244 2665 90 
Q 2306 -63 1831 -63 
Q 1319 -63 959 84 
Q 600 231 412 504 
Q 225 778 225 1159 
Q 225 1472 342 1703 
Q 459 1934 659 2101 
Q 859 2269 1100 2388 
Q 897 2516 730 2678 
Q 563 2841 464 3050 
Q 366 3259 366 3531 
Q 366 3894 570 4137 
Q 775 4381 1109 4504 
Q 1444 4628 1831 4628 
z
M 1119 1216 
Q 1119 969 1295 808 
Q 1472 647 1819 647 
Q 2178 647 2356 801 
Q 2534 956 2534 1209 
Q 2534 1384 2432 1515 
Q 2331 1647 2178 1751 
Q 2025 1856 1869 1947 
L 1784 1991 
Q 1584 1900 1436 1787 
Q 1288 1675 1203 1534 
Q 1119 1394 1119 1216 
z
M 1825 3922 
Q 1588 3922 1431 3800 
Q 1275 3678 1275 3456 
Q 1275 3300 1351 3183 
Q 1428 3066 1554 2978 
Q 1681 2891 1831 2816 
Q 1975 2884 2100 2968 
Q 2225 3053 2303 3172 
Q 2381 3291 2381 3456 
Q 2381 3678 2223 3800 
Q 2066 3922 1825 3922 
z
" transform="scale(0.015625)"/>
     </defs>
     <use xlink:href="#OpenSans-Bold-35"/>
     <use xlink:href="#OpenSans-Bold-38" x="57.177734"/>
     <use xlink:href="#OpenSans-Bold-2e" x="114.355469"/>
     <use xlink:href="#OpenSans-Bold-31" x="142.871094"/>
     <use xlink:href="#OpenSans-Bold-25" x="200.048828"/>
    </g>
   </g>
   <g id="text_16">
    <!-- 58.1% -->
    <g style="fill: #37539c" transform="translate(308.901667 31.683986) scale(0.08 -0.08)">
     <use xlink:href="#OpenSans-Bold-35"/>
     <use xlink:href="#OpenSans-Bold-38" x="57.177734"/>
     <use xlink:href="#OpenSans-Bold-2e" x="114.355469"/>
     <use xlink:href="#OpenSans-Bold-31" x="142.871094"/>
     <use xlink:href="#OpenSans-Bold-25" x="200.048828"/>
    </g>
   </g>
   <g id="text_17">
    <!-- 42.4% -->
    <g style="fill: #37539c" transform="translate(427.661667 85.852368) scale(0.08 -0.08)">
     <use xlink:href="#OpenSans-Bold-34"/>
     <use xlink:href="#OpenSans-Bold-32" x="57.177734"/>
     <use xlink:href="#OpenSans-Bold-2e" x="114.355469"/>
     <use xlink:href="#OpenSans-Bold-34" x="142.871094"/>
     <use xlink:href="#OpenSans-Bold-25" x="200.048828"/>
    </g>
   </g>
   <g id="text_18">
    <!-- 49.0% -->
    <g style="fill: #37539c" transform="translate(546.421667 63.080946) scale(0.08 -0.08)">
     <defs>
      <path id="OpenSans-Bold-39" d="M 3431 2619 
Q 3431 2225 3373 1837 
Q 3316 1450 3172 1108 
Q 3028 766 2768 502 
Q 2509 238 2109 87 
Q 1709 -63 1141 -63 
Q 1006 -63 825 -52 
Q 644 -41 525 -19 
L 525 756 
Q 650 725 790 708 
Q 931 691 1075 691 
Q 1647 691 1958 872 
Q 2269 1053 2395 1375 
Q 2522 1697 2541 2119 
L 2503 2119 
Q 2413 1969 2289 1848 
Q 2166 1728 1975 1658 
Q 1784 1588 1491 1588 
Q 1100 1588 811 1758 
Q 522 1928 364 2251 
Q 206 2575 206 3034 
Q 206 3531 395 3886 
Q 584 4241 934 4431 
Q 1284 4622 1759 4622 
Q 2109 4622 2412 4501 
Q 2716 4381 2945 4134 
Q 3175 3888 3303 3509 
Q 3431 3131 3431 2619 
z
M 1778 3847 
Q 1497 3847 1319 3653 
Q 1141 3459 1141 3047 
Q 1141 2716 1294 2522 
Q 1447 2328 1759 2328 
Q 1975 2328 2134 2423 
Q 2294 2519 2383 2664 
Q 2472 2809 2472 2963 
Q 2472 3122 2428 3278 
Q 2384 3434 2296 3562 
Q 2209 3691 2079 3769 
Q 1950 3847 1778 3847 
z
" transform="scale(0.015625)"/>
     </defs>
     <use xlink:href="#OpenSans-Bold-34"/>
     <use xlink:href="#OpenSans-Bold-39" x="57.177734"/>
     <use xlink:href="#OpenSans-Bold-2e" x="114.355469"/>
     <use xlink:href="#OpenSans-Bold-30" x="142.871094"/>
     <use xlink:href="#OpenSans-Bold-25" x="200.048828"/>
    </g>
   </g>
   <g id="text_19">
    <!-- 35.6% -->
    <g style="fill: #37539c" transform="translate(91.175 109.313832) scale(0.08 -0.08)">
     <use xlink:href="#OpenSans-Bold-33"/>
     <use xlink:href="#OpenSans-Bold-35" x="57.177734"/>
     <use xlink:href="#OpenSans-Bold-2e" x="114.355469"/>
     <use xlink:href="#OpenSans-Bold-36" x="142.871094"/>
     <use xlink:href="#OpenSans-Bold-25" x="200.048828"/>
    </g>
   </g>
   <g id="text_20">
    <!-- 25.7% -->
    <g style="fill: #37539c" transform="translate(209.935 143.470965) scale(0.08 -0.08)">
     <defs>
      <path id="OpenSans-Bold-37" d="M 709 0 
L 2425 3756 
L 172 3756 
L 172 4569 
L 3450 4569 
L 3450 3963 
L 1722 0 
L 709 0 
z
" transform="scale(0.015625)"/>
     </defs>
     <use xlink:href="#OpenSans-Bold-32"/>
     <use xlink:href="#OpenSans-Bold-35" x="57.177734"/>
     <use xlink:href="#OpenSans-Bold-2e" x="114.355469"/>
     <use xlink:href="#OpenSans-Bold-37" x="142.871094"/>
     <use xlink:href="#OpenSans-Bold-25" x="200.048828"/>
    </g>
   </g>
   <g id="text_21">
    <!-- 10.9% -->
    <g style="fill: #37539c" transform="translate(328.695 194.534152) scale(0.08 -0.08)">
     <use xlink:href="#OpenSans-Bold-31"/>
     <use xlink:href="#OpenSans-Bold-30" x="57.177734"/>
     <use xlink:href="#OpenSans-Bold-2e" x="114.355469"/>
     <use xlink:href="#OpenSans-Bold-39" x="142.871094"/>
     <use xlink:href="#OpenSans-Bold-25" x="200.048828"/>
    </g>
   </g>
   <g id="text_22">
    <!-- 40.5% -->
    <g style="fill: #37539c" transform="translate(447.455 92.407777) scale(0.08 -0.08)">
     <use xlink:href="#OpenSans-Bold-34"/>
     <use xlink:href="#OpenSans-Bold-30" x="57.177734"/>
     <use xlink:href="#OpenSans-Bold-2e" x="114.355469"/>
     <use xlink:href="#OpenSans-Bold-35" x="142.871094"/>
     <use xlink:href="#OpenSans-Bold-25" x="200.048828"/>
    </g>
   </g>
   <g id="text_23">
    <!-- 35.9% -->
    <g style="fill: #37539c" transform="translate(566.215 108.278768) scale(0.08 -0.08)">
     <use xlink:href="#OpenSans-Bold-33"/>
     <use xlink:href="#OpenSans-Bold-35" x="57.177734"/>
     <use xlink:href="#OpenSans-Bold-2e" x="114.355469"/>
     <use xlink:href="#OpenSans-Bold-39" x="142.871094"/>
     <use xlink:href="#OpenSans-Bold-25" x="200.048828"/>
    </g>
   </g>
   <g id="text_24">
    <!-- 7.1% -->
    <g style="fill: #37539c" transform="translate(113.255208 207.644971) scale(0.08 -0.08)">
     <use xlink:href="#OpenSans-Bold-37"/>
     <use xlink:href="#OpenSans-Bold-2e" x="57.177734"/>
     <use xlink:href="#OpenSans-Bold-31" x="85.693359"/>
     <use xlink:href="#OpenSans-Bold-25" x="142.871094"/>
    </g>
   </g>
   <g id="text_25">
    <!-- 14.7% -->
    <g style="fill: #37539c" transform="translate(229.728333 181.423334) scale(0.08 -0.08)">
     <use xlink:href="#OpenSans-Bold-31"/>
     <use xlink:href="#OpenSans-Bold-34" x="57.177734"/>
     <use xlink:href="#OpenSans-Bold-2e" x="114.355469"/>
     <use xlink:href="#OpenSans-Bold-37" x="142.871094"/>
     <use xlink:href="#OpenSans-Bold-25" x="200.048828"/>
    </g>
   </g>
   <g id="text_26">
    <!-- 27.0% -->
    <g style="fill: #37539c" transform="translate(348.488333 138.985685) scale(0.08 -0.08)">
     <use xlink:href="#OpenSans-Bold-32"/>
     <use xlink:href="#OpenSans-Bold-37" x="57.177734"/>
     <use xlink:href="#OpenSans-Bold-2e" x="114.355469"/>
     <use xlink:href="#OpenSans-Bold-30" x="142.871094"/>
     <use xlink:href="#OpenSans-Bold-25" x="200.048828"/>
    </g>
   </g>
   <g id="text_27">
    <!-- 14.7% -->
    <g style="fill: #37539c" transform="translate(467.248333 181.423334) scale(0.08 -0.08)">
     <use xlink:href="#OpenSans-Bold-31"/>
     <use xlink:href="#OpenSans-Bold-34" x="57.177734"/>
     <use xlink:href="#OpenSans-Bold-2e" x="114.355469"/>
     <use xlink:href="#OpenSans-Bold-37" x="142.871094"/>
     <use xlink:href="#OpenSans-Bold-25" x="200.048828"/>
    </g>
   </g>
   <g id="text_28">
    <!-- 12.4% -->
    <g style="fill: #37539c" transform="translate(586.008333 189.358829) scale(0.08 -0.08)">
     <use xlink:href="#OpenSans-Bold-31"/>
     <use xlink:href="#OpenSans-Bold-32" x="57.177734"/>
     <use xlink:href="#OpenSans-Bold-2e" x="114.355469"/>
     <use xlink:href="#OpenSans-Bold-34" x="142.871094"/>
     <use xlink:href="#OpenSans-Bold-25" x="200.048828"/>
    </g>
   </g>
   <g id="legend_1">
    <g id="patch_20">
     <path d="M 509.31625 53.20375 
L 631.6 53.20375 
Q 633.2 53.20375 633.2 51.60375 
L 633.2 16.4 
Q 633.2 14.8 631.6 14.8 
L 509.31625 14.8 
Q 507.71625 14.8 507.71625 16.4 
L 507.71625 51.60375 
Q 507.71625 53.20375 509.31625 53.20375 
z
" style="fill: #ffffff; opacity: 0.8; stroke: #cccccc; stroke-linejoin: miter"/>
    </g>
    <g id="patch_21">
     <path d="M 510.91625 24.07875 
L 526.91625 24.07875 
L 526.91625 18.47875 
L 510.91625 18.47875 
z
" style="fill: #37539c"/>
    </g>
    <g id="text_29">
     <!-- Nunca o pocas veces -->
     <g style="fill: #37539c" transform="translate(533.31625 24.07875) scale(0.08 -0.08)">
      <defs>
       <path id="OpenSans-Bold-4e" d="M 4628 0 
L 3397 0 
L 1409 3456 
L 1381 3456 
Q 1394 3241 1403 3022 
Q 1413 2803 1422 2586 
Q 1431 2369 1441 2150 
L 1441 0 
L 575 0 
L 575 4569 
L 1797 4569 
L 3781 1147 
L 3803 1147 
Q 3797 1359 3787 1568 
Q 3778 1778 3770 1987 
Q 3763 2197 3756 2406 
L 3756 4569 
L 4628 4569 
L 4628 0 
z
" transform="scale(0.015625)"/>
      </defs>
      <use xlink:href="#OpenSans-Bold-4e"/>
      <use xlink:href="#OpenSans-Bold-75" x="81.298828"/>
      <use xlink:href="#OpenSans-Bold-6e" x="147.021484"/>
      <use xlink:href="#OpenSans-Bold-63" x="212.744141"/>
      <use xlink:href="#OpenSans-Bold-61" x="264.160156"/>
      <use xlink:href="#OpenSans-Bold-20" x="324.560547"/>
      <use xlink:href="#OpenSans-Bold-6f" x="350.537109"/>
      <use xlink:href="#OpenSans-Bold-20" x="412.451172"/>
      <use xlink:href="#OpenSans-Bold-70" x="438.427734"/>
      <use xlink:href="#OpenSans-Bold-6f" x="501.708984"/>
      <use xlink:href="#OpenSans-Bold-63" x="563.623047"/>
      <use xlink:href="#OpenSans-Bold-61" x="615.039062"/>
      <use xlink:href="#OpenSans-Bold-73" x="675.439453"/>
      <use xlink:href="#OpenSans-Bold-20" x="725.146484"/>
      <use xlink:href="#OpenSans-Bold-76" x="751.123047"/>
      <use xlink:href="#OpenSans-Bold-65" x="808.007812"/>
      <use xlink:href="#OpenSans-Bold-63" x="867.089844"/>
      <use xlink:href="#OpenSans-Bold-65" x="918.505859"/>
      <use xlink:href="#OpenSans-Bold-73" x="977.587891"/>
     </g>
    </g>
    <g id="patch_22">
     <path d="M 510.91625 36.08 
L 526.91625 36.08 
L 526.91625 30.48 
L 510.91625 30.48 
z
" style="fill: #59c3c3"/>
    </g>
    <g id="text_30">
     <!-- Muchas veces o siempre -->
     <g style="fill: #37539c" transform="translate(533.31625 36.08) scale(0.08 -0.08)">
      <defs>
       <path id="OpenSans-Bold-4d" d="M 2509 0 
L 1409 3584 
L 1381 3584 
Q 1388 3456 1402 3198 
Q 1416 2941 1428 2650 
Q 1441 2359 1441 2125 
L 1441 0 
L 575 0 
L 575 4569 
L 1894 4569 
L 2975 1075 
L 2994 1075 
L 4141 4569 
L 5459 4569 
L 5459 0 
L 4556 0 
L 4556 2163 
Q 4556 2378 4564 2659 
Q 4572 2941 4584 3195 
Q 4597 3450 4603 3578 
L 4575 3578 
L 3397 0 
L 2509 0 
z
" transform="scale(0.015625)"/>
       <path id="OpenSans-Bold-68" d="M 1453 4863 
L 1453 3872 
Q 1453 3613 1436 3378 
Q 1419 3144 1409 3047 
L 1459 3047 
Q 1572 3228 1726 3340 
Q 1881 3453 2068 3506 
Q 2256 3559 2472 3559 
Q 2850 3559 3131 3426 
Q 3413 3294 3569 3011 
Q 3725 2728 3725 2278 
L 3725 0 
L 2772 0 
L 2772 2041 
Q 2772 2416 2634 2606 
Q 2497 2797 2209 2797 
Q 1922 2797 1756 2664 
Q 1591 2531 1522 2273 
Q 1453 2016 1453 1644 
L 1453 0 
L 500 0 
L 500 4863 
L 1453 4863 
z
" transform="scale(0.015625)"/>
      </defs>
      <use xlink:href="#OpenSans-Bold-4d"/>
      <use xlink:href="#OpenSans-Bold-75" x="94.287109"/>
      <use xlink:href="#OpenSans-Bold-63" x="160.009766"/>
      <use xlink:href="#OpenSans-Bold-68" x="211.425781"/>
      <use xlink:href="#OpenSans-Bold-61" x="277.148438"/>
      <use xlink:href="#OpenSans-Bold-73" x="337.548828"/>
      <use xlink:href="#OpenSans-Bold-20" x="387.255859"/>
      <use xlink:href="#OpenSans-Bold-76" x="413.232422"/>
      <use xlink:href="#OpenSans-Bold-65" x="470.117188"/>
      <use xlink:href="#OpenSans-Bold-63" x="529.199219"/>
      <use xlink:href="#OpenSans-Bold-65" x="580.615234"/>
      <use xlink:href="#OpenSans-Bold-73" x="639.697266"/>
      <use xlink:href="#OpenSans-Bold-20" x="689.404297"/>
      <use xlink:href="#OpenSans-Bold-6f" x="715.380859"/>
      <use xlink:href="#OpenSans-Bold-20" x="777.294922"/>
      <use xlink:href="#OpenSans-Bold-73" x="803.271484"/>
      <use xlink:href="#OpenSans-Bold-69" x="852.978516"/>
      <use xlink:href="#OpenSans-Bold-65" x="883.496094"/>
      <use xlink:href="#OpenSans-Bold-6d" x="942.578125"/>
      <use xlink:href="#OpenSans-Bold-70" x="1040.771484"/>
      <use xlink:href="#OpenSans-Bold-72" x="1104.052734"/>
      <use xlink:href="#OpenSans-Bold-65" x="1149.462891"/>
     </g>
    </g>
    <g id="patch_23">
     <path d="M 510.91625 48.08125 
L 526.91625 48.08125 
L 526.91625 42.48125 
L 510.91625 42.48125 
z
" style="fill: #f45b69"/>
    </g>
    <g id="text_31">
     <!-- No tengo acceso -->
     <g style="fill: #37539c" transform="translate(533.31625 48.08125) scale(0.08 -0.08)">
      <use xlink:href="#OpenSans-Bold-4e"/>
      <use xlink:href="#OpenSans-Bold-6f" x="81.298828"/>
      <use xlink:href="#OpenSans-Bold-20" x="143.212891"/>
      <use xlink:href="#OpenSans-Bold-74" x="169.189453"/>
      <use xlink:href="#OpenSans-Bold-65" x="212.597656"/>
      <use xlink:href="#OpenSans-Bold-6e" x="271.679688"/>
      <use xlink:href="#OpenSans-Bold-67" x="337.402344"/>
      <use xlink:href="#OpenSans-Bold-6f" x="393.896484"/>
      <use xlink:href="#OpenSans-Bold-20" x="455.810547"/>
      <use xlink:href="#OpenSans-Bold-61" x="481.787109"/>
      <use xlink:href="#OpenSans-Bold-63" x="542.1875"/>
      <use xlink:href="#OpenSans-Bold-63" x="593.603516"/>
      <use xlink:href="#OpenSans-Bold-65" x="645.019531"/>
      <use xlink:href="#OpenSans-Bold-73" x="704.101562"/>
      <use xlink:href="#OpenSans-Bold-6f" x="753.808594"/>
     </g>
    </g>
   </g>
  </g>
 </g>
 <defs>
  <clipPath id="pba3d3e6b17">
   <rect x="43.4" y="10.8" width="593.8" height="224.264"/>
  </clipPath>
 </defs>
</svg>
