<?xml version="1.0" encoding="utf-8" standalone="no"?>
<!DOCTYPE svg PUBLIC "-//W3C//DTD SVG 1.1//EN"
  "http://www.w3.org/Graphics/SVG/1.1/DTD/svg11.dtd">
<svg xmlns:xlink="http://www.w3.org/1999/xlink" width="720pt" height="288pt" viewBox="0 0 720 288" xmlns="http://www.w3.org/2000/svg" version="1.1">
 <metadata>
  <rdf:RDF xmlns:dc="http://purl.org/dc/elements/1.1/" xmlns:cc="http://creativecommons.org/ns#" xmlns:rdf="http://www.w3.org/1999/02/22-rdf-syntax-ns#">
   <cc:Work>
    <dc:type rdf:resource="http://purl.org/dc/dcmitype/StillImage"/>
    <dc:date>2024-02-22T18:18:58.877928</dc:date>
    <dc:format>image/svg+xml</dc:format>
    <dc:creator>
     <cc:Agent>
      <dc:title>Matplotlib v3.7.1, https://matplotlib.org/</dc:title>
     </cc:Agent>
    </dc:creator>
   </cc:Work>
  </rdf:RDF>
 </metadata>
 <defs>
  <style type="text/css">*{stroke-linejoin: round; stroke-linecap: butt}</style>
 </defs>
 <g id="figure_1">
  <g id="patch_1">
   <path d="M 0 288 
L 720 288 
L 720 0 
L 0 0 
z
" style="fill: #ffffff"/>
  </g>
  <g id="axes_1">
   <g id="patch_2">
    <path d="M 41.15 204.5 
L 709.2 204.5 
L 709.2 10.8 
L 41.15 10.8 
z
" style="fill: #ffffff"/>
   </g>
   <g id="matplotlib.axis_1">
    <g id="xtick_1">
     <g id="line2d_1">
      <defs>
       <path id="m0b310b5ed5" d="M 0 0 
L 0 3.5 
" style="stroke: #37539c; stroke-width: 0.8"/>
      </defs>
      <g>
       <use xlink:href="#m0b310b5ed5" x="50.428472" y="204.5" style="fill: #37539c; stroke: #37539c; stroke-width: 0.8"/>
      </g>
     </g>
     <g id="text_1">
      <!-- Perú -->
      <g style="fill: #37539c" transform="translate(52.506597 230.14) rotate(-90) scale(0.08 -0.08)">
       <defs>
        <path id="OpenSans-Bold-50" d="M 2034 4569 
Q 2919 4569 3325 4189 
Q 3731 3809 3731 3144 
Q 3731 2844 3640 2570 
Q 3550 2297 3345 2084 
Q 3141 1872 2800 1748 
Q 2459 1625 1959 1625 
L 1544 1625 
L 1544 0 
L 575 0 
L 575 4569 
L 2034 4569 
z
M 1984 3775 
L 1544 3775 
L 1544 2419 
L 1863 2419 
Q 2134 2419 2334 2491 
Q 2534 2563 2643 2716 
Q 2753 2869 2753 3109 
Q 2753 3447 2565 3611 
Q 2378 3775 1984 3775 
z
" transform="scale(0.015625)"/>
        <path id="OpenSans-Bold-65" d="M 1941 3559 
Q 2425 3559 2775 3373 
Q 3125 3188 3315 2834 
Q 3506 2481 3506 1972 
L 3506 1509 
L 1253 1509 
Q 1269 1106 1495 876 
Q 1722 647 2125 647 
Q 2459 647 2737 715 
Q 3016 784 3309 922 
L 3309 184 
Q 3050 56 2767 -3 
Q 2484 -63 2081 -63 
Q 1556 -63 1151 131 
Q 747 325 517 722 
Q 288 1119 288 1722 
Q 288 2334 495 2742 
Q 703 3150 1075 3354 
Q 1447 3559 1941 3559 
z
M 1947 2881 
Q 1669 2881 1486 2703 
Q 1303 2525 1275 2144 
L 2613 2144 
Q 2609 2356 2536 2522 
Q 2463 2688 2317 2784 
Q 2172 2881 1947 2881 
z
" transform="scale(0.015625)"/>
        <path id="OpenSans-Bold-72" d="M 2450 3559 
Q 2522 3559 2617 3551 
Q 2713 3544 2772 3531 
L 2700 2638 
Q 2653 2653 2567 2661 
Q 2481 2669 2419 2669 
Q 2234 2669 2061 2622 
Q 1888 2575 1750 2470 
Q 1613 2366 1533 2195 
Q 1453 2025 1453 1778 
L 1453 0 
L 500 0 
L 500 3494 
L 1222 3494 
L 1363 2906 
L 1409 2906 
Q 1513 3084 1667 3232 
Q 1822 3381 2020 3470 
Q 2219 3559 2450 3559 
z
" transform="scale(0.015625)"/>
        <path id="OpenSans-Bold-fa" d="M 3706 3494 
L 3706 0 
L 2975 0 
L 2847 447 
L 2797 447 
Q 2684 269 2515 156 
Q 2347 44 2144 -9 
Q 1941 -63 1722 -63 
Q 1347 -63 1069 70 
Q 791 203 636 484 
Q 481 766 481 1216 
L 481 3494 
L 1434 3494 
L 1434 1453 
Q 1434 1078 1568 887 
Q 1703 697 1997 697 
Q 2288 697 2453 830 
Q 2619 963 2686 1220 
Q 2753 1478 2753 1850 
L 2753 3494 
L 3706 3494 
z
M 3331 4903 
L 3331 4838 
Q 3241 4750 3094 4622 
Q 2947 4494 2778 4355 
Q 2610 4216 2447 4089 
Q 2285 3963 2163 3878 
L 1528 3878 
L 1528 3963 
Q 1631 4081 1767 4245 
Q 1903 4409 2037 4584 
Q 2172 4759 2263 4903 
L 3331 4903 
z
" transform="scale(0.015625)"/>
       </defs>
       <use xlink:href="#OpenSans-Bold-50"/>
       <use xlink:href="#OpenSans-Bold-65" x="62.792969"/>
       <use xlink:href="#OpenSans-Bold-72" x="121.875"/>
       <use xlink:href="#OpenSans-Bold-fa" x="167.285156"/>
      </g>
     </g>
    </g>
    <g id="xtick_2">
     <g id="line2d_2">
      <g>
       <use xlink:href="#m0b310b5ed5" x="68.985417" y="204.5" style="fill: #37539c; stroke: #37539c; stroke-width: 0.8"/>
      </g>
     </g>
     <g id="text_2">
      <!-- Argentina -->
      <g style="fill: #37539c" transform="translate(71.063542 251.16) rotate(-90) scale(0.08 -0.08)">
       <defs>
        <path id="OpenSans-Bold-41" d="M 3372 0 
L 3041 1088 
L 1375 1088 
L 1044 0 
L 0 0 
L 1613 4588 
L 2797 4588 
L 4416 0 
L 3372 0 
z
M 2809 1900 
L 2478 2963 
Q 2447 3069 2395 3236 
Q 2344 3403 2292 3576 
Q 2241 3750 2209 3878 
Q 2178 3750 2123 3561 
Q 2069 3372 2019 3203 
Q 1969 3034 1947 2963 
L 1619 1900 
L 2809 1900 
z
" transform="scale(0.015625)"/>
        <path id="OpenSans-Bold-67" d="M 1522 -1538 
Q 791 -1538 405 -1283 
Q 19 -1028 19 -569 
Q 19 -253 216 -40 
Q 413 172 794 263 
Q 647 325 537 467 
Q 428 609 428 769 
Q 428 969 543 1101 
Q 659 1234 878 1363 
Q 603 1481 442 1743 
Q 281 2006 281 2363 
Q 281 2744 448 3011 
Q 616 3278 936 3418 
Q 1256 3559 1716 3559 
Q 1813 3559 1941 3546 
Q 2069 3534 2176 3518 
Q 2284 3503 2322 3494 
L 3541 3494 
L 3541 3009 
L 2994 2869 
Q 3069 2753 3106 2622 
Q 3144 2491 3144 2344 
Q 3144 1781 2751 1467 
Q 2359 1153 1663 1153 
Q 1497 1163 1350 1178 
Q 1278 1122 1240 1059 
Q 1203 997 1203 928 
Q 1203 859 1261 814 
Q 1319 769 1436 745 
Q 1553 722 1728 722 
L 2322 722 
Q 2897 722 3198 475 
Q 3500 228 3500 -250 
Q 3500 -863 2989 -1200 
Q 2478 -1538 1522 -1538 
z
M 1563 -916 
Q 1903 -916 2148 -852 
Q 2394 -788 2525 -670 
Q 2656 -553 2656 -391 
Q 2656 -259 2579 -182 
Q 2503 -106 2348 -75 
Q 2194 -44 1953 -44 
L 1459 -44 
Q 1284 -44 1145 -100 
Q 1006 -156 925 -257 
Q 844 -359 844 -494 
Q 844 -691 1033 -803 
Q 1222 -916 1563 -916 
z
M 1716 1734 
Q 1984 1734 2109 1900 
Q 2234 2066 2234 2350 
Q 2234 2666 2104 2823 
Q 1975 2981 1716 2981 
Q 1453 2981 1322 2823 
Q 1191 2666 1191 2350 
Q 1191 2066 1320 1900 
Q 1450 1734 1716 1734 
z
" transform="scale(0.015625)"/>
        <path id="OpenSans-Bold-6e" d="M 2484 3559 
Q 3044 3559 3384 3254 
Q 3725 2950 3725 2278 
L 3725 0 
L 2772 0 
L 2772 2041 
Q 2772 2416 2636 2606 
Q 2500 2797 2209 2797 
Q 1772 2797 1612 2500 
Q 1453 2203 1453 1644 
L 1453 0 
L 500 0 
L 500 3494 
L 1228 3494 
L 1356 3047 
L 1409 3047 
Q 1522 3228 1689 3340 
Q 1856 3453 2061 3506 
Q 2266 3559 2484 3559 
z
" transform="scale(0.015625)"/>
        <path id="OpenSans-Bold-74" d="M 1972 697 
Q 2128 697 2276 728 
Q 2425 759 2572 806 
L 2572 97 
Q 2419 28 2192 -17 
Q 1966 -63 1697 -63 
Q 1384 -63 1136 39 
Q 888 141 745 392 
Q 603 644 603 1094 
L 603 2778 
L 147 2778 
L 147 3181 
L 672 3500 
L 947 4238 
L 1556 4238 
L 1556 3494 
L 2534 3494 
L 2534 2778 
L 1556 2778 
L 1556 1094 
Q 1556 894 1670 795 
Q 1784 697 1972 697 
z
" transform="scale(0.015625)"/>
        <path id="OpenSans-Bold-69" d="M 1453 3494 
L 1453 0 
L 500 0 
L 500 3494 
L 1453 3494 
z
M 978 4863 
Q 1191 4863 1344 4764 
Q 1497 4666 1497 4397 
Q 1497 4131 1344 4029 
Q 1191 3928 978 3928 
Q 763 3928 611 4029 
Q 459 4131 459 4397 
Q 459 4666 611 4764 
Q 763 4863 978 4863 
z
" transform="scale(0.015625)"/>
        <path id="OpenSans-Bold-61" d="M 1931 3566 
Q 2634 3566 3009 3259 
Q 3384 2953 3384 2328 
L 3384 0 
L 2719 0 
L 2534 475 
L 2509 475 
Q 2359 288 2203 169 
Q 2047 50 1844 -6 
Q 1641 -63 1350 -63 
Q 1041 -63 795 56 
Q 550 175 409 420 
Q 269 666 269 1044 
Q 269 1600 659 1864 
Q 1050 2128 1831 2156 
L 2438 2175 
L 2438 2328 
Q 2438 2603 2294 2731 
Q 2150 2859 1894 2859 
Q 1641 2859 1397 2787 
Q 1153 2716 909 2606 
L 594 3250 
Q 872 3397 1217 3481 
Q 1563 3566 1931 3566 
z
M 2438 1619 
L 2069 1606 
Q 1606 1594 1426 1441 
Q 1247 1288 1247 1038 
Q 1247 819 1375 726 
Q 1503 634 1709 634 
Q 2016 634 2227 815 
Q 2438 997 2438 1331 
L 2438 1619 
z
" transform="scale(0.015625)"/>
       </defs>
       <use xlink:href="#OpenSans-Bold-41"/>
       <use xlink:href="#OpenSans-Bold-72" x="68.994141"/>
       <use xlink:href="#OpenSans-Bold-67" x="114.404297"/>
       <use xlink:href="#OpenSans-Bold-65" x="170.898438"/>
       <use xlink:href="#OpenSans-Bold-6e" x="229.980469"/>
       <use xlink:href="#OpenSans-Bold-74" x="295.703125"/>
       <use xlink:href="#OpenSans-Bold-69" x="339.111328"/>
       <use xlink:href="#OpenSans-Bold-6e" x="369.628906"/>
       <use xlink:href="#OpenSans-Bold-61" x="435.351562"/>
      </g>
     </g>
    </g>
    <g id="xtick_3">
     <g id="line2d_3">
      <g>
       <use xlink:href="#m0b310b5ed5" x="87.542361" y="204.5" style="fill: #37539c; stroke: #37539c; stroke-width: 0.8"/>
      </g>
     </g>
     <g id="text_3">
      <!-- México -->
      <g style="fill: #37539c" transform="translate(89.620486 239.9025) rotate(-90) scale(0.08 -0.08)">
       <defs>
        <path id="OpenSans-Bold-4d" d="M 2509 0 
L 1409 3584 
L 1381 3584 
Q 1388 3456 1402 3198 
Q 1416 2941 1428 2650 
Q 1441 2359 1441 2125 
L 1441 0 
L 575 0 
L 575 4569 
L 1894 4569 
L 2975 1075 
L 2994 1075 
L 4141 4569 
L 5459 4569 
L 5459 0 
L 4556 0 
L 4556 2163 
Q 4556 2378 4564 2659 
Q 4572 2941 4584 3195 
Q 4597 3450 4603 3578 
L 4575 3578 
L 3397 0 
L 2509 0 
z
" transform="scale(0.015625)"/>
        <path id="OpenSans-Bold-e9" d="M 1941 3559 
Q 2425 3559 2775 3373 
Q 3125 3188 3315 2834 
Q 3506 2481 3506 1972 
L 3506 1509 
L 1253 1509 
Q 1269 1106 1495 876 
Q 1722 647 2125 647 
Q 2459 647 2737 715 
Q 3016 784 3309 922 
L 3309 184 
Q 3050 56 2767 -3 
Q 2484 -63 2081 -63 
Q 1556 -63 1151 131 
Q 747 325 517 722 
Q 288 1119 288 1722 
Q 288 2334 495 2742 
Q 703 3150 1075 3354 
Q 1447 3559 1941 3559 
z
M 1947 2881 
Q 1669 2881 1486 2703 
Q 1303 2525 1275 2144 
L 2613 2144 
Q 2609 2356 2536 2522 
Q 2463 2688 2317 2784 
Q 2172 2881 1947 2881 
z
M 3123 4903 
L 3123 4838 
Q 3033 4750 2886 4622 
Q 2739 4494 2570 4355 
Q 2402 4216 2239 4089 
Q 2077 3963 1955 3878 
L 1320 3878 
L 1320 3963 
Q 1423 4081 1559 4245 
Q 1695 4409 1829 4584 
Q 1964 4759 2055 4903 
L 3123 4903 
z
" transform="scale(0.015625)"/>
        <path id="OpenSans-Bold-78" d="M 1216 1784 
L 91 3494 
L 1172 3494 
L 1850 2381 
L 2534 3494 
L 3616 3494 
L 2478 1784 
L 3669 0 
L 2584 0 
L 1850 1197 
L 1113 0 
L 31 0 
L 1216 1784 
z
" transform="scale(0.015625)"/>
        <path id="OpenSans-Bold-63" d="M 1919 -63 
Q 1400 -63 1034 126 
Q 669 316 478 712 
Q 288 1109 288 1728 
Q 288 2369 505 2773 
Q 722 3178 1108 3368 
Q 1494 3559 2003 3559 
Q 2366 3559 2630 3489 
Q 2894 3419 3091 3322 
L 2809 2584 
Q 2584 2675 2390 2733 
Q 2197 2791 2003 2791 
Q 1753 2791 1587 2673 
Q 1422 2556 1340 2322 
Q 1259 2088 1259 1734 
Q 1259 1388 1346 1159 
Q 1434 931 1600 820 
Q 1766 709 2003 709 
Q 2300 709 2531 789 
Q 2763 869 2981 1013 
L 2981 197 
Q 2763 59 2523 -2 
Q 2284 -63 1919 -63 
z
" transform="scale(0.015625)"/>
        <path id="OpenSans-Bold-6f" d="M 3675 1753 
Q 3675 1316 3558 978 
Q 3441 641 3217 408 
Q 2994 175 2680 56 
Q 2366 -63 1972 -63 
Q 1603 -63 1295 56 
Q 988 175 761 408 
Q 534 641 411 978 
Q 288 1316 288 1753 
Q 288 2334 494 2737 
Q 700 3141 1081 3350 
Q 1463 3559 1991 3559 
Q 2481 3559 2861 3350 
Q 3241 3141 3458 2737 
Q 3675 2334 3675 1753 
z
M 1259 1753 
Q 1259 1409 1334 1175 
Q 1409 941 1568 822 
Q 1728 703 1984 703 
Q 2238 703 2395 822 
Q 2553 941 2626 1175 
Q 2700 1409 2700 1753 
Q 2700 2100 2626 2329 
Q 2553 2559 2393 2675 
Q 2234 2791 1978 2791 
Q 1600 2791 1429 2531 
Q 1259 2272 1259 1753 
z
" transform="scale(0.015625)"/>
       </defs>
       <use xlink:href="#OpenSans-Bold-4d"/>
       <use xlink:href="#OpenSans-Bold-e9" x="94.287109"/>
       <use xlink:href="#OpenSans-Bold-78" x="153.369141"/>
       <use xlink:href="#OpenSans-Bold-69" x="211.181641"/>
       <use xlink:href="#OpenSans-Bold-63" x="241.699219"/>
       <use xlink:href="#OpenSans-Bold-6f" x="293.115234"/>
      </g>
     </g>
    </g>
    <g id="xtick_4">
     <g id="line2d_4">
      <g>
       <use xlink:href="#m0b310b5ed5" x="106.099306" y="204.5" style="fill: #37539c; stroke: #37539c; stroke-width: 0.8"/>
      </g>
     </g>
     <g id="text_4">
      <!-- Chile -->
      <g style="fill: #37539c" transform="translate(108.177431 231.46375) rotate(-90) scale(0.08 -0.08)">
       <defs>
        <path id="OpenSans-Bold-43" d="M 2516 3828 
Q 2238 3828 2023 3720 
Q 1809 3613 1664 3409 
Q 1519 3206 1444 2918 
Q 1369 2631 1369 2272 
Q 1369 1788 1489 1445 
Q 1609 1103 1862 923 
Q 2116 744 2516 744 
Q 2794 744 3073 806 
Q 3353 869 3681 984 
L 3681 172 
Q 3378 47 3084 -8 
Q 2791 -63 2425 -63 
Q 1719 -63 1264 229 
Q 809 522 590 1048 
Q 372 1575 372 2278 
Q 372 2797 512 3228 
Q 653 3659 925 3975 
Q 1197 4291 1597 4462 
Q 1997 4634 2516 4634 
Q 2856 4634 3198 4548 
Q 3541 4463 3853 4313 
L 3541 3525 
Q 3284 3647 3025 3737 
Q 2766 3828 2516 3828 
z
" transform="scale(0.015625)"/>
        <path id="OpenSans-Bold-68" d="M 1453 4863 
L 1453 3872 
Q 1453 3613 1436 3378 
Q 1419 3144 1409 3047 
L 1459 3047 
Q 1572 3228 1726 3340 
Q 1881 3453 2068 3506 
Q 2256 3559 2472 3559 
Q 2850 3559 3131 3426 
Q 3413 3294 3569 3011 
Q 3725 2728 3725 2278 
L 3725 0 
L 2772 0 
L 2772 2041 
Q 2772 2416 2634 2606 
Q 2497 2797 2209 2797 
Q 1922 2797 1756 2664 
Q 1591 2531 1522 2273 
Q 1453 2016 1453 1644 
L 1453 0 
L 500 0 
L 500 4863 
L 1453 4863 
z
" transform="scale(0.015625)"/>
        <path id="OpenSans-Bold-6c" d="M 1453 0 
L 500 0 
L 500 4863 
L 1453 4863 
L 1453 0 
z
" transform="scale(0.015625)"/>
       </defs>
       <use xlink:href="#OpenSans-Bold-43"/>
       <use xlink:href="#OpenSans-Bold-68" x="63.720703"/>
       <use xlink:href="#OpenSans-Bold-69" x="129.443359"/>
       <use xlink:href="#OpenSans-Bold-6c" x="159.960938"/>
       <use xlink:href="#OpenSans-Bold-65" x="190.478516"/>
      </g>
     </g>
    </g>
    <g id="xtick_5">
     <g id="line2d_5">
      <g>
       <use xlink:href="#m0b310b5ed5" x="124.65625" y="204.5" style="fill: #37539c; stroke: #37539c; stroke-width: 0.8"/>
      </g>
     </g>
     <g id="text_5">
      <!-- Brasil -->
      <g style="fill: #37539c" transform="translate(126.734375 234.19875) rotate(-90) scale(0.08 -0.08)">
       <defs>
        <path id="OpenSans-Bold-42" d="M 575 4569 
L 1997 4569 
Q 2909 4569 3378 4312 
Q 3847 4056 3847 3413 
Q 3847 3153 3764 2943 
Q 3681 2734 3525 2600 
Q 3369 2466 3144 2425 
L 3144 2394 
Q 3372 2347 3556 2233 
Q 3741 2119 3852 1901 
Q 3963 1684 3963 1325 
Q 3963 909 3759 612 
Q 3556 316 3179 158 
Q 2803 0 2284 0 
L 575 0 
L 575 4569 
z
M 1544 2759 
L 2106 2759 
Q 2528 2759 2690 2892 
Q 2853 3025 2853 3284 
Q 2853 3547 2661 3661 
Q 2469 3775 2053 3775 
L 1544 3775 
L 1544 2759 
z
M 1544 1991 
L 1544 800 
L 2175 800 
Q 2613 800 2784 969 
Q 2956 1138 2956 1422 
Q 2956 1591 2881 1719 
Q 2806 1847 2629 1919 
Q 2453 1991 2144 1991 
L 1544 1991 
z
" transform="scale(0.015625)"/>
        <path id="OpenSans-Bold-73" d="M 2938 1038 
Q 2938 681 2770 436 
Q 2603 191 2272 64 
Q 1941 -63 1447 -63 
Q 1081 -63 820 -16 
Q 559 31 294 141 
L 294 928 
Q 578 800 904 717 
Q 1231 634 1478 634 
Q 1756 634 1876 717 
Q 1997 800 1997 934 
Q 1997 1022 1948 1092 
Q 1900 1163 1740 1252 
Q 1581 1341 1241 1484 
Q 913 1622 702 1762 
Q 491 1903 389 2095 
Q 288 2288 288 2584 
Q 288 3069 664 3314 
Q 1041 3559 1672 3559 
Q 1997 3559 2292 3493 
Q 2588 3428 2900 3284 
L 2613 2597 
Q 2353 2709 2123 2781 
Q 1894 2853 1656 2853 
Q 1447 2853 1340 2797 
Q 1234 2741 1234 2625 
Q 1234 2541 1289 2475 
Q 1344 2409 1501 2329 
Q 1659 2250 1966 2125 
Q 2263 2003 2481 1870 
Q 2700 1738 2819 1542 
Q 2938 1347 2938 1038 
z
" transform="scale(0.015625)"/>
       </defs>
       <use xlink:href="#OpenSans-Bold-42"/>
       <use xlink:href="#OpenSans-Bold-72" x="67.1875"/>
       <use xlink:href="#OpenSans-Bold-61" x="112.597656"/>
       <use xlink:href="#OpenSans-Bold-73" x="172.998047"/>
       <use xlink:href="#OpenSans-Bold-69" x="222.705078"/>
       <use xlink:href="#OpenSans-Bold-6c" x="253.222656"/>
      </g>
     </g>
    </g>
    <g id="xtick_6">
     <g id="line2d_6">
      <g>
       <use xlink:href="#m0b310b5ed5" x="143.213194" y="204.5" style="fill: #37539c; stroke: #37539c; stroke-width: 0.8"/>
      </g>
     </g>
     <g id="text_6">
      <!-- Eslovaquia -->
      <g style="fill: #37539c" transform="translate(145.291319 254.32875) rotate(-90) scale(0.08 -0.08)">
       <defs>
        <path id="OpenSans-Bold-45" d="M 3206 0 
L 575 0 
L 575 4569 
L 3206 4569 
L 3206 3775 
L 1544 3775 
L 1544 2772 
L 3091 2772 
L 3091 1978 
L 1544 1978 
L 1544 800 
L 3206 800 
L 3206 0 
z
" transform="scale(0.015625)"/>
        <path id="OpenSans-Bold-76" d="M 1331 0 
L 0 3494 
L 997 3494 
L 1672 1503 
Q 1728 1328 1761 1134 
Q 1794 941 1806 788 
L 1831 788 
Q 1841 953 1877 1140 
Q 1913 1328 1972 1503 
L 2644 3494 
L 3641 3494 
L 2309 0 
L 1331 0 
z
" transform="scale(0.015625)"/>
        <path id="OpenSans-Bold-71" d="M 2597 -1538 
L 2597 -72 
Q 2597 59 2608 192 
Q 2619 325 2638 453 
L 2597 453 
Q 2463 238 2227 87 
Q 1991 -63 1606 -63 
Q 1016 -63 652 395 
Q 288 853 288 1741 
Q 288 2338 456 2742 
Q 625 3147 926 3353 
Q 1228 3559 1625 3559 
Q 2009 3559 2248 3411 
Q 2488 3263 2638 3047 
L 2663 3047 
L 2747 3494 
L 3553 3494 
L 3553 -1538 
L 2597 -1538 
z
M 1947 684 
Q 2209 684 2364 787 
Q 2519 891 2587 1098 
Q 2656 1306 2663 1619 
L 2663 1734 
Q 2663 2244 2506 2514 
Q 2350 2784 1931 2784 
Q 1591 2784 1425 2512 
Q 1259 2241 1259 1728 
Q 1259 1206 1428 945 
Q 1597 684 1947 684 
z
" transform="scale(0.015625)"/>
        <path id="OpenSans-Bold-75" d="M 3706 3494 
L 3706 0 
L 2975 0 
L 2847 447 
L 2797 447 
Q 2684 269 2515 156 
Q 2347 44 2144 -9 
Q 1941 -63 1722 -63 
Q 1347 -63 1069 70 
Q 791 203 636 484 
Q 481 766 481 1216 
L 481 3494 
L 1434 3494 
L 1434 1453 
Q 1434 1078 1568 887 
Q 1703 697 1997 697 
Q 2288 697 2453 830 
Q 2619 963 2686 1220 
Q 2753 1478 2753 1850 
L 2753 3494 
L 3706 3494 
z
" transform="scale(0.015625)"/>
       </defs>
       <use xlink:href="#OpenSans-Bold-45"/>
       <use xlink:href="#OpenSans-Bold-73" x="56.005859"/>
       <use xlink:href="#OpenSans-Bold-6c" x="105.712891"/>
       <use xlink:href="#OpenSans-Bold-6f" x="136.230469"/>
       <use xlink:href="#OpenSans-Bold-76" x="198.144531"/>
       <use xlink:href="#OpenSans-Bold-61" x="255.029297"/>
       <use xlink:href="#OpenSans-Bold-71" x="315.429688"/>
       <use xlink:href="#OpenSans-Bold-75" x="378.710938"/>
       <use xlink:href="#OpenSans-Bold-69" x="444.433594"/>
       <use xlink:href="#OpenSans-Bold-61" x="474.951172"/>
      </g>
     </g>
    </g>
    <g id="xtick_7">
     <g id="line2d_7">
      <g>
       <use xlink:href="#m0b310b5ed5" x="161.770139" y="204.5" style="fill: #37539c; stroke: #37539c; stroke-width: 0.8"/>
      </g>
     </g>
     <g id="text_7">
      <!-- Grecia -->
      <g style="fill: #37539c" transform="translate(163.848264 237.03875) rotate(-90) scale(0.08 -0.08)">
       <defs>
        <path id="OpenSans-Bold-47" d="M 2309 2566 
L 4122 2566 
L 4122 197 
Q 3763 78 3375 7 
Q 2988 -63 2497 -63 
Q 1816 -63 1341 206 
Q 866 475 619 1000 
Q 372 1525 372 2291 
Q 372 3009 648 3534 
Q 925 4059 1458 4346 
Q 1991 4634 2759 4634 
Q 3122 4634 3475 4556 
Q 3828 4478 4116 4353 
L 3794 3578 
Q 3584 3684 3315 3756 
Q 3047 3828 2753 3828 
Q 2331 3828 2020 3634 
Q 1709 3441 1539 3092 
Q 1369 2744 1369 2272 
Q 1369 1825 1491 1479 
Q 1613 1134 1875 939 
Q 2138 744 2559 744 
Q 2766 744 2908 764 
Q 3050 784 3175 806 
L 3175 1759 
L 2309 1759 
L 2309 2566 
z
" transform="scale(0.015625)"/>
       </defs>
       <use xlink:href="#OpenSans-Bold-47"/>
       <use xlink:href="#OpenSans-Bold-72" x="72.412109"/>
       <use xlink:href="#OpenSans-Bold-65" x="117.822266"/>
       <use xlink:href="#OpenSans-Bold-63" x="176.904297"/>
       <use xlink:href="#OpenSans-Bold-69" x="228.320312"/>
       <use xlink:href="#OpenSans-Bold-61" x="258.837891"/>
      </g>
     </g>
    </g>
    <g id="xtick_8">
     <g id="line2d_8">
      <g>
       <use xlink:href="#m0b310b5ed5" x="180.327083" y="204.5" style="fill: #37539c; stroke: #37539c; stroke-width: 0.8"/>
      </g>
     </g>
     <g id="text_8">
      <!-- Polonia -->
      <g style="fill: #37539c" transform="translate(182.405208 241.40375) rotate(-90) scale(0.08 -0.08)">
       <use xlink:href="#OpenSans-Bold-50"/>
       <use xlink:href="#OpenSans-Bold-6f" x="62.792969"/>
       <use xlink:href="#OpenSans-Bold-6c" x="124.707031"/>
       <use xlink:href="#OpenSans-Bold-6f" x="155.224609"/>
       <use xlink:href="#OpenSans-Bold-6e" x="217.138672"/>
       <use xlink:href="#OpenSans-Bold-69" x="282.861328"/>
       <use xlink:href="#OpenSans-Bold-61" x="313.378906"/>
      </g>
     </g>
    </g>
    <g id="xtick_9">
     <g id="line2d_9">
      <g>
       <use xlink:href="#m0b310b5ed5" x="198.884028" y="204.5" style="fill: #37539c; stroke: #37539c; stroke-width: 0.8"/>
      </g>
     </g>
     <g id="text_9">
      <!-- Turquía -->
      <g style="fill: #37539c" transform="translate(200.987153 242.61625) rotate(-90) scale(0.08 -0.08)">
       <defs>
        <path id="OpenSans-Bold-54" d="M 2338 0 
L 1369 0 
L 1369 3763 
L 128 3763 
L 128 4569 
L 3578 4569 
L 3578 3763 
L 2338 3763 
L 2338 0 
z
" transform="scale(0.015625)"/>
        <path id="OpenSans-Bold-ed" d="M 1453 0 
L 500 0 
L 500 3494 
L 1453 3494 
L 1453 0 
z
M 2203 4903 
L 2203 4838 
Q 2113 4750 1966 4622 
Q 1819 4494 1650 4355 
Q 1482 4216 1319 4089 
Q 1157 3963 1035 3878 
L 400 3878 
L 400 3963 
Q 503 4081 639 4245 
Q 775 4409 909 4584 
Q 1044 4759 1135 4903 
L 2203 4903 
z
" transform="scale(0.015625)"/>
       </defs>
       <use xlink:href="#OpenSans-Bold-54"/>
       <use xlink:href="#OpenSans-Bold-75" x="57.910156"/>
       <use xlink:href="#OpenSans-Bold-72" x="123.632812"/>
       <use xlink:href="#OpenSans-Bold-71" x="169.042969"/>
       <use xlink:href="#OpenSans-Bold-75" x="232.324219"/>
       <use xlink:href="#OpenSans-Bold-ed" x="298.046875"/>
       <use xlink:href="#OpenSans-Bold-61" x="328.564453"/>
      </g>
     </g>
    </g>
    <g id="xtick_10">
     <g id="line2d_10">
      <g>
       <use xlink:href="#m0b310b5ed5" x="217.440972" y="204.5" style="fill: #37539c; stroke: #37539c; stroke-width: 0.8"/>
      </g>
     </g>
     <g id="text_10">
      <!-- Letonia -->
      <g style="fill: #37539c" transform="translate(219.519097 241.70375) rotate(-90) scale(0.08 -0.08)">
       <defs>
        <path id="OpenSans-Bold-4c" d="M 575 0 
L 575 4569 
L 1544 4569 
L 1544 800 
L 3397 800 
L 3397 0 
L 575 0 
z
" transform="scale(0.015625)"/>
       </defs>
       <use xlink:href="#OpenSans-Bold-4c"/>
       <use xlink:href="#OpenSans-Bold-65" x="56.494141"/>
       <use xlink:href="#OpenSans-Bold-74" x="115.576172"/>
       <use xlink:href="#OpenSans-Bold-6f" x="158.984375"/>
       <use xlink:href="#OpenSans-Bold-6e" x="220.898438"/>
       <use xlink:href="#OpenSans-Bold-69" x="286.621094"/>
       <use xlink:href="#OpenSans-Bold-61" x="317.138672"/>
      </g>
     </g>
    </g>
    <g id="xtick_11">
     <g id="line2d_11">
      <g>
       <use xlink:href="#m0b310b5ed5" x="235.997917" y="204.5" style="fill: #37539c; stroke: #37539c; stroke-width: 0.8"/>
      </g>
     </g>
     <g id="text_11">
      <!-- Hungría -->
      <g style="fill: #37539c" transform="translate(238.101042 243.5625) rotate(-90) scale(0.08 -0.08)">
       <defs>
        <path id="OpenSans-Bold-48" d="M 4319 0 
L 3353 0 
L 3353 1972 
L 1544 1972 
L 1544 0 
L 575 0 
L 575 4569 
L 1544 4569 
L 1544 2778 
L 3353 2778 
L 3353 4569 
L 4319 4569 
L 4319 0 
z
" transform="scale(0.015625)"/>
       </defs>
       <use xlink:href="#OpenSans-Bold-48"/>
       <use xlink:href="#OpenSans-Bold-75" x="76.513672"/>
       <use xlink:href="#OpenSans-Bold-6e" x="142.236328"/>
       <use xlink:href="#OpenSans-Bold-67" x="207.958984"/>
       <use xlink:href="#OpenSans-Bold-72" x="264.453125"/>
       <use xlink:href="#OpenSans-Bold-ed" x="309.863281"/>
       <use xlink:href="#OpenSans-Bold-61" x="340.380859"/>
      </g>
     </g>
    </g>
    <g id="xtick_12">
     <g id="line2d_12">
      <g>
       <use xlink:href="#m0b310b5ed5" x="254.554861" y="204.5" style="fill: #37539c; stroke: #37539c; stroke-width: 0.8"/>
      </g>
     </g>
     <g id="text_12">
      <!-- Lituania -->
      <g style="fill: #37539c" transform="translate(256.632986 244.555) rotate(-90) scale(0.08 -0.08)">
       <use xlink:href="#OpenSans-Bold-4c"/>
       <use xlink:href="#OpenSans-Bold-69" x="56.494141"/>
       <use xlink:href="#OpenSans-Bold-74" x="87.011719"/>
       <use xlink:href="#OpenSans-Bold-75" x="130.419922"/>
       <use xlink:href="#OpenSans-Bold-61" x="196.142578"/>
       <use xlink:href="#OpenSans-Bold-6e" x="256.542969"/>
       <use xlink:href="#OpenSans-Bold-69" x="322.265625"/>
       <use xlink:href="#OpenSans-Bold-61" x="352.783203"/>
      </g>
     </g>
    </g>
    <g id="xtick_13">
     <g id="line2d_13">
      <g>
       <use xlink:href="#m0b310b5ed5" x="273.111806" y="204.5" style="fill: #37539c; stroke: #37539c; stroke-width: 0.8"/>
      </g>
     </g>
     <g id="text_13">
      <!-- Eslovenia -->
      <g style="fill: #37539c" transform="translate(275.189931 249.16) rotate(-90) scale(0.08 -0.08)">
       <use xlink:href="#OpenSans-Bold-45"/>
       <use xlink:href="#OpenSans-Bold-73" x="56.005859"/>
       <use xlink:href="#OpenSans-Bold-6c" x="105.712891"/>
       <use xlink:href="#OpenSans-Bold-6f" x="136.230469"/>
       <use xlink:href="#OpenSans-Bold-76" x="198.144531"/>
       <use xlink:href="#OpenSans-Bold-65" x="255.029297"/>
       <use xlink:href="#OpenSans-Bold-6e" x="314.111328"/>
       <use xlink:href="#OpenSans-Bold-69" x="379.833984"/>
       <use xlink:href="#OpenSans-Bold-61" x="410.351562"/>
      </g>
     </g>
    </g>
    <g id="xtick_14">
     <g id="line2d_14">
      <g>
       <use xlink:href="#m0b310b5ed5" x="291.66875" y="204.5" style="fill: #37539c; stroke: #37539c; stroke-width: 0.8"/>
      </g>
     </g>
     <g id="text_14">
      <!-- República Checa -->
      <g style="fill: #37539c" transform="translate(293.771875 276.825) rotate(-90) scale(0.08 -0.08)">
       <defs>
        <path id="OpenSans-Bold-52" d="M 1906 4569 
Q 2528 4569 2933 4419 
Q 3338 4269 3534 3966 
Q 3731 3663 3731 3200 
Q 3731 2888 3612 2653 
Q 3494 2419 3300 2256 
Q 3106 2094 2881 1991 
L 4225 0 
L 3150 0 
L 2059 1753 
L 1544 1753 
L 1544 0 
L 575 0 
L 575 4569 
L 1906 4569 
z
M 1838 3775 
L 1544 3775 
L 1544 2541 
L 1856 2541 
Q 2338 2541 2545 2702 
Q 2753 2863 2753 3175 
Q 2753 3500 2529 3637 
Q 2306 3775 1838 3775 
z
" transform="scale(0.015625)"/>
        <path id="OpenSans-Bold-70" d="M 2444 3559 
Q 3034 3559 3398 3100 
Q 3763 2641 3763 1753 
Q 3763 1159 3591 754 
Q 3419 350 3116 143 
Q 2813 -63 2419 -63 
Q 2166 -63 1984 1 
Q 1803 66 1675 167 
Q 1547 269 1453 384 
L 1403 384 
Q 1428 259 1440 128 
Q 1453 -3 1453 -128 
L 1453 -1538 
L 500 -1538 
L 500 3494 
L 1275 3494 
L 1409 3041 
L 1453 3041 
Q 1547 3181 1681 3300 
Q 1816 3419 2005 3489 
Q 2194 3559 2444 3559 
z
M 2138 2797 
Q 1888 2797 1741 2694 
Q 1594 2591 1526 2384 
Q 1459 2178 1453 1863 
L 1453 1759 
Q 1453 1422 1517 1187 
Q 1581 953 1732 831 
Q 1884 709 2150 709 
Q 2369 709 2509 831 
Q 2650 953 2720 1189 
Q 2791 1425 2791 1766 
Q 2791 2278 2631 2537 
Q 2472 2797 2138 2797 
z
" transform="scale(0.015625)"/>
        <path id="OpenSans-Bold-62" d="M 1453 4863 
L 1453 3731 
Q 1453 3534 1442 3340 
Q 1431 3147 1416 3041 
L 1453 3041 
Q 1591 3256 1828 3407 
Q 2066 3559 2444 3559 
Q 3031 3559 3397 3100 
Q 3763 2641 3763 1753 
Q 3763 1156 3594 751 
Q 3425 347 3122 142 
Q 2819 -63 2419 -63 
Q 2034 -63 1812 75 
Q 1591 213 1453 384 
L 1388 384 
L 1228 0 
L 500 0 
L 500 4863 
L 1453 4863 
z
M 2138 2797 
Q 1888 2797 1741 2694 
Q 1594 2591 1526 2384 
Q 1459 2178 1453 1863 
L 1453 1759 
Q 1453 1250 1603 979 
Q 1753 709 2150 709 
Q 2444 709 2617 981 
Q 2791 1253 2791 1766 
Q 2791 2278 2616 2537 
Q 2441 2797 2138 2797 
z
" transform="scale(0.015625)"/>
        <path id="OpenSans-Bold-20" transform="scale(0.015625)"/>
       </defs>
       <use xlink:href="#OpenSans-Bold-52"/>
       <use xlink:href="#OpenSans-Bold-65" x="66.015625"/>
       <use xlink:href="#OpenSans-Bold-70" x="125.097656"/>
       <use xlink:href="#OpenSans-Bold-fa" x="188.378906"/>
       <use xlink:href="#OpenSans-Bold-62" x="254.101562"/>
       <use xlink:href="#OpenSans-Bold-6c" x="317.382812"/>
       <use xlink:href="#OpenSans-Bold-69" x="347.900391"/>
       <use xlink:href="#OpenSans-Bold-63" x="378.417969"/>
       <use xlink:href="#OpenSans-Bold-61" x="429.833984"/>
       <use xlink:href="#OpenSans-Bold-20" x="490.234375"/>
       <use xlink:href="#OpenSans-Bold-43" x="516.210938"/>
       <use xlink:href="#OpenSans-Bold-68" x="579.931641"/>
       <use xlink:href="#OpenSans-Bold-65" x="645.654297"/>
       <use xlink:href="#OpenSans-Bold-63" x="704.736328"/>
       <use xlink:href="#OpenSans-Bold-61" x="756.152344"/>
      </g>
     </g>
    </g>
    <g id="xtick_15">
     <g id="line2d_15">
      <g>
       <use xlink:href="#m0b310b5ed5" x="310.225694" y="204.5" style="fill: #37539c; stroke: #37539c; stroke-width: 0.8"/>
      </g>
     </g>
     <g id="text_15">
      <!-- Portugal -->
      <g style="fill: #37539c" transform="translate(312.303819 245.63375) rotate(-90) scale(0.08 -0.08)">
       <use xlink:href="#OpenSans-Bold-50"/>
       <use xlink:href="#OpenSans-Bold-6f" x="62.792969"/>
       <use xlink:href="#OpenSans-Bold-72" x="124.707031"/>
       <use xlink:href="#OpenSans-Bold-74" x="170.117188"/>
       <use xlink:href="#OpenSans-Bold-75" x="213.525391"/>
       <use xlink:href="#OpenSans-Bold-67" x="279.248047"/>
       <use xlink:href="#OpenSans-Bold-61" x="335.742188"/>
       <use xlink:href="#OpenSans-Bold-6c" x="396.142578"/>
      </g>
     </g>
    </g>
    <g id="xtick_16">
     <g id="line2d_16">
      <g>
       <use xlink:href="#m0b310b5ed5" x="328.782639" y="204.5" style="fill: #37539c; stroke: #37539c; stroke-width: 0.8"/>
      </g>
     </g>
     <g id="text_16">
      <!-- España -->
      <g style="fill: #37539c" transform="translate(330.860764 239.94125) rotate(-90) scale(0.08 -0.08)">
       <defs>
        <path id="OpenSans-Bold-f1" d="M 2484 3559 
Q 3044 3559 3384 3254 
Q 3725 2950 3725 2278 
L 3725 0 
L 2772 0 
L 2772 2041 
Q 2772 2416 2636 2606 
Q 2500 2797 2209 2797 
Q 1772 2797 1612 2500 
Q 1453 2203 1453 1644 
L 1453 0 
L 500 0 
L 500 3494 
L 1228 3494 
L 1356 3047 
L 1409 3047 
Q 1522 3228 1689 3340 
Q 1856 3453 2061 3506 
Q 2266 3559 2484 3559 
z
M 808 3872 
Q 827 4122 899 4305 
Q 971 4488 1086 4605 
Q 1202 4722 1347 4780 
Q 1493 4838 1658 4838 
Q 1786 4838 1909 4789 
Q 2033 4741 2153 4675 
Q 2274 4609 2391 4561 
Q 2508 4513 2621 4513 
Q 2715 4513 2804 4595 
Q 2893 4678 2933 4844 
L 3399 4844 
Q 3361 4350 3117 4114 
Q 2874 3878 2549 3878 
Q 2421 3878 2297 3928 
Q 2174 3978 2053 4042 
Q 1933 4106 1817 4156 
Q 1702 4206 1590 4206 
Q 1493 4206 1404 4123 
Q 1315 4041 1274 3872 
L 808 3872 
z
" transform="scale(0.015625)"/>
       </defs>
       <use xlink:href="#OpenSans-Bold-45"/>
       <use xlink:href="#OpenSans-Bold-73" x="56.005859"/>
       <use xlink:href="#OpenSans-Bold-70" x="105.712891"/>
       <use xlink:href="#OpenSans-Bold-61" x="168.994141"/>
       <use xlink:href="#OpenSans-Bold-f1" x="229.394531"/>
       <use xlink:href="#OpenSans-Bold-61" x="295.117188"/>
      </g>
     </g>
    </g>
    <g id="xtick_17">
     <g id="line2d_17">
      <g>
       <use xlink:href="#m0b310b5ed5" x="347.339583" y="204.5" style="fill: #37539c; stroke: #37539c; stroke-width: 0.8"/>
      </g>
     </g>
     <g id="text_17">
      <!-- Italia -->
      <g style="fill: #37539c" transform="translate(349.417708 232.16875) rotate(-90) scale(0.08 -0.08)">
       <defs>
        <path id="OpenSans-Bold-49" d="M 575 0 
L 575 4569 
L 1544 4569 
L 1544 0 
L 575 0 
z
" transform="scale(0.015625)"/>
       </defs>
       <use xlink:href="#OpenSans-Bold-49"/>
       <use xlink:href="#OpenSans-Bold-74" x="33.105469"/>
       <use xlink:href="#OpenSans-Bold-61" x="76.513672"/>
       <use xlink:href="#OpenSans-Bold-6c" x="136.914062"/>
       <use xlink:href="#OpenSans-Bold-69" x="167.431641"/>
       <use xlink:href="#OpenSans-Bold-61" x="197.949219"/>
      </g>
     </g>
    </g>
    <g id="xtick_18">
     <g id="line2d_18">
      <g>
       <use xlink:href="#m0b310b5ed5" x="365.896528" y="204.5" style="fill: #37539c; stroke: #37539c; stroke-width: 0.8"/>
      </g>
     </g>
     <g id="text_18">
      <!-- Australia -->
      <g style="fill: #37539c" transform="translate(367.974653 247.90625) rotate(-90) scale(0.08 -0.08)">
       <use xlink:href="#OpenSans-Bold-41"/>
       <use xlink:href="#OpenSans-Bold-75" x="68.994141"/>
       <use xlink:href="#OpenSans-Bold-73" x="134.716797"/>
       <use xlink:href="#OpenSans-Bold-74" x="184.423828"/>
       <use xlink:href="#OpenSans-Bold-72" x="227.832031"/>
       <use xlink:href="#OpenSans-Bold-61" x="273.242188"/>
       <use xlink:href="#OpenSans-Bold-6c" x="333.642578"/>
       <use xlink:href="#OpenSans-Bold-69" x="364.160156"/>
       <use xlink:href="#OpenSans-Bold-61" x="394.677734"/>
      </g>
     </g>
    </g>
    <g id="xtick_19">
     <g id="line2d_19">
      <g>
       <use xlink:href="#m0b310b5ed5" x="384.453472" y="204.5" style="fill: #37539c; stroke: #37539c; stroke-width: 0.8"/>
      </g>
     </g>
     <g id="text_19">
      <!-- Bélgica -->
      <g style="fill: #37539c" transform="translate(386.556597 239.95) rotate(-90) scale(0.08 -0.08)">
       <use xlink:href="#OpenSans-Bold-42"/>
       <use xlink:href="#OpenSans-Bold-e9" x="67.1875"/>
       <use xlink:href="#OpenSans-Bold-6c" x="126.269531"/>
       <use xlink:href="#OpenSans-Bold-67" x="156.787109"/>
       <use xlink:href="#OpenSans-Bold-69" x="213.28125"/>
       <use xlink:href="#OpenSans-Bold-63" x="243.798828"/>
       <use xlink:href="#OpenSans-Bold-61" x="295.214844"/>
      </g>
     </g>
    </g>
    <g id="xtick_20">
     <g id="line2d_20">
      <g>
       <use xlink:href="#m0b310b5ed5" x="403.010417" y="204.5" style="fill: #37539c; stroke: #37539c; stroke-width: 0.8"/>
      </g>
     </g>
     <g id="text_20">
      <!-- Irlanda -->
      <g style="fill: #37539c" transform="translate(405.088542 240.2075) rotate(-90) scale(0.08 -0.08)">
       <defs>
        <path id="OpenSans-Bold-64" d="M 1606 -63 
Q 1022 -63 655 395 
Q 288 853 288 1741 
Q 288 2638 659 3098 
Q 1031 3559 1631 3559 
Q 1881 3559 2072 3490 
Q 2263 3422 2402 3306 
Q 2541 3191 2638 3047 
L 2669 3047 
Q 2650 3147 2623 3342 
Q 2597 3538 2597 3744 
L 2597 4863 
L 3553 4863 
L 3553 0 
L 2822 0 
L 2638 453 
L 2597 453 
Q 2506 309 2370 192 
Q 2234 75 2046 6 
Q 1859 -63 1606 -63 
z
M 1941 697 
Q 2331 697 2492 930 
Q 2653 1163 2663 1631 
L 2663 1734 
Q 2663 2244 2506 2514 
Q 2350 2784 1925 2784 
Q 1609 2784 1431 2512 
Q 1253 2241 1253 1728 
Q 1253 1216 1433 956 
Q 1613 697 1941 697 
z
" transform="scale(0.015625)"/>
       </defs>
       <use xlink:href="#OpenSans-Bold-49"/>
       <use xlink:href="#OpenSans-Bold-72" x="33.105469"/>
       <use xlink:href="#OpenSans-Bold-6c" x="78.515625"/>
       <use xlink:href="#OpenSans-Bold-61" x="109.033203"/>
       <use xlink:href="#OpenSans-Bold-6e" x="169.433594"/>
       <use xlink:href="#OpenSans-Bold-64" x="235.15625"/>
       <use xlink:href="#OpenSans-Bold-61" x="298.4375"/>
      </g>
     </g>
    </g>
    <g id="xtick_21">
     <g id="line2d_21">
      <g>
       <use xlink:href="#m0b310b5ed5" x="421.567361" y="204.5" style="fill: #37539c; stroke: #37539c; stroke-width: 0.8"/>
      </g>
     </g>
     <g id="text_21">
      <!-- Luxemburgo -->
      <g style="fill: #37539c" transform="translate(423.645486 261.91) rotate(-90) scale(0.08 -0.08)">
       <defs>
        <path id="OpenSans-Bold-6d" d="M 4603 3559 
Q 5197 3559 5501 3254 
Q 5806 2950 5806 2278 
L 5806 0 
L 4850 0 
L 4850 2041 
Q 4850 2416 4722 2606 
Q 4594 2797 4325 2797 
Q 3947 2797 3787 2526 
Q 3628 2256 3628 1753 
L 3628 0 
L 2675 0 
L 2675 2041 
Q 2675 2291 2619 2459 
Q 2563 2628 2447 2712 
Q 2331 2797 2150 2797 
Q 1884 2797 1732 2664 
Q 1581 2531 1517 2273 
Q 1453 2016 1453 1644 
L 1453 0 
L 500 0 
L 500 3494 
L 1228 3494 
L 1356 3047 
L 1409 3047 
Q 1516 3228 1677 3340 
Q 1838 3453 2031 3506 
Q 2225 3559 2425 3559 
Q 2809 3559 3076 3434 
Q 3344 3309 3488 3047 
L 3572 3047 
Q 3728 3316 4014 3437 
Q 4300 3559 4603 3559 
z
" transform="scale(0.015625)"/>
       </defs>
       <use xlink:href="#OpenSans-Bold-4c"/>
       <use xlink:href="#OpenSans-Bold-75" x="56.494141"/>
       <use xlink:href="#OpenSans-Bold-78" x="122.216797"/>
       <use xlink:href="#OpenSans-Bold-65" x="180.029297"/>
       <use xlink:href="#OpenSans-Bold-6d" x="239.111328"/>
       <use xlink:href="#OpenSans-Bold-62" x="337.304688"/>
       <use xlink:href="#OpenSans-Bold-75" x="400.585938"/>
       <use xlink:href="#OpenSans-Bold-72" x="466.308594"/>
       <use xlink:href="#OpenSans-Bold-67" x="511.71875"/>
       <use xlink:href="#OpenSans-Bold-6f" x="568.212891"/>
      </g>
     </g>
    </g>
    <g id="xtick_22">
     <g id="line2d_22">
      <g>
       <use xlink:href="#m0b310b5ed5" x="440.124306" y="204.5" style="fill: #37539c; stroke: #37539c; stroke-width: 0.8"/>
      </g>
     </g>
     <g id="text_22">
      <!-- Islandia -->
      <g style="fill: #37539c" transform="translate(442.202431 242.9925) rotate(-90) scale(0.08 -0.08)">
       <use xlink:href="#OpenSans-Bold-49"/>
       <use xlink:href="#OpenSans-Bold-73" x="33.105469"/>
       <use xlink:href="#OpenSans-Bold-6c" x="82.8125"/>
       <use xlink:href="#OpenSans-Bold-61" x="113.330078"/>
       <use xlink:href="#OpenSans-Bold-6e" x="173.730469"/>
       <use xlink:href="#OpenSans-Bold-64" x="239.453125"/>
       <use xlink:href="#OpenSans-Bold-69" x="302.734375"/>
       <use xlink:href="#OpenSans-Bold-61" x="333.251953"/>
      </g>
     </g>
    </g>
    <g id="xtick_23">
     <g id="line2d_23">
      <g>
       <use xlink:href="#m0b310b5ed5" x="458.68125" y="204.5" style="fill: #37539c; stroke: #37539c; stroke-width: 0.8"/>
      </g>
     </g>
     <g id="text_23">
      <!-- Noruega -->
      <g style="fill: #37539c" transform="translate(460.759375 245.92625) rotate(-90) scale(0.08 -0.08)">
       <defs>
        <path id="OpenSans-Bold-4e" d="M 4628 0 
L 3397 0 
L 1409 3456 
L 1381 3456 
Q 1394 3241 1403 3022 
Q 1413 2803 1422 2586 
Q 1431 2369 1441 2150 
L 1441 0 
L 575 0 
L 575 4569 
L 1797 4569 
L 3781 1147 
L 3803 1147 
Q 3797 1359 3787 1568 
Q 3778 1778 3770 1987 
Q 3763 2197 3756 2406 
L 3756 4569 
L 4628 4569 
L 4628 0 
z
" transform="scale(0.015625)"/>
       </defs>
       <use xlink:href="#OpenSans-Bold-4e"/>
       <use xlink:href="#OpenSans-Bold-6f" x="81.298828"/>
       <use xlink:href="#OpenSans-Bold-72" x="143.212891"/>
       <use xlink:href="#OpenSans-Bold-75" x="188.623047"/>
       <use xlink:href="#OpenSans-Bold-65" x="254.345703"/>
       <use xlink:href="#OpenSans-Bold-67" x="313.427734"/>
       <use xlink:href="#OpenSans-Bold-61" x="369.921875"/>
      </g>
     </g>
    </g>
    <g id="xtick_24">
     <g id="line2d_24">
      <g>
       <use xlink:href="#m0b310b5ed5" x="477.238194" y="204.5" style="fill: #37539c; stroke: #37539c; stroke-width: 0.8"/>
      </g>
     </g>
     <g id="text_24">
      <!-- Austria -->
      <g style="fill: #37539c" transform="translate(479.316319 240.6325) rotate(-90) scale(0.08 -0.08)">
       <use xlink:href="#OpenSans-Bold-41"/>
       <use xlink:href="#OpenSans-Bold-75" x="68.994141"/>
       <use xlink:href="#OpenSans-Bold-73" x="134.716797"/>
       <use xlink:href="#OpenSans-Bold-74" x="184.423828"/>
       <use xlink:href="#OpenSans-Bold-72" x="227.832031"/>
       <use xlink:href="#OpenSans-Bold-69" x="273.242188"/>
       <use xlink:href="#OpenSans-Bold-61" x="303.759766"/>
      </g>
     </g>
    </g>
    <g id="xtick_25">
     <g id="line2d_25">
      <g>
       <use xlink:href="#m0b310b5ed5" x="495.795139" y="204.5" style="fill: #37539c; stroke: #37539c; stroke-width: 0.8"/>
      </g>
     </g>
     <g id="text_25">
      <!-- Estonia -->
      <g style="fill: #37539c" transform="translate(497.873264 240.91375) rotate(-90) scale(0.08 -0.08)">
       <use xlink:href="#OpenSans-Bold-45"/>
       <use xlink:href="#OpenSans-Bold-73" x="56.005859"/>
       <use xlink:href="#OpenSans-Bold-74" x="105.712891"/>
       <use xlink:href="#OpenSans-Bold-6f" x="149.121094"/>
       <use xlink:href="#OpenSans-Bold-6e" x="211.035156"/>
       <use xlink:href="#OpenSans-Bold-69" x="276.757812"/>
       <use xlink:href="#OpenSans-Bold-61" x="307.275391"/>
      </g>
     </g>
    </g>
    <g id="xtick_26">
     <g id="line2d_26">
      <g>
       <use xlink:href="#m0b310b5ed5" x="514.352083" y="204.5" style="fill: #37539c; stroke: #37539c; stroke-width: 0.8"/>
      </g>
     </g>
     <g id="text_26">
      <!-- Canadá -->
      <g style="fill: #37539c" transform="translate(516.430208 241.415) rotate(-90) scale(0.08 -0.08)">
       <defs>
        <path id="OpenSans-Bold-e1" d="M 1931 3566 
Q 2634 3566 3009 3259 
Q 3384 2953 3384 2328 
L 3384 0 
L 2719 0 
L 2534 475 
L 2509 475 
Q 2359 288 2203 169 
Q 2047 50 1844 -6 
Q 1641 -63 1350 -63 
Q 1041 -63 795 56 
Q 550 175 409 420 
Q 269 666 269 1044 
Q 269 1600 659 1864 
Q 1050 2128 1831 2156 
L 2438 2175 
L 2438 2328 
Q 2438 2603 2294 2731 
Q 2150 2859 1894 2859 
Q 1641 2859 1397 2787 
Q 1153 2716 909 2606 
L 594 3250 
Q 872 3397 1217 3481 
Q 1563 3566 1931 3566 
z
M 2438 1619 
L 2069 1606 
Q 1606 1594 1426 1441 
Q 1247 1288 1247 1038 
Q 1247 819 1375 726 
Q 1503 634 1709 634 
Q 2016 634 2227 815 
Q 2438 997 2438 1331 
L 2438 1619 
z
M 3163 4903 
L 3163 4838 
Q 3073 4750 2926 4622 
Q 2779 4494 2610 4355 
Q 2442 4216 2279 4089 
Q 2117 3963 1995 3878 
L 1360 3878 
L 1360 3963 
Q 1463 4081 1599 4245 
Q 1735 4409 1869 4584 
Q 2004 4759 2095 4903 
L 3163 4903 
z
" transform="scale(0.015625)"/>
       </defs>
       <use xlink:href="#OpenSans-Bold-43"/>
       <use xlink:href="#OpenSans-Bold-61" x="63.720703"/>
       <use xlink:href="#OpenSans-Bold-6e" x="124.121094"/>
       <use xlink:href="#OpenSans-Bold-61" x="189.84375"/>
       <use xlink:href="#OpenSans-Bold-64" x="250.244141"/>
       <use xlink:href="#OpenSans-Bold-e1" x="313.525391"/>
      </g>
     </g>
    </g>
    <g id="xtick_27">
     <g id="line2d_27">
      <g>
       <use xlink:href="#m0b310b5ed5" x="532.909028" y="204.5" style="fill: #37539c; stroke: #37539c; stroke-width: 0.8"/>
      </g>
     </g>
     <g id="text_27">
      <!-- Israel -->
      <g style="fill: #37539c" transform="translate(534.987153 233.7575) rotate(-90) scale(0.08 -0.08)">
       <use xlink:href="#OpenSans-Bold-49"/>
       <use xlink:href="#OpenSans-Bold-73" x="33.105469"/>
       <use xlink:href="#OpenSans-Bold-72" x="82.8125"/>
       <use xlink:href="#OpenSans-Bold-61" x="128.222656"/>
       <use xlink:href="#OpenSans-Bold-65" x="188.623047"/>
       <use xlink:href="#OpenSans-Bold-6c" x="247.705078"/>
      </g>
     </g>
    </g>
    <g id="xtick_28">
     <g id="line2d_28">
      <g>
       <use xlink:href="#m0b310b5ed5" x="551.465972" y="204.5" style="fill: #37539c; stroke: #37539c; stroke-width: 0.8"/>
      </g>
     </g>
     <g id="text_28">
      <!-- Japón -->
      <g style="fill: #37539c" transform="translate(553.569097 234.255) rotate(-90) scale(0.08 -0.08)">
       <defs>
        <path id="OpenSans-Bold-4a" d="M 97 -1344 
Q -91 -1344 -233 -1323 
Q -375 -1303 -475 -1275 
L -475 -469 
Q -375 -491 -261 -511 
Q -147 -531 -19 -531 
Q 150 -531 284 -467 
Q 419 -403 497 -225 
Q 575 -47 575 288 
L 575 4569 
L 1544 4569 
L 1544 294 
Q 1544 -294 1361 -655 
Q 1178 -1016 851 -1180 
Q 525 -1344 97 -1344 
z
" transform="scale(0.015625)"/>
        <path id="OpenSans-Bold-f3" d="M 3675 1753 
Q 3675 1316 3558 978 
Q 3441 641 3217 408 
Q 2994 175 2680 56 
Q 2366 -63 1972 -63 
Q 1603 -63 1295 56 
Q 988 175 761 408 
Q 534 641 411 978 
Q 288 1316 288 1753 
Q 288 2334 494 2737 
Q 700 3141 1081 3350 
Q 1463 3559 1991 3559 
Q 2481 3559 2861 3350 
Q 3241 3141 3458 2737 
Q 3675 2334 3675 1753 
z
M 1259 1753 
Q 1259 1409 1334 1175 
Q 1409 941 1568 822 
Q 1728 703 1984 703 
Q 2238 703 2395 822 
Q 2553 941 2626 1175 
Q 2700 1409 2700 1753 
Q 2700 2100 2626 2329 
Q 2553 2559 2393 2675 
Q 2234 2791 1978 2791 
Q 1600 2791 1429 2531 
Q 1259 2272 1259 1753 
z
M 3211 4903 
L 3211 4838 
Q 3121 4750 2974 4622 
Q 2827 4494 2658 4355 
Q 2490 4216 2327 4089 
Q 2165 3963 2043 3878 
L 1408 3878 
L 1408 3963 
Q 1511 4081 1647 4245 
Q 1783 4409 1917 4584 
Q 2052 4759 2143 4903 
L 3211 4903 
z
" transform="scale(0.015625)"/>
       </defs>
       <use xlink:href="#OpenSans-Bold-4a"/>
       <use xlink:href="#OpenSans-Bold-61" x="33.105469"/>
       <use xlink:href="#OpenSans-Bold-70" x="93.505859"/>
       <use xlink:href="#OpenSans-Bold-f3" x="156.787109"/>
       <use xlink:href="#OpenSans-Bold-6e" x="218.701172"/>
      </g>
     </g>
    </g>
    <g id="xtick_29">
     <g id="line2d_29">
      <g>
       <use xlink:href="#m0b310b5ed5" x="570.022917" y="204.5" style="fill: #37539c; stroke: #37539c; stroke-width: 0.8"/>
      </g>
     </g>
     <g id="text_29">
      <!-- Francia -->
      <g style="fill: #37539c" transform="translate(572.101042 241.00125) rotate(-90) scale(0.08 -0.08)">
       <defs>
        <path id="OpenSans-Bold-46" d="M 1528 0 
L 575 0 
L 575 4569 
L 3194 4569 
L 3194 3775 
L 1528 3775 
L 1528 2597 
L 3078 2597 
L 3078 1806 
L 1528 1806 
L 1528 0 
z
" transform="scale(0.015625)"/>
       </defs>
       <use xlink:href="#OpenSans-Bold-46"/>
       <use xlink:href="#OpenSans-Bold-72" x="54.882812"/>
       <use xlink:href="#OpenSans-Bold-61" x="100.292969"/>
       <use xlink:href="#OpenSans-Bold-6e" x="160.693359"/>
       <use xlink:href="#OpenSans-Bold-63" x="226.416016"/>
       <use xlink:href="#OpenSans-Bold-69" x="277.832031"/>
       <use xlink:href="#OpenSans-Bold-61" x="308.349609"/>
      </g>
     </g>
    </g>
    <g id="xtick_30">
     <g id="line2d_30">
      <g>
       <use xlink:href="#m0b310b5ed5" x="588.579861" y="204.5" style="fill: #37539c; stroke: #37539c; stroke-width: 0.8"/>
      </g>
     </g>
     <g id="text_30">
      <!-- Dinamarca -->
      <g style="fill: #37539c" transform="translate(590.657986 255.22) rotate(-90) scale(0.08 -0.08)">
       <defs>
        <path id="OpenSans-Bold-44" d="M 4366 2328 
Q 4366 1556 4070 1039 
Q 3775 522 3215 261 
Q 2656 0 1869 0 
L 575 0 
L 575 4569 
L 2009 4569 
Q 2728 4569 3256 4314 
Q 3784 4059 4075 3561 
Q 4366 3063 4366 2328 
z
M 3359 2303 
Q 3359 2809 3211 3136 
Q 3063 3463 2773 3619 
Q 2484 3775 2059 3775 
L 1544 3775 
L 1544 800 
L 1959 800 
Q 2669 800 3014 1178 
Q 3359 1556 3359 2303 
z
" transform="scale(0.015625)"/>
       </defs>
       <use xlink:href="#OpenSans-Bold-44"/>
       <use xlink:href="#OpenSans-Bold-69" x="74.023438"/>
       <use xlink:href="#OpenSans-Bold-6e" x="104.541016"/>
       <use xlink:href="#OpenSans-Bold-61" x="170.263672"/>
       <use xlink:href="#OpenSans-Bold-6d" x="230.664062"/>
       <use xlink:href="#OpenSans-Bold-61" x="328.857422"/>
       <use xlink:href="#OpenSans-Bold-72" x="389.257812"/>
       <use xlink:href="#OpenSans-Bold-63" x="434.667969"/>
       <use xlink:href="#OpenSans-Bold-61" x="486.083984"/>
      </g>
     </g>
    </g>
    <g id="xtick_31">
     <g id="line2d_31">
      <g>
       <use xlink:href="#m0b310b5ed5" x="607.136806" y="204.5" style="fill: #37539c; stroke: #37539c; stroke-width: 0.8"/>
      </g>
     </g>
     <g id="text_31">
      <!-- Alemania -->
      <g style="fill: #37539c" transform="translate(609.214931 249.40625) rotate(-90) scale(0.08 -0.08)">
       <use xlink:href="#OpenSans-Bold-41"/>
       <use xlink:href="#OpenSans-Bold-6c" x="68.994141"/>
       <use xlink:href="#OpenSans-Bold-65" x="99.511719"/>
       <use xlink:href="#OpenSans-Bold-6d" x="158.59375"/>
       <use xlink:href="#OpenSans-Bold-61" x="256.787109"/>
       <use xlink:href="#OpenSans-Bold-6e" x="317.1875"/>
       <use xlink:href="#OpenSans-Bold-69" x="382.910156"/>
       <use xlink:href="#OpenSans-Bold-61" x="413.427734"/>
      </g>
     </g>
    </g>
    <g id="xtick_32">
     <g id="line2d_32">
      <g>
       <use xlink:href="#m0b310b5ed5" x="625.69375" y="204.5" style="fill: #37539c; stroke: #37539c; stroke-width: 0.8"/>
      </g>
     </g>
     <g id="text_32">
      <!-- Países Bajos -->
      <g style="fill: #37539c" transform="translate(627.796875 260.13375) rotate(-90) scale(0.08 -0.08)">
       <defs>
        <path id="OpenSans-Bold-6a" d="M 219 -1538 
Q 56 -1538 -119 -1514 
Q -294 -1491 -409 -1459 
L -409 -709 
Q -294 -741 -192 -755 
Q -91 -769 38 -769 
Q 231 -769 365 -661 
Q 500 -553 500 -238 
L 500 3494 
L 1453 3494 
L 1453 -378 
Q 1453 -697 1331 -961 
Q 1209 -1225 937 -1381 
Q 666 -1538 219 -1538 
z
M 459 4397 
Q 459 4666 611 4764 
Q 763 4863 978 4863 
Q 1191 4863 1344 4764 
Q 1497 4666 1497 4397 
Q 1497 4131 1344 4029 
Q 1191 3928 978 3928 
Q 763 3928 611 4029 
Q 459 4131 459 4397 
z
" transform="scale(0.015625)"/>
       </defs>
       <use xlink:href="#OpenSans-Bold-50"/>
       <use xlink:href="#OpenSans-Bold-61" x="62.792969"/>
       <use xlink:href="#OpenSans-Bold-ed" x="123.193359"/>
       <use xlink:href="#OpenSans-Bold-73" x="153.710938"/>
       <use xlink:href="#OpenSans-Bold-65" x="203.417969"/>
       <use xlink:href="#OpenSans-Bold-73" x="262.5"/>
       <use xlink:href="#OpenSans-Bold-20" x="312.207031"/>
       <use xlink:href="#OpenSans-Bold-42" x="338.183594"/>
       <use xlink:href="#OpenSans-Bold-61" x="405.371094"/>
       <use xlink:href="#OpenSans-Bold-6a" x="465.771484"/>
       <use xlink:href="#OpenSans-Bold-6f" x="496.289062"/>
       <use xlink:href="#OpenSans-Bold-73" x="558.203125"/>
      </g>
     </g>
    </g>
    <g id="xtick_33">
     <g id="line2d_33">
      <g>
       <use xlink:href="#m0b310b5ed5" x="644.250694" y="204.5" style="fill: #37539c; stroke: #37539c; stroke-width: 0.8"/>
      </g>
     </g>
     <g id="text_33">
      <!-- Finlandia -->
      <g style="fill: #37539c" transform="translate(646.328819 248.4575) rotate(-90) scale(0.08 -0.08)">
       <use xlink:href="#OpenSans-Bold-46"/>
       <use xlink:href="#OpenSans-Bold-69" x="54.882812"/>
       <use xlink:href="#OpenSans-Bold-6e" x="85.400391"/>
       <use xlink:href="#OpenSans-Bold-6c" x="151.123047"/>
       <use xlink:href="#OpenSans-Bold-61" x="181.640625"/>
       <use xlink:href="#OpenSans-Bold-6e" x="242.041016"/>
       <use xlink:href="#OpenSans-Bold-64" x="307.763672"/>
       <use xlink:href="#OpenSans-Bold-69" x="371.044922"/>
       <use xlink:href="#OpenSans-Bold-61" x="401.5625"/>
      </g>
     </g>
    </g>
    <g id="xtick_34">
     <g id="line2d_34">
      <g>
       <use xlink:href="#m0b310b5ed5" x="662.807639" y="204.5" style="fill: #37539c; stroke: #37539c; stroke-width: 0.8"/>
      </g>
     </g>
     <g id="text_34">
      <!-- Reino Unido -->
      <g style="fill: #37539c" transform="translate(664.885764 260.00125) rotate(-90) scale(0.08 -0.08)">
       <defs>
        <path id="OpenSans-Bold-55" d="M 4294 4569 
L 4294 1613 
Q 4294 1141 4086 761 
Q 3878 381 3458 159 
Q 3038 -63 2400 -63 
Q 1494 -63 1019 400 
Q 544 863 544 1625 
L 544 4569 
L 1509 4569 
L 1509 1772 
Q 1509 1206 1740 978 
Q 1972 750 2425 750 
Q 2744 750 2942 859 
Q 3141 969 3234 1197 
Q 3328 1425 3328 1778 
L 3328 4569 
L 4294 4569 
z
" transform="scale(0.015625)"/>
       </defs>
       <use xlink:href="#OpenSans-Bold-52"/>
       <use xlink:href="#OpenSans-Bold-65" x="66.015625"/>
       <use xlink:href="#OpenSans-Bold-69" x="125.097656"/>
       <use xlink:href="#OpenSans-Bold-6e" x="155.615234"/>
       <use xlink:href="#OpenSans-Bold-6f" x="221.337891"/>
       <use xlink:href="#OpenSans-Bold-20" x="283.251953"/>
       <use xlink:href="#OpenSans-Bold-55" x="309.228516"/>
       <use xlink:href="#OpenSans-Bold-6e" x="384.814453"/>
       <use xlink:href="#OpenSans-Bold-69" x="450.537109"/>
       <use xlink:href="#OpenSans-Bold-64" x="481.054688"/>
       <use xlink:href="#OpenSans-Bold-6f" x="544.335938"/>
      </g>
     </g>
    </g>
    <g id="xtick_35">
     <g id="line2d_35">
      <g>
       <use xlink:href="#m0b310b5ed5" x="681.364583" y="204.5" style="fill: #37539c; stroke: #37539c; stroke-width: 0.8"/>
      </g>
     </g>
     <g id="text_35">
      <!-- Suecia -->
      <g style="fill: #37539c" transform="translate(683.442708 237.2775) rotate(-90) scale(0.08 -0.08)">
       <defs>
        <path id="OpenSans-Bold-53" d="M 3272 1269 
Q 3272 863 3075 563 
Q 2878 263 2501 100 
Q 2125 -63 1588 -63 
Q 1350 -63 1123 -31 
Q 897 0 689 61 
Q 481 122 294 213 
L 294 1113 
Q 619 969 969 853 
Q 1319 738 1663 738 
Q 1900 738 2045 800 
Q 2191 863 2256 972 
Q 2322 1081 2322 1222 
Q 2322 1394 2206 1516 
Q 2091 1638 1889 1744 
Q 1688 1850 1434 1972 
Q 1275 2047 1087 2155 
Q 900 2263 731 2419 
Q 563 2575 455 2798 
Q 347 3022 347 3334 
Q 347 3744 534 4034 
Q 722 4325 1070 4479 
Q 1419 4634 1894 4634 
Q 2250 4634 2573 4551 
Q 2897 4469 3250 4313 
L 2938 3559 
Q 2622 3688 2372 3758 
Q 2122 3828 1863 3828 
Q 1681 3828 1553 3770 
Q 1425 3713 1359 3608 
Q 1294 3503 1294 3366 
Q 1294 3203 1389 3092 
Q 1484 2981 1676 2878 
Q 1869 2775 2156 2638 
Q 2506 2472 2754 2292 
Q 3003 2113 3137 1870 
Q 3272 1628 3272 1269 
z
" transform="scale(0.015625)"/>
       </defs>
       <use xlink:href="#OpenSans-Bold-53"/>
       <use xlink:href="#OpenSans-Bold-75" x="55.078125"/>
       <use xlink:href="#OpenSans-Bold-65" x="120.800781"/>
       <use xlink:href="#OpenSans-Bold-63" x="179.882812"/>
       <use xlink:href="#OpenSans-Bold-69" x="231.298828"/>
       <use xlink:href="#OpenSans-Bold-61" x="261.816406"/>
      </g>
     </g>
    </g>
    <g id="xtick_36">
     <g id="line2d_36">
      <g>
       <use xlink:href="#m0b310b5ed5" x="699.921528" y="204.5" style="fill: #37539c; stroke: #37539c; stroke-width: 0.8"/>
      </g>
     </g>
     <g id="text_36">
      <!-- Suiza -->
      <g style="fill: #37539c" transform="translate(701.999653 232.34) rotate(-90) scale(0.08 -0.08)">
       <defs>
        <path id="OpenSans-Bold-7a" d="M 2931 0 
L 172 0 
L 172 563 
L 1791 2766 
L 269 2766 
L 269 3494 
L 2875 3494 
L 2875 2875 
L 1300 728 
L 2931 728 
L 2931 0 
z
" transform="scale(0.015625)"/>
       </defs>
       <use xlink:href="#OpenSans-Bold-53"/>
       <use xlink:href="#OpenSans-Bold-75" x="55.078125"/>
       <use xlink:href="#OpenSans-Bold-69" x="120.800781"/>
       <use xlink:href="#OpenSans-Bold-7a" x="151.318359"/>
       <use xlink:href="#OpenSans-Bold-61" x="200.097656"/>
      </g>
     </g>
    </g>
   </g>
   <g id="matplotlib.axis_2">
    <g id="ytick_1">
     <g id="line2d_37">
      <path d="M 41.15 204.5 
L 709.2 204.5 
" clip-path="url(#p89e9b257f0)" style="fill: none; stroke-dasharray: 2.96,1.28; stroke-dashoffset: 0; stroke: #b0b0b0; stroke-width: 0.8"/>
     </g>
     <g id="line2d_38">
      <defs>
       <path id="ma92bb1c806" d="M 0 0 
L -3.5 0 
" style="stroke: #37539c; stroke-width: 0.8"/>
      </defs>
      <g>
       <use xlink:href="#ma92bb1c806" x="41.15" y="204.5" style="fill: #37539c; stroke: #37539c; stroke-width: 0.8"/>
      </g>
     </g>
     <g id="text_37">
      <!-- 0 -->
      <g style="fill: #37539c" transform="translate(29.57625 207.539375) scale(0.08 -0.08)">
       <defs>
        <path id="OpenSans-Bold-30" d="M 3425 2284 
Q 3425 1731 3339 1297 
Q 3253 863 3064 559 
Q 2875 256 2569 96 
Q 2263 -63 1825 -63 
Q 1275 -63 922 217 
Q 569 497 400 1023 
Q 231 1550 231 2284 
Q 231 3025 386 3551 
Q 541 4078 891 4359 
Q 1241 4641 1825 4641 
Q 2372 4641 2726 4361 
Q 3081 4081 3253 3554 
Q 3425 3028 3425 2284 
z
M 1191 2284 
Q 1191 1763 1248 1414 
Q 1306 1066 1443 891 
Q 1581 716 1825 716 
Q 2066 716 2205 889 
Q 2344 1063 2403 1411 
Q 2463 1759 2463 2284 
Q 2463 2806 2403 3156 
Q 2344 3506 2205 3682 
Q 2066 3859 1825 3859 
Q 1581 3859 1443 3682 
Q 1306 3506 1248 3156 
Q 1191 2806 1191 2284 
z
" transform="scale(0.015625)"/>
       </defs>
       <use xlink:href="#OpenSans-Bold-30"/>
      </g>
     </g>
    </g>
    <g id="ytick_2">
     <g id="line2d_39">
      <path d="M 41.15 177.965753 
L 709.2 177.965753 
" clip-path="url(#p89e9b257f0)" style="fill: none; stroke-dasharray: 2.96,1.28; stroke-dashoffset: 0; stroke: #b0b0b0; stroke-width: 0.8"/>
     </g>
     <g id="line2d_40">
      <g>
       <use xlink:href="#ma92bb1c806" x="41.15" y="177.965753" style="fill: #37539c; stroke: #37539c; stroke-width: 0.8"/>
      </g>
     </g>
     <g id="text_38">
      <!-- 10 -->
      <g style="fill: #37539c" transform="translate(25.0025 181.005128) scale(0.08 -0.08)">
       <defs>
        <path id="OpenSans-Bold-31" d="M 2644 0 
L 1678 0 
L 1678 2644 
Q 1678 2753 1681 2914 
Q 1684 3075 1690 3245 
Q 1697 3416 1703 3553 
Q 1669 3513 1564 3414 
Q 1459 3316 1369 3238 
L 844 2816 
L 378 3397 
L 1850 4569 
L 2644 4569 
L 2644 0 
z
" transform="scale(0.015625)"/>
       </defs>
       <use xlink:href="#OpenSans-Bold-31"/>
       <use xlink:href="#OpenSans-Bold-30" x="57.177734"/>
      </g>
     </g>
    </g>
    <g id="ytick_3">
     <g id="line2d_41">
      <path d="M 41.15 151.431507 
L 709.2 151.431507 
" clip-path="url(#p89e9b257f0)" style="fill: none; stroke-dasharray: 2.96,1.28; stroke-dashoffset: 0; stroke: #b0b0b0; stroke-width: 0.8"/>
     </g>
     <g id="line2d_42">
      <g>
       <use xlink:href="#ma92bb1c806" x="41.15" y="151.431507" style="fill: #37539c; stroke: #37539c; stroke-width: 0.8"/>
      </g>
     </g>
     <g id="text_39">
      <!-- 20 -->
      <g style="fill: #37539c" transform="translate(25.0025 154.470882) scale(0.08 -0.08)">
       <defs>
        <path id="OpenSans-Bold-32" d="M 3450 0 
L 256 0 
L 256 672 
L 1403 1831 
Q 1750 2188 1961 2427 
Q 2172 2666 2267 2862 
Q 2363 3059 2363 3284 
Q 2363 3556 2211 3692 
Q 2059 3828 1806 3828 
Q 1541 3828 1291 3706 
Q 1041 3584 769 3359 
L 244 3981 
Q 441 4150 661 4300 
Q 881 4450 1173 4542 
Q 1466 4634 1875 4634 
Q 2325 4634 2648 4471 
Q 2972 4309 3147 4029 
Q 3322 3750 3322 3397 
Q 3322 3019 3172 2706 
Q 3022 2394 2736 2087 
Q 2450 1781 2047 1409 
L 1459 856 
L 1459 813 
L 3450 813 
L 3450 0 
z
" transform="scale(0.015625)"/>
       </defs>
       <use xlink:href="#OpenSans-Bold-32"/>
       <use xlink:href="#OpenSans-Bold-30" x="57.177734"/>
      </g>
     </g>
    </g>
    <g id="ytick_4">
     <g id="line2d_43">
      <path d="M 41.15 124.89726 
L 709.2 124.89726 
" clip-path="url(#p89e9b257f0)" style="fill: none; stroke-dasharray: 2.96,1.28; stroke-dashoffset: 0; stroke: #b0b0b0; stroke-width: 0.8"/>
     </g>
     <g id="line2d_44">
      <g>
       <use xlink:href="#ma92bb1c806" x="41.15" y="124.89726" style="fill: #37539c; stroke: #37539c; stroke-width: 0.8"/>
      </g>
     </g>
     <g id="text_40">
      <!-- 30 -->
      <g style="fill: #37539c" transform="translate(25.0025 127.936635) scale(0.08 -0.08)">
       <defs>
        <path id="OpenSans-Bold-33" d="M 3272 3547 
Q 3272 3231 3140 3000 
Q 3009 2769 2786 2622 
Q 2563 2475 2284 2406 
L 2284 2388 
Q 2834 2319 3120 2050 
Q 3406 1781 3406 1331 
Q 3406 931 3211 615 
Q 3016 300 2609 118 
Q 2203 -63 1563 -63 
Q 1184 -63 857 -2 
Q 531 59 244 184 
L 244 1006 
Q 538 856 859 779 
Q 1181 703 1459 703 
Q 1978 703 2186 883 
Q 2394 1063 2394 1388 
Q 2394 1578 2297 1709 
Q 2200 1841 1961 1909 
Q 1722 1978 1294 1978 
L 947 1978 
L 947 2719 
L 1300 2719 
Q 1722 2719 1942 2798 
Q 2163 2878 2242 3017 
Q 2322 3156 2322 3334 
Q 2322 3578 2172 3715 
Q 2022 3853 1672 3853 
Q 1453 3853 1273 3798 
Q 1094 3744 950 3667 
Q 806 3591 697 3519 
L 250 4184 
Q 519 4378 880 4506 
Q 1241 4634 1741 4634 
Q 2447 4634 2859 4350 
Q 3272 4066 3272 3547 
z
" transform="scale(0.015625)"/>
       </defs>
       <use xlink:href="#OpenSans-Bold-33"/>
       <use xlink:href="#OpenSans-Bold-30" x="57.177734"/>
      </g>
     </g>
    </g>
    <g id="ytick_5">
     <g id="line2d_45">
      <path d="M 41.15 98.363014 
L 709.2 98.363014 
" clip-path="url(#p89e9b257f0)" style="fill: none; stroke-dasharray: 2.96,1.28; stroke-dashoffset: 0; stroke: #b0b0b0; stroke-width: 0.8"/>
     </g>
     <g id="line2d_46">
      <g>
       <use xlink:href="#ma92bb1c806" x="41.15" y="98.363014" style="fill: #37539c; stroke: #37539c; stroke-width: 0.8"/>
      </g>
     </g>
     <g id="text_41">
      <!-- 40 -->
      <g style="fill: #37539c" transform="translate(25.0025 101.402389) scale(0.08 -0.08)">
       <defs>
        <path id="OpenSans-Bold-34" d="M 3553 947 
L 3003 947 
L 3003 0 
L 2059 0 
L 2059 947 
L 109 947 
L 109 1619 
L 2113 4569 
L 3003 4569 
L 3003 1697 
L 3553 1697 
L 3553 947 
z
M 2059 1697 
L 2059 2472 
Q 2059 2581 2064 2731 
Q 2069 2881 2075 3031 
Q 2081 3181 2089 3298 
Q 2097 3416 2100 3463 
L 2075 3463 
Q 2016 3334 1950 3214 
Q 1884 3094 1797 2963 
L 959 1697 
L 2059 1697 
z
" transform="scale(0.015625)"/>
       </defs>
       <use xlink:href="#OpenSans-Bold-34"/>
       <use xlink:href="#OpenSans-Bold-30" x="57.177734"/>
      </g>
     </g>
    </g>
    <g id="ytick_6">
     <g id="line2d_47">
      <path d="M 41.15 71.828767 
L 709.2 71.828767 
" clip-path="url(#p89e9b257f0)" style="fill: none; stroke-dasharray: 2.96,1.28; stroke-dashoffset: 0; stroke: #b0b0b0; stroke-width: 0.8"/>
     </g>
     <g id="line2d_48">
      <g>
       <use xlink:href="#ma92bb1c806" x="41.15" y="71.828767" style="fill: #37539c; stroke: #37539c; stroke-width: 0.8"/>
      </g>
     </g>
     <g id="text_42">
      <!-- 50 -->
      <g style="fill: #37539c" transform="translate(25.0025 74.868142) scale(0.08 -0.08)">
       <defs>
        <path id="OpenSans-Bold-35" d="M 1919 2919 
Q 2338 2919 2664 2759 
Q 2991 2600 3178 2290 
Q 3366 1981 3366 1528 
Q 3366 1034 3161 676 
Q 2956 319 2551 128 
Q 2147 -63 1544 -63 
Q 1184 -63 867 -2 
Q 550 59 313 184 
L 313 1019 
Q 550 894 883 808 
Q 1216 722 1509 722 
Q 1797 722 1994 798 
Q 2191 875 2292 1036 
Q 2394 1197 2394 1447 
Q 2394 1781 2169 1959 
Q 1944 2138 1478 2138 
Q 1300 2138 1108 2103 
Q 916 2069 788 2034 
L 403 2241 
L 575 4569 
L 3053 4569 
L 3053 3750 
L 1422 3750 
L 1338 2853 
Q 1444 2875 1569 2897 
Q 1694 2919 1919 2919 
z
" transform="scale(0.015625)"/>
       </defs>
       <use xlink:href="#OpenSans-Bold-35"/>
       <use xlink:href="#OpenSans-Bold-30" x="57.177734"/>
      </g>
     </g>
    </g>
    <g id="ytick_7">
     <g id="line2d_49">
      <path d="M 41.15 45.294521 
L 709.2 45.294521 
" clip-path="url(#p89e9b257f0)" style="fill: none; stroke-dasharray: 2.96,1.28; stroke-dashoffset: 0; stroke: #b0b0b0; stroke-width: 0.8"/>
     </g>
     <g id="line2d_50">
      <g>
       <use xlink:href="#ma92bb1c806" x="41.15" y="45.294521" style="fill: #37539c; stroke: #37539c; stroke-width: 0.8"/>
      </g>
     </g>
     <g id="text_43">
      <!-- 60 -->
      <g style="fill: #37539c" transform="translate(25.0025 48.333896) scale(0.08 -0.08)">
       <defs>
        <path id="OpenSans-Bold-36" d="M 225 1941 
Q 225 2334 283 2720 
Q 341 3106 484 3448 
Q 628 3791 887 4055 
Q 1147 4319 1547 4470 
Q 1947 4622 2516 4622 
Q 2650 4622 2829 4611 
Q 3009 4600 3128 4575 
L 3128 3803 
Q 3003 3831 2861 3848 
Q 2719 3866 2578 3866 
Q 2009 3866 1698 3684 
Q 1388 3503 1261 3183 
Q 1134 2863 1113 2438 
L 1153 2438 
Q 1241 2591 1373 2709 
Q 1506 2828 1697 2898 
Q 1888 2969 2144 2969 
Q 2544 2969 2837 2798 
Q 3131 2628 3290 2306 
Q 3450 1984 3450 1522 
Q 3450 1028 3259 672 
Q 3069 316 2720 126 
Q 2372 -63 1894 -63 
Q 1544 -63 1241 57 
Q 938 178 709 425 
Q 481 672 353 1048 
Q 225 1425 225 1941 
z
M 1875 709 
Q 2159 709 2337 903 
Q 2516 1097 2516 1509 
Q 2516 1844 2361 2036 
Q 2206 2228 1894 2228 
Q 1681 2228 1520 2133 
Q 1359 2038 1271 1892 
Q 1184 1747 1184 1594 
Q 1184 1434 1228 1278 
Q 1272 1122 1359 994 
Q 1447 866 1576 787 
Q 1706 709 1875 709 
z
" transform="scale(0.015625)"/>
       </defs>
       <use xlink:href="#OpenSans-Bold-36"/>
       <use xlink:href="#OpenSans-Bold-30" x="57.177734"/>
      </g>
     </g>
    </g>
    <g id="ytick_8">
     <g id="line2d_51">
      <path d="M 41.15 18.760274 
L 709.2 18.760274 
" clip-path="url(#p89e9b257f0)" style="fill: none; stroke-dasharray: 2.96,1.28; stroke-dashoffset: 0; stroke: #b0b0b0; stroke-width: 0.8"/>
     </g>
     <g id="line2d_52">
      <g>
       <use xlink:href="#ma92bb1c806" x="41.15" y="18.760274" style="fill: #37539c; stroke: #37539c; stroke-width: 0.8"/>
      </g>
     </g>
     <g id="text_44">
      <!-- 70 -->
      <g style="fill: #37539c" transform="translate(25.0025 21.799649) scale(0.08 -0.08)">
       <defs>
        <path id="OpenSans-Bold-37" d="M 709 0 
L 2425 3756 
L 172 3756 
L 172 4569 
L 3450 4569 
L 3450 3963 
L 1722 0 
L 709 0 
z
" transform="scale(0.015625)"/>
       </defs>
       <use xlink:href="#OpenSans-Bold-37"/>
       <use xlink:href="#OpenSans-Bold-30" x="57.177734"/>
      </g>
     </g>
    </g>
    <g id="text_45">
     <!-- Índice Global de Innovación -->
     <g style="fill: #37539c" transform="translate(18.599375 176.441406) rotate(-90) scale(0.1 -0.1)">
      <defs>
       <path id="OpenSans-Bold-cd" d="M 575 0 
L 575 4569 
L 1544 4569 
L 1544 0 
L 575 0 
z
M 2411 5991 
L 2411 5926 
Q 2321 5838 2174 5710 
Q 2027 5582 1858 5443 
Q 1690 5304 1527 5177 
Q 1365 5051 1243 4966 
L 608 4966 
L 608 5051 
Q 711 5169 847 5333 
Q 983 5497 1117 5672 
Q 1252 5847 1343 5991 
L 2411 5991 
z
" transform="scale(0.015625)"/>
      </defs>
      <use xlink:href="#OpenSans-Bold-cd"/>
      <use xlink:href="#OpenSans-Bold-6e" x="33.105469"/>
      <use xlink:href="#OpenSans-Bold-64" x="98.828125"/>
      <use xlink:href="#OpenSans-Bold-69" x="162.109375"/>
      <use xlink:href="#OpenSans-Bold-63" x="192.626953"/>
      <use xlink:href="#OpenSans-Bold-65" x="244.042969"/>
      <use xlink:href="#OpenSans-Bold-20" x="303.125"/>
      <use xlink:href="#OpenSans-Bold-47" x="329.101562"/>
      <use xlink:href="#OpenSans-Bold-6c" x="401.513672"/>
      <use xlink:href="#OpenSans-Bold-6f" x="432.03125"/>
      <use xlink:href="#OpenSans-Bold-62" x="493.945312"/>
      <use xlink:href="#OpenSans-Bold-61" x="557.226562"/>
      <use xlink:href="#OpenSans-Bold-6c" x="617.626953"/>
      <use xlink:href="#OpenSans-Bold-20" x="648.144531"/>
      <use xlink:href="#OpenSans-Bold-64" x="674.121094"/>
      <use xlink:href="#OpenSans-Bold-65" x="737.402344"/>
      <use xlink:href="#OpenSans-Bold-20" x="796.484375"/>
      <use xlink:href="#OpenSans-Bold-49" x="822.460938"/>
      <use xlink:href="#OpenSans-Bold-6e" x="855.566406"/>
      <use xlink:href="#OpenSans-Bold-6e" x="921.289062"/>
      <use xlink:href="#OpenSans-Bold-6f" x="987.011719"/>
      <use xlink:href="#OpenSans-Bold-76" x="1048.925781"/>
      <use xlink:href="#OpenSans-Bold-61" x="1105.810547"/>
      <use xlink:href="#OpenSans-Bold-63" x="1166.210938"/>
      <use xlink:href="#OpenSans-Bold-69" x="1217.626953"/>
      <use xlink:href="#OpenSans-Bold-f3" x="1248.144531"/>
      <use xlink:href="#OpenSans-Bold-6e" x="1310.058594"/>
     </g>
    </g>
   </g>
   <g id="patch_3">
    <path d="M 47.719158 204.457545 
L 53.137786 204.457545 
Q 54.993481 204.457545 54.993481 203.396175 
L 54.993481 132.103962 
Q 54.993481 131.042592 53.137786 131.042592 
L 47.719158 131.042592 
Q 45.863464 131.042592 45.863464 132.103962 
L 45.863464 203.396175 
Q 45.863464 204.457545 47.719158 204.457545 
z
" clip-path="url(#p89e9b257f0)" style="fill: #37539c"/>
   </g>
   <g id="patch_4">
    <path d="M 66.276103 204.457545 
L 71.694731 204.457545 
Q 73.550425 204.457545 73.550425 203.396175 
L 73.550425 131.307934 
Q 73.550425 130.246564 71.694731 130.246564 
L 66.276103 130.246564 
Q 64.420408 130.246564 64.420408 131.307934 
L 64.420408 203.396175 
Q 64.420408 204.457545 66.276103 204.457545 
z
" clip-path="url(#p89e9b257f0)" style="fill: #37539c"/>
   </g>
   <g id="patch_5">
    <path d="M 84.833047 204.457545 
L 90.251675 204.457545 
Q 92.107369 204.457545 92.107369 203.396175 
L 92.107369 123.34766 
Q 92.107369 122.28629 90.251675 122.28629 
L 84.833047 122.28629 
Q 82.977353 122.28629 82.977353 123.34766 
L 82.977353 203.396175 
Q 82.977353 204.457545 84.833047 204.457545 
z
" clip-path="url(#p89e9b257f0)" style="fill: #37539c"/>
   </g>
   <g id="patch_6">
    <path d="M 103.389992 204.457545 
L 108.808619 204.457545 
Q 110.664314 204.457545 110.664314 203.396175 
L 110.664314 117.244784 
Q 110.664314 116.183414 108.808619 116.183414 
L 103.389992 116.183414 
Q 101.534297 116.183414 101.534297 117.244784 
L 101.534297 203.396175 
Q 101.534297 204.457545 103.389992 204.457545 
z
" clip-path="url(#p89e9b257f0)" style="fill: #f45b69"/>
   </g>
   <g id="patch_7">
    <path d="M 121.946936 204.457545 
L 127.365564 204.457545 
Q 129.221258 204.457545 129.221258 203.396175 
L 129.221258 116.448756 
Q 129.221258 115.387386 127.365564 115.387386 
L 121.946936 115.387386 
Q 120.091242 115.387386 120.091242 116.448756 
L 120.091242 203.396175 
Q 120.091242 204.457545 121.946936 204.457545 
z
" clip-path="url(#p89e9b257f0)" style="fill: #37539c"/>
   </g>
   <g id="patch_8">
    <path d="M 140.503881 204.457545 
L 145.922508 204.457545 
Q 147.778203 204.457545 147.778203 203.396175 
L 147.778203 109.549852 
Q 147.778203 108.488482 145.922508 108.488482 
L 140.503881 108.488482 
Q 138.648186 108.488482 138.648186 109.549852 
L 138.648186 203.396175 
Q 138.648186 204.457545 140.503881 204.457545 
z
" clip-path="url(#p89e9b257f0)" style="fill: #37539c"/>
   </g>
   <g id="patch_9">
    <path d="M 159.060825 204.457545 
L 164.479453 204.457545 
Q 166.335147 204.457545 166.335147 203.396175 
L 166.335147 106.1004 
Q 166.335147 105.03903 164.479453 105.03903 
L 159.060825 105.03903 
Q 157.205131 105.03903 157.205131 106.1004 
L 157.205131 203.396175 
Q 157.205131 204.457545 159.060825 204.457545 
z
" clip-path="url(#p89e9b257f0)" style="fill: #37539c"/>
   </g>
   <g id="patch_10">
    <path d="M 177.617769 204.457545 
L 183.036397 204.457545 
Q 184.892092 204.457545 184.892092 203.396175 
L 184.892092 105.569715 
Q 184.892092 104.508345 183.036397 104.508345 
L 177.617769 104.508345 
Q 175.762075 104.508345 175.762075 105.569715 
L 175.762075 203.396175 
Q 175.762075 204.457545 177.617769 204.457545 
z
" clip-path="url(#p89e9b257f0)" style="fill: #37539c"/>
   </g>
   <g id="patch_11">
    <path d="M 196.174714 204.457545 
L 201.593342 204.457545 
Q 203.449036 204.457545 203.449036 203.396175 
L 203.449036 103.181633 
Q 203.449036 102.120263 201.593342 102.120263 
L 196.174714 102.120263 
Q 194.319019 102.120263 194.319019 103.181633 
L 194.319019 203.396175 
Q 194.319019 204.457545 196.174714 204.457545 
z
" clip-path="url(#p89e9b257f0)" style="fill: #37539c"/>
   </g>
   <g id="patch_12">
    <path d="M 214.731658 204.457545 
L 220.150286 204.457545 
Q 222.005981 204.457545 222.005981 203.396175 
L 222.005981 100.262866 
Q 222.005981 99.201496 220.150286 99.201496 
L 214.731658 99.201496 
Q 212.875964 99.201496 212.875964 100.262866 
L 212.875964 203.396175 
Q 212.875964 204.457545 214.731658 204.457545 
z
" clip-path="url(#p89e9b257f0)" style="fill: #37539c"/>
   </g>
   <g id="patch_13">
    <path d="M 233.288603 204.457545 
L 238.707231 204.457545 
Q 240.562925 204.457545 240.562925 203.396175 
L 240.562925 96.017386 
Q 240.562925 94.956016 238.707231 94.956016 
L 233.288603 94.956016 
Q 231.432908 94.956016 231.432908 96.017386 
L 231.432908 203.396175 
Q 231.432908 204.457545 233.288603 204.457545 
z
" clip-path="url(#p89e9b257f0)" style="fill: #37539c"/>
   </g>
   <g id="patch_14">
    <path d="M 251.845547 204.457545 
L 257.264175 204.457545 
Q 259.119869 204.457545 259.119869 203.396175 
L 259.119869 94.159989 
Q 259.119869 93.098619 257.264175 93.098619 
L 251.845547 93.098619 
Q 249.989853 93.098619 249.989853 94.159989 
L 249.989853 203.396175 
Q 249.989853 204.457545 251.845547 204.457545 
z
" clip-path="url(#p89e9b257f0)" style="fill: #37539c"/>
   </g>
   <g id="patch_15">
    <path d="M 270.402492 204.457545 
L 275.821119 204.457545 
Q 277.676814 204.457545 277.676814 203.396175 
L 277.676814 93.629304 
Q 277.676814 92.567934 275.821119 92.567934 
L 270.402492 92.567934 
Q 268.546797 92.567934 268.546797 93.629304 
L 268.546797 203.396175 
Q 268.546797 204.457545 270.402492 204.457545 
z
" clip-path="url(#p89e9b257f0)" style="fill: #37539c"/>
   </g>
   <g id="patch_16">
    <path d="M 288.959436 204.457545 
L 294.378064 204.457545 
Q 296.233758 204.457545 296.233758 203.396175 
L 296.233758 86.7304 
Q 296.233758 85.66903 294.378064 85.66903 
L 288.959436 85.66903 
Q 287.103742 85.66903 287.103742 86.7304 
L 287.103742 203.396175 
Q 287.103742 204.457545 288.959436 204.457545 
z
" clip-path="url(#p89e9b257f0)" style="fill: #37539c"/>
   </g>
   <g id="patch_17">
    <path d="M 307.516381 204.457545 
L 312.935008 204.457545 
Q 314.790703 204.457545 314.790703 203.396175 
L 314.790703 86.465058 
Q 314.790703 85.403688 312.935008 85.403688 
L 307.516381 85.403688 
Q 305.660686 85.403688 305.660686 86.465058 
L 305.660686 203.396175 
Q 305.660686 204.457545 307.516381 204.457545 
z
" clip-path="url(#p89e9b257f0)" style="fill: #37539c"/>
   </g>
   <g id="patch_18">
    <path d="M 326.073325 204.457545 
L 331.491953 204.457545 
Q 333.347647 204.457545 333.347647 203.396175 
L 333.347647 83.811633 
Q 333.347647 82.750263 331.491953 82.750263 
L 326.073325 82.750263 
Q 324.217631 82.750263 324.217631 83.811633 
L 324.217631 203.396175 
Q 324.217631 204.457545 326.073325 204.457545 
z
" clip-path="url(#p89e9b257f0)" style="fill: #37539c"/>
   </g>
   <g id="patch_19">
    <path d="M 344.630269 204.457545 
L 350.048897 204.457545 
Q 351.904592 204.457545 351.904592 203.396175 
L 351.904592 81.954236 
Q 351.904592 80.892866 350.048897 80.892866 
L 344.630269 80.892866 
Q 342.774575 80.892866 342.774575 81.954236 
L 342.774575 203.396175 
Q 342.774575 204.457545 344.630269 204.457545 
z
" clip-path="url(#p89e9b257f0)" style="fill: #37539c"/>
   </g>
   <g id="patch_20">
    <path d="M 363.187214 204.457545 
L 368.605842 204.457545 
Q 370.461536 204.457545 370.461536 203.396175 
L 370.461536 73.728619 
Q 370.461536 72.667249 368.605842 72.667249 
L 363.187214 72.667249 
Q 361.331519 72.667249 361.331519 73.728619 
L 361.331519 203.396175 
Q 361.331519 204.457545 363.187214 204.457545 
z
" clip-path="url(#p89e9b257f0)" style="fill: #37539c"/>
   </g>
   <g id="patch_21">
    <path d="M 381.744158 204.457545 
L 387.162786 204.457545 
Q 389.018481 204.457545 389.018481 203.396175 
L 389.018481 73.197934 
Q 389.018481 72.136564 387.162786 72.136564 
L 381.744158 72.136564 
Q 379.888464 72.136564 379.888464 73.197934 
L 379.888464 203.396175 
Q 379.888464 204.457545 381.744158 204.457545 
z
" clip-path="url(#p89e9b257f0)" style="fill: #37539c"/>
   </g>
   <g id="patch_22">
    <path d="M 400.301103 204.457545 
L 405.719731 204.457545 
Q 407.575425 204.457545 407.575425 203.396175 
L 407.575425 71.871222 
Q 407.575425 70.809852 405.719731 70.809852 
L 400.301103 70.809852 
Q 398.445408 70.809852 398.445408 71.871222 
L 398.445408 203.396175 
Q 398.445408 204.457545 400.301103 204.457545 
z
" clip-path="url(#p89e9b257f0)" style="fill: #37539c"/>
   </g>
   <g id="patch_23">
    <path d="M 418.858047 204.457545 
L 424.276675 204.457545 
Q 426.132369 204.457545 426.132369 203.396175 
L 426.132369 71.340537 
Q 426.132369 70.279167 424.276675 70.279167 
L 418.858047 70.279167 
Q 417.002353 70.279167 417.002353 71.340537 
L 417.002353 203.396175 
Q 417.002353 204.457545 418.858047 204.457545 
z
" clip-path="url(#p89e9b257f0)" style="fill: #37539c"/>
   </g>
   <g id="patch_24">
    <path d="M 437.414992 204.457545 
L 442.833619 204.457545 
Q 444.689314 204.457545 444.689314 203.396175 
L 444.689314 71.075195 
Q 444.689314 70.013825 442.833619 70.013825 
L 437.414992 70.013825 
Q 435.559297 70.013825 435.559297 71.075195 
L 435.559297 203.396175 
Q 435.559297 204.457545 437.414992 204.457545 
z
" clip-path="url(#p89e9b257f0)" style="fill: #37539c"/>
   </g>
   <g id="patch_25">
    <path d="M 455.971936 204.457545 
L 461.390564 204.457545 
Q 463.246258 204.457545 463.246258 203.396175 
L 463.246258 71.075195 
Q 463.246258 70.013825 461.390564 70.013825 
L 455.971936 70.013825 
Q 454.116242 70.013825 454.116242 71.075195 
L 454.116242 203.396175 
Q 454.116242 204.457545 455.971936 204.457545 
z
" clip-path="url(#p89e9b257f0)" style="fill: #37539c"/>
   </g>
   <g id="patch_26">
    <path d="M 474.528881 204.457545 
L 479.947508 204.457545 
Q 481.803203 204.457545 481.803203 203.396175 
L 481.803203 64.441633 
Q 481.803203 63.380263 479.947508 63.380263 
L 474.528881 63.380263 
Q 472.673186 63.380263 472.673186 64.441633 
L 472.673186 203.396175 
Q 472.673186 204.457545 474.528881 204.457545 
z
" clip-path="url(#p89e9b257f0)" style="fill: #37539c"/>
   </g>
   <g id="patch_27">
    <path d="M 493.085825 204.457545 
L 498.504453 204.457545 
Q 500.360147 204.457545 500.360147 203.396175 
L 500.360147 63.910948 
Q 500.360147 62.849578 498.504453 62.849578 
L 493.085825 62.849578 
Q 491.230131 62.849578 491.230131 63.910948 
L 491.230131 203.396175 
Q 491.230131 204.457545 493.085825 204.457545 
z
" clip-path="url(#p89e9b257f0)" style="fill: #37539c"/>
   </g>
   <g id="patch_28">
    <path d="M 511.642769 204.457545 
L 517.061397 204.457545 
Q 518.917092 204.457545 518.917092 203.396175 
L 518.917092 62.849578 
Q 518.917092 61.788208 517.061397 61.788208 
L 511.642769 61.788208 
Q 509.787075 61.788208 509.787075 62.849578 
L 509.787075 203.396175 
Q 509.787075 204.457545 511.642769 204.457545 
z
" clip-path="url(#p89e9b257f0)" style="fill: #37539c"/>
   </g>
   <g id="patch_29">
    <path d="M 530.199714 204.457545 
L 535.618342 204.457545 
Q 537.474036 204.457545 537.474036 203.396175 
L 537.474036 61.522866 
Q 537.474036 60.461496 535.618342 60.461496 
L 530.199714 60.461496 
Q 528.344019 60.461496 528.344019 61.522866 
L 528.344019 203.396175 
Q 528.344019 204.457545 530.199714 204.457545 
z
" clip-path="url(#p89e9b257f0)" style="fill: #37539c"/>
   </g>
   <g id="patch_30">
    <path d="M 548.756658 204.457545 
L 554.175286 204.457545 
Q 556.030981 204.457545 556.030981 203.396175 
L 556.030981 60.726838 
Q 556.030981 59.665468 554.175286 59.665468 
L 548.756658 59.665468 
Q 546.900964 59.665468 546.900964 60.726838 
L 546.900964 203.396175 
Q 546.900964 204.457545 548.756658 204.457545 
z
" clip-path="url(#p89e9b257f0)" style="fill: #37539c"/>
   </g>
   <g id="patch_31">
    <path d="M 567.313603 204.457545 
L 572.732231 204.457545 
Q 574.587925 204.457545 574.587925 203.396175 
L 574.587925 57.012044 
Q 574.587925 55.950674 572.732231 55.950674 
L 567.313603 55.950674 
Q 565.457908 55.950674 565.457908 57.012044 
L 565.457908 203.396175 
Q 565.457908 204.457545 567.313603 204.457545 
z
" clip-path="url(#p89e9b257f0)" style="fill: #37539c"/>
   </g>
   <g id="patch_32">
    <path d="M 585.870547 204.457545 
L 591.289175 204.457545 
Q 593.144869 204.457545 593.144869 203.396175 
L 593.144869 49.847797 
Q 593.144869 48.786427 591.289175 48.786427 
L 585.870547 48.786427 
Q 584.014853 48.786427 584.014853 49.847797 
L 584.014853 203.396175 
Q 584.014853 204.457545 585.870547 204.457545 
z
" clip-path="url(#p89e9b257f0)" style="fill: #37539c"/>
   </g>
   <g id="patch_33">
    <path d="M 604.427492 204.457545 
L 609.846119 204.457545 
Q 611.701814 204.457545 611.701814 203.396175 
L 611.701814 49.582455 
Q 611.701814 48.521085 609.846119 48.521085 
L 604.427492 48.521085 
Q 602.571797 48.521085 602.571797 49.582455 
L 602.571797 203.396175 
Q 602.571797 204.457545 604.427492 204.457545 
z
" clip-path="url(#p89e9b257f0)" style="fill: #37539c"/>
   </g>
   <g id="patch_34">
    <path d="M 622.984436 204.457545 
L 628.403064 204.457545 
Q 630.258758 204.457545 630.258758 203.396175 
L 630.258758 45.336975 
Q 630.258758 44.275605 628.403064 44.275605 
L 622.984436 44.275605 
Q 621.128742 44.275605 621.128742 45.336975 
L 621.128742 203.396175 
Q 621.128742 204.457545 622.984436 204.457545 
z
" clip-path="url(#p89e9b257f0)" style="fill: #37539c"/>
   </g>
   <g id="patch_35">
    <path d="M 641.541381 204.457545 
L 646.960008 204.457545 
Q 648.815703 204.457545 648.815703 203.396175 
L 648.815703 43.214236 
Q 648.815703 42.152866 646.960008 42.152866 
L 641.541381 42.152866 
Q 639.685686 42.152866 639.685686 43.214236 
L 639.685686 203.396175 
Q 639.685686 204.457545 641.541381 204.457545 
z
" clip-path="url(#p89e9b257f0)" style="fill: #37539c"/>
   </g>
   <g id="patch_36">
    <path d="M 660.098325 204.457545 
L 665.516953 204.457545 
Q 667.372647 204.457545 667.372647 203.396175 
L 667.372647 40.030126 
Q 667.372647 38.968756 665.516953 38.968756 
L 660.098325 38.968756 
Q 658.242631 38.968756 658.242631 40.030126 
L 658.242631 203.396175 
Q 658.242631 204.457545 660.098325 204.457545 
z
" clip-path="url(#p89e9b257f0)" style="fill: #37539c"/>
   </g>
   <g id="patch_37">
    <path d="M 678.655269 204.457545 
L 684.073897 204.457545 
Q 685.929592 204.457545 685.929592 203.396175 
L 685.929592 35.253962 
Q 685.929592 34.192592 684.073897 34.192592 
L 678.655269 34.192592 
Q 676.799575 34.192592 676.799575 35.253962 
L 676.799575 203.396175 
Q 676.799575 204.457545 678.655269 204.457545 
z
" clip-path="url(#p89e9b257f0)" style="fill: #37539c"/>
   </g>
   <g id="patch_38">
    <path d="M 697.212214 204.457545 
L 702.630842 204.457545 
Q 704.486536 204.457545 704.486536 203.396175 
L 704.486536 26.232318 
Q 704.486536 25.170948 702.630842 25.170948 
L 697.212214 25.170948 
Q 695.356519 25.170948 695.356519 26.232318 
L 695.356519 203.396175 
Q 695.356519 204.457545 697.212214 204.457545 
z
" clip-path="url(#p89e9b257f0)" style="fill: #37539c"/>
   </g>
   <g id="patch_39">
    <path d="M 41.15 204.5 
L 41.15 10.8 
" style="fill: none; stroke: #000000; stroke-width: 0.8; stroke-linejoin: miter; stroke-linecap: square"/>
   </g>
   <g id="patch_40">
    <path d="M 41.15 204.5 
L 709.2 204.5 
" style="fill: none; stroke: #000000; stroke-width: 0.8; stroke-linejoin: miter; stroke-linecap: square"/>
   </g>
   <g id="text_46">
    <!-- 33.3 -->
    <g style="fill: #f45b69" transform="translate(96.097743 113.207149) scale(0.1 -0.1)">
     <defs>
      <path id="OpenSans-Bold-2e" d="M 366 447 
Q 366 741 527 859 
Q 688 978 916 978 
Q 1138 978 1298 859 
Q 1459 741 1459 447 
Q 1459 166 1298 41 
Q 1138 -84 916 -84 
Q 688 -84 527 41 
Q 366 166 366 447 
z
" transform="scale(0.015625)"/>
     </defs>
     <use xlink:href="#OpenSans-Bold-33"/>
     <use xlink:href="#OpenSans-Bold-33" x="57.177734"/>
     <use xlink:href="#OpenSans-Bold-2e" x="114.355469"/>
     <use xlink:href="#OpenSans-Bold-33" x="142.871094"/>
    </g>
   </g>
  </g>
 </g>
 <defs>
  <clipPath id="p89e9b257f0">
   <rect x="41.15" y="10.8" width="668.05" height="193.7"/>
  </clipPath>
 </defs>
</svg>
