<?xml version="1.0" encoding="utf-8" standalone="no"?>
<!DOCTYPE svg PUBLIC "-//W3C//DTD SVG 1.1//EN"
  "http://www.w3.org/Graphics/SVG/1.1/DTD/svg11.dtd">
<svg xmlns:xlink="http://www.w3.org/1999/xlink" width="864pt" height="360pt" viewBox="0 0 864 360" xmlns="http://www.w3.org/2000/svg" version="1.1">
 <metadata>
  <rdf:RDF xmlns:dc="http://purl.org/dc/elements/1.1/" xmlns:cc="http://creativecommons.org/ns#" xmlns:rdf="http://www.w3.org/1999/02/22-rdf-syntax-ns#">
   <cc:Work>
    <dc:type rdf:resource="http://purl.org/dc/dcmitype/StillImage"/>
    <dc:date>2024-02-22T18:19:12.347534</dc:date>
    <dc:format>image/svg+xml</dc:format>
    <dc:creator>
     <cc:Agent>
      <dc:title>Matplotlib v3.7.1, https://matplotlib.org/</dc:title>
     </cc:Agent>
    </dc:creator>
   </cc:Work>
  </rdf:RDF>
 </metadata>
 <defs>
  <style type="text/css">*{stroke-linejoin: round; stroke-linecap: butt}</style>
 </defs>
 <g id="figure_1">
  <g id="patch_1">
   <path d="M 0 360 
L 864 360 
L 864 0 
L 0 0 
z
" style="fill: #ffffff"/>
  </g>
  <g id="axes_1">
   <g id="patch_2">
    <path d="M 45.11 332.12 
L 314.473333 332.12 
L 314.473333 26.88 
L 45.11 26.88 
z
" style="fill: #ffffff"/>
   </g>
   <g id="matplotlib.axis_1">
    <g id="xtick_1">
     <g id="line2d_1">
      <defs>
       <path id="m89ffdc3cb8" d="M 0 0 
L 0 3.5 
" style="stroke: #37539c; stroke-width: 0.8"/>
      </defs>
      <g>
       <use xlink:href="#m89ffdc3cb8" x="74.844913" y="332.12" style="fill: #37539c; stroke: #37539c; stroke-width: 0.8"/>
      </g>
     </g>
     <g id="text_1">
      <!-- 2019 -->
      <g style="fill: #37539c" transform="translate(63.410538 346.718437) scale(0.1 -0.1)">
       <defs>
        <path id="OpenSans-Bold-32" d="M 3450 0 
L 256 0 
L 256 672 
L 1403 1831 
Q 1750 2188 1961 2427 
Q 2172 2666 2267 2862 
Q 2363 3059 2363 3284 
Q 2363 3556 2211 3692 
Q 2059 3828 1806 3828 
Q 1541 3828 1291 3706 
Q 1041 3584 769 3359 
L 244 3981 
Q 441 4150 661 4300 
Q 881 4450 1173 4542 
Q 1466 4634 1875 4634 
Q 2325 4634 2648 4471 
Q 2972 4309 3147 4029 
Q 3322 3750 3322 3397 
Q 3322 3019 3172 2706 
Q 3022 2394 2736 2087 
Q 2450 1781 2047 1409 
L 1459 856 
L 1459 813 
L 3450 813 
L 3450 0 
z
" transform="scale(0.015625)"/>
        <path id="OpenSans-Bold-30" d="M 3425 2284 
Q 3425 1731 3339 1297 
Q 3253 863 3064 559 
Q 2875 256 2569 96 
Q 2263 -63 1825 -63 
Q 1275 -63 922 217 
Q 569 497 400 1023 
Q 231 1550 231 2284 
Q 231 3025 386 3551 
Q 541 4078 891 4359 
Q 1241 4641 1825 4641 
Q 2372 4641 2726 4361 
Q 3081 4081 3253 3554 
Q 3425 3028 3425 2284 
z
M 1191 2284 
Q 1191 1763 1248 1414 
Q 1306 1066 1443 891 
Q 1581 716 1825 716 
Q 2066 716 2205 889 
Q 2344 1063 2403 1411 
Q 2463 1759 2463 2284 
Q 2463 2806 2403 3156 
Q 2344 3506 2205 3682 
Q 2066 3859 1825 3859 
Q 1581 3859 1443 3682 
Q 1306 3506 1248 3156 
Q 1191 2806 1191 2284 
z
" transform="scale(0.015625)"/>
        <path id="OpenSans-Bold-31" d="M 2644 0 
L 1678 0 
L 1678 2644 
Q 1678 2753 1681 2914 
Q 1684 3075 1690 3245 
Q 1697 3416 1703 3553 
Q 1669 3513 1564 3414 
Q 1459 3316 1369 3238 
L 844 2816 
L 378 3397 
L 1850 4569 
L 2644 4569 
L 2644 0 
z
" transform="scale(0.015625)"/>
        <path id="OpenSans-Bold-39" d="M 3431 2619 
Q 3431 2225 3373 1837 
Q 3316 1450 3172 1108 
Q 3028 766 2768 502 
Q 2509 238 2109 87 
Q 1709 -63 1141 -63 
Q 1006 -63 825 -52 
Q 644 -41 525 -19 
L 525 756 
Q 650 725 790 708 
Q 931 691 1075 691 
Q 1647 691 1958 872 
Q 2269 1053 2395 1375 
Q 2522 1697 2541 2119 
L 2503 2119 
Q 2413 1969 2289 1848 
Q 2166 1728 1975 1658 
Q 1784 1588 1491 1588 
Q 1100 1588 811 1758 
Q 522 1928 364 2251 
Q 206 2575 206 3034 
Q 206 3531 395 3886 
Q 584 4241 934 4431 
Q 1284 4622 1759 4622 
Q 2109 4622 2412 4501 
Q 2716 4381 2945 4134 
Q 3175 3888 3303 3509 
Q 3431 3131 3431 2619 
z
M 1778 3847 
Q 1497 3847 1319 3653 
Q 1141 3459 1141 3047 
Q 1141 2716 1294 2522 
Q 1447 2328 1759 2328 
Q 1975 2328 2134 2423 
Q 2294 2519 2383 2664 
Q 2472 2809 2472 2963 
Q 2472 3122 2428 3278 
Q 2384 3434 2296 3562 
Q 2209 3691 2079 3769 
Q 1950 3847 1778 3847 
z
" transform="scale(0.015625)"/>
       </defs>
       <use xlink:href="#OpenSans-Bold-32"/>
       <use xlink:href="#OpenSans-Bold-30" x="57.177734"/>
       <use xlink:href="#OpenSans-Bold-31" x="114.355469"/>
       <use xlink:href="#OpenSans-Bold-39" x="171.533203"/>
      </g>
     </g>
    </g>
    <g id="xtick_2">
     <g id="line2d_2">
      <g>
       <use xlink:href="#m89ffdc3cb8" x="144.809416" y="332.12" style="fill: #37539c; stroke: #37539c; stroke-width: 0.8"/>
      </g>
     </g>
     <g id="text_2">
      <!-- 2020 -->
      <g style="fill: #37539c" transform="translate(133.375041 346.718437) scale(0.1 -0.1)">
       <use xlink:href="#OpenSans-Bold-32"/>
       <use xlink:href="#OpenSans-Bold-30" x="57.177734"/>
       <use xlink:href="#OpenSans-Bold-32" x="114.355469"/>
       <use xlink:href="#OpenSans-Bold-30" x="171.533203"/>
      </g>
     </g>
    </g>
    <g id="xtick_3">
     <g id="line2d_3">
      <g>
       <use xlink:href="#m89ffdc3cb8" x="214.773918" y="332.12" style="fill: #37539c; stroke: #37539c; stroke-width: 0.8"/>
      </g>
     </g>
     <g id="text_3">
      <!-- 2021 -->
      <g style="fill: #37539c" transform="translate(203.339543 346.718437) scale(0.1 -0.1)">
       <use xlink:href="#OpenSans-Bold-32"/>
       <use xlink:href="#OpenSans-Bold-30" x="57.177734"/>
       <use xlink:href="#OpenSans-Bold-32" x="114.355469"/>
       <use xlink:href="#OpenSans-Bold-31" x="171.533203"/>
      </g>
     </g>
    </g>
    <g id="xtick_4">
     <g id="line2d_4">
      <g>
       <use xlink:href="#m89ffdc3cb8" x="284.73842" y="332.12" style="fill: #37539c; stroke: #37539c; stroke-width: 0.8"/>
      </g>
     </g>
     <g id="text_4">
      <!-- 2022 -->
      <g style="fill: #37539c" transform="translate(273.304045 346.718437) scale(0.1 -0.1)">
       <use xlink:href="#OpenSans-Bold-32"/>
       <use xlink:href="#OpenSans-Bold-30" x="57.177734"/>
       <use xlink:href="#OpenSans-Bold-32" x="114.355469"/>
       <use xlink:href="#OpenSans-Bold-32" x="171.533203"/>
      </g>
     </g>
    </g>
   </g>
   <g id="matplotlib.axis_2">
    <g id="ytick_1">
     <g id="line2d_5">
      <path d="M 45.11 332.12 
L 314.473333 332.12 
" clip-path="url(#p9713930d65)" style="fill: none; stroke-dasharray: 2.96,1.28; stroke-dashoffset: 0; stroke: #b0b0b0; stroke-width: 0.8"/>
     </g>
     <g id="line2d_6">
      <defs>
       <path id="mca70532fbc" d="M 0 0 
L -3.5 0 
" style="stroke: #37539c; stroke-width: 0.8"/>
      </defs>
      <g>
       <use xlink:href="#mca70532fbc" x="45.11" y="332.12" style="fill: #37539c; stroke: #37539c; stroke-width: 0.8"/>
      </g>
     </g>
     <g id="text_5">
      <!-- 0 -->
      <g style="fill: #37539c" transform="translate(32.392813 335.919219) scale(0.1 -0.1)">
       <use xlink:href="#OpenSans-Bold-30"/>
      </g>
     </g>
    </g>
    <g id="ytick_2">
     <g id="line2d_7">
      <path d="M 45.11 293.965 
L 314.473333 293.965 
" clip-path="url(#p9713930d65)" style="fill: none; stroke-dasharray: 2.96,1.28; stroke-dashoffset: 0; stroke: #b0b0b0; stroke-width: 0.8"/>
     </g>
     <g id="line2d_8">
      <g>
       <use xlink:href="#mca70532fbc" x="45.11" y="293.965" style="fill: #37539c; stroke: #37539c; stroke-width: 0.8"/>
      </g>
     </g>
     <g id="text_6">
      <!-- 2 -->
      <g style="fill: #37539c" transform="translate(32.392813 297.764219) scale(0.1 -0.1)">
       <use xlink:href="#OpenSans-Bold-32"/>
      </g>
     </g>
    </g>
    <g id="ytick_3">
     <g id="line2d_9">
      <path d="M 45.11 255.81 
L 314.473333 255.81 
" clip-path="url(#p9713930d65)" style="fill: none; stroke-dasharray: 2.96,1.28; stroke-dashoffset: 0; stroke: #b0b0b0; stroke-width: 0.8"/>
     </g>
     <g id="line2d_10">
      <g>
       <use xlink:href="#mca70532fbc" x="45.11" y="255.81" style="fill: #37539c; stroke: #37539c; stroke-width: 0.8"/>
      </g>
     </g>
     <g id="text_7">
      <!-- 4 -->
      <g style="fill: #37539c" transform="translate(32.392813 259.609219) scale(0.1 -0.1)">
       <defs>
        <path id="OpenSans-Bold-34" d="M 3553 947 
L 3003 947 
L 3003 0 
L 2059 0 
L 2059 947 
L 109 947 
L 109 1619 
L 2113 4569 
L 3003 4569 
L 3003 1697 
L 3553 1697 
L 3553 947 
z
M 2059 1697 
L 2059 2472 
Q 2059 2581 2064 2731 
Q 2069 2881 2075 3031 
Q 2081 3181 2089 3298 
Q 2097 3416 2100 3463 
L 2075 3463 
Q 2016 3334 1950 3214 
Q 1884 3094 1797 2963 
L 959 1697 
L 2059 1697 
z
" transform="scale(0.015625)"/>
       </defs>
       <use xlink:href="#OpenSans-Bold-34"/>
      </g>
     </g>
    </g>
    <g id="ytick_4">
     <g id="line2d_11">
      <path d="M 45.11 217.655 
L 314.473333 217.655 
" clip-path="url(#p9713930d65)" style="fill: none; stroke-dasharray: 2.96,1.28; stroke-dashoffset: 0; stroke: #b0b0b0; stroke-width: 0.8"/>
     </g>
     <g id="line2d_12">
      <g>
       <use xlink:href="#mca70532fbc" x="45.11" y="217.655" style="fill: #37539c; stroke: #37539c; stroke-width: 0.8"/>
      </g>
     </g>
     <g id="text_8">
      <!-- 6 -->
      <g style="fill: #37539c" transform="translate(32.392813 221.454219) scale(0.1 -0.1)">
       <defs>
        <path id="OpenSans-Bold-36" d="M 225 1941 
Q 225 2334 283 2720 
Q 341 3106 484 3448 
Q 628 3791 887 4055 
Q 1147 4319 1547 4470 
Q 1947 4622 2516 4622 
Q 2650 4622 2829 4611 
Q 3009 4600 3128 4575 
L 3128 3803 
Q 3003 3831 2861 3848 
Q 2719 3866 2578 3866 
Q 2009 3866 1698 3684 
Q 1388 3503 1261 3183 
Q 1134 2863 1113 2438 
L 1153 2438 
Q 1241 2591 1373 2709 
Q 1506 2828 1697 2898 
Q 1888 2969 2144 2969 
Q 2544 2969 2837 2798 
Q 3131 2628 3290 2306 
Q 3450 1984 3450 1522 
Q 3450 1028 3259 672 
Q 3069 316 2720 126 
Q 2372 -63 1894 -63 
Q 1544 -63 1241 57 
Q 938 178 709 425 
Q 481 672 353 1048 
Q 225 1425 225 1941 
z
M 1875 709 
Q 2159 709 2337 903 
Q 2516 1097 2516 1509 
Q 2516 1844 2361 2036 
Q 2206 2228 1894 2228 
Q 1681 2228 1520 2133 
Q 1359 2038 1271 1892 
Q 1184 1747 1184 1594 
Q 1184 1434 1228 1278 
Q 1272 1122 1359 994 
Q 1447 866 1576 787 
Q 1706 709 1875 709 
z
" transform="scale(0.015625)"/>
       </defs>
       <use xlink:href="#OpenSans-Bold-36"/>
      </g>
     </g>
    </g>
    <g id="ytick_5">
     <g id="line2d_13">
      <path d="M 45.11 179.5 
L 314.473333 179.5 
" clip-path="url(#p9713930d65)" style="fill: none; stroke-dasharray: 2.96,1.28; stroke-dashoffset: 0; stroke: #b0b0b0; stroke-width: 0.8"/>
     </g>
     <g id="line2d_14">
      <g>
       <use xlink:href="#mca70532fbc" x="45.11" y="179.5" style="fill: #37539c; stroke: #37539c; stroke-width: 0.8"/>
      </g>
     </g>
     <g id="text_9">
      <!-- 8 -->
      <g style="fill: #37539c" transform="translate(32.392813 183.299219) scale(0.1 -0.1)">
       <defs>
        <path id="OpenSans-Bold-38" d="M 1831 4628 
Q 2225 4628 2558 4506 
Q 2891 4384 3091 4139 
Q 3291 3894 3291 3525 
Q 3291 3250 3183 3044 
Q 3075 2838 2890 2683 
Q 2706 2528 2472 2413 
Q 2716 2284 2934 2114 
Q 3153 1944 3292 1716 
Q 3431 1488 3431 1184 
Q 3431 803 3228 523 
Q 3025 244 2665 90 
Q 2306 -63 1831 -63 
Q 1319 -63 959 84 
Q 600 231 412 504 
Q 225 778 225 1159 
Q 225 1472 342 1703 
Q 459 1934 659 2101 
Q 859 2269 1100 2388 
Q 897 2516 730 2678 
Q 563 2841 464 3050 
Q 366 3259 366 3531 
Q 366 3894 570 4137 
Q 775 4381 1109 4504 
Q 1444 4628 1831 4628 
z
M 1119 1216 
Q 1119 969 1295 808 
Q 1472 647 1819 647 
Q 2178 647 2356 801 
Q 2534 956 2534 1209 
Q 2534 1384 2432 1515 
Q 2331 1647 2178 1751 
Q 2025 1856 1869 1947 
L 1784 1991 
Q 1584 1900 1436 1787 
Q 1288 1675 1203 1534 
Q 1119 1394 1119 1216 
z
M 1825 3922 
Q 1588 3922 1431 3800 
Q 1275 3678 1275 3456 
Q 1275 3300 1351 3183 
Q 1428 3066 1554 2978 
Q 1681 2891 1831 2816 
Q 1975 2884 2100 2968 
Q 2225 3053 2303 3172 
Q 2381 3291 2381 3456 
Q 2381 3678 2223 3800 
Q 2066 3922 1825 3922 
z
" transform="scale(0.015625)"/>
       </defs>
       <use xlink:href="#OpenSans-Bold-38"/>
      </g>
     </g>
    </g>
    <g id="ytick_6">
     <g id="line2d_15">
      <path d="M 45.11 141.345 
L 314.473333 141.345 
" clip-path="url(#p9713930d65)" style="fill: none; stroke-dasharray: 2.96,1.28; stroke-dashoffset: 0; stroke: #b0b0b0; stroke-width: 0.8"/>
     </g>
     <g id="line2d_16">
      <g>
       <use xlink:href="#mca70532fbc" x="45.11" y="141.345" style="fill: #37539c; stroke: #37539c; stroke-width: 0.8"/>
      </g>
     </g>
     <g id="text_10">
      <!-- 10 -->
      <g style="fill: #37539c" transform="translate(26.675625 145.144219) scale(0.1 -0.1)">
       <use xlink:href="#OpenSans-Bold-31"/>
       <use xlink:href="#OpenSans-Bold-30" x="57.177734"/>
      </g>
     </g>
    </g>
    <g id="ytick_7">
     <g id="line2d_17">
      <path d="M 45.11 103.19 
L 314.473333 103.19 
" clip-path="url(#p9713930d65)" style="fill: none; stroke-dasharray: 2.96,1.28; stroke-dashoffset: 0; stroke: #b0b0b0; stroke-width: 0.8"/>
     </g>
     <g id="line2d_18">
      <g>
       <use xlink:href="#mca70532fbc" x="45.11" y="103.19" style="fill: #37539c; stroke: #37539c; stroke-width: 0.8"/>
      </g>
     </g>
     <g id="text_11">
      <!-- 12 -->
      <g style="fill: #37539c" transform="translate(26.675625 106.989219) scale(0.1 -0.1)">
       <use xlink:href="#OpenSans-Bold-31"/>
       <use xlink:href="#OpenSans-Bold-32" x="57.177734"/>
      </g>
     </g>
    </g>
    <g id="ytick_8">
     <g id="line2d_19">
      <path d="M 45.11 65.035 
L 314.473333 65.035 
" clip-path="url(#p9713930d65)" style="fill: none; stroke-dasharray: 2.96,1.28; stroke-dashoffset: 0; stroke: #b0b0b0; stroke-width: 0.8"/>
     </g>
     <g id="line2d_20">
      <g>
       <use xlink:href="#mca70532fbc" x="45.11" y="65.035" style="fill: #37539c; stroke: #37539c; stroke-width: 0.8"/>
      </g>
     </g>
     <g id="text_12">
      <!-- 14 -->
      <g style="fill: #37539c" transform="translate(26.675625 68.834219) scale(0.1 -0.1)">
       <use xlink:href="#OpenSans-Bold-31"/>
       <use xlink:href="#OpenSans-Bold-34" x="57.177734"/>
      </g>
     </g>
    </g>
    <g id="ytick_9">
     <g id="line2d_21">
      <path d="M 45.11 26.88 
L 314.473333 26.88 
" clip-path="url(#p9713930d65)" style="fill: none; stroke-dasharray: 2.96,1.28; stroke-dashoffset: 0; stroke: #b0b0b0; stroke-width: 0.8"/>
     </g>
     <g id="line2d_22">
      <g>
       <use xlink:href="#mca70532fbc" x="45.11" y="26.88" style="fill: #37539c; stroke: #37539c; stroke-width: 0.8"/>
      </g>
     </g>
     <g id="text_13">
      <!-- 16 -->
      <g style="fill: #37539c" transform="translate(26.675625 30.679219) scale(0.1 -0.1)">
       <use xlink:href="#OpenSans-Bold-31"/>
       <use xlink:href="#OpenSans-Bold-36" x="57.177734"/>
      </g>
     </g>
    </g>
    <g id="text_14">
     <!-- Índice de Desempeño -->
     <g style="fill: #37539c" transform="translate(20.2725 232.876563) rotate(-90) scale(0.1 -0.1)">
      <defs>
       <path id="OpenSans-Bold-cd" d="M 575 0 
L 575 4569 
L 1544 4569 
L 1544 0 
L 575 0 
z
M 2411 5991 
L 2411 5926 
Q 2321 5838 2174 5710 
Q 2027 5582 1858 5443 
Q 1690 5304 1527 5177 
Q 1365 5051 1243 4966 
L 608 4966 
L 608 5051 
Q 711 5169 847 5333 
Q 983 5497 1117 5672 
Q 1252 5847 1343 5991 
L 2411 5991 
z
" transform="scale(0.015625)"/>
       <path id="OpenSans-Bold-6e" d="M 2484 3559 
Q 3044 3559 3384 3254 
Q 3725 2950 3725 2278 
L 3725 0 
L 2772 0 
L 2772 2041 
Q 2772 2416 2636 2606 
Q 2500 2797 2209 2797 
Q 1772 2797 1612 2500 
Q 1453 2203 1453 1644 
L 1453 0 
L 500 0 
L 500 3494 
L 1228 3494 
L 1356 3047 
L 1409 3047 
Q 1522 3228 1689 3340 
Q 1856 3453 2061 3506 
Q 2266 3559 2484 3559 
z
" transform="scale(0.015625)"/>
       <path id="OpenSans-Bold-64" d="M 1606 -63 
Q 1022 -63 655 395 
Q 288 853 288 1741 
Q 288 2638 659 3098 
Q 1031 3559 1631 3559 
Q 1881 3559 2072 3490 
Q 2263 3422 2402 3306 
Q 2541 3191 2638 3047 
L 2669 3047 
Q 2650 3147 2623 3342 
Q 2597 3538 2597 3744 
L 2597 4863 
L 3553 4863 
L 3553 0 
L 2822 0 
L 2638 453 
L 2597 453 
Q 2506 309 2370 192 
Q 2234 75 2046 6 
Q 1859 -63 1606 -63 
z
M 1941 697 
Q 2331 697 2492 930 
Q 2653 1163 2663 1631 
L 2663 1734 
Q 2663 2244 2506 2514 
Q 2350 2784 1925 2784 
Q 1609 2784 1431 2512 
Q 1253 2241 1253 1728 
Q 1253 1216 1433 956 
Q 1613 697 1941 697 
z
" transform="scale(0.015625)"/>
       <path id="OpenSans-Bold-69" d="M 1453 3494 
L 1453 0 
L 500 0 
L 500 3494 
L 1453 3494 
z
M 978 4863 
Q 1191 4863 1344 4764 
Q 1497 4666 1497 4397 
Q 1497 4131 1344 4029 
Q 1191 3928 978 3928 
Q 763 3928 611 4029 
Q 459 4131 459 4397 
Q 459 4666 611 4764 
Q 763 4863 978 4863 
z
" transform="scale(0.015625)"/>
       <path id="OpenSans-Bold-63" d="M 1919 -63 
Q 1400 -63 1034 126 
Q 669 316 478 712 
Q 288 1109 288 1728 
Q 288 2369 505 2773 
Q 722 3178 1108 3368 
Q 1494 3559 2003 3559 
Q 2366 3559 2630 3489 
Q 2894 3419 3091 3322 
L 2809 2584 
Q 2584 2675 2390 2733 
Q 2197 2791 2003 2791 
Q 1753 2791 1587 2673 
Q 1422 2556 1340 2322 
Q 1259 2088 1259 1734 
Q 1259 1388 1346 1159 
Q 1434 931 1600 820 
Q 1766 709 2003 709 
Q 2300 709 2531 789 
Q 2763 869 2981 1013 
L 2981 197 
Q 2763 59 2523 -2 
Q 2284 -63 1919 -63 
z
" transform="scale(0.015625)"/>
       <path id="OpenSans-Bold-65" d="M 1941 3559 
Q 2425 3559 2775 3373 
Q 3125 3188 3315 2834 
Q 3506 2481 3506 1972 
L 3506 1509 
L 1253 1509 
Q 1269 1106 1495 876 
Q 1722 647 2125 647 
Q 2459 647 2737 715 
Q 3016 784 3309 922 
L 3309 184 
Q 3050 56 2767 -3 
Q 2484 -63 2081 -63 
Q 1556 -63 1151 131 
Q 747 325 517 722 
Q 288 1119 288 1722 
Q 288 2334 495 2742 
Q 703 3150 1075 3354 
Q 1447 3559 1941 3559 
z
M 1947 2881 
Q 1669 2881 1486 2703 
Q 1303 2525 1275 2144 
L 2613 2144 
Q 2609 2356 2536 2522 
Q 2463 2688 2317 2784 
Q 2172 2881 1947 2881 
z
" transform="scale(0.015625)"/>
       <path id="OpenSans-Bold-20" transform="scale(0.015625)"/>
       <path id="OpenSans-Bold-44" d="M 4366 2328 
Q 4366 1556 4070 1039 
Q 3775 522 3215 261 
Q 2656 0 1869 0 
L 575 0 
L 575 4569 
L 2009 4569 
Q 2728 4569 3256 4314 
Q 3784 4059 4075 3561 
Q 4366 3063 4366 2328 
z
M 3359 2303 
Q 3359 2809 3211 3136 
Q 3063 3463 2773 3619 
Q 2484 3775 2059 3775 
L 1544 3775 
L 1544 800 
L 1959 800 
Q 2669 800 3014 1178 
Q 3359 1556 3359 2303 
z
" transform="scale(0.015625)"/>
       <path id="OpenSans-Bold-73" d="M 2938 1038 
Q 2938 681 2770 436 
Q 2603 191 2272 64 
Q 1941 -63 1447 -63 
Q 1081 -63 820 -16 
Q 559 31 294 141 
L 294 928 
Q 578 800 904 717 
Q 1231 634 1478 634 
Q 1756 634 1876 717 
Q 1997 800 1997 934 
Q 1997 1022 1948 1092 
Q 1900 1163 1740 1252 
Q 1581 1341 1241 1484 
Q 913 1622 702 1762 
Q 491 1903 389 2095 
Q 288 2288 288 2584 
Q 288 3069 664 3314 
Q 1041 3559 1672 3559 
Q 1997 3559 2292 3493 
Q 2588 3428 2900 3284 
L 2613 2597 
Q 2353 2709 2123 2781 
Q 1894 2853 1656 2853 
Q 1447 2853 1340 2797 
Q 1234 2741 1234 2625 
Q 1234 2541 1289 2475 
Q 1344 2409 1501 2329 
Q 1659 2250 1966 2125 
Q 2263 2003 2481 1870 
Q 2700 1738 2819 1542 
Q 2938 1347 2938 1038 
z
" transform="scale(0.015625)"/>
       <path id="OpenSans-Bold-6d" d="M 4603 3559 
Q 5197 3559 5501 3254 
Q 5806 2950 5806 2278 
L 5806 0 
L 4850 0 
L 4850 2041 
Q 4850 2416 4722 2606 
Q 4594 2797 4325 2797 
Q 3947 2797 3787 2526 
Q 3628 2256 3628 1753 
L 3628 0 
L 2675 0 
L 2675 2041 
Q 2675 2291 2619 2459 
Q 2563 2628 2447 2712 
Q 2331 2797 2150 2797 
Q 1884 2797 1732 2664 
Q 1581 2531 1517 2273 
Q 1453 2016 1453 1644 
L 1453 0 
L 500 0 
L 500 3494 
L 1228 3494 
L 1356 3047 
L 1409 3047 
Q 1516 3228 1677 3340 
Q 1838 3453 2031 3506 
Q 2225 3559 2425 3559 
Q 2809 3559 3076 3434 
Q 3344 3309 3488 3047 
L 3572 3047 
Q 3728 3316 4014 3437 
Q 4300 3559 4603 3559 
z
" transform="scale(0.015625)"/>
       <path id="OpenSans-Bold-70" d="M 2444 3559 
Q 3034 3559 3398 3100 
Q 3763 2641 3763 1753 
Q 3763 1159 3591 754 
Q 3419 350 3116 143 
Q 2813 -63 2419 -63 
Q 2166 -63 1984 1 
Q 1803 66 1675 167 
Q 1547 269 1453 384 
L 1403 384 
Q 1428 259 1440 128 
Q 1453 -3 1453 -128 
L 1453 -1538 
L 500 -1538 
L 500 3494 
L 1275 3494 
L 1409 3041 
L 1453 3041 
Q 1547 3181 1681 3300 
Q 1816 3419 2005 3489 
Q 2194 3559 2444 3559 
z
M 2138 2797 
Q 1888 2797 1741 2694 
Q 1594 2591 1526 2384 
Q 1459 2178 1453 1863 
L 1453 1759 
Q 1453 1422 1517 1187 
Q 1581 953 1732 831 
Q 1884 709 2150 709 
Q 2369 709 2509 831 
Q 2650 953 2720 1189 
Q 2791 1425 2791 1766 
Q 2791 2278 2631 2537 
Q 2472 2797 2138 2797 
z
" transform="scale(0.015625)"/>
       <path id="OpenSans-Bold-f1" d="M 2484 3559 
Q 3044 3559 3384 3254 
Q 3725 2950 3725 2278 
L 3725 0 
L 2772 0 
L 2772 2041 
Q 2772 2416 2636 2606 
Q 2500 2797 2209 2797 
Q 1772 2797 1612 2500 
Q 1453 2203 1453 1644 
L 1453 0 
L 500 0 
L 500 3494 
L 1228 3494 
L 1356 3047 
L 1409 3047 
Q 1522 3228 1689 3340 
Q 1856 3453 2061 3506 
Q 2266 3559 2484 3559 
z
M 808 3872 
Q 827 4122 899 4305 
Q 971 4488 1086 4605 
Q 1202 4722 1347 4780 
Q 1493 4838 1658 4838 
Q 1786 4838 1909 4789 
Q 2033 4741 2153 4675 
Q 2274 4609 2391 4561 
Q 2508 4513 2621 4513 
Q 2715 4513 2804 4595 
Q 2893 4678 2933 4844 
L 3399 4844 
Q 3361 4350 3117 4114 
Q 2874 3878 2549 3878 
Q 2421 3878 2297 3928 
Q 2174 3978 2053 4042 
Q 1933 4106 1817 4156 
Q 1702 4206 1590 4206 
Q 1493 4206 1404 4123 
Q 1315 4041 1274 3872 
L 808 3872 
z
" transform="scale(0.015625)"/>
       <path id="OpenSans-Bold-6f" d="M 3675 1753 
Q 3675 1316 3558 978 
Q 3441 641 3217 408 
Q 2994 175 2680 56 
Q 2366 -63 1972 -63 
Q 1603 -63 1295 56 
Q 988 175 761 408 
Q 534 641 411 978 
Q 288 1316 288 1753 
Q 288 2334 494 2737 
Q 700 3141 1081 3350 
Q 1463 3559 1991 3559 
Q 2481 3559 2861 3350 
Q 3241 3141 3458 2737 
Q 3675 2334 3675 1753 
z
M 1259 1753 
Q 1259 1409 1334 1175 
Q 1409 941 1568 822 
Q 1728 703 1984 703 
Q 2238 703 2395 822 
Q 2553 941 2626 1175 
Q 2700 1409 2700 1753 
Q 2700 2100 2626 2329 
Q 2553 2559 2393 2675 
Q 2234 2791 1978 2791 
Q 1600 2791 1429 2531 
Q 1259 2272 1259 1753 
z
" transform="scale(0.015625)"/>
      </defs>
      <use xlink:href="#OpenSans-Bold-cd"/>
      <use xlink:href="#OpenSans-Bold-6e" x="33.105469"/>
      <use xlink:href="#OpenSans-Bold-64" x="98.828125"/>
      <use xlink:href="#OpenSans-Bold-69" x="162.109375"/>
      <use xlink:href="#OpenSans-Bold-63" x="192.626953"/>
      <use xlink:href="#OpenSans-Bold-65" x="244.042969"/>
      <use xlink:href="#OpenSans-Bold-20" x="303.125"/>
      <use xlink:href="#OpenSans-Bold-64" x="329.101562"/>
      <use xlink:href="#OpenSans-Bold-65" x="392.382812"/>
      <use xlink:href="#OpenSans-Bold-20" x="451.464844"/>
      <use xlink:href="#OpenSans-Bold-44" x="477.441406"/>
      <use xlink:href="#OpenSans-Bold-65" x="551.464844"/>
      <use xlink:href="#OpenSans-Bold-73" x="610.546875"/>
      <use xlink:href="#OpenSans-Bold-65" x="660.253906"/>
      <use xlink:href="#OpenSans-Bold-6d" x="719.335938"/>
      <use xlink:href="#OpenSans-Bold-70" x="817.529297"/>
      <use xlink:href="#OpenSans-Bold-65" x="880.810547"/>
      <use xlink:href="#OpenSans-Bold-f1" x="939.892578"/>
      <use xlink:href="#OpenSans-Bold-6f" x="1005.615234"/>
     </g>
    </g>
   </g>
   <g id="patch_3">
    <path d="M 274.523603 331.81476 
L 294.953237 331.81476 
Q 301.949687 331.81476 301.949687 324.18376 
L 301.949687 149.28124 
Q 301.949687 141.65024 294.953237 141.65024 
L 274.523603 141.65024 
Q 267.527152 141.65024 267.527152 149.28124 
L 267.527152 324.18376 
Q 267.527152 331.81476 274.523603 331.81476 
z
" clip-path="url(#p9713930d65)" style="fill: #37539c"/>
   </g>
   <g id="patch_4">
    <path d="M 204.5591 331.81476 
L 224.988735 331.81476 
Q 231.985185 331.81476 231.985185 324.18376 
L 231.985185 168.35874 
Q 231.985185 160.72774 224.988735 160.72774 
L 204.5591 160.72774 
Q 197.56265 160.72774 197.56265 168.35874 
L 197.56265 324.18376 
Q 197.56265 331.81476 204.5591 331.81476 
z
" clip-path="url(#p9713930d65)" style="fill: #37539c"/>
   </g>
   <g id="patch_5">
    <path d="M 134.594598 331.81476 
L 155.024233 331.81476 
Q 162.020683 331.81476 162.020683 324.18376 
L 162.020683 164.54324 
Q 162.020683 156.91224 155.024233 156.91224 
L 134.594598 156.91224 
Q 127.598148 156.91224 127.598148 164.54324 
L 127.598148 324.18376 
Q 127.598148 331.81476 134.594598 331.81476 
z
" clip-path="url(#p9713930d65)" style="fill: #37539c"/>
   </g>
   <g id="patch_6">
    <path d="M 64.630096 331.81476 
L 85.059731 331.81476 
Q 92.056181 331.81476 92.056181 324.18376 
L 92.056181 191.25174 
Q 92.056181 183.62074 85.059731 183.62074 
L 64.630096 183.62074 
Q 57.633646 183.62074 57.633646 191.25174 
L 57.633646 324.18376 
Q 57.633646 331.81476 64.630096 331.81476 
z
" clip-path="url(#p9713930d65)" style="fill: #37539c"/>
   </g>
   <g id="patch_7">
    <path d="M 45.11 332.12 
L 45.11 26.88 
" style="fill: none; stroke: #000000; stroke-width: 0.8; stroke-linejoin: miter; stroke-linecap: square"/>
   </g>
   <g id="patch_8">
    <path d="M 45.11 332.12 
L 314.473333 332.12 
" style="fill: none; stroke: #000000; stroke-width: 0.8; stroke-linejoin: miter; stroke-linecap: square"/>
   </g>
   <g id="text_15">
    <!-- 7.8 -->
    <g style="fill: #37539c" transform="translate(67.701945 180.912375) scale(0.1 -0.1)">
     <defs>
      <path id="OpenSans-Bold-37" d="M 709 0 
L 2425 3756 
L 172 3756 
L 172 4569 
L 3450 4569 
L 3450 3963 
L 1722 0 
L 709 0 
z
" transform="scale(0.015625)"/>
      <path id="OpenSans-Bold-2e" d="M 366 447 
Q 366 741 527 859 
Q 688 978 916 978 
Q 1138 978 1298 859 
Q 1459 741 1459 447 
Q 1459 166 1298 41 
Q 1138 -84 916 -84 
Q 688 -84 527 41 
Q 366 166 366 447 
z
" transform="scale(0.015625)"/>
     </defs>
     <use xlink:href="#OpenSans-Bold-37"/>
     <use xlink:href="#OpenSans-Bold-2e" x="57.177734"/>
     <use xlink:href="#OpenSans-Bold-38" x="85.693359"/>
    </g>
   </g>
   <g id="text_16">
    <!-- 9.2 -->
    <g style="fill: #37539c" transform="translate(137.666447 154.203875) scale(0.1 -0.1)">
     <use xlink:href="#OpenSans-Bold-39"/>
     <use xlink:href="#OpenSans-Bold-2e" x="57.177734"/>
     <use xlink:href="#OpenSans-Bold-32" x="85.693359"/>
    </g>
   </g>
   <g id="text_17">
    <!-- 9 -->
    <g style="fill: #37539c" transform="translate(211.915324 158.019375) scale(0.1 -0.1)">
     <use xlink:href="#OpenSans-Bold-39"/>
    </g>
   </g>
   <g id="text_18">
    <!-- 10 -->
    <g style="fill: #37539c" transform="translate(279.021232 138.941875) scale(0.1 -0.1)">
     <use xlink:href="#OpenSans-Bold-31"/>
     <use xlink:href="#OpenSans-Bold-30" x="57.177734"/>
    </g>
   </g>
   <g id="text_19">
    <!-- Recursos institucionales -->
    <g style="fill: #37539c" transform="translate(106.998542 20.88) scale(0.12 -0.12)">
     <defs>
      <path id="OpenSans-Bold-52" d="M 1906 4569 
Q 2528 4569 2933 4419 
Q 3338 4269 3534 3966 
Q 3731 3663 3731 3200 
Q 3731 2888 3612 2653 
Q 3494 2419 3300 2256 
Q 3106 2094 2881 1991 
L 4225 0 
L 3150 0 
L 2059 1753 
L 1544 1753 
L 1544 0 
L 575 0 
L 575 4569 
L 1906 4569 
z
M 1838 3775 
L 1544 3775 
L 1544 2541 
L 1856 2541 
Q 2338 2541 2545 2702 
Q 2753 2863 2753 3175 
Q 2753 3500 2529 3637 
Q 2306 3775 1838 3775 
z
" transform="scale(0.015625)"/>
      <path id="OpenSans-Bold-75" d="M 3706 3494 
L 3706 0 
L 2975 0 
L 2847 447 
L 2797 447 
Q 2684 269 2515 156 
Q 2347 44 2144 -9 
Q 1941 -63 1722 -63 
Q 1347 -63 1069 70 
Q 791 203 636 484 
Q 481 766 481 1216 
L 481 3494 
L 1434 3494 
L 1434 1453 
Q 1434 1078 1568 887 
Q 1703 697 1997 697 
Q 2288 697 2453 830 
Q 2619 963 2686 1220 
Q 2753 1478 2753 1850 
L 2753 3494 
L 3706 3494 
z
" transform="scale(0.015625)"/>
      <path id="OpenSans-Bold-72" d="M 2450 3559 
Q 2522 3559 2617 3551 
Q 2713 3544 2772 3531 
L 2700 2638 
Q 2653 2653 2567 2661 
Q 2481 2669 2419 2669 
Q 2234 2669 2061 2622 
Q 1888 2575 1750 2470 
Q 1613 2366 1533 2195 
Q 1453 2025 1453 1778 
L 1453 0 
L 500 0 
L 500 3494 
L 1222 3494 
L 1363 2906 
L 1409 2906 
Q 1513 3084 1667 3232 
Q 1822 3381 2020 3470 
Q 2219 3559 2450 3559 
z
" transform="scale(0.015625)"/>
      <path id="OpenSans-Bold-74" d="M 1972 697 
Q 2128 697 2276 728 
Q 2425 759 2572 806 
L 2572 97 
Q 2419 28 2192 -17 
Q 1966 -63 1697 -63 
Q 1384 -63 1136 39 
Q 888 141 745 392 
Q 603 644 603 1094 
L 603 2778 
L 147 2778 
L 147 3181 
L 672 3500 
L 947 4238 
L 1556 4238 
L 1556 3494 
L 2534 3494 
L 2534 2778 
L 1556 2778 
L 1556 1094 
Q 1556 894 1670 795 
Q 1784 697 1972 697 
z
" transform="scale(0.015625)"/>
      <path id="OpenSans-Bold-61" d="M 1931 3566 
Q 2634 3566 3009 3259 
Q 3384 2953 3384 2328 
L 3384 0 
L 2719 0 
L 2534 475 
L 2509 475 
Q 2359 288 2203 169 
Q 2047 50 1844 -6 
Q 1641 -63 1350 -63 
Q 1041 -63 795 56 
Q 550 175 409 420 
Q 269 666 269 1044 
Q 269 1600 659 1864 
Q 1050 2128 1831 2156 
L 2438 2175 
L 2438 2328 
Q 2438 2603 2294 2731 
Q 2150 2859 1894 2859 
Q 1641 2859 1397 2787 
Q 1153 2716 909 2606 
L 594 3250 
Q 872 3397 1217 3481 
Q 1563 3566 1931 3566 
z
M 2438 1619 
L 2069 1606 
Q 1606 1594 1426 1441 
Q 1247 1288 1247 1038 
Q 1247 819 1375 726 
Q 1503 634 1709 634 
Q 2016 634 2227 815 
Q 2438 997 2438 1331 
L 2438 1619 
z
" transform="scale(0.015625)"/>
      <path id="OpenSans-Bold-6c" d="M 1453 0 
L 500 0 
L 500 4863 
L 1453 4863 
L 1453 0 
z
" transform="scale(0.015625)"/>
     </defs>
     <use xlink:href="#OpenSans-Bold-52"/>
     <use xlink:href="#OpenSans-Bold-65" x="66.015625"/>
     <use xlink:href="#OpenSans-Bold-63" x="125.097656"/>
     <use xlink:href="#OpenSans-Bold-75" x="176.513672"/>
     <use xlink:href="#OpenSans-Bold-72" x="242.236328"/>
     <use xlink:href="#OpenSans-Bold-73" x="287.646484"/>
     <use xlink:href="#OpenSans-Bold-6f" x="337.353516"/>
     <use xlink:href="#OpenSans-Bold-73" x="399.267578"/>
     <use xlink:href="#OpenSans-Bold-20" x="448.974609"/>
     <use xlink:href="#OpenSans-Bold-69" x="474.951172"/>
     <use xlink:href="#OpenSans-Bold-6e" x="505.46875"/>
     <use xlink:href="#OpenSans-Bold-73" x="571.191406"/>
     <use xlink:href="#OpenSans-Bold-74" x="620.898438"/>
     <use xlink:href="#OpenSans-Bold-69" x="664.306641"/>
     <use xlink:href="#OpenSans-Bold-74" x="694.824219"/>
     <use xlink:href="#OpenSans-Bold-75" x="738.232422"/>
     <use xlink:href="#OpenSans-Bold-63" x="803.955078"/>
     <use xlink:href="#OpenSans-Bold-69" x="855.371094"/>
     <use xlink:href="#OpenSans-Bold-6f" x="885.888672"/>
     <use xlink:href="#OpenSans-Bold-6e" x="947.802734"/>
     <use xlink:href="#OpenSans-Bold-61" x="1013.525391"/>
     <use xlink:href="#OpenSans-Bold-6c" x="1073.925781"/>
     <use xlink:href="#OpenSans-Bold-65" x="1104.443359"/>
     <use xlink:href="#OpenSans-Bold-73" x="1163.525391"/>
    </g>
   </g>
  </g>
  <g id="axes_2">
   <g id="patch_9">
    <path d="M 314.473333 332.12 
L 583.836667 332.12 
L 583.836667 26.88 
L 314.473333 26.88 
z
" style="fill: #ffffff"/>
   </g>
   <g id="matplotlib.axis_3">
    <g id="xtick_5">
     <g id="line2d_23">
      <g>
       <use xlink:href="#m89ffdc3cb8" x="344.208247" y="332.12" style="fill: #37539c; stroke: #37539c; stroke-width: 0.8"/>
      </g>
     </g>
     <g id="text_20">
      <!-- 2019 -->
      <g style="fill: #37539c" transform="translate(332.773872 346.718437) scale(0.1 -0.1)">
       <use xlink:href="#OpenSans-Bold-32"/>
       <use xlink:href="#OpenSans-Bold-30" x="57.177734"/>
       <use xlink:href="#OpenSans-Bold-31" x="114.355469"/>
       <use xlink:href="#OpenSans-Bold-39" x="171.533203"/>
      </g>
     </g>
    </g>
    <g id="xtick_6">
     <g id="line2d_24">
      <g>
       <use xlink:href="#m89ffdc3cb8" x="414.172749" y="332.12" style="fill: #37539c; stroke: #37539c; stroke-width: 0.8"/>
      </g>
     </g>
     <g id="text_21">
      <!-- 2020 -->
      <g style="fill: #37539c" transform="translate(402.738374 346.718437) scale(0.1 -0.1)">
       <use xlink:href="#OpenSans-Bold-32"/>
       <use xlink:href="#OpenSans-Bold-30" x="57.177734"/>
       <use xlink:href="#OpenSans-Bold-32" x="114.355469"/>
       <use xlink:href="#OpenSans-Bold-30" x="171.533203"/>
      </g>
     </g>
    </g>
    <g id="xtick_7">
     <g id="line2d_25">
      <g>
       <use xlink:href="#m89ffdc3cb8" x="484.137251" y="332.12" style="fill: #37539c; stroke: #37539c; stroke-width: 0.8"/>
      </g>
     </g>
     <g id="text_22">
      <!-- 2021 -->
      <g style="fill: #37539c" transform="translate(472.702876 346.718437) scale(0.1 -0.1)">
       <use xlink:href="#OpenSans-Bold-32"/>
       <use xlink:href="#OpenSans-Bold-30" x="57.177734"/>
       <use xlink:href="#OpenSans-Bold-32" x="114.355469"/>
       <use xlink:href="#OpenSans-Bold-31" x="171.533203"/>
      </g>
     </g>
    </g>
    <g id="xtick_8">
     <g id="line2d_26">
      <g>
       <use xlink:href="#m89ffdc3cb8" x="554.101753" y="332.12" style="fill: #37539c; stroke: #37539c; stroke-width: 0.8"/>
      </g>
     </g>
     <g id="text_23">
      <!-- 2022 -->
      <g style="fill: #37539c" transform="translate(542.667378 346.718437) scale(0.1 -0.1)">
       <use xlink:href="#OpenSans-Bold-32"/>
       <use xlink:href="#OpenSans-Bold-30" x="57.177734"/>
       <use xlink:href="#OpenSans-Bold-32" x="114.355469"/>
       <use xlink:href="#OpenSans-Bold-32" x="171.533203"/>
      </g>
     </g>
    </g>
   </g>
   <g id="matplotlib.axis_4">
    <g id="ytick_10">
     <g id="line2d_27">
      <path d="M 314.473333 332.12 
L 583.836667 332.12 
" clip-path="url(#p0836454903)" style="fill: none; stroke-dasharray: 2.96,1.28; stroke-dashoffset: 0; stroke: #b0b0b0; stroke-width: 0.8"/>
     </g>
     <g id="line2d_28">
      <g>
       <use xlink:href="#mca70532fbc" x="314.473333" y="332.12" style="fill: #37539c; stroke: #37539c; stroke-width: 0.8"/>
      </g>
     </g>
    </g>
    <g id="ytick_11">
     <g id="line2d_29">
      <path d="M 314.473333 293.965 
L 583.836667 293.965 
" clip-path="url(#p0836454903)" style="fill: none; stroke-dasharray: 2.96,1.28; stroke-dashoffset: 0; stroke: #b0b0b0; stroke-width: 0.8"/>
     </g>
     <g id="line2d_30">
      <g>
       <use xlink:href="#mca70532fbc" x="314.473333" y="293.965" style="fill: #37539c; stroke: #37539c; stroke-width: 0.8"/>
      </g>
     </g>
    </g>
    <g id="ytick_12">
     <g id="line2d_31">
      <path d="M 314.473333 255.81 
L 583.836667 255.81 
" clip-path="url(#p0836454903)" style="fill: none; stroke-dasharray: 2.96,1.28; stroke-dashoffset: 0; stroke: #b0b0b0; stroke-width: 0.8"/>
     </g>
     <g id="line2d_32">
      <g>
       <use xlink:href="#mca70532fbc" x="314.473333" y="255.81" style="fill: #37539c; stroke: #37539c; stroke-width: 0.8"/>
      </g>
     </g>
    </g>
    <g id="ytick_13">
     <g id="line2d_33">
      <path d="M 314.473333 217.655 
L 583.836667 217.655 
" clip-path="url(#p0836454903)" style="fill: none; stroke-dasharray: 2.96,1.28; stroke-dashoffset: 0; stroke: #b0b0b0; stroke-width: 0.8"/>
     </g>
     <g id="line2d_34">
      <g>
       <use xlink:href="#mca70532fbc" x="314.473333" y="217.655" style="fill: #37539c; stroke: #37539c; stroke-width: 0.8"/>
      </g>
     </g>
    </g>
    <g id="ytick_14">
     <g id="line2d_35">
      <path d="M 314.473333 179.5 
L 583.836667 179.5 
" clip-path="url(#p0836454903)" style="fill: none; stroke-dasharray: 2.96,1.28; stroke-dashoffset: 0; stroke: #b0b0b0; stroke-width: 0.8"/>
     </g>
     <g id="line2d_36">
      <g>
       <use xlink:href="#mca70532fbc" x="314.473333" y="179.5" style="fill: #37539c; stroke: #37539c; stroke-width: 0.8"/>
      </g>
     </g>
    </g>
    <g id="ytick_15">
     <g id="line2d_37">
      <path d="M 314.473333 141.345 
L 583.836667 141.345 
" clip-path="url(#p0836454903)" style="fill: none; stroke-dasharray: 2.96,1.28; stroke-dashoffset: 0; stroke: #b0b0b0; stroke-width: 0.8"/>
     </g>
     <g id="line2d_38">
      <g>
       <use xlink:href="#mca70532fbc" x="314.473333" y="141.345" style="fill: #37539c; stroke: #37539c; stroke-width: 0.8"/>
      </g>
     </g>
    </g>
    <g id="ytick_16">
     <g id="line2d_39">
      <path d="M 314.473333 103.19 
L 583.836667 103.19 
" clip-path="url(#p0836454903)" style="fill: none; stroke-dasharray: 2.96,1.28; stroke-dashoffset: 0; stroke: #b0b0b0; stroke-width: 0.8"/>
     </g>
     <g id="line2d_40">
      <g>
       <use xlink:href="#mca70532fbc" x="314.473333" y="103.19" style="fill: #37539c; stroke: #37539c; stroke-width: 0.8"/>
      </g>
     </g>
    </g>
    <g id="ytick_17">
     <g id="line2d_41">
      <path d="M 314.473333 65.035 
L 583.836667 65.035 
" clip-path="url(#p0836454903)" style="fill: none; stroke-dasharray: 2.96,1.28; stroke-dashoffset: 0; stroke: #b0b0b0; stroke-width: 0.8"/>
     </g>
     <g id="line2d_42">
      <g>
       <use xlink:href="#mca70532fbc" x="314.473333" y="65.035" style="fill: #37539c; stroke: #37539c; stroke-width: 0.8"/>
      </g>
     </g>
    </g>
    <g id="ytick_18">
     <g id="line2d_43">
      <path d="M 314.473333 26.88 
L 583.836667 26.88 
" clip-path="url(#p0836454903)" style="fill: none; stroke-dasharray: 2.96,1.28; stroke-dashoffset: 0; stroke: #b0b0b0; stroke-width: 0.8"/>
     </g>
     <g id="line2d_44">
      <g>
       <use xlink:href="#mca70532fbc" x="314.473333" y="26.88" style="fill: #37539c; stroke: #37539c; stroke-width: 0.8"/>
      </g>
     </g>
    </g>
   </g>
   <g id="patch_10">
    <path d="M 543.886936 331.81476 
L 564.316571 331.81476 
Q 571.313021 331.81476 571.313021 324.18376 
L 571.313021 88.23324 
Q 571.313021 80.60224 564.316571 80.60224 
L 543.886936 80.60224 
Q 536.890486 80.60224 536.890486 88.23324 
L 536.890486 324.18376 
Q 536.890486 331.81476 543.886936 331.81476 
z
" clip-path="url(#p0836454903)" style="fill: #59c3c3"/>
   </g>
   <g id="patch_11">
    <path d="M 473.922434 331.81476 
L 494.352068 331.81476 
Q 501.348519 331.81476 501.348519 324.18376 
L 501.348519 99.67974 
Q 501.348519 92.04874 494.352068 92.04874 
L 473.922434 92.04874 
Q 466.925984 92.04874 466.925984 99.67974 
L 466.925984 324.18376 
Q 466.925984 331.81476 473.922434 331.81476 
z
" clip-path="url(#p0836454903)" style="fill: #59c3c3"/>
   </g>
   <g id="patch_12">
    <path d="M 403.957932 331.81476 
L 424.387566 331.81476 
Q 431.384016 331.81476 431.384016 324.18376 
L 431.384016 107.31074 
Q 431.384016 99.67974 424.387566 99.67974 
L 403.957932 99.67974 
Q 396.961481 99.67974 396.961481 107.31074 
L 396.961481 324.18376 
Q 396.961481 331.81476 403.957932 331.81476 
z
" clip-path="url(#p0836454903)" style="fill: #59c3c3"/>
   </g>
   <g id="patch_13">
    <path d="M 333.993429 331.81476 
L 354.423064 331.81476 
Q 361.419514 331.81476 361.419514 324.18376 
L 361.419514 149.28124 
Q 361.419514 141.65024 354.423064 141.65024 
L 333.993429 141.65024 
Q 326.996979 141.65024 326.996979 149.28124 
L 326.996979 324.18376 
Q 326.996979 331.81476 333.993429 331.81476 
z
" clip-path="url(#p0836454903)" style="fill: #59c3c3"/>
   </g>
   <g id="patch_14">
    <path d="M 314.473333 332.12 
L 314.473333 26.88 
" style="fill: none; stroke: #000000; stroke-width: 0.8; stroke-linejoin: miter; stroke-linecap: square"/>
   </g>
   <g id="patch_15">
    <path d="M 314.473333 332.12 
L 583.836667 332.12 
" style="fill: none; stroke: #000000; stroke-width: 0.8; stroke-linejoin: miter; stroke-linecap: square"/>
   </g>
   <g id="text_24">
    <!-- 10 -->
    <g style="fill: #37539c" transform="translate(338.491059 138.941875) scale(0.1 -0.1)">
     <use xlink:href="#OpenSans-Bold-31"/>
     <use xlink:href="#OpenSans-Bold-30" x="57.177734"/>
    </g>
   </g>
   <g id="text_25">
    <!-- 12.2 -->
    <g style="fill: #37539c" transform="translate(404.171186 96.971375) scale(0.1 -0.1)">
     <use xlink:href="#OpenSans-Bold-31"/>
     <use xlink:href="#OpenSans-Bold-32" x="57.177734"/>
     <use xlink:href="#OpenSans-Bold-2e" x="114.355469"/>
     <use xlink:href="#OpenSans-Bold-32" x="142.871094"/>
    </g>
   </g>
   <g id="text_26">
    <!-- 12.6 -->
    <g style="fill: #37539c" transform="translate(474.135689 89.340375) scale(0.1 -0.1)">
     <use xlink:href="#OpenSans-Bold-31"/>
     <use xlink:href="#OpenSans-Bold-32" x="57.177734"/>
     <use xlink:href="#OpenSans-Bold-2e" x="114.355469"/>
     <use xlink:href="#OpenSans-Bold-36" x="142.871094"/>
    </g>
   </g>
   <g id="text_27">
    <!-- 13.2 -->
    <g style="fill: #37539c" transform="translate(544.100191 77.893875) scale(0.1 -0.1)">
     <defs>
      <path id="OpenSans-Bold-33" d="M 3272 3547 
Q 3272 3231 3140 3000 
Q 3009 2769 2786 2622 
Q 2563 2475 2284 2406 
L 2284 2388 
Q 2834 2319 3120 2050 
Q 3406 1781 3406 1331 
Q 3406 931 3211 615 
Q 3016 300 2609 118 
Q 2203 -63 1563 -63 
Q 1184 -63 857 -2 
Q 531 59 244 184 
L 244 1006 
Q 538 856 859 779 
Q 1181 703 1459 703 
Q 1978 703 2186 883 
Q 2394 1063 2394 1388 
Q 2394 1578 2297 1709 
Q 2200 1841 1961 1909 
Q 1722 1978 1294 1978 
L 947 1978 
L 947 2719 
L 1300 2719 
Q 1722 2719 1942 2798 
Q 2163 2878 2242 3017 
Q 2322 3156 2322 3334 
Q 2322 3578 2172 3715 
Q 2022 3853 1672 3853 
Q 1453 3853 1273 3798 
Q 1094 3744 950 3667 
Q 806 3591 697 3519 
L 250 4184 
Q 519 4378 880 4506 
Q 1241 4634 1741 4634 
Q 2447 4634 2859 4350 
Q 3272 4066 3272 3547 
z
" transform="scale(0.015625)"/>
     </defs>
     <use xlink:href="#OpenSans-Bold-31"/>
     <use xlink:href="#OpenSans-Bold-33" x="57.177734"/>
     <use xlink:href="#OpenSans-Bold-2e" x="114.355469"/>
     <use xlink:href="#OpenSans-Bold-32" x="142.871094"/>
    </g>
   </g>
   <g id="text_28">
    <!-- Prácticas y procesos -->
    <g style="fill: #37539c" transform="translate(388.748125 20.88) scale(0.12 -0.12)">
     <defs>
      <path id="OpenSans-Bold-50" d="M 2034 4569 
Q 2919 4569 3325 4189 
Q 3731 3809 3731 3144 
Q 3731 2844 3640 2570 
Q 3550 2297 3345 2084 
Q 3141 1872 2800 1748 
Q 2459 1625 1959 1625 
L 1544 1625 
L 1544 0 
L 575 0 
L 575 4569 
L 2034 4569 
z
M 1984 3775 
L 1544 3775 
L 1544 2419 
L 1863 2419 
Q 2134 2419 2334 2491 
Q 2534 2563 2643 2716 
Q 2753 2869 2753 3109 
Q 2753 3447 2565 3611 
Q 2378 3775 1984 3775 
z
" transform="scale(0.015625)"/>
      <path id="OpenSans-Bold-e1" d="M 1931 3566 
Q 2634 3566 3009 3259 
Q 3384 2953 3384 2328 
L 3384 0 
L 2719 0 
L 2534 475 
L 2509 475 
Q 2359 288 2203 169 
Q 2047 50 1844 -6 
Q 1641 -63 1350 -63 
Q 1041 -63 795 56 
Q 550 175 409 420 
Q 269 666 269 1044 
Q 269 1600 659 1864 
Q 1050 2128 1831 2156 
L 2438 2175 
L 2438 2328 
Q 2438 2603 2294 2731 
Q 2150 2859 1894 2859 
Q 1641 2859 1397 2787 
Q 1153 2716 909 2606 
L 594 3250 
Q 872 3397 1217 3481 
Q 1563 3566 1931 3566 
z
M 2438 1619 
L 2069 1606 
Q 1606 1594 1426 1441 
Q 1247 1288 1247 1038 
Q 1247 819 1375 726 
Q 1503 634 1709 634 
Q 2016 634 2227 815 
Q 2438 997 2438 1331 
L 2438 1619 
z
M 3163 4903 
L 3163 4838 
Q 3073 4750 2926 4622 
Q 2779 4494 2610 4355 
Q 2442 4216 2279 4089 
Q 2117 3963 1995 3878 
L 1360 3878 
L 1360 3963 
Q 1463 4081 1599 4245 
Q 1735 4409 1869 4584 
Q 2004 4759 2095 4903 
L 3163 4903 
z
" transform="scale(0.015625)"/>
      <path id="OpenSans-Bold-79" d="M 0 3494 
L 1044 3494 
L 1703 1528 
Q 1734 1434 1756 1337 
Q 1778 1241 1793 1137 
Q 1809 1034 1819 922 
L 1838 922 
Q 1856 1091 1889 1237 
Q 1922 1384 1972 1528 
L 2619 3494 
L 3641 3494 
L 2163 -447 
Q 2028 -809 1812 -1051 
Q 1597 -1294 1317 -1416 
Q 1038 -1538 703 -1538 
Q 541 -1538 422 -1520 
Q 303 -1503 219 -1484 
L 219 -728 
Q 284 -744 384 -756 
Q 484 -769 594 -769 
Q 794 -769 937 -684 
Q 1081 -600 1178 -458 
Q 1275 -316 1331 -147 
L 1388 25 
L 0 3494 
z
" transform="scale(0.015625)"/>
     </defs>
     <use xlink:href="#OpenSans-Bold-50"/>
     <use xlink:href="#OpenSans-Bold-72" x="62.792969"/>
     <use xlink:href="#OpenSans-Bold-e1" x="108.203125"/>
     <use xlink:href="#OpenSans-Bold-63" x="168.603516"/>
     <use xlink:href="#OpenSans-Bold-74" x="220.019531"/>
     <use xlink:href="#OpenSans-Bold-69" x="263.427734"/>
     <use xlink:href="#OpenSans-Bold-63" x="293.945312"/>
     <use xlink:href="#OpenSans-Bold-61" x="345.361328"/>
     <use xlink:href="#OpenSans-Bold-73" x="405.761719"/>
     <use xlink:href="#OpenSans-Bold-20" x="455.46875"/>
     <use xlink:href="#OpenSans-Bold-79" x="481.445312"/>
     <use xlink:href="#OpenSans-Bold-20" x="538.330078"/>
     <use xlink:href="#OpenSans-Bold-70" x="564.306641"/>
     <use xlink:href="#OpenSans-Bold-72" x="627.587891"/>
     <use xlink:href="#OpenSans-Bold-6f" x="672.998047"/>
     <use xlink:href="#OpenSans-Bold-63" x="734.912109"/>
     <use xlink:href="#OpenSans-Bold-65" x="786.328125"/>
     <use xlink:href="#OpenSans-Bold-73" x="845.410156"/>
     <use xlink:href="#OpenSans-Bold-6f" x="895.117188"/>
     <use xlink:href="#OpenSans-Bold-73" x="957.03125"/>
    </g>
   </g>
  </g>
  <g id="axes_3">
   <g id="patch_16">
    <path d="M 583.836667 332.12 
L 853.2 332.12 
L 853.2 26.88 
L 583.836667 26.88 
z
" style="fill: #ffffff"/>
   </g>
   <g id="matplotlib.axis_5">
    <g id="xtick_9">
     <g id="line2d_45">
      <g>
       <use xlink:href="#m89ffdc3cb8" x="613.57158" y="332.12" style="fill: #37539c; stroke: #37539c; stroke-width: 0.8"/>
      </g>
     </g>
     <g id="text_29">
      <!-- 2019 -->
      <g style="fill: #37539c" transform="translate(602.137205 346.718437) scale(0.1 -0.1)">
       <use xlink:href="#OpenSans-Bold-32"/>
       <use xlink:href="#OpenSans-Bold-30" x="57.177734"/>
       <use xlink:href="#OpenSans-Bold-31" x="114.355469"/>
       <use xlink:href="#OpenSans-Bold-39" x="171.533203"/>
      </g>
     </g>
    </g>
    <g id="xtick_10">
     <g id="line2d_46">
      <g>
       <use xlink:href="#m89ffdc3cb8" x="683.536082" y="332.12" style="fill: #37539c; stroke: #37539c; stroke-width: 0.8"/>
      </g>
     </g>
     <g id="text_30">
      <!-- 2020 -->
      <g style="fill: #37539c" transform="translate(672.101707 346.718437) scale(0.1 -0.1)">
       <use xlink:href="#OpenSans-Bold-32"/>
       <use xlink:href="#OpenSans-Bold-30" x="57.177734"/>
       <use xlink:href="#OpenSans-Bold-32" x="114.355469"/>
       <use xlink:href="#OpenSans-Bold-30" x="171.533203"/>
      </g>
     </g>
    </g>
    <g id="xtick_11">
     <g id="line2d_47">
      <g>
       <use xlink:href="#m89ffdc3cb8" x="753.500584" y="332.12" style="fill: #37539c; stroke: #37539c; stroke-width: 0.8"/>
      </g>
     </g>
     <g id="text_31">
      <!-- 2021 -->
      <g style="fill: #37539c" transform="translate(742.066209 346.718437) scale(0.1 -0.1)">
       <use xlink:href="#OpenSans-Bold-32"/>
       <use xlink:href="#OpenSans-Bold-30" x="57.177734"/>
       <use xlink:href="#OpenSans-Bold-32" x="114.355469"/>
       <use xlink:href="#OpenSans-Bold-31" x="171.533203"/>
      </g>
     </g>
    </g>
    <g id="xtick_12">
     <g id="line2d_48">
      <g>
       <use xlink:href="#m89ffdc3cb8" x="823.465087" y="332.12" style="fill: #37539c; stroke: #37539c; stroke-width: 0.8"/>
      </g>
     </g>
     <g id="text_32">
      <!-- 2022 -->
      <g style="fill: #37539c" transform="translate(812.030712 346.718437) scale(0.1 -0.1)">
       <use xlink:href="#OpenSans-Bold-32"/>
       <use xlink:href="#OpenSans-Bold-30" x="57.177734"/>
       <use xlink:href="#OpenSans-Bold-32" x="114.355469"/>
       <use xlink:href="#OpenSans-Bold-32" x="171.533203"/>
      </g>
     </g>
    </g>
   </g>
   <g id="matplotlib.axis_6">
    <g id="ytick_19">
     <g id="line2d_49">
      <path d="M 583.836667 332.12 
L 853.2 332.12 
" clip-path="url(#pa99d3be5ba)" style="fill: none; stroke-dasharray: 2.96,1.28; stroke-dashoffset: 0; stroke: #b0b0b0; stroke-width: 0.8"/>
     </g>
     <g id="line2d_50">
      <g>
       <use xlink:href="#mca70532fbc" x="583.836667" y="332.12" style="fill: #37539c; stroke: #37539c; stroke-width: 0.8"/>
      </g>
     </g>
    </g>
    <g id="ytick_20">
     <g id="line2d_51">
      <path d="M 583.836667 293.965 
L 853.2 293.965 
" clip-path="url(#pa99d3be5ba)" style="fill: none; stroke-dasharray: 2.96,1.28; stroke-dashoffset: 0; stroke: #b0b0b0; stroke-width: 0.8"/>
     </g>
     <g id="line2d_52">
      <g>
       <use xlink:href="#mca70532fbc" x="583.836667" y="293.965" style="fill: #37539c; stroke: #37539c; stroke-width: 0.8"/>
      </g>
     </g>
    </g>
    <g id="ytick_21">
     <g id="line2d_53">
      <path d="M 583.836667 255.81 
L 853.2 255.81 
" clip-path="url(#pa99d3be5ba)" style="fill: none; stroke-dasharray: 2.96,1.28; stroke-dashoffset: 0; stroke: #b0b0b0; stroke-width: 0.8"/>
     </g>
     <g id="line2d_54">
      <g>
       <use xlink:href="#mca70532fbc" x="583.836667" y="255.81" style="fill: #37539c; stroke: #37539c; stroke-width: 0.8"/>
      </g>
     </g>
    </g>
    <g id="ytick_22">
     <g id="line2d_55">
      <path d="M 583.836667 217.655 
L 853.2 217.655 
" clip-path="url(#pa99d3be5ba)" style="fill: none; stroke-dasharray: 2.96,1.28; stroke-dashoffset: 0; stroke: #b0b0b0; stroke-width: 0.8"/>
     </g>
     <g id="line2d_56">
      <g>
       <use xlink:href="#mca70532fbc" x="583.836667" y="217.655" style="fill: #37539c; stroke: #37539c; stroke-width: 0.8"/>
      </g>
     </g>
    </g>
    <g id="ytick_23">
     <g id="line2d_57">
      <path d="M 583.836667 179.5 
L 853.2 179.5 
" clip-path="url(#pa99d3be5ba)" style="fill: none; stroke-dasharray: 2.96,1.28; stroke-dashoffset: 0; stroke: #b0b0b0; stroke-width: 0.8"/>
     </g>
     <g id="line2d_58">
      <g>
       <use xlink:href="#mca70532fbc" x="583.836667" y="179.5" style="fill: #37539c; stroke: #37539c; stroke-width: 0.8"/>
      </g>
     </g>
    </g>
    <g id="ytick_24">
     <g id="line2d_59">
      <path d="M 583.836667 141.345 
L 853.2 141.345 
" clip-path="url(#pa99d3be5ba)" style="fill: none; stroke-dasharray: 2.96,1.28; stroke-dashoffset: 0; stroke: #b0b0b0; stroke-width: 0.8"/>
     </g>
     <g id="line2d_60">
      <g>
       <use xlink:href="#mca70532fbc" x="583.836667" y="141.345" style="fill: #37539c; stroke: #37539c; stroke-width: 0.8"/>
      </g>
     </g>
    </g>
    <g id="ytick_25">
     <g id="line2d_61">
      <path d="M 583.836667 103.19 
L 853.2 103.19 
" clip-path="url(#pa99d3be5ba)" style="fill: none; stroke-dasharray: 2.96,1.28; stroke-dashoffset: 0; stroke: #b0b0b0; stroke-width: 0.8"/>
     </g>
     <g id="line2d_62">
      <g>
       <use xlink:href="#mca70532fbc" x="583.836667" y="103.19" style="fill: #37539c; stroke: #37539c; stroke-width: 0.8"/>
      </g>
     </g>
    </g>
    <g id="ytick_26">
     <g id="line2d_63">
      <path d="M 583.836667 65.035 
L 853.2 65.035 
" clip-path="url(#pa99d3be5ba)" style="fill: none; stroke-dasharray: 2.96,1.28; stroke-dashoffset: 0; stroke: #b0b0b0; stroke-width: 0.8"/>
     </g>
     <g id="line2d_64">
      <g>
       <use xlink:href="#mca70532fbc" x="583.836667" y="65.035" style="fill: #37539c; stroke: #37539c; stroke-width: 0.8"/>
      </g>
     </g>
    </g>
    <g id="ytick_27">
     <g id="line2d_65">
      <path d="M 583.836667 26.88 
L 853.2 26.88 
" clip-path="url(#pa99d3be5ba)" style="fill: none; stroke-dasharray: 2.96,1.28; stroke-dashoffset: 0; stroke: #b0b0b0; stroke-width: 0.8"/>
     </g>
     <g id="line2d_66">
      <g>
       <use xlink:href="#mca70532fbc" x="583.836667" y="26.88" style="fill: #37539c; stroke: #37539c; stroke-width: 0.8"/>
      </g>
     </g>
    </g>
   </g>
   <g id="patch_17">
    <path d="M 813.250269 331.81476 
L 833.679904 331.81476 
Q 840.676354 331.81476 840.676354 324.18376 
L 840.676354 80.60224 
Q 840.676354 72.97124 833.679904 72.97124 
L 813.250269 72.97124 
Q 806.253819 72.97124 806.253819 80.60224 
L 806.253819 324.18376 
Q 806.253819 331.81476 813.250269 331.81476 
z
" clip-path="url(#pa99d3be5ba)" style="fill: #f45b69"/>
   </g>
   <g id="patch_18">
    <path d="M 743.285767 331.81476 
L 763.715402 331.81476 
Q 770.711852 331.81476 770.711852 324.18376 
L 770.711852 107.31074 
Q 770.711852 99.67974 763.715402 99.67974 
L 743.285767 99.67974 
Q 736.289317 99.67974 736.289317 107.31074 
L 736.289317 324.18376 
Q 736.289317 331.81476 743.285767 331.81476 
z
" clip-path="url(#pa99d3be5ba)" style="fill: #f45b69"/>
   </g>
   <g id="patch_19">
    <path d="M 673.321265 331.81476 
L 693.7509 331.81476 
Q 700.74735 331.81476 700.74735 324.18376 
L 700.74735 51.98599 
Q 700.74735 44.35499 693.7509 44.35499 
L 673.321265 44.35499 
Q 666.324815 44.35499 666.324815 51.98599 
L 666.324815 324.18376 
Q 666.324815 331.81476 673.321265 331.81476 
z
" clip-path="url(#pa99d3be5ba)" style="fill: #f45b69"/>
   </g>
   <g id="patch_20">
    <path d="M 603.356763 331.81476 
L 623.786397 331.81476 
Q 630.782848 331.81476 630.782848 324.18376 
L 630.782848 122.57274 
Q 630.782848 114.94174 623.786397 114.94174 
L 603.356763 114.94174 
Q 596.360313 114.94174 596.360313 122.57274 
L 596.360313 324.18376 
Q 596.360313 331.81476 603.356763 331.81476 
z
" clip-path="url(#pa99d3be5ba)" style="fill: #f45b69"/>
   </g>
   <g id="patch_21">
    <path d="M 583.836667 332.12 
L 583.836667 26.88 
" style="fill: none; stroke: #000000; stroke-width: 0.8; stroke-linejoin: miter; stroke-linecap: square"/>
   </g>
   <g id="patch_22">
    <path d="M 583.836667 332.12 
L 853.2 332.12 
" style="fill: none; stroke: #000000; stroke-width: 0.8; stroke-linejoin: miter; stroke-linecap: square"/>
   </g>
   <g id="text_33">
    <!-- 11.4 -->
    <g style="fill: #37539c" transform="translate(603.570018 112.233375) scale(0.1 -0.1)">
     <use xlink:href="#OpenSans-Bold-31"/>
     <use xlink:href="#OpenSans-Bold-31" x="57.177734"/>
     <use xlink:href="#OpenSans-Bold-2e" x="114.355469"/>
     <use xlink:href="#OpenSans-Bold-34" x="142.871094"/>
    </g>
   </g>
   <g id="text_34">
    <!-- 15.1 -->
    <g style="fill: #37539c" transform="translate(673.53452 41.646625) scale(0.1 -0.1)">
     <defs>
      <path id="OpenSans-Bold-35" d="M 1919 2919 
Q 2338 2919 2664 2759 
Q 2991 2600 3178 2290 
Q 3366 1981 3366 1528 
Q 3366 1034 3161 676 
Q 2956 319 2551 128 
Q 2147 -63 1544 -63 
Q 1184 -63 867 -2 
Q 550 59 313 184 
L 313 1019 
Q 550 894 883 808 
Q 1216 722 1509 722 
Q 1797 722 1994 798 
Q 2191 875 2292 1036 
Q 2394 1197 2394 1447 
Q 2394 1781 2169 1959 
Q 1944 2138 1478 2138 
Q 1300 2138 1108 2103 
Q 916 2069 788 2034 
L 403 2241 
L 575 4569 
L 3053 4569 
L 3053 3750 
L 1422 3750 
L 1338 2853 
Q 1444 2875 1569 2897 
Q 1694 2919 1919 2919 
z
" transform="scale(0.015625)"/>
     </defs>
     <use xlink:href="#OpenSans-Bold-31"/>
     <use xlink:href="#OpenSans-Bold-35" x="57.177734"/>
     <use xlink:href="#OpenSans-Bold-2e" x="114.355469"/>
     <use xlink:href="#OpenSans-Bold-31" x="142.871094"/>
    </g>
   </g>
   <g id="text_35">
    <!-- 12.2 -->
    <g style="fill: #37539c" transform="translate(743.499022 96.971375) scale(0.1 -0.1)">
     <use xlink:href="#OpenSans-Bold-31"/>
     <use xlink:href="#OpenSans-Bold-32" x="57.177734"/>
     <use xlink:href="#OpenSans-Bold-2e" x="114.355469"/>
     <use xlink:href="#OpenSans-Bold-32" x="142.871094"/>
    </g>
   </g>
   <g id="text_36">
    <!-- 13.6 -->
    <g style="fill: #37539c" transform="translate(813.463524 70.262875) scale(0.1 -0.1)">
     <use xlink:href="#OpenSans-Bold-31"/>
     <use xlink:href="#OpenSans-Bold-33" x="57.177734"/>
     <use xlink:href="#OpenSans-Bold-2e" x="114.355469"/>
     <use xlink:href="#OpenSans-Bold-36" x="142.871094"/>
    </g>
   </g>
   <g id="text_37">
    <!-- Colaboración y apertura -->
    <g style="fill: #37539c" transform="translate(645.970833 20.88) scale(0.12 -0.12)">
     <defs>
      <path id="OpenSans-Bold-43" d="M 2516 3828 
Q 2238 3828 2023 3720 
Q 1809 3613 1664 3409 
Q 1519 3206 1444 2918 
Q 1369 2631 1369 2272 
Q 1369 1788 1489 1445 
Q 1609 1103 1862 923 
Q 2116 744 2516 744 
Q 2794 744 3073 806 
Q 3353 869 3681 984 
L 3681 172 
Q 3378 47 3084 -8 
Q 2791 -63 2425 -63 
Q 1719 -63 1264 229 
Q 809 522 590 1048 
Q 372 1575 372 2278 
Q 372 2797 512 3228 
Q 653 3659 925 3975 
Q 1197 4291 1597 4462 
Q 1997 4634 2516 4634 
Q 2856 4634 3198 4548 
Q 3541 4463 3853 4313 
L 3541 3525 
Q 3284 3647 3025 3737 
Q 2766 3828 2516 3828 
z
" transform="scale(0.015625)"/>
      <path id="OpenSans-Bold-62" d="M 1453 4863 
L 1453 3731 
Q 1453 3534 1442 3340 
Q 1431 3147 1416 3041 
L 1453 3041 
Q 1591 3256 1828 3407 
Q 2066 3559 2444 3559 
Q 3031 3559 3397 3100 
Q 3763 2641 3763 1753 
Q 3763 1156 3594 751 
Q 3425 347 3122 142 
Q 2819 -63 2419 -63 
Q 2034 -63 1812 75 
Q 1591 213 1453 384 
L 1388 384 
L 1228 0 
L 500 0 
L 500 4863 
L 1453 4863 
z
M 2138 2797 
Q 1888 2797 1741 2694 
Q 1594 2591 1526 2384 
Q 1459 2178 1453 1863 
L 1453 1759 
Q 1453 1250 1603 979 
Q 1753 709 2150 709 
Q 2444 709 2617 981 
Q 2791 1253 2791 1766 
Q 2791 2278 2616 2537 
Q 2441 2797 2138 2797 
z
" transform="scale(0.015625)"/>
      <path id="OpenSans-Bold-f3" d="M 3675 1753 
Q 3675 1316 3558 978 
Q 3441 641 3217 408 
Q 2994 175 2680 56 
Q 2366 -63 1972 -63 
Q 1603 -63 1295 56 
Q 988 175 761 408 
Q 534 641 411 978 
Q 288 1316 288 1753 
Q 288 2334 494 2737 
Q 700 3141 1081 3350 
Q 1463 3559 1991 3559 
Q 2481 3559 2861 3350 
Q 3241 3141 3458 2737 
Q 3675 2334 3675 1753 
z
M 1259 1753 
Q 1259 1409 1334 1175 
Q 1409 941 1568 822 
Q 1728 703 1984 703 
Q 2238 703 2395 822 
Q 2553 941 2626 1175 
Q 2700 1409 2700 1753 
Q 2700 2100 2626 2329 
Q 2553 2559 2393 2675 
Q 2234 2791 1978 2791 
Q 1600 2791 1429 2531 
Q 1259 2272 1259 1753 
z
M 3211 4903 
L 3211 4838 
Q 3121 4750 2974 4622 
Q 2827 4494 2658 4355 
Q 2490 4216 2327 4089 
Q 2165 3963 2043 3878 
L 1408 3878 
L 1408 3963 
Q 1511 4081 1647 4245 
Q 1783 4409 1917 4584 
Q 2052 4759 2143 4903 
L 3211 4903 
z
" transform="scale(0.015625)"/>
     </defs>
     <use xlink:href="#OpenSans-Bold-43"/>
     <use xlink:href="#OpenSans-Bold-6f" x="63.720703"/>
     <use xlink:href="#OpenSans-Bold-6c" x="125.634766"/>
     <use xlink:href="#OpenSans-Bold-61" x="156.152344"/>
     <use xlink:href="#OpenSans-Bold-62" x="216.552734"/>
     <use xlink:href="#OpenSans-Bold-6f" x="279.833984"/>
     <use xlink:href="#OpenSans-Bold-72" x="341.748047"/>
     <use xlink:href="#OpenSans-Bold-61" x="387.158203"/>
     <use xlink:href="#OpenSans-Bold-63" x="447.558594"/>
     <use xlink:href="#OpenSans-Bold-69" x="498.974609"/>
     <use xlink:href="#OpenSans-Bold-f3" x="529.492188"/>
     <use xlink:href="#OpenSans-Bold-6e" x="591.40625"/>
     <use xlink:href="#OpenSans-Bold-20" x="657.128906"/>
     <use xlink:href="#OpenSans-Bold-79" x="683.105469"/>
     <use xlink:href="#OpenSans-Bold-20" x="739.990234"/>
     <use xlink:href="#OpenSans-Bold-61" x="765.966797"/>
     <use xlink:href="#OpenSans-Bold-70" x="826.367188"/>
     <use xlink:href="#OpenSans-Bold-65" x="889.648438"/>
     <use xlink:href="#OpenSans-Bold-72" x="948.730469"/>
     <use xlink:href="#OpenSans-Bold-74" x="994.140625"/>
     <use xlink:href="#OpenSans-Bold-75" x="1037.548828"/>
     <use xlink:href="#OpenSans-Bold-72" x="1103.271484"/>
     <use xlink:href="#OpenSans-Bold-61" x="1148.681641"/>
    </g>
   </g>
  </g>
 </g>
 <defs>
  <clipPath id="p9713930d65">
   <rect x="45.11" y="26.88" width="269.363333" height="305.24"/>
  </clipPath>
  <clipPath id="p0836454903">
   <rect x="314.473333" y="26.88" width="269.363333" height="305.24"/>
  </clipPath>
  <clipPath id="pa99d3be5ba">
   <rect x="583.836667" y="26.88" width="269.363333" height="305.24"/>
  </clipPath>
 </defs>
</svg>
