<?xml version="1.0" encoding="utf-8" standalone="no"?>
<!DOCTYPE svg PUBLIC "-//W3C//DTD SVG 1.1//EN"
  "http://www.w3.org/Graphics/SVG/1.1/DTD/svg11.dtd">
<svg xmlns:xlink="http://www.w3.org/1999/xlink" width="864pt" height="360pt" viewBox="0 0 864 360" xmlns="http://www.w3.org/2000/svg" version="1.1">
 <metadata>
  <rdf:RDF xmlns:dc="http://purl.org/dc/elements/1.1/" xmlns:cc="http://creativecommons.org/ns#" xmlns:rdf="http://www.w3.org/1999/02/22-rdf-syntax-ns#">
   <cc:Work>
    <dc:type rdf:resource="http://purl.org/dc/dcmitype/StillImage"/>
    <dc:date>2024-02-22T18:19:14.386984</dc:date>
    <dc:format>image/svg+xml</dc:format>
    <dc:creator>
     <cc:Agent>
      <dc:title>Matplotlib v3.7.1, https://matplotlib.org/</dc:title>
     </cc:Agent>
    </dc:creator>
   </cc:Work>
  </rdf:RDF>
 </metadata>
 <defs>
  <style type="text/css">*{stroke-linejoin: round; stroke-linecap: butt}</style>
 </defs>
 <g id="figure_1">
  <g id="patch_1">
   <path d="M 0 360 
L 864 360 
L 864 0 
L 0 0 
z
" style="fill: #ffffff"/>
  </g>
  <g id="axes_1">
   <g id="patch_2">
    <path d="M 60.734 334.28 
L 192.811667 334.28 
L 192.811667 26.88 
L 60.734 26.88 
z
" style="fill: #ffffff"/>
   </g>
   <g id="matplotlib.axis_1">
    <g id="xtick_1">
     <g id="line2d_1">
      <defs>
       <path id="m115c2cbc24" d="M 0 0 
L 0 3.5 
" style="stroke: #37539c; stroke-width: 0.8"/>
      </defs>
      <g>
       <use xlink:href="#m115c2cbc24" x="87.149533" y="334.28" style="fill: #37539c; stroke: #37539c; stroke-width: 0.8"/>
      </g>
     </g>
     <g id="text_1">
      <!-- 2019 -->
      <g style="fill: #37539c" transform="translate(78.002033 347.35875) scale(0.08 -0.08)">
       <defs>
        <path id="OpenSans-Bold-32" d="M 3450 0 
L 256 0 
L 256 672 
L 1403 1831 
Q 1750 2188 1961 2427 
Q 2172 2666 2267 2862 
Q 2363 3059 2363 3284 
Q 2363 3556 2211 3692 
Q 2059 3828 1806 3828 
Q 1541 3828 1291 3706 
Q 1041 3584 769 3359 
L 244 3981 
Q 441 4150 661 4300 
Q 881 4450 1173 4542 
Q 1466 4634 1875 4634 
Q 2325 4634 2648 4471 
Q 2972 4309 3147 4029 
Q 3322 3750 3322 3397 
Q 3322 3019 3172 2706 
Q 3022 2394 2736 2087 
Q 2450 1781 2047 1409 
L 1459 856 
L 1459 813 
L 3450 813 
L 3450 0 
z
" transform="scale(0.015625)"/>
        <path id="OpenSans-Bold-30" d="M 3425 2284 
Q 3425 1731 3339 1297 
Q 3253 863 3064 559 
Q 2875 256 2569 96 
Q 2263 -63 1825 -63 
Q 1275 -63 922 217 
Q 569 497 400 1023 
Q 231 1550 231 2284 
Q 231 3025 386 3551 
Q 541 4078 891 4359 
Q 1241 4641 1825 4641 
Q 2372 4641 2726 4361 
Q 3081 4081 3253 3554 
Q 3425 3028 3425 2284 
z
M 1191 2284 
Q 1191 1763 1248 1414 
Q 1306 1066 1443 891 
Q 1581 716 1825 716 
Q 2066 716 2205 889 
Q 2344 1063 2403 1411 
Q 2463 1759 2463 2284 
Q 2463 2806 2403 3156 
Q 2344 3506 2205 3682 
Q 2066 3859 1825 3859 
Q 1581 3859 1443 3682 
Q 1306 3506 1248 3156 
Q 1191 2806 1191 2284 
z
" transform="scale(0.015625)"/>
        <path id="OpenSans-Bold-31" d="M 2644 0 
L 1678 0 
L 1678 2644 
Q 1678 2753 1681 2914 
Q 1684 3075 1690 3245 
Q 1697 3416 1703 3553 
Q 1669 3513 1564 3414 
Q 1459 3316 1369 3238 
L 844 2816 
L 378 3397 
L 1850 4569 
L 2644 4569 
L 2644 0 
z
" transform="scale(0.015625)"/>
        <path id="OpenSans-Bold-39" d="M 3431 2619 
Q 3431 2225 3373 1837 
Q 3316 1450 3172 1108 
Q 3028 766 2768 502 
Q 2509 238 2109 87 
Q 1709 -63 1141 -63 
Q 1006 -63 825 -52 
Q 644 -41 525 -19 
L 525 756 
Q 650 725 790 708 
Q 931 691 1075 691 
Q 1647 691 1958 872 
Q 2269 1053 2395 1375 
Q 2522 1697 2541 2119 
L 2503 2119 
Q 2413 1969 2289 1848 
Q 2166 1728 1975 1658 
Q 1784 1588 1491 1588 
Q 1100 1588 811 1758 
Q 522 1928 364 2251 
Q 206 2575 206 3034 
Q 206 3531 395 3886 
Q 584 4241 934 4431 
Q 1284 4622 1759 4622 
Q 2109 4622 2412 4501 
Q 2716 4381 2945 4134 
Q 3175 3888 3303 3509 
Q 3431 3131 3431 2619 
z
M 1778 3847 
Q 1497 3847 1319 3653 
Q 1141 3459 1141 3047 
Q 1141 2716 1294 2522 
Q 1447 2328 1759 2328 
Q 1975 2328 2134 2423 
Q 2294 2519 2383 2664 
Q 2472 2809 2472 2963 
Q 2472 3122 2428 3278 
Q 2384 3434 2296 3562 
Q 2209 3691 2079 3769 
Q 1950 3847 1778 3847 
z
" transform="scale(0.015625)"/>
       </defs>
       <use xlink:href="#OpenSans-Bold-32"/>
       <use xlink:href="#OpenSans-Bold-30" x="57.177734"/>
       <use xlink:href="#OpenSans-Bold-31" x="114.355469"/>
       <use xlink:href="#OpenSans-Bold-39" x="171.533203"/>
      </g>
     </g>
    </g>
    <g id="xtick_2">
     <g id="line2d_2">
      <g>
       <use xlink:href="#m115c2cbc24" x="113.565067" y="334.28" style="fill: #37539c; stroke: #37539c; stroke-width: 0.8"/>
      </g>
     </g>
     <g id="text_2">
      <!-- 2020 -->
      <g style="fill: #37539c" transform="translate(104.417567 347.35875) scale(0.08 -0.08)">
       <use xlink:href="#OpenSans-Bold-32"/>
       <use xlink:href="#OpenSans-Bold-30" x="57.177734"/>
       <use xlink:href="#OpenSans-Bold-32" x="114.355469"/>
       <use xlink:href="#OpenSans-Bold-30" x="171.533203"/>
      </g>
     </g>
    </g>
    <g id="xtick_3">
     <g id="line2d_3">
      <g>
       <use xlink:href="#m115c2cbc24" x="139.9806" y="334.28" style="fill: #37539c; stroke: #37539c; stroke-width: 0.8"/>
      </g>
     </g>
     <g id="text_3">
      <!-- 2021 -->
      <g style="fill: #37539c" transform="translate(130.8331 347.35875) scale(0.08 -0.08)">
       <use xlink:href="#OpenSans-Bold-32"/>
       <use xlink:href="#OpenSans-Bold-30" x="57.177734"/>
       <use xlink:href="#OpenSans-Bold-32" x="114.355469"/>
       <use xlink:href="#OpenSans-Bold-31" x="171.533203"/>
      </g>
     </g>
    </g>
    <g id="xtick_4">
     <g id="line2d_4">
      <g>
       <use xlink:href="#m115c2cbc24" x="166.396133" y="334.28" style="fill: #37539c; stroke: #37539c; stroke-width: 0.8"/>
      </g>
     </g>
     <g id="text_4">
      <!-- 2022 -->
      <g style="fill: #37539c" transform="translate(157.248633 347.35875) scale(0.08 -0.08)">
       <use xlink:href="#OpenSans-Bold-32"/>
       <use xlink:href="#OpenSans-Bold-30" x="57.177734"/>
       <use xlink:href="#OpenSans-Bold-32" x="114.355469"/>
       <use xlink:href="#OpenSans-Bold-32" x="171.533203"/>
      </g>
     </g>
    </g>
   </g>
   <g id="matplotlib.axis_2">
    <g id="ytick_1">
     <g id="line2d_5">
      <path d="M 60.734 334.28 
L 192.811667 334.28 
" clip-path="url(#p110e356d84)" style="fill: none; stroke-dasharray: 2.96,1.28; stroke-dashoffset: 0; stroke: #b0b0b0; stroke-width: 0.8"/>
     </g>
     <g id="line2d_6">
      <defs>
       <path id="m08e9739947" d="M 0 0 
L -3.5 0 
" style="stroke: #37539c; stroke-width: 0.8"/>
      </defs>
      <g>
       <use xlink:href="#m08e9739947" x="60.734" y="334.28" style="fill: #37539c; stroke: #37539c; stroke-width: 0.8"/>
      </g>
     </g>
     <g id="text_5">
      <!-- 0 -->
      <g style="fill: #37539c" transform="translate(48.016813 338.079219) scale(0.1 -0.1)">
       <use xlink:href="#OpenSans-Bold-30"/>
      </g>
     </g>
    </g>
    <g id="ytick_2">
     <g id="line2d_7">
      <path d="M 60.734 272.8 
L 192.811667 272.8 
" clip-path="url(#p110e356d84)" style="fill: none; stroke-dasharray: 2.96,1.28; stroke-dashoffset: 0; stroke: #b0b0b0; stroke-width: 0.8"/>
     </g>
     <g id="line2d_8">
      <g>
       <use xlink:href="#m08e9739947" x="60.734" y="272.8" style="fill: #37539c; stroke: #37539c; stroke-width: 0.8"/>
      </g>
     </g>
     <g id="text_6">
      <!-- 20 -->
      <g style="fill: #37539c" transform="translate(42.299625 276.599219) scale(0.1 -0.1)">
       <use xlink:href="#OpenSans-Bold-32"/>
       <use xlink:href="#OpenSans-Bold-30" x="57.177734"/>
      </g>
     </g>
    </g>
    <g id="ytick_3">
     <g id="line2d_9">
      <path d="M 60.734 211.32 
L 192.811667 211.32 
" clip-path="url(#p110e356d84)" style="fill: none; stroke-dasharray: 2.96,1.28; stroke-dashoffset: 0; stroke: #b0b0b0; stroke-width: 0.8"/>
     </g>
     <g id="line2d_10">
      <g>
       <use xlink:href="#m08e9739947" x="60.734" y="211.32" style="fill: #37539c; stroke: #37539c; stroke-width: 0.8"/>
      </g>
     </g>
     <g id="text_7">
      <!-- 40 -->
      <g style="fill: #37539c" transform="translate(42.299625 215.119219) scale(0.1 -0.1)">
       <defs>
        <path id="OpenSans-Bold-34" d="M 3553 947 
L 3003 947 
L 3003 0 
L 2059 0 
L 2059 947 
L 109 947 
L 109 1619 
L 2113 4569 
L 3003 4569 
L 3003 1697 
L 3553 1697 
L 3553 947 
z
M 2059 1697 
L 2059 2472 
Q 2059 2581 2064 2731 
Q 2069 2881 2075 3031 
Q 2081 3181 2089 3298 
Q 2097 3416 2100 3463 
L 2075 3463 
Q 2016 3334 1950 3214 
Q 1884 3094 1797 2963 
L 959 1697 
L 2059 1697 
z
" transform="scale(0.015625)"/>
       </defs>
       <use xlink:href="#OpenSans-Bold-34"/>
       <use xlink:href="#OpenSans-Bold-30" x="57.177734"/>
      </g>
     </g>
    </g>
    <g id="ytick_4">
     <g id="line2d_11">
      <path d="M 60.734 149.84 
L 192.811667 149.84 
" clip-path="url(#p110e356d84)" style="fill: none; stroke-dasharray: 2.96,1.28; stroke-dashoffset: 0; stroke: #b0b0b0; stroke-width: 0.8"/>
     </g>
     <g id="line2d_12">
      <g>
       <use xlink:href="#m08e9739947" x="60.734" y="149.84" style="fill: #37539c; stroke: #37539c; stroke-width: 0.8"/>
      </g>
     </g>
     <g id="text_8">
      <!-- 60 -->
      <g style="fill: #37539c" transform="translate(42.299625 153.639219) scale(0.1 -0.1)">
       <defs>
        <path id="OpenSans-Bold-36" d="M 225 1941 
Q 225 2334 283 2720 
Q 341 3106 484 3448 
Q 628 3791 887 4055 
Q 1147 4319 1547 4470 
Q 1947 4622 2516 4622 
Q 2650 4622 2829 4611 
Q 3009 4600 3128 4575 
L 3128 3803 
Q 3003 3831 2861 3848 
Q 2719 3866 2578 3866 
Q 2009 3866 1698 3684 
Q 1388 3503 1261 3183 
Q 1134 2863 1113 2438 
L 1153 2438 
Q 1241 2591 1373 2709 
Q 1506 2828 1697 2898 
Q 1888 2969 2144 2969 
Q 2544 2969 2837 2798 
Q 3131 2628 3290 2306 
Q 3450 1984 3450 1522 
Q 3450 1028 3259 672 
Q 3069 316 2720 126 
Q 2372 -63 1894 -63 
Q 1544 -63 1241 57 
Q 938 178 709 425 
Q 481 672 353 1048 
Q 225 1425 225 1941 
z
M 1875 709 
Q 2159 709 2337 903 
Q 2516 1097 2516 1509 
Q 2516 1844 2361 2036 
Q 2206 2228 1894 2228 
Q 1681 2228 1520 2133 
Q 1359 2038 1271 1892 
Q 1184 1747 1184 1594 
Q 1184 1434 1228 1278 
Q 1272 1122 1359 994 
Q 1447 866 1576 787 
Q 1706 709 1875 709 
z
" transform="scale(0.015625)"/>
       </defs>
       <use xlink:href="#OpenSans-Bold-36"/>
       <use xlink:href="#OpenSans-Bold-30" x="57.177734"/>
      </g>
     </g>
    </g>
    <g id="ytick_5">
     <g id="line2d_13">
      <path d="M 60.734 88.36 
L 192.811667 88.36 
" clip-path="url(#p110e356d84)" style="fill: none; stroke-dasharray: 2.96,1.28; stroke-dashoffset: 0; stroke: #b0b0b0; stroke-width: 0.8"/>
     </g>
     <g id="line2d_14">
      <g>
       <use xlink:href="#m08e9739947" x="60.734" y="88.36" style="fill: #37539c; stroke: #37539c; stroke-width: 0.8"/>
      </g>
     </g>
     <g id="text_9">
      <!-- 80 -->
      <g style="fill: #37539c" transform="translate(42.299625 92.159219) scale(0.1 -0.1)">
       <defs>
        <path id="OpenSans-Bold-38" d="M 1831 4628 
Q 2225 4628 2558 4506 
Q 2891 4384 3091 4139 
Q 3291 3894 3291 3525 
Q 3291 3250 3183 3044 
Q 3075 2838 2890 2683 
Q 2706 2528 2472 2413 
Q 2716 2284 2934 2114 
Q 3153 1944 3292 1716 
Q 3431 1488 3431 1184 
Q 3431 803 3228 523 
Q 3025 244 2665 90 
Q 2306 -63 1831 -63 
Q 1319 -63 959 84 
Q 600 231 412 504 
Q 225 778 225 1159 
Q 225 1472 342 1703 
Q 459 1934 659 2101 
Q 859 2269 1100 2388 
Q 897 2516 730 2678 
Q 563 2841 464 3050 
Q 366 3259 366 3531 
Q 366 3894 570 4137 
Q 775 4381 1109 4504 
Q 1444 4628 1831 4628 
z
M 1119 1216 
Q 1119 969 1295 808 
Q 1472 647 1819 647 
Q 2178 647 2356 801 
Q 2534 956 2534 1209 
Q 2534 1384 2432 1515 
Q 2331 1647 2178 1751 
Q 2025 1856 1869 1947 
L 1784 1991 
Q 1584 1900 1436 1787 
Q 1288 1675 1203 1534 
Q 1119 1394 1119 1216 
z
M 1825 3922 
Q 1588 3922 1431 3800 
Q 1275 3678 1275 3456 
Q 1275 3300 1351 3183 
Q 1428 3066 1554 2978 
Q 1681 2891 1831 2816 
Q 1975 2884 2100 2968 
Q 2225 3053 2303 3172 
Q 2381 3291 2381 3456 
Q 2381 3678 2223 3800 
Q 2066 3922 1825 3922 
z
" transform="scale(0.015625)"/>
       </defs>
       <use xlink:href="#OpenSans-Bold-38"/>
       <use xlink:href="#OpenSans-Bold-30" x="57.177734"/>
      </g>
     </g>
    </g>
    <g id="ytick_6">
     <g id="line2d_15">
      <path d="M 60.734 26.88 
L 192.811667 26.88 
" clip-path="url(#p110e356d84)" style="fill: none; stroke-dasharray: 2.96,1.28; stroke-dashoffset: 0; stroke: #b0b0b0; stroke-width: 0.8"/>
     </g>
     <g id="line2d_16">
      <g>
       <use xlink:href="#m08e9739947" x="60.734" y="26.88" style="fill: #37539c; stroke: #37539c; stroke-width: 0.8"/>
      </g>
     </g>
     <g id="text_10">
      <!-- 100 -->
      <g style="fill: #37539c" transform="translate(36.582437 30.679219) scale(0.1 -0.1)">
       <use xlink:href="#OpenSans-Bold-31"/>
       <use xlink:href="#OpenSans-Bold-30" x="57.177734"/>
       <use xlink:href="#OpenSans-Bold-30" x="114.355469"/>
      </g>
     </g>
    </g>
    <g id="text_11">
     <!-- Porcentaje de madurez metodológica -->
     <g style="fill: #37539c" transform="translate(18.658062 273.58) rotate(-90) scale(0.1 -0.1)">
      <defs>
       <path id="OpenSans-Bold-50" d="M 2034 4569 
Q 2919 4569 3325 4189 
Q 3731 3809 3731 3144 
Q 3731 2844 3640 2570 
Q 3550 2297 3345 2084 
Q 3141 1872 2800 1748 
Q 2459 1625 1959 1625 
L 1544 1625 
L 1544 0 
L 575 0 
L 575 4569 
L 2034 4569 
z
M 1984 3775 
L 1544 3775 
L 1544 2419 
L 1863 2419 
Q 2134 2419 2334 2491 
Q 2534 2563 2643 2716 
Q 2753 2869 2753 3109 
Q 2753 3447 2565 3611 
Q 2378 3775 1984 3775 
z
" transform="scale(0.015625)"/>
       <path id="OpenSans-Bold-6f" d="M 3675 1753 
Q 3675 1316 3558 978 
Q 3441 641 3217 408 
Q 2994 175 2680 56 
Q 2366 -63 1972 -63 
Q 1603 -63 1295 56 
Q 988 175 761 408 
Q 534 641 411 978 
Q 288 1316 288 1753 
Q 288 2334 494 2737 
Q 700 3141 1081 3350 
Q 1463 3559 1991 3559 
Q 2481 3559 2861 3350 
Q 3241 3141 3458 2737 
Q 3675 2334 3675 1753 
z
M 1259 1753 
Q 1259 1409 1334 1175 
Q 1409 941 1568 822 
Q 1728 703 1984 703 
Q 2238 703 2395 822 
Q 2553 941 2626 1175 
Q 2700 1409 2700 1753 
Q 2700 2100 2626 2329 
Q 2553 2559 2393 2675 
Q 2234 2791 1978 2791 
Q 1600 2791 1429 2531 
Q 1259 2272 1259 1753 
z
" transform="scale(0.015625)"/>
       <path id="OpenSans-Bold-72" d="M 2450 3559 
Q 2522 3559 2617 3551 
Q 2713 3544 2772 3531 
L 2700 2638 
Q 2653 2653 2567 2661 
Q 2481 2669 2419 2669 
Q 2234 2669 2061 2622 
Q 1888 2575 1750 2470 
Q 1613 2366 1533 2195 
Q 1453 2025 1453 1778 
L 1453 0 
L 500 0 
L 500 3494 
L 1222 3494 
L 1363 2906 
L 1409 2906 
Q 1513 3084 1667 3232 
Q 1822 3381 2020 3470 
Q 2219 3559 2450 3559 
z
" transform="scale(0.015625)"/>
       <path id="OpenSans-Bold-63" d="M 1919 -63 
Q 1400 -63 1034 126 
Q 669 316 478 712 
Q 288 1109 288 1728 
Q 288 2369 505 2773 
Q 722 3178 1108 3368 
Q 1494 3559 2003 3559 
Q 2366 3559 2630 3489 
Q 2894 3419 3091 3322 
L 2809 2584 
Q 2584 2675 2390 2733 
Q 2197 2791 2003 2791 
Q 1753 2791 1587 2673 
Q 1422 2556 1340 2322 
Q 1259 2088 1259 1734 
Q 1259 1388 1346 1159 
Q 1434 931 1600 820 
Q 1766 709 2003 709 
Q 2300 709 2531 789 
Q 2763 869 2981 1013 
L 2981 197 
Q 2763 59 2523 -2 
Q 2284 -63 1919 -63 
z
" transform="scale(0.015625)"/>
       <path id="OpenSans-Bold-65" d="M 1941 3559 
Q 2425 3559 2775 3373 
Q 3125 3188 3315 2834 
Q 3506 2481 3506 1972 
L 3506 1509 
L 1253 1509 
Q 1269 1106 1495 876 
Q 1722 647 2125 647 
Q 2459 647 2737 715 
Q 3016 784 3309 922 
L 3309 184 
Q 3050 56 2767 -3 
Q 2484 -63 2081 -63 
Q 1556 -63 1151 131 
Q 747 325 517 722 
Q 288 1119 288 1722 
Q 288 2334 495 2742 
Q 703 3150 1075 3354 
Q 1447 3559 1941 3559 
z
M 1947 2881 
Q 1669 2881 1486 2703 
Q 1303 2525 1275 2144 
L 2613 2144 
Q 2609 2356 2536 2522 
Q 2463 2688 2317 2784 
Q 2172 2881 1947 2881 
z
" transform="scale(0.015625)"/>
       <path id="OpenSans-Bold-6e" d="M 2484 3559 
Q 3044 3559 3384 3254 
Q 3725 2950 3725 2278 
L 3725 0 
L 2772 0 
L 2772 2041 
Q 2772 2416 2636 2606 
Q 2500 2797 2209 2797 
Q 1772 2797 1612 2500 
Q 1453 2203 1453 1644 
L 1453 0 
L 500 0 
L 500 3494 
L 1228 3494 
L 1356 3047 
L 1409 3047 
Q 1522 3228 1689 3340 
Q 1856 3453 2061 3506 
Q 2266 3559 2484 3559 
z
" transform="scale(0.015625)"/>
       <path id="OpenSans-Bold-74" d="M 1972 697 
Q 2128 697 2276 728 
Q 2425 759 2572 806 
L 2572 97 
Q 2419 28 2192 -17 
Q 1966 -63 1697 -63 
Q 1384 -63 1136 39 
Q 888 141 745 392 
Q 603 644 603 1094 
L 603 2778 
L 147 2778 
L 147 3181 
L 672 3500 
L 947 4238 
L 1556 4238 
L 1556 3494 
L 2534 3494 
L 2534 2778 
L 1556 2778 
L 1556 1094 
Q 1556 894 1670 795 
Q 1784 697 1972 697 
z
" transform="scale(0.015625)"/>
       <path id="OpenSans-Bold-61" d="M 1931 3566 
Q 2634 3566 3009 3259 
Q 3384 2953 3384 2328 
L 3384 0 
L 2719 0 
L 2534 475 
L 2509 475 
Q 2359 288 2203 169 
Q 2047 50 1844 -6 
Q 1641 -63 1350 -63 
Q 1041 -63 795 56 
Q 550 175 409 420 
Q 269 666 269 1044 
Q 269 1600 659 1864 
Q 1050 2128 1831 2156 
L 2438 2175 
L 2438 2328 
Q 2438 2603 2294 2731 
Q 2150 2859 1894 2859 
Q 1641 2859 1397 2787 
Q 1153 2716 909 2606 
L 594 3250 
Q 872 3397 1217 3481 
Q 1563 3566 1931 3566 
z
M 2438 1619 
L 2069 1606 
Q 1606 1594 1426 1441 
Q 1247 1288 1247 1038 
Q 1247 819 1375 726 
Q 1503 634 1709 634 
Q 2016 634 2227 815 
Q 2438 997 2438 1331 
L 2438 1619 
z
" transform="scale(0.015625)"/>
       <path id="OpenSans-Bold-6a" d="M 219 -1538 
Q 56 -1538 -119 -1514 
Q -294 -1491 -409 -1459 
L -409 -709 
Q -294 -741 -192 -755 
Q -91 -769 38 -769 
Q 231 -769 365 -661 
Q 500 -553 500 -238 
L 500 3494 
L 1453 3494 
L 1453 -378 
Q 1453 -697 1331 -961 
Q 1209 -1225 937 -1381 
Q 666 -1538 219 -1538 
z
M 459 4397 
Q 459 4666 611 4764 
Q 763 4863 978 4863 
Q 1191 4863 1344 4764 
Q 1497 4666 1497 4397 
Q 1497 4131 1344 4029 
Q 1191 3928 978 3928 
Q 763 3928 611 4029 
Q 459 4131 459 4397 
z
" transform="scale(0.015625)"/>
       <path id="OpenSans-Bold-20" transform="scale(0.015625)"/>
       <path id="OpenSans-Bold-64" d="M 1606 -63 
Q 1022 -63 655 395 
Q 288 853 288 1741 
Q 288 2638 659 3098 
Q 1031 3559 1631 3559 
Q 1881 3559 2072 3490 
Q 2263 3422 2402 3306 
Q 2541 3191 2638 3047 
L 2669 3047 
Q 2650 3147 2623 3342 
Q 2597 3538 2597 3744 
L 2597 4863 
L 3553 4863 
L 3553 0 
L 2822 0 
L 2638 453 
L 2597 453 
Q 2506 309 2370 192 
Q 2234 75 2046 6 
Q 1859 -63 1606 -63 
z
M 1941 697 
Q 2331 697 2492 930 
Q 2653 1163 2663 1631 
L 2663 1734 
Q 2663 2244 2506 2514 
Q 2350 2784 1925 2784 
Q 1609 2784 1431 2512 
Q 1253 2241 1253 1728 
Q 1253 1216 1433 956 
Q 1613 697 1941 697 
z
" transform="scale(0.015625)"/>
       <path id="OpenSans-Bold-6d" d="M 4603 3559 
Q 5197 3559 5501 3254 
Q 5806 2950 5806 2278 
L 5806 0 
L 4850 0 
L 4850 2041 
Q 4850 2416 4722 2606 
Q 4594 2797 4325 2797 
Q 3947 2797 3787 2526 
Q 3628 2256 3628 1753 
L 3628 0 
L 2675 0 
L 2675 2041 
Q 2675 2291 2619 2459 
Q 2563 2628 2447 2712 
Q 2331 2797 2150 2797 
Q 1884 2797 1732 2664 
Q 1581 2531 1517 2273 
Q 1453 2016 1453 1644 
L 1453 0 
L 500 0 
L 500 3494 
L 1228 3494 
L 1356 3047 
L 1409 3047 
Q 1516 3228 1677 3340 
Q 1838 3453 2031 3506 
Q 2225 3559 2425 3559 
Q 2809 3559 3076 3434 
Q 3344 3309 3488 3047 
L 3572 3047 
Q 3728 3316 4014 3437 
Q 4300 3559 4603 3559 
z
" transform="scale(0.015625)"/>
       <path id="OpenSans-Bold-75" d="M 3706 3494 
L 3706 0 
L 2975 0 
L 2847 447 
L 2797 447 
Q 2684 269 2515 156 
Q 2347 44 2144 -9 
Q 1941 -63 1722 -63 
Q 1347 -63 1069 70 
Q 791 203 636 484 
Q 481 766 481 1216 
L 481 3494 
L 1434 3494 
L 1434 1453 
Q 1434 1078 1568 887 
Q 1703 697 1997 697 
Q 2288 697 2453 830 
Q 2619 963 2686 1220 
Q 2753 1478 2753 1850 
L 2753 3494 
L 3706 3494 
z
" transform="scale(0.015625)"/>
       <path id="OpenSans-Bold-7a" d="M 2931 0 
L 172 0 
L 172 563 
L 1791 2766 
L 269 2766 
L 269 3494 
L 2875 3494 
L 2875 2875 
L 1300 728 
L 2931 728 
L 2931 0 
z
" transform="scale(0.015625)"/>
       <path id="OpenSans-Bold-6c" d="M 1453 0 
L 500 0 
L 500 4863 
L 1453 4863 
L 1453 0 
z
" transform="scale(0.015625)"/>
       <path id="OpenSans-Bold-f3" d="M 3675 1753 
Q 3675 1316 3558 978 
Q 3441 641 3217 408 
Q 2994 175 2680 56 
Q 2366 -63 1972 -63 
Q 1603 -63 1295 56 
Q 988 175 761 408 
Q 534 641 411 978 
Q 288 1316 288 1753 
Q 288 2334 494 2737 
Q 700 3141 1081 3350 
Q 1463 3559 1991 3559 
Q 2481 3559 2861 3350 
Q 3241 3141 3458 2737 
Q 3675 2334 3675 1753 
z
M 1259 1753 
Q 1259 1409 1334 1175 
Q 1409 941 1568 822 
Q 1728 703 1984 703 
Q 2238 703 2395 822 
Q 2553 941 2626 1175 
Q 2700 1409 2700 1753 
Q 2700 2100 2626 2329 
Q 2553 2559 2393 2675 
Q 2234 2791 1978 2791 
Q 1600 2791 1429 2531 
Q 1259 2272 1259 1753 
z
M 3211 4903 
L 3211 4838 
Q 3121 4750 2974 4622 
Q 2827 4494 2658 4355 
Q 2490 4216 2327 4089 
Q 2165 3963 2043 3878 
L 1408 3878 
L 1408 3963 
Q 1511 4081 1647 4245 
Q 1783 4409 1917 4584 
Q 2052 4759 2143 4903 
L 3211 4903 
z
" transform="scale(0.015625)"/>
       <path id="OpenSans-Bold-67" d="M 1522 -1538 
Q 791 -1538 405 -1283 
Q 19 -1028 19 -569 
Q 19 -253 216 -40 
Q 413 172 794 263 
Q 647 325 537 467 
Q 428 609 428 769 
Q 428 969 543 1101 
Q 659 1234 878 1363 
Q 603 1481 442 1743 
Q 281 2006 281 2363 
Q 281 2744 448 3011 
Q 616 3278 936 3418 
Q 1256 3559 1716 3559 
Q 1813 3559 1941 3546 
Q 2069 3534 2176 3518 
Q 2284 3503 2322 3494 
L 3541 3494 
L 3541 3009 
L 2994 2869 
Q 3069 2753 3106 2622 
Q 3144 2491 3144 2344 
Q 3144 1781 2751 1467 
Q 2359 1153 1663 1153 
Q 1497 1163 1350 1178 
Q 1278 1122 1240 1059 
Q 1203 997 1203 928 
Q 1203 859 1261 814 
Q 1319 769 1436 745 
Q 1553 722 1728 722 
L 2322 722 
Q 2897 722 3198 475 
Q 3500 228 3500 -250 
Q 3500 -863 2989 -1200 
Q 2478 -1538 1522 -1538 
z
M 1563 -916 
Q 1903 -916 2148 -852 
Q 2394 -788 2525 -670 
Q 2656 -553 2656 -391 
Q 2656 -259 2579 -182 
Q 2503 -106 2348 -75 
Q 2194 -44 1953 -44 
L 1459 -44 
Q 1284 -44 1145 -100 
Q 1006 -156 925 -257 
Q 844 -359 844 -494 
Q 844 -691 1033 -803 
Q 1222 -916 1563 -916 
z
M 1716 1734 
Q 1984 1734 2109 1900 
Q 2234 2066 2234 2350 
Q 2234 2666 2104 2823 
Q 1975 2981 1716 2981 
Q 1453 2981 1322 2823 
Q 1191 2666 1191 2350 
Q 1191 2066 1320 1900 
Q 1450 1734 1716 1734 
z
" transform="scale(0.015625)"/>
       <path id="OpenSans-Bold-69" d="M 1453 3494 
L 1453 0 
L 500 0 
L 500 3494 
L 1453 3494 
z
M 978 4863 
Q 1191 4863 1344 4764 
Q 1497 4666 1497 4397 
Q 1497 4131 1344 4029 
Q 1191 3928 978 3928 
Q 763 3928 611 4029 
Q 459 4131 459 4397 
Q 459 4666 611 4764 
Q 763 4863 978 4863 
z
" transform="scale(0.015625)"/>
      </defs>
      <use xlink:href="#OpenSans-Bold-50"/>
      <use xlink:href="#OpenSans-Bold-6f" x="62.792969"/>
      <use xlink:href="#OpenSans-Bold-72" x="124.707031"/>
      <use xlink:href="#OpenSans-Bold-63" x="170.117188"/>
      <use xlink:href="#OpenSans-Bold-65" x="221.533203"/>
      <use xlink:href="#OpenSans-Bold-6e" x="280.615234"/>
      <use xlink:href="#OpenSans-Bold-74" x="346.337891"/>
      <use xlink:href="#OpenSans-Bold-61" x="389.746094"/>
      <use xlink:href="#OpenSans-Bold-6a" x="450.146484"/>
      <use xlink:href="#OpenSans-Bold-65" x="480.664062"/>
      <use xlink:href="#OpenSans-Bold-20" x="539.746094"/>
      <use xlink:href="#OpenSans-Bold-64" x="565.722656"/>
      <use xlink:href="#OpenSans-Bold-65" x="629.003906"/>
      <use xlink:href="#OpenSans-Bold-20" x="688.085938"/>
      <use xlink:href="#OpenSans-Bold-6d" x="714.0625"/>
      <use xlink:href="#OpenSans-Bold-61" x="812.255859"/>
      <use xlink:href="#OpenSans-Bold-64" x="872.65625"/>
      <use xlink:href="#OpenSans-Bold-75" x="935.9375"/>
      <use xlink:href="#OpenSans-Bold-72" x="1001.660156"/>
      <use xlink:href="#OpenSans-Bold-65" x="1047.070312"/>
      <use xlink:href="#OpenSans-Bold-7a" x="1106.152344"/>
      <use xlink:href="#OpenSans-Bold-20" x="1154.931641"/>
      <use xlink:href="#OpenSans-Bold-6d" x="1180.908203"/>
      <use xlink:href="#OpenSans-Bold-65" x="1279.101562"/>
      <use xlink:href="#OpenSans-Bold-74" x="1338.183594"/>
      <use xlink:href="#OpenSans-Bold-6f" x="1381.591797"/>
      <use xlink:href="#OpenSans-Bold-64" x="1443.505859"/>
      <use xlink:href="#OpenSans-Bold-6f" x="1506.787109"/>
      <use xlink:href="#OpenSans-Bold-6c" x="1568.701172"/>
      <use xlink:href="#OpenSans-Bold-f3" x="1599.21875"/>
      <use xlink:href="#OpenSans-Bold-67" x="1661.132812"/>
      <use xlink:href="#OpenSans-Bold-69" x="1717.626953"/>
      <use xlink:href="#OpenSans-Bold-63" x="1748.144531"/>
      <use xlink:href="#OpenSans-Bold-61" x="1799.560547"/>
     </g>
     <!-- de las instituciones -->
     <g style="fill: #37539c" transform="translate(30.179312 228.694844) rotate(-90) scale(0.1 -0.1)">
      <defs>
       <path id="OpenSans-Bold-73" d="M 2938 1038 
Q 2938 681 2770 436 
Q 2603 191 2272 64 
Q 1941 -63 1447 -63 
Q 1081 -63 820 -16 
Q 559 31 294 141 
L 294 928 
Q 578 800 904 717 
Q 1231 634 1478 634 
Q 1756 634 1876 717 
Q 1997 800 1997 934 
Q 1997 1022 1948 1092 
Q 1900 1163 1740 1252 
Q 1581 1341 1241 1484 
Q 913 1622 702 1762 
Q 491 1903 389 2095 
Q 288 2288 288 2584 
Q 288 3069 664 3314 
Q 1041 3559 1672 3559 
Q 1997 3559 2292 3493 
Q 2588 3428 2900 3284 
L 2613 2597 
Q 2353 2709 2123 2781 
Q 1894 2853 1656 2853 
Q 1447 2853 1340 2797 
Q 1234 2741 1234 2625 
Q 1234 2541 1289 2475 
Q 1344 2409 1501 2329 
Q 1659 2250 1966 2125 
Q 2263 2003 2481 1870 
Q 2700 1738 2819 1542 
Q 2938 1347 2938 1038 
z
" transform="scale(0.015625)"/>
      </defs>
      <use xlink:href="#OpenSans-Bold-64"/>
      <use xlink:href="#OpenSans-Bold-65" x="63.28125"/>
      <use xlink:href="#OpenSans-Bold-20" x="122.363281"/>
      <use xlink:href="#OpenSans-Bold-6c" x="148.339844"/>
      <use xlink:href="#OpenSans-Bold-61" x="178.857422"/>
      <use xlink:href="#OpenSans-Bold-73" x="239.257812"/>
      <use xlink:href="#OpenSans-Bold-20" x="288.964844"/>
      <use xlink:href="#OpenSans-Bold-69" x="314.941406"/>
      <use xlink:href="#OpenSans-Bold-6e" x="345.458984"/>
      <use xlink:href="#OpenSans-Bold-73" x="411.181641"/>
      <use xlink:href="#OpenSans-Bold-74" x="460.888672"/>
      <use xlink:href="#OpenSans-Bold-69" x="504.296875"/>
      <use xlink:href="#OpenSans-Bold-74" x="534.814453"/>
      <use xlink:href="#OpenSans-Bold-75" x="578.222656"/>
      <use xlink:href="#OpenSans-Bold-63" x="643.945312"/>
      <use xlink:href="#OpenSans-Bold-69" x="695.361328"/>
      <use xlink:href="#OpenSans-Bold-6f" x="725.878906"/>
      <use xlink:href="#OpenSans-Bold-6e" x="787.792969"/>
      <use xlink:href="#OpenSans-Bold-65" x="853.515625"/>
      <use xlink:href="#OpenSans-Bold-73" x="912.597656"/>
     </g>
    </g>
   </g>
   <g id="patch_3">
    <path d="M 163.860242 334.230816 
L 168.932025 334.230816 
Q 171.573578 334.230816 171.573578 333.001216 
L 171.573578 129.600784 
Q 171.573578 128.371184 168.932025 128.371184 
L 163.860242 128.371184 
Q 161.218689 128.371184 161.218689 129.600784 
L 161.218689 333.001216 
Q 161.218689 334.230816 163.860242 334.230816 
z
" clip-path="url(#p110e356d84)" style="fill: #37539c"/>
   </g>
   <g id="patch_4">
    <path d="M 137.444709 334.230816 
L 142.516491 334.230816 
Q 145.158045 334.230816 145.158045 333.001216 
L 145.158045 108.082784 
Q 145.158045 106.853184 142.516491 106.853184 
L 137.444709 106.853184 
Q 134.803155 106.853184 134.803155 108.082784 
L 134.803155 333.001216 
Q 134.803155 334.230816 137.444709 334.230816 
z
" clip-path="url(#p110e356d84)" style="fill: #37539c"/>
   </g>
   <g id="patch_5">
    <path d="M 111.029175 334.230816 
L 116.100958 334.230816 
Q 118.742511 334.230816 118.742511 333.001216 
L 118.742511 92.712784 
Q 118.742511 91.483184 116.100958 91.483184 
L 111.029175 91.483184 
Q 108.387622 91.483184 108.387622 92.712784 
L 108.387622 333.001216 
Q 108.387622 334.230816 111.029175 334.230816 
z
" clip-path="url(#p110e356d84)" style="fill: #37539c"/>
   </g>
   <g id="patch_6">
    <path d="M 84.613642 334.230816 
L 89.685425 334.230816 
Q 92.326978 334.230816 92.326978 333.001216 
L 92.326978 49.676784 
Q 92.326978 48.447184 89.685425 48.447184 
L 84.613642 48.447184 
Q 81.972089 48.447184 81.972089 49.676784 
L 81.972089 333.001216 
Q 81.972089 334.230816 84.613642 334.230816 
z
" clip-path="url(#p110e356d84)" style="fill: #37539c"/>
   </g>
   <g id="patch_7">
    <path d="M 60.734 334.28 
L 60.734 26.88 
" style="fill: none; stroke: #000000; stroke-width: 0.8; stroke-linejoin: miter; stroke-linecap: square"/>
   </g>
   <g id="patch_8">
    <path d="M 60.734 334.28 
L 192.811667 334.28 
" style="fill: none; stroke: #000000; stroke-width: 0.8; stroke-linejoin: miter; stroke-linecap: square"/>
   </g>
   <g id="text_12">
    <!-- 93% -->
    <g style="fill: #37539c" transform="translate(76.927658 45.994875) scale(0.1 -0.1)">
     <defs>
      <path id="OpenSans-Bold-33" d="M 3272 3547 
Q 3272 3231 3140 3000 
Q 3009 2769 2786 2622 
Q 2563 2475 2284 2406 
L 2284 2388 
Q 2834 2319 3120 2050 
Q 3406 1781 3406 1331 
Q 3406 931 3211 615 
Q 3016 300 2609 118 
Q 2203 -63 1563 -63 
Q 1184 -63 857 -2 
Q 531 59 244 184 
L 244 1006 
Q 538 856 859 779 
Q 1181 703 1459 703 
Q 1978 703 2186 883 
Q 2394 1063 2394 1388 
Q 2394 1578 2297 1709 
Q 2200 1841 1961 1909 
Q 1722 1978 1294 1978 
L 947 1978 
L 947 2719 
L 1300 2719 
Q 1722 2719 1942 2798 
Q 2163 2878 2242 3017 
Q 2322 3156 2322 3334 
Q 2322 3578 2172 3715 
Q 2022 3853 1672 3853 
Q 1453 3853 1273 3798 
Q 1094 3744 950 3667 
Q 806 3591 697 3519 
L 250 4184 
Q 519 4378 880 4506 
Q 1241 4634 1741 4634 
Q 2447 4634 2859 4350 
Q 3272 4066 3272 3547 
z
" transform="scale(0.015625)"/>
      <path id="OpenSans-Bold-25" d="M 1275 4634 
Q 1813 4634 2091 4259 
Q 2369 3884 2369 3206 
Q 2369 2528 2106 2147 
Q 1844 1766 1275 1766 
Q 747 1766 472 2147 
Q 197 2528 197 3206 
Q 197 3884 455 4259 
Q 713 4634 1275 4634 
z
M 1281 3981 
Q 1128 3981 1056 3787 
Q 984 3594 984 3200 
Q 984 2806 1056 2609 
Q 1128 2413 1281 2413 
Q 1434 2413 1507 2608 
Q 1581 2803 1581 3200 
Q 1581 3594 1507 3787 
Q 1434 3981 1281 3981 
z
M 4519 4569 
L 1984 0 
L 1234 0 
L 3769 4569 
L 4519 4569 
z
M 4475 2809 
Q 5013 2809 5291 2434 
Q 5569 2059 5569 1381 
Q 5569 706 5306 325 
Q 5044 -56 4475 -56 
Q 3947 -56 3672 325 
Q 3397 706 3397 1381 
Q 3397 2059 3655 2434 
Q 3913 2809 4475 2809 
z
M 4481 2156 
Q 4328 2156 4256 1962 
Q 4184 1769 4184 1375 
Q 4184 981 4256 784 
Q 4328 588 4481 588 
Q 4634 588 4707 783 
Q 4781 978 4781 1375 
Q 4781 1769 4707 1962 
Q 4634 2156 4481 2156 
z
" transform="scale(0.015625)"/>
     </defs>
     <use xlink:href="#OpenSans-Bold-39"/>
     <use xlink:href="#OpenSans-Bold-33" x="57.177734"/>
     <use xlink:href="#OpenSans-Bold-25" x="114.355469"/>
    </g>
   </g>
   <g id="text_13">
    <!-- 79% -->
    <g style="fill: #37539c" transform="translate(103.343192 89.030875) scale(0.1 -0.1)">
     <defs>
      <path id="OpenSans-Bold-37" d="M 709 0 
L 2425 3756 
L 172 3756 
L 172 4569 
L 3450 4569 
L 3450 3963 
L 1722 0 
L 709 0 
z
" transform="scale(0.015625)"/>
     </defs>
     <use xlink:href="#OpenSans-Bold-37"/>
     <use xlink:href="#OpenSans-Bold-39" x="57.177734"/>
     <use xlink:href="#OpenSans-Bold-25" x="114.355469"/>
    </g>
   </g>
   <g id="text_14">
    <!-- 74% -->
    <g style="fill: #37539c" transform="translate(129.758725 104.400875) scale(0.1 -0.1)">
     <use xlink:href="#OpenSans-Bold-37"/>
     <use xlink:href="#OpenSans-Bold-34" x="57.177734"/>
     <use xlink:href="#OpenSans-Bold-25" x="114.355469"/>
    </g>
   </g>
   <g id="text_15">
    <!-- 67% -->
    <g style="fill: #37539c" transform="translate(156.174258 125.918875) scale(0.1 -0.1)">
     <use xlink:href="#OpenSans-Bold-36"/>
     <use xlink:href="#OpenSans-Bold-37" x="57.177734"/>
     <use xlink:href="#OpenSans-Bold-25" x="114.355469"/>
    </g>
   </g>
   <g id="text_16">
    <!-- Diseño -->
    <g style="fill: #37539c" transform="translate(106.314708 20.88) scale(0.12 -0.12)">
     <defs>
      <path id="OpenSans-Bold-44" d="M 4366 2328 
Q 4366 1556 4070 1039 
Q 3775 522 3215 261 
Q 2656 0 1869 0 
L 575 0 
L 575 4569 
L 2009 4569 
Q 2728 4569 3256 4314 
Q 3784 4059 4075 3561 
Q 4366 3063 4366 2328 
z
M 3359 2303 
Q 3359 2809 3211 3136 
Q 3063 3463 2773 3619 
Q 2484 3775 2059 3775 
L 1544 3775 
L 1544 800 
L 1959 800 
Q 2669 800 3014 1178 
Q 3359 1556 3359 2303 
z
" transform="scale(0.015625)"/>
      <path id="OpenSans-Bold-f1" d="M 2484 3559 
Q 3044 3559 3384 3254 
Q 3725 2950 3725 2278 
L 3725 0 
L 2772 0 
L 2772 2041 
Q 2772 2416 2636 2606 
Q 2500 2797 2209 2797 
Q 1772 2797 1612 2500 
Q 1453 2203 1453 1644 
L 1453 0 
L 500 0 
L 500 3494 
L 1228 3494 
L 1356 3047 
L 1409 3047 
Q 1522 3228 1689 3340 
Q 1856 3453 2061 3506 
Q 2266 3559 2484 3559 
z
M 808 3872 
Q 827 4122 899 4305 
Q 971 4488 1086 4605 
Q 1202 4722 1347 4780 
Q 1493 4838 1658 4838 
Q 1786 4838 1909 4789 
Q 2033 4741 2153 4675 
Q 2274 4609 2391 4561 
Q 2508 4513 2621 4513 
Q 2715 4513 2804 4595 
Q 2893 4678 2933 4844 
L 3399 4844 
Q 3361 4350 3117 4114 
Q 2874 3878 2549 3878 
Q 2421 3878 2297 3928 
Q 2174 3978 2053 4042 
Q 1933 4106 1817 4156 
Q 1702 4206 1590 4206 
Q 1493 4206 1404 4123 
Q 1315 4041 1274 3872 
L 808 3872 
z
" transform="scale(0.015625)"/>
     </defs>
     <use xlink:href="#OpenSans-Bold-44"/>
     <use xlink:href="#OpenSans-Bold-69" x="74.023438"/>
     <use xlink:href="#OpenSans-Bold-73" x="104.541016"/>
     <use xlink:href="#OpenSans-Bold-65" x="154.248047"/>
     <use xlink:href="#OpenSans-Bold-f1" x="213.330078"/>
     <use xlink:href="#OpenSans-Bold-6f" x="279.052734"/>
    </g>
   </g>
  </g>
  <g id="axes_2">
   <g id="patch_9">
    <path d="M 192.811667 334.28 
L 324.889333 334.28 
L 324.889333 26.88 
L 192.811667 26.88 
z
" style="fill: #ffffff"/>
   </g>
   <g id="matplotlib.axis_3">
    <g id="xtick_5">
     <g id="line2d_17">
      <g>
       <use xlink:href="#m115c2cbc24" x="219.2272" y="334.28" style="fill: #37539c; stroke: #37539c; stroke-width: 0.8"/>
      </g>
     </g>
     <g id="text_17">
      <!-- 2019 -->
      <g style="fill: #37539c" transform="translate(210.0797 347.35875) scale(0.08 -0.08)">
       <use xlink:href="#OpenSans-Bold-32"/>
       <use xlink:href="#OpenSans-Bold-30" x="57.177734"/>
       <use xlink:href="#OpenSans-Bold-31" x="114.355469"/>
       <use xlink:href="#OpenSans-Bold-39" x="171.533203"/>
      </g>
     </g>
    </g>
    <g id="xtick_6">
     <g id="line2d_18">
      <g>
       <use xlink:href="#m115c2cbc24" x="245.642733" y="334.28" style="fill: #37539c; stroke: #37539c; stroke-width: 0.8"/>
      </g>
     </g>
     <g id="text_18">
      <!-- 2020 -->
      <g style="fill: #37539c" transform="translate(236.495233 347.35875) scale(0.08 -0.08)">
       <use xlink:href="#OpenSans-Bold-32"/>
       <use xlink:href="#OpenSans-Bold-30" x="57.177734"/>
       <use xlink:href="#OpenSans-Bold-32" x="114.355469"/>
       <use xlink:href="#OpenSans-Bold-30" x="171.533203"/>
      </g>
     </g>
    </g>
    <g id="xtick_7">
     <g id="line2d_19">
      <g>
       <use xlink:href="#m115c2cbc24" x="272.058267" y="334.28" style="fill: #37539c; stroke: #37539c; stroke-width: 0.8"/>
      </g>
     </g>
     <g id="text_19">
      <!-- 2021 -->
      <g style="fill: #37539c" transform="translate(262.910767 347.35875) scale(0.08 -0.08)">
       <use xlink:href="#OpenSans-Bold-32"/>
       <use xlink:href="#OpenSans-Bold-30" x="57.177734"/>
       <use xlink:href="#OpenSans-Bold-32" x="114.355469"/>
       <use xlink:href="#OpenSans-Bold-31" x="171.533203"/>
      </g>
     </g>
    </g>
    <g id="xtick_8">
     <g id="line2d_20">
      <g>
       <use xlink:href="#m115c2cbc24" x="298.4738" y="334.28" style="fill: #37539c; stroke: #37539c; stroke-width: 0.8"/>
      </g>
     </g>
     <g id="text_20">
      <!-- 2022 -->
      <g style="fill: #37539c" transform="translate(289.3263 347.35875) scale(0.08 -0.08)">
       <use xlink:href="#OpenSans-Bold-32"/>
       <use xlink:href="#OpenSans-Bold-30" x="57.177734"/>
       <use xlink:href="#OpenSans-Bold-32" x="114.355469"/>
       <use xlink:href="#OpenSans-Bold-32" x="171.533203"/>
      </g>
     </g>
    </g>
   </g>
   <g id="matplotlib.axis_4">
    <g id="ytick_7">
     <g id="line2d_21">
      <path d="M 192.811667 334.28 
L 324.889333 334.28 
" clip-path="url(#p19d7803220)" style="fill: none; stroke-dasharray: 2.96,1.28; stroke-dashoffset: 0; stroke: #b0b0b0; stroke-width: 0.8"/>
     </g>
     <g id="line2d_22">
      <g>
       <use xlink:href="#m08e9739947" x="192.811667" y="334.28" style="fill: #37539c; stroke: #37539c; stroke-width: 0.8"/>
      </g>
     </g>
    </g>
    <g id="ytick_8">
     <g id="line2d_23">
      <path d="M 192.811667 272.8 
L 324.889333 272.8 
" clip-path="url(#p19d7803220)" style="fill: none; stroke-dasharray: 2.96,1.28; stroke-dashoffset: 0; stroke: #b0b0b0; stroke-width: 0.8"/>
     </g>
     <g id="line2d_24">
      <g>
       <use xlink:href="#m08e9739947" x="192.811667" y="272.8" style="fill: #37539c; stroke: #37539c; stroke-width: 0.8"/>
      </g>
     </g>
    </g>
    <g id="ytick_9">
     <g id="line2d_25">
      <path d="M 192.811667 211.32 
L 324.889333 211.32 
" clip-path="url(#p19d7803220)" style="fill: none; stroke-dasharray: 2.96,1.28; stroke-dashoffset: 0; stroke: #b0b0b0; stroke-width: 0.8"/>
     </g>
     <g id="line2d_26">
      <g>
       <use xlink:href="#m08e9739947" x="192.811667" y="211.32" style="fill: #37539c; stroke: #37539c; stroke-width: 0.8"/>
      </g>
     </g>
    </g>
    <g id="ytick_10">
     <g id="line2d_27">
      <path d="M 192.811667 149.84 
L 324.889333 149.84 
" clip-path="url(#p19d7803220)" style="fill: none; stroke-dasharray: 2.96,1.28; stroke-dashoffset: 0; stroke: #b0b0b0; stroke-width: 0.8"/>
     </g>
     <g id="line2d_28">
      <g>
       <use xlink:href="#m08e9739947" x="192.811667" y="149.84" style="fill: #37539c; stroke: #37539c; stroke-width: 0.8"/>
      </g>
     </g>
    </g>
    <g id="ytick_11">
     <g id="line2d_29">
      <path d="M 192.811667 88.36 
L 324.889333 88.36 
" clip-path="url(#p19d7803220)" style="fill: none; stroke-dasharray: 2.96,1.28; stroke-dashoffset: 0; stroke: #b0b0b0; stroke-width: 0.8"/>
     </g>
     <g id="line2d_30">
      <g>
       <use xlink:href="#m08e9739947" x="192.811667" y="88.36" style="fill: #37539c; stroke: #37539c; stroke-width: 0.8"/>
      </g>
     </g>
    </g>
    <g id="ytick_12">
     <g id="line2d_31">
      <path d="M 192.811667 26.88 
L 324.889333 26.88 
" clip-path="url(#p19d7803220)" style="fill: none; stroke-dasharray: 2.96,1.28; stroke-dashoffset: 0; stroke: #b0b0b0; stroke-width: 0.8"/>
     </g>
     <g id="line2d_32">
      <g>
       <use xlink:href="#m08e9739947" x="192.811667" y="26.88" style="fill: #37539c; stroke: #37539c; stroke-width: 0.8"/>
      </g>
     </g>
    </g>
   </g>
   <g id="patch_10">
    <path d="M 295.937909 334.230816 
L 301.009691 334.230816 
Q 303.651245 334.230816 303.651245 333.001216 
L 303.651245 157.266784 
Q 303.651245 156.037184 301.009691 156.037184 
L 295.937909 156.037184 
Q 293.296355 156.037184 293.296355 157.266784 
L 293.296355 333.001216 
Q 293.296355 334.230816 295.937909 334.230816 
z
" clip-path="url(#p19d7803220)" style="fill: #59c3c3"/>
   </g>
   <g id="patch_11">
    <path d="M 269.522375 334.230816 
L 274.594158 334.230816 
Q 277.235711 334.230816 277.235711 333.001216 
L 277.235711 194.154784 
Q 277.235711 192.925184 274.594158 192.925184 
L 269.522375 192.925184 
Q 266.880822 192.925184 266.880822 194.154784 
L 266.880822 333.001216 
Q 266.880822 334.230816 269.522375 334.230816 
z
" clip-path="url(#p19d7803220)" style="fill: #59c3c3"/>
   </g>
   <g id="patch_12">
    <path d="M 243.106842 334.230816 
L 248.178625 334.230816 
Q 250.820178 334.230816 250.820178 333.001216 
L 250.820178 194.154784 
Q 250.820178 192.925184 248.178625 192.925184 
L 243.106842 192.925184 
Q 240.465289 192.925184 240.465289 194.154784 
L 240.465289 333.001216 
Q 240.465289 334.230816 243.106842 334.230816 
z
" clip-path="url(#p19d7803220)" style="fill: #59c3c3"/>
   </g>
   <g id="patch_13">
    <path d="M 216.691309 334.230816 
L 221.763091 334.230816 
Q 224.404645 334.230816 224.404645 333.001216 
L 224.404645 184.932784 
Q 224.404645 183.703184 221.763091 183.703184 
L 216.691309 183.703184 
Q 214.049755 183.703184 214.049755 184.932784 
L 214.049755 333.001216 
Q 214.049755 334.230816 216.691309 334.230816 
z
" clip-path="url(#p19d7803220)" style="fill: #59c3c3"/>
   </g>
   <g id="patch_14">
    <path d="M 192.811667 334.28 
L 192.811667 26.88 
" style="fill: none; stroke: #000000; stroke-width: 0.8; stroke-linejoin: miter; stroke-linecap: square"/>
   </g>
   <g id="patch_15">
    <path d="M 192.811667 334.28 
L 324.889333 334.28 
" style="fill: none; stroke: #000000; stroke-width: 0.8; stroke-linejoin: miter; stroke-linecap: square"/>
   </g>
   <g id="text_21">
    <!-- 49% -->
    <g style="fill: #37539c" transform="translate(209.005325 181.250875) scale(0.1 -0.1)">
     <use xlink:href="#OpenSans-Bold-34"/>
     <use xlink:href="#OpenSans-Bold-39" x="57.177734"/>
     <use xlink:href="#OpenSans-Bold-25" x="114.355469"/>
    </g>
   </g>
   <g id="text_22">
    <!-- 46% -->
    <g style="fill: #37539c" transform="translate(235.420858 190.472875) scale(0.1 -0.1)">
     <use xlink:href="#OpenSans-Bold-34"/>
     <use xlink:href="#OpenSans-Bold-36" x="57.177734"/>
     <use xlink:href="#OpenSans-Bold-25" x="114.355469"/>
    </g>
   </g>
   <g id="text_23">
    <!-- 46% -->
    <g style="fill: #37539c" transform="translate(261.836392 190.472875) scale(0.1 -0.1)">
     <use xlink:href="#OpenSans-Bold-34"/>
     <use xlink:href="#OpenSans-Bold-36" x="57.177734"/>
     <use xlink:href="#OpenSans-Bold-25" x="114.355469"/>
    </g>
   </g>
   <g id="text_24">
    <!-- 58% -->
    <g style="fill: #37539c" transform="translate(288.251925 153.584875) scale(0.1 -0.1)">
     <defs>
      <path id="OpenSans-Bold-35" d="M 1919 2919 
Q 2338 2919 2664 2759 
Q 2991 2600 3178 2290 
Q 3366 1981 3366 1528 
Q 3366 1034 3161 676 
Q 2956 319 2551 128 
Q 2147 -63 1544 -63 
Q 1184 -63 867 -2 
Q 550 59 313 184 
L 313 1019 
Q 550 894 883 808 
Q 1216 722 1509 722 
Q 1797 722 1994 798 
Q 2191 875 2292 1036 
Q 2394 1197 2394 1447 
Q 2394 1781 2169 1959 
Q 1944 2138 1478 2138 
Q 1300 2138 1108 2103 
Q 916 2069 788 2034 
L 403 2241 
L 575 4569 
L 3053 4569 
L 3053 3750 
L 1422 3750 
L 1338 2853 
Q 1444 2875 1569 2897 
Q 1694 2919 1919 2919 
z
" transform="scale(0.015625)"/>
     </defs>
     <use xlink:href="#OpenSans-Bold-35"/>
     <use xlink:href="#OpenSans-Bold-38" x="57.177734"/>
     <use xlink:href="#OpenSans-Bold-25" x="114.355469"/>
    </g>
   </g>
   <g id="text_25">
    <!-- Prototipado -->
    <g style="fill: #37539c" transform="translate(222.954562 20.88) scale(0.12 -0.12)">
     <defs>
      <path id="OpenSans-Bold-70" d="M 2444 3559 
Q 3034 3559 3398 3100 
Q 3763 2641 3763 1753 
Q 3763 1159 3591 754 
Q 3419 350 3116 143 
Q 2813 -63 2419 -63 
Q 2166 -63 1984 1 
Q 1803 66 1675 167 
Q 1547 269 1453 384 
L 1403 384 
Q 1428 259 1440 128 
Q 1453 -3 1453 -128 
L 1453 -1538 
L 500 -1538 
L 500 3494 
L 1275 3494 
L 1409 3041 
L 1453 3041 
Q 1547 3181 1681 3300 
Q 1816 3419 2005 3489 
Q 2194 3559 2444 3559 
z
M 2138 2797 
Q 1888 2797 1741 2694 
Q 1594 2591 1526 2384 
Q 1459 2178 1453 1863 
L 1453 1759 
Q 1453 1422 1517 1187 
Q 1581 953 1732 831 
Q 1884 709 2150 709 
Q 2369 709 2509 831 
Q 2650 953 2720 1189 
Q 2791 1425 2791 1766 
Q 2791 2278 2631 2537 
Q 2472 2797 2138 2797 
z
" transform="scale(0.015625)"/>
     </defs>
     <use xlink:href="#OpenSans-Bold-50"/>
     <use xlink:href="#OpenSans-Bold-72" x="62.792969"/>
     <use xlink:href="#OpenSans-Bold-6f" x="108.203125"/>
     <use xlink:href="#OpenSans-Bold-74" x="170.117188"/>
     <use xlink:href="#OpenSans-Bold-6f" x="213.525391"/>
     <use xlink:href="#OpenSans-Bold-74" x="275.439453"/>
     <use xlink:href="#OpenSans-Bold-69" x="318.847656"/>
     <use xlink:href="#OpenSans-Bold-70" x="349.365234"/>
     <use xlink:href="#OpenSans-Bold-61" x="412.646484"/>
     <use xlink:href="#OpenSans-Bold-64" x="473.046875"/>
     <use xlink:href="#OpenSans-Bold-6f" x="536.328125"/>
    </g>
   </g>
  </g>
  <g id="axes_3">
   <g id="patch_16">
    <path d="M 324.889333 334.28 
L 456.967 334.28 
L 456.967 26.88 
L 324.889333 26.88 
z
" style="fill: #ffffff"/>
   </g>
   <g id="matplotlib.axis_5">
    <g id="xtick_9">
     <g id="line2d_33">
      <g>
       <use xlink:href="#m115c2cbc24" x="351.304867" y="334.28" style="fill: #37539c; stroke: #37539c; stroke-width: 0.8"/>
      </g>
     </g>
     <g id="text_26">
      <!-- 2019 -->
      <g style="fill: #37539c" transform="translate(342.157367 347.35875) scale(0.08 -0.08)">
       <use xlink:href="#OpenSans-Bold-32"/>
       <use xlink:href="#OpenSans-Bold-30" x="57.177734"/>
       <use xlink:href="#OpenSans-Bold-31" x="114.355469"/>
       <use xlink:href="#OpenSans-Bold-39" x="171.533203"/>
      </g>
     </g>
    </g>
    <g id="xtick_10">
     <g id="line2d_34">
      <g>
       <use xlink:href="#m115c2cbc24" x="377.7204" y="334.28" style="fill: #37539c; stroke: #37539c; stroke-width: 0.8"/>
      </g>
     </g>
     <g id="text_27">
      <!-- 2020 -->
      <g style="fill: #37539c" transform="translate(368.5729 347.35875) scale(0.08 -0.08)">
       <use xlink:href="#OpenSans-Bold-32"/>
       <use xlink:href="#OpenSans-Bold-30" x="57.177734"/>
       <use xlink:href="#OpenSans-Bold-32" x="114.355469"/>
       <use xlink:href="#OpenSans-Bold-30" x="171.533203"/>
      </g>
     </g>
    </g>
    <g id="xtick_11">
     <g id="line2d_35">
      <g>
       <use xlink:href="#m115c2cbc24" x="404.135933" y="334.28" style="fill: #37539c; stroke: #37539c; stroke-width: 0.8"/>
      </g>
     </g>
     <g id="text_28">
      <!-- 2021 -->
      <g style="fill: #37539c" transform="translate(394.988433 347.35875) scale(0.08 -0.08)">
       <use xlink:href="#OpenSans-Bold-32"/>
       <use xlink:href="#OpenSans-Bold-30" x="57.177734"/>
       <use xlink:href="#OpenSans-Bold-32" x="114.355469"/>
       <use xlink:href="#OpenSans-Bold-31" x="171.533203"/>
      </g>
     </g>
    </g>
    <g id="xtick_12">
     <g id="line2d_36">
      <g>
       <use xlink:href="#m115c2cbc24" x="430.551467" y="334.28" style="fill: #37539c; stroke: #37539c; stroke-width: 0.8"/>
      </g>
     </g>
     <g id="text_29">
      <!-- 2022 -->
      <g style="fill: #37539c" transform="translate(421.403967 347.35875) scale(0.08 -0.08)">
       <use xlink:href="#OpenSans-Bold-32"/>
       <use xlink:href="#OpenSans-Bold-30" x="57.177734"/>
       <use xlink:href="#OpenSans-Bold-32" x="114.355469"/>
       <use xlink:href="#OpenSans-Bold-32" x="171.533203"/>
      </g>
     </g>
    </g>
   </g>
   <g id="matplotlib.axis_6">
    <g id="ytick_13">
     <g id="line2d_37">
      <path d="M 324.889333 334.28 
L 456.967 334.28 
" clip-path="url(#pbada7fa3e0)" style="fill: none; stroke-dasharray: 2.96,1.28; stroke-dashoffset: 0; stroke: #b0b0b0; stroke-width: 0.8"/>
     </g>
     <g id="line2d_38">
      <g>
       <use xlink:href="#m08e9739947" x="324.889333" y="334.28" style="fill: #37539c; stroke: #37539c; stroke-width: 0.8"/>
      </g>
     </g>
    </g>
    <g id="ytick_14">
     <g id="line2d_39">
      <path d="M 324.889333 272.8 
L 456.967 272.8 
" clip-path="url(#pbada7fa3e0)" style="fill: none; stroke-dasharray: 2.96,1.28; stroke-dashoffset: 0; stroke: #b0b0b0; stroke-width: 0.8"/>
     </g>
     <g id="line2d_40">
      <g>
       <use xlink:href="#m08e9739947" x="324.889333" y="272.8" style="fill: #37539c; stroke: #37539c; stroke-width: 0.8"/>
      </g>
     </g>
    </g>
    <g id="ytick_15">
     <g id="line2d_41">
      <path d="M 324.889333 211.32 
L 456.967 211.32 
" clip-path="url(#pbada7fa3e0)" style="fill: none; stroke-dasharray: 2.96,1.28; stroke-dashoffset: 0; stroke: #b0b0b0; stroke-width: 0.8"/>
     </g>
     <g id="line2d_42">
      <g>
       <use xlink:href="#m08e9739947" x="324.889333" y="211.32" style="fill: #37539c; stroke: #37539c; stroke-width: 0.8"/>
      </g>
     </g>
    </g>
    <g id="ytick_16">
     <g id="line2d_43">
      <path d="M 324.889333 149.84 
L 456.967 149.84 
" clip-path="url(#pbada7fa3e0)" style="fill: none; stroke-dasharray: 2.96,1.28; stroke-dashoffset: 0; stroke: #b0b0b0; stroke-width: 0.8"/>
     </g>
     <g id="line2d_44">
      <g>
       <use xlink:href="#m08e9739947" x="324.889333" y="149.84" style="fill: #37539c; stroke: #37539c; stroke-width: 0.8"/>
      </g>
     </g>
    </g>
    <g id="ytick_17">
     <g id="line2d_45">
      <path d="M 324.889333 88.36 
L 456.967 88.36 
" clip-path="url(#pbada7fa3e0)" style="fill: none; stroke-dasharray: 2.96,1.28; stroke-dashoffset: 0; stroke: #b0b0b0; stroke-width: 0.8"/>
     </g>
     <g id="line2d_46">
      <g>
       <use xlink:href="#m08e9739947" x="324.889333" y="88.36" style="fill: #37539c; stroke: #37539c; stroke-width: 0.8"/>
      </g>
     </g>
    </g>
    <g id="ytick_18">
     <g id="line2d_47">
      <path d="M 324.889333 26.88 
L 456.967 26.88 
" clip-path="url(#pbada7fa3e0)" style="fill: none; stroke-dasharray: 2.96,1.28; stroke-dashoffset: 0; stroke: #b0b0b0; stroke-width: 0.8"/>
     </g>
     <g id="line2d_48">
      <g>
       <use xlink:href="#m08e9739947" x="324.889333" y="26.88" style="fill: #37539c; stroke: #37539c; stroke-width: 0.8"/>
      </g>
     </g>
    </g>
   </g>
   <g id="patch_17">
    <path d="M 428.015575 334.230816 
L 433.087358 334.230816 
Q 435.728911 334.230816 435.728911 333.001216 
L 435.728911 212.598784 
Q 435.728911 211.369184 433.087358 211.369184 
L 428.015575 211.369184 
Q 425.374022 211.369184 425.374022 212.598784 
L 425.374022 333.001216 
Q 425.374022 334.230816 428.015575 334.230816 
z
" clip-path="url(#pbada7fa3e0)" style="fill: #f45b69"/>
   </g>
   <g id="patch_18">
    <path d="M 401.600042 334.230816 
L 406.671825 334.230816 
Q 409.313378 334.230816 409.313378 333.001216 
L 409.313378 215.672784 
Q 409.313378 214.443184 406.671825 214.443184 
L 401.600042 214.443184 
Q 398.958489 214.443184 398.958489 215.672784 
L 398.958489 333.001216 
Q 398.958489 334.230816 401.600042 334.230816 
z
" clip-path="url(#pbada7fa3e0)" style="fill: #f45b69"/>
   </g>
   <g id="patch_19">
    <path d="M 375.184509 334.230816 
L 380.256291 334.230816 
Q 382.897845 334.230816 382.897845 333.001216 
L 382.897845 203.376784 
Q 382.897845 202.147184 380.256291 202.147184 
L 375.184509 202.147184 
Q 372.542955 202.147184 372.542955 203.376784 
L 372.542955 333.001216 
Q 372.542955 334.230816 375.184509 334.230816 
z
" clip-path="url(#pbada7fa3e0)" style="fill: #f45b69"/>
   </g>
   <g id="patch_20">
    <path d="M 348.768975 334.230816 
L 353.840758 334.230816 
Q 356.482311 334.230816 356.482311 333.001216 
L 356.482311 246.412784 
Q 356.482311 245.183184 353.840758 245.183184 
L 348.768975 245.183184 
Q 346.127422 245.183184 346.127422 246.412784 
L 346.127422 333.001216 
Q 346.127422 334.230816 348.768975 334.230816 
z
" clip-path="url(#pbada7fa3e0)" style="fill: #f45b69"/>
   </g>
   <g id="patch_21">
    <path d="M 324.889333 334.28 
L 324.889333 26.88 
" style="fill: none; stroke: #000000; stroke-width: 0.8; stroke-linejoin: miter; stroke-linecap: square"/>
   </g>
   <g id="patch_22">
    <path d="M 324.889333 334.28 
L 456.967 334.28 
" style="fill: none; stroke: #000000; stroke-width: 0.8; stroke-linejoin: miter; stroke-linecap: square"/>
   </g>
   <g id="text_30">
    <!-- 29% -->
    <g style="fill: #37539c" transform="translate(341.082992 242.730875) scale(0.1 -0.1)">
     <use xlink:href="#OpenSans-Bold-32"/>
     <use xlink:href="#OpenSans-Bold-39" x="57.177734"/>
     <use xlink:href="#OpenSans-Bold-25" x="114.355469"/>
    </g>
   </g>
   <g id="text_31">
    <!-- 43% -->
    <g style="fill: #37539c" transform="translate(367.498525 199.694875) scale(0.1 -0.1)">
     <use xlink:href="#OpenSans-Bold-34"/>
     <use xlink:href="#OpenSans-Bold-33" x="57.177734"/>
     <use xlink:href="#OpenSans-Bold-25" x="114.355469"/>
    </g>
   </g>
   <g id="text_32">
    <!-- 39% -->
    <g style="fill: #37539c" transform="translate(393.914058 211.990875) scale(0.1 -0.1)">
     <use xlink:href="#OpenSans-Bold-33"/>
     <use xlink:href="#OpenSans-Bold-39" x="57.177734"/>
     <use xlink:href="#OpenSans-Bold-25" x="114.355469"/>
    </g>
   </g>
   <g id="text_33">
    <!-- 40% -->
    <g style="fill: #37539c" transform="translate(420.329592 208.916875) scale(0.1 -0.1)">
     <use xlink:href="#OpenSans-Bold-34"/>
     <use xlink:href="#OpenSans-Bold-30" x="57.177734"/>
     <use xlink:href="#OpenSans-Bold-25" x="114.355469"/>
    </g>
   </g>
   <g id="text_34">
    <!-- Ajuste y testeo -->
    <g style="fill: #37539c" transform="translate(346.355667 20.88) scale(0.12 -0.12)">
     <defs>
      <path id="OpenSans-Bold-41" d="M 3372 0 
L 3041 1088 
L 1375 1088 
L 1044 0 
L 0 0 
L 1613 4588 
L 2797 4588 
L 4416 0 
L 3372 0 
z
M 2809 1900 
L 2478 2963 
Q 2447 3069 2395 3236 
Q 2344 3403 2292 3576 
Q 2241 3750 2209 3878 
Q 2178 3750 2123 3561 
Q 2069 3372 2019 3203 
Q 1969 3034 1947 2963 
L 1619 1900 
L 2809 1900 
z
" transform="scale(0.015625)"/>
      <path id="OpenSans-Bold-79" d="M 0 3494 
L 1044 3494 
L 1703 1528 
Q 1734 1434 1756 1337 
Q 1778 1241 1793 1137 
Q 1809 1034 1819 922 
L 1838 922 
Q 1856 1091 1889 1237 
Q 1922 1384 1972 1528 
L 2619 3494 
L 3641 3494 
L 2163 -447 
Q 2028 -809 1812 -1051 
Q 1597 -1294 1317 -1416 
Q 1038 -1538 703 -1538 
Q 541 -1538 422 -1520 
Q 303 -1503 219 -1484 
L 219 -728 
Q 284 -744 384 -756 
Q 484 -769 594 -769 
Q 794 -769 937 -684 
Q 1081 -600 1178 -458 
Q 1275 -316 1331 -147 
L 1388 25 
L 0 3494 
z
" transform="scale(0.015625)"/>
     </defs>
     <use xlink:href="#OpenSans-Bold-41"/>
     <use xlink:href="#OpenSans-Bold-6a" x="68.994141"/>
     <use xlink:href="#OpenSans-Bold-75" x="99.511719"/>
     <use xlink:href="#OpenSans-Bold-73" x="165.234375"/>
     <use xlink:href="#OpenSans-Bold-74" x="214.941406"/>
     <use xlink:href="#OpenSans-Bold-65" x="258.349609"/>
     <use xlink:href="#OpenSans-Bold-20" x="317.431641"/>
     <use xlink:href="#OpenSans-Bold-79" x="343.408203"/>
     <use xlink:href="#OpenSans-Bold-20" x="400.292969"/>
     <use xlink:href="#OpenSans-Bold-74" x="426.269531"/>
     <use xlink:href="#OpenSans-Bold-65" x="469.677734"/>
     <use xlink:href="#OpenSans-Bold-73" x="528.759766"/>
     <use xlink:href="#OpenSans-Bold-74" x="578.466797"/>
     <use xlink:href="#OpenSans-Bold-65" x="621.875"/>
     <use xlink:href="#OpenSans-Bold-6f" x="680.957031"/>
    </g>
   </g>
  </g>
  <g id="axes_4">
   <g id="patch_23">
    <path d="M 456.967 334.28 
L 589.044667 334.28 
L 589.044667 26.88 
L 456.967 26.88 
z
" style="fill: #ffffff"/>
   </g>
   <g id="matplotlib.axis_7">
    <g id="xtick_13">
     <g id="line2d_49">
      <g>
       <use xlink:href="#m115c2cbc24" x="483.382533" y="334.28" style="fill: #37539c; stroke: #37539c; stroke-width: 0.8"/>
      </g>
     </g>
     <g id="text_35">
      <!-- 2019 -->
      <g style="fill: #37539c" transform="translate(474.235033 347.35875) scale(0.08 -0.08)">
       <use xlink:href="#OpenSans-Bold-32"/>
       <use xlink:href="#OpenSans-Bold-30" x="57.177734"/>
       <use xlink:href="#OpenSans-Bold-31" x="114.355469"/>
       <use xlink:href="#OpenSans-Bold-39" x="171.533203"/>
      </g>
     </g>
    </g>
    <g id="xtick_14">
     <g id="line2d_50">
      <g>
       <use xlink:href="#m115c2cbc24" x="509.798067" y="334.28" style="fill: #37539c; stroke: #37539c; stroke-width: 0.8"/>
      </g>
     </g>
     <g id="text_36">
      <!-- 2020 -->
      <g style="fill: #37539c" transform="translate(500.650567 347.35875) scale(0.08 -0.08)">
       <use xlink:href="#OpenSans-Bold-32"/>
       <use xlink:href="#OpenSans-Bold-30" x="57.177734"/>
       <use xlink:href="#OpenSans-Bold-32" x="114.355469"/>
       <use xlink:href="#OpenSans-Bold-30" x="171.533203"/>
      </g>
     </g>
    </g>
    <g id="xtick_15">
     <g id="line2d_51">
      <g>
       <use xlink:href="#m115c2cbc24" x="536.2136" y="334.28" style="fill: #37539c; stroke: #37539c; stroke-width: 0.8"/>
      </g>
     </g>
     <g id="text_37">
      <!-- 2021 -->
      <g style="fill: #37539c" transform="translate(527.0661 347.35875) scale(0.08 -0.08)">
       <use xlink:href="#OpenSans-Bold-32"/>
       <use xlink:href="#OpenSans-Bold-30" x="57.177734"/>
       <use xlink:href="#OpenSans-Bold-32" x="114.355469"/>
       <use xlink:href="#OpenSans-Bold-31" x="171.533203"/>
      </g>
     </g>
    </g>
    <g id="xtick_16">
     <g id="line2d_52">
      <g>
       <use xlink:href="#m115c2cbc24" x="562.629133" y="334.28" style="fill: #37539c; stroke: #37539c; stroke-width: 0.8"/>
      </g>
     </g>
     <g id="text_38">
      <!-- 2022 -->
      <g style="fill: #37539c" transform="translate(553.481633 347.35875) scale(0.08 -0.08)">
       <use xlink:href="#OpenSans-Bold-32"/>
       <use xlink:href="#OpenSans-Bold-30" x="57.177734"/>
       <use xlink:href="#OpenSans-Bold-32" x="114.355469"/>
       <use xlink:href="#OpenSans-Bold-32" x="171.533203"/>
      </g>
     </g>
    </g>
   </g>
   <g id="matplotlib.axis_8">
    <g id="ytick_19">
     <g id="line2d_53">
      <path d="M 456.967 334.28 
L 589.044667 334.28 
" clip-path="url(#pbe7e5a568f)" style="fill: none; stroke-dasharray: 2.96,1.28; stroke-dashoffset: 0; stroke: #b0b0b0; stroke-width: 0.8"/>
     </g>
     <g id="line2d_54">
      <g>
       <use xlink:href="#m08e9739947" x="456.967" y="334.28" style="fill: #37539c; stroke: #37539c; stroke-width: 0.8"/>
      </g>
     </g>
    </g>
    <g id="ytick_20">
     <g id="line2d_55">
      <path d="M 456.967 272.8 
L 589.044667 272.8 
" clip-path="url(#pbe7e5a568f)" style="fill: none; stroke-dasharray: 2.96,1.28; stroke-dashoffset: 0; stroke: #b0b0b0; stroke-width: 0.8"/>
     </g>
     <g id="line2d_56">
      <g>
       <use xlink:href="#m08e9739947" x="456.967" y="272.8" style="fill: #37539c; stroke: #37539c; stroke-width: 0.8"/>
      </g>
     </g>
    </g>
    <g id="ytick_21">
     <g id="line2d_57">
      <path d="M 456.967 211.32 
L 589.044667 211.32 
" clip-path="url(#pbe7e5a568f)" style="fill: none; stroke-dasharray: 2.96,1.28; stroke-dashoffset: 0; stroke: #b0b0b0; stroke-width: 0.8"/>
     </g>
     <g id="line2d_58">
      <g>
       <use xlink:href="#m08e9739947" x="456.967" y="211.32" style="fill: #37539c; stroke: #37539c; stroke-width: 0.8"/>
      </g>
     </g>
    </g>
    <g id="ytick_22">
     <g id="line2d_59">
      <path d="M 456.967 149.84 
L 589.044667 149.84 
" clip-path="url(#pbe7e5a568f)" style="fill: none; stroke-dasharray: 2.96,1.28; stroke-dashoffset: 0; stroke: #b0b0b0; stroke-width: 0.8"/>
     </g>
     <g id="line2d_60">
      <g>
       <use xlink:href="#m08e9739947" x="456.967" y="149.84" style="fill: #37539c; stroke: #37539c; stroke-width: 0.8"/>
      </g>
     </g>
    </g>
    <g id="ytick_23">
     <g id="line2d_61">
      <path d="M 456.967 88.36 
L 589.044667 88.36 
" clip-path="url(#pbe7e5a568f)" style="fill: none; stroke-dasharray: 2.96,1.28; stroke-dashoffset: 0; stroke: #b0b0b0; stroke-width: 0.8"/>
     </g>
     <g id="line2d_62">
      <g>
       <use xlink:href="#m08e9739947" x="456.967" y="88.36" style="fill: #37539c; stroke: #37539c; stroke-width: 0.8"/>
      </g>
     </g>
    </g>
    <g id="ytick_24">
     <g id="line2d_63">
      <path d="M 456.967 26.88 
L 589.044667 26.88 
" clip-path="url(#pbe7e5a568f)" style="fill: none; stroke-dasharray: 2.96,1.28; stroke-dashoffset: 0; stroke: #b0b0b0; stroke-width: 0.8"/>
     </g>
     <g id="line2d_64">
      <g>
       <use xlink:href="#m08e9739947" x="456.967" y="26.88" style="fill: #37539c; stroke: #37539c; stroke-width: 0.8"/>
      </g>
     </g>
    </g>
   </g>
   <g id="patch_24">
    <path d="M 560.093242 334.230816 
L 565.165025 334.230816 
Q 567.806578 334.230816 567.806578 333.001216 
L 567.806578 243.338784 
Q 567.806578 242.109184 565.165025 242.109184 
L 560.093242 242.109184 
Q 557.451689 242.109184 557.451689 243.338784 
L 557.451689 333.001216 
Q 557.451689 334.230816 560.093242 334.230816 
z
" clip-path="url(#pbe7e5a568f)" style="fill: #52489c"/>
   </g>
   <g id="patch_25">
    <path d="M 533.677709 334.230816 
L 538.749491 334.230816 
Q 541.391045 334.230816 541.391045 333.001216 
L 541.391045 255.634784 
Q 541.391045 254.405184 538.749491 254.405184 
L 533.677709 254.405184 
Q 531.036155 254.405184 531.036155 255.634784 
L 531.036155 333.001216 
Q 531.036155 334.230816 533.677709 334.230816 
z
" clip-path="url(#pbe7e5a568f)" style="fill: #52489c"/>
   </g>
   <g id="patch_26">
    <path d="M 507.262175 334.230816 
L 512.333958 334.230816 
Q 514.975511 334.230816 514.975511 333.001216 
L 514.975511 221.820784 
Q 514.975511 220.591184 512.333958 220.591184 
L 507.262175 220.591184 
Q 504.620622 220.591184 504.620622 221.820784 
L 504.620622 333.001216 
Q 504.620622 334.230816 507.262175 334.230816 
z
" clip-path="url(#pbe7e5a568f)" style="fill: #52489c"/>
   </g>
   <g id="patch_27">
    <path d="M 480.846642 334.230816 
L 485.918425 334.230816 
Q 488.559978 334.230816 488.559978 333.001216 
L 488.559978 243.338784 
Q 488.559978 242.109184 485.918425 242.109184 
L 480.846642 242.109184 
Q 478.205089 242.109184 478.205089 243.338784 
L 478.205089 333.001216 
Q 478.205089 334.230816 480.846642 334.230816 
z
" clip-path="url(#pbe7e5a568f)" style="fill: #52489c"/>
   </g>
   <g id="patch_28">
    <path d="M 456.967 334.28 
L 456.967 26.88 
" style="fill: none; stroke: #000000; stroke-width: 0.8; stroke-linejoin: miter; stroke-linecap: square"/>
   </g>
   <g id="patch_29">
    <path d="M 456.967 334.28 
L 589.044667 334.28 
" style="fill: none; stroke: #000000; stroke-width: 0.8; stroke-linejoin: miter; stroke-linecap: square"/>
   </g>
   <g id="text_39">
    <!-- 30% -->
    <g style="fill: #37539c" transform="translate(473.160658 239.656875) scale(0.1 -0.1)">
     <use xlink:href="#OpenSans-Bold-33"/>
     <use xlink:href="#OpenSans-Bold-30" x="57.177734"/>
     <use xlink:href="#OpenSans-Bold-25" x="114.355469"/>
    </g>
   </g>
   <g id="text_40">
    <!-- 37% -->
    <g style="fill: #37539c" transform="translate(499.576192 218.138875) scale(0.1 -0.1)">
     <use xlink:href="#OpenSans-Bold-33"/>
     <use xlink:href="#OpenSans-Bold-37" x="57.177734"/>
     <use xlink:href="#OpenSans-Bold-25" x="114.355469"/>
    </g>
   </g>
   <g id="text_41">
    <!-- 26% -->
    <g style="fill: #37539c" transform="translate(525.991725 251.952875) scale(0.1 -0.1)">
     <use xlink:href="#OpenSans-Bold-32"/>
     <use xlink:href="#OpenSans-Bold-36" x="57.177734"/>
     <use xlink:href="#OpenSans-Bold-25" x="114.355469"/>
    </g>
   </g>
   <g id="text_42">
    <!-- 30% -->
    <g style="fill: #37539c" transform="translate(552.407258 239.656875) scale(0.1 -0.1)">
     <use xlink:href="#OpenSans-Bold-33"/>
     <use xlink:href="#OpenSans-Bold-30" x="57.177734"/>
     <use xlink:href="#OpenSans-Bold-25" x="114.355469"/>
    </g>
   </g>
   <g id="text_43">
    <!-- Pilotaje -->
    <g style="fill: #37539c" transform="translate(500.256458 20.88) scale(0.12 -0.12)">
     <use xlink:href="#OpenSans-Bold-50"/>
     <use xlink:href="#OpenSans-Bold-69" x="62.792969"/>
     <use xlink:href="#OpenSans-Bold-6c" x="93.310547"/>
     <use xlink:href="#OpenSans-Bold-6f" x="123.828125"/>
     <use xlink:href="#OpenSans-Bold-74" x="185.742188"/>
     <use xlink:href="#OpenSans-Bold-61" x="229.150391"/>
     <use xlink:href="#OpenSans-Bold-6a" x="289.550781"/>
     <use xlink:href="#OpenSans-Bold-65" x="320.068359"/>
    </g>
   </g>
  </g>
  <g id="axes_5">
   <g id="patch_30">
    <path d="M 589.044667 334.28 
L 721.122333 334.28 
L 721.122333 26.88 
L 589.044667 26.88 
z
" style="fill: #ffffff"/>
   </g>
   <g id="matplotlib.axis_9">
    <g id="xtick_17">
     <g id="line2d_65">
      <g>
       <use xlink:href="#m115c2cbc24" x="615.4602" y="334.28" style="fill: #37539c; stroke: #37539c; stroke-width: 0.8"/>
      </g>
     </g>
     <g id="text_44">
      <!-- 2019 -->
      <g style="fill: #37539c" transform="translate(606.3127 347.35875) scale(0.08 -0.08)">
       <use xlink:href="#OpenSans-Bold-32"/>
       <use xlink:href="#OpenSans-Bold-30" x="57.177734"/>
       <use xlink:href="#OpenSans-Bold-31" x="114.355469"/>
       <use xlink:href="#OpenSans-Bold-39" x="171.533203"/>
      </g>
     </g>
    </g>
    <g id="xtick_18">
     <g id="line2d_66">
      <g>
       <use xlink:href="#m115c2cbc24" x="641.875733" y="334.28" style="fill: #37539c; stroke: #37539c; stroke-width: 0.8"/>
      </g>
     </g>
     <g id="text_45">
      <!-- 2020 -->
      <g style="fill: #37539c" transform="translate(632.728233 347.35875) scale(0.08 -0.08)">
       <use xlink:href="#OpenSans-Bold-32"/>
       <use xlink:href="#OpenSans-Bold-30" x="57.177734"/>
       <use xlink:href="#OpenSans-Bold-32" x="114.355469"/>
       <use xlink:href="#OpenSans-Bold-30" x="171.533203"/>
      </g>
     </g>
    </g>
    <g id="xtick_19">
     <g id="line2d_67">
      <g>
       <use xlink:href="#m115c2cbc24" x="668.291267" y="334.28" style="fill: #37539c; stroke: #37539c; stroke-width: 0.8"/>
      </g>
     </g>
     <g id="text_46">
      <!-- 2021 -->
      <g style="fill: #37539c" transform="translate(659.143767 347.35875) scale(0.08 -0.08)">
       <use xlink:href="#OpenSans-Bold-32"/>
       <use xlink:href="#OpenSans-Bold-30" x="57.177734"/>
       <use xlink:href="#OpenSans-Bold-32" x="114.355469"/>
       <use xlink:href="#OpenSans-Bold-31" x="171.533203"/>
      </g>
     </g>
    </g>
    <g id="xtick_20">
     <g id="line2d_68">
      <g>
       <use xlink:href="#m115c2cbc24" x="694.7068" y="334.28" style="fill: #37539c; stroke: #37539c; stroke-width: 0.8"/>
      </g>
     </g>
     <g id="text_47">
      <!-- 2022 -->
      <g style="fill: #37539c" transform="translate(685.5593 347.35875) scale(0.08 -0.08)">
       <use xlink:href="#OpenSans-Bold-32"/>
       <use xlink:href="#OpenSans-Bold-30" x="57.177734"/>
       <use xlink:href="#OpenSans-Bold-32" x="114.355469"/>
       <use xlink:href="#OpenSans-Bold-32" x="171.533203"/>
      </g>
     </g>
    </g>
   </g>
   <g id="matplotlib.axis_10">
    <g id="ytick_25">
     <g id="line2d_69">
      <path d="M 589.044667 334.28 
L 721.122333 334.28 
" clip-path="url(#pf031f75f24)" style="fill: none; stroke-dasharray: 2.96,1.28; stroke-dashoffset: 0; stroke: #b0b0b0; stroke-width: 0.8"/>
     </g>
     <g id="line2d_70">
      <g>
       <use xlink:href="#m08e9739947" x="589.044667" y="334.28" style="fill: #37539c; stroke: #37539c; stroke-width: 0.8"/>
      </g>
     </g>
    </g>
    <g id="ytick_26">
     <g id="line2d_71">
      <path d="M 589.044667 272.8 
L 721.122333 272.8 
" clip-path="url(#pf031f75f24)" style="fill: none; stroke-dasharray: 2.96,1.28; stroke-dashoffset: 0; stroke: #b0b0b0; stroke-width: 0.8"/>
     </g>
     <g id="line2d_72">
      <g>
       <use xlink:href="#m08e9739947" x="589.044667" y="272.8" style="fill: #37539c; stroke: #37539c; stroke-width: 0.8"/>
      </g>
     </g>
    </g>
    <g id="ytick_27">
     <g id="line2d_73">
      <path d="M 589.044667 211.32 
L 721.122333 211.32 
" clip-path="url(#pf031f75f24)" style="fill: none; stroke-dasharray: 2.96,1.28; stroke-dashoffset: 0; stroke: #b0b0b0; stroke-width: 0.8"/>
     </g>
     <g id="line2d_74">
      <g>
       <use xlink:href="#m08e9739947" x="589.044667" y="211.32" style="fill: #37539c; stroke: #37539c; stroke-width: 0.8"/>
      </g>
     </g>
    </g>
    <g id="ytick_28">
     <g id="line2d_75">
      <path d="M 589.044667 149.84 
L 721.122333 149.84 
" clip-path="url(#pf031f75f24)" style="fill: none; stroke-dasharray: 2.96,1.28; stroke-dashoffset: 0; stroke: #b0b0b0; stroke-width: 0.8"/>
     </g>
     <g id="line2d_76">
      <g>
       <use xlink:href="#m08e9739947" x="589.044667" y="149.84" style="fill: #37539c; stroke: #37539c; stroke-width: 0.8"/>
      </g>
     </g>
    </g>
    <g id="ytick_29">
     <g id="line2d_77">
      <path d="M 589.044667 88.36 
L 721.122333 88.36 
" clip-path="url(#pf031f75f24)" style="fill: none; stroke-dasharray: 2.96,1.28; stroke-dashoffset: 0; stroke: #b0b0b0; stroke-width: 0.8"/>
     </g>
     <g id="line2d_78">
      <g>
       <use xlink:href="#m08e9739947" x="589.044667" y="88.36" style="fill: #37539c; stroke: #37539c; stroke-width: 0.8"/>
      </g>
     </g>
    </g>
    <g id="ytick_30">
     <g id="line2d_79">
      <path d="M 589.044667 26.88 
L 721.122333 26.88 
" clip-path="url(#pf031f75f24)" style="fill: none; stroke-dasharray: 2.96,1.28; stroke-dashoffset: 0; stroke: #b0b0b0; stroke-width: 0.8"/>
     </g>
     <g id="line2d_80">
      <g>
       <use xlink:href="#m08e9739947" x="589.044667" y="26.88" style="fill: #37539c; stroke: #37539c; stroke-width: 0.8"/>
      </g>
     </g>
    </g>
   </g>
   <g id="patch_31">
    <path d="M 692.170909 334.230816 
L 697.242691 334.230816 
Q 699.884245 334.230816 699.884245 333.001216 
L 699.884245 169.562784 
Q 699.884245 168.333184 697.242691 168.333184 
L 692.170909 168.333184 
Q 689.529355 168.333184 689.529355 169.562784 
L 689.529355 333.001216 
Q 689.529355 334.230816 692.170909 334.230816 
z
" clip-path="url(#pf031f75f24)" style="fill: #9fb7b9"/>
   </g>
   <g id="patch_32">
    <path d="M 665.755375 334.230816 
L 670.827158 334.230816 
Q 673.468711 334.230816 673.468711 333.001216 
L 673.468711 151.118784 
Q 673.468711 149.889184 670.827158 149.889184 
L 665.755375 149.889184 
Q 663.113822 149.889184 663.113822 151.118784 
L 663.113822 333.001216 
Q 663.113822 334.230816 665.755375 334.230816 
z
" clip-path="url(#pf031f75f24)" style="fill: #9fb7b9"/>
   </g>
   <g id="patch_33">
    <path d="M 639.339842 334.230816 
L 644.411625 334.230816 
Q 647.053178 334.230816 647.053178 333.001216 
L 647.053178 108.082784 
Q 647.053178 106.853184 644.411625 106.853184 
L 639.339842 106.853184 
Q 636.698289 106.853184 636.698289 108.082784 
L 636.698289 333.001216 
Q 636.698289 334.230816 639.339842 334.230816 
z
" clip-path="url(#pf031f75f24)" style="fill: #9fb7b9"/>
   </g>
   <g id="patch_34">
    <path d="M 612.924309 334.230816 
L 617.996091 334.230816 
Q 620.637645 334.230816 620.637645 333.001216 
L 620.637645 148.044784 
Q 620.637645 146.815184 617.996091 146.815184 
L 612.924309 146.815184 
Q 610.282755 146.815184 610.282755 148.044784 
L 610.282755 333.001216 
Q 610.282755 334.230816 612.924309 334.230816 
z
" clip-path="url(#pf031f75f24)" style="fill: #9fb7b9"/>
   </g>
   <g id="patch_35">
    <path d="M 589.044667 334.28 
L 589.044667 26.88 
" style="fill: none; stroke: #000000; stroke-width: 0.8; stroke-linejoin: miter; stroke-linecap: square"/>
   </g>
   <g id="patch_36">
    <path d="M 589.044667 334.28 
L 721.122333 334.28 
" style="fill: none; stroke: #000000; stroke-width: 0.8; stroke-linejoin: miter; stroke-linecap: square"/>
   </g>
   <g id="text_48">
    <!-- 61% -->
    <g style="fill: #37539c" transform="translate(605.238325 144.362875) scale(0.1 -0.1)">
     <use xlink:href="#OpenSans-Bold-36"/>
     <use xlink:href="#OpenSans-Bold-31" x="57.177734"/>
     <use xlink:href="#OpenSans-Bold-25" x="114.355469"/>
    </g>
   </g>
   <g id="text_49">
    <!-- 74% -->
    <g style="fill: #37539c" transform="translate(631.653858 104.400875) scale(0.1 -0.1)">
     <use xlink:href="#OpenSans-Bold-37"/>
     <use xlink:href="#OpenSans-Bold-34" x="57.177734"/>
     <use xlink:href="#OpenSans-Bold-25" x="114.355469"/>
    </g>
   </g>
   <g id="text_50">
    <!-- 60% -->
    <g style="fill: #37539c" transform="translate(658.069392 147.436875) scale(0.1 -0.1)">
     <use xlink:href="#OpenSans-Bold-36"/>
     <use xlink:href="#OpenSans-Bold-30" x="57.177734"/>
     <use xlink:href="#OpenSans-Bold-25" x="114.355469"/>
    </g>
   </g>
   <g id="text_51">
    <!-- 54% -->
    <g style="fill: #37539c" transform="translate(684.484925 165.880875) scale(0.1 -0.1)">
     <use xlink:href="#OpenSans-Bold-35"/>
     <use xlink:href="#OpenSans-Bold-34" x="57.177734"/>
     <use xlink:href="#OpenSans-Bold-25" x="114.355469"/>
    </g>
   </g>
   <g id="text_52">
    <!-- Implementación -->
    <g style="fill: #37539c" transform="translate(605.850687 20.88) scale(0.12 -0.12)">
     <defs>
      <path id="OpenSans-Bold-49" d="M 575 0 
L 575 4569 
L 1544 4569 
L 1544 0 
L 575 0 
z
" transform="scale(0.015625)"/>
     </defs>
     <use xlink:href="#OpenSans-Bold-49"/>
     <use xlink:href="#OpenSans-Bold-6d" x="33.105469"/>
     <use xlink:href="#OpenSans-Bold-70" x="131.298828"/>
     <use xlink:href="#OpenSans-Bold-6c" x="194.580078"/>
     <use xlink:href="#OpenSans-Bold-65" x="225.097656"/>
     <use xlink:href="#OpenSans-Bold-6d" x="284.179688"/>
     <use xlink:href="#OpenSans-Bold-65" x="382.373047"/>
     <use xlink:href="#OpenSans-Bold-6e" x="441.455078"/>
     <use xlink:href="#OpenSans-Bold-74" x="507.177734"/>
     <use xlink:href="#OpenSans-Bold-61" x="550.585938"/>
     <use xlink:href="#OpenSans-Bold-63" x="610.986328"/>
     <use xlink:href="#OpenSans-Bold-69" x="662.402344"/>
     <use xlink:href="#OpenSans-Bold-f3" x="692.919922"/>
     <use xlink:href="#OpenSans-Bold-6e" x="754.833984"/>
    </g>
   </g>
  </g>
  <g id="axes_6">
   <g id="patch_37">
    <path d="M 721.122333 334.28 
L 853.2 334.28 
L 853.2 26.88 
L 721.122333 26.88 
z
" style="fill: #ffffff"/>
   </g>
   <g id="matplotlib.axis_11">
    <g id="xtick_21">
     <g id="line2d_81">
      <g>
       <use xlink:href="#m115c2cbc24" x="747.537867" y="334.28" style="fill: #37539c; stroke: #37539c; stroke-width: 0.8"/>
      </g>
     </g>
     <g id="text_53">
      <!-- 2019 -->
      <g style="fill: #37539c" transform="translate(738.390367 347.35875) scale(0.08 -0.08)">
       <use xlink:href="#OpenSans-Bold-32"/>
       <use xlink:href="#OpenSans-Bold-30" x="57.177734"/>
       <use xlink:href="#OpenSans-Bold-31" x="114.355469"/>
       <use xlink:href="#OpenSans-Bold-39" x="171.533203"/>
      </g>
     </g>
    </g>
    <g id="xtick_22">
     <g id="line2d_82">
      <g>
       <use xlink:href="#m115c2cbc24" x="773.9534" y="334.28" style="fill: #37539c; stroke: #37539c; stroke-width: 0.8"/>
      </g>
     </g>
     <g id="text_54">
      <!-- 2020 -->
      <g style="fill: #37539c" transform="translate(764.8059 347.35875) scale(0.08 -0.08)">
       <use xlink:href="#OpenSans-Bold-32"/>
       <use xlink:href="#OpenSans-Bold-30" x="57.177734"/>
       <use xlink:href="#OpenSans-Bold-32" x="114.355469"/>
       <use xlink:href="#OpenSans-Bold-30" x="171.533203"/>
      </g>
     </g>
    </g>
    <g id="xtick_23">
     <g id="line2d_83">
      <g>
       <use xlink:href="#m115c2cbc24" x="800.368933" y="334.28" style="fill: #37539c; stroke: #37539c; stroke-width: 0.8"/>
      </g>
     </g>
     <g id="text_55">
      <!-- 2021 -->
      <g style="fill: #37539c" transform="translate(791.221433 347.35875) scale(0.08 -0.08)">
       <use xlink:href="#OpenSans-Bold-32"/>
       <use xlink:href="#OpenSans-Bold-30" x="57.177734"/>
       <use xlink:href="#OpenSans-Bold-32" x="114.355469"/>
       <use xlink:href="#OpenSans-Bold-31" x="171.533203"/>
      </g>
     </g>
    </g>
    <g id="xtick_24">
     <g id="line2d_84">
      <g>
       <use xlink:href="#m115c2cbc24" x="826.784467" y="334.28" style="fill: #37539c; stroke: #37539c; stroke-width: 0.8"/>
      </g>
     </g>
     <g id="text_56">
      <!-- 2022 -->
      <g style="fill: #37539c" transform="translate(817.636967 347.35875) scale(0.08 -0.08)">
       <use xlink:href="#OpenSans-Bold-32"/>
       <use xlink:href="#OpenSans-Bold-30" x="57.177734"/>
       <use xlink:href="#OpenSans-Bold-32" x="114.355469"/>
       <use xlink:href="#OpenSans-Bold-32" x="171.533203"/>
      </g>
     </g>
    </g>
   </g>
   <g id="matplotlib.axis_12">
    <g id="ytick_31">
     <g id="line2d_85">
      <path d="M 721.122333 334.28 
L 853.2 334.28 
" clip-path="url(#pcfa2458bc4)" style="fill: none; stroke-dasharray: 2.96,1.28; stroke-dashoffset: 0; stroke: #b0b0b0; stroke-width: 0.8"/>
     </g>
     <g id="line2d_86">
      <g>
       <use xlink:href="#m08e9739947" x="721.122333" y="334.28" style="fill: #37539c; stroke: #37539c; stroke-width: 0.8"/>
      </g>
     </g>
    </g>
    <g id="ytick_32">
     <g id="line2d_87">
      <path d="M 721.122333 272.8 
L 853.2 272.8 
" clip-path="url(#pcfa2458bc4)" style="fill: none; stroke-dasharray: 2.96,1.28; stroke-dashoffset: 0; stroke: #b0b0b0; stroke-width: 0.8"/>
     </g>
     <g id="line2d_88">
      <g>
       <use xlink:href="#m08e9739947" x="721.122333" y="272.8" style="fill: #37539c; stroke: #37539c; stroke-width: 0.8"/>
      </g>
     </g>
    </g>
    <g id="ytick_33">
     <g id="line2d_89">
      <path d="M 721.122333 211.32 
L 853.2 211.32 
" clip-path="url(#pcfa2458bc4)" style="fill: none; stroke-dasharray: 2.96,1.28; stroke-dashoffset: 0; stroke: #b0b0b0; stroke-width: 0.8"/>
     </g>
     <g id="line2d_90">
      <g>
       <use xlink:href="#m08e9739947" x="721.122333" y="211.32" style="fill: #37539c; stroke: #37539c; stroke-width: 0.8"/>
      </g>
     </g>
    </g>
    <g id="ytick_34">
     <g id="line2d_91">
      <path d="M 721.122333 149.84 
L 853.2 149.84 
" clip-path="url(#pcfa2458bc4)" style="fill: none; stroke-dasharray: 2.96,1.28; stroke-dashoffset: 0; stroke: #b0b0b0; stroke-width: 0.8"/>
     </g>
     <g id="line2d_92">
      <g>
       <use xlink:href="#m08e9739947" x="721.122333" y="149.84" style="fill: #37539c; stroke: #37539c; stroke-width: 0.8"/>
      </g>
     </g>
    </g>
    <g id="ytick_35">
     <g id="line2d_93">
      <path d="M 721.122333 88.36 
L 853.2 88.36 
" clip-path="url(#pcfa2458bc4)" style="fill: none; stroke-dasharray: 2.96,1.28; stroke-dashoffset: 0; stroke: #b0b0b0; stroke-width: 0.8"/>
     </g>
     <g id="line2d_94">
      <g>
       <use xlink:href="#m08e9739947" x="721.122333" y="88.36" style="fill: #37539c; stroke: #37539c; stroke-width: 0.8"/>
      </g>
     </g>
    </g>
    <g id="ytick_36">
     <g id="line2d_95">
      <path d="M 721.122333 26.88 
L 853.2 26.88 
" clip-path="url(#pcfa2458bc4)" style="fill: none; stroke-dasharray: 2.96,1.28; stroke-dashoffset: 0; stroke: #b0b0b0; stroke-width: 0.8"/>
     </g>
     <g id="line2d_96">
      <g>
       <use xlink:href="#m08e9739947" x="721.122333" y="26.88" style="fill: #37539c; stroke: #37539c; stroke-width: 0.8"/>
      </g>
     </g>
    </g>
   </g>
   <g id="patch_38">
    <path d="M 824.248575 334.230816 
L 829.320358 334.230816 
Q 831.961911 334.230816 831.961911 333.001216 
L 831.961911 267.930784 
Q 831.961911 266.701184 829.320358 266.701184 
L 824.248575 266.701184 
Q 821.607022 266.701184 821.607022 267.930784 
L 821.607022 333.001216 
Q 821.607022 334.230816 824.248575 334.230816 
z
" clip-path="url(#pcfa2458bc4)" style="fill: #ebebeb"/>
   </g>
   <g id="patch_39">
    <path d="M 797.833042 334.230816 
L 802.904825 334.230816 
Q 805.546378 334.230816 805.546378 333.001216 
L 805.546378 274.078784 
Q 805.546378 272.849184 802.904825 272.849184 
L 797.833042 272.849184 
Q 795.191489 272.849184 795.191489 274.078784 
L 795.191489 333.001216 
Q 795.191489 334.230816 797.833042 334.230816 
z
" clip-path="url(#pcfa2458bc4)" style="fill: #ebebeb"/>
   </g>
   <g id="patch_40">
    <path d="M 771.417509 334.230816 
L 776.489291 334.230816 
Q 779.130845 334.230816 779.130845 333.001216 
L 779.130845 227.968784 
Q 779.130845 226.739184 776.489291 226.739184 
L 771.417509 226.739184 
Q 768.775955 226.739184 768.775955 227.968784 
L 768.775955 333.001216 
Q 768.775955 334.230816 771.417509 334.230816 
z
" clip-path="url(#pcfa2458bc4)" style="fill: #ebebeb"/>
   </g>
   <g id="patch_41">
    <path d="M 745.001975 334.230816 
L 750.073758 334.230816 
Q 752.715311 334.230816 752.715311 333.001216 
L 752.715311 286.374784 
Q 752.715311 285.145184 750.073758 285.145184 
L 745.001975 285.145184 
Q 742.360422 285.145184 742.360422 286.374784 
L 742.360422 333.001216 
Q 742.360422 334.230816 745.001975 334.230816 
z
" clip-path="url(#pcfa2458bc4)" style="fill: #ebebeb"/>
   </g>
   <g id="patch_42">
    <path d="M 721.122333 334.28 
L 721.122333 26.88 
" style="fill: none; stroke: #000000; stroke-width: 0.8; stroke-linejoin: miter; stroke-linecap: square"/>
   </g>
   <g id="patch_43">
    <path d="M 721.122333 334.28 
L 853.2 334.28 
" style="fill: none; stroke: #000000; stroke-width: 0.8; stroke-linejoin: miter; stroke-linecap: square"/>
   </g>
   <g id="text_57">
    <!-- 16% -->
    <g style="fill: #37539c" transform="translate(737.315992 282.692875) scale(0.1 -0.1)">
     <use xlink:href="#OpenSans-Bold-31"/>
     <use xlink:href="#OpenSans-Bold-36" x="57.177734"/>
     <use xlink:href="#OpenSans-Bold-25" x="114.355469"/>
    </g>
   </g>
   <g id="text_58">
    <!-- 35% -->
    <g style="fill: #37539c" transform="translate(763.731525 224.286875) scale(0.1 -0.1)">
     <use xlink:href="#OpenSans-Bold-33"/>
     <use xlink:href="#OpenSans-Bold-35" x="57.177734"/>
     <use xlink:href="#OpenSans-Bold-25" x="114.355469"/>
    </g>
   </g>
   <g id="text_59">
    <!-- 20% -->
    <g style="fill: #37539c" transform="translate(790.147058 270.396875) scale(0.1 -0.1)">
     <use xlink:href="#OpenSans-Bold-32"/>
     <use xlink:href="#OpenSans-Bold-30" x="57.177734"/>
     <use xlink:href="#OpenSans-Bold-25" x="114.355469"/>
    </g>
   </g>
   <g id="text_60">
    <!-- 22% -->
    <g style="fill: #37539c" transform="translate(816.562592 264.248875) scale(0.1 -0.1)">
     <use xlink:href="#OpenSans-Bold-32"/>
     <use xlink:href="#OpenSans-Bold-32" x="57.177734"/>
     <use xlink:href="#OpenSans-Bold-25" x="114.355469"/>
    </g>
   </g>
   <g id="text_61">
    <!-- Evaluación -->
    <g style="fill: #37539c" transform="translate(754.790229 20.88) scale(0.12 -0.12)">
     <defs>
      <path id="OpenSans-Bold-45" d="M 3206 0 
L 575 0 
L 575 4569 
L 3206 4569 
L 3206 3775 
L 1544 3775 
L 1544 2772 
L 3091 2772 
L 3091 1978 
L 1544 1978 
L 1544 800 
L 3206 800 
L 3206 0 
z
" transform="scale(0.015625)"/>
      <path id="OpenSans-Bold-76" d="M 1331 0 
L 0 3494 
L 997 3494 
L 1672 1503 
Q 1728 1328 1761 1134 
Q 1794 941 1806 788 
L 1831 788 
Q 1841 953 1877 1140 
Q 1913 1328 1972 1503 
L 2644 3494 
L 3641 3494 
L 2309 0 
L 1331 0 
z
" transform="scale(0.015625)"/>
     </defs>
     <use xlink:href="#OpenSans-Bold-45"/>
     <use xlink:href="#OpenSans-Bold-76" x="56.005859"/>
     <use xlink:href="#OpenSans-Bold-61" x="112.890625"/>
     <use xlink:href="#OpenSans-Bold-6c" x="173.291016"/>
     <use xlink:href="#OpenSans-Bold-75" x="203.808594"/>
     <use xlink:href="#OpenSans-Bold-61" x="269.53125"/>
     <use xlink:href="#OpenSans-Bold-63" x="329.931641"/>
     <use xlink:href="#OpenSans-Bold-69" x="381.347656"/>
     <use xlink:href="#OpenSans-Bold-f3" x="411.865234"/>
     <use xlink:href="#OpenSans-Bold-6e" x="473.779297"/>
    </g>
   </g>
  </g>
 </g>
 <defs>
  <clipPath id="p110e356d84">
   <rect x="60.734" y="26.88" width="132.077667" height="307.4"/>
  </clipPath>
  <clipPath id="p19d7803220">
   <rect x="192.811667" y="26.88" width="132.077667" height="307.4"/>
  </clipPath>
  <clipPath id="pbada7fa3e0">
   <rect x="324.889333" y="26.88" width="132.077667" height="307.4"/>
  </clipPath>
  <clipPath id="pbe7e5a568f">
   <rect x="456.967" y="26.88" width="132.077667" height="307.4"/>
  </clipPath>
  <clipPath id="pf031f75f24">
   <rect x="589.044667" y="26.88" width="132.077667" height="307.4"/>
  </clipPath>
  <clipPath id="pcfa2458bc4">
   <rect x="721.122333" y="26.88" width="132.077667" height="307.4"/>
  </clipPath>
 </defs>
</svg>
