<?xml version="1.0" encoding="utf-8" standalone="no"?>
<!DOCTYPE svg PUBLIC "-//W3C//DTD SVG 1.1//EN"
  "http://www.w3.org/Graphics/SVG/1.1/DTD/svg11.dtd">
<svg xmlns:xlink="http://www.w3.org/1999/xlink" width="460.8pt" height="345.6pt" viewBox="0 0 460.8 345.6" xmlns="http://www.w3.org/2000/svg" version="1.1">
 <metadata>
  <rdf:RDF xmlns:dc="http://purl.org/dc/elements/1.1/" xmlns:cc="http://creativecommons.org/ns#" xmlns:rdf="http://www.w3.org/1999/02/22-rdf-syntax-ns#">
   <cc:Work>
    <dc:type rdf:resource="http://purl.org/dc/dcmitype/StillImage"/>
    <dc:date>2024-02-22T18:18:33.300356</dc:date>
    <dc:format>image/svg+xml</dc:format>
    <dc:creator>
     <cc:Agent>
      <dc:title>Matplotlib v3.7.1, https://matplotlib.org/</dc:title>
     </cc:Agent>
    </dc:creator>
   </cc:Work>
  </rdf:RDF>
 </metadata>
 <defs>
  <style type="text/css">*{stroke-linejoin: round; stroke-linecap: butt}</style>
 </defs>
 <g id="figure_1">
  <g id="patch_1">
   <path d="M 0 345.6 
L 460.8 345.6 
L 460.8 0 
L 0 0 
z
" style="fill: #ffffff"/>
  </g>
  <g id="axes_1">
   <g id="patch_2">
    <path d="M 41.15 305.8 
L 420.1772 305.8 
L 420.1772 10.8 
L 41.15 10.8 
z
" style="fill: #ffffff"/>
   </g>
   <g id="matplotlib.axis_1">
    <g id="xtick_1">
     <g id="line2d_1">
      <defs>
       <path id="m0bb8edace9" d="M 0 0 
L 0 3.5 
" style="stroke: #37539c; stroke-width: 0.8"/>
      </defs>
      <g>
       <use xlink:href="#m0bb8edace9" x="100.373" y="305.8" style="fill: #37539c; stroke: #37539c; stroke-width: 0.8"/>
      </g>
     </g>
     <g id="text_1">
      <!-- Pregrado -->
      <g style="fill: #37539c" transform="translate(82.181125 318.87875) scale(0.08 -0.08)">
       <defs>
        <path id="OpenSans-Bold-50" d="M 2034 4569 
Q 2919 4569 3325 4189 
Q 3731 3809 3731 3144 
Q 3731 2844 3640 2570 
Q 3550 2297 3345 2084 
Q 3141 1872 2800 1748 
Q 2459 1625 1959 1625 
L 1544 1625 
L 1544 0 
L 575 0 
L 575 4569 
L 2034 4569 
z
M 1984 3775 
L 1544 3775 
L 1544 2419 
L 1863 2419 
Q 2134 2419 2334 2491 
Q 2534 2563 2643 2716 
Q 2753 2869 2753 3109 
Q 2753 3447 2565 3611 
Q 2378 3775 1984 3775 
z
" transform="scale(0.015625)"/>
        <path id="OpenSans-Bold-72" d="M 2450 3559 
Q 2522 3559 2617 3551 
Q 2713 3544 2772 3531 
L 2700 2638 
Q 2653 2653 2567 2661 
Q 2481 2669 2419 2669 
Q 2234 2669 2061 2622 
Q 1888 2575 1750 2470 
Q 1613 2366 1533 2195 
Q 1453 2025 1453 1778 
L 1453 0 
L 500 0 
L 500 3494 
L 1222 3494 
L 1363 2906 
L 1409 2906 
Q 1513 3084 1667 3232 
Q 1822 3381 2020 3470 
Q 2219 3559 2450 3559 
z
" transform="scale(0.015625)"/>
        <path id="OpenSans-Bold-65" d="M 1941 3559 
Q 2425 3559 2775 3373 
Q 3125 3188 3315 2834 
Q 3506 2481 3506 1972 
L 3506 1509 
L 1253 1509 
Q 1269 1106 1495 876 
Q 1722 647 2125 647 
Q 2459 647 2737 715 
Q 3016 784 3309 922 
L 3309 184 
Q 3050 56 2767 -3 
Q 2484 -63 2081 -63 
Q 1556 -63 1151 131 
Q 747 325 517 722 
Q 288 1119 288 1722 
Q 288 2334 495 2742 
Q 703 3150 1075 3354 
Q 1447 3559 1941 3559 
z
M 1947 2881 
Q 1669 2881 1486 2703 
Q 1303 2525 1275 2144 
L 2613 2144 
Q 2609 2356 2536 2522 
Q 2463 2688 2317 2784 
Q 2172 2881 1947 2881 
z
" transform="scale(0.015625)"/>
        <path id="OpenSans-Bold-67" d="M 1522 -1538 
Q 791 -1538 405 -1283 
Q 19 -1028 19 -569 
Q 19 -253 216 -40 
Q 413 172 794 263 
Q 647 325 537 467 
Q 428 609 428 769 
Q 428 969 543 1101 
Q 659 1234 878 1363 
Q 603 1481 442 1743 
Q 281 2006 281 2363 
Q 281 2744 448 3011 
Q 616 3278 936 3418 
Q 1256 3559 1716 3559 
Q 1813 3559 1941 3546 
Q 2069 3534 2176 3518 
Q 2284 3503 2322 3494 
L 3541 3494 
L 3541 3009 
L 2994 2869 
Q 3069 2753 3106 2622 
Q 3144 2491 3144 2344 
Q 3144 1781 2751 1467 
Q 2359 1153 1663 1153 
Q 1497 1163 1350 1178 
Q 1278 1122 1240 1059 
Q 1203 997 1203 928 
Q 1203 859 1261 814 
Q 1319 769 1436 745 
Q 1553 722 1728 722 
L 2322 722 
Q 2897 722 3198 475 
Q 3500 228 3500 -250 
Q 3500 -863 2989 -1200 
Q 2478 -1538 1522 -1538 
z
M 1563 -916 
Q 1903 -916 2148 -852 
Q 2394 -788 2525 -670 
Q 2656 -553 2656 -391 
Q 2656 -259 2579 -182 
Q 2503 -106 2348 -75 
Q 2194 -44 1953 -44 
L 1459 -44 
Q 1284 -44 1145 -100 
Q 1006 -156 925 -257 
Q 844 -359 844 -494 
Q 844 -691 1033 -803 
Q 1222 -916 1563 -916 
z
M 1716 1734 
Q 1984 1734 2109 1900 
Q 2234 2066 2234 2350 
Q 2234 2666 2104 2823 
Q 1975 2981 1716 2981 
Q 1453 2981 1322 2823 
Q 1191 2666 1191 2350 
Q 1191 2066 1320 1900 
Q 1450 1734 1716 1734 
z
" transform="scale(0.015625)"/>
        <path id="OpenSans-Bold-61" d="M 1931 3566 
Q 2634 3566 3009 3259 
Q 3384 2953 3384 2328 
L 3384 0 
L 2719 0 
L 2534 475 
L 2509 475 
Q 2359 288 2203 169 
Q 2047 50 1844 -6 
Q 1641 -63 1350 -63 
Q 1041 -63 795 56 
Q 550 175 409 420 
Q 269 666 269 1044 
Q 269 1600 659 1864 
Q 1050 2128 1831 2156 
L 2438 2175 
L 2438 2328 
Q 2438 2603 2294 2731 
Q 2150 2859 1894 2859 
Q 1641 2859 1397 2787 
Q 1153 2716 909 2606 
L 594 3250 
Q 872 3397 1217 3481 
Q 1563 3566 1931 3566 
z
M 2438 1619 
L 2069 1606 
Q 1606 1594 1426 1441 
Q 1247 1288 1247 1038 
Q 1247 819 1375 726 
Q 1503 634 1709 634 
Q 2016 634 2227 815 
Q 2438 997 2438 1331 
L 2438 1619 
z
" transform="scale(0.015625)"/>
        <path id="OpenSans-Bold-64" d="M 1606 -63 
Q 1022 -63 655 395 
Q 288 853 288 1741 
Q 288 2638 659 3098 
Q 1031 3559 1631 3559 
Q 1881 3559 2072 3490 
Q 2263 3422 2402 3306 
Q 2541 3191 2638 3047 
L 2669 3047 
Q 2650 3147 2623 3342 
Q 2597 3538 2597 3744 
L 2597 4863 
L 3553 4863 
L 3553 0 
L 2822 0 
L 2638 453 
L 2597 453 
Q 2506 309 2370 192 
Q 2234 75 2046 6 
Q 1859 -63 1606 -63 
z
M 1941 697 
Q 2331 697 2492 930 
Q 2653 1163 2663 1631 
L 2663 1734 
Q 2663 2244 2506 2514 
Q 2350 2784 1925 2784 
Q 1609 2784 1431 2512 
Q 1253 2241 1253 1728 
Q 1253 1216 1433 956 
Q 1613 697 1941 697 
z
" transform="scale(0.015625)"/>
        <path id="OpenSans-Bold-6f" d="M 3675 1753 
Q 3675 1316 3558 978 
Q 3441 641 3217 408 
Q 2994 175 2680 56 
Q 2366 -63 1972 -63 
Q 1603 -63 1295 56 
Q 988 175 761 408 
Q 534 641 411 978 
Q 288 1316 288 1753 
Q 288 2334 494 2737 
Q 700 3141 1081 3350 
Q 1463 3559 1991 3559 
Q 2481 3559 2861 3350 
Q 3241 3141 3458 2737 
Q 3675 2334 3675 1753 
z
M 1259 1753 
Q 1259 1409 1334 1175 
Q 1409 941 1568 822 
Q 1728 703 1984 703 
Q 2238 703 2395 822 
Q 2553 941 2626 1175 
Q 2700 1409 2700 1753 
Q 2700 2100 2626 2329 
Q 2553 2559 2393 2675 
Q 2234 2791 1978 2791 
Q 1600 2791 1429 2531 
Q 1259 2272 1259 1753 
z
" transform="scale(0.015625)"/>
       </defs>
       <use xlink:href="#OpenSans-Bold-50"/>
       <use xlink:href="#OpenSans-Bold-72" x="62.792969"/>
       <use xlink:href="#OpenSans-Bold-65" x="108.203125"/>
       <use xlink:href="#OpenSans-Bold-67" x="167.285156"/>
       <use xlink:href="#OpenSans-Bold-72" x="223.779297"/>
       <use xlink:href="#OpenSans-Bold-61" x="269.189453"/>
       <use xlink:href="#OpenSans-Bold-64" x="329.589844"/>
       <use xlink:href="#OpenSans-Bold-6f" x="392.871094"/>
      </g>
     </g>
    </g>
    <g id="xtick_2">
     <g id="line2d_2">
      <g>
       <use xlink:href="#m0bb8edace9" x="218.819" y="305.8" style="fill: #37539c; stroke: #37539c; stroke-width: 0.8"/>
      </g>
     </g>
     <g id="text_2">
      <!-- Magíster -->
      <g style="fill: #37539c" transform="translate(201.247125 318.92875) scale(0.08 -0.08)">
       <defs>
        <path id="OpenSans-Bold-4d" d="M 2509 0 
L 1409 3584 
L 1381 3584 
Q 1388 3456 1402 3198 
Q 1416 2941 1428 2650 
Q 1441 2359 1441 2125 
L 1441 0 
L 575 0 
L 575 4569 
L 1894 4569 
L 2975 1075 
L 2994 1075 
L 4141 4569 
L 5459 4569 
L 5459 0 
L 4556 0 
L 4556 2163 
Q 4556 2378 4564 2659 
Q 4572 2941 4584 3195 
Q 4597 3450 4603 3578 
L 4575 3578 
L 3397 0 
L 2509 0 
z
" transform="scale(0.015625)"/>
        <path id="OpenSans-Bold-ed" d="M 1453 0 
L 500 0 
L 500 3494 
L 1453 3494 
L 1453 0 
z
M 2203 4903 
L 2203 4838 
Q 2113 4750 1966 4622 
Q 1819 4494 1650 4355 
Q 1482 4216 1319 4089 
Q 1157 3963 1035 3878 
L 400 3878 
L 400 3963 
Q 503 4081 639 4245 
Q 775 4409 909 4584 
Q 1044 4759 1135 4903 
L 2203 4903 
z
" transform="scale(0.015625)"/>
        <path id="OpenSans-Bold-73" d="M 2938 1038 
Q 2938 681 2770 436 
Q 2603 191 2272 64 
Q 1941 -63 1447 -63 
Q 1081 -63 820 -16 
Q 559 31 294 141 
L 294 928 
Q 578 800 904 717 
Q 1231 634 1478 634 
Q 1756 634 1876 717 
Q 1997 800 1997 934 
Q 1997 1022 1948 1092 
Q 1900 1163 1740 1252 
Q 1581 1341 1241 1484 
Q 913 1622 702 1762 
Q 491 1903 389 2095 
Q 288 2288 288 2584 
Q 288 3069 664 3314 
Q 1041 3559 1672 3559 
Q 1997 3559 2292 3493 
Q 2588 3428 2900 3284 
L 2613 2597 
Q 2353 2709 2123 2781 
Q 1894 2853 1656 2853 
Q 1447 2853 1340 2797 
Q 1234 2741 1234 2625 
Q 1234 2541 1289 2475 
Q 1344 2409 1501 2329 
Q 1659 2250 1966 2125 
Q 2263 2003 2481 1870 
Q 2700 1738 2819 1542 
Q 2938 1347 2938 1038 
z
" transform="scale(0.015625)"/>
        <path id="OpenSans-Bold-74" d="M 1972 697 
Q 2128 697 2276 728 
Q 2425 759 2572 806 
L 2572 97 
Q 2419 28 2192 -17 
Q 1966 -63 1697 -63 
Q 1384 -63 1136 39 
Q 888 141 745 392 
Q 603 644 603 1094 
L 603 2778 
L 147 2778 
L 147 3181 
L 672 3500 
L 947 4238 
L 1556 4238 
L 1556 3494 
L 2534 3494 
L 2534 2778 
L 1556 2778 
L 1556 1094 
Q 1556 894 1670 795 
Q 1784 697 1972 697 
z
" transform="scale(0.015625)"/>
       </defs>
       <use xlink:href="#OpenSans-Bold-4d"/>
       <use xlink:href="#OpenSans-Bold-61" x="94.287109"/>
       <use xlink:href="#OpenSans-Bold-67" x="154.6875"/>
       <use xlink:href="#OpenSans-Bold-ed" x="211.181641"/>
       <use xlink:href="#OpenSans-Bold-73" x="241.699219"/>
       <use xlink:href="#OpenSans-Bold-74" x="291.40625"/>
       <use xlink:href="#OpenSans-Bold-65" x="334.814453"/>
       <use xlink:href="#OpenSans-Bold-72" x="393.896484"/>
      </g>
     </g>
    </g>
    <g id="xtick_3">
     <g id="line2d_3">
      <g>
       <use xlink:href="#m0bb8edace9" x="337.265" y="305.8" style="fill: #37539c; stroke: #37539c; stroke-width: 0.8"/>
      </g>
     </g>
     <g id="text_3">
      <!-- Doctorado -->
      <g style="fill: #37539c" transform="translate(316.31625 318.87875) scale(0.08 -0.08)">
       <defs>
        <path id="OpenSans-Bold-44" d="M 4366 2328 
Q 4366 1556 4070 1039 
Q 3775 522 3215 261 
Q 2656 0 1869 0 
L 575 0 
L 575 4569 
L 2009 4569 
Q 2728 4569 3256 4314 
Q 3784 4059 4075 3561 
Q 4366 3063 4366 2328 
z
M 3359 2303 
Q 3359 2809 3211 3136 
Q 3063 3463 2773 3619 
Q 2484 3775 2059 3775 
L 1544 3775 
L 1544 800 
L 1959 800 
Q 2669 800 3014 1178 
Q 3359 1556 3359 2303 
z
" transform="scale(0.015625)"/>
        <path id="OpenSans-Bold-63" d="M 1919 -63 
Q 1400 -63 1034 126 
Q 669 316 478 712 
Q 288 1109 288 1728 
Q 288 2369 505 2773 
Q 722 3178 1108 3368 
Q 1494 3559 2003 3559 
Q 2366 3559 2630 3489 
Q 2894 3419 3091 3322 
L 2809 2584 
Q 2584 2675 2390 2733 
Q 2197 2791 2003 2791 
Q 1753 2791 1587 2673 
Q 1422 2556 1340 2322 
Q 1259 2088 1259 1734 
Q 1259 1388 1346 1159 
Q 1434 931 1600 820 
Q 1766 709 2003 709 
Q 2300 709 2531 789 
Q 2763 869 2981 1013 
L 2981 197 
Q 2763 59 2523 -2 
Q 2284 -63 1919 -63 
z
" transform="scale(0.015625)"/>
       </defs>
       <use xlink:href="#OpenSans-Bold-44"/>
       <use xlink:href="#OpenSans-Bold-6f" x="74.023438"/>
       <use xlink:href="#OpenSans-Bold-63" x="135.9375"/>
       <use xlink:href="#OpenSans-Bold-74" x="187.353516"/>
       <use xlink:href="#OpenSans-Bold-6f" x="230.761719"/>
       <use xlink:href="#OpenSans-Bold-72" x="292.675781"/>
       <use xlink:href="#OpenSans-Bold-61" x="338.085938"/>
       <use xlink:href="#OpenSans-Bold-64" x="398.486328"/>
       <use xlink:href="#OpenSans-Bold-6f" x="461.767578"/>
      </g>
     </g>
    </g>
    <g id="text_4">
     <!-- Grado académico -->
     <g style="fill: #37539c" transform="translate(187.361256 332.449687) scale(0.1 -0.1)">
      <defs>
       <path id="OpenSans-Bold-47" d="M 2309 2566 
L 4122 2566 
L 4122 197 
Q 3763 78 3375 7 
Q 2988 -63 2497 -63 
Q 1816 -63 1341 206 
Q 866 475 619 1000 
Q 372 1525 372 2291 
Q 372 3009 648 3534 
Q 925 4059 1458 4346 
Q 1991 4634 2759 4634 
Q 3122 4634 3475 4556 
Q 3828 4478 4116 4353 
L 3794 3578 
Q 3584 3684 3315 3756 
Q 3047 3828 2753 3828 
Q 2331 3828 2020 3634 
Q 1709 3441 1539 3092 
Q 1369 2744 1369 2272 
Q 1369 1825 1491 1479 
Q 1613 1134 1875 939 
Q 2138 744 2559 744 
Q 2766 744 2908 764 
Q 3050 784 3175 806 
L 3175 1759 
L 2309 1759 
L 2309 2566 
z
" transform="scale(0.015625)"/>
       <path id="OpenSans-Bold-20" transform="scale(0.015625)"/>
       <path id="OpenSans-Bold-e9" d="M 1941 3559 
Q 2425 3559 2775 3373 
Q 3125 3188 3315 2834 
Q 3506 2481 3506 1972 
L 3506 1509 
L 1253 1509 
Q 1269 1106 1495 876 
Q 1722 647 2125 647 
Q 2459 647 2737 715 
Q 3016 784 3309 922 
L 3309 184 
Q 3050 56 2767 -3 
Q 2484 -63 2081 -63 
Q 1556 -63 1151 131 
Q 747 325 517 722 
Q 288 1119 288 1722 
Q 288 2334 495 2742 
Q 703 3150 1075 3354 
Q 1447 3559 1941 3559 
z
M 1947 2881 
Q 1669 2881 1486 2703 
Q 1303 2525 1275 2144 
L 2613 2144 
Q 2609 2356 2536 2522 
Q 2463 2688 2317 2784 
Q 2172 2881 1947 2881 
z
M 3123 4903 
L 3123 4838 
Q 3033 4750 2886 4622 
Q 2739 4494 2570 4355 
Q 2402 4216 2239 4089 
Q 2077 3963 1955 3878 
L 1320 3878 
L 1320 3963 
Q 1423 4081 1559 4245 
Q 1695 4409 1829 4584 
Q 1964 4759 2055 4903 
L 3123 4903 
z
" transform="scale(0.015625)"/>
       <path id="OpenSans-Bold-6d" d="M 4603 3559 
Q 5197 3559 5501 3254 
Q 5806 2950 5806 2278 
L 5806 0 
L 4850 0 
L 4850 2041 
Q 4850 2416 4722 2606 
Q 4594 2797 4325 2797 
Q 3947 2797 3787 2526 
Q 3628 2256 3628 1753 
L 3628 0 
L 2675 0 
L 2675 2041 
Q 2675 2291 2619 2459 
Q 2563 2628 2447 2712 
Q 2331 2797 2150 2797 
Q 1884 2797 1732 2664 
Q 1581 2531 1517 2273 
Q 1453 2016 1453 1644 
L 1453 0 
L 500 0 
L 500 3494 
L 1228 3494 
L 1356 3047 
L 1409 3047 
Q 1516 3228 1677 3340 
Q 1838 3453 2031 3506 
Q 2225 3559 2425 3559 
Q 2809 3559 3076 3434 
Q 3344 3309 3488 3047 
L 3572 3047 
Q 3728 3316 4014 3437 
Q 4300 3559 4603 3559 
z
" transform="scale(0.015625)"/>
       <path id="OpenSans-Bold-69" d="M 1453 3494 
L 1453 0 
L 500 0 
L 500 3494 
L 1453 3494 
z
M 978 4863 
Q 1191 4863 1344 4764 
Q 1497 4666 1497 4397 
Q 1497 4131 1344 4029 
Q 1191 3928 978 3928 
Q 763 3928 611 4029 
Q 459 4131 459 4397 
Q 459 4666 611 4764 
Q 763 4863 978 4863 
z
" transform="scale(0.015625)"/>
      </defs>
      <use xlink:href="#OpenSans-Bold-47"/>
      <use xlink:href="#OpenSans-Bold-72" x="72.412109"/>
      <use xlink:href="#OpenSans-Bold-61" x="117.822266"/>
      <use xlink:href="#OpenSans-Bold-64" x="178.222656"/>
      <use xlink:href="#OpenSans-Bold-6f" x="241.503906"/>
      <use xlink:href="#OpenSans-Bold-20" x="303.417969"/>
      <use xlink:href="#OpenSans-Bold-61" x="329.394531"/>
      <use xlink:href="#OpenSans-Bold-63" x="389.794922"/>
      <use xlink:href="#OpenSans-Bold-61" x="441.210938"/>
      <use xlink:href="#OpenSans-Bold-64" x="501.611328"/>
      <use xlink:href="#OpenSans-Bold-e9" x="564.892578"/>
      <use xlink:href="#OpenSans-Bold-6d" x="623.974609"/>
      <use xlink:href="#OpenSans-Bold-69" x="722.167969"/>
      <use xlink:href="#OpenSans-Bold-63" x="752.685547"/>
      <use xlink:href="#OpenSans-Bold-6f" x="804.101562"/>
     </g>
    </g>
   </g>
   <g id="matplotlib.axis_2">
    <g id="ytick_1">
     <g id="line2d_4">
      <path d="M 41.15 305.8 
L 420.1772 305.8 
" clip-path="url(#p03eac061ec)" style="fill: none; stroke-dasharray: 2.96,1.28; stroke-dashoffset: 0; stroke: #b0b0b0; stroke-width: 0.8"/>
     </g>
     <g id="line2d_5">
      <defs>
       <path id="mec6cb808f7" d="M 0 0 
L -3.5 0 
" style="stroke: #37539c; stroke-width: 0.8"/>
      </defs>
      <g>
       <use xlink:href="#mec6cb808f7" x="41.15" y="305.8" style="fill: #37539c; stroke: #37539c; stroke-width: 0.8"/>
      </g>
     </g>
     <g id="text_5">
      <!-- 0 -->
      <g style="fill: #37539c" transform="translate(29.57625 308.839375) scale(0.08 -0.08)">
       <defs>
        <path id="OpenSans-Bold-30" d="M 3425 2284 
Q 3425 1731 3339 1297 
Q 3253 863 3064 559 
Q 2875 256 2569 96 
Q 2263 -63 1825 -63 
Q 1275 -63 922 217 
Q 569 497 400 1023 
Q 231 1550 231 2284 
Q 231 3025 386 3551 
Q 541 4078 891 4359 
Q 1241 4641 1825 4641 
Q 2372 4641 2726 4361 
Q 3081 4081 3253 3554 
Q 3425 3028 3425 2284 
z
M 1191 2284 
Q 1191 1763 1248 1414 
Q 1306 1066 1443 891 
Q 1581 716 1825 716 
Q 2066 716 2205 889 
Q 2344 1063 2403 1411 
Q 2463 1759 2463 2284 
Q 2463 2806 2403 3156 
Q 2344 3506 2205 3682 
Q 2066 3859 1825 3859 
Q 1581 3859 1443 3682 
Q 1306 3506 1248 3156 
Q 1191 2806 1191 2284 
z
" transform="scale(0.015625)"/>
       </defs>
       <use xlink:href="#OpenSans-Bold-30"/>
      </g>
     </g>
    </g>
    <g id="ytick_2">
     <g id="line2d_6">
      <path d="M 41.15 253.839426 
L 420.1772 253.839426 
" clip-path="url(#p03eac061ec)" style="fill: none; stroke-dasharray: 2.96,1.28; stroke-dashoffset: 0; stroke: #b0b0b0; stroke-width: 0.8"/>
     </g>
     <g id="line2d_7">
      <g>
       <use xlink:href="#mec6cb808f7" x="41.15" y="253.839426" style="fill: #37539c; stroke: #37539c; stroke-width: 0.8"/>
      </g>
     </g>
     <g id="text_6">
      <!-- 10 -->
      <g style="fill: #37539c" transform="translate(25.0025 256.878801) scale(0.08 -0.08)">
       <defs>
        <path id="OpenSans-Bold-31" d="M 2644 0 
L 1678 0 
L 1678 2644 
Q 1678 2753 1681 2914 
Q 1684 3075 1690 3245 
Q 1697 3416 1703 3553 
Q 1669 3513 1564 3414 
Q 1459 3316 1369 3238 
L 844 2816 
L 378 3397 
L 1850 4569 
L 2644 4569 
L 2644 0 
z
" transform="scale(0.015625)"/>
       </defs>
       <use xlink:href="#OpenSans-Bold-31"/>
       <use xlink:href="#OpenSans-Bold-30" x="57.177734"/>
      </g>
     </g>
    </g>
    <g id="ytick_3">
     <g id="line2d_8">
      <path d="M 41.15 201.878853 
L 420.1772 201.878853 
" clip-path="url(#p03eac061ec)" style="fill: none; stroke-dasharray: 2.96,1.28; stroke-dashoffset: 0; stroke: #b0b0b0; stroke-width: 0.8"/>
     </g>
     <g id="line2d_9">
      <g>
       <use xlink:href="#mec6cb808f7" x="41.15" y="201.878853" style="fill: #37539c; stroke: #37539c; stroke-width: 0.8"/>
      </g>
     </g>
     <g id="text_7">
      <!-- 20 -->
      <g style="fill: #37539c" transform="translate(25.0025 204.918228) scale(0.08 -0.08)">
       <defs>
        <path id="OpenSans-Bold-32" d="M 3450 0 
L 256 0 
L 256 672 
L 1403 1831 
Q 1750 2188 1961 2427 
Q 2172 2666 2267 2862 
Q 2363 3059 2363 3284 
Q 2363 3556 2211 3692 
Q 2059 3828 1806 3828 
Q 1541 3828 1291 3706 
Q 1041 3584 769 3359 
L 244 3981 
Q 441 4150 661 4300 
Q 881 4450 1173 4542 
Q 1466 4634 1875 4634 
Q 2325 4634 2648 4471 
Q 2972 4309 3147 4029 
Q 3322 3750 3322 3397 
Q 3322 3019 3172 2706 
Q 3022 2394 2736 2087 
Q 2450 1781 2047 1409 
L 1459 856 
L 1459 813 
L 3450 813 
L 3450 0 
z
" transform="scale(0.015625)"/>
       </defs>
       <use xlink:href="#OpenSans-Bold-32"/>
       <use xlink:href="#OpenSans-Bold-30" x="57.177734"/>
      </g>
     </g>
    </g>
    <g id="ytick_4">
     <g id="line2d_10">
      <path d="M 41.15 149.918279 
L 420.1772 149.918279 
" clip-path="url(#p03eac061ec)" style="fill: none; stroke-dasharray: 2.96,1.28; stroke-dashoffset: 0; stroke: #b0b0b0; stroke-width: 0.8"/>
     </g>
     <g id="line2d_11">
      <g>
       <use xlink:href="#mec6cb808f7" x="41.15" y="149.918279" style="fill: #37539c; stroke: #37539c; stroke-width: 0.8"/>
      </g>
     </g>
     <g id="text_8">
      <!-- 30 -->
      <g style="fill: #37539c" transform="translate(25.0025 152.957654) scale(0.08 -0.08)">
       <defs>
        <path id="OpenSans-Bold-33" d="M 3272 3547 
Q 3272 3231 3140 3000 
Q 3009 2769 2786 2622 
Q 2563 2475 2284 2406 
L 2284 2388 
Q 2834 2319 3120 2050 
Q 3406 1781 3406 1331 
Q 3406 931 3211 615 
Q 3016 300 2609 118 
Q 2203 -63 1563 -63 
Q 1184 -63 857 -2 
Q 531 59 244 184 
L 244 1006 
Q 538 856 859 779 
Q 1181 703 1459 703 
Q 1978 703 2186 883 
Q 2394 1063 2394 1388 
Q 2394 1578 2297 1709 
Q 2200 1841 1961 1909 
Q 1722 1978 1294 1978 
L 947 1978 
L 947 2719 
L 1300 2719 
Q 1722 2719 1942 2798 
Q 2163 2878 2242 3017 
Q 2322 3156 2322 3334 
Q 2322 3578 2172 3715 
Q 2022 3853 1672 3853 
Q 1453 3853 1273 3798 
Q 1094 3744 950 3667 
Q 806 3591 697 3519 
L 250 4184 
Q 519 4378 880 4506 
Q 1241 4634 1741 4634 
Q 2447 4634 2859 4350 
Q 3272 4066 3272 3547 
z
" transform="scale(0.015625)"/>
       </defs>
       <use xlink:href="#OpenSans-Bold-33"/>
       <use xlink:href="#OpenSans-Bold-30" x="57.177734"/>
      </g>
     </g>
    </g>
    <g id="ytick_5">
     <g id="line2d_12">
      <path d="M 41.15 97.957705 
L 420.1772 97.957705 
" clip-path="url(#p03eac061ec)" style="fill: none; stroke-dasharray: 2.96,1.28; stroke-dashoffset: 0; stroke: #b0b0b0; stroke-width: 0.8"/>
     </g>
     <g id="line2d_13">
      <g>
       <use xlink:href="#mec6cb808f7" x="41.15" y="97.957705" style="fill: #37539c; stroke: #37539c; stroke-width: 0.8"/>
      </g>
     </g>
     <g id="text_9">
      <!-- 40 -->
      <g style="fill: #37539c" transform="translate(25.0025 100.99708) scale(0.08 -0.08)">
       <defs>
        <path id="OpenSans-Bold-34" d="M 3553 947 
L 3003 947 
L 3003 0 
L 2059 0 
L 2059 947 
L 109 947 
L 109 1619 
L 2113 4569 
L 3003 4569 
L 3003 1697 
L 3553 1697 
L 3553 947 
z
M 2059 1697 
L 2059 2472 
Q 2059 2581 2064 2731 
Q 2069 2881 2075 3031 
Q 2081 3181 2089 3298 
Q 2097 3416 2100 3463 
L 2075 3463 
Q 2016 3334 1950 3214 
Q 1884 3094 1797 2963 
L 959 1697 
L 2059 1697 
z
" transform="scale(0.015625)"/>
       </defs>
       <use xlink:href="#OpenSans-Bold-34"/>
       <use xlink:href="#OpenSans-Bold-30" x="57.177734"/>
      </g>
     </g>
    </g>
    <g id="ytick_6">
     <g id="line2d_14">
      <path d="M 41.15 45.997131 
L 420.1772 45.997131 
" clip-path="url(#p03eac061ec)" style="fill: none; stroke-dasharray: 2.96,1.28; stroke-dashoffset: 0; stroke: #b0b0b0; stroke-width: 0.8"/>
     </g>
     <g id="line2d_15">
      <g>
       <use xlink:href="#mec6cb808f7" x="41.15" y="45.997131" style="fill: #37539c; stroke: #37539c; stroke-width: 0.8"/>
      </g>
     </g>
     <g id="text_10">
      <!-- 50 -->
      <g style="fill: #37539c" transform="translate(25.0025 49.036506) scale(0.08 -0.08)">
       <defs>
        <path id="OpenSans-Bold-35" d="M 1919 2919 
Q 2338 2919 2664 2759 
Q 2991 2600 3178 2290 
Q 3366 1981 3366 1528 
Q 3366 1034 3161 676 
Q 2956 319 2551 128 
Q 2147 -63 1544 -63 
Q 1184 -63 867 -2 
Q 550 59 313 184 
L 313 1019 
Q 550 894 883 808 
Q 1216 722 1509 722 
Q 1797 722 1994 798 
Q 2191 875 2292 1036 
Q 2394 1197 2394 1447 
Q 2394 1781 2169 1959 
Q 1944 2138 1478 2138 
Q 1300 2138 1108 2103 
Q 916 2069 788 2034 
L 403 2241 
L 575 4569 
L 3053 4569 
L 3053 3750 
L 1422 3750 
L 1338 2853 
Q 1444 2875 1569 2897 
Q 1694 2919 1919 2919 
z
" transform="scale(0.015625)"/>
       </defs>
       <use xlink:href="#OpenSans-Bold-35"/>
       <use xlink:href="#OpenSans-Bold-30" x="57.177734"/>
      </g>
     </g>
    </g>
    <g id="text_11">
     <!-- Porcentaje de estudiantes matrículadas mujeres -->
     <g style="fill: #37539c" transform="translate(18.599375 279.45625) rotate(-90) scale(0.1 -0.1)">
      <defs>
       <path id="OpenSans-Bold-6e" d="M 2484 3559 
Q 3044 3559 3384 3254 
Q 3725 2950 3725 2278 
L 3725 0 
L 2772 0 
L 2772 2041 
Q 2772 2416 2636 2606 
Q 2500 2797 2209 2797 
Q 1772 2797 1612 2500 
Q 1453 2203 1453 1644 
L 1453 0 
L 500 0 
L 500 3494 
L 1228 3494 
L 1356 3047 
L 1409 3047 
Q 1522 3228 1689 3340 
Q 1856 3453 2061 3506 
Q 2266 3559 2484 3559 
z
" transform="scale(0.015625)"/>
       <path id="OpenSans-Bold-6a" d="M 219 -1538 
Q 56 -1538 -119 -1514 
Q -294 -1491 -409 -1459 
L -409 -709 
Q -294 -741 -192 -755 
Q -91 -769 38 -769 
Q 231 -769 365 -661 
Q 500 -553 500 -238 
L 500 3494 
L 1453 3494 
L 1453 -378 
Q 1453 -697 1331 -961 
Q 1209 -1225 937 -1381 
Q 666 -1538 219 -1538 
z
M 459 4397 
Q 459 4666 611 4764 
Q 763 4863 978 4863 
Q 1191 4863 1344 4764 
Q 1497 4666 1497 4397 
Q 1497 4131 1344 4029 
Q 1191 3928 978 3928 
Q 763 3928 611 4029 
Q 459 4131 459 4397 
z
" transform="scale(0.015625)"/>
       <path id="OpenSans-Bold-75" d="M 3706 3494 
L 3706 0 
L 2975 0 
L 2847 447 
L 2797 447 
Q 2684 269 2515 156 
Q 2347 44 2144 -9 
Q 1941 -63 1722 -63 
Q 1347 -63 1069 70 
Q 791 203 636 484 
Q 481 766 481 1216 
L 481 3494 
L 1434 3494 
L 1434 1453 
Q 1434 1078 1568 887 
Q 1703 697 1997 697 
Q 2288 697 2453 830 
Q 2619 963 2686 1220 
Q 2753 1478 2753 1850 
L 2753 3494 
L 3706 3494 
z
" transform="scale(0.015625)"/>
       <path id="OpenSans-Bold-6c" d="M 1453 0 
L 500 0 
L 500 4863 
L 1453 4863 
L 1453 0 
z
" transform="scale(0.015625)"/>
      </defs>
      <use xlink:href="#OpenSans-Bold-50"/>
      <use xlink:href="#OpenSans-Bold-6f" x="62.792969"/>
      <use xlink:href="#OpenSans-Bold-72" x="124.707031"/>
      <use xlink:href="#OpenSans-Bold-63" x="170.117188"/>
      <use xlink:href="#OpenSans-Bold-65" x="221.533203"/>
      <use xlink:href="#OpenSans-Bold-6e" x="280.615234"/>
      <use xlink:href="#OpenSans-Bold-74" x="346.337891"/>
      <use xlink:href="#OpenSans-Bold-61" x="389.746094"/>
      <use xlink:href="#OpenSans-Bold-6a" x="450.146484"/>
      <use xlink:href="#OpenSans-Bold-65" x="480.664062"/>
      <use xlink:href="#OpenSans-Bold-20" x="539.746094"/>
      <use xlink:href="#OpenSans-Bold-64" x="565.722656"/>
      <use xlink:href="#OpenSans-Bold-65" x="629.003906"/>
      <use xlink:href="#OpenSans-Bold-20" x="688.085938"/>
      <use xlink:href="#OpenSans-Bold-65" x="714.0625"/>
      <use xlink:href="#OpenSans-Bold-73" x="773.144531"/>
      <use xlink:href="#OpenSans-Bold-74" x="822.851562"/>
      <use xlink:href="#OpenSans-Bold-75" x="866.259766"/>
      <use xlink:href="#OpenSans-Bold-64" x="931.982422"/>
      <use xlink:href="#OpenSans-Bold-69" x="995.263672"/>
      <use xlink:href="#OpenSans-Bold-61" x="1025.78125"/>
      <use xlink:href="#OpenSans-Bold-6e" x="1086.181641"/>
      <use xlink:href="#OpenSans-Bold-74" x="1151.904297"/>
      <use xlink:href="#OpenSans-Bold-65" x="1195.3125"/>
      <use xlink:href="#OpenSans-Bold-73" x="1254.394531"/>
      <use xlink:href="#OpenSans-Bold-20" x="1304.101562"/>
      <use xlink:href="#OpenSans-Bold-6d" x="1330.078125"/>
      <use xlink:href="#OpenSans-Bold-61" x="1428.271484"/>
      <use xlink:href="#OpenSans-Bold-74" x="1488.671875"/>
      <use xlink:href="#OpenSans-Bold-72" x="1532.080078"/>
      <use xlink:href="#OpenSans-Bold-ed" x="1577.490234"/>
      <use xlink:href="#OpenSans-Bold-63" x="1608.007812"/>
      <use xlink:href="#OpenSans-Bold-75" x="1659.423828"/>
      <use xlink:href="#OpenSans-Bold-6c" x="1725.146484"/>
      <use xlink:href="#OpenSans-Bold-61" x="1755.664062"/>
      <use xlink:href="#OpenSans-Bold-64" x="1816.064453"/>
      <use xlink:href="#OpenSans-Bold-61" x="1879.345703"/>
      <use xlink:href="#OpenSans-Bold-73" x="1939.746094"/>
      <use xlink:href="#OpenSans-Bold-20" x="1989.453125"/>
      <use xlink:href="#OpenSans-Bold-6d" x="2015.429688"/>
      <use xlink:href="#OpenSans-Bold-75" x="2113.623047"/>
      <use xlink:href="#OpenSans-Bold-6a" x="2179.345703"/>
      <use xlink:href="#OpenSans-Bold-65" x="2209.863281"/>
      <use xlink:href="#OpenSans-Bold-72" x="2268.945312"/>
      <use xlink:href="#OpenSans-Bold-65" x="2314.355469"/>
      <use xlink:href="#OpenSans-Bold-73" x="2373.4375"/>
     </g>
    </g>
   </g>
   <g id="patch_3">
    <path d="M 373.810975 305.716863 
L 354.558116 305.716863 
Q 366.402716 305.716863 366.402716 303.63844 
L 366.402716 88.283166 
Q 366.402716 86.204743 354.558116 86.204743 
L 373.810975 86.204743 
Q 361.966375 86.204743 361.966375 88.283166 
L 361.966375 303.63844 
Q 361.966375 305.716863 373.810975 305.716863 
z
" clip-path="url(#p03eac061ec)" style="fill: #27355a"/>
   </g>
   <g id="patch_4">
    <path d="M 255.364975 305.716863 
L 236.112116 305.716863 
Q 247.956716 305.716863 247.956716 303.63844 
L 247.956716 48.567101 
Q 247.956716 46.488678 236.112116 46.488678 
L 255.364975 46.488678 
Q 243.520375 46.488678 243.520375 48.567101 
L 243.520375 303.63844 
Q 243.520375 305.716863 255.364975 305.716863 
z
" clip-path="url(#p03eac061ec)" style="fill: #27355a"/>
   </g>
   <g id="patch_5">
    <path d="M 136.918975 305.716863 
L 117.666116 305.716863 
Q 129.510716 305.716863 129.510716 303.63844 
L 129.510716 30.510802 
Q 129.510716 28.432379 117.666116 28.432379 
L 136.918975 28.432379 
Q 125.074375 28.432379 125.074375 30.510802 
L 125.074375 303.63844 
Q 125.074375 305.716863 136.918975 305.716863 
z
" clip-path="url(#p03eac061ec)" style="fill: #27355a"/>
   </g>
   <g id="patch_6">
    <path d="M 368.427066 305.716863 
L 349.174207 305.716863 
Q 361.018807 305.716863 361.018807 303.63844 
L 361.018807 86.213057 
Q 361.018807 84.134634 349.174207 84.134634 
L 368.427066 84.134634 
Q 356.582466 84.134634 356.582466 86.213057 
L 356.582466 303.63844 
Q 356.582466 305.716863 368.427066 305.716863 
z
" clip-path="url(#p03eac061ec)" style="fill: #2d3e6a"/>
   </g>
   <g id="patch_7">
    <path d="M 249.981066 305.716863 
L 230.728207 305.716863 
Q 242.572807 305.716863 242.572807 303.63844 
L 242.572807 42.832732 
Q 242.572807 40.754309 230.728207 40.754309 
L 249.981066 40.754309 
Q 238.136466 40.754309 238.136466 42.832732 
L 238.136466 303.63844 
Q 238.136466 305.716863 249.981066 305.716863 
z
" clip-path="url(#p03eac061ec)" style="fill: #2d3e6a"/>
   </g>
   <g id="patch_8">
    <path d="M 131.535066 305.716863 
L 112.282207 305.716863 
Q 124.126807 305.716863 124.126807 303.63844 
L 124.126807 28.888593 
Q 124.126807 26.81017 112.282207 26.81017 
L 131.535066 26.81017 
Q 119.690466 26.81017 119.690466 28.888593 
L 119.690466 303.63844 
Q 119.690466 305.716863 131.535066 305.716863 
z
" clip-path="url(#p03eac061ec)" style="fill: #2d3e6a"/>
   </g>
   <g id="patch_9">
    <path d="M 363.043157 305.716863 
L 343.790298 305.716863 
Q 355.634898 305.716863 355.634898 303.63844 
L 355.634898 86.343478 
Q 355.634898 84.265055 343.790298 84.265055 
L 363.043157 84.265055 
Q 351.198557 84.265055 351.198557 86.343478 
L 351.198557 303.63844 
Q 351.198557 305.716863 363.043157 305.716863 
z
" clip-path="url(#p03eac061ec)" style="fill: #33467a"/>
   </g>
   <g id="patch_10">
    <path d="M 244.597157 305.716863 
L 225.344298 305.716863 
Q 237.188898 305.716863 237.188898 303.63844 
L 237.188898 44.339069 
Q 237.188898 42.260647 225.344298 42.260647 
L 244.597157 42.260647 
Q 232.752557 42.260647 232.752557 44.339069 
L 232.752557 303.63844 
Q 232.752557 305.716863 244.597157 305.716863 
z
" clip-path="url(#p03eac061ec)" style="fill: #33467a"/>
   </g>
   <g id="patch_11">
    <path d="M 126.151157 305.716863 
L 106.898298 305.716863 
Q 118.742898 305.716863 118.742898 303.63844 
L 118.742898 27.009179 
Q 118.742898 24.930756 106.898298 24.930756 
L 126.151157 24.930756 
Q 114.306557 24.930756 114.306557 27.009179 
L 114.306557 303.63844 
Q 114.306557 305.716863 126.151157 305.716863 
z
" clip-path="url(#p03eac061ec)" style="fill: #33467a"/>
   </g>
   <g id="patch_12">
    <path d="M 357.659248 305.716863 
L 338.406389 305.716863 
Q 350.250989 305.716863 350.250989 303.63844 
L 350.250989 82.489042 
Q 350.250989 80.410619 338.406389 80.410619 
L 357.659248 80.410619 
Q 345.814648 80.410619 345.814648 82.489042 
L 345.814648 303.63844 
Q 345.814648 305.716863 357.659248 305.716863 
z
" clip-path="url(#p03eac061ec)" style="fill: #384f8a"/>
   </g>
   <g id="patch_13">
    <path d="M 239.213248 305.716863 
L 219.960389 305.716863 
Q 231.804989 305.716863 231.804989 303.63844 
L 231.804989 44.807754 
Q 231.804989 42.729331 219.960389 42.729331 
L 239.213248 42.729331 
Q 227.368648 42.729331 227.368648 44.807754 
L 227.368648 303.63844 
Q 227.368648 305.716863 239.213248 305.716863 
z
" clip-path="url(#p03eac061ec)" style="fill: #384f8a"/>
   </g>
   <g id="patch_14">
    <path d="M 120.767248 305.716863 
L 101.514389 305.716863 
Q 113.358989 305.716863 113.358989 303.63844 
L 113.358989 30.623868 
Q 113.358989 28.545445 101.514389 28.545445 
L 120.767248 28.545445 
Q 108.922648 28.545445 108.922648 30.623868 
L 108.922648 303.63844 
Q 108.922648 305.716863 120.767248 305.716863 
z
" clip-path="url(#p03eac061ec)" style="fill: #384f8a"/>
   </g>
   <g id="patch_15">
    <path d="M 352.275339 305.716863 
L 333.02248 305.716863 
Q 344.86708 305.716863 344.86708 303.63844 
L 344.86708 82.7821 
Q 344.86708 80.703677 333.02248 80.703677 
L 352.275339 80.703677 
Q 340.430739 80.703677 340.430739 82.7821 
L 340.430739 303.63844 
Q 340.430739 305.716863 352.275339 305.716863 
z
" clip-path="url(#p03eac061ec)" style="fill: #3e579a"/>
   </g>
   <g id="patch_16">
    <path d="M 233.829339 305.716863 
L 214.57648 305.716863 
Q 226.42108 305.716863 226.42108 303.63844 
L 226.42108 45.459339 
Q 226.42108 43.380916 214.57648 43.380916 
L 233.829339 43.380916 
Q 221.984739 43.380916 221.984739 45.459339 
L 221.984739 303.63844 
Q 221.984739 305.716863 233.829339 305.716863 
z
" clip-path="url(#p03eac061ec)" style="fill: #3e579a"/>
   </g>
   <g id="patch_17">
    <path d="M 115.383339 305.716863 
L 96.13048 305.716863 
Q 107.97508 305.716863 107.97508 303.63844 
L 107.97508 32.72692 
Q 107.97508 30.648497 96.13048 30.648497 
L 115.383339 30.648497 
Q 103.538739 30.648497 103.538739 32.72692 
L 103.538739 303.63844 
Q 103.538739 305.716863 115.383339 305.716863 
z
" clip-path="url(#p03eac061ec)" style="fill: #3e579a"/>
   </g>
   <g id="patch_18">
    <path d="M 346.891429 305.716863 
L 327.638571 305.716863 
Q 339.483171 305.716863 339.483171 303.63844 
L 339.483171 87.238758 
Q 339.483171 85.160335 327.638571 85.160335 
L 346.891429 85.160335 
Q 335.046829 85.160335 335.046829 87.238758 
L 335.046829 303.63844 
Q 335.046829 305.716863 346.891429 305.716863 
z
" clip-path="url(#p03eac061ec)" style="fill: #4360aa"/>
   </g>
   <g id="patch_19">
    <path d="M 228.445429 305.716863 
L 209.192571 305.716863 
Q 221.037171 305.716863 221.037171 303.63844 
L 221.037171 44.550029 
Q 221.037171 42.471606 209.192571 42.471606 
L 228.445429 42.471606 
Q 216.600829 42.471606 216.600829 44.550029 
L 216.600829 303.63844 
Q 216.600829 305.716863 228.445429 305.716863 
z
" clip-path="url(#p03eac061ec)" style="fill: #4360aa"/>
   </g>
   <g id="patch_20">
    <path d="M 109.999429 305.716863 
L 90.746571 305.716863 
Q 102.591171 305.716863 102.591171 303.63844 
L 102.591171 33.009586 
Q 102.591171 30.931163 90.746571 30.931163 
L 109.999429 30.931163 
Q 98.154829 30.931163 98.154829 33.009586 
L 98.154829 303.63844 
Q 98.154829 305.716863 109.999429 305.716863 
z
" clip-path="url(#p03eac061ec)" style="fill: #4360aa"/>
   </g>
   <g id="patch_21">
    <path d="M 341.50752 305.716863 
L 322.254661 305.716863 
Q 334.099261 305.716863 334.099261 303.63844 
L 334.099261 85.956891 
Q 334.099261 83.878468 322.254661 83.878468 
L 341.50752 83.878468 
Q 329.66292 83.878468 329.66292 85.956891 
L 329.66292 303.63844 
Q 329.66292 305.716863 341.50752 305.716863 
z
" clip-path="url(#p03eac061ec)" style="fill: #4a69b9"/>
   </g>
   <g id="patch_22">
    <path d="M 223.06152 305.716863 
L 203.808661 305.716863 
Q 215.653261 305.716863 215.653261 303.63844 
L 215.653261 48.315612 
Q 215.653261 46.237189 203.808661 46.237189 
L 223.06152 46.237189 
Q 211.21692 46.237189 211.21692 48.315612 
L 211.21692 303.63844 
Q 211.21692 305.716863 223.06152 305.716863 
z
" clip-path="url(#p03eac061ec)" style="fill: #4a69b9"/>
   </g>
   <g id="patch_23">
    <path d="M 104.61552 305.716863 
L 85.362661 305.716863 
Q 97.207261 305.716863 97.207261 303.63844 
L 97.207261 34.771049 
Q 97.207261 32.692626 85.362661 32.692626 
L 104.61552 32.692626 
Q 92.77092 32.692626 92.77092 34.771049 
L 92.77092 303.63844 
Q 92.77092 305.716863 104.61552 305.716863 
z
" clip-path="url(#p03eac061ec)" style="fill: #4a69b9"/>
   </g>
   <g id="patch_24">
    <path d="M 336.123611 305.716863 
L 316.870752 305.716863 
Q 328.715352 305.716863 328.715352 303.63844 
L 328.715352 82.502552 
Q 328.715352 80.424129 316.870752 80.424129 
L 336.123611 80.424129 
Q 324.279011 80.424129 324.279011 82.502552 
L 324.279011 303.63844 
Q 324.279011 305.716863 336.123611 305.716863 
z
" clip-path="url(#p03eac061ec)" style="fill: #5976c0"/>
   </g>
   <g id="patch_25">
    <path d="M 217.677611 305.716863 
L 198.424752 305.716863 
Q 210.269352 305.716863 210.269352 303.63844 
L 210.269352 49.586568 
Q 210.269352 47.508145 198.424752 47.508145 
L 217.677611 47.508145 
Q 205.833011 47.508145 205.833011 49.586568 
L 205.833011 303.63844 
Q 205.833011 305.716863 217.677611 305.716863 
z
" clip-path="url(#p03eac061ec)" style="fill: #5976c0"/>
   </g>
   <g id="patch_26">
    <path d="M 99.231611 305.716863 
L 79.978752 305.716863 
Q 91.823352 305.716863 91.823352 303.63844 
L 91.823352 36.93209 
Q 91.823352 34.853667 79.978752 34.853667 
L 99.231611 34.853667 
Q 87.387011 34.853667 87.387011 36.93209 
L 87.387011 303.63844 
Q 87.387011 305.716863 99.231611 305.716863 
z
" clip-path="url(#p03eac061ec)" style="fill: #5976c0"/>
   </g>
   <g id="patch_27">
    <path d="M 330.739702 305.716863 
L 311.486843 305.716863 
Q 323.331443 305.716863 323.331443 303.63844 
L 323.331443 85.43157 
Q 323.331443 83.353147 311.486843 83.353147 
L 330.739702 83.353147 
Q 318.895102 83.353147 318.895102 85.43157 
L 318.895102 303.63844 
Q 318.895102 305.716863 330.739702 305.716863 
z
" clip-path="url(#p03eac061ec)" style="fill: #6882c7"/>
   </g>
   <g id="patch_28">
    <path d="M 212.293702 305.716863 
L 193.040843 305.716863 
Q 204.885443 305.716863 204.885443 303.63844 
L 204.885443 47.325244 
Q 204.885443 45.246821 193.040843 45.246821 
L 212.293702 45.246821 
Q 200.449102 45.246821 200.449102 47.325244 
L 200.449102 303.63844 
Q 200.449102 305.716863 212.293702 305.716863 
z
" clip-path="url(#p03eac061ec)" style="fill: #6882c7"/>
   </g>
   <g id="patch_29">
    <path d="M 93.847702 305.716863 
L 74.594843 305.716863 
Q 86.439443 305.716863 86.439443 303.63844 
L 86.439443 38.966346 
Q 86.439443 36.887923 74.594843 36.887923 
L 93.847702 36.887923 
Q 82.003102 36.887923 82.003102 38.966346 
L 82.003102 303.63844 
Q 82.003102 305.716863 93.847702 305.716863 
z
" clip-path="url(#p03eac061ec)" style="fill: #6882c7"/>
   </g>
   <g id="patch_30">
    <path d="M 325.355793 305.716863 
L 306.102934 305.716863 
Q 317.947534 305.716863 317.947534 303.63844 
L 317.947534 81.023235 
Q 317.947534 78.944812 306.102934 78.944812 
L 325.355793 78.944812 
Q 313.511193 78.944812 313.511193 81.023235 
L 313.511193 303.63844 
Q 313.511193 305.716863 325.355793 305.716863 
z
" clip-path="url(#p03eac061ec)" style="fill: #778fce"/>
   </g>
   <g id="patch_31">
    <path d="M 206.909793 305.716863 
L 187.656934 305.716863 
Q 199.501534 305.716863 199.501534 303.63844 
L 199.501534 52.643928 
Q 199.501534 50.565505 187.656934 50.565505 
L 206.909793 50.565505 
Q 195.065193 50.565505 195.065193 52.643928 
L 195.065193 303.63844 
Q 195.065193 305.716863 206.909793 305.716863 
z
" clip-path="url(#p03eac061ec)" style="fill: #778fce"/>
   </g>
   <g id="patch_32">
    <path d="M 88.463793 305.716863 
L 69.210934 305.716863 
Q 81.055534 305.716863 81.055534 303.63844 
L 81.055534 38.881131 
Q 81.055534 36.802708 69.210934 36.802708 
L 88.463793 36.802708 
Q 76.619193 36.802708 76.619193 38.881131 
L 76.619193 303.63844 
Q 76.619193 305.716863 88.463793 305.716863 
z
" clip-path="url(#p03eac061ec)" style="fill: #778fce"/>
   </g>
   <g id="patch_33">
    <path d="M 319.971884 305.716863 
L 300.719025 305.716863 
Q 312.563625 305.716863 312.563625 303.63844 
L 312.563625 76.914192 
Q 312.563625 74.835769 300.719025 74.835769 
L 319.971884 74.835769 
Q 308.127284 74.835769 308.127284 76.914192 
L 308.127284 303.63844 
Q 308.127284 305.716863 319.971884 305.716863 
z
" clip-path="url(#p03eac061ec)" style="fill: #869cd4"/>
   </g>
   <g id="patch_34">
    <path d="M 201.525884 305.716863 
L 182.273025 305.716863 
Q 194.117625 305.716863 194.117625 303.63844 
L 194.117625 39.174188 
Q 194.117625 37.095765 182.273025 37.095765 
L 201.525884 37.095765 
Q 189.681284 37.095765 189.681284 39.174188 
L 189.681284 303.63844 
Q 189.681284 305.716863 201.525884 305.716863 
z
" clip-path="url(#p03eac061ec)" style="fill: #869cd4"/>
   </g>
   <g id="patch_35">
    <path d="M 83.079884 305.716863 
L 63.827025 305.716863 
Q 75.671625 305.716863 75.671625 303.63844 
L 75.671625 39.875137 
Q 75.671625 37.796714 63.827025 37.796714 
L 83.079884 37.796714 
Q 71.235284 37.796714 71.235284 39.875137 
L 71.235284 303.63844 
Q 71.235284 305.716863 83.079884 305.716863 
z
" clip-path="url(#p03eac061ec)" style="fill: #869cd4"/>
   </g>
   <g id="patch_36">
    <path d="M 41.15 305.8 
L 41.15 10.8 
" style="fill: none; stroke: #000000; stroke-width: 0.8; stroke-linejoin: miter; stroke-linecap: square"/>
   </g>
   <g id="patch_37">
    <path d="M 41.15 305.8 
L 420.1772 305.8 
" style="fill: none; stroke: #000000; stroke-width: 0.8; stroke-linejoin: miter; stroke-linecap: square"/>
   </g>
   <g id="text_12">
    <!-- 51.59% -->
    <g style="fill: #37539c" transform="translate(59.56158 30.791077) scale(0.08 -0.08)">
     <defs>
      <path id="OpenSans-Bold-2e" d="M 366 447 
Q 366 741 527 859 
Q 688 978 916 978 
Q 1138 978 1298 859 
Q 1459 741 1459 447 
Q 1459 166 1298 41 
Q 1138 -84 916 -84 
Q 688 -84 527 41 
Q 366 166 366 447 
z
" transform="scale(0.015625)"/>
      <path id="OpenSans-Bold-39" d="M 3431 2619 
Q 3431 2225 3373 1837 
Q 3316 1450 3172 1108 
Q 3028 766 2768 502 
Q 2509 238 2109 87 
Q 1709 -63 1141 -63 
Q 1006 -63 825 -52 
Q 644 -41 525 -19 
L 525 756 
Q 650 725 790 708 
Q 931 691 1075 691 
Q 1647 691 1958 872 
Q 2269 1053 2395 1375 
Q 2522 1697 2541 2119 
L 2503 2119 
Q 2413 1969 2289 1848 
Q 2166 1728 1975 1658 
Q 1784 1588 1491 1588 
Q 1100 1588 811 1758 
Q 522 1928 364 2251 
Q 206 2575 206 3034 
Q 206 3531 395 3886 
Q 584 4241 934 4431 
Q 1284 4622 1759 4622 
Q 2109 4622 2412 4501 
Q 2716 4381 2945 4134 
Q 3175 3888 3303 3509 
Q 3431 3131 3431 2619 
z
M 1778 3847 
Q 1497 3847 1319 3653 
Q 1141 3459 1141 3047 
Q 1141 2716 1294 2522 
Q 1447 2328 1759 2328 
Q 1975 2328 2134 2423 
Q 2294 2519 2383 2664 
Q 2472 2809 2472 2963 
Q 2472 3122 2428 3278 
Q 2384 3434 2296 3562 
Q 2209 3691 2079 3769 
Q 1950 3847 1778 3847 
z
" transform="scale(0.015625)"/>
      <path id="OpenSans-Bold-25" d="M 1275 4634 
Q 1813 4634 2091 4259 
Q 2369 3884 2369 3206 
Q 2369 2528 2106 2147 
Q 1844 1766 1275 1766 
Q 747 1766 472 2147 
Q 197 2528 197 3206 
Q 197 3884 455 4259 
Q 713 4634 1275 4634 
z
M 1281 3981 
Q 1128 3981 1056 3787 
Q 984 3594 984 3200 
Q 984 2806 1056 2609 
Q 1128 2413 1281 2413 
Q 1434 2413 1507 2608 
Q 1581 2803 1581 3200 
Q 1581 3594 1507 3787 
Q 1434 3981 1281 3981 
z
M 4519 4569 
L 1984 0 
L 1234 0 
L 3769 4569 
L 4519 4569 
z
M 4475 2809 
Q 5013 2809 5291 2434 
Q 5569 2059 5569 1381 
Q 5569 706 5306 325 
Q 5044 -56 4475 -56 
Q 3947 -56 3672 325 
Q 3397 706 3397 1381 
Q 3397 2059 3655 2434 
Q 3913 2809 4475 2809 
z
M 4481 2156 
Q 4328 2156 4256 1962 
Q 4184 1769 4184 1375 
Q 4184 981 4256 784 
Q 4328 588 4481 588 
Q 4634 588 4707 783 
Q 4781 978 4781 1375 
Q 4781 1769 4707 1962 
Q 4634 2156 4481 2156 
z
" transform="scale(0.015625)"/>
     </defs>
     <use xlink:href="#OpenSans-Bold-35"/>
     <use xlink:href="#OpenSans-Bold-31" x="57.177734"/>
     <use xlink:href="#OpenSans-Bold-2e" x="114.355469"/>
     <use xlink:href="#OpenSans-Bold-35" x="142.871094"/>
     <use xlink:href="#OpenSans-Bold-39" x="200.048828"/>
     <use xlink:href="#OpenSans-Bold-25" x="257.226562"/>
    </g>
   </g>
   <g id="text_13">
    <!-- 51.73% -->
    <g style="fill: #37539c" transform="translate(178.00758 30.090129) scale(0.08 -0.08)">
     <defs>
      <path id="OpenSans-Bold-37" d="M 709 0 
L 2425 3756 
L 172 3756 
L 172 4569 
L 3450 4569 
L 3450 3963 
L 1722 0 
L 709 0 
z
" transform="scale(0.015625)"/>
     </defs>
     <use xlink:href="#OpenSans-Bold-35"/>
     <use xlink:href="#OpenSans-Bold-31" x="57.177734"/>
     <use xlink:href="#OpenSans-Bold-2e" x="114.355469"/>
     <use xlink:href="#OpenSans-Bold-37" x="142.871094"/>
     <use xlink:href="#OpenSans-Bold-33" x="200.048828"/>
     <use xlink:href="#OpenSans-Bold-25" x="257.226562"/>
    </g>
   </g>
   <g id="text_14">
    <!-- 44.47% -->
    <g style="fill: #37539c" transform="translate(296.45358 67.830132) scale(0.08 -0.08)">
     <use xlink:href="#OpenSans-Bold-34"/>
     <use xlink:href="#OpenSans-Bold-34" x="57.177734"/>
     <use xlink:href="#OpenSans-Bold-2e" x="114.355469"/>
     <use xlink:href="#OpenSans-Bold-34" x="142.871094"/>
     <use xlink:href="#OpenSans-Bold-37" x="200.048828"/>
     <use xlink:href="#OpenSans-Bold-25" x="257.226562"/>
    </g>
   </g>
   <g id="text_15">
    <!-- 53.40% -->
    <g style="fill: #37539c" transform="translate(113.40067 21.426742) scale(0.08 -0.08)">
     <use xlink:href="#OpenSans-Bold-35"/>
     <use xlink:href="#OpenSans-Bold-33" x="57.177734"/>
     <use xlink:href="#OpenSans-Bold-2e" x="114.355469"/>
     <use xlink:href="#OpenSans-Bold-34" x="142.871094"/>
     <use xlink:href="#OpenSans-Bold-30" x="200.048828"/>
     <use xlink:href="#OpenSans-Bold-25" x="257.226562"/>
    </g>
   </g>
   <g id="text_16">
    <!-- 49.92% -->
    <g style="fill: #37539c" transform="translate(231.84667 39.483041) scale(0.08 -0.08)">
     <use xlink:href="#OpenSans-Bold-34"/>
     <use xlink:href="#OpenSans-Bold-39" x="57.177734"/>
     <use xlink:href="#OpenSans-Bold-2e" x="114.355469"/>
     <use xlink:href="#OpenSans-Bold-39" x="142.871094"/>
     <use xlink:href="#OpenSans-Bold-32" x="200.048828"/>
     <use xlink:href="#OpenSans-Bold-25" x="257.226562"/>
    </g>
   </g>
   <g id="text_17">
    <!-- 42.28% -->
    <g style="fill: #37539c" transform="translate(350.29267 79.199106) scale(0.08 -0.08)">
     <defs>
      <path id="OpenSans-Bold-38" d="M 1831 4628 
Q 2225 4628 2558 4506 
Q 2891 4384 3091 4139 
Q 3291 3894 3291 3525 
Q 3291 3250 3183 3044 
Q 3075 2838 2890 2683 
Q 2706 2528 2472 2413 
Q 2716 2284 2934 2114 
Q 3153 1944 3292 1716 
Q 3431 1488 3431 1184 
Q 3431 803 3228 523 
Q 3025 244 2665 90 
Q 2306 -63 1831 -63 
Q 1319 -63 959 84 
Q 600 231 412 504 
Q 225 778 225 1159 
Q 225 1472 342 1703 
Q 459 1934 659 2101 
Q 859 2269 1100 2388 
Q 897 2516 730 2678 
Q 563 2841 464 3050 
Q 366 3259 366 3531 
Q 366 3894 570 4137 
Q 775 4381 1109 4504 
Q 1444 4628 1831 4628 
z
M 1119 1216 
Q 1119 969 1295 808 
Q 1472 647 1819 647 
Q 2178 647 2356 801 
Q 2534 956 2534 1209 
Q 2534 1384 2432 1515 
Q 2331 1647 2178 1751 
Q 2025 1856 1869 1947 
L 1784 1991 
Q 1584 1900 1436 1787 
Q 1288 1675 1203 1534 
Q 1119 1394 1119 1216 
z
M 1825 3922 
Q 1588 3922 1431 3800 
Q 1275 3678 1275 3456 
Q 1275 3300 1351 3183 
Q 1428 3066 1554 2978 
Q 1681 2891 1831 2816 
Q 1975 2884 2100 2968 
Q 2225 3053 2303 3172 
Q 2381 3291 2381 3456 
Q 2381 3678 2223 3800 
Q 2066 3922 1825 3922 
z
" transform="scale(0.015625)"/>
     </defs>
     <use xlink:href="#OpenSans-Bold-34"/>
     <use xlink:href="#OpenSans-Bold-32" x="57.177734"/>
     <use xlink:href="#OpenSans-Bold-2e" x="114.355469"/>
     <use xlink:href="#OpenSans-Bold-32" x="142.871094"/>
     <use xlink:href="#OpenSans-Bold-38" x="200.048828"/>
     <use xlink:href="#OpenSans-Bold-25" x="257.226562"/>
    </g>
   </g>
   <g id="legend_1">
    <g id="patch_38">
     <path d="M 403.035568 155.11375 
L 446.930568 155.11375 
Q 448.530568 155.11375 448.530568 153.51375 
L 448.530568 22.3 
Q 448.530568 20.7 446.930568 20.7 
L 403.035568 20.7 
Q 401.435568 20.7 401.435568 22.3 
L 401.435568 153.51375 
Q 401.435568 155.11375 403.035568 155.11375 
z
" style="fill: #ffffff; opacity: 0.8; stroke: #cccccc; stroke-linejoin: miter"/>
    </g>
    <g id="patch_39">
     <path d="M 404.635568 29.97875 
L 420.635568 29.97875 
L 420.635568 24.37875 
L 404.635568 24.37875 
z
" style="fill: #869cd4"/>
    </g>
    <g id="text_18">
     <!-- 2013 -->
     <g style="fill: #37539c" transform="translate(427.035568 29.97875) scale(0.08 -0.08)">
      <use xlink:href="#OpenSans-Bold-32"/>
      <use xlink:href="#OpenSans-Bold-30" x="57.177734"/>
      <use xlink:href="#OpenSans-Bold-31" x="114.355469"/>
      <use xlink:href="#OpenSans-Bold-33" x="171.533203"/>
     </g>
    </g>
    <g id="patch_40">
     <path d="M 404.635568 41.98 
L 420.635568 41.98 
L 420.635568 36.38 
L 404.635568 36.38 
z
" style="fill: #778fce"/>
    </g>
    <g id="text_19">
     <!-- 2014 -->
     <g style="fill: #37539c" transform="translate(427.035568 41.98) scale(0.08 -0.08)">
      <use xlink:href="#OpenSans-Bold-32"/>
      <use xlink:href="#OpenSans-Bold-30" x="57.177734"/>
      <use xlink:href="#OpenSans-Bold-31" x="114.355469"/>
      <use xlink:href="#OpenSans-Bold-34" x="171.533203"/>
     </g>
    </g>
    <g id="patch_41">
     <path d="M 404.635568 53.98125 
L 420.635568 53.98125 
L 420.635568 48.38125 
L 404.635568 48.38125 
z
" style="fill: #6882c7"/>
    </g>
    <g id="text_20">
     <!-- 2015 -->
     <g style="fill: #37539c" transform="translate(427.035568 53.98125) scale(0.08 -0.08)">
      <use xlink:href="#OpenSans-Bold-32"/>
      <use xlink:href="#OpenSans-Bold-30" x="57.177734"/>
      <use xlink:href="#OpenSans-Bold-31" x="114.355469"/>
      <use xlink:href="#OpenSans-Bold-35" x="171.533203"/>
     </g>
    </g>
    <g id="patch_42">
     <path d="M 404.635568 65.9825 
L 420.635568 65.9825 
L 420.635568 60.3825 
L 404.635568 60.3825 
z
" style="fill: #5976c0"/>
    </g>
    <g id="text_21">
     <!-- 2016 -->
     <g style="fill: #37539c" transform="translate(427.035568 65.9825) scale(0.08 -0.08)">
      <defs>
       <path id="OpenSans-Bold-36" d="M 225 1941 
Q 225 2334 283 2720 
Q 341 3106 484 3448 
Q 628 3791 887 4055 
Q 1147 4319 1547 4470 
Q 1947 4622 2516 4622 
Q 2650 4622 2829 4611 
Q 3009 4600 3128 4575 
L 3128 3803 
Q 3003 3831 2861 3848 
Q 2719 3866 2578 3866 
Q 2009 3866 1698 3684 
Q 1388 3503 1261 3183 
Q 1134 2863 1113 2438 
L 1153 2438 
Q 1241 2591 1373 2709 
Q 1506 2828 1697 2898 
Q 1888 2969 2144 2969 
Q 2544 2969 2837 2798 
Q 3131 2628 3290 2306 
Q 3450 1984 3450 1522 
Q 3450 1028 3259 672 
Q 3069 316 2720 126 
Q 2372 -63 1894 -63 
Q 1544 -63 1241 57 
Q 938 178 709 425 
Q 481 672 353 1048 
Q 225 1425 225 1941 
z
M 1875 709 
Q 2159 709 2337 903 
Q 2516 1097 2516 1509 
Q 2516 1844 2361 2036 
Q 2206 2228 1894 2228 
Q 1681 2228 1520 2133 
Q 1359 2038 1271 1892 
Q 1184 1747 1184 1594 
Q 1184 1434 1228 1278 
Q 1272 1122 1359 994 
Q 1447 866 1576 787 
Q 1706 709 1875 709 
z
" transform="scale(0.015625)"/>
      </defs>
      <use xlink:href="#OpenSans-Bold-32"/>
      <use xlink:href="#OpenSans-Bold-30" x="57.177734"/>
      <use xlink:href="#OpenSans-Bold-31" x="114.355469"/>
      <use xlink:href="#OpenSans-Bold-36" x="171.533203"/>
     </g>
    </g>
    <g id="patch_43">
     <path d="M 404.635568 77.98375 
L 420.635568 77.98375 
L 420.635568 72.38375 
L 404.635568 72.38375 
z
" style="fill: #4a69b9"/>
    </g>
    <g id="text_22">
     <!-- 2017 -->
     <g style="fill: #37539c" transform="translate(427.035568 77.98375) scale(0.08 -0.08)">
      <use xlink:href="#OpenSans-Bold-32"/>
      <use xlink:href="#OpenSans-Bold-30" x="57.177734"/>
      <use xlink:href="#OpenSans-Bold-31" x="114.355469"/>
      <use xlink:href="#OpenSans-Bold-37" x="171.533203"/>
     </g>
    </g>
    <g id="patch_44">
     <path d="M 404.635568 89.985 
L 420.635568 89.985 
L 420.635568 84.385 
L 404.635568 84.385 
z
" style="fill: #4360aa"/>
    </g>
    <g id="text_23">
     <!-- 2018 -->
     <g style="fill: #37539c" transform="translate(427.035568 89.985) scale(0.08 -0.08)">
      <use xlink:href="#OpenSans-Bold-32"/>
      <use xlink:href="#OpenSans-Bold-30" x="57.177734"/>
      <use xlink:href="#OpenSans-Bold-31" x="114.355469"/>
      <use xlink:href="#OpenSans-Bold-38" x="171.533203"/>
     </g>
    </g>
    <g id="patch_45">
     <path d="M 404.635568 101.98625 
L 420.635568 101.98625 
L 420.635568 96.38625 
L 404.635568 96.38625 
z
" style="fill: #3e579a"/>
    </g>
    <g id="text_24">
     <!-- 2019 -->
     <g style="fill: #37539c" transform="translate(427.035568 101.98625) scale(0.08 -0.08)">
      <use xlink:href="#OpenSans-Bold-32"/>
      <use xlink:href="#OpenSans-Bold-30" x="57.177734"/>
      <use xlink:href="#OpenSans-Bold-31" x="114.355469"/>
      <use xlink:href="#OpenSans-Bold-39" x="171.533203"/>
     </g>
    </g>
    <g id="patch_46">
     <path d="M 404.635568 113.9875 
L 420.635568 113.9875 
L 420.635568 108.3875 
L 404.635568 108.3875 
z
" style="fill: #384f8a"/>
    </g>
    <g id="text_25">
     <!-- 2020 -->
     <g style="fill: #37539c" transform="translate(427.035568 113.9875) scale(0.08 -0.08)">
      <use xlink:href="#OpenSans-Bold-32"/>
      <use xlink:href="#OpenSans-Bold-30" x="57.177734"/>
      <use xlink:href="#OpenSans-Bold-32" x="114.355469"/>
      <use xlink:href="#OpenSans-Bold-30" x="171.533203"/>
     </g>
    </g>
    <g id="patch_47">
     <path d="M 404.635568 125.98875 
L 420.635568 125.98875 
L 420.635568 120.38875 
L 404.635568 120.38875 
z
" style="fill: #33467a"/>
    </g>
    <g id="text_26">
     <!-- 2021 -->
     <g style="fill: #37539c" transform="translate(427.035568 125.98875) scale(0.08 -0.08)">
      <use xlink:href="#OpenSans-Bold-32"/>
      <use xlink:href="#OpenSans-Bold-30" x="57.177734"/>
      <use xlink:href="#OpenSans-Bold-32" x="114.355469"/>
      <use xlink:href="#OpenSans-Bold-31" x="171.533203"/>
     </g>
    </g>
    <g id="patch_48">
     <path d="M 404.635568 137.99 
L 420.635568 137.99 
L 420.635568 132.39 
L 404.635568 132.39 
z
" style="fill: #2d3e6a"/>
    </g>
    <g id="text_27">
     <!-- 2022 -->
     <g style="fill: #37539c" transform="translate(427.035568 137.99) scale(0.08 -0.08)">
      <use xlink:href="#OpenSans-Bold-32"/>
      <use xlink:href="#OpenSans-Bold-30" x="57.177734"/>
      <use xlink:href="#OpenSans-Bold-32" x="114.355469"/>
      <use xlink:href="#OpenSans-Bold-32" x="171.533203"/>
     </g>
    </g>
    <g id="patch_49">
     <path d="M 404.635568 149.99125 
L 420.635568 149.99125 
L 420.635568 144.39125 
L 404.635568 144.39125 
z
" style="fill: #27355a"/>
    </g>
    <g id="text_28">
     <!-- 2023 -->
     <g style="fill: #37539c" transform="translate(427.035568 149.99125) scale(0.08 -0.08)">
      <use xlink:href="#OpenSans-Bold-32"/>
      <use xlink:href="#OpenSans-Bold-30" x="57.177734"/>
      <use xlink:href="#OpenSans-Bold-32" x="114.355469"/>
      <use xlink:href="#OpenSans-Bold-33" x="171.533203"/>
     </g>
    </g>
   </g>
  </g>
 </g>
 <defs>
  <clipPath id="p03eac061ec">
   <rect x="41.15" y="10.8" width="379.0272" height="295"/>
  </clipPath>
 </defs>
</svg>
