<?xml version="1.0" encoding="utf-8" standalone="no"?>
<!DOCTYPE svg PUBLIC "-//W3C//DTD SVG 1.1//EN"
  "http://www.w3.org/Graphics/SVG/1.1/DTD/svg11.dtd">
<svg xmlns:xlink="http://www.w3.org/1999/xlink" width="576pt" height="216pt" viewBox="0 0 576 216" xmlns="http://www.w3.org/2000/svg" version="1.1">
 <metadata>
  <rdf:RDF xmlns:dc="http://purl.org/dc/elements/1.1/" xmlns:cc="http://creativecommons.org/ns#" xmlns:rdf="http://www.w3.org/1999/02/22-rdf-syntax-ns#">
   <cc:Work>
    <dc:type rdf:resource="http://purl.org/dc/dcmitype/StillImage"/>
    <dc:date>2024-02-22T18:18:40.441531</dc:date>
    <dc:format>image/svg+xml</dc:format>
    <dc:creator>
     <cc:Agent>
      <dc:title>Matplotlib v3.7.1, https://matplotlib.org/</dc:title>
     </cc:Agent>
    </dc:creator>
   </cc:Work>
  </rdf:RDF>
 </metadata>
 <defs>
  <style type="text/css">*{stroke-linejoin: round; stroke-linecap: butt}</style>
 </defs>
 <g id="figure_1">
  <g id="patch_1">
   <path d="M 0 216 
L 576 216 
L 576 0 
L 0 0 
z
" style="fill: #ffffff"/>
  </g>
  <g id="axes_1">
   <g id="patch_2">
    <path d="M 35.08 188.12 
L 282.645 188.12 
L 282.645 10.8 
L 35.08 10.8 
z
" style="fill: #ffffff"/>
   </g>
   <g id="matplotlib.axis_1">
    <g id="xtick_1">
     <g id="line2d_1">
      <defs>
       <path id="mb00152fd64" d="M 0 0 
L 0 3.5 
" style="stroke: #37539c; stroke-width: 0.8"/>
      </defs>
      <g>
       <use xlink:href="#mb00152fd64" x="158.8625" y="188.12" style="fill: #37539c; stroke: #37539c; stroke-width: 0.8"/>
      </g>
     </g>
     <g id="text_1">
      <!-- Magíster -->
      <g style="fill: #37539c" transform="translate(136.897656 202.780937) scale(0.1 -0.1)">
       <defs>
        <path id="OpenSans-Bold-4d" d="M 2509 0 
L 1409 3584 
L 1381 3584 
Q 1388 3456 1402 3198 
Q 1416 2941 1428 2650 
Q 1441 2359 1441 2125 
L 1441 0 
L 575 0 
L 575 4569 
L 1894 4569 
L 2975 1075 
L 2994 1075 
L 4141 4569 
L 5459 4569 
L 5459 0 
L 4556 0 
L 4556 2163 
Q 4556 2378 4564 2659 
Q 4572 2941 4584 3195 
Q 4597 3450 4603 3578 
L 4575 3578 
L 3397 0 
L 2509 0 
z
" transform="scale(0.015625)"/>
        <path id="OpenSans-Bold-61" d="M 1931 3566 
Q 2634 3566 3009 3259 
Q 3384 2953 3384 2328 
L 3384 0 
L 2719 0 
L 2534 475 
L 2509 475 
Q 2359 288 2203 169 
Q 2047 50 1844 -6 
Q 1641 -63 1350 -63 
Q 1041 -63 795 56 
Q 550 175 409 420 
Q 269 666 269 1044 
Q 269 1600 659 1864 
Q 1050 2128 1831 2156 
L 2438 2175 
L 2438 2328 
Q 2438 2603 2294 2731 
Q 2150 2859 1894 2859 
Q 1641 2859 1397 2787 
Q 1153 2716 909 2606 
L 594 3250 
Q 872 3397 1217 3481 
Q 1563 3566 1931 3566 
z
M 2438 1619 
L 2069 1606 
Q 1606 1594 1426 1441 
Q 1247 1288 1247 1038 
Q 1247 819 1375 726 
Q 1503 634 1709 634 
Q 2016 634 2227 815 
Q 2438 997 2438 1331 
L 2438 1619 
z
" transform="scale(0.015625)"/>
        <path id="OpenSans-Bold-67" d="M 1522 -1538 
Q 791 -1538 405 -1283 
Q 19 -1028 19 -569 
Q 19 -253 216 -40 
Q 413 172 794 263 
Q 647 325 537 467 
Q 428 609 428 769 
Q 428 969 543 1101 
Q 659 1234 878 1363 
Q 603 1481 442 1743 
Q 281 2006 281 2363 
Q 281 2744 448 3011 
Q 616 3278 936 3418 
Q 1256 3559 1716 3559 
Q 1813 3559 1941 3546 
Q 2069 3534 2176 3518 
Q 2284 3503 2322 3494 
L 3541 3494 
L 3541 3009 
L 2994 2869 
Q 3069 2753 3106 2622 
Q 3144 2491 3144 2344 
Q 3144 1781 2751 1467 
Q 2359 1153 1663 1153 
Q 1497 1163 1350 1178 
Q 1278 1122 1240 1059 
Q 1203 997 1203 928 
Q 1203 859 1261 814 
Q 1319 769 1436 745 
Q 1553 722 1728 722 
L 2322 722 
Q 2897 722 3198 475 
Q 3500 228 3500 -250 
Q 3500 -863 2989 -1200 
Q 2478 -1538 1522 -1538 
z
M 1563 -916 
Q 1903 -916 2148 -852 
Q 2394 -788 2525 -670 
Q 2656 -553 2656 -391 
Q 2656 -259 2579 -182 
Q 2503 -106 2348 -75 
Q 2194 -44 1953 -44 
L 1459 -44 
Q 1284 -44 1145 -100 
Q 1006 -156 925 -257 
Q 844 -359 844 -494 
Q 844 -691 1033 -803 
Q 1222 -916 1563 -916 
z
M 1716 1734 
Q 1984 1734 2109 1900 
Q 2234 2066 2234 2350 
Q 2234 2666 2104 2823 
Q 1975 2981 1716 2981 
Q 1453 2981 1322 2823 
Q 1191 2666 1191 2350 
Q 1191 2066 1320 1900 
Q 1450 1734 1716 1734 
z
" transform="scale(0.015625)"/>
        <path id="OpenSans-Bold-ed" d="M 1453 0 
L 500 0 
L 500 3494 
L 1453 3494 
L 1453 0 
z
M 2203 4903 
L 2203 4838 
Q 2113 4750 1966 4622 
Q 1819 4494 1650 4355 
Q 1482 4216 1319 4089 
Q 1157 3963 1035 3878 
L 400 3878 
L 400 3963 
Q 503 4081 639 4245 
Q 775 4409 909 4584 
Q 1044 4759 1135 4903 
L 2203 4903 
z
" transform="scale(0.015625)"/>
        <path id="OpenSans-Bold-73" d="M 2938 1038 
Q 2938 681 2770 436 
Q 2603 191 2272 64 
Q 1941 -63 1447 -63 
Q 1081 -63 820 -16 
Q 559 31 294 141 
L 294 928 
Q 578 800 904 717 
Q 1231 634 1478 634 
Q 1756 634 1876 717 
Q 1997 800 1997 934 
Q 1997 1022 1948 1092 
Q 1900 1163 1740 1252 
Q 1581 1341 1241 1484 
Q 913 1622 702 1762 
Q 491 1903 389 2095 
Q 288 2288 288 2584 
Q 288 3069 664 3314 
Q 1041 3559 1672 3559 
Q 1997 3559 2292 3493 
Q 2588 3428 2900 3284 
L 2613 2597 
Q 2353 2709 2123 2781 
Q 1894 2853 1656 2853 
Q 1447 2853 1340 2797 
Q 1234 2741 1234 2625 
Q 1234 2541 1289 2475 
Q 1344 2409 1501 2329 
Q 1659 2250 1966 2125 
Q 2263 2003 2481 1870 
Q 2700 1738 2819 1542 
Q 2938 1347 2938 1038 
z
" transform="scale(0.015625)"/>
        <path id="OpenSans-Bold-74" d="M 1972 697 
Q 2128 697 2276 728 
Q 2425 759 2572 806 
L 2572 97 
Q 2419 28 2192 -17 
Q 1966 -63 1697 -63 
Q 1384 -63 1136 39 
Q 888 141 745 392 
Q 603 644 603 1094 
L 603 2778 
L 147 2778 
L 147 3181 
L 672 3500 
L 947 4238 
L 1556 4238 
L 1556 3494 
L 2534 3494 
L 2534 2778 
L 1556 2778 
L 1556 1094 
Q 1556 894 1670 795 
Q 1784 697 1972 697 
z
" transform="scale(0.015625)"/>
        <path id="OpenSans-Bold-65" d="M 1941 3559 
Q 2425 3559 2775 3373 
Q 3125 3188 3315 2834 
Q 3506 2481 3506 1972 
L 3506 1509 
L 1253 1509 
Q 1269 1106 1495 876 
Q 1722 647 2125 647 
Q 2459 647 2737 715 
Q 3016 784 3309 922 
L 3309 184 
Q 3050 56 2767 -3 
Q 2484 -63 2081 -63 
Q 1556 -63 1151 131 
Q 747 325 517 722 
Q 288 1119 288 1722 
Q 288 2334 495 2742 
Q 703 3150 1075 3354 
Q 1447 3559 1941 3559 
z
M 1947 2881 
Q 1669 2881 1486 2703 
Q 1303 2525 1275 2144 
L 2613 2144 
Q 2609 2356 2536 2522 
Q 2463 2688 2317 2784 
Q 2172 2881 1947 2881 
z
" transform="scale(0.015625)"/>
        <path id="OpenSans-Bold-72" d="M 2450 3559 
Q 2522 3559 2617 3551 
Q 2713 3544 2772 3531 
L 2700 2638 
Q 2653 2653 2567 2661 
Q 2481 2669 2419 2669 
Q 2234 2669 2061 2622 
Q 1888 2575 1750 2470 
Q 1613 2366 1533 2195 
Q 1453 2025 1453 1778 
L 1453 0 
L 500 0 
L 500 3494 
L 1222 3494 
L 1363 2906 
L 1409 2906 
Q 1513 3084 1667 3232 
Q 1822 3381 2020 3470 
Q 2219 3559 2450 3559 
z
" transform="scale(0.015625)"/>
       </defs>
       <use xlink:href="#OpenSans-Bold-4d"/>
       <use xlink:href="#OpenSans-Bold-61" x="94.287109"/>
       <use xlink:href="#OpenSans-Bold-67" x="154.6875"/>
       <use xlink:href="#OpenSans-Bold-ed" x="211.181641"/>
       <use xlink:href="#OpenSans-Bold-73" x="241.699219"/>
       <use xlink:href="#OpenSans-Bold-74" x="291.40625"/>
       <use xlink:href="#OpenSans-Bold-65" x="334.814453"/>
       <use xlink:href="#OpenSans-Bold-72" x="393.896484"/>
      </g>
     </g>
    </g>
   </g>
   <g id="matplotlib.axis_2">
    <g id="ytick_1">
     <g id="line2d_2">
      <path d="M 35.08 188.12 
L 282.645 188.12 
" clip-path="url(#p3c448abf1c)" style="fill: none; stroke-dasharray: 2.96,1.28; stroke-dashoffset: 0; stroke: #b0b0b0; stroke-width: 0.8"/>
     </g>
     <g id="line2d_3">
      <defs>
       <path id="mdb5f2d7ed2" d="M 0 0 
L -3.5 0 
" style="stroke: #37539c; stroke-width: 0.8"/>
      </defs>
      <g>
       <use xlink:href="#mdb5f2d7ed2" x="35.08" y="188.12" style="fill: #37539c; stroke: #37539c; stroke-width: 0.8"/>
      </g>
     </g>
     <g id="text_2">
      <!-- 0 -->
      <g style="fill: #37539c" transform="translate(22.362813 191.919219) scale(0.1 -0.1)">
       <defs>
        <path id="OpenSans-Bold-30" d="M 3425 2284 
Q 3425 1731 3339 1297 
Q 3253 863 3064 559 
Q 2875 256 2569 96 
Q 2263 -63 1825 -63 
Q 1275 -63 922 217 
Q 569 497 400 1023 
Q 231 1550 231 2284 
Q 231 3025 386 3551 
Q 541 4078 891 4359 
Q 1241 4641 1825 4641 
Q 2372 4641 2726 4361 
Q 3081 4081 3253 3554 
Q 3425 3028 3425 2284 
z
M 1191 2284 
Q 1191 1763 1248 1414 
Q 1306 1066 1443 891 
Q 1581 716 1825 716 
Q 2066 716 2205 889 
Q 2344 1063 2403 1411 
Q 2463 1759 2463 2284 
Q 2463 2806 2403 3156 
Q 2344 3506 2205 3682 
Q 2066 3859 1825 3859 
Q 1581 3859 1443 3682 
Q 1306 3506 1248 3156 
Q 1191 2806 1191 2284 
z
" transform="scale(0.015625)"/>
       </defs>
       <use xlink:href="#OpenSans-Bold-30"/>
      </g>
     </g>
    </g>
    <g id="ytick_2">
     <g id="line2d_4">
      <path d="M 35.08 146.006237 
L 282.645 146.006237 
" clip-path="url(#p3c448abf1c)" style="fill: none; stroke-dasharray: 2.96,1.28; stroke-dashoffset: 0; stroke: #b0b0b0; stroke-width: 0.8"/>
     </g>
     <g id="line2d_5">
      <g>
       <use xlink:href="#mdb5f2d7ed2" x="35.08" y="146.006237" style="fill: #37539c; stroke: #37539c; stroke-width: 0.8"/>
      </g>
     </g>
     <g id="text_3">
      <!-- 100 -->
      <g style="fill: #37539c" transform="translate(10.928438 149.805456) scale(0.1 -0.1)">
       <defs>
        <path id="OpenSans-Bold-31" d="M 2644 0 
L 1678 0 
L 1678 2644 
Q 1678 2753 1681 2914 
Q 1684 3075 1690 3245 
Q 1697 3416 1703 3553 
Q 1669 3513 1564 3414 
Q 1459 3316 1369 3238 
L 844 2816 
L 378 3397 
L 1850 4569 
L 2644 4569 
L 2644 0 
z
" transform="scale(0.015625)"/>
       </defs>
       <use xlink:href="#OpenSans-Bold-31"/>
       <use xlink:href="#OpenSans-Bold-30" x="57.177734"/>
       <use xlink:href="#OpenSans-Bold-30" x="114.355469"/>
      </g>
     </g>
    </g>
    <g id="ytick_3">
     <g id="line2d_6">
      <path d="M 35.08 103.892474 
L 282.645 103.892474 
" clip-path="url(#p3c448abf1c)" style="fill: none; stroke-dasharray: 2.96,1.28; stroke-dashoffset: 0; stroke: #b0b0b0; stroke-width: 0.8"/>
     </g>
     <g id="line2d_7">
      <g>
       <use xlink:href="#mdb5f2d7ed2" x="35.08" y="103.892474" style="fill: #37539c; stroke: #37539c; stroke-width: 0.8"/>
      </g>
     </g>
     <g id="text_4">
      <!-- 200 -->
      <g style="fill: #37539c" transform="translate(10.928438 107.691692) scale(0.1 -0.1)">
       <defs>
        <path id="OpenSans-Bold-32" d="M 3450 0 
L 256 0 
L 256 672 
L 1403 1831 
Q 1750 2188 1961 2427 
Q 2172 2666 2267 2862 
Q 2363 3059 2363 3284 
Q 2363 3556 2211 3692 
Q 2059 3828 1806 3828 
Q 1541 3828 1291 3706 
Q 1041 3584 769 3359 
L 244 3981 
Q 441 4150 661 4300 
Q 881 4450 1173 4542 
Q 1466 4634 1875 4634 
Q 2325 4634 2648 4471 
Q 2972 4309 3147 4029 
Q 3322 3750 3322 3397 
Q 3322 3019 3172 2706 
Q 3022 2394 2736 2087 
Q 2450 1781 2047 1409 
L 1459 856 
L 1459 813 
L 3450 813 
L 3450 0 
z
" transform="scale(0.015625)"/>
       </defs>
       <use xlink:href="#OpenSans-Bold-32"/>
       <use xlink:href="#OpenSans-Bold-30" x="57.177734"/>
       <use xlink:href="#OpenSans-Bold-30" x="114.355469"/>
      </g>
     </g>
    </g>
    <g id="ytick_4">
     <g id="line2d_8">
      <path d="M 35.08 61.77871 
L 282.645 61.77871 
" clip-path="url(#p3c448abf1c)" style="fill: none; stroke-dasharray: 2.96,1.28; stroke-dashoffset: 0; stroke: #b0b0b0; stroke-width: 0.8"/>
     </g>
     <g id="line2d_9">
      <g>
       <use xlink:href="#mdb5f2d7ed2" x="35.08" y="61.77871" style="fill: #37539c; stroke: #37539c; stroke-width: 0.8"/>
      </g>
     </g>
     <g id="text_5">
      <!-- 300 -->
      <g style="fill: #37539c" transform="translate(10.928438 65.577929) scale(0.1 -0.1)">
       <defs>
        <path id="OpenSans-Bold-33" d="M 3272 3547 
Q 3272 3231 3140 3000 
Q 3009 2769 2786 2622 
Q 2563 2475 2284 2406 
L 2284 2388 
Q 2834 2319 3120 2050 
Q 3406 1781 3406 1331 
Q 3406 931 3211 615 
Q 3016 300 2609 118 
Q 2203 -63 1563 -63 
Q 1184 -63 857 -2 
Q 531 59 244 184 
L 244 1006 
Q 538 856 859 779 
Q 1181 703 1459 703 
Q 1978 703 2186 883 
Q 2394 1063 2394 1388 
Q 2394 1578 2297 1709 
Q 2200 1841 1961 1909 
Q 1722 1978 1294 1978 
L 947 1978 
L 947 2719 
L 1300 2719 
Q 1722 2719 1942 2798 
Q 2163 2878 2242 3017 
Q 2322 3156 2322 3334 
Q 2322 3578 2172 3715 
Q 2022 3853 1672 3853 
Q 1453 3853 1273 3798 
Q 1094 3744 950 3667 
Q 806 3591 697 3519 
L 250 4184 
Q 519 4378 880 4506 
Q 1241 4634 1741 4634 
Q 2447 4634 2859 4350 
Q 3272 4066 3272 3547 
z
" transform="scale(0.015625)"/>
       </defs>
       <use xlink:href="#OpenSans-Bold-33"/>
       <use xlink:href="#OpenSans-Bold-30" x="57.177734"/>
       <use xlink:href="#OpenSans-Bold-30" x="114.355469"/>
      </g>
     </g>
    </g>
    <g id="ytick_5">
     <g id="line2d_10">
      <path d="M 35.08 19.664947 
L 282.645 19.664947 
" clip-path="url(#p3c448abf1c)" style="fill: none; stroke-dasharray: 2.96,1.28; stroke-dashoffset: 0; stroke: #b0b0b0; stroke-width: 0.8"/>
     </g>
     <g id="line2d_11">
      <g>
       <use xlink:href="#mdb5f2d7ed2" x="35.08" y="19.664947" style="fill: #37539c; stroke: #37539c; stroke-width: 0.8"/>
      </g>
     </g>
     <g id="text_6">
      <!-- 400 -->
      <g style="fill: #37539c" transform="translate(10.928438 23.464166) scale(0.1 -0.1)">
       <defs>
        <path id="OpenSans-Bold-34" d="M 3553 947 
L 3003 947 
L 3003 0 
L 2059 0 
L 2059 947 
L 109 947 
L 109 1619 
L 2113 4569 
L 3003 4569 
L 3003 1697 
L 3553 1697 
L 3553 947 
z
M 2059 1697 
L 2059 2472 
Q 2059 2581 2064 2731 
Q 2069 2881 2075 3031 
Q 2081 3181 2089 3298 
Q 2097 3416 2100 3463 
L 2075 3463 
Q 2016 3334 1950 3214 
Q 1884 3094 1797 2963 
L 959 1697 
L 2059 1697 
z
" transform="scale(0.015625)"/>
       </defs>
       <use xlink:href="#OpenSans-Bold-34"/>
       <use xlink:href="#OpenSans-Bold-30" x="57.177734"/>
       <use xlink:href="#OpenSans-Bold-30" x="114.355469"/>
      </g>
     </g>
    </g>
   </g>
   <g id="patch_3">
    <path d="M 218.2781 188.113262 
L 196.925619 188.113262 
Q 212.398431 188.113262 212.398431 187.944807 
L 212.398431 19.419003 
Q 212.398431 19.250548 196.925619 19.250548 
L 218.2781 19.250548 
Q 202.805287 19.250548 202.805287 19.419003 
L 202.805287 187.944807 
Q 202.805287 188.113262 218.2781 188.113262 
z
" clip-path="url(#p3c448abf1c)" style="fill: #2d3e6a"/>
   </g>
   <g id="patch_4">
    <path d="M 207.447131 188.113262 
L 186.09465 188.113262 
Q 201.567462 188.113262 201.567462 187.944807 
L 201.567462 26.157205 
Q 201.567462 25.98875 186.09465 25.98875 
L 207.447131 25.98875 
Q 191.974319 25.98875 191.974319 26.157205 
L 191.974319 187.944807 
Q 191.974319 188.113262 207.447131 188.113262 
z
" clip-path="url(#p3c448abf1c)" style="fill: #33467a"/>
   </g>
   <g id="patch_5">
    <path d="M 196.616162 188.113262 
L 175.263681 188.113262 
Q 190.736494 188.113262 190.736494 187.944807 
L 190.736494 30.789719 
Q 190.736494 30.621264 175.263681 30.621264 
L 196.616162 30.621264 
Q 181.14335 30.621264 181.14335 30.789719 
L 181.14335 187.944807 
Q 181.14335 188.113262 196.616162 188.113262 
z
" clip-path="url(#p3c448abf1c)" style="fill: #384f8a"/>
   </g>
   <g id="patch_6">
    <path d="M 185.785194 188.113262 
L 164.432712 188.113262 
Q 179.905525 188.113262 179.905525 187.944807 
L 179.905525 35.422233 
Q 179.905525 35.253778 164.432712 35.253778 
L 185.785194 35.253778 
Q 170.312381 35.253778 170.312381 35.422233 
L 170.312381 187.944807 
Q 170.312381 188.113262 185.785194 188.113262 
z
" clip-path="url(#p3c448abf1c)" style="fill: #3e579a"/>
   </g>
   <g id="patch_7">
    <path d="M 174.954225 188.113262 
L 153.601744 188.113262 
Q 169.074556 188.113262 169.074556 187.944807 
L 169.074556 37.106783 
Q 169.074556 36.938328 153.601744 36.938328 
L 174.954225 36.938328 
Q 159.481412 36.938328 159.481412 37.106783 
L 159.481412 187.944807 
Q 159.481412 188.113262 174.954225 188.113262 
z
" clip-path="url(#p3c448abf1c)" style="fill: #4360aa"/>
   </g>
   <g id="patch_8">
    <path d="M 164.123256 188.113262 
L 142.770775 188.113262 
Q 158.243587 188.113262 158.243587 187.944807 
L 158.243587 47.214086 
Q 158.243587 47.045631 142.770775 47.045631 
L 164.123256 47.045631 
Q 148.650444 47.045631 148.650444 47.214086 
L 148.650444 187.944807 
Q 148.650444 188.113262 164.123256 188.113262 
z
" clip-path="url(#p3c448abf1c)" style="fill: #4a69b9"/>
   </g>
   <g id="patch_9">
    <path d="M 153.292287 188.113262 
L 131.939806 188.113262 
Q 147.412619 188.113262 147.412619 187.944807 
L 147.412619 55.215702 
Q 147.412619 55.047246 131.939806 55.047246 
L 153.292287 55.047246 
Q 137.819475 55.047246 137.819475 55.215702 
L 137.819475 187.944807 
Q 137.819475 188.113262 153.292287 188.113262 
z
" clip-path="url(#p3c448abf1c)" style="fill: #5976c0"/>
   </g>
   <g id="patch_10">
    <path d="M 142.461319 188.113262 
L 121.108837 188.113262 
Q 136.58165 188.113262 136.58165 187.944807 
L 136.58165 54.794564 
Q 136.58165 54.626109 121.108837 54.626109 
L 142.461319 54.626109 
Q 126.988506 54.626109 126.988506 54.794564 
L 126.988506 187.944807 
Q 126.988506 188.113262 142.461319 188.113262 
z
" clip-path="url(#p3c448abf1c)" style="fill: #6882c7"/>
   </g>
   <g id="patch_11">
    <path d="M 131.63035 188.113262 
L 110.277869 188.113262 
Q 125.750681 188.113262 125.750681 187.944807 
L 125.750681 59.427078 
Q 125.750681 59.258623 110.277869 59.258623 
L 131.63035 59.258623 
Q 116.157537 59.258623 116.157537 59.427078 
L 116.157537 187.944807 
Q 116.157537 188.113262 131.63035 188.113262 
z
" clip-path="url(#p3c448abf1c)" style="fill: #778fce"/>
   </g>
   <g id="patch_12">
    <path d="M 120.799381 188.113262 
L 99.4469 188.113262 
Q 114.919713 188.113262 114.919713 187.944807 
L 114.919713 72.061207 
Q 114.919713 71.892752 99.4469 71.892752 
L 120.799381 71.892752 
Q 105.326569 71.892752 105.326569 72.061207 
L 105.326569 187.944807 
Q 105.326569 188.113262 120.799381 188.113262 
z
" clip-path="url(#p3c448abf1c)" style="fill: #869cd4"/>
   </g>
   <g id="patch_13">
    <path d="M 35.08 188.12 
L 35.08 10.8 
" style="fill: none; stroke: #000000; stroke-width: 0.8; stroke-linejoin: miter; stroke-linecap: square"/>
   </g>
   <g id="patch_14">
    <path d="M 35.08 188.12 
L 282.645 188.12 
" style="fill: none; stroke: #000000; stroke-width: 0.8; stroke-linejoin: miter; stroke-linecap: square"/>
   </g>
   <g id="legend_1">
    <g id="patch_15">
     <path d="M 233.15 137.2125 
L 277.045 137.2125 
Q 278.645 137.2125 278.645 135.6125 
L 278.645 16.4 
Q 278.645 14.8 277.045 14.8 
L 233.15 14.8 
Q 231.55 14.8 231.55 16.4 
L 231.55 135.6125 
Q 231.55 137.2125 233.15 137.2125 
z
" style="fill: #ffffff; opacity: 0.8; stroke: #cccccc; stroke-linejoin: miter"/>
    </g>
    <g id="patch_16">
     <path d="M 234.75 24.07875 
L 250.75 24.07875 
L 250.75 18.47875 
L 234.75 18.47875 
z
" style="fill: #869cd4"/>
    </g>
    <g id="text_7">
     <!-- 2013 -->
     <g style="fill: #37539c" transform="translate(257.15 24.07875) scale(0.08 -0.08)">
      <use xlink:href="#OpenSans-Bold-32"/>
      <use xlink:href="#OpenSans-Bold-30" x="57.177734"/>
      <use xlink:href="#OpenSans-Bold-31" x="114.355469"/>
      <use xlink:href="#OpenSans-Bold-33" x="171.533203"/>
     </g>
    </g>
    <g id="patch_17">
     <path d="M 234.75 36.08 
L 250.75 36.08 
L 250.75 30.48 
L 234.75 30.48 
z
" style="fill: #778fce"/>
    </g>
    <g id="text_8">
     <!-- 2014 -->
     <g style="fill: #37539c" transform="translate(257.15 36.08) scale(0.08 -0.08)">
      <use xlink:href="#OpenSans-Bold-32"/>
      <use xlink:href="#OpenSans-Bold-30" x="57.177734"/>
      <use xlink:href="#OpenSans-Bold-31" x="114.355469"/>
      <use xlink:href="#OpenSans-Bold-34" x="171.533203"/>
     </g>
    </g>
    <g id="patch_18">
     <path d="M 234.75 48.08125 
L 250.75 48.08125 
L 250.75 42.48125 
L 234.75 42.48125 
z
" style="fill: #6882c7"/>
    </g>
    <g id="text_9">
     <!-- 2015 -->
     <g style="fill: #37539c" transform="translate(257.15 48.08125) scale(0.08 -0.08)">
      <defs>
       <path id="OpenSans-Bold-35" d="M 1919 2919 
Q 2338 2919 2664 2759 
Q 2991 2600 3178 2290 
Q 3366 1981 3366 1528 
Q 3366 1034 3161 676 
Q 2956 319 2551 128 
Q 2147 -63 1544 -63 
Q 1184 -63 867 -2 
Q 550 59 313 184 
L 313 1019 
Q 550 894 883 808 
Q 1216 722 1509 722 
Q 1797 722 1994 798 
Q 2191 875 2292 1036 
Q 2394 1197 2394 1447 
Q 2394 1781 2169 1959 
Q 1944 2138 1478 2138 
Q 1300 2138 1108 2103 
Q 916 2069 788 2034 
L 403 2241 
L 575 4569 
L 3053 4569 
L 3053 3750 
L 1422 3750 
L 1338 2853 
Q 1444 2875 1569 2897 
Q 1694 2919 1919 2919 
z
" transform="scale(0.015625)"/>
      </defs>
      <use xlink:href="#OpenSans-Bold-32"/>
      <use xlink:href="#OpenSans-Bold-30" x="57.177734"/>
      <use xlink:href="#OpenSans-Bold-31" x="114.355469"/>
      <use xlink:href="#OpenSans-Bold-35" x="171.533203"/>
     </g>
    </g>
    <g id="patch_19">
     <path d="M 234.75 60.0825 
L 250.75 60.0825 
L 250.75 54.4825 
L 234.75 54.4825 
z
" style="fill: #5976c0"/>
    </g>
    <g id="text_10">
     <!-- 2016 -->
     <g style="fill: #37539c" transform="translate(257.15 60.0825) scale(0.08 -0.08)">
      <defs>
       <path id="OpenSans-Bold-36" d="M 225 1941 
Q 225 2334 283 2720 
Q 341 3106 484 3448 
Q 628 3791 887 4055 
Q 1147 4319 1547 4470 
Q 1947 4622 2516 4622 
Q 2650 4622 2829 4611 
Q 3009 4600 3128 4575 
L 3128 3803 
Q 3003 3831 2861 3848 
Q 2719 3866 2578 3866 
Q 2009 3866 1698 3684 
Q 1388 3503 1261 3183 
Q 1134 2863 1113 2438 
L 1153 2438 
Q 1241 2591 1373 2709 
Q 1506 2828 1697 2898 
Q 1888 2969 2144 2969 
Q 2544 2969 2837 2798 
Q 3131 2628 3290 2306 
Q 3450 1984 3450 1522 
Q 3450 1028 3259 672 
Q 3069 316 2720 126 
Q 2372 -63 1894 -63 
Q 1544 -63 1241 57 
Q 938 178 709 425 
Q 481 672 353 1048 
Q 225 1425 225 1941 
z
M 1875 709 
Q 2159 709 2337 903 
Q 2516 1097 2516 1509 
Q 2516 1844 2361 2036 
Q 2206 2228 1894 2228 
Q 1681 2228 1520 2133 
Q 1359 2038 1271 1892 
Q 1184 1747 1184 1594 
Q 1184 1434 1228 1278 
Q 1272 1122 1359 994 
Q 1447 866 1576 787 
Q 1706 709 1875 709 
z
" transform="scale(0.015625)"/>
      </defs>
      <use xlink:href="#OpenSans-Bold-32"/>
      <use xlink:href="#OpenSans-Bold-30" x="57.177734"/>
      <use xlink:href="#OpenSans-Bold-31" x="114.355469"/>
      <use xlink:href="#OpenSans-Bold-36" x="171.533203"/>
     </g>
    </g>
    <g id="patch_20">
     <path d="M 234.75 72.08375 
L 250.75 72.08375 
L 250.75 66.48375 
L 234.75 66.48375 
z
" style="fill: #4a69b9"/>
    </g>
    <g id="text_11">
     <!-- 2017 -->
     <g style="fill: #37539c" transform="translate(257.15 72.08375) scale(0.08 -0.08)">
      <defs>
       <path id="OpenSans-Bold-37" d="M 709 0 
L 2425 3756 
L 172 3756 
L 172 4569 
L 3450 4569 
L 3450 3963 
L 1722 0 
L 709 0 
z
" transform="scale(0.015625)"/>
      </defs>
      <use xlink:href="#OpenSans-Bold-32"/>
      <use xlink:href="#OpenSans-Bold-30" x="57.177734"/>
      <use xlink:href="#OpenSans-Bold-31" x="114.355469"/>
      <use xlink:href="#OpenSans-Bold-37" x="171.533203"/>
     </g>
    </g>
    <g id="patch_21">
     <path d="M 234.75 84.085 
L 250.75 84.085 
L 250.75 78.485 
L 234.75 78.485 
z
" style="fill: #4360aa"/>
    </g>
    <g id="text_12">
     <!-- 2018 -->
     <g style="fill: #37539c" transform="translate(257.15 84.085) scale(0.08 -0.08)">
      <defs>
       <path id="OpenSans-Bold-38" d="M 1831 4628 
Q 2225 4628 2558 4506 
Q 2891 4384 3091 4139 
Q 3291 3894 3291 3525 
Q 3291 3250 3183 3044 
Q 3075 2838 2890 2683 
Q 2706 2528 2472 2413 
Q 2716 2284 2934 2114 
Q 3153 1944 3292 1716 
Q 3431 1488 3431 1184 
Q 3431 803 3228 523 
Q 3025 244 2665 90 
Q 2306 -63 1831 -63 
Q 1319 -63 959 84 
Q 600 231 412 504 
Q 225 778 225 1159 
Q 225 1472 342 1703 
Q 459 1934 659 2101 
Q 859 2269 1100 2388 
Q 897 2516 730 2678 
Q 563 2841 464 3050 
Q 366 3259 366 3531 
Q 366 3894 570 4137 
Q 775 4381 1109 4504 
Q 1444 4628 1831 4628 
z
M 1119 1216 
Q 1119 969 1295 808 
Q 1472 647 1819 647 
Q 2178 647 2356 801 
Q 2534 956 2534 1209 
Q 2534 1384 2432 1515 
Q 2331 1647 2178 1751 
Q 2025 1856 1869 1947 
L 1784 1991 
Q 1584 1900 1436 1787 
Q 1288 1675 1203 1534 
Q 1119 1394 1119 1216 
z
M 1825 3922 
Q 1588 3922 1431 3800 
Q 1275 3678 1275 3456 
Q 1275 3300 1351 3183 
Q 1428 3066 1554 2978 
Q 1681 2891 1831 2816 
Q 1975 2884 2100 2968 
Q 2225 3053 2303 3172 
Q 2381 3291 2381 3456 
Q 2381 3678 2223 3800 
Q 2066 3922 1825 3922 
z
" transform="scale(0.015625)"/>
      </defs>
      <use xlink:href="#OpenSans-Bold-32"/>
      <use xlink:href="#OpenSans-Bold-30" x="57.177734"/>
      <use xlink:href="#OpenSans-Bold-31" x="114.355469"/>
      <use xlink:href="#OpenSans-Bold-38" x="171.533203"/>
     </g>
    </g>
    <g id="patch_22">
     <path d="M 234.75 96.08625 
L 250.75 96.08625 
L 250.75 90.48625 
L 234.75 90.48625 
z
" style="fill: #3e579a"/>
    </g>
    <g id="text_13">
     <!-- 2019 -->
     <g style="fill: #37539c" transform="translate(257.15 96.08625) scale(0.08 -0.08)">
      <defs>
       <path id="OpenSans-Bold-39" d="M 3431 2619 
Q 3431 2225 3373 1837 
Q 3316 1450 3172 1108 
Q 3028 766 2768 502 
Q 2509 238 2109 87 
Q 1709 -63 1141 -63 
Q 1006 -63 825 -52 
Q 644 -41 525 -19 
L 525 756 
Q 650 725 790 708 
Q 931 691 1075 691 
Q 1647 691 1958 872 
Q 2269 1053 2395 1375 
Q 2522 1697 2541 2119 
L 2503 2119 
Q 2413 1969 2289 1848 
Q 2166 1728 1975 1658 
Q 1784 1588 1491 1588 
Q 1100 1588 811 1758 
Q 522 1928 364 2251 
Q 206 2575 206 3034 
Q 206 3531 395 3886 
Q 584 4241 934 4431 
Q 1284 4622 1759 4622 
Q 2109 4622 2412 4501 
Q 2716 4381 2945 4134 
Q 3175 3888 3303 3509 
Q 3431 3131 3431 2619 
z
M 1778 3847 
Q 1497 3847 1319 3653 
Q 1141 3459 1141 3047 
Q 1141 2716 1294 2522 
Q 1447 2328 1759 2328 
Q 1975 2328 2134 2423 
Q 2294 2519 2383 2664 
Q 2472 2809 2472 2963 
Q 2472 3122 2428 3278 
Q 2384 3434 2296 3562 
Q 2209 3691 2079 3769 
Q 1950 3847 1778 3847 
z
" transform="scale(0.015625)"/>
      </defs>
      <use xlink:href="#OpenSans-Bold-32"/>
      <use xlink:href="#OpenSans-Bold-30" x="57.177734"/>
      <use xlink:href="#OpenSans-Bold-31" x="114.355469"/>
      <use xlink:href="#OpenSans-Bold-39" x="171.533203"/>
     </g>
    </g>
    <g id="patch_23">
     <path d="M 234.75 108.0875 
L 250.75 108.0875 
L 250.75 102.4875 
L 234.75 102.4875 
z
" style="fill: #384f8a"/>
    </g>
    <g id="text_14">
     <!-- 2020 -->
     <g style="fill: #37539c" transform="translate(257.15 108.0875) scale(0.08 -0.08)">
      <use xlink:href="#OpenSans-Bold-32"/>
      <use xlink:href="#OpenSans-Bold-30" x="57.177734"/>
      <use xlink:href="#OpenSans-Bold-32" x="114.355469"/>
      <use xlink:href="#OpenSans-Bold-30" x="171.533203"/>
     </g>
    </g>
    <g id="patch_24">
     <path d="M 234.75 120.08875 
L 250.75 120.08875 
L 250.75 114.48875 
L 234.75 114.48875 
z
" style="fill: #33467a"/>
    </g>
    <g id="text_15">
     <!-- 2021 -->
     <g style="fill: #37539c" transform="translate(257.15 120.08875) scale(0.08 -0.08)">
      <use xlink:href="#OpenSans-Bold-32"/>
      <use xlink:href="#OpenSans-Bold-30" x="57.177734"/>
      <use xlink:href="#OpenSans-Bold-32" x="114.355469"/>
      <use xlink:href="#OpenSans-Bold-31" x="171.533203"/>
     </g>
    </g>
    <g id="patch_25">
     <path d="M 234.75 132.09 
L 250.75 132.09 
L 250.75 126.49 
L 234.75 126.49 
z
" style="fill: #2d3e6a"/>
    </g>
    <g id="text_16">
     <!-- 2022 -->
     <g style="fill: #37539c" transform="translate(257.15 132.09) scale(0.08 -0.08)">
      <use xlink:href="#OpenSans-Bold-32"/>
      <use xlink:href="#OpenSans-Bold-30" x="57.177734"/>
      <use xlink:href="#OpenSans-Bold-32" x="114.355469"/>
      <use xlink:href="#OpenSans-Bold-32" x="171.533203"/>
     </g>
    </g>
   </g>
  </g>
  <g id="axes_2">
   <g id="patch_26">
    <path d="M 317.635 188.12 
L 565.2 188.12 
L 565.2 10.8 
L 317.635 10.8 
z
" style="fill: #ffffff"/>
   </g>
   <g id="matplotlib.axis_3">
    <g id="xtick_2">
     <g id="line2d_12">
      <g>
       <use xlink:href="#mb00152fd64" x="441.4175" y="188.12" style="fill: #37539c; stroke: #37539c; stroke-width: 0.8"/>
      </g>
     </g>
     <g id="text_17">
      <!-- Doctorado -->
      <g style="fill: #37539c" transform="translate(415.231562 202.718437) scale(0.1 -0.1)">
       <defs>
        <path id="OpenSans-Bold-44" d="M 4366 2328 
Q 4366 1556 4070 1039 
Q 3775 522 3215 261 
Q 2656 0 1869 0 
L 575 0 
L 575 4569 
L 2009 4569 
Q 2728 4569 3256 4314 
Q 3784 4059 4075 3561 
Q 4366 3063 4366 2328 
z
M 3359 2303 
Q 3359 2809 3211 3136 
Q 3063 3463 2773 3619 
Q 2484 3775 2059 3775 
L 1544 3775 
L 1544 800 
L 1959 800 
Q 2669 800 3014 1178 
Q 3359 1556 3359 2303 
z
" transform="scale(0.015625)"/>
        <path id="OpenSans-Bold-6f" d="M 3675 1753 
Q 3675 1316 3558 978 
Q 3441 641 3217 408 
Q 2994 175 2680 56 
Q 2366 -63 1972 -63 
Q 1603 -63 1295 56 
Q 988 175 761 408 
Q 534 641 411 978 
Q 288 1316 288 1753 
Q 288 2334 494 2737 
Q 700 3141 1081 3350 
Q 1463 3559 1991 3559 
Q 2481 3559 2861 3350 
Q 3241 3141 3458 2737 
Q 3675 2334 3675 1753 
z
M 1259 1753 
Q 1259 1409 1334 1175 
Q 1409 941 1568 822 
Q 1728 703 1984 703 
Q 2238 703 2395 822 
Q 2553 941 2626 1175 
Q 2700 1409 2700 1753 
Q 2700 2100 2626 2329 
Q 2553 2559 2393 2675 
Q 2234 2791 1978 2791 
Q 1600 2791 1429 2531 
Q 1259 2272 1259 1753 
z
" transform="scale(0.015625)"/>
        <path id="OpenSans-Bold-63" d="M 1919 -63 
Q 1400 -63 1034 126 
Q 669 316 478 712 
Q 288 1109 288 1728 
Q 288 2369 505 2773 
Q 722 3178 1108 3368 
Q 1494 3559 2003 3559 
Q 2366 3559 2630 3489 
Q 2894 3419 3091 3322 
L 2809 2584 
Q 2584 2675 2390 2733 
Q 2197 2791 2003 2791 
Q 1753 2791 1587 2673 
Q 1422 2556 1340 2322 
Q 1259 2088 1259 1734 
Q 1259 1388 1346 1159 
Q 1434 931 1600 820 
Q 1766 709 2003 709 
Q 2300 709 2531 789 
Q 2763 869 2981 1013 
L 2981 197 
Q 2763 59 2523 -2 
Q 2284 -63 1919 -63 
z
" transform="scale(0.015625)"/>
        <path id="OpenSans-Bold-64" d="M 1606 -63 
Q 1022 -63 655 395 
Q 288 853 288 1741 
Q 288 2638 659 3098 
Q 1031 3559 1631 3559 
Q 1881 3559 2072 3490 
Q 2263 3422 2402 3306 
Q 2541 3191 2638 3047 
L 2669 3047 
Q 2650 3147 2623 3342 
Q 2597 3538 2597 3744 
L 2597 4863 
L 3553 4863 
L 3553 0 
L 2822 0 
L 2638 453 
L 2597 453 
Q 2506 309 2370 192 
Q 2234 75 2046 6 
Q 1859 -63 1606 -63 
z
M 1941 697 
Q 2331 697 2492 930 
Q 2653 1163 2663 1631 
L 2663 1734 
Q 2663 2244 2506 2514 
Q 2350 2784 1925 2784 
Q 1609 2784 1431 2512 
Q 1253 2241 1253 1728 
Q 1253 1216 1433 956 
Q 1613 697 1941 697 
z
" transform="scale(0.015625)"/>
       </defs>
       <use xlink:href="#OpenSans-Bold-44"/>
       <use xlink:href="#OpenSans-Bold-6f" x="74.023438"/>
       <use xlink:href="#OpenSans-Bold-63" x="135.9375"/>
       <use xlink:href="#OpenSans-Bold-74" x="187.353516"/>
       <use xlink:href="#OpenSans-Bold-6f" x="230.761719"/>
       <use xlink:href="#OpenSans-Bold-72" x="292.675781"/>
       <use xlink:href="#OpenSans-Bold-61" x="338.085938"/>
       <use xlink:href="#OpenSans-Bold-64" x="398.486328"/>
       <use xlink:href="#OpenSans-Bold-6f" x="461.767578"/>
      </g>
     </g>
    </g>
   </g>
   <g id="matplotlib.axis_4">
    <g id="ytick_6">
     <g id="line2d_13">
      <path d="M 317.635 188.12 
L 565.2 188.12 
" clip-path="url(#p2130097382)" style="fill: none; stroke-dasharray: 2.96,1.28; stroke-dashoffset: 0; stroke: #b0b0b0; stroke-width: 0.8"/>
     </g>
     <g id="line2d_14">
      <g>
       <use xlink:href="#mdb5f2d7ed2" x="317.635" y="188.12" style="fill: #37539c; stroke: #37539c; stroke-width: 0.8"/>
      </g>
     </g>
     <g id="text_18">
      <!-- 0 -->
      <g style="fill: #37539c" transform="translate(304.917812 191.919219) scale(0.1 -0.1)">
       <use xlink:href="#OpenSans-Bold-30"/>
      </g>
     </g>
    </g>
    <g id="ytick_7">
     <g id="line2d_15">
      <path d="M 317.635 165.899449 
L 565.2 165.899449 
" clip-path="url(#p2130097382)" style="fill: none; stroke-dasharray: 2.96,1.28; stroke-dashoffset: 0; stroke: #b0b0b0; stroke-width: 0.8"/>
     </g>
     <g id="line2d_16">
      <g>
       <use xlink:href="#mdb5f2d7ed2" x="317.635" y="165.899449" style="fill: #37539c; stroke: #37539c; stroke-width: 0.8"/>
      </g>
     </g>
     <g id="text_19">
      <!-- 25 -->
      <g style="fill: #37539c" transform="translate(299.200625 169.698667) scale(0.1 -0.1)">
       <use xlink:href="#OpenSans-Bold-32"/>
       <use xlink:href="#OpenSans-Bold-35" x="57.177734"/>
      </g>
     </g>
    </g>
    <g id="ytick_8">
     <g id="line2d_17">
      <path d="M 317.635 143.678897 
L 565.2 143.678897 
" clip-path="url(#p2130097382)" style="fill: none; stroke-dasharray: 2.96,1.28; stroke-dashoffset: 0; stroke: #b0b0b0; stroke-width: 0.8"/>
     </g>
     <g id="line2d_18">
      <g>
       <use xlink:href="#mdb5f2d7ed2" x="317.635" y="143.678897" style="fill: #37539c; stroke: #37539c; stroke-width: 0.8"/>
      </g>
     </g>
     <g id="text_20">
      <!-- 50 -->
      <g style="fill: #37539c" transform="translate(299.200625 147.478116) scale(0.1 -0.1)">
       <use xlink:href="#OpenSans-Bold-35"/>
       <use xlink:href="#OpenSans-Bold-30" x="57.177734"/>
      </g>
     </g>
    </g>
    <g id="ytick_9">
     <g id="line2d_19">
      <path d="M 317.635 121.458346 
L 565.2 121.458346 
" clip-path="url(#p2130097382)" style="fill: none; stroke-dasharray: 2.96,1.28; stroke-dashoffset: 0; stroke: #b0b0b0; stroke-width: 0.8"/>
     </g>
     <g id="line2d_20">
      <g>
       <use xlink:href="#mdb5f2d7ed2" x="317.635" y="121.458346" style="fill: #37539c; stroke: #37539c; stroke-width: 0.8"/>
      </g>
     </g>
     <g id="text_21">
      <!-- 75 -->
      <g style="fill: #37539c" transform="translate(299.200625 125.257565) scale(0.1 -0.1)">
       <use xlink:href="#OpenSans-Bold-37"/>
       <use xlink:href="#OpenSans-Bold-35" x="57.177734"/>
      </g>
     </g>
    </g>
    <g id="ytick_10">
     <g id="line2d_21">
      <path d="M 317.635 99.237794 
L 565.2 99.237794 
" clip-path="url(#p2130097382)" style="fill: none; stroke-dasharray: 2.96,1.28; stroke-dashoffset: 0; stroke: #b0b0b0; stroke-width: 0.8"/>
     </g>
     <g id="line2d_22">
      <g>
       <use xlink:href="#mdb5f2d7ed2" x="317.635" y="99.237794" style="fill: #37539c; stroke: #37539c; stroke-width: 0.8"/>
      </g>
     </g>
     <g id="text_22">
      <!-- 100 -->
      <g style="fill: #37539c" transform="translate(293.483437 103.037013) scale(0.1 -0.1)">
       <use xlink:href="#OpenSans-Bold-31"/>
       <use xlink:href="#OpenSans-Bold-30" x="57.177734"/>
       <use xlink:href="#OpenSans-Bold-30" x="114.355469"/>
      </g>
     </g>
    </g>
    <g id="ytick_11">
     <g id="line2d_23">
      <path d="M 317.635 77.017243 
L 565.2 77.017243 
" clip-path="url(#p2130097382)" style="fill: none; stroke-dasharray: 2.96,1.28; stroke-dashoffset: 0; stroke: #b0b0b0; stroke-width: 0.8"/>
     </g>
     <g id="line2d_24">
      <g>
       <use xlink:href="#mdb5f2d7ed2" x="317.635" y="77.017243" style="fill: #37539c; stroke: #37539c; stroke-width: 0.8"/>
      </g>
     </g>
     <g id="text_23">
      <!-- 125 -->
      <g style="fill: #37539c" transform="translate(293.483437 80.816462) scale(0.1 -0.1)">
       <use xlink:href="#OpenSans-Bold-31"/>
       <use xlink:href="#OpenSans-Bold-32" x="57.177734"/>
       <use xlink:href="#OpenSans-Bold-35" x="114.355469"/>
      </g>
     </g>
    </g>
    <g id="ytick_12">
     <g id="line2d_25">
      <path d="M 317.635 54.796692 
L 565.2 54.796692 
" clip-path="url(#p2130097382)" style="fill: none; stroke-dasharray: 2.96,1.28; stroke-dashoffset: 0; stroke: #b0b0b0; stroke-width: 0.8"/>
     </g>
     <g id="line2d_26">
      <g>
       <use xlink:href="#mdb5f2d7ed2" x="317.635" y="54.796692" style="fill: #37539c; stroke: #37539c; stroke-width: 0.8"/>
      </g>
     </g>
     <g id="text_24">
      <!-- 150 -->
      <g style="fill: #37539c" transform="translate(293.483437 58.59591) scale(0.1 -0.1)">
       <use xlink:href="#OpenSans-Bold-31"/>
       <use xlink:href="#OpenSans-Bold-35" x="57.177734"/>
       <use xlink:href="#OpenSans-Bold-30" x="114.355469"/>
      </g>
     </g>
    </g>
    <g id="ytick_13">
     <g id="line2d_27">
      <path d="M 317.635 32.57614 
L 565.2 32.57614 
" clip-path="url(#p2130097382)" style="fill: none; stroke-dasharray: 2.96,1.28; stroke-dashoffset: 0; stroke: #b0b0b0; stroke-width: 0.8"/>
     </g>
     <g id="line2d_28">
      <g>
       <use xlink:href="#mdb5f2d7ed2" x="317.635" y="32.57614" style="fill: #37539c; stroke: #37539c; stroke-width: 0.8"/>
      </g>
     </g>
     <g id="text_25">
      <!-- 175 -->
      <g style="fill: #37539c" transform="translate(293.483437 36.375359) scale(0.1 -0.1)">
       <use xlink:href="#OpenSans-Bold-31"/>
       <use xlink:href="#OpenSans-Bold-37" x="57.177734"/>
       <use xlink:href="#OpenSans-Bold-35" x="114.355469"/>
      </g>
     </g>
    </g>
   </g>
   <g id="patch_27">
    <path d="M 500.8331 188.105779 
L 479.480619 188.105779 
Q 494.953431 188.105779 494.953431 187.75025 
L 494.953431 19.613559 
Q 494.953431 19.258031 479.480619 19.258031 
L 500.8331 19.258031 
Q 485.360287 19.258031 485.360287 19.613559 
L 485.360287 187.75025 
Q 485.360287 188.105779 500.8331 188.105779 
z
" clip-path="url(#p2130097382)" style="fill: #2d3e6a"/>
   </g>
   <g id="patch_28">
    <path d="M 490.002131 188.105779 
L 468.64965 188.105779 
Q 484.122462 188.105779 484.122462 187.75025 
L 484.122462 23.168848 
Q 484.122462 22.813319 468.64965 22.813319 
L 490.002131 22.813319 
Q 474.529319 22.813319 474.529319 23.168848 
L 474.529319 187.75025 
Q 474.529319 188.105779 490.002131 188.105779 
z
" clip-path="url(#p2130097382)" style="fill: #33467a"/>
   </g>
   <g id="patch_29">
    <path d="M 479.171162 188.105779 
L 457.818681 188.105779 
Q 473.291494 188.105779 473.291494 187.75025 
L 473.291494 32.057068 
Q 473.291494 31.701539 457.818681 31.701539 
L 479.171162 31.701539 
Q 463.69835 31.701539 463.69835 32.057068 
L 463.69835 187.75025 
Q 463.69835 188.105779 479.171162 188.105779 
z
" clip-path="url(#p2130097382)" style="fill: #384f8a"/>
   </g>
   <g id="patch_30">
    <path d="M 468.340194 188.105779 
L 446.987712 188.105779 
Q 462.460525 188.105779 462.460525 187.75025 
L 462.460525 40.056467 
Q 462.460525 39.700938 446.987712 39.700938 
L 468.340194 39.700938 
Q 452.867381 39.700938 452.867381 40.056467 
L 452.867381 187.75025 
Q 452.867381 188.105779 468.340194 188.105779 
z
" clip-path="url(#p2130097382)" style="fill: #3e579a"/>
   </g>
   <g id="patch_31">
    <path d="M 457.509225 188.105779 
L 436.156744 188.105779 
Q 451.629556 188.105779 451.629556 187.75025 
L 451.629556 48.944687 
Q 451.629556 48.589158 436.156744 48.589158 
L 457.509225 48.589158 
Q 442.036412 48.589158 442.036412 48.944687 
L 442.036412 187.75025 
Q 442.036412 188.105779 457.509225 188.105779 
z
" clip-path="url(#p2130097382)" style="fill: #4360aa"/>
   </g>
   <g id="patch_32">
    <path d="M 446.678256 188.105779 
L 425.325775 188.105779 
Q 440.798587 188.105779 440.798587 187.75025 
L 440.798587 61.388196 
Q 440.798587 61.032667 425.325775 61.032667 
L 446.678256 61.032667 
Q 431.205444 61.032667 431.205444 61.388196 
L 431.205444 187.75025 
Q 431.205444 188.105779 446.678256 188.105779 
z
" clip-path="url(#p2130097382)" style="fill: #4a69b9"/>
   </g>
   <g id="patch_33">
    <path d="M 435.847287 188.105779 
L 414.494806 188.105779 
Q 429.967619 188.105779 429.967619 187.75025 
L 429.967619 65.832306 
Q 429.967619 65.476778 414.494806 65.476778 
L 435.847287 65.476778 
Q 420.374475 65.476778 420.374475 65.832306 
L 420.374475 187.75025 
Q 420.374475 188.105779 435.847287 188.105779 
z
" clip-path="url(#p2130097382)" style="fill: #5976c0"/>
   </g>
   <g id="patch_34">
    <path d="M 425.016319 188.105779 
L 403.663837 188.105779 
Q 419.13665 188.105779 419.13665 187.75025 
L 419.13665 68.498773 
Q 419.13665 68.143244 403.663837 68.143244 
L 425.016319 68.143244 
Q 409.543506 68.143244 409.543506 68.498773 
L 409.543506 187.75025 
Q 409.543506 188.105779 425.016319 188.105779 
z
" clip-path="url(#p2130097382)" style="fill: #6882c7"/>
   </g>
   <g id="patch_35">
    <path d="M 414.18535 188.105779 
L 392.832869 188.105779 
Q 408.305681 188.105779 408.305681 187.75025 
L 408.305681 73.831705 
Q 408.305681 73.476176 392.832869 73.476176 
L 414.18535 73.476176 
Q 398.712537 73.476176 398.712537 73.831705 
L 398.712537 187.75025 
Q 398.712537 188.105779 414.18535 188.105779 
z
" clip-path="url(#p2130097382)" style="fill: #778fce"/>
   </g>
   <g id="patch_36">
    <path d="M 403.354381 188.105779 
L 382.0019 188.105779 
Q 397.474712 188.105779 397.474712 187.75025 
L 397.474712 80.942281 
Q 397.474712 80.586752 382.0019 80.586752 
L 403.354381 80.586752 
Q 387.881569 80.586752 387.881569 80.942281 
L 387.881569 187.75025 
Q 387.881569 188.105779 403.354381 188.105779 
z
" clip-path="url(#p2130097382)" style="fill: #869cd4"/>
   </g>
   <g id="patch_37">
    <path d="M 317.635 188.12 
L 317.635 10.8 
" style="fill: none; stroke: #000000; stroke-width: 0.8; stroke-linejoin: miter; stroke-linecap: square"/>
   </g>
   <g id="patch_38">
    <path d="M 317.635 188.12 
L 565.2 188.12 
" style="fill: none; stroke: #000000; stroke-width: 0.8; stroke-linejoin: miter; stroke-linecap: square"/>
   </g>
   <g id="legend_2">
    <g id="patch_39">
     <path d="M 515.705 137.2125 
L 559.6 137.2125 
Q 561.2 137.2125 561.2 135.6125 
L 561.2 16.4 
Q 561.2 14.8 559.6 14.8 
L 515.705 14.8 
Q 514.105 14.8 514.105 16.4 
L 514.105 135.6125 
Q 514.105 137.2125 515.705 137.2125 
z
" style="fill: #ffffff; opacity: 0.8; stroke: #cccccc; stroke-linejoin: miter"/>
    </g>
    <g id="patch_40">
     <path d="M 517.305 24.07875 
L 533.305 24.07875 
L 533.305 18.47875 
L 517.305 18.47875 
z
" style="fill: #869cd4"/>
    </g>
    <g id="text_26">
     <!-- 2013 -->
     <g style="fill: #37539c" transform="translate(539.705 24.07875) scale(0.08 -0.08)">
      <use xlink:href="#OpenSans-Bold-32"/>
      <use xlink:href="#OpenSans-Bold-30" x="57.177734"/>
      <use xlink:href="#OpenSans-Bold-31" x="114.355469"/>
      <use xlink:href="#OpenSans-Bold-33" x="171.533203"/>
     </g>
    </g>
    <g id="patch_41">
     <path d="M 517.305 36.08 
L 533.305 36.08 
L 533.305 30.48 
L 517.305 30.48 
z
" style="fill: #778fce"/>
    </g>
    <g id="text_27">
     <!-- 2014 -->
     <g style="fill: #37539c" transform="translate(539.705 36.08) scale(0.08 -0.08)">
      <use xlink:href="#OpenSans-Bold-32"/>
      <use xlink:href="#OpenSans-Bold-30" x="57.177734"/>
      <use xlink:href="#OpenSans-Bold-31" x="114.355469"/>
      <use xlink:href="#OpenSans-Bold-34" x="171.533203"/>
     </g>
    </g>
    <g id="patch_42">
     <path d="M 517.305 48.08125 
L 533.305 48.08125 
L 533.305 42.48125 
L 517.305 42.48125 
z
" style="fill: #6882c7"/>
    </g>
    <g id="text_28">
     <!-- 2015 -->
     <g style="fill: #37539c" transform="translate(539.705 48.08125) scale(0.08 -0.08)">
      <use xlink:href="#OpenSans-Bold-32"/>
      <use xlink:href="#OpenSans-Bold-30" x="57.177734"/>
      <use xlink:href="#OpenSans-Bold-31" x="114.355469"/>
      <use xlink:href="#OpenSans-Bold-35" x="171.533203"/>
     </g>
    </g>
    <g id="patch_43">
     <path d="M 517.305 60.0825 
L 533.305 60.0825 
L 533.305 54.4825 
L 517.305 54.4825 
z
" style="fill: #5976c0"/>
    </g>
    <g id="text_29">
     <!-- 2016 -->
     <g style="fill: #37539c" transform="translate(539.705 60.0825) scale(0.08 -0.08)">
      <use xlink:href="#OpenSans-Bold-32"/>
      <use xlink:href="#OpenSans-Bold-30" x="57.177734"/>
      <use xlink:href="#OpenSans-Bold-31" x="114.355469"/>
      <use xlink:href="#OpenSans-Bold-36" x="171.533203"/>
     </g>
    </g>
    <g id="patch_44">
     <path d="M 517.305 72.08375 
L 533.305 72.08375 
L 533.305 66.48375 
L 517.305 66.48375 
z
" style="fill: #4a69b9"/>
    </g>
    <g id="text_30">
     <!-- 2017 -->
     <g style="fill: #37539c" transform="translate(539.705 72.08375) scale(0.08 -0.08)">
      <use xlink:href="#OpenSans-Bold-32"/>
      <use xlink:href="#OpenSans-Bold-30" x="57.177734"/>
      <use xlink:href="#OpenSans-Bold-31" x="114.355469"/>
      <use xlink:href="#OpenSans-Bold-37" x="171.533203"/>
     </g>
    </g>
    <g id="patch_45">
     <path d="M 517.305 84.085 
L 533.305 84.085 
L 533.305 78.485 
L 517.305 78.485 
z
" style="fill: #4360aa"/>
    </g>
    <g id="text_31">
     <!-- 2018 -->
     <g style="fill: #37539c" transform="translate(539.705 84.085) scale(0.08 -0.08)">
      <use xlink:href="#OpenSans-Bold-32"/>
      <use xlink:href="#OpenSans-Bold-30" x="57.177734"/>
      <use xlink:href="#OpenSans-Bold-31" x="114.355469"/>
      <use xlink:href="#OpenSans-Bold-38" x="171.533203"/>
     </g>
    </g>
    <g id="patch_46">
     <path d="M 517.305 96.08625 
L 533.305 96.08625 
L 533.305 90.48625 
L 517.305 90.48625 
z
" style="fill: #3e579a"/>
    </g>
    <g id="text_32">
     <!-- 2019 -->
     <g style="fill: #37539c" transform="translate(539.705 96.08625) scale(0.08 -0.08)">
      <use xlink:href="#OpenSans-Bold-32"/>
      <use xlink:href="#OpenSans-Bold-30" x="57.177734"/>
      <use xlink:href="#OpenSans-Bold-31" x="114.355469"/>
      <use xlink:href="#OpenSans-Bold-39" x="171.533203"/>
     </g>
    </g>
    <g id="patch_47">
     <path d="M 517.305 108.0875 
L 533.305 108.0875 
L 533.305 102.4875 
L 517.305 102.4875 
z
" style="fill: #384f8a"/>
    </g>
    <g id="text_33">
     <!-- 2020 -->
     <g style="fill: #37539c" transform="translate(539.705 108.0875) scale(0.08 -0.08)">
      <use xlink:href="#OpenSans-Bold-32"/>
      <use xlink:href="#OpenSans-Bold-30" x="57.177734"/>
      <use xlink:href="#OpenSans-Bold-32" x="114.355469"/>
      <use xlink:href="#OpenSans-Bold-30" x="171.533203"/>
     </g>
    </g>
    <g id="patch_48">
     <path d="M 517.305 120.08875 
L 533.305 120.08875 
L 533.305 114.48875 
L 517.305 114.48875 
z
" style="fill: #33467a"/>
    </g>
    <g id="text_34">
     <!-- 2021 -->
     <g style="fill: #37539c" transform="translate(539.705 120.08875) scale(0.08 -0.08)">
      <use xlink:href="#OpenSans-Bold-32"/>
      <use xlink:href="#OpenSans-Bold-30" x="57.177734"/>
      <use xlink:href="#OpenSans-Bold-32" x="114.355469"/>
      <use xlink:href="#OpenSans-Bold-31" x="171.533203"/>
     </g>
    </g>
    <g id="patch_49">
     <path d="M 517.305 132.09 
L 533.305 132.09 
L 533.305 126.49 
L 517.305 126.49 
z
" style="fill: #2d3e6a"/>
    </g>
    <g id="text_35">
     <!-- 2022 -->
     <g style="fill: #37539c" transform="translate(539.705 132.09) scale(0.08 -0.08)">
      <use xlink:href="#OpenSans-Bold-32"/>
      <use xlink:href="#OpenSans-Bold-30" x="57.177734"/>
      <use xlink:href="#OpenSans-Bold-32" x="114.355469"/>
      <use xlink:href="#OpenSans-Bold-32" x="171.533203"/>
     </g>
    </g>
   </g>
  </g>
 </g>
 <defs>
  <clipPath id="p3c448abf1c">
   <rect x="35.08" y="10.8" width="247.565" height="177.32"/>
  </clipPath>
  <clipPath id="p2130097382">
   <rect x="317.635" y="10.8" width="247.565" height="177.32"/>
  </clipPath>
 </defs>
</svg>
