<?xml version="1.0" encoding="utf-8" standalone="no"?>
<!DOCTYPE svg PUBLIC "-//W3C//DTD SVG 1.1//EN"
  "http://www.w3.org/Graphics/SVG/1.1/DTD/svg11.dtd">
<svg xmlns:xlink="http://www.w3.org/1999/xlink" width="648pt" height="288pt" viewBox="0 0 648 288" xmlns="http://www.w3.org/2000/svg" version="1.1">
 <metadata>
  <rdf:RDF xmlns:dc="http://purl.org/dc/elements/1.1/" xmlns:cc="http://creativecommons.org/ns#" xmlns:rdf="http://www.w3.org/1999/02/22-rdf-syntax-ns#">
   <cc:Work>
    <dc:type rdf:resource="http://purl.org/dc/dcmitype/StillImage"/>
    <dc:date>2024-02-22T18:19:53.171485</dc:date>
    <dc:format>image/svg+xml</dc:format>
    <dc:creator>
     <cc:Agent>
      <dc:title>Matplotlib v3.7.1, https://matplotlib.org/</dc:title>
     </cc:Agent>
    </dc:creator>
   </cc:Work>
  </rdf:RDF>
 </metadata>
 <defs>
  <style type="text/css">*{stroke-linejoin: round; stroke-linecap: butt}</style>
 </defs>
 <g id="figure_1">
  <g id="patch_1">
   <path d="M 0 288 
L 648 288 
L 648 0 
L 0 0 
z
" style="fill: #ffffff"/>
  </g>
  <g id="axes_1">
   <g id="patch_2">
    <path d="M 43.4 244.136 
L 628.245 244.136 
L 628.245 10.8 
L 43.4 10.8 
z
" style="fill: #ffffff"/>
   </g>
   <g id="matplotlib.axis_1">
    <g id="xtick_1">
     <g id="line2d_1">
      <defs>
       <path id="mae4382cf65" d="M 0 0 
L 0 3.5 
" style="stroke: #37539c; stroke-width: 0.8"/>
      </defs>
      <g>
       <use xlink:href="#mae4382cf65" x="116.505625" y="244.136" style="fill: #37539c; stroke: #37539c; stroke-width: 0.8"/>
      </g>
     </g>
     <g id="text_1">
      <!-- El desarrollo científico y tecnológico -->
      <g style="fill: #37539c" transform="translate(44.7825 257.26475) scale(0.08 -0.08)">
       <defs>
        <path id="OpenSans-Bold-45" d="M 3206 0 
L 575 0 
L 575 4569 
L 3206 4569 
L 3206 3775 
L 1544 3775 
L 1544 2772 
L 3091 2772 
L 3091 1978 
L 1544 1978 
L 1544 800 
L 3206 800 
L 3206 0 
z
" transform="scale(0.015625)"/>
        <path id="OpenSans-Bold-6c" d="M 1453 0 
L 500 0 
L 500 4863 
L 1453 4863 
L 1453 0 
z
" transform="scale(0.015625)"/>
        <path id="OpenSans-Bold-20" transform="scale(0.015625)"/>
        <path id="OpenSans-Bold-64" d="M 1606 -63 
Q 1022 -63 655 395 
Q 288 853 288 1741 
Q 288 2638 659 3098 
Q 1031 3559 1631 3559 
Q 1881 3559 2072 3490 
Q 2263 3422 2402 3306 
Q 2541 3191 2638 3047 
L 2669 3047 
Q 2650 3147 2623 3342 
Q 2597 3538 2597 3744 
L 2597 4863 
L 3553 4863 
L 3553 0 
L 2822 0 
L 2638 453 
L 2597 453 
Q 2506 309 2370 192 
Q 2234 75 2046 6 
Q 1859 -63 1606 -63 
z
M 1941 697 
Q 2331 697 2492 930 
Q 2653 1163 2663 1631 
L 2663 1734 
Q 2663 2244 2506 2514 
Q 2350 2784 1925 2784 
Q 1609 2784 1431 2512 
Q 1253 2241 1253 1728 
Q 1253 1216 1433 956 
Q 1613 697 1941 697 
z
" transform="scale(0.015625)"/>
        <path id="OpenSans-Bold-65" d="M 1941 3559 
Q 2425 3559 2775 3373 
Q 3125 3188 3315 2834 
Q 3506 2481 3506 1972 
L 3506 1509 
L 1253 1509 
Q 1269 1106 1495 876 
Q 1722 647 2125 647 
Q 2459 647 2737 715 
Q 3016 784 3309 922 
L 3309 184 
Q 3050 56 2767 -3 
Q 2484 -63 2081 -63 
Q 1556 -63 1151 131 
Q 747 325 517 722 
Q 288 1119 288 1722 
Q 288 2334 495 2742 
Q 703 3150 1075 3354 
Q 1447 3559 1941 3559 
z
M 1947 2881 
Q 1669 2881 1486 2703 
Q 1303 2525 1275 2144 
L 2613 2144 
Q 2609 2356 2536 2522 
Q 2463 2688 2317 2784 
Q 2172 2881 1947 2881 
z
" transform="scale(0.015625)"/>
        <path id="OpenSans-Bold-73" d="M 2938 1038 
Q 2938 681 2770 436 
Q 2603 191 2272 64 
Q 1941 -63 1447 -63 
Q 1081 -63 820 -16 
Q 559 31 294 141 
L 294 928 
Q 578 800 904 717 
Q 1231 634 1478 634 
Q 1756 634 1876 717 
Q 1997 800 1997 934 
Q 1997 1022 1948 1092 
Q 1900 1163 1740 1252 
Q 1581 1341 1241 1484 
Q 913 1622 702 1762 
Q 491 1903 389 2095 
Q 288 2288 288 2584 
Q 288 3069 664 3314 
Q 1041 3559 1672 3559 
Q 1997 3559 2292 3493 
Q 2588 3428 2900 3284 
L 2613 2597 
Q 2353 2709 2123 2781 
Q 1894 2853 1656 2853 
Q 1447 2853 1340 2797 
Q 1234 2741 1234 2625 
Q 1234 2541 1289 2475 
Q 1344 2409 1501 2329 
Q 1659 2250 1966 2125 
Q 2263 2003 2481 1870 
Q 2700 1738 2819 1542 
Q 2938 1347 2938 1038 
z
" transform="scale(0.015625)"/>
        <path id="OpenSans-Bold-61" d="M 1931 3566 
Q 2634 3566 3009 3259 
Q 3384 2953 3384 2328 
L 3384 0 
L 2719 0 
L 2534 475 
L 2509 475 
Q 2359 288 2203 169 
Q 2047 50 1844 -6 
Q 1641 -63 1350 -63 
Q 1041 -63 795 56 
Q 550 175 409 420 
Q 269 666 269 1044 
Q 269 1600 659 1864 
Q 1050 2128 1831 2156 
L 2438 2175 
L 2438 2328 
Q 2438 2603 2294 2731 
Q 2150 2859 1894 2859 
Q 1641 2859 1397 2787 
Q 1153 2716 909 2606 
L 594 3250 
Q 872 3397 1217 3481 
Q 1563 3566 1931 3566 
z
M 2438 1619 
L 2069 1606 
Q 1606 1594 1426 1441 
Q 1247 1288 1247 1038 
Q 1247 819 1375 726 
Q 1503 634 1709 634 
Q 2016 634 2227 815 
Q 2438 997 2438 1331 
L 2438 1619 
z
" transform="scale(0.015625)"/>
        <path id="OpenSans-Bold-72" d="M 2450 3559 
Q 2522 3559 2617 3551 
Q 2713 3544 2772 3531 
L 2700 2638 
Q 2653 2653 2567 2661 
Q 2481 2669 2419 2669 
Q 2234 2669 2061 2622 
Q 1888 2575 1750 2470 
Q 1613 2366 1533 2195 
Q 1453 2025 1453 1778 
L 1453 0 
L 500 0 
L 500 3494 
L 1222 3494 
L 1363 2906 
L 1409 2906 
Q 1513 3084 1667 3232 
Q 1822 3381 2020 3470 
Q 2219 3559 2450 3559 
z
" transform="scale(0.015625)"/>
        <path id="OpenSans-Bold-6f" d="M 3675 1753 
Q 3675 1316 3558 978 
Q 3441 641 3217 408 
Q 2994 175 2680 56 
Q 2366 -63 1972 -63 
Q 1603 -63 1295 56 
Q 988 175 761 408 
Q 534 641 411 978 
Q 288 1316 288 1753 
Q 288 2334 494 2737 
Q 700 3141 1081 3350 
Q 1463 3559 1991 3559 
Q 2481 3559 2861 3350 
Q 3241 3141 3458 2737 
Q 3675 2334 3675 1753 
z
M 1259 1753 
Q 1259 1409 1334 1175 
Q 1409 941 1568 822 
Q 1728 703 1984 703 
Q 2238 703 2395 822 
Q 2553 941 2626 1175 
Q 2700 1409 2700 1753 
Q 2700 2100 2626 2329 
Q 2553 2559 2393 2675 
Q 2234 2791 1978 2791 
Q 1600 2791 1429 2531 
Q 1259 2272 1259 1753 
z
" transform="scale(0.015625)"/>
        <path id="OpenSans-Bold-63" d="M 1919 -63 
Q 1400 -63 1034 126 
Q 669 316 478 712 
Q 288 1109 288 1728 
Q 288 2369 505 2773 
Q 722 3178 1108 3368 
Q 1494 3559 2003 3559 
Q 2366 3559 2630 3489 
Q 2894 3419 3091 3322 
L 2809 2584 
Q 2584 2675 2390 2733 
Q 2197 2791 2003 2791 
Q 1753 2791 1587 2673 
Q 1422 2556 1340 2322 
Q 1259 2088 1259 1734 
Q 1259 1388 1346 1159 
Q 1434 931 1600 820 
Q 1766 709 2003 709 
Q 2300 709 2531 789 
Q 2763 869 2981 1013 
L 2981 197 
Q 2763 59 2523 -2 
Q 2284 -63 1919 -63 
z
" transform="scale(0.015625)"/>
        <path id="OpenSans-Bold-69" d="M 1453 3494 
L 1453 0 
L 500 0 
L 500 3494 
L 1453 3494 
z
M 978 4863 
Q 1191 4863 1344 4764 
Q 1497 4666 1497 4397 
Q 1497 4131 1344 4029 
Q 1191 3928 978 3928 
Q 763 3928 611 4029 
Q 459 4131 459 4397 
Q 459 4666 611 4764 
Q 763 4863 978 4863 
z
" transform="scale(0.015625)"/>
        <path id="OpenSans-Bold-6e" d="M 2484 3559 
Q 3044 3559 3384 3254 
Q 3725 2950 3725 2278 
L 3725 0 
L 2772 0 
L 2772 2041 
Q 2772 2416 2636 2606 
Q 2500 2797 2209 2797 
Q 1772 2797 1612 2500 
Q 1453 2203 1453 1644 
L 1453 0 
L 500 0 
L 500 3494 
L 1228 3494 
L 1356 3047 
L 1409 3047 
Q 1522 3228 1689 3340 
Q 1856 3453 2061 3506 
Q 2266 3559 2484 3559 
z
" transform="scale(0.015625)"/>
        <path id="OpenSans-Bold-74" d="M 1972 697 
Q 2128 697 2276 728 
Q 2425 759 2572 806 
L 2572 97 
Q 2419 28 2192 -17 
Q 1966 -63 1697 -63 
Q 1384 -63 1136 39 
Q 888 141 745 392 
Q 603 644 603 1094 
L 603 2778 
L 147 2778 
L 147 3181 
L 672 3500 
L 947 4238 
L 1556 4238 
L 1556 3494 
L 2534 3494 
L 2534 2778 
L 1556 2778 
L 1556 1094 
Q 1556 894 1670 795 
Q 1784 697 1972 697 
z
" transform="scale(0.015625)"/>
        <path id="OpenSans-Bold-ed" d="M 1453 0 
L 500 0 
L 500 3494 
L 1453 3494 
L 1453 0 
z
M 2203 4903 
L 2203 4838 
Q 2113 4750 1966 4622 
Q 1819 4494 1650 4355 
Q 1482 4216 1319 4089 
Q 1157 3963 1035 3878 
L 400 3878 
L 400 3963 
Q 503 4081 639 4245 
Q 775 4409 909 4584 
Q 1044 4759 1135 4903 
L 2203 4903 
z
" transform="scale(0.015625)"/>
        <path id="OpenSans-Bold-66" d="M 2431 2778 
L 1606 2778 
L 1606 0 
L 653 0 
L 653 2778 
L 128 2778 
L 128 3238 
L 653 3494 
L 653 3750 
Q 653 4197 804 4445 
Q 956 4694 1232 4795 
Q 1509 4897 1888 4897 
Q 2166 4897 2394 4851 
Q 2622 4806 2766 4750 
L 2522 4050 
Q 2413 4084 2284 4112 
Q 2156 4141 1991 4141 
Q 1791 4141 1698 4020 
Q 1606 3900 1606 3713 
L 1606 3494 
L 2431 3494 
L 2431 2778 
z
" transform="scale(0.015625)"/>
        <path id="OpenSans-Bold-79" d="M 0 3494 
L 1044 3494 
L 1703 1528 
Q 1734 1434 1756 1337 
Q 1778 1241 1793 1137 
Q 1809 1034 1819 922 
L 1838 922 
Q 1856 1091 1889 1237 
Q 1922 1384 1972 1528 
L 2619 3494 
L 3641 3494 
L 2163 -447 
Q 2028 -809 1812 -1051 
Q 1597 -1294 1317 -1416 
Q 1038 -1538 703 -1538 
Q 541 -1538 422 -1520 
Q 303 -1503 219 -1484 
L 219 -728 
Q 284 -744 384 -756 
Q 484 -769 594 -769 
Q 794 -769 937 -684 
Q 1081 -600 1178 -458 
Q 1275 -316 1331 -147 
L 1388 25 
L 0 3494 
z
" transform="scale(0.015625)"/>
        <path id="OpenSans-Bold-f3" d="M 3675 1753 
Q 3675 1316 3558 978 
Q 3441 641 3217 408 
Q 2994 175 2680 56 
Q 2366 -63 1972 -63 
Q 1603 -63 1295 56 
Q 988 175 761 408 
Q 534 641 411 978 
Q 288 1316 288 1753 
Q 288 2334 494 2737 
Q 700 3141 1081 3350 
Q 1463 3559 1991 3559 
Q 2481 3559 2861 3350 
Q 3241 3141 3458 2737 
Q 3675 2334 3675 1753 
z
M 1259 1753 
Q 1259 1409 1334 1175 
Q 1409 941 1568 822 
Q 1728 703 1984 703 
Q 2238 703 2395 822 
Q 2553 941 2626 1175 
Q 2700 1409 2700 1753 
Q 2700 2100 2626 2329 
Q 2553 2559 2393 2675 
Q 2234 2791 1978 2791 
Q 1600 2791 1429 2531 
Q 1259 2272 1259 1753 
z
M 3211 4903 
L 3211 4838 
Q 3121 4750 2974 4622 
Q 2827 4494 2658 4355 
Q 2490 4216 2327 4089 
Q 2165 3963 2043 3878 
L 1408 3878 
L 1408 3963 
Q 1511 4081 1647 4245 
Q 1783 4409 1917 4584 
Q 2052 4759 2143 4903 
L 3211 4903 
z
" transform="scale(0.015625)"/>
        <path id="OpenSans-Bold-67" d="M 1522 -1538 
Q 791 -1538 405 -1283 
Q 19 -1028 19 -569 
Q 19 -253 216 -40 
Q 413 172 794 263 
Q 647 325 537 467 
Q 428 609 428 769 
Q 428 969 543 1101 
Q 659 1234 878 1363 
Q 603 1481 442 1743 
Q 281 2006 281 2363 
Q 281 2744 448 3011 
Q 616 3278 936 3418 
Q 1256 3559 1716 3559 
Q 1813 3559 1941 3546 
Q 2069 3534 2176 3518 
Q 2284 3503 2322 3494 
L 3541 3494 
L 3541 3009 
L 2994 2869 
Q 3069 2753 3106 2622 
Q 3144 2491 3144 2344 
Q 3144 1781 2751 1467 
Q 2359 1153 1663 1153 
Q 1497 1163 1350 1178 
Q 1278 1122 1240 1059 
Q 1203 997 1203 928 
Q 1203 859 1261 814 
Q 1319 769 1436 745 
Q 1553 722 1728 722 
L 2322 722 
Q 2897 722 3198 475 
Q 3500 228 3500 -250 
Q 3500 -863 2989 -1200 
Q 2478 -1538 1522 -1538 
z
M 1563 -916 
Q 1903 -916 2148 -852 
Q 2394 -788 2525 -670 
Q 2656 -553 2656 -391 
Q 2656 -259 2579 -182 
Q 2503 -106 2348 -75 
Q 2194 -44 1953 -44 
L 1459 -44 
Q 1284 -44 1145 -100 
Q 1006 -156 925 -257 
Q 844 -359 844 -494 
Q 844 -691 1033 -803 
Q 1222 -916 1563 -916 
z
M 1716 1734 
Q 1984 1734 2109 1900 
Q 2234 2066 2234 2350 
Q 2234 2666 2104 2823 
Q 1975 2981 1716 2981 
Q 1453 2981 1322 2823 
Q 1191 2666 1191 2350 
Q 1191 2066 1320 1900 
Q 1450 1734 1716 1734 
z
" transform="scale(0.015625)"/>
       </defs>
       <use xlink:href="#OpenSans-Bold-45"/>
       <use xlink:href="#OpenSans-Bold-6c" x="56.005859"/>
       <use xlink:href="#OpenSans-Bold-20" x="86.523438"/>
       <use xlink:href="#OpenSans-Bold-64" x="112.5"/>
       <use xlink:href="#OpenSans-Bold-65" x="175.78125"/>
       <use xlink:href="#OpenSans-Bold-73" x="234.863281"/>
       <use xlink:href="#OpenSans-Bold-61" x="284.570312"/>
       <use xlink:href="#OpenSans-Bold-72" x="344.970703"/>
       <use xlink:href="#OpenSans-Bold-72" x="390.380859"/>
       <use xlink:href="#OpenSans-Bold-6f" x="435.791016"/>
       <use xlink:href="#OpenSans-Bold-6c" x="497.705078"/>
       <use xlink:href="#OpenSans-Bold-6c" x="528.222656"/>
       <use xlink:href="#OpenSans-Bold-6f" x="558.740234"/>
       <use xlink:href="#OpenSans-Bold-20" x="620.654297"/>
       <use xlink:href="#OpenSans-Bold-63" x="646.630859"/>
       <use xlink:href="#OpenSans-Bold-69" x="698.046875"/>
       <use xlink:href="#OpenSans-Bold-65" x="728.564453"/>
       <use xlink:href="#OpenSans-Bold-6e" x="787.646484"/>
       <use xlink:href="#OpenSans-Bold-74" x="853.369141"/>
       <use xlink:href="#OpenSans-Bold-ed" x="896.777344"/>
       <use xlink:href="#OpenSans-Bold-66" x="927.294922"/>
       <use xlink:href="#OpenSans-Bold-69" x="966.015625"/>
       <use xlink:href="#OpenSans-Bold-63" x="996.533203"/>
       <use xlink:href="#OpenSans-Bold-6f" x="1047.949219"/>
       <use xlink:href="#OpenSans-Bold-20" x="1109.863281"/>
       <use xlink:href="#OpenSans-Bold-79" x="1135.839844"/>
       <use xlink:href="#OpenSans-Bold-20" x="1192.724609"/>
       <use xlink:href="#OpenSans-Bold-74" x="1218.701172"/>
       <use xlink:href="#OpenSans-Bold-65" x="1262.109375"/>
       <use xlink:href="#OpenSans-Bold-63" x="1321.191406"/>
       <use xlink:href="#OpenSans-Bold-6e" x="1372.607422"/>
       <use xlink:href="#OpenSans-Bold-6f" x="1438.330078"/>
       <use xlink:href="#OpenSans-Bold-6c" x="1500.244141"/>
       <use xlink:href="#OpenSans-Bold-f3" x="1530.761719"/>
       <use xlink:href="#OpenSans-Bold-67" x="1592.675781"/>
       <use xlink:href="#OpenSans-Bold-69" x="1649.169922"/>
       <use xlink:href="#OpenSans-Bold-63" x="1679.6875"/>
       <use xlink:href="#OpenSans-Bold-6f" x="1731.103516"/>
      </g>
      <!-- contribuye a mejorar el medio -->
      <g style="fill: #37539c" transform="translate(56.0575 266.48175) scale(0.08 -0.08)">
       <defs>
        <path id="OpenSans-Bold-62" d="M 1453 4863 
L 1453 3731 
Q 1453 3534 1442 3340 
Q 1431 3147 1416 3041 
L 1453 3041 
Q 1591 3256 1828 3407 
Q 2066 3559 2444 3559 
Q 3031 3559 3397 3100 
Q 3763 2641 3763 1753 
Q 3763 1156 3594 751 
Q 3425 347 3122 142 
Q 2819 -63 2419 -63 
Q 2034 -63 1812 75 
Q 1591 213 1453 384 
L 1388 384 
L 1228 0 
L 500 0 
L 500 4863 
L 1453 4863 
z
M 2138 2797 
Q 1888 2797 1741 2694 
Q 1594 2591 1526 2384 
Q 1459 2178 1453 1863 
L 1453 1759 
Q 1453 1250 1603 979 
Q 1753 709 2150 709 
Q 2444 709 2617 981 
Q 2791 1253 2791 1766 
Q 2791 2278 2616 2537 
Q 2441 2797 2138 2797 
z
" transform="scale(0.015625)"/>
        <path id="OpenSans-Bold-75" d="M 3706 3494 
L 3706 0 
L 2975 0 
L 2847 447 
L 2797 447 
Q 2684 269 2515 156 
Q 2347 44 2144 -9 
Q 1941 -63 1722 -63 
Q 1347 -63 1069 70 
Q 791 203 636 484 
Q 481 766 481 1216 
L 481 3494 
L 1434 3494 
L 1434 1453 
Q 1434 1078 1568 887 
Q 1703 697 1997 697 
Q 2288 697 2453 830 
Q 2619 963 2686 1220 
Q 2753 1478 2753 1850 
L 2753 3494 
L 3706 3494 
z
" transform="scale(0.015625)"/>
        <path id="OpenSans-Bold-6d" d="M 4603 3559 
Q 5197 3559 5501 3254 
Q 5806 2950 5806 2278 
L 5806 0 
L 4850 0 
L 4850 2041 
Q 4850 2416 4722 2606 
Q 4594 2797 4325 2797 
Q 3947 2797 3787 2526 
Q 3628 2256 3628 1753 
L 3628 0 
L 2675 0 
L 2675 2041 
Q 2675 2291 2619 2459 
Q 2563 2628 2447 2712 
Q 2331 2797 2150 2797 
Q 1884 2797 1732 2664 
Q 1581 2531 1517 2273 
Q 1453 2016 1453 1644 
L 1453 0 
L 500 0 
L 500 3494 
L 1228 3494 
L 1356 3047 
L 1409 3047 
Q 1516 3228 1677 3340 
Q 1838 3453 2031 3506 
Q 2225 3559 2425 3559 
Q 2809 3559 3076 3434 
Q 3344 3309 3488 3047 
L 3572 3047 
Q 3728 3316 4014 3437 
Q 4300 3559 4603 3559 
z
" transform="scale(0.015625)"/>
        <path id="OpenSans-Bold-6a" d="M 219 -1538 
Q 56 -1538 -119 -1514 
Q -294 -1491 -409 -1459 
L -409 -709 
Q -294 -741 -192 -755 
Q -91 -769 38 -769 
Q 231 -769 365 -661 
Q 500 -553 500 -238 
L 500 3494 
L 1453 3494 
L 1453 -378 
Q 1453 -697 1331 -961 
Q 1209 -1225 937 -1381 
Q 666 -1538 219 -1538 
z
M 459 4397 
Q 459 4666 611 4764 
Q 763 4863 978 4863 
Q 1191 4863 1344 4764 
Q 1497 4666 1497 4397 
Q 1497 4131 1344 4029 
Q 1191 3928 978 3928 
Q 763 3928 611 4029 
Q 459 4131 459 4397 
z
" transform="scale(0.015625)"/>
       </defs>
       <use xlink:href="#OpenSans-Bold-63"/>
       <use xlink:href="#OpenSans-Bold-6f" x="51.416016"/>
       <use xlink:href="#OpenSans-Bold-6e" x="113.330078"/>
       <use xlink:href="#OpenSans-Bold-74" x="179.052734"/>
       <use xlink:href="#OpenSans-Bold-72" x="222.460938"/>
       <use xlink:href="#OpenSans-Bold-69" x="267.871094"/>
       <use xlink:href="#OpenSans-Bold-62" x="298.388672"/>
       <use xlink:href="#OpenSans-Bold-75" x="361.669922"/>
       <use xlink:href="#OpenSans-Bold-79" x="427.392578"/>
       <use xlink:href="#OpenSans-Bold-65" x="484.277344"/>
       <use xlink:href="#OpenSans-Bold-20" x="543.359375"/>
       <use xlink:href="#OpenSans-Bold-61" x="569.335938"/>
       <use xlink:href="#OpenSans-Bold-20" x="629.736328"/>
       <use xlink:href="#OpenSans-Bold-6d" x="655.712891"/>
       <use xlink:href="#OpenSans-Bold-65" x="753.90625"/>
       <use xlink:href="#OpenSans-Bold-6a" x="812.988281"/>
       <use xlink:href="#OpenSans-Bold-6f" x="843.505859"/>
       <use xlink:href="#OpenSans-Bold-72" x="905.419922"/>
       <use xlink:href="#OpenSans-Bold-61" x="950.830078"/>
       <use xlink:href="#OpenSans-Bold-72" x="1011.230469"/>
       <use xlink:href="#OpenSans-Bold-20" x="1056.640625"/>
       <use xlink:href="#OpenSans-Bold-65" x="1082.617188"/>
       <use xlink:href="#OpenSans-Bold-6c" x="1141.699219"/>
       <use xlink:href="#OpenSans-Bold-20" x="1172.216797"/>
       <use xlink:href="#OpenSans-Bold-6d" x="1198.193359"/>
       <use xlink:href="#OpenSans-Bold-65" x="1296.386719"/>
       <use xlink:href="#OpenSans-Bold-64" x="1355.46875"/>
       <use xlink:href="#OpenSans-Bold-69" x="1418.75"/>
       <use xlink:href="#OpenSans-Bold-6f" x="1449.267578"/>
      </g>
      <!-- ambiente -->
      <g style="fill: #37539c" transform="translate(97.31875 275.69875) scale(0.08 -0.08)">
       <use xlink:href="#OpenSans-Bold-61"/>
       <use xlink:href="#OpenSans-Bold-6d" x="60.400391"/>
       <use xlink:href="#OpenSans-Bold-62" x="158.59375"/>
       <use xlink:href="#OpenSans-Bold-69" x="221.875"/>
       <use xlink:href="#OpenSans-Bold-65" x="252.392578"/>
       <use xlink:href="#OpenSans-Bold-6e" x="311.474609"/>
       <use xlink:href="#OpenSans-Bold-74" x="377.197266"/>
       <use xlink:href="#OpenSans-Bold-65" x="420.605469"/>
      </g>
     </g>
    </g>
    <g id="xtick_2">
     <g id="line2d_2">
      <g>
       <use xlink:href="#mae4382cf65" x="262.716875" y="244.136" style="fill: #37539c; stroke: #37539c; stroke-width: 0.8"/>
      </g>
     </g>
     <g id="text_2">
      <!-- El desarollo científico y tecnológico -->
      <g style="fill: #37539c" transform="translate(192.81 257.26475) scale(0.08 -0.08)">
       <use xlink:href="#OpenSans-Bold-45"/>
       <use xlink:href="#OpenSans-Bold-6c" x="56.005859"/>
       <use xlink:href="#OpenSans-Bold-20" x="86.523438"/>
       <use xlink:href="#OpenSans-Bold-64" x="112.5"/>
       <use xlink:href="#OpenSans-Bold-65" x="175.78125"/>
       <use xlink:href="#OpenSans-Bold-73" x="234.863281"/>
       <use xlink:href="#OpenSans-Bold-61" x="284.570312"/>
       <use xlink:href="#OpenSans-Bold-72" x="344.970703"/>
       <use xlink:href="#OpenSans-Bold-6f" x="390.380859"/>
       <use xlink:href="#OpenSans-Bold-6c" x="452.294922"/>
       <use xlink:href="#OpenSans-Bold-6c" x="482.8125"/>
       <use xlink:href="#OpenSans-Bold-6f" x="513.330078"/>
       <use xlink:href="#OpenSans-Bold-20" x="575.244141"/>
       <use xlink:href="#OpenSans-Bold-63" x="601.220703"/>
       <use xlink:href="#OpenSans-Bold-69" x="652.636719"/>
       <use xlink:href="#OpenSans-Bold-65" x="683.154297"/>
       <use xlink:href="#OpenSans-Bold-6e" x="742.236328"/>
       <use xlink:href="#OpenSans-Bold-74" x="807.958984"/>
       <use xlink:href="#OpenSans-Bold-ed" x="851.367188"/>
       <use xlink:href="#OpenSans-Bold-66" x="881.884766"/>
       <use xlink:href="#OpenSans-Bold-69" x="920.605469"/>
       <use xlink:href="#OpenSans-Bold-63" x="951.123047"/>
       <use xlink:href="#OpenSans-Bold-6f" x="1002.539062"/>
       <use xlink:href="#OpenSans-Bold-20" x="1064.453125"/>
       <use xlink:href="#OpenSans-Bold-79" x="1090.429688"/>
       <use xlink:href="#OpenSans-Bold-20" x="1147.314453"/>
       <use xlink:href="#OpenSans-Bold-74" x="1173.291016"/>
       <use xlink:href="#OpenSans-Bold-65" x="1216.699219"/>
       <use xlink:href="#OpenSans-Bold-63" x="1275.78125"/>
       <use xlink:href="#OpenSans-Bold-6e" x="1327.197266"/>
       <use xlink:href="#OpenSans-Bold-6f" x="1392.919922"/>
       <use xlink:href="#OpenSans-Bold-6c" x="1454.833984"/>
       <use xlink:href="#OpenSans-Bold-f3" x="1485.351562"/>
       <use xlink:href="#OpenSans-Bold-67" x="1547.265625"/>
       <use xlink:href="#OpenSans-Bold-69" x="1603.759766"/>
       <use xlink:href="#OpenSans-Bold-63" x="1634.277344"/>
       <use xlink:href="#OpenSans-Bold-6f" x="1685.693359"/>
      </g>
      <!-- ayudará a disminuir las -->
      <g style="fill: #37539c" transform="translate(215.874375 266.54175) scale(0.08 -0.08)">
       <defs>
        <path id="OpenSans-Bold-e1" d="M 1931 3566 
Q 2634 3566 3009 3259 
Q 3384 2953 3384 2328 
L 3384 0 
L 2719 0 
L 2534 475 
L 2509 475 
Q 2359 288 2203 169 
Q 2047 50 1844 -6 
Q 1641 -63 1350 -63 
Q 1041 -63 795 56 
Q 550 175 409 420 
Q 269 666 269 1044 
Q 269 1600 659 1864 
Q 1050 2128 1831 2156 
L 2438 2175 
L 2438 2328 
Q 2438 2603 2294 2731 
Q 2150 2859 1894 2859 
Q 1641 2859 1397 2787 
Q 1153 2716 909 2606 
L 594 3250 
Q 872 3397 1217 3481 
Q 1563 3566 1931 3566 
z
M 2438 1619 
L 2069 1606 
Q 1606 1594 1426 1441 
Q 1247 1288 1247 1038 
Q 1247 819 1375 726 
Q 1503 634 1709 634 
Q 2016 634 2227 815 
Q 2438 997 2438 1331 
L 2438 1619 
z
M 3163 4903 
L 3163 4838 
Q 3073 4750 2926 4622 
Q 2779 4494 2610 4355 
Q 2442 4216 2279 4089 
Q 2117 3963 1995 3878 
L 1360 3878 
L 1360 3963 
Q 1463 4081 1599 4245 
Q 1735 4409 1869 4584 
Q 2004 4759 2095 4903 
L 3163 4903 
z
" transform="scale(0.015625)"/>
       </defs>
       <use xlink:href="#OpenSans-Bold-61"/>
       <use xlink:href="#OpenSans-Bold-79" x="60.400391"/>
       <use xlink:href="#OpenSans-Bold-75" x="117.285156"/>
       <use xlink:href="#OpenSans-Bold-64" x="183.007812"/>
       <use xlink:href="#OpenSans-Bold-61" x="246.289062"/>
       <use xlink:href="#OpenSans-Bold-72" x="306.689453"/>
       <use xlink:href="#OpenSans-Bold-e1" x="352.099609"/>
       <use xlink:href="#OpenSans-Bold-20" x="412.5"/>
       <use xlink:href="#OpenSans-Bold-61" x="438.476562"/>
       <use xlink:href="#OpenSans-Bold-20" x="498.876953"/>
       <use xlink:href="#OpenSans-Bold-64" x="524.853516"/>
       <use xlink:href="#OpenSans-Bold-69" x="588.134766"/>
       <use xlink:href="#OpenSans-Bold-73" x="618.652344"/>
       <use xlink:href="#OpenSans-Bold-6d" x="668.359375"/>
       <use xlink:href="#OpenSans-Bold-69" x="766.552734"/>
       <use xlink:href="#OpenSans-Bold-6e" x="797.070312"/>
       <use xlink:href="#OpenSans-Bold-75" x="862.792969"/>
       <use xlink:href="#OpenSans-Bold-69" x="928.515625"/>
       <use xlink:href="#OpenSans-Bold-72" x="959.033203"/>
       <use xlink:href="#OpenSans-Bold-20" x="1004.443359"/>
       <use xlink:href="#OpenSans-Bold-6c" x="1030.419922"/>
       <use xlink:href="#OpenSans-Bold-61" x="1060.9375"/>
       <use xlink:href="#OpenSans-Bold-73" x="1121.337891"/>
      </g>
      <!-- desigualdades sociales -->
      <g style="fill: #37539c" transform="translate(217.488125 275.75875) scale(0.08 -0.08)">
       <use xlink:href="#OpenSans-Bold-64"/>
       <use xlink:href="#OpenSans-Bold-65" x="63.28125"/>
       <use xlink:href="#OpenSans-Bold-73" x="122.363281"/>
       <use xlink:href="#OpenSans-Bold-69" x="172.070312"/>
       <use xlink:href="#OpenSans-Bold-67" x="202.587891"/>
       <use xlink:href="#OpenSans-Bold-75" x="259.082031"/>
       <use xlink:href="#OpenSans-Bold-61" x="324.804688"/>
       <use xlink:href="#OpenSans-Bold-6c" x="385.205078"/>
       <use xlink:href="#OpenSans-Bold-64" x="415.722656"/>
       <use xlink:href="#OpenSans-Bold-61" x="479.003906"/>
       <use xlink:href="#OpenSans-Bold-64" x="539.404297"/>
       <use xlink:href="#OpenSans-Bold-65" x="602.685547"/>
       <use xlink:href="#OpenSans-Bold-73" x="661.767578"/>
       <use xlink:href="#OpenSans-Bold-20" x="711.474609"/>
       <use xlink:href="#OpenSans-Bold-73" x="737.451172"/>
       <use xlink:href="#OpenSans-Bold-6f" x="787.158203"/>
       <use xlink:href="#OpenSans-Bold-63" x="849.072266"/>
       <use xlink:href="#OpenSans-Bold-69" x="900.488281"/>
       <use xlink:href="#OpenSans-Bold-61" x="931.005859"/>
       <use xlink:href="#OpenSans-Bold-6c" x="991.40625"/>
       <use xlink:href="#OpenSans-Bold-65" x="1021.923828"/>
       <use xlink:href="#OpenSans-Bold-73" x="1081.005859"/>
      </g>
     </g>
    </g>
    <g id="xtick_3">
     <g id="line2d_3">
      <g>
       <use xlink:href="#mae4382cf65" x="408.928125" y="244.136" style="fill: #37539c; stroke: #37539c; stroke-width: 0.8"/>
      </g>
     </g>
     <g id="text_3">
      <!-- El conocimiento de los pueblos -->
      <g style="fill: #37539c" transform="translate(347.72 257.21475) scale(0.08 -0.08)">
       <defs>
        <path id="OpenSans-Bold-70" d="M 2444 3559 
Q 3034 3559 3398 3100 
Q 3763 2641 3763 1753 
Q 3763 1159 3591 754 
Q 3419 350 3116 143 
Q 2813 -63 2419 -63 
Q 2166 -63 1984 1 
Q 1803 66 1675 167 
Q 1547 269 1453 384 
L 1403 384 
Q 1428 259 1440 128 
Q 1453 -3 1453 -128 
L 1453 -1538 
L 500 -1538 
L 500 3494 
L 1275 3494 
L 1409 3041 
L 1453 3041 
Q 1547 3181 1681 3300 
Q 1816 3419 2005 3489 
Q 2194 3559 2444 3559 
z
M 2138 2797 
Q 1888 2797 1741 2694 
Q 1594 2591 1526 2384 
Q 1459 2178 1453 1863 
L 1453 1759 
Q 1453 1422 1517 1187 
Q 1581 953 1732 831 
Q 1884 709 2150 709 
Q 2369 709 2509 831 
Q 2650 953 2720 1189 
Q 2791 1425 2791 1766 
Q 2791 2278 2631 2537 
Q 2472 2797 2138 2797 
z
" transform="scale(0.015625)"/>
       </defs>
       <use xlink:href="#OpenSans-Bold-45"/>
       <use xlink:href="#OpenSans-Bold-6c" x="56.005859"/>
       <use xlink:href="#OpenSans-Bold-20" x="86.523438"/>
       <use xlink:href="#OpenSans-Bold-63" x="112.5"/>
       <use xlink:href="#OpenSans-Bold-6f" x="163.916016"/>
       <use xlink:href="#OpenSans-Bold-6e" x="225.830078"/>
       <use xlink:href="#OpenSans-Bold-6f" x="291.552734"/>
       <use xlink:href="#OpenSans-Bold-63" x="353.466797"/>
       <use xlink:href="#OpenSans-Bold-69" x="404.882812"/>
       <use xlink:href="#OpenSans-Bold-6d" x="435.400391"/>
       <use xlink:href="#OpenSans-Bold-69" x="533.59375"/>
       <use xlink:href="#OpenSans-Bold-65" x="564.111328"/>
       <use xlink:href="#OpenSans-Bold-6e" x="623.193359"/>
       <use xlink:href="#OpenSans-Bold-74" x="688.916016"/>
       <use xlink:href="#OpenSans-Bold-6f" x="732.324219"/>
       <use xlink:href="#OpenSans-Bold-20" x="794.238281"/>
       <use xlink:href="#OpenSans-Bold-64" x="820.214844"/>
       <use xlink:href="#OpenSans-Bold-65" x="883.496094"/>
       <use xlink:href="#OpenSans-Bold-20" x="942.578125"/>
       <use xlink:href="#OpenSans-Bold-6c" x="968.554688"/>
       <use xlink:href="#OpenSans-Bold-6f" x="999.072266"/>
       <use xlink:href="#OpenSans-Bold-73" x="1060.986328"/>
       <use xlink:href="#OpenSans-Bold-20" x="1110.693359"/>
       <use xlink:href="#OpenSans-Bold-70" x="1136.669922"/>
       <use xlink:href="#OpenSans-Bold-75" x="1199.951172"/>
       <use xlink:href="#OpenSans-Bold-65" x="1265.673828"/>
       <use xlink:href="#OpenSans-Bold-62" x="1324.755859"/>
       <use xlink:href="#OpenSans-Bold-6c" x="1388.037109"/>
       <use xlink:href="#OpenSans-Bold-6f" x="1418.554688"/>
       <use xlink:href="#OpenSans-Bold-73" x="1480.46875"/>
      </g>
      <!-- originarios es un aporte necesario a -->
      <g style="fill: #37539c" transform="translate(337.495 266.43175) scale(0.08 -0.08)">
       <use xlink:href="#OpenSans-Bold-6f"/>
       <use xlink:href="#OpenSans-Bold-72" x="61.914062"/>
       <use xlink:href="#OpenSans-Bold-69" x="107.324219"/>
       <use xlink:href="#OpenSans-Bold-67" x="137.841797"/>
       <use xlink:href="#OpenSans-Bold-69" x="194.335938"/>
       <use xlink:href="#OpenSans-Bold-6e" x="224.853516"/>
       <use xlink:href="#OpenSans-Bold-61" x="290.576172"/>
       <use xlink:href="#OpenSans-Bold-72" x="350.976562"/>
       <use xlink:href="#OpenSans-Bold-69" x="396.386719"/>
       <use xlink:href="#OpenSans-Bold-6f" x="426.904297"/>
       <use xlink:href="#OpenSans-Bold-73" x="488.818359"/>
       <use xlink:href="#OpenSans-Bold-20" x="538.525391"/>
       <use xlink:href="#OpenSans-Bold-65" x="564.501953"/>
       <use xlink:href="#OpenSans-Bold-73" x="623.583984"/>
       <use xlink:href="#OpenSans-Bold-20" x="673.291016"/>
       <use xlink:href="#OpenSans-Bold-75" x="699.267578"/>
       <use xlink:href="#OpenSans-Bold-6e" x="764.990234"/>
       <use xlink:href="#OpenSans-Bold-20" x="830.712891"/>
       <use xlink:href="#OpenSans-Bold-61" x="856.689453"/>
       <use xlink:href="#OpenSans-Bold-70" x="917.089844"/>
       <use xlink:href="#OpenSans-Bold-6f" x="980.371094"/>
       <use xlink:href="#OpenSans-Bold-72" x="1042.285156"/>
       <use xlink:href="#OpenSans-Bold-74" x="1087.695312"/>
       <use xlink:href="#OpenSans-Bold-65" x="1131.103516"/>
       <use xlink:href="#OpenSans-Bold-20" x="1190.185547"/>
       <use xlink:href="#OpenSans-Bold-6e" x="1216.162109"/>
       <use xlink:href="#OpenSans-Bold-65" x="1281.884766"/>
       <use xlink:href="#OpenSans-Bold-63" x="1340.966797"/>
       <use xlink:href="#OpenSans-Bold-65" x="1392.382812"/>
       <use xlink:href="#OpenSans-Bold-73" x="1451.464844"/>
       <use xlink:href="#OpenSans-Bold-61" x="1501.171875"/>
       <use xlink:href="#OpenSans-Bold-72" x="1561.572266"/>
       <use xlink:href="#OpenSans-Bold-69" x="1606.982422"/>
       <use xlink:href="#OpenSans-Bold-6f" x="1637.5"/>
       <use xlink:href="#OpenSans-Bold-20" x="1699.414062"/>
       <use xlink:href="#OpenSans-Bold-61" x="1725.390625"/>
      </g>
      <!-- la sociedad actual -->
      <g style="fill: #37539c" transform="translate(373.153125 275.64875) scale(0.08 -0.08)">
       <use xlink:href="#OpenSans-Bold-6c"/>
       <use xlink:href="#OpenSans-Bold-61" x="30.517578"/>
       <use xlink:href="#OpenSans-Bold-20" x="90.917969"/>
       <use xlink:href="#OpenSans-Bold-73" x="116.894531"/>
       <use xlink:href="#OpenSans-Bold-6f" x="166.601562"/>
       <use xlink:href="#OpenSans-Bold-63" x="228.515625"/>
       <use xlink:href="#OpenSans-Bold-69" x="279.931641"/>
       <use xlink:href="#OpenSans-Bold-65" x="310.449219"/>
       <use xlink:href="#OpenSans-Bold-64" x="369.53125"/>
       <use xlink:href="#OpenSans-Bold-61" x="432.8125"/>
       <use xlink:href="#OpenSans-Bold-64" x="493.212891"/>
       <use xlink:href="#OpenSans-Bold-20" x="556.494141"/>
       <use xlink:href="#OpenSans-Bold-61" x="582.470703"/>
       <use xlink:href="#OpenSans-Bold-63" x="642.871094"/>
       <use xlink:href="#OpenSans-Bold-74" x="694.287109"/>
       <use xlink:href="#OpenSans-Bold-75" x="737.695312"/>
       <use xlink:href="#OpenSans-Bold-61" x="803.417969"/>
       <use xlink:href="#OpenSans-Bold-6c" x="863.818359"/>
      </g>
     </g>
    </g>
    <g id="xtick_4">
     <g id="line2d_4">
      <g>
       <use xlink:href="#mae4382cf65" x="555.139375" y="244.136" style="fill: #37539c; stroke: #37539c; stroke-width: 0.8"/>
      </g>
     </g>
     <g id="text_4">
      <!-- El desarrollo científico y tecnológico -->
      <g style="fill: #37539c" transform="translate(483.41625 257.26475) scale(0.08 -0.08)">
       <use xlink:href="#OpenSans-Bold-45"/>
       <use xlink:href="#OpenSans-Bold-6c" x="56.005859"/>
       <use xlink:href="#OpenSans-Bold-20" x="86.523438"/>
       <use xlink:href="#OpenSans-Bold-64" x="112.5"/>
       <use xlink:href="#OpenSans-Bold-65" x="175.78125"/>
       <use xlink:href="#OpenSans-Bold-73" x="234.863281"/>
       <use xlink:href="#OpenSans-Bold-61" x="284.570312"/>
       <use xlink:href="#OpenSans-Bold-72" x="344.970703"/>
       <use xlink:href="#OpenSans-Bold-72" x="390.380859"/>
       <use xlink:href="#OpenSans-Bold-6f" x="435.791016"/>
       <use xlink:href="#OpenSans-Bold-6c" x="497.705078"/>
       <use xlink:href="#OpenSans-Bold-6c" x="528.222656"/>
       <use xlink:href="#OpenSans-Bold-6f" x="558.740234"/>
       <use xlink:href="#OpenSans-Bold-20" x="620.654297"/>
       <use xlink:href="#OpenSans-Bold-63" x="646.630859"/>
       <use xlink:href="#OpenSans-Bold-69" x="698.046875"/>
       <use xlink:href="#OpenSans-Bold-65" x="728.564453"/>
       <use xlink:href="#OpenSans-Bold-6e" x="787.646484"/>
       <use xlink:href="#OpenSans-Bold-74" x="853.369141"/>
       <use xlink:href="#OpenSans-Bold-ed" x="896.777344"/>
       <use xlink:href="#OpenSans-Bold-66" x="927.294922"/>
       <use xlink:href="#OpenSans-Bold-69" x="966.015625"/>
       <use xlink:href="#OpenSans-Bold-63" x="996.533203"/>
       <use xlink:href="#OpenSans-Bold-6f" x="1047.949219"/>
       <use xlink:href="#OpenSans-Bold-20" x="1109.863281"/>
       <use xlink:href="#OpenSans-Bold-79" x="1135.839844"/>
       <use xlink:href="#OpenSans-Bold-20" x="1192.724609"/>
       <use xlink:href="#OpenSans-Bold-74" x="1218.701172"/>
       <use xlink:href="#OpenSans-Bold-65" x="1262.109375"/>
       <use xlink:href="#OpenSans-Bold-63" x="1321.191406"/>
       <use xlink:href="#OpenSans-Bold-6e" x="1372.607422"/>
       <use xlink:href="#OpenSans-Bold-6f" x="1438.330078"/>
       <use xlink:href="#OpenSans-Bold-6c" x="1500.244141"/>
       <use xlink:href="#OpenSans-Bold-f3" x="1530.761719"/>
       <use xlink:href="#OpenSans-Bold-67" x="1592.675781"/>
       <use xlink:href="#OpenSans-Bold-69" x="1649.169922"/>
       <use xlink:href="#OpenSans-Bold-63" x="1679.6875"/>
       <use xlink:href="#OpenSans-Bold-6f" x="1731.103516"/>
      </g>
      <!-- está haciendo que nuestras vidas -->
      <g style="fill: #37539c" transform="translate(488.635 266.54175) scale(0.08 -0.08)">
       <defs>
        <path id="OpenSans-Bold-68" d="M 1453 4863 
L 1453 3872 
Q 1453 3613 1436 3378 
Q 1419 3144 1409 3047 
L 1459 3047 
Q 1572 3228 1726 3340 
Q 1881 3453 2068 3506 
Q 2256 3559 2472 3559 
Q 2850 3559 3131 3426 
Q 3413 3294 3569 3011 
Q 3725 2728 3725 2278 
L 3725 0 
L 2772 0 
L 2772 2041 
Q 2772 2416 2634 2606 
Q 2497 2797 2209 2797 
Q 1922 2797 1756 2664 
Q 1591 2531 1522 2273 
Q 1453 2016 1453 1644 
L 1453 0 
L 500 0 
L 500 4863 
L 1453 4863 
z
" transform="scale(0.015625)"/>
        <path id="OpenSans-Bold-71" d="M 2597 -1538 
L 2597 -72 
Q 2597 59 2608 192 
Q 2619 325 2638 453 
L 2597 453 
Q 2463 238 2227 87 
Q 1991 -63 1606 -63 
Q 1016 -63 652 395 
Q 288 853 288 1741 
Q 288 2338 456 2742 
Q 625 3147 926 3353 
Q 1228 3559 1625 3559 
Q 2009 3559 2248 3411 
Q 2488 3263 2638 3047 
L 2663 3047 
L 2747 3494 
L 3553 3494 
L 3553 -1538 
L 2597 -1538 
z
M 1947 684 
Q 2209 684 2364 787 
Q 2519 891 2587 1098 
Q 2656 1306 2663 1619 
L 2663 1734 
Q 2663 2244 2506 2514 
Q 2350 2784 1931 2784 
Q 1591 2784 1425 2512 
Q 1259 2241 1259 1728 
Q 1259 1206 1428 945 
Q 1597 684 1947 684 
z
" transform="scale(0.015625)"/>
        <path id="OpenSans-Bold-76" d="M 1331 0 
L 0 3494 
L 997 3494 
L 1672 1503 
Q 1728 1328 1761 1134 
Q 1794 941 1806 788 
L 1831 788 
Q 1841 953 1877 1140 
Q 1913 1328 1972 1503 
L 2644 3494 
L 3641 3494 
L 2309 0 
L 1331 0 
z
" transform="scale(0.015625)"/>
       </defs>
       <use xlink:href="#OpenSans-Bold-65"/>
       <use xlink:href="#OpenSans-Bold-73" x="59.082031"/>
       <use xlink:href="#OpenSans-Bold-74" x="108.789062"/>
       <use xlink:href="#OpenSans-Bold-e1" x="152.197266"/>
       <use xlink:href="#OpenSans-Bold-20" x="212.597656"/>
       <use xlink:href="#OpenSans-Bold-68" x="238.574219"/>
       <use xlink:href="#OpenSans-Bold-61" x="304.296875"/>
       <use xlink:href="#OpenSans-Bold-63" x="364.697266"/>
       <use xlink:href="#OpenSans-Bold-69" x="416.113281"/>
       <use xlink:href="#OpenSans-Bold-65" x="446.630859"/>
       <use xlink:href="#OpenSans-Bold-6e" x="505.712891"/>
       <use xlink:href="#OpenSans-Bold-64" x="571.435547"/>
       <use xlink:href="#OpenSans-Bold-6f" x="634.716797"/>
       <use xlink:href="#OpenSans-Bold-20" x="696.630859"/>
       <use xlink:href="#OpenSans-Bold-71" x="722.607422"/>
       <use xlink:href="#OpenSans-Bold-75" x="785.888672"/>
       <use xlink:href="#OpenSans-Bold-65" x="851.611328"/>
       <use xlink:href="#OpenSans-Bold-20" x="910.693359"/>
       <use xlink:href="#OpenSans-Bold-6e" x="936.669922"/>
       <use xlink:href="#OpenSans-Bold-75" x="1002.392578"/>
       <use xlink:href="#OpenSans-Bold-65" x="1068.115234"/>
       <use xlink:href="#OpenSans-Bold-73" x="1127.197266"/>
       <use xlink:href="#OpenSans-Bold-74" x="1176.904297"/>
       <use xlink:href="#OpenSans-Bold-72" x="1220.3125"/>
       <use xlink:href="#OpenSans-Bold-61" x="1265.722656"/>
       <use xlink:href="#OpenSans-Bold-73" x="1326.123047"/>
       <use xlink:href="#OpenSans-Bold-20" x="1375.830078"/>
       <use xlink:href="#OpenSans-Bold-76" x="1401.806641"/>
       <use xlink:href="#OpenSans-Bold-69" x="1458.691406"/>
       <use xlink:href="#OpenSans-Bold-64" x="1489.208984"/>
       <use xlink:href="#OpenSans-Bold-61" x="1552.490234"/>
       <use xlink:href="#OpenSans-Bold-73" x="1612.890625"/>
      </g>
      <!-- sean más fáciles y cómodas -->
      <g style="fill: #37539c" transform="translate(500.29 275.81875) scale(0.08 -0.08)">
       <use xlink:href="#OpenSans-Bold-73"/>
       <use xlink:href="#OpenSans-Bold-65" x="49.707031"/>
       <use xlink:href="#OpenSans-Bold-61" x="108.789062"/>
       <use xlink:href="#OpenSans-Bold-6e" x="169.189453"/>
       <use xlink:href="#OpenSans-Bold-20" x="234.912109"/>
       <use xlink:href="#OpenSans-Bold-6d" x="260.888672"/>
       <use xlink:href="#OpenSans-Bold-e1" x="359.082031"/>
       <use xlink:href="#OpenSans-Bold-73" x="419.482422"/>
       <use xlink:href="#OpenSans-Bold-20" x="469.189453"/>
       <use xlink:href="#OpenSans-Bold-66" x="495.166016"/>
       <use xlink:href="#OpenSans-Bold-e1" x="533.886719"/>
       <use xlink:href="#OpenSans-Bold-63" x="594.287109"/>
       <use xlink:href="#OpenSans-Bold-69" x="645.703125"/>
       <use xlink:href="#OpenSans-Bold-6c" x="676.220703"/>
       <use xlink:href="#OpenSans-Bold-65" x="706.738281"/>
       <use xlink:href="#OpenSans-Bold-73" x="765.820312"/>
       <use xlink:href="#OpenSans-Bold-20" x="815.527344"/>
       <use xlink:href="#OpenSans-Bold-79" x="841.503906"/>
       <use xlink:href="#OpenSans-Bold-20" x="898.388672"/>
       <use xlink:href="#OpenSans-Bold-63" x="924.365234"/>
       <use xlink:href="#OpenSans-Bold-f3" x="975.78125"/>
       <use xlink:href="#OpenSans-Bold-6d" x="1037.695312"/>
       <use xlink:href="#OpenSans-Bold-6f" x="1135.888672"/>
       <use xlink:href="#OpenSans-Bold-64" x="1197.802734"/>
       <use xlink:href="#OpenSans-Bold-61" x="1261.083984"/>
       <use xlink:href="#OpenSans-Bold-73" x="1321.484375"/>
      </g>
     </g>
    </g>
   </g>
   <g id="matplotlib.axis_2">
    <g id="ytick_1">
     <g id="line2d_5">
      <path d="M 43.4 244.136 
L 628.245 244.136 
" clip-path="url(#p44df674910)" style="fill: none; stroke-dasharray: 2.96,1.28; stroke-dashoffset: 0; stroke: #b0b0b0; stroke-width: 0.8"/>
     </g>
     <g id="line2d_6">
      <defs>
       <path id="m6dc9e552a4" d="M 0 0 
L -3.5 0 
" style="stroke: #37539c; stroke-width: 0.8"/>
      </defs>
      <g>
       <use xlink:href="#m6dc9e552a4" x="43.4" y="244.136" style="fill: #37539c; stroke: #37539c; stroke-width: 0.8"/>
      </g>
     </g>
     <g id="text_5">
      <!-- 0 -->
      <g style="fill: #37539c" transform="translate(30.682813 247.935219) scale(0.1 -0.1)">
       <defs>
        <path id="OpenSans-Bold-30" d="M 3425 2284 
Q 3425 1731 3339 1297 
Q 3253 863 3064 559 
Q 2875 256 2569 96 
Q 2263 -63 1825 -63 
Q 1275 -63 922 217 
Q 569 497 400 1023 
Q 231 1550 231 2284 
Q 231 3025 386 3551 
Q 541 4078 891 4359 
Q 1241 4641 1825 4641 
Q 2372 4641 2726 4361 
Q 3081 4081 3253 3554 
Q 3425 3028 3425 2284 
z
M 1191 2284 
Q 1191 1763 1248 1414 
Q 1306 1066 1443 891 
Q 1581 716 1825 716 
Q 2066 716 2205 889 
Q 2344 1063 2403 1411 
Q 2463 1759 2463 2284 
Q 2463 2806 2403 3156 
Q 2344 3506 2205 3682 
Q 2066 3859 1825 3859 
Q 1581 3859 1443 3682 
Q 1306 3506 1248 3156 
Q 1191 2806 1191 2284 
z
" transform="scale(0.015625)"/>
       </defs>
       <use xlink:href="#OpenSans-Bold-30"/>
      </g>
     </g>
    </g>
    <g id="ytick_2">
     <g id="line2d_7">
      <path d="M 43.4 216.768418 
L 628.245 216.768418 
" clip-path="url(#p44df674910)" style="fill: none; stroke-dasharray: 2.96,1.28; stroke-dashoffset: 0; stroke: #b0b0b0; stroke-width: 0.8"/>
     </g>
     <g id="line2d_8">
      <g>
       <use xlink:href="#m6dc9e552a4" x="43.4" y="216.768418" style="fill: #37539c; stroke: #37539c; stroke-width: 0.8"/>
      </g>
     </g>
     <g id="text_6">
      <!-- 10 -->
      <g style="fill: #37539c" transform="translate(24.965625 220.567637) scale(0.1 -0.1)">
       <defs>
        <path id="OpenSans-Bold-31" d="M 2644 0 
L 1678 0 
L 1678 2644 
Q 1678 2753 1681 2914 
Q 1684 3075 1690 3245 
Q 1697 3416 1703 3553 
Q 1669 3513 1564 3414 
Q 1459 3316 1369 3238 
L 844 2816 
L 378 3397 
L 1850 4569 
L 2644 4569 
L 2644 0 
z
" transform="scale(0.015625)"/>
       </defs>
       <use xlink:href="#OpenSans-Bold-31"/>
       <use xlink:href="#OpenSans-Bold-30" x="57.177734"/>
      </g>
     </g>
    </g>
    <g id="ytick_3">
     <g id="line2d_9">
      <path d="M 43.4 189.400837 
L 628.245 189.400837 
" clip-path="url(#p44df674910)" style="fill: none; stroke-dasharray: 2.96,1.28; stroke-dashoffset: 0; stroke: #b0b0b0; stroke-width: 0.8"/>
     </g>
     <g id="line2d_10">
      <g>
       <use xlink:href="#m6dc9e552a4" x="43.4" y="189.400837" style="fill: #37539c; stroke: #37539c; stroke-width: 0.8"/>
      </g>
     </g>
     <g id="text_7">
      <!-- 20 -->
      <g style="fill: #37539c" transform="translate(24.965625 193.200056) scale(0.1 -0.1)">
       <defs>
        <path id="OpenSans-Bold-32" d="M 3450 0 
L 256 0 
L 256 672 
L 1403 1831 
Q 1750 2188 1961 2427 
Q 2172 2666 2267 2862 
Q 2363 3059 2363 3284 
Q 2363 3556 2211 3692 
Q 2059 3828 1806 3828 
Q 1541 3828 1291 3706 
Q 1041 3584 769 3359 
L 244 3981 
Q 441 4150 661 4300 
Q 881 4450 1173 4542 
Q 1466 4634 1875 4634 
Q 2325 4634 2648 4471 
Q 2972 4309 3147 4029 
Q 3322 3750 3322 3397 
Q 3322 3019 3172 2706 
Q 3022 2394 2736 2087 
Q 2450 1781 2047 1409 
L 1459 856 
L 1459 813 
L 3450 813 
L 3450 0 
z
" transform="scale(0.015625)"/>
       </defs>
       <use xlink:href="#OpenSans-Bold-32"/>
       <use xlink:href="#OpenSans-Bold-30" x="57.177734"/>
      </g>
     </g>
    </g>
    <g id="ytick_4">
     <g id="line2d_11">
      <path d="M 43.4 162.033255 
L 628.245 162.033255 
" clip-path="url(#p44df674910)" style="fill: none; stroke-dasharray: 2.96,1.28; stroke-dashoffset: 0; stroke: #b0b0b0; stroke-width: 0.8"/>
     </g>
     <g id="line2d_12">
      <g>
       <use xlink:href="#m6dc9e552a4" x="43.4" y="162.033255" style="fill: #37539c; stroke: #37539c; stroke-width: 0.8"/>
      </g>
     </g>
     <g id="text_8">
      <!-- 30 -->
      <g style="fill: #37539c" transform="translate(24.965625 165.832474) scale(0.1 -0.1)">
       <defs>
        <path id="OpenSans-Bold-33" d="M 3272 3547 
Q 3272 3231 3140 3000 
Q 3009 2769 2786 2622 
Q 2563 2475 2284 2406 
L 2284 2388 
Q 2834 2319 3120 2050 
Q 3406 1781 3406 1331 
Q 3406 931 3211 615 
Q 3016 300 2609 118 
Q 2203 -63 1563 -63 
Q 1184 -63 857 -2 
Q 531 59 244 184 
L 244 1006 
Q 538 856 859 779 
Q 1181 703 1459 703 
Q 1978 703 2186 883 
Q 2394 1063 2394 1388 
Q 2394 1578 2297 1709 
Q 2200 1841 1961 1909 
Q 1722 1978 1294 1978 
L 947 1978 
L 947 2719 
L 1300 2719 
Q 1722 2719 1942 2798 
Q 2163 2878 2242 3017 
Q 2322 3156 2322 3334 
Q 2322 3578 2172 3715 
Q 2022 3853 1672 3853 
Q 1453 3853 1273 3798 
Q 1094 3744 950 3667 
Q 806 3591 697 3519 
L 250 4184 
Q 519 4378 880 4506 
Q 1241 4634 1741 4634 
Q 2447 4634 2859 4350 
Q 3272 4066 3272 3547 
z
" transform="scale(0.015625)"/>
       </defs>
       <use xlink:href="#OpenSans-Bold-33"/>
       <use xlink:href="#OpenSans-Bold-30" x="57.177734"/>
      </g>
     </g>
    </g>
    <g id="ytick_5">
     <g id="line2d_13">
      <path d="M 43.4 134.665674 
L 628.245 134.665674 
" clip-path="url(#p44df674910)" style="fill: none; stroke-dasharray: 2.96,1.28; stroke-dashoffset: 0; stroke: #b0b0b0; stroke-width: 0.8"/>
     </g>
     <g id="line2d_14">
      <g>
       <use xlink:href="#m6dc9e552a4" x="43.4" y="134.665674" style="fill: #37539c; stroke: #37539c; stroke-width: 0.8"/>
      </g>
     </g>
     <g id="text_9">
      <!-- 40 -->
      <g style="fill: #37539c" transform="translate(24.965625 138.464893) scale(0.1 -0.1)">
       <defs>
        <path id="OpenSans-Bold-34" d="M 3553 947 
L 3003 947 
L 3003 0 
L 2059 0 
L 2059 947 
L 109 947 
L 109 1619 
L 2113 4569 
L 3003 4569 
L 3003 1697 
L 3553 1697 
L 3553 947 
z
M 2059 1697 
L 2059 2472 
Q 2059 2581 2064 2731 
Q 2069 2881 2075 3031 
Q 2081 3181 2089 3298 
Q 2097 3416 2100 3463 
L 2075 3463 
Q 2016 3334 1950 3214 
Q 1884 3094 1797 2963 
L 959 1697 
L 2059 1697 
z
" transform="scale(0.015625)"/>
       </defs>
       <use xlink:href="#OpenSans-Bold-34"/>
       <use xlink:href="#OpenSans-Bold-30" x="57.177734"/>
      </g>
     </g>
    </g>
    <g id="ytick_6">
     <g id="line2d_15">
      <path d="M 43.4 107.298092 
L 628.245 107.298092 
" clip-path="url(#p44df674910)" style="fill: none; stroke-dasharray: 2.96,1.28; stroke-dashoffset: 0; stroke: #b0b0b0; stroke-width: 0.8"/>
     </g>
     <g id="line2d_16">
      <g>
       <use xlink:href="#m6dc9e552a4" x="43.4" y="107.298092" style="fill: #37539c; stroke: #37539c; stroke-width: 0.8"/>
      </g>
     </g>
     <g id="text_10">
      <!-- 50 -->
      <g style="fill: #37539c" transform="translate(24.965625 111.097311) scale(0.1 -0.1)">
       <defs>
        <path id="OpenSans-Bold-35" d="M 1919 2919 
Q 2338 2919 2664 2759 
Q 2991 2600 3178 2290 
Q 3366 1981 3366 1528 
Q 3366 1034 3161 676 
Q 2956 319 2551 128 
Q 2147 -63 1544 -63 
Q 1184 -63 867 -2 
Q 550 59 313 184 
L 313 1019 
Q 550 894 883 808 
Q 1216 722 1509 722 
Q 1797 722 1994 798 
Q 2191 875 2292 1036 
Q 2394 1197 2394 1447 
Q 2394 1781 2169 1959 
Q 1944 2138 1478 2138 
Q 1300 2138 1108 2103 
Q 916 2069 788 2034 
L 403 2241 
L 575 4569 
L 3053 4569 
L 3053 3750 
L 1422 3750 
L 1338 2853 
Q 1444 2875 1569 2897 
Q 1694 2919 1919 2919 
z
" transform="scale(0.015625)"/>
       </defs>
       <use xlink:href="#OpenSans-Bold-35"/>
       <use xlink:href="#OpenSans-Bold-30" x="57.177734"/>
      </g>
     </g>
    </g>
    <g id="ytick_7">
     <g id="line2d_17">
      <path d="M 43.4 79.930511 
L 628.245 79.930511 
" clip-path="url(#p44df674910)" style="fill: none; stroke-dasharray: 2.96,1.28; stroke-dashoffset: 0; stroke: #b0b0b0; stroke-width: 0.8"/>
     </g>
     <g id="line2d_18">
      <g>
       <use xlink:href="#m6dc9e552a4" x="43.4" y="79.930511" style="fill: #37539c; stroke: #37539c; stroke-width: 0.8"/>
      </g>
     </g>
     <g id="text_11">
      <!-- 60 -->
      <g style="fill: #37539c" transform="translate(24.965625 83.72973) scale(0.1 -0.1)">
       <defs>
        <path id="OpenSans-Bold-36" d="M 225 1941 
Q 225 2334 283 2720 
Q 341 3106 484 3448 
Q 628 3791 887 4055 
Q 1147 4319 1547 4470 
Q 1947 4622 2516 4622 
Q 2650 4622 2829 4611 
Q 3009 4600 3128 4575 
L 3128 3803 
Q 3003 3831 2861 3848 
Q 2719 3866 2578 3866 
Q 2009 3866 1698 3684 
Q 1388 3503 1261 3183 
Q 1134 2863 1113 2438 
L 1153 2438 
Q 1241 2591 1373 2709 
Q 1506 2828 1697 2898 
Q 1888 2969 2144 2969 
Q 2544 2969 2837 2798 
Q 3131 2628 3290 2306 
Q 3450 1984 3450 1522 
Q 3450 1028 3259 672 
Q 3069 316 2720 126 
Q 2372 -63 1894 -63 
Q 1544 -63 1241 57 
Q 938 178 709 425 
Q 481 672 353 1048 
Q 225 1425 225 1941 
z
M 1875 709 
Q 2159 709 2337 903 
Q 2516 1097 2516 1509 
Q 2516 1844 2361 2036 
Q 2206 2228 1894 2228 
Q 1681 2228 1520 2133 
Q 1359 2038 1271 1892 
Q 1184 1747 1184 1594 
Q 1184 1434 1228 1278 
Q 1272 1122 1359 994 
Q 1447 866 1576 787 
Q 1706 709 1875 709 
z
" transform="scale(0.015625)"/>
       </defs>
       <use xlink:href="#OpenSans-Bold-36"/>
       <use xlink:href="#OpenSans-Bold-30" x="57.177734"/>
      </g>
     </g>
    </g>
    <g id="ytick_8">
     <g id="line2d_19">
      <path d="M 43.4 52.562929 
L 628.245 52.562929 
" clip-path="url(#p44df674910)" style="fill: none; stroke-dasharray: 2.96,1.28; stroke-dashoffset: 0; stroke: #b0b0b0; stroke-width: 0.8"/>
     </g>
     <g id="line2d_20">
      <g>
       <use xlink:href="#m6dc9e552a4" x="43.4" y="52.562929" style="fill: #37539c; stroke: #37539c; stroke-width: 0.8"/>
      </g>
     </g>
     <g id="text_12">
      <!-- 70 -->
      <g style="fill: #37539c" transform="translate(24.965625 56.362148) scale(0.1 -0.1)">
       <defs>
        <path id="OpenSans-Bold-37" d="M 709 0 
L 2425 3756 
L 172 3756 
L 172 4569 
L 3450 4569 
L 3450 3963 
L 1722 0 
L 709 0 
z
" transform="scale(0.015625)"/>
       </defs>
       <use xlink:href="#OpenSans-Bold-37"/>
       <use xlink:href="#OpenSans-Bold-30" x="57.177734"/>
      </g>
     </g>
    </g>
    <g id="ytick_9">
     <g id="line2d_21">
      <path d="M 43.4 25.195348 
L 628.245 25.195348 
" clip-path="url(#p44df674910)" style="fill: none; stroke-dasharray: 2.96,1.28; stroke-dashoffset: 0; stroke: #b0b0b0; stroke-width: 0.8"/>
     </g>
     <g id="line2d_22">
      <g>
       <use xlink:href="#m6dc9e552a4" x="43.4" y="25.195348" style="fill: #37539c; stroke: #37539c; stroke-width: 0.8"/>
      </g>
     </g>
     <g id="text_13">
      <!-- 80 -->
      <g style="fill: #37539c" transform="translate(24.965625 28.994567) scale(0.1 -0.1)">
       <defs>
        <path id="OpenSans-Bold-38" d="M 1831 4628 
Q 2225 4628 2558 4506 
Q 2891 4384 3091 4139 
Q 3291 3894 3291 3525 
Q 3291 3250 3183 3044 
Q 3075 2838 2890 2683 
Q 2706 2528 2472 2413 
Q 2716 2284 2934 2114 
Q 3153 1944 3292 1716 
Q 3431 1488 3431 1184 
Q 3431 803 3228 523 
Q 3025 244 2665 90 
Q 2306 -63 1831 -63 
Q 1319 -63 959 84 
Q 600 231 412 504 
Q 225 778 225 1159 
Q 225 1472 342 1703 
Q 459 1934 659 2101 
Q 859 2269 1100 2388 
Q 897 2516 730 2678 
Q 563 2841 464 3050 
Q 366 3259 366 3531 
Q 366 3894 570 4137 
Q 775 4381 1109 4504 
Q 1444 4628 1831 4628 
z
M 1119 1216 
Q 1119 969 1295 808 
Q 1472 647 1819 647 
Q 2178 647 2356 801 
Q 2534 956 2534 1209 
Q 2534 1384 2432 1515 
Q 2331 1647 2178 1751 
Q 2025 1856 1869 1947 
L 1784 1991 
Q 1584 1900 1436 1787 
Q 1288 1675 1203 1534 
Q 1119 1394 1119 1216 
z
M 1825 3922 
Q 1588 3922 1431 3800 
Q 1275 3678 1275 3456 
Q 1275 3300 1351 3183 
Q 1428 3066 1554 2978 
Q 1681 2891 1831 2816 
Q 1975 2884 2100 2968 
Q 2225 3053 2303 3172 
Q 2381 3291 2381 3456 
Q 2381 3678 2223 3800 
Q 2066 3922 1825 3922 
z
" transform="scale(0.015625)"/>
       </defs>
       <use xlink:href="#OpenSans-Bold-38"/>
       <use xlink:href="#OpenSans-Bold-30" x="57.177734"/>
      </g>
     </g>
    </g>
    <g id="text_14">
     <!-- Porcentaje de respuestas -->
     <g style="fill: #37539c" transform="translate(18.5625 190.446125) rotate(-90) scale(0.1 -0.1)">
      <defs>
       <path id="OpenSans-Bold-50" d="M 2034 4569 
Q 2919 4569 3325 4189 
Q 3731 3809 3731 3144 
Q 3731 2844 3640 2570 
Q 3550 2297 3345 2084 
Q 3141 1872 2800 1748 
Q 2459 1625 1959 1625 
L 1544 1625 
L 1544 0 
L 575 0 
L 575 4569 
L 2034 4569 
z
M 1984 3775 
L 1544 3775 
L 1544 2419 
L 1863 2419 
Q 2134 2419 2334 2491 
Q 2534 2563 2643 2716 
Q 2753 2869 2753 3109 
Q 2753 3447 2565 3611 
Q 2378 3775 1984 3775 
z
" transform="scale(0.015625)"/>
      </defs>
      <use xlink:href="#OpenSans-Bold-50"/>
      <use xlink:href="#OpenSans-Bold-6f" x="62.792969"/>
      <use xlink:href="#OpenSans-Bold-72" x="124.707031"/>
      <use xlink:href="#OpenSans-Bold-63" x="170.117188"/>
      <use xlink:href="#OpenSans-Bold-65" x="221.533203"/>
      <use xlink:href="#OpenSans-Bold-6e" x="280.615234"/>
      <use xlink:href="#OpenSans-Bold-74" x="346.337891"/>
      <use xlink:href="#OpenSans-Bold-61" x="389.746094"/>
      <use xlink:href="#OpenSans-Bold-6a" x="450.146484"/>
      <use xlink:href="#OpenSans-Bold-65" x="480.664062"/>
      <use xlink:href="#OpenSans-Bold-20" x="539.746094"/>
      <use xlink:href="#OpenSans-Bold-64" x="565.722656"/>
      <use xlink:href="#OpenSans-Bold-65" x="629.003906"/>
      <use xlink:href="#OpenSans-Bold-20" x="688.085938"/>
      <use xlink:href="#OpenSans-Bold-72" x="714.0625"/>
      <use xlink:href="#OpenSans-Bold-65" x="759.472656"/>
      <use xlink:href="#OpenSans-Bold-73" x="818.554688"/>
      <use xlink:href="#OpenSans-Bold-70" x="868.261719"/>
      <use xlink:href="#OpenSans-Bold-75" x="931.542969"/>
      <use xlink:href="#OpenSans-Bold-65" x="997.265625"/>
      <use xlink:href="#OpenSans-Bold-73" x="1056.347656"/>
      <use xlink:href="#OpenSans-Bold-74" x="1106.054688"/>
      <use xlink:href="#OpenSans-Bold-61" x="1149.462891"/>
      <use xlink:href="#OpenSans-Bold-73" x="1209.863281"/>
     </g>
    </g>
   </g>
   <g id="patch_3">
    <path d="M 582.529616 244.092212 
L 576.486217 244.092212 
Q 591.107342 244.092212 591.107342 242.997509 
L 591.107342 23.049729 
Q 591.107342 21.955026 576.486217 21.955026 
L 582.529616 21.955026 
Q 567.908491 21.955026 567.908491 23.049729 
L 567.908491 242.997509 
Q 567.908491 244.092212 582.529616 244.092212 
z
" clip-path="url(#p44df674910)" style="fill: #f45b69"/>
   </g>
   <g id="patch_4">
    <path d="M 436.318366 244.092212 
L 430.274967 244.092212 
Q 444.896092 244.092212 444.896092 242.997509 
L 444.896092 58.901261 
Q 444.896092 57.806558 430.274967 57.806558 
L 436.318366 57.806558 
Q 421.697241 57.806558 421.697241 58.901261 
L 421.697241 242.997509 
Q 421.697241 244.092212 436.318366 244.092212 
z
" clip-path="url(#p44df674910)" style="fill: #f45b69"/>
   </g>
   <g id="patch_5">
    <path d="M 290.107116 244.092212 
L 284.063717 244.092212 
Q 298.684843 244.092212 298.684843 242.997509 
L 298.684843 114.183776 
Q 298.684843 113.089073 284.063717 113.089073 
L 290.107116 113.089073 
Q 275.485991 113.089073 275.485991 114.183776 
L 275.485991 242.997509 
Q 275.485991 244.092212 290.107116 244.092212 
z
" clip-path="url(#p44df674910)" style="fill: #f45b69"/>
   </g>
   <g id="patch_6">
    <path d="M 143.895866 244.092212 
L 137.852467 244.092212 
Q 152.473592 244.092212 152.473592 242.997509 
L 152.473592 71.764025 
Q 152.473592 70.669321 137.852467 70.669321 
L 143.895866 70.669321 
Q 129.274741 70.669321 129.274741 71.764025 
L 129.274741 242.997509 
Q 129.274741 244.092212 143.895866 244.092212 
z
" clip-path="url(#p44df674910)" style="fill: #f45b69"/>
   </g>
   <g id="patch_7">
    <path d="M 558.161074 244.092212 
L 552.117676 244.092212 
Q 566.738801 244.092212 566.738801 242.997509 
L 566.738801 214.349124 
Q 566.738801 213.254421 552.117676 213.254421 
L 558.161074 213.254421 
Q 543.539949 213.254421 543.539949 214.349124 
L 543.539949 242.997509 
Q 543.539949 244.092212 558.161074 244.092212 
z
" clip-path="url(#p44df674910)" style="fill: #59c3c3"/>
   </g>
   <g id="patch_8">
    <path d="M 411.949824 244.092212 
L 405.906426 244.092212 
Q 420.527551 244.092212 420.527551 242.997509 
L 420.527551 198.749603 
Q 420.527551 197.6549 405.906426 197.6549 
L 411.949824 197.6549 
Q 397.328699 197.6549 397.328699 198.749603 
L 397.328699 242.997509 
Q 397.328699 244.092212 411.949824 244.092212 
z
" clip-path="url(#p44df674910)" style="fill: #59c3c3"/>
   </g>
   <g id="patch_9">
    <path d="M 265.738574 244.092212 
L 259.695176 244.092212 
Q 274.316301 244.092212 274.316301 242.997509 
L 274.316301 185.613164 
Q 274.316301 184.51846 259.695176 184.51846 
L 265.738574 184.51846 
Q 251.117449 184.51846 251.117449 185.613164 
L 251.117449 242.997509 
Q 251.117449 244.092212 265.738574 244.092212 
z
" clip-path="url(#p44df674910)" style="fill: #59c3c3"/>
   </g>
   <g id="patch_10">
    <path d="M 119.527324 244.092212 
L 113.483926 244.092212 
Q 128.105051 244.092212 128.105051 242.997509 
L 128.105051 192.455059 
Q 128.105051 191.360356 113.483926 191.360356 
L 119.527324 191.360356 
Q 104.906199 191.360356 104.906199 192.455059 
L 104.906199 242.997509 
Q 104.906199 244.092212 119.527324 244.092212 
z
" clip-path="url(#p44df674910)" style="fill: #59c3c3"/>
   </g>
   <g id="patch_11">
    <path d="M 533.792533 244.092212 
L 527.749134 244.092212 
Q 542.370259 244.092212 542.370259 242.997509 
L 542.370259 228.580267 
Q 542.370259 227.485563 527.749134 227.485563 
L 533.792533 227.485563 
Q 519.171407 227.485563 519.171407 228.580267 
L 519.171407 242.997509 
Q 519.171407 244.092212 533.792533 244.092212 
z
" clip-path="url(#p44df674910)" style="fill: #37539c"/>
   </g>
   <g id="patch_12">
    <path d="M 387.581283 244.092212 
L 381.537884 244.092212 
Q 396.159009 244.092212 396.159009 242.997509 
L 396.159009 211.612366 
Q 396.159009 210.517663 381.537884 210.517663 
L 387.581283 210.517663 
Q 372.960158 210.517663 372.960158 211.612366 
L 372.960158 242.997509 
Q 372.960158 244.092212 387.581283 244.092212 
z
" clip-path="url(#p44df674910)" style="fill: #37539c"/>
   </g>
   <g id="patch_13">
    <path d="M 241.370033 244.092212 
L 235.326634 244.092212 
Q 249.947759 244.092212 249.947759 242.997509 
L 249.947759 168.097912 
Q 249.947759 167.003208 235.326634 167.003208 
L 241.370033 167.003208 
Q 226.748908 167.003208 226.748908 168.097912 
L 226.748908 242.997509 
Q 226.748908 244.092212 241.370033 244.092212 
z
" clip-path="url(#p44df674910)" style="fill: #37539c"/>
   </g>
   <g id="patch_14">
    <path d="M 95.158783 244.092212 
L 89.115384 244.092212 
Q 103.736509 244.092212 103.736509 242.997509 
L 103.736509 203.402092 
Q 103.736509 202.307388 89.115384 202.307388 
L 95.158783 202.307388 
Q 80.537658 202.307388 80.537658 203.402092 
L 80.537658 242.997509 
Q 80.537658 244.092212 95.158783 244.092212 
z
" clip-path="url(#p44df674910)" style="fill: #37539c"/>
   </g>
   <g id="patch_15">
    <path d="M 43.4 244.136 
L 43.4 10.8 
" style="fill: none; stroke: #000000; stroke-width: 0.8; stroke-linejoin: miter; stroke-linecap: square"/>
   </g>
   <g id="patch_16">
    <path d="M 43.4 244.136 
L 628.245 244.136 
" style="fill: none; stroke: #000000; stroke-width: 0.8; stroke-linejoin: miter; stroke-linecap: square"/>
   </g>
   <g id="text_15">
    <!-- 15.3% -->
    <g style="fill: #37539c" transform="translate(80.532083 199.3411) scale(0.08 -0.08)">
     <defs>
      <path id="OpenSans-Bold-2e" d="M 366 447 
Q 366 741 527 859 
Q 688 978 916 978 
Q 1138 978 1298 859 
Q 1459 741 1459 447 
Q 1459 166 1298 41 
Q 1138 -84 916 -84 
Q 688 -84 527 41 
Q 366 166 366 447 
z
" transform="scale(0.015625)"/>
      <path id="OpenSans-Bold-25" d="M 1275 4634 
Q 1813 4634 2091 4259 
Q 2369 3884 2369 3206 
Q 2369 2528 2106 2147 
Q 1844 1766 1275 1766 
Q 747 1766 472 2147 
Q 197 2528 197 3206 
Q 197 3884 455 4259 
Q 713 4634 1275 4634 
z
M 1281 3981 
Q 1128 3981 1056 3787 
Q 984 3594 984 3200 
Q 984 2806 1056 2609 
Q 1128 2413 1281 2413 
Q 1434 2413 1507 2608 
Q 1581 2803 1581 3200 
Q 1581 3594 1507 3787 
Q 1434 3981 1281 3981 
z
M 4519 4569 
L 1984 0 
L 1234 0 
L 3769 4569 
L 4519 4569 
z
M 4475 2809 
Q 5013 2809 5291 2434 
Q 5569 2059 5569 1381 
Q 5569 706 5306 325 
Q 5044 -56 4475 -56 
Q 3947 -56 3672 325 
Q 3397 706 3397 1381 
Q 3397 2059 3655 2434 
Q 3913 2809 4475 2809 
z
M 4481 2156 
Q 4328 2156 4256 1962 
Q 4184 1769 4184 1375 
Q 4184 981 4256 784 
Q 4328 588 4481 588 
Q 4634 588 4707 783 
Q 4781 978 4781 1375 
Q 4781 1769 4707 1962 
Q 4634 2156 4481 2156 
z
" transform="scale(0.015625)"/>
     </defs>
     <use xlink:href="#OpenSans-Bold-31"/>
     <use xlink:href="#OpenSans-Bold-35" x="57.177734"/>
     <use xlink:href="#OpenSans-Bold-2e" x="114.355469"/>
     <use xlink:href="#OpenSans-Bold-33" x="142.871094"/>
     <use xlink:href="#OpenSans-Bold-25" x="200.048828"/>
    </g>
   </g>
   <g id="text_16">
    <!-- 28.2% -->
    <g style="fill: #37539c" transform="translate(226.743333 164.03692) scale(0.08 -0.08)">
     <use xlink:href="#OpenSans-Bold-32"/>
     <use xlink:href="#OpenSans-Bold-38" x="57.177734"/>
     <use xlink:href="#OpenSans-Bold-2e" x="114.355469"/>
     <use xlink:href="#OpenSans-Bold-32" x="142.871094"/>
     <use xlink:href="#OpenSans-Bold-25" x="200.048828"/>
    </g>
   </g>
   <g id="text_17">
    <!-- 12.3% -->
    <g style="fill: #37539c" transform="translate(372.954583 207.551375) scale(0.08 -0.08)">
     <use xlink:href="#OpenSans-Bold-31"/>
     <use xlink:href="#OpenSans-Bold-32" x="57.177734"/>
     <use xlink:href="#OpenSans-Bold-2e" x="114.355469"/>
     <use xlink:href="#OpenSans-Bold-33" x="142.871094"/>
     <use xlink:href="#OpenSans-Bold-25" x="200.048828"/>
    </g>
   </g>
   <g id="text_18">
    <!-- 6.1% -->
    <g style="fill: #37539c" transform="translate(521.452708 224.519275) scale(0.08 -0.08)">
     <use xlink:href="#OpenSans-Bold-36"/>
     <use xlink:href="#OpenSans-Bold-2e" x="57.177734"/>
     <use xlink:href="#OpenSans-Bold-31" x="85.693359"/>
     <use xlink:href="#OpenSans-Bold-25" x="142.871094"/>
    </g>
   </g>
   <g id="text_19">
    <!-- 19.3% -->
    <g style="fill: #37539c" transform="translate(104.900625 188.394068) scale(0.08 -0.08)">
     <defs>
      <path id="OpenSans-Bold-39" d="M 3431 2619 
Q 3431 2225 3373 1837 
Q 3316 1450 3172 1108 
Q 3028 766 2768 502 
Q 2509 238 2109 87 
Q 1709 -63 1141 -63 
Q 1006 -63 825 -52 
Q 644 -41 525 -19 
L 525 756 
Q 650 725 790 708 
Q 931 691 1075 691 
Q 1647 691 1958 872 
Q 2269 1053 2395 1375 
Q 2522 1697 2541 2119 
L 2503 2119 
Q 2413 1969 2289 1848 
Q 2166 1728 1975 1658 
Q 1784 1588 1491 1588 
Q 1100 1588 811 1758 
Q 522 1928 364 2251 
Q 206 2575 206 3034 
Q 206 3531 395 3886 
Q 584 4241 934 4431 
Q 1284 4622 1759 4622 
Q 2109 4622 2412 4501 
Q 2716 4381 2945 4134 
Q 3175 3888 3303 3509 
Q 3431 3131 3431 2619 
z
M 1778 3847 
Q 1497 3847 1319 3653 
Q 1141 3459 1141 3047 
Q 1141 2716 1294 2522 
Q 1447 2328 1759 2328 
Q 1975 2328 2134 2423 
Q 2294 2519 2383 2664 
Q 2472 2809 2472 2963 
Q 2472 3122 2428 3278 
Q 2384 3434 2296 3562 
Q 2209 3691 2079 3769 
Q 1950 3847 1778 3847 
z
" transform="scale(0.015625)"/>
     </defs>
     <use xlink:href="#OpenSans-Bold-31"/>
     <use xlink:href="#OpenSans-Bold-39" x="57.177734"/>
     <use xlink:href="#OpenSans-Bold-2e" x="114.355469"/>
     <use xlink:href="#OpenSans-Bold-33" x="142.871094"/>
     <use xlink:href="#OpenSans-Bold-25" x="200.048828"/>
    </g>
   </g>
   <g id="text_20">
    <!-- 21.8% -->
    <g style="fill: #37539c" transform="translate(251.111875 181.552172) scale(0.08 -0.08)">
     <use xlink:href="#OpenSans-Bold-32"/>
     <use xlink:href="#OpenSans-Bold-31" x="57.177734"/>
     <use xlink:href="#OpenSans-Bold-2e" x="114.355469"/>
     <use xlink:href="#OpenSans-Bold-38" x="142.871094"/>
     <use xlink:href="#OpenSans-Bold-25" x="200.048828"/>
    </g>
   </g>
   <g id="text_21">
    <!-- 17.0% -->
    <g style="fill: #37539c" transform="translate(397.323125 194.688611) scale(0.08 -0.08)">
     <use xlink:href="#OpenSans-Bold-31"/>
     <use xlink:href="#OpenSans-Bold-37" x="57.177734"/>
     <use xlink:href="#OpenSans-Bold-2e" x="114.355469"/>
     <use xlink:href="#OpenSans-Bold-30" x="142.871094"/>
     <use xlink:href="#OpenSans-Bold-25" x="200.048828"/>
    </g>
   </g>
   <g id="text_22">
    <!-- 11.3% -->
    <g style="fill: #37539c" transform="translate(543.534375 210.288133) scale(0.08 -0.08)">
     <use xlink:href="#OpenSans-Bold-31"/>
     <use xlink:href="#OpenSans-Bold-31" x="57.177734"/>
     <use xlink:href="#OpenSans-Bold-2e" x="114.355469"/>
     <use xlink:href="#OpenSans-Bold-33" x="142.871094"/>
     <use xlink:href="#OpenSans-Bold-25" x="200.048828"/>
    </g>
   </g>
   <g id="text_23">
    <!-- 63.4% -->
    <g style="fill: #37539c" transform="translate(129.269167 67.703033) scale(0.08 -0.08)">
     <use xlink:href="#OpenSans-Bold-36"/>
     <use xlink:href="#OpenSans-Bold-33" x="57.177734"/>
     <use xlink:href="#OpenSans-Bold-2e" x="114.355469"/>
     <use xlink:href="#OpenSans-Bold-34" x="142.871094"/>
     <use xlink:href="#OpenSans-Bold-25" x="200.048828"/>
    </g>
   </g>
   <g id="text_24">
    <!-- 47.9% -->
    <g style="fill: #37539c" transform="translate(275.480417 110.122785) scale(0.08 -0.08)">
     <use xlink:href="#OpenSans-Bold-34"/>
     <use xlink:href="#OpenSans-Bold-37" x="57.177734"/>
     <use xlink:href="#OpenSans-Bold-2e" x="114.355469"/>
     <use xlink:href="#OpenSans-Bold-39" x="142.871094"/>
     <use xlink:href="#OpenSans-Bold-25" x="200.048828"/>
    </g>
   </g>
   <g id="text_25">
    <!-- 68.1% -->
    <g style="fill: #37539c" transform="translate(421.691667 54.84027) scale(0.08 -0.08)">
     <use xlink:href="#OpenSans-Bold-36"/>
     <use xlink:href="#OpenSans-Bold-38" x="57.177734"/>
     <use xlink:href="#OpenSans-Bold-2e" x="114.355469"/>
     <use xlink:href="#OpenSans-Bold-31" x="142.871094"/>
     <use xlink:href="#OpenSans-Bold-25" x="200.048828"/>
    </g>
   </g>
   <g id="text_26">
    <!-- 81.2% -->
    <g style="fill: #37539c" transform="translate(567.902917 18.988738) scale(0.08 -0.08)">
     <use xlink:href="#OpenSans-Bold-38"/>
     <use xlink:href="#OpenSans-Bold-31" x="57.177734"/>
     <use xlink:href="#OpenSans-Bold-2e" x="114.355469"/>
     <use xlink:href="#OpenSans-Bold-32" x="142.871094"/>
     <use xlink:href="#OpenSans-Bold-25" x="200.048828"/>
    </g>
   </g>
   <g id="legend_1">
    <g id="patch_17">
     <path d="M 49 53.20375 
L 212.495 53.20375 
Q 214.095 53.20375 214.095 51.60375 
L 214.095 16.4 
Q 214.095 14.8 212.495 14.8 
L 49 14.8 
Q 47.4 14.8 47.4 16.4 
L 47.4 51.60375 
Q 47.4 53.20375 49 53.20375 
z
" style="fill: #ffffff; opacity: 0.8; stroke: #cccccc; stroke-linejoin: miter"/>
    </g>
    <g id="patch_18">
     <path d="M 50.6 24.07875 
L 66.6 24.07875 
L 66.6 18.47875 
L 50.6 18.47875 
z
" style="fill: #37539c"/>
    </g>
    <g id="text_27">
     <!-- Muy en descuerdo - En desacuerdo -->
     <g style="fill: #37539c" transform="translate(73 24.07875) scale(0.08 -0.08)">
      <defs>
       <path id="OpenSans-Bold-4d" d="M 2509 0 
L 1409 3584 
L 1381 3584 
Q 1388 3456 1402 3198 
Q 1416 2941 1428 2650 
Q 1441 2359 1441 2125 
L 1441 0 
L 575 0 
L 575 4569 
L 1894 4569 
L 2975 1075 
L 2994 1075 
L 4141 4569 
L 5459 4569 
L 5459 0 
L 4556 0 
L 4556 2163 
Q 4556 2378 4564 2659 
Q 4572 2941 4584 3195 
Q 4597 3450 4603 3578 
L 4575 3578 
L 3397 0 
L 2509 0 
z
" transform="scale(0.015625)"/>
       <path id="OpenSans-Bold-2d" d="M 191 1325 
L 191 2106 
L 1869 2106 
L 1869 1325 
L 191 1325 
z
" transform="scale(0.015625)"/>
      </defs>
      <use xlink:href="#OpenSans-Bold-4d"/>
      <use xlink:href="#OpenSans-Bold-75" x="94.287109"/>
      <use xlink:href="#OpenSans-Bold-79" x="160.009766"/>
      <use xlink:href="#OpenSans-Bold-20" x="216.894531"/>
      <use xlink:href="#OpenSans-Bold-65" x="242.871094"/>
      <use xlink:href="#OpenSans-Bold-6e" x="301.953125"/>
      <use xlink:href="#OpenSans-Bold-20" x="367.675781"/>
      <use xlink:href="#OpenSans-Bold-64" x="393.652344"/>
      <use xlink:href="#OpenSans-Bold-65" x="456.933594"/>
      <use xlink:href="#OpenSans-Bold-73" x="516.015625"/>
      <use xlink:href="#OpenSans-Bold-63" x="565.722656"/>
      <use xlink:href="#OpenSans-Bold-75" x="617.138672"/>
      <use xlink:href="#OpenSans-Bold-65" x="682.861328"/>
      <use xlink:href="#OpenSans-Bold-72" x="741.943359"/>
      <use xlink:href="#OpenSans-Bold-64" x="787.353516"/>
      <use xlink:href="#OpenSans-Bold-6f" x="850.634766"/>
      <use xlink:href="#OpenSans-Bold-20" x="912.548828"/>
      <use xlink:href="#OpenSans-Bold-2d" x="938.525391"/>
      <use xlink:href="#OpenSans-Bold-20" x="970.703125"/>
      <use xlink:href="#OpenSans-Bold-45" x="996.679688"/>
      <use xlink:href="#OpenSans-Bold-6e" x="1052.685547"/>
      <use xlink:href="#OpenSans-Bold-20" x="1118.408203"/>
      <use xlink:href="#OpenSans-Bold-64" x="1144.384766"/>
      <use xlink:href="#OpenSans-Bold-65" x="1207.666016"/>
      <use xlink:href="#OpenSans-Bold-73" x="1266.748047"/>
      <use xlink:href="#OpenSans-Bold-61" x="1316.455078"/>
      <use xlink:href="#OpenSans-Bold-63" x="1376.855469"/>
      <use xlink:href="#OpenSans-Bold-75" x="1428.271484"/>
      <use xlink:href="#OpenSans-Bold-65" x="1493.994141"/>
      <use xlink:href="#OpenSans-Bold-72" x="1553.076172"/>
      <use xlink:href="#OpenSans-Bold-64" x="1598.486328"/>
      <use xlink:href="#OpenSans-Bold-6f" x="1661.767578"/>
     </g>
    </g>
    <g id="patch_19">
     <path d="M 50.6 36.08 
L 66.6 36.08 
L 66.6 30.48 
L 50.6 30.48 
z
" style="fill: #59c3c3"/>
    </g>
    <g id="text_28">
     <!-- Ni de acuerdo ni en desacuerdo -->
     <g style="fill: #37539c" transform="translate(73 36.08) scale(0.08 -0.08)">
      <defs>
       <path id="OpenSans-Bold-4e" d="M 4628 0 
L 3397 0 
L 1409 3456 
L 1381 3456 
Q 1394 3241 1403 3022 
Q 1413 2803 1422 2586 
Q 1431 2369 1441 2150 
L 1441 0 
L 575 0 
L 575 4569 
L 1797 4569 
L 3781 1147 
L 3803 1147 
Q 3797 1359 3787 1568 
Q 3778 1778 3770 1987 
Q 3763 2197 3756 2406 
L 3756 4569 
L 4628 4569 
L 4628 0 
z
" transform="scale(0.015625)"/>
      </defs>
      <use xlink:href="#OpenSans-Bold-4e"/>
      <use xlink:href="#OpenSans-Bold-69" x="81.298828"/>
      <use xlink:href="#OpenSans-Bold-20" x="111.816406"/>
      <use xlink:href="#OpenSans-Bold-64" x="137.792969"/>
      <use xlink:href="#OpenSans-Bold-65" x="201.074219"/>
      <use xlink:href="#OpenSans-Bold-20" x="260.15625"/>
      <use xlink:href="#OpenSans-Bold-61" x="286.132812"/>
      <use xlink:href="#OpenSans-Bold-63" x="346.533203"/>
      <use xlink:href="#OpenSans-Bold-75" x="397.949219"/>
      <use xlink:href="#OpenSans-Bold-65" x="463.671875"/>
      <use xlink:href="#OpenSans-Bold-72" x="522.753906"/>
      <use xlink:href="#OpenSans-Bold-64" x="568.164062"/>
      <use xlink:href="#OpenSans-Bold-6f" x="631.445312"/>
      <use xlink:href="#OpenSans-Bold-20" x="693.359375"/>
      <use xlink:href="#OpenSans-Bold-6e" x="719.335938"/>
      <use xlink:href="#OpenSans-Bold-69" x="785.058594"/>
      <use xlink:href="#OpenSans-Bold-20" x="815.576172"/>
      <use xlink:href="#OpenSans-Bold-65" x="841.552734"/>
      <use xlink:href="#OpenSans-Bold-6e" x="900.634766"/>
      <use xlink:href="#OpenSans-Bold-20" x="966.357422"/>
      <use xlink:href="#OpenSans-Bold-64" x="992.333984"/>
      <use xlink:href="#OpenSans-Bold-65" x="1055.615234"/>
      <use xlink:href="#OpenSans-Bold-73" x="1114.697266"/>
      <use xlink:href="#OpenSans-Bold-61" x="1164.404297"/>
      <use xlink:href="#OpenSans-Bold-63" x="1224.804688"/>
      <use xlink:href="#OpenSans-Bold-75" x="1276.220703"/>
      <use xlink:href="#OpenSans-Bold-65" x="1341.943359"/>
      <use xlink:href="#OpenSans-Bold-72" x="1401.025391"/>
      <use xlink:href="#OpenSans-Bold-64" x="1446.435547"/>
      <use xlink:href="#OpenSans-Bold-6f" x="1509.716797"/>
     </g>
    </g>
    <g id="patch_20">
     <path d="M 50.6 48.08125 
L 66.6 48.08125 
L 66.6 42.48125 
L 50.6 42.48125 
z
" style="fill: #f45b69"/>
    </g>
    <g id="text_29">
     <!-- De acuerdo - Muy de acuerdo -->
     <g style="fill: #37539c" transform="translate(73 48.08125) scale(0.08 -0.08)">
      <defs>
       <path id="OpenSans-Bold-44" d="M 4366 2328 
Q 4366 1556 4070 1039 
Q 3775 522 3215 261 
Q 2656 0 1869 0 
L 575 0 
L 575 4569 
L 2009 4569 
Q 2728 4569 3256 4314 
Q 3784 4059 4075 3561 
Q 4366 3063 4366 2328 
z
M 3359 2303 
Q 3359 2809 3211 3136 
Q 3063 3463 2773 3619 
Q 2484 3775 2059 3775 
L 1544 3775 
L 1544 800 
L 1959 800 
Q 2669 800 3014 1178 
Q 3359 1556 3359 2303 
z
" transform="scale(0.015625)"/>
      </defs>
      <use xlink:href="#OpenSans-Bold-44"/>
      <use xlink:href="#OpenSans-Bold-65" x="74.023438"/>
      <use xlink:href="#OpenSans-Bold-20" x="133.105469"/>
      <use xlink:href="#OpenSans-Bold-61" x="159.082031"/>
      <use xlink:href="#OpenSans-Bold-63" x="219.482422"/>
      <use xlink:href="#OpenSans-Bold-75" x="270.898438"/>
      <use xlink:href="#OpenSans-Bold-65" x="336.621094"/>
      <use xlink:href="#OpenSans-Bold-72" x="395.703125"/>
      <use xlink:href="#OpenSans-Bold-64" x="441.113281"/>
      <use xlink:href="#OpenSans-Bold-6f" x="504.394531"/>
      <use xlink:href="#OpenSans-Bold-20" x="566.308594"/>
      <use xlink:href="#OpenSans-Bold-2d" x="592.285156"/>
      <use xlink:href="#OpenSans-Bold-20" x="624.462891"/>
      <use xlink:href="#OpenSans-Bold-4d" x="650.439453"/>
      <use xlink:href="#OpenSans-Bold-75" x="744.726562"/>
      <use xlink:href="#OpenSans-Bold-79" x="810.449219"/>
      <use xlink:href="#OpenSans-Bold-20" x="867.333984"/>
      <use xlink:href="#OpenSans-Bold-64" x="893.310547"/>
      <use xlink:href="#OpenSans-Bold-65" x="956.591797"/>
      <use xlink:href="#OpenSans-Bold-20" x="1015.673828"/>
      <use xlink:href="#OpenSans-Bold-61" x="1041.650391"/>
      <use xlink:href="#OpenSans-Bold-63" x="1102.050781"/>
      <use xlink:href="#OpenSans-Bold-75" x="1153.466797"/>
      <use xlink:href="#OpenSans-Bold-65" x="1219.189453"/>
      <use xlink:href="#OpenSans-Bold-72" x="1278.271484"/>
      <use xlink:href="#OpenSans-Bold-64" x="1323.681641"/>
      <use xlink:href="#OpenSans-Bold-6f" x="1386.962891"/>
     </g>
    </g>
   </g>
  </g>
 </g>
 <defs>
  <clipPath id="p44df674910">
   <rect x="43.4" y="10.8" width="584.845" height="233.336"/>
  </clipPath>
 </defs>
</svg>
