<?xml version="1.0" encoding="utf-8" standalone="no"?>
<!DOCTYPE svg PUBLIC "-//W3C//DTD SVG 1.1//EN"
  "http://www.w3.org/Graphics/SVG/1.1/DTD/svg11.dtd">
<svg xmlns:xlink="http://www.w3.org/1999/xlink" width="1008pt" height="360pt" viewBox="0 0 1008 360" xmlns="http://www.w3.org/2000/svg" version="1.1">
 <metadata>
  <rdf:RDF xmlns:dc="http://purl.org/dc/elements/1.1/" xmlns:cc="http://creativecommons.org/ns#" xmlns:rdf="http://www.w3.org/1999/02/22-rdf-syntax-ns#">
   <cc:Work>
    <dc:type rdf:resource="http://purl.org/dc/dcmitype/StillImage"/>
    <dc:date>2024-02-26T21:22:17.953758</dc:date>
    <dc:format>image/svg+xml</dc:format>
    <dc:creator>
     <cc:Agent>
      <dc:title>Matplotlib v3.7.1, https://matplotlib.org/</dc:title>
     </cc:Agent>
    </dc:creator>
   </cc:Work>
  </rdf:RDF>
 </metadata>
 <defs>
  <style type="text/css">*{stroke-linejoin: round; stroke-linecap: butt}</style>
 </defs>
 <g id="figure_1">
  <g id="patch_1">
   <path d="M 0 360 
L 1008 360 
L 1008 0 
L 0 0 
z
" style="fill: #ffffff"/>
  </g>
  <g id="axes_1">
   <g id="patch_2">
    <path d="M 50.33 260.980211 
L 997.2 260.980211 
L 997.2 10.8 
L 50.33 10.8 
z
" style="fill: #ffffff"/>
   </g>
   <g id="matplotlib.axis_1">
    <g id="xtick_1">
     <g id="line2d_1">
      <defs>
       <path id="m143097167b" d="M 0 0 
L 0 3.5 
" style="stroke: #37539c; stroke-width: 0.8"/>
      </defs>
      <g>
       <use xlink:href="#m143097167b" x="78.179118" y="260.980211" style="fill: #37539c; stroke: #37539c; stroke-width: 0.8"/>
      </g>
     </g>
     <g id="text_1">
      <!-- Arica y Parinacota -->
      <g style="fill: #37539c" transform="translate(53.966014 323.643657) rotate(-45) scale(0.08 -0.08)">
       <defs>
        <path id="OpenSans-Bold-41" d="M 3372 0 
L 3041 1088 
L 1375 1088 
L 1044 0 
L 0 0 
L 1613 4588 
L 2797 4588 
L 4416 0 
L 3372 0 
z
M 2809 1900 
L 2478 2963 
Q 2447 3069 2395 3236 
Q 2344 3403 2292 3576 
Q 2241 3750 2209 3878 
Q 2178 3750 2123 3561 
Q 2069 3372 2019 3203 
Q 1969 3034 1947 2963 
L 1619 1900 
L 2809 1900 
z
" transform="scale(0.015625)"/>
        <path id="OpenSans-Bold-72" d="M 2450 3559 
Q 2522 3559 2617 3551 
Q 2713 3544 2772 3531 
L 2700 2638 
Q 2653 2653 2567 2661 
Q 2481 2669 2419 2669 
Q 2234 2669 2061 2622 
Q 1888 2575 1750 2470 
Q 1613 2366 1533 2195 
Q 1453 2025 1453 1778 
L 1453 0 
L 500 0 
L 500 3494 
L 1222 3494 
L 1363 2906 
L 1409 2906 
Q 1513 3084 1667 3232 
Q 1822 3381 2020 3470 
Q 2219 3559 2450 3559 
z
" transform="scale(0.015625)"/>
        <path id="OpenSans-Bold-69" d="M 1453 3494 
L 1453 0 
L 500 0 
L 500 3494 
L 1453 3494 
z
M 978 4863 
Q 1191 4863 1344 4764 
Q 1497 4666 1497 4397 
Q 1497 4131 1344 4029 
Q 1191 3928 978 3928 
Q 763 3928 611 4029 
Q 459 4131 459 4397 
Q 459 4666 611 4764 
Q 763 4863 978 4863 
z
" transform="scale(0.015625)"/>
        <path id="OpenSans-Bold-63" d="M 1919 -63 
Q 1400 -63 1034 126 
Q 669 316 478 712 
Q 288 1109 288 1728 
Q 288 2369 505 2773 
Q 722 3178 1108 3368 
Q 1494 3559 2003 3559 
Q 2366 3559 2630 3489 
Q 2894 3419 3091 3322 
L 2809 2584 
Q 2584 2675 2390 2733 
Q 2197 2791 2003 2791 
Q 1753 2791 1587 2673 
Q 1422 2556 1340 2322 
Q 1259 2088 1259 1734 
Q 1259 1388 1346 1159 
Q 1434 931 1600 820 
Q 1766 709 2003 709 
Q 2300 709 2531 789 
Q 2763 869 2981 1013 
L 2981 197 
Q 2763 59 2523 -2 
Q 2284 -63 1919 -63 
z
" transform="scale(0.015625)"/>
        <path id="OpenSans-Bold-61" d="M 1931 3566 
Q 2634 3566 3009 3259 
Q 3384 2953 3384 2328 
L 3384 0 
L 2719 0 
L 2534 475 
L 2509 475 
Q 2359 288 2203 169 
Q 2047 50 1844 -6 
Q 1641 -63 1350 -63 
Q 1041 -63 795 56 
Q 550 175 409 420 
Q 269 666 269 1044 
Q 269 1600 659 1864 
Q 1050 2128 1831 2156 
L 2438 2175 
L 2438 2328 
Q 2438 2603 2294 2731 
Q 2150 2859 1894 2859 
Q 1641 2859 1397 2787 
Q 1153 2716 909 2606 
L 594 3250 
Q 872 3397 1217 3481 
Q 1563 3566 1931 3566 
z
M 2438 1619 
L 2069 1606 
Q 1606 1594 1426 1441 
Q 1247 1288 1247 1038 
Q 1247 819 1375 726 
Q 1503 634 1709 634 
Q 2016 634 2227 815 
Q 2438 997 2438 1331 
L 2438 1619 
z
" transform="scale(0.015625)"/>
        <path id="OpenSans-Bold-20" transform="scale(0.015625)"/>
        <path id="OpenSans-Bold-79" d="M 0 3494 
L 1044 3494 
L 1703 1528 
Q 1734 1434 1756 1337 
Q 1778 1241 1793 1137 
Q 1809 1034 1819 922 
L 1838 922 
Q 1856 1091 1889 1237 
Q 1922 1384 1972 1528 
L 2619 3494 
L 3641 3494 
L 2163 -447 
Q 2028 -809 1812 -1051 
Q 1597 -1294 1317 -1416 
Q 1038 -1538 703 -1538 
Q 541 -1538 422 -1520 
Q 303 -1503 219 -1484 
L 219 -728 
Q 284 -744 384 -756 
Q 484 -769 594 -769 
Q 794 -769 937 -684 
Q 1081 -600 1178 -458 
Q 1275 -316 1331 -147 
L 1388 25 
L 0 3494 
z
" transform="scale(0.015625)"/>
        <path id="OpenSans-Bold-50" d="M 2034 4569 
Q 2919 4569 3325 4189 
Q 3731 3809 3731 3144 
Q 3731 2844 3640 2570 
Q 3550 2297 3345 2084 
Q 3141 1872 2800 1748 
Q 2459 1625 1959 1625 
L 1544 1625 
L 1544 0 
L 575 0 
L 575 4569 
L 2034 4569 
z
M 1984 3775 
L 1544 3775 
L 1544 2419 
L 1863 2419 
Q 2134 2419 2334 2491 
Q 2534 2563 2643 2716 
Q 2753 2869 2753 3109 
Q 2753 3447 2565 3611 
Q 2378 3775 1984 3775 
z
" transform="scale(0.015625)"/>
        <path id="OpenSans-Bold-6e" d="M 2484 3559 
Q 3044 3559 3384 3254 
Q 3725 2950 3725 2278 
L 3725 0 
L 2772 0 
L 2772 2041 
Q 2772 2416 2636 2606 
Q 2500 2797 2209 2797 
Q 1772 2797 1612 2500 
Q 1453 2203 1453 1644 
L 1453 0 
L 500 0 
L 500 3494 
L 1228 3494 
L 1356 3047 
L 1409 3047 
Q 1522 3228 1689 3340 
Q 1856 3453 2061 3506 
Q 2266 3559 2484 3559 
z
" transform="scale(0.015625)"/>
        <path id="OpenSans-Bold-6f" d="M 3675 1753 
Q 3675 1316 3558 978 
Q 3441 641 3217 408 
Q 2994 175 2680 56 
Q 2366 -63 1972 -63 
Q 1603 -63 1295 56 
Q 988 175 761 408 
Q 534 641 411 978 
Q 288 1316 288 1753 
Q 288 2334 494 2737 
Q 700 3141 1081 3350 
Q 1463 3559 1991 3559 
Q 2481 3559 2861 3350 
Q 3241 3141 3458 2737 
Q 3675 2334 3675 1753 
z
M 1259 1753 
Q 1259 1409 1334 1175 
Q 1409 941 1568 822 
Q 1728 703 1984 703 
Q 2238 703 2395 822 
Q 2553 941 2626 1175 
Q 2700 1409 2700 1753 
Q 2700 2100 2626 2329 
Q 2553 2559 2393 2675 
Q 2234 2791 1978 2791 
Q 1600 2791 1429 2531 
Q 1259 2272 1259 1753 
z
" transform="scale(0.015625)"/>
        <path id="OpenSans-Bold-74" d="M 1972 697 
Q 2128 697 2276 728 
Q 2425 759 2572 806 
L 2572 97 
Q 2419 28 2192 -17 
Q 1966 -63 1697 -63 
Q 1384 -63 1136 39 
Q 888 141 745 392 
Q 603 644 603 1094 
L 603 2778 
L 147 2778 
L 147 3181 
L 672 3500 
L 947 4238 
L 1556 4238 
L 1556 3494 
L 2534 3494 
L 2534 2778 
L 1556 2778 
L 1556 1094 
Q 1556 894 1670 795 
Q 1784 697 1972 697 
z
" transform="scale(0.015625)"/>
       </defs>
       <use xlink:href="#OpenSans-Bold-41"/>
       <use xlink:href="#OpenSans-Bold-72" x="68.994141"/>
       <use xlink:href="#OpenSans-Bold-69" x="114.404297"/>
       <use xlink:href="#OpenSans-Bold-63" x="144.921875"/>
       <use xlink:href="#OpenSans-Bold-61" x="196.337891"/>
       <use xlink:href="#OpenSans-Bold-20" x="256.738281"/>
       <use xlink:href="#OpenSans-Bold-79" x="282.714844"/>
       <use xlink:href="#OpenSans-Bold-20" x="339.599609"/>
       <use xlink:href="#OpenSans-Bold-50" x="365.576172"/>
       <use xlink:href="#OpenSans-Bold-61" x="428.369141"/>
       <use xlink:href="#OpenSans-Bold-72" x="488.769531"/>
       <use xlink:href="#OpenSans-Bold-69" x="534.179688"/>
       <use xlink:href="#OpenSans-Bold-6e" x="564.697266"/>
       <use xlink:href="#OpenSans-Bold-61" x="630.419922"/>
       <use xlink:href="#OpenSans-Bold-63" x="690.820312"/>
       <use xlink:href="#OpenSans-Bold-6f" x="742.236328"/>
       <use xlink:href="#OpenSans-Bold-74" x="804.150391"/>
       <use xlink:href="#OpenSans-Bold-61" x="847.558594"/>
      </g>
     </g>
    </g>
    <g id="xtick_2">
     <g id="line2d_2">
      <g>
       <use xlink:href="#m143097167b" x="133.877353" y="260.980211" style="fill: #37539c; stroke: #37539c; stroke-width: 0.8"/>
      </g>
     </g>
     <g id="text_2">
      <!-- Tarapacá -->
      <g style="fill: #37539c" transform="translate(122.363887 298.315092) rotate(-45) scale(0.08 -0.08)">
       <defs>
        <path id="OpenSans-Bold-54" d="M 2338 0 
L 1369 0 
L 1369 3763 
L 128 3763 
L 128 4569 
L 3578 4569 
L 3578 3763 
L 2338 3763 
L 2338 0 
z
" transform="scale(0.015625)"/>
        <path id="OpenSans-Bold-70" d="M 2444 3559 
Q 3034 3559 3398 3100 
Q 3763 2641 3763 1753 
Q 3763 1159 3591 754 
Q 3419 350 3116 143 
Q 2813 -63 2419 -63 
Q 2166 -63 1984 1 
Q 1803 66 1675 167 
Q 1547 269 1453 384 
L 1403 384 
Q 1428 259 1440 128 
Q 1453 -3 1453 -128 
L 1453 -1538 
L 500 -1538 
L 500 3494 
L 1275 3494 
L 1409 3041 
L 1453 3041 
Q 1547 3181 1681 3300 
Q 1816 3419 2005 3489 
Q 2194 3559 2444 3559 
z
M 2138 2797 
Q 1888 2797 1741 2694 
Q 1594 2591 1526 2384 
Q 1459 2178 1453 1863 
L 1453 1759 
Q 1453 1422 1517 1187 
Q 1581 953 1732 831 
Q 1884 709 2150 709 
Q 2369 709 2509 831 
Q 2650 953 2720 1189 
Q 2791 1425 2791 1766 
Q 2791 2278 2631 2537 
Q 2472 2797 2138 2797 
z
" transform="scale(0.015625)"/>
        <path id="OpenSans-Bold-e1" d="M 1931 3566 
Q 2634 3566 3009 3259 
Q 3384 2953 3384 2328 
L 3384 0 
L 2719 0 
L 2534 475 
L 2509 475 
Q 2359 288 2203 169 
Q 2047 50 1844 -6 
Q 1641 -63 1350 -63 
Q 1041 -63 795 56 
Q 550 175 409 420 
Q 269 666 269 1044 
Q 269 1600 659 1864 
Q 1050 2128 1831 2156 
L 2438 2175 
L 2438 2328 
Q 2438 2603 2294 2731 
Q 2150 2859 1894 2859 
Q 1641 2859 1397 2787 
Q 1153 2716 909 2606 
L 594 3250 
Q 872 3397 1217 3481 
Q 1563 3566 1931 3566 
z
M 2438 1619 
L 2069 1606 
Q 1606 1594 1426 1441 
Q 1247 1288 1247 1038 
Q 1247 819 1375 726 
Q 1503 634 1709 634 
Q 2016 634 2227 815 
Q 2438 997 2438 1331 
L 2438 1619 
z
M 3163 4903 
L 3163 4838 
Q 3073 4750 2926 4622 
Q 2779 4494 2610 4355 
Q 2442 4216 2279 4089 
Q 2117 3963 1995 3878 
L 1360 3878 
L 1360 3963 
Q 1463 4081 1599 4245 
Q 1735 4409 1869 4584 
Q 2004 4759 2095 4903 
L 3163 4903 
z
" transform="scale(0.015625)"/>
       </defs>
       <use xlink:href="#OpenSans-Bold-54"/>
       <use xlink:href="#OpenSans-Bold-61" x="57.910156"/>
       <use xlink:href="#OpenSans-Bold-72" x="118.310547"/>
       <use xlink:href="#OpenSans-Bold-61" x="163.720703"/>
       <use xlink:href="#OpenSans-Bold-70" x="224.121094"/>
       <use xlink:href="#OpenSans-Bold-61" x="287.402344"/>
       <use xlink:href="#OpenSans-Bold-63" x="347.802734"/>
       <use xlink:href="#OpenSans-Bold-e1" x="399.21875"/>
      </g>
     </g>
    </g>
    <g id="xtick_3">
     <g id="line2d_3">
      <g>
       <use xlink:href="#m143097167b" x="189.575588" y="260.980211" style="fill: #37539c; stroke: #37539c; stroke-width: 0.8"/>
      </g>
     </g>
     <g id="text_3">
      <!-- Antofagasta -->
      <g style="fill: #37539c" transform="translate(173.818156 306.792418) rotate(-45) scale(0.08 -0.08)">
       <defs>
        <path id="OpenSans-Bold-66" d="M 2431 2778 
L 1606 2778 
L 1606 0 
L 653 0 
L 653 2778 
L 128 2778 
L 128 3238 
L 653 3494 
L 653 3750 
Q 653 4197 804 4445 
Q 956 4694 1232 4795 
Q 1509 4897 1888 4897 
Q 2166 4897 2394 4851 
Q 2622 4806 2766 4750 
L 2522 4050 
Q 2413 4084 2284 4112 
Q 2156 4141 1991 4141 
Q 1791 4141 1698 4020 
Q 1606 3900 1606 3713 
L 1606 3494 
L 2431 3494 
L 2431 2778 
z
" transform="scale(0.015625)"/>
        <path id="OpenSans-Bold-67" d="M 1522 -1538 
Q 791 -1538 405 -1283 
Q 19 -1028 19 -569 
Q 19 -253 216 -40 
Q 413 172 794 263 
Q 647 325 537 467 
Q 428 609 428 769 
Q 428 969 543 1101 
Q 659 1234 878 1363 
Q 603 1481 442 1743 
Q 281 2006 281 2363 
Q 281 2744 448 3011 
Q 616 3278 936 3418 
Q 1256 3559 1716 3559 
Q 1813 3559 1941 3546 
Q 2069 3534 2176 3518 
Q 2284 3503 2322 3494 
L 3541 3494 
L 3541 3009 
L 2994 2869 
Q 3069 2753 3106 2622 
Q 3144 2491 3144 2344 
Q 3144 1781 2751 1467 
Q 2359 1153 1663 1153 
Q 1497 1163 1350 1178 
Q 1278 1122 1240 1059 
Q 1203 997 1203 928 
Q 1203 859 1261 814 
Q 1319 769 1436 745 
Q 1553 722 1728 722 
L 2322 722 
Q 2897 722 3198 475 
Q 3500 228 3500 -250 
Q 3500 -863 2989 -1200 
Q 2478 -1538 1522 -1538 
z
M 1563 -916 
Q 1903 -916 2148 -852 
Q 2394 -788 2525 -670 
Q 2656 -553 2656 -391 
Q 2656 -259 2579 -182 
Q 2503 -106 2348 -75 
Q 2194 -44 1953 -44 
L 1459 -44 
Q 1284 -44 1145 -100 
Q 1006 -156 925 -257 
Q 844 -359 844 -494 
Q 844 -691 1033 -803 
Q 1222 -916 1563 -916 
z
M 1716 1734 
Q 1984 1734 2109 1900 
Q 2234 2066 2234 2350 
Q 2234 2666 2104 2823 
Q 1975 2981 1716 2981 
Q 1453 2981 1322 2823 
Q 1191 2666 1191 2350 
Q 1191 2066 1320 1900 
Q 1450 1734 1716 1734 
z
" transform="scale(0.015625)"/>
        <path id="OpenSans-Bold-73" d="M 2938 1038 
Q 2938 681 2770 436 
Q 2603 191 2272 64 
Q 1941 -63 1447 -63 
Q 1081 -63 820 -16 
Q 559 31 294 141 
L 294 928 
Q 578 800 904 717 
Q 1231 634 1478 634 
Q 1756 634 1876 717 
Q 1997 800 1997 934 
Q 1997 1022 1948 1092 
Q 1900 1163 1740 1252 
Q 1581 1341 1241 1484 
Q 913 1622 702 1762 
Q 491 1903 389 2095 
Q 288 2288 288 2584 
Q 288 3069 664 3314 
Q 1041 3559 1672 3559 
Q 1997 3559 2292 3493 
Q 2588 3428 2900 3284 
L 2613 2597 
Q 2353 2709 2123 2781 
Q 1894 2853 1656 2853 
Q 1447 2853 1340 2797 
Q 1234 2741 1234 2625 
Q 1234 2541 1289 2475 
Q 1344 2409 1501 2329 
Q 1659 2250 1966 2125 
Q 2263 2003 2481 1870 
Q 2700 1738 2819 1542 
Q 2938 1347 2938 1038 
z
" transform="scale(0.015625)"/>
       </defs>
       <use xlink:href="#OpenSans-Bold-41"/>
       <use xlink:href="#OpenSans-Bold-6e" x="68.994141"/>
       <use xlink:href="#OpenSans-Bold-74" x="134.716797"/>
       <use xlink:href="#OpenSans-Bold-6f" x="178.125"/>
       <use xlink:href="#OpenSans-Bold-66" x="240.039062"/>
       <use xlink:href="#OpenSans-Bold-61" x="278.759766"/>
       <use xlink:href="#OpenSans-Bold-67" x="339.160156"/>
       <use xlink:href="#OpenSans-Bold-61" x="395.654297"/>
       <use xlink:href="#OpenSans-Bold-73" x="456.054688"/>
       <use xlink:href="#OpenSans-Bold-74" x="505.761719"/>
       <use xlink:href="#OpenSans-Bold-61" x="549.169922"/>
      </g>
     </g>
    </g>
    <g id="xtick_4">
     <g id="line2d_4">
      <g>
       <use xlink:href="#m143097167b" x="245.273824" y="260.980211" style="fill: #37539c; stroke: #37539c; stroke-width: 0.8"/>
      </g>
     </g>
     <g id="text_4">
      <!-- Atacama -->
      <g style="fill: #37539c" transform="translate(234.206719 297.351659) rotate(-45) scale(0.08 -0.08)">
       <defs>
        <path id="OpenSans-Bold-6d" d="M 4603 3559 
Q 5197 3559 5501 3254 
Q 5806 2950 5806 2278 
L 5806 0 
L 4850 0 
L 4850 2041 
Q 4850 2416 4722 2606 
Q 4594 2797 4325 2797 
Q 3947 2797 3787 2526 
Q 3628 2256 3628 1753 
L 3628 0 
L 2675 0 
L 2675 2041 
Q 2675 2291 2619 2459 
Q 2563 2628 2447 2712 
Q 2331 2797 2150 2797 
Q 1884 2797 1732 2664 
Q 1581 2531 1517 2273 
Q 1453 2016 1453 1644 
L 1453 0 
L 500 0 
L 500 3494 
L 1228 3494 
L 1356 3047 
L 1409 3047 
Q 1516 3228 1677 3340 
Q 1838 3453 2031 3506 
Q 2225 3559 2425 3559 
Q 2809 3559 3076 3434 
Q 3344 3309 3488 3047 
L 3572 3047 
Q 3728 3316 4014 3437 
Q 4300 3559 4603 3559 
z
" transform="scale(0.015625)"/>
       </defs>
       <use xlink:href="#OpenSans-Bold-41"/>
       <use xlink:href="#OpenSans-Bold-74" x="68.994141"/>
       <use xlink:href="#OpenSans-Bold-61" x="112.402344"/>
       <use xlink:href="#OpenSans-Bold-63" x="172.802734"/>
       <use xlink:href="#OpenSans-Bold-61" x="224.21875"/>
       <use xlink:href="#OpenSans-Bold-6d" x="284.619141"/>
       <use xlink:href="#OpenSans-Bold-61" x="382.8125"/>
      </g>
     </g>
    </g>
    <g id="xtick_5">
     <g id="line2d_5">
      <g>
       <use xlink:href="#m143097167b" x="300.972059" y="260.980211" style="fill: #37539c; stroke: #37539c; stroke-width: 0.8"/>
      </g>
     </g>
     <g id="text_5">
      <!-- Coquimbo -->
      <g style="fill: #37539c" transform="translate(288.057637 301.046292) rotate(-45) scale(0.08 -0.08)">
       <defs>
        <path id="OpenSans-Bold-43" d="M 2516 3828 
Q 2238 3828 2023 3720 
Q 1809 3613 1664 3409 
Q 1519 3206 1444 2918 
Q 1369 2631 1369 2272 
Q 1369 1788 1489 1445 
Q 1609 1103 1862 923 
Q 2116 744 2516 744 
Q 2794 744 3073 806 
Q 3353 869 3681 984 
L 3681 172 
Q 3378 47 3084 -8 
Q 2791 -63 2425 -63 
Q 1719 -63 1264 229 
Q 809 522 590 1048 
Q 372 1575 372 2278 
Q 372 2797 512 3228 
Q 653 3659 925 3975 
Q 1197 4291 1597 4462 
Q 1997 4634 2516 4634 
Q 2856 4634 3198 4548 
Q 3541 4463 3853 4313 
L 3541 3525 
Q 3284 3647 3025 3737 
Q 2766 3828 2516 3828 
z
" transform="scale(0.015625)"/>
        <path id="OpenSans-Bold-71" d="M 2597 -1538 
L 2597 -72 
Q 2597 59 2608 192 
Q 2619 325 2638 453 
L 2597 453 
Q 2463 238 2227 87 
Q 1991 -63 1606 -63 
Q 1016 -63 652 395 
Q 288 853 288 1741 
Q 288 2338 456 2742 
Q 625 3147 926 3353 
Q 1228 3559 1625 3559 
Q 2009 3559 2248 3411 
Q 2488 3263 2638 3047 
L 2663 3047 
L 2747 3494 
L 3553 3494 
L 3553 -1538 
L 2597 -1538 
z
M 1947 684 
Q 2209 684 2364 787 
Q 2519 891 2587 1098 
Q 2656 1306 2663 1619 
L 2663 1734 
Q 2663 2244 2506 2514 
Q 2350 2784 1931 2784 
Q 1591 2784 1425 2512 
Q 1259 2241 1259 1728 
Q 1259 1206 1428 945 
Q 1597 684 1947 684 
z
" transform="scale(0.015625)"/>
        <path id="OpenSans-Bold-75" d="M 3706 3494 
L 3706 0 
L 2975 0 
L 2847 447 
L 2797 447 
Q 2684 269 2515 156 
Q 2347 44 2144 -9 
Q 1941 -63 1722 -63 
Q 1347 -63 1069 70 
Q 791 203 636 484 
Q 481 766 481 1216 
L 481 3494 
L 1434 3494 
L 1434 1453 
Q 1434 1078 1568 887 
Q 1703 697 1997 697 
Q 2288 697 2453 830 
Q 2619 963 2686 1220 
Q 2753 1478 2753 1850 
L 2753 3494 
L 3706 3494 
z
" transform="scale(0.015625)"/>
        <path id="OpenSans-Bold-62" d="M 1453 4863 
L 1453 3731 
Q 1453 3534 1442 3340 
Q 1431 3147 1416 3041 
L 1453 3041 
Q 1591 3256 1828 3407 
Q 2066 3559 2444 3559 
Q 3031 3559 3397 3100 
Q 3763 2641 3763 1753 
Q 3763 1156 3594 751 
Q 3425 347 3122 142 
Q 2819 -63 2419 -63 
Q 2034 -63 1812 75 
Q 1591 213 1453 384 
L 1388 384 
L 1228 0 
L 500 0 
L 500 4863 
L 1453 4863 
z
M 2138 2797 
Q 1888 2797 1741 2694 
Q 1594 2591 1526 2384 
Q 1459 2178 1453 1863 
L 1453 1759 
Q 1453 1250 1603 979 
Q 1753 709 2150 709 
Q 2444 709 2617 981 
Q 2791 1253 2791 1766 
Q 2791 2278 2616 2537 
Q 2441 2797 2138 2797 
z
" transform="scale(0.015625)"/>
       </defs>
       <use xlink:href="#OpenSans-Bold-43"/>
       <use xlink:href="#OpenSans-Bold-6f" x="63.720703"/>
       <use xlink:href="#OpenSans-Bold-71" x="125.634766"/>
       <use xlink:href="#OpenSans-Bold-75" x="188.916016"/>
       <use xlink:href="#OpenSans-Bold-69" x="254.638672"/>
       <use xlink:href="#OpenSans-Bold-6d" x="285.15625"/>
       <use xlink:href="#OpenSans-Bold-62" x="383.349609"/>
       <use xlink:href="#OpenSans-Bold-6f" x="446.630859"/>
      </g>
     </g>
    </g>
    <g id="xtick_6">
     <g id="line2d_6">
      <g>
       <use xlink:href="#m143097167b" x="356.670294" y="260.980211" style="fill: #37539c; stroke: #37539c; stroke-width: 0.8"/>
      </g>
     </g>
     <g id="text_6">
      <!-- Valparaíso -->
      <g style="fill: #37539c" transform="translate(343.236149 302.15645) rotate(-45) scale(0.08 -0.08)">
       <defs>
        <path id="OpenSans-Bold-56" d="M 4159 4569 
L 2606 0 
L 1550 0 
L 0 4569 
L 978 4569 
L 1838 1850 
Q 1859 1781 1909 1592 
Q 1959 1403 2011 1192 
Q 2063 981 2081 844 
Q 2100 981 2148 1190 
Q 2197 1400 2245 1589 
Q 2294 1778 2316 1850 
L 3181 4569 
L 4159 4569 
z
" transform="scale(0.015625)"/>
        <path id="OpenSans-Bold-6c" d="M 1453 0 
L 500 0 
L 500 4863 
L 1453 4863 
L 1453 0 
z
" transform="scale(0.015625)"/>
        <path id="OpenSans-Bold-ed" d="M 1453 0 
L 500 0 
L 500 3494 
L 1453 3494 
L 1453 0 
z
M 2203 4903 
L 2203 4838 
Q 2113 4750 1966 4622 
Q 1819 4494 1650 4355 
Q 1482 4216 1319 4089 
Q 1157 3963 1035 3878 
L 400 3878 
L 400 3963 
Q 503 4081 639 4245 
Q 775 4409 909 4584 
Q 1044 4759 1135 4903 
L 2203 4903 
z
" transform="scale(0.015625)"/>
       </defs>
       <use xlink:href="#OpenSans-Bold-56"/>
       <use xlink:href="#OpenSans-Bold-61" x="64.990234"/>
       <use xlink:href="#OpenSans-Bold-6c" x="125.390625"/>
       <use xlink:href="#OpenSans-Bold-70" x="155.908203"/>
       <use xlink:href="#OpenSans-Bold-61" x="219.189453"/>
       <use xlink:href="#OpenSans-Bold-72" x="279.589844"/>
       <use xlink:href="#OpenSans-Bold-61" x="325"/>
       <use xlink:href="#OpenSans-Bold-ed" x="385.400391"/>
       <use xlink:href="#OpenSans-Bold-73" x="415.917969"/>
       <use xlink:href="#OpenSans-Bold-6f" x="465.625"/>
      </g>
     </g>
    </g>
    <g id="xtick_7">
     <g id="line2d_7">
      <g>
       <use xlink:href="#m143097167b" x="412.368529" y="260.980211" style="fill: #37539c; stroke: #37539c; stroke-width: 0.8"/>
      </g>
     </g>
     <g id="text_7">
      <!-- Región Metropolitana -->
      <g style="fill: #37539c" transform="translate(383.138945 333.747329) rotate(-45) scale(0.08 -0.08)">
       <defs>
        <path id="OpenSans-Bold-52" d="M 1906 4569 
Q 2528 4569 2933 4419 
Q 3338 4269 3534 3966 
Q 3731 3663 3731 3200 
Q 3731 2888 3612 2653 
Q 3494 2419 3300 2256 
Q 3106 2094 2881 1991 
L 4225 0 
L 3150 0 
L 2059 1753 
L 1544 1753 
L 1544 0 
L 575 0 
L 575 4569 
L 1906 4569 
z
M 1838 3775 
L 1544 3775 
L 1544 2541 
L 1856 2541 
Q 2338 2541 2545 2702 
Q 2753 2863 2753 3175 
Q 2753 3500 2529 3637 
Q 2306 3775 1838 3775 
z
" transform="scale(0.015625)"/>
        <path id="OpenSans-Bold-65" d="M 1941 3559 
Q 2425 3559 2775 3373 
Q 3125 3188 3315 2834 
Q 3506 2481 3506 1972 
L 3506 1509 
L 1253 1509 
Q 1269 1106 1495 876 
Q 1722 647 2125 647 
Q 2459 647 2737 715 
Q 3016 784 3309 922 
L 3309 184 
Q 3050 56 2767 -3 
Q 2484 -63 2081 -63 
Q 1556 -63 1151 131 
Q 747 325 517 722 
Q 288 1119 288 1722 
Q 288 2334 495 2742 
Q 703 3150 1075 3354 
Q 1447 3559 1941 3559 
z
M 1947 2881 
Q 1669 2881 1486 2703 
Q 1303 2525 1275 2144 
L 2613 2144 
Q 2609 2356 2536 2522 
Q 2463 2688 2317 2784 
Q 2172 2881 1947 2881 
z
" transform="scale(0.015625)"/>
        <path id="OpenSans-Bold-f3" d="M 3675 1753 
Q 3675 1316 3558 978 
Q 3441 641 3217 408 
Q 2994 175 2680 56 
Q 2366 -63 1972 -63 
Q 1603 -63 1295 56 
Q 988 175 761 408 
Q 534 641 411 978 
Q 288 1316 288 1753 
Q 288 2334 494 2737 
Q 700 3141 1081 3350 
Q 1463 3559 1991 3559 
Q 2481 3559 2861 3350 
Q 3241 3141 3458 2737 
Q 3675 2334 3675 1753 
z
M 1259 1753 
Q 1259 1409 1334 1175 
Q 1409 941 1568 822 
Q 1728 703 1984 703 
Q 2238 703 2395 822 
Q 2553 941 2626 1175 
Q 2700 1409 2700 1753 
Q 2700 2100 2626 2329 
Q 2553 2559 2393 2675 
Q 2234 2791 1978 2791 
Q 1600 2791 1429 2531 
Q 1259 2272 1259 1753 
z
M 3211 4903 
L 3211 4838 
Q 3121 4750 2974 4622 
Q 2827 4494 2658 4355 
Q 2490 4216 2327 4089 
Q 2165 3963 2043 3878 
L 1408 3878 
L 1408 3963 
Q 1511 4081 1647 4245 
Q 1783 4409 1917 4584 
Q 2052 4759 2143 4903 
L 3211 4903 
z
" transform="scale(0.015625)"/>
        <path id="OpenSans-Bold-4d" d="M 2509 0 
L 1409 3584 
L 1381 3584 
Q 1388 3456 1402 3198 
Q 1416 2941 1428 2650 
Q 1441 2359 1441 2125 
L 1441 0 
L 575 0 
L 575 4569 
L 1894 4569 
L 2975 1075 
L 2994 1075 
L 4141 4569 
L 5459 4569 
L 5459 0 
L 4556 0 
L 4556 2163 
Q 4556 2378 4564 2659 
Q 4572 2941 4584 3195 
Q 4597 3450 4603 3578 
L 4575 3578 
L 3397 0 
L 2509 0 
z
" transform="scale(0.015625)"/>
       </defs>
       <use xlink:href="#OpenSans-Bold-52"/>
       <use xlink:href="#OpenSans-Bold-65" x="66.015625"/>
       <use xlink:href="#OpenSans-Bold-67" x="125.097656"/>
       <use xlink:href="#OpenSans-Bold-69" x="181.591797"/>
       <use xlink:href="#OpenSans-Bold-f3" x="212.109375"/>
       <use xlink:href="#OpenSans-Bold-6e" x="274.023438"/>
       <use xlink:href="#OpenSans-Bold-20" x="339.746094"/>
       <use xlink:href="#OpenSans-Bold-4d" x="365.722656"/>
       <use xlink:href="#OpenSans-Bold-65" x="460.009766"/>
       <use xlink:href="#OpenSans-Bold-74" x="519.091797"/>
       <use xlink:href="#OpenSans-Bold-72" x="562.5"/>
       <use xlink:href="#OpenSans-Bold-6f" x="607.910156"/>
       <use xlink:href="#OpenSans-Bold-70" x="669.824219"/>
       <use xlink:href="#OpenSans-Bold-6f" x="733.105469"/>
       <use xlink:href="#OpenSans-Bold-6c" x="795.019531"/>
       <use xlink:href="#OpenSans-Bold-69" x="825.537109"/>
       <use xlink:href="#OpenSans-Bold-74" x="856.054688"/>
       <use xlink:href="#OpenSans-Bold-61" x="899.462891"/>
       <use xlink:href="#OpenSans-Bold-6e" x="959.863281"/>
       <use xlink:href="#OpenSans-Bold-61" x="1025.585938"/>
      </g>
     </g>
    </g>
    <g id="xtick_8">
     <g id="line2d_8">
      <g>
       <use xlink:href="#m143097167b" x="468.066765" y="260.980211" style="fill: #37539c; stroke: #37539c; stroke-width: 0.8"/>
      </g>
     </g>
     <g id="text_8">
      <!-- O'Higgins -->
      <g style="fill: #37539c" transform="translate(456.181184 298.988611) rotate(-45) scale(0.08 -0.08)">
       <defs>
        <path id="OpenSans-Bold-4f" d="M 4722 2291 
Q 4722 1763 4590 1330 
Q 4459 897 4192 584 
Q 3925 272 3515 104 
Q 3106 -63 2547 -63 
Q 1988 -63 1578 104 
Q 1169 272 901 584 
Q 634 897 503 1331 
Q 372 1766 372 2297 
Q 372 3006 605 3532 
Q 838 4059 1322 4350 
Q 1806 4641 2553 4641 
Q 3297 4641 3776 4350 
Q 4256 4059 4489 3531 
Q 4722 3003 4722 2291 
z
M 1388 2291 
Q 1388 1813 1508 1467 
Q 1628 1122 1884 936 
Q 2141 750 2547 750 
Q 2959 750 3215 936 
Q 3472 1122 3589 1467 
Q 3706 1813 3706 2291 
Q 3706 3009 3437 3421 
Q 3169 3834 2553 3834 
Q 2144 3834 1886 3648 
Q 1628 3463 1508 3117 
Q 1388 2772 1388 2291 
z
" transform="scale(0.015625)"/>
        <path id="OpenSans-Bold-27" d="M 1288 4569 
L 1159 2919 
L 544 2919 
L 416 4569 
L 1288 4569 
z
" transform="scale(0.015625)"/>
        <path id="OpenSans-Bold-48" d="M 4319 0 
L 3353 0 
L 3353 1972 
L 1544 1972 
L 1544 0 
L 575 0 
L 575 4569 
L 1544 4569 
L 1544 2778 
L 3353 2778 
L 3353 4569 
L 4319 4569 
L 4319 0 
z
" transform="scale(0.015625)"/>
       </defs>
       <use xlink:href="#OpenSans-Bold-4f"/>
       <use xlink:href="#OpenSans-Bold-27" x="79.589844"/>
       <use xlink:href="#OpenSans-Bold-48" x="106.201172"/>
       <use xlink:href="#OpenSans-Bold-69" x="182.714844"/>
       <use xlink:href="#OpenSans-Bold-67" x="213.232422"/>
       <use xlink:href="#OpenSans-Bold-67" x="269.726562"/>
       <use xlink:href="#OpenSans-Bold-69" x="326.220703"/>
       <use xlink:href="#OpenSans-Bold-6e" x="356.738281"/>
       <use xlink:href="#OpenSans-Bold-73" x="422.460938"/>
      </g>
     </g>
    </g>
    <g id="xtick_9">
     <g id="line2d_9">
      <g>
       <use xlink:href="#m143097167b" x="523.765" y="260.980211" style="fill: #37539c; stroke: #37539c; stroke-width: 0.8"/>
      </g>
     </g>
     <g id="text_9">
      <!-- Maule -->
      <g style="fill: #37539c" transform="translate(516.466332 289.814785) rotate(-45) scale(0.08 -0.08)">
       <use xlink:href="#OpenSans-Bold-4d"/>
       <use xlink:href="#OpenSans-Bold-61" x="94.287109"/>
       <use xlink:href="#OpenSans-Bold-75" x="154.6875"/>
       <use xlink:href="#OpenSans-Bold-6c" x="220.410156"/>
       <use xlink:href="#OpenSans-Bold-65" x="250.927734"/>
      </g>
     </g>
    </g>
    <g id="xtick_10">
     <g id="line2d_10">
      <g>
       <use xlink:href="#m143097167b" x="579.463235" y="260.980211" style="fill: #37539c; stroke: #37539c; stroke-width: 0.8"/>
      </g>
     </g>
     <g id="text_10">
      <!-- Ñuble -->
      <g style="fill: #37539c" transform="translate(572.450504 289.242912) rotate(-45) scale(0.08 -0.08)">
       <defs>
        <path id="OpenSans-Bold-d1" d="M 4628 0 
L 3397 0 
L 1409 3456 
L 1381 3456 
Q 1394 3241 1403 3022 
Q 1413 2803 1422 2586 
Q 1431 2369 1441 2150 
L 1441 0 
L 575 0 
L 575 4569 
L 1797 4569 
L 3781 1147 
L 3803 1147 
Q 3797 1359 3787 1568 
Q 3778 1778 3770 1987 
Q 3763 2197 3756 2406 
L 3756 4569 
L 4628 4569 
L 4628 0 
z
M 1304 4960 
Q 1323 5210 1395 5393 
Q 1467 5576 1582 5693 
Q 1698 5810 1843 5868 
Q 1989 5926 2154 5926 
Q 2282 5926 2405 5877 
Q 2529 5829 2649 5763 
Q 2770 5697 2887 5649 
Q 3004 5601 3117 5601 
Q 3211 5601 3300 5683 
Q 3389 5766 3429 5932 
L 3895 5932 
Q 3857 5438 3613 5202 
Q 3370 4966 3045 4966 
Q 2917 4966 2793 5016 
Q 2670 5066 2549 5130 
Q 2429 5194 2313 5244 
Q 2198 5294 2086 5294 
Q 1989 5294 1900 5211 
Q 1811 5129 1770 4960 
L 1304 4960 
z
" transform="scale(0.015625)"/>
       </defs>
       <use xlink:href="#OpenSans-Bold-d1"/>
       <use xlink:href="#OpenSans-Bold-75" x="81.298828"/>
       <use xlink:href="#OpenSans-Bold-62" x="147.021484"/>
       <use xlink:href="#OpenSans-Bold-6c" x="210.302734"/>
       <use xlink:href="#OpenSans-Bold-65" x="240.820312"/>
      </g>
     </g>
    </g>
    <g id="xtick_11">
     <g id="line2d_11">
      <g>
       <use xlink:href="#m143097167b" x="635.161471" y="260.980211" style="fill: #37539c; stroke: #37539c; stroke-width: 0.8"/>
      </g>
     </g>
     <g id="text_11">
      <!-- Biobío -->
      <g style="fill: #37539c" transform="translate(627.711659 290.117073) rotate(-45) scale(0.08 -0.08)">
       <defs>
        <path id="OpenSans-Bold-42" d="M 575 4569 
L 1997 4569 
Q 2909 4569 3378 4312 
Q 3847 4056 3847 3413 
Q 3847 3153 3764 2943 
Q 3681 2734 3525 2600 
Q 3369 2466 3144 2425 
L 3144 2394 
Q 3372 2347 3556 2233 
Q 3741 2119 3852 1901 
Q 3963 1684 3963 1325 
Q 3963 909 3759 612 
Q 3556 316 3179 158 
Q 2803 0 2284 0 
L 575 0 
L 575 4569 
z
M 1544 2759 
L 2106 2759 
Q 2528 2759 2690 2892 
Q 2853 3025 2853 3284 
Q 2853 3547 2661 3661 
Q 2469 3775 2053 3775 
L 1544 3775 
L 1544 2759 
z
M 1544 1991 
L 1544 800 
L 2175 800 
Q 2613 800 2784 969 
Q 2956 1138 2956 1422 
Q 2956 1591 2881 1719 
Q 2806 1847 2629 1919 
Q 2453 1991 2144 1991 
L 1544 1991 
z
" transform="scale(0.015625)"/>
       </defs>
       <use xlink:href="#OpenSans-Bold-42"/>
       <use xlink:href="#OpenSans-Bold-69" x="67.1875"/>
       <use xlink:href="#OpenSans-Bold-6f" x="97.705078"/>
       <use xlink:href="#OpenSans-Bold-62" x="159.619141"/>
       <use xlink:href="#OpenSans-Bold-ed" x="222.900391"/>
       <use xlink:href="#OpenSans-Bold-6f" x="253.417969"/>
      </g>
     </g>
    </g>
    <g id="xtick_12">
     <g id="line2d_12">
      <g>
       <use xlink:href="#m143097167b" x="690.859706" y="260.980211" style="fill: #37539c; stroke: #37539c; stroke-width: 0.8"/>
      </g>
     </g>
     <g id="text_12">
      <!-- La Araucanía -->
      <g style="fill: #37539c" transform="translate(673.890911 309.155039) rotate(-45) scale(0.08 -0.08)">
       <defs>
        <path id="OpenSans-Bold-4c" d="M 575 0 
L 575 4569 
L 1544 4569 
L 1544 800 
L 3397 800 
L 3397 0 
L 575 0 
z
" transform="scale(0.015625)"/>
       </defs>
       <use xlink:href="#OpenSans-Bold-4c"/>
       <use xlink:href="#OpenSans-Bold-61" x="56.494141"/>
       <use xlink:href="#OpenSans-Bold-20" x="116.894531"/>
       <use xlink:href="#OpenSans-Bold-41" x="142.871094"/>
       <use xlink:href="#OpenSans-Bold-72" x="211.865234"/>
       <use xlink:href="#OpenSans-Bold-61" x="257.275391"/>
       <use xlink:href="#OpenSans-Bold-75" x="317.675781"/>
       <use xlink:href="#OpenSans-Bold-63" x="383.398438"/>
       <use xlink:href="#OpenSans-Bold-61" x="434.814453"/>
       <use xlink:href="#OpenSans-Bold-6e" x="495.214844"/>
       <use xlink:href="#OpenSans-Bold-ed" x="560.9375"/>
       <use xlink:href="#OpenSans-Bold-61" x="591.455078"/>
      </g>
     </g>
    </g>
    <g id="xtick_13">
     <g id="line2d_13">
      <g>
       <use xlink:href="#m143097167b" x="746.557941" y="260.980211" style="fill: #37539c; stroke: #37539c; stroke-width: 0.8"/>
      </g>
     </g>
     <g id="text_13">
      <!-- Los Ríos -->
      <g style="fill: #37539c" transform="translate(736.649607 295.034117) rotate(-45) scale(0.08 -0.08)">
       <use xlink:href="#OpenSans-Bold-4c"/>
       <use xlink:href="#OpenSans-Bold-6f" x="56.494141"/>
       <use xlink:href="#OpenSans-Bold-73" x="118.408203"/>
       <use xlink:href="#OpenSans-Bold-20" x="168.115234"/>
       <use xlink:href="#OpenSans-Bold-52" x="194.091797"/>
       <use xlink:href="#OpenSans-Bold-ed" x="260.107422"/>
       <use xlink:href="#OpenSans-Bold-6f" x="290.625"/>
       <use xlink:href="#OpenSans-Bold-73" x="352.539062"/>
      </g>
     </g>
    </g>
    <g id="xtick_14">
     <g id="line2d_14">
      <g>
       <use xlink:href="#m143097167b" x="802.256176" y="260.980211" style="fill: #37539c; stroke: #37539c; stroke-width: 0.8"/>
      </g>
     </g>
     <g id="text_14">
      <!-- Los Lagos -->
      <g style="fill: #37539c" transform="translate(790.173489 299.382823) rotate(-45) scale(0.08 -0.08)">
       <use xlink:href="#OpenSans-Bold-4c"/>
       <use xlink:href="#OpenSans-Bold-6f" x="56.494141"/>
       <use xlink:href="#OpenSans-Bold-73" x="118.408203"/>
       <use xlink:href="#OpenSans-Bold-20" x="168.115234"/>
       <use xlink:href="#OpenSans-Bold-4c" x="194.091797"/>
       <use xlink:href="#OpenSans-Bold-61" x="250.585938"/>
       <use xlink:href="#OpenSans-Bold-67" x="310.986328"/>
       <use xlink:href="#OpenSans-Bold-6f" x="367.480469"/>
       <use xlink:href="#OpenSans-Bold-73" x="429.394531"/>
      </g>
     </g>
    </g>
    <g id="xtick_15">
     <g id="line2d_15">
      <g>
       <use xlink:href="#m143097167b" x="857.954412" y="260.980211" style="fill: #37539c; stroke: #37539c; stroke-width: 0.8"/>
      </g>
     </g>
     <g id="text_15">
      <!-- Aysén -->
      <g style="fill: #37539c" transform="translate(850.945216 289.306552) rotate(-45) scale(0.08 -0.08)">
       <defs>
        <path id="OpenSans-Bold-e9" d="M 1941 3559 
Q 2425 3559 2775 3373 
Q 3125 3188 3315 2834 
Q 3506 2481 3506 1972 
L 3506 1509 
L 1253 1509 
Q 1269 1106 1495 876 
Q 1722 647 2125 647 
Q 2459 647 2737 715 
Q 3016 784 3309 922 
L 3309 184 
Q 3050 56 2767 -3 
Q 2484 -63 2081 -63 
Q 1556 -63 1151 131 
Q 747 325 517 722 
Q 288 1119 288 1722 
Q 288 2334 495 2742 
Q 703 3150 1075 3354 
Q 1447 3559 1941 3559 
z
M 1947 2881 
Q 1669 2881 1486 2703 
Q 1303 2525 1275 2144 
L 2613 2144 
Q 2609 2356 2536 2522 
Q 2463 2688 2317 2784 
Q 2172 2881 1947 2881 
z
M 3123 4903 
L 3123 4838 
Q 3033 4750 2886 4622 
Q 2739 4494 2570 4355 
Q 2402 4216 2239 4089 
Q 2077 3963 1955 3878 
L 1320 3878 
L 1320 3963 
Q 1423 4081 1559 4245 
Q 1695 4409 1829 4584 
Q 1964 4759 2055 4903 
L 3123 4903 
z
" transform="scale(0.015625)"/>
       </defs>
       <use xlink:href="#OpenSans-Bold-41"/>
       <use xlink:href="#OpenSans-Bold-79" x="68.994141"/>
       <use xlink:href="#OpenSans-Bold-73" x="125.878906"/>
       <use xlink:href="#OpenSans-Bold-e9" x="175.585938"/>
       <use xlink:href="#OpenSans-Bold-6e" x="234.667969"/>
      </g>
     </g>
    </g>
    <g id="xtick_16">
     <g id="line2d_16">
      <g>
       <use xlink:href="#m143097167b" x="913.652647" y="260.980211" style="fill: #37539c; stroke: #37539c; stroke-width: 0.8"/>
      </g>
     </g>
     <g id="text_16">
      <!-- Magallanes -->
      <g style="fill: #37539c" transform="translate(899.069896 304.382952) rotate(-45) scale(0.08 -0.08)">
       <use xlink:href="#OpenSans-Bold-4d"/>
       <use xlink:href="#OpenSans-Bold-61" x="94.287109"/>
       <use xlink:href="#OpenSans-Bold-67" x="154.6875"/>
       <use xlink:href="#OpenSans-Bold-61" x="211.181641"/>
       <use xlink:href="#OpenSans-Bold-6c" x="271.582031"/>
       <use xlink:href="#OpenSans-Bold-6c" x="302.099609"/>
       <use xlink:href="#OpenSans-Bold-61" x="332.617188"/>
       <use xlink:href="#OpenSans-Bold-6e" x="393.017578"/>
       <use xlink:href="#OpenSans-Bold-65" x="458.740234"/>
       <use xlink:href="#OpenSans-Bold-73" x="517.822266"/>
      </g>
     </g>
    </g>
    <g id="xtick_17">
     <g id="line2d_17">
      <g>
       <use xlink:href="#m143097167b" x="969.350882" y="260.980211" style="fill: #37539c; stroke: #37539c; stroke-width: 0.8"/>
      </g>
     </g>
     <g id="text_17">
      <!-- Multiregional -->
      <g style="fill: #37539c" transform="translate(951.742598 310.434018) rotate(-45) scale(0.08 -0.08)">
       <use xlink:href="#OpenSans-Bold-4d"/>
       <use xlink:href="#OpenSans-Bold-75" x="94.287109"/>
       <use xlink:href="#OpenSans-Bold-6c" x="160.009766"/>
       <use xlink:href="#OpenSans-Bold-74" x="190.527344"/>
       <use xlink:href="#OpenSans-Bold-69" x="233.935547"/>
       <use xlink:href="#OpenSans-Bold-72" x="264.453125"/>
       <use xlink:href="#OpenSans-Bold-65" x="309.863281"/>
       <use xlink:href="#OpenSans-Bold-67" x="368.945312"/>
       <use xlink:href="#OpenSans-Bold-69" x="425.439453"/>
       <use xlink:href="#OpenSans-Bold-6f" x="455.957031"/>
       <use xlink:href="#OpenSans-Bold-6e" x="517.871094"/>
       <use xlink:href="#OpenSans-Bold-61" x="583.59375"/>
       <use xlink:href="#OpenSans-Bold-6c" x="643.994141"/>
      </g>
     </g>
    </g>
    <g id="text_18">
     <!-- Región de ejecución -->
     <g style="fill: #37539c" transform="translate(474.291562 346.767679) scale(0.1 -0.1)">
      <defs>
       <path id="OpenSans-Bold-64" d="M 1606 -63 
Q 1022 -63 655 395 
Q 288 853 288 1741 
Q 288 2638 659 3098 
Q 1031 3559 1631 3559 
Q 1881 3559 2072 3490 
Q 2263 3422 2402 3306 
Q 2541 3191 2638 3047 
L 2669 3047 
Q 2650 3147 2623 3342 
Q 2597 3538 2597 3744 
L 2597 4863 
L 3553 4863 
L 3553 0 
L 2822 0 
L 2638 453 
L 2597 453 
Q 2506 309 2370 192 
Q 2234 75 2046 6 
Q 1859 -63 1606 -63 
z
M 1941 697 
Q 2331 697 2492 930 
Q 2653 1163 2663 1631 
L 2663 1734 
Q 2663 2244 2506 2514 
Q 2350 2784 1925 2784 
Q 1609 2784 1431 2512 
Q 1253 2241 1253 1728 
Q 1253 1216 1433 956 
Q 1613 697 1941 697 
z
" transform="scale(0.015625)"/>
       <path id="OpenSans-Bold-6a" d="M 219 -1538 
Q 56 -1538 -119 -1514 
Q -294 -1491 -409 -1459 
L -409 -709 
Q -294 -741 -192 -755 
Q -91 -769 38 -769 
Q 231 -769 365 -661 
Q 500 -553 500 -238 
L 500 3494 
L 1453 3494 
L 1453 -378 
Q 1453 -697 1331 -961 
Q 1209 -1225 937 -1381 
Q 666 -1538 219 -1538 
z
M 459 4397 
Q 459 4666 611 4764 
Q 763 4863 978 4863 
Q 1191 4863 1344 4764 
Q 1497 4666 1497 4397 
Q 1497 4131 1344 4029 
Q 1191 3928 978 3928 
Q 763 3928 611 4029 
Q 459 4131 459 4397 
z
" transform="scale(0.015625)"/>
      </defs>
      <use xlink:href="#OpenSans-Bold-52"/>
      <use xlink:href="#OpenSans-Bold-65" x="66.015625"/>
      <use xlink:href="#OpenSans-Bold-67" x="125.097656"/>
      <use xlink:href="#OpenSans-Bold-69" x="181.591797"/>
      <use xlink:href="#OpenSans-Bold-f3" x="212.109375"/>
      <use xlink:href="#OpenSans-Bold-6e" x="274.023438"/>
      <use xlink:href="#OpenSans-Bold-20" x="339.746094"/>
      <use xlink:href="#OpenSans-Bold-64" x="365.722656"/>
      <use xlink:href="#OpenSans-Bold-65" x="429.003906"/>
      <use xlink:href="#OpenSans-Bold-20" x="488.085938"/>
      <use xlink:href="#OpenSans-Bold-65" x="514.0625"/>
      <use xlink:href="#OpenSans-Bold-6a" x="573.144531"/>
      <use xlink:href="#OpenSans-Bold-65" x="603.662109"/>
      <use xlink:href="#OpenSans-Bold-63" x="662.744141"/>
      <use xlink:href="#OpenSans-Bold-75" x="714.160156"/>
      <use xlink:href="#OpenSans-Bold-63" x="779.882812"/>
      <use xlink:href="#OpenSans-Bold-69" x="831.298828"/>
      <use xlink:href="#OpenSans-Bold-f3" x="861.816406"/>
      <use xlink:href="#OpenSans-Bold-6e" x="923.730469"/>
     </g>
    </g>
   </g>
   <g id="matplotlib.axis_2">
    <g id="ytick_1">
     <g id="line2d_18">
      <path d="M 50.33 260.980211 
L 997.2 260.980211 
" clip-path="url(#pded754ed8f)" style="fill: none; stroke-dasharray: 2.96,1.28; stroke-dashoffset: 0; stroke: #b0b0b0; stroke-width: 0.8"/>
     </g>
     <g id="line2d_19">
      <defs>
       <path id="me696a5894c" d="M 0 0 
L -3.5 0 
" style="stroke: #37539c; stroke-width: 0.8"/>
      </defs>
      <g>
       <use xlink:href="#me696a5894c" x="50.33" y="260.980211" style="fill: #37539c; stroke: #37539c; stroke-width: 0.8"/>
      </g>
     </g>
     <g id="text_19">
      <!-- 0 -->
      <g style="fill: #37539c" transform="translate(38.75625 264.019586) scale(0.08 -0.08)">
       <defs>
        <path id="OpenSans-Bold-30" d="M 3425 2284 
Q 3425 1731 3339 1297 
Q 3253 863 3064 559 
Q 2875 256 2569 96 
Q 2263 -63 1825 -63 
Q 1275 -63 922 217 
Q 569 497 400 1023 
Q 231 1550 231 2284 
Q 231 3025 386 3551 
Q 541 4078 891 4359 
Q 1241 4641 1825 4641 
Q 2372 4641 2726 4361 
Q 3081 4081 3253 3554 
Q 3425 3028 3425 2284 
z
M 1191 2284 
Q 1191 1763 1248 1414 
Q 1306 1066 1443 891 
Q 1581 716 1825 716 
Q 2066 716 2205 889 
Q 2344 1063 2403 1411 
Q 2463 1759 2463 2284 
Q 2463 2806 2403 3156 
Q 2344 3506 2205 3682 
Q 2066 3859 1825 3859 
Q 1581 3859 1443 3682 
Q 1306 3506 1248 3156 
Q 1191 2806 1191 2284 
z
" transform="scale(0.015625)"/>
       </defs>
       <use xlink:href="#OpenSans-Bold-30"/>
      </g>
     </g>
    </g>
    <g id="ytick_2">
     <g id="line2d_20">
      <path d="M 50.33 232.27336 
L 997.2 232.27336 
" clip-path="url(#pded754ed8f)" style="fill: none; stroke-dasharray: 2.96,1.28; stroke-dashoffset: 0; stroke: #b0b0b0; stroke-width: 0.8"/>
     </g>
     <g id="line2d_21">
      <g>
       <use xlink:href="#me696a5894c" x="50.33" y="232.27336" style="fill: #37539c; stroke: #37539c; stroke-width: 0.8"/>
      </g>
     </g>
     <g id="text_20">
      <!-- 250 -->
      <g style="fill: #37539c" transform="translate(29.60875 235.312735) scale(0.08 -0.08)">
       <defs>
        <path id="OpenSans-Bold-32" d="M 3450 0 
L 256 0 
L 256 672 
L 1403 1831 
Q 1750 2188 1961 2427 
Q 2172 2666 2267 2862 
Q 2363 3059 2363 3284 
Q 2363 3556 2211 3692 
Q 2059 3828 1806 3828 
Q 1541 3828 1291 3706 
Q 1041 3584 769 3359 
L 244 3981 
Q 441 4150 661 4300 
Q 881 4450 1173 4542 
Q 1466 4634 1875 4634 
Q 2325 4634 2648 4471 
Q 2972 4309 3147 4029 
Q 3322 3750 3322 3397 
Q 3322 3019 3172 2706 
Q 3022 2394 2736 2087 
Q 2450 1781 2047 1409 
L 1459 856 
L 1459 813 
L 3450 813 
L 3450 0 
z
" transform="scale(0.015625)"/>
        <path id="OpenSans-Bold-35" d="M 1919 2919 
Q 2338 2919 2664 2759 
Q 2991 2600 3178 2290 
Q 3366 1981 3366 1528 
Q 3366 1034 3161 676 
Q 2956 319 2551 128 
Q 2147 -63 1544 -63 
Q 1184 -63 867 -2 
Q 550 59 313 184 
L 313 1019 
Q 550 894 883 808 
Q 1216 722 1509 722 
Q 1797 722 1994 798 
Q 2191 875 2292 1036 
Q 2394 1197 2394 1447 
Q 2394 1781 2169 1959 
Q 1944 2138 1478 2138 
Q 1300 2138 1108 2103 
Q 916 2069 788 2034 
L 403 2241 
L 575 4569 
L 3053 4569 
L 3053 3750 
L 1422 3750 
L 1338 2853 
Q 1444 2875 1569 2897 
Q 1694 2919 1919 2919 
z
" transform="scale(0.015625)"/>
       </defs>
       <use xlink:href="#OpenSans-Bold-32"/>
       <use xlink:href="#OpenSans-Bold-35" x="57.177734"/>
       <use xlink:href="#OpenSans-Bold-30" x="114.355469"/>
      </g>
     </g>
    </g>
    <g id="ytick_3">
     <g id="line2d_22">
      <path d="M 50.33 203.566508 
L 997.2 203.566508 
" clip-path="url(#pded754ed8f)" style="fill: none; stroke-dasharray: 2.96,1.28; stroke-dashoffset: 0; stroke: #b0b0b0; stroke-width: 0.8"/>
     </g>
     <g id="line2d_23">
      <g>
       <use xlink:href="#me696a5894c" x="50.33" y="203.566508" style="fill: #37539c; stroke: #37539c; stroke-width: 0.8"/>
      </g>
     </g>
     <g id="text_21">
      <!-- 500 -->
      <g style="fill: #37539c" transform="translate(29.60875 206.605883) scale(0.08 -0.08)">
       <use xlink:href="#OpenSans-Bold-35"/>
       <use xlink:href="#OpenSans-Bold-30" x="57.177734"/>
       <use xlink:href="#OpenSans-Bold-30" x="114.355469"/>
      </g>
     </g>
    </g>
    <g id="ytick_4">
     <g id="line2d_24">
      <path d="M 50.33 174.859657 
L 997.2 174.859657 
" clip-path="url(#pded754ed8f)" style="fill: none; stroke-dasharray: 2.96,1.28; stroke-dashoffset: 0; stroke: #b0b0b0; stroke-width: 0.8"/>
     </g>
     <g id="line2d_25">
      <g>
       <use xlink:href="#me696a5894c" x="50.33" y="174.859657" style="fill: #37539c; stroke: #37539c; stroke-width: 0.8"/>
      </g>
     </g>
     <g id="text_22">
      <!-- 750 -->
      <g style="fill: #37539c" transform="translate(29.60875 177.899032) scale(0.08 -0.08)">
       <defs>
        <path id="OpenSans-Bold-37" d="M 709 0 
L 2425 3756 
L 172 3756 
L 172 4569 
L 3450 4569 
L 3450 3963 
L 1722 0 
L 709 0 
z
" transform="scale(0.015625)"/>
       </defs>
       <use xlink:href="#OpenSans-Bold-37"/>
       <use xlink:href="#OpenSans-Bold-35" x="57.177734"/>
       <use xlink:href="#OpenSans-Bold-30" x="114.355469"/>
      </g>
     </g>
    </g>
    <g id="ytick_5">
     <g id="line2d_26">
      <path d="M 50.33 146.152805 
L 997.2 146.152805 
" clip-path="url(#pded754ed8f)" style="fill: none; stroke-dasharray: 2.96,1.28; stroke-dashoffset: 0; stroke: #b0b0b0; stroke-width: 0.8"/>
     </g>
     <g id="line2d_27">
      <g>
       <use xlink:href="#me696a5894c" x="50.33" y="146.152805" style="fill: #37539c; stroke: #37539c; stroke-width: 0.8"/>
      </g>
     </g>
     <g id="text_23">
      <!-- 1000 -->
      <g style="fill: #37539c" transform="translate(25.035 149.19218) scale(0.08 -0.08)">
       <defs>
        <path id="OpenSans-Bold-31" d="M 2644 0 
L 1678 0 
L 1678 2644 
Q 1678 2753 1681 2914 
Q 1684 3075 1690 3245 
Q 1697 3416 1703 3553 
Q 1669 3513 1564 3414 
Q 1459 3316 1369 3238 
L 844 2816 
L 378 3397 
L 1850 4569 
L 2644 4569 
L 2644 0 
z
" transform="scale(0.015625)"/>
       </defs>
       <use xlink:href="#OpenSans-Bold-31"/>
       <use xlink:href="#OpenSans-Bold-30" x="57.177734"/>
       <use xlink:href="#OpenSans-Bold-30" x="114.355469"/>
       <use xlink:href="#OpenSans-Bold-30" x="171.533203"/>
      </g>
     </g>
    </g>
    <g id="ytick_6">
     <g id="line2d_28">
      <path d="M 50.33 117.445953 
L 997.2 117.445953 
" clip-path="url(#pded754ed8f)" style="fill: none; stroke-dasharray: 2.96,1.28; stroke-dashoffset: 0; stroke: #b0b0b0; stroke-width: 0.8"/>
     </g>
     <g id="line2d_29">
      <g>
       <use xlink:href="#me696a5894c" x="50.33" y="117.445953" style="fill: #37539c; stroke: #37539c; stroke-width: 0.8"/>
      </g>
     </g>
     <g id="text_24">
      <!-- 1250 -->
      <g style="fill: #37539c" transform="translate(25.035 120.485328) scale(0.08 -0.08)">
       <use xlink:href="#OpenSans-Bold-31"/>
       <use xlink:href="#OpenSans-Bold-32" x="57.177734"/>
       <use xlink:href="#OpenSans-Bold-35" x="114.355469"/>
       <use xlink:href="#OpenSans-Bold-30" x="171.533203"/>
      </g>
     </g>
    </g>
    <g id="ytick_7">
     <g id="line2d_30">
      <path d="M 50.33 88.739102 
L 997.2 88.739102 
" clip-path="url(#pded754ed8f)" style="fill: none; stroke-dasharray: 2.96,1.28; stroke-dashoffset: 0; stroke: #b0b0b0; stroke-width: 0.8"/>
     </g>
     <g id="line2d_31">
      <g>
       <use xlink:href="#me696a5894c" x="50.33" y="88.739102" style="fill: #37539c; stroke: #37539c; stroke-width: 0.8"/>
      </g>
     </g>
     <g id="text_25">
      <!-- 1500 -->
      <g style="fill: #37539c" transform="translate(25.035 91.778477) scale(0.08 -0.08)">
       <use xlink:href="#OpenSans-Bold-31"/>
       <use xlink:href="#OpenSans-Bold-35" x="57.177734"/>
       <use xlink:href="#OpenSans-Bold-30" x="114.355469"/>
       <use xlink:href="#OpenSans-Bold-30" x="171.533203"/>
      </g>
     </g>
    </g>
    <g id="ytick_8">
     <g id="line2d_32">
      <path d="M 50.33 60.03225 
L 997.2 60.03225 
" clip-path="url(#pded754ed8f)" style="fill: none; stroke-dasharray: 2.96,1.28; stroke-dashoffset: 0; stroke: #b0b0b0; stroke-width: 0.8"/>
     </g>
     <g id="line2d_33">
      <g>
       <use xlink:href="#me696a5894c" x="50.33" y="60.03225" style="fill: #37539c; stroke: #37539c; stroke-width: 0.8"/>
      </g>
     </g>
     <g id="text_26">
      <!-- 1750 -->
      <g style="fill: #37539c" transform="translate(25.035 63.071625) scale(0.08 -0.08)">
       <use xlink:href="#OpenSans-Bold-31"/>
       <use xlink:href="#OpenSans-Bold-37" x="57.177734"/>
       <use xlink:href="#OpenSans-Bold-35" x="114.355469"/>
       <use xlink:href="#OpenSans-Bold-30" x="171.533203"/>
      </g>
     </g>
    </g>
    <g id="ytick_9">
     <g id="line2d_34">
      <path d="M 50.33 31.325399 
L 997.2 31.325399 
" clip-path="url(#pded754ed8f)" style="fill: none; stroke-dasharray: 2.96,1.28; stroke-dashoffset: 0; stroke: #b0b0b0; stroke-width: 0.8"/>
     </g>
     <g id="line2d_35">
      <g>
       <use xlink:href="#me696a5894c" x="50.33" y="31.325399" style="fill: #37539c; stroke: #37539c; stroke-width: 0.8"/>
      </g>
     </g>
     <g id="text_27">
      <!-- 2000 -->
      <g style="fill: #37539c" transform="translate(25.035 34.364774) scale(0.08 -0.08)">
       <use xlink:href="#OpenSans-Bold-32"/>
       <use xlink:href="#OpenSans-Bold-30" x="57.177734"/>
       <use xlink:href="#OpenSans-Bold-30" x="114.355469"/>
       <use xlink:href="#OpenSans-Bold-30" x="171.533203"/>
      </g>
     </g>
    </g>
    <g id="text_28">
     <!-- Cantidad de proyectos beneficiarios ANID -->
     <g style="fill: #37539c" transform="translate(18.631875 239.579168) rotate(-90) scale(0.1 -0.1)">
      <defs>
       <path id="OpenSans-Bold-4e" d="M 4628 0 
L 3397 0 
L 1409 3456 
L 1381 3456 
Q 1394 3241 1403 3022 
Q 1413 2803 1422 2586 
Q 1431 2369 1441 2150 
L 1441 0 
L 575 0 
L 575 4569 
L 1797 4569 
L 3781 1147 
L 3803 1147 
Q 3797 1359 3787 1568 
Q 3778 1778 3770 1987 
Q 3763 2197 3756 2406 
L 3756 4569 
L 4628 4569 
L 4628 0 
z
" transform="scale(0.015625)"/>
       <path id="OpenSans-Bold-49" d="M 575 0 
L 575 4569 
L 1544 4569 
L 1544 0 
L 575 0 
z
" transform="scale(0.015625)"/>
       <path id="OpenSans-Bold-44" d="M 4366 2328 
Q 4366 1556 4070 1039 
Q 3775 522 3215 261 
Q 2656 0 1869 0 
L 575 0 
L 575 4569 
L 2009 4569 
Q 2728 4569 3256 4314 
Q 3784 4059 4075 3561 
Q 4366 3063 4366 2328 
z
M 3359 2303 
Q 3359 2809 3211 3136 
Q 3063 3463 2773 3619 
Q 2484 3775 2059 3775 
L 1544 3775 
L 1544 800 
L 1959 800 
Q 2669 800 3014 1178 
Q 3359 1556 3359 2303 
z
" transform="scale(0.015625)"/>
      </defs>
      <use xlink:href="#OpenSans-Bold-43"/>
      <use xlink:href="#OpenSans-Bold-61" x="63.720703"/>
      <use xlink:href="#OpenSans-Bold-6e" x="124.121094"/>
      <use xlink:href="#OpenSans-Bold-74" x="189.84375"/>
      <use xlink:href="#OpenSans-Bold-69" x="233.251953"/>
      <use xlink:href="#OpenSans-Bold-64" x="263.769531"/>
      <use xlink:href="#OpenSans-Bold-61" x="327.050781"/>
      <use xlink:href="#OpenSans-Bold-64" x="387.451172"/>
      <use xlink:href="#OpenSans-Bold-20" x="450.732422"/>
      <use xlink:href="#OpenSans-Bold-64" x="476.708984"/>
      <use xlink:href="#OpenSans-Bold-65" x="539.990234"/>
      <use xlink:href="#OpenSans-Bold-20" x="599.072266"/>
      <use xlink:href="#OpenSans-Bold-70" x="625.048828"/>
      <use xlink:href="#OpenSans-Bold-72" x="688.330078"/>
      <use xlink:href="#OpenSans-Bold-6f" x="733.740234"/>
      <use xlink:href="#OpenSans-Bold-79" x="795.654297"/>
      <use xlink:href="#OpenSans-Bold-65" x="852.539062"/>
      <use xlink:href="#OpenSans-Bold-63" x="911.621094"/>
      <use xlink:href="#OpenSans-Bold-74" x="963.037109"/>
      <use xlink:href="#OpenSans-Bold-6f" x="1006.445312"/>
      <use xlink:href="#OpenSans-Bold-73" x="1068.359375"/>
      <use xlink:href="#OpenSans-Bold-20" x="1118.066406"/>
      <use xlink:href="#OpenSans-Bold-62" x="1144.042969"/>
      <use xlink:href="#OpenSans-Bold-65" x="1207.324219"/>
      <use xlink:href="#OpenSans-Bold-6e" x="1266.40625"/>
      <use xlink:href="#OpenSans-Bold-65" x="1332.128906"/>
      <use xlink:href="#OpenSans-Bold-66" x="1391.210938"/>
      <use xlink:href="#OpenSans-Bold-69" x="1429.931641"/>
      <use xlink:href="#OpenSans-Bold-63" x="1460.449219"/>
      <use xlink:href="#OpenSans-Bold-69" x="1511.865234"/>
      <use xlink:href="#OpenSans-Bold-61" x="1542.382812"/>
      <use xlink:href="#OpenSans-Bold-72" x="1602.783203"/>
      <use xlink:href="#OpenSans-Bold-69" x="1648.193359"/>
      <use xlink:href="#OpenSans-Bold-6f" x="1678.710938"/>
      <use xlink:href="#OpenSans-Bold-73" x="1740.625"/>
      <use xlink:href="#OpenSans-Bold-20" x="1790.332031"/>
      <use xlink:href="#OpenSans-Bold-41" x="1816.308594"/>
      <use xlink:href="#OpenSans-Bold-4e" x="1885.302734"/>
      <use xlink:href="#OpenSans-Bold-49" x="1966.601562"/>
      <use xlink:href="#OpenSans-Bold-44" x="1999.707031"/>
     </g>
    </g>
   </g>
   <g id="patch_3">
    <path d="M 64.254559 260.980211 
L 68.233004 260.980211 
L 68.233004 258.913318 
L 64.254559 258.913318 
z
" clip-path="url(#pded754ed8f)" style="fill: #b0c4de"/>
   </g>
   <g id="patch_4">
    <path d="M 119.952794 260.980211 
L 123.931239 260.980211 
L 123.931239 258.79849 
L 119.952794 258.79849 
z
" clip-path="url(#pded754ed8f)" style="fill: #b0c4de"/>
   </g>
   <g id="patch_5">
    <path d="M 175.651029 260.980211 
L 179.629475 260.980211 
L 179.629475 252.253328 
L 175.651029 252.253328 
z
" clip-path="url(#pded754ed8f)" style="fill: #b0c4de"/>
   </g>
   <g id="patch_6">
    <path d="M 231.349265 260.980211 
L 235.32771 260.980211 
L 235.32771 259.602282 
L 231.349265 259.602282 
z
" clip-path="url(#pded754ed8f)" style="fill: #b0c4de"/>
   </g>
   <g id="patch_7">
    <path d="M 287.0475 260.980211 
L 291.025945 260.980211 
L 291.025945 254.664704 
L 287.0475 254.664704 
z
" clip-path="url(#pded754ed8f)" style="fill: #b0c4de"/>
   </g>
   <g id="patch_8">
    <path d="M 342.745735 260.980211 
L 346.724181 260.980211 
L 346.724181 220.446137 
L 342.745735 220.446137 
z
" clip-path="url(#pded754ed8f)" style="fill: #b0c4de"/>
   </g>
   <g id="patch_9">
    <path d="M 398.443971 260.980211 
L 402.422416 260.980211 
L 402.422416 57.39122 
L 398.443971 57.39122 
z
" clip-path="url(#pded754ed8f)" style="fill: #b0c4de"/>
   </g>
   <g id="patch_10">
    <path d="M 454.142206 260.980211 
L 458.120651 260.980211 
L 458.120651 258.454008 
L 454.142206 258.454008 
z
" clip-path="url(#pded754ed8f)" style="fill: #b0c4de"/>
   </g>
   <g id="patch_11">
    <path d="M 509.840441 260.980211 
L 513.818887 260.980211 
L 513.818887 249.841953 
L 509.840441 249.841953 
z
" clip-path="url(#pded754ed8f)" style="fill: #b0c4de"/>
   </g>
   <g id="patch_12">
    <path d="M 565.538676 260.980211 
L 569.517122 260.980211 
L 569.517122 260.980211 
L 565.538676 260.980211 
z
" clip-path="url(#pded754ed8f)" style="fill: #b0c4de"/>
   </g>
   <g id="patch_13">
    <path d="M 621.236912 260.980211 
L 625.215357 260.980211 
L 625.215357 215.393731 
L 621.236912 215.393731 
z
" clip-path="url(#pded754ed8f)" style="fill: #b0c4de"/>
   </g>
   <g id="patch_14">
    <path d="M 676.935147 260.980211 
L 680.913592 260.980211 
L 680.913592 240.770588 
L 676.935147 240.770588 
z
" clip-path="url(#pded754ed8f)" style="fill: #b0c4de"/>
   </g>
   <g id="patch_15">
    <path d="M 732.633382 260.980211 
L 736.611828 260.980211 
L 736.611828 246.741613 
L 732.633382 246.741613 
z
" clip-path="url(#pded754ed8f)" style="fill: #b0c4de"/>
   </g>
   <g id="patch_16">
    <path d="M 788.331618 260.980211 
L 792.310063 260.980211 
L 792.310063 253.975739 
L 788.331618 253.975739 
z
" clip-path="url(#pded754ed8f)" style="fill: #b0c4de"/>
   </g>
   <g id="patch_17">
    <path d="M 844.029853 260.980211 
L 848.008298 260.980211 
L 848.008298 260.520902 
L 844.029853 260.520902 
z
" clip-path="url(#pded754ed8f)" style="fill: #b0c4de"/>
   </g>
   <g id="patch_18">
    <path d="M 899.728088 260.980211 
L 903.706534 260.980211 
L 903.706534 259.372627 
L 899.728088 259.372627 
z
" clip-path="url(#pded754ed8f)" style="fill: #b0c4de"/>
   </g>
   <g id="patch_19">
    <path d="M 955.426324 260.980211 
L 959.404769 260.980211 
L 959.404769 260.980211 
L 955.426324 260.980211 
z
" clip-path="url(#pded754ed8f)" style="fill: #b0c4de"/>
   </g>
   <g id="patch_20">
    <path d="M 68.233004 260.980211 
L 72.21145 260.980211 
L 72.21145 257.765044 
L 68.233004 257.765044 
z
" clip-path="url(#pded754ed8f)" style="fill: #869cd4"/>
   </g>
   <g id="patch_21">
    <path d="M 123.931239 260.980211 
L 127.909685 260.980211 
L 127.909685 259.028145 
L 123.931239 259.028145 
z
" clip-path="url(#pded754ed8f)" style="fill: #869cd4"/>
   </g>
   <g id="patch_22">
    <path d="M 179.629475 260.980211 
L 183.60792 260.980211 
L 183.60792 251.908846 
L 179.629475 251.908846 
z
" clip-path="url(#pded754ed8f)" style="fill: #869cd4"/>
   </g>
   <g id="patch_23">
    <path d="M 235.32771 260.980211 
L 239.306155 260.980211 
L 239.306155 259.372627 
L 235.32771 259.372627 
z
" clip-path="url(#pded754ed8f)" style="fill: #869cd4"/>
   </g>
   <g id="patch_24">
    <path d="M 291.025945 260.980211 
L 295.004391 260.980211 
L 295.004391 254.435049 
L 291.025945 254.435049 
z
" clip-path="url(#pded754ed8f)" style="fill: #869cd4"/>
   </g>
   <g id="patch_25">
    <path d="M 346.724181 260.980211 
L 350.702626 260.980211 
L 350.702626 212.408218 
L 346.724181 212.408218 
z
" clip-path="url(#pded754ed8f)" style="fill: #869cd4"/>
   </g>
   <g id="patch_26">
    <path d="M 402.422416 260.980211 
L 406.400861 260.980211 
L 406.400861 40.626419 
L 402.422416 40.626419 
z
" clip-path="url(#pded754ed8f)" style="fill: #869cd4"/>
   </g>
   <g id="patch_27">
    <path d="M 458.120651 260.980211 
L 462.099097 260.980211 
L 462.099097 257.650216 
L 458.120651 257.650216 
z
" clip-path="url(#pded754ed8f)" style="fill: #869cd4"/>
   </g>
   <g id="patch_28">
    <path d="M 513.818887 260.980211 
L 517.797332 260.980211 
L 517.797332 248.234369 
L 513.818887 248.234369 
z
" clip-path="url(#pded754ed8f)" style="fill: #869cd4"/>
   </g>
   <g id="patch_29">
    <path d="M 569.517122 260.980211 
L 573.495567 260.980211 
L 573.495567 260.980211 
L 569.517122 260.980211 
z
" clip-path="url(#pded754ed8f)" style="fill: #869cd4"/>
   </g>
   <g id="patch_30">
    <path d="M 625.215357 260.980211 
L 629.193803 260.980211 
L 629.193803 208.618914 
L 625.215357 208.618914 
z
" clip-path="url(#pded754ed8f)" style="fill: #869cd4"/>
   </g>
   <g id="patch_31">
    <path d="M 680.913592 260.980211 
L 684.892038 260.980211 
L 684.892038 242.607826 
L 680.913592 242.607826 
z
" clip-path="url(#pded754ed8f)" style="fill: #869cd4"/>
   </g>
   <g id="patch_32">
    <path d="M 736.611828 260.980211 
L 740.590273 260.980211 
L 740.590273 246.511958 
L 736.611828 246.511958 
z
" clip-path="url(#pded754ed8f)" style="fill: #869cd4"/>
   </g>
   <g id="patch_33">
    <path d="M 792.310063 260.980211 
L 796.288508 260.980211 
L 796.288508 255.812978 
L 792.310063 255.812978 
z
" clip-path="url(#pded754ed8f)" style="fill: #869cd4"/>
   </g>
   <g id="patch_34">
    <path d="M 848.008298 260.980211 
L 851.986744 260.980211 
L 851.986744 259.946764 
L 848.008298 259.946764 
z
" clip-path="url(#pded754ed8f)" style="fill: #869cd4"/>
   </g>
   <g id="patch_35">
    <path d="M 903.706534 260.980211 
L 907.684979 260.980211 
L 907.684979 258.913318 
L 903.706534 258.913318 
z
" clip-path="url(#pded754ed8f)" style="fill: #869cd4"/>
   </g>
   <g id="patch_36">
    <path d="M 959.404769 260.980211 
L 963.383214 260.980211 
L 963.383214 260.980211 
L 959.404769 260.980211 
z
" clip-path="url(#pded754ed8f)" style="fill: #869cd4"/>
   </g>
   <g id="patch_37">
    <path d="M 72.21145 260.980211 
L 76.189895 260.980211 
L 76.189895 258.339181 
L 72.21145 258.339181 
z
" clip-path="url(#pded754ed8f)" style="fill: #4969be"/>
   </g>
   <g id="patch_38">
    <path d="M 127.909685 260.980211 
L 131.88813 260.980211 
L 131.88813 259.142973 
L 127.909685 259.142973 
z
" clip-path="url(#pded754ed8f)" style="fill: #4969be"/>
   </g>
   <g id="patch_39">
    <path d="M 183.60792 260.980211 
L 187.586366 260.980211 
L 187.586366 250.990227 
L 183.60792 250.990227 
z
" clip-path="url(#pded754ed8f)" style="fill: #4969be"/>
   </g>
   <g id="patch_40">
    <path d="M 239.306155 260.980211 
L 243.284601 260.980211 
L 243.284601 260.061592 
L 239.306155 260.061592 
z
" clip-path="url(#pded754ed8f)" style="fill: #4969be"/>
   </g>
   <g id="patch_41">
    <path d="M 295.004391 260.980211 
L 298.982836 260.980211 
L 298.982836 255.238841 
L 295.004391 255.238841 
z
" clip-path="url(#pded754ed8f)" style="fill: #4969be"/>
   </g>
   <g id="patch_42">
    <path d="M 350.702626 260.980211 
L 354.681071 260.980211 
L 354.681071 206.781675 
L 350.702626 206.781675 
z
" clip-path="url(#pded754ed8f)" style="fill: #4969be"/>
   </g>
   <g id="patch_43">
    <path d="M 406.400861 260.980211 
L 410.379307 260.980211 
L 410.379307 22.713343 
L 406.400861 22.713343 
z
" clip-path="url(#pded754ed8f)" style="fill: #4969be"/>
   </g>
   <g id="patch_44">
    <path d="M 462.099097 260.980211 
L 466.077542 260.980211 
L 466.077542 257.535389 
L 462.099097 257.535389 
z
" clip-path="url(#pded754ed8f)" style="fill: #4969be"/>
   </g>
   <g id="patch_45">
    <path d="M 517.797332 260.980211 
L 521.775777 260.980211 
L 521.775777 246.626785 
L 517.797332 246.626785 
z
" clip-path="url(#pded754ed8f)" style="fill: #4969be"/>
   </g>
   <g id="patch_46">
    <path d="M 573.495567 260.980211 
L 577.474013 260.980211 
L 577.474013 260.980211 
L 573.495567 260.980211 
z
" clip-path="url(#pded754ed8f)" style="fill: #4969be"/>
   </g>
   <g id="patch_47">
    <path d="M 629.193803 260.980211 
L 633.172248 260.980211 
L 633.172248 210.11167 
L 629.193803 210.11167 
z
" clip-path="url(#pded754ed8f)" style="fill: #4969be"/>
   </g>
   <g id="patch_48">
    <path d="M 684.892038 260.980211 
L 688.870483 260.980211 
L 688.870483 239.851968 
L 684.892038 239.851968 
z
" clip-path="url(#pded754ed8f)" style="fill: #4969be"/>
   </g>
   <g id="patch_49">
    <path d="M 740.590273 260.980211 
L 744.568718 260.980211 
L 744.568718 247.660232 
L 740.590273 247.660232 
z
" clip-path="url(#pded754ed8f)" style="fill: #4969be"/>
   </g>
   <g id="patch_50">
    <path d="M 796.288508 260.980211 
L 800.266954 260.980211 
L 800.266954 251.449536 
L 796.288508 251.449536 
z
" clip-path="url(#pded754ed8f)" style="fill: #4969be"/>
   </g>
   <g id="patch_51">
    <path d="M 851.986744 260.980211 
L 855.965189 260.980211 
L 855.965189 259.831937 
L 851.986744 259.831937 
z
" clip-path="url(#pded754ed8f)" style="fill: #4969be"/>
   </g>
   <g id="patch_52">
    <path d="M 907.684979 260.980211 
L 911.663424 260.980211 
L 911.663424 257.879871 
L 907.684979 257.879871 
z
" clip-path="url(#pded754ed8f)" style="fill: #4969be"/>
   </g>
   <g id="patch_53">
    <path d="M 963.383214 260.980211 
L 967.36166 260.980211 
L 967.36166 260.980211 
L 963.383214 260.980211 
z
" clip-path="url(#pded754ed8f)" style="fill: #4969be"/>
   </g>
   <g id="patch_54">
    <path d="M 76.189895 260.980211 
L 80.16834 260.980211 
L 80.16834 257.765044 
L 76.189895 257.765044 
z
" clip-path="url(#pded754ed8f)" style="fill: #4062bb"/>
   </g>
   <g id="patch_55">
    <path d="M 131.88813 260.980211 
L 135.866576 260.980211 
L 135.866576 257.420562 
L 131.88813 257.420562 
z
" clip-path="url(#pded754ed8f)" style="fill: #4062bb"/>
   </g>
   <g id="patch_56">
    <path d="M 187.586366 260.980211 
L 191.564811 260.980211 
L 191.564811 251.679191 
L 187.586366 251.679191 
z
" clip-path="url(#pded754ed8f)" style="fill: #4062bb"/>
   </g>
   <g id="patch_57">
    <path d="M 243.284601 260.980211 
L 247.263046 260.980211 
L 247.263046 259.602282 
L 243.284601 259.602282 
z
" clip-path="url(#pded754ed8f)" style="fill: #4062bb"/>
   </g>
   <g id="patch_58">
    <path d="M 298.982836 260.980211 
L 302.961282 260.980211 
L 302.961282 254.205394 
L 298.982836 254.205394 
z
" clip-path="url(#pded754ed8f)" style="fill: #4062bb"/>
   </g>
   <g id="patch_59">
    <path d="M 354.681071 260.980211 
L 358.659517 260.980211 
L 358.659517 206.666848 
L 354.681071 206.666848 
z
" clip-path="url(#pded754ed8f)" style="fill: #4062bb"/>
   </g>
   <g id="patch_60">
    <path d="M 410.379307 260.980211 
L 414.357752 260.980211 
L 414.357752 36.837114 
L 410.379307 36.837114 
z
" clip-path="url(#pded754ed8f)" style="fill: #4062bb"/>
   </g>
   <g id="patch_61">
    <path d="M 466.077542 260.980211 
L 470.055987 260.980211 
L 470.055987 254.779531 
L 466.077542 254.779531 
z
" clip-path="url(#pded754ed8f)" style="fill: #4062bb"/>
   </g>
   <g id="patch_62">
    <path d="M 521.775777 260.980211 
L 525.754223 260.980211 
L 525.754223 244.559892 
L 521.775777 244.559892 
z
" clip-path="url(#pded754ed8f)" style="fill: #4062bb"/>
   </g>
   <g id="patch_63">
    <path d="M 577.474013 260.980211 
L 581.452458 260.980211 
L 581.452458 260.750556 
L 577.474013 260.750556 
z
" clip-path="url(#pded754ed8f)" style="fill: #4062bb"/>
   </g>
   <g id="patch_64">
    <path d="M 633.172248 260.980211 
L 637.150693 260.980211 
L 637.150693 209.652361 
L 633.172248 209.652361 
z
" clip-path="url(#pded754ed8f)" style="fill: #4062bb"/>
   </g>
   <g id="patch_65">
    <path d="M 688.870483 260.980211 
L 692.848929 260.980211 
L 692.848929 240.65576 
L 688.870483 240.65576 
z
" clip-path="url(#pded754ed8f)" style="fill: #4062bb"/>
   </g>
   <g id="patch_66">
    <path d="M 744.568718 260.980211 
L 748.547164 260.980211 
L 748.547164 247.889887 
L 744.568718 247.889887 
z
" clip-path="url(#pded754ed8f)" style="fill: #4062bb"/>
   </g>
   <g id="patch_67">
    <path d="M 800.266954 260.980211 
L 804.245399 260.980211 
L 804.245399 252.942293 
L 800.266954 252.942293 
z
" clip-path="url(#pded754ed8f)" style="fill: #4062bb"/>
   </g>
   <g id="patch_68">
    <path d="M 855.965189 260.980211 
L 859.943634 260.980211 
L 859.943634 259.946764 
L 855.965189 259.946764 
z
" clip-path="url(#pded754ed8f)" style="fill: #4062bb"/>
   </g>
   <g id="patch_69">
    <path d="M 911.663424 260.980211 
L 915.64187 260.980211 
L 915.64187 257.765044 
L 911.663424 257.765044 
z
" clip-path="url(#pded754ed8f)" style="fill: #4062bb"/>
   </g>
   <g id="patch_70">
    <path d="M 967.36166 260.980211 
L 971.340105 260.980211 
L 971.340105 253.975739 
L 967.36166 253.975739 
z
" clip-path="url(#pded754ed8f)" style="fill: #4062bb"/>
   </g>
   <g id="patch_71">
    <path d="M 80.16834 260.980211 
L 84.146786 260.980211 
L 84.146786 258.454008 
L 80.16834 258.454008 
z
" clip-path="url(#pded754ed8f)" style="fill: #354f95"/>
   </g>
   <g id="patch_72">
    <path d="M 135.866576 260.980211 
L 139.845021 260.980211 
L 139.845021 258.79849 
L 135.866576 258.79849 
z
" clip-path="url(#pded754ed8f)" style="fill: #354f95"/>
   </g>
   <g id="patch_73">
    <path d="M 191.564811 260.980211 
L 195.543256 260.980211 
L 195.543256 253.05712 
L 191.564811 253.05712 
z
" clip-path="url(#pded754ed8f)" style="fill: #354f95"/>
   </g>
   <g id="patch_74">
    <path d="M 247.263046 260.980211 
L 251.241492 260.980211 
L 251.241492 259.487455 
L 247.263046 259.487455 
z
" clip-path="url(#pded754ed8f)" style="fill: #354f95"/>
   </g>
   <g id="patch_75">
    <path d="M 302.961282 260.980211 
L 306.939727 260.980211 
L 306.939727 256.15746 
L 302.961282 256.15746 
z
" clip-path="url(#pded754ed8f)" style="fill: #354f95"/>
   </g>
   <g id="patch_76">
    <path d="M 358.659517 260.980211 
L 362.637962 260.980211 
L 362.637962 211.719254 
L 358.659517 211.719254 
z
" clip-path="url(#pded754ed8f)" style="fill: #354f95"/>
   </g>
   <g id="patch_77">
    <path d="M 414.357752 260.980211 
L 418.336197 260.980211 
L 418.336197 50.386748 
L 414.357752 50.386748 
z
" clip-path="url(#pded754ed8f)" style="fill: #354f95"/>
   </g>
   <g id="patch_78">
    <path d="M 470.055987 260.980211 
L 474.034433 260.980211 
L 474.034433 256.272287 
L 470.055987 256.272287 
z
" clip-path="url(#pded754ed8f)" style="fill: #354f95"/>
   </g>
   <g id="patch_79">
    <path d="M 525.754223 260.980211 
L 529.732668 260.980211 
L 529.732668 249.152988 
L 525.754223 249.152988 
z
" clip-path="url(#pded754ed8f)" style="fill: #354f95"/>
   </g>
   <g id="patch_80">
    <path d="M 581.452458 260.980211 
L 585.430903 260.980211 
L 585.430903 260.061592 
L 581.452458 260.061592 
z
" clip-path="url(#pded754ed8f)" style="fill: #354f95"/>
   </g>
   <g id="patch_81">
    <path d="M 637.150693 260.980211 
L 641.129139 260.980211 
L 641.129139 214.934421 
L 637.150693 214.934421 
z
" clip-path="url(#pded754ed8f)" style="fill: #354f95"/>
   </g>
   <g id="patch_82">
    <path d="M 692.848929 260.980211 
L 696.827374 260.980211 
L 696.827374 242.952308 
L 692.848929 242.952308 
z
" clip-path="url(#pded754ed8f)" style="fill: #354f95"/>
   </g>
   <g id="patch_83">
    <path d="M 748.547164 260.980211 
L 752.525609 260.980211 
L 752.525609 248.119542 
L 748.547164 248.119542 
z
" clip-path="url(#pded754ed8f)" style="fill: #354f95"/>
   </g>
   <g id="patch_84">
    <path d="M 804.245399 260.980211 
L 808.223845 260.980211 
L 808.223845 255.353668 
L 804.245399 255.353668 
z
" clip-path="url(#pded754ed8f)" style="fill: #354f95"/>
   </g>
   <g id="patch_85">
    <path d="M 859.943634 260.980211 
L 863.92208 260.980211 
L 863.92208 260.061592 
L 859.943634 260.061592 
z
" clip-path="url(#pded754ed8f)" style="fill: #354f95"/>
   </g>
   <g id="patch_86">
    <path d="M 915.64187 260.980211 
L 919.620315 260.980211 
L 919.620315 259.028145 
L 915.64187 259.028145 
z
" clip-path="url(#pded754ed8f)" style="fill: #354f95"/>
   </g>
   <g id="patch_87">
    <path d="M 971.340105 260.980211 
L 975.31855 260.980211 
L 975.31855 258.339181 
L 971.340105 258.339181 
z
" clip-path="url(#pded754ed8f)" style="fill: #354f95"/>
   </g>
   <g id="patch_88">
    <path d="M 84.146786 260.980211 
L 88.125231 260.980211 
L 88.125231 257.420562 
L 84.146786 257.420562 
z
" clip-path="url(#pded754ed8f)" style="fill: #2d4175"/>
   </g>
   <g id="patch_89">
    <path d="M 139.845021 260.980211 
L 143.823466 260.980211 
L 143.823466 259.2578 
L 139.845021 259.2578 
z
" clip-path="url(#pded754ed8f)" style="fill: #2d4175"/>
   </g>
   <g id="patch_90">
    <path d="M 195.543256 260.980211 
L 199.521702 260.980211 
L 199.521702 254.894359 
L 195.543256 254.894359 
z
" clip-path="url(#pded754ed8f)" style="fill: #2d4175"/>
   </g>
   <g id="patch_91">
    <path d="M 251.241492 260.980211 
L 255.219937 260.980211 
L 255.219937 259.946764 
L 251.241492 259.946764 
z
" clip-path="url(#pded754ed8f)" style="fill: #2d4175"/>
   </g>
   <g id="patch_92">
    <path d="M 306.939727 260.980211 
L 310.918172 260.980211 
L 310.918172 257.305734 
L 306.939727 257.305734 
z
" clip-path="url(#pded754ed8f)" style="fill: #2d4175"/>
   </g>
   <g id="patch_93">
    <path d="M 362.637962 260.980211 
L 366.616408 260.980211 
L 366.616408 224.694751 
L 362.637962 224.694751 
z
" clip-path="url(#pded754ed8f)" style="fill: #2d4175"/>
   </g>
   <g id="patch_94">
    <path d="M 418.336197 260.980211 
L 422.314643 260.980211 
L 422.314643 94.021163 
L 418.336197 94.021163 
z
" clip-path="url(#pded754ed8f)" style="fill: #2d4175"/>
   </g>
   <g id="patch_95">
    <path d="M 474.034433 260.980211 
L 478.012878 260.980211 
L 478.012878 256.387115 
L 474.034433 256.387115 
z
" clip-path="url(#pded754ed8f)" style="fill: #2d4175"/>
   </g>
   <g id="patch_96">
    <path d="M 529.732668 260.980211 
L 533.711113 260.980211 
L 533.711113 250.645745 
L 529.732668 250.645745 
z
" clip-path="url(#pded754ed8f)" style="fill: #2d4175"/>
   </g>
   <g id="patch_97">
    <path d="M 585.430903 260.980211 
L 589.409349 260.980211 
L 589.409349 259.028145 
L 585.430903 259.028145 
z
" clip-path="url(#pded754ed8f)" style="fill: #2d4175"/>
   </g>
   <g id="patch_98">
    <path d="M 641.129139 260.980211 
L 645.107584 260.980211 
L 645.107584 223.316822 
L 641.129139 223.316822 
z
" clip-path="url(#pded754ed8f)" style="fill: #2d4175"/>
   </g>
   <g id="patch_99">
    <path d="M 696.827374 260.980211 
L 700.805819 260.980211 
L 700.805819 241.574379 
L 696.827374 241.574379 
z
" clip-path="url(#pded754ed8f)" style="fill: #2d4175"/>
   </g>
   <g id="patch_100">
    <path d="M 752.525609 260.980211 
L 756.504055 260.980211 
L 756.504055 250.41609 
L 752.525609 250.41609 
z
" clip-path="url(#pded754ed8f)" style="fill: #2d4175"/>
   </g>
   <g id="patch_101">
    <path d="M 808.223845 260.980211 
L 812.20229 260.980211 
L 812.20229 257.765044 
L 808.223845 257.765044 
z
" clip-path="url(#pded754ed8f)" style="fill: #2d4175"/>
   </g>
   <g id="patch_102">
    <path d="M 863.92208 260.980211 
L 867.900525 260.980211 
L 867.900525 260.061592 
L 863.92208 260.061592 
z
" clip-path="url(#pded754ed8f)" style="fill: #2d4175"/>
   </g>
   <g id="patch_103">
    <path d="M 919.620315 260.980211 
L 923.598761 260.980211 
L 923.598761 257.879871 
L 919.620315 257.879871 
z
" clip-path="url(#pded754ed8f)" style="fill: #2d4175"/>
   </g>
   <g id="patch_104">
    <path d="M 975.31855 260.980211 
L 979.296996 260.980211 
L 979.296996 258.109526 
L 975.31855 258.109526 
z
" clip-path="url(#pded754ed8f)" style="fill: #2d4175"/>
   </g>
   <g id="patch_105">
    <path d="M 88.125231 260.980211 
L 92.103676 260.980211 
L 92.103676 258.568836 
L 88.125231 258.568836 
z
" clip-path="url(#pded754ed8f)" style="fill: #27355a"/>
   </g>
   <g id="patch_106">
    <path d="M 143.823466 260.980211 
L 147.801912 260.980211 
L 147.801912 259.71711 
L 143.823466 259.71711 
z
" clip-path="url(#pded754ed8f)" style="fill: #27355a"/>
   </g>
   <g id="patch_107">
    <path d="M 199.521702 260.980211 
L 203.500147 260.980211 
L 203.500147 254.664704 
L 199.521702 254.664704 
z
" clip-path="url(#pded754ed8f)" style="fill: #27355a"/>
   </g>
   <g id="patch_108">
    <path d="M 255.219937 260.980211 
L 259.198382 260.980211 
L 259.198382 259.71711 
L 255.219937 259.71711 
z
" clip-path="url(#pded754ed8f)" style="fill: #27355a"/>
   </g>
   <g id="patch_109">
    <path d="M 310.918172 260.980211 
L 314.896618 260.980211 
L 314.896618 257.765044 
L 310.918172 257.765044 
z
" clip-path="url(#pded754ed8f)" style="fill: #27355a"/>
   </g>
   <g id="patch_110">
    <path d="M 366.616408 260.980211 
L 370.594853 260.980211 
L 370.594853 238.933349 
L 366.616408 238.933349 
z
" clip-path="url(#pded754ed8f)" style="fill: #27355a"/>
   </g>
   <g id="patch_111">
    <path d="M 422.314643 260.980211 
L 426.293088 260.980211 
L 426.293088 159.702439 
L 422.314643 159.702439 
z
" clip-path="url(#pded754ed8f)" style="fill: #27355a"/>
   </g>
   <g id="patch_112">
    <path d="M 478.012878 260.980211 
L 481.991324 260.980211 
L 481.991324 259.028145 
L 478.012878 259.028145 
z
" clip-path="url(#pded754ed8f)" style="fill: #27355a"/>
   </g>
   <g id="patch_113">
    <path d="M 533.711113 260.980211 
L 537.689559 260.980211 
L 537.689559 254.320222 
L 533.711113 254.320222 
z
" clip-path="url(#pded754ed8f)" style="fill: #27355a"/>
   </g>
   <g id="patch_114">
    <path d="M 589.409349 260.980211 
L 593.387794 260.980211 
L 593.387794 260.750556 
L 589.409349 260.750556 
z
" clip-path="url(#pded754ed8f)" style="fill: #27355a"/>
   </g>
   <g id="patch_115">
    <path d="M 645.107584 260.980211 
L 649.086029 260.980211 
L 649.086029 241.459552 
L 645.107584 241.459552 
z
" clip-path="url(#pded754ed8f)" style="fill: #27355a"/>
   </g>
   <g id="patch_116">
    <path d="M 700.805819 260.980211 
L 704.784265 260.980211 
L 704.784265 250.41609 
L 700.805819 250.41609 
z
" clip-path="url(#pded754ed8f)" style="fill: #27355a"/>
   </g>
   <g id="patch_117">
    <path d="M 756.504055 260.980211 
L 760.4825 260.980211 
L 760.4825 253.746085 
L 756.504055 253.746085 
z
" clip-path="url(#pded754ed8f)" style="fill: #27355a"/>
   </g>
   <g id="patch_118">
    <path d="M 812.20229 260.980211 
L 816.180735 260.980211 
L 816.180735 258.224353 
L 812.20229 258.224353 
z
" clip-path="url(#pded754ed8f)" style="fill: #27355a"/>
   </g>
   <g id="patch_119">
    <path d="M 867.900525 260.980211 
L 871.878971 260.980211 
L 871.878971 260.520902 
L 867.900525 260.520902 
z
" clip-path="url(#pded754ed8f)" style="fill: #27355a"/>
   </g>
   <g id="patch_120">
    <path d="M 923.598761 260.980211 
L 927.577206 260.980211 
L 927.577206 259.487455 
L 923.598761 259.487455 
z
" clip-path="url(#pded754ed8f)" style="fill: #27355a"/>
   </g>
   <g id="patch_121">
    <path d="M 979.296996 260.980211 
L 983.275441 260.980211 
L 983.275441 260.980211 
L 979.296996 260.980211 
z
" clip-path="url(#pded754ed8f)" style="fill: #27355a"/>
   </g>
   <g id="patch_122">
    <path d="M 50.33 260.980211 
L 50.33 10.8 
" style="fill: none; stroke: #000000; stroke-width: 0.8; stroke-linejoin: miter; stroke-linecap: square"/>
   </g>
   <g id="patch_123">
    <path d="M 50.33 260.980211 
L 997.2 260.980211 
" style="fill: none; stroke: #000000; stroke-width: 0.8; stroke-linejoin: miter; stroke-linecap: square"/>
   </g>
   <g id="legend_1">
    <g id="patch_124">
     <path d="M 935.33125 138.8125 
L 990.2 138.8125 
Q 992.2 138.8125 992.2 136.8125 
L 992.2 17.8 
Q 992.2 15.8 990.2 15.8 
L 935.33125 15.8 
Q 933.33125 15.8 933.33125 17.8 
L 933.33125 136.8125 
Q 933.33125 138.8125 935.33125 138.8125 
z
" style="fill: #ffffff; opacity: 0.8; stroke: #cccccc; stroke-linejoin: miter"/>
    </g>
    <g id="text_29">
     <!-- Año -->
     <g style="fill: #37539c" transform="translate(952.933594 27.398438) scale(0.1 -0.1)">
      <defs>
       <path id="OpenSans-Bold-f1" d="M 2484 3559 
Q 3044 3559 3384 3254 
Q 3725 2950 3725 2278 
L 3725 0 
L 2772 0 
L 2772 2041 
Q 2772 2416 2636 2606 
Q 2500 2797 2209 2797 
Q 1772 2797 1612 2500 
Q 1453 2203 1453 1644 
L 1453 0 
L 500 0 
L 500 3494 
L 1228 3494 
L 1356 3047 
L 1409 3047 
Q 1522 3228 1689 3340 
Q 1856 3453 2061 3506 
Q 2266 3559 2484 3559 
z
M 808 3872 
Q 827 4122 899 4305 
Q 971 4488 1086 4605 
Q 1202 4722 1347 4780 
Q 1493 4838 1658 4838 
Q 1786 4838 1909 4789 
Q 2033 4741 2153 4675 
Q 2274 4609 2391 4561 
Q 2508 4513 2621 4513 
Q 2715 4513 2804 4595 
Q 2893 4678 2933 4844 
L 3399 4844 
Q 3361 4350 3117 4114 
Q 2874 3878 2549 3878 
Q 2421 3878 2297 3928 
Q 2174 3978 2053 4042 
Q 1933 4106 1817 4156 
Q 1702 4206 1590 4206 
Q 1493 4206 1404 4123 
Q 1315 4041 1274 3872 
L 808 3872 
z
" transform="scale(0.015625)"/>
      </defs>
      <use xlink:href="#OpenSans-Bold-41"/>
      <use xlink:href="#OpenSans-Bold-f1" x="68.994141"/>
      <use xlink:href="#OpenSans-Bold-6f" x="134.716797"/>
     </g>
    </g>
    <g id="patch_125">
     <path d="M 937.33125 42.4 
L 957.33125 42.4 
L 957.33125 35.4 
L 937.33125 35.4 
z
" style="fill: #b0c4de"/>
    </g>
    <g id="text_30">
     <!-- 2015 -->
     <g style="fill: #37539c" transform="translate(965.33125 42.4) scale(0.1 -0.1)">
      <use xlink:href="#OpenSans-Bold-32"/>
      <use xlink:href="#OpenSans-Bold-30" x="57.177734"/>
      <use xlink:href="#OpenSans-Bold-31" x="114.355469"/>
      <use xlink:href="#OpenSans-Bold-35" x="171.533203"/>
     </g>
    </g>
    <g id="patch_126">
     <path d="M 937.33125 57.401562 
L 957.33125 57.401562 
L 957.33125 50.401562 
L 937.33125 50.401562 
z
" style="fill: #869cd4"/>
    </g>
    <g id="text_31">
     <!-- 2016 -->
     <g style="fill: #37539c" transform="translate(965.33125 57.401562) scale(0.1 -0.1)">
      <defs>
       <path id="OpenSans-Bold-36" d="M 225 1941 
Q 225 2334 283 2720 
Q 341 3106 484 3448 
Q 628 3791 887 4055 
Q 1147 4319 1547 4470 
Q 1947 4622 2516 4622 
Q 2650 4622 2829 4611 
Q 3009 4600 3128 4575 
L 3128 3803 
Q 3003 3831 2861 3848 
Q 2719 3866 2578 3866 
Q 2009 3866 1698 3684 
Q 1388 3503 1261 3183 
Q 1134 2863 1113 2438 
L 1153 2438 
Q 1241 2591 1373 2709 
Q 1506 2828 1697 2898 
Q 1888 2969 2144 2969 
Q 2544 2969 2837 2798 
Q 3131 2628 3290 2306 
Q 3450 1984 3450 1522 
Q 3450 1028 3259 672 
Q 3069 316 2720 126 
Q 2372 -63 1894 -63 
Q 1544 -63 1241 57 
Q 938 178 709 425 
Q 481 672 353 1048 
Q 225 1425 225 1941 
z
M 1875 709 
Q 2159 709 2337 903 
Q 2516 1097 2516 1509 
Q 2516 1844 2361 2036 
Q 2206 2228 1894 2228 
Q 1681 2228 1520 2133 
Q 1359 2038 1271 1892 
Q 1184 1747 1184 1594 
Q 1184 1434 1228 1278 
Q 1272 1122 1359 994 
Q 1447 866 1576 787 
Q 1706 709 1875 709 
z
" transform="scale(0.015625)"/>
      </defs>
      <use xlink:href="#OpenSans-Bold-32"/>
      <use xlink:href="#OpenSans-Bold-30" x="57.177734"/>
      <use xlink:href="#OpenSans-Bold-31" x="114.355469"/>
      <use xlink:href="#OpenSans-Bold-36" x="171.533203"/>
     </g>
    </g>
    <g id="patch_127">
     <path d="M 937.33125 72.403125 
L 957.33125 72.403125 
L 957.33125 65.403125 
L 937.33125 65.403125 
z
" style="fill: #4969be"/>
    </g>
    <g id="text_32">
     <!-- 2017 -->
     <g style="fill: #37539c" transform="translate(965.33125 72.403125) scale(0.1 -0.1)">
      <use xlink:href="#OpenSans-Bold-32"/>
      <use xlink:href="#OpenSans-Bold-30" x="57.177734"/>
      <use xlink:href="#OpenSans-Bold-31" x="114.355469"/>
      <use xlink:href="#OpenSans-Bold-37" x="171.533203"/>
     </g>
    </g>
    <g id="patch_128">
     <path d="M 937.33125 87.404687 
L 957.33125 87.404687 
L 957.33125 80.404687 
L 937.33125 80.404687 
z
" style="fill: #4062bb"/>
    </g>
    <g id="text_33">
     <!-- 2018 -->
     <g style="fill: #37539c" transform="translate(965.33125 87.404687) scale(0.1 -0.1)">
      <defs>
       <path id="OpenSans-Bold-38" d="M 1831 4628 
Q 2225 4628 2558 4506 
Q 2891 4384 3091 4139 
Q 3291 3894 3291 3525 
Q 3291 3250 3183 3044 
Q 3075 2838 2890 2683 
Q 2706 2528 2472 2413 
Q 2716 2284 2934 2114 
Q 3153 1944 3292 1716 
Q 3431 1488 3431 1184 
Q 3431 803 3228 523 
Q 3025 244 2665 90 
Q 2306 -63 1831 -63 
Q 1319 -63 959 84 
Q 600 231 412 504 
Q 225 778 225 1159 
Q 225 1472 342 1703 
Q 459 1934 659 2101 
Q 859 2269 1100 2388 
Q 897 2516 730 2678 
Q 563 2841 464 3050 
Q 366 3259 366 3531 
Q 366 3894 570 4137 
Q 775 4381 1109 4504 
Q 1444 4628 1831 4628 
z
M 1119 1216 
Q 1119 969 1295 808 
Q 1472 647 1819 647 
Q 2178 647 2356 801 
Q 2534 956 2534 1209 
Q 2534 1384 2432 1515 
Q 2331 1647 2178 1751 
Q 2025 1856 1869 1947 
L 1784 1991 
Q 1584 1900 1436 1787 
Q 1288 1675 1203 1534 
Q 1119 1394 1119 1216 
z
M 1825 3922 
Q 1588 3922 1431 3800 
Q 1275 3678 1275 3456 
Q 1275 3300 1351 3183 
Q 1428 3066 1554 2978 
Q 1681 2891 1831 2816 
Q 1975 2884 2100 2968 
Q 2225 3053 2303 3172 
Q 2381 3291 2381 3456 
Q 2381 3678 2223 3800 
Q 2066 3922 1825 3922 
z
" transform="scale(0.015625)"/>
      </defs>
      <use xlink:href="#OpenSans-Bold-32"/>
      <use xlink:href="#OpenSans-Bold-30" x="57.177734"/>
      <use xlink:href="#OpenSans-Bold-31" x="114.355469"/>
      <use xlink:href="#OpenSans-Bold-38" x="171.533203"/>
     </g>
    </g>
    <g id="patch_129">
     <path d="M 937.33125 102.40625 
L 957.33125 102.40625 
L 957.33125 95.40625 
L 937.33125 95.40625 
z
" style="fill: #354f95"/>
    </g>
    <g id="text_34">
     <!-- 2019 -->
     <g style="fill: #37539c" transform="translate(965.33125 102.40625) scale(0.1 -0.1)">
      <defs>
       <path id="OpenSans-Bold-39" d="M 3431 2619 
Q 3431 2225 3373 1837 
Q 3316 1450 3172 1108 
Q 3028 766 2768 502 
Q 2509 238 2109 87 
Q 1709 -63 1141 -63 
Q 1006 -63 825 -52 
Q 644 -41 525 -19 
L 525 756 
Q 650 725 790 708 
Q 931 691 1075 691 
Q 1647 691 1958 872 
Q 2269 1053 2395 1375 
Q 2522 1697 2541 2119 
L 2503 2119 
Q 2413 1969 2289 1848 
Q 2166 1728 1975 1658 
Q 1784 1588 1491 1588 
Q 1100 1588 811 1758 
Q 522 1928 364 2251 
Q 206 2575 206 3034 
Q 206 3531 395 3886 
Q 584 4241 934 4431 
Q 1284 4622 1759 4622 
Q 2109 4622 2412 4501 
Q 2716 4381 2945 4134 
Q 3175 3888 3303 3509 
Q 3431 3131 3431 2619 
z
M 1778 3847 
Q 1497 3847 1319 3653 
Q 1141 3459 1141 3047 
Q 1141 2716 1294 2522 
Q 1447 2328 1759 2328 
Q 1975 2328 2134 2423 
Q 2294 2519 2383 2664 
Q 2472 2809 2472 2963 
Q 2472 3122 2428 3278 
Q 2384 3434 2296 3562 
Q 2209 3691 2079 3769 
Q 1950 3847 1778 3847 
z
" transform="scale(0.015625)"/>
      </defs>
      <use xlink:href="#OpenSans-Bold-32"/>
      <use xlink:href="#OpenSans-Bold-30" x="57.177734"/>
      <use xlink:href="#OpenSans-Bold-31" x="114.355469"/>
      <use xlink:href="#OpenSans-Bold-39" x="171.533203"/>
     </g>
    </g>
    <g id="patch_130">
     <path d="M 937.33125 117.407812 
L 957.33125 117.407812 
L 957.33125 110.407812 
L 937.33125 110.407812 
z
" style="fill: #2d4175"/>
    </g>
    <g id="text_35">
     <!-- 2020 -->
     <g style="fill: #37539c" transform="translate(965.33125 117.407812) scale(0.1 -0.1)">
      <use xlink:href="#OpenSans-Bold-32"/>
      <use xlink:href="#OpenSans-Bold-30" x="57.177734"/>
      <use xlink:href="#OpenSans-Bold-32" x="114.355469"/>
      <use xlink:href="#OpenSans-Bold-30" x="171.533203"/>
     </g>
    </g>
    <g id="patch_131">
     <path d="M 937.33125 132.409375 
L 957.33125 132.409375 
L 957.33125 125.409375 
L 937.33125 125.409375 
z
" style="fill: #27355a"/>
    </g>
    <g id="text_36">
     <!-- 2021 -->
     <g style="fill: #37539c" transform="translate(965.33125 132.409375) scale(0.1 -0.1)">
      <use xlink:href="#OpenSans-Bold-32"/>
      <use xlink:href="#OpenSans-Bold-30" x="57.177734"/>
      <use xlink:href="#OpenSans-Bold-32" x="114.355469"/>
      <use xlink:href="#OpenSans-Bold-31" x="171.533203"/>
     </g>
    </g>
   </g>
  </g>
 </g>
 <defs>
  <clipPath id="pded754ed8f">
   <rect x="50.33" y="10.8" width="946.87" height="250.180211"/>
  </clipPath>
 </defs>
</svg>
