<?xml version="1.0" encoding="utf-8" standalone="no"?>
<!DOCTYPE svg PUBLIC "-//W3C//DTD SVG 1.1//EN"
  "http://www.w3.org/Graphics/SVG/1.1/DTD/svg11.dtd">
<svg xmlns:xlink="http://www.w3.org/1999/xlink" width="720pt" height="360pt" viewBox="0 0 720 360" xmlns="http://www.w3.org/2000/svg" version="1.1">
 <metadata>
  <rdf:RDF xmlns:dc="http://purl.org/dc/elements/1.1/" xmlns:cc="http://creativecommons.org/ns#" xmlns:rdf="http://www.w3.org/1999/02/22-rdf-syntax-ns#">
   <cc:Work>
    <dc:type rdf:resource="http://purl.org/dc/dcmitype/StillImage"/>
    <dc:date>2024-02-26T21:22:24.309928</dc:date>
    <dc:format>image/svg+xml</dc:format>
    <dc:creator>
     <cc:Agent>
      <dc:title>Matplotlib v3.7.1, https://matplotlib.org/</dc:title>
     </cc:Agent>
    </dc:creator>
   </cc:Work>
  </rdf:RDF>
 </metadata>
 <defs>
  <style type="text/css">*{stroke-linejoin: round; stroke-linecap: butt}</style>
 </defs>
 <g id="figure_1">
  <g id="patch_1">
   <path d="M 0 360 
L 720 360 
L 720 0 
L 0 0 
z
" style="fill: #ffffff"/>
  </g>
  <g id="axes_1">
   <g id="matplotlib.axis_1"/>
   <g id="matplotlib.axis_2"/>
   <g id="patch_2">
    <path d="M 283.102607 192.733091 
C 283.102607 180.562336 280.951092 168.486852 276.747556 157.06505 
C 272.544019 145.643248 266.354271 135.053945 258.464544 125.786825 
C 250.574818 116.519706 241.108634 108.719854 230.50374 102.747961 
C 219.898847 96.776068 208.321271 92.725628 196.306398 90.783947 
C 184.291526 88.842266 172.027459 89.039743 160.08133 91.367245 
C 148.1352 93.694747 136.694033 98.115836 126.286907 104.426066 
C 115.87978 110.736296 106.669626 118.836876 99.082352 128.353206 
C 91.495078 137.869537 85.649469 148.652635 81.815845 160.203851 
C 77.982222 171.755068 76.220602 183.893562 76.612448 196.058007 
C 77.004295 208.222453 79.543474 220.222407 84.112565 231.502952 
C 88.681656 242.783496 95.209127 253.168026 103.393125 262.176325 
C 111.577123 271.184625 121.289522 278.675662 132.081187 284.303027 
C 142.872853 289.930391 154.574834 293.605982 166.645991 295.159829 
C 178.717149 296.713675 190.9685 296.12145 202.833501 293.410539 
C 214.698502 290.699629 225.991397 285.912474 236.189965 279.27045 
C 246.388534 272.628426 255.333109 264.235518 262.610064 254.479843 
L 179.830759 192.733091 
z
" style="fill: #59c3c3"/>
   </g>
   <g id="patch_3">
    <path d="M 262.610064 254.479843 
C 267.754562 247.582995 272.017025 240.070173 275.298271 232.116193 
C 278.579518 224.162213 280.853897 215.82925 282.068489 207.311202 
L 179.830759 192.733091 
z
" style="fill: #f45b69"/>
   </g>
   <g id="patch_4">
    <path d="M 282.068489 207.311202 
C 282.412654 204.897533 282.671238 202.472434 282.843753 200.040463 
C 283.016269 197.608491 283.102607 195.171173 283.102607 192.733091 
L 179.830759 192.733091 
z
" style="fill: #9fb7b9"/>
   </g>
   <g id="text_1">
    <!-- No solicitaron -->
    <g style="fill: #37539c" transform="translate(15.961854 154.420552) scale(0.08 -0.08)">
     <defs>
      <path id="OpenSans-Bold-4e" d="M 4628 0 
L 3397 0 
L 1409 3456 
L 1381 3456 
Q 1394 3241 1403 3022 
Q 1413 2803 1422 2586 
Q 1431 2369 1441 2150 
L 1441 0 
L 575 0 
L 575 4569 
L 1797 4569 
L 3781 1147 
L 3803 1147 
Q 3797 1359 3787 1568 
Q 3778 1778 3770 1987 
Q 3763 2197 3756 2406 
L 3756 4569 
L 4628 4569 
L 4628 0 
z
" transform="scale(0.015625)"/>
      <path id="OpenSans-Bold-6f" d="M 3675 1753 
Q 3675 1316 3558 978 
Q 3441 641 3217 408 
Q 2994 175 2680 56 
Q 2366 -63 1972 -63 
Q 1603 -63 1295 56 
Q 988 175 761 408 
Q 534 641 411 978 
Q 288 1316 288 1753 
Q 288 2334 494 2737 
Q 700 3141 1081 3350 
Q 1463 3559 1991 3559 
Q 2481 3559 2861 3350 
Q 3241 3141 3458 2737 
Q 3675 2334 3675 1753 
z
M 1259 1753 
Q 1259 1409 1334 1175 
Q 1409 941 1568 822 
Q 1728 703 1984 703 
Q 2238 703 2395 822 
Q 2553 941 2626 1175 
Q 2700 1409 2700 1753 
Q 2700 2100 2626 2329 
Q 2553 2559 2393 2675 
Q 2234 2791 1978 2791 
Q 1600 2791 1429 2531 
Q 1259 2272 1259 1753 
z
" transform="scale(0.015625)"/>
      <path id="OpenSans-Bold-20" transform="scale(0.015625)"/>
      <path id="OpenSans-Bold-73" d="M 2938 1038 
Q 2938 681 2770 436 
Q 2603 191 2272 64 
Q 1941 -63 1447 -63 
Q 1081 -63 820 -16 
Q 559 31 294 141 
L 294 928 
Q 578 800 904 717 
Q 1231 634 1478 634 
Q 1756 634 1876 717 
Q 1997 800 1997 934 
Q 1997 1022 1948 1092 
Q 1900 1163 1740 1252 
Q 1581 1341 1241 1484 
Q 913 1622 702 1762 
Q 491 1903 389 2095 
Q 288 2288 288 2584 
Q 288 3069 664 3314 
Q 1041 3559 1672 3559 
Q 1997 3559 2292 3493 
Q 2588 3428 2900 3284 
L 2613 2597 
Q 2353 2709 2123 2781 
Q 1894 2853 1656 2853 
Q 1447 2853 1340 2797 
Q 1234 2741 1234 2625 
Q 1234 2541 1289 2475 
Q 1344 2409 1501 2329 
Q 1659 2250 1966 2125 
Q 2263 2003 2481 1870 
Q 2700 1738 2819 1542 
Q 2938 1347 2938 1038 
z
" transform="scale(0.015625)"/>
      <path id="OpenSans-Bold-6c" d="M 1453 0 
L 500 0 
L 500 4863 
L 1453 4863 
L 1453 0 
z
" transform="scale(0.015625)"/>
      <path id="OpenSans-Bold-69" d="M 1453 3494 
L 1453 0 
L 500 0 
L 500 3494 
L 1453 3494 
z
M 978 4863 
Q 1191 4863 1344 4764 
Q 1497 4666 1497 4397 
Q 1497 4131 1344 4029 
Q 1191 3928 978 3928 
Q 763 3928 611 4029 
Q 459 4131 459 4397 
Q 459 4666 611 4764 
Q 763 4863 978 4863 
z
" transform="scale(0.015625)"/>
      <path id="OpenSans-Bold-63" d="M 1919 -63 
Q 1400 -63 1034 126 
Q 669 316 478 712 
Q 288 1109 288 1728 
Q 288 2369 505 2773 
Q 722 3178 1108 3368 
Q 1494 3559 2003 3559 
Q 2366 3559 2630 3489 
Q 2894 3419 3091 3322 
L 2809 2584 
Q 2584 2675 2390 2733 
Q 2197 2791 2003 2791 
Q 1753 2791 1587 2673 
Q 1422 2556 1340 2322 
Q 1259 2088 1259 1734 
Q 1259 1388 1346 1159 
Q 1434 931 1600 820 
Q 1766 709 2003 709 
Q 2300 709 2531 789 
Q 2763 869 2981 1013 
L 2981 197 
Q 2763 59 2523 -2 
Q 2284 -63 1919 -63 
z
" transform="scale(0.015625)"/>
      <path id="OpenSans-Bold-74" d="M 1972 697 
Q 2128 697 2276 728 
Q 2425 759 2572 806 
L 2572 97 
Q 2419 28 2192 -17 
Q 1966 -63 1697 -63 
Q 1384 -63 1136 39 
Q 888 141 745 392 
Q 603 644 603 1094 
L 603 2778 
L 147 2778 
L 147 3181 
L 672 3500 
L 947 4238 
L 1556 4238 
L 1556 3494 
L 2534 3494 
L 2534 2778 
L 1556 2778 
L 1556 1094 
Q 1556 894 1670 795 
Q 1784 697 1972 697 
z
" transform="scale(0.015625)"/>
      <path id="OpenSans-Bold-61" d="M 1931 3566 
Q 2634 3566 3009 3259 
Q 3384 2953 3384 2328 
L 3384 0 
L 2719 0 
L 2534 475 
L 2509 475 
Q 2359 288 2203 169 
Q 2047 50 1844 -6 
Q 1641 -63 1350 -63 
Q 1041 -63 795 56 
Q 550 175 409 420 
Q 269 666 269 1044 
Q 269 1600 659 1864 
Q 1050 2128 1831 2156 
L 2438 2175 
L 2438 2328 
Q 2438 2603 2294 2731 
Q 2150 2859 1894 2859 
Q 1641 2859 1397 2787 
Q 1153 2716 909 2606 
L 594 3250 
Q 872 3397 1217 3481 
Q 1563 3566 1931 3566 
z
M 2438 1619 
L 2069 1606 
Q 1606 1594 1426 1441 
Q 1247 1288 1247 1038 
Q 1247 819 1375 726 
Q 1503 634 1709 634 
Q 2016 634 2227 815 
Q 2438 997 2438 1331 
L 2438 1619 
z
" transform="scale(0.015625)"/>
      <path id="OpenSans-Bold-72" d="M 2450 3559 
Q 2522 3559 2617 3551 
Q 2713 3544 2772 3531 
L 2700 2638 
Q 2653 2653 2567 2661 
Q 2481 2669 2419 2669 
Q 2234 2669 2061 2622 
Q 1888 2575 1750 2470 
Q 1613 2366 1533 2195 
Q 1453 2025 1453 1778 
L 1453 0 
L 500 0 
L 500 3494 
L 1222 3494 
L 1363 2906 
L 1409 2906 
Q 1513 3084 1667 3232 
Q 1822 3381 2020 3470 
Q 2219 3559 2450 3559 
z
" transform="scale(0.015625)"/>
      <path id="OpenSans-Bold-6e" d="M 2484 3559 
Q 3044 3559 3384 3254 
Q 3725 2950 3725 2278 
L 3725 0 
L 2772 0 
L 2772 2041 
Q 2772 2416 2636 2606 
Q 2500 2797 2209 2797 
Q 1772 2797 1612 2500 
Q 1453 2203 1453 1644 
L 1453 0 
L 500 0 
L 500 3494 
L 1228 3494 
L 1356 3047 
L 1409 3047 
Q 1522 3228 1689 3340 
Q 1856 3453 2061 3506 
Q 2266 3559 2484 3559 
z
" transform="scale(0.015625)"/>
     </defs>
     <use xlink:href="#OpenSans-Bold-4e"/>
     <use xlink:href="#OpenSans-Bold-6f" x="81.298828"/>
     <use xlink:href="#OpenSans-Bold-20" x="143.212891"/>
     <use xlink:href="#OpenSans-Bold-73" x="169.189453"/>
     <use xlink:href="#OpenSans-Bold-6f" x="218.896484"/>
     <use xlink:href="#OpenSans-Bold-6c" x="280.810547"/>
     <use xlink:href="#OpenSans-Bold-69" x="311.328125"/>
     <use xlink:href="#OpenSans-Bold-63" x="341.845703"/>
     <use xlink:href="#OpenSans-Bold-69" x="393.261719"/>
     <use xlink:href="#OpenSans-Bold-74" x="423.779297"/>
     <use xlink:href="#OpenSans-Bold-61" x="467.1875"/>
     <use xlink:href="#OpenSans-Bold-72" x="527.587891"/>
     <use xlink:href="#OpenSans-Bold-6f" x="572.998047"/>
     <use xlink:href="#OpenSans-Bold-6e" x="634.912109"/>
    </g>
    <!-- financiamiento -->
    <g style="fill: #37539c" transform="translate(11.034354 163.637552) scale(0.08 -0.08)">
     <defs>
      <path id="OpenSans-Bold-66" d="M 2431 2778 
L 1606 2778 
L 1606 0 
L 653 0 
L 653 2778 
L 128 2778 
L 128 3238 
L 653 3494 
L 653 3750 
Q 653 4197 804 4445 
Q 956 4694 1232 4795 
Q 1509 4897 1888 4897 
Q 2166 4897 2394 4851 
Q 2622 4806 2766 4750 
L 2522 4050 
Q 2413 4084 2284 4112 
Q 2156 4141 1991 4141 
Q 1791 4141 1698 4020 
Q 1606 3900 1606 3713 
L 1606 3494 
L 2431 3494 
L 2431 2778 
z
" transform="scale(0.015625)"/>
      <path id="OpenSans-Bold-6d" d="M 4603 3559 
Q 5197 3559 5501 3254 
Q 5806 2950 5806 2278 
L 5806 0 
L 4850 0 
L 4850 2041 
Q 4850 2416 4722 2606 
Q 4594 2797 4325 2797 
Q 3947 2797 3787 2526 
Q 3628 2256 3628 1753 
L 3628 0 
L 2675 0 
L 2675 2041 
Q 2675 2291 2619 2459 
Q 2563 2628 2447 2712 
Q 2331 2797 2150 2797 
Q 1884 2797 1732 2664 
Q 1581 2531 1517 2273 
Q 1453 2016 1453 1644 
L 1453 0 
L 500 0 
L 500 3494 
L 1228 3494 
L 1356 3047 
L 1409 3047 
Q 1516 3228 1677 3340 
Q 1838 3453 2031 3506 
Q 2225 3559 2425 3559 
Q 2809 3559 3076 3434 
Q 3344 3309 3488 3047 
L 3572 3047 
Q 3728 3316 4014 3437 
Q 4300 3559 4603 3559 
z
" transform="scale(0.015625)"/>
      <path id="OpenSans-Bold-65" d="M 1941 3559 
Q 2425 3559 2775 3373 
Q 3125 3188 3315 2834 
Q 3506 2481 3506 1972 
L 3506 1509 
L 1253 1509 
Q 1269 1106 1495 876 
Q 1722 647 2125 647 
Q 2459 647 2737 715 
Q 3016 784 3309 922 
L 3309 184 
Q 3050 56 2767 -3 
Q 2484 -63 2081 -63 
Q 1556 -63 1151 131 
Q 747 325 517 722 
Q 288 1119 288 1722 
Q 288 2334 495 2742 
Q 703 3150 1075 3354 
Q 1447 3559 1941 3559 
z
M 1947 2881 
Q 1669 2881 1486 2703 
Q 1303 2525 1275 2144 
L 2613 2144 
Q 2609 2356 2536 2522 
Q 2463 2688 2317 2784 
Q 2172 2881 1947 2881 
z
" transform="scale(0.015625)"/>
     </defs>
     <use xlink:href="#OpenSans-Bold-66"/>
     <use xlink:href="#OpenSans-Bold-69" x="38.720703"/>
     <use xlink:href="#OpenSans-Bold-6e" x="69.238281"/>
     <use xlink:href="#OpenSans-Bold-61" x="134.960938"/>
     <use xlink:href="#OpenSans-Bold-6e" x="195.361328"/>
     <use xlink:href="#OpenSans-Bold-63" x="261.083984"/>
     <use xlink:href="#OpenSans-Bold-69" x="312.5"/>
     <use xlink:href="#OpenSans-Bold-61" x="343.017578"/>
     <use xlink:href="#OpenSans-Bold-6d" x="403.417969"/>
     <use xlink:href="#OpenSans-Bold-69" x="501.611328"/>
     <use xlink:href="#OpenSans-Bold-65" x="532.128906"/>
     <use xlink:href="#OpenSans-Bold-6e" x="591.210938"/>
     <use xlink:href="#OpenSans-Bold-74" x="656.933594"/>
     <use xlink:href="#OpenSans-Bold-6f" x="700.341797"/>
    </g>
   </g>
   <g id="text_2">
    <!-- 89.80% -->
    <g style="fill: #37539c" transform="translate(107.129936 175.293672) scale(0.08 -0.08)">
     <defs>
      <path id="OpenSans-Bold-38" d="M 1831 4628 
Q 2225 4628 2558 4506 
Q 2891 4384 3091 4139 
Q 3291 3894 3291 3525 
Q 3291 3250 3183 3044 
Q 3075 2838 2890 2683 
Q 2706 2528 2472 2413 
Q 2716 2284 2934 2114 
Q 3153 1944 3292 1716 
Q 3431 1488 3431 1184 
Q 3431 803 3228 523 
Q 3025 244 2665 90 
Q 2306 -63 1831 -63 
Q 1319 -63 959 84 
Q 600 231 412 504 
Q 225 778 225 1159 
Q 225 1472 342 1703 
Q 459 1934 659 2101 
Q 859 2269 1100 2388 
Q 897 2516 730 2678 
Q 563 2841 464 3050 
Q 366 3259 366 3531 
Q 366 3894 570 4137 
Q 775 4381 1109 4504 
Q 1444 4628 1831 4628 
z
M 1119 1216 
Q 1119 969 1295 808 
Q 1472 647 1819 647 
Q 2178 647 2356 801 
Q 2534 956 2534 1209 
Q 2534 1384 2432 1515 
Q 2331 1647 2178 1751 
Q 2025 1856 1869 1947 
L 1784 1991 
Q 1584 1900 1436 1787 
Q 1288 1675 1203 1534 
Q 1119 1394 1119 1216 
z
M 1825 3922 
Q 1588 3922 1431 3800 
Q 1275 3678 1275 3456 
Q 1275 3300 1351 3183 
Q 1428 3066 1554 2978 
Q 1681 2891 1831 2816 
Q 1975 2884 2100 2968 
Q 2225 3053 2303 3172 
Q 2381 3291 2381 3456 
Q 2381 3678 2223 3800 
Q 2066 3922 1825 3922 
z
" transform="scale(0.015625)"/>
      <path id="OpenSans-Bold-39" d="M 3431 2619 
Q 3431 2225 3373 1837 
Q 3316 1450 3172 1108 
Q 3028 766 2768 502 
Q 2509 238 2109 87 
Q 1709 -63 1141 -63 
Q 1006 -63 825 -52 
Q 644 -41 525 -19 
L 525 756 
Q 650 725 790 708 
Q 931 691 1075 691 
Q 1647 691 1958 872 
Q 2269 1053 2395 1375 
Q 2522 1697 2541 2119 
L 2503 2119 
Q 2413 1969 2289 1848 
Q 2166 1728 1975 1658 
Q 1784 1588 1491 1588 
Q 1100 1588 811 1758 
Q 522 1928 364 2251 
Q 206 2575 206 3034 
Q 206 3531 395 3886 
Q 584 4241 934 4431 
Q 1284 4622 1759 4622 
Q 2109 4622 2412 4501 
Q 2716 4381 2945 4134 
Q 3175 3888 3303 3509 
Q 3431 3131 3431 2619 
z
M 1778 3847 
Q 1497 3847 1319 3653 
Q 1141 3459 1141 3047 
Q 1141 2716 1294 2522 
Q 1447 2328 1759 2328 
Q 1975 2328 2134 2423 
Q 2294 2519 2383 2664 
Q 2472 2809 2472 2963 
Q 2472 3122 2428 3278 
Q 2384 3434 2296 3562 
Q 2209 3691 2079 3769 
Q 1950 3847 1778 3847 
z
" transform="scale(0.015625)"/>
      <path id="OpenSans-Bold-2e" d="M 366 447 
Q 366 741 527 859 
Q 688 978 916 978 
Q 1138 978 1298 859 
Q 1459 741 1459 447 
Q 1459 166 1298 41 
Q 1138 -84 916 -84 
Q 688 -84 527 41 
Q 366 166 366 447 
z
" transform="scale(0.015625)"/>
      <path id="OpenSans-Bold-30" d="M 3425 2284 
Q 3425 1731 3339 1297 
Q 3253 863 3064 559 
Q 2875 256 2569 96 
Q 2263 -63 1825 -63 
Q 1275 -63 922 217 
Q 569 497 400 1023 
Q 231 1550 231 2284 
Q 231 3025 386 3551 
Q 541 4078 891 4359 
Q 1241 4641 1825 4641 
Q 2372 4641 2726 4361 
Q 3081 4081 3253 3554 
Q 3425 3028 3425 2284 
z
M 1191 2284 
Q 1191 1763 1248 1414 
Q 1306 1066 1443 891 
Q 1581 716 1825 716 
Q 2066 716 2205 889 
Q 2344 1063 2403 1411 
Q 2463 1759 2463 2284 
Q 2463 2806 2403 3156 
Q 2344 3506 2205 3682 
Q 2066 3859 1825 3859 
Q 1581 3859 1443 3682 
Q 1306 3506 1248 3156 
Q 1191 2806 1191 2284 
z
" transform="scale(0.015625)"/>
      <path id="OpenSans-Bold-25" d="M 1275 4634 
Q 1813 4634 2091 4259 
Q 2369 3884 2369 3206 
Q 2369 2528 2106 2147 
Q 1844 1766 1275 1766 
Q 747 1766 472 2147 
Q 197 2528 197 3206 
Q 197 3884 455 4259 
Q 713 4634 1275 4634 
z
M 1281 3981 
Q 1128 3981 1056 3787 
Q 984 3594 984 3200 
Q 984 2806 1056 2609 
Q 1128 2413 1281 2413 
Q 1434 2413 1507 2608 
Q 1581 2803 1581 3200 
Q 1581 3594 1507 3787 
Q 1434 3981 1281 3981 
z
M 4519 4569 
L 1984 0 
L 1234 0 
L 3769 4569 
L 4519 4569 
z
M 4475 2809 
Q 5013 2809 5291 2434 
Q 5569 2059 5569 1381 
Q 5569 706 5306 325 
Q 5044 -56 4475 -56 
Q 3947 -56 3672 325 
Q 3397 706 3397 1381 
Q 3397 2059 3655 2434 
Q 3913 2809 4475 2809 
z
M 4481 2156 
Q 4328 2156 4256 1962 
Q 4184 1769 4184 1375 
Q 4184 981 4256 784 
Q 4328 588 4481 588 
Q 4634 588 4707 783 
Q 4781 978 4781 1375 
Q 4781 1769 4707 1962 
Q 4634 2156 4481 2156 
z
" transform="scale(0.015625)"/>
     </defs>
     <use xlink:href="#OpenSans-Bold-38"/>
     <use xlink:href="#OpenSans-Bold-39" x="57.177734"/>
     <use xlink:href="#OpenSans-Bold-2e" x="114.355469"/>
     <use xlink:href="#OpenSans-Bold-38" x="142.871094"/>
     <use xlink:href="#OpenSans-Bold-30" x="200.048828"/>
     <use xlink:href="#OpenSans-Bold-25" x="257.226562"/>
    </g>
   </g>
   <g id="text_3">
    <!-- Si obtuvieron -->
    <g style="fill: #37539c" transform="translate(284.845023 233.524128) scale(0.08 -0.08)">
     <defs>
      <path id="OpenSans-Bold-53" d="M 3272 1269 
Q 3272 863 3075 563 
Q 2878 263 2501 100 
Q 2125 -63 1588 -63 
Q 1350 -63 1123 -31 
Q 897 0 689 61 
Q 481 122 294 213 
L 294 1113 
Q 619 969 969 853 
Q 1319 738 1663 738 
Q 1900 738 2045 800 
Q 2191 863 2256 972 
Q 2322 1081 2322 1222 
Q 2322 1394 2206 1516 
Q 2091 1638 1889 1744 
Q 1688 1850 1434 1972 
Q 1275 2047 1087 2155 
Q 900 2263 731 2419 
Q 563 2575 455 2798 
Q 347 3022 347 3334 
Q 347 3744 534 4034 
Q 722 4325 1070 4479 
Q 1419 4634 1894 4634 
Q 2250 4634 2573 4551 
Q 2897 4469 3250 4313 
L 2938 3559 
Q 2622 3688 2372 3758 
Q 2122 3828 1863 3828 
Q 1681 3828 1553 3770 
Q 1425 3713 1359 3608 
Q 1294 3503 1294 3366 
Q 1294 3203 1389 3092 
Q 1484 2981 1676 2878 
Q 1869 2775 2156 2638 
Q 2506 2472 2754 2292 
Q 3003 2113 3137 1870 
Q 3272 1628 3272 1269 
z
" transform="scale(0.015625)"/>
      <path id="OpenSans-Bold-62" d="M 1453 4863 
L 1453 3731 
Q 1453 3534 1442 3340 
Q 1431 3147 1416 3041 
L 1453 3041 
Q 1591 3256 1828 3407 
Q 2066 3559 2444 3559 
Q 3031 3559 3397 3100 
Q 3763 2641 3763 1753 
Q 3763 1156 3594 751 
Q 3425 347 3122 142 
Q 2819 -63 2419 -63 
Q 2034 -63 1812 75 
Q 1591 213 1453 384 
L 1388 384 
L 1228 0 
L 500 0 
L 500 4863 
L 1453 4863 
z
M 2138 2797 
Q 1888 2797 1741 2694 
Q 1594 2591 1526 2384 
Q 1459 2178 1453 1863 
L 1453 1759 
Q 1453 1250 1603 979 
Q 1753 709 2150 709 
Q 2444 709 2617 981 
Q 2791 1253 2791 1766 
Q 2791 2278 2616 2537 
Q 2441 2797 2138 2797 
z
" transform="scale(0.015625)"/>
      <path id="OpenSans-Bold-75" d="M 3706 3494 
L 3706 0 
L 2975 0 
L 2847 447 
L 2797 447 
Q 2684 269 2515 156 
Q 2347 44 2144 -9 
Q 1941 -63 1722 -63 
Q 1347 -63 1069 70 
Q 791 203 636 484 
Q 481 766 481 1216 
L 481 3494 
L 1434 3494 
L 1434 1453 
Q 1434 1078 1568 887 
Q 1703 697 1997 697 
Q 2288 697 2453 830 
Q 2619 963 2686 1220 
Q 2753 1478 2753 1850 
L 2753 3494 
L 3706 3494 
z
" transform="scale(0.015625)"/>
      <path id="OpenSans-Bold-76" d="M 1331 0 
L 0 3494 
L 997 3494 
L 1672 1503 
Q 1728 1328 1761 1134 
Q 1794 941 1806 788 
L 1831 788 
Q 1841 953 1877 1140 
Q 1913 1328 1972 1503 
L 2644 3494 
L 3641 3494 
L 2309 0 
L 1331 0 
z
" transform="scale(0.015625)"/>
     </defs>
     <use xlink:href="#OpenSans-Bold-53"/>
     <use xlink:href="#OpenSans-Bold-69" x="55.078125"/>
     <use xlink:href="#OpenSans-Bold-20" x="85.595703"/>
     <use xlink:href="#OpenSans-Bold-6f" x="111.572266"/>
     <use xlink:href="#OpenSans-Bold-62" x="173.486328"/>
     <use xlink:href="#OpenSans-Bold-74" x="236.767578"/>
     <use xlink:href="#OpenSans-Bold-75" x="280.175781"/>
     <use xlink:href="#OpenSans-Bold-76" x="345.898438"/>
     <use xlink:href="#OpenSans-Bold-69" x="402.783203"/>
     <use xlink:href="#OpenSans-Bold-65" x="433.300781"/>
     <use xlink:href="#OpenSans-Bold-72" x="492.382812"/>
     <use xlink:href="#OpenSans-Bold-6f" x="537.792969"/>
     <use xlink:href="#OpenSans-Bold-6e" x="599.707031"/>
    </g>
    <!-- financiamiento -->
    <g style="fill: #37539c" transform="translate(284.845023 242.741128) scale(0.08 -0.08)">
     <use xlink:href="#OpenSans-Bold-66"/>
     <use xlink:href="#OpenSans-Bold-69" x="38.720703"/>
     <use xlink:href="#OpenSans-Bold-6e" x="69.238281"/>
     <use xlink:href="#OpenSans-Bold-61" x="134.960938"/>
     <use xlink:href="#OpenSans-Bold-6e" x="195.361328"/>
     <use xlink:href="#OpenSans-Bold-63" x="261.083984"/>
     <use xlink:href="#OpenSans-Bold-69" x="312.5"/>
     <use xlink:href="#OpenSans-Bold-61" x="343.017578"/>
     <use xlink:href="#OpenSans-Bold-6d" x="403.417969"/>
     <use xlink:href="#OpenSans-Bold-69" x="501.611328"/>
     <use xlink:href="#OpenSans-Bold-65" x="532.128906"/>
     <use xlink:href="#OpenSans-Bold-6e" x="591.210938"/>
     <use xlink:href="#OpenSans-Bold-74" x="656.933594"/>
     <use xlink:href="#OpenSans-Bold-6f" x="700.341797"/>
    </g>
   </g>
   <g id="text_4">
    <!-- 7.95% -->
    <g style="fill: #37539c" transform="translate(225.506266 218.441077) scale(0.08 -0.08)">
     <defs>
      <path id="OpenSans-Bold-37" d="M 709 0 
L 2425 3756 
L 172 3756 
L 172 4569 
L 3450 4569 
L 3450 3963 
L 1722 0 
L 709 0 
z
" transform="scale(0.015625)"/>
      <path id="OpenSans-Bold-35" d="M 1919 2919 
Q 2338 2919 2664 2759 
Q 2991 2600 3178 2290 
Q 3366 1981 3366 1528 
Q 3366 1034 3161 676 
Q 2956 319 2551 128 
Q 2147 -63 1544 -63 
Q 1184 -63 867 -2 
Q 550 59 313 184 
L 313 1019 
Q 550 894 883 808 
Q 1216 722 1509 722 
Q 1797 722 1994 798 
Q 2191 875 2292 1036 
Q 2394 1197 2394 1447 
Q 2394 1781 2169 1959 
Q 1944 2138 1478 2138 
Q 1300 2138 1108 2103 
Q 916 2069 788 2034 
L 403 2241 
L 575 4569 
L 3053 4569 
L 3053 3750 
L 1422 3750 
L 1338 2853 
Q 1444 2875 1569 2897 
Q 1694 2919 1919 2919 
z
" transform="scale(0.015625)"/>
     </defs>
     <use xlink:href="#OpenSans-Bold-37"/>
     <use xlink:href="#OpenSans-Bold-2e" x="57.177734"/>
     <use xlink:href="#OpenSans-Bold-39" x="85.693359"/>
     <use xlink:href="#OpenSans-Bold-35" x="142.871094"/>
     <use xlink:href="#OpenSans-Bold-25" x="200.048828"/>
    </g>
   </g>
   <g id="text_5">
    <!-- No obtuvieron -->
    <g style="fill: #37539c" transform="translate(293.145053 198.240825) scale(0.08 -0.08)">
     <use xlink:href="#OpenSans-Bold-4e"/>
     <use xlink:href="#OpenSans-Bold-6f" x="81.298828"/>
     <use xlink:href="#OpenSans-Bold-20" x="143.212891"/>
     <use xlink:href="#OpenSans-Bold-6f" x="169.189453"/>
     <use xlink:href="#OpenSans-Bold-62" x="231.103516"/>
     <use xlink:href="#OpenSans-Bold-74" x="294.384766"/>
     <use xlink:href="#OpenSans-Bold-75" x="337.792969"/>
     <use xlink:href="#OpenSans-Bold-76" x="403.515625"/>
     <use xlink:href="#OpenSans-Bold-69" x="460.400391"/>
     <use xlink:href="#OpenSans-Bold-65" x="490.917969"/>
     <use xlink:href="#OpenSans-Bold-72" x="550"/>
     <use xlink:href="#OpenSans-Bold-6f" x="595.410156"/>
     <use xlink:href="#OpenSans-Bold-6e" x="657.324219"/>
    </g>
    <!-- financiamiento -->
    <g style="fill: #37539c" transform="translate(293.145053 207.457825) scale(0.08 -0.08)">
     <use xlink:href="#OpenSans-Bold-66"/>
     <use xlink:href="#OpenSans-Bold-69" x="38.720703"/>
     <use xlink:href="#OpenSans-Bold-6e" x="69.238281"/>
     <use xlink:href="#OpenSans-Bold-61" x="134.960938"/>
     <use xlink:href="#OpenSans-Bold-6e" x="195.361328"/>
     <use xlink:href="#OpenSans-Bold-63" x="261.083984"/>
     <use xlink:href="#OpenSans-Bold-69" x="312.5"/>
     <use xlink:href="#OpenSans-Bold-61" x="343.017578"/>
     <use xlink:href="#OpenSans-Bold-6d" x="403.417969"/>
     <use xlink:href="#OpenSans-Bold-69" x="501.611328"/>
     <use xlink:href="#OpenSans-Bold-65" x="532.128906"/>
     <use xlink:href="#OpenSans-Bold-6e" x="591.210938"/>
     <use xlink:href="#OpenSans-Bold-74" x="656.933594"/>
     <use xlink:href="#OpenSans-Bold-6f" x="700.341797"/>
    </g>
   </g>
   <g id="text_6">
    <!-- 2.25% -->
    <g style="fill: #37539c" transform="translate(230.033555 199.195639) scale(0.08 -0.08)">
     <defs>
      <path id="OpenSans-Bold-32" d="M 3450 0 
L 256 0 
L 256 672 
L 1403 1831 
Q 1750 2188 1961 2427 
Q 2172 2666 2267 2862 
Q 2363 3059 2363 3284 
Q 2363 3556 2211 3692 
Q 2059 3828 1806 3828 
Q 1541 3828 1291 3706 
Q 1041 3584 769 3359 
L 244 3981 
Q 441 4150 661 4300 
Q 881 4450 1173 4542 
Q 1466 4634 1875 4634 
Q 2325 4634 2648 4471 
Q 2972 4309 3147 4029 
Q 3322 3750 3322 3397 
Q 3322 3019 3172 2706 
Q 3022 2394 2736 2087 
Q 2450 1781 2047 1409 
L 1459 856 
L 1459 813 
L 3450 813 
L 3450 0 
z
" transform="scale(0.015625)"/>
     </defs>
     <use xlink:href="#OpenSans-Bold-32"/>
     <use xlink:href="#OpenSans-Bold-2e" x="57.177734"/>
     <use xlink:href="#OpenSans-Bold-32" x="85.693359"/>
     <use xlink:href="#OpenSans-Bold-35" x="142.871094"/>
     <use xlink:href="#OpenSans-Bold-25" x="200.048828"/>
    </g>
   </g>
   <g id="text_7">
    <!-- Porcentaje de empresas que innovaron que -->
    <g style="fill: #37539c" transform="translate(71.468259 34.52578) scale(0.1 -0.1)">
     <defs>
      <path id="OpenSans-Bold-50" d="M 2034 4569 
Q 2919 4569 3325 4189 
Q 3731 3809 3731 3144 
Q 3731 2844 3640 2570 
Q 3550 2297 3345 2084 
Q 3141 1872 2800 1748 
Q 2459 1625 1959 1625 
L 1544 1625 
L 1544 0 
L 575 0 
L 575 4569 
L 2034 4569 
z
M 1984 3775 
L 1544 3775 
L 1544 2419 
L 1863 2419 
Q 2134 2419 2334 2491 
Q 2534 2563 2643 2716 
Q 2753 2869 2753 3109 
Q 2753 3447 2565 3611 
Q 2378 3775 1984 3775 
z
" transform="scale(0.015625)"/>
      <path id="OpenSans-Bold-6a" d="M 219 -1538 
Q 56 -1538 -119 -1514 
Q -294 -1491 -409 -1459 
L -409 -709 
Q -294 -741 -192 -755 
Q -91 -769 38 -769 
Q 231 -769 365 -661 
Q 500 -553 500 -238 
L 500 3494 
L 1453 3494 
L 1453 -378 
Q 1453 -697 1331 -961 
Q 1209 -1225 937 -1381 
Q 666 -1538 219 -1538 
z
M 459 4397 
Q 459 4666 611 4764 
Q 763 4863 978 4863 
Q 1191 4863 1344 4764 
Q 1497 4666 1497 4397 
Q 1497 4131 1344 4029 
Q 1191 3928 978 3928 
Q 763 3928 611 4029 
Q 459 4131 459 4397 
z
" transform="scale(0.015625)"/>
      <path id="OpenSans-Bold-64" d="M 1606 -63 
Q 1022 -63 655 395 
Q 288 853 288 1741 
Q 288 2638 659 3098 
Q 1031 3559 1631 3559 
Q 1881 3559 2072 3490 
Q 2263 3422 2402 3306 
Q 2541 3191 2638 3047 
L 2669 3047 
Q 2650 3147 2623 3342 
Q 2597 3538 2597 3744 
L 2597 4863 
L 3553 4863 
L 3553 0 
L 2822 0 
L 2638 453 
L 2597 453 
Q 2506 309 2370 192 
Q 2234 75 2046 6 
Q 1859 -63 1606 -63 
z
M 1941 697 
Q 2331 697 2492 930 
Q 2653 1163 2663 1631 
L 2663 1734 
Q 2663 2244 2506 2514 
Q 2350 2784 1925 2784 
Q 1609 2784 1431 2512 
Q 1253 2241 1253 1728 
Q 1253 1216 1433 956 
Q 1613 697 1941 697 
z
" transform="scale(0.015625)"/>
      <path id="OpenSans-Bold-70" d="M 2444 3559 
Q 3034 3559 3398 3100 
Q 3763 2641 3763 1753 
Q 3763 1159 3591 754 
Q 3419 350 3116 143 
Q 2813 -63 2419 -63 
Q 2166 -63 1984 1 
Q 1803 66 1675 167 
Q 1547 269 1453 384 
L 1403 384 
Q 1428 259 1440 128 
Q 1453 -3 1453 -128 
L 1453 -1538 
L 500 -1538 
L 500 3494 
L 1275 3494 
L 1409 3041 
L 1453 3041 
Q 1547 3181 1681 3300 
Q 1816 3419 2005 3489 
Q 2194 3559 2444 3559 
z
M 2138 2797 
Q 1888 2797 1741 2694 
Q 1594 2591 1526 2384 
Q 1459 2178 1453 1863 
L 1453 1759 
Q 1453 1422 1517 1187 
Q 1581 953 1732 831 
Q 1884 709 2150 709 
Q 2369 709 2509 831 
Q 2650 953 2720 1189 
Q 2791 1425 2791 1766 
Q 2791 2278 2631 2537 
Q 2472 2797 2138 2797 
z
" transform="scale(0.015625)"/>
      <path id="OpenSans-Bold-71" d="M 2597 -1538 
L 2597 -72 
Q 2597 59 2608 192 
Q 2619 325 2638 453 
L 2597 453 
Q 2463 238 2227 87 
Q 1991 -63 1606 -63 
Q 1016 -63 652 395 
Q 288 853 288 1741 
Q 288 2338 456 2742 
Q 625 3147 926 3353 
Q 1228 3559 1625 3559 
Q 2009 3559 2248 3411 
Q 2488 3263 2638 3047 
L 2663 3047 
L 2747 3494 
L 3553 3494 
L 3553 -1538 
L 2597 -1538 
z
M 1947 684 
Q 2209 684 2364 787 
Q 2519 891 2587 1098 
Q 2656 1306 2663 1619 
L 2663 1734 
Q 2663 2244 2506 2514 
Q 2350 2784 1931 2784 
Q 1591 2784 1425 2512 
Q 1259 2241 1259 1728 
Q 1259 1206 1428 945 
Q 1597 684 1947 684 
z
" transform="scale(0.015625)"/>
     </defs>
     <use xlink:href="#OpenSans-Bold-50"/>
     <use xlink:href="#OpenSans-Bold-6f" x="62.792969"/>
     <use xlink:href="#OpenSans-Bold-72" x="124.707031"/>
     <use xlink:href="#OpenSans-Bold-63" x="170.117188"/>
     <use xlink:href="#OpenSans-Bold-65" x="221.533203"/>
     <use xlink:href="#OpenSans-Bold-6e" x="280.615234"/>
     <use xlink:href="#OpenSans-Bold-74" x="346.337891"/>
     <use xlink:href="#OpenSans-Bold-61" x="389.746094"/>
     <use xlink:href="#OpenSans-Bold-6a" x="450.146484"/>
     <use xlink:href="#OpenSans-Bold-65" x="480.664062"/>
     <use xlink:href="#OpenSans-Bold-20" x="539.746094"/>
     <use xlink:href="#OpenSans-Bold-64" x="565.722656"/>
     <use xlink:href="#OpenSans-Bold-65" x="629.003906"/>
     <use xlink:href="#OpenSans-Bold-20" x="688.085938"/>
     <use xlink:href="#OpenSans-Bold-65" x="714.0625"/>
     <use xlink:href="#OpenSans-Bold-6d" x="773.144531"/>
     <use xlink:href="#OpenSans-Bold-70" x="871.337891"/>
     <use xlink:href="#OpenSans-Bold-72" x="934.619141"/>
     <use xlink:href="#OpenSans-Bold-65" x="980.029297"/>
     <use xlink:href="#OpenSans-Bold-73" x="1039.111328"/>
     <use xlink:href="#OpenSans-Bold-61" x="1088.818359"/>
     <use xlink:href="#OpenSans-Bold-73" x="1149.21875"/>
     <use xlink:href="#OpenSans-Bold-20" x="1198.925781"/>
     <use xlink:href="#OpenSans-Bold-71" x="1224.902344"/>
     <use xlink:href="#OpenSans-Bold-75" x="1288.183594"/>
     <use xlink:href="#OpenSans-Bold-65" x="1353.90625"/>
     <use xlink:href="#OpenSans-Bold-20" x="1412.988281"/>
     <use xlink:href="#OpenSans-Bold-69" x="1438.964844"/>
     <use xlink:href="#OpenSans-Bold-6e" x="1469.482422"/>
     <use xlink:href="#OpenSans-Bold-6e" x="1535.205078"/>
     <use xlink:href="#OpenSans-Bold-6f" x="1600.927734"/>
     <use xlink:href="#OpenSans-Bold-76" x="1662.841797"/>
     <use xlink:href="#OpenSans-Bold-61" x="1719.726562"/>
     <use xlink:href="#OpenSans-Bold-72" x="1780.126953"/>
     <use xlink:href="#OpenSans-Bold-6f" x="1825.537109"/>
     <use xlink:href="#OpenSans-Bold-6e" x="1887.451172"/>
     <use xlink:href="#OpenSans-Bold-20" x="1953.173828"/>
     <use xlink:href="#OpenSans-Bold-71" x="1979.150391"/>
     <use xlink:href="#OpenSans-Bold-75" x="2042.431641"/>
     <use xlink:href="#OpenSans-Bold-65" x="2108.154297"/>
    </g>
    <!-- solicitaron financiamiento público (excluyendo Ley I+D) -->
    <g style="fill: #37539c" transform="translate(41.516696 46.12203) scale(0.1 -0.1)">
     <defs>
      <path id="OpenSans-Bold-fa" d="M 3706 3494 
L 3706 0 
L 2975 0 
L 2847 447 
L 2797 447 
Q 2684 269 2515 156 
Q 2347 44 2144 -9 
Q 1941 -63 1722 -63 
Q 1347 -63 1069 70 
Q 791 203 636 484 
Q 481 766 481 1216 
L 481 3494 
L 1434 3494 
L 1434 1453 
Q 1434 1078 1568 887 
Q 1703 697 1997 697 
Q 2288 697 2453 830 
Q 2619 963 2686 1220 
Q 2753 1478 2753 1850 
L 2753 3494 
L 3706 3494 
z
M 3331 4903 
L 3331 4838 
Q 3241 4750 3094 4622 
Q 2947 4494 2778 4355 
Q 2610 4216 2447 4089 
Q 2285 3963 2163 3878 
L 1528 3878 
L 1528 3963 
Q 1631 4081 1767 4245 
Q 1903 4409 2037 4584 
Q 2172 4759 2263 4903 
L 3331 4903 
z
" transform="scale(0.015625)"/>
      <path id="OpenSans-Bold-28" d="M 256 1753 
Q 256 2275 356 2773 
Q 456 3272 665 3726 
Q 875 4181 1197 4569 
L 1978 4569 
Q 1541 3969 1314 3244 
Q 1088 2519 1088 1759 
Q 1088 1266 1188 777 
Q 1288 288 1486 -165 
Q 1684 -619 1972 -1013 
L 1197 -1013 
Q 875 -638 665 -192 
Q 456 253 356 745 
Q 256 1238 256 1753 
z
" transform="scale(0.015625)"/>
      <path id="OpenSans-Bold-78" d="M 1216 1784 
L 91 3494 
L 1172 3494 
L 1850 2381 
L 2534 3494 
L 3616 3494 
L 2478 1784 
L 3669 0 
L 2584 0 
L 1850 1197 
L 1113 0 
L 31 0 
L 1216 1784 
z
" transform="scale(0.015625)"/>
      <path id="OpenSans-Bold-79" d="M 0 3494 
L 1044 3494 
L 1703 1528 
Q 1734 1434 1756 1337 
Q 1778 1241 1793 1137 
Q 1809 1034 1819 922 
L 1838 922 
Q 1856 1091 1889 1237 
Q 1922 1384 1972 1528 
L 2619 3494 
L 3641 3494 
L 2163 -447 
Q 2028 -809 1812 -1051 
Q 1597 -1294 1317 -1416 
Q 1038 -1538 703 -1538 
Q 541 -1538 422 -1520 
Q 303 -1503 219 -1484 
L 219 -728 
Q 284 -744 384 -756 
Q 484 -769 594 -769 
Q 794 -769 937 -684 
Q 1081 -600 1178 -458 
Q 1275 -316 1331 -147 
L 1388 25 
L 0 3494 
z
" transform="scale(0.015625)"/>
      <path id="OpenSans-Bold-4c" d="M 575 0 
L 575 4569 
L 1544 4569 
L 1544 800 
L 3397 800 
L 3397 0 
L 575 0 
z
" transform="scale(0.015625)"/>
      <path id="OpenSans-Bold-49" d="M 575 0 
L 575 4569 
L 1544 4569 
L 1544 0 
L 575 0 
z
" transform="scale(0.015625)"/>
      <path id="OpenSans-Bold-2b" d="M 2169 2597 
L 3378 2597 
L 3378 1913 
L 2169 1913 
L 2169 709 
L 1484 709 
L 1484 1913 
L 275 1913 
L 275 2597 
L 1484 2597 
L 1484 3816 
L 2169 3816 
L 2169 2597 
z
" transform="scale(0.015625)"/>
      <path id="OpenSans-Bold-44" d="M 4366 2328 
Q 4366 1556 4070 1039 
Q 3775 522 3215 261 
Q 2656 0 1869 0 
L 575 0 
L 575 4569 
L 2009 4569 
Q 2728 4569 3256 4314 
Q 3784 4059 4075 3561 
Q 4366 3063 4366 2328 
z
M 3359 2303 
Q 3359 2809 3211 3136 
Q 3063 3463 2773 3619 
Q 2484 3775 2059 3775 
L 1544 3775 
L 1544 800 
L 1959 800 
Q 2669 800 3014 1178 
Q 3359 1556 3359 2303 
z
" transform="scale(0.015625)"/>
      <path id="OpenSans-Bold-29" d="M 1913 1753 
Q 1913 1238 1813 745 
Q 1713 253 1505 -192 
Q 1297 -638 972 -1013 
L 197 -1013 
Q 488 -619 684 -165 
Q 881 288 981 777 
Q 1081 1266 1081 1759 
Q 1081 2266 979 2759 
Q 878 3253 681 3711 
Q 484 4169 191 4569 
L 972 4569 
Q 1297 4181 1505 3726 
Q 1713 3272 1813 2773 
Q 1913 2275 1913 1753 
z
" transform="scale(0.015625)"/>
     </defs>
     <use xlink:href="#OpenSans-Bold-73"/>
     <use xlink:href="#OpenSans-Bold-6f" x="49.707031"/>
     <use xlink:href="#OpenSans-Bold-6c" x="111.621094"/>
     <use xlink:href="#OpenSans-Bold-69" x="142.138672"/>
     <use xlink:href="#OpenSans-Bold-63" x="172.65625"/>
     <use xlink:href="#OpenSans-Bold-69" x="224.072266"/>
     <use xlink:href="#OpenSans-Bold-74" x="254.589844"/>
     <use xlink:href="#OpenSans-Bold-61" x="297.998047"/>
     <use xlink:href="#OpenSans-Bold-72" x="358.398438"/>
     <use xlink:href="#OpenSans-Bold-6f" x="403.808594"/>
     <use xlink:href="#OpenSans-Bold-6e" x="465.722656"/>
     <use xlink:href="#OpenSans-Bold-20" x="531.445312"/>
     <use xlink:href="#OpenSans-Bold-66" x="557.421875"/>
     <use xlink:href="#OpenSans-Bold-69" x="596.142578"/>
     <use xlink:href="#OpenSans-Bold-6e" x="626.660156"/>
     <use xlink:href="#OpenSans-Bold-61" x="692.382812"/>
     <use xlink:href="#OpenSans-Bold-6e" x="752.783203"/>
     <use xlink:href="#OpenSans-Bold-63" x="818.505859"/>
     <use xlink:href="#OpenSans-Bold-69" x="869.921875"/>
     <use xlink:href="#OpenSans-Bold-61" x="900.439453"/>
     <use xlink:href="#OpenSans-Bold-6d" x="960.839844"/>
     <use xlink:href="#OpenSans-Bold-69" x="1059.033203"/>
     <use xlink:href="#OpenSans-Bold-65" x="1089.550781"/>
     <use xlink:href="#OpenSans-Bold-6e" x="1148.632812"/>
     <use xlink:href="#OpenSans-Bold-74" x="1214.355469"/>
     <use xlink:href="#OpenSans-Bold-6f" x="1257.763672"/>
     <use xlink:href="#OpenSans-Bold-20" x="1319.677734"/>
     <use xlink:href="#OpenSans-Bold-70" x="1345.654297"/>
     <use xlink:href="#OpenSans-Bold-fa" x="1408.935547"/>
     <use xlink:href="#OpenSans-Bold-62" x="1474.658203"/>
     <use xlink:href="#OpenSans-Bold-6c" x="1537.939453"/>
     <use xlink:href="#OpenSans-Bold-69" x="1568.457031"/>
     <use xlink:href="#OpenSans-Bold-63" x="1598.974609"/>
     <use xlink:href="#OpenSans-Bold-6f" x="1650.390625"/>
     <use xlink:href="#OpenSans-Bold-20" x="1712.304688"/>
     <use xlink:href="#OpenSans-Bold-28" x="1738.28125"/>
     <use xlink:href="#OpenSans-Bold-65" x="1772.167969"/>
     <use xlink:href="#OpenSans-Bold-78" x="1831.25"/>
     <use xlink:href="#OpenSans-Bold-63" x="1889.0625"/>
     <use xlink:href="#OpenSans-Bold-6c" x="1940.478516"/>
     <use xlink:href="#OpenSans-Bold-75" x="1970.996094"/>
     <use xlink:href="#OpenSans-Bold-79" x="2036.71875"/>
     <use xlink:href="#OpenSans-Bold-65" x="2093.603516"/>
     <use xlink:href="#OpenSans-Bold-6e" x="2152.685547"/>
     <use xlink:href="#OpenSans-Bold-64" x="2218.408203"/>
     <use xlink:href="#OpenSans-Bold-6f" x="2281.689453"/>
     <use xlink:href="#OpenSans-Bold-20" x="2343.603516"/>
     <use xlink:href="#OpenSans-Bold-4c" x="2369.580078"/>
     <use xlink:href="#OpenSans-Bold-65" x="2426.074219"/>
     <use xlink:href="#OpenSans-Bold-79" x="2485.15625"/>
     <use xlink:href="#OpenSans-Bold-20" x="2542.041016"/>
     <use xlink:href="#OpenSans-Bold-49" x="2568.017578"/>
     <use xlink:href="#OpenSans-Bold-2b" x="2601.123047"/>
     <use xlink:href="#OpenSans-Bold-44" x="2658.300781"/>
     <use xlink:href="#OpenSans-Bold-29" x="2732.324219"/>
    </g>
    <!-- Período 2017-2018 -->
    <g style="fill: #37539c" transform="translate(134.808103 57.64328) scale(0.1 -0.1)">
     <defs>
      <path id="OpenSans-Bold-ed" d="M 1453 0 
L 500 0 
L 500 3494 
L 1453 3494 
L 1453 0 
z
M 2203 4903 
L 2203 4838 
Q 2113 4750 1966 4622 
Q 1819 4494 1650 4355 
Q 1482 4216 1319 4089 
Q 1157 3963 1035 3878 
L 400 3878 
L 400 3963 
Q 503 4081 639 4245 
Q 775 4409 909 4584 
Q 1044 4759 1135 4903 
L 2203 4903 
z
" transform="scale(0.015625)"/>
      <path id="OpenSans-Bold-31" d="M 2644 0 
L 1678 0 
L 1678 2644 
Q 1678 2753 1681 2914 
Q 1684 3075 1690 3245 
Q 1697 3416 1703 3553 
Q 1669 3513 1564 3414 
Q 1459 3316 1369 3238 
L 844 2816 
L 378 3397 
L 1850 4569 
L 2644 4569 
L 2644 0 
z
" transform="scale(0.015625)"/>
      <path id="OpenSans-Bold-2d" d="M 191 1325 
L 191 2106 
L 1869 2106 
L 1869 1325 
L 191 1325 
z
" transform="scale(0.015625)"/>
     </defs>
     <use xlink:href="#OpenSans-Bold-50"/>
     <use xlink:href="#OpenSans-Bold-65" x="62.792969"/>
     <use xlink:href="#OpenSans-Bold-72" x="121.875"/>
     <use xlink:href="#OpenSans-Bold-ed" x="167.285156"/>
     <use xlink:href="#OpenSans-Bold-6f" x="197.802734"/>
     <use xlink:href="#OpenSans-Bold-64" x="259.716797"/>
     <use xlink:href="#OpenSans-Bold-6f" x="322.998047"/>
     <use xlink:href="#OpenSans-Bold-20" x="384.912109"/>
     <use xlink:href="#OpenSans-Bold-32" x="410.888672"/>
     <use xlink:href="#OpenSans-Bold-30" x="468.066406"/>
     <use xlink:href="#OpenSans-Bold-31" x="525.244141"/>
     <use xlink:href="#OpenSans-Bold-37" x="582.421875"/>
     <use xlink:href="#OpenSans-Bold-2d" x="639.599609"/>
     <use xlink:href="#OpenSans-Bold-32" x="671.777344"/>
     <use xlink:href="#OpenSans-Bold-30" x="728.955078"/>
     <use xlink:href="#OpenSans-Bold-31" x="786.132812"/>
     <use xlink:href="#OpenSans-Bold-38" x="843.310547"/>
    </g>
   </g>
  </g>
  <g id="axes_2">
   <g id="matplotlib.axis_3"/>
   <g id="matplotlib.axis_4"/>
   <g id="patch_5">
    <path d="M 638.614914 192.733091 
C 638.614914 180.398845 636.405208 168.163766 632.090705 156.608737 
C 627.776202 145.053708 621.42628 134.364534 613.342413 125.048702 
C 605.258546 115.73287 595.570722 107.94018 584.738888 102.040603 
C 573.907055 96.141026 562.105388 92.229427 549.894192 90.491517 
C 537.682996 88.753607 525.258629 89.217331 513.210958 91.860674 
C 501.163287 94.504016 489.68604 99.284472 479.32412 105.97508 
C 468.9622 112.665688 459.882226 121.158864 452.515287 131.051378 
C 445.148347 140.943892 439.612903 152.076673 436.171759 163.921172 
C 432.730615 175.765671 431.439105 188.131428 432.358545 200.431357 
C 433.277986 212.731287 436.393592 224.767605 441.557446 235.968866 
C 446.721299 247.170127 453.850365 257.356214 462.606177 266.043525 
C 471.36199 274.730836 481.603756 281.779679 492.845229 286.855397 
C 504.086702 291.931115 516.147119 294.952091 528.45389 295.774898 
C 540.760661 296.597705 553.115893 295.209112 564.933 291.675046 
C 576.750107 288.14098 587.839068 282.518268 597.673416 275.073859 
C 607.507764 267.62945 615.929362 258.48305 622.53838 248.0689 
L 535.343066 192.733091 
z
" style="fill: #59c3c3"/>
   </g>
   <g id="patch_6">
    <path d="M 622.53838 248.0689 
C 625.470907 243.447976 628.03147 238.60124 630.195865 233.574506 
C 632.36026 228.547772 634.121646 223.356929 635.463373 218.051043 
L 535.343066 192.733091 
z
" style="fill: #f45b69"/>
   </g>
   <g id="patch_7">
    <path d="M 635.463373 218.051043 
C 636.508845 213.916704 637.297231 209.721574 637.824001 205.489756 
C 638.350771 201.257938 638.614915 196.997552 638.614914 192.733074 
L 535.343066 192.733091 
z
" style="fill: #9fb7b9"/>
   </g>
   <g id="text_8">
    <!-- No solicitaron -->
    <g style="fill: #37539c" transform="translate(370.202128 158.509605) scale(0.08 -0.08)">
     <use xlink:href="#OpenSans-Bold-4e"/>
     <use xlink:href="#OpenSans-Bold-6f" x="81.298828"/>
     <use xlink:href="#OpenSans-Bold-20" x="143.212891"/>
     <use xlink:href="#OpenSans-Bold-73" x="169.189453"/>
     <use xlink:href="#OpenSans-Bold-6f" x="218.896484"/>
     <use xlink:href="#OpenSans-Bold-6c" x="280.810547"/>
     <use xlink:href="#OpenSans-Bold-69" x="311.328125"/>
     <use xlink:href="#OpenSans-Bold-63" x="341.845703"/>
     <use xlink:href="#OpenSans-Bold-69" x="393.261719"/>
     <use xlink:href="#OpenSans-Bold-74" x="423.779297"/>
     <use xlink:href="#OpenSans-Bold-61" x="467.1875"/>
     <use xlink:href="#OpenSans-Bold-72" x="527.587891"/>
     <use xlink:href="#OpenSans-Bold-6f" x="572.998047"/>
     <use xlink:href="#OpenSans-Bold-6e" x="634.912109"/>
    </g>
    <!-- financiamiento -->
    <g style="fill: #37539c" transform="translate(365.274628 167.726605) scale(0.08 -0.08)">
     <use xlink:href="#OpenSans-Bold-66"/>
     <use xlink:href="#OpenSans-Bold-69" x="38.720703"/>
     <use xlink:href="#OpenSans-Bold-6e" x="69.238281"/>
     <use xlink:href="#OpenSans-Bold-61" x="134.960938"/>
     <use xlink:href="#OpenSans-Bold-6e" x="195.361328"/>
     <use xlink:href="#OpenSans-Bold-63" x="261.083984"/>
     <use xlink:href="#OpenSans-Bold-69" x="312.5"/>
     <use xlink:href="#OpenSans-Bold-61" x="343.017578"/>
     <use xlink:href="#OpenSans-Bold-6d" x="403.417969"/>
     <use xlink:href="#OpenSans-Bold-69" x="501.611328"/>
     <use xlink:href="#OpenSans-Bold-65" x="532.128906"/>
     <use xlink:href="#OpenSans-Bold-6e" x="591.210938"/>
     <use xlink:href="#OpenSans-Bold-74" x="656.933594"/>
     <use xlink:href="#OpenSans-Bold-6f" x="700.341797"/>
    </g>
   </g>
   <g id="text_9">
    <!-- 91.00% -->
    <g style="fill: #37539c" transform="translate(461.948407 177.524064) scale(0.08 -0.08)">
     <use xlink:href="#OpenSans-Bold-39"/>
     <use xlink:href="#OpenSans-Bold-31" x="57.177734"/>
     <use xlink:href="#OpenSans-Bold-2e" x="114.355469"/>
     <use xlink:href="#OpenSans-Bold-30" x="142.871094"/>
     <use xlink:href="#OpenSans-Bold-30" x="200.048828"/>
     <use xlink:href="#OpenSans-Bold-25" x="257.226562"/>
    </g>
   </g>
   <g id="text_10">
    <!-- Si obtuvieron -->
    <g style="fill: #37539c" transform="translate(639.681145 235.128272) scale(0.08 -0.08)">
     <use xlink:href="#OpenSans-Bold-53"/>
     <use xlink:href="#OpenSans-Bold-69" x="55.078125"/>
     <use xlink:href="#OpenSans-Bold-20" x="85.595703"/>
     <use xlink:href="#OpenSans-Bold-6f" x="111.572266"/>
     <use xlink:href="#OpenSans-Bold-62" x="173.486328"/>
     <use xlink:href="#OpenSans-Bold-74" x="236.767578"/>
     <use xlink:href="#OpenSans-Bold-75" x="280.175781"/>
     <use xlink:href="#OpenSans-Bold-76" x="345.898438"/>
     <use xlink:href="#OpenSans-Bold-69" x="402.783203"/>
     <use xlink:href="#OpenSans-Bold-65" x="433.300781"/>
     <use xlink:href="#OpenSans-Bold-72" x="492.382812"/>
     <use xlink:href="#OpenSans-Bold-6f" x="537.792969"/>
     <use xlink:href="#OpenSans-Bold-6e" x="599.707031"/>
    </g>
    <!-- financiamiento -->
    <g style="fill: #37539c" transform="translate(639.681145 244.345272) scale(0.08 -0.08)">
     <use xlink:href="#OpenSans-Bold-66"/>
     <use xlink:href="#OpenSans-Bold-69" x="38.720703"/>
     <use xlink:href="#OpenSans-Bold-6e" x="69.238281"/>
     <use xlink:href="#OpenSans-Bold-61" x="134.960938"/>
     <use xlink:href="#OpenSans-Bold-6e" x="195.361328"/>
     <use xlink:href="#OpenSans-Bold-63" x="261.083984"/>
     <use xlink:href="#OpenSans-Bold-69" x="312.5"/>
     <use xlink:href="#OpenSans-Bold-61" x="343.017578"/>
     <use xlink:href="#OpenSans-Bold-6d" x="403.417969"/>
     <use xlink:href="#OpenSans-Bold-69" x="501.611328"/>
     <use xlink:href="#OpenSans-Bold-65" x="532.128906"/>
     <use xlink:href="#OpenSans-Bold-6e" x="591.210938"/>
     <use xlink:href="#OpenSans-Bold-74" x="656.933594"/>
     <use xlink:href="#OpenSans-Bold-6f" x="700.341797"/>
    </g>
   </g>
   <g id="text_11">
    <!-- 5.06% -->
    <g style="fill: #37539c" transform="translate(580.649745 219.316065) scale(0.08 -0.08)">
     <defs>
      <path id="OpenSans-Bold-36" d="M 225 1941 
Q 225 2334 283 2720 
Q 341 3106 484 3448 
Q 628 3791 887 4055 
Q 1147 4319 1547 4470 
Q 1947 4622 2516 4622 
Q 2650 4622 2829 4611 
Q 3009 4600 3128 4575 
L 3128 3803 
Q 3003 3831 2861 3848 
Q 2719 3866 2578 3866 
Q 2009 3866 1698 3684 
Q 1388 3503 1261 3183 
Q 1134 2863 1113 2438 
L 1153 2438 
Q 1241 2591 1373 2709 
Q 1506 2828 1697 2898 
Q 1888 2969 2144 2969 
Q 2544 2969 2837 2798 
Q 3131 2628 3290 2306 
Q 3450 1984 3450 1522 
Q 3450 1028 3259 672 
Q 3069 316 2720 126 
Q 2372 -63 1894 -63 
Q 1544 -63 1241 57 
Q 938 178 709 425 
Q 481 672 353 1048 
Q 225 1425 225 1941 
z
M 1875 709 
Q 2159 709 2337 903 
Q 2516 1097 2516 1509 
Q 2516 1844 2361 2036 
Q 2206 2228 1894 2228 
Q 1681 2228 1520 2133 
Q 1359 2038 1271 1892 
Q 1184 1747 1184 1594 
Q 1184 1434 1228 1278 
Q 1272 1122 1359 994 
Q 1447 866 1576 787 
Q 1706 709 1875 709 
z
" transform="scale(0.015625)"/>
     </defs>
     <use xlink:href="#OpenSans-Bold-35"/>
     <use xlink:href="#OpenSans-Bold-2e" x="57.177734"/>
     <use xlink:href="#OpenSans-Bold-30" x="85.693359"/>
     <use xlink:href="#OpenSans-Bold-36" x="142.871094"/>
     <use xlink:href="#OpenSans-Bold-25" x="200.048828"/>
    </g>
   </g>
   <g id="text_12">
    <!-- No obtuvieron -->
    <g style="fill: #37539c" transform="translate(648.072095 204.235048) scale(0.08 -0.08)">
     <use xlink:href="#OpenSans-Bold-4e"/>
     <use xlink:href="#OpenSans-Bold-6f" x="81.298828"/>
     <use xlink:href="#OpenSans-Bold-20" x="143.212891"/>
     <use xlink:href="#OpenSans-Bold-6f" x="169.189453"/>
     <use xlink:href="#OpenSans-Bold-62" x="231.103516"/>
     <use xlink:href="#OpenSans-Bold-74" x="294.384766"/>
     <use xlink:href="#OpenSans-Bold-75" x="337.792969"/>
     <use xlink:href="#OpenSans-Bold-76" x="403.515625"/>
     <use xlink:href="#OpenSans-Bold-69" x="460.400391"/>
     <use xlink:href="#OpenSans-Bold-65" x="490.917969"/>
     <use xlink:href="#OpenSans-Bold-72" x="550"/>
     <use xlink:href="#OpenSans-Bold-6f" x="595.410156"/>
     <use xlink:href="#OpenSans-Bold-6e" x="657.324219"/>
    </g>
    <!-- financiamiento -->
    <g style="fill: #37539c" transform="translate(648.072095 213.452048) scale(0.08 -0.08)">
     <use xlink:href="#OpenSans-Bold-66"/>
     <use xlink:href="#OpenSans-Bold-69" x="38.720703"/>
     <use xlink:href="#OpenSans-Bold-6e" x="69.238281"/>
     <use xlink:href="#OpenSans-Bold-61" x="134.960938"/>
     <use xlink:href="#OpenSans-Bold-6e" x="195.361328"/>
     <use xlink:href="#OpenSans-Bold-63" x="261.083984"/>
     <use xlink:href="#OpenSans-Bold-69" x="312.5"/>
     <use xlink:href="#OpenSans-Bold-61" x="343.017578"/>
     <use xlink:href="#OpenSans-Bold-6d" x="403.417969"/>
     <use xlink:href="#OpenSans-Bold-69" x="501.611328"/>
     <use xlink:href="#OpenSans-Bold-65" x="532.128906"/>
     <use xlink:href="#OpenSans-Bold-6e" x="591.210938"/>
     <use xlink:href="#OpenSans-Bold-74" x="656.933594"/>
     <use xlink:href="#OpenSans-Bold-6f" x="700.341797"/>
    </g>
   </g>
   <g id="text_13">
    <!-- 3.94% -->
    <g style="fill: #37539c" transform="translate(585.226627 202.465215) scale(0.08 -0.08)">
     <defs>
      <path id="OpenSans-Bold-33" d="M 3272 3547 
Q 3272 3231 3140 3000 
Q 3009 2769 2786 2622 
Q 2563 2475 2284 2406 
L 2284 2388 
Q 2834 2319 3120 2050 
Q 3406 1781 3406 1331 
Q 3406 931 3211 615 
Q 3016 300 2609 118 
Q 2203 -63 1563 -63 
Q 1184 -63 857 -2 
Q 531 59 244 184 
L 244 1006 
Q 538 856 859 779 
Q 1181 703 1459 703 
Q 1978 703 2186 883 
Q 2394 1063 2394 1388 
Q 2394 1578 2297 1709 
Q 2200 1841 1961 1909 
Q 1722 1978 1294 1978 
L 947 1978 
L 947 2719 
L 1300 2719 
Q 1722 2719 1942 2798 
Q 2163 2878 2242 3017 
Q 2322 3156 2322 3334 
Q 2322 3578 2172 3715 
Q 2022 3853 1672 3853 
Q 1453 3853 1273 3798 
Q 1094 3744 950 3667 
Q 806 3591 697 3519 
L 250 4184 
Q 519 4378 880 4506 
Q 1241 4634 1741 4634 
Q 2447 4634 2859 4350 
Q 3272 4066 3272 3547 
z
" transform="scale(0.015625)"/>
      <path id="OpenSans-Bold-34" d="M 3553 947 
L 3003 947 
L 3003 0 
L 2059 0 
L 2059 947 
L 109 947 
L 109 1619 
L 2113 4569 
L 3003 4569 
L 3003 1697 
L 3553 1697 
L 3553 947 
z
M 2059 1697 
L 2059 2472 
Q 2059 2581 2064 2731 
Q 2069 2881 2075 3031 
Q 2081 3181 2089 3298 
Q 2097 3416 2100 3463 
L 2075 3463 
Q 2016 3334 1950 3214 
Q 1884 3094 1797 2963 
L 959 1697 
L 2059 1697 
z
" transform="scale(0.015625)"/>
     </defs>
     <use xlink:href="#OpenSans-Bold-33"/>
     <use xlink:href="#OpenSans-Bold-2e" x="57.177734"/>
     <use xlink:href="#OpenSans-Bold-39" x="85.693359"/>
     <use xlink:href="#OpenSans-Bold-34" x="142.871094"/>
     <use xlink:href="#OpenSans-Bold-25" x="200.048828"/>
    </g>
   </g>
   <g id="text_14">
    <!-- Porcentaje de empresas que innovaron que -->
    <g style="fill: #37539c" transform="translate(426.980566 34.52578) scale(0.1 -0.1)">
     <use xlink:href="#OpenSans-Bold-50"/>
     <use xlink:href="#OpenSans-Bold-6f" x="62.792969"/>
     <use xlink:href="#OpenSans-Bold-72" x="124.707031"/>
     <use xlink:href="#OpenSans-Bold-63" x="170.117188"/>
     <use xlink:href="#OpenSans-Bold-65" x="221.533203"/>
     <use xlink:href="#OpenSans-Bold-6e" x="280.615234"/>
     <use xlink:href="#OpenSans-Bold-74" x="346.337891"/>
     <use xlink:href="#OpenSans-Bold-61" x="389.746094"/>
     <use xlink:href="#OpenSans-Bold-6a" x="450.146484"/>
     <use xlink:href="#OpenSans-Bold-65" x="480.664062"/>
     <use xlink:href="#OpenSans-Bold-20" x="539.746094"/>
     <use xlink:href="#OpenSans-Bold-64" x="565.722656"/>
     <use xlink:href="#OpenSans-Bold-65" x="629.003906"/>
     <use xlink:href="#OpenSans-Bold-20" x="688.085938"/>
     <use xlink:href="#OpenSans-Bold-65" x="714.0625"/>
     <use xlink:href="#OpenSans-Bold-6d" x="773.144531"/>
     <use xlink:href="#OpenSans-Bold-70" x="871.337891"/>
     <use xlink:href="#OpenSans-Bold-72" x="934.619141"/>
     <use xlink:href="#OpenSans-Bold-65" x="980.029297"/>
     <use xlink:href="#OpenSans-Bold-73" x="1039.111328"/>
     <use xlink:href="#OpenSans-Bold-61" x="1088.818359"/>
     <use xlink:href="#OpenSans-Bold-73" x="1149.21875"/>
     <use xlink:href="#OpenSans-Bold-20" x="1198.925781"/>
     <use xlink:href="#OpenSans-Bold-71" x="1224.902344"/>
     <use xlink:href="#OpenSans-Bold-75" x="1288.183594"/>
     <use xlink:href="#OpenSans-Bold-65" x="1353.90625"/>
     <use xlink:href="#OpenSans-Bold-20" x="1412.988281"/>
     <use xlink:href="#OpenSans-Bold-69" x="1438.964844"/>
     <use xlink:href="#OpenSans-Bold-6e" x="1469.482422"/>
     <use xlink:href="#OpenSans-Bold-6e" x="1535.205078"/>
     <use xlink:href="#OpenSans-Bold-6f" x="1600.927734"/>
     <use xlink:href="#OpenSans-Bold-76" x="1662.841797"/>
     <use xlink:href="#OpenSans-Bold-61" x="1719.726562"/>
     <use xlink:href="#OpenSans-Bold-72" x="1780.126953"/>
     <use xlink:href="#OpenSans-Bold-6f" x="1825.537109"/>
     <use xlink:href="#OpenSans-Bold-6e" x="1887.451172"/>
     <use xlink:href="#OpenSans-Bold-20" x="1953.173828"/>
     <use xlink:href="#OpenSans-Bold-71" x="1979.150391"/>
     <use xlink:href="#OpenSans-Bold-75" x="2042.431641"/>
     <use xlink:href="#OpenSans-Bold-65" x="2108.154297"/>
    </g>
    <!-- solicitaron financiamiento público (excluyendo Ley I+D) -->
    <g style="fill: #37539c" transform="translate(397.029003 46.12203) scale(0.1 -0.1)">
     <use xlink:href="#OpenSans-Bold-73"/>
     <use xlink:href="#OpenSans-Bold-6f" x="49.707031"/>
     <use xlink:href="#OpenSans-Bold-6c" x="111.621094"/>
     <use xlink:href="#OpenSans-Bold-69" x="142.138672"/>
     <use xlink:href="#OpenSans-Bold-63" x="172.65625"/>
     <use xlink:href="#OpenSans-Bold-69" x="224.072266"/>
     <use xlink:href="#OpenSans-Bold-74" x="254.589844"/>
     <use xlink:href="#OpenSans-Bold-61" x="297.998047"/>
     <use xlink:href="#OpenSans-Bold-72" x="358.398438"/>
     <use xlink:href="#OpenSans-Bold-6f" x="403.808594"/>
     <use xlink:href="#OpenSans-Bold-6e" x="465.722656"/>
     <use xlink:href="#OpenSans-Bold-20" x="531.445312"/>
     <use xlink:href="#OpenSans-Bold-66" x="557.421875"/>
     <use xlink:href="#OpenSans-Bold-69" x="596.142578"/>
     <use xlink:href="#OpenSans-Bold-6e" x="626.660156"/>
     <use xlink:href="#OpenSans-Bold-61" x="692.382812"/>
     <use xlink:href="#OpenSans-Bold-6e" x="752.783203"/>
     <use xlink:href="#OpenSans-Bold-63" x="818.505859"/>
     <use xlink:href="#OpenSans-Bold-69" x="869.921875"/>
     <use xlink:href="#OpenSans-Bold-61" x="900.439453"/>
     <use xlink:href="#OpenSans-Bold-6d" x="960.839844"/>
     <use xlink:href="#OpenSans-Bold-69" x="1059.033203"/>
     <use xlink:href="#OpenSans-Bold-65" x="1089.550781"/>
     <use xlink:href="#OpenSans-Bold-6e" x="1148.632812"/>
     <use xlink:href="#OpenSans-Bold-74" x="1214.355469"/>
     <use xlink:href="#OpenSans-Bold-6f" x="1257.763672"/>
     <use xlink:href="#OpenSans-Bold-20" x="1319.677734"/>
     <use xlink:href="#OpenSans-Bold-70" x="1345.654297"/>
     <use xlink:href="#OpenSans-Bold-fa" x="1408.935547"/>
     <use xlink:href="#OpenSans-Bold-62" x="1474.658203"/>
     <use xlink:href="#OpenSans-Bold-6c" x="1537.939453"/>
     <use xlink:href="#OpenSans-Bold-69" x="1568.457031"/>
     <use xlink:href="#OpenSans-Bold-63" x="1598.974609"/>
     <use xlink:href="#OpenSans-Bold-6f" x="1650.390625"/>
     <use xlink:href="#OpenSans-Bold-20" x="1712.304688"/>
     <use xlink:href="#OpenSans-Bold-28" x="1738.28125"/>
     <use xlink:href="#OpenSans-Bold-65" x="1772.167969"/>
     <use xlink:href="#OpenSans-Bold-78" x="1831.25"/>
     <use xlink:href="#OpenSans-Bold-63" x="1889.0625"/>
     <use xlink:href="#OpenSans-Bold-6c" x="1940.478516"/>
     <use xlink:href="#OpenSans-Bold-75" x="1970.996094"/>
     <use xlink:href="#OpenSans-Bold-79" x="2036.71875"/>
     <use xlink:href="#OpenSans-Bold-65" x="2093.603516"/>
     <use xlink:href="#OpenSans-Bold-6e" x="2152.685547"/>
     <use xlink:href="#OpenSans-Bold-64" x="2218.408203"/>
     <use xlink:href="#OpenSans-Bold-6f" x="2281.689453"/>
     <use xlink:href="#OpenSans-Bold-20" x="2343.603516"/>
     <use xlink:href="#OpenSans-Bold-4c" x="2369.580078"/>
     <use xlink:href="#OpenSans-Bold-65" x="2426.074219"/>
     <use xlink:href="#OpenSans-Bold-79" x="2485.15625"/>
     <use xlink:href="#OpenSans-Bold-20" x="2542.041016"/>
     <use xlink:href="#OpenSans-Bold-49" x="2568.017578"/>
     <use xlink:href="#OpenSans-Bold-2b" x="2601.123047"/>
     <use xlink:href="#OpenSans-Bold-44" x="2658.300781"/>
     <use xlink:href="#OpenSans-Bold-29" x="2732.324219"/>
    </g>
    <!-- Período 2019-2020 -->
    <g style="fill: #37539c" transform="translate(490.320409 57.64328) scale(0.1 -0.1)">
     <use xlink:href="#OpenSans-Bold-50"/>
     <use xlink:href="#OpenSans-Bold-65" x="62.792969"/>
     <use xlink:href="#OpenSans-Bold-72" x="121.875"/>
     <use xlink:href="#OpenSans-Bold-ed" x="167.285156"/>
     <use xlink:href="#OpenSans-Bold-6f" x="197.802734"/>
     <use xlink:href="#OpenSans-Bold-64" x="259.716797"/>
     <use xlink:href="#OpenSans-Bold-6f" x="322.998047"/>
     <use xlink:href="#OpenSans-Bold-20" x="384.912109"/>
     <use xlink:href="#OpenSans-Bold-32" x="410.888672"/>
     <use xlink:href="#OpenSans-Bold-30" x="468.066406"/>
     <use xlink:href="#OpenSans-Bold-31" x="525.244141"/>
     <use xlink:href="#OpenSans-Bold-39" x="582.421875"/>
     <use xlink:href="#OpenSans-Bold-2d" x="639.599609"/>
     <use xlink:href="#OpenSans-Bold-32" x="671.777344"/>
     <use xlink:href="#OpenSans-Bold-30" x="728.955078"/>
     <use xlink:href="#OpenSans-Bold-32" x="786.132812"/>
     <use xlink:href="#OpenSans-Bold-30" x="843.310547"/>
    </g>
   </g>
  </g>
 </g>
</svg>
