<?xml version="1.0" encoding="utf-8" standalone="no"?>
<!DOCTYPE svg PUBLIC "-//W3C//DTD SVG 1.1//EN"
  "http://www.w3.org/Graphics/SVG/1.1/DTD/svg11.dtd">
<svg xmlns:xlink="http://www.w3.org/1999/xlink" width="504pt" height="576pt" viewBox="0 0 504 576" xmlns="http://www.w3.org/2000/svg" version="1.1">
 <metadata>
  <rdf:RDF xmlns:dc="http://purl.org/dc/elements/1.1/" xmlns:cc="http://creativecommons.org/ns#" xmlns:rdf="http://www.w3.org/1999/02/22-rdf-syntax-ns#">
   <cc:Work>
    <dc:type rdf:resource="http://purl.org/dc/dcmitype/StillImage"/>
    <dc:date>2024-02-26T21:22:15.212708</dc:date>
    <dc:format>image/svg+xml</dc:format>
    <dc:creator>
     <cc:Agent>
      <dc:title>Matplotlib v3.7.1, https://matplotlib.org/</dc:title>
     </cc:Agent>
    </dc:creator>
   </cc:Work>
  </rdf:RDF>
 </metadata>
 <defs>
  <style type="text/css">*{stroke-linejoin: round; stroke-linecap: butt}</style>
 </defs>
 <g id="figure_1">
  <g id="patch_1">
   <path d="M 0 576 
L 504 576 
L 504 0 
L 0 0 
z
" style="fill: #ffffff"/>
  </g>
  <g id="axes_1">
   <g id="patch_2">
    <path d="M 92.36 534.04 
L 493.2 534.04 
L 493.2 10.8 
L 92.36 10.8 
z
" style="fill: #ffffff"/>
   </g>
   <g id="matplotlib.axis_1">
    <g id="xtick_1">
     <g id="line2d_1">
      <path d="M 92.36 534.04 
L 92.36 10.8 
" clip-path="url(#p359f42a7ff)" style="fill: none; stroke-dasharray: 2.96,1.28; stroke-dashoffset: 0; stroke: #b0b0b0; stroke-width: 0.8"/>
     </g>
     <g id="line2d_2">
      <defs>
       <path id="mf477564a57" d="M 0 0 
L 0 3.5 
" style="stroke: #37539c; stroke-width: 0.8"/>
      </defs>
      <g>
       <use xlink:href="#mf477564a57" x="92.36" y="534.04" style="fill: #37539c; stroke: #37539c; stroke-width: 0.8"/>
      </g>
     </g>
     <g id="text_1">
      <!-- 0.00 -->
      <g style="fill: #37539c" transform="translate(82.358438 548.638438) scale(0.1 -0.1)">
       <defs>
        <path id="OpenSans-Bold-30" d="M 3425 2284 
Q 3425 1731 3339 1297 
Q 3253 863 3064 559 
Q 2875 256 2569 96 
Q 2263 -63 1825 -63 
Q 1275 -63 922 217 
Q 569 497 400 1023 
Q 231 1550 231 2284 
Q 231 3025 386 3551 
Q 541 4078 891 4359 
Q 1241 4641 1825 4641 
Q 2372 4641 2726 4361 
Q 3081 4081 3253 3554 
Q 3425 3028 3425 2284 
z
M 1191 2284 
Q 1191 1763 1248 1414 
Q 1306 1066 1443 891 
Q 1581 716 1825 716 
Q 2066 716 2205 889 
Q 2344 1063 2403 1411 
Q 2463 1759 2463 2284 
Q 2463 2806 2403 3156 
Q 2344 3506 2205 3682 
Q 2066 3859 1825 3859 
Q 1581 3859 1443 3682 
Q 1306 3506 1248 3156 
Q 1191 2806 1191 2284 
z
" transform="scale(0.015625)"/>
        <path id="OpenSans-Bold-2e" d="M 366 447 
Q 366 741 527 859 
Q 688 978 916 978 
Q 1138 978 1298 859 
Q 1459 741 1459 447 
Q 1459 166 1298 41 
Q 1138 -84 916 -84 
Q 688 -84 527 41 
Q 366 166 366 447 
z
" transform="scale(0.015625)"/>
       </defs>
       <use xlink:href="#OpenSans-Bold-30"/>
       <use xlink:href="#OpenSans-Bold-2e" x="57.177734"/>
       <use xlink:href="#OpenSans-Bold-30" x="85.693359"/>
       <use xlink:href="#OpenSans-Bold-30" x="142.871094"/>
      </g>
     </g>
    </g>
    <g id="xtick_2">
     <g id="line2d_3">
      <path d="M 133.854824 534.04 
L 133.854824 10.8 
" clip-path="url(#p359f42a7ff)" style="fill: none; stroke-dasharray: 2.96,1.28; stroke-dashoffset: 0; stroke: #b0b0b0; stroke-width: 0.8"/>
     </g>
     <g id="line2d_4">
      <g>
       <use xlink:href="#mf477564a57" x="133.854824" y="534.04" style="fill: #37539c; stroke: #37539c; stroke-width: 0.8"/>
      </g>
     </g>
     <g id="text_2">
      <!-- 0.05 -->
      <g style="fill: #37539c" transform="translate(123.853262 548.638438) scale(0.1 -0.1)">
       <defs>
        <path id="OpenSans-Bold-35" d="M 1919 2919 
Q 2338 2919 2664 2759 
Q 2991 2600 3178 2290 
Q 3366 1981 3366 1528 
Q 3366 1034 3161 676 
Q 2956 319 2551 128 
Q 2147 -63 1544 -63 
Q 1184 -63 867 -2 
Q 550 59 313 184 
L 313 1019 
Q 550 894 883 808 
Q 1216 722 1509 722 
Q 1797 722 1994 798 
Q 2191 875 2292 1036 
Q 2394 1197 2394 1447 
Q 2394 1781 2169 1959 
Q 1944 2138 1478 2138 
Q 1300 2138 1108 2103 
Q 916 2069 788 2034 
L 403 2241 
L 575 4569 
L 3053 4569 
L 3053 3750 
L 1422 3750 
L 1338 2853 
Q 1444 2875 1569 2897 
Q 1694 2919 1919 2919 
z
" transform="scale(0.015625)"/>
       </defs>
       <use xlink:href="#OpenSans-Bold-30"/>
       <use xlink:href="#OpenSans-Bold-2e" x="57.177734"/>
       <use xlink:href="#OpenSans-Bold-30" x="85.693359"/>
       <use xlink:href="#OpenSans-Bold-35" x="142.871094"/>
      </g>
     </g>
    </g>
    <g id="xtick_3">
     <g id="line2d_5">
      <path d="M 175.349648 534.04 
L 175.349648 10.8 
" clip-path="url(#p359f42a7ff)" style="fill: none; stroke-dasharray: 2.96,1.28; stroke-dashoffset: 0; stroke: #b0b0b0; stroke-width: 0.8"/>
     </g>
     <g id="line2d_6">
      <g>
       <use xlink:href="#mf477564a57" x="175.349648" y="534.04" style="fill: #37539c; stroke: #37539c; stroke-width: 0.8"/>
      </g>
     </g>
     <g id="text_3">
      <!-- 0.10 -->
      <g style="fill: #37539c" transform="translate(165.348086 548.638438) scale(0.1 -0.1)">
       <defs>
        <path id="OpenSans-Bold-31" d="M 2644 0 
L 1678 0 
L 1678 2644 
Q 1678 2753 1681 2914 
Q 1684 3075 1690 3245 
Q 1697 3416 1703 3553 
Q 1669 3513 1564 3414 
Q 1459 3316 1369 3238 
L 844 2816 
L 378 3397 
L 1850 4569 
L 2644 4569 
L 2644 0 
z
" transform="scale(0.015625)"/>
       </defs>
       <use xlink:href="#OpenSans-Bold-30"/>
       <use xlink:href="#OpenSans-Bold-2e" x="57.177734"/>
       <use xlink:href="#OpenSans-Bold-31" x="85.693359"/>
       <use xlink:href="#OpenSans-Bold-30" x="142.871094"/>
      </g>
     </g>
    </g>
    <g id="xtick_4">
     <g id="line2d_7">
      <path d="M 216.844472 534.04 
L 216.844472 10.8 
" clip-path="url(#p359f42a7ff)" style="fill: none; stroke-dasharray: 2.96,1.28; stroke-dashoffset: 0; stroke: #b0b0b0; stroke-width: 0.8"/>
     </g>
     <g id="line2d_8">
      <g>
       <use xlink:href="#mf477564a57" x="216.844472" y="534.04" style="fill: #37539c; stroke: #37539c; stroke-width: 0.8"/>
      </g>
     </g>
     <g id="text_4">
      <!-- 0.15 -->
      <g style="fill: #37539c" transform="translate(206.84291 548.638438) scale(0.1 -0.1)">
       <use xlink:href="#OpenSans-Bold-30"/>
       <use xlink:href="#OpenSans-Bold-2e" x="57.177734"/>
       <use xlink:href="#OpenSans-Bold-31" x="85.693359"/>
       <use xlink:href="#OpenSans-Bold-35" x="142.871094"/>
      </g>
     </g>
    </g>
    <g id="xtick_5">
     <g id="line2d_9">
      <path d="M 258.339296 534.04 
L 258.339296 10.8 
" clip-path="url(#p359f42a7ff)" style="fill: none; stroke-dasharray: 2.96,1.28; stroke-dashoffset: 0; stroke: #b0b0b0; stroke-width: 0.8"/>
     </g>
     <g id="line2d_10">
      <g>
       <use xlink:href="#mf477564a57" x="258.339296" y="534.04" style="fill: #37539c; stroke: #37539c; stroke-width: 0.8"/>
      </g>
     </g>
     <g id="text_5">
      <!-- 0.20 -->
      <g style="fill: #37539c" transform="translate(248.337734 548.638438) scale(0.1 -0.1)">
       <defs>
        <path id="OpenSans-Bold-32" d="M 3450 0 
L 256 0 
L 256 672 
L 1403 1831 
Q 1750 2188 1961 2427 
Q 2172 2666 2267 2862 
Q 2363 3059 2363 3284 
Q 2363 3556 2211 3692 
Q 2059 3828 1806 3828 
Q 1541 3828 1291 3706 
Q 1041 3584 769 3359 
L 244 3981 
Q 441 4150 661 4300 
Q 881 4450 1173 4542 
Q 1466 4634 1875 4634 
Q 2325 4634 2648 4471 
Q 2972 4309 3147 4029 
Q 3322 3750 3322 3397 
Q 3322 3019 3172 2706 
Q 3022 2394 2736 2087 
Q 2450 1781 2047 1409 
L 1459 856 
L 1459 813 
L 3450 813 
L 3450 0 
z
" transform="scale(0.015625)"/>
       </defs>
       <use xlink:href="#OpenSans-Bold-30"/>
       <use xlink:href="#OpenSans-Bold-2e" x="57.177734"/>
       <use xlink:href="#OpenSans-Bold-32" x="85.693359"/>
       <use xlink:href="#OpenSans-Bold-30" x="142.871094"/>
      </g>
     </g>
    </g>
    <g id="xtick_6">
     <g id="line2d_11">
      <path d="M 299.83412 534.04 
L 299.83412 10.8 
" clip-path="url(#p359f42a7ff)" style="fill: none; stroke-dasharray: 2.96,1.28; stroke-dashoffset: 0; stroke: #b0b0b0; stroke-width: 0.8"/>
     </g>
     <g id="line2d_12">
      <g>
       <use xlink:href="#mf477564a57" x="299.83412" y="534.04" style="fill: #37539c; stroke: #37539c; stroke-width: 0.8"/>
      </g>
     </g>
     <g id="text_6">
      <!-- 0.25 -->
      <g style="fill: #37539c" transform="translate(289.832558 548.638438) scale(0.1 -0.1)">
       <use xlink:href="#OpenSans-Bold-30"/>
       <use xlink:href="#OpenSans-Bold-2e" x="57.177734"/>
       <use xlink:href="#OpenSans-Bold-32" x="85.693359"/>
       <use xlink:href="#OpenSans-Bold-35" x="142.871094"/>
      </g>
     </g>
    </g>
    <g id="xtick_7">
     <g id="line2d_13">
      <path d="M 341.328944 534.04 
L 341.328944 10.8 
" clip-path="url(#p359f42a7ff)" style="fill: none; stroke-dasharray: 2.96,1.28; stroke-dashoffset: 0; stroke: #b0b0b0; stroke-width: 0.8"/>
     </g>
     <g id="line2d_14">
      <g>
       <use xlink:href="#mf477564a57" x="341.328944" y="534.04" style="fill: #37539c; stroke: #37539c; stroke-width: 0.8"/>
      </g>
     </g>
     <g id="text_7">
      <!-- 0.30 -->
      <g style="fill: #37539c" transform="translate(331.327382 548.638438) scale(0.1 -0.1)">
       <defs>
        <path id="OpenSans-Bold-33" d="M 3272 3547 
Q 3272 3231 3140 3000 
Q 3009 2769 2786 2622 
Q 2563 2475 2284 2406 
L 2284 2388 
Q 2834 2319 3120 2050 
Q 3406 1781 3406 1331 
Q 3406 931 3211 615 
Q 3016 300 2609 118 
Q 2203 -63 1563 -63 
Q 1184 -63 857 -2 
Q 531 59 244 184 
L 244 1006 
Q 538 856 859 779 
Q 1181 703 1459 703 
Q 1978 703 2186 883 
Q 2394 1063 2394 1388 
Q 2394 1578 2297 1709 
Q 2200 1841 1961 1909 
Q 1722 1978 1294 1978 
L 947 1978 
L 947 2719 
L 1300 2719 
Q 1722 2719 1942 2798 
Q 2163 2878 2242 3017 
Q 2322 3156 2322 3334 
Q 2322 3578 2172 3715 
Q 2022 3853 1672 3853 
Q 1453 3853 1273 3798 
Q 1094 3744 950 3667 
Q 806 3591 697 3519 
L 250 4184 
Q 519 4378 880 4506 
Q 1241 4634 1741 4634 
Q 2447 4634 2859 4350 
Q 3272 4066 3272 3547 
z
" transform="scale(0.015625)"/>
       </defs>
       <use xlink:href="#OpenSans-Bold-30"/>
       <use xlink:href="#OpenSans-Bold-2e" x="57.177734"/>
       <use xlink:href="#OpenSans-Bold-33" x="85.693359"/>
       <use xlink:href="#OpenSans-Bold-30" x="142.871094"/>
      </g>
     </g>
    </g>
    <g id="xtick_8">
     <g id="line2d_15">
      <path d="M 382.823768 534.04 
L 382.823768 10.8 
" clip-path="url(#p359f42a7ff)" style="fill: none; stroke-dasharray: 2.96,1.28; stroke-dashoffset: 0; stroke: #b0b0b0; stroke-width: 0.8"/>
     </g>
     <g id="line2d_16">
      <g>
       <use xlink:href="#mf477564a57" x="382.823768" y="534.04" style="fill: #37539c; stroke: #37539c; stroke-width: 0.8"/>
      </g>
     </g>
     <g id="text_8">
      <!-- 0.35 -->
      <g style="fill: #37539c" transform="translate(372.822206 548.638438) scale(0.1 -0.1)">
       <use xlink:href="#OpenSans-Bold-30"/>
       <use xlink:href="#OpenSans-Bold-2e" x="57.177734"/>
       <use xlink:href="#OpenSans-Bold-33" x="85.693359"/>
       <use xlink:href="#OpenSans-Bold-35" x="142.871094"/>
      </g>
     </g>
    </g>
    <g id="xtick_9">
     <g id="line2d_17">
      <path d="M 424.318592 534.04 
L 424.318592 10.8 
" clip-path="url(#p359f42a7ff)" style="fill: none; stroke-dasharray: 2.96,1.28; stroke-dashoffset: 0; stroke: #b0b0b0; stroke-width: 0.8"/>
     </g>
     <g id="line2d_18">
      <g>
       <use xlink:href="#mf477564a57" x="424.318592" y="534.04" style="fill: #37539c; stroke: #37539c; stroke-width: 0.8"/>
      </g>
     </g>
     <g id="text_9">
      <!-- 0.40 -->
      <g style="fill: #37539c" transform="translate(414.31703 548.638438) scale(0.1 -0.1)">
       <defs>
        <path id="OpenSans-Bold-34" d="M 3553 947 
L 3003 947 
L 3003 0 
L 2059 0 
L 2059 947 
L 109 947 
L 109 1619 
L 2113 4569 
L 3003 4569 
L 3003 1697 
L 3553 1697 
L 3553 947 
z
M 2059 1697 
L 2059 2472 
Q 2059 2581 2064 2731 
Q 2069 2881 2075 3031 
Q 2081 3181 2089 3298 
Q 2097 3416 2100 3463 
L 2075 3463 
Q 2016 3334 1950 3214 
Q 1884 3094 1797 2963 
L 959 1697 
L 2059 1697 
z
" transform="scale(0.015625)"/>
       </defs>
       <use xlink:href="#OpenSans-Bold-30"/>
       <use xlink:href="#OpenSans-Bold-2e" x="57.177734"/>
       <use xlink:href="#OpenSans-Bold-34" x="85.693359"/>
       <use xlink:href="#OpenSans-Bold-30" x="142.871094"/>
      </g>
     </g>
    </g>
    <g id="xtick_10">
     <g id="line2d_19">
      <path d="M 465.813416 534.04 
L 465.813416 10.8 
" clip-path="url(#p359f42a7ff)" style="fill: none; stroke-dasharray: 2.96,1.28; stroke-dashoffset: 0; stroke: #b0b0b0; stroke-width: 0.8"/>
     </g>
     <g id="line2d_20">
      <g>
       <use xlink:href="#mf477564a57" x="465.813416" y="534.04" style="fill: #37539c; stroke: #37539c; stroke-width: 0.8"/>
      </g>
     </g>
     <g id="text_10">
      <!-- 0.45 -->
      <g style="fill: #37539c" transform="translate(455.811854 548.638438) scale(0.1 -0.1)">
       <use xlink:href="#OpenSans-Bold-30"/>
       <use xlink:href="#OpenSans-Bold-2e" x="57.177734"/>
       <use xlink:href="#OpenSans-Bold-34" x="85.693359"/>
       <use xlink:href="#OpenSans-Bold-35" x="142.871094"/>
      </g>
     </g>
    </g>
    <g id="text_11">
     <!-- Porcentaje respecto al PIB -->
     <g style="fill: #37539c" transform="translate(227.529219 562.64) scale(0.1 -0.1)">
      <defs>
       <path id="OpenSans-Bold-50" d="M 2034 4569 
Q 2919 4569 3325 4189 
Q 3731 3809 3731 3144 
Q 3731 2844 3640 2570 
Q 3550 2297 3345 2084 
Q 3141 1872 2800 1748 
Q 2459 1625 1959 1625 
L 1544 1625 
L 1544 0 
L 575 0 
L 575 4569 
L 2034 4569 
z
M 1984 3775 
L 1544 3775 
L 1544 2419 
L 1863 2419 
Q 2134 2419 2334 2491 
Q 2534 2563 2643 2716 
Q 2753 2869 2753 3109 
Q 2753 3447 2565 3611 
Q 2378 3775 1984 3775 
z
" transform="scale(0.015625)"/>
       <path id="OpenSans-Bold-6f" d="M 3675 1753 
Q 3675 1316 3558 978 
Q 3441 641 3217 408 
Q 2994 175 2680 56 
Q 2366 -63 1972 -63 
Q 1603 -63 1295 56 
Q 988 175 761 408 
Q 534 641 411 978 
Q 288 1316 288 1753 
Q 288 2334 494 2737 
Q 700 3141 1081 3350 
Q 1463 3559 1991 3559 
Q 2481 3559 2861 3350 
Q 3241 3141 3458 2737 
Q 3675 2334 3675 1753 
z
M 1259 1753 
Q 1259 1409 1334 1175 
Q 1409 941 1568 822 
Q 1728 703 1984 703 
Q 2238 703 2395 822 
Q 2553 941 2626 1175 
Q 2700 1409 2700 1753 
Q 2700 2100 2626 2329 
Q 2553 2559 2393 2675 
Q 2234 2791 1978 2791 
Q 1600 2791 1429 2531 
Q 1259 2272 1259 1753 
z
" transform="scale(0.015625)"/>
       <path id="OpenSans-Bold-72" d="M 2450 3559 
Q 2522 3559 2617 3551 
Q 2713 3544 2772 3531 
L 2700 2638 
Q 2653 2653 2567 2661 
Q 2481 2669 2419 2669 
Q 2234 2669 2061 2622 
Q 1888 2575 1750 2470 
Q 1613 2366 1533 2195 
Q 1453 2025 1453 1778 
L 1453 0 
L 500 0 
L 500 3494 
L 1222 3494 
L 1363 2906 
L 1409 2906 
Q 1513 3084 1667 3232 
Q 1822 3381 2020 3470 
Q 2219 3559 2450 3559 
z
" transform="scale(0.015625)"/>
       <path id="OpenSans-Bold-63" d="M 1919 -63 
Q 1400 -63 1034 126 
Q 669 316 478 712 
Q 288 1109 288 1728 
Q 288 2369 505 2773 
Q 722 3178 1108 3368 
Q 1494 3559 2003 3559 
Q 2366 3559 2630 3489 
Q 2894 3419 3091 3322 
L 2809 2584 
Q 2584 2675 2390 2733 
Q 2197 2791 2003 2791 
Q 1753 2791 1587 2673 
Q 1422 2556 1340 2322 
Q 1259 2088 1259 1734 
Q 1259 1388 1346 1159 
Q 1434 931 1600 820 
Q 1766 709 2003 709 
Q 2300 709 2531 789 
Q 2763 869 2981 1013 
L 2981 197 
Q 2763 59 2523 -2 
Q 2284 -63 1919 -63 
z
" transform="scale(0.015625)"/>
       <path id="OpenSans-Bold-65" d="M 1941 3559 
Q 2425 3559 2775 3373 
Q 3125 3188 3315 2834 
Q 3506 2481 3506 1972 
L 3506 1509 
L 1253 1509 
Q 1269 1106 1495 876 
Q 1722 647 2125 647 
Q 2459 647 2737 715 
Q 3016 784 3309 922 
L 3309 184 
Q 3050 56 2767 -3 
Q 2484 -63 2081 -63 
Q 1556 -63 1151 131 
Q 747 325 517 722 
Q 288 1119 288 1722 
Q 288 2334 495 2742 
Q 703 3150 1075 3354 
Q 1447 3559 1941 3559 
z
M 1947 2881 
Q 1669 2881 1486 2703 
Q 1303 2525 1275 2144 
L 2613 2144 
Q 2609 2356 2536 2522 
Q 2463 2688 2317 2784 
Q 2172 2881 1947 2881 
z
" transform="scale(0.015625)"/>
       <path id="OpenSans-Bold-6e" d="M 2484 3559 
Q 3044 3559 3384 3254 
Q 3725 2950 3725 2278 
L 3725 0 
L 2772 0 
L 2772 2041 
Q 2772 2416 2636 2606 
Q 2500 2797 2209 2797 
Q 1772 2797 1612 2500 
Q 1453 2203 1453 1644 
L 1453 0 
L 500 0 
L 500 3494 
L 1228 3494 
L 1356 3047 
L 1409 3047 
Q 1522 3228 1689 3340 
Q 1856 3453 2061 3506 
Q 2266 3559 2484 3559 
z
" transform="scale(0.015625)"/>
       <path id="OpenSans-Bold-74" d="M 1972 697 
Q 2128 697 2276 728 
Q 2425 759 2572 806 
L 2572 97 
Q 2419 28 2192 -17 
Q 1966 -63 1697 -63 
Q 1384 -63 1136 39 
Q 888 141 745 392 
Q 603 644 603 1094 
L 603 2778 
L 147 2778 
L 147 3181 
L 672 3500 
L 947 4238 
L 1556 4238 
L 1556 3494 
L 2534 3494 
L 2534 2778 
L 1556 2778 
L 1556 1094 
Q 1556 894 1670 795 
Q 1784 697 1972 697 
z
" transform="scale(0.015625)"/>
       <path id="OpenSans-Bold-61" d="M 1931 3566 
Q 2634 3566 3009 3259 
Q 3384 2953 3384 2328 
L 3384 0 
L 2719 0 
L 2534 475 
L 2509 475 
Q 2359 288 2203 169 
Q 2047 50 1844 -6 
Q 1641 -63 1350 -63 
Q 1041 -63 795 56 
Q 550 175 409 420 
Q 269 666 269 1044 
Q 269 1600 659 1864 
Q 1050 2128 1831 2156 
L 2438 2175 
L 2438 2328 
Q 2438 2603 2294 2731 
Q 2150 2859 1894 2859 
Q 1641 2859 1397 2787 
Q 1153 2716 909 2606 
L 594 3250 
Q 872 3397 1217 3481 
Q 1563 3566 1931 3566 
z
M 2438 1619 
L 2069 1606 
Q 1606 1594 1426 1441 
Q 1247 1288 1247 1038 
Q 1247 819 1375 726 
Q 1503 634 1709 634 
Q 2016 634 2227 815 
Q 2438 997 2438 1331 
L 2438 1619 
z
" transform="scale(0.015625)"/>
       <path id="OpenSans-Bold-6a" d="M 219 -1538 
Q 56 -1538 -119 -1514 
Q -294 -1491 -409 -1459 
L -409 -709 
Q -294 -741 -192 -755 
Q -91 -769 38 -769 
Q 231 -769 365 -661 
Q 500 -553 500 -238 
L 500 3494 
L 1453 3494 
L 1453 -378 
Q 1453 -697 1331 -961 
Q 1209 -1225 937 -1381 
Q 666 -1538 219 -1538 
z
M 459 4397 
Q 459 4666 611 4764 
Q 763 4863 978 4863 
Q 1191 4863 1344 4764 
Q 1497 4666 1497 4397 
Q 1497 4131 1344 4029 
Q 1191 3928 978 3928 
Q 763 3928 611 4029 
Q 459 4131 459 4397 
z
" transform="scale(0.015625)"/>
       <path id="OpenSans-Bold-20" transform="scale(0.015625)"/>
       <path id="OpenSans-Bold-73" d="M 2938 1038 
Q 2938 681 2770 436 
Q 2603 191 2272 64 
Q 1941 -63 1447 -63 
Q 1081 -63 820 -16 
Q 559 31 294 141 
L 294 928 
Q 578 800 904 717 
Q 1231 634 1478 634 
Q 1756 634 1876 717 
Q 1997 800 1997 934 
Q 1997 1022 1948 1092 
Q 1900 1163 1740 1252 
Q 1581 1341 1241 1484 
Q 913 1622 702 1762 
Q 491 1903 389 2095 
Q 288 2288 288 2584 
Q 288 3069 664 3314 
Q 1041 3559 1672 3559 
Q 1997 3559 2292 3493 
Q 2588 3428 2900 3284 
L 2613 2597 
Q 2353 2709 2123 2781 
Q 1894 2853 1656 2853 
Q 1447 2853 1340 2797 
Q 1234 2741 1234 2625 
Q 1234 2541 1289 2475 
Q 1344 2409 1501 2329 
Q 1659 2250 1966 2125 
Q 2263 2003 2481 1870 
Q 2700 1738 2819 1542 
Q 2938 1347 2938 1038 
z
" transform="scale(0.015625)"/>
       <path id="OpenSans-Bold-70" d="M 2444 3559 
Q 3034 3559 3398 3100 
Q 3763 2641 3763 1753 
Q 3763 1159 3591 754 
Q 3419 350 3116 143 
Q 2813 -63 2419 -63 
Q 2166 -63 1984 1 
Q 1803 66 1675 167 
Q 1547 269 1453 384 
L 1403 384 
Q 1428 259 1440 128 
Q 1453 -3 1453 -128 
L 1453 -1538 
L 500 -1538 
L 500 3494 
L 1275 3494 
L 1409 3041 
L 1453 3041 
Q 1547 3181 1681 3300 
Q 1816 3419 2005 3489 
Q 2194 3559 2444 3559 
z
M 2138 2797 
Q 1888 2797 1741 2694 
Q 1594 2591 1526 2384 
Q 1459 2178 1453 1863 
L 1453 1759 
Q 1453 1422 1517 1187 
Q 1581 953 1732 831 
Q 1884 709 2150 709 
Q 2369 709 2509 831 
Q 2650 953 2720 1189 
Q 2791 1425 2791 1766 
Q 2791 2278 2631 2537 
Q 2472 2797 2138 2797 
z
" transform="scale(0.015625)"/>
       <path id="OpenSans-Bold-6c" d="M 1453 0 
L 500 0 
L 500 4863 
L 1453 4863 
L 1453 0 
z
" transform="scale(0.015625)"/>
       <path id="OpenSans-Bold-49" d="M 575 0 
L 575 4569 
L 1544 4569 
L 1544 0 
L 575 0 
z
" transform="scale(0.015625)"/>
       <path id="OpenSans-Bold-42" d="M 575 4569 
L 1997 4569 
Q 2909 4569 3378 4312 
Q 3847 4056 3847 3413 
Q 3847 3153 3764 2943 
Q 3681 2734 3525 2600 
Q 3369 2466 3144 2425 
L 3144 2394 
Q 3372 2347 3556 2233 
Q 3741 2119 3852 1901 
Q 3963 1684 3963 1325 
Q 3963 909 3759 612 
Q 3556 316 3179 158 
Q 2803 0 2284 0 
L 575 0 
L 575 4569 
z
M 1544 2759 
L 2106 2759 
Q 2528 2759 2690 2892 
Q 2853 3025 2853 3284 
Q 2853 3547 2661 3661 
Q 2469 3775 2053 3775 
L 1544 3775 
L 1544 2759 
z
M 1544 1991 
L 1544 800 
L 2175 800 
Q 2613 800 2784 969 
Q 2956 1138 2956 1422 
Q 2956 1591 2881 1719 
Q 2806 1847 2629 1919 
Q 2453 1991 2144 1991 
L 1544 1991 
z
" transform="scale(0.015625)"/>
      </defs>
      <use xlink:href="#OpenSans-Bold-50"/>
      <use xlink:href="#OpenSans-Bold-6f" x="62.792969"/>
      <use xlink:href="#OpenSans-Bold-72" x="124.707031"/>
      <use xlink:href="#OpenSans-Bold-63" x="170.117188"/>
      <use xlink:href="#OpenSans-Bold-65" x="221.533203"/>
      <use xlink:href="#OpenSans-Bold-6e" x="280.615234"/>
      <use xlink:href="#OpenSans-Bold-74" x="346.337891"/>
      <use xlink:href="#OpenSans-Bold-61" x="389.746094"/>
      <use xlink:href="#OpenSans-Bold-6a" x="450.146484"/>
      <use xlink:href="#OpenSans-Bold-65" x="480.664062"/>
      <use xlink:href="#OpenSans-Bold-20" x="539.746094"/>
      <use xlink:href="#OpenSans-Bold-72" x="565.722656"/>
      <use xlink:href="#OpenSans-Bold-65" x="611.132812"/>
      <use xlink:href="#OpenSans-Bold-73" x="670.214844"/>
      <use xlink:href="#OpenSans-Bold-70" x="719.921875"/>
      <use xlink:href="#OpenSans-Bold-65" x="783.203125"/>
      <use xlink:href="#OpenSans-Bold-63" x="842.285156"/>
      <use xlink:href="#OpenSans-Bold-74" x="893.701172"/>
      <use xlink:href="#OpenSans-Bold-6f" x="937.109375"/>
      <use xlink:href="#OpenSans-Bold-20" x="999.023438"/>
      <use xlink:href="#OpenSans-Bold-61" x="1025"/>
      <use xlink:href="#OpenSans-Bold-6c" x="1085.400391"/>
      <use xlink:href="#OpenSans-Bold-20" x="1115.917969"/>
      <use xlink:href="#OpenSans-Bold-50" x="1141.894531"/>
      <use xlink:href="#OpenSans-Bold-49" x="1204.6875"/>
      <use xlink:href="#OpenSans-Bold-42" x="1237.792969"/>
     </g>
    </g>
   </g>
   <g id="matplotlib.axis_2">
    <g id="ytick_1">
     <g id="line2d_21">
      <defs>
       <path id="m314cdc3e7f" d="M 0 0 
L -3.5 0 
" style="stroke: #37539c; stroke-width: 0.8"/>
      </defs>
      <g>
       <use xlink:href="#m314cdc3e7f" x="92.36" y="527.155263" style="fill: #37539c; stroke: #37539c; stroke-width: 0.8"/>
      </g>
     </g>
     <g id="text_12">
      <!-- Colombia -->
      <g style="fill: #37539c" transform="translate(47.7225 530.194638) scale(0.08 -0.08)">
       <defs>
        <path id="OpenSans-Bold-43" d="M 2516 3828 
Q 2238 3828 2023 3720 
Q 1809 3613 1664 3409 
Q 1519 3206 1444 2918 
Q 1369 2631 1369 2272 
Q 1369 1788 1489 1445 
Q 1609 1103 1862 923 
Q 2116 744 2516 744 
Q 2794 744 3073 806 
Q 3353 869 3681 984 
L 3681 172 
Q 3378 47 3084 -8 
Q 2791 -63 2425 -63 
Q 1719 -63 1264 229 
Q 809 522 590 1048 
Q 372 1575 372 2278 
Q 372 2797 512 3228 
Q 653 3659 925 3975 
Q 1197 4291 1597 4462 
Q 1997 4634 2516 4634 
Q 2856 4634 3198 4548 
Q 3541 4463 3853 4313 
L 3541 3525 
Q 3284 3647 3025 3737 
Q 2766 3828 2516 3828 
z
" transform="scale(0.015625)"/>
        <path id="OpenSans-Bold-6d" d="M 4603 3559 
Q 5197 3559 5501 3254 
Q 5806 2950 5806 2278 
L 5806 0 
L 4850 0 
L 4850 2041 
Q 4850 2416 4722 2606 
Q 4594 2797 4325 2797 
Q 3947 2797 3787 2526 
Q 3628 2256 3628 1753 
L 3628 0 
L 2675 0 
L 2675 2041 
Q 2675 2291 2619 2459 
Q 2563 2628 2447 2712 
Q 2331 2797 2150 2797 
Q 1884 2797 1732 2664 
Q 1581 2531 1517 2273 
Q 1453 2016 1453 1644 
L 1453 0 
L 500 0 
L 500 3494 
L 1228 3494 
L 1356 3047 
L 1409 3047 
Q 1516 3228 1677 3340 
Q 1838 3453 2031 3506 
Q 2225 3559 2425 3559 
Q 2809 3559 3076 3434 
Q 3344 3309 3488 3047 
L 3572 3047 
Q 3728 3316 4014 3437 
Q 4300 3559 4603 3559 
z
" transform="scale(0.015625)"/>
        <path id="OpenSans-Bold-62" d="M 1453 4863 
L 1453 3731 
Q 1453 3534 1442 3340 
Q 1431 3147 1416 3041 
L 1453 3041 
Q 1591 3256 1828 3407 
Q 2066 3559 2444 3559 
Q 3031 3559 3397 3100 
Q 3763 2641 3763 1753 
Q 3763 1156 3594 751 
Q 3425 347 3122 142 
Q 2819 -63 2419 -63 
Q 2034 -63 1812 75 
Q 1591 213 1453 384 
L 1388 384 
L 1228 0 
L 500 0 
L 500 4863 
L 1453 4863 
z
M 2138 2797 
Q 1888 2797 1741 2694 
Q 1594 2591 1526 2384 
Q 1459 2178 1453 1863 
L 1453 1759 
Q 1453 1250 1603 979 
Q 1753 709 2150 709 
Q 2444 709 2617 981 
Q 2791 1253 2791 1766 
Q 2791 2278 2616 2537 
Q 2441 2797 2138 2797 
z
" transform="scale(0.015625)"/>
        <path id="OpenSans-Bold-69" d="M 1453 3494 
L 1453 0 
L 500 0 
L 500 3494 
L 1453 3494 
z
M 978 4863 
Q 1191 4863 1344 4764 
Q 1497 4666 1497 4397 
Q 1497 4131 1344 4029 
Q 1191 3928 978 3928 
Q 763 3928 611 4029 
Q 459 4131 459 4397 
Q 459 4666 611 4764 
Q 763 4863 978 4863 
z
" transform="scale(0.015625)"/>
       </defs>
       <use xlink:href="#OpenSans-Bold-43"/>
       <use xlink:href="#OpenSans-Bold-6f" x="63.720703"/>
       <use xlink:href="#OpenSans-Bold-6c" x="125.634766"/>
       <use xlink:href="#OpenSans-Bold-6f" x="156.152344"/>
       <use xlink:href="#OpenSans-Bold-6d" x="218.066406"/>
       <use xlink:href="#OpenSans-Bold-62" x="316.259766"/>
       <use xlink:href="#OpenSans-Bold-69" x="379.541016"/>
       <use xlink:href="#OpenSans-Bold-61" x="410.058594"/>
      </g>
     </g>
    </g>
    <g id="ytick_2">
     <g id="line2d_22">
      <g>
       <use xlink:href="#m314cdc3e7f" x="92.36" y="513.385789" style="fill: #37539c; stroke: #37539c; stroke-width: 0.8"/>
      </g>
     </g>
     <g id="text_13">
      <!-- Letonia -->
      <g style="fill: #37539c" transform="translate(55.15625 516.425164) scale(0.08 -0.08)">
       <defs>
        <path id="OpenSans-Bold-4c" d="M 575 0 
L 575 4569 
L 1544 4569 
L 1544 800 
L 3397 800 
L 3397 0 
L 575 0 
z
" transform="scale(0.015625)"/>
       </defs>
       <use xlink:href="#OpenSans-Bold-4c"/>
       <use xlink:href="#OpenSans-Bold-65" x="56.494141"/>
       <use xlink:href="#OpenSans-Bold-74" x="115.576172"/>
       <use xlink:href="#OpenSans-Bold-6f" x="158.984375"/>
       <use xlink:href="#OpenSans-Bold-6e" x="220.898438"/>
       <use xlink:href="#OpenSans-Bold-69" x="286.621094"/>
       <use xlink:href="#OpenSans-Bold-61" x="317.138672"/>
      </g>
     </g>
    </g>
    <g id="ytick_3">
     <g id="line2d_23">
      <g>
       <use xlink:href="#m314cdc3e7f" x="92.36" y="499.616316" style="fill: #37539c; stroke: #37539c; stroke-width: 0.8"/>
      </g>
     </g>
     <g id="text_14">
      <!-- México -->
      <g style="fill: #37539c" transform="translate(56.9575 502.655691) scale(0.08 -0.08)">
       <defs>
        <path id="OpenSans-Bold-4d" d="M 2509 0 
L 1409 3584 
L 1381 3584 
Q 1388 3456 1402 3198 
Q 1416 2941 1428 2650 
Q 1441 2359 1441 2125 
L 1441 0 
L 575 0 
L 575 4569 
L 1894 4569 
L 2975 1075 
L 2994 1075 
L 4141 4569 
L 5459 4569 
L 5459 0 
L 4556 0 
L 4556 2163 
Q 4556 2378 4564 2659 
Q 4572 2941 4584 3195 
Q 4597 3450 4603 3578 
L 4575 3578 
L 3397 0 
L 2509 0 
z
" transform="scale(0.015625)"/>
        <path id="OpenSans-Bold-e9" d="M 1941 3559 
Q 2425 3559 2775 3373 
Q 3125 3188 3315 2834 
Q 3506 2481 3506 1972 
L 3506 1509 
L 1253 1509 
Q 1269 1106 1495 876 
Q 1722 647 2125 647 
Q 2459 647 2737 715 
Q 3016 784 3309 922 
L 3309 184 
Q 3050 56 2767 -3 
Q 2484 -63 2081 -63 
Q 1556 -63 1151 131 
Q 747 325 517 722 
Q 288 1119 288 1722 
Q 288 2334 495 2742 
Q 703 3150 1075 3354 
Q 1447 3559 1941 3559 
z
M 1947 2881 
Q 1669 2881 1486 2703 
Q 1303 2525 1275 2144 
L 2613 2144 
Q 2609 2356 2536 2522 
Q 2463 2688 2317 2784 
Q 2172 2881 1947 2881 
z
M 3123 4903 
L 3123 4838 
Q 3033 4750 2886 4622 
Q 2739 4494 2570 4355 
Q 2402 4216 2239 4089 
Q 2077 3963 1955 3878 
L 1320 3878 
L 1320 3963 
Q 1423 4081 1559 4245 
Q 1695 4409 1829 4584 
Q 1964 4759 2055 4903 
L 3123 4903 
z
" transform="scale(0.015625)"/>
        <path id="OpenSans-Bold-78" d="M 1216 1784 
L 91 3494 
L 1172 3494 
L 1850 2381 
L 2534 3494 
L 3616 3494 
L 2478 1784 
L 3669 0 
L 2584 0 
L 1850 1197 
L 1113 0 
L 31 0 
L 1216 1784 
z
" transform="scale(0.015625)"/>
       </defs>
       <use xlink:href="#OpenSans-Bold-4d"/>
       <use xlink:href="#OpenSans-Bold-e9" x="94.287109"/>
       <use xlink:href="#OpenSans-Bold-78" x="153.369141"/>
       <use xlink:href="#OpenSans-Bold-69" x="211.181641"/>
       <use xlink:href="#OpenSans-Bold-63" x="241.699219"/>
       <use xlink:href="#OpenSans-Bold-6f" x="293.115234"/>
      </g>
     </g>
    </g>
    <g id="ytick_4">
     <g id="line2d_24">
      <g>
       <use xlink:href="#m314cdc3e7f" x="92.36" y="485.846842" style="fill: #37539c; stroke: #37539c; stroke-width: 0.8"/>
      </g>
     </g>
     <g id="text_15">
      <!-- Chile -->
      <g style="fill: #37539c" transform="translate(65.39625 488.886217) scale(0.08 -0.08)">
       <defs>
        <path id="OpenSans-Bold-68" d="M 1453 4863 
L 1453 3872 
Q 1453 3613 1436 3378 
Q 1419 3144 1409 3047 
L 1459 3047 
Q 1572 3228 1726 3340 
Q 1881 3453 2068 3506 
Q 2256 3559 2472 3559 
Q 2850 3559 3131 3426 
Q 3413 3294 3569 3011 
Q 3725 2728 3725 2278 
L 3725 0 
L 2772 0 
L 2772 2041 
Q 2772 2416 2634 2606 
Q 2497 2797 2209 2797 
Q 1922 2797 1756 2664 
Q 1591 2531 1522 2273 
Q 1453 2016 1453 1644 
L 1453 0 
L 500 0 
L 500 4863 
L 1453 4863 
z
" transform="scale(0.015625)"/>
       </defs>
       <use xlink:href="#OpenSans-Bold-43"/>
       <use xlink:href="#OpenSans-Bold-68" x="63.720703"/>
       <use xlink:href="#OpenSans-Bold-69" x="129.443359"/>
       <use xlink:href="#OpenSans-Bold-6c" x="159.960938"/>
       <use xlink:href="#OpenSans-Bold-65" x="190.478516"/>
      </g>
     </g>
    </g>
    <g id="ytick_5">
     <g id="line2d_25">
      <g>
       <use xlink:href="#m314cdc3e7f" x="92.36" y="472.077368" style="fill: #37539c; stroke: #37539c; stroke-width: 0.8"/>
      </g>
     </g>
     <g id="text_16">
      <!-- Luxemburgo -->
      <g style="fill: #37539c" transform="translate(34.95 475.116743) scale(0.08 -0.08)">
       <defs>
        <path id="OpenSans-Bold-75" d="M 3706 3494 
L 3706 0 
L 2975 0 
L 2847 447 
L 2797 447 
Q 2684 269 2515 156 
Q 2347 44 2144 -9 
Q 1941 -63 1722 -63 
Q 1347 -63 1069 70 
Q 791 203 636 484 
Q 481 766 481 1216 
L 481 3494 
L 1434 3494 
L 1434 1453 
Q 1434 1078 1568 887 
Q 1703 697 1997 697 
Q 2288 697 2453 830 
Q 2619 963 2686 1220 
Q 2753 1478 2753 1850 
L 2753 3494 
L 3706 3494 
z
" transform="scale(0.015625)"/>
        <path id="OpenSans-Bold-67" d="M 1522 -1538 
Q 791 -1538 405 -1283 
Q 19 -1028 19 -569 
Q 19 -253 216 -40 
Q 413 172 794 263 
Q 647 325 537 467 
Q 428 609 428 769 
Q 428 969 543 1101 
Q 659 1234 878 1363 
Q 603 1481 442 1743 
Q 281 2006 281 2363 
Q 281 2744 448 3011 
Q 616 3278 936 3418 
Q 1256 3559 1716 3559 
Q 1813 3559 1941 3546 
Q 2069 3534 2176 3518 
Q 2284 3503 2322 3494 
L 3541 3494 
L 3541 3009 
L 2994 2869 
Q 3069 2753 3106 2622 
Q 3144 2491 3144 2344 
Q 3144 1781 2751 1467 
Q 2359 1153 1663 1153 
Q 1497 1163 1350 1178 
Q 1278 1122 1240 1059 
Q 1203 997 1203 928 
Q 1203 859 1261 814 
Q 1319 769 1436 745 
Q 1553 722 1728 722 
L 2322 722 
Q 2897 722 3198 475 
Q 3500 228 3500 -250 
Q 3500 -863 2989 -1200 
Q 2478 -1538 1522 -1538 
z
M 1563 -916 
Q 1903 -916 2148 -852 
Q 2394 -788 2525 -670 
Q 2656 -553 2656 -391 
Q 2656 -259 2579 -182 
Q 2503 -106 2348 -75 
Q 2194 -44 1953 -44 
L 1459 -44 
Q 1284 -44 1145 -100 
Q 1006 -156 925 -257 
Q 844 -359 844 -494 
Q 844 -691 1033 -803 
Q 1222 -916 1563 -916 
z
M 1716 1734 
Q 1984 1734 2109 1900 
Q 2234 2066 2234 2350 
Q 2234 2666 2104 2823 
Q 1975 2981 1716 2981 
Q 1453 2981 1322 2823 
Q 1191 2666 1191 2350 
Q 1191 2066 1320 1900 
Q 1450 1734 1716 1734 
z
" transform="scale(0.015625)"/>
       </defs>
       <use xlink:href="#OpenSans-Bold-4c"/>
       <use xlink:href="#OpenSans-Bold-75" x="56.494141"/>
       <use xlink:href="#OpenSans-Bold-78" x="122.216797"/>
       <use xlink:href="#OpenSans-Bold-65" x="180.029297"/>
       <use xlink:href="#OpenSans-Bold-6d" x="239.111328"/>
       <use xlink:href="#OpenSans-Bold-62" x="337.304688"/>
       <use xlink:href="#OpenSans-Bold-75" x="400.585938"/>
       <use xlink:href="#OpenSans-Bold-72" x="466.308594"/>
       <use xlink:href="#OpenSans-Bold-67" x="511.71875"/>
       <use xlink:href="#OpenSans-Bold-6f" x="568.212891"/>
      </g>
     </g>
    </g>
    <g id="ytick_6">
     <g id="line2d_26">
      <g>
       <use xlink:href="#m314cdc3e7f" x="92.36" y="458.307895" style="fill: #37539c; stroke: #37539c; stroke-width: 0.8"/>
      </g>
     </g>
     <g id="text_17">
      <!-- Suiza -->
      <g style="fill: #37539c" transform="translate(64.52 461.34727) scale(0.08 -0.08)">
       <defs>
        <path id="OpenSans-Bold-53" d="M 3272 1269 
Q 3272 863 3075 563 
Q 2878 263 2501 100 
Q 2125 -63 1588 -63 
Q 1350 -63 1123 -31 
Q 897 0 689 61 
Q 481 122 294 213 
L 294 1113 
Q 619 969 969 853 
Q 1319 738 1663 738 
Q 1900 738 2045 800 
Q 2191 863 2256 972 
Q 2322 1081 2322 1222 
Q 2322 1394 2206 1516 
Q 2091 1638 1889 1744 
Q 1688 1850 1434 1972 
Q 1275 2047 1087 2155 
Q 900 2263 731 2419 
Q 563 2575 455 2798 
Q 347 3022 347 3334 
Q 347 3744 534 4034 
Q 722 4325 1070 4479 
Q 1419 4634 1894 4634 
Q 2250 4634 2573 4551 
Q 2897 4469 3250 4313 
L 2938 3559 
Q 2622 3688 2372 3758 
Q 2122 3828 1863 3828 
Q 1681 3828 1553 3770 
Q 1425 3713 1359 3608 
Q 1294 3503 1294 3366 
Q 1294 3203 1389 3092 
Q 1484 2981 1676 2878 
Q 1869 2775 2156 2638 
Q 2506 2472 2754 2292 
Q 3003 2113 3137 1870 
Q 3272 1628 3272 1269 
z
" transform="scale(0.015625)"/>
        <path id="OpenSans-Bold-7a" d="M 2931 0 
L 172 0 
L 172 563 
L 1791 2766 
L 269 2766 
L 269 3494 
L 2875 3494 
L 2875 2875 
L 1300 728 
L 2931 728 
L 2931 0 
z
" transform="scale(0.015625)"/>
       </defs>
       <use xlink:href="#OpenSans-Bold-53"/>
       <use xlink:href="#OpenSans-Bold-75" x="55.078125"/>
       <use xlink:href="#OpenSans-Bold-69" x="120.800781"/>
       <use xlink:href="#OpenSans-Bold-7a" x="151.318359"/>
       <use xlink:href="#OpenSans-Bold-61" x="200.097656"/>
      </g>
     </g>
    </g>
    <g id="ytick_7">
     <g id="line2d_27">
      <g>
       <use xlink:href="#m314cdc3e7f" x="92.36" y="444.538421" style="fill: #37539c; stroke: #37539c; stroke-width: 0.8"/>
      </g>
     </g>
     <g id="text_18">
      <!-- Lituania -->
      <g style="fill: #37539c" transform="translate(52.305 447.577796) scale(0.08 -0.08)">
       <use xlink:href="#OpenSans-Bold-4c"/>
       <use xlink:href="#OpenSans-Bold-69" x="56.494141"/>
       <use xlink:href="#OpenSans-Bold-74" x="87.011719"/>
       <use xlink:href="#OpenSans-Bold-75" x="130.419922"/>
       <use xlink:href="#OpenSans-Bold-61" x="196.142578"/>
       <use xlink:href="#OpenSans-Bold-6e" x="256.542969"/>
       <use xlink:href="#OpenSans-Bold-69" x="322.265625"/>
       <use xlink:href="#OpenSans-Bold-61" x="352.783203"/>
      </g>
     </g>
    </g>
    <g id="ytick_8">
     <g id="line2d_28">
      <g>
       <use xlink:href="#m314cdc3e7f" x="92.36" y="430.768947" style="fill: #37539c; stroke: #37539c; stroke-width: 0.8"/>
      </g>
     </g>
     <g id="text_19">
      <!-- Estonia -->
      <g style="fill: #37539c" transform="translate(55.94625 433.808322) scale(0.08 -0.08)">
       <defs>
        <path id="OpenSans-Bold-45" d="M 3206 0 
L 575 0 
L 575 4569 
L 3206 4569 
L 3206 3775 
L 1544 3775 
L 1544 2772 
L 3091 2772 
L 3091 1978 
L 1544 1978 
L 1544 800 
L 3206 800 
L 3206 0 
z
" transform="scale(0.015625)"/>
       </defs>
       <use xlink:href="#OpenSans-Bold-45"/>
       <use xlink:href="#OpenSans-Bold-73" x="56.005859"/>
       <use xlink:href="#OpenSans-Bold-74" x="105.712891"/>
       <use xlink:href="#OpenSans-Bold-6f" x="149.121094"/>
       <use xlink:href="#OpenSans-Bold-6e" x="211.035156"/>
       <use xlink:href="#OpenSans-Bold-69" x="276.757812"/>
       <use xlink:href="#OpenSans-Bold-61" x="307.275391"/>
      </g>
     </g>
    </g>
    <g id="ytick_9">
     <g id="line2d_29">
      <g>
       <use xlink:href="#m314cdc3e7f" x="92.36" y="416.999474" style="fill: #37539c; stroke: #37539c; stroke-width: 0.8"/>
      </g>
     </g>
     <g id="text_20">
      <!-- Eslovaquia -->
      <g style="fill: #37539c" transform="translate(42.53125 420.038849) scale(0.08 -0.08)">
       <defs>
        <path id="OpenSans-Bold-76" d="M 1331 0 
L 0 3494 
L 997 3494 
L 1672 1503 
Q 1728 1328 1761 1134 
Q 1794 941 1806 788 
L 1831 788 
Q 1841 953 1877 1140 
Q 1913 1328 1972 1503 
L 2644 3494 
L 3641 3494 
L 2309 0 
L 1331 0 
z
" transform="scale(0.015625)"/>
        <path id="OpenSans-Bold-71" d="M 2597 -1538 
L 2597 -72 
Q 2597 59 2608 192 
Q 2619 325 2638 453 
L 2597 453 
Q 2463 238 2227 87 
Q 1991 -63 1606 -63 
Q 1016 -63 652 395 
Q 288 853 288 1741 
Q 288 2338 456 2742 
Q 625 3147 926 3353 
Q 1228 3559 1625 3559 
Q 2009 3559 2248 3411 
Q 2488 3263 2638 3047 
L 2663 3047 
L 2747 3494 
L 3553 3494 
L 3553 -1538 
L 2597 -1538 
z
M 1947 684 
Q 2209 684 2364 787 
Q 2519 891 2587 1098 
Q 2656 1306 2663 1619 
L 2663 1734 
Q 2663 2244 2506 2514 
Q 2350 2784 1931 2784 
Q 1591 2784 1425 2512 
Q 1259 2241 1259 1728 
Q 1259 1206 1428 945 
Q 1597 684 1947 684 
z
" transform="scale(0.015625)"/>
       </defs>
       <use xlink:href="#OpenSans-Bold-45"/>
       <use xlink:href="#OpenSans-Bold-73" x="56.005859"/>
       <use xlink:href="#OpenSans-Bold-6c" x="105.712891"/>
       <use xlink:href="#OpenSans-Bold-6f" x="136.230469"/>
       <use xlink:href="#OpenSans-Bold-76" x="198.144531"/>
       <use xlink:href="#OpenSans-Bold-61" x="255.029297"/>
       <use xlink:href="#OpenSans-Bold-71" x="315.429688"/>
       <use xlink:href="#OpenSans-Bold-75" x="378.710938"/>
       <use xlink:href="#OpenSans-Bold-69" x="444.433594"/>
       <use xlink:href="#OpenSans-Bold-61" x="474.951172"/>
      </g>
     </g>
    </g>
    <g id="ytick_10">
     <g id="line2d_30">
      <g>
       <use xlink:href="#m314cdc3e7f" x="92.36" y="403.23" style="fill: #37539c; stroke: #37539c; stroke-width: 0.8"/>
      </g>
     </g>
     <g id="text_21">
      <!-- Alemania -->
      <g style="fill: #37539c" transform="translate(47.45375 406.269375) scale(0.08 -0.08)">
       <defs>
        <path id="OpenSans-Bold-41" d="M 3372 0 
L 3041 1088 
L 1375 1088 
L 1044 0 
L 0 0 
L 1613 4588 
L 2797 4588 
L 4416 0 
L 3372 0 
z
M 2809 1900 
L 2478 2963 
Q 2447 3069 2395 3236 
Q 2344 3403 2292 3576 
Q 2241 3750 2209 3878 
Q 2178 3750 2123 3561 
Q 2069 3372 2019 3203 
Q 1969 3034 1947 2963 
L 1619 1900 
L 2809 1900 
z
" transform="scale(0.015625)"/>
       </defs>
       <use xlink:href="#OpenSans-Bold-41"/>
       <use xlink:href="#OpenSans-Bold-6c" x="68.994141"/>
       <use xlink:href="#OpenSans-Bold-65" x="99.511719"/>
       <use xlink:href="#OpenSans-Bold-6d" x="158.59375"/>
       <use xlink:href="#OpenSans-Bold-61" x="256.787109"/>
       <use xlink:href="#OpenSans-Bold-6e" x="317.1875"/>
       <use xlink:href="#OpenSans-Bold-69" x="382.910156"/>
       <use xlink:href="#OpenSans-Bold-61" x="413.427734"/>
      </g>
     </g>
    </g>
    <g id="ytick_11">
     <g id="line2d_31">
      <g>
       <use xlink:href="#m314cdc3e7f" x="92.36" y="389.460526" style="fill: #37539c; stroke: #37539c; stroke-width: 0.8"/>
      </g>
     </g>
     <g id="text_22">
      <!-- Finlandia -->
      <g style="fill: #37539c" transform="translate(48.4025 392.499901) scale(0.08 -0.08)">
       <defs>
        <path id="OpenSans-Bold-46" d="M 1528 0 
L 575 0 
L 575 4569 
L 3194 4569 
L 3194 3775 
L 1528 3775 
L 1528 2597 
L 3078 2597 
L 3078 1806 
L 1528 1806 
L 1528 0 
z
" transform="scale(0.015625)"/>
        <path id="OpenSans-Bold-64" d="M 1606 -63 
Q 1022 -63 655 395 
Q 288 853 288 1741 
Q 288 2638 659 3098 
Q 1031 3559 1631 3559 
Q 1881 3559 2072 3490 
Q 2263 3422 2402 3306 
Q 2541 3191 2638 3047 
L 2669 3047 
Q 2650 3147 2623 3342 
Q 2597 3538 2597 3744 
L 2597 4863 
L 3553 4863 
L 3553 0 
L 2822 0 
L 2638 453 
L 2597 453 
Q 2506 309 2370 192 
Q 2234 75 2046 6 
Q 1859 -63 1606 -63 
z
M 1941 697 
Q 2331 697 2492 930 
Q 2653 1163 2663 1631 
L 2663 1734 
Q 2663 2244 2506 2514 
Q 2350 2784 1925 2784 
Q 1609 2784 1431 2512 
Q 1253 2241 1253 1728 
Q 1253 1216 1433 956 
Q 1613 697 1941 697 
z
" transform="scale(0.015625)"/>
       </defs>
       <use xlink:href="#OpenSans-Bold-46"/>
       <use xlink:href="#OpenSans-Bold-69" x="54.882812"/>
       <use xlink:href="#OpenSans-Bold-6e" x="85.400391"/>
       <use xlink:href="#OpenSans-Bold-6c" x="151.123047"/>
       <use xlink:href="#OpenSans-Bold-61" x="181.640625"/>
       <use xlink:href="#OpenSans-Bold-6e" x="242.041016"/>
       <use xlink:href="#OpenSans-Bold-64" x="307.763672"/>
       <use xlink:href="#OpenSans-Bold-69" x="371.044922"/>
       <use xlink:href="#OpenSans-Bold-61" x="401.5625"/>
      </g>
     </g>
    </g>
    <g id="ytick_12">
     <g id="line2d_32">
      <g>
       <use xlink:href="#m314cdc3e7f" x="92.36" y="375.691053" style="fill: #37539c; stroke: #37539c; stroke-width: 0.8"/>
      </g>
     </g>
     <g id="text_23">
      <!-- Grecia -->
      <g style="fill: #37539c" transform="translate(59.82125 378.730428) scale(0.08 -0.08)">
       <defs>
        <path id="OpenSans-Bold-47" d="M 2309 2566 
L 4122 2566 
L 4122 197 
Q 3763 78 3375 7 
Q 2988 -63 2497 -63 
Q 1816 -63 1341 206 
Q 866 475 619 1000 
Q 372 1525 372 2291 
Q 372 3009 648 3534 
Q 925 4059 1458 4346 
Q 1991 4634 2759 4634 
Q 3122 4634 3475 4556 
Q 3828 4478 4116 4353 
L 3794 3578 
Q 3584 3684 3315 3756 
Q 3047 3828 2753 3828 
Q 2331 3828 2020 3634 
Q 1709 3441 1539 3092 
Q 1369 2744 1369 2272 
Q 1369 1825 1491 1479 
Q 1613 1134 1875 939 
Q 2138 744 2559 744 
Q 2766 744 2908 764 
Q 3050 784 3175 806 
L 3175 1759 
L 2309 1759 
L 2309 2566 
z
" transform="scale(0.015625)"/>
       </defs>
       <use xlink:href="#OpenSans-Bold-47"/>
       <use xlink:href="#OpenSans-Bold-72" x="72.412109"/>
       <use xlink:href="#OpenSans-Bold-65" x="117.822266"/>
       <use xlink:href="#OpenSans-Bold-63" x="176.904297"/>
       <use xlink:href="#OpenSans-Bold-69" x="228.320312"/>
       <use xlink:href="#OpenSans-Bold-61" x="258.837891"/>
      </g>
     </g>
    </g>
    <g id="ytick_13">
     <g id="line2d_33">
      <g>
       <use xlink:href="#m314cdc3e7f" x="92.36" y="361.921579" style="fill: #37539c; stroke: #37539c; stroke-width: 0.8"/>
      </g>
     </g>
     <g id="text_24">
      <!-- Dinamarca -->
      <g style="fill: #37539c" transform="translate(41.64 364.960954) scale(0.08 -0.08)">
       <defs>
        <path id="OpenSans-Bold-44" d="M 4366 2328 
Q 4366 1556 4070 1039 
Q 3775 522 3215 261 
Q 2656 0 1869 0 
L 575 0 
L 575 4569 
L 2009 4569 
Q 2728 4569 3256 4314 
Q 3784 4059 4075 3561 
Q 4366 3063 4366 2328 
z
M 3359 2303 
Q 3359 2809 3211 3136 
Q 3063 3463 2773 3619 
Q 2484 3775 2059 3775 
L 1544 3775 
L 1544 800 
L 1959 800 
Q 2669 800 3014 1178 
Q 3359 1556 3359 2303 
z
" transform="scale(0.015625)"/>
       </defs>
       <use xlink:href="#OpenSans-Bold-44"/>
       <use xlink:href="#OpenSans-Bold-69" x="74.023438"/>
       <use xlink:href="#OpenSans-Bold-6e" x="104.541016"/>
       <use xlink:href="#OpenSans-Bold-61" x="170.263672"/>
       <use xlink:href="#OpenSans-Bold-6d" x="230.664062"/>
       <use xlink:href="#OpenSans-Bold-61" x="328.857422"/>
       <use xlink:href="#OpenSans-Bold-72" x="389.257812"/>
       <use xlink:href="#OpenSans-Bold-63" x="434.667969"/>
       <use xlink:href="#OpenSans-Bold-61" x="486.083984"/>
      </g>
     </g>
    </g>
    <g id="ytick_14">
     <g id="line2d_34">
      <g>
       <use xlink:href="#m314cdc3e7f" x="92.36" y="348.152105" style="fill: #37539c; stroke: #37539c; stroke-width: 0.8"/>
      </g>
     </g>
     <g id="text_25">
      <!-- España -->
      <g style="fill: #37539c" transform="translate(56.91875 351.19148) scale(0.08 -0.08)">
       <defs>
        <path id="OpenSans-Bold-f1" d="M 2484 3559 
Q 3044 3559 3384 3254 
Q 3725 2950 3725 2278 
L 3725 0 
L 2772 0 
L 2772 2041 
Q 2772 2416 2636 2606 
Q 2500 2797 2209 2797 
Q 1772 2797 1612 2500 
Q 1453 2203 1453 1644 
L 1453 0 
L 500 0 
L 500 3494 
L 1228 3494 
L 1356 3047 
L 1409 3047 
Q 1522 3228 1689 3340 
Q 1856 3453 2061 3506 
Q 2266 3559 2484 3559 
z
M 808 3872 
Q 827 4122 899 4305 
Q 971 4488 1086 4605 
Q 1202 4722 1347 4780 
Q 1493 4838 1658 4838 
Q 1786 4838 1909 4789 
Q 2033 4741 2153 4675 
Q 2274 4609 2391 4561 
Q 2508 4513 2621 4513 
Q 2715 4513 2804 4595 
Q 2893 4678 2933 4844 
L 3399 4844 
Q 3361 4350 3117 4114 
Q 2874 3878 2549 3878 
Q 2421 3878 2297 3928 
Q 2174 3978 2053 4042 
Q 1933 4106 1817 4156 
Q 1702 4206 1590 4206 
Q 1493 4206 1404 4123 
Q 1315 4041 1274 3872 
L 808 3872 
z
" transform="scale(0.015625)"/>
       </defs>
       <use xlink:href="#OpenSans-Bold-45"/>
       <use xlink:href="#OpenSans-Bold-73" x="56.005859"/>
       <use xlink:href="#OpenSans-Bold-70" x="105.712891"/>
       <use xlink:href="#OpenSans-Bold-61" x="168.994141"/>
       <use xlink:href="#OpenSans-Bold-f1" x="229.394531"/>
       <use xlink:href="#OpenSans-Bold-61" x="295.117188"/>
      </g>
     </g>
    </g>
    <g id="ytick_15">
     <g id="line2d_35">
      <g>
       <use xlink:href="#m314cdc3e7f" x="92.36" y="334.382632" style="fill: #37539c; stroke: #37539c; stroke-width: 0.8"/>
      </g>
     </g>
     <g id="text_26">
      <!-- Israel -->
      <g style="fill: #37539c" transform="translate(63.1025 337.422007) scale(0.08 -0.08)">
       <use xlink:href="#OpenSans-Bold-49"/>
       <use xlink:href="#OpenSans-Bold-73" x="33.105469"/>
       <use xlink:href="#OpenSans-Bold-72" x="82.8125"/>
       <use xlink:href="#OpenSans-Bold-61" x="128.222656"/>
       <use xlink:href="#OpenSans-Bold-65" x="188.623047"/>
       <use xlink:href="#OpenSans-Bold-6c" x="247.705078"/>
      </g>
     </g>
    </g>
    <g id="ytick_16">
     <g id="line2d_36">
      <g>
       <use xlink:href="#m314cdc3e7f" x="92.36" y="320.613158" style="fill: #37539c; stroke: #37539c; stroke-width: 0.8"/>
      </g>
     </g>
     <g id="text_27">
      <!-- Japón -->
      <g style="fill: #37539c" transform="translate(62.605 323.677533) scale(0.08 -0.08)">
       <defs>
        <path id="OpenSans-Bold-4a" d="M 97 -1344 
Q -91 -1344 -233 -1323 
Q -375 -1303 -475 -1275 
L -475 -469 
Q -375 -491 -261 -511 
Q -147 -531 -19 -531 
Q 150 -531 284 -467 
Q 419 -403 497 -225 
Q 575 -47 575 288 
L 575 4569 
L 1544 4569 
L 1544 294 
Q 1544 -294 1361 -655 
Q 1178 -1016 851 -1180 
Q 525 -1344 97 -1344 
z
" transform="scale(0.015625)"/>
        <path id="OpenSans-Bold-f3" d="M 3675 1753 
Q 3675 1316 3558 978 
Q 3441 641 3217 408 
Q 2994 175 2680 56 
Q 2366 -63 1972 -63 
Q 1603 -63 1295 56 
Q 988 175 761 408 
Q 534 641 411 978 
Q 288 1316 288 1753 
Q 288 2334 494 2737 
Q 700 3141 1081 3350 
Q 1463 3559 1991 3559 
Q 2481 3559 2861 3350 
Q 3241 3141 3458 2737 
Q 3675 2334 3675 1753 
z
M 1259 1753 
Q 1259 1409 1334 1175 
Q 1409 941 1568 822 
Q 1728 703 1984 703 
Q 2238 703 2395 822 
Q 2553 941 2626 1175 
Q 2700 1409 2700 1753 
Q 2700 2100 2626 2329 
Q 2553 2559 2393 2675 
Q 2234 2791 1978 2791 
Q 1600 2791 1429 2531 
Q 1259 2272 1259 1753 
z
M 3211 4903 
L 3211 4838 
Q 3121 4750 2974 4622 
Q 2827 4494 2658 4355 
Q 2490 4216 2327 4089 
Q 2165 3963 2043 3878 
L 1408 3878 
L 1408 3963 
Q 1511 4081 1647 4245 
Q 1783 4409 1917 4584 
Q 2052 4759 2143 4903 
L 3211 4903 
z
" transform="scale(0.015625)"/>
       </defs>
       <use xlink:href="#OpenSans-Bold-4a"/>
       <use xlink:href="#OpenSans-Bold-61" x="33.105469"/>
       <use xlink:href="#OpenSans-Bold-70" x="93.505859"/>
       <use xlink:href="#OpenSans-Bold-f3" x="156.787109"/>
       <use xlink:href="#OpenSans-Bold-6e" x="218.701172"/>
      </g>
     </g>
    </g>
    <g id="ytick_17">
     <g id="line2d_37">
      <g>
       <use xlink:href="#m314cdc3e7f" x="92.36" y="306.843684" style="fill: #37539c; stroke: #37539c; stroke-width: 0.8"/>
      </g>
     </g>
     <g id="text_28">
      <!-- Chequia -->
      <g style="fill: #37539c" transform="translate(52.685 309.883059) scale(0.08 -0.08)">
       <use xlink:href="#OpenSans-Bold-43"/>
       <use xlink:href="#OpenSans-Bold-68" x="63.720703"/>
       <use xlink:href="#OpenSans-Bold-65" x="129.443359"/>
       <use xlink:href="#OpenSans-Bold-71" x="188.525391"/>
       <use xlink:href="#OpenSans-Bold-75" x="251.806641"/>
       <use xlink:href="#OpenSans-Bold-69" x="317.529297"/>
       <use xlink:href="#OpenSans-Bold-61" x="348.046875"/>
      </g>
     </g>
    </g>
    <g id="ytick_18">
     <g id="line2d_38">
      <g>
       <use xlink:href="#m314cdc3e7f" x="92.36" y="293.074211" style="fill: #37539c; stroke: #37539c; stroke-width: 0.8"/>
      </g>
     </g>
     <g id="text_29">
      <!-- Suecia -->
      <g style="fill: #37539c" transform="translate(59.5825 296.113586) scale(0.08 -0.08)">
       <use xlink:href="#OpenSans-Bold-53"/>
       <use xlink:href="#OpenSans-Bold-75" x="55.078125"/>
       <use xlink:href="#OpenSans-Bold-65" x="120.800781"/>
       <use xlink:href="#OpenSans-Bold-63" x="179.882812"/>
       <use xlink:href="#OpenSans-Bold-69" x="231.298828"/>
       <use xlink:href="#OpenSans-Bold-61" x="261.816406"/>
      </g>
     </g>
    </g>
    <g id="ytick_19">
     <g id="line2d_39">
      <g>
       <use xlink:href="#m314cdc3e7f" x="92.36" y="279.304737" style="fill: #37539c; stroke: #37539c; stroke-width: 0.8"/>
      </g>
     </g>
     <g id="text_30">
      <!-- Italia -->
      <g style="fill: #37539c" transform="translate(64.69125 282.344112) scale(0.08 -0.08)">
       <use xlink:href="#OpenSans-Bold-49"/>
       <use xlink:href="#OpenSans-Bold-74" x="33.105469"/>
       <use xlink:href="#OpenSans-Bold-61" x="76.513672"/>
       <use xlink:href="#OpenSans-Bold-6c" x="136.914062"/>
       <use xlink:href="#OpenSans-Bold-69" x="167.431641"/>
       <use xlink:href="#OpenSans-Bold-61" x="197.949219"/>
      </g>
     </g>
    </g>
    <g id="ytick_20">
     <g id="line2d_40">
      <g>
       <use xlink:href="#m314cdc3e7f" x="92.36" y="265.535263" style="fill: #37539c; stroke: #37539c; stroke-width: 0.8"/>
      </g>
     </g>
     <g id="text_31">
      <!-- Nueva Zelanda -->
      <g style="fill: #37539c" transform="translate(25.625 268.574638) scale(0.08 -0.08)">
       <defs>
        <path id="OpenSans-Bold-4e" d="M 4628 0 
L 3397 0 
L 1409 3456 
L 1381 3456 
Q 1394 3241 1403 3022 
Q 1413 2803 1422 2586 
Q 1431 2369 1441 2150 
L 1441 0 
L 575 0 
L 575 4569 
L 1797 4569 
L 3781 1147 
L 3803 1147 
Q 3797 1359 3787 1568 
Q 3778 1778 3770 1987 
Q 3763 2197 3756 2406 
L 3756 4569 
L 4628 4569 
L 4628 0 
z
" transform="scale(0.015625)"/>
        <path id="OpenSans-Bold-5a" d="M 3553 0 
L 153 0 
L 153 628 
L 2344 3769 
L 213 3769 
L 213 4569 
L 3494 4569 
L 3494 3944 
L 1306 800 
L 3553 800 
L 3553 0 
z
" transform="scale(0.015625)"/>
       </defs>
       <use xlink:href="#OpenSans-Bold-4e"/>
       <use xlink:href="#OpenSans-Bold-75" x="81.298828"/>
       <use xlink:href="#OpenSans-Bold-65" x="147.021484"/>
       <use xlink:href="#OpenSans-Bold-76" x="206.103516"/>
       <use xlink:href="#OpenSans-Bold-61" x="262.988281"/>
       <use xlink:href="#OpenSans-Bold-20" x="323.388672"/>
       <use xlink:href="#OpenSans-Bold-5a" x="349.365234"/>
       <use xlink:href="#OpenSans-Bold-65" x="407.275391"/>
       <use xlink:href="#OpenSans-Bold-6c" x="466.357422"/>
       <use xlink:href="#OpenSans-Bold-61" x="496.875"/>
       <use xlink:href="#OpenSans-Bold-6e" x="557.275391"/>
       <use xlink:href="#OpenSans-Bold-64" x="622.998047"/>
       <use xlink:href="#OpenSans-Bold-61" x="686.279297"/>
      </g>
     </g>
    </g>
    <g id="ytick_21">
     <g id="line2d_41">
      <g>
       <use xlink:href="#m314cdc3e7f" x="92.36" y="251.765789" style="fill: #37539c; stroke: #37539c; stroke-width: 0.8"/>
      </g>
     </g>
     <g id="text_32">
      <!-- Polonia -->
      <g style="fill: #37539c" transform="translate(55.45625 254.805164) scale(0.08 -0.08)">
       <use xlink:href="#OpenSans-Bold-50"/>
       <use xlink:href="#OpenSans-Bold-6f" x="62.792969"/>
       <use xlink:href="#OpenSans-Bold-6c" x="124.707031"/>
       <use xlink:href="#OpenSans-Bold-6f" x="155.224609"/>
       <use xlink:href="#OpenSans-Bold-6e" x="217.138672"/>
       <use xlink:href="#OpenSans-Bold-69" x="282.861328"/>
       <use xlink:href="#OpenSans-Bold-61" x="313.378906"/>
      </g>
     </g>
    </g>
    <g id="ytick_22">
     <g id="line2d_42">
      <g>
       <use xlink:href="#m314cdc3e7f" x="92.36" y="237.996316" style="fill: #37539c; stroke: #37539c; stroke-width: 0.8"/>
      </g>
     </g>
     <g id="text_33">
      <!-- Australia -->
      <g style="fill: #37539c" transform="translate(48.95375 241.035691) scale(0.08 -0.08)">
       <use xlink:href="#OpenSans-Bold-41"/>
       <use xlink:href="#OpenSans-Bold-75" x="68.994141"/>
       <use xlink:href="#OpenSans-Bold-73" x="134.716797"/>
       <use xlink:href="#OpenSans-Bold-74" x="184.423828"/>
       <use xlink:href="#OpenSans-Bold-72" x="227.832031"/>
       <use xlink:href="#OpenSans-Bold-61" x="273.242188"/>
       <use xlink:href="#OpenSans-Bold-6c" x="333.642578"/>
       <use xlink:href="#OpenSans-Bold-69" x="364.160156"/>
       <use xlink:href="#OpenSans-Bold-61" x="394.677734"/>
      </g>
     </g>
    </g>
    <g id="ytick_23">
     <g id="line2d_43">
      <g>
       <use xlink:href="#m314cdc3e7f" x="92.36" y="224.226842" style="fill: #37539c; stroke: #37539c; stroke-width: 0.8"/>
      </g>
     </g>
     <g id="text_34">
      <!-- EU -->
      <g style="fill: #37539c" transform="translate(74.8325 227.266217) scale(0.08 -0.08)">
       <defs>
        <path id="OpenSans-Bold-55" d="M 4294 4569 
L 4294 1613 
Q 4294 1141 4086 761 
Q 3878 381 3458 159 
Q 3038 -63 2400 -63 
Q 1494 -63 1019 400 
Q 544 863 544 1625 
L 544 4569 
L 1509 4569 
L 1509 1772 
Q 1509 1206 1740 978 
Q 1972 750 2425 750 
Q 2744 750 2942 859 
Q 3141 969 3234 1197 
Q 3328 1425 3328 1778 
L 3328 4569 
L 4294 4569 
z
" transform="scale(0.015625)"/>
       </defs>
       <use xlink:href="#OpenSans-Bold-45"/>
       <use xlink:href="#OpenSans-Bold-55" x="56.005859"/>
      </g>
     </g>
    </g>
    <g id="ytick_24">
     <g id="line2d_44">
      <g>
       <use xlink:href="#m314cdc3e7f" x="92.36" y="210.457368" style="fill: #37539c; stroke: #37539c; stroke-width: 0.8"/>
      </g>
     </g>
     <g id="text_35">
      <!-- Eslovenia -->
      <g style="fill: #37539c" transform="translate(47.7 213.496743) scale(0.08 -0.08)">
       <use xlink:href="#OpenSans-Bold-45"/>
       <use xlink:href="#OpenSans-Bold-73" x="56.005859"/>
       <use xlink:href="#OpenSans-Bold-6c" x="105.712891"/>
       <use xlink:href="#OpenSans-Bold-6f" x="136.230469"/>
       <use xlink:href="#OpenSans-Bold-76" x="198.144531"/>
       <use xlink:href="#OpenSans-Bold-65" x="255.029297"/>
       <use xlink:href="#OpenSans-Bold-6e" x="314.111328"/>
       <use xlink:href="#OpenSans-Bold-69" x="379.833984"/>
       <use xlink:href="#OpenSans-Bold-61" x="410.351562"/>
      </g>
     </g>
    </g>
    <g id="ytick_25">
     <g id="line2d_45">
      <g>
       <use xlink:href="#m314cdc3e7f" x="92.36" y="196.687895" style="fill: #37539c; stroke: #37539c; stroke-width: 0.8"/>
      </g>
     </g>
     <g id="text_36">
      <!-- Turquía -->
      <g style="fill: #37539c" transform="translate(54.24375 199.75227) scale(0.08 -0.08)">
       <defs>
        <path id="OpenSans-Bold-54" d="M 2338 0 
L 1369 0 
L 1369 3763 
L 128 3763 
L 128 4569 
L 3578 4569 
L 3578 3763 
L 2338 3763 
L 2338 0 
z
" transform="scale(0.015625)"/>
        <path id="OpenSans-Bold-ed" d="M 1453 0 
L 500 0 
L 500 3494 
L 1453 3494 
L 1453 0 
z
M 2203 4903 
L 2203 4838 
Q 2113 4750 1966 4622 
Q 1819 4494 1650 4355 
Q 1482 4216 1319 4089 
Q 1157 3963 1035 3878 
L 400 3878 
L 400 3963 
Q 503 4081 639 4245 
Q 775 4409 909 4584 
Q 1044 4759 1135 4903 
L 2203 4903 
z
" transform="scale(0.015625)"/>
       </defs>
       <use xlink:href="#OpenSans-Bold-54"/>
       <use xlink:href="#OpenSans-Bold-75" x="57.910156"/>
       <use xlink:href="#OpenSans-Bold-72" x="123.632812"/>
       <use xlink:href="#OpenSans-Bold-71" x="169.042969"/>
       <use xlink:href="#OpenSans-Bold-75" x="232.324219"/>
       <use xlink:href="#OpenSans-Bold-ed" x="298.046875"/>
       <use xlink:href="#OpenSans-Bold-61" x="328.564453"/>
      </g>
     </g>
    </g>
    <g id="ytick_26">
     <g id="line2d_46">
      <g>
       <use xlink:href="#m314cdc3e7f" x="92.36" y="182.918421" style="fill: #37539c; stroke: #37539c; stroke-width: 0.8"/>
      </g>
     </g>
     <g id="text_37">
      <!-- Irlanda -->
      <g style="fill: #37539c" transform="translate(56.6525 185.957796) scale(0.08 -0.08)">
       <use xlink:href="#OpenSans-Bold-49"/>
       <use xlink:href="#OpenSans-Bold-72" x="33.105469"/>
       <use xlink:href="#OpenSans-Bold-6c" x="78.515625"/>
       <use xlink:href="#OpenSans-Bold-61" x="109.033203"/>
       <use xlink:href="#OpenSans-Bold-6e" x="169.433594"/>
       <use xlink:href="#OpenSans-Bold-64" x="235.15625"/>
       <use xlink:href="#OpenSans-Bold-61" x="298.4375"/>
      </g>
     </g>
    </g>
    <g id="ytick_27">
     <g id="line2d_47">
      <g>
       <use xlink:href="#m314cdc3e7f" x="92.36" y="169.148947" style="fill: #37539c; stroke: #37539c; stroke-width: 0.8"/>
      </g>
     </g>
     <g id="text_38">
      <!-- OCDE -->
      <g style="fill: #37539c" transform="translate(63.4925 172.188322) scale(0.08 -0.08)">
       <defs>
        <path id="OpenSans-Bold-4f" d="M 4722 2291 
Q 4722 1763 4590 1330 
Q 4459 897 4192 584 
Q 3925 272 3515 104 
Q 3106 -63 2547 -63 
Q 1988 -63 1578 104 
Q 1169 272 901 584 
Q 634 897 503 1331 
Q 372 1766 372 2297 
Q 372 3006 605 3532 
Q 838 4059 1322 4350 
Q 1806 4641 2553 4641 
Q 3297 4641 3776 4350 
Q 4256 4059 4489 3531 
Q 4722 3003 4722 2291 
z
M 1388 2291 
Q 1388 1813 1508 1467 
Q 1628 1122 1884 936 
Q 2141 750 2547 750 
Q 2959 750 3215 936 
Q 3472 1122 3589 1467 
Q 3706 1813 3706 2291 
Q 3706 3009 3437 3421 
Q 3169 3834 2553 3834 
Q 2144 3834 1886 3648 
Q 1628 3463 1508 3117 
Q 1388 2772 1388 2291 
z
" transform="scale(0.015625)"/>
       </defs>
       <use xlink:href="#OpenSans-Bold-4f"/>
       <use xlink:href="#OpenSans-Bold-43" x="79.589844"/>
       <use xlink:href="#OpenSans-Bold-44" x="143.310547"/>
       <use xlink:href="#OpenSans-Bold-45" x="217.333984"/>
      </g>
     </g>
    </g>
    <g id="ytick_28">
     <g id="line2d_48">
      <g>
       <use xlink:href="#m314cdc3e7f" x="92.36" y="155.379474" style="fill: #37539c; stroke: #37539c; stroke-width: 0.8"/>
      </g>
     </g>
     <g id="text_39">
      <!-- Estados Unidos -->
      <g style="fill: #37539c" transform="translate(24.78875 158.418849) scale(0.08 -0.08)">
       <use xlink:href="#OpenSans-Bold-45"/>
       <use xlink:href="#OpenSans-Bold-73" x="56.005859"/>
       <use xlink:href="#OpenSans-Bold-74" x="105.712891"/>
       <use xlink:href="#OpenSans-Bold-61" x="149.121094"/>
       <use xlink:href="#OpenSans-Bold-64" x="209.521484"/>
       <use xlink:href="#OpenSans-Bold-6f" x="272.802734"/>
       <use xlink:href="#OpenSans-Bold-73" x="334.716797"/>
       <use xlink:href="#OpenSans-Bold-20" x="384.423828"/>
       <use xlink:href="#OpenSans-Bold-55" x="410.400391"/>
       <use xlink:href="#OpenSans-Bold-6e" x="485.986328"/>
       <use xlink:href="#OpenSans-Bold-69" x="551.708984"/>
       <use xlink:href="#OpenSans-Bold-64" x="582.226562"/>
       <use xlink:href="#OpenSans-Bold-6f" x="645.507812"/>
       <use xlink:href="#OpenSans-Bold-73" x="707.421875"/>
      </g>
     </g>
    </g>
    <g id="ytick_29">
     <g id="line2d_49">
      <g>
       <use xlink:href="#m314cdc3e7f" x="92.36" y="141.61" style="fill: #37539c; stroke: #37539c; stroke-width: 0.8"/>
      </g>
     </g>
     <g id="text_40">
      <!-- Noruega -->
      <g style="fill: #37539c" transform="translate(50.93375 144.649375) scale(0.08 -0.08)">
       <use xlink:href="#OpenSans-Bold-4e"/>
       <use xlink:href="#OpenSans-Bold-6f" x="81.298828"/>
       <use xlink:href="#OpenSans-Bold-72" x="143.212891"/>
       <use xlink:href="#OpenSans-Bold-75" x="188.623047"/>
       <use xlink:href="#OpenSans-Bold-65" x="254.345703"/>
       <use xlink:href="#OpenSans-Bold-67" x="313.427734"/>
       <use xlink:href="#OpenSans-Bold-61" x="369.921875"/>
      </g>
     </g>
    </g>
    <g id="ytick_30">
     <g id="line2d_50">
      <g>
       <use xlink:href="#m314cdc3e7f" x="92.36" y="127.840526" style="fill: #37539c; stroke: #37539c; stroke-width: 0.8"/>
      </g>
     </g>
     <g id="text_41">
      <!-- Hungría -->
      <g style="fill: #37539c" transform="translate(53.2975 130.904901) scale(0.08 -0.08)">
       <defs>
        <path id="OpenSans-Bold-48" d="M 4319 0 
L 3353 0 
L 3353 1972 
L 1544 1972 
L 1544 0 
L 575 0 
L 575 4569 
L 1544 4569 
L 1544 2778 
L 3353 2778 
L 3353 4569 
L 4319 4569 
L 4319 0 
z
" transform="scale(0.015625)"/>
       </defs>
       <use xlink:href="#OpenSans-Bold-48"/>
       <use xlink:href="#OpenSans-Bold-75" x="76.513672"/>
       <use xlink:href="#OpenSans-Bold-6e" x="142.236328"/>
       <use xlink:href="#OpenSans-Bold-67" x="207.958984"/>
       <use xlink:href="#OpenSans-Bold-72" x="264.453125"/>
       <use xlink:href="#OpenSans-Bold-ed" x="309.863281"/>
       <use xlink:href="#OpenSans-Bold-61" x="340.380859"/>
      </g>
     </g>
    </g>
    <g id="ytick_31">
     <g id="line2d_51">
      <g>
       <use xlink:href="#m314cdc3e7f" x="92.36" y="114.071053" style="fill: #37539c; stroke: #37539c; stroke-width: 0.8"/>
      </g>
     </g>
     <g id="text_42">
      <!-- Países Bajos -->
      <g style="fill: #37539c" transform="translate(36.72625 117.135428) scale(0.08 -0.08)">
       <use xlink:href="#OpenSans-Bold-50"/>
       <use xlink:href="#OpenSans-Bold-61" x="62.792969"/>
       <use xlink:href="#OpenSans-Bold-ed" x="123.193359"/>
       <use xlink:href="#OpenSans-Bold-73" x="153.710938"/>
       <use xlink:href="#OpenSans-Bold-65" x="203.417969"/>
       <use xlink:href="#OpenSans-Bold-73" x="262.5"/>
       <use xlink:href="#OpenSans-Bold-20" x="312.207031"/>
       <use xlink:href="#OpenSans-Bold-42" x="338.183594"/>
       <use xlink:href="#OpenSans-Bold-61" x="405.371094"/>
       <use xlink:href="#OpenSans-Bold-6a" x="465.771484"/>
       <use xlink:href="#OpenSans-Bold-6f" x="496.289062"/>
       <use xlink:href="#OpenSans-Bold-73" x="558.203125"/>
      </g>
     </g>
    </g>
    <g id="ytick_32">
     <g id="line2d_52">
      <g>
       <use xlink:href="#m314cdc3e7f" x="92.36" y="100.301579" style="fill: #37539c; stroke: #37539c; stroke-width: 0.8"/>
      </g>
     </g>
     <g id="text_43">
      <!-- Cánada -->
      <g style="fill: #37539c" transform="translate(55.445 103.340954) scale(0.08 -0.08)">
       <defs>
        <path id="OpenSans-Bold-e1" d="M 1931 3566 
Q 2634 3566 3009 3259 
Q 3384 2953 3384 2328 
L 3384 0 
L 2719 0 
L 2534 475 
L 2509 475 
Q 2359 288 2203 169 
Q 2047 50 1844 -6 
Q 1641 -63 1350 -63 
Q 1041 -63 795 56 
Q 550 175 409 420 
Q 269 666 269 1044 
Q 269 1600 659 1864 
Q 1050 2128 1831 2156 
L 2438 2175 
L 2438 2328 
Q 2438 2603 2294 2731 
Q 2150 2859 1894 2859 
Q 1641 2859 1397 2787 
Q 1153 2716 909 2606 
L 594 3250 
Q 872 3397 1217 3481 
Q 1563 3566 1931 3566 
z
M 2438 1619 
L 2069 1606 
Q 1606 1594 1426 1441 
Q 1247 1288 1247 1038 
Q 1247 819 1375 726 
Q 1503 634 1709 634 
Q 2016 634 2227 815 
Q 2438 997 2438 1331 
L 2438 1619 
z
M 3163 4903 
L 3163 4838 
Q 3073 4750 2926 4622 
Q 2779 4494 2610 4355 
Q 2442 4216 2279 4089 
Q 2117 3963 1995 3878 
L 1360 3878 
L 1360 3963 
Q 1463 4081 1599 4245 
Q 1735 4409 1869 4584 
Q 2004 4759 2095 4903 
L 3163 4903 
z
" transform="scale(0.015625)"/>
       </defs>
       <use xlink:href="#OpenSans-Bold-43"/>
       <use xlink:href="#OpenSans-Bold-e1" x="63.720703"/>
       <use xlink:href="#OpenSans-Bold-6e" x="124.121094"/>
       <use xlink:href="#OpenSans-Bold-61" x="189.84375"/>
       <use xlink:href="#OpenSans-Bold-64" x="250.244141"/>
       <use xlink:href="#OpenSans-Bold-61" x="313.525391"/>
      </g>
     </g>
    </g>
    <g id="ytick_33">
     <g id="line2d_53">
      <g>
       <use xlink:href="#m314cdc3e7f" x="92.36" y="86.532105" style="fill: #37539c; stroke: #37539c; stroke-width: 0.8"/>
      </g>
     </g>
     <g id="text_44">
      <!-- Portugal -->
      <g style="fill: #37539c" transform="translate(51.22625 89.57148) scale(0.08 -0.08)">
       <use xlink:href="#OpenSans-Bold-50"/>
       <use xlink:href="#OpenSans-Bold-6f" x="62.792969"/>
       <use xlink:href="#OpenSans-Bold-72" x="124.707031"/>
       <use xlink:href="#OpenSans-Bold-74" x="170.117188"/>
       <use xlink:href="#OpenSans-Bold-75" x="213.525391"/>
       <use xlink:href="#OpenSans-Bold-67" x="279.248047"/>
       <use xlink:href="#OpenSans-Bold-61" x="335.742188"/>
       <use xlink:href="#OpenSans-Bold-6c" x="396.142578"/>
      </g>
     </g>
    </g>
    <g id="ytick_34">
     <g id="line2d_54">
      <g>
       <use xlink:href="#m314cdc3e7f" x="92.36" y="72.762632" style="fill: #37539c; stroke: #37539c; stroke-width: 0.8"/>
      </g>
     </g>
     <g id="text_45">
      <!-- Bélgica -->
      <g style="fill: #37539c" transform="translate(56.91 75.827007) scale(0.08 -0.08)">
       <use xlink:href="#OpenSans-Bold-42"/>
       <use xlink:href="#OpenSans-Bold-e9" x="67.1875"/>
       <use xlink:href="#OpenSans-Bold-6c" x="126.269531"/>
       <use xlink:href="#OpenSans-Bold-67" x="156.787109"/>
       <use xlink:href="#OpenSans-Bold-69" x="213.28125"/>
       <use xlink:href="#OpenSans-Bold-63" x="243.798828"/>
       <use xlink:href="#OpenSans-Bold-61" x="295.214844"/>
      </g>
     </g>
    </g>
    <g id="ytick_35">
     <g id="line2d_55">
      <g>
       <use xlink:href="#m314cdc3e7f" x="92.36" y="58.993158" style="fill: #37539c; stroke: #37539c; stroke-width: 0.8"/>
      </g>
     </g>
     <g id="text_46">
      <!-- Corea -->
      <g style="fill: #37539c" transform="translate(62.1175 62.032533) scale(0.08 -0.08)">
       <use xlink:href="#OpenSans-Bold-43"/>
       <use xlink:href="#OpenSans-Bold-6f" x="63.720703"/>
       <use xlink:href="#OpenSans-Bold-72" x="125.634766"/>
       <use xlink:href="#OpenSans-Bold-65" x="171.044922"/>
       <use xlink:href="#OpenSans-Bold-61" x="230.126953"/>
      </g>
     </g>
    </g>
    <g id="ytick_36">
     <g id="line2d_56">
      <g>
       <use xlink:href="#m314cdc3e7f" x="92.36" y="45.223684" style="fill: #37539c; stroke: #37539c; stroke-width: 0.8"/>
      </g>
     </g>
     <g id="text_47">
      <!-- Austria -->
      <g style="fill: #37539c" transform="translate(56.2275 48.263059) scale(0.08 -0.08)">
       <use xlink:href="#OpenSans-Bold-41"/>
       <use xlink:href="#OpenSans-Bold-75" x="68.994141"/>
       <use xlink:href="#OpenSans-Bold-73" x="134.716797"/>
       <use xlink:href="#OpenSans-Bold-74" x="184.423828"/>
       <use xlink:href="#OpenSans-Bold-72" x="227.832031"/>
       <use xlink:href="#OpenSans-Bold-69" x="273.242188"/>
       <use xlink:href="#OpenSans-Bold-61" x="303.759766"/>
      </g>
     </g>
    </g>
    <g id="ytick_37">
     <g id="line2d_57">
      <g>
       <use xlink:href="#m314cdc3e7f" x="92.36" y="31.454211" style="fill: #37539c; stroke: #37539c; stroke-width: 0.8"/>
      </g>
     </g>
     <g id="text_48">
      <!-- Francia -->
      <g style="fill: #37539c" transform="translate(55.85875 34.493586) scale(0.08 -0.08)">
       <use xlink:href="#OpenSans-Bold-46"/>
       <use xlink:href="#OpenSans-Bold-72" x="54.882812"/>
       <use xlink:href="#OpenSans-Bold-61" x="100.292969"/>
       <use xlink:href="#OpenSans-Bold-6e" x="160.693359"/>
       <use xlink:href="#OpenSans-Bold-63" x="226.416016"/>
       <use xlink:href="#OpenSans-Bold-69" x="277.832031"/>
       <use xlink:href="#OpenSans-Bold-61" x="308.349609"/>
      </g>
     </g>
    </g>
    <g id="ytick_38">
     <g id="line2d_58">
      <g>
       <use xlink:href="#m314cdc3e7f" x="92.36" y="17.684737" style="fill: #37539c; stroke: #37539c; stroke-width: 0.8"/>
      </g>
     </g>
     <g id="text_49">
      <!-- Gran Bretaña -->
      <g style="fill: #37539c" transform="translate(31.6375 20.724112) scale(0.08 -0.08)">
       <use xlink:href="#OpenSans-Bold-47"/>
       <use xlink:href="#OpenSans-Bold-72" x="72.412109"/>
       <use xlink:href="#OpenSans-Bold-61" x="117.822266"/>
       <use xlink:href="#OpenSans-Bold-6e" x="178.222656"/>
       <use xlink:href="#OpenSans-Bold-20" x="243.945312"/>
       <use xlink:href="#OpenSans-Bold-42" x="269.921875"/>
       <use xlink:href="#OpenSans-Bold-72" x="337.109375"/>
       <use xlink:href="#OpenSans-Bold-65" x="382.519531"/>
       <use xlink:href="#OpenSans-Bold-74" x="441.601562"/>
       <use xlink:href="#OpenSans-Bold-61" x="485.009766"/>
       <use xlink:href="#OpenSans-Bold-f1" x="545.410156"/>
       <use xlink:href="#OpenSans-Bold-61" x="611.132812"/>
      </g>
     </g>
    </g>
    <g id="text_50">
     <!-- País -->
     <g style="fill: #37539c" transform="translate(18.385625 282.591094) rotate(-90) scale(0.1 -0.1)">
      <use xlink:href="#OpenSans-Bold-50"/>
      <use xlink:href="#OpenSans-Bold-61" x="62.792969"/>
      <use xlink:href="#OpenSans-Bold-ed" x="123.193359"/>
      <use xlink:href="#OpenSans-Bold-73" x="153.710938"/>
     </g>
    </g>
   </g>
   <g id="patch_3">
    <path d="M 92.36 530.597632 
L 92.36 530.597632 
L 92.36 523.712895 
L 92.36 523.712895 
z
" clip-path="url(#p359f42a7ff)" style="fill: #37539c"/>
   </g>
   <g id="patch_4">
    <path d="M 92.36 516.828158 
L 100.658965 516.828158 
L 100.658965 509.943421 
L 92.36 509.943421 
z
" clip-path="url(#p359f42a7ff)" style="fill: #37539c"/>
   </g>
   <g id="patch_5">
    <path d="M 92.36 503.058684 
L 100.658965 503.058684 
L 100.658965 496.173947 
L 92.36 496.173947 
z
" clip-path="url(#p359f42a7ff)" style="fill: #37539c"/>
   </g>
   <g id="patch_6">
    <path d="M 92.36 489.289211 
L 100.658965 489.289211 
L 100.658965 482.404474 
L 92.36 482.404474 
z
" clip-path="url(#p359f42a7ff)" style="fill: #37539c"/>
   </g>
   <g id="patch_7">
    <path d="M 92.36 475.519737 
L 117.256894 475.519737 
L 117.256894 468.635 
L 92.36 468.635 
z
" clip-path="url(#p359f42a7ff)" style="fill: #37539c"/>
   </g>
   <g id="patch_8">
    <path d="M 92.36 461.750263 
L 117.256894 461.750263 
L 117.256894 454.865526 
L 92.36 454.865526 
z
" clip-path="url(#p359f42a7ff)" style="fill: #37539c"/>
   </g>
   <g id="patch_9">
    <path d="M 92.36 447.980789 
L 100.658965 447.980789 
L 100.658965 441.096053 
L 92.36 441.096053 
z
" clip-path="url(#p359f42a7ff)" style="fill: #37539c"/>
   </g>
   <g id="patch_10">
    <path d="M 92.36 434.211316 
L 142.153789 434.211316 
L 142.153789 427.326579 
L 92.36 427.326579 
z
" clip-path="url(#p359f42a7ff)" style="fill: #37539c"/>
   </g>
   <g id="patch_11">
    <path d="M 92.36 420.441842 
L 108.95793 420.441842 
L 108.95793 413.557105 
L 92.36 413.557105 
z
" clip-path="url(#p359f42a7ff)" style="fill: #37539c"/>
   </g>
   <g id="patch_12">
    <path d="M 92.36 406.672368 
L 150.452754 406.672368 
L 150.452754 399.787632 
L 92.36 399.787632 
z
" clip-path="url(#p359f42a7ff)" style="fill: #37539c"/>
   </g>
   <g id="patch_13">
    <path d="M 92.36 392.902895 
L 150.452754 392.902895 
L 150.452754 386.018158 
L 92.36 386.018158 
z
" clip-path="url(#p359f42a7ff)" style="fill: #37539c"/>
   </g>
   <g id="patch_14">
    <path d="M 92.36 379.133421 
L 133.854824 379.133421 
L 133.854824 372.248684 
L 92.36 372.248684 
z
" clip-path="url(#p359f42a7ff)" style="fill: #37539c"/>
   </g>
   <g id="patch_15">
    <path d="M 92.36 365.363947 
L 125.555859 365.363947 
L 125.555859 358.479211 
L 92.36 358.479211 
z
" clip-path="url(#p359f42a7ff)" style="fill: #37539c"/>
   </g>
   <g id="patch_16">
    <path d="M 92.36 351.594474 
L 142.153789 351.594474 
L 142.153789 344.709737 
L 92.36 344.709737 
z
" clip-path="url(#p359f42a7ff)" style="fill: #37539c"/>
   </g>
   <g id="patch_17">
    <path d="M 92.36 337.825 
L 175.349648 337.825 
L 175.349648 330.940263 
L 92.36 330.940263 
z
" clip-path="url(#p359f42a7ff)" style="fill: #37539c"/>
   </g>
   <g id="patch_18">
    <path d="M 92.36 324.055526 
L 108.95793 324.055526 
L 108.95793 317.170789 
L 92.36 317.170789 
z
" clip-path="url(#p359f42a7ff)" style="fill: #37539c"/>
   </g>
   <g id="patch_19">
    <path d="M 92.36 310.286053 
L 158.751718 310.286053 
L 158.751718 303.401316 
L 92.36 303.401316 
z
" clip-path="url(#p359f42a7ff)" style="fill: #37539c"/>
   </g>
   <g id="patch_20">
    <path d="M 92.36 296.516579 
L 183.648613 296.516579 
L 183.648613 289.631842 
L 92.36 289.631842 
z
" clip-path="url(#p359f42a7ff)" style="fill: #37539c"/>
   </g>
   <g id="patch_21">
    <path d="M 92.36 282.747105 
L 125.555859 282.747105 
L 125.555859 275.862368 
L 92.36 275.862368 
z
" clip-path="url(#p359f42a7ff)" style="fill: #37539c"/>
   </g>
   <g id="patch_22">
    <path d="M 92.36 268.977632 
L 175.349648 268.977632 
L 175.349648 262.092895 
L 92.36 262.092895 
z
" clip-path="url(#p359f42a7ff)" style="fill: #37539c"/>
   </g>
   <g id="patch_23">
    <path d="M 92.36 255.208158 
L 191.947578 255.208158 
L 191.947578 248.323421 
L 92.36 248.323421 
z
" clip-path="url(#p359f42a7ff)" style="fill: #37539c"/>
   </g>
   <g id="patch_24">
    <path d="M 92.36 241.438684 
L 117.256894 241.438684 
L 117.256894 234.553947 
L 92.36 234.553947 
z
" clip-path="url(#p359f42a7ff)" style="fill: #37539c"/>
   </g>
   <g id="patch_25">
    <path d="M 92.36 227.669211 
L 158.751718 227.669211 
L 158.751718 220.784474 
L 92.36 220.784474 
z
" clip-path="url(#p359f42a7ff)" style="fill: #37539c"/>
   </g>
   <g id="patch_26">
    <path d="M 92.36 213.899737 
L 183.648613 213.899737 
L 183.648613 207.015 
L 92.36 207.015 
z
" clip-path="url(#p359f42a7ff)" style="fill: #37539c"/>
   </g>
   <g id="patch_27">
    <path d="M 92.36 200.130263 
L 158.751718 200.130263 
L 158.751718 193.245526 
L 92.36 193.245526 
z
" clip-path="url(#p359f42a7ff)" style="fill: #37539c"/>
   </g>
   <g id="patch_28">
    <path d="M 92.36 186.360789 
L 117.256894 186.360789 
L 117.256894 179.476053 
L 92.36 179.476053 
z
" clip-path="url(#p359f42a7ff)" style="fill: #37539c"/>
   </g>
   <g id="patch_29">
    <path d="M 92.36 172.591316 
L 175.349648 172.591316 
L 175.349648 165.706579 
L 92.36 165.706579 
z
" clip-path="url(#p359f42a7ff)" style="fill: #37539c"/>
   </g>
   <g id="patch_30">
    <path d="M 92.36 158.821842 
L 183.648613 158.821842 
L 183.648613 151.937105 
L 92.36 151.937105 
z
" clip-path="url(#p359f42a7ff)" style="fill: #37539c"/>
   </g>
   <g id="patch_31">
    <path d="M 92.36 145.052368 
L 200.246542 145.052368 
L 200.246542 138.167632 
L 92.36 138.167632 
z
" clip-path="url(#p359f42a7ff)" style="fill: #37539c"/>
   </g>
   <g id="patch_32">
    <path d="M 92.36 131.282895 
L 250.040331 131.282895 
L 250.040331 124.398158 
L 92.36 124.398158 
z
" clip-path="url(#p359f42a7ff)" style="fill: #37539c"/>
   </g>
   <g id="patch_33">
    <path d="M 92.36 117.513421 
L 175.349648 117.513421 
L 175.349648 110.628684 
L 92.36 110.628684 
z
" clip-path="url(#p359f42a7ff)" style="fill: #37539c"/>
   </g>
   <g id="patch_34">
    <path d="M 92.36 103.743947 
L 150.452754 103.743947 
L 150.452754 96.859211 
L 92.36 96.859211 
z
" clip-path="url(#p359f42a7ff)" style="fill: #37539c"/>
   </g>
   <g id="patch_35">
    <path d="M 92.36 89.974474 
L 142.153789 89.974474 
L 142.153789 83.089737 
L 92.36 83.089737 
z
" clip-path="url(#p359f42a7ff)" style="fill: #37539c"/>
   </g>
   <g id="patch_36">
    <path d="M 92.36 76.205 
L 167.050683 76.205 
L 167.050683 69.320263 
L 92.36 69.320263 
z
" clip-path="url(#p359f42a7ff)" style="fill: #37539c"/>
   </g>
   <g id="patch_37">
    <path d="M 92.36 62.435526 
L 258.339296 62.435526 
L 258.339296 55.550789 
L 92.36 55.550789 
z
" clip-path="url(#p359f42a7ff)" style="fill: #37539c"/>
   </g>
   <g id="patch_38">
    <path d="M 92.36 48.666053 
L 158.751718 48.666053 
L 158.751718 41.781316 
L 92.36 41.781316 
z
" clip-path="url(#p359f42a7ff)" style="fill: #37539c"/>
   </g>
   <g id="patch_39">
    <path d="M 92.36 34.896579 
L 200.246542 34.896579 
L 200.246542 28.011842 
L 92.36 28.011842 
z
" clip-path="url(#p359f42a7ff)" style="fill: #37539c"/>
   </g>
   <g id="patch_40">
    <path d="M 92.36 21.127105 
L 216.844472 21.127105 
L 216.844472 14.242368 
L 92.36 14.242368 
z
" clip-path="url(#p359f42a7ff)" style="fill: #37539c"/>
   </g>
   <g id="patch_41">
    <path d="M 92.36 530.597632 
L 100.658965 530.597632 
L 100.658965 523.712895 
L 92.36 523.712895 
z
" clip-path="url(#p359f42a7ff)" style="fill: #59c3c3"/>
   </g>
   <g id="patch_42">
    <path d="M 92.36 516.828158 
L 92.36 516.828158 
L 92.36 509.943421 
L 92.36 509.943421 
z
" clip-path="url(#p359f42a7ff)" style="fill: #59c3c3"/>
   </g>
   <g id="patch_43">
    <path d="M 92.36 503.058684 
L 92.36 503.058684 
L 92.36 496.173947 
L 92.36 496.173947 
z
" clip-path="url(#p359f42a7ff)" style="fill: #59c3c3"/>
   </g>
   <g id="patch_44">
    <path d="M 100.658965 489.289211 
L 108.95793 489.289211 
L 108.95793 482.404474 
L 100.658965 482.404474 
z
" clip-path="url(#p359f42a7ff)" style="fill: #59c3c3"/>
   </g>
   <g id="patch_45">
    <path d="M 92.36 475.519737 
L 92.36 475.519737 
L 92.36 468.635 
L 92.36 468.635 
z
" clip-path="url(#p359f42a7ff)" style="fill: #59c3c3"/>
   </g>
   <g id="patch_46">
    <path d="M 92.36 461.750263 
L 92.36 461.750263 
L 92.36 454.865526 
L 92.36 454.865526 
z
" clip-path="url(#p359f42a7ff)" style="fill: #59c3c3"/>
   </g>
   <g id="patch_47">
    <path d="M 100.658965 447.980789 
L 125.555859 447.980789 
L 125.555859 441.096053 
L 100.658965 441.096053 
z
" clip-path="url(#p359f42a7ff)" style="fill: #59c3c3"/>
   </g>
   <g id="patch_48">
    <path d="M 92.36 434.211316 
L 92.36 434.211316 
L 92.36 427.326579 
L 92.36 427.326579 
z
" clip-path="url(#p359f42a7ff)" style="fill: #59c3c3"/>
   </g>
   <g id="patch_49">
    <path d="M 108.95793 420.441842 
L 142.153789 420.441842 
L 142.153789 413.557105 
L 108.95793 413.557105 
z
" clip-path="url(#p359f42a7ff)" style="fill: #59c3c3"/>
   </g>
   <g id="patch_50">
    <path d="M 92.36 406.672368 
L 92.36 406.672368 
L 92.36 399.787632 
L 92.36 399.787632 
z
" clip-path="url(#p359f42a7ff)" style="fill: #59c3c3"/>
   </g>
   <g id="patch_51">
    <path d="M 92.36 392.902895 
L 92.36 392.902895 
L 92.36 386.018158 
L 92.36 386.018158 
z
" clip-path="url(#p359f42a7ff)" style="fill: #59c3c3"/>
   </g>
   <g id="patch_52">
    <path d="M 133.854824 379.133421 
L 158.751718 379.133421 
L 158.751718 372.248684 
L 133.854824 372.248684 
z
" clip-path="url(#p359f42a7ff)" style="fill: #59c3c3"/>
   </g>
   <g id="patch_53">
    <path d="M 125.555859 365.363947 
L 158.751718 365.363947 
L 158.751718 358.479211 
L 125.555859 358.479211 
z
" clip-path="url(#p359f42a7ff)" style="fill: #59c3c3"/>
   </g>
   <g id="patch_54">
    <path d="M 142.153789 351.594474 
L 167.050683 351.594474 
L 167.050683 344.709737 
L 142.153789 344.709737 
z
" clip-path="url(#p359f42a7ff)" style="fill: #59c3c3"/>
   </g>
   <g id="patch_55">
    <path d="M 92.36 337.825 
L 92.36 337.825 
L 92.36 330.940263 
L 92.36 330.940263 
z
" clip-path="url(#p359f42a7ff)" style="fill: #59c3c3"/>
   </g>
   <g id="patch_56">
    <path d="M 108.95793 324.055526 
L 183.648613 324.055526 
L 183.648613 317.170789 
L 108.95793 317.170789 
z
" clip-path="url(#p359f42a7ff)" style="fill: #59c3c3"/>
   </g>
   <g id="patch_57">
    <path d="M 158.751718 310.286053 
L 191.947578 310.286053 
L 191.947578 303.401316 
L 158.751718 303.401316 
z
" clip-path="url(#p359f42a7ff)" style="fill: #59c3c3"/>
   </g>
   <g id="patch_58">
    <path d="M 183.648613 296.516579 
L 208.545507 296.516579 
L 208.545507 289.631842 
L 183.648613 289.631842 
z
" clip-path="url(#p359f42a7ff)" style="fill: #59c3c3"/>
   </g>
   <g id="patch_59">
    <path d="M 125.555859 282.747105 
L 208.545507 282.747105 
L 208.545507 275.862368 
L 125.555859 275.862368 
z
" clip-path="url(#p359f42a7ff)" style="fill: #59c3c3"/>
   </g>
   <g id="patch_60">
    <path d="M 175.349648 268.977632 
L 208.545507 268.977632 
L 208.545507 262.092895 
L 175.349648 262.092895 
z
" clip-path="url(#p359f42a7ff)" style="fill: #59c3c3"/>
   </g>
   <g id="patch_61">
    <path d="M 191.947578 255.208158 
L 216.844472 255.208158 
L 216.844472 248.323421 
L 191.947578 248.323421 
z
" clip-path="url(#p359f42a7ff)" style="fill: #59c3c3"/>
   </g>
   <g id="patch_62">
    <path d="M 117.256894 241.438684 
L 216.844472 241.438684 
L 216.844472 234.553947 
L 117.256894 234.553947 
z
" clip-path="url(#p359f42a7ff)" style="fill: #59c3c3"/>
   </g>
   <g id="patch_63">
    <path d="M 158.751718 227.669211 
L 241.741366 227.669211 
L 241.741366 220.784474 
L 158.751718 220.784474 
z
" clip-path="url(#p359f42a7ff)" style="fill: #59c3c3"/>
   </g>
   <g id="patch_64">
    <path d="M 183.648613 213.899737 
L 250.040331 213.899737 
L 250.040331 207.015 
L 183.648613 207.015 
z
" clip-path="url(#p359f42a7ff)" style="fill: #59c3c3"/>
   </g>
   <g id="patch_65">
    <path d="M 158.751718 200.130263 
L 266.638261 200.130263 
L 266.638261 193.245526 
L 158.751718 193.245526 
z
" clip-path="url(#p359f42a7ff)" style="fill: #59c3c3"/>
   </g>
   <g id="patch_66">
    <path d="M 117.256894 186.360789 
L 266.638261 186.360789 
L 266.638261 179.476053 
L 117.256894 179.476053 
z
" clip-path="url(#p359f42a7ff)" style="fill: #59c3c3"/>
   </g>
   <g id="patch_67">
    <path d="M 175.349648 172.591316 
L 274.937226 172.591316 
L 274.937226 165.706579 
L 175.349648 165.706579 
z
" clip-path="url(#p359f42a7ff)" style="fill: #59c3c3"/>
   </g>
   <g id="patch_68">
    <path d="M 183.648613 158.821842 
L 283.23619 158.821842 
L 283.23619 151.937105 
L 183.648613 151.937105 
z
" clip-path="url(#p359f42a7ff)" style="fill: #59c3c3"/>
   </g>
   <g id="patch_69">
    <path d="M 200.246542 145.052368 
L 291.535155 145.052368 
L 291.535155 138.167632 
L 200.246542 138.167632 
z
" clip-path="url(#p359f42a7ff)" style="fill: #59c3c3"/>
   </g>
   <g id="patch_70">
    <path d="M 250.040331 131.282895 
L 291.535155 131.282895 
L 291.535155 124.398158 
L 250.040331 124.398158 
z
" clip-path="url(#p359f42a7ff)" style="fill: #59c3c3"/>
   </g>
   <g id="patch_71">
    <path d="M 175.349648 117.513421 
L 299.83412 117.513421 
L 299.83412 110.628684 
L 175.349648 110.628684 
z
" clip-path="url(#p359f42a7ff)" style="fill: #59c3c3"/>
   </g>
   <g id="patch_72">
    <path d="M 150.452754 103.743947 
L 308.133085 103.743947 
L 308.133085 96.859211 
L 150.452754 96.859211 
z
" clip-path="url(#p359f42a7ff)" style="fill: #59c3c3"/>
   </g>
   <g id="patch_73">
    <path d="M 142.153789 89.974474 
L 341.328944 89.974474 
L 341.328944 83.089737 
L 142.153789 83.089737 
z
" clip-path="url(#p359f42a7ff)" style="fill: #59c3c3"/>
   </g>
   <g id="patch_74">
    <path d="M 167.050683 76.205 
L 357.926874 76.205 
L 357.926874 69.320263 
L 167.050683 69.320263 
z
" clip-path="url(#p359f42a7ff)" style="fill: #59c3c3"/>
   </g>
   <g id="patch_75">
    <path d="M 258.339296 62.435526 
L 374.524803 62.435526 
L 374.524803 55.550789 
L 258.339296 55.550789 
z
" clip-path="url(#p359f42a7ff)" style="fill: #59c3c3"/>
   </g>
   <g id="patch_76">
    <path d="M 158.751718 48.666053 
L 382.823768 48.666053 
L 382.823768 41.781316 
L 158.751718 41.781316 
z
" clip-path="url(#p359f42a7ff)" style="fill: #59c3c3"/>
   </g>
   <g id="patch_77">
    <path d="M 200.246542 34.896579 
L 440.916522 34.896579 
L 440.916522 28.011842 
L 200.246542 28.011842 
z
" clip-path="url(#p359f42a7ff)" style="fill: #59c3c3"/>
   </g>
   <g id="patch_78">
    <path d="M 216.844472 21.127105 
L 474.112381 21.127105 
L 474.112381 14.242368 
L 216.844472 14.242368 
z
" clip-path="url(#p359f42a7ff)" style="fill: #59c3c3"/>
   </g>
   <g id="patch_79">
    <path d="M 92.36 534.04 
L 92.36 10.8 
" style="fill: none; stroke: #000000; stroke-width: 0.8; stroke-linejoin: miter; stroke-linecap: square"/>
   </g>
   <g id="patch_80">
    <path d="M 92.36 534.04 
L 493.2 534.04 
" style="fill: none; stroke: #000000; stroke-width: 0.8; stroke-linejoin: miter; stroke-linecap: square"/>
   </g>
   <g id="text_51">
    <!-- 0.22% -->
    <g style="fill: #37539c" transform="translate(279.086708 173.279789) scale(0.1 -0.1)">
     <defs>
      <path id="OpenSans-Bold-25" d="M 1275 4634 
Q 1813 4634 2091 4259 
Q 2369 3884 2369 3206 
Q 2369 2528 2106 2147 
Q 1844 1766 1275 1766 
Q 747 1766 472 2147 
Q 197 2528 197 3206 
Q 197 3884 455 4259 
Q 713 4634 1275 4634 
z
M 1281 3981 
Q 1128 3981 1056 3787 
Q 984 3594 984 3200 
Q 984 2806 1056 2609 
Q 1128 2413 1281 2413 
Q 1434 2413 1507 2608 
Q 1581 2803 1581 3200 
Q 1581 3594 1507 3787 
Q 1434 3981 1281 3981 
z
M 4519 4569 
L 1984 0 
L 1234 0 
L 3769 4569 
L 4519 4569 
z
M 4475 2809 
Q 5013 2809 5291 2434 
Q 5569 2059 5569 1381 
Q 5569 706 5306 325 
Q 5044 -56 4475 -56 
Q 3947 -56 3672 325 
Q 3397 706 3397 1381 
Q 3397 2059 3655 2434 
Q 3913 2809 4475 2809 
z
M 4481 2156 
Q 4328 2156 4256 1962 
Q 4184 1769 4184 1375 
Q 4184 981 4256 784 
Q 4328 588 4481 588 
Q 4634 588 4707 783 
Q 4781 978 4781 1375 
Q 4781 1769 4707 1962 
Q 4634 2156 4481 2156 
z
" transform="scale(0.015625)"/>
     </defs>
     <use xlink:href="#OpenSans-Bold-30"/>
     <use xlink:href="#OpenSans-Bold-2e" x="57.177734"/>
     <use xlink:href="#OpenSans-Bold-32" x="85.693359"/>
     <use xlink:href="#OpenSans-Bold-32" x="142.871094"/>
     <use xlink:href="#OpenSans-Bold-25" x="200.048828"/>
    </g>
   </g>
   <g id="text_52">
    <!-- 0.02% -->
    <g style="fill: #37539c" transform="translate(113.107412 489.977684) scale(0.1 -0.1)">
     <use xlink:href="#OpenSans-Bold-30"/>
     <use xlink:href="#OpenSans-Bold-2e" x="57.177734"/>
     <use xlink:href="#OpenSans-Bold-30" x="85.693359"/>
     <use xlink:href="#OpenSans-Bold-32" x="142.871094"/>
     <use xlink:href="#OpenSans-Bold-25" x="200.048828"/>
    </g>
   </g>
   <g id="legend_1">
    <g id="patch_81">
     <path d="M 338.25625 529.04 
L 486.2 529.04 
Q 488.2 529.04 488.2 527.04 
L 488.2 498.036875 
Q 488.2 496.036875 486.2 496.036875 
L 338.25625 496.036875 
Q 336.25625 496.036875 336.25625 498.036875 
L 336.25625 527.04 
Q 336.25625 529.04 338.25625 529.04 
z
" style="fill: #ffffff; opacity: 0.8; stroke: #cccccc; stroke-linejoin: miter"/>
    </g>
    <g id="patch_82">
     <path d="M 340.25625 507.635312 
L 360.25625 507.635312 
L 360.25625 500.635312 
L 340.25625 500.635312 
z
" style="fill: #37539c"/>
    </g>
    <g id="text_53">
     <!-- Financiamiento directo -->
     <g style="fill: #37539c" transform="translate(368.25625 507.635312) scale(0.1 -0.1)">
      <use xlink:href="#OpenSans-Bold-46"/>
      <use xlink:href="#OpenSans-Bold-69" x="54.882812"/>
      <use xlink:href="#OpenSans-Bold-6e" x="85.400391"/>
      <use xlink:href="#OpenSans-Bold-61" x="151.123047"/>
      <use xlink:href="#OpenSans-Bold-6e" x="211.523438"/>
      <use xlink:href="#OpenSans-Bold-63" x="277.246094"/>
      <use xlink:href="#OpenSans-Bold-69" x="328.662109"/>
      <use xlink:href="#OpenSans-Bold-61" x="359.179688"/>
      <use xlink:href="#OpenSans-Bold-6d" x="419.580078"/>
      <use xlink:href="#OpenSans-Bold-69" x="517.773438"/>
      <use xlink:href="#OpenSans-Bold-65" x="548.291016"/>
      <use xlink:href="#OpenSans-Bold-6e" x="607.373047"/>
      <use xlink:href="#OpenSans-Bold-74" x="673.095703"/>
      <use xlink:href="#OpenSans-Bold-6f" x="716.503906"/>
      <use xlink:href="#OpenSans-Bold-20" x="778.417969"/>
      <use xlink:href="#OpenSans-Bold-64" x="804.394531"/>
      <use xlink:href="#OpenSans-Bold-69" x="867.675781"/>
      <use xlink:href="#OpenSans-Bold-72" x="898.193359"/>
      <use xlink:href="#OpenSans-Bold-65" x="943.603516"/>
      <use xlink:href="#OpenSans-Bold-63" x="1002.685547"/>
      <use xlink:href="#OpenSans-Bold-74" x="1054.101562"/>
      <use xlink:href="#OpenSans-Bold-6f" x="1097.509766"/>
     </g>
    </g>
    <g id="patch_83">
     <path d="M 340.25625 522.636875 
L 360.25625 522.636875 
L 360.25625 515.636875 
L 340.25625 515.636875 
z
" style="fill: #59c3c3"/>
    </g>
    <g id="text_54">
     <!-- Incentivo tributario -->
     <g style="fill: #37539c" transform="translate(368.25625 522.636875) scale(0.1 -0.1)">
      <use xlink:href="#OpenSans-Bold-49"/>
      <use xlink:href="#OpenSans-Bold-6e" x="33.105469"/>
      <use xlink:href="#OpenSans-Bold-63" x="98.828125"/>
      <use xlink:href="#OpenSans-Bold-65" x="150.244141"/>
      <use xlink:href="#OpenSans-Bold-6e" x="209.326172"/>
      <use xlink:href="#OpenSans-Bold-74" x="275.048828"/>
      <use xlink:href="#OpenSans-Bold-69" x="318.457031"/>
      <use xlink:href="#OpenSans-Bold-76" x="348.974609"/>
      <use xlink:href="#OpenSans-Bold-6f" x="405.859375"/>
      <use xlink:href="#OpenSans-Bold-20" x="467.773438"/>
      <use xlink:href="#OpenSans-Bold-74" x="493.75"/>
      <use xlink:href="#OpenSans-Bold-72" x="537.158203"/>
      <use xlink:href="#OpenSans-Bold-69" x="582.568359"/>
      <use xlink:href="#OpenSans-Bold-62" x="613.085938"/>
      <use xlink:href="#OpenSans-Bold-75" x="676.367188"/>
      <use xlink:href="#OpenSans-Bold-74" x="742.089844"/>
      <use xlink:href="#OpenSans-Bold-61" x="785.498047"/>
      <use xlink:href="#OpenSans-Bold-72" x="845.898438"/>
      <use xlink:href="#OpenSans-Bold-69" x="891.308594"/>
      <use xlink:href="#OpenSans-Bold-6f" x="921.826172"/>
     </g>
    </g>
   </g>
  </g>
 </g>
 <defs>
  <clipPath id="p359f42a7ff">
   <rect x="92.36" y="10.8" width="400.84" height="523.24"/>
  </clipPath>
 </defs>
</svg>
