<?xml version="1.0" encoding="utf-8" standalone="no"?>
<!DOCTYPE svg PUBLIC "-//W3C//DTD SVG 1.1//EN"
  "http://www.w3.org/Graphics/SVG/1.1/DTD/svg11.dtd">
<svg xmlns:xlink="http://www.w3.org/1999/xlink" width="432pt" height="252pt" viewBox="0 0 432 252" xmlns="http://www.w3.org/2000/svg" version="1.1">
 <metadata>
  <rdf:RDF xmlns:dc="http://purl.org/dc/elements/1.1/" xmlns:cc="http://creativecommons.org/ns#" xmlns:rdf="http://www.w3.org/1999/02/22-rdf-syntax-ns#">
   <cc:Work>
    <dc:type rdf:resource="http://purl.org/dc/dcmitype/StillImage"/>
    <dc:date>2024-02-26T21:21:15.954821</dc:date>
    <dc:format>image/svg+xml</dc:format>
    <dc:creator>
     <cc:Agent>
      <dc:title>Matplotlib v3.7.1, https://matplotlib.org/</dc:title>
     </cc:Agent>
    </dc:creator>
   </cc:Work>
  </rdf:RDF>
 </metadata>
 <defs>
  <style type="text/css">*{stroke-linejoin: round; stroke-linecap: butt}</style>
 </defs>
 <g id="figure_1">
  <g id="patch_1">
   <path d="M 0 252 
L 432 252 
L 432 0 
L 0 0 
z
" style="fill: #ffffff"/>
  </g>
  <g id="axes_1">
   <g id="patch_2">
    <path d="M 52.36 217.208 
L 421.2 217.208 
L 421.2 10.8 
L 52.36 10.8 
z
" style="fill: #ffffff"/>
   </g>
   <g id="matplotlib.axis_1">
    <g id="xtick_1">
     <g id="line2d_1">
      <defs>
       <path id="md470411336" d="M 0 0 
L 0 3.5 
" style="stroke: #37539c; stroke-width: 0.8"/>
      </defs>
      <g>
       <use xlink:href="#md470411336" x="83.096667" y="217.208" style="fill: #37539c; stroke: #37539c; stroke-width: 0.8"/>
      </g>
     </g>
     <g id="text_1">
      <!-- Macrozona -->
      <g style="fill: #37539c" transform="translate(61.086042 230.28675) scale(0.08 -0.08)">
       <defs>
        <path id="OpenSans-Bold-4d" d="M 2509 0 
L 1409 3584 
L 1381 3584 
Q 1388 3456 1402 3198 
Q 1416 2941 1428 2650 
Q 1441 2359 1441 2125 
L 1441 0 
L 575 0 
L 575 4569 
L 1894 4569 
L 2975 1075 
L 2994 1075 
L 4141 4569 
L 5459 4569 
L 5459 0 
L 4556 0 
L 4556 2163 
Q 4556 2378 4564 2659 
Q 4572 2941 4584 3195 
Q 4597 3450 4603 3578 
L 4575 3578 
L 3397 0 
L 2509 0 
z
" transform="scale(0.015625)"/>
        <path id="OpenSans-Bold-61" d="M 1931 3566 
Q 2634 3566 3009 3259 
Q 3384 2953 3384 2328 
L 3384 0 
L 2719 0 
L 2534 475 
L 2509 475 
Q 2359 288 2203 169 
Q 2047 50 1844 -6 
Q 1641 -63 1350 -63 
Q 1041 -63 795 56 
Q 550 175 409 420 
Q 269 666 269 1044 
Q 269 1600 659 1864 
Q 1050 2128 1831 2156 
L 2438 2175 
L 2438 2328 
Q 2438 2603 2294 2731 
Q 2150 2859 1894 2859 
Q 1641 2859 1397 2787 
Q 1153 2716 909 2606 
L 594 3250 
Q 872 3397 1217 3481 
Q 1563 3566 1931 3566 
z
M 2438 1619 
L 2069 1606 
Q 1606 1594 1426 1441 
Q 1247 1288 1247 1038 
Q 1247 819 1375 726 
Q 1503 634 1709 634 
Q 2016 634 2227 815 
Q 2438 997 2438 1331 
L 2438 1619 
z
" transform="scale(0.015625)"/>
        <path id="OpenSans-Bold-63" d="M 1919 -63 
Q 1400 -63 1034 126 
Q 669 316 478 712 
Q 288 1109 288 1728 
Q 288 2369 505 2773 
Q 722 3178 1108 3368 
Q 1494 3559 2003 3559 
Q 2366 3559 2630 3489 
Q 2894 3419 3091 3322 
L 2809 2584 
Q 2584 2675 2390 2733 
Q 2197 2791 2003 2791 
Q 1753 2791 1587 2673 
Q 1422 2556 1340 2322 
Q 1259 2088 1259 1734 
Q 1259 1388 1346 1159 
Q 1434 931 1600 820 
Q 1766 709 2003 709 
Q 2300 709 2531 789 
Q 2763 869 2981 1013 
L 2981 197 
Q 2763 59 2523 -2 
Q 2284 -63 1919 -63 
z
" transform="scale(0.015625)"/>
        <path id="OpenSans-Bold-72" d="M 2450 3559 
Q 2522 3559 2617 3551 
Q 2713 3544 2772 3531 
L 2700 2638 
Q 2653 2653 2567 2661 
Q 2481 2669 2419 2669 
Q 2234 2669 2061 2622 
Q 1888 2575 1750 2470 
Q 1613 2366 1533 2195 
Q 1453 2025 1453 1778 
L 1453 0 
L 500 0 
L 500 3494 
L 1222 3494 
L 1363 2906 
L 1409 2906 
Q 1513 3084 1667 3232 
Q 1822 3381 2020 3470 
Q 2219 3559 2450 3559 
z
" transform="scale(0.015625)"/>
        <path id="OpenSans-Bold-6f" d="M 3675 1753 
Q 3675 1316 3558 978 
Q 3441 641 3217 408 
Q 2994 175 2680 56 
Q 2366 -63 1972 -63 
Q 1603 -63 1295 56 
Q 988 175 761 408 
Q 534 641 411 978 
Q 288 1316 288 1753 
Q 288 2334 494 2737 
Q 700 3141 1081 3350 
Q 1463 3559 1991 3559 
Q 2481 3559 2861 3350 
Q 3241 3141 3458 2737 
Q 3675 2334 3675 1753 
z
M 1259 1753 
Q 1259 1409 1334 1175 
Q 1409 941 1568 822 
Q 1728 703 1984 703 
Q 2238 703 2395 822 
Q 2553 941 2626 1175 
Q 2700 1409 2700 1753 
Q 2700 2100 2626 2329 
Q 2553 2559 2393 2675 
Q 2234 2791 1978 2791 
Q 1600 2791 1429 2531 
Q 1259 2272 1259 1753 
z
" transform="scale(0.015625)"/>
        <path id="OpenSans-Bold-7a" d="M 2931 0 
L 172 0 
L 172 563 
L 1791 2766 
L 269 2766 
L 269 3494 
L 2875 3494 
L 2875 2875 
L 1300 728 
L 2931 728 
L 2931 0 
z
" transform="scale(0.015625)"/>
        <path id="OpenSans-Bold-6e" d="M 2484 3559 
Q 3044 3559 3384 3254 
Q 3725 2950 3725 2278 
L 3725 0 
L 2772 0 
L 2772 2041 
Q 2772 2416 2636 2606 
Q 2500 2797 2209 2797 
Q 1772 2797 1612 2500 
Q 1453 2203 1453 1644 
L 1453 0 
L 500 0 
L 500 3494 
L 1228 3494 
L 1356 3047 
L 1409 3047 
Q 1522 3228 1689 3340 
Q 1856 3453 2061 3506 
Q 2266 3559 2484 3559 
z
" transform="scale(0.015625)"/>
       </defs>
       <use xlink:href="#OpenSans-Bold-4d"/>
       <use xlink:href="#OpenSans-Bold-61" x="94.287109"/>
       <use xlink:href="#OpenSans-Bold-63" x="154.6875"/>
       <use xlink:href="#OpenSans-Bold-72" x="206.103516"/>
       <use xlink:href="#OpenSans-Bold-6f" x="251.513672"/>
       <use xlink:href="#OpenSans-Bold-7a" x="313.427734"/>
       <use xlink:href="#OpenSans-Bold-6f" x="362.207031"/>
       <use xlink:href="#OpenSans-Bold-6e" x="424.121094"/>
       <use xlink:href="#OpenSans-Bold-61" x="489.84375"/>
      </g>
      <!-- Norte -->
      <g style="fill: #37539c" transform="translate(71.452292 239.50375) scale(0.08 -0.08)">
       <defs>
        <path id="OpenSans-Bold-4e" d="M 4628 0 
L 3397 0 
L 1409 3456 
L 1381 3456 
Q 1394 3241 1403 3022 
Q 1413 2803 1422 2586 
Q 1431 2369 1441 2150 
L 1441 0 
L 575 0 
L 575 4569 
L 1797 4569 
L 3781 1147 
L 3803 1147 
Q 3797 1359 3787 1568 
Q 3778 1778 3770 1987 
Q 3763 2197 3756 2406 
L 3756 4569 
L 4628 4569 
L 4628 0 
z
" transform="scale(0.015625)"/>
        <path id="OpenSans-Bold-74" d="M 1972 697 
Q 2128 697 2276 728 
Q 2425 759 2572 806 
L 2572 97 
Q 2419 28 2192 -17 
Q 1966 -63 1697 -63 
Q 1384 -63 1136 39 
Q 888 141 745 392 
Q 603 644 603 1094 
L 603 2778 
L 147 2778 
L 147 3181 
L 672 3500 
L 947 4238 
L 1556 4238 
L 1556 3494 
L 2534 3494 
L 2534 2778 
L 1556 2778 
L 1556 1094 
Q 1556 894 1670 795 
Q 1784 697 1972 697 
z
" transform="scale(0.015625)"/>
        <path id="OpenSans-Bold-65" d="M 1941 3559 
Q 2425 3559 2775 3373 
Q 3125 3188 3315 2834 
Q 3506 2481 3506 1972 
L 3506 1509 
L 1253 1509 
Q 1269 1106 1495 876 
Q 1722 647 2125 647 
Q 2459 647 2737 715 
Q 3016 784 3309 922 
L 3309 184 
Q 3050 56 2767 -3 
Q 2484 -63 2081 -63 
Q 1556 -63 1151 131 
Q 747 325 517 722 
Q 288 1119 288 1722 
Q 288 2334 495 2742 
Q 703 3150 1075 3354 
Q 1447 3559 1941 3559 
z
M 1947 2881 
Q 1669 2881 1486 2703 
Q 1303 2525 1275 2144 
L 2613 2144 
Q 2609 2356 2536 2522 
Q 2463 2688 2317 2784 
Q 2172 2881 1947 2881 
z
" transform="scale(0.015625)"/>
       </defs>
       <use xlink:href="#OpenSans-Bold-4e"/>
       <use xlink:href="#OpenSans-Bold-6f" x="81.298828"/>
       <use xlink:href="#OpenSans-Bold-72" x="143.212891"/>
       <use xlink:href="#OpenSans-Bold-74" x="188.623047"/>
       <use xlink:href="#OpenSans-Bold-65" x="232.03125"/>
      </g>
     </g>
    </g>
    <g id="xtick_2">
     <g id="line2d_2">
      <g>
       <use xlink:href="#md470411336" x="144.57" y="217.208" style="fill: #37539c; stroke: #37539c; stroke-width: 0.8"/>
      </g>
     </g>
     <g id="text_2">
      <!-- Macrozona -->
      <g style="fill: #37539c" transform="translate(122.559375 230.28675) scale(0.08 -0.08)">
       <use xlink:href="#OpenSans-Bold-4d"/>
       <use xlink:href="#OpenSans-Bold-61" x="94.287109"/>
       <use xlink:href="#OpenSans-Bold-63" x="154.6875"/>
       <use xlink:href="#OpenSans-Bold-72" x="206.103516"/>
       <use xlink:href="#OpenSans-Bold-6f" x="251.513672"/>
       <use xlink:href="#OpenSans-Bold-7a" x="313.427734"/>
       <use xlink:href="#OpenSans-Bold-6f" x="362.207031"/>
       <use xlink:href="#OpenSans-Bold-6e" x="424.121094"/>
       <use xlink:href="#OpenSans-Bold-61" x="489.84375"/>
      </g>
      <!-- Centro -->
      <g style="fill: #37539c" transform="translate(131 239.50375) scale(0.08 -0.08)">
       <defs>
        <path id="OpenSans-Bold-43" d="M 2516 3828 
Q 2238 3828 2023 3720 
Q 1809 3613 1664 3409 
Q 1519 3206 1444 2918 
Q 1369 2631 1369 2272 
Q 1369 1788 1489 1445 
Q 1609 1103 1862 923 
Q 2116 744 2516 744 
Q 2794 744 3073 806 
Q 3353 869 3681 984 
L 3681 172 
Q 3378 47 3084 -8 
Q 2791 -63 2425 -63 
Q 1719 -63 1264 229 
Q 809 522 590 1048 
Q 372 1575 372 2278 
Q 372 2797 512 3228 
Q 653 3659 925 3975 
Q 1197 4291 1597 4462 
Q 1997 4634 2516 4634 
Q 2856 4634 3198 4548 
Q 3541 4463 3853 4313 
L 3541 3525 
Q 3284 3647 3025 3737 
Q 2766 3828 2516 3828 
z
" transform="scale(0.015625)"/>
       </defs>
       <use xlink:href="#OpenSans-Bold-43"/>
       <use xlink:href="#OpenSans-Bold-65" x="63.720703"/>
       <use xlink:href="#OpenSans-Bold-6e" x="122.802734"/>
       <use xlink:href="#OpenSans-Bold-74" x="188.525391"/>
       <use xlink:href="#OpenSans-Bold-72" x="231.933594"/>
       <use xlink:href="#OpenSans-Bold-6f" x="277.34375"/>
      </g>
     </g>
    </g>
    <g id="xtick_3">
     <g id="line2d_3">
      <g>
       <use xlink:href="#md470411336" x="206.043333" y="217.208" style="fill: #37539c; stroke: #37539c; stroke-width: 0.8"/>
      </g>
     </g>
     <g id="text_3">
      <!-- Macrozona -->
      <g style="fill: #37539c" transform="translate(184.032708 230.28675) scale(0.08 -0.08)">
       <use xlink:href="#OpenSans-Bold-4d"/>
       <use xlink:href="#OpenSans-Bold-61" x="94.287109"/>
       <use xlink:href="#OpenSans-Bold-63" x="154.6875"/>
       <use xlink:href="#OpenSans-Bold-72" x="206.103516"/>
       <use xlink:href="#OpenSans-Bold-6f" x="251.513672"/>
       <use xlink:href="#OpenSans-Bold-7a" x="313.427734"/>
       <use xlink:href="#OpenSans-Bold-6f" x="362.207031"/>
       <use xlink:href="#OpenSans-Bold-6e" x="424.121094"/>
       <use xlink:href="#OpenSans-Bold-61" x="489.84375"/>
      </g>
      <!-- Metropolitana -->
      <g style="fill: #37539c" transform="translate(177.232708 239.50375) scale(0.08 -0.08)">
       <defs>
        <path id="OpenSans-Bold-70" d="M 2444 3559 
Q 3034 3559 3398 3100 
Q 3763 2641 3763 1753 
Q 3763 1159 3591 754 
Q 3419 350 3116 143 
Q 2813 -63 2419 -63 
Q 2166 -63 1984 1 
Q 1803 66 1675 167 
Q 1547 269 1453 384 
L 1403 384 
Q 1428 259 1440 128 
Q 1453 -3 1453 -128 
L 1453 -1538 
L 500 -1538 
L 500 3494 
L 1275 3494 
L 1409 3041 
L 1453 3041 
Q 1547 3181 1681 3300 
Q 1816 3419 2005 3489 
Q 2194 3559 2444 3559 
z
M 2138 2797 
Q 1888 2797 1741 2694 
Q 1594 2591 1526 2384 
Q 1459 2178 1453 1863 
L 1453 1759 
Q 1453 1422 1517 1187 
Q 1581 953 1732 831 
Q 1884 709 2150 709 
Q 2369 709 2509 831 
Q 2650 953 2720 1189 
Q 2791 1425 2791 1766 
Q 2791 2278 2631 2537 
Q 2472 2797 2138 2797 
z
" transform="scale(0.015625)"/>
        <path id="OpenSans-Bold-6c" d="M 1453 0 
L 500 0 
L 500 4863 
L 1453 4863 
L 1453 0 
z
" transform="scale(0.015625)"/>
        <path id="OpenSans-Bold-69" d="M 1453 3494 
L 1453 0 
L 500 0 
L 500 3494 
L 1453 3494 
z
M 978 4863 
Q 1191 4863 1344 4764 
Q 1497 4666 1497 4397 
Q 1497 4131 1344 4029 
Q 1191 3928 978 3928 
Q 763 3928 611 4029 
Q 459 4131 459 4397 
Q 459 4666 611 4764 
Q 763 4863 978 4863 
z
" transform="scale(0.015625)"/>
       </defs>
       <use xlink:href="#OpenSans-Bold-4d"/>
       <use xlink:href="#OpenSans-Bold-65" x="94.287109"/>
       <use xlink:href="#OpenSans-Bold-74" x="153.369141"/>
       <use xlink:href="#OpenSans-Bold-72" x="196.777344"/>
       <use xlink:href="#OpenSans-Bold-6f" x="242.1875"/>
       <use xlink:href="#OpenSans-Bold-70" x="304.101562"/>
       <use xlink:href="#OpenSans-Bold-6f" x="367.382812"/>
       <use xlink:href="#OpenSans-Bold-6c" x="429.296875"/>
       <use xlink:href="#OpenSans-Bold-69" x="459.814453"/>
       <use xlink:href="#OpenSans-Bold-74" x="490.332031"/>
       <use xlink:href="#OpenSans-Bold-61" x="533.740234"/>
       <use xlink:href="#OpenSans-Bold-6e" x="594.140625"/>
       <use xlink:href="#OpenSans-Bold-61" x="659.863281"/>
      </g>
     </g>
    </g>
    <g id="xtick_4">
     <g id="line2d_4">
      <g>
       <use xlink:href="#md470411336" x="267.516667" y="217.208" style="fill: #37539c; stroke: #37539c; stroke-width: 0.8"/>
      </g>
     </g>
     <g id="text_4">
      <!-- Macrozona -->
      <g style="fill: #37539c" transform="translate(245.506042 230.28675) scale(0.08 -0.08)">
       <use xlink:href="#OpenSans-Bold-4d"/>
       <use xlink:href="#OpenSans-Bold-61" x="94.287109"/>
       <use xlink:href="#OpenSans-Bold-63" x="154.6875"/>
       <use xlink:href="#OpenSans-Bold-72" x="206.103516"/>
       <use xlink:href="#OpenSans-Bold-6f" x="251.513672"/>
       <use xlink:href="#OpenSans-Bold-7a" x="313.427734"/>
       <use xlink:href="#OpenSans-Bold-6f" x="362.207031"/>
       <use xlink:href="#OpenSans-Bold-6e" x="424.121094"/>
       <use xlink:href="#OpenSans-Bold-61" x="489.84375"/>
      </g>
      <!-- Centrosur -->
      <g style="fill: #37539c" transform="translate(247.513542 239.50375) scale(0.08 -0.08)">
       <defs>
        <path id="OpenSans-Bold-73" d="M 2938 1038 
Q 2938 681 2770 436 
Q 2603 191 2272 64 
Q 1941 -63 1447 -63 
Q 1081 -63 820 -16 
Q 559 31 294 141 
L 294 928 
Q 578 800 904 717 
Q 1231 634 1478 634 
Q 1756 634 1876 717 
Q 1997 800 1997 934 
Q 1997 1022 1948 1092 
Q 1900 1163 1740 1252 
Q 1581 1341 1241 1484 
Q 913 1622 702 1762 
Q 491 1903 389 2095 
Q 288 2288 288 2584 
Q 288 3069 664 3314 
Q 1041 3559 1672 3559 
Q 1997 3559 2292 3493 
Q 2588 3428 2900 3284 
L 2613 2597 
Q 2353 2709 2123 2781 
Q 1894 2853 1656 2853 
Q 1447 2853 1340 2797 
Q 1234 2741 1234 2625 
Q 1234 2541 1289 2475 
Q 1344 2409 1501 2329 
Q 1659 2250 1966 2125 
Q 2263 2003 2481 1870 
Q 2700 1738 2819 1542 
Q 2938 1347 2938 1038 
z
" transform="scale(0.015625)"/>
        <path id="OpenSans-Bold-75" d="M 3706 3494 
L 3706 0 
L 2975 0 
L 2847 447 
L 2797 447 
Q 2684 269 2515 156 
Q 2347 44 2144 -9 
Q 1941 -63 1722 -63 
Q 1347 -63 1069 70 
Q 791 203 636 484 
Q 481 766 481 1216 
L 481 3494 
L 1434 3494 
L 1434 1453 
Q 1434 1078 1568 887 
Q 1703 697 1997 697 
Q 2288 697 2453 830 
Q 2619 963 2686 1220 
Q 2753 1478 2753 1850 
L 2753 3494 
L 3706 3494 
z
" transform="scale(0.015625)"/>
       </defs>
       <use xlink:href="#OpenSans-Bold-43"/>
       <use xlink:href="#OpenSans-Bold-65" x="63.720703"/>
       <use xlink:href="#OpenSans-Bold-6e" x="122.802734"/>
       <use xlink:href="#OpenSans-Bold-74" x="188.525391"/>
       <use xlink:href="#OpenSans-Bold-72" x="231.933594"/>
       <use xlink:href="#OpenSans-Bold-6f" x="277.34375"/>
       <use xlink:href="#OpenSans-Bold-73" x="339.257812"/>
       <use xlink:href="#OpenSans-Bold-75" x="388.964844"/>
       <use xlink:href="#OpenSans-Bold-72" x="454.6875"/>
      </g>
     </g>
    </g>
    <g id="xtick_5">
     <g id="line2d_5">
      <g>
       <use xlink:href="#md470411336" x="328.99" y="217.208" style="fill: #37539c; stroke: #37539c; stroke-width: 0.8"/>
      </g>
     </g>
     <g id="text_5">
      <!-- Macrozona -->
      <g style="fill: #37539c" transform="translate(306.979375 230.28675) scale(0.08 -0.08)">
       <use xlink:href="#OpenSans-Bold-4d"/>
       <use xlink:href="#OpenSans-Bold-61" x="94.287109"/>
       <use xlink:href="#OpenSans-Bold-63" x="154.6875"/>
       <use xlink:href="#OpenSans-Bold-72" x="206.103516"/>
       <use xlink:href="#OpenSans-Bold-6f" x="251.513672"/>
       <use xlink:href="#OpenSans-Bold-7a" x="313.427734"/>
       <use xlink:href="#OpenSans-Bold-6f" x="362.207031"/>
       <use xlink:href="#OpenSans-Bold-6e" x="424.121094"/>
       <use xlink:href="#OpenSans-Bold-61" x="489.84375"/>
      </g>
      <!-- Sur -->
      <g style="fill: #37539c" transform="translate(322.341875 239.50375) scale(0.08 -0.08)">
       <defs>
        <path id="OpenSans-Bold-53" d="M 3272 1269 
Q 3272 863 3075 563 
Q 2878 263 2501 100 
Q 2125 -63 1588 -63 
Q 1350 -63 1123 -31 
Q 897 0 689 61 
Q 481 122 294 213 
L 294 1113 
Q 619 969 969 853 
Q 1319 738 1663 738 
Q 1900 738 2045 800 
Q 2191 863 2256 972 
Q 2322 1081 2322 1222 
Q 2322 1394 2206 1516 
Q 2091 1638 1889 1744 
Q 1688 1850 1434 1972 
Q 1275 2047 1087 2155 
Q 900 2263 731 2419 
Q 563 2575 455 2798 
Q 347 3022 347 3334 
Q 347 3744 534 4034 
Q 722 4325 1070 4479 
Q 1419 4634 1894 4634 
Q 2250 4634 2573 4551 
Q 2897 4469 3250 4313 
L 2938 3559 
Q 2622 3688 2372 3758 
Q 2122 3828 1863 3828 
Q 1681 3828 1553 3770 
Q 1425 3713 1359 3608 
Q 1294 3503 1294 3366 
Q 1294 3203 1389 3092 
Q 1484 2981 1676 2878 
Q 1869 2775 2156 2638 
Q 2506 2472 2754 2292 
Q 3003 2113 3137 1870 
Q 3272 1628 3272 1269 
z
" transform="scale(0.015625)"/>
       </defs>
       <use xlink:href="#OpenSans-Bold-53"/>
       <use xlink:href="#OpenSans-Bold-75" x="55.078125"/>
       <use xlink:href="#OpenSans-Bold-72" x="120.800781"/>
      </g>
     </g>
    </g>
    <g id="xtick_6">
     <g id="line2d_6">
      <g>
       <use xlink:href="#md470411336" x="390.463333" y="217.208" style="fill: #37539c; stroke: #37539c; stroke-width: 0.8"/>
      </g>
     </g>
     <g id="text_6">
      <!-- Macrozona -->
      <g style="fill: #37539c" transform="translate(368.452708 230.28675) scale(0.08 -0.08)">
       <use xlink:href="#OpenSans-Bold-4d"/>
       <use xlink:href="#OpenSans-Bold-61" x="94.287109"/>
       <use xlink:href="#OpenSans-Bold-63" x="154.6875"/>
       <use xlink:href="#OpenSans-Bold-72" x="206.103516"/>
       <use xlink:href="#OpenSans-Bold-6f" x="251.513672"/>
       <use xlink:href="#OpenSans-Bold-7a" x="313.427734"/>
       <use xlink:href="#OpenSans-Bold-6f" x="362.207031"/>
       <use xlink:href="#OpenSans-Bold-6e" x="424.121094"/>
       <use xlink:href="#OpenSans-Bold-61" x="489.84375"/>
      </g>
      <!-- Austral -->
      <g style="fill: #37539c" transform="translate(375.897083 239.50375) scale(0.08 -0.08)">
       <defs>
        <path id="OpenSans-Bold-41" d="M 3372 0 
L 3041 1088 
L 1375 1088 
L 1044 0 
L 0 0 
L 1613 4588 
L 2797 4588 
L 4416 0 
L 3372 0 
z
M 2809 1900 
L 2478 2963 
Q 2447 3069 2395 3236 
Q 2344 3403 2292 3576 
Q 2241 3750 2209 3878 
Q 2178 3750 2123 3561 
Q 2069 3372 2019 3203 
Q 1969 3034 1947 2963 
L 1619 1900 
L 2809 1900 
z
" transform="scale(0.015625)"/>
       </defs>
       <use xlink:href="#OpenSans-Bold-41"/>
       <use xlink:href="#OpenSans-Bold-75" x="68.994141"/>
       <use xlink:href="#OpenSans-Bold-73" x="134.716797"/>
       <use xlink:href="#OpenSans-Bold-74" x="184.423828"/>
       <use xlink:href="#OpenSans-Bold-72" x="227.832031"/>
       <use xlink:href="#OpenSans-Bold-61" x="273.242188"/>
       <use xlink:href="#OpenSans-Bold-6c" x="333.642578"/>
      </g>
     </g>
    </g>
   </g>
   <g id="matplotlib.axis_2">
    <g id="ytick_1">
     <g id="line2d_7">
      <path d="M 52.36 217.208 
L 421.2 217.208 
" clip-path="url(#p3f70c3aeb1)" style="fill: none; stroke-dasharray: 2.96,1.28; stroke-dashoffset: 0; stroke: #b0b0b0; stroke-width: 0.8"/>
     </g>
     <g id="line2d_8">
      <defs>
       <path id="m69888069cc" d="M 0 0 
L -3.5 0 
" style="stroke: #37539c; stroke-width: 0.8"/>
      </defs>
      <g>
       <use xlink:href="#m69888069cc" x="52.36" y="217.208" style="fill: #37539c; stroke: #37539c; stroke-width: 0.8"/>
      </g>
     </g>
     <g id="text_7">
      <!-- 0 -->
      <g style="fill: #37539c" transform="translate(39.642813 221.007219) scale(0.1 -0.1)">
       <defs>
        <path id="OpenSans-Bold-30" d="M 3425 2284 
Q 3425 1731 3339 1297 
Q 3253 863 3064 559 
Q 2875 256 2569 96 
Q 2263 -63 1825 -63 
Q 1275 -63 922 217 
Q 569 497 400 1023 
Q 231 1550 231 2284 
Q 231 3025 386 3551 
Q 541 4078 891 4359 
Q 1241 4641 1825 4641 
Q 2372 4641 2726 4361 
Q 3081 4081 3253 3554 
Q 3425 3028 3425 2284 
z
M 1191 2284 
Q 1191 1763 1248 1414 
Q 1306 1066 1443 891 
Q 1581 716 1825 716 
Q 2066 716 2205 889 
Q 2344 1063 2403 1411 
Q 2463 1759 2463 2284 
Q 2463 2806 2403 3156 
Q 2344 3506 2205 3682 
Q 2066 3859 1825 3859 
Q 1581 3859 1443 3682 
Q 1306 3506 1248 3156 
Q 1191 2806 1191 2284 
z
" transform="scale(0.015625)"/>
       </defs>
       <use xlink:href="#OpenSans-Bold-30"/>
      </g>
     </g>
    </g>
    <g id="ytick_2">
     <g id="line2d_9">
      <path d="M 52.36 192.489906 
L 421.2 192.489906 
" clip-path="url(#p3f70c3aeb1)" style="fill: none; stroke-dasharray: 2.96,1.28; stroke-dashoffset: 0; stroke: #b0b0b0; stroke-width: 0.8"/>
     </g>
     <g id="line2d_10">
      <g>
       <use xlink:href="#m69888069cc" x="52.36" y="192.489906" style="fill: #37539c; stroke: #37539c; stroke-width: 0.8"/>
      </g>
     </g>
     <g id="text_8">
      <!-- 50000 -->
      <g style="fill: #37539c" transform="translate(16.774063 196.289125) scale(0.1 -0.1)">
       <defs>
        <path id="OpenSans-Bold-35" d="M 1919 2919 
Q 2338 2919 2664 2759 
Q 2991 2600 3178 2290 
Q 3366 1981 3366 1528 
Q 3366 1034 3161 676 
Q 2956 319 2551 128 
Q 2147 -63 1544 -63 
Q 1184 -63 867 -2 
Q 550 59 313 184 
L 313 1019 
Q 550 894 883 808 
Q 1216 722 1509 722 
Q 1797 722 1994 798 
Q 2191 875 2292 1036 
Q 2394 1197 2394 1447 
Q 2394 1781 2169 1959 
Q 1944 2138 1478 2138 
Q 1300 2138 1108 2103 
Q 916 2069 788 2034 
L 403 2241 
L 575 4569 
L 3053 4569 
L 3053 3750 
L 1422 3750 
L 1338 2853 
Q 1444 2875 1569 2897 
Q 1694 2919 1919 2919 
z
" transform="scale(0.015625)"/>
       </defs>
       <use xlink:href="#OpenSans-Bold-35"/>
       <use xlink:href="#OpenSans-Bold-30" x="57.177734"/>
       <use xlink:href="#OpenSans-Bold-30" x="114.355469"/>
       <use xlink:href="#OpenSans-Bold-30" x="171.533203"/>
       <use xlink:href="#OpenSans-Bold-30" x="228.710938"/>
      </g>
     </g>
    </g>
    <g id="ytick_3">
     <g id="line2d_11">
      <path d="M 52.36 167.771812 
L 421.2 167.771812 
" clip-path="url(#p3f70c3aeb1)" style="fill: none; stroke-dasharray: 2.96,1.28; stroke-dashoffset: 0; stroke: #b0b0b0; stroke-width: 0.8"/>
     </g>
     <g id="line2d_12">
      <g>
       <use xlink:href="#m69888069cc" x="52.36" y="167.771812" style="fill: #37539c; stroke: #37539c; stroke-width: 0.8"/>
      </g>
     </g>
     <g id="text_9">
      <!-- 100000 -->
      <g style="fill: #37539c" transform="translate(11.056875 171.571031) scale(0.1 -0.1)">
       <defs>
        <path id="OpenSans-Bold-31" d="M 2644 0 
L 1678 0 
L 1678 2644 
Q 1678 2753 1681 2914 
Q 1684 3075 1690 3245 
Q 1697 3416 1703 3553 
Q 1669 3513 1564 3414 
Q 1459 3316 1369 3238 
L 844 2816 
L 378 3397 
L 1850 4569 
L 2644 4569 
L 2644 0 
z
" transform="scale(0.015625)"/>
       </defs>
       <use xlink:href="#OpenSans-Bold-31"/>
       <use xlink:href="#OpenSans-Bold-30" x="57.177734"/>
       <use xlink:href="#OpenSans-Bold-30" x="114.355469"/>
       <use xlink:href="#OpenSans-Bold-30" x="171.533203"/>
       <use xlink:href="#OpenSans-Bold-30" x="228.710938"/>
       <use xlink:href="#OpenSans-Bold-30" x="285.888672"/>
      </g>
     </g>
    </g>
    <g id="ytick_4">
     <g id="line2d_13">
      <path d="M 52.36 143.053718 
L 421.2 143.053718 
" clip-path="url(#p3f70c3aeb1)" style="fill: none; stroke-dasharray: 2.96,1.28; stroke-dashoffset: 0; stroke: #b0b0b0; stroke-width: 0.8"/>
     </g>
     <g id="line2d_14">
      <g>
       <use xlink:href="#m69888069cc" x="52.36" y="143.053718" style="fill: #37539c; stroke: #37539c; stroke-width: 0.8"/>
      </g>
     </g>
     <g id="text_10">
      <!-- 150000 -->
      <g style="fill: #37539c" transform="translate(11.056875 146.852936) scale(0.1 -0.1)">
       <use xlink:href="#OpenSans-Bold-31"/>
       <use xlink:href="#OpenSans-Bold-35" x="57.177734"/>
       <use xlink:href="#OpenSans-Bold-30" x="114.355469"/>
       <use xlink:href="#OpenSans-Bold-30" x="171.533203"/>
       <use xlink:href="#OpenSans-Bold-30" x="228.710938"/>
       <use xlink:href="#OpenSans-Bold-30" x="285.888672"/>
      </g>
     </g>
    </g>
    <g id="ytick_5">
     <g id="line2d_15">
      <path d="M 52.36 118.335624 
L 421.2 118.335624 
" clip-path="url(#p3f70c3aeb1)" style="fill: none; stroke-dasharray: 2.96,1.28; stroke-dashoffset: 0; stroke: #b0b0b0; stroke-width: 0.8"/>
     </g>
     <g id="line2d_16">
      <g>
       <use xlink:href="#m69888069cc" x="52.36" y="118.335624" style="fill: #37539c; stroke: #37539c; stroke-width: 0.8"/>
      </g>
     </g>
     <g id="text_11">
      <!-- 200000 -->
      <g style="fill: #37539c" transform="translate(11.056875 122.134842) scale(0.1 -0.1)">
       <defs>
        <path id="OpenSans-Bold-32" d="M 3450 0 
L 256 0 
L 256 672 
L 1403 1831 
Q 1750 2188 1961 2427 
Q 2172 2666 2267 2862 
Q 2363 3059 2363 3284 
Q 2363 3556 2211 3692 
Q 2059 3828 1806 3828 
Q 1541 3828 1291 3706 
Q 1041 3584 769 3359 
L 244 3981 
Q 441 4150 661 4300 
Q 881 4450 1173 4542 
Q 1466 4634 1875 4634 
Q 2325 4634 2648 4471 
Q 2972 4309 3147 4029 
Q 3322 3750 3322 3397 
Q 3322 3019 3172 2706 
Q 3022 2394 2736 2087 
Q 2450 1781 2047 1409 
L 1459 856 
L 1459 813 
L 3450 813 
L 3450 0 
z
" transform="scale(0.015625)"/>
       </defs>
       <use xlink:href="#OpenSans-Bold-32"/>
       <use xlink:href="#OpenSans-Bold-30" x="57.177734"/>
       <use xlink:href="#OpenSans-Bold-30" x="114.355469"/>
       <use xlink:href="#OpenSans-Bold-30" x="171.533203"/>
       <use xlink:href="#OpenSans-Bold-30" x="228.710938"/>
       <use xlink:href="#OpenSans-Bold-30" x="285.888672"/>
      </g>
     </g>
    </g>
    <g id="ytick_6">
     <g id="line2d_17">
      <path d="M 52.36 93.617529 
L 421.2 93.617529 
" clip-path="url(#p3f70c3aeb1)" style="fill: none; stroke-dasharray: 2.96,1.28; stroke-dashoffset: 0; stroke: #b0b0b0; stroke-width: 0.8"/>
     </g>
     <g id="line2d_18">
      <g>
       <use xlink:href="#m69888069cc" x="52.36" y="93.617529" style="fill: #37539c; stroke: #37539c; stroke-width: 0.8"/>
      </g>
     </g>
     <g id="text_12">
      <!-- 250000 -->
      <g style="fill: #37539c" transform="translate(11.056875 97.416748) scale(0.1 -0.1)">
       <use xlink:href="#OpenSans-Bold-32"/>
       <use xlink:href="#OpenSans-Bold-35" x="57.177734"/>
       <use xlink:href="#OpenSans-Bold-30" x="114.355469"/>
       <use xlink:href="#OpenSans-Bold-30" x="171.533203"/>
       <use xlink:href="#OpenSans-Bold-30" x="228.710938"/>
       <use xlink:href="#OpenSans-Bold-30" x="285.888672"/>
      </g>
     </g>
    </g>
    <g id="ytick_7">
     <g id="line2d_19">
      <path d="M 52.36 68.899435 
L 421.2 68.899435 
" clip-path="url(#p3f70c3aeb1)" style="fill: none; stroke-dasharray: 2.96,1.28; stroke-dashoffset: 0; stroke: #b0b0b0; stroke-width: 0.8"/>
     </g>
     <g id="line2d_20">
      <g>
       <use xlink:href="#m69888069cc" x="52.36" y="68.899435" style="fill: #37539c; stroke: #37539c; stroke-width: 0.8"/>
      </g>
     </g>
     <g id="text_13">
      <!-- 300000 -->
      <g style="fill: #37539c" transform="translate(11.056875 72.698654) scale(0.1 -0.1)">
       <defs>
        <path id="OpenSans-Bold-33" d="M 3272 3547 
Q 3272 3231 3140 3000 
Q 3009 2769 2786 2622 
Q 2563 2475 2284 2406 
L 2284 2388 
Q 2834 2319 3120 2050 
Q 3406 1781 3406 1331 
Q 3406 931 3211 615 
Q 3016 300 2609 118 
Q 2203 -63 1563 -63 
Q 1184 -63 857 -2 
Q 531 59 244 184 
L 244 1006 
Q 538 856 859 779 
Q 1181 703 1459 703 
Q 1978 703 2186 883 
Q 2394 1063 2394 1388 
Q 2394 1578 2297 1709 
Q 2200 1841 1961 1909 
Q 1722 1978 1294 1978 
L 947 1978 
L 947 2719 
L 1300 2719 
Q 1722 2719 1942 2798 
Q 2163 2878 2242 3017 
Q 2322 3156 2322 3334 
Q 2322 3578 2172 3715 
Q 2022 3853 1672 3853 
Q 1453 3853 1273 3798 
Q 1094 3744 950 3667 
Q 806 3591 697 3519 
L 250 4184 
Q 519 4378 880 4506 
Q 1241 4634 1741 4634 
Q 2447 4634 2859 4350 
Q 3272 4066 3272 3547 
z
" transform="scale(0.015625)"/>
       </defs>
       <use xlink:href="#OpenSans-Bold-33"/>
       <use xlink:href="#OpenSans-Bold-30" x="57.177734"/>
       <use xlink:href="#OpenSans-Bold-30" x="114.355469"/>
       <use xlink:href="#OpenSans-Bold-30" x="171.533203"/>
       <use xlink:href="#OpenSans-Bold-30" x="228.710938"/>
       <use xlink:href="#OpenSans-Bold-30" x="285.888672"/>
      </g>
     </g>
    </g>
    <g id="ytick_8">
     <g id="line2d_21">
      <path d="M 52.36 44.181341 
L 421.2 44.181341 
" clip-path="url(#p3f70c3aeb1)" style="fill: none; stroke-dasharray: 2.96,1.28; stroke-dashoffset: 0; stroke: #b0b0b0; stroke-width: 0.8"/>
     </g>
     <g id="line2d_22">
      <g>
       <use xlink:href="#m69888069cc" x="52.36" y="44.181341" style="fill: #37539c; stroke: #37539c; stroke-width: 0.8"/>
      </g>
     </g>
     <g id="text_14">
      <!-- 350000 -->
      <g style="fill: #37539c" transform="translate(11.056875 47.98056) scale(0.1 -0.1)">
       <use xlink:href="#OpenSans-Bold-33"/>
       <use xlink:href="#OpenSans-Bold-35" x="57.177734"/>
       <use xlink:href="#OpenSans-Bold-30" x="114.355469"/>
       <use xlink:href="#OpenSans-Bold-30" x="171.533203"/>
       <use xlink:href="#OpenSans-Bold-30" x="228.710938"/>
       <use xlink:href="#OpenSans-Bold-30" x="285.888672"/>
      </g>
     </g>
    </g>
    <g id="ytick_9">
     <g id="line2d_23">
      <path d="M 52.36 19.463247 
L 421.2 19.463247 
" clip-path="url(#p3f70c3aeb1)" style="fill: none; stroke-dasharray: 2.96,1.28; stroke-dashoffset: 0; stroke: #b0b0b0; stroke-width: 0.8"/>
     </g>
     <g id="line2d_24">
      <g>
       <use xlink:href="#m69888069cc" x="52.36" y="19.463247" style="fill: #37539c; stroke: #37539c; stroke-width: 0.8"/>
      </g>
     </g>
     <g id="text_15">
      <!-- 400000 -->
      <g style="fill: #37539c" transform="translate(11.056875 23.262466) scale(0.1 -0.1)">
       <defs>
        <path id="OpenSans-Bold-34" d="M 3553 947 
L 3003 947 
L 3003 0 
L 2059 0 
L 2059 947 
L 109 947 
L 109 1619 
L 2113 4569 
L 3003 4569 
L 3003 1697 
L 3553 1697 
L 3553 947 
z
M 2059 1697 
L 2059 2472 
Q 2059 2581 2064 2731 
Q 2069 2881 2075 3031 
Q 2081 3181 2089 3298 
Q 2097 3416 2100 3463 
L 2075 3463 
Q 2016 3334 1950 3214 
Q 1884 3094 1797 2963 
L 959 1697 
L 2059 1697 
z
" transform="scale(0.015625)"/>
       </defs>
       <use xlink:href="#OpenSans-Bold-34"/>
       <use xlink:href="#OpenSans-Bold-30" x="57.177734"/>
       <use xlink:href="#OpenSans-Bold-30" x="114.355469"/>
       <use xlink:href="#OpenSans-Bold-30" x="171.533203"/>
       <use xlink:href="#OpenSans-Bold-30" x="228.710938"/>
       <use xlink:href="#OpenSans-Bold-30" x="285.888672"/>
      </g>
     </g>
    </g>
   </g>
   <g id="patch_3">
    <path d="M 406.07756 217.207992 
L 399.43844 217.207992 
Q 405.585773 217.207992 405.585773 217.207794 
L 405.585773 211.259055 
Q 405.585773 211.258857 399.43844 211.258857 
L 406.07756 211.258857 
Q 399.930227 211.258857 399.930227 211.259055 
L 399.930227 217.207794 
Q 399.930227 217.207992 406.07756 217.207992 
z
" clip-path="url(#p3f70c3aeb1)" style="fill: #2d4175"/>
   </g>
   <g id="patch_4">
    <path d="M 344.604227 217.207992 
L 337.965107 217.207992 
Q 344.11244 217.207992 344.11244 217.207794 
L 344.11244 189.943653 
Q 344.11244 189.943456 337.965107 189.943456 
L 344.604227 189.943456 
Q 338.456893 189.943456 338.456893 189.943653 
L 338.456893 217.207794 
Q 338.456893 217.207992 344.604227 217.207992 
z
" clip-path="url(#p3f70c3aeb1)" style="fill: #2d4175"/>
   </g>
   <g id="patch_5">
    <path d="M 283.130893 217.207992 
L 276.491773 217.207992 
Q 282.639107 217.207992 282.639107 217.207794 
L 282.639107 172.708221 
Q 282.639107 172.708023 276.491773 172.708023 
L 283.130893 172.708023 
Q 276.98356 172.708023 276.98356 172.708221 
L 276.98356 217.207794 
Q 276.98356 217.207992 283.130893 217.207992 
z
" clip-path="url(#p3f70c3aeb1)" style="fill: #2d4175"/>
   </g>
   <g id="patch_6">
    <path d="M 221.65756 217.207992 
L 215.01844 217.207992 
Q 221.165773 217.207992 221.165773 217.207794 
L 221.165773 20.629158 
Q 221.165773 20.62896 215.01844 20.62896 
L 221.65756 20.62896 
Q 215.510227 20.62896 215.510227 20.629158 
L 215.510227 217.207794 
Q 215.510227 217.207992 221.65756 217.207992 
z
" clip-path="url(#p3f70c3aeb1)" style="fill: #2d4175"/>
   </g>
   <g id="patch_7">
    <path d="M 160.184227 217.207992 
L 153.545107 217.207992 
Q 159.69244 217.207992 159.69244 217.207794 
L 159.69244 183.98511 
Q 159.69244 183.984912 153.545107 183.984912 
L 160.184227 183.984912 
Q 154.036893 183.984912 154.036893 183.98511 
L 154.036893 217.207794 
Q 154.036893 217.207992 160.184227 217.207992 
z
" clip-path="url(#p3f70c3aeb1)" style="fill: #2d4175"/>
   </g>
   <g id="patch_8">
    <path d="M 98.710893 217.207992 
L 92.071773 217.207992 
Q 98.219107 217.207992 98.219107 217.207794 
L 98.219107 190.858223 
Q 98.219107 190.858025 92.071773 190.858025 
L 98.710893 190.858025 
Q 92.56356 190.858025 92.56356 190.858223 
L 92.56356 217.207794 
Q 92.56356 217.207992 98.710893 217.207992 
z
" clip-path="url(#p3f70c3aeb1)" style="fill: #2d4175"/>
   </g>
   <g id="patch_9">
    <path d="M 399.930227 217.207992 
L 393.291107 217.207992 
Q 399.43844 217.207992 399.43844 217.207794 
L 399.43844 210.874936 
Q 399.43844 210.874738 393.291107 210.874738 
L 399.930227 210.874738 
Q 393.782893 210.874738 393.782893 210.874936 
L 393.782893 217.207794 
Q 393.782893 217.207992 399.930227 217.207992 
z
" clip-path="url(#p3f70c3aeb1)" style="fill: #354f95"/>
   </g>
   <g id="patch_10">
    <path d="M 338.456893 217.207992 
L 331.817773 217.207992 
Q 337.965107 217.207992 337.965107 217.207794 
L 337.965107 189.087913 
Q 337.965107 189.087715 331.817773 189.087715 
L 338.456893 189.087715 
Q 332.30956 189.087715 332.30956 189.087913 
L 332.30956 217.207794 
Q 332.30956 217.207992 338.456893 217.207992 
z
" clip-path="url(#p3f70c3aeb1)" style="fill: #354f95"/>
   </g>
   <g id="patch_11">
    <path d="M 276.98356 217.207992 
L 270.34444 217.207992 
Q 276.491773 217.207992 276.491773 217.207794 
L 276.491773 175.219085 
Q 276.491773 175.218887 270.34444 175.218887 
L 276.98356 175.218887 
Q 270.836227 175.218887 270.836227 175.219085 
L 270.836227 217.207794 
Q 270.836227 217.207992 276.98356 217.207992 
z
" clip-path="url(#p3f70c3aeb1)" style="fill: #354f95"/>
   </g>
   <g id="patch_12">
    <path d="M 215.510227 217.207992 
L 208.871107 217.207992 
Q 215.01844 217.207992 215.01844 217.207794 
L 215.01844 30.026483 
Q 215.01844 30.026285 208.871107 30.026285 
L 215.510227 30.026285 
Q 209.362893 30.026285 209.362893 30.026483 
L 209.362893 217.207794 
Q 209.362893 217.207992 215.510227 217.207992 
z
" clip-path="url(#p3f70c3aeb1)" style="fill: #354f95"/>
   </g>
   <g id="patch_13">
    <path d="M 154.036893 217.207992 
L 147.397773 217.207992 
Q 153.545107 217.207992 153.545107 217.207794 
L 153.545107 183.191165 
Q 153.545107 183.190967 147.397773 183.190967 
L 154.036893 183.190967 
Q 147.88956 183.190967 147.88956 183.191165 
L 147.88956 217.207794 
Q 147.88956 217.207992 154.036893 217.207992 
z
" clip-path="url(#p3f70c3aeb1)" style="fill: #354f95"/>
   </g>
   <g id="patch_14">
    <path d="M 92.56356 217.207992 
L 85.92444 217.207992 
Q 92.071773 217.207992 92.071773 217.207794 
L 92.071773 180.795981 
Q 92.071773 180.795783 85.92444 180.795783 
L 92.56356 180.795783 
Q 86.416227 180.795783 86.416227 180.795981 
L 86.416227 217.207794 
Q 86.416227 217.207992 92.56356 217.207992 
z
" clip-path="url(#p3f70c3aeb1)" style="fill: #354f95"/>
   </g>
   <g id="patch_15">
    <path d="M 393.782893 217.207992 
L 387.143773 217.207992 
Q 393.291107 217.207992 393.291107 217.207794 
L 393.291107 212.840024 
Q 393.291107 212.839826 387.143773 212.839826 
L 393.782893 212.839826 
Q 387.63556 212.839826 387.63556 212.840024 
L 387.63556 217.207794 
Q 387.63556 217.207992 393.782893 217.207992 
z
" clip-path="url(#p3f70c3aeb1)" style="fill: #4062bb"/>
   </g>
   <g id="patch_16">
    <path d="M 332.30956 217.207992 
L 325.67044 217.207992 
Q 331.817773 217.207992 331.817773 217.207794 
L 331.817773 186.370406 
Q 331.817773 186.370208 325.67044 186.370208 
L 332.30956 186.370208 
Q 326.162227 186.370208 326.162227 186.370406 
L 326.162227 217.207794 
Q 326.162227 217.207992 332.30956 217.207992 
z
" clip-path="url(#p3f70c3aeb1)" style="fill: #4062bb"/>
   </g>
   <g id="patch_17">
    <path d="M 270.836227 217.207992 
L 264.197107 217.207992 
Q 270.34444 217.207992 270.34444 217.207794 
L 270.34444 178.601509 
Q 270.34444 178.601311 264.197107 178.601311 
L 270.836227 178.601311 
Q 264.688893 178.601311 264.688893 178.601509 
L 264.688893 217.207794 
Q 264.688893 217.207992 270.836227 217.207992 
z
" clip-path="url(#p3f70c3aeb1)" style="fill: #4062bb"/>
   </g>
   <g id="patch_18">
    <path d="M 209.362893 217.207992 
L 202.723773 217.207992 
Q 208.871107 217.207992 208.871107 217.207794 
L 208.871107 45.291389 
Q 208.871107 45.291192 202.723773 45.291192 
L 209.362893 45.291192 
Q 203.21556 45.291192 203.21556 45.291389 
L 203.21556 217.207794 
Q 203.21556 217.207992 209.362893 217.207992 
z
" clip-path="url(#p3f70c3aeb1)" style="fill: #4062bb"/>
   </g>
   <g id="patch_19">
    <path d="M 147.88956 217.207992 
L 141.25044 217.207992 
Q 147.397773 217.207992 147.397773 217.207794 
L 147.397773 186.528107 
Q 147.397773 186.527909 141.25044 186.527909 
L 147.88956 186.527909 
Q 141.742227 186.527909 141.742227 186.528107 
L 141.742227 217.207794 
Q 141.742227 217.207992 147.88956 217.207992 
z
" clip-path="url(#p3f70c3aeb1)" style="fill: #4062bb"/>
   </g>
   <g id="patch_20">
    <path d="M 86.416227 217.207992 
L 79.777107 217.207992 
Q 85.92444 217.207992 85.92444 217.207794 
L 85.92444 195.389544 
Q 85.92444 195.389346 79.777107 195.389346 
L 86.416227 195.389346 
Q 80.268893 195.389346 80.268893 195.389544 
L 80.268893 217.207794 
Q 80.268893 217.207992 86.416227 217.207992 
z
" clip-path="url(#p3f70c3aeb1)" style="fill: #4062bb"/>
   </g>
   <g id="patch_21">
    <path d="M 387.63556 217.207992 
L 380.99644 217.207992 
Q 387.143773 217.207992 387.143773 217.207794 
L 387.143773 212.891932 
Q 387.143773 212.891734 380.99644 212.891734 
L 387.63556 212.891734 
Q 381.488227 212.891734 381.488227 212.891932 
L 381.488227 217.207794 
Q 381.488227 217.207992 387.63556 217.207992 
z
" clip-path="url(#p3f70c3aeb1)" style="fill: #4969be"/>
   </g>
   <g id="patch_22">
    <path d="M 326.162227 217.207992 
L 319.523107 217.207992 
Q 325.67044 217.207992 325.67044 217.207794 
L 325.67044 190.560123 
Q 325.67044 190.559925 319.523107 190.559925 
L 326.162227 190.559925 
Q 320.014893 190.559925 320.014893 190.560123 
L 320.014893 217.207794 
Q 320.014893 217.207992 326.162227 217.207992 
z
" clip-path="url(#p3f70c3aeb1)" style="fill: #4969be"/>
   </g>
   <g id="patch_23">
    <path d="M 264.688893 217.207992 
L 258.049773 217.207992 
Q 264.197107 217.207992 264.197107 217.207794 
L 264.197107 184.299524 
Q 264.197107 184.299326 258.049773 184.299326 
L 264.688893 184.299326 
Q 258.54156 184.299326 258.54156 184.299524 
L 258.54156 217.207794 
Q 258.54156 217.207992 264.688893 217.207992 
z
" clip-path="url(#p3f70c3aeb1)" style="fill: #4969be"/>
   </g>
   <g id="patch_24">
    <path d="M 203.21556 217.207992 
L 196.57644 217.207992 
Q 202.723773 217.207992 202.723773 217.207794 
L 202.723773 67.899053 
Q 202.723773 67.898855 196.57644 67.898855 
L 203.21556 67.898855 
Q 197.068227 67.898855 197.068227 67.899053 
L 197.068227 217.207794 
Q 197.068227 217.207992 203.21556 217.207992 
z
" clip-path="url(#p3f70c3aeb1)" style="fill: #4969be"/>
   </g>
   <g id="patch_25">
    <path d="M 141.742227 217.207992 
L 135.103107 217.207992 
Q 141.25044 217.207992 141.25044 217.207794 
L 141.25044 180.277396 
Q 141.25044 180.277198 135.103107 180.277198 
L 141.742227 180.277198 
Q 135.594893 180.277198 135.594893 180.277396 
L 135.594893 217.207794 
Q 135.594893 217.207992 141.742227 217.207992 
z
" clip-path="url(#p3f70c3aeb1)" style="fill: #4969be"/>
   </g>
   <g id="patch_26">
    <path d="M 80.268893 217.207992 
L 73.629773 217.207992 
Q 79.777107 217.207992 79.777107 217.207794 
L 79.777107 185.698568 
Q 79.777107 185.69837 73.629773 185.69837 
L 80.268893 185.69837 
Q 74.12156 185.69837 74.12156 185.698568 
L 74.12156 217.207794 
Q 74.12156 217.207992 80.268893 217.207992 
z
" clip-path="url(#p3f70c3aeb1)" style="fill: #4969be"/>
   </g>
   <g id="patch_27">
    <path d="M 381.488227 217.207992 
L 374.849107 217.207992 
Q 380.99644 217.207992 380.99644 217.207794 
L 380.99644 213.269625 
Q 380.99644 213.269427 374.849107 213.269427 
L 381.488227 213.269427 
Q 375.340893 213.269427 375.340893 213.269625 
L 375.340893 217.207794 
Q 375.340893 217.207992 381.488227 217.207992 
z
" clip-path="url(#p3f70c3aeb1)" style="fill: #869cd4"/>
   </g>
   <g id="patch_28">
    <path d="M 320.014893 217.207992 
L 313.375773 217.207992 
Q 319.523107 217.207992 319.523107 217.207794 
L 319.523107 191.844475 
Q 319.523107 191.844277 313.375773 191.844277 
L 320.014893 191.844277 
Q 313.86756 191.844277 313.86756 191.844475 
L 313.86756 217.207794 
Q 313.86756 217.207992 320.014893 217.207992 
z
" clip-path="url(#p3f70c3aeb1)" style="fill: #869cd4"/>
   </g>
   <g id="patch_29">
    <path d="M 258.54156 217.207992 
L 251.90244 217.207992 
Q 258.049773 217.207992 258.049773 217.207794 
L 258.049773 188.075954 
Q 258.049773 188.075757 251.90244 188.075757 
L 258.54156 188.075757 
Q 252.394227 188.075757 252.394227 188.075954 
L 252.394227 217.207794 
Q 252.394227 217.207992 258.54156 217.207992 
z
" clip-path="url(#p3f70c3aeb1)" style="fill: #869cd4"/>
   </g>
   <g id="patch_30">
    <path d="M 197.068227 217.207992 
L 190.429107 217.207992 
Q 196.57644 217.207992 196.57644 217.207794 
L 196.57644 62.092772 
Q 196.57644 62.092574 190.429107 62.092574 
L 197.068227 62.092574 
Q 190.920893 62.092574 190.920893 62.092772 
L 190.920893 217.207794 
Q 190.920893 217.207992 197.068227 217.207992 
z
" clip-path="url(#p3f70c3aeb1)" style="fill: #869cd4"/>
   </g>
   <g id="patch_31">
    <path d="M 135.594893 217.207992 
L 128.955773 217.207992 
Q 135.103107 217.207992 135.103107 217.207794 
L 135.103107 176.23401 
Q 135.103107 176.233812 128.955773 176.233812 
L 135.594893 176.233812 
Q 129.44756 176.233812 129.44756 176.23401 
L 129.44756 217.207794 
Q 129.44756 217.207992 135.594893 217.207992 
z
" clip-path="url(#p3f70c3aeb1)" style="fill: #869cd4"/>
   </g>
   <g id="patch_32">
    <path d="M 74.12156 217.207992 
L 67.48244 217.207992 
Q 73.629773 217.207992 73.629773 217.207794 
L 73.629773 192.59986 
Q 73.629773 192.599662 67.48244 192.599662 
L 74.12156 192.599662 
Q 67.974227 192.599662 67.974227 192.59986 
L 67.974227 217.207794 
Q 67.974227 217.207992 74.12156 217.207992 
z
" clip-path="url(#p3f70c3aeb1)" style="fill: #869cd4"/>
   </g>
   <g id="patch_33">
    <path d="M 52.36 217.208 
L 52.36 10.8 
" style="fill: none; stroke: #000000; stroke-width: 0.8; stroke-linejoin: miter; stroke-linecap: square"/>
   </g>
   <g id="patch_34">
    <path d="M 52.36 217.208 
L 421.2 217.208 
" style="fill: none; stroke: #000000; stroke-width: 0.8; stroke-linejoin: miter; stroke-linecap: square"/>
   </g>
   <g id="legend_1">
    <g id="patch_35">
     <path d="M 359.33125 93.807813 
L 414.2 93.807813 
Q 416.2 93.807813 416.2 91.807813 
L 416.2 17.8 
Q 416.2 15.8 414.2 15.8 
L 359.33125 15.8 
Q 357.33125 15.8 357.33125 17.8 
L 357.33125 91.807813 
Q 357.33125 93.807813 359.33125 93.807813 
z
" style="fill: #ffffff; opacity: 0.8; stroke: #cccccc; stroke-linejoin: miter"/>
    </g>
    <g id="patch_36">
     <path d="M 361.33125 27.398438 
L 381.33125 27.398438 
L 381.33125 20.398438 
L 361.33125 20.398438 
z
" style="fill: #869cd4"/>
    </g>
    <g id="text_16">
     <!-- 2013 -->
     <g style="fill: #37539c" transform="translate(389.33125 27.398438) scale(0.1 -0.1)">
      <use xlink:href="#OpenSans-Bold-32"/>
      <use xlink:href="#OpenSans-Bold-30" x="57.177734"/>
      <use xlink:href="#OpenSans-Bold-31" x="114.355469"/>
      <use xlink:href="#OpenSans-Bold-33" x="171.533203"/>
     </g>
    </g>
    <g id="patch_37">
     <path d="M 361.33125 42.4 
L 381.33125 42.4 
L 381.33125 35.4 
L 361.33125 35.4 
z
" style="fill: #4969be"/>
    </g>
    <g id="text_17">
     <!-- 2014 -->
     <g style="fill: #37539c" transform="translate(389.33125 42.4) scale(0.1 -0.1)">
      <use xlink:href="#OpenSans-Bold-32"/>
      <use xlink:href="#OpenSans-Bold-30" x="57.177734"/>
      <use xlink:href="#OpenSans-Bold-31" x="114.355469"/>
      <use xlink:href="#OpenSans-Bold-34" x="171.533203"/>
     </g>
    </g>
    <g id="patch_38">
     <path d="M 361.33125 57.401563 
L 381.33125 57.401563 
L 381.33125 50.401563 
L 361.33125 50.401563 
z
" style="fill: #4062bb"/>
    </g>
    <g id="text_18">
     <!-- 2015 -->
     <g style="fill: #37539c" transform="translate(389.33125 57.401563) scale(0.1 -0.1)">
      <use xlink:href="#OpenSans-Bold-32"/>
      <use xlink:href="#OpenSans-Bold-30" x="57.177734"/>
      <use xlink:href="#OpenSans-Bold-31" x="114.355469"/>
      <use xlink:href="#OpenSans-Bold-35" x="171.533203"/>
     </g>
    </g>
    <g id="patch_39">
     <path d="M 361.33125 72.403125 
L 381.33125 72.403125 
L 381.33125 65.403125 
L 361.33125 65.403125 
z
" style="fill: #354f95"/>
    </g>
    <g id="text_19">
     <!-- 2016 -->
     <g style="fill: #37539c" transform="translate(389.33125 72.403125) scale(0.1 -0.1)">
      <defs>
       <path id="OpenSans-Bold-36" d="M 225 1941 
Q 225 2334 283 2720 
Q 341 3106 484 3448 
Q 628 3791 887 4055 
Q 1147 4319 1547 4470 
Q 1947 4622 2516 4622 
Q 2650 4622 2829 4611 
Q 3009 4600 3128 4575 
L 3128 3803 
Q 3003 3831 2861 3848 
Q 2719 3866 2578 3866 
Q 2009 3866 1698 3684 
Q 1388 3503 1261 3183 
Q 1134 2863 1113 2438 
L 1153 2438 
Q 1241 2591 1373 2709 
Q 1506 2828 1697 2898 
Q 1888 2969 2144 2969 
Q 2544 2969 2837 2798 
Q 3131 2628 3290 2306 
Q 3450 1984 3450 1522 
Q 3450 1028 3259 672 
Q 3069 316 2720 126 
Q 2372 -63 1894 -63 
Q 1544 -63 1241 57 
Q 938 178 709 425 
Q 481 672 353 1048 
Q 225 1425 225 1941 
z
M 1875 709 
Q 2159 709 2337 903 
Q 2516 1097 2516 1509 
Q 2516 1844 2361 2036 
Q 2206 2228 1894 2228 
Q 1681 2228 1520 2133 
Q 1359 2038 1271 1892 
Q 1184 1747 1184 1594 
Q 1184 1434 1228 1278 
Q 1272 1122 1359 994 
Q 1447 866 1576 787 
Q 1706 709 1875 709 
z
" transform="scale(0.015625)"/>
      </defs>
      <use xlink:href="#OpenSans-Bold-32"/>
      <use xlink:href="#OpenSans-Bold-30" x="57.177734"/>
      <use xlink:href="#OpenSans-Bold-31" x="114.355469"/>
      <use xlink:href="#OpenSans-Bold-36" x="171.533203"/>
     </g>
    </g>
    <g id="patch_40">
     <path d="M 361.33125 87.404687 
L 381.33125 87.404687 
L 381.33125 80.404687 
L 361.33125 80.404687 
z
" style="fill: #2d4175"/>
    </g>
    <g id="text_20">
     <!-- 2017 -->
     <g style="fill: #37539c" transform="translate(389.33125 87.404687) scale(0.1 -0.1)">
      <defs>
       <path id="OpenSans-Bold-37" d="M 709 0 
L 2425 3756 
L 172 3756 
L 172 4569 
L 3450 4569 
L 3450 3963 
L 1722 0 
L 709 0 
z
" transform="scale(0.015625)"/>
      </defs>
      <use xlink:href="#OpenSans-Bold-32"/>
      <use xlink:href="#OpenSans-Bold-30" x="57.177734"/>
      <use xlink:href="#OpenSans-Bold-31" x="114.355469"/>
      <use xlink:href="#OpenSans-Bold-37" x="171.533203"/>
     </g>
    </g>
   </g>
  </g>
 </g>
 <defs>
  <clipPath id="p3f70c3aeb1">
   <rect x="52.36" y="10.8" width="368.84" height="206.408"/>
  </clipPath>
 </defs>
</svg>
