<?xml version="1.0" encoding="utf-8" standalone="no"?>
<!DOCTYPE svg PUBLIC "-//W3C//DTD SVG 1.1//EN"
  "http://www.w3.org/Graphics/SVG/1.1/DTD/svg11.dtd">
<svg xmlns:xlink="http://www.w3.org/1999/xlink" width="504pt" height="360pt" viewBox="0 0 504 360" xmlns="http://www.w3.org/2000/svg" version="1.1">
 <metadata>
  <rdf:RDF xmlns:dc="http://purl.org/dc/elements/1.1/" xmlns:cc="http://creativecommons.org/ns#" xmlns:rdf="http://www.w3.org/1999/02/22-rdf-syntax-ns#">
   <cc:Work>
    <dc:type rdf:resource="http://purl.org/dc/dcmitype/StillImage"/>
    <dc:date>2024-02-26T21:21:06.347155</dc:date>
    <dc:format>image/svg+xml</dc:format>
    <dc:creator>
     <cc:Agent>
      <dc:title>Matplotlib v3.7.1, https://matplotlib.org/</dc:title>
     </cc:Agent>
    </dc:creator>
   </cc:Work>
  </rdf:RDF>
 </metadata>
 <defs>
  <style type="text/css">*{stroke-linejoin: round; stroke-linecap: butt}</style>
 </defs>
 <g id="figure_1">
  <g id="patch_1">
   <path d="M 0 360 
L 504 360 
L 504 0 
L 0 0 
z
" style="fill: #ffffff"/>
  </g>
  <g id="axes_1">
   <g id="patch_2">
    <path d="M 66.44 332.12 
L 457.81 332.12 
L 457.81 14.76 
L 66.44 14.76 
z
" style="fill: #ffffff"/>
   </g>
   <g id="matplotlib.axis_1">
    <g id="xtick_1">
     <g id="line2d_1">
      <defs>
       <path id="m42607f6e1e" d="M 0 0 
L 0 3.5 
" style="stroke: #37539c; stroke-width: 0.8"/>
      </defs>
      <g>
       <use xlink:href="#m42607f6e1e" x="84.229545" y="332.12" style="fill: #37539c; stroke: #37539c; stroke-width: 0.8"/>
      </g>
     </g>
     <g id="text_1">
      <!-- 2010 -->
      <g style="fill: #37539c" transform="translate(72.79517 346.718437) scale(0.1 -0.1)">
       <defs>
        <path id="OpenSans-Bold-32" d="M 3450 0 
L 256 0 
L 256 672 
L 1403 1831 
Q 1750 2188 1961 2427 
Q 2172 2666 2267 2862 
Q 2363 3059 2363 3284 
Q 2363 3556 2211 3692 
Q 2059 3828 1806 3828 
Q 1541 3828 1291 3706 
Q 1041 3584 769 3359 
L 244 3981 
Q 441 4150 661 4300 
Q 881 4450 1173 4542 
Q 1466 4634 1875 4634 
Q 2325 4634 2648 4471 
Q 2972 4309 3147 4029 
Q 3322 3750 3322 3397 
Q 3322 3019 3172 2706 
Q 3022 2394 2736 2087 
Q 2450 1781 2047 1409 
L 1459 856 
L 1459 813 
L 3450 813 
L 3450 0 
z
" transform="scale(0.015625)"/>
        <path id="OpenSans-Bold-30" d="M 3425 2284 
Q 3425 1731 3339 1297 
Q 3253 863 3064 559 
Q 2875 256 2569 96 
Q 2263 -63 1825 -63 
Q 1275 -63 922 217 
Q 569 497 400 1023 
Q 231 1550 231 2284 
Q 231 3025 386 3551 
Q 541 4078 891 4359 
Q 1241 4641 1825 4641 
Q 2372 4641 2726 4361 
Q 3081 4081 3253 3554 
Q 3425 3028 3425 2284 
z
M 1191 2284 
Q 1191 1763 1248 1414 
Q 1306 1066 1443 891 
Q 1581 716 1825 716 
Q 2066 716 2205 889 
Q 2344 1063 2403 1411 
Q 2463 1759 2463 2284 
Q 2463 2806 2403 3156 
Q 2344 3506 2205 3682 
Q 2066 3859 1825 3859 
Q 1581 3859 1443 3682 
Q 1306 3506 1248 3156 
Q 1191 2806 1191 2284 
z
" transform="scale(0.015625)"/>
        <path id="OpenSans-Bold-31" d="M 2644 0 
L 1678 0 
L 1678 2644 
Q 1678 2753 1681 2914 
Q 1684 3075 1690 3245 
Q 1697 3416 1703 3553 
Q 1669 3513 1564 3414 
Q 1459 3316 1369 3238 
L 844 2816 
L 378 3397 
L 1850 4569 
L 2644 4569 
L 2644 0 
z
" transform="scale(0.015625)"/>
       </defs>
       <use xlink:href="#OpenSans-Bold-32"/>
       <use xlink:href="#OpenSans-Bold-30" x="57.177734"/>
       <use xlink:href="#OpenSans-Bold-31" x="114.355469"/>
       <use xlink:href="#OpenSans-Bold-30" x="171.533203"/>
      </g>
     </g>
    </g>
    <g id="xtick_2">
     <g id="line2d_2">
      <g>
       <use xlink:href="#m42607f6e1e" x="119.808636" y="332.12" style="fill: #37539c; stroke: #37539c; stroke-width: 0.8"/>
      </g>
     </g>
     <g id="text_2">
      <!-- 2011 -->
      <g style="fill: #37539c" transform="translate(108.374261 346.718437) scale(0.1 -0.1)">
       <use xlink:href="#OpenSans-Bold-32"/>
       <use xlink:href="#OpenSans-Bold-30" x="57.177734"/>
       <use xlink:href="#OpenSans-Bold-31" x="114.355469"/>
       <use xlink:href="#OpenSans-Bold-31" x="171.533203"/>
      </g>
     </g>
    </g>
    <g id="xtick_3">
     <g id="line2d_3">
      <g>
       <use xlink:href="#m42607f6e1e" x="155.387727" y="332.12" style="fill: #37539c; stroke: #37539c; stroke-width: 0.8"/>
      </g>
     </g>
     <g id="text_3">
      <!-- 2012 -->
      <g style="fill: #37539c" transform="translate(143.953352 346.718437) scale(0.1 -0.1)">
       <use xlink:href="#OpenSans-Bold-32"/>
       <use xlink:href="#OpenSans-Bold-30" x="57.177734"/>
       <use xlink:href="#OpenSans-Bold-31" x="114.355469"/>
       <use xlink:href="#OpenSans-Bold-32" x="171.533203"/>
      </g>
     </g>
    </g>
    <g id="xtick_4">
     <g id="line2d_4">
      <g>
       <use xlink:href="#m42607f6e1e" x="190.966818" y="332.12" style="fill: #37539c; stroke: #37539c; stroke-width: 0.8"/>
      </g>
     </g>
     <g id="text_4">
      <!-- 2013 -->
      <g style="fill: #37539c" transform="translate(179.532443 346.718437) scale(0.1 -0.1)">
       <defs>
        <path id="OpenSans-Bold-33" d="M 3272 3547 
Q 3272 3231 3140 3000 
Q 3009 2769 2786 2622 
Q 2563 2475 2284 2406 
L 2284 2388 
Q 2834 2319 3120 2050 
Q 3406 1781 3406 1331 
Q 3406 931 3211 615 
Q 3016 300 2609 118 
Q 2203 -63 1563 -63 
Q 1184 -63 857 -2 
Q 531 59 244 184 
L 244 1006 
Q 538 856 859 779 
Q 1181 703 1459 703 
Q 1978 703 2186 883 
Q 2394 1063 2394 1388 
Q 2394 1578 2297 1709 
Q 2200 1841 1961 1909 
Q 1722 1978 1294 1978 
L 947 1978 
L 947 2719 
L 1300 2719 
Q 1722 2719 1942 2798 
Q 2163 2878 2242 3017 
Q 2322 3156 2322 3334 
Q 2322 3578 2172 3715 
Q 2022 3853 1672 3853 
Q 1453 3853 1273 3798 
Q 1094 3744 950 3667 
Q 806 3591 697 3519 
L 250 4184 
Q 519 4378 880 4506 
Q 1241 4634 1741 4634 
Q 2447 4634 2859 4350 
Q 3272 4066 3272 3547 
z
" transform="scale(0.015625)"/>
       </defs>
       <use xlink:href="#OpenSans-Bold-32"/>
       <use xlink:href="#OpenSans-Bold-30" x="57.177734"/>
       <use xlink:href="#OpenSans-Bold-31" x="114.355469"/>
       <use xlink:href="#OpenSans-Bold-33" x="171.533203"/>
      </g>
     </g>
    </g>
    <g id="xtick_5">
     <g id="line2d_5">
      <g>
       <use xlink:href="#m42607f6e1e" x="226.545909" y="332.12" style="fill: #37539c; stroke: #37539c; stroke-width: 0.8"/>
      </g>
     </g>
     <g id="text_5">
      <!-- 2014 -->
      <g style="fill: #37539c" transform="translate(215.111534 346.718437) scale(0.1 -0.1)">
       <defs>
        <path id="OpenSans-Bold-34" d="M 3553 947 
L 3003 947 
L 3003 0 
L 2059 0 
L 2059 947 
L 109 947 
L 109 1619 
L 2113 4569 
L 3003 4569 
L 3003 1697 
L 3553 1697 
L 3553 947 
z
M 2059 1697 
L 2059 2472 
Q 2059 2581 2064 2731 
Q 2069 2881 2075 3031 
Q 2081 3181 2089 3298 
Q 2097 3416 2100 3463 
L 2075 3463 
Q 2016 3334 1950 3214 
Q 1884 3094 1797 2963 
L 959 1697 
L 2059 1697 
z
" transform="scale(0.015625)"/>
       </defs>
       <use xlink:href="#OpenSans-Bold-32"/>
       <use xlink:href="#OpenSans-Bold-30" x="57.177734"/>
       <use xlink:href="#OpenSans-Bold-31" x="114.355469"/>
       <use xlink:href="#OpenSans-Bold-34" x="171.533203"/>
      </g>
     </g>
    </g>
    <g id="xtick_6">
     <g id="line2d_6">
      <g>
       <use xlink:href="#m42607f6e1e" x="262.125" y="332.12" style="fill: #37539c; stroke: #37539c; stroke-width: 0.8"/>
      </g>
     </g>
     <g id="text_6">
      <!-- 2015 -->
      <g style="fill: #37539c" transform="translate(250.690625 346.718437) scale(0.1 -0.1)">
       <defs>
        <path id="OpenSans-Bold-35" d="M 1919 2919 
Q 2338 2919 2664 2759 
Q 2991 2600 3178 2290 
Q 3366 1981 3366 1528 
Q 3366 1034 3161 676 
Q 2956 319 2551 128 
Q 2147 -63 1544 -63 
Q 1184 -63 867 -2 
Q 550 59 313 184 
L 313 1019 
Q 550 894 883 808 
Q 1216 722 1509 722 
Q 1797 722 1994 798 
Q 2191 875 2292 1036 
Q 2394 1197 2394 1447 
Q 2394 1781 2169 1959 
Q 1944 2138 1478 2138 
Q 1300 2138 1108 2103 
Q 916 2069 788 2034 
L 403 2241 
L 575 4569 
L 3053 4569 
L 3053 3750 
L 1422 3750 
L 1338 2853 
Q 1444 2875 1569 2897 
Q 1694 2919 1919 2919 
z
" transform="scale(0.015625)"/>
       </defs>
       <use xlink:href="#OpenSans-Bold-32"/>
       <use xlink:href="#OpenSans-Bold-30" x="57.177734"/>
       <use xlink:href="#OpenSans-Bold-31" x="114.355469"/>
       <use xlink:href="#OpenSans-Bold-35" x="171.533203"/>
      </g>
     </g>
    </g>
    <g id="xtick_7">
     <g id="line2d_7">
      <g>
       <use xlink:href="#m42607f6e1e" x="297.704091" y="332.12" style="fill: #37539c; stroke: #37539c; stroke-width: 0.8"/>
      </g>
     </g>
     <g id="text_7">
      <!-- 2016 -->
      <g style="fill: #37539c" transform="translate(286.269716 346.718437) scale(0.1 -0.1)">
       <defs>
        <path id="OpenSans-Bold-36" d="M 225 1941 
Q 225 2334 283 2720 
Q 341 3106 484 3448 
Q 628 3791 887 4055 
Q 1147 4319 1547 4470 
Q 1947 4622 2516 4622 
Q 2650 4622 2829 4611 
Q 3009 4600 3128 4575 
L 3128 3803 
Q 3003 3831 2861 3848 
Q 2719 3866 2578 3866 
Q 2009 3866 1698 3684 
Q 1388 3503 1261 3183 
Q 1134 2863 1113 2438 
L 1153 2438 
Q 1241 2591 1373 2709 
Q 1506 2828 1697 2898 
Q 1888 2969 2144 2969 
Q 2544 2969 2837 2798 
Q 3131 2628 3290 2306 
Q 3450 1984 3450 1522 
Q 3450 1028 3259 672 
Q 3069 316 2720 126 
Q 2372 -63 1894 -63 
Q 1544 -63 1241 57 
Q 938 178 709 425 
Q 481 672 353 1048 
Q 225 1425 225 1941 
z
M 1875 709 
Q 2159 709 2337 903 
Q 2516 1097 2516 1509 
Q 2516 1844 2361 2036 
Q 2206 2228 1894 2228 
Q 1681 2228 1520 2133 
Q 1359 2038 1271 1892 
Q 1184 1747 1184 1594 
Q 1184 1434 1228 1278 
Q 1272 1122 1359 994 
Q 1447 866 1576 787 
Q 1706 709 1875 709 
z
" transform="scale(0.015625)"/>
       </defs>
       <use xlink:href="#OpenSans-Bold-32"/>
       <use xlink:href="#OpenSans-Bold-30" x="57.177734"/>
       <use xlink:href="#OpenSans-Bold-31" x="114.355469"/>
       <use xlink:href="#OpenSans-Bold-36" x="171.533203"/>
      </g>
     </g>
    </g>
    <g id="xtick_8">
     <g id="line2d_8">
      <g>
       <use xlink:href="#m42607f6e1e" x="333.283182" y="332.12" style="fill: #37539c; stroke: #37539c; stroke-width: 0.8"/>
      </g>
     </g>
     <g id="text_8">
      <!-- 2017 -->
      <g style="fill: #37539c" transform="translate(321.848807 346.718437) scale(0.1 -0.1)">
       <defs>
        <path id="OpenSans-Bold-37" d="M 709 0 
L 2425 3756 
L 172 3756 
L 172 4569 
L 3450 4569 
L 3450 3963 
L 1722 0 
L 709 0 
z
" transform="scale(0.015625)"/>
       </defs>
       <use xlink:href="#OpenSans-Bold-32"/>
       <use xlink:href="#OpenSans-Bold-30" x="57.177734"/>
       <use xlink:href="#OpenSans-Bold-31" x="114.355469"/>
       <use xlink:href="#OpenSans-Bold-37" x="171.533203"/>
      </g>
     </g>
    </g>
    <g id="xtick_9">
     <g id="line2d_9">
      <g>
       <use xlink:href="#m42607f6e1e" x="368.862273" y="332.12" style="fill: #37539c; stroke: #37539c; stroke-width: 0.8"/>
      </g>
     </g>
     <g id="text_9">
      <!-- 2018* -->
      <g style="fill: #37539c" transform="translate(354.702898 346.718437) scale(0.1 -0.1)">
       <defs>
        <path id="OpenSans-Bold-38" d="M 1831 4628 
Q 2225 4628 2558 4506 
Q 2891 4384 3091 4139 
Q 3291 3894 3291 3525 
Q 3291 3250 3183 3044 
Q 3075 2838 2890 2683 
Q 2706 2528 2472 2413 
Q 2716 2284 2934 2114 
Q 3153 1944 3292 1716 
Q 3431 1488 3431 1184 
Q 3431 803 3228 523 
Q 3025 244 2665 90 
Q 2306 -63 1831 -63 
Q 1319 -63 959 84 
Q 600 231 412 504 
Q 225 778 225 1159 
Q 225 1472 342 1703 
Q 459 1934 659 2101 
Q 859 2269 1100 2388 
Q 897 2516 730 2678 
Q 563 2841 464 3050 
Q 366 3259 366 3531 
Q 366 3894 570 4137 
Q 775 4381 1109 4504 
Q 1444 4628 1831 4628 
z
M 1119 1216 
Q 1119 969 1295 808 
Q 1472 647 1819 647 
Q 2178 647 2356 801 
Q 2534 956 2534 1209 
Q 2534 1384 2432 1515 
Q 2331 1647 2178 1751 
Q 2025 1856 1869 1947 
L 1784 1991 
Q 1584 1900 1436 1787 
Q 1288 1675 1203 1534 
Q 1119 1394 1119 1216 
z
M 1825 3922 
Q 1588 3922 1431 3800 
Q 1275 3678 1275 3456 
Q 1275 3300 1351 3183 
Q 1428 3066 1554 2978 
Q 1681 2891 1831 2816 
Q 1975 2884 2100 2968 
Q 2225 3053 2303 3172 
Q 2381 3291 2381 3456 
Q 2381 3678 2223 3800 
Q 2066 3922 1825 3922 
z
" transform="scale(0.015625)"/>
        <path id="OpenSans-Bold-2a" d="M 2150 4863 
L 2022 3713 
L 3188 4038 
L 3291 3250 
L 2228 3175 
L 2925 2247 
L 2216 1869 
L 1728 2847 
L 1300 1875 
L 563 2247 
L 1253 3175 
L 197 3256 
L 319 4038 
L 1459 3713 
L 1331 4863 
L 2150 4863 
z
" transform="scale(0.015625)"/>
       </defs>
       <use xlink:href="#OpenSans-Bold-32"/>
       <use xlink:href="#OpenSans-Bold-30" x="57.177734"/>
       <use xlink:href="#OpenSans-Bold-31" x="114.355469"/>
       <use xlink:href="#OpenSans-Bold-38" x="171.533203"/>
       <use xlink:href="#OpenSans-Bold-2a" x="228.710938"/>
      </g>
     </g>
    </g>
    <g id="xtick_10">
     <g id="line2d_10">
      <g>
       <use xlink:href="#m42607f6e1e" x="404.441364" y="332.12" style="fill: #37539c; stroke: #37539c; stroke-width: 0.8"/>
      </g>
     </g>
     <g id="text_10">
      <!-- 2019* -->
      <g style="fill: #37539c" transform="translate(390.281989 346.718437) scale(0.1 -0.1)">
       <defs>
        <path id="OpenSans-Bold-39" d="M 3431 2619 
Q 3431 2225 3373 1837 
Q 3316 1450 3172 1108 
Q 3028 766 2768 502 
Q 2509 238 2109 87 
Q 1709 -63 1141 -63 
Q 1006 -63 825 -52 
Q 644 -41 525 -19 
L 525 756 
Q 650 725 790 708 
Q 931 691 1075 691 
Q 1647 691 1958 872 
Q 2269 1053 2395 1375 
Q 2522 1697 2541 2119 
L 2503 2119 
Q 2413 1969 2289 1848 
Q 2166 1728 1975 1658 
Q 1784 1588 1491 1588 
Q 1100 1588 811 1758 
Q 522 1928 364 2251 
Q 206 2575 206 3034 
Q 206 3531 395 3886 
Q 584 4241 934 4431 
Q 1284 4622 1759 4622 
Q 2109 4622 2412 4501 
Q 2716 4381 2945 4134 
Q 3175 3888 3303 3509 
Q 3431 3131 3431 2619 
z
M 1778 3847 
Q 1497 3847 1319 3653 
Q 1141 3459 1141 3047 
Q 1141 2716 1294 2522 
Q 1447 2328 1759 2328 
Q 1975 2328 2134 2423 
Q 2294 2519 2383 2664 
Q 2472 2809 2472 2963 
Q 2472 3122 2428 3278 
Q 2384 3434 2296 3562 
Q 2209 3691 2079 3769 
Q 1950 3847 1778 3847 
z
" transform="scale(0.015625)"/>
       </defs>
       <use xlink:href="#OpenSans-Bold-32"/>
       <use xlink:href="#OpenSans-Bold-30" x="57.177734"/>
       <use xlink:href="#OpenSans-Bold-31" x="114.355469"/>
       <use xlink:href="#OpenSans-Bold-39" x="171.533203"/>
       <use xlink:href="#OpenSans-Bold-2a" x="228.710938"/>
      </g>
     </g>
    </g>
    <g id="xtick_11">
     <g id="line2d_11">
      <g>
       <use xlink:href="#m42607f6e1e" x="440.020455" y="332.12" style="fill: #37539c; stroke: #37539c; stroke-width: 0.8"/>
      </g>
     </g>
     <g id="text_11">
      <!-- 2020* -->
      <g style="fill: #37539c" transform="translate(425.86108 346.718437) scale(0.1 -0.1)">
       <use xlink:href="#OpenSans-Bold-32"/>
       <use xlink:href="#OpenSans-Bold-30" x="57.177734"/>
       <use xlink:href="#OpenSans-Bold-32" x="114.355469"/>
       <use xlink:href="#OpenSans-Bold-30" x="171.533203"/>
       <use xlink:href="#OpenSans-Bold-2a" x="228.710938"/>
      </g>
     </g>
    </g>
   </g>
   <g id="matplotlib.axis_2">
    <g id="ytick_1">
     <g id="line2d_12">
      <path d="M 66.44 332.12 
L 457.81 332.12 
" clip-path="url(#p447b815adf)" style="fill: none; stroke-dasharray: 2.96,1.28; stroke-dashoffset: 0; stroke: #b0b0b0; stroke-width: 0.8"/>
     </g>
     <g id="line2d_13">
      <defs>
       <path id="m1f2c846e94" d="M 0 0 
L -3.5 0 
" style="stroke: #37539c; stroke-width: 0.8"/>
      </defs>
      <g>
       <use xlink:href="#m1f2c846e94" x="66.44" y="332.12" style="fill: #37539c; stroke: #37539c; stroke-width: 0.8"/>
      </g>
     </g>
     <g id="text_12">
      <!-- 0 -->
      <g style="fill: #37539c" transform="translate(53.722813 335.919219) scale(0.1 -0.1)">
       <use xlink:href="#OpenSans-Bold-30"/>
      </g>
     </g>
    </g>
    <g id="ytick_2">
     <g id="line2d_14">
      <path d="M 66.44 292.45 
L 457.81 292.45 
" clip-path="url(#p447b815adf)" style="fill: none; stroke-dasharray: 2.96,1.28; stroke-dashoffset: 0; stroke: #b0b0b0; stroke-width: 0.8"/>
     </g>
     <g id="line2d_15">
      <g>
       <use xlink:href="#m1f2c846e94" x="66.44" y="292.45" style="fill: #37539c; stroke: #37539c; stroke-width: 0.8"/>
      </g>
     </g>
     <g id="text_13">
      <!-- 100000 -->
      <g style="fill: #37539c" transform="translate(25.136875 296.249219) scale(0.1 -0.1)">
       <use xlink:href="#OpenSans-Bold-31"/>
       <use xlink:href="#OpenSans-Bold-30" x="57.177734"/>
       <use xlink:href="#OpenSans-Bold-30" x="114.355469"/>
       <use xlink:href="#OpenSans-Bold-30" x="171.533203"/>
       <use xlink:href="#OpenSans-Bold-30" x="228.710938"/>
       <use xlink:href="#OpenSans-Bold-30" x="285.888672"/>
      </g>
     </g>
    </g>
    <g id="ytick_3">
     <g id="line2d_16">
      <path d="M 66.44 252.78 
L 457.81 252.78 
" clip-path="url(#p447b815adf)" style="fill: none; stroke-dasharray: 2.96,1.28; stroke-dashoffset: 0; stroke: #b0b0b0; stroke-width: 0.8"/>
     </g>
     <g id="line2d_17">
      <g>
       <use xlink:href="#m1f2c846e94" x="66.44" y="252.78" style="fill: #37539c; stroke: #37539c; stroke-width: 0.8"/>
      </g>
     </g>
     <g id="text_14">
      <!-- 200000 -->
      <g style="fill: #37539c" transform="translate(25.136875 256.579219) scale(0.1 -0.1)">
       <use xlink:href="#OpenSans-Bold-32"/>
       <use xlink:href="#OpenSans-Bold-30" x="57.177734"/>
       <use xlink:href="#OpenSans-Bold-30" x="114.355469"/>
       <use xlink:href="#OpenSans-Bold-30" x="171.533203"/>
       <use xlink:href="#OpenSans-Bold-30" x="228.710938"/>
       <use xlink:href="#OpenSans-Bold-30" x="285.888672"/>
      </g>
     </g>
    </g>
    <g id="ytick_4">
     <g id="line2d_18">
      <path d="M 66.44 213.11 
L 457.81 213.11 
" clip-path="url(#p447b815adf)" style="fill: none; stroke-dasharray: 2.96,1.28; stroke-dashoffset: 0; stroke: #b0b0b0; stroke-width: 0.8"/>
     </g>
     <g id="line2d_19">
      <g>
       <use xlink:href="#m1f2c846e94" x="66.44" y="213.11" style="fill: #37539c; stroke: #37539c; stroke-width: 0.8"/>
      </g>
     </g>
     <g id="text_15">
      <!-- 300000 -->
      <g style="fill: #37539c" transform="translate(25.136875 216.909219) scale(0.1 -0.1)">
       <use xlink:href="#OpenSans-Bold-33"/>
       <use xlink:href="#OpenSans-Bold-30" x="57.177734"/>
       <use xlink:href="#OpenSans-Bold-30" x="114.355469"/>
       <use xlink:href="#OpenSans-Bold-30" x="171.533203"/>
       <use xlink:href="#OpenSans-Bold-30" x="228.710938"/>
       <use xlink:href="#OpenSans-Bold-30" x="285.888672"/>
      </g>
     </g>
    </g>
    <g id="ytick_5">
     <g id="line2d_20">
      <path d="M 66.44 173.44 
L 457.81 173.44 
" clip-path="url(#p447b815adf)" style="fill: none; stroke-dasharray: 2.96,1.28; stroke-dashoffset: 0; stroke: #b0b0b0; stroke-width: 0.8"/>
     </g>
     <g id="line2d_21">
      <g>
       <use xlink:href="#m1f2c846e94" x="66.44" y="173.44" style="fill: #37539c; stroke: #37539c; stroke-width: 0.8"/>
      </g>
     </g>
     <g id="text_16">
      <!-- 400000 -->
      <g style="fill: #37539c" transform="translate(25.136875 177.239219) scale(0.1 -0.1)">
       <use xlink:href="#OpenSans-Bold-34"/>
       <use xlink:href="#OpenSans-Bold-30" x="57.177734"/>
       <use xlink:href="#OpenSans-Bold-30" x="114.355469"/>
       <use xlink:href="#OpenSans-Bold-30" x="171.533203"/>
       <use xlink:href="#OpenSans-Bold-30" x="228.710938"/>
       <use xlink:href="#OpenSans-Bold-30" x="285.888672"/>
      </g>
     </g>
    </g>
    <g id="ytick_6">
     <g id="line2d_22">
      <path d="M 66.44 133.77 
L 457.81 133.77 
" clip-path="url(#p447b815adf)" style="fill: none; stroke-dasharray: 2.96,1.28; stroke-dashoffset: 0; stroke: #b0b0b0; stroke-width: 0.8"/>
     </g>
     <g id="line2d_23">
      <g>
       <use xlink:href="#m1f2c846e94" x="66.44" y="133.77" style="fill: #37539c; stroke: #37539c; stroke-width: 0.8"/>
      </g>
     </g>
     <g id="text_17">
      <!-- 500000 -->
      <g style="fill: #37539c" transform="translate(25.136875 137.569219) scale(0.1 -0.1)">
       <use xlink:href="#OpenSans-Bold-35"/>
       <use xlink:href="#OpenSans-Bold-30" x="57.177734"/>
       <use xlink:href="#OpenSans-Bold-30" x="114.355469"/>
       <use xlink:href="#OpenSans-Bold-30" x="171.533203"/>
       <use xlink:href="#OpenSans-Bold-30" x="228.710938"/>
       <use xlink:href="#OpenSans-Bold-30" x="285.888672"/>
      </g>
     </g>
    </g>
    <g id="ytick_7">
     <g id="line2d_24">
      <path d="M 66.44 94.1 
L 457.81 94.1 
" clip-path="url(#p447b815adf)" style="fill: none; stroke-dasharray: 2.96,1.28; stroke-dashoffset: 0; stroke: #b0b0b0; stroke-width: 0.8"/>
     </g>
     <g id="line2d_25">
      <g>
       <use xlink:href="#m1f2c846e94" x="66.44" y="94.1" style="fill: #37539c; stroke: #37539c; stroke-width: 0.8"/>
      </g>
     </g>
     <g id="text_18">
      <!-- 600000 -->
      <g style="fill: #37539c" transform="translate(25.136875 97.899219) scale(0.1 -0.1)">
       <use xlink:href="#OpenSans-Bold-36"/>
       <use xlink:href="#OpenSans-Bold-30" x="57.177734"/>
       <use xlink:href="#OpenSans-Bold-30" x="114.355469"/>
       <use xlink:href="#OpenSans-Bold-30" x="171.533203"/>
       <use xlink:href="#OpenSans-Bold-30" x="228.710938"/>
       <use xlink:href="#OpenSans-Bold-30" x="285.888672"/>
      </g>
     </g>
    </g>
    <g id="ytick_8">
     <g id="line2d_26">
      <path d="M 66.44 54.43 
L 457.81 54.43 
" clip-path="url(#p447b815adf)" style="fill: none; stroke-dasharray: 2.96,1.28; stroke-dashoffset: 0; stroke: #b0b0b0; stroke-width: 0.8"/>
     </g>
     <g id="line2d_27">
      <g>
       <use xlink:href="#m1f2c846e94" x="66.44" y="54.43" style="fill: #37539c; stroke: #37539c; stroke-width: 0.8"/>
      </g>
     </g>
     <g id="text_19">
      <!-- 700000 -->
      <g style="fill: #37539c" transform="translate(25.136875 58.229219) scale(0.1 -0.1)">
       <use xlink:href="#OpenSans-Bold-37"/>
       <use xlink:href="#OpenSans-Bold-30" x="57.177734"/>
       <use xlink:href="#OpenSans-Bold-30" x="114.355469"/>
       <use xlink:href="#OpenSans-Bold-30" x="171.533203"/>
       <use xlink:href="#OpenSans-Bold-30" x="228.710938"/>
       <use xlink:href="#OpenSans-Bold-30" x="285.888672"/>
      </g>
     </g>
    </g>
    <g id="ytick_9">
     <g id="line2d_28">
      <path d="M 66.44 14.76 
L 457.81 14.76 
" clip-path="url(#p447b815adf)" style="fill: none; stroke-dasharray: 2.96,1.28; stroke-dashoffset: 0; stroke: #b0b0b0; stroke-width: 0.8"/>
     </g>
     <g id="line2d_29">
      <g>
       <use xlink:href="#m1f2c846e94" x="66.44" y="14.76" style="fill: #37539c; stroke: #37539c; stroke-width: 0.8"/>
      </g>
     </g>
     <g id="text_20">
      <!-- 800000 -->
      <g style="fill: #37539c" transform="translate(25.136875 18.559219) scale(0.1 -0.1)">
       <use xlink:href="#OpenSans-Bold-38"/>
       <use xlink:href="#OpenSans-Bold-30" x="57.177734"/>
       <use xlink:href="#OpenSans-Bold-30" x="114.355469"/>
       <use xlink:href="#OpenSans-Bold-30" x="171.533203"/>
       <use xlink:href="#OpenSans-Bold-30" x="228.710938"/>
       <use xlink:href="#OpenSans-Bold-30" x="285.888672"/>
      </g>
     </g>
    </g>
    <g id="text_21">
     <!-- Millones de pesos chilenos del 2020 -->
     <g style="fill: #37539c" transform="translate(18.73375 261.15875) rotate(-90) scale(0.1 -0.1)">
      <defs>
       <path id="OpenSans-Bold-4d" d="M 2509 0 
L 1409 3584 
L 1381 3584 
Q 1388 3456 1402 3198 
Q 1416 2941 1428 2650 
Q 1441 2359 1441 2125 
L 1441 0 
L 575 0 
L 575 4569 
L 1894 4569 
L 2975 1075 
L 2994 1075 
L 4141 4569 
L 5459 4569 
L 5459 0 
L 4556 0 
L 4556 2163 
Q 4556 2378 4564 2659 
Q 4572 2941 4584 3195 
Q 4597 3450 4603 3578 
L 4575 3578 
L 3397 0 
L 2509 0 
z
" transform="scale(0.015625)"/>
       <path id="OpenSans-Bold-69" d="M 1453 3494 
L 1453 0 
L 500 0 
L 500 3494 
L 1453 3494 
z
M 978 4863 
Q 1191 4863 1344 4764 
Q 1497 4666 1497 4397 
Q 1497 4131 1344 4029 
Q 1191 3928 978 3928 
Q 763 3928 611 4029 
Q 459 4131 459 4397 
Q 459 4666 611 4764 
Q 763 4863 978 4863 
z
" transform="scale(0.015625)"/>
       <path id="OpenSans-Bold-6c" d="M 1453 0 
L 500 0 
L 500 4863 
L 1453 4863 
L 1453 0 
z
" transform="scale(0.015625)"/>
       <path id="OpenSans-Bold-6f" d="M 3675 1753 
Q 3675 1316 3558 978 
Q 3441 641 3217 408 
Q 2994 175 2680 56 
Q 2366 -63 1972 -63 
Q 1603 -63 1295 56 
Q 988 175 761 408 
Q 534 641 411 978 
Q 288 1316 288 1753 
Q 288 2334 494 2737 
Q 700 3141 1081 3350 
Q 1463 3559 1991 3559 
Q 2481 3559 2861 3350 
Q 3241 3141 3458 2737 
Q 3675 2334 3675 1753 
z
M 1259 1753 
Q 1259 1409 1334 1175 
Q 1409 941 1568 822 
Q 1728 703 1984 703 
Q 2238 703 2395 822 
Q 2553 941 2626 1175 
Q 2700 1409 2700 1753 
Q 2700 2100 2626 2329 
Q 2553 2559 2393 2675 
Q 2234 2791 1978 2791 
Q 1600 2791 1429 2531 
Q 1259 2272 1259 1753 
z
" transform="scale(0.015625)"/>
       <path id="OpenSans-Bold-6e" d="M 2484 3559 
Q 3044 3559 3384 3254 
Q 3725 2950 3725 2278 
L 3725 0 
L 2772 0 
L 2772 2041 
Q 2772 2416 2636 2606 
Q 2500 2797 2209 2797 
Q 1772 2797 1612 2500 
Q 1453 2203 1453 1644 
L 1453 0 
L 500 0 
L 500 3494 
L 1228 3494 
L 1356 3047 
L 1409 3047 
Q 1522 3228 1689 3340 
Q 1856 3453 2061 3506 
Q 2266 3559 2484 3559 
z
" transform="scale(0.015625)"/>
       <path id="OpenSans-Bold-65" d="M 1941 3559 
Q 2425 3559 2775 3373 
Q 3125 3188 3315 2834 
Q 3506 2481 3506 1972 
L 3506 1509 
L 1253 1509 
Q 1269 1106 1495 876 
Q 1722 647 2125 647 
Q 2459 647 2737 715 
Q 3016 784 3309 922 
L 3309 184 
Q 3050 56 2767 -3 
Q 2484 -63 2081 -63 
Q 1556 -63 1151 131 
Q 747 325 517 722 
Q 288 1119 288 1722 
Q 288 2334 495 2742 
Q 703 3150 1075 3354 
Q 1447 3559 1941 3559 
z
M 1947 2881 
Q 1669 2881 1486 2703 
Q 1303 2525 1275 2144 
L 2613 2144 
Q 2609 2356 2536 2522 
Q 2463 2688 2317 2784 
Q 2172 2881 1947 2881 
z
" transform="scale(0.015625)"/>
       <path id="OpenSans-Bold-73" d="M 2938 1038 
Q 2938 681 2770 436 
Q 2603 191 2272 64 
Q 1941 -63 1447 -63 
Q 1081 -63 820 -16 
Q 559 31 294 141 
L 294 928 
Q 578 800 904 717 
Q 1231 634 1478 634 
Q 1756 634 1876 717 
Q 1997 800 1997 934 
Q 1997 1022 1948 1092 
Q 1900 1163 1740 1252 
Q 1581 1341 1241 1484 
Q 913 1622 702 1762 
Q 491 1903 389 2095 
Q 288 2288 288 2584 
Q 288 3069 664 3314 
Q 1041 3559 1672 3559 
Q 1997 3559 2292 3493 
Q 2588 3428 2900 3284 
L 2613 2597 
Q 2353 2709 2123 2781 
Q 1894 2853 1656 2853 
Q 1447 2853 1340 2797 
Q 1234 2741 1234 2625 
Q 1234 2541 1289 2475 
Q 1344 2409 1501 2329 
Q 1659 2250 1966 2125 
Q 2263 2003 2481 1870 
Q 2700 1738 2819 1542 
Q 2938 1347 2938 1038 
z
" transform="scale(0.015625)"/>
       <path id="OpenSans-Bold-20" transform="scale(0.015625)"/>
       <path id="OpenSans-Bold-64" d="M 1606 -63 
Q 1022 -63 655 395 
Q 288 853 288 1741 
Q 288 2638 659 3098 
Q 1031 3559 1631 3559 
Q 1881 3559 2072 3490 
Q 2263 3422 2402 3306 
Q 2541 3191 2638 3047 
L 2669 3047 
Q 2650 3147 2623 3342 
Q 2597 3538 2597 3744 
L 2597 4863 
L 3553 4863 
L 3553 0 
L 2822 0 
L 2638 453 
L 2597 453 
Q 2506 309 2370 192 
Q 2234 75 2046 6 
Q 1859 -63 1606 -63 
z
M 1941 697 
Q 2331 697 2492 930 
Q 2653 1163 2663 1631 
L 2663 1734 
Q 2663 2244 2506 2514 
Q 2350 2784 1925 2784 
Q 1609 2784 1431 2512 
Q 1253 2241 1253 1728 
Q 1253 1216 1433 956 
Q 1613 697 1941 697 
z
" transform="scale(0.015625)"/>
       <path id="OpenSans-Bold-70" d="M 2444 3559 
Q 3034 3559 3398 3100 
Q 3763 2641 3763 1753 
Q 3763 1159 3591 754 
Q 3419 350 3116 143 
Q 2813 -63 2419 -63 
Q 2166 -63 1984 1 
Q 1803 66 1675 167 
Q 1547 269 1453 384 
L 1403 384 
Q 1428 259 1440 128 
Q 1453 -3 1453 -128 
L 1453 -1538 
L 500 -1538 
L 500 3494 
L 1275 3494 
L 1409 3041 
L 1453 3041 
Q 1547 3181 1681 3300 
Q 1816 3419 2005 3489 
Q 2194 3559 2444 3559 
z
M 2138 2797 
Q 1888 2797 1741 2694 
Q 1594 2591 1526 2384 
Q 1459 2178 1453 1863 
L 1453 1759 
Q 1453 1422 1517 1187 
Q 1581 953 1732 831 
Q 1884 709 2150 709 
Q 2369 709 2509 831 
Q 2650 953 2720 1189 
Q 2791 1425 2791 1766 
Q 2791 2278 2631 2537 
Q 2472 2797 2138 2797 
z
" transform="scale(0.015625)"/>
       <path id="OpenSans-Bold-63" d="M 1919 -63 
Q 1400 -63 1034 126 
Q 669 316 478 712 
Q 288 1109 288 1728 
Q 288 2369 505 2773 
Q 722 3178 1108 3368 
Q 1494 3559 2003 3559 
Q 2366 3559 2630 3489 
Q 2894 3419 3091 3322 
L 2809 2584 
Q 2584 2675 2390 2733 
Q 2197 2791 2003 2791 
Q 1753 2791 1587 2673 
Q 1422 2556 1340 2322 
Q 1259 2088 1259 1734 
Q 1259 1388 1346 1159 
Q 1434 931 1600 820 
Q 1766 709 2003 709 
Q 2300 709 2531 789 
Q 2763 869 2981 1013 
L 2981 197 
Q 2763 59 2523 -2 
Q 2284 -63 1919 -63 
z
" transform="scale(0.015625)"/>
       <path id="OpenSans-Bold-68" d="M 1453 4863 
L 1453 3872 
Q 1453 3613 1436 3378 
Q 1419 3144 1409 3047 
L 1459 3047 
Q 1572 3228 1726 3340 
Q 1881 3453 2068 3506 
Q 2256 3559 2472 3559 
Q 2850 3559 3131 3426 
Q 3413 3294 3569 3011 
Q 3725 2728 3725 2278 
L 3725 0 
L 2772 0 
L 2772 2041 
Q 2772 2416 2634 2606 
Q 2497 2797 2209 2797 
Q 1922 2797 1756 2664 
Q 1591 2531 1522 2273 
Q 1453 2016 1453 1644 
L 1453 0 
L 500 0 
L 500 4863 
L 1453 4863 
z
" transform="scale(0.015625)"/>
      </defs>
      <use xlink:href="#OpenSans-Bold-4d"/>
      <use xlink:href="#OpenSans-Bold-69" x="94.287109"/>
      <use xlink:href="#OpenSans-Bold-6c" x="124.804688"/>
      <use xlink:href="#OpenSans-Bold-6c" x="155.322266"/>
      <use xlink:href="#OpenSans-Bold-6f" x="185.839844"/>
      <use xlink:href="#OpenSans-Bold-6e" x="247.753906"/>
      <use xlink:href="#OpenSans-Bold-65" x="313.476562"/>
      <use xlink:href="#OpenSans-Bold-73" x="372.558594"/>
      <use xlink:href="#OpenSans-Bold-20" x="422.265625"/>
      <use xlink:href="#OpenSans-Bold-64" x="448.242188"/>
      <use xlink:href="#OpenSans-Bold-65" x="511.523438"/>
      <use xlink:href="#OpenSans-Bold-20" x="570.605469"/>
      <use xlink:href="#OpenSans-Bold-70" x="596.582031"/>
      <use xlink:href="#OpenSans-Bold-65" x="659.863281"/>
      <use xlink:href="#OpenSans-Bold-73" x="718.945312"/>
      <use xlink:href="#OpenSans-Bold-6f" x="768.652344"/>
      <use xlink:href="#OpenSans-Bold-73" x="830.566406"/>
      <use xlink:href="#OpenSans-Bold-20" x="880.273438"/>
      <use xlink:href="#OpenSans-Bold-63" x="906.25"/>
      <use xlink:href="#OpenSans-Bold-68" x="957.666016"/>
      <use xlink:href="#OpenSans-Bold-69" x="1023.388672"/>
      <use xlink:href="#OpenSans-Bold-6c" x="1053.90625"/>
      <use xlink:href="#OpenSans-Bold-65" x="1084.423828"/>
      <use xlink:href="#OpenSans-Bold-6e" x="1143.505859"/>
      <use xlink:href="#OpenSans-Bold-6f" x="1209.228516"/>
      <use xlink:href="#OpenSans-Bold-73" x="1271.142578"/>
      <use xlink:href="#OpenSans-Bold-20" x="1320.849609"/>
      <use xlink:href="#OpenSans-Bold-64" x="1346.826172"/>
      <use xlink:href="#OpenSans-Bold-65" x="1410.107422"/>
      <use xlink:href="#OpenSans-Bold-6c" x="1469.189453"/>
      <use xlink:href="#OpenSans-Bold-20" x="1499.707031"/>
      <use xlink:href="#OpenSans-Bold-32" x="1525.683594"/>
      <use xlink:href="#OpenSans-Bold-30" x="1582.861328"/>
      <use xlink:href="#OpenSans-Bold-32" x="1640.039062"/>
      <use xlink:href="#OpenSans-Bold-30" x="1697.216797"/>
     </g>
    </g>
   </g>
   <g id="line2d_30">
    <path d="M 84.229545 133.466128 
L 119.808636 110.044563 
L 155.387727 91.948696 
L 190.966818 66.619401 
L 226.545909 68.171688 
L 262.125 56.563849 
L 297.704091 55.518148 
L 333.283182 55.864071 
L 368.862273 37.803113 
L 404.441364 58.535448 
L 440.020455 64.461353 
" clip-path="url(#p447b815adf)" style="fill: none; stroke: #37539c; stroke-width: 1.5; stroke-linecap: square"/>
    <defs>
     <path id="m1f6f9fd75a" d="M 0 2 
C 0.530406 2 1.03916 1.789267 1.414214 1.414214 
C 1.789267 1.03916 2 0.530406 2 0 
C 2 -0.530406 1.789267 -1.03916 1.414214 -1.414214 
C 1.03916 -1.789267 0.530406 -2 0 -2 
C -0.530406 -2 -1.03916 -1.789267 -1.414214 -1.414214 
C -1.789267 -1.03916 -2 -0.530406 -2 0 
C -2 0.530406 -1.789267 1.03916 -1.414214 1.414214 
C -1.03916 1.789267 -0.530406 2 0 2 
z
" style="stroke: #37539c"/>
    </defs>
    <g clip-path="url(#p447b815adf)">
     <use xlink:href="#m1f6f9fd75a" x="84.229545" y="133.466128" style="fill: #37539c; stroke: #37539c"/>
     <use xlink:href="#m1f6f9fd75a" x="119.808636" y="110.044563" style="fill: #37539c; stroke: #37539c"/>
     <use xlink:href="#m1f6f9fd75a" x="155.387727" y="91.948696" style="fill: #37539c; stroke: #37539c"/>
     <use xlink:href="#m1f6f9fd75a" x="190.966818" y="66.619401" style="fill: #37539c; stroke: #37539c"/>
     <use xlink:href="#m1f6f9fd75a" x="226.545909" y="68.171688" style="fill: #37539c; stroke: #37539c"/>
     <use xlink:href="#m1f6f9fd75a" x="262.125" y="56.563849" style="fill: #37539c; stroke: #37539c"/>
     <use xlink:href="#m1f6f9fd75a" x="297.704091" y="55.518148" style="fill: #37539c; stroke: #37539c"/>
     <use xlink:href="#m1f6f9fd75a" x="333.283182" y="55.864071" style="fill: #37539c; stroke: #37539c"/>
     <use xlink:href="#m1f6f9fd75a" x="368.862273" y="37.803113" style="fill: #37539c; stroke: #37539c"/>
     <use xlink:href="#m1f6f9fd75a" x="404.441364" y="58.535448" style="fill: #37539c; stroke: #37539c"/>
     <use xlink:href="#m1f6f9fd75a" x="440.020455" y="64.461353" style="fill: #37539c; stroke: #37539c"/>
    </g>
   </g>
   <g id="patch_3">
    <path d="M 66.44 332.12 
L 66.44 14.76 
" style="fill: none; stroke: #000000; stroke-width: 0.8; stroke-linejoin: miter; stroke-linecap: square"/>
   </g>
   <g id="patch_4">
    <path d="M 66.44 332.12 
L 457.81 332.12 
" style="fill: none; stroke: #000000; stroke-width: 0.8; stroke-linejoin: miter; stroke-linecap: square"/>
   </g>
   <g id="text_22">
    <!-- $500766 MM -->
    <g style="fill: #37539c" transform="translate(77.113727 145.367128) scale(0.08 -0.08)">
     <defs>
      <path id="OpenSans-Bold-24" d="M 1619 -372 
L 1619 256 
Q 1203 266 876 336 
Q 550 406 281 525 
L 281 1350 
Q 547 1222 915 1117 
Q 1284 1013 1619 991 
L 1619 1959 
Q 1125 2153 829 2336 
Q 534 2519 404 2742 
Q 275 2966 275 3278 
Q 275 3597 445 3830 
Q 616 4063 919 4203 
Q 1222 4344 1619 4378 
L 1619 4856 
L 2047 4856 
L 2047 4391 
Q 2409 4378 2723 4308 
Q 3038 4238 3341 4103 
L 3047 3372 
Q 2791 3478 2533 3537 
Q 2275 3597 2047 3616 
L 2047 2694 
Q 2394 2566 2706 2416 
Q 3019 2266 3216 2034 
Q 3413 1803 3413 1428 
Q 3413 963 3073 647 
Q 2734 331 2047 269 
L 2047 -372 
L 1619 -372 
z
M 2047 1013 
Q 2266 1050 2369 1142 
Q 2472 1234 2472 1381 
Q 2472 1469 2425 1537 
Q 2378 1606 2283 1667 
Q 2188 1728 2047 1791 
L 2047 1013 
z
M 1619 2869 
L 1619 3603 
Q 1491 3584 1400 3542 
Q 1309 3500 1262 3434 
Q 1216 3369 1216 3278 
Q 1216 3188 1258 3119 
Q 1300 3050 1389 2990 
Q 1478 2931 1619 2869 
z
" transform="scale(0.015625)"/>
     </defs>
     <use xlink:href="#OpenSans-Bold-24"/>
     <use xlink:href="#OpenSans-Bold-35" x="57.177734"/>
     <use xlink:href="#OpenSans-Bold-30" x="114.355469"/>
     <use xlink:href="#OpenSans-Bold-30" x="171.533203"/>
     <use xlink:href="#OpenSans-Bold-37" x="228.710938"/>
     <use xlink:href="#OpenSans-Bold-36" x="285.888672"/>
     <use xlink:href="#OpenSans-Bold-36" x="343.066406"/>
     <use xlink:href="#OpenSans-Bold-20" x="400.244141"/>
     <use xlink:href="#OpenSans-Bold-4d" x="426.220703"/>
     <use xlink:href="#OpenSans-Bold-4d" x="520.507812"/>
    </g>
   </g>
   <g id="text_23">
    <!-- $674713 MM -->
    <g style="fill: #37539c" transform="translate(407.999273 52.560353) scale(0.08 -0.08)">
     <use xlink:href="#OpenSans-Bold-24"/>
     <use xlink:href="#OpenSans-Bold-36" x="57.177734"/>
     <use xlink:href="#OpenSans-Bold-37" x="114.355469"/>
     <use xlink:href="#OpenSans-Bold-34" x="171.533203"/>
     <use xlink:href="#OpenSans-Bold-37" x="228.710938"/>
     <use xlink:href="#OpenSans-Bold-31" x="285.888672"/>
     <use xlink:href="#OpenSans-Bold-33" x="343.066406"/>
     <use xlink:href="#OpenSans-Bold-20" x="400.244141"/>
     <use xlink:href="#OpenSans-Bold-4d" x="426.220703"/>
     <use xlink:href="#OpenSans-Bold-4d" x="520.507812"/>
    </g>
   </g>
   <g id="legend_1">
    <g id="patch_5">
     <path d="M 73.44 327.12 
L 160.788438 327.12 
Q 162.788438 327.12 162.788438 325.12 
L 162.788438 311.118438 
Q 162.788438 309.118438 160.788438 309.118438 
L 73.44 309.118438 
Q 71.44 309.118438 71.44 311.118438 
L 71.44 325.12 
Q 71.44 327.12 73.44 327.12 
z
" style="fill: #ffffff; opacity: 0.8; stroke: #cccccc; stroke-linejoin: miter"/>
    </g>
    <g id="line2d_31">
     <path d="M 75.44 317.216875 
L 85.44 317.216875 
L 95.44 317.216875 
" style="fill: none; stroke: #37539c; stroke-width: 1.5; stroke-linecap: square"/>
     <g>
      <use xlink:href="#m1f6f9fd75a" x="85.44" y="317.216875" style="fill: #37539c; stroke: #37539c"/>
     </g>
    </g>
    <g id="text_24">
     <!-- Gasto total -->
     <g style="fill: #37539c" transform="translate(103.44 320.716875) scale(0.1 -0.1)">
      <defs>
       <path id="OpenSans-Bold-47" d="M 2309 2566 
L 4122 2566 
L 4122 197 
Q 3763 78 3375 7 
Q 2988 -63 2497 -63 
Q 1816 -63 1341 206 
Q 866 475 619 1000 
Q 372 1525 372 2291 
Q 372 3009 648 3534 
Q 925 4059 1458 4346 
Q 1991 4634 2759 4634 
Q 3122 4634 3475 4556 
Q 3828 4478 4116 4353 
L 3794 3578 
Q 3584 3684 3315 3756 
Q 3047 3828 2753 3828 
Q 2331 3828 2020 3634 
Q 1709 3441 1539 3092 
Q 1369 2744 1369 2272 
Q 1369 1825 1491 1479 
Q 1613 1134 1875 939 
Q 2138 744 2559 744 
Q 2766 744 2908 764 
Q 3050 784 3175 806 
L 3175 1759 
L 2309 1759 
L 2309 2566 
z
" transform="scale(0.015625)"/>
       <path id="OpenSans-Bold-61" d="M 1931 3566 
Q 2634 3566 3009 3259 
Q 3384 2953 3384 2328 
L 3384 0 
L 2719 0 
L 2534 475 
L 2509 475 
Q 2359 288 2203 169 
Q 2047 50 1844 -6 
Q 1641 -63 1350 -63 
Q 1041 -63 795 56 
Q 550 175 409 420 
Q 269 666 269 1044 
Q 269 1600 659 1864 
Q 1050 2128 1831 2156 
L 2438 2175 
L 2438 2328 
Q 2438 2603 2294 2731 
Q 2150 2859 1894 2859 
Q 1641 2859 1397 2787 
Q 1153 2716 909 2606 
L 594 3250 
Q 872 3397 1217 3481 
Q 1563 3566 1931 3566 
z
M 2438 1619 
L 2069 1606 
Q 1606 1594 1426 1441 
Q 1247 1288 1247 1038 
Q 1247 819 1375 726 
Q 1503 634 1709 634 
Q 2016 634 2227 815 
Q 2438 997 2438 1331 
L 2438 1619 
z
" transform="scale(0.015625)"/>
       <path id="OpenSans-Bold-74" d="M 1972 697 
Q 2128 697 2276 728 
Q 2425 759 2572 806 
L 2572 97 
Q 2419 28 2192 -17 
Q 1966 -63 1697 -63 
Q 1384 -63 1136 39 
Q 888 141 745 392 
Q 603 644 603 1094 
L 603 2778 
L 147 2778 
L 147 3181 
L 672 3500 
L 947 4238 
L 1556 4238 
L 1556 3494 
L 2534 3494 
L 2534 2778 
L 1556 2778 
L 1556 1094 
Q 1556 894 1670 795 
Q 1784 697 1972 697 
z
" transform="scale(0.015625)"/>
      </defs>
      <use xlink:href="#OpenSans-Bold-47"/>
      <use xlink:href="#OpenSans-Bold-61" x="72.412109"/>
      <use xlink:href="#OpenSans-Bold-73" x="132.8125"/>
      <use xlink:href="#OpenSans-Bold-74" x="182.519531"/>
      <use xlink:href="#OpenSans-Bold-6f" x="225.927734"/>
      <use xlink:href="#OpenSans-Bold-20" x="287.841797"/>
      <use xlink:href="#OpenSans-Bold-74" x="313.818359"/>
      <use xlink:href="#OpenSans-Bold-6f" x="357.226562"/>
      <use xlink:href="#OpenSans-Bold-74" x="419.140625"/>
      <use xlink:href="#OpenSans-Bold-61" x="462.548828"/>
      <use xlink:href="#OpenSans-Bold-6c" x="522.949219"/>
     </g>
    </g>
   </g>
  </g>
  <g id="axes_2">
   <g id="matplotlib.axis_3">
    <g id="ytick_10">
     <g id="line2d_32">
      <defs>
       <path id="m3052db387c" d="M 0 0 
L 3.5 0 
" style="stroke: #f45b69; stroke-width: 0.8"/>
      </defs>
      <g>
       <use xlink:href="#m3052db387c" x="457.81" y="332.12" style="fill: #f45b69; stroke: #f45b69; stroke-width: 0.8"/>
      </g>
     </g>
     <g id="text_25">
      <!-- 0.0 -->
      <g style="fill: #f45b69" transform="translate(464.81 335.919219) scale(0.1 -0.1)">
       <defs>
        <path id="OpenSans-Bold-2e" d="M 366 447 
Q 366 741 527 859 
Q 688 978 916 978 
Q 1138 978 1298 859 
Q 1459 741 1459 447 
Q 1459 166 1298 41 
Q 1138 -84 916 -84 
Q 688 -84 527 41 
Q 366 166 366 447 
z
" transform="scale(0.015625)"/>
       </defs>
       <use xlink:href="#OpenSans-Bold-30"/>
       <use xlink:href="#OpenSans-Bold-2e" x="57.177734"/>
       <use xlink:href="#OpenSans-Bold-30" x="85.693359"/>
      </g>
     </g>
    </g>
    <g id="ytick_11">
     <g id="line2d_33">
      <g>
       <use xlink:href="#m3052db387c" x="457.81" y="286.782857" style="fill: #f45b69; stroke: #f45b69; stroke-width: 0.8"/>
      </g>
     </g>
     <g id="text_26">
      <!-- 0.1 -->
      <g style="fill: #f45b69" transform="translate(464.81 290.582076) scale(0.1 -0.1)">
       <use xlink:href="#OpenSans-Bold-30"/>
       <use xlink:href="#OpenSans-Bold-2e" x="57.177734"/>
       <use xlink:href="#OpenSans-Bold-31" x="85.693359"/>
      </g>
     </g>
    </g>
    <g id="ytick_12">
     <g id="line2d_34">
      <g>
       <use xlink:href="#m3052db387c" x="457.81" y="241.445714" style="fill: #f45b69; stroke: #f45b69; stroke-width: 0.8"/>
      </g>
     </g>
     <g id="text_27">
      <!-- 0.2 -->
      <g style="fill: #f45b69" transform="translate(464.81 245.244933) scale(0.1 -0.1)">
       <use xlink:href="#OpenSans-Bold-30"/>
       <use xlink:href="#OpenSans-Bold-2e" x="57.177734"/>
       <use xlink:href="#OpenSans-Bold-32" x="85.693359"/>
      </g>
     </g>
    </g>
    <g id="ytick_13">
     <g id="line2d_35">
      <g>
       <use xlink:href="#m3052db387c" x="457.81" y="196.108571" style="fill: #f45b69; stroke: #f45b69; stroke-width: 0.8"/>
      </g>
     </g>
     <g id="text_28">
      <!-- 0.3 -->
      <g style="fill: #f45b69" transform="translate(464.81 199.90779) scale(0.1 -0.1)">
       <use xlink:href="#OpenSans-Bold-30"/>
       <use xlink:href="#OpenSans-Bold-2e" x="57.177734"/>
       <use xlink:href="#OpenSans-Bold-33" x="85.693359"/>
      </g>
     </g>
    </g>
    <g id="ytick_14">
     <g id="line2d_36">
      <g>
       <use xlink:href="#m3052db387c" x="457.81" y="150.771429" style="fill: #f45b69; stroke: #f45b69; stroke-width: 0.8"/>
      </g>
     </g>
     <g id="text_29">
      <!-- 0.4 -->
      <g style="fill: #f45b69" transform="translate(464.81 154.570647) scale(0.1 -0.1)">
       <use xlink:href="#OpenSans-Bold-30"/>
       <use xlink:href="#OpenSans-Bold-2e" x="57.177734"/>
       <use xlink:href="#OpenSans-Bold-34" x="85.693359"/>
      </g>
     </g>
    </g>
    <g id="ytick_15">
     <g id="line2d_37">
      <g>
       <use xlink:href="#m3052db387c" x="457.81" y="105.434286" style="fill: #f45b69; stroke: #f45b69; stroke-width: 0.8"/>
      </g>
     </g>
     <g id="text_30">
      <!-- 0.5 -->
      <g style="fill: #f45b69" transform="translate(464.81 109.233504) scale(0.1 -0.1)">
       <use xlink:href="#OpenSans-Bold-30"/>
       <use xlink:href="#OpenSans-Bold-2e" x="57.177734"/>
       <use xlink:href="#OpenSans-Bold-35" x="85.693359"/>
      </g>
     </g>
    </g>
    <g id="ytick_16">
     <g id="line2d_38">
      <g>
       <use xlink:href="#m3052db387c" x="457.81" y="60.097143" style="fill: #f45b69; stroke: #f45b69; stroke-width: 0.8"/>
      </g>
     </g>
     <g id="text_31">
      <!-- 0.6 -->
      <g style="fill: #f45b69" transform="translate(464.81 63.896362) scale(0.1 -0.1)">
       <use xlink:href="#OpenSans-Bold-30"/>
       <use xlink:href="#OpenSans-Bold-2e" x="57.177734"/>
       <use xlink:href="#OpenSans-Bold-36" x="85.693359"/>
      </g>
     </g>
    </g>
    <g id="ytick_17">
     <g id="line2d_39">
      <g>
       <use xlink:href="#m3052db387c" x="457.81" y="14.76" style="fill: #f45b69; stroke: #f45b69; stroke-width: 0.8"/>
      </g>
     </g>
     <g id="text_32">
      <!-- 0.7 -->
      <g style="fill: #f45b69" transform="translate(464.81 18.559219) scale(0.1 -0.1)">
       <use xlink:href="#OpenSans-Bold-30"/>
       <use xlink:href="#OpenSans-Bold-2e" x="57.177734"/>
       <use xlink:href="#OpenSans-Bold-37" x="85.693359"/>
      </g>
     </g>
    </g>
    <g id="text_33">
     <!-- Gasto como porcentaje respecto al PIB -->
     <g style="fill: #37539c" transform="translate(490.694375 269.378281) rotate(-90) scale(0.1 -0.1)">
      <defs>
       <path id="OpenSans-Bold-6d" d="M 4603 3559 
Q 5197 3559 5501 3254 
Q 5806 2950 5806 2278 
L 5806 0 
L 4850 0 
L 4850 2041 
Q 4850 2416 4722 2606 
Q 4594 2797 4325 2797 
Q 3947 2797 3787 2526 
Q 3628 2256 3628 1753 
L 3628 0 
L 2675 0 
L 2675 2041 
Q 2675 2291 2619 2459 
Q 2563 2628 2447 2712 
Q 2331 2797 2150 2797 
Q 1884 2797 1732 2664 
Q 1581 2531 1517 2273 
Q 1453 2016 1453 1644 
L 1453 0 
L 500 0 
L 500 3494 
L 1228 3494 
L 1356 3047 
L 1409 3047 
Q 1516 3228 1677 3340 
Q 1838 3453 2031 3506 
Q 2225 3559 2425 3559 
Q 2809 3559 3076 3434 
Q 3344 3309 3488 3047 
L 3572 3047 
Q 3728 3316 4014 3437 
Q 4300 3559 4603 3559 
z
" transform="scale(0.015625)"/>
       <path id="OpenSans-Bold-72" d="M 2450 3559 
Q 2522 3559 2617 3551 
Q 2713 3544 2772 3531 
L 2700 2638 
Q 2653 2653 2567 2661 
Q 2481 2669 2419 2669 
Q 2234 2669 2061 2622 
Q 1888 2575 1750 2470 
Q 1613 2366 1533 2195 
Q 1453 2025 1453 1778 
L 1453 0 
L 500 0 
L 500 3494 
L 1222 3494 
L 1363 2906 
L 1409 2906 
Q 1513 3084 1667 3232 
Q 1822 3381 2020 3470 
Q 2219 3559 2450 3559 
z
" transform="scale(0.015625)"/>
       <path id="OpenSans-Bold-6a" d="M 219 -1538 
Q 56 -1538 -119 -1514 
Q -294 -1491 -409 -1459 
L -409 -709 
Q -294 -741 -192 -755 
Q -91 -769 38 -769 
Q 231 -769 365 -661 
Q 500 -553 500 -238 
L 500 3494 
L 1453 3494 
L 1453 -378 
Q 1453 -697 1331 -961 
Q 1209 -1225 937 -1381 
Q 666 -1538 219 -1538 
z
M 459 4397 
Q 459 4666 611 4764 
Q 763 4863 978 4863 
Q 1191 4863 1344 4764 
Q 1497 4666 1497 4397 
Q 1497 4131 1344 4029 
Q 1191 3928 978 3928 
Q 763 3928 611 4029 
Q 459 4131 459 4397 
z
" transform="scale(0.015625)"/>
       <path id="OpenSans-Bold-50" d="M 2034 4569 
Q 2919 4569 3325 4189 
Q 3731 3809 3731 3144 
Q 3731 2844 3640 2570 
Q 3550 2297 3345 2084 
Q 3141 1872 2800 1748 
Q 2459 1625 1959 1625 
L 1544 1625 
L 1544 0 
L 575 0 
L 575 4569 
L 2034 4569 
z
M 1984 3775 
L 1544 3775 
L 1544 2419 
L 1863 2419 
Q 2134 2419 2334 2491 
Q 2534 2563 2643 2716 
Q 2753 2869 2753 3109 
Q 2753 3447 2565 3611 
Q 2378 3775 1984 3775 
z
" transform="scale(0.015625)"/>
       <path id="OpenSans-Bold-49" d="M 575 0 
L 575 4569 
L 1544 4569 
L 1544 0 
L 575 0 
z
" transform="scale(0.015625)"/>
       <path id="OpenSans-Bold-42" d="M 575 4569 
L 1997 4569 
Q 2909 4569 3378 4312 
Q 3847 4056 3847 3413 
Q 3847 3153 3764 2943 
Q 3681 2734 3525 2600 
Q 3369 2466 3144 2425 
L 3144 2394 
Q 3372 2347 3556 2233 
Q 3741 2119 3852 1901 
Q 3963 1684 3963 1325 
Q 3963 909 3759 612 
Q 3556 316 3179 158 
Q 2803 0 2284 0 
L 575 0 
L 575 4569 
z
M 1544 2759 
L 2106 2759 
Q 2528 2759 2690 2892 
Q 2853 3025 2853 3284 
Q 2853 3547 2661 3661 
Q 2469 3775 2053 3775 
L 1544 3775 
L 1544 2759 
z
M 1544 1991 
L 1544 800 
L 2175 800 
Q 2613 800 2784 969 
Q 2956 1138 2956 1422 
Q 2956 1591 2881 1719 
Q 2806 1847 2629 1919 
Q 2453 1991 2144 1991 
L 1544 1991 
z
" transform="scale(0.015625)"/>
      </defs>
      <use xlink:href="#OpenSans-Bold-47"/>
      <use xlink:href="#OpenSans-Bold-61" x="72.412109"/>
      <use xlink:href="#OpenSans-Bold-73" x="132.8125"/>
      <use xlink:href="#OpenSans-Bold-74" x="182.519531"/>
      <use xlink:href="#OpenSans-Bold-6f" x="225.927734"/>
      <use xlink:href="#OpenSans-Bold-20" x="287.841797"/>
      <use xlink:href="#OpenSans-Bold-63" x="313.818359"/>
      <use xlink:href="#OpenSans-Bold-6f" x="365.234375"/>
      <use xlink:href="#OpenSans-Bold-6d" x="427.148438"/>
      <use xlink:href="#OpenSans-Bold-6f" x="525.341797"/>
      <use xlink:href="#OpenSans-Bold-20" x="587.255859"/>
      <use xlink:href="#OpenSans-Bold-70" x="613.232422"/>
      <use xlink:href="#OpenSans-Bold-6f" x="676.513672"/>
      <use xlink:href="#OpenSans-Bold-72" x="738.427734"/>
      <use xlink:href="#OpenSans-Bold-63" x="783.837891"/>
      <use xlink:href="#OpenSans-Bold-65" x="835.253906"/>
      <use xlink:href="#OpenSans-Bold-6e" x="894.335938"/>
      <use xlink:href="#OpenSans-Bold-74" x="960.058594"/>
      <use xlink:href="#OpenSans-Bold-61" x="1003.466797"/>
      <use xlink:href="#OpenSans-Bold-6a" x="1063.867188"/>
      <use xlink:href="#OpenSans-Bold-65" x="1094.384766"/>
      <use xlink:href="#OpenSans-Bold-20" x="1153.466797"/>
      <use xlink:href="#OpenSans-Bold-72" x="1179.443359"/>
      <use xlink:href="#OpenSans-Bold-65" x="1224.853516"/>
      <use xlink:href="#OpenSans-Bold-73" x="1283.935547"/>
      <use xlink:href="#OpenSans-Bold-70" x="1333.642578"/>
      <use xlink:href="#OpenSans-Bold-65" x="1396.923828"/>
      <use xlink:href="#OpenSans-Bold-63" x="1456.005859"/>
      <use xlink:href="#OpenSans-Bold-74" x="1507.421875"/>
      <use xlink:href="#OpenSans-Bold-6f" x="1550.830078"/>
      <use xlink:href="#OpenSans-Bold-20" x="1612.744141"/>
      <use xlink:href="#OpenSans-Bold-61" x="1638.720703"/>
      <use xlink:href="#OpenSans-Bold-6c" x="1699.121094"/>
      <use xlink:href="#OpenSans-Bold-20" x="1729.638672"/>
      <use xlink:href="#OpenSans-Bold-50" x="1755.615234"/>
      <use xlink:href="#OpenSans-Bold-49" x="1818.408203"/>
      <use xlink:href="#OpenSans-Bold-42" x="1851.513672"/>
     </g>
    </g>
   </g>
   <g id="line2d_40">
    <path d="M 84.229545 182.507429 
L 119.808636 173.44 
L 155.387727 168.906286 
L 190.966818 155.305143 
L 226.545909 159.838857 
L 262.125 159.838857 
L 297.704091 164.372571 
L 333.283182 168.906286 
L 368.862273 164.372571 
L 404.441364 177.973714 
L 440.020455 177.973714 
" clip-path="url(#p447b815adf)" style="fill: none; stroke: #f45b69; stroke-width: 1.5; stroke-linecap: square"/>
    <defs>
     <path id="m03ecc61abf" d="M 0 2 
C 0.530406 2 1.03916 1.789267 1.414214 1.414214 
C 1.789267 1.03916 2 0.530406 2 0 
C 2 -0.530406 1.789267 -1.03916 1.414214 -1.414214 
C 1.03916 -1.789267 0.530406 -2 0 -2 
C -0.530406 -2 -1.03916 -1.789267 -1.414214 -1.414214 
C -1.789267 -1.03916 -2 -0.530406 -2 0 
C -2 0.530406 -1.789267 1.03916 -1.414214 1.414214 
C -1.03916 1.789267 -0.530406 2 0 2 
z
" style="stroke: #f45b69"/>
    </defs>
    <g clip-path="url(#p447b815adf)">
     <use xlink:href="#m03ecc61abf" x="84.229545" y="182.507429" style="fill: #f45b69; stroke: #f45b69"/>
     <use xlink:href="#m03ecc61abf" x="119.808636" y="173.44" style="fill: #f45b69; stroke: #f45b69"/>
     <use xlink:href="#m03ecc61abf" x="155.387727" y="168.906286" style="fill: #f45b69; stroke: #f45b69"/>
     <use xlink:href="#m03ecc61abf" x="190.966818" y="155.305143" style="fill: #f45b69; stroke: #f45b69"/>
     <use xlink:href="#m03ecc61abf" x="226.545909" y="159.838857" style="fill: #f45b69; stroke: #f45b69"/>
     <use xlink:href="#m03ecc61abf" x="262.125" y="159.838857" style="fill: #f45b69; stroke: #f45b69"/>
     <use xlink:href="#m03ecc61abf" x="297.704091" y="164.372571" style="fill: #f45b69; stroke: #f45b69"/>
     <use xlink:href="#m03ecc61abf" x="333.283182" y="168.906286" style="fill: #f45b69; stroke: #f45b69"/>
     <use xlink:href="#m03ecc61abf" x="368.862273" y="164.372571" style="fill: #f45b69; stroke: #f45b69"/>
     <use xlink:href="#m03ecc61abf" x="404.441364" y="177.973714" style="fill: #f45b69; stroke: #f45b69"/>
     <use xlink:href="#m03ecc61abf" x="440.020455" y="177.973714" style="fill: #f45b69; stroke: #f45b69"/>
    </g>
   </g>
   <g id="patch_6">
    <path d="M 66.44 332.12 
L 66.44 14.76 
" style="fill: none; stroke: #000000; stroke-width: 0.8; stroke-linejoin: miter; stroke-linecap: square"/>
   </g>
   <g id="patch_7">
    <path d="M 457.81 332.12 
L 457.81 14.76 
" style="fill: none; stroke: #f45b69; stroke-width: 0.8; stroke-linejoin: miter; stroke-linecap: square"/>
   </g>
   <g id="patch_8">
    <path d="M 66.44 332.12 
L 457.81 332.12 
" style="fill: none; stroke: #000000; stroke-width: 0.8; stroke-linejoin: miter; stroke-linecap: square"/>
   </g>
   <g id="text_34">
    <!-- 0.33% -->
    <g style="fill: #37539c" transform="translate(77.113727 177.973714) scale(0.08 -0.08)">
     <defs>
      <path id="OpenSans-Bold-25" d="M 1275 4634 
Q 1813 4634 2091 4259 
Q 2369 3884 2369 3206 
Q 2369 2528 2106 2147 
Q 1844 1766 1275 1766 
Q 747 1766 472 2147 
Q 197 2528 197 3206 
Q 197 3884 455 4259 
Q 713 4634 1275 4634 
z
M 1281 3981 
Q 1128 3981 1056 3787 
Q 984 3594 984 3200 
Q 984 2806 1056 2609 
Q 1128 2413 1281 2413 
Q 1434 2413 1507 2608 
Q 1581 2803 1581 3200 
Q 1581 3594 1507 3787 
Q 1434 3981 1281 3981 
z
M 4519 4569 
L 1984 0 
L 1234 0 
L 3769 4569 
L 4519 4569 
z
M 4475 2809 
Q 5013 2809 5291 2434 
Q 5569 2059 5569 1381 
Q 5569 706 5306 325 
Q 5044 -56 4475 -56 
Q 3947 -56 3672 325 
Q 3397 706 3397 1381 
Q 3397 2059 3655 2434 
Q 3913 2809 4475 2809 
z
M 4481 2156 
Q 4328 2156 4256 1962 
Q 4184 1769 4184 1375 
Q 4184 981 4256 784 
Q 4328 588 4481 588 
Q 4634 588 4707 783 
Q 4781 978 4781 1375 
Q 4781 1769 4707 1962 
Q 4634 2156 4481 2156 
z
" transform="scale(0.015625)"/>
     </defs>
     <use xlink:href="#OpenSans-Bold-30"/>
     <use xlink:href="#OpenSans-Bold-2e" x="57.177734"/>
     <use xlink:href="#OpenSans-Bold-33" x="85.693359"/>
     <use xlink:href="#OpenSans-Bold-33" x="142.871094"/>
     <use xlink:href="#OpenSans-Bold-25" x="200.048828"/>
    </g>
   </g>
   <g id="text_35">
    <!-- 0.34% -->
    <g style="fill: #37539c" transform="translate(425.788818 173.44) scale(0.08 -0.08)">
     <use xlink:href="#OpenSans-Bold-30"/>
     <use xlink:href="#OpenSans-Bold-2e" x="57.177734"/>
     <use xlink:href="#OpenSans-Bold-33" x="85.693359"/>
     <use xlink:href="#OpenSans-Bold-34" x="142.871094"/>
     <use xlink:href="#OpenSans-Bold-25" x="200.048828"/>
    </g>
   </g>
   <g id="legend_2">
    <g id="patch_9">
     <path d="M 226.933438 327.12 
L 450.81 327.12 
Q 452.81 327.12 452.81 325.12 
L 452.81 311.118438 
Q 452.81 309.118438 450.81 309.118438 
L 226.933438 309.118438 
Q 224.933438 309.118438 224.933438 311.118438 
L 224.933438 325.12 
Q 224.933438 327.12 226.933438 327.12 
z
" style="fill: #ffffff; opacity: 0.8; stroke: #cccccc; stroke-linejoin: miter"/>
    </g>
    <g id="line2d_41">
     <path d="M 228.933438 317.216875 
L 238.933438 317.216875 
L 248.933438 317.216875 
" style="fill: none; stroke: #f45b69; stroke-width: 1.5; stroke-linecap: square"/>
     <g>
      <use xlink:href="#m03ecc61abf" x="238.933438" y="317.216875" style="fill: #f45b69; stroke: #f45b69"/>
     </g>
    </g>
    <g id="text_36">
     <!-- Gasto como porcentaje respecto al PIB -->
     <g style="fill: #37539c" transform="translate(256.933438 320.716875) scale(0.1 -0.1)">
      <use xlink:href="#OpenSans-Bold-47"/>
      <use xlink:href="#OpenSans-Bold-61" x="72.412109"/>
      <use xlink:href="#OpenSans-Bold-73" x="132.8125"/>
      <use xlink:href="#OpenSans-Bold-74" x="182.519531"/>
      <use xlink:href="#OpenSans-Bold-6f" x="225.927734"/>
      <use xlink:href="#OpenSans-Bold-20" x="287.841797"/>
      <use xlink:href="#OpenSans-Bold-63" x="313.818359"/>
      <use xlink:href="#OpenSans-Bold-6f" x="365.234375"/>
      <use xlink:href="#OpenSans-Bold-6d" x="427.148438"/>
      <use xlink:href="#OpenSans-Bold-6f" x="525.341797"/>
      <use xlink:href="#OpenSans-Bold-20" x="587.255859"/>
      <use xlink:href="#OpenSans-Bold-70" x="613.232422"/>
      <use xlink:href="#OpenSans-Bold-6f" x="676.513672"/>
      <use xlink:href="#OpenSans-Bold-72" x="738.427734"/>
      <use xlink:href="#OpenSans-Bold-63" x="783.837891"/>
      <use xlink:href="#OpenSans-Bold-65" x="835.253906"/>
      <use xlink:href="#OpenSans-Bold-6e" x="894.335938"/>
      <use xlink:href="#OpenSans-Bold-74" x="960.058594"/>
      <use xlink:href="#OpenSans-Bold-61" x="1003.466797"/>
      <use xlink:href="#OpenSans-Bold-6a" x="1063.867188"/>
      <use xlink:href="#OpenSans-Bold-65" x="1094.384766"/>
      <use xlink:href="#OpenSans-Bold-20" x="1153.466797"/>
      <use xlink:href="#OpenSans-Bold-72" x="1179.443359"/>
      <use xlink:href="#OpenSans-Bold-65" x="1224.853516"/>
      <use xlink:href="#OpenSans-Bold-73" x="1283.935547"/>
      <use xlink:href="#OpenSans-Bold-70" x="1333.642578"/>
      <use xlink:href="#OpenSans-Bold-65" x="1396.923828"/>
      <use xlink:href="#OpenSans-Bold-63" x="1456.005859"/>
      <use xlink:href="#OpenSans-Bold-74" x="1507.421875"/>
      <use xlink:href="#OpenSans-Bold-6f" x="1550.830078"/>
      <use xlink:href="#OpenSans-Bold-20" x="1612.744141"/>
      <use xlink:href="#OpenSans-Bold-61" x="1638.720703"/>
      <use xlink:href="#OpenSans-Bold-6c" x="1699.121094"/>
      <use xlink:href="#OpenSans-Bold-20" x="1729.638672"/>
      <use xlink:href="#OpenSans-Bold-50" x="1755.615234"/>
      <use xlink:href="#OpenSans-Bold-49" x="1818.408203"/>
      <use xlink:href="#OpenSans-Bold-42" x="1851.513672"/>
     </g>
    </g>
   </g>
  </g>
 </g>
 <defs>
  <clipPath id="p447b815adf">
   <rect x="66.44" y="14.76" width="391.37" height="317.36"/>
  </clipPath>
 </defs>
</svg>
