<?xml version="1.0" encoding="utf-8" standalone="no"?>
<!DOCTYPE svg PUBLIC "-//W3C//DTD SVG 1.1//EN"
  "http://www.w3.org/Graphics/SVG/1.1/DTD/svg11.dtd">
<svg xmlns:xlink="http://www.w3.org/1999/xlink" width="720pt" height="288pt" viewBox="0 0 720 288" xmlns="http://www.w3.org/2000/svg" version="1.1">
 <metadata>
  <rdf:RDF xmlns:dc="http://purl.org/dc/elements/1.1/" xmlns:cc="http://creativecommons.org/ns#" xmlns:rdf="http://www.w3.org/1999/02/22-rdf-syntax-ns#">
   <cc:Work>
    <dc:type rdf:resource="http://purl.org/dc/dcmitype/StillImage"/>
    <dc:date>2024-02-26T21:21:22.589524</dc:date>
    <dc:format>image/svg+xml</dc:format>
    <dc:creator>
     <cc:Agent>
      <dc:title>Matplotlib v3.7.1, https://matplotlib.org/</dc:title>
     </cc:Agent>
    </dc:creator>
   </cc:Work>
  </rdf:RDF>
 </metadata>
 <defs>
  <style type="text/css">*{stroke-linejoin: round; stroke-linecap: butt}</style>
 </defs>
 <g id="figure_1">
  <g id="patch_1">
   <path d="M 0 288 
L 720 288 
L 720 0 
L 0 0 
z
" style="fill: #ffffff"/>
  </g>
  <g id="axes_1">
   <g id="patch_2">
    <path d="M 49.07 236.792 
L 558.76 236.792 
L 558.76 10.8 
L 49.07 10.8 
z
" style="fill: #ffffff"/>
   </g>
   <g id="matplotlib.axis_1">
    <g id="xtick_1">
     <g id="line2d_1">
      <defs>
       <path id="m1fbc83478a" d="M 0 0 
L 0 3.5 
" style="stroke: #37539c; stroke-width: 0.8"/>
      </defs>
      <g>
       <use xlink:href="#m1fbc83478a" x="66.059667" y="236.792" style="fill: #37539c; stroke: #37539c; stroke-width: 0.8"/>
      </g>
     </g>
     <g id="text_1">
      <!-- 2011 -->
      <g style="fill: #37539c" transform="translate(54.625292 251.390438) scale(0.1 -0.1)">
       <defs>
        <path id="OpenSans-Bold-32" d="M 3450 0 
L 256 0 
L 256 672 
L 1403 1831 
Q 1750 2188 1961 2427 
Q 2172 2666 2267 2862 
Q 2363 3059 2363 3284 
Q 2363 3556 2211 3692 
Q 2059 3828 1806 3828 
Q 1541 3828 1291 3706 
Q 1041 3584 769 3359 
L 244 3981 
Q 441 4150 661 4300 
Q 881 4450 1173 4542 
Q 1466 4634 1875 4634 
Q 2325 4634 2648 4471 
Q 2972 4309 3147 4029 
Q 3322 3750 3322 3397 
Q 3322 3019 3172 2706 
Q 3022 2394 2736 2087 
Q 2450 1781 2047 1409 
L 1459 856 
L 1459 813 
L 3450 813 
L 3450 0 
z
" transform="scale(0.015625)"/>
        <path id="OpenSans-Bold-30" d="M 3425 2284 
Q 3425 1731 3339 1297 
Q 3253 863 3064 559 
Q 2875 256 2569 96 
Q 2263 -63 1825 -63 
Q 1275 -63 922 217 
Q 569 497 400 1023 
Q 231 1550 231 2284 
Q 231 3025 386 3551 
Q 541 4078 891 4359 
Q 1241 4641 1825 4641 
Q 2372 4641 2726 4361 
Q 3081 4081 3253 3554 
Q 3425 3028 3425 2284 
z
M 1191 2284 
Q 1191 1763 1248 1414 
Q 1306 1066 1443 891 
Q 1581 716 1825 716 
Q 2066 716 2205 889 
Q 2344 1063 2403 1411 
Q 2463 1759 2463 2284 
Q 2463 2806 2403 3156 
Q 2344 3506 2205 3682 
Q 2066 3859 1825 3859 
Q 1581 3859 1443 3682 
Q 1306 3506 1248 3156 
Q 1191 2806 1191 2284 
z
" transform="scale(0.015625)"/>
        <path id="OpenSans-Bold-31" d="M 2644 0 
L 1678 0 
L 1678 2644 
Q 1678 2753 1681 2914 
Q 1684 3075 1690 3245 
Q 1697 3416 1703 3553 
Q 1669 3513 1564 3414 
Q 1459 3316 1369 3238 
L 844 2816 
L 378 3397 
L 1850 4569 
L 2644 4569 
L 2644 0 
z
" transform="scale(0.015625)"/>
       </defs>
       <use xlink:href="#OpenSans-Bold-32"/>
       <use xlink:href="#OpenSans-Bold-30" x="57.177734"/>
       <use xlink:href="#OpenSans-Bold-31" x="114.355469"/>
       <use xlink:href="#OpenSans-Bold-31" x="171.533203"/>
      </g>
     </g>
    </g>
    <g id="xtick_2">
     <g id="line2d_2">
      <g>
       <use xlink:href="#m1fbc83478a" x="100.039" y="236.792" style="fill: #37539c; stroke: #37539c; stroke-width: 0.8"/>
      </g>
     </g>
     <g id="text_2">
      <!-- 2015 -->
      <g style="fill: #37539c" transform="translate(88.604625 251.390438) scale(0.1 -0.1)">
       <defs>
        <path id="OpenSans-Bold-35" d="M 1919 2919 
Q 2338 2919 2664 2759 
Q 2991 2600 3178 2290 
Q 3366 1981 3366 1528 
Q 3366 1034 3161 676 
Q 2956 319 2551 128 
Q 2147 -63 1544 -63 
Q 1184 -63 867 -2 
Q 550 59 313 184 
L 313 1019 
Q 550 894 883 808 
Q 1216 722 1509 722 
Q 1797 722 1994 798 
Q 2191 875 2292 1036 
Q 2394 1197 2394 1447 
Q 2394 1781 2169 1959 
Q 1944 2138 1478 2138 
Q 1300 2138 1108 2103 
Q 916 2069 788 2034 
L 403 2241 
L 575 4569 
L 3053 4569 
L 3053 3750 
L 1422 3750 
L 1338 2853 
Q 1444 2875 1569 2897 
Q 1694 2919 1919 2919 
z
" transform="scale(0.015625)"/>
       </defs>
       <use xlink:href="#OpenSans-Bold-32"/>
       <use xlink:href="#OpenSans-Bold-30" x="57.177734"/>
       <use xlink:href="#OpenSans-Bold-31" x="114.355469"/>
       <use xlink:href="#OpenSans-Bold-35" x="171.533203"/>
      </g>
      <!-- Latinoamérica y -->
      <g style="fill: #37539c" transform="translate(59.700719 262.986688) scale(0.1 -0.1)">
       <defs>
        <path id="OpenSans-Bold-4c" d="M 575 0 
L 575 4569 
L 1544 4569 
L 1544 800 
L 3397 800 
L 3397 0 
L 575 0 
z
" transform="scale(0.015625)"/>
        <path id="OpenSans-Bold-61" d="M 1931 3566 
Q 2634 3566 3009 3259 
Q 3384 2953 3384 2328 
L 3384 0 
L 2719 0 
L 2534 475 
L 2509 475 
Q 2359 288 2203 169 
Q 2047 50 1844 -6 
Q 1641 -63 1350 -63 
Q 1041 -63 795 56 
Q 550 175 409 420 
Q 269 666 269 1044 
Q 269 1600 659 1864 
Q 1050 2128 1831 2156 
L 2438 2175 
L 2438 2328 
Q 2438 2603 2294 2731 
Q 2150 2859 1894 2859 
Q 1641 2859 1397 2787 
Q 1153 2716 909 2606 
L 594 3250 
Q 872 3397 1217 3481 
Q 1563 3566 1931 3566 
z
M 2438 1619 
L 2069 1606 
Q 1606 1594 1426 1441 
Q 1247 1288 1247 1038 
Q 1247 819 1375 726 
Q 1503 634 1709 634 
Q 2016 634 2227 815 
Q 2438 997 2438 1331 
L 2438 1619 
z
" transform="scale(0.015625)"/>
        <path id="OpenSans-Bold-74" d="M 1972 697 
Q 2128 697 2276 728 
Q 2425 759 2572 806 
L 2572 97 
Q 2419 28 2192 -17 
Q 1966 -63 1697 -63 
Q 1384 -63 1136 39 
Q 888 141 745 392 
Q 603 644 603 1094 
L 603 2778 
L 147 2778 
L 147 3181 
L 672 3500 
L 947 4238 
L 1556 4238 
L 1556 3494 
L 2534 3494 
L 2534 2778 
L 1556 2778 
L 1556 1094 
Q 1556 894 1670 795 
Q 1784 697 1972 697 
z
" transform="scale(0.015625)"/>
        <path id="OpenSans-Bold-69" d="M 1453 3494 
L 1453 0 
L 500 0 
L 500 3494 
L 1453 3494 
z
M 978 4863 
Q 1191 4863 1344 4764 
Q 1497 4666 1497 4397 
Q 1497 4131 1344 4029 
Q 1191 3928 978 3928 
Q 763 3928 611 4029 
Q 459 4131 459 4397 
Q 459 4666 611 4764 
Q 763 4863 978 4863 
z
" transform="scale(0.015625)"/>
        <path id="OpenSans-Bold-6e" d="M 2484 3559 
Q 3044 3559 3384 3254 
Q 3725 2950 3725 2278 
L 3725 0 
L 2772 0 
L 2772 2041 
Q 2772 2416 2636 2606 
Q 2500 2797 2209 2797 
Q 1772 2797 1612 2500 
Q 1453 2203 1453 1644 
L 1453 0 
L 500 0 
L 500 3494 
L 1228 3494 
L 1356 3047 
L 1409 3047 
Q 1522 3228 1689 3340 
Q 1856 3453 2061 3506 
Q 2266 3559 2484 3559 
z
" transform="scale(0.015625)"/>
        <path id="OpenSans-Bold-6f" d="M 3675 1753 
Q 3675 1316 3558 978 
Q 3441 641 3217 408 
Q 2994 175 2680 56 
Q 2366 -63 1972 -63 
Q 1603 -63 1295 56 
Q 988 175 761 408 
Q 534 641 411 978 
Q 288 1316 288 1753 
Q 288 2334 494 2737 
Q 700 3141 1081 3350 
Q 1463 3559 1991 3559 
Q 2481 3559 2861 3350 
Q 3241 3141 3458 2737 
Q 3675 2334 3675 1753 
z
M 1259 1753 
Q 1259 1409 1334 1175 
Q 1409 941 1568 822 
Q 1728 703 1984 703 
Q 2238 703 2395 822 
Q 2553 941 2626 1175 
Q 2700 1409 2700 1753 
Q 2700 2100 2626 2329 
Q 2553 2559 2393 2675 
Q 2234 2791 1978 2791 
Q 1600 2791 1429 2531 
Q 1259 2272 1259 1753 
z
" transform="scale(0.015625)"/>
        <path id="OpenSans-Bold-6d" d="M 4603 3559 
Q 5197 3559 5501 3254 
Q 5806 2950 5806 2278 
L 5806 0 
L 4850 0 
L 4850 2041 
Q 4850 2416 4722 2606 
Q 4594 2797 4325 2797 
Q 3947 2797 3787 2526 
Q 3628 2256 3628 1753 
L 3628 0 
L 2675 0 
L 2675 2041 
Q 2675 2291 2619 2459 
Q 2563 2628 2447 2712 
Q 2331 2797 2150 2797 
Q 1884 2797 1732 2664 
Q 1581 2531 1517 2273 
Q 1453 2016 1453 1644 
L 1453 0 
L 500 0 
L 500 3494 
L 1228 3494 
L 1356 3047 
L 1409 3047 
Q 1516 3228 1677 3340 
Q 1838 3453 2031 3506 
Q 2225 3559 2425 3559 
Q 2809 3559 3076 3434 
Q 3344 3309 3488 3047 
L 3572 3047 
Q 3728 3316 4014 3437 
Q 4300 3559 4603 3559 
z
" transform="scale(0.015625)"/>
        <path id="OpenSans-Bold-e9" d="M 1941 3559 
Q 2425 3559 2775 3373 
Q 3125 3188 3315 2834 
Q 3506 2481 3506 1972 
L 3506 1509 
L 1253 1509 
Q 1269 1106 1495 876 
Q 1722 647 2125 647 
Q 2459 647 2737 715 
Q 3016 784 3309 922 
L 3309 184 
Q 3050 56 2767 -3 
Q 2484 -63 2081 -63 
Q 1556 -63 1151 131 
Q 747 325 517 722 
Q 288 1119 288 1722 
Q 288 2334 495 2742 
Q 703 3150 1075 3354 
Q 1447 3559 1941 3559 
z
M 1947 2881 
Q 1669 2881 1486 2703 
Q 1303 2525 1275 2144 
L 2613 2144 
Q 2609 2356 2536 2522 
Q 2463 2688 2317 2784 
Q 2172 2881 1947 2881 
z
M 3123 4903 
L 3123 4838 
Q 3033 4750 2886 4622 
Q 2739 4494 2570 4355 
Q 2402 4216 2239 4089 
Q 2077 3963 1955 3878 
L 1320 3878 
L 1320 3963 
Q 1423 4081 1559 4245 
Q 1695 4409 1829 4584 
Q 1964 4759 2055 4903 
L 3123 4903 
z
" transform="scale(0.015625)"/>
        <path id="OpenSans-Bold-72" d="M 2450 3559 
Q 2522 3559 2617 3551 
Q 2713 3544 2772 3531 
L 2700 2638 
Q 2653 2653 2567 2661 
Q 2481 2669 2419 2669 
Q 2234 2669 2061 2622 
Q 1888 2575 1750 2470 
Q 1613 2366 1533 2195 
Q 1453 2025 1453 1778 
L 1453 0 
L 500 0 
L 500 3494 
L 1222 3494 
L 1363 2906 
L 1409 2906 
Q 1513 3084 1667 3232 
Q 1822 3381 2020 3470 
Q 2219 3559 2450 3559 
z
" transform="scale(0.015625)"/>
        <path id="OpenSans-Bold-63" d="M 1919 -63 
Q 1400 -63 1034 126 
Q 669 316 478 712 
Q 288 1109 288 1728 
Q 288 2369 505 2773 
Q 722 3178 1108 3368 
Q 1494 3559 2003 3559 
Q 2366 3559 2630 3489 
Q 2894 3419 3091 3322 
L 2809 2584 
Q 2584 2675 2390 2733 
Q 2197 2791 2003 2791 
Q 1753 2791 1587 2673 
Q 1422 2556 1340 2322 
Q 1259 2088 1259 1734 
Q 1259 1388 1346 1159 
Q 1434 931 1600 820 
Q 1766 709 2003 709 
Q 2300 709 2531 789 
Q 2763 869 2981 1013 
L 2981 197 
Q 2763 59 2523 -2 
Q 2284 -63 1919 -63 
z
" transform="scale(0.015625)"/>
        <path id="OpenSans-Bold-20" transform="scale(0.015625)"/>
        <path id="OpenSans-Bold-79" d="M 0 3494 
L 1044 3494 
L 1703 1528 
Q 1734 1434 1756 1337 
Q 1778 1241 1793 1137 
Q 1809 1034 1819 922 
L 1838 922 
Q 1856 1091 1889 1237 
Q 1922 1384 1972 1528 
L 2619 3494 
L 3641 3494 
L 2163 -447 
Q 2028 -809 1812 -1051 
Q 1597 -1294 1317 -1416 
Q 1038 -1538 703 -1538 
Q 541 -1538 422 -1520 
Q 303 -1503 219 -1484 
L 219 -728 
Q 284 -744 384 -756 
Q 484 -769 594 -769 
Q 794 -769 937 -684 
Q 1081 -600 1178 -458 
Q 1275 -316 1331 -147 
L 1388 25 
L 0 3494 
z
" transform="scale(0.015625)"/>
       </defs>
       <use xlink:href="#OpenSans-Bold-4c"/>
       <use xlink:href="#OpenSans-Bold-61" x="56.494141"/>
       <use xlink:href="#OpenSans-Bold-74" x="116.894531"/>
       <use xlink:href="#OpenSans-Bold-69" x="160.302734"/>
       <use xlink:href="#OpenSans-Bold-6e" x="190.820312"/>
       <use xlink:href="#OpenSans-Bold-6f" x="256.542969"/>
       <use xlink:href="#OpenSans-Bold-61" x="318.457031"/>
       <use xlink:href="#OpenSans-Bold-6d" x="378.857422"/>
       <use xlink:href="#OpenSans-Bold-e9" x="477.050781"/>
       <use xlink:href="#OpenSans-Bold-72" x="536.132812"/>
       <use xlink:href="#OpenSans-Bold-69" x="581.542969"/>
       <use xlink:href="#OpenSans-Bold-63" x="612.060547"/>
       <use xlink:href="#OpenSans-Bold-61" x="663.476562"/>
       <use xlink:href="#OpenSans-Bold-20" x="723.876953"/>
       <use xlink:href="#OpenSans-Bold-79" x="749.853516"/>
      </g>
      <!-- el Caribe -->
      <g style="fill: #37539c" transform="translate(78.139781 274.507938) scale(0.1 -0.1)">
       <defs>
        <path id="OpenSans-Bold-65" d="M 1941 3559 
Q 2425 3559 2775 3373 
Q 3125 3188 3315 2834 
Q 3506 2481 3506 1972 
L 3506 1509 
L 1253 1509 
Q 1269 1106 1495 876 
Q 1722 647 2125 647 
Q 2459 647 2737 715 
Q 3016 784 3309 922 
L 3309 184 
Q 3050 56 2767 -3 
Q 2484 -63 2081 -63 
Q 1556 -63 1151 131 
Q 747 325 517 722 
Q 288 1119 288 1722 
Q 288 2334 495 2742 
Q 703 3150 1075 3354 
Q 1447 3559 1941 3559 
z
M 1947 2881 
Q 1669 2881 1486 2703 
Q 1303 2525 1275 2144 
L 2613 2144 
Q 2609 2356 2536 2522 
Q 2463 2688 2317 2784 
Q 2172 2881 1947 2881 
z
" transform="scale(0.015625)"/>
        <path id="OpenSans-Bold-6c" d="M 1453 0 
L 500 0 
L 500 4863 
L 1453 4863 
L 1453 0 
z
" transform="scale(0.015625)"/>
        <path id="OpenSans-Bold-43" d="M 2516 3828 
Q 2238 3828 2023 3720 
Q 1809 3613 1664 3409 
Q 1519 3206 1444 2918 
Q 1369 2631 1369 2272 
Q 1369 1788 1489 1445 
Q 1609 1103 1862 923 
Q 2116 744 2516 744 
Q 2794 744 3073 806 
Q 3353 869 3681 984 
L 3681 172 
Q 3378 47 3084 -8 
Q 2791 -63 2425 -63 
Q 1719 -63 1264 229 
Q 809 522 590 1048 
Q 372 1575 372 2278 
Q 372 2797 512 3228 
Q 653 3659 925 3975 
Q 1197 4291 1597 4462 
Q 1997 4634 2516 4634 
Q 2856 4634 3198 4548 
Q 3541 4463 3853 4313 
L 3541 3525 
Q 3284 3647 3025 3737 
Q 2766 3828 2516 3828 
z
" transform="scale(0.015625)"/>
        <path id="OpenSans-Bold-62" d="M 1453 4863 
L 1453 3731 
Q 1453 3534 1442 3340 
Q 1431 3147 1416 3041 
L 1453 3041 
Q 1591 3256 1828 3407 
Q 2066 3559 2444 3559 
Q 3031 3559 3397 3100 
Q 3763 2641 3763 1753 
Q 3763 1156 3594 751 
Q 3425 347 3122 142 
Q 2819 -63 2419 -63 
Q 2034 -63 1812 75 
Q 1591 213 1453 384 
L 1388 384 
L 1228 0 
L 500 0 
L 500 4863 
L 1453 4863 
z
M 2138 2797 
Q 1888 2797 1741 2694 
Q 1594 2591 1526 2384 
Q 1459 2178 1453 1863 
L 1453 1759 
Q 1453 1250 1603 979 
Q 1753 709 2150 709 
Q 2444 709 2617 981 
Q 2791 1253 2791 1766 
Q 2791 2278 2616 2537 
Q 2441 2797 2138 2797 
z
" transform="scale(0.015625)"/>
       </defs>
       <use xlink:href="#OpenSans-Bold-65"/>
       <use xlink:href="#OpenSans-Bold-6c" x="59.082031"/>
       <use xlink:href="#OpenSans-Bold-20" x="89.599609"/>
       <use xlink:href="#OpenSans-Bold-43" x="115.576172"/>
       <use xlink:href="#OpenSans-Bold-61" x="179.296875"/>
       <use xlink:href="#OpenSans-Bold-72" x="239.697266"/>
       <use xlink:href="#OpenSans-Bold-69" x="285.107422"/>
       <use xlink:href="#OpenSans-Bold-62" x="315.625"/>
       <use xlink:href="#OpenSans-Bold-65" x="378.90625"/>
      </g>
     </g>
    </g>
    <g id="xtick_3">
     <g id="line2d_3">
      <g>
       <use xlink:href="#m1fbc83478a" x="134.018333" y="236.792" style="fill: #37539c; stroke: #37539c; stroke-width: 0.8"/>
      </g>
     </g>
     <g id="text_3">
      <!-- 2020 -->
      <g style="fill: #37539c" transform="translate(122.583958 251.390438) scale(0.1 -0.1)">
       <use xlink:href="#OpenSans-Bold-32"/>
       <use xlink:href="#OpenSans-Bold-30" x="57.177734"/>
       <use xlink:href="#OpenSans-Bold-32" x="114.355469"/>
       <use xlink:href="#OpenSans-Bold-30" x="171.533203"/>
      </g>
     </g>
    </g>
    <g id="xtick_4">
     <g id="line2d_4">
      <g>
       <use xlink:href="#m1fbc83478a" x="167.997667" y="236.792" style="fill: #37539c; stroke: #37539c; stroke-width: 0.8"/>
      </g>
     </g>
     <g id="text_4">
      <!-- 2011 -->
      <g style="fill: #37539c" transform="translate(156.563292 251.390438) scale(0.1 -0.1)">
       <use xlink:href="#OpenSans-Bold-32"/>
       <use xlink:href="#OpenSans-Bold-30" x="57.177734"/>
       <use xlink:href="#OpenSans-Bold-31" x="114.355469"/>
       <use xlink:href="#OpenSans-Bold-31" x="171.533203"/>
      </g>
     </g>
    </g>
    <g id="xtick_5">
     <g id="line2d_5">
      <g>
       <use xlink:href="#m1fbc83478a" x="201.977" y="236.792" style="fill: #37539c; stroke: #37539c; stroke-width: 0.8"/>
      </g>
     </g>
     <g id="text_5">
      <!-- 2015 -->
      <g style="fill: #37539c" transform="translate(190.542625 251.390438) scale(0.1 -0.1)">
       <use xlink:href="#OpenSans-Bold-32"/>
       <use xlink:href="#OpenSans-Bold-30" x="57.177734"/>
       <use xlink:href="#OpenSans-Bold-31" x="114.355469"/>
       <use xlink:href="#OpenSans-Bold-35" x="171.533203"/>
      </g>
      <!-- Unión Europea -->
      <g style="fill: #37539c" transform="translate(165.113719 262.986688) scale(0.1 -0.1)">
       <defs>
        <path id="OpenSans-Bold-55" d="M 4294 4569 
L 4294 1613 
Q 4294 1141 4086 761 
Q 3878 381 3458 159 
Q 3038 -63 2400 -63 
Q 1494 -63 1019 400 
Q 544 863 544 1625 
L 544 4569 
L 1509 4569 
L 1509 1772 
Q 1509 1206 1740 978 
Q 1972 750 2425 750 
Q 2744 750 2942 859 
Q 3141 969 3234 1197 
Q 3328 1425 3328 1778 
L 3328 4569 
L 4294 4569 
z
" transform="scale(0.015625)"/>
        <path id="OpenSans-Bold-f3" d="M 3675 1753 
Q 3675 1316 3558 978 
Q 3441 641 3217 408 
Q 2994 175 2680 56 
Q 2366 -63 1972 -63 
Q 1603 -63 1295 56 
Q 988 175 761 408 
Q 534 641 411 978 
Q 288 1316 288 1753 
Q 288 2334 494 2737 
Q 700 3141 1081 3350 
Q 1463 3559 1991 3559 
Q 2481 3559 2861 3350 
Q 3241 3141 3458 2737 
Q 3675 2334 3675 1753 
z
M 1259 1753 
Q 1259 1409 1334 1175 
Q 1409 941 1568 822 
Q 1728 703 1984 703 
Q 2238 703 2395 822 
Q 2553 941 2626 1175 
Q 2700 1409 2700 1753 
Q 2700 2100 2626 2329 
Q 2553 2559 2393 2675 
Q 2234 2791 1978 2791 
Q 1600 2791 1429 2531 
Q 1259 2272 1259 1753 
z
M 3211 4903 
L 3211 4838 
Q 3121 4750 2974 4622 
Q 2827 4494 2658 4355 
Q 2490 4216 2327 4089 
Q 2165 3963 2043 3878 
L 1408 3878 
L 1408 3963 
Q 1511 4081 1647 4245 
Q 1783 4409 1917 4584 
Q 2052 4759 2143 4903 
L 3211 4903 
z
" transform="scale(0.015625)"/>
        <path id="OpenSans-Bold-45" d="M 3206 0 
L 575 0 
L 575 4569 
L 3206 4569 
L 3206 3775 
L 1544 3775 
L 1544 2772 
L 3091 2772 
L 3091 1978 
L 1544 1978 
L 1544 800 
L 3206 800 
L 3206 0 
z
" transform="scale(0.015625)"/>
        <path id="OpenSans-Bold-75" d="M 3706 3494 
L 3706 0 
L 2975 0 
L 2847 447 
L 2797 447 
Q 2684 269 2515 156 
Q 2347 44 2144 -9 
Q 1941 -63 1722 -63 
Q 1347 -63 1069 70 
Q 791 203 636 484 
Q 481 766 481 1216 
L 481 3494 
L 1434 3494 
L 1434 1453 
Q 1434 1078 1568 887 
Q 1703 697 1997 697 
Q 2288 697 2453 830 
Q 2619 963 2686 1220 
Q 2753 1478 2753 1850 
L 2753 3494 
L 3706 3494 
z
" transform="scale(0.015625)"/>
        <path id="OpenSans-Bold-70" d="M 2444 3559 
Q 3034 3559 3398 3100 
Q 3763 2641 3763 1753 
Q 3763 1159 3591 754 
Q 3419 350 3116 143 
Q 2813 -63 2419 -63 
Q 2166 -63 1984 1 
Q 1803 66 1675 167 
Q 1547 269 1453 384 
L 1403 384 
Q 1428 259 1440 128 
Q 1453 -3 1453 -128 
L 1453 -1538 
L 500 -1538 
L 500 3494 
L 1275 3494 
L 1409 3041 
L 1453 3041 
Q 1547 3181 1681 3300 
Q 1816 3419 2005 3489 
Q 2194 3559 2444 3559 
z
M 2138 2797 
Q 1888 2797 1741 2694 
Q 1594 2591 1526 2384 
Q 1459 2178 1453 1863 
L 1453 1759 
Q 1453 1422 1517 1187 
Q 1581 953 1732 831 
Q 1884 709 2150 709 
Q 2369 709 2509 831 
Q 2650 953 2720 1189 
Q 2791 1425 2791 1766 
Q 2791 2278 2631 2537 
Q 2472 2797 2138 2797 
z
" transform="scale(0.015625)"/>
       </defs>
       <use xlink:href="#OpenSans-Bold-55"/>
       <use xlink:href="#OpenSans-Bold-6e" x="75.585938"/>
       <use xlink:href="#OpenSans-Bold-69" x="141.308594"/>
       <use xlink:href="#OpenSans-Bold-f3" x="171.826172"/>
       <use xlink:href="#OpenSans-Bold-6e" x="233.740234"/>
       <use xlink:href="#OpenSans-Bold-20" x="299.462891"/>
       <use xlink:href="#OpenSans-Bold-45" x="325.439453"/>
       <use xlink:href="#OpenSans-Bold-75" x="381.445312"/>
       <use xlink:href="#OpenSans-Bold-72" x="447.167969"/>
       <use xlink:href="#OpenSans-Bold-6f" x="492.578125"/>
       <use xlink:href="#OpenSans-Bold-70" x="554.492188"/>
       <use xlink:href="#OpenSans-Bold-65" x="617.773438"/>
       <use xlink:href="#OpenSans-Bold-61" x="676.855469"/>
      </g>
     </g>
    </g>
    <g id="xtick_6">
     <g id="line2d_6">
      <g>
       <use xlink:href="#m1fbc83478a" x="235.956333" y="236.792" style="fill: #37539c; stroke: #37539c; stroke-width: 0.8"/>
      </g>
     </g>
     <g id="text_6">
      <!-- 2020 -->
      <g style="fill: #37539c" transform="translate(224.521958 251.390438) scale(0.1 -0.1)">
       <use xlink:href="#OpenSans-Bold-32"/>
       <use xlink:href="#OpenSans-Bold-30" x="57.177734"/>
       <use xlink:href="#OpenSans-Bold-32" x="114.355469"/>
       <use xlink:href="#OpenSans-Bold-30" x="171.533203"/>
      </g>
     </g>
    </g>
    <g id="xtick_7">
     <g id="line2d_7">
      <g>
       <use xlink:href="#m1fbc83478a" x="269.935667" y="236.792" style="fill: #37539c; stroke: #37539c; stroke-width: 0.8"/>
      </g>
     </g>
     <g id="text_7">
      <!-- 2011 -->
      <g style="fill: #37539c" transform="translate(258.501292 251.390438) scale(0.1 -0.1)">
       <use xlink:href="#OpenSans-Bold-32"/>
       <use xlink:href="#OpenSans-Bold-30" x="57.177734"/>
       <use xlink:href="#OpenSans-Bold-31" x="114.355469"/>
       <use xlink:href="#OpenSans-Bold-31" x="171.533203"/>
      </g>
     </g>
    </g>
    <g id="xtick_8">
     <g id="line2d_8">
      <g>
       <use xlink:href="#m1fbc83478a" x="303.915" y="236.792" style="fill: #37539c; stroke: #37539c; stroke-width: 0.8"/>
      </g>
     </g>
     <g id="text_8">
      <!-- 2015 -->
      <g style="fill: #37539c" transform="translate(292.480625 251.390438) scale(0.1 -0.1)">
       <use xlink:href="#OpenSans-Bold-32"/>
       <use xlink:href="#OpenSans-Bold-30" x="57.177734"/>
       <use xlink:href="#OpenSans-Bold-31" x="114.355469"/>
       <use xlink:href="#OpenSans-Bold-35" x="171.533203"/>
      </g>
      <!-- China -->
      <g style="fill: #37539c" transform="translate(289.611094 262.911687) scale(0.1 -0.1)">
       <defs>
        <path id="OpenSans-Bold-68" d="M 1453 4863 
L 1453 3872 
Q 1453 3613 1436 3378 
Q 1419 3144 1409 3047 
L 1459 3047 
Q 1572 3228 1726 3340 
Q 1881 3453 2068 3506 
Q 2256 3559 2472 3559 
Q 2850 3559 3131 3426 
Q 3413 3294 3569 3011 
Q 3725 2728 3725 2278 
L 3725 0 
L 2772 0 
L 2772 2041 
Q 2772 2416 2634 2606 
Q 2497 2797 2209 2797 
Q 1922 2797 1756 2664 
Q 1591 2531 1522 2273 
Q 1453 2016 1453 1644 
L 1453 0 
L 500 0 
L 500 4863 
L 1453 4863 
z
" transform="scale(0.015625)"/>
       </defs>
       <use xlink:href="#OpenSans-Bold-43"/>
       <use xlink:href="#OpenSans-Bold-68" x="63.720703"/>
       <use xlink:href="#OpenSans-Bold-69" x="129.443359"/>
       <use xlink:href="#OpenSans-Bold-6e" x="159.960938"/>
       <use xlink:href="#OpenSans-Bold-61" x="225.683594"/>
      </g>
     </g>
    </g>
    <g id="xtick_9">
     <g id="line2d_9">
      <g>
       <use xlink:href="#m1fbc83478a" x="337.894333" y="236.792" style="fill: #37539c; stroke: #37539c; stroke-width: 0.8"/>
      </g>
     </g>
     <g id="text_9">
      <!-- 2020 -->
      <g style="fill: #37539c" transform="translate(326.459958 251.390438) scale(0.1 -0.1)">
       <use xlink:href="#OpenSans-Bold-32"/>
       <use xlink:href="#OpenSans-Bold-30" x="57.177734"/>
       <use xlink:href="#OpenSans-Bold-32" x="114.355469"/>
       <use xlink:href="#OpenSans-Bold-30" x="171.533203"/>
      </g>
     </g>
    </g>
    <g id="xtick_10">
     <g id="line2d_10">
      <g>
       <use xlink:href="#m1fbc83478a" x="371.873667" y="236.792" style="fill: #37539c; stroke: #37539c; stroke-width: 0.8"/>
      </g>
     </g>
     <g id="text_10">
      <!-- 2011 -->
      <g style="fill: #37539c" transform="translate(360.439292 251.390438) scale(0.1 -0.1)">
       <use xlink:href="#OpenSans-Bold-32"/>
       <use xlink:href="#OpenSans-Bold-30" x="57.177734"/>
       <use xlink:href="#OpenSans-Bold-31" x="114.355469"/>
       <use xlink:href="#OpenSans-Bold-31" x="171.533203"/>
      </g>
     </g>
    </g>
    <g id="xtick_11">
     <g id="line2d_11">
      <g>
       <use xlink:href="#m1fbc83478a" x="405.853" y="236.792" style="fill: #37539c; stroke: #37539c; stroke-width: 0.8"/>
      </g>
     </g>
     <g id="text_11">
      <!-- 2015 -->
      <g style="fill: #37539c" transform="translate(394.418625 251.390438) scale(0.1 -0.1)">
       <use xlink:href="#OpenSans-Bold-32"/>
       <use xlink:href="#OpenSans-Bold-30" x="57.177734"/>
       <use xlink:href="#OpenSans-Bold-31" x="114.355469"/>
       <use xlink:href="#OpenSans-Bold-35" x="171.533203"/>
      </g>
      <!-- Estados Unidos -->
      <g style="fill: #37539c" transform="translate(367.995969 262.911687) scale(0.1 -0.1)">
       <defs>
        <path id="OpenSans-Bold-73" d="M 2938 1038 
Q 2938 681 2770 436 
Q 2603 191 2272 64 
Q 1941 -63 1447 -63 
Q 1081 -63 820 -16 
Q 559 31 294 141 
L 294 928 
Q 578 800 904 717 
Q 1231 634 1478 634 
Q 1756 634 1876 717 
Q 1997 800 1997 934 
Q 1997 1022 1948 1092 
Q 1900 1163 1740 1252 
Q 1581 1341 1241 1484 
Q 913 1622 702 1762 
Q 491 1903 389 2095 
Q 288 2288 288 2584 
Q 288 3069 664 3314 
Q 1041 3559 1672 3559 
Q 1997 3559 2292 3493 
Q 2588 3428 2900 3284 
L 2613 2597 
Q 2353 2709 2123 2781 
Q 1894 2853 1656 2853 
Q 1447 2853 1340 2797 
Q 1234 2741 1234 2625 
Q 1234 2541 1289 2475 
Q 1344 2409 1501 2329 
Q 1659 2250 1966 2125 
Q 2263 2003 2481 1870 
Q 2700 1738 2819 1542 
Q 2938 1347 2938 1038 
z
" transform="scale(0.015625)"/>
        <path id="OpenSans-Bold-64" d="M 1606 -63 
Q 1022 -63 655 395 
Q 288 853 288 1741 
Q 288 2638 659 3098 
Q 1031 3559 1631 3559 
Q 1881 3559 2072 3490 
Q 2263 3422 2402 3306 
Q 2541 3191 2638 3047 
L 2669 3047 
Q 2650 3147 2623 3342 
Q 2597 3538 2597 3744 
L 2597 4863 
L 3553 4863 
L 3553 0 
L 2822 0 
L 2638 453 
L 2597 453 
Q 2506 309 2370 192 
Q 2234 75 2046 6 
Q 1859 -63 1606 -63 
z
M 1941 697 
Q 2331 697 2492 930 
Q 2653 1163 2663 1631 
L 2663 1734 
Q 2663 2244 2506 2514 
Q 2350 2784 1925 2784 
Q 1609 2784 1431 2512 
Q 1253 2241 1253 1728 
Q 1253 1216 1433 956 
Q 1613 697 1941 697 
z
" transform="scale(0.015625)"/>
       </defs>
       <use xlink:href="#OpenSans-Bold-45"/>
       <use xlink:href="#OpenSans-Bold-73" x="56.005859"/>
       <use xlink:href="#OpenSans-Bold-74" x="105.712891"/>
       <use xlink:href="#OpenSans-Bold-61" x="149.121094"/>
       <use xlink:href="#OpenSans-Bold-64" x="209.521484"/>
       <use xlink:href="#OpenSans-Bold-6f" x="272.802734"/>
       <use xlink:href="#OpenSans-Bold-73" x="334.716797"/>
       <use xlink:href="#OpenSans-Bold-20" x="384.423828"/>
       <use xlink:href="#OpenSans-Bold-55" x="410.400391"/>
       <use xlink:href="#OpenSans-Bold-6e" x="485.986328"/>
       <use xlink:href="#OpenSans-Bold-69" x="551.708984"/>
       <use xlink:href="#OpenSans-Bold-64" x="582.226562"/>
       <use xlink:href="#OpenSans-Bold-6f" x="645.507812"/>
       <use xlink:href="#OpenSans-Bold-73" x="707.421875"/>
      </g>
     </g>
    </g>
    <g id="xtick_12">
     <g id="line2d_12">
      <g>
       <use xlink:href="#m1fbc83478a" x="439.832333" y="236.792" style="fill: #37539c; stroke: #37539c; stroke-width: 0.8"/>
      </g>
     </g>
     <g id="text_12">
      <!-- 2020 -->
      <g style="fill: #37539c" transform="translate(428.397958 251.390438) scale(0.1 -0.1)">
       <use xlink:href="#OpenSans-Bold-32"/>
       <use xlink:href="#OpenSans-Bold-30" x="57.177734"/>
       <use xlink:href="#OpenSans-Bold-32" x="114.355469"/>
       <use xlink:href="#OpenSans-Bold-30" x="171.533203"/>
      </g>
     </g>
    </g>
    <g id="xtick_13">
     <g id="line2d_13">
      <g>
       <use xlink:href="#m1fbc83478a" x="473.811667" y="236.792" style="fill: #37539c; stroke: #37539c; stroke-width: 0.8"/>
      </g>
     </g>
     <g id="text_13">
      <!-- 2011 -->
      <g style="fill: #37539c" transform="translate(462.377292 251.390438) scale(0.1 -0.1)">
       <use xlink:href="#OpenSans-Bold-32"/>
       <use xlink:href="#OpenSans-Bold-30" x="57.177734"/>
       <use xlink:href="#OpenSans-Bold-31" x="114.355469"/>
       <use xlink:href="#OpenSans-Bold-31" x="171.533203"/>
      </g>
     </g>
    </g>
    <g id="xtick_14">
     <g id="line2d_14">
      <g>
       <use xlink:href="#m1fbc83478a" x="507.791" y="236.792" style="fill: #37539c; stroke: #37539c; stroke-width: 0.8"/>
      </g>
     </g>
     <g id="text_14">
      <!-- 2015 -->
      <g style="fill: #37539c" transform="translate(496.356625 251.390438) scale(0.1 -0.1)">
       <use xlink:href="#OpenSans-Bold-32"/>
       <use xlink:href="#OpenSans-Bold-30" x="57.177734"/>
       <use xlink:href="#OpenSans-Bold-31" x="114.355469"/>
       <use xlink:href="#OpenSans-Bold-35" x="171.533203"/>
      </g>
      <!-- OCDE -->
      <g style="fill: #37539c" transform="translate(494.123813 262.911687) scale(0.1 -0.1)">
       <defs>
        <path id="OpenSans-Bold-4f" d="M 4722 2291 
Q 4722 1763 4590 1330 
Q 4459 897 4192 584 
Q 3925 272 3515 104 
Q 3106 -63 2547 -63 
Q 1988 -63 1578 104 
Q 1169 272 901 584 
Q 634 897 503 1331 
Q 372 1766 372 2297 
Q 372 3006 605 3532 
Q 838 4059 1322 4350 
Q 1806 4641 2553 4641 
Q 3297 4641 3776 4350 
Q 4256 4059 4489 3531 
Q 4722 3003 4722 2291 
z
M 1388 2291 
Q 1388 1813 1508 1467 
Q 1628 1122 1884 936 
Q 2141 750 2547 750 
Q 2959 750 3215 936 
Q 3472 1122 3589 1467 
Q 3706 1813 3706 2291 
Q 3706 3009 3437 3421 
Q 3169 3834 2553 3834 
Q 2144 3834 1886 3648 
Q 1628 3463 1508 3117 
Q 1388 2772 1388 2291 
z
" transform="scale(0.015625)"/>
        <path id="OpenSans-Bold-44" d="M 4366 2328 
Q 4366 1556 4070 1039 
Q 3775 522 3215 261 
Q 2656 0 1869 0 
L 575 0 
L 575 4569 
L 2009 4569 
Q 2728 4569 3256 4314 
Q 3784 4059 4075 3561 
Q 4366 3063 4366 2328 
z
M 3359 2303 
Q 3359 2809 3211 3136 
Q 3063 3463 2773 3619 
Q 2484 3775 2059 3775 
L 1544 3775 
L 1544 800 
L 1959 800 
Q 2669 800 3014 1178 
Q 3359 1556 3359 2303 
z
" transform="scale(0.015625)"/>
       </defs>
       <use xlink:href="#OpenSans-Bold-4f"/>
       <use xlink:href="#OpenSans-Bold-43" x="79.589844"/>
       <use xlink:href="#OpenSans-Bold-44" x="143.310547"/>
       <use xlink:href="#OpenSans-Bold-45" x="217.333984"/>
      </g>
     </g>
    </g>
    <g id="xtick_15">
     <g id="line2d_15">
      <g>
       <use xlink:href="#m1fbc83478a" x="541.770333" y="236.792" style="fill: #37539c; stroke: #37539c; stroke-width: 0.8"/>
      </g>
     </g>
     <g id="text_15">
      <!-- 2020 -->
      <g style="fill: #37539c" transform="translate(530.335958 251.390438) scale(0.1 -0.1)">
       <use xlink:href="#OpenSans-Bold-32"/>
       <use xlink:href="#OpenSans-Bold-30" x="57.177734"/>
       <use xlink:href="#OpenSans-Bold-32" x="114.355469"/>
       <use xlink:href="#OpenSans-Bold-30" x="171.533203"/>
      </g>
     </g>
    </g>
   </g>
   <g id="matplotlib.axis_2">
    <g id="ytick_1">
     <g id="line2d_16">
      <path d="M 49.07 236.792 
L 558.76 236.792 
" clip-path="url(#pc584f34733)" style="fill: none; stroke-dasharray: 2.96,1.28; stroke-dashoffset: 0; stroke: #b0b0b0; stroke-width: 0.8"/>
     </g>
     <g id="line2d_17">
      <defs>
       <path id="m275d7f7116" d="M 0 0 
L -3.5 0 
" style="stroke: #37539c; stroke-width: 0.8"/>
      </defs>
      <g>
       <use xlink:href="#m275d7f7116" x="49.07" y="236.792" style="fill: #37539c; stroke: #37539c; stroke-width: 0.8"/>
      </g>
     </g>
     <g id="text_16">
      <!-- 0 -->
      <g style="fill: #37539c" transform="translate(36.352813 240.591219) scale(0.1 -0.1)">
       <use xlink:href="#OpenSans-Bold-30"/>
      </g>
     </g>
    </g>
    <g id="ytick_2">
     <g id="line2d_18">
      <path d="M 49.07 193.745905 
L 558.76 193.745905 
" clip-path="url(#pc584f34733)" style="fill: none; stroke-dasharray: 2.96,1.28; stroke-dashoffset: 0; stroke: #b0b0b0; stroke-width: 0.8"/>
     </g>
     <g id="line2d_19">
      <g>
       <use xlink:href="#m275d7f7116" x="49.07" y="193.745905" style="fill: #37539c; stroke: #37539c; stroke-width: 0.8"/>
      </g>
     </g>
     <g id="text_17">
      <!-- 20 -->
      <g style="fill: #37539c" transform="translate(30.635625 197.545124) scale(0.1 -0.1)">
       <use xlink:href="#OpenSans-Bold-32"/>
       <use xlink:href="#OpenSans-Bold-30" x="57.177734"/>
      </g>
     </g>
    </g>
    <g id="ytick_3">
     <g id="line2d_20">
      <path d="M 49.07 150.69981 
L 558.76 150.69981 
" clip-path="url(#pc584f34733)" style="fill: none; stroke-dasharray: 2.96,1.28; stroke-dashoffset: 0; stroke: #b0b0b0; stroke-width: 0.8"/>
     </g>
     <g id="line2d_21">
      <g>
       <use xlink:href="#m275d7f7116" x="49.07" y="150.69981" style="fill: #37539c; stroke: #37539c; stroke-width: 0.8"/>
      </g>
     </g>
     <g id="text_18">
      <!-- 40 -->
      <g style="fill: #37539c" transform="translate(30.635625 154.499028) scale(0.1 -0.1)">
       <defs>
        <path id="OpenSans-Bold-34" d="M 3553 947 
L 3003 947 
L 3003 0 
L 2059 0 
L 2059 947 
L 109 947 
L 109 1619 
L 2113 4569 
L 3003 4569 
L 3003 1697 
L 3553 1697 
L 3553 947 
z
M 2059 1697 
L 2059 2472 
Q 2059 2581 2064 2731 
Q 2069 2881 2075 3031 
Q 2081 3181 2089 3298 
Q 2097 3416 2100 3463 
L 2075 3463 
Q 2016 3334 1950 3214 
Q 1884 3094 1797 2963 
L 959 1697 
L 2059 1697 
z
" transform="scale(0.015625)"/>
       </defs>
       <use xlink:href="#OpenSans-Bold-34"/>
       <use xlink:href="#OpenSans-Bold-30" x="57.177734"/>
      </g>
     </g>
    </g>
    <g id="ytick_4">
     <g id="line2d_22">
      <path d="M 49.07 107.653714 
L 558.76 107.653714 
" clip-path="url(#pc584f34733)" style="fill: none; stroke-dasharray: 2.96,1.28; stroke-dashoffset: 0; stroke: #b0b0b0; stroke-width: 0.8"/>
     </g>
     <g id="line2d_23">
      <g>
       <use xlink:href="#m275d7f7116" x="49.07" y="107.653714" style="fill: #37539c; stroke: #37539c; stroke-width: 0.8"/>
      </g>
     </g>
     <g id="text_19">
      <!-- 60 -->
      <g style="fill: #37539c" transform="translate(30.635625 111.452933) scale(0.1 -0.1)">
       <defs>
        <path id="OpenSans-Bold-36" d="M 225 1941 
Q 225 2334 283 2720 
Q 341 3106 484 3448 
Q 628 3791 887 4055 
Q 1147 4319 1547 4470 
Q 1947 4622 2516 4622 
Q 2650 4622 2829 4611 
Q 3009 4600 3128 4575 
L 3128 3803 
Q 3003 3831 2861 3848 
Q 2719 3866 2578 3866 
Q 2009 3866 1698 3684 
Q 1388 3503 1261 3183 
Q 1134 2863 1113 2438 
L 1153 2438 
Q 1241 2591 1373 2709 
Q 1506 2828 1697 2898 
Q 1888 2969 2144 2969 
Q 2544 2969 2837 2798 
Q 3131 2628 3290 2306 
Q 3450 1984 3450 1522 
Q 3450 1028 3259 672 
Q 3069 316 2720 126 
Q 2372 -63 1894 -63 
Q 1544 -63 1241 57 
Q 938 178 709 425 
Q 481 672 353 1048 
Q 225 1425 225 1941 
z
M 1875 709 
Q 2159 709 2337 903 
Q 2516 1097 2516 1509 
Q 2516 1844 2361 2036 
Q 2206 2228 1894 2228 
Q 1681 2228 1520 2133 
Q 1359 2038 1271 1892 
Q 1184 1747 1184 1594 
Q 1184 1434 1228 1278 
Q 1272 1122 1359 994 
Q 1447 866 1576 787 
Q 1706 709 1875 709 
z
" transform="scale(0.015625)"/>
       </defs>
       <use xlink:href="#OpenSans-Bold-36"/>
       <use xlink:href="#OpenSans-Bold-30" x="57.177734"/>
      </g>
     </g>
    </g>
    <g id="ytick_5">
     <g id="line2d_24">
      <path d="M 49.07 64.607619 
L 558.76 64.607619 
" clip-path="url(#pc584f34733)" style="fill: none; stroke-dasharray: 2.96,1.28; stroke-dashoffset: 0; stroke: #b0b0b0; stroke-width: 0.8"/>
     </g>
     <g id="line2d_25">
      <g>
       <use xlink:href="#m275d7f7116" x="49.07" y="64.607619" style="fill: #37539c; stroke: #37539c; stroke-width: 0.8"/>
      </g>
     </g>
     <g id="text_20">
      <!-- 80 -->
      <g style="fill: #37539c" transform="translate(30.635625 68.406838) scale(0.1 -0.1)">
       <defs>
        <path id="OpenSans-Bold-38" d="M 1831 4628 
Q 2225 4628 2558 4506 
Q 2891 4384 3091 4139 
Q 3291 3894 3291 3525 
Q 3291 3250 3183 3044 
Q 3075 2838 2890 2683 
Q 2706 2528 2472 2413 
Q 2716 2284 2934 2114 
Q 3153 1944 3292 1716 
Q 3431 1488 3431 1184 
Q 3431 803 3228 523 
Q 3025 244 2665 90 
Q 2306 -63 1831 -63 
Q 1319 -63 959 84 
Q 600 231 412 504 
Q 225 778 225 1159 
Q 225 1472 342 1703 
Q 459 1934 659 2101 
Q 859 2269 1100 2388 
Q 897 2516 730 2678 
Q 563 2841 464 3050 
Q 366 3259 366 3531 
Q 366 3894 570 4137 
Q 775 4381 1109 4504 
Q 1444 4628 1831 4628 
z
M 1119 1216 
Q 1119 969 1295 808 
Q 1472 647 1819 647 
Q 2178 647 2356 801 
Q 2534 956 2534 1209 
Q 2534 1384 2432 1515 
Q 2331 1647 2178 1751 
Q 2025 1856 1869 1947 
L 1784 1991 
Q 1584 1900 1436 1787 
Q 1288 1675 1203 1534 
Q 1119 1394 1119 1216 
z
M 1825 3922 
Q 1588 3922 1431 3800 
Q 1275 3678 1275 3456 
Q 1275 3300 1351 3183 
Q 1428 3066 1554 2978 
Q 1681 2891 1831 2816 
Q 1975 2884 2100 2968 
Q 2225 3053 2303 3172 
Q 2381 3291 2381 3456 
Q 2381 3678 2223 3800 
Q 2066 3922 1825 3922 
z
" transform="scale(0.015625)"/>
       </defs>
       <use xlink:href="#OpenSans-Bold-38"/>
       <use xlink:href="#OpenSans-Bold-30" x="57.177734"/>
      </g>
     </g>
    </g>
    <g id="ytick_6">
     <g id="line2d_26">
      <path d="M 49.07 21.561524 
L 558.76 21.561524 
" clip-path="url(#pc584f34733)" style="fill: none; stroke-dasharray: 2.96,1.28; stroke-dashoffset: 0; stroke: #b0b0b0; stroke-width: 0.8"/>
     </g>
     <g id="line2d_27">
      <g>
       <use xlink:href="#m275d7f7116" x="49.07" y="21.561524" style="fill: #37539c; stroke: #37539c; stroke-width: 0.8"/>
      </g>
     </g>
     <g id="text_21">
      <!-- 100 -->
      <g style="fill: #37539c" transform="translate(24.918438 25.360743) scale(0.1 -0.1)">
       <use xlink:href="#OpenSans-Bold-31"/>
       <use xlink:href="#OpenSans-Bold-30" x="57.177734"/>
       <use xlink:href="#OpenSans-Bold-30" x="114.355469"/>
      </g>
     </g>
    </g>
    <g id="text_22">
     <!-- Porcentaje -->
     <g style="fill: #37539c" transform="translate(18.515313 150.7835) rotate(-90) scale(0.1 -0.1)">
      <defs>
       <path id="OpenSans-Bold-50" d="M 2034 4569 
Q 2919 4569 3325 4189 
Q 3731 3809 3731 3144 
Q 3731 2844 3640 2570 
Q 3550 2297 3345 2084 
Q 3141 1872 2800 1748 
Q 2459 1625 1959 1625 
L 1544 1625 
L 1544 0 
L 575 0 
L 575 4569 
L 2034 4569 
z
M 1984 3775 
L 1544 3775 
L 1544 2419 
L 1863 2419 
Q 2134 2419 2334 2491 
Q 2534 2563 2643 2716 
Q 2753 2869 2753 3109 
Q 2753 3447 2565 3611 
Q 2378 3775 1984 3775 
z
" transform="scale(0.015625)"/>
       <path id="OpenSans-Bold-6a" d="M 219 -1538 
Q 56 -1538 -119 -1514 
Q -294 -1491 -409 -1459 
L -409 -709 
Q -294 -741 -192 -755 
Q -91 -769 38 -769 
Q 231 -769 365 -661 
Q 500 -553 500 -238 
L 500 3494 
L 1453 3494 
L 1453 -378 
Q 1453 -697 1331 -961 
Q 1209 -1225 937 -1381 
Q 666 -1538 219 -1538 
z
M 459 4397 
Q 459 4666 611 4764 
Q 763 4863 978 4863 
Q 1191 4863 1344 4764 
Q 1497 4666 1497 4397 
Q 1497 4131 1344 4029 
Q 1191 3928 978 3928 
Q 763 3928 611 4029 
Q 459 4131 459 4397 
z
" transform="scale(0.015625)"/>
      </defs>
      <use xlink:href="#OpenSans-Bold-50"/>
      <use xlink:href="#OpenSans-Bold-6f" x="62.792969"/>
      <use xlink:href="#OpenSans-Bold-72" x="124.707031"/>
      <use xlink:href="#OpenSans-Bold-63" x="170.117188"/>
      <use xlink:href="#OpenSans-Bold-65" x="221.533203"/>
      <use xlink:href="#OpenSans-Bold-6e" x="280.615234"/>
      <use xlink:href="#OpenSans-Bold-74" x="346.337891"/>
      <use xlink:href="#OpenSans-Bold-61" x="389.746094"/>
      <use xlink:href="#OpenSans-Bold-6a" x="450.146484"/>
      <use xlink:href="#OpenSans-Bold-65" x="480.664062"/>
     </g>
    </g>
   </g>
   <g id="patch_3">
    <path d="M 57.564833 236.792 
L 74.5545 236.792 
L 74.5545 109.806019 
L 57.564833 109.806019 
z
" clip-path="url(#pc584f34733)" style="fill: #37539c"/>
   </g>
   <g id="patch_4">
    <path d="M 91.544167 236.792 
L 108.533833 236.792 
L 108.533833 109.806019 
L 91.544167 109.806019 
z
" clip-path="url(#pc584f34733)" style="fill: #37539c"/>
   </g>
   <g id="patch_5">
    <path d="M 125.5235 236.792 
L 142.513167 236.792 
L 142.513167 116.262933 
L 125.5235 116.262933 
z
" clip-path="url(#pc584f34733)" style="fill: #37539c"/>
   </g>
   <g id="patch_6">
    <path d="M 159.502833 236.792 
L 176.4925 236.792 
L 176.4925 161.461333 
L 159.502833 161.461333 
z
" clip-path="url(#pc584f34733)" style="fill: #37539c"/>
   </g>
   <g id="patch_7">
    <path d="M 193.482167 236.792 
L 210.471833 236.792 
L 210.471833 167.918248 
L 193.482167 167.918248 
z
" clip-path="url(#pc584f34733)" style="fill: #37539c"/>
   </g>
   <g id="patch_8">
    <path d="M 227.4615 236.792 
L 244.451167 236.792 
L 244.451167 170.070552 
L 227.4615 170.070552 
z
" clip-path="url(#pc584f34733)" style="fill: #37539c"/>
   </g>
   <g id="patch_9">
    <path d="M 261.440833 236.792 
L 278.4305 236.792 
L 278.4305 189.441295 
L 261.440833 189.441295 
z
" clip-path="url(#pc584f34733)" style="fill: #37539c"/>
   </g>
   <g id="patch_10">
    <path d="M 295.420167 236.792 
L 312.409833 236.792 
L 312.409833 189.441295 
L 295.420167 189.441295 
z
" clip-path="url(#pc584f34733)" style="fill: #37539c"/>
   </g>
   <g id="patch_11">
    <path d="M 329.3995 236.792 
L 346.389167 236.792 
L 346.389167 193.745905 
L 329.3995 193.745905 
z
" clip-path="url(#pc584f34733)" style="fill: #37539c"/>
   </g>
   <g id="patch_12">
    <path d="M 363.378833 236.792 
L 380.3685 236.792 
L 380.3685 170.070552 
L 363.378833 170.070552 
z
" clip-path="url(#pc584f34733)" style="fill: #37539c"/>
   </g>
   <g id="patch_13">
    <path d="M 397.358167 236.792 
L 414.347833 236.792 
L 414.347833 182.984381 
L 397.358167 182.984381 
z
" clip-path="url(#pc584f34733)" style="fill: #37539c"/>
   </g>
   <g id="patch_14">
    <path d="M 431.3375 236.792 
L 448.327167 236.792 
L 448.327167 191.5936 
L 431.3375 191.5936 
z
" clip-path="url(#pc584f34733)" style="fill: #37539c"/>
   </g>
   <g id="patch_15">
    <path d="M 465.316833 236.792 
L 482.3065 236.792 
L 482.3065 174.375162 
L 465.316833 174.375162 
z
" clip-path="url(#pc584f34733)" style="fill: #37539c"/>
   </g>
   <g id="patch_16">
    <path d="M 499.296167 236.792 
L 516.285833 236.792 
L 516.285833 180.832076 
L 499.296167 180.832076 
z
" clip-path="url(#pc584f34733)" style="fill: #37539c"/>
   </g>
   <g id="patch_17">
    <path d="M 533.2755 236.792 
L 550.265167 236.792 
L 550.265167 185.136686 
L 533.2755 185.136686 
z
" clip-path="url(#pc584f34733)" style="fill: #37539c"/>
   </g>
   <g id="patch_18">
    <path d="M 57.564833 109.806019 
L 74.5545 109.806019 
L 74.5545 32.323048 
L 57.564833 32.323048 
z
" clip-path="url(#pc584f34733)" style="fill: #59c3c3"/>
   </g>
   <g id="patch_19">
    <path d="M 91.544167 109.806019 
L 108.533833 109.806019 
L 108.533833 32.323048 
L 91.544167 32.323048 
z
" clip-path="url(#pc584f34733)" style="fill: #59c3c3"/>
   </g>
   <g id="patch_20">
    <path d="M 125.5235 116.262933 
L 142.513167 116.262933 
L 142.513167 36.627657 
L 125.5235 36.627657 
z
" clip-path="url(#pc584f34733)" style="fill: #59c3c3"/>
   </g>
   <g id="patch_21">
    <path d="M 159.502833 161.461333 
L 176.4925 161.461333 
L 176.4925 43.084571 
L 159.502833 43.084571 
z
" clip-path="url(#pc584f34733)" style="fill: #59c3c3"/>
   </g>
   <g id="patch_22">
    <path d="M 193.482167 167.918248 
L 210.471833 167.918248 
L 210.471833 47.389181 
L 193.482167 47.389181 
z
" clip-path="url(#pc584f34733)" style="fill: #59c3c3"/>
   </g>
   <g id="patch_23">
    <path d="M 227.4615 170.070552 
L 244.451167 170.070552 
L 244.451167 47.389181 
L 227.4615 47.389181 
z
" clip-path="url(#pc584f34733)" style="fill: #59c3c3"/>
   </g>
   <g id="patch_24">
    <path d="M 261.440833 189.441295 
L 278.4305 189.441295 
L 278.4305 23.713829 
L 261.440833 23.713829 
z
" clip-path="url(#pc584f34733)" style="fill: #59c3c3"/>
   </g>
   <g id="patch_25">
    <path d="M 295.420167 189.441295 
L 312.409833 189.441295 
L 312.409833 23.713829 
L 295.420167 23.713829 
z
" clip-path="url(#pc584f34733)" style="fill: #59c3c3"/>
   </g>
   <g id="patch_26">
    <path d="M 329.3995 193.745905 
L 346.389167 193.745905 
L 346.389167 22.637676 
L 329.3995 22.637676 
z
" clip-path="url(#pc584f34733)" style="fill: #59c3c3"/>
   </g>
   <g id="patch_27">
    <path d="M 363.378833 170.070552 
L 380.3685 170.070552 
L 380.3685 43.084571 
L 363.378833 43.084571 
z
" clip-path="url(#pc584f34733)" style="fill: #59c3c3"/>
   </g>
   <g id="patch_28">
    <path d="M 397.358167 182.984381 
L 414.347833 182.984381 
L 414.347833 47.389181 
L 397.358167 47.389181 
z
" clip-path="url(#pc584f34733)" style="fill: #59c3c3"/>
   </g>
   <g id="patch_29">
    <path d="M 431.3375 191.5936 
L 448.327167 191.5936 
L 448.327167 47.389181 
L 431.3375 47.389181 
z
" clip-path="url(#pc584f34733)" style="fill: #59c3c3"/>
   </g>
   <g id="patch_30">
    <path d="M 465.316833 174.375162 
L 482.3065 174.375162 
L 482.3065 45.236876 
L 465.316833 45.236876 
z
" clip-path="url(#pc584f34733)" style="fill: #59c3c3"/>
   </g>
   <g id="patch_31">
    <path d="M 499.296167 180.832076 
L 516.285833 180.832076 
L 516.285833 47.389181 
L 499.296167 47.389181 
z
" clip-path="url(#pc584f34733)" style="fill: #59c3c3"/>
   </g>
   <g id="patch_32">
    <path d="M 533.2755 185.136686 
L 550.265167 185.136686 
L 550.265167 47.389181 
L 533.2755 47.389181 
z
" clip-path="url(#pc584f34733)" style="fill: #59c3c3"/>
   </g>
   <g id="patch_33">
    <path d="M 57.564833 32.323048 
L 74.5545 32.323048 
L 74.5545 23.713829 
L 57.564833 23.713829 
z
" clip-path="url(#pc584f34733)" style="fill: #f45b69"/>
   </g>
   <g id="patch_34">
    <path d="M 91.544167 32.323048 
L 108.533833 32.323048 
L 108.533833 23.713829 
L 91.544167 23.713829 
z
" clip-path="url(#pc584f34733)" style="fill: #f45b69"/>
   </g>
   <g id="patch_35">
    <path d="M 125.5235 36.627657 
L 142.513167 36.627657 
L 142.513167 25.866133 
L 125.5235 25.866133 
z
" clip-path="url(#pc584f34733)" style="fill: #f45b69"/>
   </g>
   <g id="patch_36">
    <path d="M 159.502833 43.084571 
L 176.4925 43.084571 
L 176.4925 40.932267 
L 159.502833 40.932267 
z
" clip-path="url(#pc584f34733)" style="fill: #f45b69"/>
   </g>
   <g id="patch_37">
    <path d="M 193.482167 47.389181 
L 210.471833 47.389181 
L 210.471833 43.084571 
L 193.482167 43.084571 
z
" clip-path="url(#pc584f34733)" style="fill: #f45b69"/>
   </g>
   <g id="patch_38">
    <path d="M 227.4615 47.389181 
L 244.451167 47.389181 
L 244.451167 40.932267 
L 227.4615 40.932267 
z
" clip-path="url(#pc584f34733)" style="fill: #f45b69"/>
   </g>
   <g id="patch_39">
    <path d="M 261.440833 236.792 
L 278.4305 236.792 
L 278.4305 236.792 
L 261.440833 236.792 
z
" clip-path="url(#pc584f34733)" style="fill: #f45b69"/>
   </g>
   <g id="patch_40">
    <path d="M 295.420167 236.792 
L 312.409833 236.792 
L 312.409833 236.792 
L 295.420167 236.792 
z
" clip-path="url(#pc584f34733)" style="fill: #f45b69"/>
   </g>
   <g id="patch_41">
    <path d="M 329.3995 236.792 
L 346.389167 236.792 
L 346.389167 236.792 
L 329.3995 236.792 
z
" clip-path="url(#pc584f34733)" style="fill: #f45b69"/>
   </g>
   <g id="patch_42">
    <path d="M 363.378833 43.084571 
L 380.3685 43.084571 
L 380.3685 28.018438 
L 363.378833 28.018438 
z
" clip-path="url(#pc584f34733)" style="fill: #f45b69"/>
   </g>
   <g id="patch_43">
    <path d="M 397.358167 47.389181 
L 414.347833 47.389181 
L 414.347833 32.323048 
L 397.358167 32.323048 
z
" clip-path="url(#pc584f34733)" style="fill: #f45b69"/>
   </g>
   <g id="patch_44">
    <path d="M 431.3375 47.389181 
L 448.327167 47.389181 
L 448.327167 34.475352 
L 431.3375 34.475352 
z
" clip-path="url(#pc584f34733)" style="fill: #f45b69"/>
   </g>
   <g id="patch_45">
    <path d="M 465.316833 45.236876 
L 482.3065 45.236876 
L 482.3065 32.323048 
L 465.316833 32.323048 
z
" clip-path="url(#pc584f34733)" style="fill: #f45b69"/>
   </g>
   <g id="patch_46">
    <path d="M 499.296167 47.389181 
L 516.285833 47.389181 
L 516.285833 34.475352 
L 499.296167 34.475352 
z
" clip-path="url(#pc584f34733)" style="fill: #f45b69"/>
   </g>
   <g id="patch_47">
    <path d="M 533.2755 47.389181 
L 550.265167 47.389181 
L 550.265167 36.627657 
L 533.2755 36.627657 
z
" clip-path="url(#pc584f34733)" style="fill: #f45b69"/>
   </g>
   <g id="patch_48">
    <path d="M 57.564833 23.713829 
L 74.5545 23.713829 
L 74.5545 21.561524 
L 57.564833 21.561524 
z
" clip-path="url(#pc584f34733)" style="fill: #52489c"/>
   </g>
   <g id="patch_49">
    <path d="M 91.544167 23.713829 
L 108.533833 23.713829 
L 108.533833 21.561524 
L 91.544167 21.561524 
z
" clip-path="url(#pc584f34733)" style="fill: #52489c"/>
   </g>
   <g id="patch_50">
    <path d="M 125.5235 25.866133 
L 142.513167 25.866133 
L 142.513167 21.561524 
L 125.5235 21.561524 
z
" clip-path="url(#pc584f34733)" style="fill: #52489c"/>
   </g>
   <g id="patch_51">
    <path d="M 159.502833 40.932267 
L 176.4925 40.932267 
L 176.4925 21.561524 
L 159.502833 21.561524 
z
" clip-path="url(#pc584f34733)" style="fill: #52489c"/>
   </g>
   <g id="patch_52">
    <path d="M 193.482167 43.084571 
L 210.471833 43.084571 
L 210.471833 21.561524 
L 193.482167 21.561524 
z
" clip-path="url(#pc584f34733)" style="fill: #52489c"/>
   </g>
   <g id="patch_53">
    <path d="M 227.4615 40.932267 
L 244.451167 40.932267 
L 244.451167 21.561524 
L 227.4615 21.561524 
z
" clip-path="url(#pc584f34733)" style="fill: #52489c"/>
   </g>
   <g id="patch_54">
    <path d="M 261.440833 23.713829 
L 278.4305 23.713829 
L 278.4305 21.561524 
L 261.440833 21.561524 
z
" clip-path="url(#pc584f34733)" style="fill: #52489c"/>
   </g>
   <g id="patch_55">
    <path d="M 295.420167 23.713829 
L 312.409833 23.713829 
L 312.409833 21.561524 
L 295.420167 21.561524 
z
" clip-path="url(#pc584f34733)" style="fill: #52489c"/>
   </g>
   <g id="patch_56">
    <path d="M 329.3995 22.637676 
L 346.389167 22.637676 
L 346.389167 21.561524 
L 329.3995 21.561524 
z
" clip-path="url(#pc584f34733)" style="fill: #52489c"/>
   </g>
   <g id="patch_57">
    <path d="M 363.378833 28.018438 
L 380.3685 28.018438 
L 380.3685 21.561524 
L 363.378833 21.561524 
z
" clip-path="url(#pc584f34733)" style="fill: #52489c"/>
   </g>
   <g id="patch_58">
    <path d="M 397.358167 32.323048 
L 414.347833 32.323048 
L 414.347833 21.561524 
L 397.358167 21.561524 
z
" clip-path="url(#pc584f34733)" style="fill: #52489c"/>
   </g>
   <g id="patch_59">
    <path d="M 431.3375 34.475352 
L 448.327167 34.475352 
L 448.327167 21.561524 
L 431.3375 21.561524 
z
" clip-path="url(#pc584f34733)" style="fill: #52489c"/>
   </g>
   <g id="patch_60">
    <path d="M 465.316833 32.323048 
L 482.3065 32.323048 
L 482.3065 21.561524 
L 465.316833 21.561524 
z
" clip-path="url(#pc584f34733)" style="fill: #52489c"/>
   </g>
   <g id="patch_61">
    <path d="M 499.296167 34.475352 
L 516.285833 34.475352 
L 516.285833 21.561524 
L 499.296167 21.561524 
z
" clip-path="url(#pc584f34733)" style="fill: #52489c"/>
   </g>
   <g id="patch_62">
    <path d="M 533.2755 36.627657 
L 550.265167 36.627657 
L 550.265167 21.561524 
L 533.2755 21.561524 
z
" clip-path="url(#pc584f34733)" style="fill: #52489c"/>
   </g>
   <g id="line2d_28">
    <path d="M 151.008 236.792 
L 151.008 10.8 
" clip-path="url(#pc584f34733)" style="fill: none; stroke: #000000; stroke-width: 1.5; stroke-linecap: square"/>
    <defs>
     <path id="m28ead4e82a" d="M 0 0 
L -0.01 0 
" style="stroke: #000000"/>
    </defs>
    <g clip-path="url(#pc584f34733)">
     <use xlink:href="#m28ead4e82a" x="151.008" y="236.792" style="stroke: #000000"/>
     <use xlink:href="#m28ead4e82a" x="151.008" y="10.8" style="stroke: #000000"/>
    </g>
   </g>
   <g id="line2d_29">
    <path d="M 252.946 236.792 
L 252.946 10.8 
" clip-path="url(#pc584f34733)" style="fill: none; stroke: #000000; stroke-width: 1.5; stroke-linecap: square"/>
    <g clip-path="url(#pc584f34733)">
     <use xlink:href="#m28ead4e82a" x="252.946" y="236.792" style="stroke: #000000"/>
     <use xlink:href="#m28ead4e82a" x="252.946" y="10.8" style="stroke: #000000"/>
    </g>
   </g>
   <g id="line2d_30">
    <path d="M 354.884 236.792 
L 354.884 10.8 
" clip-path="url(#pc584f34733)" style="fill: none; stroke: #000000; stroke-width: 1.5; stroke-linecap: square"/>
    <g clip-path="url(#pc584f34733)">
     <use xlink:href="#m28ead4e82a" x="354.884" y="236.792" style="stroke: #000000"/>
     <use xlink:href="#m28ead4e82a" x="354.884" y="10.8" style="stroke: #000000"/>
    </g>
   </g>
   <g id="line2d_31">
    <path d="M 456.822 236.792 
L 456.822 10.8 
" clip-path="url(#pc584f34733)" style="fill: none; stroke: #000000; stroke-width: 1.5; stroke-linecap: square"/>
    <g clip-path="url(#pc584f34733)">
     <use xlink:href="#m28ead4e82a" x="456.822" y="236.792" style="stroke: #000000"/>
     <use xlink:href="#m28ead4e82a" x="456.822" y="10.8" style="stroke: #000000"/>
    </g>
   </g>
   <g id="patch_63">
    <path d="M 49.07 236.792 
L 49.07 10.8 
" style="fill: none; stroke: #000000; stroke-width: 0.8; stroke-linejoin: miter; stroke-linecap: square"/>
   </g>
   <g id="patch_64">
    <path d="M 49.07 236.792 
L 558.76 236.792 
" style="fill: none; stroke: #000000; stroke-width: 0.8; stroke-linejoin: miter; stroke-linecap: square"/>
   </g>
   <g id="legend_1">
    <g id="patch_65">
     <path d="M 565.76 78.86875 
L 706.863125 78.86875 
Q 708.863125 78.86875 708.863125 76.86875 
L 708.863125 17.8 
Q 708.863125 15.8 706.863125 15.8 
L 565.76 15.8 
Q 563.76 15.8 563.76 17.8 
L 563.76 76.86875 
Q 563.76 78.86875 565.76 78.86875 
z
" style="fill: #ffffff; opacity: 0.8; stroke: #cccccc; stroke-linejoin: miter"/>
    </g>
    <g id="patch_66">
     <path d="M 567.76 27.398438 
L 587.76 27.398438 
L 587.76 20.398438 
L 567.76 20.398438 
z
" style="fill: #37539c"/>
    </g>
    <g id="text_23">
     <!-- Gobierno -->
     <g style="fill: #37539c" transform="translate(595.76 27.398438) scale(0.1 -0.1)">
      <defs>
       <path id="OpenSans-Bold-47" d="M 2309 2566 
L 4122 2566 
L 4122 197 
Q 3763 78 3375 7 
Q 2988 -63 2497 -63 
Q 1816 -63 1341 206 
Q 866 475 619 1000 
Q 372 1525 372 2291 
Q 372 3009 648 3534 
Q 925 4059 1458 4346 
Q 1991 4634 2759 4634 
Q 3122 4634 3475 4556 
Q 3828 4478 4116 4353 
L 3794 3578 
Q 3584 3684 3315 3756 
Q 3047 3828 2753 3828 
Q 2331 3828 2020 3634 
Q 1709 3441 1539 3092 
Q 1369 2744 1369 2272 
Q 1369 1825 1491 1479 
Q 1613 1134 1875 939 
Q 2138 744 2559 744 
Q 2766 744 2908 764 
Q 3050 784 3175 806 
L 3175 1759 
L 2309 1759 
L 2309 2566 
z
" transform="scale(0.015625)"/>
      </defs>
      <use xlink:href="#OpenSans-Bold-47"/>
      <use xlink:href="#OpenSans-Bold-6f" x="72.412109"/>
      <use xlink:href="#OpenSans-Bold-62" x="134.326172"/>
      <use xlink:href="#OpenSans-Bold-69" x="197.607422"/>
      <use xlink:href="#OpenSans-Bold-65" x="228.125"/>
      <use xlink:href="#OpenSans-Bold-72" x="287.207031"/>
      <use xlink:href="#OpenSans-Bold-6e" x="332.617188"/>
      <use xlink:href="#OpenSans-Bold-6f" x="398.339844"/>
     </g>
    </g>
    <g id="patch_67">
     <path d="M 567.76 42.4625 
L 587.76 42.4625 
L 587.76 35.4625 
L 567.76 35.4625 
z
" style="fill: #59c3c3"/>
    </g>
    <g id="text_24">
     <!-- Compañías -->
     <g style="fill: #37539c" transform="translate(595.76 42.4625) scale(0.1 -0.1)">
      <defs>
       <path id="OpenSans-Bold-f1" d="M 2484 3559 
Q 3044 3559 3384 3254 
Q 3725 2950 3725 2278 
L 3725 0 
L 2772 0 
L 2772 2041 
Q 2772 2416 2636 2606 
Q 2500 2797 2209 2797 
Q 1772 2797 1612 2500 
Q 1453 2203 1453 1644 
L 1453 0 
L 500 0 
L 500 3494 
L 1228 3494 
L 1356 3047 
L 1409 3047 
Q 1522 3228 1689 3340 
Q 1856 3453 2061 3506 
Q 2266 3559 2484 3559 
z
M 808 3872 
Q 827 4122 899 4305 
Q 971 4488 1086 4605 
Q 1202 4722 1347 4780 
Q 1493 4838 1658 4838 
Q 1786 4838 1909 4789 
Q 2033 4741 2153 4675 
Q 2274 4609 2391 4561 
Q 2508 4513 2621 4513 
Q 2715 4513 2804 4595 
Q 2893 4678 2933 4844 
L 3399 4844 
Q 3361 4350 3117 4114 
Q 2874 3878 2549 3878 
Q 2421 3878 2297 3928 
Q 2174 3978 2053 4042 
Q 1933 4106 1817 4156 
Q 1702 4206 1590 4206 
Q 1493 4206 1404 4123 
Q 1315 4041 1274 3872 
L 808 3872 
z
" transform="scale(0.015625)"/>
       <path id="OpenSans-Bold-ed" d="M 1453 0 
L 500 0 
L 500 3494 
L 1453 3494 
L 1453 0 
z
M 2203 4903 
L 2203 4838 
Q 2113 4750 1966 4622 
Q 1819 4494 1650 4355 
Q 1482 4216 1319 4089 
Q 1157 3963 1035 3878 
L 400 3878 
L 400 3963 
Q 503 4081 639 4245 
Q 775 4409 909 4584 
Q 1044 4759 1135 4903 
L 2203 4903 
z
" transform="scale(0.015625)"/>
      </defs>
      <use xlink:href="#OpenSans-Bold-43"/>
      <use xlink:href="#OpenSans-Bold-6f" x="63.720703"/>
      <use xlink:href="#OpenSans-Bold-6d" x="125.634766"/>
      <use xlink:href="#OpenSans-Bold-70" x="223.828125"/>
      <use xlink:href="#OpenSans-Bold-61" x="287.109375"/>
      <use xlink:href="#OpenSans-Bold-f1" x="347.509766"/>
      <use xlink:href="#OpenSans-Bold-ed" x="413.232422"/>
      <use xlink:href="#OpenSans-Bold-61" x="443.75"/>
      <use xlink:href="#OpenSans-Bold-73" x="504.150391"/>
     </g>
    </g>
    <g id="patch_68">
     <path d="M 567.76 57.464063 
L 587.76 57.464063 
L 587.76 50.464063 
L 567.76 50.464063 
z
" style="fill: #f45b69"/>
    </g>
    <g id="text_25">
     <!-- IES e IPSFL -->
     <g style="fill: #37539c" transform="translate(595.76 57.464063) scale(0.1 -0.1)">
      <defs>
       <path id="OpenSans-Bold-49" d="M 575 0 
L 575 4569 
L 1544 4569 
L 1544 0 
L 575 0 
z
" transform="scale(0.015625)"/>
       <path id="OpenSans-Bold-53" d="M 3272 1269 
Q 3272 863 3075 563 
Q 2878 263 2501 100 
Q 2125 -63 1588 -63 
Q 1350 -63 1123 -31 
Q 897 0 689 61 
Q 481 122 294 213 
L 294 1113 
Q 619 969 969 853 
Q 1319 738 1663 738 
Q 1900 738 2045 800 
Q 2191 863 2256 972 
Q 2322 1081 2322 1222 
Q 2322 1394 2206 1516 
Q 2091 1638 1889 1744 
Q 1688 1850 1434 1972 
Q 1275 2047 1087 2155 
Q 900 2263 731 2419 
Q 563 2575 455 2798 
Q 347 3022 347 3334 
Q 347 3744 534 4034 
Q 722 4325 1070 4479 
Q 1419 4634 1894 4634 
Q 2250 4634 2573 4551 
Q 2897 4469 3250 4313 
L 2938 3559 
Q 2622 3688 2372 3758 
Q 2122 3828 1863 3828 
Q 1681 3828 1553 3770 
Q 1425 3713 1359 3608 
Q 1294 3503 1294 3366 
Q 1294 3203 1389 3092 
Q 1484 2981 1676 2878 
Q 1869 2775 2156 2638 
Q 2506 2472 2754 2292 
Q 3003 2113 3137 1870 
Q 3272 1628 3272 1269 
z
" transform="scale(0.015625)"/>
       <path id="OpenSans-Bold-46" d="M 1528 0 
L 575 0 
L 575 4569 
L 3194 4569 
L 3194 3775 
L 1528 3775 
L 1528 2597 
L 3078 2597 
L 3078 1806 
L 1528 1806 
L 1528 0 
z
" transform="scale(0.015625)"/>
      </defs>
      <use xlink:href="#OpenSans-Bold-49"/>
      <use xlink:href="#OpenSans-Bold-45" x="33.105469"/>
      <use xlink:href="#OpenSans-Bold-53" x="89.111328"/>
      <use xlink:href="#OpenSans-Bold-20" x="144.189453"/>
      <use xlink:href="#OpenSans-Bold-65" x="170.166016"/>
      <use xlink:href="#OpenSans-Bold-20" x="229.248047"/>
      <use xlink:href="#OpenSans-Bold-49" x="255.224609"/>
      <use xlink:href="#OpenSans-Bold-50" x="288.330078"/>
      <use xlink:href="#OpenSans-Bold-53" x="351.123047"/>
      <use xlink:href="#OpenSans-Bold-46" x="406.201172"/>
      <use xlink:href="#OpenSans-Bold-4c" x="461.083984"/>
     </g>
    </g>
    <g id="patch_69">
     <path d="M 567.76 72.465625 
L 587.76 72.465625 
L 587.76 65.465625 
L 567.76 65.465625 
z
" style="fill: #52489c"/>
    </g>
    <g id="text_26">
     <!-- Fondos del extranjero -->
     <g style="fill: #37539c" transform="translate(595.76 72.465625) scale(0.1 -0.1)">
      <defs>
       <path id="OpenSans-Bold-78" d="M 1216 1784 
L 91 3494 
L 1172 3494 
L 1850 2381 
L 2534 3494 
L 3616 3494 
L 2478 1784 
L 3669 0 
L 2584 0 
L 1850 1197 
L 1113 0 
L 31 0 
L 1216 1784 
z
" transform="scale(0.015625)"/>
      </defs>
      <use xlink:href="#OpenSans-Bold-46"/>
      <use xlink:href="#OpenSans-Bold-6f" x="54.882812"/>
      <use xlink:href="#OpenSans-Bold-6e" x="116.796875"/>
      <use xlink:href="#OpenSans-Bold-64" x="182.519531"/>
      <use xlink:href="#OpenSans-Bold-6f" x="245.800781"/>
      <use xlink:href="#OpenSans-Bold-73" x="307.714844"/>
      <use xlink:href="#OpenSans-Bold-20" x="357.421875"/>
      <use xlink:href="#OpenSans-Bold-64" x="383.398438"/>
      <use xlink:href="#OpenSans-Bold-65" x="446.679688"/>
      <use xlink:href="#OpenSans-Bold-6c" x="505.761719"/>
      <use xlink:href="#OpenSans-Bold-20" x="536.279297"/>
      <use xlink:href="#OpenSans-Bold-65" x="562.255859"/>
      <use xlink:href="#OpenSans-Bold-78" x="621.337891"/>
      <use xlink:href="#OpenSans-Bold-74" x="679.150391"/>
      <use xlink:href="#OpenSans-Bold-72" x="722.558594"/>
      <use xlink:href="#OpenSans-Bold-61" x="767.96875"/>
      <use xlink:href="#OpenSans-Bold-6e" x="828.369141"/>
      <use xlink:href="#OpenSans-Bold-6a" x="894.091797"/>
      <use xlink:href="#OpenSans-Bold-65" x="924.609375"/>
      <use xlink:href="#OpenSans-Bold-72" x="983.691406"/>
      <use xlink:href="#OpenSans-Bold-6f" x="1029.101562"/>
     </g>
    </g>
   </g>
  </g>
 </g>
 <defs>
  <clipPath id="pc584f34733">
   <rect x="49.07" y="10.8" width="509.69" height="225.992"/>
  </clipPath>
 </defs>
</svg>
