<?xml version="1.0" encoding="utf-8" standalone="no"?>
<!DOCTYPE svg PUBLIC "-//W3C//DTD SVG 1.1//EN"
  "http://www.w3.org/Graphics/SVG/1.1/DTD/svg11.dtd">
<svg xmlns:xlink="http://www.w3.org/1999/xlink" width="648pt" height="360pt" viewBox="0 0 648 360" xmlns="http://www.w3.org/2000/svg" version="1.1">
 <metadata>
  <rdf:RDF xmlns:dc="http://purl.org/dc/elements/1.1/" xmlns:cc="http://creativecommons.org/ns#" xmlns:rdf="http://www.w3.org/1999/02/22-rdf-syntax-ns#">
   <cc:Work>
    <dc:type rdf:resource="http://purl.org/dc/dcmitype/StillImage"/>
    <dc:date>2024-02-26T21:21:28.951781</dc:date>
    <dc:format>image/svg+xml</dc:format>
    <dc:creator>
     <cc:Agent>
      <dc:title>Matplotlib v3.7.1, https://matplotlib.org/</dc:title>
     </cc:Agent>
    </dc:creator>
   </cc:Work>
  </rdf:RDF>
 </metadata>
 <defs>
  <style type="text/css">*{stroke-linejoin: round; stroke-linecap: butt}</style>
 </defs>
 <g id="figure_1">
  <g id="patch_1">
   <path d="M 0 360 
L 648 360 
L 648 0 
L 0 0 
z
" style="fill: #ffffff"/>
  </g>
  <g id="axes_1">
   <g id="patch_2">
    <path d="M 52.27 332.12 
L 637.2 332.12 
L 637.2 10.8 
L 52.27 10.8 
z
" style="fill: #ffffff"/>
   </g>
   <g id="matplotlib.axis_1">
    <g id="xtick_1">
     <g id="line2d_1">
      <defs>
       <path id="mb674f9c60c" d="M 0 0 
L 0 3.5 
" style="stroke: #37539c; stroke-width: 0.8"/>
      </defs>
      <g>
       <use xlink:href="#mb674f9c60c" x="94.050714" y="332.12" style="fill: #37539c; stroke: #37539c; stroke-width: 0.8"/>
      </g>
     </g>
     <g id="text_1">
      <!-- MINCIENCIA -->
      <g style="fill: #37539c" transform="translate(63.618683 346.718437) scale(0.1 -0.1)">
       <defs>
        <path id="OpenSans-Bold-4d" d="M 2509 0 
L 1409 3584 
L 1381 3584 
Q 1388 3456 1402 3198 
Q 1416 2941 1428 2650 
Q 1441 2359 1441 2125 
L 1441 0 
L 575 0 
L 575 4569 
L 1894 4569 
L 2975 1075 
L 2994 1075 
L 4141 4569 
L 5459 4569 
L 5459 0 
L 4556 0 
L 4556 2163 
Q 4556 2378 4564 2659 
Q 4572 2941 4584 3195 
Q 4597 3450 4603 3578 
L 4575 3578 
L 3397 0 
L 2509 0 
z
" transform="scale(0.015625)"/>
        <path id="OpenSans-Bold-49" d="M 575 0 
L 575 4569 
L 1544 4569 
L 1544 0 
L 575 0 
z
" transform="scale(0.015625)"/>
        <path id="OpenSans-Bold-4e" d="M 4628 0 
L 3397 0 
L 1409 3456 
L 1381 3456 
Q 1394 3241 1403 3022 
Q 1413 2803 1422 2586 
Q 1431 2369 1441 2150 
L 1441 0 
L 575 0 
L 575 4569 
L 1797 4569 
L 3781 1147 
L 3803 1147 
Q 3797 1359 3787 1568 
Q 3778 1778 3770 1987 
Q 3763 2197 3756 2406 
L 3756 4569 
L 4628 4569 
L 4628 0 
z
" transform="scale(0.015625)"/>
        <path id="OpenSans-Bold-43" d="M 2516 3828 
Q 2238 3828 2023 3720 
Q 1809 3613 1664 3409 
Q 1519 3206 1444 2918 
Q 1369 2631 1369 2272 
Q 1369 1788 1489 1445 
Q 1609 1103 1862 923 
Q 2116 744 2516 744 
Q 2794 744 3073 806 
Q 3353 869 3681 984 
L 3681 172 
Q 3378 47 3084 -8 
Q 2791 -63 2425 -63 
Q 1719 -63 1264 229 
Q 809 522 590 1048 
Q 372 1575 372 2278 
Q 372 2797 512 3228 
Q 653 3659 925 3975 
Q 1197 4291 1597 4462 
Q 1997 4634 2516 4634 
Q 2856 4634 3198 4548 
Q 3541 4463 3853 4313 
L 3541 3525 
Q 3284 3647 3025 3737 
Q 2766 3828 2516 3828 
z
" transform="scale(0.015625)"/>
        <path id="OpenSans-Bold-45" d="M 3206 0 
L 575 0 
L 575 4569 
L 3206 4569 
L 3206 3775 
L 1544 3775 
L 1544 2772 
L 3091 2772 
L 3091 1978 
L 1544 1978 
L 1544 800 
L 3206 800 
L 3206 0 
z
" transform="scale(0.015625)"/>
        <path id="OpenSans-Bold-41" d="M 3372 0 
L 3041 1088 
L 1375 1088 
L 1044 0 
L 0 0 
L 1613 4588 
L 2797 4588 
L 4416 0 
L 3372 0 
z
M 2809 1900 
L 2478 2963 
Q 2447 3069 2395 3236 
Q 2344 3403 2292 3576 
Q 2241 3750 2209 3878 
Q 2178 3750 2123 3561 
Q 2069 3372 2019 3203 
Q 1969 3034 1947 2963 
L 1619 1900 
L 2809 1900 
z
" transform="scale(0.015625)"/>
       </defs>
       <use xlink:href="#OpenSans-Bold-4d"/>
       <use xlink:href="#OpenSans-Bold-49" x="94.287109"/>
       <use xlink:href="#OpenSans-Bold-4e" x="127.392578"/>
       <use xlink:href="#OpenSans-Bold-43" x="208.691406"/>
       <use xlink:href="#OpenSans-Bold-49" x="272.412109"/>
       <use xlink:href="#OpenSans-Bold-45" x="305.517578"/>
       <use xlink:href="#OpenSans-Bold-4e" x="361.523438"/>
       <use xlink:href="#OpenSans-Bold-43" x="442.822266"/>
       <use xlink:href="#OpenSans-Bold-49" x="506.542969"/>
       <use xlink:href="#OpenSans-Bold-41" x="539.648438"/>
      </g>
     </g>
    </g>
    <g id="xtick_2">
     <g id="line2d_2">
      <g>
       <use xlink:href="#mb674f9c60c" x="177.612143" y="332.12" style="fill: #37539c; stroke: #37539c; stroke-width: 0.8"/>
      </g>
     </g>
     <g id="text_2">
      <!-- MINECON -->
      <g style="fill: #37539c" transform="translate(153.147299 346.718437) scale(0.1 -0.1)">
       <defs>
        <path id="OpenSans-Bold-4f" d="M 4722 2291 
Q 4722 1763 4590 1330 
Q 4459 897 4192 584 
Q 3925 272 3515 104 
Q 3106 -63 2547 -63 
Q 1988 -63 1578 104 
Q 1169 272 901 584 
Q 634 897 503 1331 
Q 372 1766 372 2297 
Q 372 3006 605 3532 
Q 838 4059 1322 4350 
Q 1806 4641 2553 4641 
Q 3297 4641 3776 4350 
Q 4256 4059 4489 3531 
Q 4722 3003 4722 2291 
z
M 1388 2291 
Q 1388 1813 1508 1467 
Q 1628 1122 1884 936 
Q 2141 750 2547 750 
Q 2959 750 3215 936 
Q 3472 1122 3589 1467 
Q 3706 1813 3706 2291 
Q 3706 3009 3437 3421 
Q 3169 3834 2553 3834 
Q 2144 3834 1886 3648 
Q 1628 3463 1508 3117 
Q 1388 2772 1388 2291 
z
" transform="scale(0.015625)"/>
       </defs>
       <use xlink:href="#OpenSans-Bold-4d"/>
       <use xlink:href="#OpenSans-Bold-49" x="94.287109"/>
       <use xlink:href="#OpenSans-Bold-4e" x="127.392578"/>
       <use xlink:href="#OpenSans-Bold-45" x="208.691406"/>
       <use xlink:href="#OpenSans-Bold-43" x="264.697266"/>
       <use xlink:href="#OpenSans-Bold-4f" x="328.417969"/>
       <use xlink:href="#OpenSans-Bold-4e" x="408.007812"/>
      </g>
     </g>
    </g>
    <g id="xtick_3">
     <g id="line2d_3">
      <g>
       <use xlink:href="#mb674f9c60c" x="261.173571" y="332.12" style="fill: #37539c; stroke: #37539c; stroke-width: 0.8"/>
      </g>
     </g>
     <g id="text_3">
      <!-- MINEDUC -->
      <g style="fill: #37539c" transform="translate(237.272009 346.718437) scale(0.1 -0.1)">
       <defs>
        <path id="OpenSans-Bold-44" d="M 4366 2328 
Q 4366 1556 4070 1039 
Q 3775 522 3215 261 
Q 2656 0 1869 0 
L 575 0 
L 575 4569 
L 2009 4569 
Q 2728 4569 3256 4314 
Q 3784 4059 4075 3561 
Q 4366 3063 4366 2328 
z
M 3359 2303 
Q 3359 2809 3211 3136 
Q 3063 3463 2773 3619 
Q 2484 3775 2059 3775 
L 1544 3775 
L 1544 800 
L 1959 800 
Q 2669 800 3014 1178 
Q 3359 1556 3359 2303 
z
" transform="scale(0.015625)"/>
        <path id="OpenSans-Bold-55" d="M 4294 4569 
L 4294 1613 
Q 4294 1141 4086 761 
Q 3878 381 3458 159 
Q 3038 -63 2400 -63 
Q 1494 -63 1019 400 
Q 544 863 544 1625 
L 544 4569 
L 1509 4569 
L 1509 1772 
Q 1509 1206 1740 978 
Q 1972 750 2425 750 
Q 2744 750 2942 859 
Q 3141 969 3234 1197 
Q 3328 1425 3328 1778 
L 3328 4569 
L 4294 4569 
z
" transform="scale(0.015625)"/>
       </defs>
       <use xlink:href="#OpenSans-Bold-4d"/>
       <use xlink:href="#OpenSans-Bold-49" x="94.287109"/>
       <use xlink:href="#OpenSans-Bold-4e" x="127.392578"/>
       <use xlink:href="#OpenSans-Bold-45" x="208.691406"/>
       <use xlink:href="#OpenSans-Bold-44" x="264.697266"/>
       <use xlink:href="#OpenSans-Bold-55" x="338.720703"/>
       <use xlink:href="#OpenSans-Bold-43" x="414.306641"/>
      </g>
     </g>
    </g>
    <g id="xtick_4">
     <g id="line2d_4">
      <g>
       <use xlink:href="#mb674f9c60c" x="344.735" y="332.12" style="fill: #37539c; stroke: #37539c; stroke-width: 0.8"/>
      </g>
     </g>
     <g id="text_4">
      <!-- MINAGRI -->
      <g style="fill: #37539c" transform="translate(322.274063 346.718437) scale(0.1 -0.1)">
       <defs>
        <path id="OpenSans-Bold-47" d="M 2309 2566 
L 4122 2566 
L 4122 197 
Q 3763 78 3375 7 
Q 2988 -63 2497 -63 
Q 1816 -63 1341 206 
Q 866 475 619 1000 
Q 372 1525 372 2291 
Q 372 3009 648 3534 
Q 925 4059 1458 4346 
Q 1991 4634 2759 4634 
Q 3122 4634 3475 4556 
Q 3828 4478 4116 4353 
L 3794 3578 
Q 3584 3684 3315 3756 
Q 3047 3828 2753 3828 
Q 2331 3828 2020 3634 
Q 1709 3441 1539 3092 
Q 1369 2744 1369 2272 
Q 1369 1825 1491 1479 
Q 1613 1134 1875 939 
Q 2138 744 2559 744 
Q 2766 744 2908 764 
Q 3050 784 3175 806 
L 3175 1759 
L 2309 1759 
L 2309 2566 
z
" transform="scale(0.015625)"/>
        <path id="OpenSans-Bold-52" d="M 1906 4569 
Q 2528 4569 2933 4419 
Q 3338 4269 3534 3966 
Q 3731 3663 3731 3200 
Q 3731 2888 3612 2653 
Q 3494 2419 3300 2256 
Q 3106 2094 2881 1991 
L 4225 0 
L 3150 0 
L 2059 1753 
L 1544 1753 
L 1544 0 
L 575 0 
L 575 4569 
L 1906 4569 
z
M 1838 3775 
L 1544 3775 
L 1544 2541 
L 1856 2541 
Q 2338 2541 2545 2702 
Q 2753 2863 2753 3175 
Q 2753 3500 2529 3637 
Q 2306 3775 1838 3775 
z
" transform="scale(0.015625)"/>
       </defs>
       <use xlink:href="#OpenSans-Bold-4d"/>
       <use xlink:href="#OpenSans-Bold-49" x="94.287109"/>
       <use xlink:href="#OpenSans-Bold-4e" x="127.392578"/>
       <use xlink:href="#OpenSans-Bold-41" x="208.691406"/>
       <use xlink:href="#OpenSans-Bold-47" x="277.685547"/>
       <use xlink:href="#OpenSans-Bold-52" x="350.097656"/>
       <use xlink:href="#OpenSans-Bold-49" x="416.113281"/>
      </g>
     </g>
    </g>
    <g id="xtick_5">
     <g id="line2d_5">
      <g>
       <use xlink:href="#mb674f9c60c" x="428.296429" y="332.12" style="fill: #37539c; stroke: #37539c; stroke-width: 0.8"/>
      </g>
     </g>
     <g id="text_5">
      <!-- MININTERIOR -->
      <g style="fill: #37539c" transform="translate(394.20971 346.718437) scale(0.1 -0.1)">
       <defs>
        <path id="OpenSans-Bold-54" d="M 2338 0 
L 1369 0 
L 1369 3763 
L 128 3763 
L 128 4569 
L 3578 4569 
L 3578 3763 
L 2338 3763 
L 2338 0 
z
" transform="scale(0.015625)"/>
       </defs>
       <use xlink:href="#OpenSans-Bold-4d"/>
       <use xlink:href="#OpenSans-Bold-49" x="94.287109"/>
       <use xlink:href="#OpenSans-Bold-4e" x="127.392578"/>
       <use xlink:href="#OpenSans-Bold-49" x="208.691406"/>
       <use xlink:href="#OpenSans-Bold-4e" x="241.796875"/>
       <use xlink:href="#OpenSans-Bold-54" x="323.095703"/>
       <use xlink:href="#OpenSans-Bold-45" x="381.005859"/>
       <use xlink:href="#OpenSans-Bold-52" x="437.011719"/>
       <use xlink:href="#OpenSans-Bold-49" x="503.027344"/>
       <use xlink:href="#OpenSans-Bold-4f" x="536.132812"/>
       <use xlink:href="#OpenSans-Bold-52" x="615.722656"/>
      </g>
     </g>
    </g>
    <g id="xtick_6">
     <g id="line2d_6">
      <g>
       <use xlink:href="#mb674f9c60c" x="511.857857" y="332.12" style="fill: #37539c; stroke: #37539c; stroke-width: 0.8"/>
      </g>
     </g>
     <g id="text_6">
      <!-- Ley I+D -->
      <g style="fill: #37539c" transform="translate(493.719576 346.718437) scale(0.1 -0.1)">
       <defs>
        <path id="OpenSans-Bold-4c" d="M 575 0 
L 575 4569 
L 1544 4569 
L 1544 800 
L 3397 800 
L 3397 0 
L 575 0 
z
" transform="scale(0.015625)"/>
        <path id="OpenSans-Bold-65" d="M 1941 3559 
Q 2425 3559 2775 3373 
Q 3125 3188 3315 2834 
Q 3506 2481 3506 1972 
L 3506 1509 
L 1253 1509 
Q 1269 1106 1495 876 
Q 1722 647 2125 647 
Q 2459 647 2737 715 
Q 3016 784 3309 922 
L 3309 184 
Q 3050 56 2767 -3 
Q 2484 -63 2081 -63 
Q 1556 -63 1151 131 
Q 747 325 517 722 
Q 288 1119 288 1722 
Q 288 2334 495 2742 
Q 703 3150 1075 3354 
Q 1447 3559 1941 3559 
z
M 1947 2881 
Q 1669 2881 1486 2703 
Q 1303 2525 1275 2144 
L 2613 2144 
Q 2609 2356 2536 2522 
Q 2463 2688 2317 2784 
Q 2172 2881 1947 2881 
z
" transform="scale(0.015625)"/>
        <path id="OpenSans-Bold-79" d="M 0 3494 
L 1044 3494 
L 1703 1528 
Q 1734 1434 1756 1337 
Q 1778 1241 1793 1137 
Q 1809 1034 1819 922 
L 1838 922 
Q 1856 1091 1889 1237 
Q 1922 1384 1972 1528 
L 2619 3494 
L 3641 3494 
L 2163 -447 
Q 2028 -809 1812 -1051 
Q 1597 -1294 1317 -1416 
Q 1038 -1538 703 -1538 
Q 541 -1538 422 -1520 
Q 303 -1503 219 -1484 
L 219 -728 
Q 284 -744 384 -756 
Q 484 -769 594 -769 
Q 794 -769 937 -684 
Q 1081 -600 1178 -458 
Q 1275 -316 1331 -147 
L 1388 25 
L 0 3494 
z
" transform="scale(0.015625)"/>
        <path id="OpenSans-Bold-20" transform="scale(0.015625)"/>
        <path id="OpenSans-Bold-2b" d="M 2169 2597 
L 3378 2597 
L 3378 1913 
L 2169 1913 
L 2169 709 
L 1484 709 
L 1484 1913 
L 275 1913 
L 275 2597 
L 1484 2597 
L 1484 3816 
L 2169 3816 
L 2169 2597 
z
" transform="scale(0.015625)"/>
       </defs>
       <use xlink:href="#OpenSans-Bold-4c"/>
       <use xlink:href="#OpenSans-Bold-65" x="56.494141"/>
       <use xlink:href="#OpenSans-Bold-79" x="115.576172"/>
       <use xlink:href="#OpenSans-Bold-20" x="172.460938"/>
       <use xlink:href="#OpenSans-Bold-49" x="198.4375"/>
       <use xlink:href="#OpenSans-Bold-2b" x="231.542969"/>
       <use xlink:href="#OpenSans-Bold-44" x="288.720703"/>
      </g>
     </g>
    </g>
    <g id="xtick_7">
     <g id="line2d_7">
      <g>
       <use xlink:href="#mb674f9c60c" x="595.419286" y="332.12" style="fill: #37539c; stroke: #37539c; stroke-width: 0.8"/>
      </g>
     </g>
     <g id="text_7">
      <!-- Otros -->
      <g style="fill: #37539c" transform="translate(581.417723 346.718437) scale(0.1 -0.1)">
       <defs>
        <path id="OpenSans-Bold-74" d="M 1972 697 
Q 2128 697 2276 728 
Q 2425 759 2572 806 
L 2572 97 
Q 2419 28 2192 -17 
Q 1966 -63 1697 -63 
Q 1384 -63 1136 39 
Q 888 141 745 392 
Q 603 644 603 1094 
L 603 2778 
L 147 2778 
L 147 3181 
L 672 3500 
L 947 4238 
L 1556 4238 
L 1556 3494 
L 2534 3494 
L 2534 2778 
L 1556 2778 
L 1556 1094 
Q 1556 894 1670 795 
Q 1784 697 1972 697 
z
" transform="scale(0.015625)"/>
        <path id="OpenSans-Bold-72" d="M 2450 3559 
Q 2522 3559 2617 3551 
Q 2713 3544 2772 3531 
L 2700 2638 
Q 2653 2653 2567 2661 
Q 2481 2669 2419 2669 
Q 2234 2669 2061 2622 
Q 1888 2575 1750 2470 
Q 1613 2366 1533 2195 
Q 1453 2025 1453 1778 
L 1453 0 
L 500 0 
L 500 3494 
L 1222 3494 
L 1363 2906 
L 1409 2906 
Q 1513 3084 1667 3232 
Q 1822 3381 2020 3470 
Q 2219 3559 2450 3559 
z
" transform="scale(0.015625)"/>
        <path id="OpenSans-Bold-6f" d="M 3675 1753 
Q 3675 1316 3558 978 
Q 3441 641 3217 408 
Q 2994 175 2680 56 
Q 2366 -63 1972 -63 
Q 1603 -63 1295 56 
Q 988 175 761 408 
Q 534 641 411 978 
Q 288 1316 288 1753 
Q 288 2334 494 2737 
Q 700 3141 1081 3350 
Q 1463 3559 1991 3559 
Q 2481 3559 2861 3350 
Q 3241 3141 3458 2737 
Q 3675 2334 3675 1753 
z
M 1259 1753 
Q 1259 1409 1334 1175 
Q 1409 941 1568 822 
Q 1728 703 1984 703 
Q 2238 703 2395 822 
Q 2553 941 2626 1175 
Q 2700 1409 2700 1753 
Q 2700 2100 2626 2329 
Q 2553 2559 2393 2675 
Q 2234 2791 1978 2791 
Q 1600 2791 1429 2531 
Q 1259 2272 1259 1753 
z
" transform="scale(0.015625)"/>
        <path id="OpenSans-Bold-73" d="M 2938 1038 
Q 2938 681 2770 436 
Q 2603 191 2272 64 
Q 1941 -63 1447 -63 
Q 1081 -63 820 -16 
Q 559 31 294 141 
L 294 928 
Q 578 800 904 717 
Q 1231 634 1478 634 
Q 1756 634 1876 717 
Q 1997 800 1997 934 
Q 1997 1022 1948 1092 
Q 1900 1163 1740 1252 
Q 1581 1341 1241 1484 
Q 913 1622 702 1762 
Q 491 1903 389 2095 
Q 288 2288 288 2584 
Q 288 3069 664 3314 
Q 1041 3559 1672 3559 
Q 1997 3559 2292 3493 
Q 2588 3428 2900 3284 
L 2613 2597 
Q 2353 2709 2123 2781 
Q 1894 2853 1656 2853 
Q 1447 2853 1340 2797 
Q 1234 2741 1234 2625 
Q 1234 2541 1289 2475 
Q 1344 2409 1501 2329 
Q 1659 2250 1966 2125 
Q 2263 2003 2481 1870 
Q 2700 1738 2819 1542 
Q 2938 1347 2938 1038 
z
" transform="scale(0.015625)"/>
       </defs>
       <use xlink:href="#OpenSans-Bold-4f"/>
       <use xlink:href="#OpenSans-Bold-74" x="79.589844"/>
       <use xlink:href="#OpenSans-Bold-72" x="122.998047"/>
       <use xlink:href="#OpenSans-Bold-6f" x="168.408203"/>
       <use xlink:href="#OpenSans-Bold-73" x="230.322266"/>
      </g>
     </g>
    </g>
   </g>
   <g id="matplotlib.axis_2">
    <g id="ytick_1">
     <g id="line2d_8">
      <path d="M 52.27 332.12 
L 637.2 332.12 
" clip-path="url(#pe3137216a2)" style="fill: none; stroke-dasharray: 2.96,1.28; stroke-dashoffset: 0; stroke: #b0b0b0; stroke-width: 0.8"/>
     </g>
     <g id="line2d_9">
      <defs>
       <path id="m75796151d6" d="M 0 0 
L -3.5 0 
" style="stroke: #37539c; stroke-width: 0.8"/>
      </defs>
      <g>
       <use xlink:href="#m75796151d6" x="52.27" y="332.12" style="fill: #37539c; stroke: #37539c; stroke-width: 0.8"/>
      </g>
     </g>
     <g id="text_8">
      <!-- 0 -->
      <g style="fill: #37539c" transform="translate(39.552813 335.919219) scale(0.1 -0.1)">
       <defs>
        <path id="OpenSans-Bold-30" d="M 3425 2284 
Q 3425 1731 3339 1297 
Q 3253 863 3064 559 
Q 2875 256 2569 96 
Q 2263 -63 1825 -63 
Q 1275 -63 922 217 
Q 569 497 400 1023 
Q 231 1550 231 2284 
Q 231 3025 386 3551 
Q 541 4078 891 4359 
Q 1241 4641 1825 4641 
Q 2372 4641 2726 4361 
Q 3081 4081 3253 3554 
Q 3425 3028 3425 2284 
z
M 1191 2284 
Q 1191 1763 1248 1414 
Q 1306 1066 1443 891 
Q 1581 716 1825 716 
Q 2066 716 2205 889 
Q 2344 1063 2403 1411 
Q 2463 1759 2463 2284 
Q 2463 2806 2403 3156 
Q 2344 3506 2205 3682 
Q 2066 3859 1825 3859 
Q 1581 3859 1443 3682 
Q 1306 3506 1248 3156 
Q 1191 2806 1191 2284 
z
" transform="scale(0.015625)"/>
       </defs>
       <use xlink:href="#OpenSans-Bold-30"/>
      </g>
     </g>
    </g>
    <g id="ytick_2">
     <g id="line2d_10">
      <path d="M 52.27 289.411047 
L 637.2 289.411047 
" clip-path="url(#pe3137216a2)" style="fill: none; stroke-dasharray: 2.96,1.28; stroke-dashoffset: 0; stroke: #b0b0b0; stroke-width: 0.8"/>
     </g>
     <g id="line2d_11">
      <g>
       <use xlink:href="#m75796151d6" x="52.27" y="289.411047" style="fill: #37539c; stroke: #37539c; stroke-width: 0.8"/>
      </g>
     </g>
     <g id="text_9">
      <!-- 50000 -->
      <g style="fill: #37539c" transform="translate(16.684063 293.210265) scale(0.1 -0.1)">
       <defs>
        <path id="OpenSans-Bold-35" d="M 1919 2919 
Q 2338 2919 2664 2759 
Q 2991 2600 3178 2290 
Q 3366 1981 3366 1528 
Q 3366 1034 3161 676 
Q 2956 319 2551 128 
Q 2147 -63 1544 -63 
Q 1184 -63 867 -2 
Q 550 59 313 184 
L 313 1019 
Q 550 894 883 808 
Q 1216 722 1509 722 
Q 1797 722 1994 798 
Q 2191 875 2292 1036 
Q 2394 1197 2394 1447 
Q 2394 1781 2169 1959 
Q 1944 2138 1478 2138 
Q 1300 2138 1108 2103 
Q 916 2069 788 2034 
L 403 2241 
L 575 4569 
L 3053 4569 
L 3053 3750 
L 1422 3750 
L 1338 2853 
Q 1444 2875 1569 2897 
Q 1694 2919 1919 2919 
z
" transform="scale(0.015625)"/>
       </defs>
       <use xlink:href="#OpenSans-Bold-35"/>
       <use xlink:href="#OpenSans-Bold-30" x="57.177734"/>
       <use xlink:href="#OpenSans-Bold-30" x="114.355469"/>
       <use xlink:href="#OpenSans-Bold-30" x="171.533203"/>
       <use xlink:href="#OpenSans-Bold-30" x="228.710938"/>
      </g>
     </g>
    </g>
    <g id="ytick_3">
     <g id="line2d_12">
      <path d="M 52.27 246.702093 
L 637.2 246.702093 
" clip-path="url(#pe3137216a2)" style="fill: none; stroke-dasharray: 2.96,1.28; stroke-dashoffset: 0; stroke: #b0b0b0; stroke-width: 0.8"/>
     </g>
     <g id="line2d_13">
      <g>
       <use xlink:href="#m75796151d6" x="52.27" y="246.702093" style="fill: #37539c; stroke: #37539c; stroke-width: 0.8"/>
      </g>
     </g>
     <g id="text_10">
      <!-- 100000 -->
      <g style="fill: #37539c" transform="translate(10.966875 250.501312) scale(0.1 -0.1)">
       <defs>
        <path id="OpenSans-Bold-31" d="M 2644 0 
L 1678 0 
L 1678 2644 
Q 1678 2753 1681 2914 
Q 1684 3075 1690 3245 
Q 1697 3416 1703 3553 
Q 1669 3513 1564 3414 
Q 1459 3316 1369 3238 
L 844 2816 
L 378 3397 
L 1850 4569 
L 2644 4569 
L 2644 0 
z
" transform="scale(0.015625)"/>
       </defs>
       <use xlink:href="#OpenSans-Bold-31"/>
       <use xlink:href="#OpenSans-Bold-30" x="57.177734"/>
       <use xlink:href="#OpenSans-Bold-30" x="114.355469"/>
       <use xlink:href="#OpenSans-Bold-30" x="171.533203"/>
       <use xlink:href="#OpenSans-Bold-30" x="228.710938"/>
       <use xlink:href="#OpenSans-Bold-30" x="285.888672"/>
      </g>
     </g>
    </g>
    <g id="ytick_4">
     <g id="line2d_14">
      <path d="M 52.27 203.99314 
L 637.2 203.99314 
" clip-path="url(#pe3137216a2)" style="fill: none; stroke-dasharray: 2.96,1.28; stroke-dashoffset: 0; stroke: #b0b0b0; stroke-width: 0.8"/>
     </g>
     <g id="line2d_15">
      <g>
       <use xlink:href="#m75796151d6" x="52.27" y="203.99314" style="fill: #37539c; stroke: #37539c; stroke-width: 0.8"/>
      </g>
     </g>
     <g id="text_11">
      <!-- 150000 -->
      <g style="fill: #37539c" transform="translate(10.966875 207.792358) scale(0.1 -0.1)">
       <use xlink:href="#OpenSans-Bold-31"/>
       <use xlink:href="#OpenSans-Bold-35" x="57.177734"/>
       <use xlink:href="#OpenSans-Bold-30" x="114.355469"/>
       <use xlink:href="#OpenSans-Bold-30" x="171.533203"/>
       <use xlink:href="#OpenSans-Bold-30" x="228.710938"/>
       <use xlink:href="#OpenSans-Bold-30" x="285.888672"/>
      </g>
     </g>
    </g>
    <g id="ytick_5">
     <g id="line2d_16">
      <path d="M 52.27 161.284186 
L 637.2 161.284186 
" clip-path="url(#pe3137216a2)" style="fill: none; stroke-dasharray: 2.96,1.28; stroke-dashoffset: 0; stroke: #b0b0b0; stroke-width: 0.8"/>
     </g>
     <g id="line2d_17">
      <g>
       <use xlink:href="#m75796151d6" x="52.27" y="161.284186" style="fill: #37539c; stroke: #37539c; stroke-width: 0.8"/>
      </g>
     </g>
     <g id="text_12">
      <!-- 200000 -->
      <g style="fill: #37539c" transform="translate(10.966875 165.083405) scale(0.1 -0.1)">
       <defs>
        <path id="OpenSans-Bold-32" d="M 3450 0 
L 256 0 
L 256 672 
L 1403 1831 
Q 1750 2188 1961 2427 
Q 2172 2666 2267 2862 
Q 2363 3059 2363 3284 
Q 2363 3556 2211 3692 
Q 2059 3828 1806 3828 
Q 1541 3828 1291 3706 
Q 1041 3584 769 3359 
L 244 3981 
Q 441 4150 661 4300 
Q 881 4450 1173 4542 
Q 1466 4634 1875 4634 
Q 2325 4634 2648 4471 
Q 2972 4309 3147 4029 
Q 3322 3750 3322 3397 
Q 3322 3019 3172 2706 
Q 3022 2394 2736 2087 
Q 2450 1781 2047 1409 
L 1459 856 
L 1459 813 
L 3450 813 
L 3450 0 
z
" transform="scale(0.015625)"/>
       </defs>
       <use xlink:href="#OpenSans-Bold-32"/>
       <use xlink:href="#OpenSans-Bold-30" x="57.177734"/>
       <use xlink:href="#OpenSans-Bold-30" x="114.355469"/>
       <use xlink:href="#OpenSans-Bold-30" x="171.533203"/>
       <use xlink:href="#OpenSans-Bold-30" x="228.710938"/>
       <use xlink:href="#OpenSans-Bold-30" x="285.888672"/>
      </g>
     </g>
    </g>
    <g id="ytick_6">
     <g id="line2d_18">
      <path d="M 52.27 118.575233 
L 637.2 118.575233 
" clip-path="url(#pe3137216a2)" style="fill: none; stroke-dasharray: 2.96,1.28; stroke-dashoffset: 0; stroke: #b0b0b0; stroke-width: 0.8"/>
     </g>
     <g id="line2d_19">
      <g>
       <use xlink:href="#m75796151d6" x="52.27" y="118.575233" style="fill: #37539c; stroke: #37539c; stroke-width: 0.8"/>
      </g>
     </g>
     <g id="text_13">
      <!-- 250000 -->
      <g style="fill: #37539c" transform="translate(10.966875 122.374451) scale(0.1 -0.1)">
       <use xlink:href="#OpenSans-Bold-32"/>
       <use xlink:href="#OpenSans-Bold-35" x="57.177734"/>
       <use xlink:href="#OpenSans-Bold-30" x="114.355469"/>
       <use xlink:href="#OpenSans-Bold-30" x="171.533203"/>
       <use xlink:href="#OpenSans-Bold-30" x="228.710938"/>
       <use xlink:href="#OpenSans-Bold-30" x="285.888672"/>
      </g>
     </g>
    </g>
    <g id="ytick_7">
     <g id="line2d_20">
      <path d="M 52.27 75.866279 
L 637.2 75.866279 
" clip-path="url(#pe3137216a2)" style="fill: none; stroke-dasharray: 2.96,1.28; stroke-dashoffset: 0; stroke: #b0b0b0; stroke-width: 0.8"/>
     </g>
     <g id="line2d_21">
      <g>
       <use xlink:href="#m75796151d6" x="52.27" y="75.866279" style="fill: #37539c; stroke: #37539c; stroke-width: 0.8"/>
      </g>
     </g>
     <g id="text_14">
      <!-- 300000 -->
      <g style="fill: #37539c" transform="translate(10.966875 79.665498) scale(0.1 -0.1)">
       <defs>
        <path id="OpenSans-Bold-33" d="M 3272 3547 
Q 3272 3231 3140 3000 
Q 3009 2769 2786 2622 
Q 2563 2475 2284 2406 
L 2284 2388 
Q 2834 2319 3120 2050 
Q 3406 1781 3406 1331 
Q 3406 931 3211 615 
Q 3016 300 2609 118 
Q 2203 -63 1563 -63 
Q 1184 -63 857 -2 
Q 531 59 244 184 
L 244 1006 
Q 538 856 859 779 
Q 1181 703 1459 703 
Q 1978 703 2186 883 
Q 2394 1063 2394 1388 
Q 2394 1578 2297 1709 
Q 2200 1841 1961 1909 
Q 1722 1978 1294 1978 
L 947 1978 
L 947 2719 
L 1300 2719 
Q 1722 2719 1942 2798 
Q 2163 2878 2242 3017 
Q 2322 3156 2322 3334 
Q 2322 3578 2172 3715 
Q 2022 3853 1672 3853 
Q 1453 3853 1273 3798 
Q 1094 3744 950 3667 
Q 806 3591 697 3519 
L 250 4184 
Q 519 4378 880 4506 
Q 1241 4634 1741 4634 
Q 2447 4634 2859 4350 
Q 3272 4066 3272 3547 
z
" transform="scale(0.015625)"/>
       </defs>
       <use xlink:href="#OpenSans-Bold-33"/>
       <use xlink:href="#OpenSans-Bold-30" x="57.177734"/>
       <use xlink:href="#OpenSans-Bold-30" x="114.355469"/>
       <use xlink:href="#OpenSans-Bold-30" x="171.533203"/>
       <use xlink:href="#OpenSans-Bold-30" x="228.710938"/>
       <use xlink:href="#OpenSans-Bold-30" x="285.888672"/>
      </g>
     </g>
    </g>
    <g id="ytick_8">
     <g id="line2d_22">
      <path d="M 52.27 33.157326 
L 637.2 33.157326 
" clip-path="url(#pe3137216a2)" style="fill: none; stroke-dasharray: 2.96,1.28; stroke-dashoffset: 0; stroke: #b0b0b0; stroke-width: 0.8"/>
     </g>
     <g id="line2d_23">
      <g>
       <use xlink:href="#m75796151d6" x="52.27" y="33.157326" style="fill: #37539c; stroke: #37539c; stroke-width: 0.8"/>
      </g>
     </g>
     <g id="text_15">
      <!-- 350000 -->
      <g style="fill: #37539c" transform="translate(10.966875 36.956544) scale(0.1 -0.1)">
       <use xlink:href="#OpenSans-Bold-33"/>
       <use xlink:href="#OpenSans-Bold-35" x="57.177734"/>
       <use xlink:href="#OpenSans-Bold-30" x="114.355469"/>
       <use xlink:href="#OpenSans-Bold-30" x="171.533203"/>
       <use xlink:href="#OpenSans-Bold-30" x="228.710938"/>
       <use xlink:href="#OpenSans-Bold-30" x="285.888672"/>
      </g>
     </g>
    </g>
   </g>
   <g id="patch_3">
    <path d="M 73.160357 332.12 
L 80.12381 332.12 
L 80.12381 332.12 
L 73.160357 332.12 
z
" clip-path="url(#pe3137216a2)" style="fill: #869cd4"/>
   </g>
   <g id="patch_4">
    <path d="M 80.12381 332.12 
L 87.087262 332.12 
L 87.087262 332.12 
L 80.12381 332.12 
z
" clip-path="url(#pe3137216a2)" style="fill: #4969be"/>
   </g>
   <g id="patch_5">
    <path d="M 87.087262 332.12 
L 94.050714 332.12 
L 94.050714 332.12 
L 87.087262 332.12 
z
" clip-path="url(#pe3137216a2)" style="fill: #4062bb"/>
   </g>
   <g id="patch_6">
    <path d="M 94.050714 332.12 
L 101.014167 332.12 
L 101.014167 332.12 
L 94.050714 332.12 
z
" clip-path="url(#pe3137216a2)" style="fill: #354f95"/>
   </g>
   <g id="patch_7">
    <path d="M 618.036579 332.119986 
L 607.619254 332.119986 
Q 615.975397 332.119986 615.975397 332.119645 
L 615.975397 323.262518 
Q 615.975397 323.262177 607.619254 323.262177 
L 618.036579 323.262177 
Q 609.680436 323.262177 609.680436 323.262518 
L 609.680436 332.119645 
Q 609.680436 332.119986 618.036579 332.119986 
z
" clip-path="url(#pe3137216a2)" style="fill: #27355a"/>
   </g>
   <g id="patch_8">
    <path d="M 534.47515 332.119986 
L 524.057826 332.119986 
Q 532.413969 332.119986 532.413969 332.119645 
L 532.413969 324.110718 
Q 532.413969 324.110377 524.057826 324.110377 
L 534.47515 324.110377 
Q 526.119008 324.110377 526.119008 324.110718 
L 526.119008 332.119645 
Q 526.119008 332.119986 534.47515 332.119986 
z
" clip-path="url(#pe3137216a2)" style="fill: #27355a"/>
   </g>
   <g id="patch_9">
    <path d="M 450.913722 332.119986 
L 440.496397 332.119986 
Q 448.85254 332.119986 448.85254 332.119645 
L 448.85254 322.388693 
Q 448.85254 322.388352 440.496397 322.388352 
L 450.913722 322.388352 
Q 442.557579 322.388352 442.557579 322.388693 
L 442.557579 332.119645 
Q 442.557579 332.119986 450.913722 332.119986 
z
" clip-path="url(#pe3137216a2)" style="fill: #27355a"/>
   </g>
   <g id="patch_10">
    <path d="M 367.352293 332.119986 
L 356.934969 332.119986 
Q 365.291111 332.119986 365.291111 332.119645 
L 365.291111 318.105839 
Q 365.291111 318.105498 356.934969 318.105498 
L 367.352293 318.105498 
Q 358.99615 318.105498 358.99615 318.105839 
L 358.99615 332.119645 
Q 358.99615 332.119986 367.352293 332.119986 
z
" clip-path="url(#pe3137216a2)" style="fill: #27355a"/>
   </g>
   <g id="patch_11">
    <path d="M 283.790865 332.119986 
L 273.37354 332.119986 
Q 281.729683 332.119986 281.729683 332.119645 
L 281.729683 303.841903 
Q 281.729683 303.841561 273.37354 303.841561 
L 283.790865 303.841561 
Q 275.434722 303.841561 275.434722 303.841903 
L 275.434722 332.119645 
Q 275.434722 332.119986 283.790865 332.119986 
z
" clip-path="url(#pe3137216a2)" style="fill: #27355a"/>
   </g>
   <g id="patch_12">
    <path d="M 200.229436 332.119986 
L 189.812111 332.119986 
Q 198.168254 332.119986 198.168254 332.119645 
L 198.168254 304.07424 
Q 198.168254 304.073898 189.812111 304.073898 
L 200.229436 304.073898 
Q 191.873293 304.073898 191.873293 304.07424 
L 191.873293 332.119645 
Q 191.873293 332.119986 200.229436 332.119986 
z
" clip-path="url(#pe3137216a2)" style="fill: #27355a"/>
   </g>
   <g id="patch_13">
    <path d="M 116.668008 332.119986 
L 106.250683 332.119986 
Q 114.606826 332.119986 114.606826 332.119645 
L 114.606826 36.846026 
Q 114.606826 36.845685 106.250683 36.845685 
L 116.668008 36.845685 
Q 108.311865 36.845685 108.311865 36.846026 
L 108.311865 332.119645 
Q 108.311865 332.119986 116.668008 332.119986 
z
" clip-path="url(#pe3137216a2)" style="fill: #27355a"/>
   </g>
   <g id="patch_14">
    <path d="M 611.073127 332.119986 
L 600.655802 332.119986 
Q 609.011945 332.119986 609.011945 332.119645 
L 609.011945 321.690829 
Q 609.011945 321.690487 600.655802 321.690487 
L 611.073127 321.690487 
Q 602.716984 321.690487 602.716984 321.690829 
L 602.716984 332.119645 
Q 602.716984 332.119986 611.073127 332.119986 
z
" clip-path="url(#pe3137216a2)" style="fill: #2d4175"/>
   </g>
   <g id="patch_15">
    <path d="M 527.511698 332.119986 
L 517.094373 332.119986 
Q 525.450516 332.119986 525.450516 332.119645 
L 525.450516 324.928168 
Q 525.450516 324.927826 517.094373 324.927826 
L 527.511698 324.927826 
Q 519.155555 324.927826 519.155555 324.928168 
L 519.155555 332.119645 
Q 519.155555 332.119986 527.511698 332.119986 
z
" clip-path="url(#pe3137216a2)" style="fill: #2d4175"/>
   </g>
   <g id="patch_16">
    <path d="M 443.95027 332.119986 
L 433.532945 332.119986 
Q 441.889088 332.119986 441.889088 332.119645 
L 441.889088 322.662031 
Q 441.889088 322.661689 433.532945 322.661689 
L 443.95027 322.661689 
Q 435.594127 322.661689 435.594127 322.662031 
L 435.594127 332.119645 
Q 435.594127 332.119986 443.95027 332.119986 
z
" clip-path="url(#pe3137216a2)" style="fill: #2d4175"/>
   </g>
   <g id="patch_17">
    <path d="M 360.388841 332.119986 
L 349.971516 332.119986 
Q 358.327659 332.119986 358.327659 332.119645 
L 358.327659 317.559165 
Q 358.327659 317.558823 349.971516 317.558823 
L 360.388841 317.558823 
Q 352.032698 317.558823 352.032698 317.559165 
L 352.032698 332.119645 
Q 352.032698 332.119986 360.388841 332.119986 
z
" clip-path="url(#pe3137216a2)" style="fill: #2d4175"/>
   </g>
   <g id="patch_18">
    <path d="M 276.827412 332.119986 
L 266.410088 332.119986 
Q 274.76623 332.119986 274.76623 332.119645 
L 274.76623 300.281685 
Q 274.76623 300.281343 266.410088 300.281343 
L 276.827412 300.281343 
Q 268.47127 300.281343 268.47127 300.281685 
L 268.47127 332.119645 
Q 268.47127 332.119986 276.827412 332.119986 
z
" clip-path="url(#pe3137216a2)" style="fill: #2d4175"/>
   </g>
   <g id="patch_19">
    <path d="M 193.265984 332.119986 
L 182.848659 332.119986 
Q 191.204802 332.119986 191.204802 332.119645 
L 191.204802 301.005174 
Q 191.204802 301.004833 182.848659 301.004833 
L 193.265984 301.004833 
Q 184.909841 301.004833 184.909841 301.005174 
L 184.909841 332.119645 
Q 184.909841 332.119986 193.265984 332.119986 
z
" clip-path="url(#pe3137216a2)" style="fill: #2d4175"/>
   </g>
   <g id="patch_20">
    <path d="M 109.704555 332.119986 
L 99.28723 332.119986 
Q 107.643373 332.119986 107.643373 332.119645 
L 107.643373 47.263594 
Q 107.643373 47.263252 99.28723 47.263252 
L 109.704555 47.263252 
Q 101.348412 47.263252 101.348412 47.263594 
L 101.348412 332.119645 
Q 101.348412 332.119986 109.704555 332.119986 
z
" clip-path="url(#pe3137216a2)" style="fill: #2d4175"/>
   </g>
   <g id="patch_21">
    <path d="M 604.109674 332.119986 
L 593.69235 332.119986 
Q 602.048492 332.119986 602.048492 332.119645 
L 602.048492 322.113648 
Q 602.048492 322.113306 593.69235 322.113306 
L 604.109674 322.113306 
Q 595.753531 322.113306 595.753531 322.113648 
L 595.753531 332.119645 
Q 595.753531 332.119986 604.109674 332.119986 
z
" clip-path="url(#pe3137216a2)" style="fill: #354f95"/>
   </g>
   <g id="patch_22">
    <path d="M 520.548246 332.119986 
L 510.130921 332.119986 
Q 518.487064 332.119986 518.487064 332.119645 
L 518.487064 325.324507 
Q 518.487064 325.324165 510.130921 325.324165 
L 520.548246 325.324165 
Q 512.192103 325.324165 512.192103 325.324507 
L 512.192103 332.119645 
Q 512.192103 332.119986 520.548246 332.119986 
z
" clip-path="url(#pe3137216a2)" style="fill: #354f95"/>
   </g>
   <g id="patch_23">
    <path d="M 436.986817 332.119986 
L 426.569492 332.119986 
Q 434.925635 332.119986 434.925635 332.119645 
L 434.925635 322.695343 
Q 434.925635 322.695002 426.569492 322.695002 
L 436.986817 322.695002 
Q 428.630674 322.695002 428.630674 322.695343 
L 428.630674 332.119645 
Q 428.630674 332.119986 436.986817 332.119986 
z
" clip-path="url(#pe3137216a2)" style="fill: #354f95"/>
   </g>
   <g id="patch_24">
    <path d="M 353.425389 332.119986 
L 343.008064 332.119986 
Q 351.364207 332.119986 351.364207 332.119645 
L 351.364207 318.152819 
Q 351.364207 318.152478 343.008064 318.152478 
L 353.425389 318.152478 
Q 345.069246 318.152478 345.069246 318.152819 
L 345.069246 332.119645 
Q 345.069246 332.119986 353.425389 332.119986 
z
" clip-path="url(#pe3137216a2)" style="fill: #354f95"/>
   </g>
   <g id="patch_25">
    <path d="M 269.86396 332.119986 
L 259.446635 332.119986 
Q 267.802778 332.119986 267.802778 332.119645 
L 267.802778 30.277389 
Q 267.802778 30.277048 259.446635 30.277048 
L 269.86396 30.277048 
Q 261.507817 30.277048 261.507817 30.277389 
L 261.507817 332.119645 
Q 261.507817 332.119986 269.86396 332.119986 
z
" clip-path="url(#pe3137216a2)" style="fill: #354f95"/>
   </g>
   <g id="patch_26">
    <path d="M 186.302531 332.119986 
L 175.885207 332.119986 
Q 184.24135 332.119986 184.24135 332.119645 
L 184.24135 281.809208 
Q 184.24135 281.808866 175.885207 281.808866 
L 186.302531 281.808866 
Q 177.946389 281.808866 177.946389 281.809208 
L 177.946389 332.119645 
Q 177.946389 332.119986 186.302531 332.119986 
z
" clip-path="url(#pe3137216a2)" style="fill: #354f95"/>
   </g>
   <g id="patch_27">
    <path d="M 94.050714 332.12 
L 101.014167 332.12 
L 101.014167 332.12 
L 94.050714 332.12 
z
" clip-path="url(#pe3137216a2)" style="fill: #354f95"/>
   </g>
   <g id="patch_28">
    <path d="M 597.146222 332.119986 
L 586.728897 332.119986 
Q 595.08504 332.119986 595.08504 332.119645 
L 595.08504 322.993452 
Q 595.08504 322.99311 586.728897 322.99311 
L 597.146222 322.99311 
Q 588.790079 322.99311 588.790079 322.993452 
L 588.790079 332.119645 
Q 588.790079 332.119986 597.146222 332.119986 
z
" clip-path="url(#pe3137216a2)" style="fill: #4062bb"/>
   </g>
   <g id="patch_29">
    <path d="M 513.584793 332.119986 
L 503.167469 332.119986 
Q 511.523611 332.119986 511.523611 332.119645 
L 511.523611 323.998821 
Q 511.523611 323.998479 503.167469 323.998479 
L 513.584793 323.998479 
Q 505.22865 323.998479 505.22865 323.998821 
L 505.22865 332.119645 
Q 505.22865 332.119986 513.584793 332.119986 
z
" clip-path="url(#pe3137216a2)" style="fill: #4062bb"/>
   </g>
   <g id="patch_30">
    <path d="M 430.023365 332.119986 
L 419.60604 332.119986 
Q 427.962183 332.119986 427.962183 332.119645 
L 427.962183 321.988083 
Q 427.962183 321.987742 419.60604 321.987742 
L 430.023365 321.987742 
Q 421.667222 321.987742 421.667222 321.988083 
L 421.667222 332.119645 
Q 421.667222 332.119986 430.023365 332.119986 
z
" clip-path="url(#pe3137216a2)" style="fill: #4062bb"/>
   </g>
   <g id="patch_31">
    <path d="M 346.461936 332.119986 
L 336.044611 332.119986 
Q 344.400754 332.119986 344.400754 332.119645 
L 344.400754 319.481068 
Q 344.400754 319.480726 336.044611 319.480726 
L 346.461936 319.480726 
Q 338.105793 319.480726 338.105793 319.481068 
L 338.105793 332.119645 
Q 338.105793 332.119986 346.461936 332.119986 
z
" clip-path="url(#pe3137216a2)" style="fill: #4062bb"/>
   </g>
   <g id="patch_32">
    <path d="M 262.900508 332.119986 
L 252.483183 332.119986 
Q 260.839326 332.119986 260.839326 332.119645 
L 260.839326 26.101308 
Q 260.839326 26.100966 252.483183 26.100966 
L 262.900508 26.100966 
Q 254.544365 26.100966 254.544365 26.101308 
L 254.544365 332.119645 
Q 254.544365 332.119986 262.900508 332.119986 
z
" clip-path="url(#pe3137216a2)" style="fill: #4062bb"/>
   </g>
   <g id="patch_33">
    <path d="M 179.339079 332.119986 
L 168.921754 332.119986 
Q 177.277897 332.119986 177.277897 332.119645 
L 177.277897 267.65119 
Q 177.277897 267.650848 168.921754 267.650848 
L 179.339079 267.650848 
Q 170.982936 267.650848 170.982936 267.65119 
L 170.982936 332.119645 
Q 170.982936 332.119986 179.339079 332.119986 
z
" clip-path="url(#pe3137216a2)" style="fill: #4062bb"/>
   </g>
   <g id="patch_34">
    <path d="M 87.087262 332.12 
L 94.050714 332.12 
L 94.050714 332.12 
L 87.087262 332.12 
z
" clip-path="url(#pe3137216a2)" style="fill: #4062bb"/>
   </g>
   <g id="patch_35">
    <path d="M 590.18277 332.119986 
L 579.765445 332.119986 
Q 588.121588 332.119986 588.121588 332.119645 
L 588.121588 323.722921 
Q 588.121588 323.722579 579.765445 323.722579 
L 590.18277 323.722579 
Q 581.826627 323.722579 581.826627 323.722921 
L 581.826627 332.119645 
Q 581.826627 332.119986 590.18277 332.119986 
z
" clip-path="url(#pe3137216a2)" style="fill: #4969be"/>
   </g>
   <g id="patch_36">
    <path d="M 506.621341 332.119986 
L 496.204016 332.119986 
Q 504.560159 332.119986 504.560159 332.119645 
L 504.560159 324.555745 
Q 504.560159 324.555404 496.204016 324.555404 
L 506.621341 324.555404 
Q 498.265198 324.555404 498.265198 324.555745 
L 498.265198 332.119645 
Q 498.265198 332.119986 506.621341 332.119986 
z
" clip-path="url(#pe3137216a2)" style="fill: #4969be"/>
   </g>
   <g id="patch_37">
    <path d="M 423.059912 332.119986 
L 412.642588 332.119986 
Q 420.99873 332.119986 420.99873 332.119645 
L 420.99873 323.495709 
Q 420.99873 323.495368 412.642588 323.495368 
L 423.059912 323.495368 
Q 414.70377 323.495368 414.70377 323.495709 
L 414.70377 332.119645 
Q 414.70377 332.119986 423.059912 332.119986 
z
" clip-path="url(#pe3137216a2)" style="fill: #4969be"/>
   </g>
   <g id="patch_38">
    <path d="M 339.498484 332.119986 
L 329.081159 332.119986 
Q 337.437302 332.119986 337.437302 332.119645 
L 337.437302 323.180517 
Q 337.437302 323.180176 329.081159 323.180176 
L 339.498484 323.180176 
Q 331.142341 323.180176 331.142341 323.180517 
L 331.142341 332.119645 
Q 331.142341 332.119986 339.498484 332.119986 
z
" clip-path="url(#pe3137216a2)" style="fill: #4969be"/>
   </g>
   <g id="patch_39">
    <path d="M 255.937055 332.119986 
L 245.51973 332.119986 
Q 253.875873 332.119986 253.875873 332.119645 
L 253.875873 28.53401 
Q 253.875873 28.533668 245.51973 28.533668 
L 255.937055 28.533668 
Q 247.580912 28.533668 247.580912 28.53401 
L 247.580912 332.119645 
Q 247.580912 332.119986 255.937055 332.119986 
z
" clip-path="url(#pe3137216a2)" style="fill: #4969be"/>
   </g>
   <g id="patch_40">
    <path d="M 172.375627 332.119986 
L 161.958302 332.119986 
Q 170.314445 332.119986 170.314445 332.119645 
L 170.314445 264.64448 
Q 170.314445 264.644138 161.958302 264.644138 
L 172.375627 264.644138 
Q 164.019484 264.644138 164.019484 264.64448 
L 164.019484 332.119645 
Q 164.019484 332.119986 172.375627 332.119986 
z
" clip-path="url(#pe3137216a2)" style="fill: #4969be"/>
   </g>
   <g id="patch_41">
    <path d="M 80.12381 332.12 
L 87.087262 332.12 
L 87.087262 332.12 
L 80.12381 332.12 
z
" clip-path="url(#pe3137216a2)" style="fill: #4969be"/>
   </g>
   <g id="patch_42">
    <path d="M 583.219317 332.119986 
L 572.801992 332.119986 
Q 581.158135 332.119986 581.158135 332.119645 
L 581.158135 323.229205 
Q 581.158135 323.228864 572.801992 323.228864 
L 583.219317 323.228864 
Q 574.863174 323.228864 574.863174 323.229205 
L 574.863174 332.119645 
Q 574.863174 332.119986 583.219317 332.119986 
z
" clip-path="url(#pe3137216a2)" style="fill: #869cd4"/>
   </g>
   <g id="patch_43">
    <path d="M 499.657889 332.119986 
L 489.240564 332.119986 
Q 497.596707 332.119986 497.596707 332.119645 
L 497.596707 323.748546 
Q 497.596707 323.748205 489.240564 323.748205 
L 499.657889 323.748205 
Q 491.301746 323.748205 491.301746 323.748546 
L 491.301746 332.119645 
Q 491.301746 332.119986 499.657889 332.119986 
z
" clip-path="url(#pe3137216a2)" style="fill: #869cd4"/>
   </g>
   <g id="patch_44">
    <path d="M 416.09646 332.119986 
L 405.679135 332.119986 
Q 414.035278 332.119986 414.035278 332.119645 
L 414.035278 325.335611 
Q 414.035278 325.335269 405.679135 325.335269 
L 416.09646 325.335269 
Q 407.740317 325.335269 407.740317 325.335611 
L 407.740317 332.119645 
Q 407.740317 332.119986 416.09646 332.119986 
z
" clip-path="url(#pe3137216a2)" style="fill: #869cd4"/>
   </g>
   <g id="patch_45">
    <path d="M 332.535031 332.119986 
L 322.117707 332.119986 
Q 330.47385 332.119986 330.47385 332.119645 
L 330.47385 323.351353 
Q 330.47385 323.351011 322.117707 323.351011 
L 332.535031 323.351011 
Q 324.178889 323.351011 324.178889 323.351353 
L 324.178889 332.119645 
Q 324.178889 332.119986 332.535031 332.119986 
z
" clip-path="url(#pe3137216a2)" style="fill: #869cd4"/>
   </g>
   <g id="patch_46">
    <path d="M 248.973603 332.119986 
L 238.556278 332.119986 
Q 246.912421 332.119986 246.912421 332.119645 
L 246.912421 43.755481 
Q 246.912421 43.755139 238.556278 43.755139 
L 248.973603 43.755139 
Q 240.61746 43.755139 240.61746 43.755481 
L 240.61746 332.119645 
Q 240.61746 332.119986 248.973603 332.119986 
z
" clip-path="url(#pe3137216a2)" style="fill: #869cd4"/>
   </g>
   <g id="patch_47">
    <path d="M 165.412174 332.119986 
L 154.99485 332.119986 
Q 163.350992 332.119986 163.350992 332.119645 
L 163.350992 264.58725 
Q 163.350992 264.586908 154.99485 264.586908 
L 165.412174 264.586908 
Q 157.056031 264.586908 157.056031 264.58725 
L 157.056031 332.119645 
Q 157.056031 332.119986 165.412174 332.119986 
z
" clip-path="url(#pe3137216a2)" style="fill: #869cd4"/>
   </g>
   <g id="patch_48">
    <path d="M 73.160357 332.12 
L 80.12381 332.12 
L 80.12381 332.12 
L 73.160357 332.12 
z
" clip-path="url(#pe3137216a2)" style="fill: #869cd4"/>
   </g>
   <g id="patch_49">
    <path d="M 52.27 332.12 
L 52.27 10.8 
" style="fill: none; stroke: #000000; stroke-width: 0.8; stroke-linejoin: miter; stroke-linecap: square"/>
   </g>
   <g id="patch_50">
    <path d="M 52.27 332.12 
L 637.2 332.12 
" style="fill: none; stroke: #000000; stroke-width: 0.8; stroke-linejoin: miter; stroke-linecap: square"/>
   </g>
   <g id="legend_1">
    <g id="patch_51">
     <path d="M 587.705 89.2075 
L 631.6 89.2075 
Q 633.2 89.2075 633.2 87.6075 
L 633.2 16.4 
Q 633.2 14.8 631.6 14.8 
L 587.705 14.8 
Q 586.105 14.8 586.105 16.4 
L 586.105 87.6075 
Q 586.105 89.2075 587.705 89.2075 
z
" style="fill: #ffffff; opacity: 0.8; stroke: #cccccc; stroke-linejoin: miter"/>
    </g>
    <g id="patch_52">
     <path d="M 589.305 24.07875 
L 605.305 24.07875 
L 605.305 18.47875 
L 589.305 18.47875 
z
" style="fill: #869cd4"/>
    </g>
    <g id="text_16">
     <!-- 2016 -->
     <g style="fill: #37539c" transform="translate(611.705 24.07875) scale(0.08 -0.08)">
      <defs>
       <path id="OpenSans-Bold-36" d="M 225 1941 
Q 225 2334 283 2720 
Q 341 3106 484 3448 
Q 628 3791 887 4055 
Q 1147 4319 1547 4470 
Q 1947 4622 2516 4622 
Q 2650 4622 2829 4611 
Q 3009 4600 3128 4575 
L 3128 3803 
Q 3003 3831 2861 3848 
Q 2719 3866 2578 3866 
Q 2009 3866 1698 3684 
Q 1388 3503 1261 3183 
Q 1134 2863 1113 2438 
L 1153 2438 
Q 1241 2591 1373 2709 
Q 1506 2828 1697 2898 
Q 1888 2969 2144 2969 
Q 2544 2969 2837 2798 
Q 3131 2628 3290 2306 
Q 3450 1984 3450 1522 
Q 3450 1028 3259 672 
Q 3069 316 2720 126 
Q 2372 -63 1894 -63 
Q 1544 -63 1241 57 
Q 938 178 709 425 
Q 481 672 353 1048 
Q 225 1425 225 1941 
z
M 1875 709 
Q 2159 709 2337 903 
Q 2516 1097 2516 1509 
Q 2516 1844 2361 2036 
Q 2206 2228 1894 2228 
Q 1681 2228 1520 2133 
Q 1359 2038 1271 1892 
Q 1184 1747 1184 1594 
Q 1184 1434 1228 1278 
Q 1272 1122 1359 994 
Q 1447 866 1576 787 
Q 1706 709 1875 709 
z
" transform="scale(0.015625)"/>
      </defs>
      <use xlink:href="#OpenSans-Bold-32"/>
      <use xlink:href="#OpenSans-Bold-30" x="57.177734"/>
      <use xlink:href="#OpenSans-Bold-31" x="114.355469"/>
      <use xlink:href="#OpenSans-Bold-36" x="171.533203"/>
     </g>
    </g>
    <g id="patch_53">
     <path d="M 589.305 36.08 
L 605.305 36.08 
L 605.305 30.48 
L 589.305 30.48 
z
" style="fill: #4969be"/>
    </g>
    <g id="text_17">
     <!-- 2017 -->
     <g style="fill: #37539c" transform="translate(611.705 36.08) scale(0.08 -0.08)">
      <defs>
       <path id="OpenSans-Bold-37" d="M 709 0 
L 2425 3756 
L 172 3756 
L 172 4569 
L 3450 4569 
L 3450 3963 
L 1722 0 
L 709 0 
z
" transform="scale(0.015625)"/>
      </defs>
      <use xlink:href="#OpenSans-Bold-32"/>
      <use xlink:href="#OpenSans-Bold-30" x="57.177734"/>
      <use xlink:href="#OpenSans-Bold-31" x="114.355469"/>
      <use xlink:href="#OpenSans-Bold-37" x="171.533203"/>
     </g>
    </g>
    <g id="patch_54">
     <path d="M 589.305 48.08125 
L 605.305 48.08125 
L 605.305 42.48125 
L 589.305 42.48125 
z
" style="fill: #4062bb"/>
    </g>
    <g id="text_18">
     <!-- 2018 -->
     <g style="fill: #37539c" transform="translate(611.705 48.08125) scale(0.08 -0.08)">
      <defs>
       <path id="OpenSans-Bold-38" d="M 1831 4628 
Q 2225 4628 2558 4506 
Q 2891 4384 3091 4139 
Q 3291 3894 3291 3525 
Q 3291 3250 3183 3044 
Q 3075 2838 2890 2683 
Q 2706 2528 2472 2413 
Q 2716 2284 2934 2114 
Q 3153 1944 3292 1716 
Q 3431 1488 3431 1184 
Q 3431 803 3228 523 
Q 3025 244 2665 90 
Q 2306 -63 1831 -63 
Q 1319 -63 959 84 
Q 600 231 412 504 
Q 225 778 225 1159 
Q 225 1472 342 1703 
Q 459 1934 659 2101 
Q 859 2269 1100 2388 
Q 897 2516 730 2678 
Q 563 2841 464 3050 
Q 366 3259 366 3531 
Q 366 3894 570 4137 
Q 775 4381 1109 4504 
Q 1444 4628 1831 4628 
z
M 1119 1216 
Q 1119 969 1295 808 
Q 1472 647 1819 647 
Q 2178 647 2356 801 
Q 2534 956 2534 1209 
Q 2534 1384 2432 1515 
Q 2331 1647 2178 1751 
Q 2025 1856 1869 1947 
L 1784 1991 
Q 1584 1900 1436 1787 
Q 1288 1675 1203 1534 
Q 1119 1394 1119 1216 
z
M 1825 3922 
Q 1588 3922 1431 3800 
Q 1275 3678 1275 3456 
Q 1275 3300 1351 3183 
Q 1428 3066 1554 2978 
Q 1681 2891 1831 2816 
Q 1975 2884 2100 2968 
Q 2225 3053 2303 3172 
Q 2381 3291 2381 3456 
Q 2381 3678 2223 3800 
Q 2066 3922 1825 3922 
z
" transform="scale(0.015625)"/>
      </defs>
      <use xlink:href="#OpenSans-Bold-32"/>
      <use xlink:href="#OpenSans-Bold-30" x="57.177734"/>
      <use xlink:href="#OpenSans-Bold-31" x="114.355469"/>
      <use xlink:href="#OpenSans-Bold-38" x="171.533203"/>
     </g>
    </g>
    <g id="patch_55">
     <path d="M 589.305 60.0825 
L 605.305 60.0825 
L 605.305 54.4825 
L 589.305 54.4825 
z
" style="fill: #354f95"/>
    </g>
    <g id="text_19">
     <!-- 2019 -->
     <g style="fill: #37539c" transform="translate(611.705 60.0825) scale(0.08 -0.08)">
      <defs>
       <path id="OpenSans-Bold-39" d="M 3431 2619 
Q 3431 2225 3373 1837 
Q 3316 1450 3172 1108 
Q 3028 766 2768 502 
Q 2509 238 2109 87 
Q 1709 -63 1141 -63 
Q 1006 -63 825 -52 
Q 644 -41 525 -19 
L 525 756 
Q 650 725 790 708 
Q 931 691 1075 691 
Q 1647 691 1958 872 
Q 2269 1053 2395 1375 
Q 2522 1697 2541 2119 
L 2503 2119 
Q 2413 1969 2289 1848 
Q 2166 1728 1975 1658 
Q 1784 1588 1491 1588 
Q 1100 1588 811 1758 
Q 522 1928 364 2251 
Q 206 2575 206 3034 
Q 206 3531 395 3886 
Q 584 4241 934 4431 
Q 1284 4622 1759 4622 
Q 2109 4622 2412 4501 
Q 2716 4381 2945 4134 
Q 3175 3888 3303 3509 
Q 3431 3131 3431 2619 
z
M 1778 3847 
Q 1497 3847 1319 3653 
Q 1141 3459 1141 3047 
Q 1141 2716 1294 2522 
Q 1447 2328 1759 2328 
Q 1975 2328 2134 2423 
Q 2294 2519 2383 2664 
Q 2472 2809 2472 2963 
Q 2472 3122 2428 3278 
Q 2384 3434 2296 3562 
Q 2209 3691 2079 3769 
Q 1950 3847 1778 3847 
z
" transform="scale(0.015625)"/>
      </defs>
      <use xlink:href="#OpenSans-Bold-32"/>
      <use xlink:href="#OpenSans-Bold-30" x="57.177734"/>
      <use xlink:href="#OpenSans-Bold-31" x="114.355469"/>
      <use xlink:href="#OpenSans-Bold-39" x="171.533203"/>
     </g>
    </g>
    <g id="patch_56">
     <path d="M 589.305 72.08375 
L 605.305 72.08375 
L 605.305 66.48375 
L 589.305 66.48375 
z
" style="fill: #2d4175"/>
    </g>
    <g id="text_20">
     <!-- 2020 -->
     <g style="fill: #37539c" transform="translate(611.705 72.08375) scale(0.08 -0.08)">
      <use xlink:href="#OpenSans-Bold-32"/>
      <use xlink:href="#OpenSans-Bold-30" x="57.177734"/>
      <use xlink:href="#OpenSans-Bold-32" x="114.355469"/>
      <use xlink:href="#OpenSans-Bold-30" x="171.533203"/>
     </g>
    </g>
    <g id="patch_57">
     <path d="M 589.305 84.085 
L 605.305 84.085 
L 605.305 78.485 
L 589.305 78.485 
z
" style="fill: #27355a"/>
    </g>
    <g id="text_21">
     <!-- 2021 -->
     <g style="fill: #37539c" transform="translate(611.705 84.085) scale(0.08 -0.08)">
      <use xlink:href="#OpenSans-Bold-32"/>
      <use xlink:href="#OpenSans-Bold-30" x="57.177734"/>
      <use xlink:href="#OpenSans-Bold-32" x="114.355469"/>
      <use xlink:href="#OpenSans-Bold-31" x="171.533203"/>
     </g>
    </g>
   </g>
  </g>
 </g>
 <defs>
  <clipPath id="pe3137216a2">
   <rect x="52.27" y="10.8" width="584.93" height="321.32"/>
  </clipPath>
 </defs>
</svg>
