<?xml version="1.0" encoding="utf-8" standalone="no"?>
<!DOCTYPE svg PUBLIC "-//W3C//DTD SVG 1.1//EN"
  "http://www.w3.org/Graphics/SVG/1.1/DTD/svg11.dtd">
<svg xmlns:xlink="http://www.w3.org/1999/xlink" width="460.8pt" height="345.6pt" viewBox="0 0 460.8 345.6" xmlns="http://www.w3.org/2000/svg" version="1.1">
 <metadata>
  <rdf:RDF xmlns:dc="http://purl.org/dc/elements/1.1/" xmlns:cc="http://creativecommons.org/ns#" xmlns:rdf="http://www.w3.org/1999/02/22-rdf-syntax-ns#">
   <cc:Work>
    <dc:type rdf:resource="http://purl.org/dc/dcmitype/StillImage"/>
    <dc:date>2024-02-26T21:22:30.358588</dc:date>
    <dc:format>image/svg+xml</dc:format>
    <dc:creator>
     <cc:Agent>
      <dc:title>Matplotlib v3.7.1, https://matplotlib.org/</dc:title>
     </cc:Agent>
    </dc:creator>
   </cc:Work>
  </rdf:RDF>
 </metadata>
 <defs>
  <style type="text/css">*{stroke-linejoin: round; stroke-linecap: butt}</style>
 </defs>
 <g id="figure_1">
  <g id="patch_1">
   <path d="M 0 345.6 
L 460.8 345.6 
L 460.8 0 
L 0 0 
z
" style="fill: #ffffff"/>
  </g>
  <g id="axes_1">
   <g id="matplotlib.axis_1"/>
   <g id="matplotlib.axis_2"/>
   <g id="patch_2">
    <path d="M 342.6048 174.528 
C 342.6048 160.795931 339.947511 147.192717 334.779785 134.470125 
C 329.61206 121.747533 322.030881 110.144329 312.455213 100.301752 
C 302.879546 90.459175 291.489098 82.561941 278.91335 77.046481 
C 266.337602 71.531022 252.812564 68.500847 239.085683 68.123414 
C 225.358802 67.745982 211.68769 70.028377 198.827868 74.844464 
C 185.968045 79.660551 174.160853 86.919947 164.058803 96.221469 
C 153.956753 105.522991 145.74943 116.692077 139.890404 129.111479 
C 134.031379 141.53088 130.630606 154.967523 129.876027 168.678845 
C 129.121448 182.390166 131.027224 196.118846 135.488034 209.106182 
C 139.948843 222.093518 146.880971 234.095777 155.901319 244.449668 
C 164.921668 254.803558 175.860952 263.314767 188.114624 269.512932 
C 200.368296 275.711097 213.70639 279.479897 227.391792 280.611052 
C 241.077193 281.742208 254.853067 280.214491 267.958104 276.11233 
C 281.063141 272.010168 293.251399 265.410547 303.849306 256.678188 
C 314.447212 247.945828 323.255877 237.244611 329.788498 225.165928 
C 336.321119 213.087245 340.455099 199.857777 341.961976 186.208636 
L 236.16 174.528 
z
" style="fill: #59c3c3"/>
   </g>
   <g id="patch_3">
    <path d="M 341.961976 186.208636 
C 342.176049 184.269591 342.336775 182.325028 342.443973 180.37715 
C 342.551171 178.429272 342.6048 176.478814 342.6048 174.527989 
L 236.16 174.528 
z
" style="fill: #f45b69"/>
   </g>
   <g id="text_1">
    <!-- Universidades -->
    <g style="fill: #37539c" transform="translate(62.51388 170.172054) scale(0.08 -0.08)">
     <defs>
      <path id="OpenSans-Bold-55" d="M 4294 4569 
L 4294 1613 
Q 4294 1141 4086 761 
Q 3878 381 3458 159 
Q 3038 -63 2400 -63 
Q 1494 -63 1019 400 
Q 544 863 544 1625 
L 544 4569 
L 1509 4569 
L 1509 1772 
Q 1509 1206 1740 978 
Q 1972 750 2425 750 
Q 2744 750 2942 859 
Q 3141 969 3234 1197 
Q 3328 1425 3328 1778 
L 3328 4569 
L 4294 4569 
z
" transform="scale(0.015625)"/>
      <path id="OpenSans-Bold-6e" d="M 2484 3559 
Q 3044 3559 3384 3254 
Q 3725 2950 3725 2278 
L 3725 0 
L 2772 0 
L 2772 2041 
Q 2772 2416 2636 2606 
Q 2500 2797 2209 2797 
Q 1772 2797 1612 2500 
Q 1453 2203 1453 1644 
L 1453 0 
L 500 0 
L 500 3494 
L 1228 3494 
L 1356 3047 
L 1409 3047 
Q 1522 3228 1689 3340 
Q 1856 3453 2061 3506 
Q 2266 3559 2484 3559 
z
" transform="scale(0.015625)"/>
      <path id="OpenSans-Bold-69" d="M 1453 3494 
L 1453 0 
L 500 0 
L 500 3494 
L 1453 3494 
z
M 978 4863 
Q 1191 4863 1344 4764 
Q 1497 4666 1497 4397 
Q 1497 4131 1344 4029 
Q 1191 3928 978 3928 
Q 763 3928 611 4029 
Q 459 4131 459 4397 
Q 459 4666 611 4764 
Q 763 4863 978 4863 
z
" transform="scale(0.015625)"/>
      <path id="OpenSans-Bold-76" d="M 1331 0 
L 0 3494 
L 997 3494 
L 1672 1503 
Q 1728 1328 1761 1134 
Q 1794 941 1806 788 
L 1831 788 
Q 1841 953 1877 1140 
Q 1913 1328 1972 1503 
L 2644 3494 
L 3641 3494 
L 2309 0 
L 1331 0 
z
" transform="scale(0.015625)"/>
      <path id="OpenSans-Bold-65" d="M 1941 3559 
Q 2425 3559 2775 3373 
Q 3125 3188 3315 2834 
Q 3506 2481 3506 1972 
L 3506 1509 
L 1253 1509 
Q 1269 1106 1495 876 
Q 1722 647 2125 647 
Q 2459 647 2737 715 
Q 3016 784 3309 922 
L 3309 184 
Q 3050 56 2767 -3 
Q 2484 -63 2081 -63 
Q 1556 -63 1151 131 
Q 747 325 517 722 
Q 288 1119 288 1722 
Q 288 2334 495 2742 
Q 703 3150 1075 3354 
Q 1447 3559 1941 3559 
z
M 1947 2881 
Q 1669 2881 1486 2703 
Q 1303 2525 1275 2144 
L 2613 2144 
Q 2609 2356 2536 2522 
Q 2463 2688 2317 2784 
Q 2172 2881 1947 2881 
z
" transform="scale(0.015625)"/>
      <path id="OpenSans-Bold-72" d="M 2450 3559 
Q 2522 3559 2617 3551 
Q 2713 3544 2772 3531 
L 2700 2638 
Q 2653 2653 2567 2661 
Q 2481 2669 2419 2669 
Q 2234 2669 2061 2622 
Q 1888 2575 1750 2470 
Q 1613 2366 1533 2195 
Q 1453 2025 1453 1778 
L 1453 0 
L 500 0 
L 500 3494 
L 1222 3494 
L 1363 2906 
L 1409 2906 
Q 1513 3084 1667 3232 
Q 1822 3381 2020 3470 
Q 2219 3559 2450 3559 
z
" transform="scale(0.015625)"/>
      <path id="OpenSans-Bold-73" d="M 2938 1038 
Q 2938 681 2770 436 
Q 2603 191 2272 64 
Q 1941 -63 1447 -63 
Q 1081 -63 820 -16 
Q 559 31 294 141 
L 294 928 
Q 578 800 904 717 
Q 1231 634 1478 634 
Q 1756 634 1876 717 
Q 1997 800 1997 934 
Q 1997 1022 1948 1092 
Q 1900 1163 1740 1252 
Q 1581 1341 1241 1484 
Q 913 1622 702 1762 
Q 491 1903 389 2095 
Q 288 2288 288 2584 
Q 288 3069 664 3314 
Q 1041 3559 1672 3559 
Q 1997 3559 2292 3493 
Q 2588 3428 2900 3284 
L 2613 2597 
Q 2353 2709 2123 2781 
Q 1894 2853 1656 2853 
Q 1447 2853 1340 2797 
Q 1234 2741 1234 2625 
Q 1234 2541 1289 2475 
Q 1344 2409 1501 2329 
Q 1659 2250 1966 2125 
Q 2263 2003 2481 1870 
Q 2700 1738 2819 1542 
Q 2938 1347 2938 1038 
z
" transform="scale(0.015625)"/>
      <path id="OpenSans-Bold-64" d="M 1606 -63 
Q 1022 -63 655 395 
Q 288 853 288 1741 
Q 288 2638 659 3098 
Q 1031 3559 1631 3559 
Q 1881 3559 2072 3490 
Q 2263 3422 2402 3306 
Q 2541 3191 2638 3047 
L 2669 3047 
Q 2650 3147 2623 3342 
Q 2597 3538 2597 3744 
L 2597 4863 
L 3553 4863 
L 3553 0 
L 2822 0 
L 2638 453 
L 2597 453 
Q 2506 309 2370 192 
Q 2234 75 2046 6 
Q 1859 -63 1606 -63 
z
M 1941 697 
Q 2331 697 2492 930 
Q 2653 1163 2663 1631 
L 2663 1734 
Q 2663 2244 2506 2514 
Q 2350 2784 1925 2784 
Q 1609 2784 1431 2512 
Q 1253 2241 1253 1728 
Q 1253 1216 1433 956 
Q 1613 697 1941 697 
z
" transform="scale(0.015625)"/>
      <path id="OpenSans-Bold-61" d="M 1931 3566 
Q 2634 3566 3009 3259 
Q 3384 2953 3384 2328 
L 3384 0 
L 2719 0 
L 2534 475 
L 2509 475 
Q 2359 288 2203 169 
Q 2047 50 1844 -6 
Q 1641 -63 1350 -63 
Q 1041 -63 795 56 
Q 550 175 409 420 
Q 269 666 269 1044 
Q 269 1600 659 1864 
Q 1050 2128 1831 2156 
L 2438 2175 
L 2438 2328 
Q 2438 2603 2294 2731 
Q 2150 2859 1894 2859 
Q 1641 2859 1397 2787 
Q 1153 2716 909 2606 
L 594 3250 
Q 872 3397 1217 3481 
Q 1563 3566 1931 3566 
z
M 2438 1619 
L 2069 1606 
Q 1606 1594 1426 1441 
Q 1247 1288 1247 1038 
Q 1247 819 1375 726 
Q 1503 634 1709 634 
Q 2016 634 2227 815 
Q 2438 997 2438 1331 
L 2438 1619 
z
" transform="scale(0.015625)"/>
     </defs>
     <use xlink:href="#OpenSans-Bold-55"/>
     <use xlink:href="#OpenSans-Bold-6e" x="75.585938"/>
     <use xlink:href="#OpenSans-Bold-69" x="141.308594"/>
     <use xlink:href="#OpenSans-Bold-76" x="171.826172"/>
     <use xlink:href="#OpenSans-Bold-65" x="228.710938"/>
     <use xlink:href="#OpenSans-Bold-72" x="287.792969"/>
     <use xlink:href="#OpenSans-Bold-73" x="333.203125"/>
     <use xlink:href="#OpenSans-Bold-69" x="382.910156"/>
     <use xlink:href="#OpenSans-Bold-64" x="413.427734"/>
     <use xlink:href="#OpenSans-Bold-61" x="476.708984"/>
     <use xlink:href="#OpenSans-Bold-64" x="537.109375"/>
     <use xlink:href="#OpenSans-Bold-65" x="600.390625"/>
     <use xlink:href="#OpenSans-Bold-73" x="659.472656"/>
    </g>
   </g>
   <g id="text_2">
    <!-- 98.3% -->
    <g style="fill: #37539c" transform="translate(160.784616 173.096632) scale(0.08 -0.08)">
     <defs>
      <path id="OpenSans-Bold-39" d="M 3431 2619 
Q 3431 2225 3373 1837 
Q 3316 1450 3172 1108 
Q 3028 766 2768 502 
Q 2509 238 2109 87 
Q 1709 -63 1141 -63 
Q 1006 -63 825 -52 
Q 644 -41 525 -19 
L 525 756 
Q 650 725 790 708 
Q 931 691 1075 691 
Q 1647 691 1958 872 
Q 2269 1053 2395 1375 
Q 2522 1697 2541 2119 
L 2503 2119 
Q 2413 1969 2289 1848 
Q 2166 1728 1975 1658 
Q 1784 1588 1491 1588 
Q 1100 1588 811 1758 
Q 522 1928 364 2251 
Q 206 2575 206 3034 
Q 206 3531 395 3886 
Q 584 4241 934 4431 
Q 1284 4622 1759 4622 
Q 2109 4622 2412 4501 
Q 2716 4381 2945 4134 
Q 3175 3888 3303 3509 
Q 3431 3131 3431 2619 
z
M 1778 3847 
Q 1497 3847 1319 3653 
Q 1141 3459 1141 3047 
Q 1141 2716 1294 2522 
Q 1447 2328 1759 2328 
Q 1975 2328 2134 2423 
Q 2294 2519 2383 2664 
Q 2472 2809 2472 2963 
Q 2472 3122 2428 3278 
Q 2384 3434 2296 3562 
Q 2209 3691 2079 3769 
Q 1950 3847 1778 3847 
z
" transform="scale(0.015625)"/>
      <path id="OpenSans-Bold-38" d="M 1831 4628 
Q 2225 4628 2558 4506 
Q 2891 4384 3091 4139 
Q 3291 3894 3291 3525 
Q 3291 3250 3183 3044 
Q 3075 2838 2890 2683 
Q 2706 2528 2472 2413 
Q 2716 2284 2934 2114 
Q 3153 1944 3292 1716 
Q 3431 1488 3431 1184 
Q 3431 803 3228 523 
Q 3025 244 2665 90 
Q 2306 -63 1831 -63 
Q 1319 -63 959 84 
Q 600 231 412 504 
Q 225 778 225 1159 
Q 225 1472 342 1703 
Q 459 1934 659 2101 
Q 859 2269 1100 2388 
Q 897 2516 730 2678 
Q 563 2841 464 3050 
Q 366 3259 366 3531 
Q 366 3894 570 4137 
Q 775 4381 1109 4504 
Q 1444 4628 1831 4628 
z
M 1119 1216 
Q 1119 969 1295 808 
Q 1472 647 1819 647 
Q 2178 647 2356 801 
Q 2534 956 2534 1209 
Q 2534 1384 2432 1515 
Q 2331 1647 2178 1751 
Q 2025 1856 1869 1947 
L 1784 1991 
Q 1584 1900 1436 1787 
Q 1288 1675 1203 1534 
Q 1119 1394 1119 1216 
z
M 1825 3922 
Q 1588 3922 1431 3800 
Q 1275 3678 1275 3456 
Q 1275 3300 1351 3183 
Q 1428 3066 1554 2978 
Q 1681 2891 1831 2816 
Q 1975 2884 2100 2968 
Q 2225 3053 2303 3172 
Q 2381 3291 2381 3456 
Q 2381 3678 2223 3800 
Q 2066 3922 1825 3922 
z
" transform="scale(0.015625)"/>
      <path id="OpenSans-Bold-2e" d="M 366 447 
Q 366 741 527 859 
Q 688 978 916 978 
Q 1138 978 1298 859 
Q 1459 741 1459 447 
Q 1459 166 1298 41 
Q 1138 -84 916 -84 
Q 688 -84 527 41 
Q 366 166 366 447 
z
" transform="scale(0.015625)"/>
      <path id="OpenSans-Bold-33" d="M 3272 3547 
Q 3272 3231 3140 3000 
Q 3009 2769 2786 2622 
Q 2563 2475 2284 2406 
L 2284 2388 
Q 2834 2319 3120 2050 
Q 3406 1781 3406 1331 
Q 3406 931 3211 615 
Q 3016 300 2609 118 
Q 2203 -63 1563 -63 
Q 1184 -63 857 -2 
Q 531 59 244 184 
L 244 1006 
Q 538 856 859 779 
Q 1181 703 1459 703 
Q 1978 703 2186 883 
Q 2394 1063 2394 1388 
Q 2394 1578 2297 1709 
Q 2200 1841 1961 1909 
Q 1722 1978 1294 1978 
L 947 1978 
L 947 2719 
L 1300 2719 
Q 1722 2719 1942 2798 
Q 2163 2878 2242 3017 
Q 2322 3156 2322 3334 
Q 2322 3578 2172 3715 
Q 2022 3853 1672 3853 
Q 1453 3853 1273 3798 
Q 1094 3744 950 3667 
Q 806 3591 697 3519 
L 250 4184 
Q 519 4378 880 4506 
Q 1241 4634 1741 4634 
Q 2447 4634 2859 4350 
Q 3272 4066 3272 3547 
z
" transform="scale(0.015625)"/>
      <path id="OpenSans-Bold-25" d="M 1275 4634 
Q 1813 4634 2091 4259 
Q 2369 3884 2369 3206 
Q 2369 2528 2106 2147 
Q 1844 1766 1275 1766 
Q 747 1766 472 2147 
Q 197 2528 197 3206 
Q 197 3884 455 4259 
Q 713 4634 1275 4634 
z
M 1281 3981 
Q 1128 3981 1056 3787 
Q 984 3594 984 3200 
Q 984 2806 1056 2609 
Q 1128 2413 1281 2413 
Q 1434 2413 1507 2608 
Q 1581 2803 1581 3200 
Q 1581 3594 1507 3787 
Q 1434 3981 1281 3981 
z
M 4519 4569 
L 1984 0 
L 1234 0 
L 3769 4569 
L 4519 4569 
z
M 4475 2809 
Q 5013 2809 5291 2434 
Q 5569 2059 5569 1381 
Q 5569 706 5306 325 
Q 5044 -56 4475 -56 
Q 3947 -56 3672 325 
Q 3397 706 3397 1381 
Q 3397 2059 3655 2434 
Q 3913 2809 4475 2809 
z
M 4481 2156 
Q 4328 2156 4256 1962 
Q 4184 1769 4184 1375 
Q 4184 981 4256 784 
Q 4328 588 4481 588 
Q 4634 588 4707 783 
Q 4781 978 4781 1375 
Q 4781 1769 4707 1962 
Q 4634 2156 4481 2156 
z
" transform="scale(0.015625)"/>
     </defs>
     <use xlink:href="#OpenSans-Bold-39"/>
     <use xlink:href="#OpenSans-Bold-38" x="57.177734"/>
     <use xlink:href="#OpenSans-Bold-2e" x="114.355469"/>
     <use xlink:href="#OpenSans-Bold-33" x="142.871094"/>
     <use xlink:href="#OpenSans-Bold-25" x="200.048828"/>
    </g>
   </g>
   <g id="text_3">
    <!-- Otros -->
    <g style="fill: #37539c" transform="translate(353.07237 183.04019) scale(0.08 -0.08)">
     <defs>
      <path id="OpenSans-Bold-4f" d="M 4722 2291 
Q 4722 1763 4590 1330 
Q 4459 897 4192 584 
Q 3925 272 3515 104 
Q 3106 -63 2547 -63 
Q 1988 -63 1578 104 
Q 1169 272 901 584 
Q 634 897 503 1331 
Q 372 1766 372 2297 
Q 372 3006 605 3532 
Q 838 4059 1322 4350 
Q 1806 4641 2553 4641 
Q 3297 4641 3776 4350 
Q 4256 4059 4489 3531 
Q 4722 3003 4722 2291 
z
M 1388 2291 
Q 1388 1813 1508 1467 
Q 1628 1122 1884 936 
Q 2141 750 2547 750 
Q 2959 750 3215 936 
Q 3472 1122 3589 1467 
Q 3706 1813 3706 2291 
Q 3706 3009 3437 3421 
Q 3169 3834 2553 3834 
Q 2144 3834 1886 3648 
Q 1628 3463 1508 3117 
Q 1388 2772 1388 2291 
z
" transform="scale(0.015625)"/>
      <path id="OpenSans-Bold-74" d="M 1972 697 
Q 2128 697 2276 728 
Q 2425 759 2572 806 
L 2572 97 
Q 2419 28 2192 -17 
Q 1966 -63 1697 -63 
Q 1384 -63 1136 39 
Q 888 141 745 392 
Q 603 644 603 1094 
L 603 2778 
L 147 2778 
L 147 3181 
L 672 3500 
L 947 4238 
L 1556 4238 
L 1556 3494 
L 2534 3494 
L 2534 2778 
L 1556 2778 
L 1556 1094 
Q 1556 894 1670 795 
Q 1784 697 1972 697 
z
" transform="scale(0.015625)"/>
      <path id="OpenSans-Bold-6f" d="M 3675 1753 
Q 3675 1316 3558 978 
Q 3441 641 3217 408 
Q 2994 175 2680 56 
Q 2366 -63 1972 -63 
Q 1603 -63 1295 56 
Q 988 175 761 408 
Q 534 641 411 978 
Q 288 1316 288 1753 
Q 288 2334 494 2737 
Q 700 3141 1081 3350 
Q 1463 3559 1991 3559 
Q 2481 3559 2861 3350 
Q 3241 3141 3458 2737 
Q 3675 2334 3675 1753 
z
M 1259 1753 
Q 1259 1409 1334 1175 
Q 1409 941 1568 822 
Q 1728 703 1984 703 
Q 2238 703 2395 822 
Q 2553 941 2626 1175 
Q 2700 1409 2700 1753 
Q 2700 2100 2626 2329 
Q 2553 2559 2393 2675 
Q 2234 2791 1978 2791 
Q 1600 2791 1429 2531 
Q 1259 2272 1259 1753 
z
" transform="scale(0.015625)"/>
     </defs>
     <use xlink:href="#OpenSans-Bold-4f"/>
     <use xlink:href="#OpenSans-Bold-74" x="79.589844"/>
     <use xlink:href="#OpenSans-Bold-72" x="122.998047"/>
     <use xlink:href="#OpenSans-Bold-6f" x="168.408203"/>
     <use xlink:href="#OpenSans-Bold-73" x="230.322266"/>
    </g>
   </g>
   <g id="text_4">
    <!-- 1.8% -->
    <g style="fill: #37539c" transform="translate(290.612259 180.115615) scale(0.08 -0.08)">
     <defs>
      <path id="OpenSans-Bold-31" d="M 2644 0 
L 1678 0 
L 1678 2644 
Q 1678 2753 1681 2914 
Q 1684 3075 1690 3245 
Q 1697 3416 1703 3553 
Q 1669 3513 1564 3414 
Q 1459 3316 1369 3238 
L 844 2816 
L 378 3397 
L 1850 4569 
L 2644 4569 
L 2644 0 
z
" transform="scale(0.015625)"/>
     </defs>
     <use xlink:href="#OpenSans-Bold-31"/>
     <use xlink:href="#OpenSans-Bold-2e" x="57.177734"/>
     <use xlink:href="#OpenSans-Bold-38" x="85.693359"/>
     <use xlink:href="#OpenSans-Bold-25" x="142.871094"/>
    </g>
   </g>
   <g id="legend_1">
    <g id="patch_4">
     <path d="M 259.298812 79.475125 
L 362.216 79.475125 
Q 364.216 79.475125 364.216 77.475125 
L 364.216 48.472 
Q 364.216 46.472 362.216 46.472 
L 259.298812 46.472 
Q 257.298812 46.472 257.298812 48.472 
L 257.298812 77.475125 
Q 257.298812 79.475125 259.298812 79.475125 
z
" style="fill: #ffffff; opacity: 0.8; stroke: #cccccc; stroke-linejoin: miter"/>
    </g>
    <g id="patch_5">
     <path d="M 261.298812 58.070437 
L 281.298812 58.070437 
L 281.298812 51.070437 
L 261.298812 51.070437 
z
" style="fill: #59c3c3"/>
    </g>
    <g id="text_5">
     <!-- Universidades -->
     <g style="fill: #37539c" transform="translate(289.298812 58.070437) scale(0.1 -0.1)">
      <use xlink:href="#OpenSans-Bold-55"/>
      <use xlink:href="#OpenSans-Bold-6e" x="75.585938"/>
      <use xlink:href="#OpenSans-Bold-69" x="141.308594"/>
      <use xlink:href="#OpenSans-Bold-76" x="171.826172"/>
      <use xlink:href="#OpenSans-Bold-65" x="228.710938"/>
      <use xlink:href="#OpenSans-Bold-72" x="287.792969"/>
      <use xlink:href="#OpenSans-Bold-73" x="333.203125"/>
      <use xlink:href="#OpenSans-Bold-69" x="382.910156"/>
      <use xlink:href="#OpenSans-Bold-64" x="413.427734"/>
      <use xlink:href="#OpenSans-Bold-61" x="476.708984"/>
      <use xlink:href="#OpenSans-Bold-64" x="537.109375"/>
      <use xlink:href="#OpenSans-Bold-65" x="600.390625"/>
      <use xlink:href="#OpenSans-Bold-73" x="659.472656"/>
     </g>
    </g>
    <g id="patch_6">
     <path d="M 261.298812 73.072 
L 281.298812 73.072 
L 281.298812 66.072 
L 261.298812 66.072 
z
" style="fill: #f45b69"/>
    </g>
    <g id="text_6">
     <!-- Otros -->
     <g style="fill: #37539c" transform="translate(289.298812 73.072) scale(0.1 -0.1)">
      <use xlink:href="#OpenSans-Bold-4f"/>
      <use xlink:href="#OpenSans-Bold-74" x="79.589844"/>
      <use xlink:href="#OpenSans-Bold-72" x="122.998047"/>
      <use xlink:href="#OpenSans-Bold-6f" x="168.408203"/>
      <use xlink:href="#OpenSans-Bold-73" x="230.322266"/>
     </g>
    </g>
   </g>
  </g>
 </g>
</svg>
