<?xml version="1.0" encoding="utf-8" standalone="no"?>
<!DOCTYPE svg PUBLIC "-//W3C//DTD SVG 1.1//EN"
  "http://www.w3.org/Graphics/SVG/1.1/DTD/svg11.dtd">
<svg xmlns:xlink="http://www.w3.org/1999/xlink" width="504pt" height="504pt" viewBox="0 0 504 504" xmlns="http://www.w3.org/2000/svg" version="1.1">
 <metadata>
  <rdf:RDF xmlns:dc="http://purl.org/dc/elements/1.1/" xmlns:cc="http://creativecommons.org/ns#" xmlns:rdf="http://www.w3.org/1999/02/22-rdf-syntax-ns#">
   <cc:Work>
    <dc:type rdf:resource="http://purl.org/dc/dcmitype/StillImage"/>
    <dc:date>2024-02-26T21:22:06.318062</dc:date>
    <dc:format>image/svg+xml</dc:format>
    <dc:creator>
     <cc:Agent>
      <dc:title>Matplotlib v3.7.1, https://matplotlib.org/</dc:title>
     </cc:Agent>
    </dc:creator>
   </cc:Work>
  </rdf:RDF>
 </metadata>
 <defs>
  <style type="text/css">*{stroke-linejoin: round; stroke-linecap: butt}</style>
 </defs>
 <g id="figure_1">
  <g id="patch_1">
   <path d="M 0 504 
L 504 504 
L 504 0 
L 0 0 
z
" style="fill: #ffffff"/>
  </g>
  <g id="axes_1">
   <g id="matplotlib.axis_1"/>
   <g id="matplotlib.axis_2"/>
   <g id="patch_2">
    <path d="M 352.509178 258.96 
C 352.509178 249.836733 351.300617 240.753534 348.915066 231.947676 
C 346.529515 223.141817 342.987927 214.690647 338.382816 206.814928 
L 249.203651 258.96 
z
" style="fill: #59c3c3"/>
   </g>
   <g id="patch_3">
    <path d="M 338.382816 206.814928 
C 325.0052 183.936361 303.323403 167.060741 277.860903 159.708835 
C 252.398403 152.356928 225.058297 155.078225 201.544559 167.304979 
L 249.203651 258.96 
z
" style="fill: #f45b69"/>
   </g>
   <g id="patch_4">
    <path d="M 201.544559 167.304979 
C 190.400432 173.09974 180.406029 180.878697 172.052864 190.259286 
C 163.6997 199.639876 157.126991 210.465759 152.657976 222.204529 
L 249.203651 258.96 
z
" style="fill: #9fb7b9"/>
   </g>
   <g id="patch_5">
    <path d="M 152.657976 222.204529 
C 143.647374 245.872699 143.647374 272.047301 152.657976 295.715471 
C 161.668579 319.38364 179.075333 338.931395 201.544559 350.615021 
L 249.203651 258.96 
z
" style="fill: #ebebeb"/>
   </g>
   <g id="patch_6">
    <path d="M 201.544559 350.615021 
C 216.776694 358.535479 233.745711 362.535266 250.911696 362.251406 
C 268.077681 361.967546 284.905174 357.408894 299.867106 348.989141 
L 249.203651 258.96 
z
" style="fill: #46b1c9"/>
   </g>
   <g id="patch_7">
    <path d="M 299.867106 348.989141 
C 311.814876 342.265593 322.305564 333.230435 330.726224 322.411572 
C 339.146884 311.592709 345.330258 299.205033 348.915065 285.972329 
L 249.203651 258.96 
z
" style="fill: #84c0c6"/>
   </g>
   <g id="patch_8">
    <path d="M 348.915065 285.972329 
C 350.106541 281.574198 351.005719 277.102051 351.606708 272.585196 
C 352.207696 268.06834 352.509178 263.516667 352.509178 258.960005 
L 249.203651 258.96 
z
" style="fill: #bcc1ba"/>
   </g>
   <g id="text_1">
    <!-- Apropiación Social del Conocimiento -->
    <g style="fill: #37539c" transform="translate(358.886208 231.349568) scale(0.08 -0.08)">
     <defs>
      <path id="OpenSans-Bold-41" d="M 3372 0 
L 3041 1088 
L 1375 1088 
L 1044 0 
L 0 0 
L 1613 4588 
L 2797 4588 
L 4416 0 
L 3372 0 
z
M 2809 1900 
L 2478 2963 
Q 2447 3069 2395 3236 
Q 2344 3403 2292 3576 
Q 2241 3750 2209 3878 
Q 2178 3750 2123 3561 
Q 2069 3372 2019 3203 
Q 1969 3034 1947 2963 
L 1619 1900 
L 2809 1900 
z
" transform="scale(0.015625)"/>
      <path id="OpenSans-Bold-70" d="M 2444 3559 
Q 3034 3559 3398 3100 
Q 3763 2641 3763 1753 
Q 3763 1159 3591 754 
Q 3419 350 3116 143 
Q 2813 -63 2419 -63 
Q 2166 -63 1984 1 
Q 1803 66 1675 167 
Q 1547 269 1453 384 
L 1403 384 
Q 1428 259 1440 128 
Q 1453 -3 1453 -128 
L 1453 -1538 
L 500 -1538 
L 500 3494 
L 1275 3494 
L 1409 3041 
L 1453 3041 
Q 1547 3181 1681 3300 
Q 1816 3419 2005 3489 
Q 2194 3559 2444 3559 
z
M 2138 2797 
Q 1888 2797 1741 2694 
Q 1594 2591 1526 2384 
Q 1459 2178 1453 1863 
L 1453 1759 
Q 1453 1422 1517 1187 
Q 1581 953 1732 831 
Q 1884 709 2150 709 
Q 2369 709 2509 831 
Q 2650 953 2720 1189 
Q 2791 1425 2791 1766 
Q 2791 2278 2631 2537 
Q 2472 2797 2138 2797 
z
" transform="scale(0.015625)"/>
      <path id="OpenSans-Bold-72" d="M 2450 3559 
Q 2522 3559 2617 3551 
Q 2713 3544 2772 3531 
L 2700 2638 
Q 2653 2653 2567 2661 
Q 2481 2669 2419 2669 
Q 2234 2669 2061 2622 
Q 1888 2575 1750 2470 
Q 1613 2366 1533 2195 
Q 1453 2025 1453 1778 
L 1453 0 
L 500 0 
L 500 3494 
L 1222 3494 
L 1363 2906 
L 1409 2906 
Q 1513 3084 1667 3232 
Q 1822 3381 2020 3470 
Q 2219 3559 2450 3559 
z
" transform="scale(0.015625)"/>
      <path id="OpenSans-Bold-6f" d="M 3675 1753 
Q 3675 1316 3558 978 
Q 3441 641 3217 408 
Q 2994 175 2680 56 
Q 2366 -63 1972 -63 
Q 1603 -63 1295 56 
Q 988 175 761 408 
Q 534 641 411 978 
Q 288 1316 288 1753 
Q 288 2334 494 2737 
Q 700 3141 1081 3350 
Q 1463 3559 1991 3559 
Q 2481 3559 2861 3350 
Q 3241 3141 3458 2737 
Q 3675 2334 3675 1753 
z
M 1259 1753 
Q 1259 1409 1334 1175 
Q 1409 941 1568 822 
Q 1728 703 1984 703 
Q 2238 703 2395 822 
Q 2553 941 2626 1175 
Q 2700 1409 2700 1753 
Q 2700 2100 2626 2329 
Q 2553 2559 2393 2675 
Q 2234 2791 1978 2791 
Q 1600 2791 1429 2531 
Q 1259 2272 1259 1753 
z
" transform="scale(0.015625)"/>
      <path id="OpenSans-Bold-69" d="M 1453 3494 
L 1453 0 
L 500 0 
L 500 3494 
L 1453 3494 
z
M 978 4863 
Q 1191 4863 1344 4764 
Q 1497 4666 1497 4397 
Q 1497 4131 1344 4029 
Q 1191 3928 978 3928 
Q 763 3928 611 4029 
Q 459 4131 459 4397 
Q 459 4666 611 4764 
Q 763 4863 978 4863 
z
" transform="scale(0.015625)"/>
      <path id="OpenSans-Bold-61" d="M 1931 3566 
Q 2634 3566 3009 3259 
Q 3384 2953 3384 2328 
L 3384 0 
L 2719 0 
L 2534 475 
L 2509 475 
Q 2359 288 2203 169 
Q 2047 50 1844 -6 
Q 1641 -63 1350 -63 
Q 1041 -63 795 56 
Q 550 175 409 420 
Q 269 666 269 1044 
Q 269 1600 659 1864 
Q 1050 2128 1831 2156 
L 2438 2175 
L 2438 2328 
Q 2438 2603 2294 2731 
Q 2150 2859 1894 2859 
Q 1641 2859 1397 2787 
Q 1153 2716 909 2606 
L 594 3250 
Q 872 3397 1217 3481 
Q 1563 3566 1931 3566 
z
M 2438 1619 
L 2069 1606 
Q 1606 1594 1426 1441 
Q 1247 1288 1247 1038 
Q 1247 819 1375 726 
Q 1503 634 1709 634 
Q 2016 634 2227 815 
Q 2438 997 2438 1331 
L 2438 1619 
z
" transform="scale(0.015625)"/>
      <path id="OpenSans-Bold-63" d="M 1919 -63 
Q 1400 -63 1034 126 
Q 669 316 478 712 
Q 288 1109 288 1728 
Q 288 2369 505 2773 
Q 722 3178 1108 3368 
Q 1494 3559 2003 3559 
Q 2366 3559 2630 3489 
Q 2894 3419 3091 3322 
L 2809 2584 
Q 2584 2675 2390 2733 
Q 2197 2791 2003 2791 
Q 1753 2791 1587 2673 
Q 1422 2556 1340 2322 
Q 1259 2088 1259 1734 
Q 1259 1388 1346 1159 
Q 1434 931 1600 820 
Q 1766 709 2003 709 
Q 2300 709 2531 789 
Q 2763 869 2981 1013 
L 2981 197 
Q 2763 59 2523 -2 
Q 2284 -63 1919 -63 
z
" transform="scale(0.015625)"/>
      <path id="OpenSans-Bold-f3" d="M 3675 1753 
Q 3675 1316 3558 978 
Q 3441 641 3217 408 
Q 2994 175 2680 56 
Q 2366 -63 1972 -63 
Q 1603 -63 1295 56 
Q 988 175 761 408 
Q 534 641 411 978 
Q 288 1316 288 1753 
Q 288 2334 494 2737 
Q 700 3141 1081 3350 
Q 1463 3559 1991 3559 
Q 2481 3559 2861 3350 
Q 3241 3141 3458 2737 
Q 3675 2334 3675 1753 
z
M 1259 1753 
Q 1259 1409 1334 1175 
Q 1409 941 1568 822 
Q 1728 703 1984 703 
Q 2238 703 2395 822 
Q 2553 941 2626 1175 
Q 2700 1409 2700 1753 
Q 2700 2100 2626 2329 
Q 2553 2559 2393 2675 
Q 2234 2791 1978 2791 
Q 1600 2791 1429 2531 
Q 1259 2272 1259 1753 
z
M 3211 4903 
L 3211 4838 
Q 3121 4750 2974 4622 
Q 2827 4494 2658 4355 
Q 2490 4216 2327 4089 
Q 2165 3963 2043 3878 
L 1408 3878 
L 1408 3963 
Q 1511 4081 1647 4245 
Q 1783 4409 1917 4584 
Q 2052 4759 2143 4903 
L 3211 4903 
z
" transform="scale(0.015625)"/>
      <path id="OpenSans-Bold-6e" d="M 2484 3559 
Q 3044 3559 3384 3254 
Q 3725 2950 3725 2278 
L 3725 0 
L 2772 0 
L 2772 2041 
Q 2772 2416 2636 2606 
Q 2500 2797 2209 2797 
Q 1772 2797 1612 2500 
Q 1453 2203 1453 1644 
L 1453 0 
L 500 0 
L 500 3494 
L 1228 3494 
L 1356 3047 
L 1409 3047 
Q 1522 3228 1689 3340 
Q 1856 3453 2061 3506 
Q 2266 3559 2484 3559 
z
" transform="scale(0.015625)"/>
      <path id="OpenSans-Bold-20" transform="scale(0.015625)"/>
      <path id="OpenSans-Bold-53" d="M 3272 1269 
Q 3272 863 3075 563 
Q 2878 263 2501 100 
Q 2125 -63 1588 -63 
Q 1350 -63 1123 -31 
Q 897 0 689 61 
Q 481 122 294 213 
L 294 1113 
Q 619 969 969 853 
Q 1319 738 1663 738 
Q 1900 738 2045 800 
Q 2191 863 2256 972 
Q 2322 1081 2322 1222 
Q 2322 1394 2206 1516 
Q 2091 1638 1889 1744 
Q 1688 1850 1434 1972 
Q 1275 2047 1087 2155 
Q 900 2263 731 2419 
Q 563 2575 455 2798 
Q 347 3022 347 3334 
Q 347 3744 534 4034 
Q 722 4325 1070 4479 
Q 1419 4634 1894 4634 
Q 2250 4634 2573 4551 
Q 2897 4469 3250 4313 
L 2938 3559 
Q 2622 3688 2372 3758 
Q 2122 3828 1863 3828 
Q 1681 3828 1553 3770 
Q 1425 3713 1359 3608 
Q 1294 3503 1294 3366 
Q 1294 3203 1389 3092 
Q 1484 2981 1676 2878 
Q 1869 2775 2156 2638 
Q 2506 2472 2754 2292 
Q 3003 2113 3137 1870 
Q 3272 1628 3272 1269 
z
" transform="scale(0.015625)"/>
      <path id="OpenSans-Bold-6c" d="M 1453 0 
L 500 0 
L 500 4863 
L 1453 4863 
L 1453 0 
z
" transform="scale(0.015625)"/>
      <path id="OpenSans-Bold-64" d="M 1606 -63 
Q 1022 -63 655 395 
Q 288 853 288 1741 
Q 288 2638 659 3098 
Q 1031 3559 1631 3559 
Q 1881 3559 2072 3490 
Q 2263 3422 2402 3306 
Q 2541 3191 2638 3047 
L 2669 3047 
Q 2650 3147 2623 3342 
Q 2597 3538 2597 3744 
L 2597 4863 
L 3553 4863 
L 3553 0 
L 2822 0 
L 2638 453 
L 2597 453 
Q 2506 309 2370 192 
Q 2234 75 2046 6 
Q 1859 -63 1606 -63 
z
M 1941 697 
Q 2331 697 2492 930 
Q 2653 1163 2663 1631 
L 2663 1734 
Q 2663 2244 2506 2514 
Q 2350 2784 1925 2784 
Q 1609 2784 1431 2512 
Q 1253 2241 1253 1728 
Q 1253 1216 1433 956 
Q 1613 697 1941 697 
z
" transform="scale(0.015625)"/>
      <path id="OpenSans-Bold-65" d="M 1941 3559 
Q 2425 3559 2775 3373 
Q 3125 3188 3315 2834 
Q 3506 2481 3506 1972 
L 3506 1509 
L 1253 1509 
Q 1269 1106 1495 876 
Q 1722 647 2125 647 
Q 2459 647 2737 715 
Q 3016 784 3309 922 
L 3309 184 
Q 3050 56 2767 -3 
Q 2484 -63 2081 -63 
Q 1556 -63 1151 131 
Q 747 325 517 722 
Q 288 1119 288 1722 
Q 288 2334 495 2742 
Q 703 3150 1075 3354 
Q 1447 3559 1941 3559 
z
M 1947 2881 
Q 1669 2881 1486 2703 
Q 1303 2525 1275 2144 
L 2613 2144 
Q 2609 2356 2536 2522 
Q 2463 2688 2317 2784 
Q 2172 2881 1947 2881 
z
" transform="scale(0.015625)"/>
      <path id="OpenSans-Bold-43" d="M 2516 3828 
Q 2238 3828 2023 3720 
Q 1809 3613 1664 3409 
Q 1519 3206 1444 2918 
Q 1369 2631 1369 2272 
Q 1369 1788 1489 1445 
Q 1609 1103 1862 923 
Q 2116 744 2516 744 
Q 2794 744 3073 806 
Q 3353 869 3681 984 
L 3681 172 
Q 3378 47 3084 -8 
Q 2791 -63 2425 -63 
Q 1719 -63 1264 229 
Q 809 522 590 1048 
Q 372 1575 372 2278 
Q 372 2797 512 3228 
Q 653 3659 925 3975 
Q 1197 4291 1597 4462 
Q 1997 4634 2516 4634 
Q 2856 4634 3198 4548 
Q 3541 4463 3853 4313 
L 3541 3525 
Q 3284 3647 3025 3737 
Q 2766 3828 2516 3828 
z
" transform="scale(0.015625)"/>
      <path id="OpenSans-Bold-6d" d="M 4603 3559 
Q 5197 3559 5501 3254 
Q 5806 2950 5806 2278 
L 5806 0 
L 4850 0 
L 4850 2041 
Q 4850 2416 4722 2606 
Q 4594 2797 4325 2797 
Q 3947 2797 3787 2526 
Q 3628 2256 3628 1753 
L 3628 0 
L 2675 0 
L 2675 2041 
Q 2675 2291 2619 2459 
Q 2563 2628 2447 2712 
Q 2331 2797 2150 2797 
Q 1884 2797 1732 2664 
Q 1581 2531 1517 2273 
Q 1453 2016 1453 1644 
L 1453 0 
L 500 0 
L 500 3494 
L 1228 3494 
L 1356 3047 
L 1409 3047 
Q 1516 3228 1677 3340 
Q 1838 3453 2031 3506 
Q 2225 3559 2425 3559 
Q 2809 3559 3076 3434 
Q 3344 3309 3488 3047 
L 3572 3047 
Q 3728 3316 4014 3437 
Q 4300 3559 4603 3559 
z
" transform="scale(0.015625)"/>
      <path id="OpenSans-Bold-74" d="M 1972 697 
Q 2128 697 2276 728 
Q 2425 759 2572 806 
L 2572 97 
Q 2419 28 2192 -17 
Q 1966 -63 1697 -63 
Q 1384 -63 1136 39 
Q 888 141 745 392 
Q 603 644 603 1094 
L 603 2778 
L 147 2778 
L 147 3181 
L 672 3500 
L 947 4238 
L 1556 4238 
L 1556 3494 
L 2534 3494 
L 2534 2778 
L 1556 2778 
L 1556 1094 
Q 1556 894 1670 795 
Q 1784 697 1972 697 
z
" transform="scale(0.015625)"/>
     </defs>
     <use xlink:href="#OpenSans-Bold-41"/>
     <use xlink:href="#OpenSans-Bold-70" x="68.994141"/>
     <use xlink:href="#OpenSans-Bold-72" x="132.275391"/>
     <use xlink:href="#OpenSans-Bold-6f" x="177.685547"/>
     <use xlink:href="#OpenSans-Bold-70" x="239.599609"/>
     <use xlink:href="#OpenSans-Bold-69" x="302.880859"/>
     <use xlink:href="#OpenSans-Bold-61" x="333.398438"/>
     <use xlink:href="#OpenSans-Bold-63" x="393.798828"/>
     <use xlink:href="#OpenSans-Bold-69" x="445.214844"/>
     <use xlink:href="#OpenSans-Bold-f3" x="475.732422"/>
     <use xlink:href="#OpenSans-Bold-6e" x="537.646484"/>
     <use xlink:href="#OpenSans-Bold-20" x="603.369141"/>
     <use xlink:href="#OpenSans-Bold-53" x="629.345703"/>
     <use xlink:href="#OpenSans-Bold-6f" x="684.423828"/>
     <use xlink:href="#OpenSans-Bold-63" x="746.337891"/>
     <use xlink:href="#OpenSans-Bold-69" x="797.753906"/>
     <use xlink:href="#OpenSans-Bold-61" x="828.271484"/>
     <use xlink:href="#OpenSans-Bold-6c" x="888.671875"/>
     <use xlink:href="#OpenSans-Bold-20" x="919.189453"/>
     <use xlink:href="#OpenSans-Bold-64" x="945.166016"/>
     <use xlink:href="#OpenSans-Bold-65" x="1008.447266"/>
     <use xlink:href="#OpenSans-Bold-6c" x="1067.529297"/>
     <use xlink:href="#OpenSans-Bold-20" x="1098.046875"/>
     <use xlink:href="#OpenSans-Bold-43" x="1124.023438"/>
     <use xlink:href="#OpenSans-Bold-6f" x="1187.744141"/>
     <use xlink:href="#OpenSans-Bold-6e" x="1249.658203"/>
     <use xlink:href="#OpenSans-Bold-6f" x="1315.380859"/>
     <use xlink:href="#OpenSans-Bold-63" x="1377.294922"/>
     <use xlink:href="#OpenSans-Bold-69" x="1428.710938"/>
     <use xlink:href="#OpenSans-Bold-6d" x="1459.228516"/>
     <use xlink:href="#OpenSans-Bold-69" x="1557.421875"/>
     <use xlink:href="#OpenSans-Bold-65" x="1587.939453"/>
     <use xlink:href="#OpenSans-Bold-6e" x="1647.021484"/>
     <use xlink:href="#OpenSans-Bold-74" x="1712.744141"/>
     <use xlink:href="#OpenSans-Bold-6f" x="1756.152344"/>
    </g>
   </g>
   <g id="text_2">
    <!-- (9) -->
    <g style="fill: #37539c" transform="translate(304.032375 240.22223) scale(0.08 -0.08)">
     <defs>
      <path id="OpenSans-Bold-28" d="M 256 1753 
Q 256 2275 356 2773 
Q 456 3272 665 3726 
Q 875 4181 1197 4569 
L 1978 4569 
Q 1541 3969 1314 3244 
Q 1088 2519 1088 1759 
Q 1088 1266 1188 777 
Q 1288 288 1486 -165 
Q 1684 -619 1972 -1013 
L 1197 -1013 
Q 875 -638 665 -192 
Q 456 253 356 745 
Q 256 1238 256 1753 
z
" transform="scale(0.015625)"/>
      <path id="OpenSans-Bold-39" d="M 3431 2619 
Q 3431 2225 3373 1837 
Q 3316 1450 3172 1108 
Q 3028 766 2768 502 
Q 2509 238 2109 87 
Q 1709 -63 1141 -63 
Q 1006 -63 825 -52 
Q 644 -41 525 -19 
L 525 756 
Q 650 725 790 708 
Q 931 691 1075 691 
Q 1647 691 1958 872 
Q 2269 1053 2395 1375 
Q 2522 1697 2541 2119 
L 2503 2119 
Q 2413 1969 2289 1848 
Q 2166 1728 1975 1658 
Q 1784 1588 1491 1588 
Q 1100 1588 811 1758 
Q 522 1928 364 2251 
Q 206 2575 206 3034 
Q 206 3531 395 3886 
Q 584 4241 934 4431 
Q 1284 4622 1759 4622 
Q 2109 4622 2412 4501 
Q 2716 4381 2945 4134 
Q 3175 3888 3303 3509 
Q 3431 3131 3431 2619 
z
M 1778 3847 
Q 1497 3847 1319 3653 
Q 1141 3459 1141 3047 
Q 1141 2716 1294 2522 
Q 1447 2328 1759 2328 
Q 1975 2328 2134 2423 
Q 2294 2519 2383 2664 
Q 2472 2809 2472 2963 
Q 2472 3122 2428 3278 
Q 2384 3434 2296 3562 
Q 2209 3691 2079 3769 
Q 1950 3847 1778 3847 
z
" transform="scale(0.015625)"/>
      <path id="OpenSans-Bold-29" d="M 1913 1753 
Q 1913 1238 1813 745 
Q 1713 253 1505 -192 
Q 1297 -638 972 -1013 
L 197 -1013 
Q 488 -619 684 -165 
Q 881 288 981 777 
Q 1081 1266 1081 1759 
Q 1081 2266 979 2759 
Q 878 3253 681 3711 
Q 484 4169 191 4569 
L 972 4569 
Q 1297 4181 1505 3726 
Q 1713 3272 1813 2773 
Q 1913 2275 1913 1753 
z
" transform="scale(0.015625)"/>
     </defs>
     <use xlink:href="#OpenSans-Bold-28"/>
     <use xlink:href="#OpenSans-Bold-39" x="33.886719"/>
     <use xlink:href="#OpenSans-Bold-29" x="91.064453"/>
    </g>
    <!-- 8% -->
    <g style="fill: #37539c" transform="translate(303.139875 249.43923) scale(0.08 -0.08)">
     <defs>
      <path id="OpenSans-Bold-38" d="M 1831 4628 
Q 2225 4628 2558 4506 
Q 2891 4384 3091 4139 
Q 3291 3894 3291 3525 
Q 3291 3250 3183 3044 
Q 3075 2838 2890 2683 
Q 2706 2528 2472 2413 
Q 2716 2284 2934 2114 
Q 3153 1944 3292 1716 
Q 3431 1488 3431 1184 
Q 3431 803 3228 523 
Q 3025 244 2665 90 
Q 2306 -63 1831 -63 
Q 1319 -63 959 84 
Q 600 231 412 504 
Q 225 778 225 1159 
Q 225 1472 342 1703 
Q 459 1934 659 2101 
Q 859 2269 1100 2388 
Q 897 2516 730 2678 
Q 563 2841 464 3050 
Q 366 3259 366 3531 
Q 366 3894 570 4137 
Q 775 4381 1109 4504 
Q 1444 4628 1831 4628 
z
M 1119 1216 
Q 1119 969 1295 808 
Q 1472 647 1819 647 
Q 2178 647 2356 801 
Q 2534 956 2534 1209 
Q 2534 1384 2432 1515 
Q 2331 1647 2178 1751 
Q 2025 1856 1869 1947 
L 1784 1991 
Q 1584 1900 1436 1787 
Q 1288 1675 1203 1534 
Q 1119 1394 1119 1216 
z
M 1825 3922 
Q 1588 3922 1431 3800 
Q 1275 3678 1275 3456 
Q 1275 3300 1351 3183 
Q 1428 3066 1554 2978 
Q 1681 2891 1831 2816 
Q 1975 2884 2100 2968 
Q 2225 3053 2303 3172 
Q 2381 3291 2381 3456 
Q 2381 3678 2223 3800 
Q 2066 3922 1825 3922 
z
" transform="scale(0.015625)"/>
      <path id="OpenSans-Bold-25" d="M 1275 4634 
Q 1813 4634 2091 4259 
Q 2369 3884 2369 3206 
Q 2369 2528 2106 2147 
Q 1844 1766 1275 1766 
Q 747 1766 472 2147 
Q 197 2528 197 3206 
Q 197 3884 455 4259 
Q 713 4634 1275 4634 
z
M 1281 3981 
Q 1128 3981 1056 3787 
Q 984 3594 984 3200 
Q 984 2806 1056 2609 
Q 1128 2413 1281 2413 
Q 1434 2413 1507 2608 
Q 1581 2803 1581 3200 
Q 1581 3594 1507 3787 
Q 1434 3981 1281 3981 
z
M 4519 4569 
L 1984 0 
L 1234 0 
L 3769 4569 
L 4519 4569 
z
M 4475 2809 
Q 5013 2809 5291 2434 
Q 5569 2059 5569 1381 
Q 5569 706 5306 325 
Q 5044 -56 4475 -56 
Q 3947 -56 3672 325 
Q 3397 706 3397 1381 
Q 3397 2059 3655 2434 
Q 3913 2809 4475 2809 
z
M 4481 2156 
Q 4328 2156 4256 1962 
Q 4184 1769 4184 1375 
Q 4184 981 4256 784 
Q 4328 588 4481 588 
Q 4634 588 4707 783 
Q 4781 978 4781 1375 
Q 4781 1769 4707 1962 
Q 4634 2156 4481 2156 
z
" transform="scale(0.015625)"/>
     </defs>
     <use xlink:href="#OpenSans-Bold-38"/>
     <use xlink:href="#OpenSans-Bold-25" x="57.177734"/>
    </g>
   </g>
   <g id="text_3">
    <!-- Capacidades Institucionales -->
    <g style="fill: #37539c" transform="translate(280.726629 151.861843) scale(0.08 -0.08)">
     <defs>
      <path id="OpenSans-Bold-73" d="M 2938 1038 
Q 2938 681 2770 436 
Q 2603 191 2272 64 
Q 1941 -63 1447 -63 
Q 1081 -63 820 -16 
Q 559 31 294 141 
L 294 928 
Q 578 800 904 717 
Q 1231 634 1478 634 
Q 1756 634 1876 717 
Q 1997 800 1997 934 
Q 1997 1022 1948 1092 
Q 1900 1163 1740 1252 
Q 1581 1341 1241 1484 
Q 913 1622 702 1762 
Q 491 1903 389 2095 
Q 288 2288 288 2584 
Q 288 3069 664 3314 
Q 1041 3559 1672 3559 
Q 1997 3559 2292 3493 
Q 2588 3428 2900 3284 
L 2613 2597 
Q 2353 2709 2123 2781 
Q 1894 2853 1656 2853 
Q 1447 2853 1340 2797 
Q 1234 2741 1234 2625 
Q 1234 2541 1289 2475 
Q 1344 2409 1501 2329 
Q 1659 2250 1966 2125 
Q 2263 2003 2481 1870 
Q 2700 1738 2819 1542 
Q 2938 1347 2938 1038 
z
" transform="scale(0.015625)"/>
      <path id="OpenSans-Bold-49" d="M 575 0 
L 575 4569 
L 1544 4569 
L 1544 0 
L 575 0 
z
" transform="scale(0.015625)"/>
      <path id="OpenSans-Bold-75" d="M 3706 3494 
L 3706 0 
L 2975 0 
L 2847 447 
L 2797 447 
Q 2684 269 2515 156 
Q 2347 44 2144 -9 
Q 1941 -63 1722 -63 
Q 1347 -63 1069 70 
Q 791 203 636 484 
Q 481 766 481 1216 
L 481 3494 
L 1434 3494 
L 1434 1453 
Q 1434 1078 1568 887 
Q 1703 697 1997 697 
Q 2288 697 2453 830 
Q 2619 963 2686 1220 
Q 2753 1478 2753 1850 
L 2753 3494 
L 3706 3494 
z
" transform="scale(0.015625)"/>
     </defs>
     <use xlink:href="#OpenSans-Bold-43"/>
     <use xlink:href="#OpenSans-Bold-61" x="63.720703"/>
     <use xlink:href="#OpenSans-Bold-70" x="124.121094"/>
     <use xlink:href="#OpenSans-Bold-61" x="187.402344"/>
     <use xlink:href="#OpenSans-Bold-63" x="247.802734"/>
     <use xlink:href="#OpenSans-Bold-69" x="299.21875"/>
     <use xlink:href="#OpenSans-Bold-64" x="329.736328"/>
     <use xlink:href="#OpenSans-Bold-61" x="393.017578"/>
     <use xlink:href="#OpenSans-Bold-64" x="453.417969"/>
     <use xlink:href="#OpenSans-Bold-65" x="516.699219"/>
     <use xlink:href="#OpenSans-Bold-73" x="575.78125"/>
     <use xlink:href="#OpenSans-Bold-20" x="625.488281"/>
     <use xlink:href="#OpenSans-Bold-49" x="651.464844"/>
     <use xlink:href="#OpenSans-Bold-6e" x="684.570312"/>
     <use xlink:href="#OpenSans-Bold-73" x="750.292969"/>
     <use xlink:href="#OpenSans-Bold-74" x="800"/>
     <use xlink:href="#OpenSans-Bold-69" x="843.408203"/>
     <use xlink:href="#OpenSans-Bold-74" x="873.925781"/>
     <use xlink:href="#OpenSans-Bold-75" x="917.333984"/>
     <use xlink:href="#OpenSans-Bold-63" x="983.056641"/>
     <use xlink:href="#OpenSans-Bold-69" x="1034.472656"/>
     <use xlink:href="#OpenSans-Bold-6f" x="1064.990234"/>
     <use xlink:href="#OpenSans-Bold-6e" x="1126.904297"/>
     <use xlink:href="#OpenSans-Bold-61" x="1192.626953"/>
     <use xlink:href="#OpenSans-Bold-6c" x="1253.027344"/>
     <use xlink:href="#OpenSans-Bold-65" x="1283.544922"/>
     <use xlink:href="#OpenSans-Bold-73" x="1342.626953"/>
    </g>
   </g>
   <g id="text_4">
    <!-- (24) -->
    <g style="fill: #37539c" transform="translate(259.113002 196.878926) scale(0.08 -0.08)">
     <defs>
      <path id="OpenSans-Bold-32" d="M 3450 0 
L 256 0 
L 256 672 
L 1403 1831 
Q 1750 2188 1961 2427 
Q 2172 2666 2267 2862 
Q 2363 3059 2363 3284 
Q 2363 3556 2211 3692 
Q 2059 3828 1806 3828 
Q 1541 3828 1291 3706 
Q 1041 3584 769 3359 
L 244 3981 
Q 441 4150 661 4300 
Q 881 4450 1173 4542 
Q 1466 4634 1875 4634 
Q 2325 4634 2648 4471 
Q 2972 4309 3147 4029 
Q 3322 3750 3322 3397 
Q 3322 3019 3172 2706 
Q 3022 2394 2736 2087 
Q 2450 1781 2047 1409 
L 1459 856 
L 1459 813 
L 3450 813 
L 3450 0 
z
" transform="scale(0.015625)"/>
      <path id="OpenSans-Bold-34" d="M 3553 947 
L 3003 947 
L 3003 0 
L 2059 0 
L 2059 947 
L 109 947 
L 109 1619 
L 2113 4569 
L 3003 4569 
L 3003 1697 
L 3553 1697 
L 3553 947 
z
M 2059 1697 
L 2059 2472 
Q 2059 2581 2064 2731 
Q 2069 2881 2075 3031 
Q 2081 3181 2089 3298 
Q 2097 3416 2100 3463 
L 2075 3463 
Q 2016 3334 1950 3214 
Q 1884 3094 1797 2963 
L 959 1697 
L 2059 1697 
z
" transform="scale(0.015625)"/>
     </defs>
     <use xlink:href="#OpenSans-Bold-28"/>
     <use xlink:href="#OpenSans-Bold-32" x="33.886719"/>
     <use xlink:href="#OpenSans-Bold-34" x="91.064453"/>
     <use xlink:href="#OpenSans-Bold-29" x="148.242188"/>
    </g>
    <!-- 24% -->
    <g style="fill: #37539c" transform="translate(258.220502 206.095926) scale(0.08 -0.08)">
     <use xlink:href="#OpenSans-Bold-32"/>
     <use xlink:href="#OpenSans-Bold-34" x="57.177734"/>
     <use xlink:href="#OpenSans-Bold-25" x="114.355469"/>
    </g>
   </g>
   <g id="text_5">
    <!-- Capital Humano -->
    <g style="fill: #37539c" transform="translate(99.801536 185.46734) scale(0.08 -0.08)">
     <defs>
      <path id="OpenSans-Bold-48" d="M 4319 0 
L 3353 0 
L 3353 1972 
L 1544 1972 
L 1544 0 
L 575 0 
L 575 4569 
L 1544 4569 
L 1544 2778 
L 3353 2778 
L 3353 4569 
L 4319 4569 
L 4319 0 
z
" transform="scale(0.015625)"/>
     </defs>
     <use xlink:href="#OpenSans-Bold-43"/>
     <use xlink:href="#OpenSans-Bold-61" x="63.720703"/>
     <use xlink:href="#OpenSans-Bold-70" x="124.121094"/>
     <use xlink:href="#OpenSans-Bold-69" x="187.402344"/>
     <use xlink:href="#OpenSans-Bold-74" x="217.919922"/>
     <use xlink:href="#OpenSans-Bold-61" x="261.328125"/>
     <use xlink:href="#OpenSans-Bold-6c" x="321.728516"/>
     <use xlink:href="#OpenSans-Bold-20" x="352.246094"/>
     <use xlink:href="#OpenSans-Bold-48" x="378.222656"/>
     <use xlink:href="#OpenSans-Bold-75" x="454.736328"/>
     <use xlink:href="#OpenSans-Bold-6d" x="520.458984"/>
     <use xlink:href="#OpenSans-Bold-61" x="618.652344"/>
     <use xlink:href="#OpenSans-Bold-6e" x="679.052734"/>
     <use xlink:href="#OpenSans-Bold-6f" x="744.775391"/>
    </g>
   </g>
   <g id="text_6">
    <!-- (12) -->
    <g style="fill: #37539c" transform="translate(195.628179 215.209197) scale(0.08 -0.08)">
     <defs>
      <path id="OpenSans-Bold-31" d="M 2644 0 
L 1678 0 
L 1678 2644 
Q 1678 2753 1681 2914 
Q 1684 3075 1690 3245 
Q 1697 3416 1703 3553 
Q 1669 3513 1564 3414 
Q 1459 3316 1369 3238 
L 844 2816 
L 378 3397 
L 1850 4569 
L 2644 4569 
L 2644 0 
z
" transform="scale(0.015625)"/>
     </defs>
     <use xlink:href="#OpenSans-Bold-28"/>
     <use xlink:href="#OpenSans-Bold-31" x="33.886719"/>
     <use xlink:href="#OpenSans-Bold-32" x="91.064453"/>
     <use xlink:href="#OpenSans-Bold-29" x="148.242188"/>
    </g>
    <!-- 12% -->
    <g style="fill: #37539c" transform="translate(194.735679 224.426197) scale(0.08 -0.08)">
     <use xlink:href="#OpenSans-Bold-31"/>
     <use xlink:href="#OpenSans-Bold-32" x="57.177734"/>
     <use xlink:href="#OpenSans-Bold-25" x="114.355469"/>
    </g>
   </g>
   <g id="text_7">
    <!-- Innovación y Desarrollo de Negocios -->
    <g style="fill: #37539c" transform="translate(-1.620341 301.494143) scale(0.08 -0.08)">
     <defs>
      <path id="OpenSans-Bold-76" d="M 1331 0 
L 0 3494 
L 997 3494 
L 1672 1503 
Q 1728 1328 1761 1134 
Q 1794 941 1806 788 
L 1831 788 
Q 1841 953 1877 1140 
Q 1913 1328 1972 1503 
L 2644 3494 
L 3641 3494 
L 2309 0 
L 1331 0 
z
" transform="scale(0.015625)"/>
      <path id="OpenSans-Bold-79" d="M 0 3494 
L 1044 3494 
L 1703 1528 
Q 1734 1434 1756 1337 
Q 1778 1241 1793 1137 
Q 1809 1034 1819 922 
L 1838 922 
Q 1856 1091 1889 1237 
Q 1922 1384 1972 1528 
L 2619 3494 
L 3641 3494 
L 2163 -447 
Q 2028 -809 1812 -1051 
Q 1597 -1294 1317 -1416 
Q 1038 -1538 703 -1538 
Q 541 -1538 422 -1520 
Q 303 -1503 219 -1484 
L 219 -728 
Q 284 -744 384 -756 
Q 484 -769 594 -769 
Q 794 -769 937 -684 
Q 1081 -600 1178 -458 
Q 1275 -316 1331 -147 
L 1388 25 
L 0 3494 
z
" transform="scale(0.015625)"/>
      <path id="OpenSans-Bold-44" d="M 4366 2328 
Q 4366 1556 4070 1039 
Q 3775 522 3215 261 
Q 2656 0 1869 0 
L 575 0 
L 575 4569 
L 2009 4569 
Q 2728 4569 3256 4314 
Q 3784 4059 4075 3561 
Q 4366 3063 4366 2328 
z
M 3359 2303 
Q 3359 2809 3211 3136 
Q 3063 3463 2773 3619 
Q 2484 3775 2059 3775 
L 1544 3775 
L 1544 800 
L 1959 800 
Q 2669 800 3014 1178 
Q 3359 1556 3359 2303 
z
" transform="scale(0.015625)"/>
      <path id="OpenSans-Bold-4e" d="M 4628 0 
L 3397 0 
L 1409 3456 
L 1381 3456 
Q 1394 3241 1403 3022 
Q 1413 2803 1422 2586 
Q 1431 2369 1441 2150 
L 1441 0 
L 575 0 
L 575 4569 
L 1797 4569 
L 3781 1147 
L 3803 1147 
Q 3797 1359 3787 1568 
Q 3778 1778 3770 1987 
Q 3763 2197 3756 2406 
L 3756 4569 
L 4628 4569 
L 4628 0 
z
" transform="scale(0.015625)"/>
      <path id="OpenSans-Bold-67" d="M 1522 -1538 
Q 791 -1538 405 -1283 
Q 19 -1028 19 -569 
Q 19 -253 216 -40 
Q 413 172 794 263 
Q 647 325 537 467 
Q 428 609 428 769 
Q 428 969 543 1101 
Q 659 1234 878 1363 
Q 603 1481 442 1743 
Q 281 2006 281 2363 
Q 281 2744 448 3011 
Q 616 3278 936 3418 
Q 1256 3559 1716 3559 
Q 1813 3559 1941 3546 
Q 2069 3534 2176 3518 
Q 2284 3503 2322 3494 
L 3541 3494 
L 3541 3009 
L 2994 2869 
Q 3069 2753 3106 2622 
Q 3144 2491 3144 2344 
Q 3144 1781 2751 1467 
Q 2359 1153 1663 1153 
Q 1497 1163 1350 1178 
Q 1278 1122 1240 1059 
Q 1203 997 1203 928 
Q 1203 859 1261 814 
Q 1319 769 1436 745 
Q 1553 722 1728 722 
L 2322 722 
Q 2897 722 3198 475 
Q 3500 228 3500 -250 
Q 3500 -863 2989 -1200 
Q 2478 -1538 1522 -1538 
z
M 1563 -916 
Q 1903 -916 2148 -852 
Q 2394 -788 2525 -670 
Q 2656 -553 2656 -391 
Q 2656 -259 2579 -182 
Q 2503 -106 2348 -75 
Q 2194 -44 1953 -44 
L 1459 -44 
Q 1284 -44 1145 -100 
Q 1006 -156 925 -257 
Q 844 -359 844 -494 
Q 844 -691 1033 -803 
Q 1222 -916 1563 -916 
z
M 1716 1734 
Q 1984 1734 2109 1900 
Q 2234 2066 2234 2350 
Q 2234 2666 2104 2823 
Q 1975 2981 1716 2981 
Q 1453 2981 1322 2823 
Q 1191 2666 1191 2350 
Q 1191 2066 1320 1900 
Q 1450 1734 1716 1734 
z
" transform="scale(0.015625)"/>
     </defs>
     <use xlink:href="#OpenSans-Bold-49"/>
     <use xlink:href="#OpenSans-Bold-6e" x="33.105469"/>
     <use xlink:href="#OpenSans-Bold-6e" x="98.828125"/>
     <use xlink:href="#OpenSans-Bold-6f" x="164.550781"/>
     <use xlink:href="#OpenSans-Bold-76" x="226.464844"/>
     <use xlink:href="#OpenSans-Bold-61" x="283.349609"/>
     <use xlink:href="#OpenSans-Bold-63" x="343.75"/>
     <use xlink:href="#OpenSans-Bold-69" x="395.166016"/>
     <use xlink:href="#OpenSans-Bold-f3" x="425.683594"/>
     <use xlink:href="#OpenSans-Bold-6e" x="487.597656"/>
     <use xlink:href="#OpenSans-Bold-20" x="553.320312"/>
     <use xlink:href="#OpenSans-Bold-79" x="579.296875"/>
     <use xlink:href="#OpenSans-Bold-20" x="636.181641"/>
     <use xlink:href="#OpenSans-Bold-44" x="662.158203"/>
     <use xlink:href="#OpenSans-Bold-65" x="736.181641"/>
     <use xlink:href="#OpenSans-Bold-73" x="795.263672"/>
     <use xlink:href="#OpenSans-Bold-61" x="844.970703"/>
     <use xlink:href="#OpenSans-Bold-72" x="905.371094"/>
     <use xlink:href="#OpenSans-Bold-72" x="950.78125"/>
     <use xlink:href="#OpenSans-Bold-6f" x="996.191406"/>
     <use xlink:href="#OpenSans-Bold-6c" x="1058.105469"/>
     <use xlink:href="#OpenSans-Bold-6c" x="1088.623047"/>
     <use xlink:href="#OpenSans-Bold-6f" x="1119.140625"/>
     <use xlink:href="#OpenSans-Bold-20" x="1181.054688"/>
     <use xlink:href="#OpenSans-Bold-64" x="1207.03125"/>
     <use xlink:href="#OpenSans-Bold-65" x="1270.3125"/>
     <use xlink:href="#OpenSans-Bold-20" x="1329.394531"/>
     <use xlink:href="#OpenSans-Bold-4e" x="1355.371094"/>
     <use xlink:href="#OpenSans-Bold-65" x="1436.669922"/>
     <use xlink:href="#OpenSans-Bold-67" x="1495.751953"/>
     <use xlink:href="#OpenSans-Bold-6f" x="1552.246094"/>
     <use xlink:href="#OpenSans-Bold-63" x="1614.160156"/>
     <use xlink:href="#OpenSans-Bold-69" x="1665.576172"/>
     <use xlink:href="#OpenSans-Bold-6f" x="1696.09375"/>
     <use xlink:href="#OpenSans-Bold-73" x="1758.007812"/>
    </g>
   </g>
   <g id="text_8">
    <!-- (23) -->
    <g style="fill: #37539c" transform="translate(183.991246 278.482907) scale(0.08 -0.08)">
     <defs>
      <path id="OpenSans-Bold-33" d="M 3272 3547 
Q 3272 3231 3140 3000 
Q 3009 2769 2786 2622 
Q 2563 2475 2284 2406 
L 2284 2388 
Q 2834 2319 3120 2050 
Q 3406 1781 3406 1331 
Q 3406 931 3211 615 
Q 3016 300 2609 118 
Q 2203 -63 1563 -63 
Q 1184 -63 857 -2 
Q 531 59 244 184 
L 244 1006 
Q 538 856 859 779 
Q 1181 703 1459 703 
Q 1978 703 2186 883 
Q 2394 1063 2394 1388 
Q 2394 1578 2297 1709 
Q 2200 1841 1961 1909 
Q 1722 1978 1294 1978 
L 947 1978 
L 947 2719 
L 1300 2719 
Q 1722 2719 1942 2798 
Q 2163 2878 2242 3017 
Q 2322 3156 2322 3334 
Q 2322 3578 2172 3715 
Q 2022 3853 1672 3853 
Q 1453 3853 1273 3798 
Q 1094 3744 950 3667 
Q 806 3591 697 3519 
L 250 4184 
Q 519 4378 880 4506 
Q 1241 4634 1741 4634 
Q 2447 4634 2859 4350 
Q 3272 4066 3272 3547 
z
" transform="scale(0.015625)"/>
     </defs>
     <use xlink:href="#OpenSans-Bold-28"/>
     <use xlink:href="#OpenSans-Bold-32" x="33.886719"/>
     <use xlink:href="#OpenSans-Bold-33" x="91.064453"/>
     <use xlink:href="#OpenSans-Bold-29" x="148.242188"/>
    </g>
    <!-- 23% -->
    <g style="fill: #37539c" transform="translate(183.098746 287.699907) scale(0.08 -0.08)">
     <use xlink:href="#OpenSans-Bold-32"/>
     <use xlink:href="#OpenSans-Bold-33" x="57.177734"/>
     <use xlink:href="#OpenSans-Bold-25" x="114.355469"/>
    </g>
   </g>
   <g id="text_9">
    <!-- Investigación Aplicada y Transferencia -->
    <g style="fill: #37539c" transform="translate(251.082501 374.683671) scale(0.08 -0.08)">
     <defs>
      <path id="OpenSans-Bold-54" d="M 2338 0 
L 1369 0 
L 1369 3763 
L 128 3763 
L 128 4569 
L 3578 4569 
L 3578 3763 
L 2338 3763 
L 2338 0 
z
" transform="scale(0.015625)"/>
      <path id="OpenSans-Bold-66" d="M 2431 2778 
L 1606 2778 
L 1606 0 
L 653 0 
L 653 2778 
L 128 2778 
L 128 3238 
L 653 3494 
L 653 3750 
Q 653 4197 804 4445 
Q 956 4694 1232 4795 
Q 1509 4897 1888 4897 
Q 2166 4897 2394 4851 
Q 2622 4806 2766 4750 
L 2522 4050 
Q 2413 4084 2284 4112 
Q 2156 4141 1991 4141 
Q 1791 4141 1698 4020 
Q 1606 3900 1606 3713 
L 1606 3494 
L 2431 3494 
L 2431 2778 
z
" transform="scale(0.015625)"/>
     </defs>
     <use xlink:href="#OpenSans-Bold-49"/>
     <use xlink:href="#OpenSans-Bold-6e" x="33.105469"/>
     <use xlink:href="#OpenSans-Bold-76" x="98.828125"/>
     <use xlink:href="#OpenSans-Bold-65" x="155.712891"/>
     <use xlink:href="#OpenSans-Bold-73" x="214.794922"/>
     <use xlink:href="#OpenSans-Bold-74" x="264.501953"/>
     <use xlink:href="#OpenSans-Bold-69" x="307.910156"/>
     <use xlink:href="#OpenSans-Bold-67" x="338.427734"/>
     <use xlink:href="#OpenSans-Bold-61" x="394.921875"/>
     <use xlink:href="#OpenSans-Bold-63" x="455.322266"/>
     <use xlink:href="#OpenSans-Bold-69" x="506.738281"/>
     <use xlink:href="#OpenSans-Bold-f3" x="537.255859"/>
     <use xlink:href="#OpenSans-Bold-6e" x="599.169922"/>
     <use xlink:href="#OpenSans-Bold-20" x="664.892578"/>
     <use xlink:href="#OpenSans-Bold-41" x="690.869141"/>
     <use xlink:href="#OpenSans-Bold-70" x="759.863281"/>
     <use xlink:href="#OpenSans-Bold-6c" x="823.144531"/>
     <use xlink:href="#OpenSans-Bold-69" x="853.662109"/>
     <use xlink:href="#OpenSans-Bold-63" x="884.179688"/>
     <use xlink:href="#OpenSans-Bold-61" x="935.595703"/>
     <use xlink:href="#OpenSans-Bold-64" x="995.996094"/>
     <use xlink:href="#OpenSans-Bold-61" x="1059.277344"/>
     <use xlink:href="#OpenSans-Bold-20" x="1119.677734"/>
     <use xlink:href="#OpenSans-Bold-79" x="1145.654297"/>
     <use xlink:href="#OpenSans-Bold-20" x="1202.539062"/>
     <use xlink:href="#OpenSans-Bold-54" x="1228.515625"/>
     <use xlink:href="#OpenSans-Bold-72" x="1286.425781"/>
     <use xlink:href="#OpenSans-Bold-61" x="1331.835938"/>
     <use xlink:href="#OpenSans-Bold-6e" x="1392.236328"/>
     <use xlink:href="#OpenSans-Bold-73" x="1457.958984"/>
     <use xlink:href="#OpenSans-Bold-66" x="1507.666016"/>
     <use xlink:href="#OpenSans-Bold-65" x="1546.386719"/>
     <use xlink:href="#OpenSans-Bold-72" x="1605.46875"/>
     <use xlink:href="#OpenSans-Bold-65" x="1650.878906"/>
     <use xlink:href="#OpenSans-Bold-6e" x="1709.960938"/>
     <use xlink:href="#OpenSans-Bold-63" x="1775.683594"/>
     <use xlink:href="#OpenSans-Bold-69" x="1827.099609"/>
     <use xlink:href="#OpenSans-Bold-61" x="1857.617188"/>
    </g>
   </g>
   <g id="text_10">
    <!-- (16) -->
    <g style="fill: #37539c" transform="translate(242.943478 318.404468) scale(0.08 -0.08)">
     <defs>
      <path id="OpenSans-Bold-36" d="M 225 1941 
Q 225 2334 283 2720 
Q 341 3106 484 3448 
Q 628 3791 887 4055 
Q 1147 4319 1547 4470 
Q 1947 4622 2516 4622 
Q 2650 4622 2829 4611 
Q 3009 4600 3128 4575 
L 3128 3803 
Q 3003 3831 2861 3848 
Q 2719 3866 2578 3866 
Q 2009 3866 1698 3684 
Q 1388 3503 1261 3183 
Q 1134 2863 1113 2438 
L 1153 2438 
Q 1241 2591 1373 2709 
Q 1506 2828 1697 2898 
Q 1888 2969 2144 2969 
Q 2544 2969 2837 2798 
Q 3131 2628 3290 2306 
Q 3450 1984 3450 1522 
Q 3450 1028 3259 672 
Q 3069 316 2720 126 
Q 2372 -63 1894 -63 
Q 1544 -63 1241 57 
Q 938 178 709 425 
Q 481 672 353 1048 
Q 225 1425 225 1941 
z
M 1875 709 
Q 2159 709 2337 903 
Q 2516 1097 2516 1509 
Q 2516 1844 2361 2036 
Q 2206 2228 1894 2228 
Q 1681 2228 1520 2133 
Q 1359 2038 1271 1892 
Q 1184 1747 1184 1594 
Q 1184 1434 1228 1278 
Q 1272 1122 1359 994 
Q 1447 866 1576 787 
Q 1706 709 1875 709 
z
" transform="scale(0.015625)"/>
     </defs>
     <use xlink:href="#OpenSans-Bold-28"/>
     <use xlink:href="#OpenSans-Bold-31" x="33.886719"/>
     <use xlink:href="#OpenSans-Bold-36" x="91.064453"/>
     <use xlink:href="#OpenSans-Bold-29" x="148.242188"/>
    </g>
    <!-- 16% -->
    <g style="fill: #37539c" transform="translate(242.050978 327.621468) scale(0.08 -0.08)">
     <use xlink:href="#OpenSans-Bold-31"/>
     <use xlink:href="#OpenSans-Bold-36" x="57.177734"/>
     <use xlink:href="#OpenSans-Bold-25" x="114.355469"/>
    </g>
   </g>
   <g id="text_11">
    <!-- Investigación Asociativa -->
    <g style="fill: #37539c" transform="translate(338.878481 330.859854) scale(0.08 -0.08)">
     <use xlink:href="#OpenSans-Bold-49"/>
     <use xlink:href="#OpenSans-Bold-6e" x="33.105469"/>
     <use xlink:href="#OpenSans-Bold-76" x="98.828125"/>
     <use xlink:href="#OpenSans-Bold-65" x="155.712891"/>
     <use xlink:href="#OpenSans-Bold-73" x="214.794922"/>
     <use xlink:href="#OpenSans-Bold-74" x="264.501953"/>
     <use xlink:href="#OpenSans-Bold-69" x="307.910156"/>
     <use xlink:href="#OpenSans-Bold-67" x="338.427734"/>
     <use xlink:href="#OpenSans-Bold-61" x="394.921875"/>
     <use xlink:href="#OpenSans-Bold-63" x="455.322266"/>
     <use xlink:href="#OpenSans-Bold-69" x="506.738281"/>
     <use xlink:href="#OpenSans-Bold-f3" x="537.255859"/>
     <use xlink:href="#OpenSans-Bold-6e" x="599.169922"/>
     <use xlink:href="#OpenSans-Bold-20" x="664.892578"/>
     <use xlink:href="#OpenSans-Bold-41" x="690.869141"/>
     <use xlink:href="#OpenSans-Bold-73" x="759.863281"/>
     <use xlink:href="#OpenSans-Bold-6f" x="809.570312"/>
     <use xlink:href="#OpenSans-Bold-63" x="871.484375"/>
     <use xlink:href="#OpenSans-Bold-69" x="922.900391"/>
     <use xlink:href="#OpenSans-Bold-61" x="953.417969"/>
     <use xlink:href="#OpenSans-Bold-74" x="1013.818359"/>
     <use xlink:href="#OpenSans-Bold-69" x="1057.226562"/>
     <use xlink:href="#OpenSans-Bold-76" x="1087.744141"/>
     <use xlink:href="#OpenSans-Bold-61" x="1144.628906"/>
    </g>
   </g>
   <g id="text_12">
    <!-- (13) -->
    <g style="fill: #37539c" transform="translate(290.832195 294.500568) scale(0.08 -0.08)">
     <use xlink:href="#OpenSans-Bold-28"/>
     <use xlink:href="#OpenSans-Bold-31" x="33.886719"/>
     <use xlink:href="#OpenSans-Bold-33" x="91.064453"/>
     <use xlink:href="#OpenSans-Bold-29" x="148.242188"/>
    </g>
    <!-- 13% -->
    <g style="fill: #37539c" transform="translate(289.939695 303.717568) scale(0.08 -0.08)">
     <use xlink:href="#OpenSans-Bold-31"/>
     <use xlink:href="#OpenSans-Bold-33" x="57.177734"/>
     <use xlink:href="#OpenSans-Bold-25" x="114.355469"/>
    </g>
   </g>
   <g id="text_13">
    <!-- Proyectos de Investigación -->
    <g style="fill: #37539c" transform="translate(361.847013 276.05084) scale(0.08 -0.08)">
     <defs>
      <path id="OpenSans-Bold-50" d="M 2034 4569 
Q 2919 4569 3325 4189 
Q 3731 3809 3731 3144 
Q 3731 2844 3640 2570 
Q 3550 2297 3345 2084 
Q 3141 1872 2800 1748 
Q 2459 1625 1959 1625 
L 1544 1625 
L 1544 0 
L 575 0 
L 575 4569 
L 2034 4569 
z
M 1984 3775 
L 1544 3775 
L 1544 2419 
L 1863 2419 
Q 2134 2419 2334 2491 
Q 2534 2563 2643 2716 
Q 2753 2869 2753 3109 
Q 2753 3447 2565 3611 
Q 2378 3775 1984 3775 
z
" transform="scale(0.015625)"/>
     </defs>
     <use xlink:href="#OpenSans-Bold-50"/>
     <use xlink:href="#OpenSans-Bold-72" x="62.792969"/>
     <use xlink:href="#OpenSans-Bold-6f" x="108.203125"/>
     <use xlink:href="#OpenSans-Bold-79" x="170.117188"/>
     <use xlink:href="#OpenSans-Bold-65" x="227.001953"/>
     <use xlink:href="#OpenSans-Bold-63" x="286.083984"/>
     <use xlink:href="#OpenSans-Bold-74" x="337.5"/>
     <use xlink:href="#OpenSans-Bold-6f" x="380.908203"/>
     <use xlink:href="#OpenSans-Bold-73" x="442.822266"/>
     <use xlink:href="#OpenSans-Bold-20" x="492.529297"/>
     <use xlink:href="#OpenSans-Bold-64" x="518.505859"/>
     <use xlink:href="#OpenSans-Bold-65" x="581.787109"/>
     <use xlink:href="#OpenSans-Bold-20" x="640.869141"/>
     <use xlink:href="#OpenSans-Bold-49" x="666.845703"/>
     <use xlink:href="#OpenSans-Bold-6e" x="699.951172"/>
     <use xlink:href="#OpenSans-Bold-76" x="765.673828"/>
     <use xlink:href="#OpenSans-Bold-65" x="822.558594"/>
     <use xlink:href="#OpenSans-Bold-73" x="881.640625"/>
     <use xlink:href="#OpenSans-Bold-74" x="931.347656"/>
     <use xlink:href="#OpenSans-Bold-69" x="974.755859"/>
     <use xlink:href="#OpenSans-Bold-67" x="1005.273438"/>
     <use xlink:href="#OpenSans-Bold-61" x="1061.767578"/>
     <use xlink:href="#OpenSans-Bold-63" x="1122.167969"/>
     <use xlink:href="#OpenSans-Bold-69" x="1173.583984"/>
     <use xlink:href="#OpenSans-Bold-f3" x="1204.101562"/>
     <use xlink:href="#OpenSans-Bold-6e" x="1266.015625"/>
    </g>
   </g>
   <g id="text_14">
    <!-- (4) -->
    <g style="fill: #37539c" transform="translate(305.64736 264.604742) scale(0.08 -0.08)">
     <use xlink:href="#OpenSans-Bold-28"/>
     <use xlink:href="#OpenSans-Bold-34" x="33.886719"/>
     <use xlink:href="#OpenSans-Bold-29" x="91.064453"/>
    </g>
    <!-- 4% -->
    <g style="fill: #37539c" transform="translate(304.75486 273.821742) scale(0.08 -0.08)">
     <use xlink:href="#OpenSans-Bold-34"/>
     <use xlink:href="#OpenSans-Bold-25" x="57.177734"/>
    </g>
   </g>
   <g id="text_15">
    <!-- Distribución de Instrumentos por Dimensión Sistémica -->
    <g style="fill: #37539c" transform="translate(112.712245 123.828091) scale(0.1 -0.1)">
     <defs>
      <path id="OpenSans-Bold-62" d="M 1453 4863 
L 1453 3731 
Q 1453 3534 1442 3340 
Q 1431 3147 1416 3041 
L 1453 3041 
Q 1591 3256 1828 3407 
Q 2066 3559 2444 3559 
Q 3031 3559 3397 3100 
Q 3763 2641 3763 1753 
Q 3763 1156 3594 751 
Q 3425 347 3122 142 
Q 2819 -63 2419 -63 
Q 2034 -63 1812 75 
Q 1591 213 1453 384 
L 1388 384 
L 1228 0 
L 500 0 
L 500 4863 
L 1453 4863 
z
M 2138 2797 
Q 1888 2797 1741 2694 
Q 1594 2591 1526 2384 
Q 1459 2178 1453 1863 
L 1453 1759 
Q 1453 1250 1603 979 
Q 1753 709 2150 709 
Q 2444 709 2617 981 
Q 2791 1253 2791 1766 
Q 2791 2278 2616 2537 
Q 2441 2797 2138 2797 
z
" transform="scale(0.015625)"/>
      <path id="OpenSans-Bold-e9" d="M 1941 3559 
Q 2425 3559 2775 3373 
Q 3125 3188 3315 2834 
Q 3506 2481 3506 1972 
L 3506 1509 
L 1253 1509 
Q 1269 1106 1495 876 
Q 1722 647 2125 647 
Q 2459 647 2737 715 
Q 3016 784 3309 922 
L 3309 184 
Q 3050 56 2767 -3 
Q 2484 -63 2081 -63 
Q 1556 -63 1151 131 
Q 747 325 517 722 
Q 288 1119 288 1722 
Q 288 2334 495 2742 
Q 703 3150 1075 3354 
Q 1447 3559 1941 3559 
z
M 1947 2881 
Q 1669 2881 1486 2703 
Q 1303 2525 1275 2144 
L 2613 2144 
Q 2609 2356 2536 2522 
Q 2463 2688 2317 2784 
Q 2172 2881 1947 2881 
z
M 3123 4903 
L 3123 4838 
Q 3033 4750 2886 4622 
Q 2739 4494 2570 4355 
Q 2402 4216 2239 4089 
Q 2077 3963 1955 3878 
L 1320 3878 
L 1320 3963 
Q 1423 4081 1559 4245 
Q 1695 4409 1829 4584 
Q 1964 4759 2055 4903 
L 3123 4903 
z
" transform="scale(0.015625)"/>
     </defs>
     <use xlink:href="#OpenSans-Bold-44"/>
     <use xlink:href="#OpenSans-Bold-69" x="74.023438"/>
     <use xlink:href="#OpenSans-Bold-73" x="104.541016"/>
     <use xlink:href="#OpenSans-Bold-74" x="154.248047"/>
     <use xlink:href="#OpenSans-Bold-72" x="197.65625"/>
     <use xlink:href="#OpenSans-Bold-69" x="243.066406"/>
     <use xlink:href="#OpenSans-Bold-62" x="273.583984"/>
     <use xlink:href="#OpenSans-Bold-75" x="336.865234"/>
     <use xlink:href="#OpenSans-Bold-63" x="402.587891"/>
     <use xlink:href="#OpenSans-Bold-69" x="454.003906"/>
     <use xlink:href="#OpenSans-Bold-f3" x="484.521484"/>
     <use xlink:href="#OpenSans-Bold-6e" x="546.435547"/>
     <use xlink:href="#OpenSans-Bold-20" x="612.158203"/>
     <use xlink:href="#OpenSans-Bold-64" x="638.134766"/>
     <use xlink:href="#OpenSans-Bold-65" x="701.416016"/>
     <use xlink:href="#OpenSans-Bold-20" x="760.498047"/>
     <use xlink:href="#OpenSans-Bold-49" x="786.474609"/>
     <use xlink:href="#OpenSans-Bold-6e" x="819.580078"/>
     <use xlink:href="#OpenSans-Bold-73" x="885.302734"/>
     <use xlink:href="#OpenSans-Bold-74" x="935.009766"/>
     <use xlink:href="#OpenSans-Bold-72" x="978.417969"/>
     <use xlink:href="#OpenSans-Bold-75" x="1023.828125"/>
     <use xlink:href="#OpenSans-Bold-6d" x="1089.550781"/>
     <use xlink:href="#OpenSans-Bold-65" x="1187.744141"/>
     <use xlink:href="#OpenSans-Bold-6e" x="1246.826172"/>
     <use xlink:href="#OpenSans-Bold-74" x="1312.548828"/>
     <use xlink:href="#OpenSans-Bold-6f" x="1355.957031"/>
     <use xlink:href="#OpenSans-Bold-73" x="1417.871094"/>
     <use xlink:href="#OpenSans-Bold-20" x="1467.578125"/>
     <use xlink:href="#OpenSans-Bold-70" x="1493.554688"/>
     <use xlink:href="#OpenSans-Bold-6f" x="1556.835938"/>
     <use xlink:href="#OpenSans-Bold-72" x="1618.75"/>
     <use xlink:href="#OpenSans-Bold-20" x="1664.160156"/>
     <use xlink:href="#OpenSans-Bold-44" x="1690.136719"/>
     <use xlink:href="#OpenSans-Bold-69" x="1764.160156"/>
     <use xlink:href="#OpenSans-Bold-6d" x="1794.677734"/>
     <use xlink:href="#OpenSans-Bold-65" x="1892.871094"/>
     <use xlink:href="#OpenSans-Bold-6e" x="1951.953125"/>
     <use xlink:href="#OpenSans-Bold-73" x="2017.675781"/>
     <use xlink:href="#OpenSans-Bold-69" x="2067.382812"/>
     <use xlink:href="#OpenSans-Bold-f3" x="2097.900391"/>
     <use xlink:href="#OpenSans-Bold-6e" x="2159.814453"/>
     <use xlink:href="#OpenSans-Bold-20" x="2225.537109"/>
     <use xlink:href="#OpenSans-Bold-53" x="2251.513672"/>
     <use xlink:href="#OpenSans-Bold-69" x="2306.591797"/>
     <use xlink:href="#OpenSans-Bold-73" x="2337.109375"/>
     <use xlink:href="#OpenSans-Bold-74" x="2386.816406"/>
     <use xlink:href="#OpenSans-Bold-e9" x="2430.224609"/>
     <use xlink:href="#OpenSans-Bold-6d" x="2489.306641"/>
     <use xlink:href="#OpenSans-Bold-69" x="2587.5"/>
     <use xlink:href="#OpenSans-Bold-63" x="2618.017578"/>
     <use xlink:href="#OpenSans-Bold-61" x="2669.433594"/>
    </g>
   </g>
  </g>
 </g>
</svg>
