<?xml version="1.0" encoding="utf-8" standalone="no"?>
<!DOCTYPE svg PUBLIC "-//W3C//DTD SVG 1.1//EN"
  "http://www.w3.org/Graphics/SVG/1.1/DTD/svg11.dtd">
<svg xmlns:xlink="http://www.w3.org/1999/xlink" width="432pt" height="432pt" viewBox="0 0 432 432" xmlns="http://www.w3.org/2000/svg" version="1.1">
 <metadata>
  <rdf:RDF xmlns:dc="http://purl.org/dc/elements/1.1/" xmlns:cc="http://creativecommons.org/ns#" xmlns:rdf="http://www.w3.org/1999/02/22-rdf-syntax-ns#">
   <cc:Work>
    <dc:type rdf:resource="http://purl.org/dc/dcmitype/StillImage"/>
    <dc:date>2024-02-26T21:22:11.039953</dc:date>
    <dc:format>image/svg+xml</dc:format>
    <dc:creator>
     <cc:Agent>
      <dc:title>Matplotlib v3.7.1, https://matplotlib.org/</dc:title>
     </cc:Agent>
    </dc:creator>
   </cc:Work>
  </rdf:RDF>
 </metadata>
 <defs>
  <style type="text/css">*{stroke-linejoin: round; stroke-linecap: butt}</style>
 </defs>
 <g id="figure_1">
  <g id="patch_1">
   <path d="M 0 432 
L 432 432 
L 432 0 
L 0 0 
z
" style="fill: #ffffff"/>
  </g>
  <g id="axes_1">
   <g id="matplotlib.axis_1"/>
   <g id="matplotlib.axis_2"/>
   <g id="patch_2">
    <path d="M 317.411136 216 
C 317.411136 211.969114 317.160294 207.942131 316.660066 203.942404 
C 316.159839 199.942678 315.411193 195.977953 314.418471 192.071222 
L 220.249839 216 
z
" style="fill: #f45b69"/>
   </g>
   <g id="patch_3">
    <path d="M 314.418471 192.071222 
C 313.674034 189.141587 312.793289 186.248287 311.77911 183.400764 
C 310.76493 180.553241 309.618422 177.754596 308.343325 175.013961 
L 220.249839 216 
z
" style="fill: #52489c"/>
   </g>
   <g id="patch_4">
    <path d="M 308.343325 175.013961 
C 303.336246 164.25198 296.399177 154.498074 287.876479 146.236434 
C 279.353781 137.974794 269.38885 131.344426 258.476355 126.674466 
C 247.56386 122.004506 235.887407 119.373528 224.026623 118.912135 
C 212.165839 118.450743 200.320287 120.166699 189.077988 123.974822 
C 177.83569 127.782946 167.385801 133.619164 158.247062 141.193762 
C 149.108324 148.76836 141.434498 157.953892 135.606519 168.294382 
C 129.77854 178.634873 125.894466 189.956338 124.147106 201.696773 
C 122.399746 213.437208 122.818499 225.399075 125.382578 236.988578 
C 127.946657 248.57808 132.612921 259.600222 139.149733 269.507854 
C 145.686545 279.415486 153.98392 288.041909 163.629971 294.958901 
C 173.276021 301.875894 184.108449 306.967074 195.589524 309.979713 
C 207.070599 312.992352 219.007148 313.87576 230.806632 312.586084 
C 242.606116 311.296409 254.070003 307.855349 264.629219 302.433722 
C 275.188434 297.012094 284.665315 289.70112 292.589422 280.863721 
C 300.513528 272.026323 306.751535 261.811192 310.993781 250.725416 
C 315.236028 239.639641 317.411137 227.869742 317.411136 215.999987 
L 220.249839 216 
z
" style="fill: #59c3c3"/>
   </g>
   <g id="text_1">
    <!-- Instrumento blando -->
    <g style="fill: #37539c" transform="translate(334.97801 203.729586) scale(0.08 -0.08)">
     <defs>
      <path id="OpenSans-Bold-49" d="M 575 0 
L 575 4569 
L 1544 4569 
L 1544 0 
L 575 0 
z
" transform="scale(0.015625)"/>
      <path id="OpenSans-Bold-6e" d="M 2484 3559 
Q 3044 3559 3384 3254 
Q 3725 2950 3725 2278 
L 3725 0 
L 2772 0 
L 2772 2041 
Q 2772 2416 2636 2606 
Q 2500 2797 2209 2797 
Q 1772 2797 1612 2500 
Q 1453 2203 1453 1644 
L 1453 0 
L 500 0 
L 500 3494 
L 1228 3494 
L 1356 3047 
L 1409 3047 
Q 1522 3228 1689 3340 
Q 1856 3453 2061 3506 
Q 2266 3559 2484 3559 
z
" transform="scale(0.015625)"/>
      <path id="OpenSans-Bold-73" d="M 2938 1038 
Q 2938 681 2770 436 
Q 2603 191 2272 64 
Q 1941 -63 1447 -63 
Q 1081 -63 820 -16 
Q 559 31 294 141 
L 294 928 
Q 578 800 904 717 
Q 1231 634 1478 634 
Q 1756 634 1876 717 
Q 1997 800 1997 934 
Q 1997 1022 1948 1092 
Q 1900 1163 1740 1252 
Q 1581 1341 1241 1484 
Q 913 1622 702 1762 
Q 491 1903 389 2095 
Q 288 2288 288 2584 
Q 288 3069 664 3314 
Q 1041 3559 1672 3559 
Q 1997 3559 2292 3493 
Q 2588 3428 2900 3284 
L 2613 2597 
Q 2353 2709 2123 2781 
Q 1894 2853 1656 2853 
Q 1447 2853 1340 2797 
Q 1234 2741 1234 2625 
Q 1234 2541 1289 2475 
Q 1344 2409 1501 2329 
Q 1659 2250 1966 2125 
Q 2263 2003 2481 1870 
Q 2700 1738 2819 1542 
Q 2938 1347 2938 1038 
z
" transform="scale(0.015625)"/>
      <path id="OpenSans-Bold-74" d="M 1972 697 
Q 2128 697 2276 728 
Q 2425 759 2572 806 
L 2572 97 
Q 2419 28 2192 -17 
Q 1966 -63 1697 -63 
Q 1384 -63 1136 39 
Q 888 141 745 392 
Q 603 644 603 1094 
L 603 2778 
L 147 2778 
L 147 3181 
L 672 3500 
L 947 4238 
L 1556 4238 
L 1556 3494 
L 2534 3494 
L 2534 2778 
L 1556 2778 
L 1556 1094 
Q 1556 894 1670 795 
Q 1784 697 1972 697 
z
" transform="scale(0.015625)"/>
      <path id="OpenSans-Bold-72" d="M 2450 3559 
Q 2522 3559 2617 3551 
Q 2713 3544 2772 3531 
L 2700 2638 
Q 2653 2653 2567 2661 
Q 2481 2669 2419 2669 
Q 2234 2669 2061 2622 
Q 1888 2575 1750 2470 
Q 1613 2366 1533 2195 
Q 1453 2025 1453 1778 
L 1453 0 
L 500 0 
L 500 3494 
L 1222 3494 
L 1363 2906 
L 1409 2906 
Q 1513 3084 1667 3232 
Q 1822 3381 2020 3470 
Q 2219 3559 2450 3559 
z
" transform="scale(0.015625)"/>
      <path id="OpenSans-Bold-75" d="M 3706 3494 
L 3706 0 
L 2975 0 
L 2847 447 
L 2797 447 
Q 2684 269 2515 156 
Q 2347 44 2144 -9 
Q 1941 -63 1722 -63 
Q 1347 -63 1069 70 
Q 791 203 636 484 
Q 481 766 481 1216 
L 481 3494 
L 1434 3494 
L 1434 1453 
Q 1434 1078 1568 887 
Q 1703 697 1997 697 
Q 2288 697 2453 830 
Q 2619 963 2686 1220 
Q 2753 1478 2753 1850 
L 2753 3494 
L 3706 3494 
z
" transform="scale(0.015625)"/>
      <path id="OpenSans-Bold-6d" d="M 4603 3559 
Q 5197 3559 5501 3254 
Q 5806 2950 5806 2278 
L 5806 0 
L 4850 0 
L 4850 2041 
Q 4850 2416 4722 2606 
Q 4594 2797 4325 2797 
Q 3947 2797 3787 2526 
Q 3628 2256 3628 1753 
L 3628 0 
L 2675 0 
L 2675 2041 
Q 2675 2291 2619 2459 
Q 2563 2628 2447 2712 
Q 2331 2797 2150 2797 
Q 1884 2797 1732 2664 
Q 1581 2531 1517 2273 
Q 1453 2016 1453 1644 
L 1453 0 
L 500 0 
L 500 3494 
L 1228 3494 
L 1356 3047 
L 1409 3047 
Q 1516 3228 1677 3340 
Q 1838 3453 2031 3506 
Q 2225 3559 2425 3559 
Q 2809 3559 3076 3434 
Q 3344 3309 3488 3047 
L 3572 3047 
Q 3728 3316 4014 3437 
Q 4300 3559 4603 3559 
z
" transform="scale(0.015625)"/>
      <path id="OpenSans-Bold-65" d="M 1941 3559 
Q 2425 3559 2775 3373 
Q 3125 3188 3315 2834 
Q 3506 2481 3506 1972 
L 3506 1509 
L 1253 1509 
Q 1269 1106 1495 876 
Q 1722 647 2125 647 
Q 2459 647 2737 715 
Q 3016 784 3309 922 
L 3309 184 
Q 3050 56 2767 -3 
Q 2484 -63 2081 -63 
Q 1556 -63 1151 131 
Q 747 325 517 722 
Q 288 1119 288 1722 
Q 288 2334 495 2742 
Q 703 3150 1075 3354 
Q 1447 3559 1941 3559 
z
M 1947 2881 
Q 1669 2881 1486 2703 
Q 1303 2525 1275 2144 
L 2613 2144 
Q 2609 2356 2536 2522 
Q 2463 2688 2317 2784 
Q 2172 2881 1947 2881 
z
" transform="scale(0.015625)"/>
      <path id="OpenSans-Bold-6f" d="M 3675 1753 
Q 3675 1316 3558 978 
Q 3441 641 3217 408 
Q 2994 175 2680 56 
Q 2366 -63 1972 -63 
Q 1603 -63 1295 56 
Q 988 175 761 408 
Q 534 641 411 978 
Q 288 1316 288 1753 
Q 288 2334 494 2737 
Q 700 3141 1081 3350 
Q 1463 3559 1991 3559 
Q 2481 3559 2861 3350 
Q 3241 3141 3458 2737 
Q 3675 2334 3675 1753 
z
M 1259 1753 
Q 1259 1409 1334 1175 
Q 1409 941 1568 822 
Q 1728 703 1984 703 
Q 2238 703 2395 822 
Q 2553 941 2626 1175 
Q 2700 1409 2700 1753 
Q 2700 2100 2626 2329 
Q 2553 2559 2393 2675 
Q 2234 2791 1978 2791 
Q 1600 2791 1429 2531 
Q 1259 2272 1259 1753 
z
" transform="scale(0.015625)"/>
      <path id="OpenSans-Bold-20" transform="scale(0.015625)"/>
      <path id="OpenSans-Bold-62" d="M 1453 4863 
L 1453 3731 
Q 1453 3534 1442 3340 
Q 1431 3147 1416 3041 
L 1453 3041 
Q 1591 3256 1828 3407 
Q 2066 3559 2444 3559 
Q 3031 3559 3397 3100 
Q 3763 2641 3763 1753 
Q 3763 1156 3594 751 
Q 3425 347 3122 142 
Q 2819 -63 2419 -63 
Q 2034 -63 1812 75 
Q 1591 213 1453 384 
L 1388 384 
L 1228 0 
L 500 0 
L 500 4863 
L 1453 4863 
z
M 2138 2797 
Q 1888 2797 1741 2694 
Q 1594 2591 1526 2384 
Q 1459 2178 1453 1863 
L 1453 1759 
Q 1453 1250 1603 979 
Q 1753 709 2150 709 
Q 2444 709 2617 981 
Q 2791 1253 2791 1766 
Q 2791 2278 2616 2537 
Q 2441 2797 2138 2797 
z
" transform="scale(0.015625)"/>
      <path id="OpenSans-Bold-6c" d="M 1453 0 
L 500 0 
L 500 4863 
L 1453 4863 
L 1453 0 
z
" transform="scale(0.015625)"/>
      <path id="OpenSans-Bold-61" d="M 1931 3566 
Q 2634 3566 3009 3259 
Q 3384 2953 3384 2328 
L 3384 0 
L 2719 0 
L 2534 475 
L 2509 475 
Q 2359 288 2203 169 
Q 2047 50 1844 -6 
Q 1641 -63 1350 -63 
Q 1041 -63 795 56 
Q 550 175 409 420 
Q 269 666 269 1044 
Q 269 1600 659 1864 
Q 1050 2128 1831 2156 
L 2438 2175 
L 2438 2328 
Q 2438 2603 2294 2731 
Q 2150 2859 1894 2859 
Q 1641 2859 1397 2787 
Q 1153 2716 909 2606 
L 594 3250 
Q 872 3397 1217 3481 
Q 1563 3566 1931 3566 
z
M 2438 1619 
L 2069 1606 
Q 1606 1594 1426 1441 
Q 1247 1288 1247 1038 
Q 1247 819 1375 726 
Q 1503 634 1709 634 
Q 2016 634 2227 815 
Q 2438 997 2438 1331 
L 2438 1619 
z
" transform="scale(0.015625)"/>
      <path id="OpenSans-Bold-64" d="M 1606 -63 
Q 1022 -63 655 395 
Q 288 853 288 1741 
Q 288 2638 659 3098 
Q 1031 3559 1631 3559 
Q 1881 3559 2072 3490 
Q 2263 3422 2402 3306 
Q 2541 3191 2638 3047 
L 2669 3047 
Q 2650 3147 2623 3342 
Q 2597 3538 2597 3744 
L 2597 4863 
L 3553 4863 
L 3553 0 
L 2822 0 
L 2638 453 
L 2597 453 
Q 2506 309 2370 192 
Q 2234 75 2046 6 
Q 1859 -63 1606 -63 
z
M 1941 697 
Q 2331 697 2492 930 
Q 2653 1163 2663 1631 
L 2663 1734 
Q 2663 2244 2506 2514 
Q 2350 2784 1925 2784 
Q 1609 2784 1431 2512 
Q 1253 2241 1253 1728 
Q 1253 1216 1433 956 
Q 1613 697 1941 697 
z
" transform="scale(0.015625)"/>
     </defs>
     <use xlink:href="#OpenSans-Bold-49"/>
     <use xlink:href="#OpenSans-Bold-6e" x="33.105469"/>
     <use xlink:href="#OpenSans-Bold-73" x="98.828125"/>
     <use xlink:href="#OpenSans-Bold-74" x="148.535156"/>
     <use xlink:href="#OpenSans-Bold-72" x="191.943359"/>
     <use xlink:href="#OpenSans-Bold-75" x="237.353516"/>
     <use xlink:href="#OpenSans-Bold-6d" x="303.076172"/>
     <use xlink:href="#OpenSans-Bold-65" x="401.269531"/>
     <use xlink:href="#OpenSans-Bold-6e" x="460.351562"/>
     <use xlink:href="#OpenSans-Bold-74" x="526.074219"/>
     <use xlink:href="#OpenSans-Bold-6f" x="569.482422"/>
     <use xlink:href="#OpenSans-Bold-20" x="631.396484"/>
     <use xlink:href="#OpenSans-Bold-62" x="657.373047"/>
     <use xlink:href="#OpenSans-Bold-6c" x="720.654297"/>
     <use xlink:href="#OpenSans-Bold-61" x="751.171875"/>
     <use xlink:href="#OpenSans-Bold-6e" x="811.572266"/>
     <use xlink:href="#OpenSans-Bold-64" x="877.294922"/>
     <use xlink:href="#OpenSans-Bold-6f" x="940.576172"/>
    </g>
   </g>
   <g id="text_2">
    <!-- (4) -->
    <g style="fill: #37539c" transform="translate(319.856811 200.387134) scale(0.08 -0.08)">
     <defs>
      <path id="OpenSans-Bold-28" d="M 256 1753 
Q 256 2275 356 2773 
Q 456 3272 665 3726 
Q 875 4181 1197 4569 
L 1978 4569 
Q 1541 3969 1314 3244 
Q 1088 2519 1088 1759 
Q 1088 1266 1188 777 
Q 1288 288 1486 -165 
Q 1684 -619 1972 -1013 
L 1197 -1013 
Q 875 -638 665 -192 
Q 456 253 356 745 
Q 256 1238 256 1753 
z
" transform="scale(0.015625)"/>
      <path id="OpenSans-Bold-34" d="M 3553 947 
L 3003 947 
L 3003 0 
L 2059 0 
L 2059 947 
L 109 947 
L 109 1619 
L 2113 4569 
L 3003 4569 
L 3003 1697 
L 3553 1697 
L 3553 947 
z
M 2059 1697 
L 2059 2472 
Q 2059 2581 2064 2731 
Q 2069 2881 2075 3031 
Q 2081 3181 2089 3298 
Q 2097 3416 2100 3463 
L 2075 3463 
Q 2016 3334 1950 3214 
Q 1884 3094 1797 2963 
L 959 1697 
L 2059 1697 
z
" transform="scale(0.015625)"/>
      <path id="OpenSans-Bold-29" d="M 1913 1753 
Q 1913 1238 1813 745 
Q 1713 253 1505 -192 
Q 1297 -638 972 -1013 
L 197 -1013 
Q 488 -619 684 -165 
Q 881 288 981 777 
Q 1081 1266 1081 1759 
Q 1081 2266 979 2759 
Q 878 3253 681 3711 
Q 484 4169 191 4569 
L 972 4569 
Q 1297 4181 1505 3726 
Q 1713 3272 1813 2773 
Q 1913 2275 1913 1753 
z
" transform="scale(0.015625)"/>
     </defs>
     <use xlink:href="#OpenSans-Bold-28"/>
     <use xlink:href="#OpenSans-Bold-34" x="33.886719"/>
     <use xlink:href="#OpenSans-Bold-29" x="91.064453"/>
    </g>
    <!-- 4% -->
    <g style="fill: #37539c" transform="translate(318.964311 209.604134) scale(0.08 -0.08)">
     <defs>
      <path id="OpenSans-Bold-25" d="M 1275 4634 
Q 1813 4634 2091 4259 
Q 2369 3884 2369 3206 
Q 2369 2528 2106 2147 
Q 1844 1766 1275 1766 
Q 747 1766 472 2147 
Q 197 2528 197 3206 
Q 197 3884 455 4259 
Q 713 4634 1275 4634 
z
M 1281 3981 
Q 1128 3981 1056 3787 
Q 984 3594 984 3200 
Q 984 2806 1056 2609 
Q 1128 2413 1281 2413 
Q 1434 2413 1507 2608 
Q 1581 2803 1581 3200 
Q 1581 3594 1507 3787 
Q 1434 3981 1281 3981 
z
M 4519 4569 
L 1984 0 
L 1234 0 
L 3769 4569 
L 4519 4569 
z
M 4475 2809 
Q 5013 2809 5291 2434 
Q 5569 2059 5569 1381 
Q 5569 706 5306 325 
Q 5044 -56 4475 -56 
Q 3947 -56 3672 325 
Q 3397 706 3397 1381 
Q 3397 2059 3655 2434 
Q 3913 2809 4475 2809 
z
M 4481 2156 
Q 4328 2156 4256 1962 
Q 4184 1769 4184 1375 
Q 4184 981 4256 784 
Q 4328 588 4481 588 
Q 4634 588 4707 783 
Q 4781 978 4781 1375 
Q 4781 1769 4707 1962 
Q 4634 2156 4481 2156 
z
" transform="scale(0.015625)"/>
     </defs>
     <use xlink:href="#OpenSans-Bold-34"/>
     <use xlink:href="#OpenSans-Bold-25" x="57.177734"/>
    </g>
   </g>
   <g id="text_3">
    <!-- Instrumento regulatorio -->
    <g style="fill: #37539c" transform="translate(329.169671 179.285034) scale(0.08 -0.08)">
     <defs>
      <path id="OpenSans-Bold-67" d="M 1522 -1538 
Q 791 -1538 405 -1283 
Q 19 -1028 19 -569 
Q 19 -253 216 -40 
Q 413 172 794 263 
Q 647 325 537 467 
Q 428 609 428 769 
Q 428 969 543 1101 
Q 659 1234 878 1363 
Q 603 1481 442 1743 
Q 281 2006 281 2363 
Q 281 2744 448 3011 
Q 616 3278 936 3418 
Q 1256 3559 1716 3559 
Q 1813 3559 1941 3546 
Q 2069 3534 2176 3518 
Q 2284 3503 2322 3494 
L 3541 3494 
L 3541 3009 
L 2994 2869 
Q 3069 2753 3106 2622 
Q 3144 2491 3144 2344 
Q 3144 1781 2751 1467 
Q 2359 1153 1663 1153 
Q 1497 1163 1350 1178 
Q 1278 1122 1240 1059 
Q 1203 997 1203 928 
Q 1203 859 1261 814 
Q 1319 769 1436 745 
Q 1553 722 1728 722 
L 2322 722 
Q 2897 722 3198 475 
Q 3500 228 3500 -250 
Q 3500 -863 2989 -1200 
Q 2478 -1538 1522 -1538 
z
M 1563 -916 
Q 1903 -916 2148 -852 
Q 2394 -788 2525 -670 
Q 2656 -553 2656 -391 
Q 2656 -259 2579 -182 
Q 2503 -106 2348 -75 
Q 2194 -44 1953 -44 
L 1459 -44 
Q 1284 -44 1145 -100 
Q 1006 -156 925 -257 
Q 844 -359 844 -494 
Q 844 -691 1033 -803 
Q 1222 -916 1563 -916 
z
M 1716 1734 
Q 1984 1734 2109 1900 
Q 2234 2066 2234 2350 
Q 2234 2666 2104 2823 
Q 1975 2981 1716 2981 
Q 1453 2981 1322 2823 
Q 1191 2666 1191 2350 
Q 1191 2066 1320 1900 
Q 1450 1734 1716 1734 
z
" transform="scale(0.015625)"/>
      <path id="OpenSans-Bold-69" d="M 1453 3494 
L 1453 0 
L 500 0 
L 500 3494 
L 1453 3494 
z
M 978 4863 
Q 1191 4863 1344 4764 
Q 1497 4666 1497 4397 
Q 1497 4131 1344 4029 
Q 1191 3928 978 3928 
Q 763 3928 611 4029 
Q 459 4131 459 4397 
Q 459 4666 611 4764 
Q 763 4863 978 4863 
z
" transform="scale(0.015625)"/>
     </defs>
     <use xlink:href="#OpenSans-Bold-49"/>
     <use xlink:href="#OpenSans-Bold-6e" x="33.105469"/>
     <use xlink:href="#OpenSans-Bold-73" x="98.828125"/>
     <use xlink:href="#OpenSans-Bold-74" x="148.535156"/>
     <use xlink:href="#OpenSans-Bold-72" x="191.943359"/>
     <use xlink:href="#OpenSans-Bold-75" x="237.353516"/>
     <use xlink:href="#OpenSans-Bold-6d" x="303.076172"/>
     <use xlink:href="#OpenSans-Bold-65" x="401.269531"/>
     <use xlink:href="#OpenSans-Bold-6e" x="460.351562"/>
     <use xlink:href="#OpenSans-Bold-74" x="526.074219"/>
     <use xlink:href="#OpenSans-Bold-6f" x="569.482422"/>
     <use xlink:href="#OpenSans-Bold-20" x="631.396484"/>
     <use xlink:href="#OpenSans-Bold-72" x="657.373047"/>
     <use xlink:href="#OpenSans-Bold-65" x="702.783203"/>
     <use xlink:href="#OpenSans-Bold-67" x="761.865234"/>
     <use xlink:href="#OpenSans-Bold-75" x="818.359375"/>
     <use xlink:href="#OpenSans-Bold-6c" x="884.082031"/>
     <use xlink:href="#OpenSans-Bold-61" x="914.599609"/>
     <use xlink:href="#OpenSans-Bold-74" x="975"/>
     <use xlink:href="#OpenSans-Bold-6f" x="1018.408203"/>
     <use xlink:href="#OpenSans-Bold-72" x="1080.322266"/>
     <use xlink:href="#OpenSans-Bold-69" x="1125.732422"/>
     <use xlink:href="#OpenSans-Bold-6f" x="1156.25"/>
    </g>
   </g>
   <g id="text_4">
    <!-- (3) -->
    <g style="fill: #37539c" transform="translate(314.560973 178.099454) scale(0.08 -0.08)">
     <defs>
      <path id="OpenSans-Bold-33" d="M 3272 3547 
Q 3272 3231 3140 3000 
Q 3009 2769 2786 2622 
Q 2563 2475 2284 2406 
L 2284 2388 
Q 2834 2319 3120 2050 
Q 3406 1781 3406 1331 
Q 3406 931 3211 615 
Q 3016 300 2609 118 
Q 2203 -63 1563 -63 
Q 1184 -63 857 -2 
Q 531 59 244 184 
L 244 1006 
Q 538 856 859 779 
Q 1181 703 1459 703 
Q 1978 703 2186 883 
Q 2394 1063 2394 1388 
Q 2394 1578 2297 1709 
Q 2200 1841 1961 1909 
Q 1722 1978 1294 1978 
L 947 1978 
L 947 2719 
L 1300 2719 
Q 1722 2719 1942 2798 
Q 2163 2878 2242 3017 
Q 2322 3156 2322 3334 
Q 2322 3578 2172 3715 
Q 2022 3853 1672 3853 
Q 1453 3853 1273 3798 
Q 1094 3744 950 3667 
Q 806 3591 697 3519 
L 250 4184 
Q 519 4378 880 4506 
Q 1241 4634 1741 4634 
Q 2447 4634 2859 4350 
Q 3272 4066 3272 3547 
z
" transform="scale(0.015625)"/>
     </defs>
     <use xlink:href="#OpenSans-Bold-28"/>
     <use xlink:href="#OpenSans-Bold-33" x="33.886719"/>
     <use xlink:href="#OpenSans-Bold-29" x="91.064453"/>
    </g>
    <!-- 3% -->
    <g style="fill: #37539c" transform="translate(313.668473 187.316454) scale(0.08 -0.08)">
     <use xlink:href="#OpenSans-Bold-33"/>
     <use xlink:href="#OpenSans-Bold-25" x="57.177734"/>
    </g>
   </g>
   <g id="text_5">
    <!-- Transferencia económica -->
    <g style="fill: #37539c" transform="translate(6.872798 243.054533) scale(0.08 -0.08)">
     <defs>
      <path id="OpenSans-Bold-54" d="M 2338 0 
L 1369 0 
L 1369 3763 
L 128 3763 
L 128 4569 
L 3578 4569 
L 3578 3763 
L 2338 3763 
L 2338 0 
z
" transform="scale(0.015625)"/>
      <path id="OpenSans-Bold-66" d="M 2431 2778 
L 1606 2778 
L 1606 0 
L 653 0 
L 653 2778 
L 128 2778 
L 128 3238 
L 653 3494 
L 653 3750 
Q 653 4197 804 4445 
Q 956 4694 1232 4795 
Q 1509 4897 1888 4897 
Q 2166 4897 2394 4851 
Q 2622 4806 2766 4750 
L 2522 4050 
Q 2413 4084 2284 4112 
Q 2156 4141 1991 4141 
Q 1791 4141 1698 4020 
Q 1606 3900 1606 3713 
L 1606 3494 
L 2431 3494 
L 2431 2778 
z
" transform="scale(0.015625)"/>
      <path id="OpenSans-Bold-63" d="M 1919 -63 
Q 1400 -63 1034 126 
Q 669 316 478 712 
Q 288 1109 288 1728 
Q 288 2369 505 2773 
Q 722 3178 1108 3368 
Q 1494 3559 2003 3559 
Q 2366 3559 2630 3489 
Q 2894 3419 3091 3322 
L 2809 2584 
Q 2584 2675 2390 2733 
Q 2197 2791 2003 2791 
Q 1753 2791 1587 2673 
Q 1422 2556 1340 2322 
Q 1259 2088 1259 1734 
Q 1259 1388 1346 1159 
Q 1434 931 1600 820 
Q 1766 709 2003 709 
Q 2300 709 2531 789 
Q 2763 869 2981 1013 
L 2981 197 
Q 2763 59 2523 -2 
Q 2284 -63 1919 -63 
z
" transform="scale(0.015625)"/>
      <path id="OpenSans-Bold-f3" d="M 3675 1753 
Q 3675 1316 3558 978 
Q 3441 641 3217 408 
Q 2994 175 2680 56 
Q 2366 -63 1972 -63 
Q 1603 -63 1295 56 
Q 988 175 761 408 
Q 534 641 411 978 
Q 288 1316 288 1753 
Q 288 2334 494 2737 
Q 700 3141 1081 3350 
Q 1463 3559 1991 3559 
Q 2481 3559 2861 3350 
Q 3241 3141 3458 2737 
Q 3675 2334 3675 1753 
z
M 1259 1753 
Q 1259 1409 1334 1175 
Q 1409 941 1568 822 
Q 1728 703 1984 703 
Q 2238 703 2395 822 
Q 2553 941 2626 1175 
Q 2700 1409 2700 1753 
Q 2700 2100 2626 2329 
Q 2553 2559 2393 2675 
Q 2234 2791 1978 2791 
Q 1600 2791 1429 2531 
Q 1259 2272 1259 1753 
z
M 3211 4903 
L 3211 4838 
Q 3121 4750 2974 4622 
Q 2827 4494 2658 4355 
Q 2490 4216 2327 4089 
Q 2165 3963 2043 3878 
L 1408 3878 
L 1408 3963 
Q 1511 4081 1647 4245 
Q 1783 4409 1917 4584 
Q 2052 4759 2143 4903 
L 3211 4903 
z
" transform="scale(0.015625)"/>
     </defs>
     <use xlink:href="#OpenSans-Bold-54"/>
     <use xlink:href="#OpenSans-Bold-72" x="57.910156"/>
     <use xlink:href="#OpenSans-Bold-61" x="103.320312"/>
     <use xlink:href="#OpenSans-Bold-6e" x="163.720703"/>
     <use xlink:href="#OpenSans-Bold-73" x="229.443359"/>
     <use xlink:href="#OpenSans-Bold-66" x="279.150391"/>
     <use xlink:href="#OpenSans-Bold-65" x="317.871094"/>
     <use xlink:href="#OpenSans-Bold-72" x="376.953125"/>
     <use xlink:href="#OpenSans-Bold-65" x="422.363281"/>
     <use xlink:href="#OpenSans-Bold-6e" x="481.445312"/>
     <use xlink:href="#OpenSans-Bold-63" x="547.167969"/>
     <use xlink:href="#OpenSans-Bold-69" x="598.583984"/>
     <use xlink:href="#OpenSans-Bold-61" x="629.101562"/>
     <use xlink:href="#OpenSans-Bold-20" x="689.501953"/>
     <use xlink:href="#OpenSans-Bold-65" x="715.478516"/>
     <use xlink:href="#OpenSans-Bold-63" x="774.560547"/>
     <use xlink:href="#OpenSans-Bold-6f" x="825.976562"/>
     <use xlink:href="#OpenSans-Bold-6e" x="887.890625"/>
     <use xlink:href="#OpenSans-Bold-f3" x="953.613281"/>
     <use xlink:href="#OpenSans-Bold-6d" x="1015.527344"/>
     <use xlink:href="#OpenSans-Bold-69" x="1113.720703"/>
     <use xlink:href="#OpenSans-Bold-63" x="1144.238281"/>
     <use xlink:href="#OpenSans-Bold-61" x="1195.654297"/>
    </g>
   </g>
   <g id="text_6">
    <!-- (94) -->
    <g style="fill: #37539c" transform="translate(110.033861 236.242232) scale(0.08 -0.08)">
     <defs>
      <path id="OpenSans-Bold-39" d="M 3431 2619 
Q 3431 2225 3373 1837 
Q 3316 1450 3172 1108 
Q 3028 766 2768 502 
Q 2509 238 2109 87 
Q 1709 -63 1141 -63 
Q 1006 -63 825 -52 
Q 644 -41 525 -19 
L 525 756 
Q 650 725 790 708 
Q 931 691 1075 691 
Q 1647 691 1958 872 
Q 2269 1053 2395 1375 
Q 2522 1697 2541 2119 
L 2503 2119 
Q 2413 1969 2289 1848 
Q 2166 1728 1975 1658 
Q 1784 1588 1491 1588 
Q 1100 1588 811 1758 
Q 522 1928 364 2251 
Q 206 2575 206 3034 
Q 206 3531 395 3886 
Q 584 4241 934 4431 
Q 1284 4622 1759 4622 
Q 2109 4622 2412 4501 
Q 2716 4381 2945 4134 
Q 3175 3888 3303 3509 
Q 3431 3131 3431 2619 
z
M 1778 3847 
Q 1497 3847 1319 3653 
Q 1141 3459 1141 3047 
Q 1141 2716 1294 2522 
Q 1447 2328 1759 2328 
Q 1975 2328 2134 2423 
Q 2294 2519 2383 2664 
Q 2472 2809 2472 2963 
Q 2472 3122 2428 3278 
Q 2384 3434 2296 3562 
Q 2209 3691 2079 3769 
Q 1950 3847 1778 3847 
z
" transform="scale(0.015625)"/>
     </defs>
     <use xlink:href="#OpenSans-Bold-28"/>
     <use xlink:href="#OpenSans-Bold-39" x="33.886719"/>
     <use xlink:href="#OpenSans-Bold-34" x="91.064453"/>
     <use xlink:href="#OpenSans-Bold-29" x="148.242188"/>
    </g>
    <!-- 93% -->
    <g style="fill: #37539c" transform="translate(109.141361 245.459232) scale(0.08 -0.08)">
     <use xlink:href="#OpenSans-Bold-39"/>
     <use xlink:href="#OpenSans-Bold-33" x="57.177734"/>
     <use xlink:href="#OpenSans-Bold-25" x="114.355469"/>
    </g>
   </g>
  </g>
 </g>
</svg>
