<?xml version="1.0" encoding="utf-8" standalone="no"?>
<!DOCTYPE svg PUBLIC "-//W3C//DTD SVG 1.1//EN"
  "http://www.w3.org/Graphics/SVG/1.1/DTD/svg11.dtd">
<svg xmlns:xlink="http://www.w3.org/1999/xlink" width="720pt" height="288pt" viewBox="0 0 720 288" xmlns="http://www.w3.org/2000/svg" version="1.1">
 <metadata>
  <rdf:RDF xmlns:dc="http://purl.org/dc/elements/1.1/" xmlns:cc="http://creativecommons.org/ns#" xmlns:rdf="http://www.w3.org/1999/02/22-rdf-syntax-ns#">
   <cc:Work>
    <dc:type rdf:resource="http://purl.org/dc/dcmitype/StillImage"/>
    <dc:date>2024-02-26T21:22:28.466849</dc:date>
    <dc:format>image/svg+xml</dc:format>
    <dc:creator>
     <cc:Agent>
      <dc:title>Matplotlib v3.7.1, https://matplotlib.org/</dc:title>
     </cc:Agent>
    </dc:creator>
   </cc:Work>
  </rdf:RDF>
 </metadata>
 <defs>
  <style type="text/css">*{stroke-linejoin: round; stroke-linecap: butt}</style>
 </defs>
 <g id="figure_1">
  <g id="patch_1">
   <path d="M 0 288 
L 720 288 
L 720 0 
L 0 0 
z
" style="fill: #ffffff"/>
  </g>
  <g id="axes_1">
   <g id="patch_2">
    <path d="M 284.2 260.12 
L 700.605 260.12 
L 700.605 41.856 
L 284.2 41.856 
z
" style="fill: #ffffff"/>
   </g>
   <g id="matplotlib.axis_1">
    <g id="xtick_1">
     <g id="line2d_1">
      <path d="M 284.2 260.12 
L 284.2 41.856 
" clip-path="url(#p0c1f15c873)" style="fill: none; stroke-dasharray: 2.96,1.28; stroke-dashoffset: 0; stroke: #b0b0b0; stroke-width: 0.8"/>
     </g>
     <g id="line2d_2">
      <defs>
       <path id="m2e7dd0d7f9" d="M 0 0 
L 0 3.5 
" style="stroke: #37539c; stroke-width: 0.8"/>
      </defs>
      <g>
       <use xlink:href="#m2e7dd0d7f9" x="284.2" y="260.12" style="fill: #37539c; stroke: #37539c; stroke-width: 0.8"/>
      </g>
     </g>
     <g id="text_1">
      <!-- 0 -->
      <g style="fill: #37539c" transform="translate(281.341406 274.718437) scale(0.1 -0.1)">
       <defs>
        <path id="OpenSans-Bold-30" d="M 3425 2284 
Q 3425 1731 3339 1297 
Q 3253 863 3064 559 
Q 2875 256 2569 96 
Q 2263 -63 1825 -63 
Q 1275 -63 922 217 
Q 569 497 400 1023 
Q 231 1550 231 2284 
Q 231 3025 386 3551 
Q 541 4078 891 4359 
Q 1241 4641 1825 4641 
Q 2372 4641 2726 4361 
Q 3081 4081 3253 3554 
Q 3425 3028 3425 2284 
z
M 1191 2284 
Q 1191 1763 1248 1414 
Q 1306 1066 1443 891 
Q 1581 716 1825 716 
Q 2066 716 2205 889 
Q 2344 1063 2403 1411 
Q 2463 1759 2463 2284 
Q 2463 2806 2403 3156 
Q 2344 3506 2205 3682 
Q 2066 3859 1825 3859 
Q 1581 3859 1443 3682 
Q 1306 3506 1248 3156 
Q 1191 2806 1191 2284 
z
" transform="scale(0.015625)"/>
       </defs>
       <use xlink:href="#OpenSans-Bold-30"/>
      </g>
     </g>
    </g>
    <g id="xtick_2">
     <g id="line2d_3">
      <path d="M 336.250625 260.12 
L 336.250625 41.856 
" clip-path="url(#p0c1f15c873)" style="fill: none; stroke-dasharray: 2.96,1.28; stroke-dashoffset: 0; stroke: #b0b0b0; stroke-width: 0.8"/>
     </g>
     <g id="line2d_4">
      <g>
       <use xlink:href="#m2e7dd0d7f9" x="336.250625" y="260.12" style="fill: #37539c; stroke: #37539c; stroke-width: 0.8"/>
      </g>
     </g>
     <g id="text_2">
      <!-- 25 -->
      <g style="fill: #37539c" transform="translate(330.533437 274.718437) scale(0.1 -0.1)">
       <defs>
        <path id="OpenSans-Bold-32" d="M 3450 0 
L 256 0 
L 256 672 
L 1403 1831 
Q 1750 2188 1961 2427 
Q 2172 2666 2267 2862 
Q 2363 3059 2363 3284 
Q 2363 3556 2211 3692 
Q 2059 3828 1806 3828 
Q 1541 3828 1291 3706 
Q 1041 3584 769 3359 
L 244 3981 
Q 441 4150 661 4300 
Q 881 4450 1173 4542 
Q 1466 4634 1875 4634 
Q 2325 4634 2648 4471 
Q 2972 4309 3147 4029 
Q 3322 3750 3322 3397 
Q 3322 3019 3172 2706 
Q 3022 2394 2736 2087 
Q 2450 1781 2047 1409 
L 1459 856 
L 1459 813 
L 3450 813 
L 3450 0 
z
" transform="scale(0.015625)"/>
        <path id="OpenSans-Bold-35" d="M 1919 2919 
Q 2338 2919 2664 2759 
Q 2991 2600 3178 2290 
Q 3366 1981 3366 1528 
Q 3366 1034 3161 676 
Q 2956 319 2551 128 
Q 2147 -63 1544 -63 
Q 1184 -63 867 -2 
Q 550 59 313 184 
L 313 1019 
Q 550 894 883 808 
Q 1216 722 1509 722 
Q 1797 722 1994 798 
Q 2191 875 2292 1036 
Q 2394 1197 2394 1447 
Q 2394 1781 2169 1959 
Q 1944 2138 1478 2138 
Q 1300 2138 1108 2103 
Q 916 2069 788 2034 
L 403 2241 
L 575 4569 
L 3053 4569 
L 3053 3750 
L 1422 3750 
L 1338 2853 
Q 1444 2875 1569 2897 
Q 1694 2919 1919 2919 
z
" transform="scale(0.015625)"/>
       </defs>
       <use xlink:href="#OpenSans-Bold-32"/>
       <use xlink:href="#OpenSans-Bold-35" x="57.177734"/>
      </g>
     </g>
    </g>
    <g id="xtick_3">
     <g id="line2d_5">
      <path d="M 388.30125 260.12 
L 388.30125 41.856 
" clip-path="url(#p0c1f15c873)" style="fill: none; stroke-dasharray: 2.96,1.28; stroke-dashoffset: 0; stroke: #b0b0b0; stroke-width: 0.8"/>
     </g>
     <g id="line2d_6">
      <g>
       <use xlink:href="#m2e7dd0d7f9" x="388.30125" y="260.12" style="fill: #37539c; stroke: #37539c; stroke-width: 0.8"/>
      </g>
     </g>
     <g id="text_3">
      <!-- 50 -->
      <g style="fill: #37539c" transform="translate(382.584062 274.718437) scale(0.1 -0.1)">
       <use xlink:href="#OpenSans-Bold-35"/>
       <use xlink:href="#OpenSans-Bold-30" x="57.177734"/>
      </g>
     </g>
    </g>
    <g id="xtick_4">
     <g id="line2d_7">
      <path d="M 440.351875 260.12 
L 440.351875 41.856 
" clip-path="url(#p0c1f15c873)" style="fill: none; stroke-dasharray: 2.96,1.28; stroke-dashoffset: 0; stroke: #b0b0b0; stroke-width: 0.8"/>
     </g>
     <g id="line2d_8">
      <g>
       <use xlink:href="#m2e7dd0d7f9" x="440.351875" y="260.12" style="fill: #37539c; stroke: #37539c; stroke-width: 0.8"/>
      </g>
     </g>
     <g id="text_4">
      <!-- 75 -->
      <g style="fill: #37539c" transform="translate(434.634687 274.718437) scale(0.1 -0.1)">
       <defs>
        <path id="OpenSans-Bold-37" d="M 709 0 
L 2425 3756 
L 172 3756 
L 172 4569 
L 3450 4569 
L 3450 3963 
L 1722 0 
L 709 0 
z
" transform="scale(0.015625)"/>
       </defs>
       <use xlink:href="#OpenSans-Bold-37"/>
       <use xlink:href="#OpenSans-Bold-35" x="57.177734"/>
      </g>
     </g>
    </g>
    <g id="xtick_5">
     <g id="line2d_9">
      <path d="M 492.4025 260.12 
L 492.4025 41.856 
" clip-path="url(#p0c1f15c873)" style="fill: none; stroke-dasharray: 2.96,1.28; stroke-dashoffset: 0; stroke: #b0b0b0; stroke-width: 0.8"/>
     </g>
     <g id="line2d_10">
      <g>
       <use xlink:href="#m2e7dd0d7f9" x="492.4025" y="260.12" style="fill: #37539c; stroke: #37539c; stroke-width: 0.8"/>
      </g>
     </g>
     <g id="text_5">
      <!-- 100 -->
      <g style="fill: #37539c" transform="translate(483.826719 274.718437) scale(0.1 -0.1)">
       <defs>
        <path id="OpenSans-Bold-31" d="M 2644 0 
L 1678 0 
L 1678 2644 
Q 1678 2753 1681 2914 
Q 1684 3075 1690 3245 
Q 1697 3416 1703 3553 
Q 1669 3513 1564 3414 
Q 1459 3316 1369 3238 
L 844 2816 
L 378 3397 
L 1850 4569 
L 2644 4569 
L 2644 0 
z
" transform="scale(0.015625)"/>
       </defs>
       <use xlink:href="#OpenSans-Bold-31"/>
       <use xlink:href="#OpenSans-Bold-30" x="57.177734"/>
       <use xlink:href="#OpenSans-Bold-30" x="114.355469"/>
      </g>
     </g>
    </g>
    <g id="xtick_6">
     <g id="line2d_11">
      <path d="M 544.453125 260.12 
L 544.453125 41.856 
" clip-path="url(#p0c1f15c873)" style="fill: none; stroke-dasharray: 2.96,1.28; stroke-dashoffset: 0; stroke: #b0b0b0; stroke-width: 0.8"/>
     </g>
     <g id="line2d_12">
      <g>
       <use xlink:href="#m2e7dd0d7f9" x="544.453125" y="260.12" style="fill: #37539c; stroke: #37539c; stroke-width: 0.8"/>
      </g>
     </g>
     <g id="text_6">
      <!-- 125 -->
      <g style="fill: #37539c" transform="translate(535.877344 274.718437) scale(0.1 -0.1)">
       <use xlink:href="#OpenSans-Bold-31"/>
       <use xlink:href="#OpenSans-Bold-32" x="57.177734"/>
       <use xlink:href="#OpenSans-Bold-35" x="114.355469"/>
      </g>
     </g>
    </g>
    <g id="xtick_7">
     <g id="line2d_13">
      <path d="M 596.50375 260.12 
L 596.50375 41.856 
" clip-path="url(#p0c1f15c873)" style="fill: none; stroke-dasharray: 2.96,1.28; stroke-dashoffset: 0; stroke: #b0b0b0; stroke-width: 0.8"/>
     </g>
     <g id="line2d_14">
      <g>
       <use xlink:href="#m2e7dd0d7f9" x="596.50375" y="260.12" style="fill: #37539c; stroke: #37539c; stroke-width: 0.8"/>
      </g>
     </g>
     <g id="text_7">
      <!-- 150 -->
      <g style="fill: #37539c" transform="translate(587.927969 274.718437) scale(0.1 -0.1)">
       <use xlink:href="#OpenSans-Bold-31"/>
       <use xlink:href="#OpenSans-Bold-35" x="57.177734"/>
       <use xlink:href="#OpenSans-Bold-30" x="114.355469"/>
      </g>
     </g>
    </g>
    <g id="xtick_8">
     <g id="line2d_15">
      <path d="M 648.554375 260.12 
L 648.554375 41.856 
" clip-path="url(#p0c1f15c873)" style="fill: none; stroke-dasharray: 2.96,1.28; stroke-dashoffset: 0; stroke: #b0b0b0; stroke-width: 0.8"/>
     </g>
     <g id="line2d_16">
      <g>
       <use xlink:href="#m2e7dd0d7f9" x="648.554375" y="260.12" style="fill: #37539c; stroke: #37539c; stroke-width: 0.8"/>
      </g>
     </g>
     <g id="text_8">
      <!-- 175 -->
      <g style="fill: #37539c" transform="translate(639.978594 274.718437) scale(0.1 -0.1)">
       <use xlink:href="#OpenSans-Bold-31"/>
       <use xlink:href="#OpenSans-Bold-37" x="57.177734"/>
       <use xlink:href="#OpenSans-Bold-35" x="114.355469"/>
      </g>
     </g>
    </g>
    <g id="xtick_9">
     <g id="line2d_17">
      <path d="M 700.605 260.12 
L 700.605 41.856 
" clip-path="url(#p0c1f15c873)" style="fill: none; stroke-dasharray: 2.96,1.28; stroke-dashoffset: 0; stroke: #b0b0b0; stroke-width: 0.8"/>
     </g>
     <g id="line2d_18">
      <g>
       <use xlink:href="#m2e7dd0d7f9" x="700.605" y="260.12" style="fill: #37539c; stroke: #37539c; stroke-width: 0.8"/>
      </g>
     </g>
     <g id="text_9">
      <!-- 200 -->
      <g style="fill: #37539c" transform="translate(692.029219 274.718437) scale(0.1 -0.1)">
       <use xlink:href="#OpenSans-Bold-32"/>
       <use xlink:href="#OpenSans-Bold-30" x="57.177734"/>
       <use xlink:href="#OpenSans-Bold-30" x="114.355469"/>
      </g>
     </g>
    </g>
   </g>
   <g id="matplotlib.axis_2">
    <g id="ytick_1">
     <g id="line2d_19">
      <defs>
       <path id="m82512c782e" d="M 0 0 
L -3.5 0 
" style="stroke: #37539c; stroke-width: 0.8"/>
      </defs>
      <g>
       <use xlink:href="#m82512c782e" x="284.2" y="252.324857" style="fill: #37539c; stroke: #37539c; stroke-width: 0.8"/>
      </g>
     </g>
     <g id="text_10">
      <!-- Región de Arica y Parinacota -->
      <g style="fill: #37539c" transform="translate(134.990625 256.155326) scale(0.1 -0.1)">
       <defs>
        <path id="OpenSans-Bold-52" d="M 1906 4569 
Q 2528 4569 2933 4419 
Q 3338 4269 3534 3966 
Q 3731 3663 3731 3200 
Q 3731 2888 3612 2653 
Q 3494 2419 3300 2256 
Q 3106 2094 2881 1991 
L 4225 0 
L 3150 0 
L 2059 1753 
L 1544 1753 
L 1544 0 
L 575 0 
L 575 4569 
L 1906 4569 
z
M 1838 3775 
L 1544 3775 
L 1544 2541 
L 1856 2541 
Q 2338 2541 2545 2702 
Q 2753 2863 2753 3175 
Q 2753 3500 2529 3637 
Q 2306 3775 1838 3775 
z
" transform="scale(0.015625)"/>
        <path id="OpenSans-Bold-65" d="M 1941 3559 
Q 2425 3559 2775 3373 
Q 3125 3188 3315 2834 
Q 3506 2481 3506 1972 
L 3506 1509 
L 1253 1509 
Q 1269 1106 1495 876 
Q 1722 647 2125 647 
Q 2459 647 2737 715 
Q 3016 784 3309 922 
L 3309 184 
Q 3050 56 2767 -3 
Q 2484 -63 2081 -63 
Q 1556 -63 1151 131 
Q 747 325 517 722 
Q 288 1119 288 1722 
Q 288 2334 495 2742 
Q 703 3150 1075 3354 
Q 1447 3559 1941 3559 
z
M 1947 2881 
Q 1669 2881 1486 2703 
Q 1303 2525 1275 2144 
L 2613 2144 
Q 2609 2356 2536 2522 
Q 2463 2688 2317 2784 
Q 2172 2881 1947 2881 
z
" transform="scale(0.015625)"/>
        <path id="OpenSans-Bold-67" d="M 1522 -1538 
Q 791 -1538 405 -1283 
Q 19 -1028 19 -569 
Q 19 -253 216 -40 
Q 413 172 794 263 
Q 647 325 537 467 
Q 428 609 428 769 
Q 428 969 543 1101 
Q 659 1234 878 1363 
Q 603 1481 442 1743 
Q 281 2006 281 2363 
Q 281 2744 448 3011 
Q 616 3278 936 3418 
Q 1256 3559 1716 3559 
Q 1813 3559 1941 3546 
Q 2069 3534 2176 3518 
Q 2284 3503 2322 3494 
L 3541 3494 
L 3541 3009 
L 2994 2869 
Q 3069 2753 3106 2622 
Q 3144 2491 3144 2344 
Q 3144 1781 2751 1467 
Q 2359 1153 1663 1153 
Q 1497 1163 1350 1178 
Q 1278 1122 1240 1059 
Q 1203 997 1203 928 
Q 1203 859 1261 814 
Q 1319 769 1436 745 
Q 1553 722 1728 722 
L 2322 722 
Q 2897 722 3198 475 
Q 3500 228 3500 -250 
Q 3500 -863 2989 -1200 
Q 2478 -1538 1522 -1538 
z
M 1563 -916 
Q 1903 -916 2148 -852 
Q 2394 -788 2525 -670 
Q 2656 -553 2656 -391 
Q 2656 -259 2579 -182 
Q 2503 -106 2348 -75 
Q 2194 -44 1953 -44 
L 1459 -44 
Q 1284 -44 1145 -100 
Q 1006 -156 925 -257 
Q 844 -359 844 -494 
Q 844 -691 1033 -803 
Q 1222 -916 1563 -916 
z
M 1716 1734 
Q 1984 1734 2109 1900 
Q 2234 2066 2234 2350 
Q 2234 2666 2104 2823 
Q 1975 2981 1716 2981 
Q 1453 2981 1322 2823 
Q 1191 2666 1191 2350 
Q 1191 2066 1320 1900 
Q 1450 1734 1716 1734 
z
" transform="scale(0.015625)"/>
        <path id="OpenSans-Bold-69" d="M 1453 3494 
L 1453 0 
L 500 0 
L 500 3494 
L 1453 3494 
z
M 978 4863 
Q 1191 4863 1344 4764 
Q 1497 4666 1497 4397 
Q 1497 4131 1344 4029 
Q 1191 3928 978 3928 
Q 763 3928 611 4029 
Q 459 4131 459 4397 
Q 459 4666 611 4764 
Q 763 4863 978 4863 
z
" transform="scale(0.015625)"/>
        <path id="OpenSans-Bold-f3" d="M 3675 1753 
Q 3675 1316 3558 978 
Q 3441 641 3217 408 
Q 2994 175 2680 56 
Q 2366 -63 1972 -63 
Q 1603 -63 1295 56 
Q 988 175 761 408 
Q 534 641 411 978 
Q 288 1316 288 1753 
Q 288 2334 494 2737 
Q 700 3141 1081 3350 
Q 1463 3559 1991 3559 
Q 2481 3559 2861 3350 
Q 3241 3141 3458 2737 
Q 3675 2334 3675 1753 
z
M 1259 1753 
Q 1259 1409 1334 1175 
Q 1409 941 1568 822 
Q 1728 703 1984 703 
Q 2238 703 2395 822 
Q 2553 941 2626 1175 
Q 2700 1409 2700 1753 
Q 2700 2100 2626 2329 
Q 2553 2559 2393 2675 
Q 2234 2791 1978 2791 
Q 1600 2791 1429 2531 
Q 1259 2272 1259 1753 
z
M 3211 4903 
L 3211 4838 
Q 3121 4750 2974 4622 
Q 2827 4494 2658 4355 
Q 2490 4216 2327 4089 
Q 2165 3963 2043 3878 
L 1408 3878 
L 1408 3963 
Q 1511 4081 1647 4245 
Q 1783 4409 1917 4584 
Q 2052 4759 2143 4903 
L 3211 4903 
z
" transform="scale(0.015625)"/>
        <path id="OpenSans-Bold-6e" d="M 2484 3559 
Q 3044 3559 3384 3254 
Q 3725 2950 3725 2278 
L 3725 0 
L 2772 0 
L 2772 2041 
Q 2772 2416 2636 2606 
Q 2500 2797 2209 2797 
Q 1772 2797 1612 2500 
Q 1453 2203 1453 1644 
L 1453 0 
L 500 0 
L 500 3494 
L 1228 3494 
L 1356 3047 
L 1409 3047 
Q 1522 3228 1689 3340 
Q 1856 3453 2061 3506 
Q 2266 3559 2484 3559 
z
" transform="scale(0.015625)"/>
        <path id="OpenSans-Bold-20" transform="scale(0.015625)"/>
        <path id="OpenSans-Bold-64" d="M 1606 -63 
Q 1022 -63 655 395 
Q 288 853 288 1741 
Q 288 2638 659 3098 
Q 1031 3559 1631 3559 
Q 1881 3559 2072 3490 
Q 2263 3422 2402 3306 
Q 2541 3191 2638 3047 
L 2669 3047 
Q 2650 3147 2623 3342 
Q 2597 3538 2597 3744 
L 2597 4863 
L 3553 4863 
L 3553 0 
L 2822 0 
L 2638 453 
L 2597 453 
Q 2506 309 2370 192 
Q 2234 75 2046 6 
Q 1859 -63 1606 -63 
z
M 1941 697 
Q 2331 697 2492 930 
Q 2653 1163 2663 1631 
L 2663 1734 
Q 2663 2244 2506 2514 
Q 2350 2784 1925 2784 
Q 1609 2784 1431 2512 
Q 1253 2241 1253 1728 
Q 1253 1216 1433 956 
Q 1613 697 1941 697 
z
" transform="scale(0.015625)"/>
        <path id="OpenSans-Bold-41" d="M 3372 0 
L 3041 1088 
L 1375 1088 
L 1044 0 
L 0 0 
L 1613 4588 
L 2797 4588 
L 4416 0 
L 3372 0 
z
M 2809 1900 
L 2478 2963 
Q 2447 3069 2395 3236 
Q 2344 3403 2292 3576 
Q 2241 3750 2209 3878 
Q 2178 3750 2123 3561 
Q 2069 3372 2019 3203 
Q 1969 3034 1947 2963 
L 1619 1900 
L 2809 1900 
z
" transform="scale(0.015625)"/>
        <path id="OpenSans-Bold-72" d="M 2450 3559 
Q 2522 3559 2617 3551 
Q 2713 3544 2772 3531 
L 2700 2638 
Q 2653 2653 2567 2661 
Q 2481 2669 2419 2669 
Q 2234 2669 2061 2622 
Q 1888 2575 1750 2470 
Q 1613 2366 1533 2195 
Q 1453 2025 1453 1778 
L 1453 0 
L 500 0 
L 500 3494 
L 1222 3494 
L 1363 2906 
L 1409 2906 
Q 1513 3084 1667 3232 
Q 1822 3381 2020 3470 
Q 2219 3559 2450 3559 
z
" transform="scale(0.015625)"/>
        <path id="OpenSans-Bold-63" d="M 1919 -63 
Q 1400 -63 1034 126 
Q 669 316 478 712 
Q 288 1109 288 1728 
Q 288 2369 505 2773 
Q 722 3178 1108 3368 
Q 1494 3559 2003 3559 
Q 2366 3559 2630 3489 
Q 2894 3419 3091 3322 
L 2809 2584 
Q 2584 2675 2390 2733 
Q 2197 2791 2003 2791 
Q 1753 2791 1587 2673 
Q 1422 2556 1340 2322 
Q 1259 2088 1259 1734 
Q 1259 1388 1346 1159 
Q 1434 931 1600 820 
Q 1766 709 2003 709 
Q 2300 709 2531 789 
Q 2763 869 2981 1013 
L 2981 197 
Q 2763 59 2523 -2 
Q 2284 -63 1919 -63 
z
" transform="scale(0.015625)"/>
        <path id="OpenSans-Bold-61" d="M 1931 3566 
Q 2634 3566 3009 3259 
Q 3384 2953 3384 2328 
L 3384 0 
L 2719 0 
L 2534 475 
L 2509 475 
Q 2359 288 2203 169 
Q 2047 50 1844 -6 
Q 1641 -63 1350 -63 
Q 1041 -63 795 56 
Q 550 175 409 420 
Q 269 666 269 1044 
Q 269 1600 659 1864 
Q 1050 2128 1831 2156 
L 2438 2175 
L 2438 2328 
Q 2438 2603 2294 2731 
Q 2150 2859 1894 2859 
Q 1641 2859 1397 2787 
Q 1153 2716 909 2606 
L 594 3250 
Q 872 3397 1217 3481 
Q 1563 3566 1931 3566 
z
M 2438 1619 
L 2069 1606 
Q 1606 1594 1426 1441 
Q 1247 1288 1247 1038 
Q 1247 819 1375 726 
Q 1503 634 1709 634 
Q 2016 634 2227 815 
Q 2438 997 2438 1331 
L 2438 1619 
z
" transform="scale(0.015625)"/>
        <path id="OpenSans-Bold-79" d="M 0 3494 
L 1044 3494 
L 1703 1528 
Q 1734 1434 1756 1337 
Q 1778 1241 1793 1137 
Q 1809 1034 1819 922 
L 1838 922 
Q 1856 1091 1889 1237 
Q 1922 1384 1972 1528 
L 2619 3494 
L 3641 3494 
L 2163 -447 
Q 2028 -809 1812 -1051 
Q 1597 -1294 1317 -1416 
Q 1038 -1538 703 -1538 
Q 541 -1538 422 -1520 
Q 303 -1503 219 -1484 
L 219 -728 
Q 284 -744 384 -756 
Q 484 -769 594 -769 
Q 794 -769 937 -684 
Q 1081 -600 1178 -458 
Q 1275 -316 1331 -147 
L 1388 25 
L 0 3494 
z
" transform="scale(0.015625)"/>
        <path id="OpenSans-Bold-50" d="M 2034 4569 
Q 2919 4569 3325 4189 
Q 3731 3809 3731 3144 
Q 3731 2844 3640 2570 
Q 3550 2297 3345 2084 
Q 3141 1872 2800 1748 
Q 2459 1625 1959 1625 
L 1544 1625 
L 1544 0 
L 575 0 
L 575 4569 
L 2034 4569 
z
M 1984 3775 
L 1544 3775 
L 1544 2419 
L 1863 2419 
Q 2134 2419 2334 2491 
Q 2534 2563 2643 2716 
Q 2753 2869 2753 3109 
Q 2753 3447 2565 3611 
Q 2378 3775 1984 3775 
z
" transform="scale(0.015625)"/>
        <path id="OpenSans-Bold-6f" d="M 3675 1753 
Q 3675 1316 3558 978 
Q 3441 641 3217 408 
Q 2994 175 2680 56 
Q 2366 -63 1972 -63 
Q 1603 -63 1295 56 
Q 988 175 761 408 
Q 534 641 411 978 
Q 288 1316 288 1753 
Q 288 2334 494 2737 
Q 700 3141 1081 3350 
Q 1463 3559 1991 3559 
Q 2481 3559 2861 3350 
Q 3241 3141 3458 2737 
Q 3675 2334 3675 1753 
z
M 1259 1753 
Q 1259 1409 1334 1175 
Q 1409 941 1568 822 
Q 1728 703 1984 703 
Q 2238 703 2395 822 
Q 2553 941 2626 1175 
Q 2700 1409 2700 1753 
Q 2700 2100 2626 2329 
Q 2553 2559 2393 2675 
Q 2234 2791 1978 2791 
Q 1600 2791 1429 2531 
Q 1259 2272 1259 1753 
z
" transform="scale(0.015625)"/>
        <path id="OpenSans-Bold-74" d="M 1972 697 
Q 2128 697 2276 728 
Q 2425 759 2572 806 
L 2572 97 
Q 2419 28 2192 -17 
Q 1966 -63 1697 -63 
Q 1384 -63 1136 39 
Q 888 141 745 392 
Q 603 644 603 1094 
L 603 2778 
L 147 2778 
L 147 3181 
L 672 3500 
L 947 4238 
L 1556 4238 
L 1556 3494 
L 2534 3494 
L 2534 2778 
L 1556 2778 
L 1556 1094 
Q 1556 894 1670 795 
Q 1784 697 1972 697 
z
" transform="scale(0.015625)"/>
       </defs>
       <use xlink:href="#OpenSans-Bold-52"/>
       <use xlink:href="#OpenSans-Bold-65" x="66.015625"/>
       <use xlink:href="#OpenSans-Bold-67" x="125.097656"/>
       <use xlink:href="#OpenSans-Bold-69" x="181.591797"/>
       <use xlink:href="#OpenSans-Bold-f3" x="212.109375"/>
       <use xlink:href="#OpenSans-Bold-6e" x="274.023438"/>
       <use xlink:href="#OpenSans-Bold-20" x="339.746094"/>
       <use xlink:href="#OpenSans-Bold-64" x="365.722656"/>
       <use xlink:href="#OpenSans-Bold-65" x="429.003906"/>
       <use xlink:href="#OpenSans-Bold-20" x="488.085938"/>
       <use xlink:href="#OpenSans-Bold-41" x="514.0625"/>
       <use xlink:href="#OpenSans-Bold-72" x="583.056641"/>
       <use xlink:href="#OpenSans-Bold-69" x="628.466797"/>
       <use xlink:href="#OpenSans-Bold-63" x="658.984375"/>
       <use xlink:href="#OpenSans-Bold-61" x="710.400391"/>
       <use xlink:href="#OpenSans-Bold-20" x="770.800781"/>
       <use xlink:href="#OpenSans-Bold-79" x="796.777344"/>
       <use xlink:href="#OpenSans-Bold-20" x="853.662109"/>
       <use xlink:href="#OpenSans-Bold-50" x="879.638672"/>
       <use xlink:href="#OpenSans-Bold-61" x="942.431641"/>
       <use xlink:href="#OpenSans-Bold-72" x="1002.832031"/>
       <use xlink:href="#OpenSans-Bold-69" x="1048.242188"/>
       <use xlink:href="#OpenSans-Bold-6e" x="1078.759766"/>
       <use xlink:href="#OpenSans-Bold-61" x="1144.482422"/>
       <use xlink:href="#OpenSans-Bold-63" x="1204.882812"/>
       <use xlink:href="#OpenSans-Bold-6f" x="1256.298828"/>
       <use xlink:href="#OpenSans-Bold-74" x="1318.212891"/>
       <use xlink:href="#OpenSans-Bold-61" x="1361.621094"/>
      </g>
     </g>
    </g>
    <g id="ytick_2">
     <g id="line2d_20">
      <g>
       <use xlink:href="#m82512c782e" x="284.2" y="236.734571" style="fill: #37539c; stroke: #37539c; stroke-width: 0.8"/>
      </g>
     </g>
     <g id="text_11">
      <!-- Región de Tarapacá -->
      <g style="fill: #37539c" transform="translate(179.828125 240.56504) scale(0.1 -0.1)">
       <defs>
        <path id="OpenSans-Bold-54" d="M 2338 0 
L 1369 0 
L 1369 3763 
L 128 3763 
L 128 4569 
L 3578 4569 
L 3578 3763 
L 2338 3763 
L 2338 0 
z
" transform="scale(0.015625)"/>
        <path id="OpenSans-Bold-70" d="M 2444 3559 
Q 3034 3559 3398 3100 
Q 3763 2641 3763 1753 
Q 3763 1159 3591 754 
Q 3419 350 3116 143 
Q 2813 -63 2419 -63 
Q 2166 -63 1984 1 
Q 1803 66 1675 167 
Q 1547 269 1453 384 
L 1403 384 
Q 1428 259 1440 128 
Q 1453 -3 1453 -128 
L 1453 -1538 
L 500 -1538 
L 500 3494 
L 1275 3494 
L 1409 3041 
L 1453 3041 
Q 1547 3181 1681 3300 
Q 1816 3419 2005 3489 
Q 2194 3559 2444 3559 
z
M 2138 2797 
Q 1888 2797 1741 2694 
Q 1594 2591 1526 2384 
Q 1459 2178 1453 1863 
L 1453 1759 
Q 1453 1422 1517 1187 
Q 1581 953 1732 831 
Q 1884 709 2150 709 
Q 2369 709 2509 831 
Q 2650 953 2720 1189 
Q 2791 1425 2791 1766 
Q 2791 2278 2631 2537 
Q 2472 2797 2138 2797 
z
" transform="scale(0.015625)"/>
        <path id="OpenSans-Bold-e1" d="M 1931 3566 
Q 2634 3566 3009 3259 
Q 3384 2953 3384 2328 
L 3384 0 
L 2719 0 
L 2534 475 
L 2509 475 
Q 2359 288 2203 169 
Q 2047 50 1844 -6 
Q 1641 -63 1350 -63 
Q 1041 -63 795 56 
Q 550 175 409 420 
Q 269 666 269 1044 
Q 269 1600 659 1864 
Q 1050 2128 1831 2156 
L 2438 2175 
L 2438 2328 
Q 2438 2603 2294 2731 
Q 2150 2859 1894 2859 
Q 1641 2859 1397 2787 
Q 1153 2716 909 2606 
L 594 3250 
Q 872 3397 1217 3481 
Q 1563 3566 1931 3566 
z
M 2438 1619 
L 2069 1606 
Q 1606 1594 1426 1441 
Q 1247 1288 1247 1038 
Q 1247 819 1375 726 
Q 1503 634 1709 634 
Q 2016 634 2227 815 
Q 2438 997 2438 1331 
L 2438 1619 
z
M 3163 4903 
L 3163 4838 
Q 3073 4750 2926 4622 
Q 2779 4494 2610 4355 
Q 2442 4216 2279 4089 
Q 2117 3963 1995 3878 
L 1360 3878 
L 1360 3963 
Q 1463 4081 1599 4245 
Q 1735 4409 1869 4584 
Q 2004 4759 2095 4903 
L 3163 4903 
z
" transform="scale(0.015625)"/>
       </defs>
       <use xlink:href="#OpenSans-Bold-52"/>
       <use xlink:href="#OpenSans-Bold-65" x="66.015625"/>
       <use xlink:href="#OpenSans-Bold-67" x="125.097656"/>
       <use xlink:href="#OpenSans-Bold-69" x="181.591797"/>
       <use xlink:href="#OpenSans-Bold-f3" x="212.109375"/>
       <use xlink:href="#OpenSans-Bold-6e" x="274.023438"/>
       <use xlink:href="#OpenSans-Bold-20" x="339.746094"/>
       <use xlink:href="#OpenSans-Bold-64" x="365.722656"/>
       <use xlink:href="#OpenSans-Bold-65" x="429.003906"/>
       <use xlink:href="#OpenSans-Bold-20" x="488.085938"/>
       <use xlink:href="#OpenSans-Bold-54" x="514.0625"/>
       <use xlink:href="#OpenSans-Bold-61" x="571.972656"/>
       <use xlink:href="#OpenSans-Bold-72" x="632.373047"/>
       <use xlink:href="#OpenSans-Bold-61" x="677.783203"/>
       <use xlink:href="#OpenSans-Bold-70" x="738.183594"/>
       <use xlink:href="#OpenSans-Bold-61" x="801.464844"/>
       <use xlink:href="#OpenSans-Bold-63" x="861.865234"/>
       <use xlink:href="#OpenSans-Bold-e1" x="913.28125"/>
      </g>
     </g>
    </g>
    <g id="ytick_3">
     <g id="line2d_21">
      <g>
       <use xlink:href="#m82512c782e" x="284.2" y="221.144286" style="fill: #37539c; stroke: #37539c; stroke-width: 0.8"/>
      </g>
     </g>
     <g id="text_12">
      <!-- Región de Atacama -->
      <g style="fill: #37539c" transform="translate(181.46875 224.974754) scale(0.1 -0.1)">
       <defs>
        <path id="OpenSans-Bold-6d" d="M 4603 3559 
Q 5197 3559 5501 3254 
Q 5806 2950 5806 2278 
L 5806 0 
L 4850 0 
L 4850 2041 
Q 4850 2416 4722 2606 
Q 4594 2797 4325 2797 
Q 3947 2797 3787 2526 
Q 3628 2256 3628 1753 
L 3628 0 
L 2675 0 
L 2675 2041 
Q 2675 2291 2619 2459 
Q 2563 2628 2447 2712 
Q 2331 2797 2150 2797 
Q 1884 2797 1732 2664 
Q 1581 2531 1517 2273 
Q 1453 2016 1453 1644 
L 1453 0 
L 500 0 
L 500 3494 
L 1228 3494 
L 1356 3047 
L 1409 3047 
Q 1516 3228 1677 3340 
Q 1838 3453 2031 3506 
Q 2225 3559 2425 3559 
Q 2809 3559 3076 3434 
Q 3344 3309 3488 3047 
L 3572 3047 
Q 3728 3316 4014 3437 
Q 4300 3559 4603 3559 
z
" transform="scale(0.015625)"/>
       </defs>
       <use xlink:href="#OpenSans-Bold-52"/>
       <use xlink:href="#OpenSans-Bold-65" x="66.015625"/>
       <use xlink:href="#OpenSans-Bold-67" x="125.097656"/>
       <use xlink:href="#OpenSans-Bold-69" x="181.591797"/>
       <use xlink:href="#OpenSans-Bold-f3" x="212.109375"/>
       <use xlink:href="#OpenSans-Bold-6e" x="274.023438"/>
       <use xlink:href="#OpenSans-Bold-20" x="339.746094"/>
       <use xlink:href="#OpenSans-Bold-64" x="365.722656"/>
       <use xlink:href="#OpenSans-Bold-65" x="429.003906"/>
       <use xlink:href="#OpenSans-Bold-20" x="488.085938"/>
       <use xlink:href="#OpenSans-Bold-41" x="514.0625"/>
       <use xlink:href="#OpenSans-Bold-74" x="583.056641"/>
       <use xlink:href="#OpenSans-Bold-61" x="626.464844"/>
       <use xlink:href="#OpenSans-Bold-63" x="686.865234"/>
       <use xlink:href="#OpenSans-Bold-61" x="738.28125"/>
       <use xlink:href="#OpenSans-Bold-6d" x="798.681641"/>
       <use xlink:href="#OpenSans-Bold-61" x="896.875"/>
      </g>
     </g>
    </g>
    <g id="ytick_4">
     <g id="line2d_22">
      <g>
       <use xlink:href="#m82512c782e" x="284.2" y="205.554" style="fill: #37539c; stroke: #37539c; stroke-width: 0.8"/>
      </g>
     </g>
     <g id="text_13">
      <!-- Región de los Lagos -->
      <g style="fill: #37539c" transform="translate(180.476563 209.384469) scale(0.1 -0.1)">
       <defs>
        <path id="OpenSans-Bold-6c" d="M 1453 0 
L 500 0 
L 500 4863 
L 1453 4863 
L 1453 0 
z
" transform="scale(0.015625)"/>
        <path id="OpenSans-Bold-73" d="M 2938 1038 
Q 2938 681 2770 436 
Q 2603 191 2272 64 
Q 1941 -63 1447 -63 
Q 1081 -63 820 -16 
Q 559 31 294 141 
L 294 928 
Q 578 800 904 717 
Q 1231 634 1478 634 
Q 1756 634 1876 717 
Q 1997 800 1997 934 
Q 1997 1022 1948 1092 
Q 1900 1163 1740 1252 
Q 1581 1341 1241 1484 
Q 913 1622 702 1762 
Q 491 1903 389 2095 
Q 288 2288 288 2584 
Q 288 3069 664 3314 
Q 1041 3559 1672 3559 
Q 1997 3559 2292 3493 
Q 2588 3428 2900 3284 
L 2613 2597 
Q 2353 2709 2123 2781 
Q 1894 2853 1656 2853 
Q 1447 2853 1340 2797 
Q 1234 2741 1234 2625 
Q 1234 2541 1289 2475 
Q 1344 2409 1501 2329 
Q 1659 2250 1966 2125 
Q 2263 2003 2481 1870 
Q 2700 1738 2819 1542 
Q 2938 1347 2938 1038 
z
" transform="scale(0.015625)"/>
        <path id="OpenSans-Bold-4c" d="M 575 0 
L 575 4569 
L 1544 4569 
L 1544 800 
L 3397 800 
L 3397 0 
L 575 0 
z
" transform="scale(0.015625)"/>
       </defs>
       <use xlink:href="#OpenSans-Bold-52"/>
       <use xlink:href="#OpenSans-Bold-65" x="66.015625"/>
       <use xlink:href="#OpenSans-Bold-67" x="125.097656"/>
       <use xlink:href="#OpenSans-Bold-69" x="181.591797"/>
       <use xlink:href="#OpenSans-Bold-f3" x="212.109375"/>
       <use xlink:href="#OpenSans-Bold-6e" x="274.023438"/>
       <use xlink:href="#OpenSans-Bold-20" x="339.746094"/>
       <use xlink:href="#OpenSans-Bold-64" x="365.722656"/>
       <use xlink:href="#OpenSans-Bold-65" x="429.003906"/>
       <use xlink:href="#OpenSans-Bold-20" x="488.085938"/>
       <use xlink:href="#OpenSans-Bold-6c" x="514.0625"/>
       <use xlink:href="#OpenSans-Bold-6f" x="544.580078"/>
       <use xlink:href="#OpenSans-Bold-73" x="606.494141"/>
       <use xlink:href="#OpenSans-Bold-20" x="656.201172"/>
       <use xlink:href="#OpenSans-Bold-4c" x="682.177734"/>
       <use xlink:href="#OpenSans-Bold-61" x="738.671875"/>
       <use xlink:href="#OpenSans-Bold-67" x="799.072266"/>
       <use xlink:href="#OpenSans-Bold-6f" x="855.566406"/>
       <use xlink:href="#OpenSans-Bold-73" x="917.480469"/>
      </g>
     </g>
    </g>
    <g id="ytick_5">
     <g id="line2d_23">
      <g>
       <use xlink:href="#m82512c782e" x="284.2" y="189.963714" style="fill: #37539c; stroke: #37539c; stroke-width: 0.8"/>
      </g>
     </g>
     <g id="text_14">
      <!-- Región de Aysén del General Carlos Ibáñez del Campo -->
      <g style="fill: #37539c" transform="translate(11.370313 193.794183) scale(0.1 -0.1)">
       <defs>
        <path id="OpenSans-Bold-e9" d="M 1941 3559 
Q 2425 3559 2775 3373 
Q 3125 3188 3315 2834 
Q 3506 2481 3506 1972 
L 3506 1509 
L 1253 1509 
Q 1269 1106 1495 876 
Q 1722 647 2125 647 
Q 2459 647 2737 715 
Q 3016 784 3309 922 
L 3309 184 
Q 3050 56 2767 -3 
Q 2484 -63 2081 -63 
Q 1556 -63 1151 131 
Q 747 325 517 722 
Q 288 1119 288 1722 
Q 288 2334 495 2742 
Q 703 3150 1075 3354 
Q 1447 3559 1941 3559 
z
M 1947 2881 
Q 1669 2881 1486 2703 
Q 1303 2525 1275 2144 
L 2613 2144 
Q 2609 2356 2536 2522 
Q 2463 2688 2317 2784 
Q 2172 2881 1947 2881 
z
M 3123 4903 
L 3123 4838 
Q 3033 4750 2886 4622 
Q 2739 4494 2570 4355 
Q 2402 4216 2239 4089 
Q 2077 3963 1955 3878 
L 1320 3878 
L 1320 3963 
Q 1423 4081 1559 4245 
Q 1695 4409 1829 4584 
Q 1964 4759 2055 4903 
L 3123 4903 
z
" transform="scale(0.015625)"/>
        <path id="OpenSans-Bold-47" d="M 2309 2566 
L 4122 2566 
L 4122 197 
Q 3763 78 3375 7 
Q 2988 -63 2497 -63 
Q 1816 -63 1341 206 
Q 866 475 619 1000 
Q 372 1525 372 2291 
Q 372 3009 648 3534 
Q 925 4059 1458 4346 
Q 1991 4634 2759 4634 
Q 3122 4634 3475 4556 
Q 3828 4478 4116 4353 
L 3794 3578 
Q 3584 3684 3315 3756 
Q 3047 3828 2753 3828 
Q 2331 3828 2020 3634 
Q 1709 3441 1539 3092 
Q 1369 2744 1369 2272 
Q 1369 1825 1491 1479 
Q 1613 1134 1875 939 
Q 2138 744 2559 744 
Q 2766 744 2908 764 
Q 3050 784 3175 806 
L 3175 1759 
L 2309 1759 
L 2309 2566 
z
" transform="scale(0.015625)"/>
        <path id="OpenSans-Bold-43" d="M 2516 3828 
Q 2238 3828 2023 3720 
Q 1809 3613 1664 3409 
Q 1519 3206 1444 2918 
Q 1369 2631 1369 2272 
Q 1369 1788 1489 1445 
Q 1609 1103 1862 923 
Q 2116 744 2516 744 
Q 2794 744 3073 806 
Q 3353 869 3681 984 
L 3681 172 
Q 3378 47 3084 -8 
Q 2791 -63 2425 -63 
Q 1719 -63 1264 229 
Q 809 522 590 1048 
Q 372 1575 372 2278 
Q 372 2797 512 3228 
Q 653 3659 925 3975 
Q 1197 4291 1597 4462 
Q 1997 4634 2516 4634 
Q 2856 4634 3198 4548 
Q 3541 4463 3853 4313 
L 3541 3525 
Q 3284 3647 3025 3737 
Q 2766 3828 2516 3828 
z
" transform="scale(0.015625)"/>
        <path id="OpenSans-Bold-49" d="M 575 0 
L 575 4569 
L 1544 4569 
L 1544 0 
L 575 0 
z
" transform="scale(0.015625)"/>
        <path id="OpenSans-Bold-62" d="M 1453 4863 
L 1453 3731 
Q 1453 3534 1442 3340 
Q 1431 3147 1416 3041 
L 1453 3041 
Q 1591 3256 1828 3407 
Q 2066 3559 2444 3559 
Q 3031 3559 3397 3100 
Q 3763 2641 3763 1753 
Q 3763 1156 3594 751 
Q 3425 347 3122 142 
Q 2819 -63 2419 -63 
Q 2034 -63 1812 75 
Q 1591 213 1453 384 
L 1388 384 
L 1228 0 
L 500 0 
L 500 4863 
L 1453 4863 
z
M 2138 2797 
Q 1888 2797 1741 2694 
Q 1594 2591 1526 2384 
Q 1459 2178 1453 1863 
L 1453 1759 
Q 1453 1250 1603 979 
Q 1753 709 2150 709 
Q 2444 709 2617 981 
Q 2791 1253 2791 1766 
Q 2791 2278 2616 2537 
Q 2441 2797 2138 2797 
z
" transform="scale(0.015625)"/>
        <path id="OpenSans-Bold-f1" d="M 2484 3559 
Q 3044 3559 3384 3254 
Q 3725 2950 3725 2278 
L 3725 0 
L 2772 0 
L 2772 2041 
Q 2772 2416 2636 2606 
Q 2500 2797 2209 2797 
Q 1772 2797 1612 2500 
Q 1453 2203 1453 1644 
L 1453 0 
L 500 0 
L 500 3494 
L 1228 3494 
L 1356 3047 
L 1409 3047 
Q 1522 3228 1689 3340 
Q 1856 3453 2061 3506 
Q 2266 3559 2484 3559 
z
M 808 3872 
Q 827 4122 899 4305 
Q 971 4488 1086 4605 
Q 1202 4722 1347 4780 
Q 1493 4838 1658 4838 
Q 1786 4838 1909 4789 
Q 2033 4741 2153 4675 
Q 2274 4609 2391 4561 
Q 2508 4513 2621 4513 
Q 2715 4513 2804 4595 
Q 2893 4678 2933 4844 
L 3399 4844 
Q 3361 4350 3117 4114 
Q 2874 3878 2549 3878 
Q 2421 3878 2297 3928 
Q 2174 3978 2053 4042 
Q 1933 4106 1817 4156 
Q 1702 4206 1590 4206 
Q 1493 4206 1404 4123 
Q 1315 4041 1274 3872 
L 808 3872 
z
" transform="scale(0.015625)"/>
        <path id="OpenSans-Bold-7a" d="M 2931 0 
L 172 0 
L 172 563 
L 1791 2766 
L 269 2766 
L 269 3494 
L 2875 3494 
L 2875 2875 
L 1300 728 
L 2931 728 
L 2931 0 
z
" transform="scale(0.015625)"/>
       </defs>
       <use xlink:href="#OpenSans-Bold-52"/>
       <use xlink:href="#OpenSans-Bold-65" x="66.015625"/>
       <use xlink:href="#OpenSans-Bold-67" x="125.097656"/>
       <use xlink:href="#OpenSans-Bold-69" x="181.591797"/>
       <use xlink:href="#OpenSans-Bold-f3" x="212.109375"/>
       <use xlink:href="#OpenSans-Bold-6e" x="274.023438"/>
       <use xlink:href="#OpenSans-Bold-20" x="339.746094"/>
       <use xlink:href="#OpenSans-Bold-64" x="365.722656"/>
       <use xlink:href="#OpenSans-Bold-65" x="429.003906"/>
       <use xlink:href="#OpenSans-Bold-20" x="488.085938"/>
       <use xlink:href="#OpenSans-Bold-41" x="514.0625"/>
       <use xlink:href="#OpenSans-Bold-79" x="583.056641"/>
       <use xlink:href="#OpenSans-Bold-73" x="639.941406"/>
       <use xlink:href="#OpenSans-Bold-e9" x="689.648438"/>
       <use xlink:href="#OpenSans-Bold-6e" x="748.730469"/>
       <use xlink:href="#OpenSans-Bold-20" x="814.453125"/>
       <use xlink:href="#OpenSans-Bold-64" x="840.429688"/>
       <use xlink:href="#OpenSans-Bold-65" x="903.710938"/>
       <use xlink:href="#OpenSans-Bold-6c" x="962.792969"/>
       <use xlink:href="#OpenSans-Bold-20" x="993.310547"/>
       <use xlink:href="#OpenSans-Bold-47" x="1019.287109"/>
       <use xlink:href="#OpenSans-Bold-65" x="1091.699219"/>
       <use xlink:href="#OpenSans-Bold-6e" x="1150.78125"/>
       <use xlink:href="#OpenSans-Bold-65" x="1216.503906"/>
       <use xlink:href="#OpenSans-Bold-72" x="1275.585938"/>
       <use xlink:href="#OpenSans-Bold-61" x="1320.996094"/>
       <use xlink:href="#OpenSans-Bold-6c" x="1381.396484"/>
       <use xlink:href="#OpenSans-Bold-20" x="1411.914062"/>
       <use xlink:href="#OpenSans-Bold-43" x="1437.890625"/>
       <use xlink:href="#OpenSans-Bold-61" x="1501.611328"/>
       <use xlink:href="#OpenSans-Bold-72" x="1562.011719"/>
       <use xlink:href="#OpenSans-Bold-6c" x="1607.421875"/>
       <use xlink:href="#OpenSans-Bold-6f" x="1637.939453"/>
       <use xlink:href="#OpenSans-Bold-73" x="1699.853516"/>
       <use xlink:href="#OpenSans-Bold-20" x="1749.560547"/>
       <use xlink:href="#OpenSans-Bold-49" x="1775.537109"/>
       <use xlink:href="#OpenSans-Bold-62" x="1808.642578"/>
       <use xlink:href="#OpenSans-Bold-e1" x="1871.923828"/>
       <use xlink:href="#OpenSans-Bold-f1" x="1932.324219"/>
       <use xlink:href="#OpenSans-Bold-65" x="1998.046875"/>
       <use xlink:href="#OpenSans-Bold-7a" x="2057.128906"/>
       <use xlink:href="#OpenSans-Bold-20" x="2105.908203"/>
       <use xlink:href="#OpenSans-Bold-64" x="2131.884766"/>
       <use xlink:href="#OpenSans-Bold-65" x="2195.166016"/>
       <use xlink:href="#OpenSans-Bold-6c" x="2254.248047"/>
       <use xlink:href="#OpenSans-Bold-20" x="2284.765625"/>
       <use xlink:href="#OpenSans-Bold-43" x="2310.742188"/>
       <use xlink:href="#OpenSans-Bold-61" x="2374.462891"/>
       <use xlink:href="#OpenSans-Bold-6d" x="2434.863281"/>
       <use xlink:href="#OpenSans-Bold-70" x="2533.056641"/>
       <use xlink:href="#OpenSans-Bold-6f" x="2596.337891"/>
      </g>
     </g>
    </g>
    <g id="ytick_6">
     <g id="line2d_24">
      <g>
       <use xlink:href="#m82512c782e" x="284.2" y="174.373429" style="fill: #37539c; stroke: #37539c; stroke-width: 0.8"/>
      </g>
     </g>
     <g id="text_15">
      <!-- Región de Magallanes y la Antártica Chilena -->
      <g style="fill: #37539c" transform="translate(59.328125 178.203897) scale(0.1 -0.1)">
       <defs>
        <path id="OpenSans-Bold-4d" d="M 2509 0 
L 1409 3584 
L 1381 3584 
Q 1388 3456 1402 3198 
Q 1416 2941 1428 2650 
Q 1441 2359 1441 2125 
L 1441 0 
L 575 0 
L 575 4569 
L 1894 4569 
L 2975 1075 
L 2994 1075 
L 4141 4569 
L 5459 4569 
L 5459 0 
L 4556 0 
L 4556 2163 
Q 4556 2378 4564 2659 
Q 4572 2941 4584 3195 
Q 4597 3450 4603 3578 
L 4575 3578 
L 3397 0 
L 2509 0 
z
" transform="scale(0.015625)"/>
        <path id="OpenSans-Bold-68" d="M 1453 4863 
L 1453 3872 
Q 1453 3613 1436 3378 
Q 1419 3144 1409 3047 
L 1459 3047 
Q 1572 3228 1726 3340 
Q 1881 3453 2068 3506 
Q 2256 3559 2472 3559 
Q 2850 3559 3131 3426 
Q 3413 3294 3569 3011 
Q 3725 2728 3725 2278 
L 3725 0 
L 2772 0 
L 2772 2041 
Q 2772 2416 2634 2606 
Q 2497 2797 2209 2797 
Q 1922 2797 1756 2664 
Q 1591 2531 1522 2273 
Q 1453 2016 1453 1644 
L 1453 0 
L 500 0 
L 500 4863 
L 1453 4863 
z
" transform="scale(0.015625)"/>
       </defs>
       <use xlink:href="#OpenSans-Bold-52"/>
       <use xlink:href="#OpenSans-Bold-65" x="66.015625"/>
       <use xlink:href="#OpenSans-Bold-67" x="125.097656"/>
       <use xlink:href="#OpenSans-Bold-69" x="181.591797"/>
       <use xlink:href="#OpenSans-Bold-f3" x="212.109375"/>
       <use xlink:href="#OpenSans-Bold-6e" x="274.023438"/>
       <use xlink:href="#OpenSans-Bold-20" x="339.746094"/>
       <use xlink:href="#OpenSans-Bold-64" x="365.722656"/>
       <use xlink:href="#OpenSans-Bold-65" x="429.003906"/>
       <use xlink:href="#OpenSans-Bold-20" x="488.085938"/>
       <use xlink:href="#OpenSans-Bold-4d" x="514.0625"/>
       <use xlink:href="#OpenSans-Bold-61" x="608.349609"/>
       <use xlink:href="#OpenSans-Bold-67" x="668.75"/>
       <use xlink:href="#OpenSans-Bold-61" x="725.244141"/>
       <use xlink:href="#OpenSans-Bold-6c" x="785.644531"/>
       <use xlink:href="#OpenSans-Bold-6c" x="816.162109"/>
       <use xlink:href="#OpenSans-Bold-61" x="846.679688"/>
       <use xlink:href="#OpenSans-Bold-6e" x="907.080078"/>
       <use xlink:href="#OpenSans-Bold-65" x="972.802734"/>
       <use xlink:href="#OpenSans-Bold-73" x="1031.884766"/>
       <use xlink:href="#OpenSans-Bold-20" x="1081.591797"/>
       <use xlink:href="#OpenSans-Bold-79" x="1107.568359"/>
       <use xlink:href="#OpenSans-Bold-20" x="1164.453125"/>
       <use xlink:href="#OpenSans-Bold-6c" x="1190.429688"/>
       <use xlink:href="#OpenSans-Bold-61" x="1220.947266"/>
       <use xlink:href="#OpenSans-Bold-20" x="1281.347656"/>
       <use xlink:href="#OpenSans-Bold-41" x="1307.324219"/>
       <use xlink:href="#OpenSans-Bold-6e" x="1376.318359"/>
       <use xlink:href="#OpenSans-Bold-74" x="1442.041016"/>
       <use xlink:href="#OpenSans-Bold-e1" x="1485.449219"/>
       <use xlink:href="#OpenSans-Bold-72" x="1545.849609"/>
       <use xlink:href="#OpenSans-Bold-74" x="1591.259766"/>
       <use xlink:href="#OpenSans-Bold-69" x="1634.667969"/>
       <use xlink:href="#OpenSans-Bold-63" x="1665.185547"/>
       <use xlink:href="#OpenSans-Bold-61" x="1716.601562"/>
       <use xlink:href="#OpenSans-Bold-20" x="1777.001953"/>
       <use xlink:href="#OpenSans-Bold-43" x="1802.978516"/>
       <use xlink:href="#OpenSans-Bold-68" x="1866.699219"/>
       <use xlink:href="#OpenSans-Bold-69" x="1932.421875"/>
       <use xlink:href="#OpenSans-Bold-6c" x="1962.939453"/>
       <use xlink:href="#OpenSans-Bold-65" x="1993.457031"/>
       <use xlink:href="#OpenSans-Bold-6e" x="2052.539062"/>
       <use xlink:href="#OpenSans-Bold-61" x="2118.261719"/>
      </g>
     </g>
    </g>
    <g id="ytick_7">
     <g id="line2d_25">
      <g>
       <use xlink:href="#m82512c782e" x="284.2" y="158.783143" style="fill: #37539c; stroke: #37539c; stroke-width: 0.8"/>
      </g>
     </g>
     <g id="text_16">
      <!-- Región de Coquimbo -->
      <g style="fill: #37539c" transform="translate(174.9375 162.613612) scale(0.1 -0.1)">
       <defs>
        <path id="OpenSans-Bold-71" d="M 2597 -1538 
L 2597 -72 
Q 2597 59 2608 192 
Q 2619 325 2638 453 
L 2597 453 
Q 2463 238 2227 87 
Q 1991 -63 1606 -63 
Q 1016 -63 652 395 
Q 288 853 288 1741 
Q 288 2338 456 2742 
Q 625 3147 926 3353 
Q 1228 3559 1625 3559 
Q 2009 3559 2248 3411 
Q 2488 3263 2638 3047 
L 2663 3047 
L 2747 3494 
L 3553 3494 
L 3553 -1538 
L 2597 -1538 
z
M 1947 684 
Q 2209 684 2364 787 
Q 2519 891 2587 1098 
Q 2656 1306 2663 1619 
L 2663 1734 
Q 2663 2244 2506 2514 
Q 2350 2784 1931 2784 
Q 1591 2784 1425 2512 
Q 1259 2241 1259 1728 
Q 1259 1206 1428 945 
Q 1597 684 1947 684 
z
" transform="scale(0.015625)"/>
        <path id="OpenSans-Bold-75" d="M 3706 3494 
L 3706 0 
L 2975 0 
L 2847 447 
L 2797 447 
Q 2684 269 2515 156 
Q 2347 44 2144 -9 
Q 1941 -63 1722 -63 
Q 1347 -63 1069 70 
Q 791 203 636 484 
Q 481 766 481 1216 
L 481 3494 
L 1434 3494 
L 1434 1453 
Q 1434 1078 1568 887 
Q 1703 697 1997 697 
Q 2288 697 2453 830 
Q 2619 963 2686 1220 
Q 2753 1478 2753 1850 
L 2753 3494 
L 3706 3494 
z
" transform="scale(0.015625)"/>
       </defs>
       <use xlink:href="#OpenSans-Bold-52"/>
       <use xlink:href="#OpenSans-Bold-65" x="66.015625"/>
       <use xlink:href="#OpenSans-Bold-67" x="125.097656"/>
       <use xlink:href="#OpenSans-Bold-69" x="181.591797"/>
       <use xlink:href="#OpenSans-Bold-f3" x="212.109375"/>
       <use xlink:href="#OpenSans-Bold-6e" x="274.023438"/>
       <use xlink:href="#OpenSans-Bold-20" x="339.746094"/>
       <use xlink:href="#OpenSans-Bold-64" x="365.722656"/>
       <use xlink:href="#OpenSans-Bold-65" x="429.003906"/>
       <use xlink:href="#OpenSans-Bold-20" x="488.085938"/>
       <use xlink:href="#OpenSans-Bold-43" x="514.0625"/>
       <use xlink:href="#OpenSans-Bold-6f" x="577.783203"/>
       <use xlink:href="#OpenSans-Bold-71" x="639.697266"/>
       <use xlink:href="#OpenSans-Bold-75" x="702.978516"/>
       <use xlink:href="#OpenSans-Bold-69" x="768.701172"/>
       <use xlink:href="#OpenSans-Bold-6d" x="799.21875"/>
       <use xlink:href="#OpenSans-Bold-62" x="897.412109"/>
       <use xlink:href="#OpenSans-Bold-6f" x="960.693359"/>
      </g>
     </g>
    </g>
    <g id="ytick_8">
     <g id="line2d_26">
      <g>
       <use xlink:href="#m82512c782e" x="284.2" y="143.192857" style="fill: #37539c; stroke: #37539c; stroke-width: 0.8"/>
      </g>
     </g>
     <g id="text_17">
      <!-- Región del Maule -->
      <g style="fill: #37539c" transform="translate(191.740625 147.023326) scale(0.1 -0.1)">
       <use xlink:href="#OpenSans-Bold-52"/>
       <use xlink:href="#OpenSans-Bold-65" x="66.015625"/>
       <use xlink:href="#OpenSans-Bold-67" x="125.097656"/>
       <use xlink:href="#OpenSans-Bold-69" x="181.591797"/>
       <use xlink:href="#OpenSans-Bold-f3" x="212.109375"/>
       <use xlink:href="#OpenSans-Bold-6e" x="274.023438"/>
       <use xlink:href="#OpenSans-Bold-20" x="339.746094"/>
       <use xlink:href="#OpenSans-Bold-64" x="365.722656"/>
       <use xlink:href="#OpenSans-Bold-65" x="429.003906"/>
       <use xlink:href="#OpenSans-Bold-6c" x="488.085938"/>
       <use xlink:href="#OpenSans-Bold-20" x="518.603516"/>
       <use xlink:href="#OpenSans-Bold-4d" x="544.580078"/>
       <use xlink:href="#OpenSans-Bold-61" x="638.867188"/>
       <use xlink:href="#OpenSans-Bold-75" x="699.267578"/>
       <use xlink:href="#OpenSans-Bold-6c" x="764.990234"/>
       <use xlink:href="#OpenSans-Bold-65" x="795.507812"/>
      </g>
     </g>
    </g>
    <g id="ytick_9">
     <g id="line2d_27">
      <g>
       <use xlink:href="#m82512c782e" x="284.2" y="127.602571" style="fill: #37539c; stroke: #37539c; stroke-width: 0.8"/>
      </g>
     </g>
     <g id="text_18">
      <!-- Región de Antofagasta -->
      <g style="fill: #37539c" transform="translate(164.832813 131.43304) scale(0.1 -0.1)">
       <defs>
        <path id="OpenSans-Bold-66" d="M 2431 2778 
L 1606 2778 
L 1606 0 
L 653 0 
L 653 2778 
L 128 2778 
L 128 3238 
L 653 3494 
L 653 3750 
Q 653 4197 804 4445 
Q 956 4694 1232 4795 
Q 1509 4897 1888 4897 
Q 2166 4897 2394 4851 
Q 2622 4806 2766 4750 
L 2522 4050 
Q 2413 4084 2284 4112 
Q 2156 4141 1991 4141 
Q 1791 4141 1698 4020 
Q 1606 3900 1606 3713 
L 1606 3494 
L 2431 3494 
L 2431 2778 
z
" transform="scale(0.015625)"/>
       </defs>
       <use xlink:href="#OpenSans-Bold-52"/>
       <use xlink:href="#OpenSans-Bold-65" x="66.015625"/>
       <use xlink:href="#OpenSans-Bold-67" x="125.097656"/>
       <use xlink:href="#OpenSans-Bold-69" x="181.591797"/>
       <use xlink:href="#OpenSans-Bold-f3" x="212.109375"/>
       <use xlink:href="#OpenSans-Bold-6e" x="274.023438"/>
       <use xlink:href="#OpenSans-Bold-20" x="339.746094"/>
       <use xlink:href="#OpenSans-Bold-64" x="365.722656"/>
       <use xlink:href="#OpenSans-Bold-65" x="429.003906"/>
       <use xlink:href="#OpenSans-Bold-20" x="488.085938"/>
       <use xlink:href="#OpenSans-Bold-41" x="514.0625"/>
       <use xlink:href="#OpenSans-Bold-6e" x="583.056641"/>
       <use xlink:href="#OpenSans-Bold-74" x="648.779297"/>
       <use xlink:href="#OpenSans-Bold-6f" x="692.1875"/>
       <use xlink:href="#OpenSans-Bold-66" x="754.101562"/>
       <use xlink:href="#OpenSans-Bold-61" x="792.822266"/>
       <use xlink:href="#OpenSans-Bold-67" x="853.222656"/>
       <use xlink:href="#OpenSans-Bold-61" x="909.716797"/>
       <use xlink:href="#OpenSans-Bold-73" x="970.117188"/>
       <use xlink:href="#OpenSans-Bold-74" x="1019.824219"/>
       <use xlink:href="#OpenSans-Bold-61" x="1063.232422"/>
      </g>
     </g>
    </g>
    <g id="ytick_10">
     <g id="line2d_28">
      <g>
       <use xlink:href="#m82512c782e" x="284.2" y="112.012286" style="fill: #37539c; stroke: #37539c; stroke-width: 0.8"/>
      </g>
     </g>
     <g id="text_19">
      <!-- Región de la Araucanía -->
      <g style="fill: #37539c" transform="translate(163.201563 115.842754) scale(0.1 -0.1)">
       <defs>
        <path id="OpenSans-Bold-ed" d="M 1453 0 
L 500 0 
L 500 3494 
L 1453 3494 
L 1453 0 
z
M 2203 4903 
L 2203 4838 
Q 2113 4750 1966 4622 
Q 1819 4494 1650 4355 
Q 1482 4216 1319 4089 
Q 1157 3963 1035 3878 
L 400 3878 
L 400 3963 
Q 503 4081 639 4245 
Q 775 4409 909 4584 
Q 1044 4759 1135 4903 
L 2203 4903 
z
" transform="scale(0.015625)"/>
       </defs>
       <use xlink:href="#OpenSans-Bold-52"/>
       <use xlink:href="#OpenSans-Bold-65" x="66.015625"/>
       <use xlink:href="#OpenSans-Bold-67" x="125.097656"/>
       <use xlink:href="#OpenSans-Bold-69" x="181.591797"/>
       <use xlink:href="#OpenSans-Bold-f3" x="212.109375"/>
       <use xlink:href="#OpenSans-Bold-6e" x="274.023438"/>
       <use xlink:href="#OpenSans-Bold-20" x="339.746094"/>
       <use xlink:href="#OpenSans-Bold-64" x="365.722656"/>
       <use xlink:href="#OpenSans-Bold-65" x="429.003906"/>
       <use xlink:href="#OpenSans-Bold-20" x="488.085938"/>
       <use xlink:href="#OpenSans-Bold-6c" x="514.0625"/>
       <use xlink:href="#OpenSans-Bold-61" x="544.580078"/>
       <use xlink:href="#OpenSans-Bold-20" x="604.980469"/>
       <use xlink:href="#OpenSans-Bold-41" x="630.957031"/>
       <use xlink:href="#OpenSans-Bold-72" x="699.951172"/>
       <use xlink:href="#OpenSans-Bold-61" x="745.361328"/>
       <use xlink:href="#OpenSans-Bold-75" x="805.761719"/>
       <use xlink:href="#OpenSans-Bold-63" x="871.484375"/>
       <use xlink:href="#OpenSans-Bold-61" x="922.900391"/>
       <use xlink:href="#OpenSans-Bold-6e" x="983.300781"/>
       <use xlink:href="#OpenSans-Bold-ed" x="1049.023438"/>
       <use xlink:href="#OpenSans-Bold-61" x="1079.541016"/>
      </g>
     </g>
    </g>
    <g id="ytick_11">
     <g id="line2d_29">
      <g>
       <use xlink:href="#m82512c782e" x="284.2" y="96.422" style="fill: #37539c; stroke: #37539c; stroke-width: 0.8"/>
      </g>
     </g>
     <g id="text_20">
      <!-- Región de Los Ríos -->
      <g style="fill: #37539c" transform="translate(185.565625 100.252469) scale(0.1 -0.1)">
       <use xlink:href="#OpenSans-Bold-52"/>
       <use xlink:href="#OpenSans-Bold-65" x="66.015625"/>
       <use xlink:href="#OpenSans-Bold-67" x="125.097656"/>
       <use xlink:href="#OpenSans-Bold-69" x="181.591797"/>
       <use xlink:href="#OpenSans-Bold-f3" x="212.109375"/>
       <use xlink:href="#OpenSans-Bold-6e" x="274.023438"/>
       <use xlink:href="#OpenSans-Bold-20" x="339.746094"/>
       <use xlink:href="#OpenSans-Bold-64" x="365.722656"/>
       <use xlink:href="#OpenSans-Bold-65" x="429.003906"/>
       <use xlink:href="#OpenSans-Bold-20" x="488.085938"/>
       <use xlink:href="#OpenSans-Bold-4c" x="514.0625"/>
       <use xlink:href="#OpenSans-Bold-6f" x="570.556641"/>
       <use xlink:href="#OpenSans-Bold-73" x="632.470703"/>
       <use xlink:href="#OpenSans-Bold-20" x="682.177734"/>
       <use xlink:href="#OpenSans-Bold-52" x="708.154297"/>
       <use xlink:href="#OpenSans-Bold-ed" x="774.169922"/>
       <use xlink:href="#OpenSans-Bold-6f" x="804.6875"/>
       <use xlink:href="#OpenSans-Bold-73" x="866.601562"/>
      </g>
     </g>
    </g>
    <g id="ytick_12">
     <g id="line2d_30">
      <g>
       <use xlink:href="#m82512c782e" x="284.2" y="80.831714" style="fill: #37539c; stroke: #37539c; stroke-width: 0.8"/>
      </g>
     </g>
     <g id="text_21">
      <!-- Región de Valparaíso -->
      <g style="fill: #37539c" transform="translate(173.0375 84.662183) scale(0.1 -0.1)">
       <defs>
        <path id="OpenSans-Bold-56" d="M 4159 4569 
L 2606 0 
L 1550 0 
L 0 4569 
L 978 4569 
L 1838 1850 
Q 1859 1781 1909 1592 
Q 1959 1403 2011 1192 
Q 2063 981 2081 844 
Q 2100 981 2148 1190 
Q 2197 1400 2245 1589 
Q 2294 1778 2316 1850 
L 3181 4569 
L 4159 4569 
z
" transform="scale(0.015625)"/>
       </defs>
       <use xlink:href="#OpenSans-Bold-52"/>
       <use xlink:href="#OpenSans-Bold-65" x="66.015625"/>
       <use xlink:href="#OpenSans-Bold-67" x="125.097656"/>
       <use xlink:href="#OpenSans-Bold-69" x="181.591797"/>
       <use xlink:href="#OpenSans-Bold-f3" x="212.109375"/>
       <use xlink:href="#OpenSans-Bold-6e" x="274.023438"/>
       <use xlink:href="#OpenSans-Bold-20" x="339.746094"/>
       <use xlink:href="#OpenSans-Bold-64" x="365.722656"/>
       <use xlink:href="#OpenSans-Bold-65" x="429.003906"/>
       <use xlink:href="#OpenSans-Bold-20" x="488.085938"/>
       <use xlink:href="#OpenSans-Bold-56" x="514.0625"/>
       <use xlink:href="#OpenSans-Bold-61" x="579.052734"/>
       <use xlink:href="#OpenSans-Bold-6c" x="639.453125"/>
       <use xlink:href="#OpenSans-Bold-70" x="669.970703"/>
       <use xlink:href="#OpenSans-Bold-61" x="733.251953"/>
       <use xlink:href="#OpenSans-Bold-72" x="793.652344"/>
       <use xlink:href="#OpenSans-Bold-61" x="839.0625"/>
       <use xlink:href="#OpenSans-Bold-ed" x="899.462891"/>
       <use xlink:href="#OpenSans-Bold-73" x="929.980469"/>
       <use xlink:href="#OpenSans-Bold-6f" x="979.6875"/>
      </g>
     </g>
    </g>
    <g id="ytick_13">
     <g id="line2d_31">
      <g>
       <use xlink:href="#m82512c782e" x="284.2" y="65.241429" style="fill: #37539c; stroke: #37539c; stroke-width: 0.8"/>
      </g>
     </g>
     <g id="text_22">
      <!-- Región del Bío-Bío -->
      <g style="fill: #37539c" transform="translate(187.598438 69.071897) scale(0.1 -0.1)">
       <defs>
        <path id="OpenSans-Bold-42" d="M 575 4569 
L 1997 4569 
Q 2909 4569 3378 4312 
Q 3847 4056 3847 3413 
Q 3847 3153 3764 2943 
Q 3681 2734 3525 2600 
Q 3369 2466 3144 2425 
L 3144 2394 
Q 3372 2347 3556 2233 
Q 3741 2119 3852 1901 
Q 3963 1684 3963 1325 
Q 3963 909 3759 612 
Q 3556 316 3179 158 
Q 2803 0 2284 0 
L 575 0 
L 575 4569 
z
M 1544 2759 
L 2106 2759 
Q 2528 2759 2690 2892 
Q 2853 3025 2853 3284 
Q 2853 3547 2661 3661 
Q 2469 3775 2053 3775 
L 1544 3775 
L 1544 2759 
z
M 1544 1991 
L 1544 800 
L 2175 800 
Q 2613 800 2784 969 
Q 2956 1138 2956 1422 
Q 2956 1591 2881 1719 
Q 2806 1847 2629 1919 
Q 2453 1991 2144 1991 
L 1544 1991 
z
" transform="scale(0.015625)"/>
        <path id="OpenSans-Bold-2d" d="M 191 1325 
L 191 2106 
L 1869 2106 
L 1869 1325 
L 191 1325 
z
" transform="scale(0.015625)"/>
       </defs>
       <use xlink:href="#OpenSans-Bold-52"/>
       <use xlink:href="#OpenSans-Bold-65" x="66.015625"/>
       <use xlink:href="#OpenSans-Bold-67" x="125.097656"/>
       <use xlink:href="#OpenSans-Bold-69" x="181.591797"/>
       <use xlink:href="#OpenSans-Bold-f3" x="212.109375"/>
       <use xlink:href="#OpenSans-Bold-6e" x="274.023438"/>
       <use xlink:href="#OpenSans-Bold-20" x="339.746094"/>
       <use xlink:href="#OpenSans-Bold-64" x="365.722656"/>
       <use xlink:href="#OpenSans-Bold-65" x="429.003906"/>
       <use xlink:href="#OpenSans-Bold-6c" x="488.085938"/>
       <use xlink:href="#OpenSans-Bold-20" x="518.603516"/>
       <use xlink:href="#OpenSans-Bold-42" x="544.580078"/>
       <use xlink:href="#OpenSans-Bold-ed" x="611.767578"/>
       <use xlink:href="#OpenSans-Bold-6f" x="642.285156"/>
       <use xlink:href="#OpenSans-Bold-2d" x="704.199219"/>
       <use xlink:href="#OpenSans-Bold-42" x="736.376953"/>
       <use xlink:href="#OpenSans-Bold-ed" x="803.564453"/>
       <use xlink:href="#OpenSans-Bold-6f" x="834.082031"/>
      </g>
     </g>
    </g>
    <g id="ytick_14">
     <g id="line2d_32">
      <g>
       <use xlink:href="#m82512c782e" x="284.2" y="49.651143" style="fill: #37539c; stroke: #37539c; stroke-width: 0.8"/>
      </g>
     </g>
     <g id="text_23">
      <!-- Región Metropolitana -->
      <g style="fill: #37539c" transform="translate(168.6 53.481612) scale(0.1 -0.1)">
       <use xlink:href="#OpenSans-Bold-52"/>
       <use xlink:href="#OpenSans-Bold-65" x="66.015625"/>
       <use xlink:href="#OpenSans-Bold-67" x="125.097656"/>
       <use xlink:href="#OpenSans-Bold-69" x="181.591797"/>
       <use xlink:href="#OpenSans-Bold-f3" x="212.109375"/>
       <use xlink:href="#OpenSans-Bold-6e" x="274.023438"/>
       <use xlink:href="#OpenSans-Bold-20" x="339.746094"/>
       <use xlink:href="#OpenSans-Bold-4d" x="365.722656"/>
       <use xlink:href="#OpenSans-Bold-65" x="460.009766"/>
       <use xlink:href="#OpenSans-Bold-74" x="519.091797"/>
       <use xlink:href="#OpenSans-Bold-72" x="562.5"/>
       <use xlink:href="#OpenSans-Bold-6f" x="607.910156"/>
       <use xlink:href="#OpenSans-Bold-70" x="669.824219"/>
       <use xlink:href="#OpenSans-Bold-6f" x="733.105469"/>
       <use xlink:href="#OpenSans-Bold-6c" x="795.019531"/>
       <use xlink:href="#OpenSans-Bold-69" x="825.537109"/>
       <use xlink:href="#OpenSans-Bold-74" x="856.054688"/>
       <use xlink:href="#OpenSans-Bold-61" x="899.462891"/>
       <use xlink:href="#OpenSans-Bold-6e" x="959.863281"/>
       <use xlink:href="#OpenSans-Bold-61" x="1025.585938"/>
      </g>
     </g>
    </g>
   </g>
   <g id="patch_3">
    <path d="M 284.416531 53.29927 
L 662.912019 53.29927 
Q 663.120222 53.29927 663.120222 47.063155 
L 663.120222 52.23913 
Q 663.120222 46.003016 662.912019 46.003016 
L 284.416531 46.003016 
Q 284.208328 46.003016 284.208328 52.23913 
L 284.208328 47.063155 
Q 284.208328 53.29927 284.416531 53.29927 
z
" clip-path="url(#p0c1f15c873)" style="fill: #37539c"/>
   </g>
   <g id="patch_4">
    <path d="M 284.416531 68.889555 
L 402.658894 68.889555 
Q 402.867097 68.889555 402.867097 62.653441 
L 402.867097 67.829416 
Q 402.867097 61.593302 402.658894 61.593302 
L 284.416531 61.593302 
Q 284.208328 61.593302 284.208328 67.829416 
L 284.208328 62.653441 
Q 284.208328 68.889555 284.416531 68.889555 
z
" clip-path="url(#p0c1f15c873)" style="fill: #37539c"/>
   </g>
   <g id="patch_5">
    <path d="M 284.416531 84.479841 
L 381.838644 84.479841 
Q 382.046847 84.479841 382.046847 78.243727 
L 382.046847 83.419702 
Q 382.046847 77.183587 381.838644 77.183587 
L 284.416531 77.183587 
Q 284.208328 77.183587 284.208328 83.419702 
L 284.208328 78.243727 
Q 284.208328 84.479841 284.416531 84.479841 
z
" clip-path="url(#p0c1f15c873)" style="fill: #37539c"/>
   </g>
   <g id="patch_6">
    <path d="M 284.416531 100.070127 
L 346.444219 100.070127 
Q 346.652422 100.070127 346.652422 93.834013 
L 346.652422 99.009987 
Q 346.652422 92.773873 346.444219 92.773873 
L 284.416531 92.773873 
Q 284.208328 92.773873 284.208328 99.009987 
L 284.208328 93.834013 
Q 284.208328 100.070127 284.416531 100.070127 
z
" clip-path="url(#p0c1f15c873)" style="fill: #37539c"/>
   </g>
   <g id="patch_7">
    <path d="M 284.416531 115.660413 
L 323.541944 115.660413 
Q 323.750147 115.660413 323.750147 109.424298 
L 323.750147 114.600273 
Q 323.750147 108.364159 323.541944 108.364159 
L 284.416531 108.364159 
Q 284.208328 108.364159 284.208328 114.600273 
L 284.208328 109.424298 
Q 284.208328 115.660413 284.416531 115.660413 
z
" clip-path="url(#p0c1f15c873)" style="fill: #37539c"/>
   </g>
   <g id="patch_8">
    <path d="M 284.416531 131.250698 
L 317.295869 131.250698 
Q 317.504072 131.250698 317.504072 125.014584 
L 317.504072 130.190559 
Q 317.504072 123.954445 317.295869 123.954445 
L 284.416531 123.954445 
Q 284.208328 123.954445 284.208328 130.190559 
L 284.208328 125.014584 
Q 284.208328 131.250698 284.416531 131.250698 
z
" clip-path="url(#p0c1f15c873)" style="fill: #37539c"/>
   </g>
   <g id="patch_9">
    <path d="M 284.416531 146.840984 
L 317.295869 146.840984 
Q 317.504072 146.840984 317.504072 140.60487 
L 317.504072 145.780845 
Q 317.504072 139.54473 317.295869 139.54473 
L 284.416531 139.54473 
Q 284.208328 139.54473 284.208328 145.780845 
L 284.208328 140.60487 
Q 284.208328 146.840984 284.416531 146.840984 
z
" clip-path="url(#p0c1f15c873)" style="fill: #37539c"/>
   </g>
   <g id="patch_10">
    <path d="M 284.416531 162.43127 
L 304.803719 162.43127 
Q 305.011922 162.43127 305.011922 156.195155 
L 305.011922 161.37113 
Q 305.011922 155.135016 304.803719 155.135016 
L 284.416531 155.135016 
Q 284.208328 155.135016 284.208328 161.37113 
L 284.208328 156.195155 
Q 284.208328 162.43127 284.416531 162.43127 
z
" clip-path="url(#p0c1f15c873)" style="fill: #37539c"/>
   </g>
   <g id="patch_11">
    <path d="M 284.416531 178.021555 
L 300.639669 178.021555 
Q 300.847872 178.021555 300.847872 171.785441 
L 300.847872 176.961416 
Q 300.847872 170.725302 300.639669 170.725302 
L 284.416531 170.725302 
Q 284.208328 170.725302 284.208328 176.961416 
L 284.208328 171.785441 
Q 284.208328 178.021555 284.416531 178.021555 
z
" clip-path="url(#p0c1f15c873)" style="fill: #37539c"/>
   </g>
   <g id="patch_12">
    <path d="M 284.416531 193.611841 
L 294.393594 193.611841 
Q 294.601797 193.611841 294.601797 187.375727 
L 294.601797 192.551702 
Q 294.601797 186.315587 294.393594 186.315587 
L 284.416531 186.315587 
Q 284.208328 186.315587 284.208328 192.551702 
L 284.208328 187.375727 
Q 284.208328 193.611841 284.416531 193.611841 
z
" clip-path="url(#p0c1f15c873)" style="fill: #37539c"/>
   </g>
   <g id="patch_13">
    <path d="M 284.416531 209.202127 
L 292.311569 209.202127 
Q 292.519772 209.202127 292.519772 202.966013 
L 292.519772 208.141987 
Q 292.519772 201.905873 292.311569 201.905873 
L 284.416531 201.905873 
Q 284.208328 201.905873 284.208328 208.141987 
L 284.208328 202.966013 
Q 284.208328 209.202127 284.416531 209.202127 
z
" clip-path="url(#p0c1f15c873)" style="fill: #37539c"/>
   </g>
   <g id="patch_14">
    <path d="M 284.416531 224.792413 
L 290.229544 224.792413 
Q 290.437747 224.792413 290.437747 218.556298 
L 290.437747 223.732273 
Q 290.437747 217.496159 290.229544 217.496159 
L 284.416531 217.496159 
Q 284.208328 217.496159 284.208328 223.732273 
L 284.208328 218.556298 
Q 284.208328 224.792413 284.416531 224.792413 
z
" clip-path="url(#p0c1f15c873)" style="fill: #37539c"/>
   </g>
   <g id="patch_15">
    <path d="M 284.416531 240.382698 
L 288.147519 240.382698 
Q 288.355722 240.382698 288.355722 234.146584 
L 288.355722 239.322559 
Q 288.355722 233.086445 288.147519 233.086445 
L 284.416531 233.086445 
Q 284.208328 233.086445 284.208328 239.322559 
L 284.208328 234.146584 
Q 284.208328 240.382698 284.416531 240.382698 
z
" clip-path="url(#p0c1f15c873)" style="fill: #37539c"/>
   </g>
   <g id="patch_16">
    <path d="M 284.416531 255.972984 
L 286.065494 255.972984 
Q 286.273697 255.972984 286.273697 249.73687 
L 286.273697 254.912845 
Q 286.273697 248.67673 286.065494 248.67673 
L 284.416531 248.67673 
Q 284.208328 248.67673 284.208328 254.912845 
L 284.208328 249.73687 
Q 284.208328 255.972984 284.416531 255.972984 
z
" clip-path="url(#p0c1f15c873)" style="fill: #37539c"/>
   </g>
   <g id="patch_17">
    <path d="M 284.2 260.12 
L 284.2 41.856 
" style="fill: none; stroke: #000000; stroke-width: 0.8; stroke-linejoin: miter; stroke-linecap: square"/>
   </g>
   <g id="patch_18">
    <path d="M 284.2 260.12 
L 700.605 260.12 
" style="fill: none; stroke: #000000; stroke-width: 0.8; stroke-linejoin: miter; stroke-linecap: square"/>
   </g>
   <g id="text_24">
    <!-- 1 -->
    <g style="fill: #37539c" transform="translate(290.446075 253.883886) scale(0.1 -0.1)">
     <use xlink:href="#OpenSans-Bold-31"/>
    </g>
   </g>
   <g id="text_25">
    <!-- 2 -->
    <g style="fill: #37539c" transform="translate(292.5281 238.2936) scale(0.1 -0.1)">
     <use xlink:href="#OpenSans-Bold-32"/>
    </g>
   </g>
   <g id="text_26">
    <!-- 3 -->
    <g style="fill: #37539c" transform="translate(294.610125 222.703314) scale(0.1 -0.1)">
     <defs>
      <path id="OpenSans-Bold-33" d="M 3272 3547 
Q 3272 3231 3140 3000 
Q 3009 2769 2786 2622 
Q 2563 2475 2284 2406 
L 2284 2388 
Q 2834 2319 3120 2050 
Q 3406 1781 3406 1331 
Q 3406 931 3211 615 
Q 3016 300 2609 118 
Q 2203 -63 1563 -63 
Q 1184 -63 857 -2 
Q 531 59 244 184 
L 244 1006 
Q 538 856 859 779 
Q 1181 703 1459 703 
Q 1978 703 2186 883 
Q 2394 1063 2394 1388 
Q 2394 1578 2297 1709 
Q 2200 1841 1961 1909 
Q 1722 1978 1294 1978 
L 947 1978 
L 947 2719 
L 1300 2719 
Q 1722 2719 1942 2798 
Q 2163 2878 2242 3017 
Q 2322 3156 2322 3334 
Q 2322 3578 2172 3715 
Q 2022 3853 1672 3853 
Q 1453 3853 1273 3798 
Q 1094 3744 950 3667 
Q 806 3591 697 3519 
L 250 4184 
Q 519 4378 880 4506 
Q 1241 4634 1741 4634 
Q 2447 4634 2859 4350 
Q 3272 4066 3272 3547 
z
" transform="scale(0.015625)"/>
     </defs>
     <use xlink:href="#OpenSans-Bold-33"/>
    </g>
   </g>
   <g id="text_27">
    <!-- 4 -->
    <g style="fill: #37539c" transform="translate(296.69215 207.113029) scale(0.1 -0.1)">
     <defs>
      <path id="OpenSans-Bold-34" d="M 3553 947 
L 3003 947 
L 3003 0 
L 2059 0 
L 2059 947 
L 109 947 
L 109 1619 
L 2113 4569 
L 3003 4569 
L 3003 1697 
L 3553 1697 
L 3553 947 
z
M 2059 1697 
L 2059 2472 
Q 2059 2581 2064 2731 
Q 2069 2881 2075 3031 
Q 2081 3181 2089 3298 
Q 2097 3416 2100 3463 
L 2075 3463 
Q 2016 3334 1950 3214 
Q 1884 3094 1797 2963 
L 959 1697 
L 2059 1697 
z
" transform="scale(0.015625)"/>
     </defs>
     <use xlink:href="#OpenSans-Bold-34"/>
    </g>
   </g>
   <g id="text_28">
    <!-- 5 -->
    <g style="fill: #37539c" transform="translate(298.774175 191.522743) scale(0.1 -0.1)">
     <use xlink:href="#OpenSans-Bold-35"/>
    </g>
   </g>
   <g id="text_29">
    <!-- 8 -->
    <g style="fill: #37539c" transform="translate(305.02025 175.932457) scale(0.1 -0.1)">
     <defs>
      <path id="OpenSans-Bold-38" d="M 1831 4628 
Q 2225 4628 2558 4506 
Q 2891 4384 3091 4139 
Q 3291 3894 3291 3525 
Q 3291 3250 3183 3044 
Q 3075 2838 2890 2683 
Q 2706 2528 2472 2413 
Q 2716 2284 2934 2114 
Q 3153 1944 3292 1716 
Q 3431 1488 3431 1184 
Q 3431 803 3228 523 
Q 3025 244 2665 90 
Q 2306 -63 1831 -63 
Q 1319 -63 959 84 
Q 600 231 412 504 
Q 225 778 225 1159 
Q 225 1472 342 1703 
Q 459 1934 659 2101 
Q 859 2269 1100 2388 
Q 897 2516 730 2678 
Q 563 2841 464 3050 
Q 366 3259 366 3531 
Q 366 3894 570 4137 
Q 775 4381 1109 4504 
Q 1444 4628 1831 4628 
z
M 1119 1216 
Q 1119 969 1295 808 
Q 1472 647 1819 647 
Q 2178 647 2356 801 
Q 2534 956 2534 1209 
Q 2534 1384 2432 1515 
Q 2331 1647 2178 1751 
Q 2025 1856 1869 1947 
L 1784 1991 
Q 1584 1900 1436 1787 
Q 1288 1675 1203 1534 
Q 1119 1394 1119 1216 
z
M 1825 3922 
Q 1588 3922 1431 3800 
Q 1275 3678 1275 3456 
Q 1275 3300 1351 3183 
Q 1428 3066 1554 2978 
Q 1681 2891 1831 2816 
Q 1975 2884 2100 2968 
Q 2225 3053 2303 3172 
Q 2381 3291 2381 3456 
Q 2381 3678 2223 3800 
Q 2066 3922 1825 3922 
z
" transform="scale(0.015625)"/>
     </defs>
     <use xlink:href="#OpenSans-Bold-38"/>
    </g>
   </g>
   <g id="text_30">
    <!-- 10 -->
    <g style="fill: #37539c" transform="translate(309.1843 160.342171) scale(0.1 -0.1)">
     <use xlink:href="#OpenSans-Bold-31"/>
     <use xlink:href="#OpenSans-Bold-30" x="57.177734"/>
    </g>
   </g>
   <g id="text_31">
    <!-- 16 -->
    <g style="fill: #37539c" transform="translate(321.67645 144.751886) scale(0.1 -0.1)">
     <defs>
      <path id="OpenSans-Bold-36" d="M 225 1941 
Q 225 2334 283 2720 
Q 341 3106 484 3448 
Q 628 3791 887 4055 
Q 1147 4319 1547 4470 
Q 1947 4622 2516 4622 
Q 2650 4622 2829 4611 
Q 3009 4600 3128 4575 
L 3128 3803 
Q 3003 3831 2861 3848 
Q 2719 3866 2578 3866 
Q 2009 3866 1698 3684 
Q 1388 3503 1261 3183 
Q 1134 2863 1113 2438 
L 1153 2438 
Q 1241 2591 1373 2709 
Q 1506 2828 1697 2898 
Q 1888 2969 2144 2969 
Q 2544 2969 2837 2798 
Q 3131 2628 3290 2306 
Q 3450 1984 3450 1522 
Q 3450 1028 3259 672 
Q 3069 316 2720 126 
Q 2372 -63 1894 -63 
Q 1544 -63 1241 57 
Q 938 178 709 425 
Q 481 672 353 1048 
Q 225 1425 225 1941 
z
M 1875 709 
Q 2159 709 2337 903 
Q 2516 1097 2516 1509 
Q 2516 1844 2361 2036 
Q 2206 2228 1894 2228 
Q 1681 2228 1520 2133 
Q 1359 2038 1271 1892 
Q 1184 1747 1184 1594 
Q 1184 1434 1228 1278 
Q 1272 1122 1359 994 
Q 1447 866 1576 787 
Q 1706 709 1875 709 
z
" transform="scale(0.015625)"/>
     </defs>
     <use xlink:href="#OpenSans-Bold-31"/>
     <use xlink:href="#OpenSans-Bold-36" x="57.177734"/>
    </g>
   </g>
   <g id="text_32">
    <!-- 16 -->
    <g style="fill: #37539c" transform="translate(321.67645 129.1616) scale(0.1 -0.1)">
     <use xlink:href="#OpenSans-Bold-31"/>
     <use xlink:href="#OpenSans-Bold-36" x="57.177734"/>
    </g>
   </g>
   <g id="text_33">
    <!-- 19 -->
    <g style="fill: #37539c" transform="translate(327.922525 113.571314) scale(0.1 -0.1)">
     <defs>
      <path id="OpenSans-Bold-39" d="M 3431 2619 
Q 3431 2225 3373 1837 
Q 3316 1450 3172 1108 
Q 3028 766 2768 502 
Q 2509 238 2109 87 
Q 1709 -63 1141 -63 
Q 1006 -63 825 -52 
Q 644 -41 525 -19 
L 525 756 
Q 650 725 790 708 
Q 931 691 1075 691 
Q 1647 691 1958 872 
Q 2269 1053 2395 1375 
Q 2522 1697 2541 2119 
L 2503 2119 
Q 2413 1969 2289 1848 
Q 2166 1728 1975 1658 
Q 1784 1588 1491 1588 
Q 1100 1588 811 1758 
Q 522 1928 364 2251 
Q 206 2575 206 3034 
Q 206 3531 395 3886 
Q 584 4241 934 4431 
Q 1284 4622 1759 4622 
Q 2109 4622 2412 4501 
Q 2716 4381 2945 4134 
Q 3175 3888 3303 3509 
Q 3431 3131 3431 2619 
z
M 1778 3847 
Q 1497 3847 1319 3653 
Q 1141 3459 1141 3047 
Q 1141 2716 1294 2522 
Q 1447 2328 1759 2328 
Q 1975 2328 2134 2423 
Q 2294 2519 2383 2664 
Q 2472 2809 2472 2963 
Q 2472 3122 2428 3278 
Q 2384 3434 2296 3562 
Q 2209 3691 2079 3769 
Q 1950 3847 1778 3847 
z
" transform="scale(0.015625)"/>
     </defs>
     <use xlink:href="#OpenSans-Bold-31"/>
     <use xlink:href="#OpenSans-Bold-39" x="57.177734"/>
    </g>
   </g>
   <g id="text_34">
    <!-- 30 -->
    <g style="fill: #37539c" transform="translate(350.8248 97.981029) scale(0.1 -0.1)">
     <use xlink:href="#OpenSans-Bold-33"/>
     <use xlink:href="#OpenSans-Bold-30" x="57.177734"/>
    </g>
   </g>
   <g id="text_35">
    <!-- 47 -->
    <g style="fill: #37539c" transform="translate(386.219225 82.390743) scale(0.1 -0.1)">
     <use xlink:href="#OpenSans-Bold-34"/>
     <use xlink:href="#OpenSans-Bold-37" x="57.177734"/>
    </g>
   </g>
   <g id="text_36">
    <!-- 57 -->
    <g style="fill: #37539c" transform="translate(407.039475 66.800457) scale(0.1 -0.1)">
     <use xlink:href="#OpenSans-Bold-35"/>
     <use xlink:href="#OpenSans-Bold-37" x="57.177734"/>
    </g>
   </g>
   <g id="text_37">
    <!-- 182 -->
    <g style="fill: #37539c" transform="translate(667.2926 51.210171) scale(0.1 -0.1)">
     <use xlink:href="#OpenSans-Bold-31"/>
     <use xlink:href="#OpenSans-Bold-38" x="57.177734"/>
     <use xlink:href="#OpenSans-Bold-32" x="114.355469"/>
    </g>
   </g>
   <g id="text_38">
    <!-- Cantidad de equipos FONDEQUIP -->
    <g style="fill: #37539c" transform="translate(393.915312 21.9405) scale(0.12 -0.12)">
     <defs>
      <path id="OpenSans-Bold-46" d="M 1528 0 
L 575 0 
L 575 4569 
L 3194 4569 
L 3194 3775 
L 1528 3775 
L 1528 2597 
L 3078 2597 
L 3078 1806 
L 1528 1806 
L 1528 0 
z
" transform="scale(0.015625)"/>
      <path id="OpenSans-Bold-4f" d="M 4722 2291 
Q 4722 1763 4590 1330 
Q 4459 897 4192 584 
Q 3925 272 3515 104 
Q 3106 -63 2547 -63 
Q 1988 -63 1578 104 
Q 1169 272 901 584 
Q 634 897 503 1331 
Q 372 1766 372 2297 
Q 372 3006 605 3532 
Q 838 4059 1322 4350 
Q 1806 4641 2553 4641 
Q 3297 4641 3776 4350 
Q 4256 4059 4489 3531 
Q 4722 3003 4722 2291 
z
M 1388 2291 
Q 1388 1813 1508 1467 
Q 1628 1122 1884 936 
Q 2141 750 2547 750 
Q 2959 750 3215 936 
Q 3472 1122 3589 1467 
Q 3706 1813 3706 2291 
Q 3706 3009 3437 3421 
Q 3169 3834 2553 3834 
Q 2144 3834 1886 3648 
Q 1628 3463 1508 3117 
Q 1388 2772 1388 2291 
z
" transform="scale(0.015625)"/>
      <path id="OpenSans-Bold-4e" d="M 4628 0 
L 3397 0 
L 1409 3456 
L 1381 3456 
Q 1394 3241 1403 3022 
Q 1413 2803 1422 2586 
Q 1431 2369 1441 2150 
L 1441 0 
L 575 0 
L 575 4569 
L 1797 4569 
L 3781 1147 
L 3803 1147 
Q 3797 1359 3787 1568 
Q 3778 1778 3770 1987 
Q 3763 2197 3756 2406 
L 3756 4569 
L 4628 4569 
L 4628 0 
z
" transform="scale(0.015625)"/>
      <path id="OpenSans-Bold-44" d="M 4366 2328 
Q 4366 1556 4070 1039 
Q 3775 522 3215 261 
Q 2656 0 1869 0 
L 575 0 
L 575 4569 
L 2009 4569 
Q 2728 4569 3256 4314 
Q 3784 4059 4075 3561 
Q 4366 3063 4366 2328 
z
M 3359 2303 
Q 3359 2809 3211 3136 
Q 3063 3463 2773 3619 
Q 2484 3775 2059 3775 
L 1544 3775 
L 1544 800 
L 1959 800 
Q 2669 800 3014 1178 
Q 3359 1556 3359 2303 
z
" transform="scale(0.015625)"/>
      <path id="OpenSans-Bold-45" d="M 3206 0 
L 575 0 
L 575 4569 
L 3206 4569 
L 3206 3775 
L 1544 3775 
L 1544 2772 
L 3091 2772 
L 3091 1978 
L 1544 1978 
L 1544 800 
L 3206 800 
L 3206 0 
z
" transform="scale(0.015625)"/>
      <path id="OpenSans-Bold-51" d="M 4722 2291 
Q 4722 1781 4601 1357 
Q 4481 934 4231 625 
Q 3981 316 3597 141 
L 4697 -1088 
L 3456 -1088 
L 2619 -63 
Q 2597 -63 2581 -63 
Q 2566 -63 2547 -63 
Q 1988 -63 1578 104 
Q 1169 272 901 584 
Q 634 897 503 1331 
Q 372 1766 372 2297 
Q 372 3006 605 3532 
Q 838 4059 1322 4350 
Q 1806 4641 2553 4641 
Q 3297 4641 3776 4350 
Q 4256 4059 4489 3531 
Q 4722 3003 4722 2291 
z
M 1388 2291 
Q 1388 1813 1508 1467 
Q 1628 1122 1884 936 
Q 2141 750 2547 750 
Q 2959 750 3215 936 
Q 3472 1122 3589 1467 
Q 3706 1813 3706 2291 
Q 3706 3009 3437 3421 
Q 3169 3834 2553 3834 
Q 2144 3834 1886 3648 
Q 1628 3463 1508 3117 
Q 1388 2772 1388 2291 
z
" transform="scale(0.015625)"/>
      <path id="OpenSans-Bold-55" d="M 4294 4569 
L 4294 1613 
Q 4294 1141 4086 761 
Q 3878 381 3458 159 
Q 3038 -63 2400 -63 
Q 1494 -63 1019 400 
Q 544 863 544 1625 
L 544 4569 
L 1509 4569 
L 1509 1772 
Q 1509 1206 1740 978 
Q 1972 750 2425 750 
Q 2744 750 2942 859 
Q 3141 969 3234 1197 
Q 3328 1425 3328 1778 
L 3328 4569 
L 4294 4569 
z
" transform="scale(0.015625)"/>
     </defs>
     <use xlink:href="#OpenSans-Bold-43"/>
     <use xlink:href="#OpenSans-Bold-61" x="63.720703"/>
     <use xlink:href="#OpenSans-Bold-6e" x="124.121094"/>
     <use xlink:href="#OpenSans-Bold-74" x="189.84375"/>
     <use xlink:href="#OpenSans-Bold-69" x="233.251953"/>
     <use xlink:href="#OpenSans-Bold-64" x="263.769531"/>
     <use xlink:href="#OpenSans-Bold-61" x="327.050781"/>
     <use xlink:href="#OpenSans-Bold-64" x="387.451172"/>
     <use xlink:href="#OpenSans-Bold-20" x="450.732422"/>
     <use xlink:href="#OpenSans-Bold-64" x="476.708984"/>
     <use xlink:href="#OpenSans-Bold-65" x="539.990234"/>
     <use xlink:href="#OpenSans-Bold-20" x="599.072266"/>
     <use xlink:href="#OpenSans-Bold-65" x="625.048828"/>
     <use xlink:href="#OpenSans-Bold-71" x="684.130859"/>
     <use xlink:href="#OpenSans-Bold-75" x="747.412109"/>
     <use xlink:href="#OpenSans-Bold-69" x="813.134766"/>
     <use xlink:href="#OpenSans-Bold-70" x="843.652344"/>
     <use xlink:href="#OpenSans-Bold-6f" x="906.933594"/>
     <use xlink:href="#OpenSans-Bold-73" x="968.847656"/>
     <use xlink:href="#OpenSans-Bold-20" x="1018.554688"/>
     <use xlink:href="#OpenSans-Bold-46" x="1044.53125"/>
     <use xlink:href="#OpenSans-Bold-4f" x="1099.414062"/>
     <use xlink:href="#OpenSans-Bold-4e" x="1179.003906"/>
     <use xlink:href="#OpenSans-Bold-44" x="1260.302734"/>
     <use xlink:href="#OpenSans-Bold-45" x="1334.326172"/>
     <use xlink:href="#OpenSans-Bold-51" x="1390.332031"/>
     <use xlink:href="#OpenSans-Bold-55" x="1469.921875"/>
     <use xlink:href="#OpenSans-Bold-49" x="1545.507812"/>
     <use xlink:href="#OpenSans-Bold-50" x="1578.613281"/>
    </g>
    <!-- instalados por región -->
    <g style="fill: #37539c" transform="translate(428.964687 35.856) scale(0.12 -0.12)">
     <use xlink:href="#OpenSans-Bold-69"/>
     <use xlink:href="#OpenSans-Bold-6e" x="30.517578"/>
     <use xlink:href="#OpenSans-Bold-73" x="96.240234"/>
     <use xlink:href="#OpenSans-Bold-74" x="145.947266"/>
     <use xlink:href="#OpenSans-Bold-61" x="189.355469"/>
     <use xlink:href="#OpenSans-Bold-6c" x="249.755859"/>
     <use xlink:href="#OpenSans-Bold-61" x="280.273438"/>
     <use xlink:href="#OpenSans-Bold-64" x="340.673828"/>
     <use xlink:href="#OpenSans-Bold-6f" x="403.955078"/>
     <use xlink:href="#OpenSans-Bold-73" x="465.869141"/>
     <use xlink:href="#OpenSans-Bold-20" x="515.576172"/>
     <use xlink:href="#OpenSans-Bold-70" x="541.552734"/>
     <use xlink:href="#OpenSans-Bold-6f" x="604.833984"/>
     <use xlink:href="#OpenSans-Bold-72" x="666.748047"/>
     <use xlink:href="#OpenSans-Bold-20" x="712.158203"/>
     <use xlink:href="#OpenSans-Bold-72" x="738.134766"/>
     <use xlink:href="#OpenSans-Bold-65" x="783.544922"/>
     <use xlink:href="#OpenSans-Bold-67" x="842.626953"/>
     <use xlink:href="#OpenSans-Bold-69" x="899.121094"/>
     <use xlink:href="#OpenSans-Bold-f3" x="929.638672"/>
     <use xlink:href="#OpenSans-Bold-6e" x="991.552734"/>
    </g>
   </g>
  </g>
 </g>
 <defs>
  <clipPath id="p0c1f15c873">
   <rect x="284.2" y="41.856" width="416.405" height="218.264"/>
  </clipPath>
 </defs>
</svg>
