<?xml version="1.0" encoding="utf-8" standalone="no"?>
<!DOCTYPE svg PUBLIC "-//W3C//DTD SVG 1.1//EN"
  "http://www.w3.org/Graphics/SVG/1.1/DTD/svg11.dtd">
<svg xmlns:xlink="http://www.w3.org/1999/xlink" width="864pt" height="720pt" viewBox="0 0 864 720" xmlns="http://www.w3.org/2000/svg" version="1.1">
 <metadata>
  <rdf:RDF xmlns:dc="http://purl.org/dc/elements/1.1/" xmlns:cc="http://creativecommons.org/ns#" xmlns:rdf="http://www.w3.org/1999/02/22-rdf-syntax-ns#">
   <cc:Work>
    <dc:type rdf:resource="http://purl.org/dc/dcmitype/StillImage"/>
    <dc:date>2024-02-26T21:22:22.175021</dc:date>
    <dc:format>image/svg+xml</dc:format>
    <dc:creator>
     <cc:Agent>
      <dc:title>Matplotlib v3.7.1, https://matplotlib.org/</dc:title>
     </cc:Agent>
    </dc:creator>
   </cc:Work>
  </rdf:RDF>
 </metadata>
 <defs>
  <style type="text/css">*{stroke-linejoin: round; stroke-linecap: butt}</style>
 </defs>
 <g id="figure_1">
  <g id="patch_1">
   <path d="M 0 720 
L 864 720 
L 864 0 
L 0 0 
z
" style="fill: #ffffff"/>
  </g>
  <g id="axes_1">
   <g id="patch_2">
    <path d="M 31.66 344.689524 
L 344.895 344.689524 
L 344.895 26.88 
L 31.66 26.88 
z
" style="fill: #ffffff"/>
   </g>
   <g id="matplotlib.axis_1">
    <g id="xtick_1">
     <g id="line2d_1">
      <defs>
       <path id="m0675263a6b" d="M 0 0 
L 0 3.5 
" style="stroke: #37539c; stroke-width: 0.8"/>
      </defs>
      <g>
       <use xlink:href="#m0675263a6b" x="54.033929" y="344.689524" style="fill: #37539c; stroke: #37539c; stroke-width: 0.8"/>
      </g>
     </g>
     <g id="text_1">
      <!-- 2015 -->
      <g style="fill: #37539c" transform="translate(44.886429 357.768274) scale(0.08 -0.08)">
       <defs>
        <path id="OpenSans-Bold-32" d="M 3450 0 
L 256 0 
L 256 672 
L 1403 1831 
Q 1750 2188 1961 2427 
Q 2172 2666 2267 2862 
Q 2363 3059 2363 3284 
Q 2363 3556 2211 3692 
Q 2059 3828 1806 3828 
Q 1541 3828 1291 3706 
Q 1041 3584 769 3359 
L 244 3981 
Q 441 4150 661 4300 
Q 881 4450 1173 4542 
Q 1466 4634 1875 4634 
Q 2325 4634 2648 4471 
Q 2972 4309 3147 4029 
Q 3322 3750 3322 3397 
Q 3322 3019 3172 2706 
Q 3022 2394 2736 2087 
Q 2450 1781 2047 1409 
L 1459 856 
L 1459 813 
L 3450 813 
L 3450 0 
z
" transform="scale(0.015625)"/>
        <path id="OpenSans-Bold-30" d="M 3425 2284 
Q 3425 1731 3339 1297 
Q 3253 863 3064 559 
Q 2875 256 2569 96 
Q 2263 -63 1825 -63 
Q 1275 -63 922 217 
Q 569 497 400 1023 
Q 231 1550 231 2284 
Q 231 3025 386 3551 
Q 541 4078 891 4359 
Q 1241 4641 1825 4641 
Q 2372 4641 2726 4361 
Q 3081 4081 3253 3554 
Q 3425 3028 3425 2284 
z
M 1191 2284 
Q 1191 1763 1248 1414 
Q 1306 1066 1443 891 
Q 1581 716 1825 716 
Q 2066 716 2205 889 
Q 2344 1063 2403 1411 
Q 2463 1759 2463 2284 
Q 2463 2806 2403 3156 
Q 2344 3506 2205 3682 
Q 2066 3859 1825 3859 
Q 1581 3859 1443 3682 
Q 1306 3506 1248 3156 
Q 1191 2806 1191 2284 
z
" transform="scale(0.015625)"/>
        <path id="OpenSans-Bold-31" d="M 2644 0 
L 1678 0 
L 1678 2644 
Q 1678 2753 1681 2914 
Q 1684 3075 1690 3245 
Q 1697 3416 1703 3553 
Q 1669 3513 1564 3414 
Q 1459 3316 1369 3238 
L 844 2816 
L 378 3397 
L 1850 4569 
L 2644 4569 
L 2644 0 
z
" transform="scale(0.015625)"/>
        <path id="OpenSans-Bold-35" d="M 1919 2919 
Q 2338 2919 2664 2759 
Q 2991 2600 3178 2290 
Q 3366 1981 3366 1528 
Q 3366 1034 3161 676 
Q 2956 319 2551 128 
Q 2147 -63 1544 -63 
Q 1184 -63 867 -2 
Q 550 59 313 184 
L 313 1019 
Q 550 894 883 808 
Q 1216 722 1509 722 
Q 1797 722 1994 798 
Q 2191 875 2292 1036 
Q 2394 1197 2394 1447 
Q 2394 1781 2169 1959 
Q 1944 2138 1478 2138 
Q 1300 2138 1108 2103 
Q 916 2069 788 2034 
L 403 2241 
L 575 4569 
L 3053 4569 
L 3053 3750 
L 1422 3750 
L 1338 2853 
Q 1444 2875 1569 2897 
Q 1694 2919 1919 2919 
z
" transform="scale(0.015625)"/>
       </defs>
       <use xlink:href="#OpenSans-Bold-32"/>
       <use xlink:href="#OpenSans-Bold-30" x="57.177734"/>
       <use xlink:href="#OpenSans-Bold-31" x="114.355469"/>
       <use xlink:href="#OpenSans-Bold-35" x="171.533203"/>
      </g>
     </g>
    </g>
    <g id="xtick_2">
     <g id="line2d_2">
      <g>
       <use xlink:href="#m0675263a6b" x="98.781786" y="344.689524" style="fill: #37539c; stroke: #37539c; stroke-width: 0.8"/>
      </g>
     </g>
     <g id="text_2">
      <!-- 2016 -->
      <g style="fill: #37539c" transform="translate(89.634286 357.768274) scale(0.08 -0.08)">
       <defs>
        <path id="OpenSans-Bold-36" d="M 225 1941 
Q 225 2334 283 2720 
Q 341 3106 484 3448 
Q 628 3791 887 4055 
Q 1147 4319 1547 4470 
Q 1947 4622 2516 4622 
Q 2650 4622 2829 4611 
Q 3009 4600 3128 4575 
L 3128 3803 
Q 3003 3831 2861 3848 
Q 2719 3866 2578 3866 
Q 2009 3866 1698 3684 
Q 1388 3503 1261 3183 
Q 1134 2863 1113 2438 
L 1153 2438 
Q 1241 2591 1373 2709 
Q 1506 2828 1697 2898 
Q 1888 2969 2144 2969 
Q 2544 2969 2837 2798 
Q 3131 2628 3290 2306 
Q 3450 1984 3450 1522 
Q 3450 1028 3259 672 
Q 3069 316 2720 126 
Q 2372 -63 1894 -63 
Q 1544 -63 1241 57 
Q 938 178 709 425 
Q 481 672 353 1048 
Q 225 1425 225 1941 
z
M 1875 709 
Q 2159 709 2337 903 
Q 2516 1097 2516 1509 
Q 2516 1844 2361 2036 
Q 2206 2228 1894 2228 
Q 1681 2228 1520 2133 
Q 1359 2038 1271 1892 
Q 1184 1747 1184 1594 
Q 1184 1434 1228 1278 
Q 1272 1122 1359 994 
Q 1447 866 1576 787 
Q 1706 709 1875 709 
z
" transform="scale(0.015625)"/>
       </defs>
       <use xlink:href="#OpenSans-Bold-32"/>
       <use xlink:href="#OpenSans-Bold-30" x="57.177734"/>
       <use xlink:href="#OpenSans-Bold-31" x="114.355469"/>
       <use xlink:href="#OpenSans-Bold-36" x="171.533203"/>
      </g>
     </g>
    </g>
    <g id="xtick_3">
     <g id="line2d_3">
      <g>
       <use xlink:href="#m0675263a6b" x="143.529643" y="344.689524" style="fill: #37539c; stroke: #37539c; stroke-width: 0.8"/>
      </g>
     </g>
     <g id="text_3">
      <!-- 2017 -->
      <g style="fill: #37539c" transform="translate(134.382143 357.768274) scale(0.08 -0.08)">
       <defs>
        <path id="OpenSans-Bold-37" d="M 709 0 
L 2425 3756 
L 172 3756 
L 172 4569 
L 3450 4569 
L 3450 3963 
L 1722 0 
L 709 0 
z
" transform="scale(0.015625)"/>
       </defs>
       <use xlink:href="#OpenSans-Bold-32"/>
       <use xlink:href="#OpenSans-Bold-30" x="57.177734"/>
       <use xlink:href="#OpenSans-Bold-31" x="114.355469"/>
       <use xlink:href="#OpenSans-Bold-37" x="171.533203"/>
      </g>
     </g>
    </g>
    <g id="xtick_4">
     <g id="line2d_4">
      <g>
       <use xlink:href="#m0675263a6b" x="188.2775" y="344.689524" style="fill: #37539c; stroke: #37539c; stroke-width: 0.8"/>
      </g>
     </g>
     <g id="text_4">
      <!-- 2018 -->
      <g style="fill: #37539c" transform="translate(179.13 357.768274) scale(0.08 -0.08)">
       <defs>
        <path id="OpenSans-Bold-38" d="M 1831 4628 
Q 2225 4628 2558 4506 
Q 2891 4384 3091 4139 
Q 3291 3894 3291 3525 
Q 3291 3250 3183 3044 
Q 3075 2838 2890 2683 
Q 2706 2528 2472 2413 
Q 2716 2284 2934 2114 
Q 3153 1944 3292 1716 
Q 3431 1488 3431 1184 
Q 3431 803 3228 523 
Q 3025 244 2665 90 
Q 2306 -63 1831 -63 
Q 1319 -63 959 84 
Q 600 231 412 504 
Q 225 778 225 1159 
Q 225 1472 342 1703 
Q 459 1934 659 2101 
Q 859 2269 1100 2388 
Q 897 2516 730 2678 
Q 563 2841 464 3050 
Q 366 3259 366 3531 
Q 366 3894 570 4137 
Q 775 4381 1109 4504 
Q 1444 4628 1831 4628 
z
M 1119 1216 
Q 1119 969 1295 808 
Q 1472 647 1819 647 
Q 2178 647 2356 801 
Q 2534 956 2534 1209 
Q 2534 1384 2432 1515 
Q 2331 1647 2178 1751 
Q 2025 1856 1869 1947 
L 1784 1991 
Q 1584 1900 1436 1787 
Q 1288 1675 1203 1534 
Q 1119 1394 1119 1216 
z
M 1825 3922 
Q 1588 3922 1431 3800 
Q 1275 3678 1275 3456 
Q 1275 3300 1351 3183 
Q 1428 3066 1554 2978 
Q 1681 2891 1831 2816 
Q 1975 2884 2100 2968 
Q 2225 3053 2303 3172 
Q 2381 3291 2381 3456 
Q 2381 3678 2223 3800 
Q 2066 3922 1825 3922 
z
" transform="scale(0.015625)"/>
       </defs>
       <use xlink:href="#OpenSans-Bold-32"/>
       <use xlink:href="#OpenSans-Bold-30" x="57.177734"/>
       <use xlink:href="#OpenSans-Bold-31" x="114.355469"/>
       <use xlink:href="#OpenSans-Bold-38" x="171.533203"/>
      </g>
     </g>
    </g>
    <g id="xtick_5">
     <g id="line2d_5">
      <g>
       <use xlink:href="#m0675263a6b" x="233.025357" y="344.689524" style="fill: #37539c; stroke: #37539c; stroke-width: 0.8"/>
      </g>
     </g>
     <g id="text_5">
      <!-- 2019 -->
      <g style="fill: #37539c" transform="translate(223.877857 357.768274) scale(0.08 -0.08)">
       <defs>
        <path id="OpenSans-Bold-39" d="M 3431 2619 
Q 3431 2225 3373 1837 
Q 3316 1450 3172 1108 
Q 3028 766 2768 502 
Q 2509 238 2109 87 
Q 1709 -63 1141 -63 
Q 1006 -63 825 -52 
Q 644 -41 525 -19 
L 525 756 
Q 650 725 790 708 
Q 931 691 1075 691 
Q 1647 691 1958 872 
Q 2269 1053 2395 1375 
Q 2522 1697 2541 2119 
L 2503 2119 
Q 2413 1969 2289 1848 
Q 2166 1728 1975 1658 
Q 1784 1588 1491 1588 
Q 1100 1588 811 1758 
Q 522 1928 364 2251 
Q 206 2575 206 3034 
Q 206 3531 395 3886 
Q 584 4241 934 4431 
Q 1284 4622 1759 4622 
Q 2109 4622 2412 4501 
Q 2716 4381 2945 4134 
Q 3175 3888 3303 3509 
Q 3431 3131 3431 2619 
z
M 1778 3847 
Q 1497 3847 1319 3653 
Q 1141 3459 1141 3047 
Q 1141 2716 1294 2522 
Q 1447 2328 1759 2328 
Q 1975 2328 2134 2423 
Q 2294 2519 2383 2664 
Q 2472 2809 2472 2963 
Q 2472 3122 2428 3278 
Q 2384 3434 2296 3562 
Q 2209 3691 2079 3769 
Q 1950 3847 1778 3847 
z
" transform="scale(0.015625)"/>
       </defs>
       <use xlink:href="#OpenSans-Bold-32"/>
       <use xlink:href="#OpenSans-Bold-30" x="57.177734"/>
       <use xlink:href="#OpenSans-Bold-31" x="114.355469"/>
       <use xlink:href="#OpenSans-Bold-39" x="171.533203"/>
      </g>
     </g>
    </g>
    <g id="xtick_6">
     <g id="line2d_6">
      <g>
       <use xlink:href="#m0675263a6b" x="277.773214" y="344.689524" style="fill: #37539c; stroke: #37539c; stroke-width: 0.8"/>
      </g>
     </g>
     <g id="text_6">
      <!-- 2020 -->
      <g style="fill: #37539c" transform="translate(268.625714 357.768274) scale(0.08 -0.08)">
       <use xlink:href="#OpenSans-Bold-32"/>
       <use xlink:href="#OpenSans-Bold-30" x="57.177734"/>
       <use xlink:href="#OpenSans-Bold-32" x="114.355469"/>
       <use xlink:href="#OpenSans-Bold-30" x="171.533203"/>
      </g>
     </g>
    </g>
    <g id="xtick_7">
     <g id="line2d_7">
      <g>
       <use xlink:href="#m0675263a6b" x="322.521071" y="344.689524" style="fill: #37539c; stroke: #37539c; stroke-width: 0.8"/>
      </g>
     </g>
     <g id="text_7">
      <!-- 2021 -->
      <g style="fill: #37539c" transform="translate(313.373571 357.768274) scale(0.08 -0.08)">
       <use xlink:href="#OpenSans-Bold-32"/>
       <use xlink:href="#OpenSans-Bold-30" x="57.177734"/>
       <use xlink:href="#OpenSans-Bold-32" x="114.355469"/>
       <use xlink:href="#OpenSans-Bold-31" x="171.533203"/>
      </g>
     </g>
    </g>
   </g>
   <g id="matplotlib.axis_2">
    <g id="ytick_1">
     <g id="line2d_8">
      <path d="M 31.66 344.689524 
L 344.895 344.689524 
" clip-path="url(#pfeea8157b3)" style="fill: none; stroke-dasharray: 2.96,1.28; stroke-dashoffset: 0; stroke: #b0b0b0; stroke-width: 0.8"/>
     </g>
     <g id="line2d_9">
      <defs>
       <path id="m0b222cc6f0" d="M 0 0 
L -3.5 0 
" style="stroke: #37539c; stroke-width: 0.8"/>
      </defs>
      <g>
       <use xlink:href="#m0b222cc6f0" x="31.66" y="344.689524" style="fill: #37539c; stroke: #37539c; stroke-width: 0.8"/>
      </g>
     </g>
     <g id="text_8">
      <!-- 0 -->
      <g style="fill: #37539c" transform="translate(20.08625 347.728899) scale(0.08 -0.08)">
       <use xlink:href="#OpenSans-Bold-30"/>
      </g>
     </g>
    </g>
    <g id="ytick_2">
     <g id="line2d_10">
      <path d="M 31.66 284.154376 
L 344.895 284.154376 
" clip-path="url(#pfeea8157b3)" style="fill: none; stroke-dasharray: 2.96,1.28; stroke-dashoffset: 0; stroke: #b0b0b0; stroke-width: 0.8"/>
     </g>
     <g id="line2d_11">
      <g>
       <use xlink:href="#m0b222cc6f0" x="31.66" y="284.154376" style="fill: #37539c; stroke: #37539c; stroke-width: 0.8"/>
      </g>
     </g>
     <g id="text_9">
      <!-- 20 -->
      <g style="fill: #37539c" transform="translate(15.5125 287.193751) scale(0.08 -0.08)">
       <use xlink:href="#OpenSans-Bold-32"/>
       <use xlink:href="#OpenSans-Bold-30" x="57.177734"/>
      </g>
     </g>
    </g>
    <g id="ytick_3">
     <g id="line2d_12">
      <path d="M 31.66 223.619229 
L 344.895 223.619229 
" clip-path="url(#pfeea8157b3)" style="fill: none; stroke-dasharray: 2.96,1.28; stroke-dashoffset: 0; stroke: #b0b0b0; stroke-width: 0.8"/>
     </g>
     <g id="line2d_13">
      <g>
       <use xlink:href="#m0b222cc6f0" x="31.66" y="223.619229" style="fill: #37539c; stroke: #37539c; stroke-width: 0.8"/>
      </g>
     </g>
     <g id="text_10">
      <!-- 40 -->
      <g style="fill: #37539c" transform="translate(15.5125 226.658604) scale(0.08 -0.08)">
       <defs>
        <path id="OpenSans-Bold-34" d="M 3553 947 
L 3003 947 
L 3003 0 
L 2059 0 
L 2059 947 
L 109 947 
L 109 1619 
L 2113 4569 
L 3003 4569 
L 3003 1697 
L 3553 1697 
L 3553 947 
z
M 2059 1697 
L 2059 2472 
Q 2059 2581 2064 2731 
Q 2069 2881 2075 3031 
Q 2081 3181 2089 3298 
Q 2097 3416 2100 3463 
L 2075 3463 
Q 2016 3334 1950 3214 
Q 1884 3094 1797 2963 
L 959 1697 
L 2059 1697 
z
" transform="scale(0.015625)"/>
       </defs>
       <use xlink:href="#OpenSans-Bold-34"/>
       <use xlink:href="#OpenSans-Bold-30" x="57.177734"/>
      </g>
     </g>
    </g>
    <g id="ytick_4">
     <g id="line2d_14">
      <path d="M 31.66 163.084082 
L 344.895 163.084082 
" clip-path="url(#pfeea8157b3)" style="fill: none; stroke-dasharray: 2.96,1.28; stroke-dashoffset: 0; stroke: #b0b0b0; stroke-width: 0.8"/>
     </g>
     <g id="line2d_15">
      <g>
       <use xlink:href="#m0b222cc6f0" x="31.66" y="163.084082" style="fill: #37539c; stroke: #37539c; stroke-width: 0.8"/>
      </g>
     </g>
     <g id="text_11">
      <!-- 60 -->
      <g style="fill: #37539c" transform="translate(15.5125 166.123457) scale(0.08 -0.08)">
       <use xlink:href="#OpenSans-Bold-36"/>
       <use xlink:href="#OpenSans-Bold-30" x="57.177734"/>
      </g>
     </g>
    </g>
    <g id="ytick_5">
     <g id="line2d_16">
      <path d="M 31.66 102.548934 
L 344.895 102.548934 
" clip-path="url(#pfeea8157b3)" style="fill: none; stroke-dasharray: 2.96,1.28; stroke-dashoffset: 0; stroke: #b0b0b0; stroke-width: 0.8"/>
     </g>
     <g id="line2d_17">
      <g>
       <use xlink:href="#m0b222cc6f0" x="31.66" y="102.548934" style="fill: #37539c; stroke: #37539c; stroke-width: 0.8"/>
      </g>
     </g>
     <g id="text_12">
      <!-- 80 -->
      <g style="fill: #37539c" transform="translate(15.5125 105.588309) scale(0.08 -0.08)">
       <use xlink:href="#OpenSans-Bold-38"/>
       <use xlink:href="#OpenSans-Bold-30" x="57.177734"/>
      </g>
     </g>
    </g>
    <g id="ytick_6">
     <g id="line2d_18">
      <path d="M 31.66 42.013787 
L 344.895 42.013787 
" clip-path="url(#pfeea8157b3)" style="fill: none; stroke-dasharray: 2.96,1.28; stroke-dashoffset: 0; stroke: #b0b0b0; stroke-width: 0.8"/>
     </g>
     <g id="line2d_19">
      <g>
       <use xlink:href="#m0b222cc6f0" x="31.66" y="42.013787" style="fill: #37539c; stroke: #37539c; stroke-width: 0.8"/>
      </g>
     </g>
     <g id="text_13">
      <!-- 100 -->
      <g style="fill: #37539c" transform="translate(10.93875 45.053162) scale(0.08 -0.08)">
       <use xlink:href="#OpenSans-Bold-31"/>
       <use xlink:href="#OpenSans-Bold-30" x="57.177734"/>
       <use xlink:href="#OpenSans-Bold-30" x="114.355469"/>
      </g>
     </g>
    </g>
   </g>
   <g id="patch_3">
    <path d="M 42.846964 344.689524 
L 65.220893 344.689524 
L 65.220893 343.478821 
L 42.846964 343.478821 
z
" clip-path="url(#pfeea8157b3)" style="fill: #37539c"/>
   </g>
   <g id="patch_4">
    <path d="M 87.594821 344.689524 
L 109.96875 344.689524 
L 109.96875 343.781497 
L 87.594821 343.781497 
z
" clip-path="url(#pfeea8157b3)" style="fill: #37539c"/>
   </g>
   <g id="patch_5">
    <path d="M 132.342679 344.689524 
L 154.716607 344.689524 
L 154.716607 344.386848 
L 132.342679 344.386848 
z
" clip-path="url(#pfeea8157b3)" style="fill: #37539c"/>
   </g>
   <g id="patch_6">
    <path d="M 177.090536 344.689524 
L 199.464464 344.689524 
L 199.464464 344.386848 
L 177.090536 344.386848 
z
" clip-path="url(#pfeea8157b3)" style="fill: #37539c"/>
   </g>
   <g id="patch_7">
    <path d="M 221.838393 344.689524 
L 244.212321 344.689524 
L 244.212321 344.386848 
L 221.838393 344.386848 
z
" clip-path="url(#pfeea8157b3)" style="fill: #37539c"/>
   </g>
   <g id="patch_8">
    <path d="M 266.58625 344.689524 
L 288.960179 344.689524 
L 288.960179 344.084172 
L 266.58625 344.084172 
z
" clip-path="url(#pfeea8157b3)" style="fill: #37539c"/>
   </g>
   <g id="patch_9">
    <path d="M 311.334107 344.689524 
L 333.708036 344.689524 
L 333.708036 344.386848 
L 311.334107 344.386848 
z
" clip-path="url(#pfeea8157b3)" style="fill: #37539c"/>
   </g>
   <g id="patch_10">
    <path d="M 42.846964 343.478821 
L 65.220893 343.478821 
L 65.220893 341.360091 
L 42.846964 341.360091 
z
" clip-path="url(#pfeea8157b3)" style="fill: #59c3c3"/>
   </g>
   <g id="patch_11">
    <path d="M 87.594821 343.781497 
L 109.96875 343.781497 
L 109.96875 341.057415 
L 87.594821 341.057415 
z
" clip-path="url(#pfeea8157b3)" style="fill: #59c3c3"/>
   </g>
   <g id="patch_12">
    <path d="M 132.342679 344.386848 
L 154.716607 344.386848 
L 154.716607 342.570794 
L 132.342679 342.570794 
z
" clip-path="url(#pfeea8157b3)" style="fill: #59c3c3"/>
   </g>
   <g id="patch_13">
    <path d="M 177.090536 344.386848 
L 199.464464 344.386848 
L 199.464464 342.570794 
L 177.090536 342.570794 
z
" clip-path="url(#pfeea8157b3)" style="fill: #59c3c3"/>
   </g>
   <g id="patch_14">
    <path d="M 221.838393 344.386848 
L 244.212321 344.386848 
L 244.212321 342.268118 
L 221.838393 342.268118 
z
" clip-path="url(#pfeea8157b3)" style="fill: #59c3c3"/>
   </g>
   <g id="patch_15">
    <path d="M 266.58625 344.084172 
L 288.960179 344.084172 
L 288.960179 342.570794 
L 266.58625 342.570794 
z
" clip-path="url(#pfeea8157b3)" style="fill: #59c3c3"/>
   </g>
   <g id="patch_16">
    <path d="M 311.334107 344.386848 
L 333.708036 344.386848 
L 333.708036 341.057415 
L 311.334107 341.057415 
z
" clip-path="url(#pfeea8157b3)" style="fill: #59c3c3"/>
   </g>
   <g id="patch_17">
    <path d="M 42.846964 341.360091 
L 65.220893 341.360091 
L 65.220893 340.754739 
L 42.846964 340.754739 
z
" clip-path="url(#pfeea8157b3)" style="fill: #f45b69"/>
   </g>
   <g id="patch_18">
    <path d="M 87.594821 341.057415 
L 109.96875 341.057415 
L 109.96875 340.452063 
L 87.594821 340.452063 
z
" clip-path="url(#pfeea8157b3)" style="fill: #f45b69"/>
   </g>
   <g id="patch_19">
    <path d="M 132.342679 342.570794 
L 154.716607 342.570794 
L 154.716607 341.662766 
L 132.342679 341.662766 
z
" clip-path="url(#pfeea8157b3)" style="fill: #f45b69"/>
   </g>
   <g id="patch_20">
    <path d="M 177.090536 342.570794 
L 199.464464 342.570794 
L 199.464464 341.965442 
L 177.090536 341.965442 
z
" clip-path="url(#pfeea8157b3)" style="fill: #f45b69"/>
   </g>
   <g id="patch_21">
    <path d="M 221.838393 342.268118 
L 244.212321 342.268118 
L 244.212321 341.662766 
L 221.838393 341.662766 
z
" clip-path="url(#pfeea8157b3)" style="fill: #f45b69"/>
   </g>
   <g id="patch_22">
    <path d="M 266.58625 342.570794 
L 288.960179 342.570794 
L 288.960179 342.268118 
L 266.58625 342.268118 
z
" clip-path="url(#pfeea8157b3)" style="fill: #f45b69"/>
   </g>
   <g id="patch_23">
    <path d="M 311.334107 341.057415 
L 333.708036 341.057415 
L 333.708036 334.701224 
L 311.334107 334.701224 
z
" clip-path="url(#pfeea8157b3)" style="fill: #f45b69"/>
   </g>
   <g id="patch_24">
    <path d="M 42.846964 340.754739 
L 65.220893 340.754739 
L 65.220893 304.130975 
L 42.846964 304.130975 
z
" clip-path="url(#pfeea8157b3)" style="fill: #52489c"/>
   </g>
   <g id="patch_25">
    <path d="M 87.594821 340.452063 
L 109.96875 340.452063 
L 109.96875 298.07746 
L 87.594821 298.07746 
z
" clip-path="url(#pfeea8157b3)" style="fill: #52489c"/>
   </g>
   <g id="patch_26">
    <path d="M 132.342679 341.662766 
L 154.716607 341.662766 
L 154.716607 308.671111 
L 132.342679 308.671111 
z
" clip-path="url(#pfeea8157b3)" style="fill: #52489c"/>
   </g>
   <g id="patch_27">
    <path d="M 177.090536 341.965442 
L 199.464464 341.965442 
L 199.464464 305.644354 
L 177.090536 305.644354 
z
" clip-path="url(#pfeea8157b3)" style="fill: #52489c"/>
   </g>
   <g id="patch_28">
    <path d="M 221.838393 341.662766 
L 244.212321 341.662766 
L 244.212321 303.222948 
L 221.838393 303.222948 
z
" clip-path="url(#pfeea8157b3)" style="fill: #52489c"/>
   </g>
   <g id="patch_29">
    <path d="M 266.58625 342.268118 
L 288.960179 342.268118 
L 288.960179 311.092517 
L 266.58625 311.092517 
z
" clip-path="url(#pfeea8157b3)" style="fill: #52489c"/>
   </g>
   <g id="patch_30">
    <path d="M 311.334107 334.701224 
L 333.708036 334.701224 
L 333.708036 286.878458 
L 311.334107 286.878458 
z
" clip-path="url(#pfeea8157b3)" style="fill: #52489c"/>
   </g>
   <g id="patch_31">
    <path d="M 42.846964 304.130975 
L 65.220893 304.130975 
L 65.220893 42.013787 
L 42.846964 42.013787 
z
" clip-path="url(#pfeea8157b3)" style="fill: #9fb7b9"/>
   </g>
   <g id="patch_32">
    <path d="M 87.594821 298.07746 
L 109.96875 298.07746 
L 109.96875 42.013787 
L 87.594821 42.013787 
z
" clip-path="url(#pfeea8157b3)" style="fill: #9fb7b9"/>
   </g>
   <g id="patch_33">
    <path d="M 132.342679 308.671111 
L 154.716607 308.671111 
L 154.716607 42.316463 
L 132.342679 42.316463 
z
" clip-path="url(#pfeea8157b3)" style="fill: #9fb7b9"/>
   </g>
   <g id="patch_34">
    <path d="M 177.090536 305.644354 
L 199.464464 305.644354 
L 199.464464 42.013787 
L 177.090536 42.013787 
z
" clip-path="url(#pfeea8157b3)" style="fill: #9fb7b9"/>
   </g>
   <g id="patch_35">
    <path d="M 221.838393 303.222948 
L 244.212321 303.222948 
L 244.212321 42.013787 
L 221.838393 42.013787 
z
" clip-path="url(#pfeea8157b3)" style="fill: #9fb7b9"/>
   </g>
   <g id="patch_36">
    <path d="M 266.58625 311.092517 
L 288.960179 311.092517 
L 288.960179 42.013787 
L 266.58625 42.013787 
z
" clip-path="url(#pfeea8157b3)" style="fill: #9fb7b9"/>
   </g>
   <g id="patch_37">
    <path d="M 311.334107 286.878458 
L 333.708036 286.878458 
L 333.708036 42.316463 
L 311.334107 42.316463 
z
" clip-path="url(#pfeea8157b3)" style="fill: #9fb7b9"/>
   </g>
   <g id="patch_38">
    <path d="M 42.846964 344.689524 
L 65.220893 344.689524 
L 65.220893 344.689524 
L 42.846964 344.689524 
z
" clip-path="url(#pfeea8157b3)" style="fill: #ebebeb"/>
   </g>
   <g id="patch_39">
    <path d="M 87.594821 344.689524 
L 109.96875 344.689524 
L 109.96875 344.689524 
L 87.594821 344.689524 
z
" clip-path="url(#pfeea8157b3)" style="fill: #ebebeb"/>
   </g>
   <g id="patch_40">
    <path d="M 132.342679 344.689524 
L 154.716607 344.689524 
L 154.716607 344.689524 
L 132.342679 344.689524 
z
" clip-path="url(#pfeea8157b3)" style="fill: #ebebeb"/>
   </g>
   <g id="patch_41">
    <path d="M 177.090536 344.689524 
L 199.464464 344.689524 
L 199.464464 344.689524 
L 177.090536 344.689524 
z
" clip-path="url(#pfeea8157b3)" style="fill: #ebebeb"/>
   </g>
   <g id="patch_42">
    <path d="M 221.838393 344.689524 
L 244.212321 344.689524 
L 244.212321 344.689524 
L 221.838393 344.689524 
z
" clip-path="url(#pfeea8157b3)" style="fill: #ebebeb"/>
   </g>
   <g id="patch_43">
    <path d="M 266.58625 344.689524 
L 288.960179 344.689524 
L 288.960179 344.689524 
L 266.58625 344.689524 
z
" clip-path="url(#pfeea8157b3)" style="fill: #ebebeb"/>
   </g>
   <g id="patch_44">
    <path d="M 311.334107 344.689524 
L 333.708036 344.689524 
L 333.708036 344.689524 
L 311.334107 344.689524 
z
" clip-path="url(#pfeea8157b3)" style="fill: #ebebeb"/>
   </g>
   <g id="patch_45">
    <path d="M 31.66 344.689524 
L 31.66 26.88 
" style="fill: none; stroke: #000000; stroke-width: 0.8; stroke-linejoin: miter; stroke-linecap: square"/>
   </g>
   <g id="patch_46">
    <path d="M 31.66 344.689524 
L 344.895 344.689524 
" style="fill: none; stroke: #000000; stroke-width: 0.8; stroke-linejoin: miter; stroke-linecap: square"/>
   </g>
   <g id="text_14">
    <!-- ANID -->
    <g style="fill: #37539c" transform="translate(172.83125 20.88) scale(0.12 -0.12)">
     <defs>
      <path id="OpenSans-Bold-41" d="M 3372 0 
L 3041 1088 
L 1375 1088 
L 1044 0 
L 0 0 
L 1613 4588 
L 2797 4588 
L 4416 0 
L 3372 0 
z
M 2809 1900 
L 2478 2963 
Q 2447 3069 2395 3236 
Q 2344 3403 2292 3576 
Q 2241 3750 2209 3878 
Q 2178 3750 2123 3561 
Q 2069 3372 2019 3203 
Q 1969 3034 1947 2963 
L 1619 1900 
L 2809 1900 
z
" transform="scale(0.015625)"/>
      <path id="OpenSans-Bold-4e" d="M 4628 0 
L 3397 0 
L 1409 3456 
L 1381 3456 
Q 1394 3241 1403 3022 
Q 1413 2803 1422 2586 
Q 1431 2369 1441 2150 
L 1441 0 
L 575 0 
L 575 4569 
L 1797 4569 
L 3781 1147 
L 3803 1147 
Q 3797 1359 3787 1568 
Q 3778 1778 3770 1987 
Q 3763 2197 3756 2406 
L 3756 4569 
L 4628 4569 
L 4628 0 
z
" transform="scale(0.015625)"/>
      <path id="OpenSans-Bold-49" d="M 575 0 
L 575 4569 
L 1544 4569 
L 1544 0 
L 575 0 
z
" transform="scale(0.015625)"/>
      <path id="OpenSans-Bold-44" d="M 4366 2328 
Q 4366 1556 4070 1039 
Q 3775 522 3215 261 
Q 2656 0 1869 0 
L 575 0 
L 575 4569 
L 2009 4569 
Q 2728 4569 3256 4314 
Q 3784 4059 4075 3561 
Q 4366 3063 4366 2328 
z
M 3359 2303 
Q 3359 2809 3211 3136 
Q 3063 3463 2773 3619 
Q 2484 3775 2059 3775 
L 1544 3775 
L 1544 800 
L 1959 800 
Q 2669 800 3014 1178 
Q 3359 1556 3359 2303 
z
" transform="scale(0.015625)"/>
     </defs>
     <use xlink:href="#OpenSans-Bold-41"/>
     <use xlink:href="#OpenSans-Bold-4e" x="68.994141"/>
     <use xlink:href="#OpenSans-Bold-49" x="150.292969"/>
     <use xlink:href="#OpenSans-Bold-44" x="183.398438"/>
    </g>
   </g>
  </g>
  <g id="axes_2">
   <g id="patch_47">
    <path d="M 376.555 344.689524 
L 689.79 344.689524 
L 689.79 26.88 
L 376.555 26.88 
z
" style="fill: #ffffff"/>
   </g>
   <g id="matplotlib.axis_3">
    <g id="xtick_8">
     <g id="line2d_20">
      <g>
       <use xlink:href="#m0675263a6b" x="398.928929" y="344.689524" style="fill: #37539c; stroke: #37539c; stroke-width: 0.8"/>
      </g>
     </g>
     <g id="text_15">
      <!-- 2015 -->
      <g style="fill: #37539c" transform="translate(389.781429 357.768274) scale(0.08 -0.08)">
       <use xlink:href="#OpenSans-Bold-32"/>
       <use xlink:href="#OpenSans-Bold-30" x="57.177734"/>
       <use xlink:href="#OpenSans-Bold-31" x="114.355469"/>
       <use xlink:href="#OpenSans-Bold-35" x="171.533203"/>
      </g>
     </g>
    </g>
    <g id="xtick_9">
     <g id="line2d_21">
      <g>
       <use xlink:href="#m0675263a6b" x="443.676786" y="344.689524" style="fill: #37539c; stroke: #37539c; stroke-width: 0.8"/>
      </g>
     </g>
     <g id="text_16">
      <!-- 2016 -->
      <g style="fill: #37539c" transform="translate(434.529286 357.768274) scale(0.08 -0.08)">
       <use xlink:href="#OpenSans-Bold-32"/>
       <use xlink:href="#OpenSans-Bold-30" x="57.177734"/>
       <use xlink:href="#OpenSans-Bold-31" x="114.355469"/>
       <use xlink:href="#OpenSans-Bold-36" x="171.533203"/>
      </g>
     </g>
    </g>
    <g id="xtick_10">
     <g id="line2d_22">
      <g>
       <use xlink:href="#m0675263a6b" x="488.424643" y="344.689524" style="fill: #37539c; stroke: #37539c; stroke-width: 0.8"/>
      </g>
     </g>
     <g id="text_17">
      <!-- 2017 -->
      <g style="fill: #37539c" transform="translate(479.277143 357.768274) scale(0.08 -0.08)">
       <use xlink:href="#OpenSans-Bold-32"/>
       <use xlink:href="#OpenSans-Bold-30" x="57.177734"/>
       <use xlink:href="#OpenSans-Bold-31" x="114.355469"/>
       <use xlink:href="#OpenSans-Bold-37" x="171.533203"/>
      </g>
     </g>
    </g>
    <g id="xtick_11">
     <g id="line2d_23">
      <g>
       <use xlink:href="#m0675263a6b" x="533.1725" y="344.689524" style="fill: #37539c; stroke: #37539c; stroke-width: 0.8"/>
      </g>
     </g>
     <g id="text_18">
      <!-- 2018 -->
      <g style="fill: #37539c" transform="translate(524.025 357.768274) scale(0.08 -0.08)">
       <use xlink:href="#OpenSans-Bold-32"/>
       <use xlink:href="#OpenSans-Bold-30" x="57.177734"/>
       <use xlink:href="#OpenSans-Bold-31" x="114.355469"/>
       <use xlink:href="#OpenSans-Bold-38" x="171.533203"/>
      </g>
     </g>
    </g>
    <g id="xtick_12">
     <g id="line2d_24">
      <g>
       <use xlink:href="#m0675263a6b" x="577.920357" y="344.689524" style="fill: #37539c; stroke: #37539c; stroke-width: 0.8"/>
      </g>
     </g>
     <g id="text_19">
      <!-- 2019 -->
      <g style="fill: #37539c" transform="translate(568.772857 357.768274) scale(0.08 -0.08)">
       <use xlink:href="#OpenSans-Bold-32"/>
       <use xlink:href="#OpenSans-Bold-30" x="57.177734"/>
       <use xlink:href="#OpenSans-Bold-31" x="114.355469"/>
       <use xlink:href="#OpenSans-Bold-39" x="171.533203"/>
      </g>
     </g>
    </g>
    <g id="xtick_13">
     <g id="line2d_25">
      <g>
       <use xlink:href="#m0675263a6b" x="622.668214" y="344.689524" style="fill: #37539c; stroke: #37539c; stroke-width: 0.8"/>
      </g>
     </g>
     <g id="text_20">
      <!-- 2020 -->
      <g style="fill: #37539c" transform="translate(613.520714 357.768274) scale(0.08 -0.08)">
       <use xlink:href="#OpenSans-Bold-32"/>
       <use xlink:href="#OpenSans-Bold-30" x="57.177734"/>
       <use xlink:href="#OpenSans-Bold-32" x="114.355469"/>
       <use xlink:href="#OpenSans-Bold-30" x="171.533203"/>
      </g>
     </g>
    </g>
    <g id="xtick_14">
     <g id="line2d_26">
      <g>
       <use xlink:href="#m0675263a6b" x="667.416071" y="344.689524" style="fill: #37539c; stroke: #37539c; stroke-width: 0.8"/>
      </g>
     </g>
     <g id="text_21">
      <!-- 2021 -->
      <g style="fill: #37539c" transform="translate(658.268571 357.768274) scale(0.08 -0.08)">
       <use xlink:href="#OpenSans-Bold-32"/>
       <use xlink:href="#OpenSans-Bold-30" x="57.177734"/>
       <use xlink:href="#OpenSans-Bold-32" x="114.355469"/>
       <use xlink:href="#OpenSans-Bold-31" x="171.533203"/>
      </g>
     </g>
    </g>
   </g>
   <g id="matplotlib.axis_4">
    <g id="ytick_7">
     <g id="line2d_27">
      <path d="M 376.555 344.689524 
L 689.79 344.689524 
" clip-path="url(#p01b116ee06)" style="fill: none; stroke-dasharray: 2.96,1.28; stroke-dashoffset: 0; stroke: #b0b0b0; stroke-width: 0.8"/>
     </g>
     <g id="line2d_28">
      <g>
       <use xlink:href="#m0b222cc6f0" x="376.555" y="344.689524" style="fill: #37539c; stroke: #37539c; stroke-width: 0.8"/>
      </g>
     </g>
     <g id="text_22">
      <!-- 0 -->
      <g style="fill: #37539c" transform="translate(364.98125 347.728899) scale(0.08 -0.08)">
       <use xlink:href="#OpenSans-Bold-30"/>
      </g>
     </g>
    </g>
    <g id="ytick_8">
     <g id="line2d_29">
      <path d="M 376.555 284.214851 
L 689.79 284.214851 
" clip-path="url(#p01b116ee06)" style="fill: none; stroke-dasharray: 2.96,1.28; stroke-dashoffset: 0; stroke: #b0b0b0; stroke-width: 0.8"/>
     </g>
     <g id="line2d_30">
      <g>
       <use xlink:href="#m0b222cc6f0" x="376.555" y="284.214851" style="fill: #37539c; stroke: #37539c; stroke-width: 0.8"/>
      </g>
     </g>
     <g id="text_23">
      <!-- 20 -->
      <g style="fill: #37539c" transform="translate(360.4075 287.254226) scale(0.08 -0.08)">
       <use xlink:href="#OpenSans-Bold-32"/>
       <use xlink:href="#OpenSans-Bold-30" x="57.177734"/>
      </g>
     </g>
    </g>
    <g id="ytick_9">
     <g id="line2d_31">
      <path d="M 376.555 223.740178 
L 689.79 223.740178 
" clip-path="url(#p01b116ee06)" style="fill: none; stroke-dasharray: 2.96,1.28; stroke-dashoffset: 0; stroke: #b0b0b0; stroke-width: 0.8"/>
     </g>
     <g id="line2d_32">
      <g>
       <use xlink:href="#m0b222cc6f0" x="376.555" y="223.740178" style="fill: #37539c; stroke: #37539c; stroke-width: 0.8"/>
      </g>
     </g>
     <g id="text_24">
      <!-- 40 -->
      <g style="fill: #37539c" transform="translate(360.4075 226.779553) scale(0.08 -0.08)">
       <use xlink:href="#OpenSans-Bold-34"/>
       <use xlink:href="#OpenSans-Bold-30" x="57.177734"/>
      </g>
     </g>
    </g>
    <g id="ytick_10">
     <g id="line2d_33">
      <path d="M 376.555 163.265506 
L 689.79 163.265506 
" clip-path="url(#p01b116ee06)" style="fill: none; stroke-dasharray: 2.96,1.28; stroke-dashoffset: 0; stroke: #b0b0b0; stroke-width: 0.8"/>
     </g>
     <g id="line2d_34">
      <g>
       <use xlink:href="#m0b222cc6f0" x="376.555" y="163.265506" style="fill: #37539c; stroke: #37539c; stroke-width: 0.8"/>
      </g>
     </g>
     <g id="text_25">
      <!-- 60 -->
      <g style="fill: #37539c" transform="translate(360.4075 166.304881) scale(0.08 -0.08)">
       <use xlink:href="#OpenSans-Bold-36"/>
       <use xlink:href="#OpenSans-Bold-30" x="57.177734"/>
      </g>
     </g>
    </g>
    <g id="ytick_11">
     <g id="line2d_35">
      <path d="M 376.555 102.790833 
L 689.79 102.790833 
" clip-path="url(#p01b116ee06)" style="fill: none; stroke-dasharray: 2.96,1.28; stroke-dashoffset: 0; stroke: #b0b0b0; stroke-width: 0.8"/>
     </g>
     <g id="line2d_36">
      <g>
       <use xlink:href="#m0b222cc6f0" x="376.555" y="102.790833" style="fill: #37539c; stroke: #37539c; stroke-width: 0.8"/>
      </g>
     </g>
     <g id="text_26">
      <!-- 80 -->
      <g style="fill: #37539c" transform="translate(360.4075 105.830208) scale(0.08 -0.08)">
       <use xlink:href="#OpenSans-Bold-38"/>
       <use xlink:href="#OpenSans-Bold-30" x="57.177734"/>
      </g>
     </g>
    </g>
    <g id="ytick_12">
     <g id="line2d_37">
      <path d="M 376.555 42.31616 
L 689.79 42.31616 
" clip-path="url(#p01b116ee06)" style="fill: none; stroke-dasharray: 2.96,1.28; stroke-dashoffset: 0; stroke: #b0b0b0; stroke-width: 0.8"/>
     </g>
     <g id="line2d_38">
      <g>
       <use xlink:href="#m0b222cc6f0" x="376.555" y="42.31616" style="fill: #37539c; stroke: #37539c; stroke-width: 0.8"/>
      </g>
     </g>
     <g id="text_27">
      <!-- 100 -->
      <g style="fill: #37539c" transform="translate(355.83375 45.355535) scale(0.08 -0.08)">
       <use xlink:href="#OpenSans-Bold-31"/>
       <use xlink:href="#OpenSans-Bold-30" x="57.177734"/>
       <use xlink:href="#OpenSans-Bold-30" x="114.355469"/>
      </g>
     </g>
    </g>
   </g>
   <g id="patch_48">
    <path d="M 387.741964 344.689524 
L 410.115893 344.689524 
L 410.115893 344.689524 
L 387.741964 344.689524 
z
" clip-path="url(#p01b116ee06)" style="fill: #37539c"/>
   </g>
   <g id="patch_49">
    <path d="M 432.489821 344.689524 
L 454.86375 344.689524 
L 454.86375 344.689524 
L 432.489821 344.689524 
z
" clip-path="url(#p01b116ee06)" style="fill: #37539c"/>
   </g>
   <g id="patch_50">
    <path d="M 477.237679 344.689524 
L 499.611607 344.689524 
L 499.611607 344.689524 
L 477.237679 344.689524 
z
" clip-path="url(#p01b116ee06)" style="fill: #37539c"/>
   </g>
   <g id="patch_51">
    <path d="M 521.985536 344.689524 
L 544.359464 344.689524 
L 544.359464 344.689524 
L 521.985536 344.689524 
z
" clip-path="url(#p01b116ee06)" style="fill: #37539c"/>
   </g>
   <g id="patch_52">
    <path d="M 566.733393 344.689524 
L 589.107321 344.689524 
L 589.107321 344.689524 
L 566.733393 344.689524 
z
" clip-path="url(#p01b116ee06)" style="fill: #37539c"/>
   </g>
   <g id="patch_53">
    <path d="M 611.48125 344.689524 
L 633.855179 344.689524 
L 633.855179 344.689524 
L 611.48125 344.689524 
z
" clip-path="url(#p01b116ee06)" style="fill: #37539c"/>
   </g>
   <g id="patch_54">
    <path d="M 656.229107 344.689524 
L 678.603036 344.689524 
L 678.603036 344.689524 
L 656.229107 344.689524 
z
" clip-path="url(#p01b116ee06)" style="fill: #37539c"/>
   </g>
   <g id="patch_55">
    <path d="M 387.741964 344.689524 
L 410.115893 344.689524 
L 410.115893 315.661681 
L 387.741964 315.661681 
z
" clip-path="url(#p01b116ee06)" style="fill: #59c3c3"/>
   </g>
   <g id="patch_56">
    <path d="M 432.489821 344.689524 
L 454.86375 344.689524 
L 454.86375 318.383041 
L 432.489821 318.383041 
z
" clip-path="url(#p01b116ee06)" style="fill: #59c3c3"/>
   </g>
   <g id="patch_57">
    <path d="M 477.237679 344.689524 
L 499.611607 344.689524 
L 499.611607 325.942375 
L 477.237679 325.942375 
z
" clip-path="url(#p01b116ee06)" style="fill: #59c3c3"/>
   </g>
   <g id="patch_58">
    <path d="M 521.985536 344.689524 
L 544.359464 344.689524 
L 544.359464 310.21896 
L 521.985536 310.21896 
z
" clip-path="url(#p01b116ee06)" style="fill: #59c3c3"/>
   </g>
   <g id="patch_59">
    <path d="M 566.733393 344.689524 
L 589.107321 344.689524 
L 589.107321 312.940321 
L 566.733393 312.940321 
z
" clip-path="url(#p01b116ee06)" style="fill: #59c3c3"/>
   </g>
   <g id="patch_60">
    <path d="M 611.48125 344.689524 
L 633.855179 344.689524 
L 633.855179 341.061043 
L 611.48125 341.061043 
z
" clip-path="url(#p01b116ee06)" style="fill: #59c3c3"/>
   </g>
   <g id="patch_61">
    <path d="M 656.229107 344.689524 
L 678.603036 344.689524 
L 678.603036 344.38715 
L 656.229107 344.38715 
z
" clip-path="url(#p01b116ee06)" style="fill: #59c3c3"/>
   </g>
   <g id="patch_62">
    <path d="M 387.741964 315.661681 
L 410.115893 315.661681 
L 410.115893 81.322324 
L 387.741964 81.322324 
z
" clip-path="url(#p01b116ee06)" style="fill: #f45b69"/>
   </g>
   <g id="patch_63">
    <path d="M 432.489821 318.383041 
L 454.86375 318.383041 
L 454.86375 84.648431 
L 432.489821 84.648431 
z
" clip-path="url(#p01b116ee06)" style="fill: #f45b69"/>
   </g>
   <g id="patch_64">
    <path d="M 477.237679 325.942375 
L 499.611607 325.942375 
L 499.611607 70.436883 
L 477.237679 70.436883 
z
" clip-path="url(#p01b116ee06)" style="fill: #f45b69"/>
   </g>
   <g id="patch_65">
    <path d="M 521.985536 310.21896 
L 544.359464 310.21896 
L 544.359464 73.76299 
L 521.985536 73.76299 
z
" clip-path="url(#p01b116ee06)" style="fill: #f45b69"/>
   </g>
   <g id="patch_66">
    <path d="M 566.733393 312.940321 
L 589.107321 312.940321 
L 589.107321 66.506029 
L 566.733393 66.506029 
z
" clip-path="url(#p01b116ee06)" style="fill: #f45b69"/>
   </g>
   <g id="patch_67">
    <path d="M 611.48125 341.061043 
L 633.855179 341.061043 
L 633.855179 64.691789 
L 611.48125 64.691789 
z
" clip-path="url(#p01b116ee06)" style="fill: #f45b69"/>
   </g>
   <g id="patch_68">
    <path d="M 656.229107 344.38715 
L 678.603036 344.38715 
L 678.603036 65.598909 
L 656.229107 65.598909 
z
" clip-path="url(#p01b116ee06)" style="fill: #f45b69"/>
   </g>
   <g id="patch_69">
    <path d="M 387.741964 81.322324 
L 410.115893 81.322324 
L 410.115893 54.411095 
L 387.741964 54.411095 
z
" clip-path="url(#p01b116ee06)" style="fill: #52489c"/>
   </g>
   <g id="patch_70">
    <path d="M 432.489821 84.648431 
L 454.86375 84.648431 
L 454.86375 56.225335 
L 432.489821 56.225335 
z
" clip-path="url(#p01b116ee06)" style="fill: #52489c"/>
   </g>
   <g id="patch_71">
    <path d="M 477.237679 70.436883 
L 499.611607 70.436883 
L 499.611607 52.899228 
L 477.237679 52.899228 
z
" clip-path="url(#p01b116ee06)" style="fill: #52489c"/>
   </g>
   <g id="patch_72">
    <path d="M 521.985536 73.76299 
L 544.359464 73.76299 
L 544.359464 52.596855 
L 521.985536 52.596855 
z
" clip-path="url(#p01b116ee06)" style="fill: #52489c"/>
   </g>
   <g id="patch_73">
    <path d="M 566.733393 66.506029 
L 589.107321 66.506029 
L 589.107321 53.806348 
L 566.733393 53.806348 
z
" clip-path="url(#p01b116ee06)" style="fill: #52489c"/>
   </g>
   <g id="patch_74">
    <path d="M 611.48125 344.689524 
L 633.855179 344.689524 
L 633.855179 344.689524 
L 611.48125 344.689524 
z
" clip-path="url(#p01b116ee06)" style="fill: #52489c"/>
   </g>
   <g id="patch_75">
    <path d="M 656.229107 65.598909 
L 678.603036 65.598909 
L 678.603036 61.063309 
L 656.229107 61.063309 
z
" clip-path="url(#p01b116ee06)" style="fill: #52489c"/>
   </g>
   <g id="patch_76">
    <path d="M 387.741964 54.411095 
L 410.115893 54.411095 
L 410.115893 42.618534 
L 387.741964 42.618534 
z
" clip-path="url(#p01b116ee06)" style="fill: #9fb7b9"/>
   </g>
   <g id="patch_77">
    <path d="M 432.489821 56.225335 
L 454.86375 56.225335 
L 454.86375 42.31616 
L 432.489821 42.31616 
z
" clip-path="url(#p01b116ee06)" style="fill: #9fb7b9"/>
   </g>
   <g id="patch_78">
    <path d="M 477.237679 52.899228 
L 499.611607 52.899228 
L 499.611607 42.013787 
L 477.237679 42.013787 
z
" clip-path="url(#p01b116ee06)" style="fill: #9fb7b9"/>
   </g>
   <g id="patch_79">
    <path d="M 521.985536 52.596855 
L 544.359464 52.596855 
L 544.359464 42.31616 
L 521.985536 42.31616 
z
" clip-path="url(#p01b116ee06)" style="fill: #9fb7b9"/>
   </g>
   <g id="patch_80">
    <path d="M 566.733393 53.806348 
L 589.107321 53.806348 
L 589.107321 42.31616 
L 566.733393 42.31616 
z
" clip-path="url(#p01b116ee06)" style="fill: #9fb7b9"/>
   </g>
   <g id="patch_81">
    <path d="M 611.48125 64.691789 
L 633.855179 64.691789 
L 633.855179 42.31616 
L 611.48125 42.31616 
z
" clip-path="url(#p01b116ee06)" style="fill: #9fb7b9"/>
   </g>
   <g id="patch_82">
    <path d="M 656.229107 61.063309 
L 678.603036 61.063309 
L 678.603036 50.480241 
L 656.229107 50.480241 
z
" clip-path="url(#p01b116ee06)" style="fill: #9fb7b9"/>
   </g>
   <g id="patch_83">
    <path d="M 387.741964 344.689524 
L 410.115893 344.689524 
L 410.115893 344.689524 
L 387.741964 344.689524 
z
" clip-path="url(#p01b116ee06)" style="fill: #ebebeb"/>
   </g>
   <g id="patch_84">
    <path d="M 432.489821 344.689524 
L 454.86375 344.689524 
L 454.86375 344.689524 
L 432.489821 344.689524 
z
" clip-path="url(#p01b116ee06)" style="fill: #ebebeb"/>
   </g>
   <g id="patch_85">
    <path d="M 477.237679 344.689524 
L 499.611607 344.689524 
L 499.611607 344.689524 
L 477.237679 344.689524 
z
" clip-path="url(#p01b116ee06)" style="fill: #ebebeb"/>
   </g>
   <g id="patch_86">
    <path d="M 521.985536 344.689524 
L 544.359464 344.689524 
L 544.359464 344.689524 
L 521.985536 344.689524 
z
" clip-path="url(#p01b116ee06)" style="fill: #ebebeb"/>
   </g>
   <g id="patch_87">
    <path d="M 566.733393 344.689524 
L 589.107321 344.689524 
L 589.107321 344.689524 
L 566.733393 344.689524 
z
" clip-path="url(#p01b116ee06)" style="fill: #ebebeb"/>
   </g>
   <g id="patch_88">
    <path d="M 611.48125 344.689524 
L 633.855179 344.689524 
L 633.855179 344.689524 
L 611.48125 344.689524 
z
" clip-path="url(#p01b116ee06)" style="fill: #ebebeb"/>
   </g>
   <g id="patch_89">
    <path d="M 656.229107 50.480241 
L 678.603036 50.480241 
L 678.603036 42.31616 
L 656.229107 42.31616 
z
" clip-path="url(#p01b116ee06)" style="fill: #ebebeb"/>
   </g>
   <g id="patch_90">
    <path d="M 376.555 344.689524 
L 376.555 26.88 
" style="fill: none; stroke: #000000; stroke-width: 0.8; stroke-linejoin: miter; stroke-linecap: square"/>
   </g>
   <g id="patch_91">
    <path d="M 376.555 344.689524 
L 689.79 344.689524 
" style="fill: none; stroke: #000000; stroke-width: 0.8; stroke-linejoin: miter; stroke-linecap: square"/>
   </g>
   <g id="text_28">
    <!-- CORFO -->
    <g style="fill: #37539c" transform="translate(512.54375 20.88) scale(0.12 -0.12)">
     <defs>
      <path id="OpenSans-Bold-43" d="M 2516 3828 
Q 2238 3828 2023 3720 
Q 1809 3613 1664 3409 
Q 1519 3206 1444 2918 
Q 1369 2631 1369 2272 
Q 1369 1788 1489 1445 
Q 1609 1103 1862 923 
Q 2116 744 2516 744 
Q 2794 744 3073 806 
Q 3353 869 3681 984 
L 3681 172 
Q 3378 47 3084 -8 
Q 2791 -63 2425 -63 
Q 1719 -63 1264 229 
Q 809 522 590 1048 
Q 372 1575 372 2278 
Q 372 2797 512 3228 
Q 653 3659 925 3975 
Q 1197 4291 1597 4462 
Q 1997 4634 2516 4634 
Q 2856 4634 3198 4548 
Q 3541 4463 3853 4313 
L 3541 3525 
Q 3284 3647 3025 3737 
Q 2766 3828 2516 3828 
z
" transform="scale(0.015625)"/>
      <path id="OpenSans-Bold-4f" d="M 4722 2291 
Q 4722 1763 4590 1330 
Q 4459 897 4192 584 
Q 3925 272 3515 104 
Q 3106 -63 2547 -63 
Q 1988 -63 1578 104 
Q 1169 272 901 584 
Q 634 897 503 1331 
Q 372 1766 372 2297 
Q 372 3006 605 3532 
Q 838 4059 1322 4350 
Q 1806 4641 2553 4641 
Q 3297 4641 3776 4350 
Q 4256 4059 4489 3531 
Q 4722 3003 4722 2291 
z
M 1388 2291 
Q 1388 1813 1508 1467 
Q 1628 1122 1884 936 
Q 2141 750 2547 750 
Q 2959 750 3215 936 
Q 3472 1122 3589 1467 
Q 3706 1813 3706 2291 
Q 3706 3009 3437 3421 
Q 3169 3834 2553 3834 
Q 2144 3834 1886 3648 
Q 1628 3463 1508 3117 
Q 1388 2772 1388 2291 
z
" transform="scale(0.015625)"/>
      <path id="OpenSans-Bold-52" d="M 1906 4569 
Q 2528 4569 2933 4419 
Q 3338 4269 3534 3966 
Q 3731 3663 3731 3200 
Q 3731 2888 3612 2653 
Q 3494 2419 3300 2256 
Q 3106 2094 2881 1991 
L 4225 0 
L 3150 0 
L 2059 1753 
L 1544 1753 
L 1544 0 
L 575 0 
L 575 4569 
L 1906 4569 
z
M 1838 3775 
L 1544 3775 
L 1544 2541 
L 1856 2541 
Q 2338 2541 2545 2702 
Q 2753 2863 2753 3175 
Q 2753 3500 2529 3637 
Q 2306 3775 1838 3775 
z
" transform="scale(0.015625)"/>
      <path id="OpenSans-Bold-46" d="M 1528 0 
L 575 0 
L 575 4569 
L 3194 4569 
L 3194 3775 
L 1528 3775 
L 1528 2597 
L 3078 2597 
L 3078 1806 
L 1528 1806 
L 1528 0 
z
" transform="scale(0.015625)"/>
     </defs>
     <use xlink:href="#OpenSans-Bold-43"/>
     <use xlink:href="#OpenSans-Bold-4f" x="63.720703"/>
     <use xlink:href="#OpenSans-Bold-52" x="143.310547"/>
     <use xlink:href="#OpenSans-Bold-46" x="209.326172"/>
     <use xlink:href="#OpenSans-Bold-4f" x="264.208984"/>
    </g>
   </g>
   <g id="legend_1">
    <g id="patch_92">
     <path d="M 698.19 430.594821 
L 851.000625 430.594821 
Q 853.400625 430.594821 853.400625 428.194821 
L 853.400625 321.308571 
Q 853.400625 318.908571 851.000625 318.908571 
L 698.19 318.908571 
Q 695.79 318.908571 695.79 321.308571 
L 695.79 428.194821 
Q 695.79 430.594821 698.19 430.594821 
z
" style="fill: #ffffff; opacity: 0.8; stroke: #cccccc; stroke-linejoin: miter"/>
    </g>
    <g id="patch_93">
     <path d="M 700.59 332.826696 
L 724.59 332.826696 
L 724.59 324.426696 
L 700.59 324.426696 
z
" style="fill: #37539c"/>
    </g>
    <g id="text_29">
     <!-- Estado -->
     <g style="fill: #37539c" transform="translate(734.19 332.826696) scale(0.12 -0.12)">
      <defs>
       <path id="OpenSans-Bold-45" d="M 3206 0 
L 575 0 
L 575 4569 
L 3206 4569 
L 3206 3775 
L 1544 3775 
L 1544 2772 
L 3091 2772 
L 3091 1978 
L 1544 1978 
L 1544 800 
L 3206 800 
L 3206 0 
z
" transform="scale(0.015625)"/>
       <path id="OpenSans-Bold-73" d="M 2938 1038 
Q 2938 681 2770 436 
Q 2603 191 2272 64 
Q 1941 -63 1447 -63 
Q 1081 -63 820 -16 
Q 559 31 294 141 
L 294 928 
Q 578 800 904 717 
Q 1231 634 1478 634 
Q 1756 634 1876 717 
Q 1997 800 1997 934 
Q 1997 1022 1948 1092 
Q 1900 1163 1740 1252 
Q 1581 1341 1241 1484 
Q 913 1622 702 1762 
Q 491 1903 389 2095 
Q 288 2288 288 2584 
Q 288 3069 664 3314 
Q 1041 3559 1672 3559 
Q 1997 3559 2292 3493 
Q 2588 3428 2900 3284 
L 2613 2597 
Q 2353 2709 2123 2781 
Q 1894 2853 1656 2853 
Q 1447 2853 1340 2797 
Q 1234 2741 1234 2625 
Q 1234 2541 1289 2475 
Q 1344 2409 1501 2329 
Q 1659 2250 1966 2125 
Q 2263 2003 2481 1870 
Q 2700 1738 2819 1542 
Q 2938 1347 2938 1038 
z
" transform="scale(0.015625)"/>
       <path id="OpenSans-Bold-74" d="M 1972 697 
Q 2128 697 2276 728 
Q 2425 759 2572 806 
L 2572 97 
Q 2419 28 2192 -17 
Q 1966 -63 1697 -63 
Q 1384 -63 1136 39 
Q 888 141 745 392 
Q 603 644 603 1094 
L 603 2778 
L 147 2778 
L 147 3181 
L 672 3500 
L 947 4238 
L 1556 4238 
L 1556 3494 
L 2534 3494 
L 2534 2778 
L 1556 2778 
L 1556 1094 
Q 1556 894 1670 795 
Q 1784 697 1972 697 
z
" transform="scale(0.015625)"/>
       <path id="OpenSans-Bold-61" d="M 1931 3566 
Q 2634 3566 3009 3259 
Q 3384 2953 3384 2328 
L 3384 0 
L 2719 0 
L 2534 475 
L 2509 475 
Q 2359 288 2203 169 
Q 2047 50 1844 -6 
Q 1641 -63 1350 -63 
Q 1041 -63 795 56 
Q 550 175 409 420 
Q 269 666 269 1044 
Q 269 1600 659 1864 
Q 1050 2128 1831 2156 
L 2438 2175 
L 2438 2328 
Q 2438 2603 2294 2731 
Q 2150 2859 1894 2859 
Q 1641 2859 1397 2787 
Q 1153 2716 909 2606 
L 594 3250 
Q 872 3397 1217 3481 
Q 1563 3566 1931 3566 
z
M 2438 1619 
L 2069 1606 
Q 1606 1594 1426 1441 
Q 1247 1288 1247 1038 
Q 1247 819 1375 726 
Q 1503 634 1709 634 
Q 2016 634 2227 815 
Q 2438 997 2438 1331 
L 2438 1619 
z
" transform="scale(0.015625)"/>
       <path id="OpenSans-Bold-64" d="M 1606 -63 
Q 1022 -63 655 395 
Q 288 853 288 1741 
Q 288 2638 659 3098 
Q 1031 3559 1631 3559 
Q 1881 3559 2072 3490 
Q 2263 3422 2402 3306 
Q 2541 3191 2638 3047 
L 2669 3047 
Q 2650 3147 2623 3342 
Q 2597 3538 2597 3744 
L 2597 4863 
L 3553 4863 
L 3553 0 
L 2822 0 
L 2638 453 
L 2597 453 
Q 2506 309 2370 192 
Q 2234 75 2046 6 
Q 1859 -63 1606 -63 
z
M 1941 697 
Q 2331 697 2492 930 
Q 2653 1163 2663 1631 
L 2663 1734 
Q 2663 2244 2506 2514 
Q 2350 2784 1925 2784 
Q 1609 2784 1431 2512 
Q 1253 2241 1253 1728 
Q 1253 1216 1433 956 
Q 1613 697 1941 697 
z
" transform="scale(0.015625)"/>
       <path id="OpenSans-Bold-6f" d="M 3675 1753 
Q 3675 1316 3558 978 
Q 3441 641 3217 408 
Q 2994 175 2680 56 
Q 2366 -63 1972 -63 
Q 1603 -63 1295 56 
Q 988 175 761 408 
Q 534 641 411 978 
Q 288 1316 288 1753 
Q 288 2334 494 2737 
Q 700 3141 1081 3350 
Q 1463 3559 1991 3559 
Q 2481 3559 2861 3350 
Q 3241 3141 3458 2737 
Q 3675 2334 3675 1753 
z
M 1259 1753 
Q 1259 1409 1334 1175 
Q 1409 941 1568 822 
Q 1728 703 1984 703 
Q 2238 703 2395 822 
Q 2553 941 2626 1175 
Q 2700 1409 2700 1753 
Q 2700 2100 2626 2329 
Q 2553 2559 2393 2675 
Q 2234 2791 1978 2791 
Q 1600 2791 1429 2531 
Q 1259 2272 1259 1753 
z
" transform="scale(0.015625)"/>
      </defs>
      <use xlink:href="#OpenSans-Bold-45"/>
      <use xlink:href="#OpenSans-Bold-73" x="56.005859"/>
      <use xlink:href="#OpenSans-Bold-74" x="105.712891"/>
      <use xlink:href="#OpenSans-Bold-61" x="149.121094"/>
      <use xlink:href="#OpenSans-Bold-64" x="209.521484"/>
      <use xlink:href="#OpenSans-Bold-6f" x="272.802734"/>
     </g>
    </g>
    <g id="patch_94">
     <path d="M 700.59 350.828571 
L 724.59 350.828571 
L 724.59 342.428571 
L 700.59 342.428571 
z
" style="fill: #59c3c3"/>
    </g>
    <g id="text_30">
     <!-- Otro -->
     <g style="fill: #37539c" transform="translate(734.19 350.828571) scale(0.12 -0.12)">
      <defs>
       <path id="OpenSans-Bold-72" d="M 2450 3559 
Q 2522 3559 2617 3551 
Q 2713 3544 2772 3531 
L 2700 2638 
Q 2653 2653 2567 2661 
Q 2481 2669 2419 2669 
Q 2234 2669 2061 2622 
Q 1888 2575 1750 2470 
Q 1613 2366 1533 2195 
Q 1453 2025 1453 1778 
L 1453 0 
L 500 0 
L 500 3494 
L 1222 3494 
L 1363 2906 
L 1409 2906 
Q 1513 3084 1667 3232 
Q 1822 3381 2020 3470 
Q 2219 3559 2450 3559 
z
" transform="scale(0.015625)"/>
      </defs>
      <use xlink:href="#OpenSans-Bold-4f"/>
      <use xlink:href="#OpenSans-Bold-74" x="79.589844"/>
      <use xlink:href="#OpenSans-Bold-72" x="122.998047"/>
      <use xlink:href="#OpenSans-Bold-6f" x="168.408203"/>
     </g>
    </g>
    <g id="patch_95">
     <path d="M 700.59 368.830446 
L 724.59 368.830446 
L 724.59 360.430446 
L 700.59 360.430446 
z
" style="fill: #f45b69"/>
    </g>
    <g id="text_31">
     <!-- Empresa -->
     <g style="fill: #37539c" transform="translate(734.19 368.830446) scale(0.12 -0.12)">
      <defs>
       <path id="OpenSans-Bold-6d" d="M 4603 3559 
Q 5197 3559 5501 3254 
Q 5806 2950 5806 2278 
L 5806 0 
L 4850 0 
L 4850 2041 
Q 4850 2416 4722 2606 
Q 4594 2797 4325 2797 
Q 3947 2797 3787 2526 
Q 3628 2256 3628 1753 
L 3628 0 
L 2675 0 
L 2675 2041 
Q 2675 2291 2619 2459 
Q 2563 2628 2447 2712 
Q 2331 2797 2150 2797 
Q 1884 2797 1732 2664 
Q 1581 2531 1517 2273 
Q 1453 2016 1453 1644 
L 1453 0 
L 500 0 
L 500 3494 
L 1228 3494 
L 1356 3047 
L 1409 3047 
Q 1516 3228 1677 3340 
Q 1838 3453 2031 3506 
Q 2225 3559 2425 3559 
Q 2809 3559 3076 3434 
Q 3344 3309 3488 3047 
L 3572 3047 
Q 3728 3316 4014 3437 
Q 4300 3559 4603 3559 
z
" transform="scale(0.015625)"/>
       <path id="OpenSans-Bold-70" d="M 2444 3559 
Q 3034 3559 3398 3100 
Q 3763 2641 3763 1753 
Q 3763 1159 3591 754 
Q 3419 350 3116 143 
Q 2813 -63 2419 -63 
Q 2166 -63 1984 1 
Q 1803 66 1675 167 
Q 1547 269 1453 384 
L 1403 384 
Q 1428 259 1440 128 
Q 1453 -3 1453 -128 
L 1453 -1538 
L 500 -1538 
L 500 3494 
L 1275 3494 
L 1409 3041 
L 1453 3041 
Q 1547 3181 1681 3300 
Q 1816 3419 2005 3489 
Q 2194 3559 2444 3559 
z
M 2138 2797 
Q 1888 2797 1741 2694 
Q 1594 2591 1526 2384 
Q 1459 2178 1453 1863 
L 1453 1759 
Q 1453 1422 1517 1187 
Q 1581 953 1732 831 
Q 1884 709 2150 709 
Q 2369 709 2509 831 
Q 2650 953 2720 1189 
Q 2791 1425 2791 1766 
Q 2791 2278 2631 2537 
Q 2472 2797 2138 2797 
z
" transform="scale(0.015625)"/>
       <path id="OpenSans-Bold-65" d="M 1941 3559 
Q 2425 3559 2775 3373 
Q 3125 3188 3315 2834 
Q 3506 2481 3506 1972 
L 3506 1509 
L 1253 1509 
Q 1269 1106 1495 876 
Q 1722 647 2125 647 
Q 2459 647 2737 715 
Q 3016 784 3309 922 
L 3309 184 
Q 3050 56 2767 -3 
Q 2484 -63 2081 -63 
Q 1556 -63 1151 131 
Q 747 325 517 722 
Q 288 1119 288 1722 
Q 288 2334 495 2742 
Q 703 3150 1075 3354 
Q 1447 3559 1941 3559 
z
M 1947 2881 
Q 1669 2881 1486 2703 
Q 1303 2525 1275 2144 
L 2613 2144 
Q 2609 2356 2536 2522 
Q 2463 2688 2317 2784 
Q 2172 2881 1947 2881 
z
" transform="scale(0.015625)"/>
      </defs>
      <use xlink:href="#OpenSans-Bold-45"/>
      <use xlink:href="#OpenSans-Bold-6d" x="56.005859"/>
      <use xlink:href="#OpenSans-Bold-70" x="154.199219"/>
      <use xlink:href="#OpenSans-Bold-72" x="217.480469"/>
      <use xlink:href="#OpenSans-Bold-65" x="262.890625"/>
      <use xlink:href="#OpenSans-Bold-73" x="321.972656"/>
      <use xlink:href="#OpenSans-Bold-61" x="371.679688"/>
     </g>
    </g>
    <g id="patch_96">
     <path d="M 700.59 386.907321 
L 724.59 386.907321 
L 724.59 378.507321 
L 700.59 378.507321 
z
" style="fill: #52489c"/>
    </g>
    <g id="text_32">
     <!-- Educacin superior -->
     <g style="fill: #37539c" transform="translate(734.19 386.907321) scale(0.12 -0.12)">
      <defs>
       <path id="OpenSans-Bold-75" d="M 3706 3494 
L 3706 0 
L 2975 0 
L 2847 447 
L 2797 447 
Q 2684 269 2515 156 
Q 2347 44 2144 -9 
Q 1941 -63 1722 -63 
Q 1347 -63 1069 70 
Q 791 203 636 484 
Q 481 766 481 1216 
L 481 3494 
L 1434 3494 
L 1434 1453 
Q 1434 1078 1568 887 
Q 1703 697 1997 697 
Q 2288 697 2453 830 
Q 2619 963 2686 1220 
Q 2753 1478 2753 1850 
L 2753 3494 
L 3706 3494 
z
" transform="scale(0.015625)"/>
       <path id="OpenSans-Bold-63" d="M 1919 -63 
Q 1400 -63 1034 126 
Q 669 316 478 712 
Q 288 1109 288 1728 
Q 288 2369 505 2773 
Q 722 3178 1108 3368 
Q 1494 3559 2003 3559 
Q 2366 3559 2630 3489 
Q 2894 3419 3091 3322 
L 2809 2584 
Q 2584 2675 2390 2733 
Q 2197 2791 2003 2791 
Q 1753 2791 1587 2673 
Q 1422 2556 1340 2322 
Q 1259 2088 1259 1734 
Q 1259 1388 1346 1159 
Q 1434 931 1600 820 
Q 1766 709 2003 709 
Q 2300 709 2531 789 
Q 2763 869 2981 1013 
L 2981 197 
Q 2763 59 2523 -2 
Q 2284 -63 1919 -63 
z
" transform="scale(0.015625)"/>
       <path id="OpenSans-Bold-69" d="M 1453 3494 
L 1453 0 
L 500 0 
L 500 3494 
L 1453 3494 
z
M 978 4863 
Q 1191 4863 1344 4764 
Q 1497 4666 1497 4397 
Q 1497 4131 1344 4029 
Q 1191 3928 978 3928 
Q 763 3928 611 4029 
Q 459 4131 459 4397 
Q 459 4666 611 4764 
Q 763 4863 978 4863 
z
" transform="scale(0.015625)"/>
       <path id="OpenSans-Bold-f3" d="M 3675 1753 
Q 3675 1316 3558 978 
Q 3441 641 3217 408 
Q 2994 175 2680 56 
Q 2366 -63 1972 -63 
Q 1603 -63 1295 56 
Q 988 175 761 408 
Q 534 641 411 978 
Q 288 1316 288 1753 
Q 288 2334 494 2737 
Q 700 3141 1081 3350 
Q 1463 3559 1991 3559 
Q 2481 3559 2861 3350 
Q 3241 3141 3458 2737 
Q 3675 2334 3675 1753 
z
M 1259 1753 
Q 1259 1409 1334 1175 
Q 1409 941 1568 822 
Q 1728 703 1984 703 
Q 2238 703 2395 822 
Q 2553 941 2626 1175 
Q 2700 1409 2700 1753 
Q 2700 2100 2626 2329 
Q 2553 2559 2393 2675 
Q 2234 2791 1978 2791 
Q 1600 2791 1429 2531 
Q 1259 2272 1259 1753 
z
M 3211 4903 
L 3211 4838 
Q 3121 4750 2974 4622 
Q 2827 4494 2658 4355 
Q 2490 4216 2327 4089 
Q 2165 3963 2043 3878 
L 1408 3878 
L 1408 3963 
Q 1511 4081 1647 4245 
Q 1783 4409 1917 4584 
Q 2052 4759 2143 4903 
L 3211 4903 
z
" transform="scale(0.015625)"/>
       <path id="OpenSans-Bold-6e" d="M 2484 3559 
Q 3044 3559 3384 3254 
Q 3725 2950 3725 2278 
L 3725 0 
L 2772 0 
L 2772 2041 
Q 2772 2416 2636 2606 
Q 2500 2797 2209 2797 
Q 1772 2797 1612 2500 
Q 1453 2203 1453 1644 
L 1453 0 
L 500 0 
L 500 3494 
L 1228 3494 
L 1356 3047 
L 1409 3047 
Q 1522 3228 1689 3340 
Q 1856 3453 2061 3506 
Q 2266 3559 2484 3559 
z
" transform="scale(0.015625)"/>
       <path id="OpenSans-Bold-20" transform="scale(0.015625)"/>
      </defs>
      <use xlink:href="#OpenSans-Bold-45"/>
      <use xlink:href="#OpenSans-Bold-64" x="56.005859"/>
      <use xlink:href="#OpenSans-Bold-75" x="119.287109"/>
      <use xlink:href="#OpenSans-Bold-63" x="185.009766"/>
      <use xlink:href="#OpenSans-Bold-61" x="236.425781"/>
      <use xlink:href="#OpenSans-Bold-63" x="296.826172"/>
      <use xlink:href="#OpenSans-Bold-69" x="348.242188"/>
      <use xlink:href="#OpenSans-Bold-f3" x="378.759766"/>
      <use xlink:href="#OpenSans-Bold-6e" x="440.673828"/>
      <use xlink:href="#OpenSans-Bold-20" x="506.396484"/>
      <use xlink:href="#OpenSans-Bold-73" x="532.373047"/>
      <use xlink:href="#OpenSans-Bold-75" x="582.080078"/>
      <use xlink:href="#OpenSans-Bold-70" x="647.802734"/>
      <use xlink:href="#OpenSans-Bold-65" x="711.083984"/>
      <use xlink:href="#OpenSans-Bold-72" x="770.166016"/>
      <use xlink:href="#OpenSans-Bold-69" x="815.576172"/>
      <use xlink:href="#OpenSans-Bold-6f" x="846.09375"/>
      <use xlink:href="#OpenSans-Bold-72" x="908.007812"/>
     </g>
    </g>
    <g id="patch_97">
     <path d="M 700.59 404.909196 
L 724.59 404.909196 
L 724.59 396.509196 
L 700.59 396.509196 
z
" style="fill: #9fb7b9"/>
    </g>
    <g id="text_33">
     <!-- Persona natural -->
     <g style="fill: #37539c" transform="translate(734.19 404.909196) scale(0.12 -0.12)">
      <defs>
       <path id="OpenSans-Bold-50" d="M 2034 4569 
Q 2919 4569 3325 4189 
Q 3731 3809 3731 3144 
Q 3731 2844 3640 2570 
Q 3550 2297 3345 2084 
Q 3141 1872 2800 1748 
Q 2459 1625 1959 1625 
L 1544 1625 
L 1544 0 
L 575 0 
L 575 4569 
L 2034 4569 
z
M 1984 3775 
L 1544 3775 
L 1544 2419 
L 1863 2419 
Q 2134 2419 2334 2491 
Q 2534 2563 2643 2716 
Q 2753 2869 2753 3109 
Q 2753 3447 2565 3611 
Q 2378 3775 1984 3775 
z
" transform="scale(0.015625)"/>
       <path id="OpenSans-Bold-6c" d="M 1453 0 
L 500 0 
L 500 4863 
L 1453 4863 
L 1453 0 
z
" transform="scale(0.015625)"/>
      </defs>
      <use xlink:href="#OpenSans-Bold-50"/>
      <use xlink:href="#OpenSans-Bold-65" x="62.792969"/>
      <use xlink:href="#OpenSans-Bold-72" x="121.875"/>
      <use xlink:href="#OpenSans-Bold-73" x="167.285156"/>
      <use xlink:href="#OpenSans-Bold-6f" x="216.992188"/>
      <use xlink:href="#OpenSans-Bold-6e" x="278.90625"/>
      <use xlink:href="#OpenSans-Bold-61" x="344.628906"/>
      <use xlink:href="#OpenSans-Bold-20" x="405.029297"/>
      <use xlink:href="#OpenSans-Bold-6e" x="431.005859"/>
      <use xlink:href="#OpenSans-Bold-61" x="496.728516"/>
      <use xlink:href="#OpenSans-Bold-74" x="557.128906"/>
      <use xlink:href="#OpenSans-Bold-75" x="600.537109"/>
      <use xlink:href="#OpenSans-Bold-72" x="666.259766"/>
      <use xlink:href="#OpenSans-Bold-61" x="711.669922"/>
      <use xlink:href="#OpenSans-Bold-6c" x="772.070312"/>
     </g>
    </g>
    <g id="patch_98">
     <path d="M 700.59 422.911071 
L 724.59 422.911071 
L 724.59 414.511071 
L 700.59 414.511071 
z
" style="fill: #ebebeb"/>
    </g>
    <g id="text_34">
     <!-- IPSFL -->
     <g style="fill: #37539c" transform="translate(734.19 422.911071) scale(0.12 -0.12)">
      <defs>
       <path id="OpenSans-Bold-53" d="M 3272 1269 
Q 3272 863 3075 563 
Q 2878 263 2501 100 
Q 2125 -63 1588 -63 
Q 1350 -63 1123 -31 
Q 897 0 689 61 
Q 481 122 294 213 
L 294 1113 
Q 619 969 969 853 
Q 1319 738 1663 738 
Q 1900 738 2045 800 
Q 2191 863 2256 972 
Q 2322 1081 2322 1222 
Q 2322 1394 2206 1516 
Q 2091 1638 1889 1744 
Q 1688 1850 1434 1972 
Q 1275 2047 1087 2155 
Q 900 2263 731 2419 
Q 563 2575 455 2798 
Q 347 3022 347 3334 
Q 347 3744 534 4034 
Q 722 4325 1070 4479 
Q 1419 4634 1894 4634 
Q 2250 4634 2573 4551 
Q 2897 4469 3250 4313 
L 2938 3559 
Q 2622 3688 2372 3758 
Q 2122 3828 1863 3828 
Q 1681 3828 1553 3770 
Q 1425 3713 1359 3608 
Q 1294 3503 1294 3366 
Q 1294 3203 1389 3092 
Q 1484 2981 1676 2878 
Q 1869 2775 2156 2638 
Q 2506 2472 2754 2292 
Q 3003 2113 3137 1870 
Q 3272 1628 3272 1269 
z
" transform="scale(0.015625)"/>
       <path id="OpenSans-Bold-4c" d="M 575 0 
L 575 4569 
L 1544 4569 
L 1544 800 
L 3397 800 
L 3397 0 
L 575 0 
z
" transform="scale(0.015625)"/>
      </defs>
      <use xlink:href="#OpenSans-Bold-49"/>
      <use xlink:href="#OpenSans-Bold-50" x="33.105469"/>
      <use xlink:href="#OpenSans-Bold-53" x="95.898438"/>
      <use xlink:href="#OpenSans-Bold-46" x="150.976562"/>
      <use xlink:href="#OpenSans-Bold-4c" x="205.859375"/>
     </g>
    </g>
   </g>
  </g>
  <g id="axes_3">
   <g id="patch_99">
    <path d="M 31.66 694.28 
L 344.895 694.28 
L 344.895 376.470476 
L 31.66 376.470476 
z
" style="fill: #ffffff"/>
   </g>
   <g id="matplotlib.axis_5">
    <g id="xtick_15">
     <g id="line2d_39">
      <g>
       <use xlink:href="#m0675263a6b" x="54.033929" y="694.28" style="fill: #37539c; stroke: #37539c; stroke-width: 0.8"/>
      </g>
     </g>
     <g id="text_35">
      <!-- 2015 -->
      <g style="fill: #37539c" transform="translate(44.886429 707.35875) scale(0.08 -0.08)">
       <use xlink:href="#OpenSans-Bold-32"/>
       <use xlink:href="#OpenSans-Bold-30" x="57.177734"/>
       <use xlink:href="#OpenSans-Bold-31" x="114.355469"/>
       <use xlink:href="#OpenSans-Bold-35" x="171.533203"/>
      </g>
     </g>
    </g>
    <g id="xtick_16">
     <g id="line2d_40">
      <g>
       <use xlink:href="#m0675263a6b" x="98.781786" y="694.28" style="fill: #37539c; stroke: #37539c; stroke-width: 0.8"/>
      </g>
     </g>
     <g id="text_36">
      <!-- 2016 -->
      <g style="fill: #37539c" transform="translate(89.634286 707.35875) scale(0.08 -0.08)">
       <use xlink:href="#OpenSans-Bold-32"/>
       <use xlink:href="#OpenSans-Bold-30" x="57.177734"/>
       <use xlink:href="#OpenSans-Bold-31" x="114.355469"/>
       <use xlink:href="#OpenSans-Bold-36" x="171.533203"/>
      </g>
     </g>
    </g>
    <g id="xtick_17">
     <g id="line2d_41">
      <g>
       <use xlink:href="#m0675263a6b" x="143.529643" y="694.28" style="fill: #37539c; stroke: #37539c; stroke-width: 0.8"/>
      </g>
     </g>
     <g id="text_37">
      <!-- 2017 -->
      <g style="fill: #37539c" transform="translate(134.382143 707.35875) scale(0.08 -0.08)">
       <use xlink:href="#OpenSans-Bold-32"/>
       <use xlink:href="#OpenSans-Bold-30" x="57.177734"/>
       <use xlink:href="#OpenSans-Bold-31" x="114.355469"/>
       <use xlink:href="#OpenSans-Bold-37" x="171.533203"/>
      </g>
     </g>
    </g>
    <g id="xtick_18">
     <g id="line2d_42">
      <g>
       <use xlink:href="#m0675263a6b" x="188.2775" y="694.28" style="fill: #37539c; stroke: #37539c; stroke-width: 0.8"/>
      </g>
     </g>
     <g id="text_38">
      <!-- 2018 -->
      <g style="fill: #37539c" transform="translate(179.13 707.35875) scale(0.08 -0.08)">
       <use xlink:href="#OpenSans-Bold-32"/>
       <use xlink:href="#OpenSans-Bold-30" x="57.177734"/>
       <use xlink:href="#OpenSans-Bold-31" x="114.355469"/>
       <use xlink:href="#OpenSans-Bold-38" x="171.533203"/>
      </g>
     </g>
    </g>
    <g id="xtick_19">
     <g id="line2d_43">
      <g>
       <use xlink:href="#m0675263a6b" x="233.025357" y="694.28" style="fill: #37539c; stroke: #37539c; stroke-width: 0.8"/>
      </g>
     </g>
     <g id="text_39">
      <!-- 2019 -->
      <g style="fill: #37539c" transform="translate(223.877857 707.35875) scale(0.08 -0.08)">
       <use xlink:href="#OpenSans-Bold-32"/>
       <use xlink:href="#OpenSans-Bold-30" x="57.177734"/>
       <use xlink:href="#OpenSans-Bold-31" x="114.355469"/>
       <use xlink:href="#OpenSans-Bold-39" x="171.533203"/>
      </g>
     </g>
    </g>
    <g id="xtick_20">
     <g id="line2d_44">
      <g>
       <use xlink:href="#m0675263a6b" x="277.773214" y="694.28" style="fill: #37539c; stroke: #37539c; stroke-width: 0.8"/>
      </g>
     </g>
     <g id="text_40">
      <!-- 2020 -->
      <g style="fill: #37539c" transform="translate(268.625714 707.35875) scale(0.08 -0.08)">
       <use xlink:href="#OpenSans-Bold-32"/>
       <use xlink:href="#OpenSans-Bold-30" x="57.177734"/>
       <use xlink:href="#OpenSans-Bold-32" x="114.355469"/>
       <use xlink:href="#OpenSans-Bold-30" x="171.533203"/>
      </g>
     </g>
    </g>
    <g id="xtick_21">
     <g id="line2d_45">
      <g>
       <use xlink:href="#m0675263a6b" x="322.521071" y="694.28" style="fill: #37539c; stroke: #37539c; stroke-width: 0.8"/>
      </g>
     </g>
     <g id="text_41">
      <!-- 2021 -->
      <g style="fill: #37539c" transform="translate(313.373571 707.35875) scale(0.08 -0.08)">
       <use xlink:href="#OpenSans-Bold-32"/>
       <use xlink:href="#OpenSans-Bold-30" x="57.177734"/>
       <use xlink:href="#OpenSans-Bold-32" x="114.355469"/>
       <use xlink:href="#OpenSans-Bold-31" x="171.533203"/>
      </g>
     </g>
    </g>
   </g>
   <g id="matplotlib.axis_6">
    <g id="ytick_13">
     <g id="line2d_46">
      <path d="M 31.66 694.28 
L 344.895 694.28 
" clip-path="url(#p378ba60e69)" style="fill: none; stroke-dasharray: 2.96,1.28; stroke-dashoffset: 0; stroke: #b0b0b0; stroke-width: 0.8"/>
     </g>
     <g id="line2d_47">
      <g>
       <use xlink:href="#m0b222cc6f0" x="31.66" y="694.28" style="fill: #37539c; stroke: #37539c; stroke-width: 0.8"/>
      </g>
     </g>
     <g id="text_42">
      <!-- 0 -->
      <g style="fill: #37539c" transform="translate(20.08625 697.319375) scale(0.08 -0.08)">
       <use xlink:href="#OpenSans-Bold-30"/>
      </g>
     </g>
    </g>
    <g id="ytick_14">
     <g id="line2d_48">
      <path d="M 31.66 633.805327 
L 344.895 633.805327 
" clip-path="url(#p378ba60e69)" style="fill: none; stroke-dasharray: 2.96,1.28; stroke-dashoffset: 0; stroke: #b0b0b0; stroke-width: 0.8"/>
     </g>
     <g id="line2d_49">
      <g>
       <use xlink:href="#m0b222cc6f0" x="31.66" y="633.805327" style="fill: #37539c; stroke: #37539c; stroke-width: 0.8"/>
      </g>
     </g>
     <g id="text_43">
      <!-- 20 -->
      <g style="fill: #37539c" transform="translate(15.5125 636.844702) scale(0.08 -0.08)">
       <use xlink:href="#OpenSans-Bold-32"/>
       <use xlink:href="#OpenSans-Bold-30" x="57.177734"/>
      </g>
     </g>
    </g>
    <g id="ytick_15">
     <g id="line2d_50">
      <path d="M 31.66 573.330655 
L 344.895 573.330655 
" clip-path="url(#p378ba60e69)" style="fill: none; stroke-dasharray: 2.96,1.28; stroke-dashoffset: 0; stroke: #b0b0b0; stroke-width: 0.8"/>
     </g>
     <g id="line2d_51">
      <g>
       <use xlink:href="#m0b222cc6f0" x="31.66" y="573.330655" style="fill: #37539c; stroke: #37539c; stroke-width: 0.8"/>
      </g>
     </g>
     <g id="text_44">
      <!-- 40 -->
      <g style="fill: #37539c" transform="translate(15.5125 576.37003) scale(0.08 -0.08)">
       <use xlink:href="#OpenSans-Bold-34"/>
       <use xlink:href="#OpenSans-Bold-30" x="57.177734"/>
      </g>
     </g>
    </g>
    <g id="ytick_16">
     <g id="line2d_52">
      <path d="M 31.66 512.855982 
L 344.895 512.855982 
" clip-path="url(#p378ba60e69)" style="fill: none; stroke-dasharray: 2.96,1.28; stroke-dashoffset: 0; stroke: #b0b0b0; stroke-width: 0.8"/>
     </g>
     <g id="line2d_53">
      <g>
       <use xlink:href="#m0b222cc6f0" x="31.66" y="512.855982" style="fill: #37539c; stroke: #37539c; stroke-width: 0.8"/>
      </g>
     </g>
     <g id="text_45">
      <!-- 60 -->
      <g style="fill: #37539c" transform="translate(15.5125 515.895357) scale(0.08 -0.08)">
       <use xlink:href="#OpenSans-Bold-36"/>
       <use xlink:href="#OpenSans-Bold-30" x="57.177734"/>
      </g>
     </g>
    </g>
    <g id="ytick_17">
     <g id="line2d_54">
      <path d="M 31.66 452.381309 
L 344.895 452.381309 
" clip-path="url(#p378ba60e69)" style="fill: none; stroke-dasharray: 2.96,1.28; stroke-dashoffset: 0; stroke: #b0b0b0; stroke-width: 0.8"/>
     </g>
     <g id="line2d_55">
      <g>
       <use xlink:href="#m0b222cc6f0" x="31.66" y="452.381309" style="fill: #37539c; stroke: #37539c; stroke-width: 0.8"/>
      </g>
     </g>
     <g id="text_46">
      <!-- 80 -->
      <g style="fill: #37539c" transform="translate(15.5125 455.420684) scale(0.08 -0.08)">
       <use xlink:href="#OpenSans-Bold-38"/>
       <use xlink:href="#OpenSans-Bold-30" x="57.177734"/>
      </g>
     </g>
    </g>
    <g id="ytick_18">
     <g id="line2d_56">
      <path d="M 31.66 391.906636 
L 344.895 391.906636 
" clip-path="url(#p378ba60e69)" style="fill: none; stroke-dasharray: 2.96,1.28; stroke-dashoffset: 0; stroke: #b0b0b0; stroke-width: 0.8"/>
     </g>
     <g id="line2d_57">
      <g>
       <use xlink:href="#m0b222cc6f0" x="31.66" y="391.906636" style="fill: #37539c; stroke: #37539c; stroke-width: 0.8"/>
      </g>
     </g>
     <g id="text_47">
      <!-- 100 -->
      <g style="fill: #37539c" transform="translate(10.93875 394.946011) scale(0.08 -0.08)">
       <use xlink:href="#OpenSans-Bold-31"/>
       <use xlink:href="#OpenSans-Bold-30" x="57.177734"/>
       <use xlink:href="#OpenSans-Bold-30" x="114.355469"/>
      </g>
     </g>
    </g>
   </g>
   <g id="patch_100">
    <path d="M 42.846964 694.28 
L 65.220893 694.28 
L 65.220893 694.28 
L 42.846964 694.28 
z
" clip-path="url(#p378ba60e69)" style="fill: #37539c"/>
   </g>
   <g id="patch_101">
    <path d="M 87.594821 694.28 
L 109.96875 694.28 
L 109.96875 694.28 
L 87.594821 694.28 
z
" clip-path="url(#p378ba60e69)" style="fill: #37539c"/>
   </g>
   <g id="patch_102">
    <path d="M 132.342679 694.28 
L 154.716607 694.28 
L 154.716607 694.28 
L 132.342679 694.28 
z
" clip-path="url(#p378ba60e69)" style="fill: #37539c"/>
   </g>
   <g id="patch_103">
    <path d="M 177.090536 694.28 
L 199.464464 694.28 
L 199.464464 694.28 
L 177.090536 694.28 
z
" clip-path="url(#p378ba60e69)" style="fill: #37539c"/>
   </g>
   <g id="patch_104">
    <path d="M 221.838393 694.28 
L 244.212321 694.28 
L 244.212321 694.28 
L 221.838393 694.28 
z
" clip-path="url(#p378ba60e69)" style="fill: #37539c"/>
   </g>
   <g id="patch_105">
    <path d="M 266.58625 694.28 
L 288.960179 694.28 
L 288.960179 694.28 
L 266.58625 694.28 
z
" clip-path="url(#p378ba60e69)" style="fill: #37539c"/>
   </g>
   <g id="patch_106">
    <path d="M 311.334107 694.28 
L 333.708036 694.28 
L 333.708036 597.21815 
L 311.334107 597.21815 
z
" clip-path="url(#p378ba60e69)" style="fill: #37539c"/>
   </g>
   <g id="patch_107">
    <path d="M 42.846964 694.28 
L 65.220893 694.28 
L 65.220893 541.883825 
L 42.846964 541.883825 
z
" clip-path="url(#p378ba60e69)" style="fill: #59c3c3"/>
   </g>
   <g id="patch_108">
    <path d="M 87.594821 694.28 
L 109.96875 694.28 
L 109.96875 522.229556 
L 87.594821 522.229556 
z
" clip-path="url(#p378ba60e69)" style="fill: #59c3c3"/>
   </g>
   <g id="patch_109">
    <path d="M 132.342679 694.28 
L 154.716607 694.28 
L 154.716607 537.045851 
L 132.342679 537.045851 
z
" clip-path="url(#p378ba60e69)" style="fill: #59c3c3"/>
   </g>
   <g id="patch_110">
    <path d="M 177.090536 694.28 
L 199.464464 694.28 
L 199.464464 543.093318 
L 177.090536 543.093318 
z
" clip-path="url(#p378ba60e69)" style="fill: #59c3c3"/>
   </g>
   <g id="patch_111">
    <path d="M 221.838393 694.28 
L 244.212321 694.28 
L 244.212321 577.563882 
L 221.838393 577.563882 
z
" clip-path="url(#p378ba60e69)" style="fill: #59c3c3"/>
   </g>
   <g id="patch_112">
    <path d="M 266.58625 694.28 
L 288.960179 694.28 
L 288.960179 694.28 
L 266.58625 694.28 
z
" clip-path="url(#p378ba60e69)" style="fill: #59c3c3"/>
   </g>
   <g id="patch_113">
    <path d="M 311.334107 694.28 
L 333.708036 694.28 
L 333.708036 694.28 
L 311.334107 694.28 
z
" clip-path="url(#p378ba60e69)" style="fill: #59c3c3"/>
   </g>
   <g id="patch_114">
    <path d="M 42.846964 541.883825 
L 65.220893 541.883825 
L 65.220893 491.0851 
L 42.846964 491.0851 
z
" clip-path="url(#p378ba60e69)" style="fill: #f45b69"/>
   </g>
   <g id="patch_115">
    <path d="M 87.594821 522.229556 
L 109.96875 522.229556 
L 109.96875 487.758993 
L 87.594821 487.758993 
z
" clip-path="url(#p378ba60e69)" style="fill: #f45b69"/>
   </g>
   <g id="patch_116">
    <path d="M 132.342679 537.045851 
L 154.716607 537.045851 
L 154.716607 507.110888 
L 132.342679 507.110888 
z
" clip-path="url(#p378ba60e69)" style="fill: #f45b69"/>
   </g>
   <g id="patch_117">
    <path d="M 177.090536 543.093318 
L 199.464464 543.093318 
L 199.464464 524.648543 
L 177.090536 524.648543 
z
" clip-path="url(#p378ba60e69)" style="fill: #f45b69"/>
   </g>
   <g id="patch_118">
    <path d="M 221.838393 577.563882 
L 244.212321 577.563882 
L 244.212321 537.045851 
L 221.838393 537.045851 
z
" clip-path="url(#p378ba60e69)" style="fill: #f45b69"/>
   </g>
   <g id="patch_119">
    <path d="M 266.58625 694.28 
L 288.960179 694.28 
L 288.960179 694.28 
L 266.58625 694.28 
z
" clip-path="url(#p378ba60e69)" style="fill: #f45b69"/>
   </g>
   <g id="patch_120">
    <path d="M 311.334107 597.21815 
L 333.708036 597.21815 
L 333.708036 496.52782 
L 311.334107 496.52782 
z
" clip-path="url(#p378ba60e69)" style="fill: #f45b69"/>
   </g>
   <g id="patch_121">
    <path d="M 42.846964 491.0851 
L 65.220893 491.0851 
L 65.220893 428.19144 
L 42.846964 428.19144 
z
" clip-path="url(#p378ba60e69)" style="fill: #52489c"/>
   </g>
   <g id="patch_122">
    <path d="M 87.594821 487.758993 
L 109.96875 487.758993 
L 109.96875 415.189385 
L 87.594821 415.189385 
z
" clip-path="url(#p378ba60e69)" style="fill: #52489c"/>
   </g>
   <g id="patch_123">
    <path d="M 132.342679 507.110888 
L 154.716607 507.110888 
L 154.716607 455.707416 
L 132.342679 455.707416 
z
" clip-path="url(#p378ba60e69)" style="fill: #52489c"/>
   </g>
   <g id="patch_124">
    <path d="M 177.090536 524.648543 
L 199.464464 524.648543 
L 199.464464 458.126403 
L 177.090536 458.126403 
z
" clip-path="url(#p378ba60e69)" style="fill: #52489c"/>
   </g>
   <g id="patch_125">
    <path d="M 221.838393 537.045851 
L 244.212321 537.045851 
L 244.212321 491.689846 
L 221.838393 491.689846 
z
" clip-path="url(#p378ba60e69)" style="fill: #52489c"/>
   </g>
   <g id="patch_126">
    <path d="M 266.58625 694.28 
L 288.960179 694.28 
L 288.960179 694.28 
L 266.58625 694.28 
z
" clip-path="url(#p378ba60e69)" style="fill: #52489c"/>
   </g>
   <g id="patch_127">
    <path d="M 311.334107 496.52782 
L 333.708036 496.52782 
L 333.708036 421.841599 
L 311.334107 421.841599 
z
" clip-path="url(#p378ba60e69)" style="fill: #52489c"/>
   </g>
   <g id="patch_128">
    <path d="M 42.846964 428.19144 
L 65.220893 428.19144 
L 65.220893 391.906636 
L 42.846964 391.906636 
z
" clip-path="url(#p378ba60e69)" style="fill: #9fb7b9"/>
   </g>
   <g id="patch_129">
    <path d="M 87.594821 415.189385 
L 109.96875 415.189385 
L 109.96875 391.604263 
L 87.594821 391.604263 
z
" clip-path="url(#p378ba60e69)" style="fill: #9fb7b9"/>
   </g>
   <g id="patch_130">
    <path d="M 132.342679 455.707416 
L 154.716607 455.707416 
L 154.716607 391.906636 
L 132.342679 391.906636 
z
" clip-path="url(#p378ba60e69)" style="fill: #9fb7b9"/>
   </g>
   <g id="patch_131">
    <path d="M 177.090536 458.126403 
L 199.464464 458.126403 
L 199.464464 391.604263 
L 177.090536 391.604263 
z
" clip-path="url(#p378ba60e69)" style="fill: #9fb7b9"/>
   </g>
   <g id="patch_132">
    <path d="M 221.838393 491.689846 
L 244.212321 491.689846 
L 244.212321 391.604263 
L 221.838393 391.604263 
z
" clip-path="url(#p378ba60e69)" style="fill: #9fb7b9"/>
   </g>
   <g id="patch_133">
    <path d="M 266.58625 694.28 
L 288.960179 694.28 
L 288.960179 694.28 
L 266.58625 694.28 
z
" clip-path="url(#p378ba60e69)" style="fill: #9fb7b9"/>
   </g>
   <g id="patch_134">
    <path d="M 311.334107 694.28 
L 333.708036 694.28 
L 333.708036 694.28 
L 311.334107 694.28 
z
" clip-path="url(#p378ba60e69)" style="fill: #9fb7b9"/>
   </g>
   <g id="patch_135">
    <path d="M 42.846964 694.28 
L 65.220893 694.28 
L 65.220893 694.28 
L 42.846964 694.28 
z
" clip-path="url(#p378ba60e69)" style="fill: #ebebeb"/>
   </g>
   <g id="patch_136">
    <path d="M 87.594821 694.28 
L 109.96875 694.28 
L 109.96875 694.28 
L 87.594821 694.28 
z
" clip-path="url(#p378ba60e69)" style="fill: #ebebeb"/>
   </g>
   <g id="patch_137">
    <path d="M 132.342679 694.28 
L 154.716607 694.28 
L 154.716607 694.28 
L 132.342679 694.28 
z
" clip-path="url(#p378ba60e69)" style="fill: #ebebeb"/>
   </g>
   <g id="patch_138">
    <path d="M 177.090536 694.28 
L 199.464464 694.28 
L 199.464464 694.28 
L 177.090536 694.28 
z
" clip-path="url(#p378ba60e69)" style="fill: #ebebeb"/>
   </g>
   <g id="patch_139">
    <path d="M 221.838393 694.28 
L 244.212321 694.28 
L 244.212321 694.28 
L 221.838393 694.28 
z
" clip-path="url(#p378ba60e69)" style="fill: #ebebeb"/>
   </g>
   <g id="patch_140">
    <path d="M 266.58625 694.28 
L 288.960179 694.28 
L 288.960179 391.906636 
L 266.58625 391.906636 
z
" clip-path="url(#p378ba60e69)" style="fill: #ebebeb"/>
   </g>
   <g id="patch_141">
    <path d="M 311.334107 421.841599 
L 333.708036 421.841599 
L 333.708036 391.906636 
L 311.334107 391.906636 
z
" clip-path="url(#p378ba60e69)" style="fill: #ebebeb"/>
   </g>
   <g id="patch_142">
    <path d="M 31.66 694.28 
L 31.66 376.470476 
" style="fill: none; stroke: #000000; stroke-width: 0.8; stroke-linejoin: miter; stroke-linecap: square"/>
   </g>
   <g id="patch_143">
    <path d="M 31.66 694.28 
L 344.895 694.28 
" style="fill: none; stroke: #000000; stroke-width: 0.8; stroke-linejoin: miter; stroke-linecap: square"/>
   </g>
   <g id="text_48">
    <!-- FIA -->
    <g style="fill: #37539c" transform="translate(178.8575 370.470476) scale(0.12 -0.12)">
     <use xlink:href="#OpenSans-Bold-46"/>
     <use xlink:href="#OpenSans-Bold-49" x="54.882812"/>
     <use xlink:href="#OpenSans-Bold-41" x="87.988281"/>
    </g>
   </g>
  </g>
  <g id="axes_4">
   <g id="patch_144">
    <path d="M 376.555 694.28 
L 689.79 694.28 
L 689.79 376.470476 
L 376.555 376.470476 
z
" style="fill: #ffffff"/>
   </g>
   <g id="matplotlib.axis_7">
    <g id="xtick_22">
     <g id="line2d_58">
      <g>
       <use xlink:href="#m0675263a6b" x="398.928929" y="694.28" style="fill: #37539c; stroke: #37539c; stroke-width: 0.8"/>
      </g>
     </g>
     <g id="text_49">
      <!-- 2015 -->
      <g style="fill: #37539c" transform="translate(389.781429 707.35875) scale(0.08 -0.08)">
       <use xlink:href="#OpenSans-Bold-32"/>
       <use xlink:href="#OpenSans-Bold-30" x="57.177734"/>
       <use xlink:href="#OpenSans-Bold-31" x="114.355469"/>
       <use xlink:href="#OpenSans-Bold-35" x="171.533203"/>
      </g>
     </g>
    </g>
    <g id="xtick_23">
     <g id="line2d_59">
      <g>
       <use xlink:href="#m0675263a6b" x="443.676786" y="694.28" style="fill: #37539c; stroke: #37539c; stroke-width: 0.8"/>
      </g>
     </g>
     <g id="text_50">
      <!-- 2016 -->
      <g style="fill: #37539c" transform="translate(434.529286 707.35875) scale(0.08 -0.08)">
       <use xlink:href="#OpenSans-Bold-32"/>
       <use xlink:href="#OpenSans-Bold-30" x="57.177734"/>
       <use xlink:href="#OpenSans-Bold-31" x="114.355469"/>
       <use xlink:href="#OpenSans-Bold-36" x="171.533203"/>
      </g>
     </g>
    </g>
    <g id="xtick_24">
     <g id="line2d_60">
      <g>
       <use xlink:href="#m0675263a6b" x="488.424643" y="694.28" style="fill: #37539c; stroke: #37539c; stroke-width: 0.8"/>
      </g>
     </g>
     <g id="text_51">
      <!-- 2017 -->
      <g style="fill: #37539c" transform="translate(479.277143 707.35875) scale(0.08 -0.08)">
       <use xlink:href="#OpenSans-Bold-32"/>
       <use xlink:href="#OpenSans-Bold-30" x="57.177734"/>
       <use xlink:href="#OpenSans-Bold-31" x="114.355469"/>
       <use xlink:href="#OpenSans-Bold-37" x="171.533203"/>
      </g>
     </g>
    </g>
    <g id="xtick_25">
     <g id="line2d_61">
      <g>
       <use xlink:href="#m0675263a6b" x="533.1725" y="694.28" style="fill: #37539c; stroke: #37539c; stroke-width: 0.8"/>
      </g>
     </g>
     <g id="text_52">
      <!-- 2018 -->
      <g style="fill: #37539c" transform="translate(524.025 707.35875) scale(0.08 -0.08)">
       <use xlink:href="#OpenSans-Bold-32"/>
       <use xlink:href="#OpenSans-Bold-30" x="57.177734"/>
       <use xlink:href="#OpenSans-Bold-31" x="114.355469"/>
       <use xlink:href="#OpenSans-Bold-38" x="171.533203"/>
      </g>
     </g>
    </g>
    <g id="xtick_26">
     <g id="line2d_62">
      <g>
       <use xlink:href="#m0675263a6b" x="577.920357" y="694.28" style="fill: #37539c; stroke: #37539c; stroke-width: 0.8"/>
      </g>
     </g>
     <g id="text_53">
      <!-- 2019 -->
      <g style="fill: #37539c" transform="translate(568.772857 707.35875) scale(0.08 -0.08)">
       <use xlink:href="#OpenSans-Bold-32"/>
       <use xlink:href="#OpenSans-Bold-30" x="57.177734"/>
       <use xlink:href="#OpenSans-Bold-31" x="114.355469"/>
       <use xlink:href="#OpenSans-Bold-39" x="171.533203"/>
      </g>
     </g>
    </g>
    <g id="xtick_27">
     <g id="line2d_63">
      <g>
       <use xlink:href="#m0675263a6b" x="622.668214" y="694.28" style="fill: #37539c; stroke: #37539c; stroke-width: 0.8"/>
      </g>
     </g>
     <g id="text_54">
      <!-- 2020 -->
      <g style="fill: #37539c" transform="translate(613.520714 707.35875) scale(0.08 -0.08)">
       <use xlink:href="#OpenSans-Bold-32"/>
       <use xlink:href="#OpenSans-Bold-30" x="57.177734"/>
       <use xlink:href="#OpenSans-Bold-32" x="114.355469"/>
       <use xlink:href="#OpenSans-Bold-30" x="171.533203"/>
      </g>
     </g>
    </g>
    <g id="xtick_28">
     <g id="line2d_64">
      <g>
       <use xlink:href="#m0675263a6b" x="667.416071" y="694.28" style="fill: #37539c; stroke: #37539c; stroke-width: 0.8"/>
      </g>
     </g>
     <g id="text_55">
      <!-- 2021 -->
      <g style="fill: #37539c" transform="translate(658.268571 707.35875) scale(0.08 -0.08)">
       <use xlink:href="#OpenSans-Bold-32"/>
       <use xlink:href="#OpenSans-Bold-30" x="57.177734"/>
       <use xlink:href="#OpenSans-Bold-32" x="114.355469"/>
       <use xlink:href="#OpenSans-Bold-31" x="171.533203"/>
      </g>
     </g>
    </g>
   </g>
   <g id="matplotlib.axis_8">
    <g id="ytick_19">
     <g id="line2d_65">
      <path d="M 376.555 694.28 
L 689.79 694.28 
" clip-path="url(#p31aab3090f)" style="fill: none; stroke-dasharray: 2.96,1.28; stroke-dashoffset: 0; stroke: #b0b0b0; stroke-width: 0.8"/>
     </g>
     <g id="line2d_66">
      <g>
       <use xlink:href="#m0b222cc6f0" x="376.555" y="694.28" style="fill: #37539c; stroke: #37539c; stroke-width: 0.8"/>
      </g>
     </g>
     <g id="text_56">
      <!-- 0 -->
      <g style="fill: #37539c" transform="translate(364.98125 697.319375) scale(0.08 -0.08)">
       <use xlink:href="#OpenSans-Bold-30"/>
      </g>
     </g>
    </g>
    <g id="ytick_20">
     <g id="line2d_67">
      <path d="M 376.555 633.805327 
L 689.79 633.805327 
" clip-path="url(#p31aab3090f)" style="fill: none; stroke-dasharray: 2.96,1.28; stroke-dashoffset: 0; stroke: #b0b0b0; stroke-width: 0.8"/>
     </g>
     <g id="line2d_68">
      <g>
       <use xlink:href="#m0b222cc6f0" x="376.555" y="633.805327" style="fill: #37539c; stroke: #37539c; stroke-width: 0.8"/>
      </g>
     </g>
     <g id="text_57">
      <!-- 20 -->
      <g style="fill: #37539c" transform="translate(360.4075 636.844702) scale(0.08 -0.08)">
       <use xlink:href="#OpenSans-Bold-32"/>
       <use xlink:href="#OpenSans-Bold-30" x="57.177734"/>
      </g>
     </g>
    </g>
    <g id="ytick_21">
     <g id="line2d_69">
      <path d="M 376.555 573.330655 
L 689.79 573.330655 
" clip-path="url(#p31aab3090f)" style="fill: none; stroke-dasharray: 2.96,1.28; stroke-dashoffset: 0; stroke: #b0b0b0; stroke-width: 0.8"/>
     </g>
     <g id="line2d_70">
      <g>
       <use xlink:href="#m0b222cc6f0" x="376.555" y="573.330655" style="fill: #37539c; stroke: #37539c; stroke-width: 0.8"/>
      </g>
     </g>
     <g id="text_58">
      <!-- 40 -->
      <g style="fill: #37539c" transform="translate(360.4075 576.37003) scale(0.08 -0.08)">
       <use xlink:href="#OpenSans-Bold-34"/>
       <use xlink:href="#OpenSans-Bold-30" x="57.177734"/>
      </g>
     </g>
    </g>
    <g id="ytick_22">
     <g id="line2d_71">
      <path d="M 376.555 512.855982 
L 689.79 512.855982 
" clip-path="url(#p31aab3090f)" style="fill: none; stroke-dasharray: 2.96,1.28; stroke-dashoffset: 0; stroke: #b0b0b0; stroke-width: 0.8"/>
     </g>
     <g id="line2d_72">
      <g>
       <use xlink:href="#m0b222cc6f0" x="376.555" y="512.855982" style="fill: #37539c; stroke: #37539c; stroke-width: 0.8"/>
      </g>
     </g>
     <g id="text_59">
      <!-- 60 -->
      <g style="fill: #37539c" transform="translate(360.4075 515.895357) scale(0.08 -0.08)">
       <use xlink:href="#OpenSans-Bold-36"/>
       <use xlink:href="#OpenSans-Bold-30" x="57.177734"/>
      </g>
     </g>
    </g>
    <g id="ytick_23">
     <g id="line2d_73">
      <path d="M 376.555 452.381309 
L 689.79 452.381309 
" clip-path="url(#p31aab3090f)" style="fill: none; stroke-dasharray: 2.96,1.28; stroke-dashoffset: 0; stroke: #b0b0b0; stroke-width: 0.8"/>
     </g>
     <g id="line2d_74">
      <g>
       <use xlink:href="#m0b222cc6f0" x="376.555" y="452.381309" style="fill: #37539c; stroke: #37539c; stroke-width: 0.8"/>
      </g>
     </g>
     <g id="text_60">
      <!-- 80 -->
      <g style="fill: #37539c" transform="translate(360.4075 455.420684) scale(0.08 -0.08)">
       <use xlink:href="#OpenSans-Bold-38"/>
       <use xlink:href="#OpenSans-Bold-30" x="57.177734"/>
      </g>
     </g>
    </g>
    <g id="ytick_24">
     <g id="line2d_75">
      <path d="M 376.555 391.906636 
L 689.79 391.906636 
" clip-path="url(#p31aab3090f)" style="fill: none; stroke-dasharray: 2.96,1.28; stroke-dashoffset: 0; stroke: #b0b0b0; stroke-width: 0.8"/>
     </g>
     <g id="line2d_76">
      <g>
       <use xlink:href="#m0b222cc6f0" x="376.555" y="391.906636" style="fill: #37539c; stroke: #37539c; stroke-width: 0.8"/>
      </g>
     </g>
     <g id="text_61">
      <!-- 100 -->
      <g style="fill: #37539c" transform="translate(355.83375 394.946011) scale(0.08 -0.08)">
       <use xlink:href="#OpenSans-Bold-31"/>
       <use xlink:href="#OpenSans-Bold-30" x="57.177734"/>
       <use xlink:href="#OpenSans-Bold-30" x="114.355469"/>
      </g>
     </g>
    </g>
   </g>
   <g id="patch_145">
    <path d="M 387.741964 694.28 
L 410.115893 694.28 
L 410.115893 694.28 
L 387.741964 694.28 
z
" clip-path="url(#p31aab3090f)" style="fill: #37539c"/>
   </g>
   <g id="patch_146">
    <path d="M 432.489821 694.28 
L 454.86375 694.28 
L 454.86375 694.28 
L 432.489821 694.28 
z
" clip-path="url(#p31aab3090f)" style="fill: #37539c"/>
   </g>
   <g id="patch_147">
    <path d="M 477.237679 694.28 
L 499.611607 694.28 
L 499.611607 694.28 
L 477.237679 694.28 
z
" clip-path="url(#p31aab3090f)" style="fill: #37539c"/>
   </g>
   <g id="patch_148">
    <path d="M 521.985536 694.28 
L 544.359464 694.28 
L 544.359464 694.28 
L 521.985536 694.28 
z
" clip-path="url(#p31aab3090f)" style="fill: #37539c"/>
   </g>
   <g id="patch_149">
    <path d="M 566.733393 694.28 
L 589.107321 694.28 
L 589.107321 694.28 
L 566.733393 694.28 
z
" clip-path="url(#p31aab3090f)" style="fill: #37539c"/>
   </g>
   <g id="patch_150">
    <path d="M 611.48125 694.28 
L 633.855179 694.28 
L 633.855179 694.28 
L 611.48125 694.28 
z
" clip-path="url(#p31aab3090f)" style="fill: #37539c"/>
   </g>
   <g id="patch_151">
    <path d="M 656.229107 694.28 
L 678.603036 694.28 
L 678.603036 694.28 
L 656.229107 694.28 
z
" clip-path="url(#p31aab3090f)" style="fill: #37539c"/>
   </g>
   <g id="patch_152">
    <path d="M 387.741964 694.28 
L 410.115893 694.28 
L 410.115893 659.507063 
L 387.741964 659.507063 
z
" clip-path="url(#p31aab3090f)" style="fill: #59c3c3"/>
   </g>
   <g id="patch_153">
    <path d="M 432.489821 694.28 
L 454.86375 694.28 
L 454.86375 665.856904 
L 432.489821 665.856904 
z
" clip-path="url(#p31aab3090f)" style="fill: #59c3c3"/>
   </g>
   <g id="patch_154">
    <path d="M 477.237679 694.28 
L 499.611607 694.28 
L 499.611607 643.783648 
L 477.237679 643.783648 
z
" clip-path="url(#p31aab3090f)" style="fill: #59c3c3"/>
   </g>
   <g id="patch_155">
    <path d="M 521.985536 694.28 
L 544.359464 694.28 
L 544.359464 685.208799 
L 521.985536 685.208799 
z
" clip-path="url(#p31aab3090f)" style="fill: #59c3c3"/>
   </g>
   <g id="patch_156">
    <path d="M 566.733393 694.28 
L 589.107321 694.28 
L 589.107321 688.232533 
L 566.733393 688.232533 
z
" clip-path="url(#p31aab3090f)" style="fill: #59c3c3"/>
   </g>
   <g id="patch_157">
    <path d="M 611.48125 694.28 
L 633.855179 694.28 
L 633.855179 638.643301 
L 611.48125 638.643301 
z
" clip-path="url(#p31aab3090f)" style="fill: #59c3c3"/>
   </g>
   <g id="patch_158">
    <path d="M 656.229107 694.28 
L 678.603036 694.28 
L 678.603036 640.155168 
L 656.229107 640.155168 
z
" clip-path="url(#p31aab3090f)" style="fill: #59c3c3"/>
   </g>
   <g id="patch_159">
    <path d="M 387.741964 659.507063 
L 410.115893 659.507063 
L 410.115893 624.734126 
L 387.741964 624.734126 
z
" clip-path="url(#p31aab3090f)" style="fill: #f45b69"/>
   </g>
   <g id="patch_160">
    <path d="M 432.489821 665.856904 
L 454.86375 665.856904 
L 454.86375 656.48333 
L 432.489821 656.48333 
z
" clip-path="url(#p31aab3090f)" style="fill: #f45b69"/>
   </g>
   <g id="patch_161">
    <path d="M 477.237679 643.783648 
L 499.611607 643.783648 
L 499.611607 603.567991 
L 477.237679 603.567991 
z
" clip-path="url(#p31aab3090f)" style="fill: #f45b69"/>
   </g>
   <g id="patch_162">
    <path d="M 521.985536 685.208799 
L 544.359464 685.208799 
L 544.359464 648.621622 
L 521.985536 648.621622 
z
" clip-path="url(#p31aab3090f)" style="fill: #f45b69"/>
   </g>
   <g id="patch_163">
    <path d="M 566.733393 688.232533 
L 589.107321 688.232533 
L 589.107321 679.161332 
L 566.733393 679.161332 
z
" clip-path="url(#p31aab3090f)" style="fill: #f45b69"/>
   </g>
   <g id="patch_164">
    <path d="M 611.48125 638.643301 
L 633.855179 638.643301 
L 633.855179 595.40391 
L 611.48125 595.40391 
z
" clip-path="url(#p31aab3090f)" style="fill: #f45b69"/>
   </g>
   <g id="patch_165">
    <path d="M 656.229107 640.155168 
L 678.603036 640.155168 
L 678.603036 607.801218 
L 656.229107 607.801218 
z
" clip-path="url(#p31aab3090f)" style="fill: #f45b69"/>
   </g>
   <g id="patch_166">
    <path d="M 387.741964 624.734126 
L 410.115893 624.734126 
L 410.115893 426.981947 
L 387.741964 426.981947 
z
" clip-path="url(#p31aab3090f)" style="fill: #52489c"/>
   </g>
   <g id="patch_167">
    <path d="M 432.489821 656.48333 
L 454.86375 656.48333 
L 454.86375 406.118184 
L 432.489821 406.118184 
z
" clip-path="url(#p31aab3090f)" style="fill: #52489c"/>
   </g>
   <g id="patch_168">
    <path d="M 477.237679 603.567991 
L 499.611607 603.567991 
L 499.611607 432.122294 
L 477.237679 432.122294 
z
" clip-path="url(#p31aab3090f)" style="fill: #52489c"/>
   </g>
   <g id="patch_169">
    <path d="M 521.985536 648.621622 
L 544.359464 648.621622 
L 544.359464 501.970541 
L 521.985536 501.970541 
z
" clip-path="url(#p31aab3090f)" style="fill: #52489c"/>
   </g>
   <g id="patch_170">
    <path d="M 566.733393 679.161332 
L 589.107321 679.161332 
L 589.107321 419.422612 
L 566.733393 419.422612 
z
" clip-path="url(#p31aab3090f)" style="fill: #52489c"/>
   </g>
   <g id="patch_171">
    <path d="M 611.48125 595.40391 
L 633.855179 595.40391 
L 633.855179 496.52782 
L 611.48125 496.52782 
z
" clip-path="url(#p31aab3090f)" style="fill: #52489c"/>
   </g>
   <g id="patch_172">
    <path d="M 656.229107 607.801218 
L 678.603036 607.801218 
L 678.603036 521.322436 
L 656.229107 521.322436 
z
" clip-path="url(#p31aab3090f)" style="fill: #52489c"/>
   </g>
   <g id="patch_173">
    <path d="M 387.741964 694.28 
L 410.115893 694.28 
L 410.115893 694.28 
L 387.741964 694.28 
z
" clip-path="url(#p31aab3090f)" style="fill: #9fb7b9"/>
   </g>
   <g id="patch_174">
    <path d="M 432.489821 406.118184 
L 454.86375 406.118184 
L 454.86375 401.280211 
L 432.489821 401.280211 
z
" clip-path="url(#p31aab3090f)" style="fill: #9fb7b9"/>
   </g>
   <g id="patch_175">
    <path d="M 477.237679 432.122294 
L 499.611607 432.122294 
L 499.611607 401.884957 
L 477.237679 401.884957 
z
" clip-path="url(#p31aab3090f)" style="fill: #9fb7b9"/>
   </g>
   <g id="patch_176">
    <path d="M 521.985536 501.970541 
L 544.359464 501.970541 
L 544.359464 446.938589 
L 521.985536 446.938589 
z
" clip-path="url(#p31aab3090f)" style="fill: #9fb7b9"/>
   </g>
   <g id="patch_177">
    <path d="M 566.733393 419.422612 
L 589.107321 419.422612 
L 589.107321 400.977837 
L 566.733393 400.977837 
z
" clip-path="url(#p31aab3090f)" style="fill: #9fb7b9"/>
   </g>
   <g id="patch_178">
    <path d="M 611.48125 496.52782 
L 633.855179 496.52782 
L 633.855179 447.240962 
L 611.48125 447.240962 
z
" clip-path="url(#p31aab3090f)" style="fill: #9fb7b9"/>
   </g>
   <g id="patch_179">
    <path d="M 656.229107 521.322436 
L 678.603036 521.322436 
L 678.603036 467.197604 
L 656.229107 467.197604 
z
" clip-path="url(#p31aab3090f)" style="fill: #9fb7b9"/>
   </g>
   <g id="patch_180">
    <path d="M 387.741964 426.981947 
L 410.115893 426.981947 
L 410.115893 392.20901 
L 387.741964 392.20901 
z
" clip-path="url(#p31aab3090f)" style="fill: #ebebeb"/>
   </g>
   <g id="patch_181">
    <path d="M 432.489821 401.280211 
L 454.86375 401.280211 
L 454.86375 391.906636 
L 432.489821 391.906636 
z
" clip-path="url(#p31aab3090f)" style="fill: #ebebeb"/>
   </g>
   <g id="patch_182">
    <path d="M 477.237679 401.884957 
L 499.611607 401.884957 
L 499.611607 391.906636 
L 477.237679 391.906636 
z
" clip-path="url(#p31aab3090f)" style="fill: #ebebeb"/>
   </g>
   <g id="patch_183">
    <path d="M 521.985536 446.938589 
L 544.359464 446.938589 
L 544.359464 391.906636 
L 521.985536 391.906636 
z
" clip-path="url(#p31aab3090f)" style="fill: #ebebeb"/>
   </g>
   <g id="patch_184">
    <path d="M 566.733393 400.977837 
L 589.107321 400.977837 
L 589.107321 391.906636 
L 566.733393 391.906636 
z
" clip-path="url(#p31aab3090f)" style="fill: #ebebeb"/>
   </g>
   <g id="patch_185">
    <path d="M 611.48125 447.240962 
L 633.855179 447.240962 
L 633.855179 391.604263 
L 611.48125 391.604263 
z
" clip-path="url(#p31aab3090f)" style="fill: #ebebeb"/>
   </g>
   <g id="patch_186">
    <path d="M 656.229107 467.197604 
L 678.603036 467.197604 
L 678.603036 391.604263 
L 656.229107 391.604263 
z
" clip-path="url(#p31aab3090f)" style="fill: #ebebeb"/>
   </g>
   <g id="patch_187">
    <path d="M 376.555 694.28 
L 376.555 376.470476 
" style="fill: none; stroke: #000000; stroke-width: 0.8; stroke-linejoin: miter; stroke-linecap: square"/>
   </g>
   <g id="patch_188">
    <path d="M 376.555 694.28 
L 689.79 694.28 
" style="fill: none; stroke: #000000; stroke-width: 0.8; stroke-linejoin: miter; stroke-linecap: square"/>
   </g>
   <g id="text_62">
    <!-- Subsecretara CTCI -->
    <g style="fill: #37539c" transform="translate(477.171875 370.470476) scale(0.12 -0.12)">
     <defs>
      <path id="OpenSans-Bold-62" d="M 1453 4863 
L 1453 3731 
Q 1453 3534 1442 3340 
Q 1431 3147 1416 3041 
L 1453 3041 
Q 1591 3256 1828 3407 
Q 2066 3559 2444 3559 
Q 3031 3559 3397 3100 
Q 3763 2641 3763 1753 
Q 3763 1156 3594 751 
Q 3425 347 3122 142 
Q 2819 -63 2419 -63 
Q 2034 -63 1812 75 
Q 1591 213 1453 384 
L 1388 384 
L 1228 0 
L 500 0 
L 500 4863 
L 1453 4863 
z
M 2138 2797 
Q 1888 2797 1741 2694 
Q 1594 2591 1526 2384 
Q 1459 2178 1453 1863 
L 1453 1759 
Q 1453 1250 1603 979 
Q 1753 709 2150 709 
Q 2444 709 2617 981 
Q 2791 1253 2791 1766 
Q 2791 2278 2616 2537 
Q 2441 2797 2138 2797 
z
" transform="scale(0.015625)"/>
      <path id="OpenSans-Bold-ed" d="M 1453 0 
L 500 0 
L 500 3494 
L 1453 3494 
L 1453 0 
z
M 2203 4903 
L 2203 4838 
Q 2113 4750 1966 4622 
Q 1819 4494 1650 4355 
Q 1482 4216 1319 4089 
Q 1157 3963 1035 3878 
L 400 3878 
L 400 3963 
Q 503 4081 639 4245 
Q 775 4409 909 4584 
Q 1044 4759 1135 4903 
L 2203 4903 
z
" transform="scale(0.015625)"/>
      <path id="OpenSans-Bold-54" d="M 2338 0 
L 1369 0 
L 1369 3763 
L 128 3763 
L 128 4569 
L 3578 4569 
L 3578 3763 
L 2338 3763 
L 2338 0 
z
" transform="scale(0.015625)"/>
     </defs>
     <use xlink:href="#OpenSans-Bold-53"/>
     <use xlink:href="#OpenSans-Bold-75" x="55.078125"/>
     <use xlink:href="#OpenSans-Bold-62" x="120.800781"/>
     <use xlink:href="#OpenSans-Bold-73" x="184.082031"/>
     <use xlink:href="#OpenSans-Bold-65" x="233.789062"/>
     <use xlink:href="#OpenSans-Bold-63" x="292.871094"/>
     <use xlink:href="#OpenSans-Bold-72" x="344.287109"/>
     <use xlink:href="#OpenSans-Bold-65" x="389.697266"/>
     <use xlink:href="#OpenSans-Bold-74" x="448.779297"/>
     <use xlink:href="#OpenSans-Bold-61" x="492.1875"/>
     <use xlink:href="#OpenSans-Bold-72" x="552.587891"/>
     <use xlink:href="#OpenSans-Bold-ed" x="597.998047"/>
     <use xlink:href="#OpenSans-Bold-61" x="628.515625"/>
     <use xlink:href="#OpenSans-Bold-20" x="688.916016"/>
     <use xlink:href="#OpenSans-Bold-43" x="714.892578"/>
     <use xlink:href="#OpenSans-Bold-54" x="778.613281"/>
     <use xlink:href="#OpenSans-Bold-43" x="836.523438"/>
     <use xlink:href="#OpenSans-Bold-49" x="900.244141"/>
    </g>
   </g>
  </g>
 </g>
 <defs>
  <clipPath id="pfeea8157b3">
   <rect x="31.66" y="26.88" width="313.235" height="317.809524"/>
  </clipPath>
  <clipPath id="p01b116ee06">
   <rect x="376.555" y="26.88" width="313.235" height="317.809524"/>
  </clipPath>
  <clipPath id="p378ba60e69">
   <rect x="31.66" y="376.470476" width="313.235" height="317.809524"/>
  </clipPath>
  <clipPath id="p31aab3090f">
   <rect x="376.555" y="376.470476" width="313.235" height="317.809524"/>
  </clipPath>
 </defs>
</svg>
