<?xml version="1.0" encoding="utf-8" standalone="no"?>
<!DOCTYPE svg PUBLIC "-//W3C//DTD SVG 1.1//EN"
  "http://www.w3.org/Graphics/SVG/1.1/DTD/svg11.dtd">
<svg xmlns:xlink="http://www.w3.org/1999/xlink" width="576pt" height="216pt" viewBox="0 0 576 216" xmlns="http://www.w3.org/2000/svg" version="1.1">
 <metadata>
  <rdf:RDF xmlns:dc="http://purl.org/dc/elements/1.1/" xmlns:cc="http://creativecommons.org/ns#" xmlns:rdf="http://www.w3.org/1999/02/22-rdf-syntax-ns#">
   <cc:Work>
    <dc:type rdf:resource="http://purl.org/dc/dcmitype/StillImage"/>
    <dc:date>2024-02-26T21:22:31.588560</dc:date>
    <dc:format>image/svg+xml</dc:format>
    <dc:creator>
     <cc:Agent>
      <dc:title>Matplotlib v3.7.1, https://matplotlib.org/</dc:title>
     </cc:Agent>
    </dc:creator>
   </cc:Work>
  </rdf:RDF>
 </metadata>
 <defs>
  <style type="text/css">*{stroke-linejoin: round; stroke-linecap: butt}</style>
 </defs>
 <g id="figure_1">
  <g id="patch_1">
   <path d="M 0 216 
L 576 216 
L 576 0 
L 0 0 
z
" style="fill: #ffffff"/>
  </g>
  <g id="axes_1">
   <g id="patch_2">
    <path d="M 266.65 188.12 
L 565.2 188.12 
L 565.2 26.88 
L 266.65 26.88 
z
" style="fill: #ffffff"/>
   </g>
   <g id="matplotlib.axis_1">
    <g id="xtick_1">
     <g id="line2d_1">
      <path d="M 266.65 188.12 
L 266.65 26.88 
" clip-path="url(#p91affe087f)" style="fill: none; stroke-dasharray: 2.96,1.28; stroke-dashoffset: 0; stroke: #b0b0b0; stroke-width: 0.8"/>
     </g>
     <g id="line2d_2">
      <defs>
       <path id="mbd2c474840" d="M 0 0 
L 0 3.5 
" style="stroke: #37539c; stroke-width: 0.8"/>
      </defs>
      <g>
       <use xlink:href="#mbd2c474840" x="266.65" y="188.12" style="fill: #37539c; stroke: #37539c; stroke-width: 0.8"/>
      </g>
     </g>
     <g id="text_1">
      <!-- 0 -->
      <g style="fill: #37539c" transform="translate(263.791406 202.718437) scale(0.1 -0.1)">
       <defs>
        <path id="OpenSans-Bold-30" d="M 3425 2284 
Q 3425 1731 3339 1297 
Q 3253 863 3064 559 
Q 2875 256 2569 96 
Q 2263 -63 1825 -63 
Q 1275 -63 922 217 
Q 569 497 400 1023 
Q 231 1550 231 2284 
Q 231 3025 386 3551 
Q 541 4078 891 4359 
Q 1241 4641 1825 4641 
Q 2372 4641 2726 4361 
Q 3081 4081 3253 3554 
Q 3425 3028 3425 2284 
z
M 1191 2284 
Q 1191 1763 1248 1414 
Q 1306 1066 1443 891 
Q 1581 716 1825 716 
Q 2066 716 2205 889 
Q 2344 1063 2403 1411 
Q 2463 1759 2463 2284 
Q 2463 2806 2403 3156 
Q 2344 3506 2205 3682 
Q 2066 3859 1825 3859 
Q 1581 3859 1443 3682 
Q 1306 3506 1248 3156 
Q 1191 2806 1191 2284 
z
" transform="scale(0.015625)"/>
       </defs>
       <use xlink:href="#OpenSans-Bold-30"/>
      </g>
     </g>
    </g>
    <g id="xtick_2">
     <g id="line2d_3">
      <path d="M 306.456667 188.12 
L 306.456667 26.88 
" clip-path="url(#p91affe087f)" style="fill: none; stroke-dasharray: 2.96,1.28; stroke-dashoffset: 0; stroke: #b0b0b0; stroke-width: 0.8"/>
     </g>
     <g id="line2d_4">
      <g>
       <use xlink:href="#mbd2c474840" x="306.456667" y="188.12" style="fill: #37539c; stroke: #37539c; stroke-width: 0.8"/>
      </g>
     </g>
     <g id="text_2">
      <!-- 20 -->
      <g style="fill: #37539c" transform="translate(300.739479 202.718437) scale(0.1 -0.1)">
       <defs>
        <path id="OpenSans-Bold-32" d="M 3450 0 
L 256 0 
L 256 672 
L 1403 1831 
Q 1750 2188 1961 2427 
Q 2172 2666 2267 2862 
Q 2363 3059 2363 3284 
Q 2363 3556 2211 3692 
Q 2059 3828 1806 3828 
Q 1541 3828 1291 3706 
Q 1041 3584 769 3359 
L 244 3981 
Q 441 4150 661 4300 
Q 881 4450 1173 4542 
Q 1466 4634 1875 4634 
Q 2325 4634 2648 4471 
Q 2972 4309 3147 4029 
Q 3322 3750 3322 3397 
Q 3322 3019 3172 2706 
Q 3022 2394 2736 2087 
Q 2450 1781 2047 1409 
L 1459 856 
L 1459 813 
L 3450 813 
L 3450 0 
z
" transform="scale(0.015625)"/>
       </defs>
       <use xlink:href="#OpenSans-Bold-32"/>
       <use xlink:href="#OpenSans-Bold-30" x="57.177734"/>
      </g>
     </g>
    </g>
    <g id="xtick_3">
     <g id="line2d_5">
      <path d="M 346.263333 188.12 
L 346.263333 26.88 
" clip-path="url(#p91affe087f)" style="fill: none; stroke-dasharray: 2.96,1.28; stroke-dashoffset: 0; stroke: #b0b0b0; stroke-width: 0.8"/>
     </g>
     <g id="line2d_6">
      <g>
       <use xlink:href="#mbd2c474840" x="346.263333" y="188.12" style="fill: #37539c; stroke: #37539c; stroke-width: 0.8"/>
      </g>
     </g>
     <g id="text_3">
      <!-- 40 -->
      <g style="fill: #37539c" transform="translate(340.546146 202.718437) scale(0.1 -0.1)">
       <defs>
        <path id="OpenSans-Bold-34" d="M 3553 947 
L 3003 947 
L 3003 0 
L 2059 0 
L 2059 947 
L 109 947 
L 109 1619 
L 2113 4569 
L 3003 4569 
L 3003 1697 
L 3553 1697 
L 3553 947 
z
M 2059 1697 
L 2059 2472 
Q 2059 2581 2064 2731 
Q 2069 2881 2075 3031 
Q 2081 3181 2089 3298 
Q 2097 3416 2100 3463 
L 2075 3463 
Q 2016 3334 1950 3214 
Q 1884 3094 1797 2963 
L 959 1697 
L 2059 1697 
z
" transform="scale(0.015625)"/>
       </defs>
       <use xlink:href="#OpenSans-Bold-34"/>
       <use xlink:href="#OpenSans-Bold-30" x="57.177734"/>
      </g>
     </g>
    </g>
    <g id="xtick_4">
     <g id="line2d_7">
      <path d="M 386.07 188.12 
L 386.07 26.88 
" clip-path="url(#p91affe087f)" style="fill: none; stroke-dasharray: 2.96,1.28; stroke-dashoffset: 0; stroke: #b0b0b0; stroke-width: 0.8"/>
     </g>
     <g id="line2d_8">
      <g>
       <use xlink:href="#mbd2c474840" x="386.07" y="188.12" style="fill: #37539c; stroke: #37539c; stroke-width: 0.8"/>
      </g>
     </g>
     <g id="text_4">
      <!-- 60 -->
      <g style="fill: #37539c" transform="translate(380.352812 202.718437) scale(0.1 -0.1)">
       <defs>
        <path id="OpenSans-Bold-36" d="M 225 1941 
Q 225 2334 283 2720 
Q 341 3106 484 3448 
Q 628 3791 887 4055 
Q 1147 4319 1547 4470 
Q 1947 4622 2516 4622 
Q 2650 4622 2829 4611 
Q 3009 4600 3128 4575 
L 3128 3803 
Q 3003 3831 2861 3848 
Q 2719 3866 2578 3866 
Q 2009 3866 1698 3684 
Q 1388 3503 1261 3183 
Q 1134 2863 1113 2438 
L 1153 2438 
Q 1241 2591 1373 2709 
Q 1506 2828 1697 2898 
Q 1888 2969 2144 2969 
Q 2544 2969 2837 2798 
Q 3131 2628 3290 2306 
Q 3450 1984 3450 1522 
Q 3450 1028 3259 672 
Q 3069 316 2720 126 
Q 2372 -63 1894 -63 
Q 1544 -63 1241 57 
Q 938 178 709 425 
Q 481 672 353 1048 
Q 225 1425 225 1941 
z
M 1875 709 
Q 2159 709 2337 903 
Q 2516 1097 2516 1509 
Q 2516 1844 2361 2036 
Q 2206 2228 1894 2228 
Q 1681 2228 1520 2133 
Q 1359 2038 1271 1892 
Q 1184 1747 1184 1594 
Q 1184 1434 1228 1278 
Q 1272 1122 1359 994 
Q 1447 866 1576 787 
Q 1706 709 1875 709 
z
" transform="scale(0.015625)"/>
       </defs>
       <use xlink:href="#OpenSans-Bold-36"/>
       <use xlink:href="#OpenSans-Bold-30" x="57.177734"/>
      </g>
     </g>
    </g>
    <g id="xtick_5">
     <g id="line2d_9">
      <path d="M 425.876667 188.12 
L 425.876667 26.88 
" clip-path="url(#p91affe087f)" style="fill: none; stroke-dasharray: 2.96,1.28; stroke-dashoffset: 0; stroke: #b0b0b0; stroke-width: 0.8"/>
     </g>
     <g id="line2d_10">
      <g>
       <use xlink:href="#mbd2c474840" x="425.876667" y="188.12" style="fill: #37539c; stroke: #37539c; stroke-width: 0.8"/>
      </g>
     </g>
     <g id="text_5">
      <!-- 80 -->
      <g style="fill: #37539c" transform="translate(420.159479 202.718437) scale(0.1 -0.1)">
       <defs>
        <path id="OpenSans-Bold-38" d="M 1831 4628 
Q 2225 4628 2558 4506 
Q 2891 4384 3091 4139 
Q 3291 3894 3291 3525 
Q 3291 3250 3183 3044 
Q 3075 2838 2890 2683 
Q 2706 2528 2472 2413 
Q 2716 2284 2934 2114 
Q 3153 1944 3292 1716 
Q 3431 1488 3431 1184 
Q 3431 803 3228 523 
Q 3025 244 2665 90 
Q 2306 -63 1831 -63 
Q 1319 -63 959 84 
Q 600 231 412 504 
Q 225 778 225 1159 
Q 225 1472 342 1703 
Q 459 1934 659 2101 
Q 859 2269 1100 2388 
Q 897 2516 730 2678 
Q 563 2841 464 3050 
Q 366 3259 366 3531 
Q 366 3894 570 4137 
Q 775 4381 1109 4504 
Q 1444 4628 1831 4628 
z
M 1119 1216 
Q 1119 969 1295 808 
Q 1472 647 1819 647 
Q 2178 647 2356 801 
Q 2534 956 2534 1209 
Q 2534 1384 2432 1515 
Q 2331 1647 2178 1751 
Q 2025 1856 1869 1947 
L 1784 1991 
Q 1584 1900 1436 1787 
Q 1288 1675 1203 1534 
Q 1119 1394 1119 1216 
z
M 1825 3922 
Q 1588 3922 1431 3800 
Q 1275 3678 1275 3456 
Q 1275 3300 1351 3183 
Q 1428 3066 1554 2978 
Q 1681 2891 1831 2816 
Q 1975 2884 2100 2968 
Q 2225 3053 2303 3172 
Q 2381 3291 2381 3456 
Q 2381 3678 2223 3800 
Q 2066 3922 1825 3922 
z
" transform="scale(0.015625)"/>
       </defs>
       <use xlink:href="#OpenSans-Bold-38"/>
       <use xlink:href="#OpenSans-Bold-30" x="57.177734"/>
      </g>
     </g>
    </g>
    <g id="xtick_6">
     <g id="line2d_11">
      <path d="M 465.683333 188.12 
L 465.683333 26.88 
" clip-path="url(#p91affe087f)" style="fill: none; stroke-dasharray: 2.96,1.28; stroke-dashoffset: 0; stroke: #b0b0b0; stroke-width: 0.8"/>
     </g>
     <g id="line2d_12">
      <g>
       <use xlink:href="#mbd2c474840" x="465.683333" y="188.12" style="fill: #37539c; stroke: #37539c; stroke-width: 0.8"/>
      </g>
     </g>
     <g id="text_6">
      <!-- 100 -->
      <g style="fill: #37539c" transform="translate(457.107552 202.718437) scale(0.1 -0.1)">
       <defs>
        <path id="OpenSans-Bold-31" d="M 2644 0 
L 1678 0 
L 1678 2644 
Q 1678 2753 1681 2914 
Q 1684 3075 1690 3245 
Q 1697 3416 1703 3553 
Q 1669 3513 1564 3414 
Q 1459 3316 1369 3238 
L 844 2816 
L 378 3397 
L 1850 4569 
L 2644 4569 
L 2644 0 
z
" transform="scale(0.015625)"/>
       </defs>
       <use xlink:href="#OpenSans-Bold-31"/>
       <use xlink:href="#OpenSans-Bold-30" x="57.177734"/>
       <use xlink:href="#OpenSans-Bold-30" x="114.355469"/>
      </g>
     </g>
    </g>
    <g id="xtick_7">
     <g id="line2d_13">
      <path d="M 505.49 188.12 
L 505.49 26.88 
" clip-path="url(#p91affe087f)" style="fill: none; stroke-dasharray: 2.96,1.28; stroke-dashoffset: 0; stroke: #b0b0b0; stroke-width: 0.8"/>
     </g>
     <g id="line2d_14">
      <g>
       <use xlink:href="#mbd2c474840" x="505.49" y="188.12" style="fill: #37539c; stroke: #37539c; stroke-width: 0.8"/>
      </g>
     </g>
     <g id="text_7">
      <!-- 120 -->
      <g style="fill: #37539c" transform="translate(496.914219 202.718437) scale(0.1 -0.1)">
       <use xlink:href="#OpenSans-Bold-31"/>
       <use xlink:href="#OpenSans-Bold-32" x="57.177734"/>
       <use xlink:href="#OpenSans-Bold-30" x="114.355469"/>
      </g>
     </g>
    </g>
    <g id="xtick_8">
     <g id="line2d_15">
      <path d="M 545.296667 188.12 
L 545.296667 26.88 
" clip-path="url(#p91affe087f)" style="fill: none; stroke-dasharray: 2.96,1.28; stroke-dashoffset: 0; stroke: #b0b0b0; stroke-width: 0.8"/>
     </g>
     <g id="line2d_16">
      <g>
       <use xlink:href="#mbd2c474840" x="545.296667" y="188.12" style="fill: #37539c; stroke: #37539c; stroke-width: 0.8"/>
      </g>
     </g>
     <g id="text_8">
      <!-- 140 -->
      <g style="fill: #37539c" transform="translate(536.720885 202.718437) scale(0.1 -0.1)">
       <use xlink:href="#OpenSans-Bold-31"/>
       <use xlink:href="#OpenSans-Bold-34" x="57.177734"/>
       <use xlink:href="#OpenSans-Bold-30" x="114.355469"/>
      </g>
     </g>
    </g>
   </g>
   <g id="matplotlib.axis_2">
    <g id="ytick_1">
     <g id="line2d_17">
      <defs>
       <path id="m7c9ba66d43" d="M 0 0 
L -3.5 0 
" style="stroke: #37539c; stroke-width: 0.8"/>
      </defs>
      <g>
       <use xlink:href="#m7c9ba66d43" x="266.65" y="174.683333" style="fill: #37539c; stroke: #37539c; stroke-width: 0.8"/>
      </g>
     </g>
     <g id="text_9">
      <!-- Otros -->
      <g style="fill: #37539c" transform="translate(231.646875 178.482552) scale(0.1 -0.1)">
       <defs>
        <path id="OpenSans-Bold-4f" d="M 4722 2291 
Q 4722 1763 4590 1330 
Q 4459 897 4192 584 
Q 3925 272 3515 104 
Q 3106 -63 2547 -63 
Q 1988 -63 1578 104 
Q 1169 272 901 584 
Q 634 897 503 1331 
Q 372 1766 372 2297 
Q 372 3006 605 3532 
Q 838 4059 1322 4350 
Q 1806 4641 2553 4641 
Q 3297 4641 3776 4350 
Q 4256 4059 4489 3531 
Q 4722 3003 4722 2291 
z
M 1388 2291 
Q 1388 1813 1508 1467 
Q 1628 1122 1884 936 
Q 2141 750 2547 750 
Q 2959 750 3215 936 
Q 3472 1122 3589 1467 
Q 3706 1813 3706 2291 
Q 3706 3009 3437 3421 
Q 3169 3834 2553 3834 
Q 2144 3834 1886 3648 
Q 1628 3463 1508 3117 
Q 1388 2772 1388 2291 
z
" transform="scale(0.015625)"/>
        <path id="OpenSans-Bold-74" d="M 1972 697 
Q 2128 697 2276 728 
Q 2425 759 2572 806 
L 2572 97 
Q 2419 28 2192 -17 
Q 1966 -63 1697 -63 
Q 1384 -63 1136 39 
Q 888 141 745 392 
Q 603 644 603 1094 
L 603 2778 
L 147 2778 
L 147 3181 
L 672 3500 
L 947 4238 
L 1556 4238 
L 1556 3494 
L 2534 3494 
L 2534 2778 
L 1556 2778 
L 1556 1094 
Q 1556 894 1670 795 
Q 1784 697 1972 697 
z
" transform="scale(0.015625)"/>
        <path id="OpenSans-Bold-72" d="M 2450 3559 
Q 2522 3559 2617 3551 
Q 2713 3544 2772 3531 
L 2700 2638 
Q 2653 2653 2567 2661 
Q 2481 2669 2419 2669 
Q 2234 2669 2061 2622 
Q 1888 2575 1750 2470 
Q 1613 2366 1533 2195 
Q 1453 2025 1453 1778 
L 1453 0 
L 500 0 
L 500 3494 
L 1222 3494 
L 1363 2906 
L 1409 2906 
Q 1513 3084 1667 3232 
Q 1822 3381 2020 3470 
Q 2219 3559 2450 3559 
z
" transform="scale(0.015625)"/>
        <path id="OpenSans-Bold-6f" d="M 3675 1753 
Q 3675 1316 3558 978 
Q 3441 641 3217 408 
Q 2994 175 2680 56 
Q 2366 -63 1972 -63 
Q 1603 -63 1295 56 
Q 988 175 761 408 
Q 534 641 411 978 
Q 288 1316 288 1753 
Q 288 2334 494 2737 
Q 700 3141 1081 3350 
Q 1463 3559 1991 3559 
Q 2481 3559 2861 3350 
Q 3241 3141 3458 2737 
Q 3675 2334 3675 1753 
z
M 1259 1753 
Q 1259 1409 1334 1175 
Q 1409 941 1568 822 
Q 1728 703 1984 703 
Q 2238 703 2395 822 
Q 2553 941 2626 1175 
Q 2700 1409 2700 1753 
Q 2700 2100 2626 2329 
Q 2553 2559 2393 2675 
Q 2234 2791 1978 2791 
Q 1600 2791 1429 2531 
Q 1259 2272 1259 1753 
z
" transform="scale(0.015625)"/>
        <path id="OpenSans-Bold-73" d="M 2938 1038 
Q 2938 681 2770 436 
Q 2603 191 2272 64 
Q 1941 -63 1447 -63 
Q 1081 -63 820 -16 
Q 559 31 294 141 
L 294 928 
Q 578 800 904 717 
Q 1231 634 1478 634 
Q 1756 634 1876 717 
Q 1997 800 1997 934 
Q 1997 1022 1948 1092 
Q 1900 1163 1740 1252 
Q 1581 1341 1241 1484 
Q 913 1622 702 1762 
Q 491 1903 389 2095 
Q 288 2288 288 2584 
Q 288 3069 664 3314 
Q 1041 3559 1672 3559 
Q 1997 3559 2292 3493 
Q 2588 3428 2900 3284 
L 2613 2597 
Q 2353 2709 2123 2781 
Q 1894 2853 1656 2853 
Q 1447 2853 1340 2797 
Q 1234 2741 1234 2625 
Q 1234 2541 1289 2475 
Q 1344 2409 1501 2329 
Q 1659 2250 1966 2125 
Q 2263 2003 2481 1870 
Q 2700 1738 2819 1542 
Q 2938 1347 2938 1038 
z
" transform="scale(0.015625)"/>
       </defs>
       <use xlink:href="#OpenSans-Bold-4f"/>
       <use xlink:href="#OpenSans-Bold-74" x="79.589844"/>
       <use xlink:href="#OpenSans-Bold-72" x="122.998047"/>
       <use xlink:href="#OpenSans-Bold-6f" x="168.408203"/>
       <use xlink:href="#OpenSans-Bold-73" x="230.322266"/>
      </g>
     </g>
    </g>
    <g id="ytick_2">
     <g id="line2d_18">
      <g>
       <use xlink:href="#m7c9ba66d43" x="266.65" y="147.81" style="fill: #37539c; stroke: #37539c; stroke-width: 0.8"/>
      </g>
     </g>
     <g id="text_10">
      <!-- Microscopios y Difractómetros -->
      <g style="fill: #37539c" transform="translate(107.209375 151.640469) scale(0.1 -0.1)">
       <defs>
        <path id="OpenSans-Bold-4d" d="M 2509 0 
L 1409 3584 
L 1381 3584 
Q 1388 3456 1402 3198 
Q 1416 2941 1428 2650 
Q 1441 2359 1441 2125 
L 1441 0 
L 575 0 
L 575 4569 
L 1894 4569 
L 2975 1075 
L 2994 1075 
L 4141 4569 
L 5459 4569 
L 5459 0 
L 4556 0 
L 4556 2163 
Q 4556 2378 4564 2659 
Q 4572 2941 4584 3195 
Q 4597 3450 4603 3578 
L 4575 3578 
L 3397 0 
L 2509 0 
z
" transform="scale(0.015625)"/>
        <path id="OpenSans-Bold-69" d="M 1453 3494 
L 1453 0 
L 500 0 
L 500 3494 
L 1453 3494 
z
M 978 4863 
Q 1191 4863 1344 4764 
Q 1497 4666 1497 4397 
Q 1497 4131 1344 4029 
Q 1191 3928 978 3928 
Q 763 3928 611 4029 
Q 459 4131 459 4397 
Q 459 4666 611 4764 
Q 763 4863 978 4863 
z
" transform="scale(0.015625)"/>
        <path id="OpenSans-Bold-63" d="M 1919 -63 
Q 1400 -63 1034 126 
Q 669 316 478 712 
Q 288 1109 288 1728 
Q 288 2369 505 2773 
Q 722 3178 1108 3368 
Q 1494 3559 2003 3559 
Q 2366 3559 2630 3489 
Q 2894 3419 3091 3322 
L 2809 2584 
Q 2584 2675 2390 2733 
Q 2197 2791 2003 2791 
Q 1753 2791 1587 2673 
Q 1422 2556 1340 2322 
Q 1259 2088 1259 1734 
Q 1259 1388 1346 1159 
Q 1434 931 1600 820 
Q 1766 709 2003 709 
Q 2300 709 2531 789 
Q 2763 869 2981 1013 
L 2981 197 
Q 2763 59 2523 -2 
Q 2284 -63 1919 -63 
z
" transform="scale(0.015625)"/>
        <path id="OpenSans-Bold-70" d="M 2444 3559 
Q 3034 3559 3398 3100 
Q 3763 2641 3763 1753 
Q 3763 1159 3591 754 
Q 3419 350 3116 143 
Q 2813 -63 2419 -63 
Q 2166 -63 1984 1 
Q 1803 66 1675 167 
Q 1547 269 1453 384 
L 1403 384 
Q 1428 259 1440 128 
Q 1453 -3 1453 -128 
L 1453 -1538 
L 500 -1538 
L 500 3494 
L 1275 3494 
L 1409 3041 
L 1453 3041 
Q 1547 3181 1681 3300 
Q 1816 3419 2005 3489 
Q 2194 3559 2444 3559 
z
M 2138 2797 
Q 1888 2797 1741 2694 
Q 1594 2591 1526 2384 
Q 1459 2178 1453 1863 
L 1453 1759 
Q 1453 1422 1517 1187 
Q 1581 953 1732 831 
Q 1884 709 2150 709 
Q 2369 709 2509 831 
Q 2650 953 2720 1189 
Q 2791 1425 2791 1766 
Q 2791 2278 2631 2537 
Q 2472 2797 2138 2797 
z
" transform="scale(0.015625)"/>
        <path id="OpenSans-Bold-20" transform="scale(0.015625)"/>
        <path id="OpenSans-Bold-79" d="M 0 3494 
L 1044 3494 
L 1703 1528 
Q 1734 1434 1756 1337 
Q 1778 1241 1793 1137 
Q 1809 1034 1819 922 
L 1838 922 
Q 1856 1091 1889 1237 
Q 1922 1384 1972 1528 
L 2619 3494 
L 3641 3494 
L 2163 -447 
Q 2028 -809 1812 -1051 
Q 1597 -1294 1317 -1416 
Q 1038 -1538 703 -1538 
Q 541 -1538 422 -1520 
Q 303 -1503 219 -1484 
L 219 -728 
Q 284 -744 384 -756 
Q 484 -769 594 -769 
Q 794 -769 937 -684 
Q 1081 -600 1178 -458 
Q 1275 -316 1331 -147 
L 1388 25 
L 0 3494 
z
" transform="scale(0.015625)"/>
        <path id="OpenSans-Bold-44" d="M 4366 2328 
Q 4366 1556 4070 1039 
Q 3775 522 3215 261 
Q 2656 0 1869 0 
L 575 0 
L 575 4569 
L 2009 4569 
Q 2728 4569 3256 4314 
Q 3784 4059 4075 3561 
Q 4366 3063 4366 2328 
z
M 3359 2303 
Q 3359 2809 3211 3136 
Q 3063 3463 2773 3619 
Q 2484 3775 2059 3775 
L 1544 3775 
L 1544 800 
L 1959 800 
Q 2669 800 3014 1178 
Q 3359 1556 3359 2303 
z
" transform="scale(0.015625)"/>
        <path id="OpenSans-Bold-66" d="M 2431 2778 
L 1606 2778 
L 1606 0 
L 653 0 
L 653 2778 
L 128 2778 
L 128 3238 
L 653 3494 
L 653 3750 
Q 653 4197 804 4445 
Q 956 4694 1232 4795 
Q 1509 4897 1888 4897 
Q 2166 4897 2394 4851 
Q 2622 4806 2766 4750 
L 2522 4050 
Q 2413 4084 2284 4112 
Q 2156 4141 1991 4141 
Q 1791 4141 1698 4020 
Q 1606 3900 1606 3713 
L 1606 3494 
L 2431 3494 
L 2431 2778 
z
" transform="scale(0.015625)"/>
        <path id="OpenSans-Bold-61" d="M 1931 3566 
Q 2634 3566 3009 3259 
Q 3384 2953 3384 2328 
L 3384 0 
L 2719 0 
L 2534 475 
L 2509 475 
Q 2359 288 2203 169 
Q 2047 50 1844 -6 
Q 1641 -63 1350 -63 
Q 1041 -63 795 56 
Q 550 175 409 420 
Q 269 666 269 1044 
Q 269 1600 659 1864 
Q 1050 2128 1831 2156 
L 2438 2175 
L 2438 2328 
Q 2438 2603 2294 2731 
Q 2150 2859 1894 2859 
Q 1641 2859 1397 2787 
Q 1153 2716 909 2606 
L 594 3250 
Q 872 3397 1217 3481 
Q 1563 3566 1931 3566 
z
M 2438 1619 
L 2069 1606 
Q 1606 1594 1426 1441 
Q 1247 1288 1247 1038 
Q 1247 819 1375 726 
Q 1503 634 1709 634 
Q 2016 634 2227 815 
Q 2438 997 2438 1331 
L 2438 1619 
z
" transform="scale(0.015625)"/>
        <path id="OpenSans-Bold-f3" d="M 3675 1753 
Q 3675 1316 3558 978 
Q 3441 641 3217 408 
Q 2994 175 2680 56 
Q 2366 -63 1972 -63 
Q 1603 -63 1295 56 
Q 988 175 761 408 
Q 534 641 411 978 
Q 288 1316 288 1753 
Q 288 2334 494 2737 
Q 700 3141 1081 3350 
Q 1463 3559 1991 3559 
Q 2481 3559 2861 3350 
Q 3241 3141 3458 2737 
Q 3675 2334 3675 1753 
z
M 1259 1753 
Q 1259 1409 1334 1175 
Q 1409 941 1568 822 
Q 1728 703 1984 703 
Q 2238 703 2395 822 
Q 2553 941 2626 1175 
Q 2700 1409 2700 1753 
Q 2700 2100 2626 2329 
Q 2553 2559 2393 2675 
Q 2234 2791 1978 2791 
Q 1600 2791 1429 2531 
Q 1259 2272 1259 1753 
z
M 3211 4903 
L 3211 4838 
Q 3121 4750 2974 4622 
Q 2827 4494 2658 4355 
Q 2490 4216 2327 4089 
Q 2165 3963 2043 3878 
L 1408 3878 
L 1408 3963 
Q 1511 4081 1647 4245 
Q 1783 4409 1917 4584 
Q 2052 4759 2143 4903 
L 3211 4903 
z
" transform="scale(0.015625)"/>
        <path id="OpenSans-Bold-6d" d="M 4603 3559 
Q 5197 3559 5501 3254 
Q 5806 2950 5806 2278 
L 5806 0 
L 4850 0 
L 4850 2041 
Q 4850 2416 4722 2606 
Q 4594 2797 4325 2797 
Q 3947 2797 3787 2526 
Q 3628 2256 3628 1753 
L 3628 0 
L 2675 0 
L 2675 2041 
Q 2675 2291 2619 2459 
Q 2563 2628 2447 2712 
Q 2331 2797 2150 2797 
Q 1884 2797 1732 2664 
Q 1581 2531 1517 2273 
Q 1453 2016 1453 1644 
L 1453 0 
L 500 0 
L 500 3494 
L 1228 3494 
L 1356 3047 
L 1409 3047 
Q 1516 3228 1677 3340 
Q 1838 3453 2031 3506 
Q 2225 3559 2425 3559 
Q 2809 3559 3076 3434 
Q 3344 3309 3488 3047 
L 3572 3047 
Q 3728 3316 4014 3437 
Q 4300 3559 4603 3559 
z
" transform="scale(0.015625)"/>
        <path id="OpenSans-Bold-65" d="M 1941 3559 
Q 2425 3559 2775 3373 
Q 3125 3188 3315 2834 
Q 3506 2481 3506 1972 
L 3506 1509 
L 1253 1509 
Q 1269 1106 1495 876 
Q 1722 647 2125 647 
Q 2459 647 2737 715 
Q 3016 784 3309 922 
L 3309 184 
Q 3050 56 2767 -3 
Q 2484 -63 2081 -63 
Q 1556 -63 1151 131 
Q 747 325 517 722 
Q 288 1119 288 1722 
Q 288 2334 495 2742 
Q 703 3150 1075 3354 
Q 1447 3559 1941 3559 
z
M 1947 2881 
Q 1669 2881 1486 2703 
Q 1303 2525 1275 2144 
L 2613 2144 
Q 2609 2356 2536 2522 
Q 2463 2688 2317 2784 
Q 2172 2881 1947 2881 
z
" transform="scale(0.015625)"/>
       </defs>
       <use xlink:href="#OpenSans-Bold-4d"/>
       <use xlink:href="#OpenSans-Bold-69" x="94.287109"/>
       <use xlink:href="#OpenSans-Bold-63" x="124.804688"/>
       <use xlink:href="#OpenSans-Bold-72" x="176.220703"/>
       <use xlink:href="#OpenSans-Bold-6f" x="221.630859"/>
       <use xlink:href="#OpenSans-Bold-73" x="283.544922"/>
       <use xlink:href="#OpenSans-Bold-63" x="333.251953"/>
       <use xlink:href="#OpenSans-Bold-6f" x="384.667969"/>
       <use xlink:href="#OpenSans-Bold-70" x="446.582031"/>
       <use xlink:href="#OpenSans-Bold-69" x="509.863281"/>
       <use xlink:href="#OpenSans-Bold-6f" x="540.380859"/>
       <use xlink:href="#OpenSans-Bold-73" x="602.294922"/>
       <use xlink:href="#OpenSans-Bold-20" x="652.001953"/>
       <use xlink:href="#OpenSans-Bold-79" x="677.978516"/>
       <use xlink:href="#OpenSans-Bold-20" x="734.863281"/>
       <use xlink:href="#OpenSans-Bold-44" x="760.839844"/>
       <use xlink:href="#OpenSans-Bold-69" x="834.863281"/>
       <use xlink:href="#OpenSans-Bold-66" x="865.380859"/>
       <use xlink:href="#OpenSans-Bold-72" x="904.101562"/>
       <use xlink:href="#OpenSans-Bold-61" x="949.511719"/>
       <use xlink:href="#OpenSans-Bold-63" x="1009.912109"/>
       <use xlink:href="#OpenSans-Bold-74" x="1061.328125"/>
       <use xlink:href="#OpenSans-Bold-f3" x="1104.736328"/>
       <use xlink:href="#OpenSans-Bold-6d" x="1166.650391"/>
       <use xlink:href="#OpenSans-Bold-65" x="1264.84375"/>
       <use xlink:href="#OpenSans-Bold-74" x="1323.925781"/>
       <use xlink:href="#OpenSans-Bold-72" x="1367.333984"/>
       <use xlink:href="#OpenSans-Bold-6f" x="1412.744141"/>
       <use xlink:href="#OpenSans-Bold-73" x="1474.658203"/>
      </g>
     </g>
    </g>
    <g id="ytick_3">
     <g id="line2d_19">
      <g>
       <use xlink:href="#m7c9ba66d43" x="266.65" y="120.936667" style="fill: #37539c; stroke: #37539c; stroke-width: 0.8"/>
      </g>
     </g>
     <g id="text_11">
      <!-- Instrumentos Bioanalíticos -->
      <g style="fill: #37539c" transform="translate(124.528125 124.735885) scale(0.1 -0.1)">
       <defs>
        <path id="OpenSans-Bold-49" d="M 575 0 
L 575 4569 
L 1544 4569 
L 1544 0 
L 575 0 
z
" transform="scale(0.015625)"/>
        <path id="OpenSans-Bold-6e" d="M 2484 3559 
Q 3044 3559 3384 3254 
Q 3725 2950 3725 2278 
L 3725 0 
L 2772 0 
L 2772 2041 
Q 2772 2416 2636 2606 
Q 2500 2797 2209 2797 
Q 1772 2797 1612 2500 
Q 1453 2203 1453 1644 
L 1453 0 
L 500 0 
L 500 3494 
L 1228 3494 
L 1356 3047 
L 1409 3047 
Q 1522 3228 1689 3340 
Q 1856 3453 2061 3506 
Q 2266 3559 2484 3559 
z
" transform="scale(0.015625)"/>
        <path id="OpenSans-Bold-75" d="M 3706 3494 
L 3706 0 
L 2975 0 
L 2847 447 
L 2797 447 
Q 2684 269 2515 156 
Q 2347 44 2144 -9 
Q 1941 -63 1722 -63 
Q 1347 -63 1069 70 
Q 791 203 636 484 
Q 481 766 481 1216 
L 481 3494 
L 1434 3494 
L 1434 1453 
Q 1434 1078 1568 887 
Q 1703 697 1997 697 
Q 2288 697 2453 830 
Q 2619 963 2686 1220 
Q 2753 1478 2753 1850 
L 2753 3494 
L 3706 3494 
z
" transform="scale(0.015625)"/>
        <path id="OpenSans-Bold-42" d="M 575 4569 
L 1997 4569 
Q 2909 4569 3378 4312 
Q 3847 4056 3847 3413 
Q 3847 3153 3764 2943 
Q 3681 2734 3525 2600 
Q 3369 2466 3144 2425 
L 3144 2394 
Q 3372 2347 3556 2233 
Q 3741 2119 3852 1901 
Q 3963 1684 3963 1325 
Q 3963 909 3759 612 
Q 3556 316 3179 158 
Q 2803 0 2284 0 
L 575 0 
L 575 4569 
z
M 1544 2759 
L 2106 2759 
Q 2528 2759 2690 2892 
Q 2853 3025 2853 3284 
Q 2853 3547 2661 3661 
Q 2469 3775 2053 3775 
L 1544 3775 
L 1544 2759 
z
M 1544 1991 
L 1544 800 
L 2175 800 
Q 2613 800 2784 969 
Q 2956 1138 2956 1422 
Q 2956 1591 2881 1719 
Q 2806 1847 2629 1919 
Q 2453 1991 2144 1991 
L 1544 1991 
z
" transform="scale(0.015625)"/>
        <path id="OpenSans-Bold-6c" d="M 1453 0 
L 500 0 
L 500 4863 
L 1453 4863 
L 1453 0 
z
" transform="scale(0.015625)"/>
        <path id="OpenSans-Bold-ed" d="M 1453 0 
L 500 0 
L 500 3494 
L 1453 3494 
L 1453 0 
z
M 2203 4903 
L 2203 4838 
Q 2113 4750 1966 4622 
Q 1819 4494 1650 4355 
Q 1482 4216 1319 4089 
Q 1157 3963 1035 3878 
L 400 3878 
L 400 3963 
Q 503 4081 639 4245 
Q 775 4409 909 4584 
Q 1044 4759 1135 4903 
L 2203 4903 
z
" transform="scale(0.015625)"/>
       </defs>
       <use xlink:href="#OpenSans-Bold-49"/>
       <use xlink:href="#OpenSans-Bold-6e" x="33.105469"/>
       <use xlink:href="#OpenSans-Bold-73" x="98.828125"/>
       <use xlink:href="#OpenSans-Bold-74" x="148.535156"/>
       <use xlink:href="#OpenSans-Bold-72" x="191.943359"/>
       <use xlink:href="#OpenSans-Bold-75" x="237.353516"/>
       <use xlink:href="#OpenSans-Bold-6d" x="303.076172"/>
       <use xlink:href="#OpenSans-Bold-65" x="401.269531"/>
       <use xlink:href="#OpenSans-Bold-6e" x="460.351562"/>
       <use xlink:href="#OpenSans-Bold-74" x="526.074219"/>
       <use xlink:href="#OpenSans-Bold-6f" x="569.482422"/>
       <use xlink:href="#OpenSans-Bold-73" x="631.396484"/>
       <use xlink:href="#OpenSans-Bold-20" x="681.103516"/>
       <use xlink:href="#OpenSans-Bold-42" x="707.080078"/>
       <use xlink:href="#OpenSans-Bold-69" x="774.267578"/>
       <use xlink:href="#OpenSans-Bold-6f" x="804.785156"/>
       <use xlink:href="#OpenSans-Bold-61" x="866.699219"/>
       <use xlink:href="#OpenSans-Bold-6e" x="927.099609"/>
       <use xlink:href="#OpenSans-Bold-61" x="992.822266"/>
       <use xlink:href="#OpenSans-Bold-6c" x="1053.222656"/>
       <use xlink:href="#OpenSans-Bold-ed" x="1083.740234"/>
       <use xlink:href="#OpenSans-Bold-74" x="1114.257812"/>
       <use xlink:href="#OpenSans-Bold-69" x="1157.666016"/>
       <use xlink:href="#OpenSans-Bold-63" x="1188.183594"/>
       <use xlink:href="#OpenSans-Bold-6f" x="1239.599609"/>
       <use xlink:href="#OpenSans-Bold-73" x="1301.513672"/>
      </g>
     </g>
    </g>
    <g id="ytick_4">
     <g id="line2d_20">
      <g>
       <use xlink:href="#m7c9ba66d43" x="266.65" y="94.063333" style="fill: #37539c; stroke: #37539c; stroke-width: 0.8"/>
      </g>
     </g>
     <g id="text_12">
      <!-- Equipos de Procesamiento y ensayo de Materiales -->
      <g style="fill: #37539c" transform="translate(11.248437 97.862552) scale(0.1 -0.1)">
       <defs>
        <path id="OpenSans-Bold-45" d="M 3206 0 
L 575 0 
L 575 4569 
L 3206 4569 
L 3206 3775 
L 1544 3775 
L 1544 2772 
L 3091 2772 
L 3091 1978 
L 1544 1978 
L 1544 800 
L 3206 800 
L 3206 0 
z
" transform="scale(0.015625)"/>
        <path id="OpenSans-Bold-71" d="M 2597 -1538 
L 2597 -72 
Q 2597 59 2608 192 
Q 2619 325 2638 453 
L 2597 453 
Q 2463 238 2227 87 
Q 1991 -63 1606 -63 
Q 1016 -63 652 395 
Q 288 853 288 1741 
Q 288 2338 456 2742 
Q 625 3147 926 3353 
Q 1228 3559 1625 3559 
Q 2009 3559 2248 3411 
Q 2488 3263 2638 3047 
L 2663 3047 
L 2747 3494 
L 3553 3494 
L 3553 -1538 
L 2597 -1538 
z
M 1947 684 
Q 2209 684 2364 787 
Q 2519 891 2587 1098 
Q 2656 1306 2663 1619 
L 2663 1734 
Q 2663 2244 2506 2514 
Q 2350 2784 1931 2784 
Q 1591 2784 1425 2512 
Q 1259 2241 1259 1728 
Q 1259 1206 1428 945 
Q 1597 684 1947 684 
z
" transform="scale(0.015625)"/>
        <path id="OpenSans-Bold-64" d="M 1606 -63 
Q 1022 -63 655 395 
Q 288 853 288 1741 
Q 288 2638 659 3098 
Q 1031 3559 1631 3559 
Q 1881 3559 2072 3490 
Q 2263 3422 2402 3306 
Q 2541 3191 2638 3047 
L 2669 3047 
Q 2650 3147 2623 3342 
Q 2597 3538 2597 3744 
L 2597 4863 
L 3553 4863 
L 3553 0 
L 2822 0 
L 2638 453 
L 2597 453 
Q 2506 309 2370 192 
Q 2234 75 2046 6 
Q 1859 -63 1606 -63 
z
M 1941 697 
Q 2331 697 2492 930 
Q 2653 1163 2663 1631 
L 2663 1734 
Q 2663 2244 2506 2514 
Q 2350 2784 1925 2784 
Q 1609 2784 1431 2512 
Q 1253 2241 1253 1728 
Q 1253 1216 1433 956 
Q 1613 697 1941 697 
z
" transform="scale(0.015625)"/>
        <path id="OpenSans-Bold-50" d="M 2034 4569 
Q 2919 4569 3325 4189 
Q 3731 3809 3731 3144 
Q 3731 2844 3640 2570 
Q 3550 2297 3345 2084 
Q 3141 1872 2800 1748 
Q 2459 1625 1959 1625 
L 1544 1625 
L 1544 0 
L 575 0 
L 575 4569 
L 2034 4569 
z
M 1984 3775 
L 1544 3775 
L 1544 2419 
L 1863 2419 
Q 2134 2419 2334 2491 
Q 2534 2563 2643 2716 
Q 2753 2869 2753 3109 
Q 2753 3447 2565 3611 
Q 2378 3775 1984 3775 
z
" transform="scale(0.015625)"/>
       </defs>
       <use xlink:href="#OpenSans-Bold-45"/>
       <use xlink:href="#OpenSans-Bold-71" x="56.005859"/>
       <use xlink:href="#OpenSans-Bold-75" x="119.287109"/>
       <use xlink:href="#OpenSans-Bold-69" x="185.009766"/>
       <use xlink:href="#OpenSans-Bold-70" x="215.527344"/>
       <use xlink:href="#OpenSans-Bold-6f" x="278.808594"/>
       <use xlink:href="#OpenSans-Bold-73" x="340.722656"/>
       <use xlink:href="#OpenSans-Bold-20" x="390.429688"/>
       <use xlink:href="#OpenSans-Bold-64" x="416.40625"/>
       <use xlink:href="#OpenSans-Bold-65" x="479.6875"/>
       <use xlink:href="#OpenSans-Bold-20" x="538.769531"/>
       <use xlink:href="#OpenSans-Bold-50" x="564.746094"/>
       <use xlink:href="#OpenSans-Bold-72" x="627.539062"/>
       <use xlink:href="#OpenSans-Bold-6f" x="672.949219"/>
       <use xlink:href="#OpenSans-Bold-63" x="734.863281"/>
       <use xlink:href="#OpenSans-Bold-65" x="786.279297"/>
       <use xlink:href="#OpenSans-Bold-73" x="845.361328"/>
       <use xlink:href="#OpenSans-Bold-61" x="895.068359"/>
       <use xlink:href="#OpenSans-Bold-6d" x="955.46875"/>
       <use xlink:href="#OpenSans-Bold-69" x="1053.662109"/>
       <use xlink:href="#OpenSans-Bold-65" x="1084.179688"/>
       <use xlink:href="#OpenSans-Bold-6e" x="1143.261719"/>
       <use xlink:href="#OpenSans-Bold-74" x="1208.984375"/>
       <use xlink:href="#OpenSans-Bold-6f" x="1252.392578"/>
       <use xlink:href="#OpenSans-Bold-20" x="1314.306641"/>
       <use xlink:href="#OpenSans-Bold-79" x="1340.283203"/>
       <use xlink:href="#OpenSans-Bold-20" x="1397.167969"/>
       <use xlink:href="#OpenSans-Bold-65" x="1423.144531"/>
       <use xlink:href="#OpenSans-Bold-6e" x="1482.226562"/>
       <use xlink:href="#OpenSans-Bold-73" x="1547.949219"/>
       <use xlink:href="#OpenSans-Bold-61" x="1597.65625"/>
       <use xlink:href="#OpenSans-Bold-79" x="1658.056641"/>
       <use xlink:href="#OpenSans-Bold-6f" x="1714.941406"/>
       <use xlink:href="#OpenSans-Bold-20" x="1776.855469"/>
       <use xlink:href="#OpenSans-Bold-64" x="1802.832031"/>
       <use xlink:href="#OpenSans-Bold-65" x="1866.113281"/>
       <use xlink:href="#OpenSans-Bold-20" x="1925.195312"/>
       <use xlink:href="#OpenSans-Bold-4d" x="1951.171875"/>
       <use xlink:href="#OpenSans-Bold-61" x="2045.458984"/>
       <use xlink:href="#OpenSans-Bold-74" x="2105.859375"/>
       <use xlink:href="#OpenSans-Bold-65" x="2149.267578"/>
       <use xlink:href="#OpenSans-Bold-72" x="2208.349609"/>
       <use xlink:href="#OpenSans-Bold-69" x="2253.759766"/>
       <use xlink:href="#OpenSans-Bold-61" x="2284.277344"/>
       <use xlink:href="#OpenSans-Bold-6c" x="2344.677734"/>
       <use xlink:href="#OpenSans-Bold-65" x="2375.195312"/>
       <use xlink:href="#OpenSans-Bold-73" x="2434.277344"/>
      </g>
     </g>
    </g>
    <g id="ytick_5">
     <g id="line2d_21">
      <g>
       <use xlink:href="#m7c9ba66d43" x="266.65" y="67.19" style="fill: #37539c; stroke: #37539c; stroke-width: 0.8"/>
      </g>
     </g>
     <g id="text_13">
      <!-- Equipamiento de informática -->
      <g style="fill: #37539c" transform="translate(113.751562 71.020469) scale(0.1 -0.1)">
       <defs>
        <path id="OpenSans-Bold-e1" d="M 1931 3566 
Q 2634 3566 3009 3259 
Q 3384 2953 3384 2328 
L 3384 0 
L 2719 0 
L 2534 475 
L 2509 475 
Q 2359 288 2203 169 
Q 2047 50 1844 -6 
Q 1641 -63 1350 -63 
Q 1041 -63 795 56 
Q 550 175 409 420 
Q 269 666 269 1044 
Q 269 1600 659 1864 
Q 1050 2128 1831 2156 
L 2438 2175 
L 2438 2328 
Q 2438 2603 2294 2731 
Q 2150 2859 1894 2859 
Q 1641 2859 1397 2787 
Q 1153 2716 909 2606 
L 594 3250 
Q 872 3397 1217 3481 
Q 1563 3566 1931 3566 
z
M 2438 1619 
L 2069 1606 
Q 1606 1594 1426 1441 
Q 1247 1288 1247 1038 
Q 1247 819 1375 726 
Q 1503 634 1709 634 
Q 2016 634 2227 815 
Q 2438 997 2438 1331 
L 2438 1619 
z
M 3163 4903 
L 3163 4838 
Q 3073 4750 2926 4622 
Q 2779 4494 2610 4355 
Q 2442 4216 2279 4089 
Q 2117 3963 1995 3878 
L 1360 3878 
L 1360 3963 
Q 1463 4081 1599 4245 
Q 1735 4409 1869 4584 
Q 2004 4759 2095 4903 
L 3163 4903 
z
" transform="scale(0.015625)"/>
       </defs>
       <use xlink:href="#OpenSans-Bold-45"/>
       <use xlink:href="#OpenSans-Bold-71" x="56.005859"/>
       <use xlink:href="#OpenSans-Bold-75" x="119.287109"/>
       <use xlink:href="#OpenSans-Bold-69" x="185.009766"/>
       <use xlink:href="#OpenSans-Bold-70" x="215.527344"/>
       <use xlink:href="#OpenSans-Bold-61" x="278.808594"/>
       <use xlink:href="#OpenSans-Bold-6d" x="339.208984"/>
       <use xlink:href="#OpenSans-Bold-69" x="437.402344"/>
       <use xlink:href="#OpenSans-Bold-65" x="467.919922"/>
       <use xlink:href="#OpenSans-Bold-6e" x="527.001953"/>
       <use xlink:href="#OpenSans-Bold-74" x="592.724609"/>
       <use xlink:href="#OpenSans-Bold-6f" x="636.132812"/>
       <use xlink:href="#OpenSans-Bold-20" x="698.046875"/>
       <use xlink:href="#OpenSans-Bold-64" x="724.023438"/>
       <use xlink:href="#OpenSans-Bold-65" x="787.304688"/>
       <use xlink:href="#OpenSans-Bold-20" x="846.386719"/>
       <use xlink:href="#OpenSans-Bold-69" x="872.363281"/>
       <use xlink:href="#OpenSans-Bold-6e" x="902.880859"/>
       <use xlink:href="#OpenSans-Bold-66" x="968.603516"/>
       <use xlink:href="#OpenSans-Bold-6f" x="1007.324219"/>
       <use xlink:href="#OpenSans-Bold-72" x="1069.238281"/>
       <use xlink:href="#OpenSans-Bold-6d" x="1114.648438"/>
       <use xlink:href="#OpenSans-Bold-e1" x="1212.841797"/>
       <use xlink:href="#OpenSans-Bold-74" x="1273.242188"/>
       <use xlink:href="#OpenSans-Bold-69" x="1316.650391"/>
       <use xlink:href="#OpenSans-Bold-63" x="1347.167969"/>
       <use xlink:href="#OpenSans-Bold-61" x="1398.583984"/>
      </g>
     </g>
    </g>
    <g id="ytick_6">
     <g id="line2d_22">
      <g>
       <use xlink:href="#m7c9ba66d43" x="266.65" y="40.316667" style="fill: #37539c; stroke: #37539c; stroke-width: 0.8"/>
      </g>
     </g>
     <g id="text_14">
      <!-- Cromatógrafos y Espectrómetros -->
      <g style="fill: #37539c" transform="translate(95.209375 44.147135) scale(0.1 -0.1)">
       <defs>
        <path id="OpenSans-Bold-43" d="M 2516 3828 
Q 2238 3828 2023 3720 
Q 1809 3613 1664 3409 
Q 1519 3206 1444 2918 
Q 1369 2631 1369 2272 
Q 1369 1788 1489 1445 
Q 1609 1103 1862 923 
Q 2116 744 2516 744 
Q 2794 744 3073 806 
Q 3353 869 3681 984 
L 3681 172 
Q 3378 47 3084 -8 
Q 2791 -63 2425 -63 
Q 1719 -63 1264 229 
Q 809 522 590 1048 
Q 372 1575 372 2278 
Q 372 2797 512 3228 
Q 653 3659 925 3975 
Q 1197 4291 1597 4462 
Q 1997 4634 2516 4634 
Q 2856 4634 3198 4548 
Q 3541 4463 3853 4313 
L 3541 3525 
Q 3284 3647 3025 3737 
Q 2766 3828 2516 3828 
z
" transform="scale(0.015625)"/>
        <path id="OpenSans-Bold-67" d="M 1522 -1538 
Q 791 -1538 405 -1283 
Q 19 -1028 19 -569 
Q 19 -253 216 -40 
Q 413 172 794 263 
Q 647 325 537 467 
Q 428 609 428 769 
Q 428 969 543 1101 
Q 659 1234 878 1363 
Q 603 1481 442 1743 
Q 281 2006 281 2363 
Q 281 2744 448 3011 
Q 616 3278 936 3418 
Q 1256 3559 1716 3559 
Q 1813 3559 1941 3546 
Q 2069 3534 2176 3518 
Q 2284 3503 2322 3494 
L 3541 3494 
L 3541 3009 
L 2994 2869 
Q 3069 2753 3106 2622 
Q 3144 2491 3144 2344 
Q 3144 1781 2751 1467 
Q 2359 1153 1663 1153 
Q 1497 1163 1350 1178 
Q 1278 1122 1240 1059 
Q 1203 997 1203 928 
Q 1203 859 1261 814 
Q 1319 769 1436 745 
Q 1553 722 1728 722 
L 2322 722 
Q 2897 722 3198 475 
Q 3500 228 3500 -250 
Q 3500 -863 2989 -1200 
Q 2478 -1538 1522 -1538 
z
M 1563 -916 
Q 1903 -916 2148 -852 
Q 2394 -788 2525 -670 
Q 2656 -553 2656 -391 
Q 2656 -259 2579 -182 
Q 2503 -106 2348 -75 
Q 2194 -44 1953 -44 
L 1459 -44 
Q 1284 -44 1145 -100 
Q 1006 -156 925 -257 
Q 844 -359 844 -494 
Q 844 -691 1033 -803 
Q 1222 -916 1563 -916 
z
M 1716 1734 
Q 1984 1734 2109 1900 
Q 2234 2066 2234 2350 
Q 2234 2666 2104 2823 
Q 1975 2981 1716 2981 
Q 1453 2981 1322 2823 
Q 1191 2666 1191 2350 
Q 1191 2066 1320 1900 
Q 1450 1734 1716 1734 
z
" transform="scale(0.015625)"/>
       </defs>
       <use xlink:href="#OpenSans-Bold-43"/>
       <use xlink:href="#OpenSans-Bold-72" x="63.720703"/>
       <use xlink:href="#OpenSans-Bold-6f" x="109.130859"/>
       <use xlink:href="#OpenSans-Bold-6d" x="171.044922"/>
       <use xlink:href="#OpenSans-Bold-61" x="269.238281"/>
       <use xlink:href="#OpenSans-Bold-74" x="329.638672"/>
       <use xlink:href="#OpenSans-Bold-f3" x="373.046875"/>
       <use xlink:href="#OpenSans-Bold-67" x="434.960938"/>
       <use xlink:href="#OpenSans-Bold-72" x="491.455078"/>
       <use xlink:href="#OpenSans-Bold-61" x="536.865234"/>
       <use xlink:href="#OpenSans-Bold-66" x="597.265625"/>
       <use xlink:href="#OpenSans-Bold-6f" x="635.986328"/>
       <use xlink:href="#OpenSans-Bold-73" x="697.900391"/>
       <use xlink:href="#OpenSans-Bold-20" x="747.607422"/>
       <use xlink:href="#OpenSans-Bold-79" x="773.583984"/>
       <use xlink:href="#OpenSans-Bold-20" x="830.46875"/>
       <use xlink:href="#OpenSans-Bold-45" x="856.445312"/>
       <use xlink:href="#OpenSans-Bold-73" x="912.451172"/>
       <use xlink:href="#OpenSans-Bold-70" x="962.158203"/>
       <use xlink:href="#OpenSans-Bold-65" x="1025.439453"/>
       <use xlink:href="#OpenSans-Bold-63" x="1084.521484"/>
       <use xlink:href="#OpenSans-Bold-74" x="1135.9375"/>
       <use xlink:href="#OpenSans-Bold-72" x="1179.345703"/>
       <use xlink:href="#OpenSans-Bold-f3" x="1224.755859"/>
       <use xlink:href="#OpenSans-Bold-6d" x="1286.669922"/>
       <use xlink:href="#OpenSans-Bold-65" x="1384.863281"/>
       <use xlink:href="#OpenSans-Bold-74" x="1443.945312"/>
       <use xlink:href="#OpenSans-Bold-72" x="1487.353516"/>
       <use xlink:href="#OpenSans-Bold-6f" x="1532.763672"/>
       <use xlink:href="#OpenSans-Bold-73" x="1594.677734"/>
      </g>
     </g>
    </g>
   </g>
   <g id="patch_3">
    <path d="M 266.856995 46.605027 
L 435.621339 46.605027 
Q 435.820372 46.605027 435.820372 35.855693 
L 435.820372 44.77764 
Q 435.820372 34.028307 435.621339 34.028307 
L 266.856995 34.028307 
Q 266.657961 34.028307 266.657961 44.77764 
L 266.657961 35.855693 
Q 266.657961 46.605027 266.856995 46.605027 
z
" clip-path="url(#p91affe087f)" style="fill: #37539c"/>
   </g>
   <g id="patch_4">
    <path d="M 266.856995 73.47836 
L 294.307672 73.47836 
Q 294.506705 73.47836 294.506705 62.729027 
L 294.506705 71.650973 
Q 294.506705 60.90164 294.307672 60.90164 
L 266.856995 60.90164 
Q 266.657961 60.90164 266.657961 71.650973 
L 266.657961 62.729027 
Q 266.657961 73.47836 266.856995 73.47836 
z
" clip-path="url(#p91affe087f)" style="fill: #37539c"/>
   </g>
   <g id="patch_5">
    <path d="M 266.856995 100.351693 
L 354.017672 100.351693 
Q 354.216705 100.351693 354.216705 89.60236 
L 354.216705 98.524307 
Q 354.216705 87.774973 354.017672 87.774973 
L 266.856995 87.774973 
Q 266.657961 87.774973 266.657961 98.524307 
L 266.657961 89.60236 
Q 266.657961 100.351693 266.856995 100.351693 
z
" clip-path="url(#p91affe087f)" style="fill: #37539c"/>
   </g>
   <g id="patch_6">
    <path d="M 266.856995 127.225027 
L 383.872672 127.225027 
Q 384.071705 127.225027 384.071705 116.475693 
L 384.071705 125.39764 
Q 384.071705 114.648307 383.872672 114.648307 
L 266.856995 114.648307 
Q 266.657961 114.648307 266.657961 125.39764 
L 266.657961 116.475693 
Q 266.657961 127.225027 266.856995 127.225027 
z
" clip-path="url(#p91affe087f)" style="fill: #37539c"/>
   </g>
   <g id="patch_7">
    <path d="M 266.856995 154.09836 
L 403.776005 154.09836 
Q 403.975039 154.09836 403.975039 143.349027 
L 403.975039 152.270973 
Q 403.975039 141.52164 403.776005 141.52164 
L 266.856995 141.52164 
Q 266.657961 141.52164 266.657961 152.270973 
L 266.657961 143.349027 
Q 266.657961 154.09836 266.856995 154.09836 
z
" clip-path="url(#p91affe087f)" style="fill: #37539c"/>
   </g>
   <g id="patch_8">
    <path d="M 266.856995 180.971693 
L 523.196005 180.971693 
Q 523.395039 180.971693 523.395039 170.22236 
L 523.395039 179.144307 
Q 523.395039 168.394973 523.196005 168.394973 
L 266.856995 168.394973 
Q 266.657961 168.394973 266.657961 179.144307 
L 266.657961 170.22236 
Q 266.657961 180.971693 266.856995 180.971693 
z
" clip-path="url(#p91affe087f)" style="fill: #37539c"/>
   </g>
   <g id="patch_9">
    <path d="M 266.65 188.12 
L 266.65 26.88 
" style="fill: none; stroke: #000000; stroke-width: 0.8; stroke-linejoin: miter; stroke-linecap: square"/>
   </g>
   <g id="patch_10">
    <path d="M 266.65 188.12 
L 565.2 188.12 
" style="fill: none; stroke: #000000; stroke-width: 0.8; stroke-linejoin: miter; stroke-linecap: square"/>
   </g>
   <g id="text_15">
    <!-- 129 -->
    <g style="fill: #37539c" transform="translate(527.383667 177.370667) scale(0.1 -0.1)">
     <defs>
      <path id="OpenSans-Bold-39" d="M 3431 2619 
Q 3431 2225 3373 1837 
Q 3316 1450 3172 1108 
Q 3028 766 2768 502 
Q 2509 238 2109 87 
Q 1709 -63 1141 -63 
Q 1006 -63 825 -52 
Q 644 -41 525 -19 
L 525 756 
Q 650 725 790 708 
Q 931 691 1075 691 
Q 1647 691 1958 872 
Q 2269 1053 2395 1375 
Q 2522 1697 2541 2119 
L 2503 2119 
Q 2413 1969 2289 1848 
Q 2166 1728 1975 1658 
Q 1784 1588 1491 1588 
Q 1100 1588 811 1758 
Q 522 1928 364 2251 
Q 206 2575 206 3034 
Q 206 3531 395 3886 
Q 584 4241 934 4431 
Q 1284 4622 1759 4622 
Q 2109 4622 2412 4501 
Q 2716 4381 2945 4134 
Q 3175 3888 3303 3509 
Q 3431 3131 3431 2619 
z
M 1778 3847 
Q 1497 3847 1319 3653 
Q 1141 3459 1141 3047 
Q 1141 2716 1294 2522 
Q 1447 2328 1759 2328 
Q 1975 2328 2134 2423 
Q 2294 2519 2383 2664 
Q 2472 2809 2472 2963 
Q 2472 3122 2428 3278 
Q 2384 3434 2296 3562 
Q 2209 3691 2079 3769 
Q 1950 3847 1778 3847 
z
" transform="scale(0.015625)"/>
     </defs>
     <use xlink:href="#OpenSans-Bold-31"/>
     <use xlink:href="#OpenSans-Bold-32" x="57.177734"/>
     <use xlink:href="#OpenSans-Bold-39" x="114.355469"/>
    </g>
   </g>
   <g id="text_16">
    <!-- 69 -->
    <g style="fill: #37539c" transform="translate(407.963667 150.497333) scale(0.1 -0.1)">
     <use xlink:href="#OpenSans-Bold-36"/>
     <use xlink:href="#OpenSans-Bold-39" x="57.177734"/>
    </g>
   </g>
   <g id="text_17">
    <!-- 59 -->
    <g style="fill: #37539c" transform="translate(388.060333 123.624) scale(0.1 -0.1)">
     <defs>
      <path id="OpenSans-Bold-35" d="M 1919 2919 
Q 2338 2919 2664 2759 
Q 2991 2600 3178 2290 
Q 3366 1981 3366 1528 
Q 3366 1034 3161 676 
Q 2956 319 2551 128 
Q 2147 -63 1544 -63 
Q 1184 -63 867 -2 
Q 550 59 313 184 
L 313 1019 
Q 550 894 883 808 
Q 1216 722 1509 722 
Q 1797 722 1994 798 
Q 2191 875 2292 1036 
Q 2394 1197 2394 1447 
Q 2394 1781 2169 1959 
Q 1944 2138 1478 2138 
Q 1300 2138 1108 2103 
Q 916 2069 788 2034 
L 403 2241 
L 575 4569 
L 3053 4569 
L 3053 3750 
L 1422 3750 
L 1338 2853 
Q 1444 2875 1569 2897 
Q 1694 2919 1919 2919 
z
" transform="scale(0.015625)"/>
     </defs>
     <use xlink:href="#OpenSans-Bold-35"/>
     <use xlink:href="#OpenSans-Bold-39" x="57.177734"/>
    </g>
   </g>
   <g id="text_18">
    <!-- 44 -->
    <g style="fill: #37539c" transform="translate(358.205333 96.750667) scale(0.1 -0.1)">
     <use xlink:href="#OpenSans-Bold-34"/>
     <use xlink:href="#OpenSans-Bold-34" x="57.177734"/>
    </g>
   </g>
   <g id="text_19">
    <!-- 14 -->
    <g style="fill: #37539c" transform="translate(298.495333 69.877333) scale(0.1 -0.1)">
     <use xlink:href="#OpenSans-Bold-31"/>
     <use xlink:href="#OpenSans-Bold-34" x="57.177734"/>
    </g>
   </g>
   <g id="text_20">
    <!-- 85 -->
    <g style="fill: #37539c" transform="translate(439.809 43.004) scale(0.1 -0.1)">
     <use xlink:href="#OpenSans-Bold-38"/>
     <use xlink:href="#OpenSans-Bold-35" x="57.177734"/>
    </g>
   </g>
   <g id="text_21">
    <!-- Tipo de equipos otorgados por FONDEQUIP -->
    <g style="fill: #37539c" transform="translate(288.041562 20.88) scale(0.12 -0.12)">
     <defs>
      <path id="OpenSans-Bold-54" d="M 2338 0 
L 1369 0 
L 1369 3763 
L 128 3763 
L 128 4569 
L 3578 4569 
L 3578 3763 
L 2338 3763 
L 2338 0 
z
" transform="scale(0.015625)"/>
      <path id="OpenSans-Bold-46" d="M 1528 0 
L 575 0 
L 575 4569 
L 3194 4569 
L 3194 3775 
L 1528 3775 
L 1528 2597 
L 3078 2597 
L 3078 1806 
L 1528 1806 
L 1528 0 
z
" transform="scale(0.015625)"/>
      <path id="OpenSans-Bold-4e" d="M 4628 0 
L 3397 0 
L 1409 3456 
L 1381 3456 
Q 1394 3241 1403 3022 
Q 1413 2803 1422 2586 
Q 1431 2369 1441 2150 
L 1441 0 
L 575 0 
L 575 4569 
L 1797 4569 
L 3781 1147 
L 3803 1147 
Q 3797 1359 3787 1568 
Q 3778 1778 3770 1987 
Q 3763 2197 3756 2406 
L 3756 4569 
L 4628 4569 
L 4628 0 
z
" transform="scale(0.015625)"/>
      <path id="OpenSans-Bold-51" d="M 4722 2291 
Q 4722 1781 4601 1357 
Q 4481 934 4231 625 
Q 3981 316 3597 141 
L 4697 -1088 
L 3456 -1088 
L 2619 -63 
Q 2597 -63 2581 -63 
Q 2566 -63 2547 -63 
Q 1988 -63 1578 104 
Q 1169 272 901 584 
Q 634 897 503 1331 
Q 372 1766 372 2297 
Q 372 3006 605 3532 
Q 838 4059 1322 4350 
Q 1806 4641 2553 4641 
Q 3297 4641 3776 4350 
Q 4256 4059 4489 3531 
Q 4722 3003 4722 2291 
z
M 1388 2291 
Q 1388 1813 1508 1467 
Q 1628 1122 1884 936 
Q 2141 750 2547 750 
Q 2959 750 3215 936 
Q 3472 1122 3589 1467 
Q 3706 1813 3706 2291 
Q 3706 3009 3437 3421 
Q 3169 3834 2553 3834 
Q 2144 3834 1886 3648 
Q 1628 3463 1508 3117 
Q 1388 2772 1388 2291 
z
" transform="scale(0.015625)"/>
      <path id="OpenSans-Bold-55" d="M 4294 4569 
L 4294 1613 
Q 4294 1141 4086 761 
Q 3878 381 3458 159 
Q 3038 -63 2400 -63 
Q 1494 -63 1019 400 
Q 544 863 544 1625 
L 544 4569 
L 1509 4569 
L 1509 1772 
Q 1509 1206 1740 978 
Q 1972 750 2425 750 
Q 2744 750 2942 859 
Q 3141 969 3234 1197 
Q 3328 1425 3328 1778 
L 3328 4569 
L 4294 4569 
z
" transform="scale(0.015625)"/>
     </defs>
     <use xlink:href="#OpenSans-Bold-54"/>
     <use xlink:href="#OpenSans-Bold-69" x="57.910156"/>
     <use xlink:href="#OpenSans-Bold-70" x="88.427734"/>
     <use xlink:href="#OpenSans-Bold-6f" x="151.708984"/>
     <use xlink:href="#OpenSans-Bold-20" x="213.623047"/>
     <use xlink:href="#OpenSans-Bold-64" x="239.599609"/>
     <use xlink:href="#OpenSans-Bold-65" x="302.880859"/>
     <use xlink:href="#OpenSans-Bold-20" x="361.962891"/>
     <use xlink:href="#OpenSans-Bold-65" x="387.939453"/>
     <use xlink:href="#OpenSans-Bold-71" x="447.021484"/>
     <use xlink:href="#OpenSans-Bold-75" x="510.302734"/>
     <use xlink:href="#OpenSans-Bold-69" x="576.025391"/>
     <use xlink:href="#OpenSans-Bold-70" x="606.542969"/>
     <use xlink:href="#OpenSans-Bold-6f" x="669.824219"/>
     <use xlink:href="#OpenSans-Bold-73" x="731.738281"/>
     <use xlink:href="#OpenSans-Bold-20" x="781.445312"/>
     <use xlink:href="#OpenSans-Bold-6f" x="807.421875"/>
     <use xlink:href="#OpenSans-Bold-74" x="869.335938"/>
     <use xlink:href="#OpenSans-Bold-6f" x="912.744141"/>
     <use xlink:href="#OpenSans-Bold-72" x="974.658203"/>
     <use xlink:href="#OpenSans-Bold-67" x="1020.068359"/>
     <use xlink:href="#OpenSans-Bold-61" x="1076.5625"/>
     <use xlink:href="#OpenSans-Bold-64" x="1136.962891"/>
     <use xlink:href="#OpenSans-Bold-6f" x="1200.244141"/>
     <use xlink:href="#OpenSans-Bold-73" x="1262.158203"/>
     <use xlink:href="#OpenSans-Bold-20" x="1311.865234"/>
     <use xlink:href="#OpenSans-Bold-70" x="1337.841797"/>
     <use xlink:href="#OpenSans-Bold-6f" x="1401.123047"/>
     <use xlink:href="#OpenSans-Bold-72" x="1463.037109"/>
     <use xlink:href="#OpenSans-Bold-20" x="1508.447266"/>
     <use xlink:href="#OpenSans-Bold-46" x="1534.423828"/>
     <use xlink:href="#OpenSans-Bold-4f" x="1589.306641"/>
     <use xlink:href="#OpenSans-Bold-4e" x="1668.896484"/>
     <use xlink:href="#OpenSans-Bold-44" x="1750.195312"/>
     <use xlink:href="#OpenSans-Bold-45" x="1824.21875"/>
     <use xlink:href="#OpenSans-Bold-51" x="1880.224609"/>
     <use xlink:href="#OpenSans-Bold-55" x="1959.814453"/>
     <use xlink:href="#OpenSans-Bold-49" x="2035.400391"/>
     <use xlink:href="#OpenSans-Bold-50" x="2068.505859"/>
    </g>
   </g>
  </g>
 </g>
 <defs>
  <clipPath id="p91affe087f">
   <rect x="266.65" y="26.88" width="298.55" height="161.24"/>
  </clipPath>
 </defs>
</svg>
