<?xml version="1.0" encoding="utf-8" standalone="no"?>
<!DOCTYPE svg PUBLIC "-//W3C//DTD SVG 1.1//EN"
  "http://www.w3.org/Graphics/SVG/1.1/DTD/svg11.dtd">
<svg xmlns:xlink="http://www.w3.org/1999/xlink" width="864pt" height="504pt" viewBox="0 0 864 504" xmlns="http://www.w3.org/2000/svg" version="1.1">
 <metadata>
  <rdf:RDF xmlns:dc="http://purl.org/dc/elements/1.1/" xmlns:cc="http://creativecommons.org/ns#" xmlns:rdf="http://www.w3.org/1999/02/22-rdf-syntax-ns#">
   <cc:Work>
    <dc:type rdf:resource="http://purl.org/dc/dcmitype/StillImage"/>
    <dc:date>2024-02-26T21:22:35.673330</dc:date>
    <dc:format>image/svg+xml</dc:format>
    <dc:creator>
     <cc:Agent>
      <dc:title>Matplotlib v3.7.1, https://matplotlib.org/</dc:title>
     </cc:Agent>
    </dc:creator>
   </cc:Work>
  </rdf:RDF>
 </metadata>
 <defs>
  <style type="text/css">*{stroke-linejoin: round; stroke-linecap: butt}</style>
 </defs>
 <g id="figure_1">
  <g id="patch_1">
   <path d="M 0 504 
L 864 504 
L 864 0 
L 0 0 
z
" style="fill: #ffffff"/>
  </g>
  <g id="axes_1">
   <g id="matplotlib.axis_1"/>
   <g id="matplotlib.axis_2"/>
   <g id="patch_2">
    <path d="M 540.640936 127.967703 
C 515.780847 98.340602 482.578395 76.860973 445.364198 66.330416 
C 408.15 55.79986 368.615555 56.697021 331.917365 68.904884 
L 368.461946 178.761954 
C 383.141222 173.878809 398.955 173.519944 413.840679 177.732167 
C 428.726358 181.944389 442.007339 190.536241 451.951374 202.387081 
z
" style="fill: #59c3c3"/>
   </g>
   <g id="patch_3">
    <path d="M 331.917365 68.904884 
C 304.966507 77.87024 280.324616 92.676582 259.756015 112.263796 
C 239.187413 131.85101 223.194997 155.740195 212.9238 182.220921 
L 320.86452 224.088368 
C 324.972999 213.496078 331.369965 203.940404 339.597406 196.105518 
C 347.824847 188.270633 357.681603 182.348096 368.461946 178.761954 
z
" style="fill: #f45b69"/>
   </g>
   <g id="patch_4">
    <path d="M 212.9238 182.220921 
C 206.336343 199.204399 202.186925 217.035459 200.599271 235.182428 
C 199.011617 253.329397 200.001665 271.610101 203.539894 289.479463 
L 317.110957 266.991785 
C 315.695666 259.844041 315.299647 252.531759 315.934708 245.272971 
C 316.56977 238.014184 318.229537 230.88176 320.86452 224.088368 
z
" style="fill: #dda0dd"/>
   </g>
   <g id="patch_5">
    <path d="M 203.539894 289.479463 
C 206.683892 305.357813 211.813387 320.777645 218.807396 335.375267 
C 225.801405 349.972889 234.604504 363.632625 245.009064 376.032297 
L 333.698626 301.612919 
C 329.536802 296.65305 326.015562 291.189156 323.217958 285.350107 
C 320.420355 279.511058 318.368557 273.343125 317.110957 266.991785 
z
" style="fill: #f2e2d2"/>
   </g>
   <g id="patch_6">
    <path d="M 245.009064 376.032297 
C 255.413624 388.431969 267.337196 399.473318 280.498551 408.895922 
C 293.659905 418.318527 307.954748 426.04772 323.045921 431.9012 
L 364.913368 323.96048 
C 358.876899 321.619088 353.158962 318.527411 347.89442 314.758369 
C 342.629878 310.989327 337.86045 306.572788 333.698626 301.612919 
z
" style="fill: #8fbc8f"/>
   </g>
   <g id="patch_7">
    <path d="M 323.045921 431.9012 
C 336.24664 437.021422 349.970913 440.673168 363.970658 442.790431 
C 377.970403 444.907694 392.160755 445.477637 406.285207 444.489959 
L 398.209083 328.995984 
C 392.559302 329.391055 386.883161 329.163077 381.283263 328.316172 
C 375.683365 327.469267 370.193656 326.008569 364.913368 323.96048 
z
" style="fill: #d2691e"/>
   </g>
   <g id="patch_8">
    <path d="M 406.285207 444.489959 
C 416.369136 443.784822 426.382083 442.288378 436.231554 440.014448 
C 446.081025 437.740518 455.7366 434.696127 465.109087 430.909397 
L 421.738635 323.563759 
C 417.98964 325.078451 414.12741 326.296207 410.187622 327.205779 
C 406.247833 328.115351 402.242655 328.713929 398.209083 328.995984 
z
" style="fill: #f0e68c"/>
   </g>
   <g id="patch_9">
    <path d="M 465.109087 430.909397 
C 474.481574 427.122666 483.542026 422.605292 492.206747 417.399003 
C 500.871468 412.192713 509.113696 406.313588 516.857297 399.815936 
L 442.437919 311.126374 
C 439.340479 313.725435 436.043587 316.077085 432.577699 318.159601 
C 429.11181 320.242117 425.48763 322.049067 421.738635 323.563759 
z
" style="fill: #ffd700"/>
   </g>
   <g id="patch_10">
    <path d="M 516.857297 399.815936 
C 523.051033 394.618775 528.911995 389.037455 534.405514 383.104994 
C 539.899033 377.172534 545.014256 370.900651 549.720922 364.326449 
L 455.583369 296.93058 
C 453.700702 299.560261 451.654613 302.069013 449.457206 304.441998 
C 447.259798 306.814982 444.915413 309.04751 442.437919 311.126374 
z
" style="fill: #9fb7b9"/>
   </g>
   <g id="patch_11">
    <path d="M 549.720922 364.326449 
C 554.427589 357.752247 558.716401 350.888713 562.561988 343.776449 
C 566.407575 336.664184 569.802339 329.317241 572.7262 321.779079 
L 464.78548 279.911632 
C 463.615936 282.926896 462.25803 285.865674 460.719795 288.71058 
C 459.18156 291.555485 457.466036 294.300899 455.583369 296.93058 
z
" style="fill: #ff7f50"/>
   </g>
   <g id="patch_12">
    <path d="M 572.7262 321.779079 
C 574.91878 316.126271 576.84371 310.37326 578.494583 304.539199 
C 580.145456 298.705138 581.520438 292.796507 582.61495 286.832977 
L 468.74098 265.933191 
C 468.303175 268.318603 467.753183 270.682055 467.092833 273.01568 
C 466.432484 275.349304 465.662512 277.650508 464.78548 279.911632 
z
" style="fill: #696969"/>
   </g>
   <g id="patch_13">
    <path d="M 582.61495 286.832977 
C 583.709463 280.869447 584.522291 274.857642 585.050729 268.817575 
C 585.579166 262.777509 585.822626 256.715891 585.780298 250.6529 
L 470.007119 251.46116 
C 470.02405 253.886356 469.926666 256.311004 469.715291 258.72703 
C 469.503916 261.143057 469.178785 263.547779 468.74098 265.933191 
z
" style="fill: #4062bb"/>
   </g>
   <g id="patch_14">
    <path d="M 585.780298 250.6529 
C 585.752082 246.611321 585.596892 242.571627 585.314959 238.539795 
C 585.033026 234.507963 584.624489 230.485984 584.089951 226.479811 
L 469.33098 241.791924 
C 469.544795 243.394394 469.708211 245.003185 469.820984 246.615918 
C 469.933757 248.228651 469.995833 249.844528 470.007119 251.46116 
z
" style="fill: #46b1c9"/>
   </g>
   <g id="patch_15">
    <path d="M 584.089951 226.479811 
C 583.555414 222.473638 582.89514 218.485248 582.110108 214.520544 
C 581.325075 210.55584 580.415671 206.616779 579.383242 202.709191 
L 467.448297 232.283677 
C 467.861269 233.846712 468.22503 235.422336 468.539043 237.008218 
C 468.853056 238.594099 469.117165 240.189455 469.33098 241.791924 
z
" style="fill: #b0e0e6"/>
   </g>
   <g id="patch_16">
    <path d="M 579.383242 202.709191 
C 578.350813 198.801603 577.195868 194.927417 575.920117 191.092367 
C 574.644365 187.257316 573.248437 183.463295 571.734399 179.715917 
L 464.388759 223.086367 
C 464.994375 224.585318 465.552746 226.102927 466.063047 227.636947 
C 466.573347 229.170967 467.035325 230.720641 467.448297 232.283677 
z
" style="fill: #bcc1ba"/>
   </g>
   <g id="patch_17">
    <path d="M 571.734399 179.715917 
C 570.22036 175.968539 568.588958 172.269655 566.842607 168.624739 
C 565.096256 164.979823 563.235818 161.390675 561.264047 157.862605 
L 460.200619 214.345042 
C 460.989327 215.75627 461.733502 217.191929 462.432043 218.649896 
C 463.130583 220.107862 463.783144 221.587416 464.388759 223.086367 
z
" style="fill: #84c0c6"/>
   </g>
   <g id="patch_18">
    <path d="M 561.264047 157.862605 
C 559.292276 154.334536 557.210145 150.869288 555.020735 147.471989 
C 552.831326 144.07469 550.535718 140.747018 548.137311 137.493897 
L 454.949924 206.197559 
C 455.909287 207.498807 456.82753 208.829876 457.703294 210.188796 
C 458.579058 211.547715 459.41191 212.933814 460.200619 214.345042 
z
" style="fill: #9acd32"/>
   </g>
   <g id="patch_19">
    <path d="M 548.137311 137.493897 
C 546.938181 135.867437 545.713577 134.259913 544.46395 132.671921 
C 543.214324 131.083929 541.93983 129.515665 540.64094 127.967708 
L 451.951376 202.387083 
C 452.470932 203.006266 452.98073 203.633572 453.48058 204.268768 
C 453.980431 204.903965 454.470273 205.546975 454.949924 206.197559 
z
" style="fill: #fff0f5"/>
   </g>
   <g id="text_1">
    <!-- 19% -->
    <g style="fill: #37539c" transform="translate(427.261443 96.77851) scale(0.1 -0.1)">
     <defs>
      <path id="OpenSans-Bold-31" d="M 2644 0 
L 1678 0 
L 1678 2644 
Q 1678 2753 1681 2914 
Q 1684 3075 1690 3245 
Q 1697 3416 1703 3553 
Q 1669 3513 1564 3414 
Q 1459 3316 1369 3238 
L 844 2816 
L 378 3397 
L 1850 4569 
L 2644 4569 
L 2644 0 
z
" transform="scale(0.015625)"/>
      <path id="OpenSans-Bold-39" d="M 3431 2619 
Q 3431 2225 3373 1837 
Q 3316 1450 3172 1108 
Q 3028 766 2768 502 
Q 2509 238 2109 87 
Q 1709 -63 1141 -63 
Q 1006 -63 825 -52 
Q 644 -41 525 -19 
L 525 756 
Q 650 725 790 708 
Q 931 691 1075 691 
Q 1647 691 1958 872 
Q 2269 1053 2395 1375 
Q 2522 1697 2541 2119 
L 2503 2119 
Q 2413 1969 2289 1848 
Q 2166 1728 1975 1658 
Q 1784 1588 1491 1588 
Q 1100 1588 811 1758 
Q 522 1928 364 2251 
Q 206 2575 206 3034 
Q 206 3531 395 3886 
Q 584 4241 934 4431 
Q 1284 4622 1759 4622 
Q 2109 4622 2412 4501 
Q 2716 4381 2945 4134 
Q 3175 3888 3303 3509 
Q 3431 3131 3431 2619 
z
M 1778 3847 
Q 1497 3847 1319 3653 
Q 1141 3459 1141 3047 
Q 1141 2716 1294 2522 
Q 1447 2328 1759 2328 
Q 1975 2328 2134 2423 
Q 2294 2519 2383 2664 
Q 2472 2809 2472 2963 
Q 2472 3122 2428 3278 
Q 2384 3434 2296 3562 
Q 2209 3691 2079 3769 
Q 1950 3847 1778 3847 
z
" transform="scale(0.015625)"/>
      <path id="OpenSans-Bold-25" d="M 1275 4634 
Q 1813 4634 2091 4259 
Q 2369 3884 2369 3206 
Q 2369 2528 2106 2147 
Q 1844 1766 1275 1766 
Q 747 1766 472 2147 
Q 197 2528 197 3206 
Q 197 3884 455 4259 
Q 713 4634 1275 4634 
z
M 1281 3981 
Q 1128 3981 1056 3787 
Q 984 3594 984 3200 
Q 984 2806 1056 2609 
Q 1128 2413 1281 2413 
Q 1434 2413 1507 2608 
Q 1581 2803 1581 3200 
Q 1581 3594 1507 3787 
Q 1434 3981 1281 3981 
z
M 4519 4569 
L 1984 0 
L 1234 0 
L 3769 4569 
L 4519 4569 
z
M 4475 2809 
Q 5013 2809 5291 2434 
Q 5569 2059 5569 1381 
Q 5569 706 5306 325 
Q 5044 -56 4475 -56 
Q 3947 -56 3672 325 
Q 3397 706 3397 1381 
Q 3397 2059 3655 2434 
Q 3913 2809 4475 2809 
z
M 4481 2156 
Q 4328 2156 4256 1962 
Q 4184 1769 4184 1375 
Q 4184 981 4256 784 
Q 4328 588 4481 588 
Q 4634 588 4707 783 
Q 4781 978 4781 1375 
Q 4781 1769 4707 1962 
Q 4634 2156 4481 2156 
z
" transform="scale(0.015625)"/>
     </defs>
     <use xlink:href="#OpenSans-Bold-31"/>
     <use xlink:href="#OpenSans-Bold-39" x="57.177734"/>
     <use xlink:href="#OpenSans-Bold-25" x="114.355469"/>
    </g>
   </g>
   <g id="text_2">
    <!-- 14% -->
    <g style="fill: #37539c" transform="translate(269.494487 135.821883) scale(0.1 -0.1)">
     <defs>
      <path id="OpenSans-Bold-34" d="M 3553 947 
L 3003 947 
L 3003 0 
L 2059 0 
L 2059 947 
L 109 947 
L 109 1619 
L 2113 4569 
L 3003 4569 
L 3003 1697 
L 3553 1697 
L 3553 947 
z
M 2059 1697 
L 2059 2472 
Q 2059 2581 2064 2731 
Q 2069 2881 2075 3031 
Q 2081 3181 2089 3298 
Q 2097 3416 2100 3463 
L 2075 3463 
Q 2016 3334 1950 3214 
Q 1884 3094 1797 2963 
L 959 1697 
L 2059 1697 
z
" transform="scale(0.015625)"/>
     </defs>
     <use xlink:href="#OpenSans-Bold-31"/>
     <use xlink:href="#OpenSans-Bold-34" x="57.177734"/>
     <use xlink:href="#OpenSans-Bold-25" x="114.355469"/>
    </g>
   </g>
   <g id="text_3">
    <!-- 9% -->
    <g style="fill: #37539c" transform="translate(222.069849 240.30272) scale(0.1 -0.1)">
     <use xlink:href="#OpenSans-Bold-39"/>
     <use xlink:href="#OpenSans-Bold-25" x="57.177734"/>
    </g>
   </g>
   <g id="text_4">
    <!-- 8% -->
    <g style="fill: #37539c" transform="translate(237.546755 325.466633) scale(0.1 -0.1)">
     <defs>
      <path id="OpenSans-Bold-38" d="M 1831 4628 
Q 2225 4628 2558 4506 
Q 2891 4384 3091 4139 
Q 3291 3894 3291 3525 
Q 3291 3250 3183 3044 
Q 3075 2838 2890 2683 
Q 2706 2528 2472 2413 
Q 2716 2284 2934 2114 
Q 3153 1944 3292 1716 
Q 3431 1488 3431 1184 
Q 3431 803 3228 523 
Q 3025 244 2665 90 
Q 2306 -63 1831 -63 
Q 1319 -63 959 84 
Q 600 231 412 504 
Q 225 778 225 1159 
Q 225 1472 342 1703 
Q 459 1934 659 2101 
Q 859 2269 1100 2388 
Q 897 2516 730 2678 
Q 563 2841 464 3050 
Q 366 3259 366 3531 
Q 366 3894 570 4137 
Q 775 4381 1109 4504 
Q 1444 4628 1831 4628 
z
M 1119 1216 
Q 1119 969 1295 808 
Q 1472 647 1819 647 
Q 2178 647 2356 801 
Q 2534 956 2534 1209 
Q 2534 1384 2432 1515 
Q 2331 1647 2178 1751 
Q 2025 1856 1869 1947 
L 1784 1991 
Q 1584 1900 1436 1787 
Q 1288 1675 1203 1534 
Q 1119 1394 1119 1216 
z
M 1825 3922 
Q 1588 3922 1431 3800 
Q 1275 3678 1275 3456 
Q 1275 3300 1351 3183 
Q 1428 3066 1554 2978 
Q 1681 2891 1831 2816 
Q 1975 2884 2100 2968 
Q 2225 3053 2303 3172 
Q 2381 3291 2381 3456 
Q 2381 3678 2223 3800 
Q 2066 3922 1825 3922 
z
" transform="scale(0.015625)"/>
     </defs>
     <use xlink:href="#OpenSans-Bold-38"/>
     <use xlink:href="#OpenSans-Bold-25" x="57.177734"/>
    </g>
   </g>
   <g id="text_5">
    <!-- 8% -->
    <g style="fill: #37539c" transform="translate(289.984237 387.95919) scale(0.1 -0.1)">
     <use xlink:href="#OpenSans-Bold-38"/>
     <use xlink:href="#OpenSans-Bold-25" x="57.177734"/>
    </g>
   </g>
   <g id="text_6">
    <!-- 7% -->
    <g style="fill: #37539c" transform="translate(360.935528 416.769523) scale(0.1 -0.1)">
     <defs>
      <path id="OpenSans-Bold-37" d="M 709 0 
L 2425 3756 
L 172 3756 
L 172 4569 
L 3450 4569 
L 3450 3963 
L 1722 0 
L 709 0 
z
" transform="scale(0.015625)"/>
     </defs>
     <use xlink:href="#OpenSans-Bold-37"/>
     <use xlink:href="#OpenSans-Bold-25" x="57.177734"/>
    </g>
   </g>
   <g id="text_7">
    <!-- 5% -->
    <g style="fill: #37539c" transform="translate(422.35729 414.409937) scale(0.1 -0.1)">
     <defs>
      <path id="OpenSans-Bold-35" d="M 1919 2919 
Q 2338 2919 2664 2759 
Q 2991 2600 3178 2290 
Q 3366 1981 3366 1528 
Q 3366 1034 3161 676 
Q 2956 319 2551 128 
Q 2147 -63 1544 -63 
Q 1184 -63 867 -2 
Q 550 59 313 184 
L 313 1019 
Q 550 894 883 808 
Q 1216 722 1509 722 
Q 1797 722 1994 798 
Q 2191 875 2292 1036 
Q 2394 1197 2394 1447 
Q 2394 1781 2169 1959 
Q 1944 2138 1478 2138 
Q 1300 2138 1108 2103 
Q 916 2069 788 2034 
L 403 2241 
L 575 4569 
L 3053 4569 
L 3053 3750 
L 1422 3750 
L 1338 2853 
Q 1444 2875 1569 2897 
Q 1694 2919 1919 2919 
z
" transform="scale(0.015625)"/>
     </defs>
     <use xlink:href="#OpenSans-Bold-35"/>
     <use xlink:href="#OpenSans-Bold-25" x="57.177734"/>
    </g>
   </g>
   <g id="text_8">
    <!-- 5% -->
    <g style="fill: #37539c" transform="translate(469.936203 395.186808) scale(0.1 -0.1)">
     <use xlink:href="#OpenSans-Bold-35"/>
     <use xlink:href="#OpenSans-Bold-25" x="57.177734"/>
    </g>
   </g>
   <g id="text_9">
    <!-- 4% -->
    <g style="fill: #37539c" transform="translate(505.805156 366.036902) scale(0.1 -0.1)">
     <use xlink:href="#OpenSans-Bold-34"/>
     <use xlink:href="#OpenSans-Bold-25" x="57.177734"/>
    </g>
   </g>
   <g id="text_10">
    <!-- 4% -->
    <g style="fill: #37539c" transform="translate(529.738158 332.607638) scale(0.1 -0.1)">
     <use xlink:href="#OpenSans-Bold-34"/>
     <use xlink:href="#OpenSans-Bold-25" x="57.177734"/>
    </g>
   </g>
   <g id="text_11">
    <!-- 3% -->
    <g style="fill: #37539c" transform="translate(543.280865 299.255975) scale(0.1 -0.1)">
     <defs>
      <path id="OpenSans-Bold-33" d="M 3272 3547 
Q 3272 3231 3140 3000 
Q 3009 2769 2786 2622 
Q 2563 2475 2284 2406 
L 2284 2388 
Q 2834 2319 3120 2050 
Q 3406 1781 3406 1331 
Q 3406 931 3211 615 
Q 3016 300 2609 118 
Q 2203 -63 1563 -63 
Q 1184 -63 857 -2 
Q 531 59 244 184 
L 244 1006 
Q 538 856 859 779 
Q 1181 703 1459 703 
Q 1978 703 2186 883 
Q 2394 1063 2394 1388 
Q 2394 1578 2297 1709 
Q 2200 1841 1961 1909 
Q 1722 1978 1294 1978 
L 947 1978 
L 947 2719 
L 1300 2719 
Q 1722 2719 1942 2798 
Q 2163 2878 2242 3017 
Q 2322 3156 2322 3334 
Q 2322 3578 2172 3715 
Q 2022 3853 1672 3853 
Q 1453 3853 1273 3798 
Q 1094 3744 950 3667 
Q 806 3591 697 3519 
L 250 4184 
Q 519 4378 880 4506 
Q 1241 4634 1741 4634 
Q 2447 4634 2859 4350 
Q 3272 4066 3272 3547 
z
" transform="scale(0.015625)"/>
     </defs>
     <use xlink:href="#OpenSans-Bold-33"/>
     <use xlink:href="#OpenSans-Bold-25" x="57.177734"/>
    </g>
   </g>
   <g id="text_12">
    <!-- 3% -->
    <g style="fill: #37539c" transform="translate(548.853588 268.892595) scale(0.1 -0.1)">
     <use xlink:href="#OpenSans-Bold-33"/>
     <use xlink:href="#OpenSans-Bold-25" x="57.177734"/>
    </g>
   </g>
   <g id="text_13">
    <!-- 2% -->
    <g style="fill: #37539c" transform="translate(549.078184 243.156482) scale(0.1 -0.1)">
     <defs>
      <path id="OpenSans-Bold-32" d="M 3450 0 
L 256 0 
L 256 672 
L 1403 1831 
Q 1750 2188 1961 2427 
Q 2172 2666 2267 2862 
Q 2363 3059 2363 3284 
Q 2363 3556 2211 3692 
Q 2059 3828 1806 3828 
Q 1541 3828 1291 3706 
Q 1041 3584 769 3359 
L 244 3981 
Q 441 4150 661 4300 
Q 881 4450 1173 4542 
Q 1466 4634 1875 4634 
Q 2325 4634 2648 4471 
Q 2972 4309 3147 4029 
Q 3322 3750 3322 3397 
Q 3322 3019 3172 2706 
Q 3022 2394 2736 2087 
Q 2450 1781 2047 1409 
L 1459 856 
L 1459 813 
L 3450 813 
L 3450 0 
z
" transform="scale(0.015625)"/>
     </defs>
     <use xlink:href="#OpenSans-Bold-32"/>
     <use xlink:href="#OpenSans-Bold-25" x="57.177734"/>
    </g>
   </g>
   <g id="text_14">
    <!-- 2% -->
    <g style="fill: #37539c" transform="translate(546.35406 222.740119) scale(0.1 -0.1)">
     <use xlink:href="#OpenSans-Bold-32"/>
     <use xlink:href="#OpenSans-Bold-25" x="57.177734"/>
    </g>
   </g>
   <g id="text_15">
    <!-- 2% -->
    <g style="fill: #37539c" transform="translate(541.092568 202.826168) scale(0.1 -0.1)">
     <use xlink:href="#OpenSans-Bold-32"/>
     <use xlink:href="#OpenSans-Bold-25" x="57.177734"/>
    </g>
   </g>
   <g id="text_16">
    <!-- 2% -->
    <g style="fill: #37539c" transform="translate(533.376684 183.728684) scale(0.1 -0.1)">
     <use xlink:href="#OpenSans-Bold-32"/>
     <use xlink:href="#OpenSans-Bold-25" x="57.177734"/>
    </g>
   </g>
   <g id="text_17">
    <!-- 2% -->
    <g style="fill: #37539c" transform="translate(523.328094 165.748847) scale(0.1 -0.1)">
     <use xlink:href="#OpenSans-Bold-32"/>
     <use xlink:href="#OpenSans-Bold-25" x="57.177734"/>
    </g>
   </g>
   <g id="text_18">
    <!-- 1% -->
    <g style="fill: #37539c" transform="translate(514.354826 153.168789) scale(0.1 -0.1)">
     <use xlink:href="#OpenSans-Bold-31"/>
     <use xlink:href="#OpenSans-Bold-25" x="57.177734"/>
    </g>
   </g>
   <g id="legend_1">
    <g id="patch_20">
     <path d="M 641.025 289.078125 
L 850.675 289.078125 
Q 852.675 289.078125 852.675 287.078125 
L 852.675 17.8 
Q 852.675 15.8 850.675 15.8 
L 641.025 15.8 
Q 639.025 15.8 639.025 17.8 
L 639.025 287.078125 
Q 639.025 289.078125 641.025 289.078125 
z
" style="fill: #ffffff; opacity: 0.8; stroke: #cccccc; stroke-linejoin: miter"/>
    </g>
    <g id="patch_21">
     <path d="M 643.025 27.398438 
L 663.025 27.398438 
L 663.025 20.398438 
L 643.025 20.398438 
z
" style="fill: #59c3c3"/>
    </g>
    <g id="text_19">
     <!-- TIC -->
     <g style="fill: #37539c" transform="translate(671.025 27.398438) scale(0.1 -0.1)">
      <defs>
       <path id="OpenSans-Bold-54" d="M 2338 0 
L 1369 0 
L 1369 3763 
L 128 3763 
L 128 4569 
L 3578 4569 
L 3578 3763 
L 2338 3763 
L 2338 0 
z
" transform="scale(0.015625)"/>
       <path id="OpenSans-Bold-49" d="M 575 0 
L 575 4569 
L 1544 4569 
L 1544 0 
L 575 0 
z
" transform="scale(0.015625)"/>
       <path id="OpenSans-Bold-43" d="M 2516 3828 
Q 2238 3828 2023 3720 
Q 1809 3613 1664 3409 
Q 1519 3206 1444 2918 
Q 1369 2631 1369 2272 
Q 1369 1788 1489 1445 
Q 1609 1103 1862 923 
Q 2116 744 2516 744 
Q 2794 744 3073 806 
Q 3353 869 3681 984 
L 3681 172 
Q 3378 47 3084 -8 
Q 2791 -63 2425 -63 
Q 1719 -63 1264 229 
Q 809 522 590 1048 
Q 372 1575 372 2278 
Q 372 2797 512 3228 
Q 653 3659 925 3975 
Q 1197 4291 1597 4462 
Q 1997 4634 2516 4634 
Q 2856 4634 3198 4548 
Q 3541 4463 3853 4313 
L 3541 3525 
Q 3284 3647 3025 3737 
Q 2766 3828 2516 3828 
z
" transform="scale(0.015625)"/>
      </defs>
      <use xlink:href="#OpenSans-Bold-54"/>
      <use xlink:href="#OpenSans-Bold-49" x="57.910156"/>
      <use xlink:href="#OpenSans-Bold-43" x="91.015625"/>
     </g>
    </g>
    <g id="patch_22">
     <path d="M 643.025 42.4 
L 663.025 42.4 
L 663.025 35.4 
L 643.025 35.4 
z
" style="fill: #f45b69"/>
    </g>
    <g id="text_20">
     <!-- Agricultura -->
     <g style="fill: #37539c" transform="translate(671.025 42.4) scale(0.1 -0.1)">
      <defs>
       <path id="OpenSans-Bold-41" d="M 3372 0 
L 3041 1088 
L 1375 1088 
L 1044 0 
L 0 0 
L 1613 4588 
L 2797 4588 
L 4416 0 
L 3372 0 
z
M 2809 1900 
L 2478 2963 
Q 2447 3069 2395 3236 
Q 2344 3403 2292 3576 
Q 2241 3750 2209 3878 
Q 2178 3750 2123 3561 
Q 2069 3372 2019 3203 
Q 1969 3034 1947 2963 
L 1619 1900 
L 2809 1900 
z
" transform="scale(0.015625)"/>
       <path id="OpenSans-Bold-67" d="M 1522 -1538 
Q 791 -1538 405 -1283 
Q 19 -1028 19 -569 
Q 19 -253 216 -40 
Q 413 172 794 263 
Q 647 325 537 467 
Q 428 609 428 769 
Q 428 969 543 1101 
Q 659 1234 878 1363 
Q 603 1481 442 1743 
Q 281 2006 281 2363 
Q 281 2744 448 3011 
Q 616 3278 936 3418 
Q 1256 3559 1716 3559 
Q 1813 3559 1941 3546 
Q 2069 3534 2176 3518 
Q 2284 3503 2322 3494 
L 3541 3494 
L 3541 3009 
L 2994 2869 
Q 3069 2753 3106 2622 
Q 3144 2491 3144 2344 
Q 3144 1781 2751 1467 
Q 2359 1153 1663 1153 
Q 1497 1163 1350 1178 
Q 1278 1122 1240 1059 
Q 1203 997 1203 928 
Q 1203 859 1261 814 
Q 1319 769 1436 745 
Q 1553 722 1728 722 
L 2322 722 
Q 2897 722 3198 475 
Q 3500 228 3500 -250 
Q 3500 -863 2989 -1200 
Q 2478 -1538 1522 -1538 
z
M 1563 -916 
Q 1903 -916 2148 -852 
Q 2394 -788 2525 -670 
Q 2656 -553 2656 -391 
Q 2656 -259 2579 -182 
Q 2503 -106 2348 -75 
Q 2194 -44 1953 -44 
L 1459 -44 
Q 1284 -44 1145 -100 
Q 1006 -156 925 -257 
Q 844 -359 844 -494 
Q 844 -691 1033 -803 
Q 1222 -916 1563 -916 
z
M 1716 1734 
Q 1984 1734 2109 1900 
Q 2234 2066 2234 2350 
Q 2234 2666 2104 2823 
Q 1975 2981 1716 2981 
Q 1453 2981 1322 2823 
Q 1191 2666 1191 2350 
Q 1191 2066 1320 1900 
Q 1450 1734 1716 1734 
z
" transform="scale(0.015625)"/>
       <path id="OpenSans-Bold-72" d="M 2450 3559 
Q 2522 3559 2617 3551 
Q 2713 3544 2772 3531 
L 2700 2638 
Q 2653 2653 2567 2661 
Q 2481 2669 2419 2669 
Q 2234 2669 2061 2622 
Q 1888 2575 1750 2470 
Q 1613 2366 1533 2195 
Q 1453 2025 1453 1778 
L 1453 0 
L 500 0 
L 500 3494 
L 1222 3494 
L 1363 2906 
L 1409 2906 
Q 1513 3084 1667 3232 
Q 1822 3381 2020 3470 
Q 2219 3559 2450 3559 
z
" transform="scale(0.015625)"/>
       <path id="OpenSans-Bold-69" d="M 1453 3494 
L 1453 0 
L 500 0 
L 500 3494 
L 1453 3494 
z
M 978 4863 
Q 1191 4863 1344 4764 
Q 1497 4666 1497 4397 
Q 1497 4131 1344 4029 
Q 1191 3928 978 3928 
Q 763 3928 611 4029 
Q 459 4131 459 4397 
Q 459 4666 611 4764 
Q 763 4863 978 4863 
z
" transform="scale(0.015625)"/>
       <path id="OpenSans-Bold-63" d="M 1919 -63 
Q 1400 -63 1034 126 
Q 669 316 478 712 
Q 288 1109 288 1728 
Q 288 2369 505 2773 
Q 722 3178 1108 3368 
Q 1494 3559 2003 3559 
Q 2366 3559 2630 3489 
Q 2894 3419 3091 3322 
L 2809 2584 
Q 2584 2675 2390 2733 
Q 2197 2791 2003 2791 
Q 1753 2791 1587 2673 
Q 1422 2556 1340 2322 
Q 1259 2088 1259 1734 
Q 1259 1388 1346 1159 
Q 1434 931 1600 820 
Q 1766 709 2003 709 
Q 2300 709 2531 789 
Q 2763 869 2981 1013 
L 2981 197 
Q 2763 59 2523 -2 
Q 2284 -63 1919 -63 
z
" transform="scale(0.015625)"/>
       <path id="OpenSans-Bold-75" d="M 3706 3494 
L 3706 0 
L 2975 0 
L 2847 447 
L 2797 447 
Q 2684 269 2515 156 
Q 2347 44 2144 -9 
Q 1941 -63 1722 -63 
Q 1347 -63 1069 70 
Q 791 203 636 484 
Q 481 766 481 1216 
L 481 3494 
L 1434 3494 
L 1434 1453 
Q 1434 1078 1568 887 
Q 1703 697 1997 697 
Q 2288 697 2453 830 
Q 2619 963 2686 1220 
Q 2753 1478 2753 1850 
L 2753 3494 
L 3706 3494 
z
" transform="scale(0.015625)"/>
       <path id="OpenSans-Bold-6c" d="M 1453 0 
L 500 0 
L 500 4863 
L 1453 4863 
L 1453 0 
z
" transform="scale(0.015625)"/>
       <path id="OpenSans-Bold-74" d="M 1972 697 
Q 2128 697 2276 728 
Q 2425 759 2572 806 
L 2572 97 
Q 2419 28 2192 -17 
Q 1966 -63 1697 -63 
Q 1384 -63 1136 39 
Q 888 141 745 392 
Q 603 644 603 1094 
L 603 2778 
L 147 2778 
L 147 3181 
L 672 3500 
L 947 4238 
L 1556 4238 
L 1556 3494 
L 2534 3494 
L 2534 2778 
L 1556 2778 
L 1556 1094 
Q 1556 894 1670 795 
Q 1784 697 1972 697 
z
" transform="scale(0.015625)"/>
       <path id="OpenSans-Bold-61" d="M 1931 3566 
Q 2634 3566 3009 3259 
Q 3384 2953 3384 2328 
L 3384 0 
L 2719 0 
L 2534 475 
L 2509 475 
Q 2359 288 2203 169 
Q 2047 50 1844 -6 
Q 1641 -63 1350 -63 
Q 1041 -63 795 56 
Q 550 175 409 420 
Q 269 666 269 1044 
Q 269 1600 659 1864 
Q 1050 2128 1831 2156 
L 2438 2175 
L 2438 2328 
Q 2438 2603 2294 2731 
Q 2150 2859 1894 2859 
Q 1641 2859 1397 2787 
Q 1153 2716 909 2606 
L 594 3250 
Q 872 3397 1217 3481 
Q 1563 3566 1931 3566 
z
M 2438 1619 
L 2069 1606 
Q 1606 1594 1426 1441 
Q 1247 1288 1247 1038 
Q 1247 819 1375 726 
Q 1503 634 1709 634 
Q 2016 634 2227 815 
Q 2438 997 2438 1331 
L 2438 1619 
z
" transform="scale(0.015625)"/>
      </defs>
      <use xlink:href="#OpenSans-Bold-41"/>
      <use xlink:href="#OpenSans-Bold-67" x="68.994141"/>
      <use xlink:href="#OpenSans-Bold-72" x="125.488281"/>
      <use xlink:href="#OpenSans-Bold-69" x="170.898438"/>
      <use xlink:href="#OpenSans-Bold-63" x="201.416016"/>
      <use xlink:href="#OpenSans-Bold-75" x="252.832031"/>
      <use xlink:href="#OpenSans-Bold-6c" x="318.554688"/>
      <use xlink:href="#OpenSans-Bold-74" x="349.072266"/>
      <use xlink:href="#OpenSans-Bold-75" x="392.480469"/>
      <use xlink:href="#OpenSans-Bold-72" x="458.203125"/>
      <use xlink:href="#OpenSans-Bold-61" x="503.613281"/>
     </g>
    </g>
    <g id="patch_23">
     <path d="M 643.025 57.464063 
L 663.025 57.464063 
L 663.025 50.464063 
L 643.025 50.464063 
z
" style="fill: #dda0dd"/>
    </g>
    <g id="text_21">
     <!-- Energía y Eficiencia (1) -->
     <g style="fill: #37539c" transform="translate(671.025 57.464063) scale(0.1 -0.1)">
      <defs>
       <path id="OpenSans-Bold-45" d="M 3206 0 
L 575 0 
L 575 4569 
L 3206 4569 
L 3206 3775 
L 1544 3775 
L 1544 2772 
L 3091 2772 
L 3091 1978 
L 1544 1978 
L 1544 800 
L 3206 800 
L 3206 0 
z
" transform="scale(0.015625)"/>
       <path id="OpenSans-Bold-6e" d="M 2484 3559 
Q 3044 3559 3384 3254 
Q 3725 2950 3725 2278 
L 3725 0 
L 2772 0 
L 2772 2041 
Q 2772 2416 2636 2606 
Q 2500 2797 2209 2797 
Q 1772 2797 1612 2500 
Q 1453 2203 1453 1644 
L 1453 0 
L 500 0 
L 500 3494 
L 1228 3494 
L 1356 3047 
L 1409 3047 
Q 1522 3228 1689 3340 
Q 1856 3453 2061 3506 
Q 2266 3559 2484 3559 
z
" transform="scale(0.015625)"/>
       <path id="OpenSans-Bold-65" d="M 1941 3559 
Q 2425 3559 2775 3373 
Q 3125 3188 3315 2834 
Q 3506 2481 3506 1972 
L 3506 1509 
L 1253 1509 
Q 1269 1106 1495 876 
Q 1722 647 2125 647 
Q 2459 647 2737 715 
Q 3016 784 3309 922 
L 3309 184 
Q 3050 56 2767 -3 
Q 2484 -63 2081 -63 
Q 1556 -63 1151 131 
Q 747 325 517 722 
Q 288 1119 288 1722 
Q 288 2334 495 2742 
Q 703 3150 1075 3354 
Q 1447 3559 1941 3559 
z
M 1947 2881 
Q 1669 2881 1486 2703 
Q 1303 2525 1275 2144 
L 2613 2144 
Q 2609 2356 2536 2522 
Q 2463 2688 2317 2784 
Q 2172 2881 1947 2881 
z
" transform="scale(0.015625)"/>
       <path id="OpenSans-Bold-ed" d="M 1453 0 
L 500 0 
L 500 3494 
L 1453 3494 
L 1453 0 
z
M 2203 4903 
L 2203 4838 
Q 2113 4750 1966 4622 
Q 1819 4494 1650 4355 
Q 1482 4216 1319 4089 
Q 1157 3963 1035 3878 
L 400 3878 
L 400 3963 
Q 503 4081 639 4245 
Q 775 4409 909 4584 
Q 1044 4759 1135 4903 
L 2203 4903 
z
" transform="scale(0.015625)"/>
       <path id="OpenSans-Bold-20" transform="scale(0.015625)"/>
       <path id="OpenSans-Bold-79" d="M 0 3494 
L 1044 3494 
L 1703 1528 
Q 1734 1434 1756 1337 
Q 1778 1241 1793 1137 
Q 1809 1034 1819 922 
L 1838 922 
Q 1856 1091 1889 1237 
Q 1922 1384 1972 1528 
L 2619 3494 
L 3641 3494 
L 2163 -447 
Q 2028 -809 1812 -1051 
Q 1597 -1294 1317 -1416 
Q 1038 -1538 703 -1538 
Q 541 -1538 422 -1520 
Q 303 -1503 219 -1484 
L 219 -728 
Q 284 -744 384 -756 
Q 484 -769 594 -769 
Q 794 -769 937 -684 
Q 1081 -600 1178 -458 
Q 1275 -316 1331 -147 
L 1388 25 
L 0 3494 
z
" transform="scale(0.015625)"/>
       <path id="OpenSans-Bold-66" d="M 2431 2778 
L 1606 2778 
L 1606 0 
L 653 0 
L 653 2778 
L 128 2778 
L 128 3238 
L 653 3494 
L 653 3750 
Q 653 4197 804 4445 
Q 956 4694 1232 4795 
Q 1509 4897 1888 4897 
Q 2166 4897 2394 4851 
Q 2622 4806 2766 4750 
L 2522 4050 
Q 2413 4084 2284 4112 
Q 2156 4141 1991 4141 
Q 1791 4141 1698 4020 
Q 1606 3900 1606 3713 
L 1606 3494 
L 2431 3494 
L 2431 2778 
z
" transform="scale(0.015625)"/>
       <path id="OpenSans-Bold-28" d="M 256 1753 
Q 256 2275 356 2773 
Q 456 3272 665 3726 
Q 875 4181 1197 4569 
L 1978 4569 
Q 1541 3969 1314 3244 
Q 1088 2519 1088 1759 
Q 1088 1266 1188 777 
Q 1288 288 1486 -165 
Q 1684 -619 1972 -1013 
L 1197 -1013 
Q 875 -638 665 -192 
Q 456 253 356 745 
Q 256 1238 256 1753 
z
" transform="scale(0.015625)"/>
       <path id="OpenSans-Bold-29" d="M 1913 1753 
Q 1913 1238 1813 745 
Q 1713 253 1505 -192 
Q 1297 -638 972 -1013 
L 197 -1013 
Q 488 -619 684 -165 
Q 881 288 981 777 
Q 1081 1266 1081 1759 
Q 1081 2266 979 2759 
Q 878 3253 681 3711 
Q 484 4169 191 4569 
L 972 4569 
Q 1297 4181 1505 3726 
Q 1713 3272 1813 2773 
Q 1913 2275 1913 1753 
z
" transform="scale(0.015625)"/>
      </defs>
      <use xlink:href="#OpenSans-Bold-45"/>
      <use xlink:href="#OpenSans-Bold-6e" x="56.005859"/>
      <use xlink:href="#OpenSans-Bold-65" x="121.728516"/>
      <use xlink:href="#OpenSans-Bold-72" x="180.810547"/>
      <use xlink:href="#OpenSans-Bold-67" x="226.220703"/>
      <use xlink:href="#OpenSans-Bold-ed" x="282.714844"/>
      <use xlink:href="#OpenSans-Bold-61" x="313.232422"/>
      <use xlink:href="#OpenSans-Bold-20" x="373.632812"/>
      <use xlink:href="#OpenSans-Bold-79" x="399.609375"/>
      <use xlink:href="#OpenSans-Bold-20" x="456.494141"/>
      <use xlink:href="#OpenSans-Bold-45" x="482.470703"/>
      <use xlink:href="#OpenSans-Bold-66" x="538.476562"/>
      <use xlink:href="#OpenSans-Bold-69" x="577.197266"/>
      <use xlink:href="#OpenSans-Bold-63" x="607.714844"/>
      <use xlink:href="#OpenSans-Bold-69" x="659.130859"/>
      <use xlink:href="#OpenSans-Bold-65" x="689.648438"/>
      <use xlink:href="#OpenSans-Bold-6e" x="748.730469"/>
      <use xlink:href="#OpenSans-Bold-63" x="814.453125"/>
      <use xlink:href="#OpenSans-Bold-69" x="865.869141"/>
      <use xlink:href="#OpenSans-Bold-61" x="896.386719"/>
      <use xlink:href="#OpenSans-Bold-20" x="956.787109"/>
      <use xlink:href="#OpenSans-Bold-28" x="982.763672"/>
      <use xlink:href="#OpenSans-Bold-31" x="1016.650391"/>
      <use xlink:href="#OpenSans-Bold-29" x="1073.828125"/>
     </g>
    </g>
    <g id="patch_24">
     <path d="M 643.025 72.465625 
L 663.025 72.465625 
L 663.025 65.465625 
L 643.025 65.465625 
z
" style="fill: #f2e2d2"/>
    </g>
    <g id="text_22">
     <!-- Comercio -->
     <g style="fill: #37539c" transform="translate(671.025 72.465625) scale(0.1 -0.1)">
      <defs>
       <path id="OpenSans-Bold-6f" d="M 3675 1753 
Q 3675 1316 3558 978 
Q 3441 641 3217 408 
Q 2994 175 2680 56 
Q 2366 -63 1972 -63 
Q 1603 -63 1295 56 
Q 988 175 761 408 
Q 534 641 411 978 
Q 288 1316 288 1753 
Q 288 2334 494 2737 
Q 700 3141 1081 3350 
Q 1463 3559 1991 3559 
Q 2481 3559 2861 3350 
Q 3241 3141 3458 2737 
Q 3675 2334 3675 1753 
z
M 1259 1753 
Q 1259 1409 1334 1175 
Q 1409 941 1568 822 
Q 1728 703 1984 703 
Q 2238 703 2395 822 
Q 2553 941 2626 1175 
Q 2700 1409 2700 1753 
Q 2700 2100 2626 2329 
Q 2553 2559 2393 2675 
Q 2234 2791 1978 2791 
Q 1600 2791 1429 2531 
Q 1259 2272 1259 1753 
z
" transform="scale(0.015625)"/>
       <path id="OpenSans-Bold-6d" d="M 4603 3559 
Q 5197 3559 5501 3254 
Q 5806 2950 5806 2278 
L 5806 0 
L 4850 0 
L 4850 2041 
Q 4850 2416 4722 2606 
Q 4594 2797 4325 2797 
Q 3947 2797 3787 2526 
Q 3628 2256 3628 1753 
L 3628 0 
L 2675 0 
L 2675 2041 
Q 2675 2291 2619 2459 
Q 2563 2628 2447 2712 
Q 2331 2797 2150 2797 
Q 1884 2797 1732 2664 
Q 1581 2531 1517 2273 
Q 1453 2016 1453 1644 
L 1453 0 
L 500 0 
L 500 3494 
L 1228 3494 
L 1356 3047 
L 1409 3047 
Q 1516 3228 1677 3340 
Q 1838 3453 2031 3506 
Q 2225 3559 2425 3559 
Q 2809 3559 3076 3434 
Q 3344 3309 3488 3047 
L 3572 3047 
Q 3728 3316 4014 3437 
Q 4300 3559 4603 3559 
z
" transform="scale(0.015625)"/>
      </defs>
      <use xlink:href="#OpenSans-Bold-43"/>
      <use xlink:href="#OpenSans-Bold-6f" x="63.720703"/>
      <use xlink:href="#OpenSans-Bold-6d" x="125.634766"/>
      <use xlink:href="#OpenSans-Bold-65" x="223.828125"/>
      <use xlink:href="#OpenSans-Bold-72" x="282.910156"/>
      <use xlink:href="#OpenSans-Bold-63" x="328.320312"/>
      <use xlink:href="#OpenSans-Bold-69" x="379.736328"/>
      <use xlink:href="#OpenSans-Bold-6f" x="410.253906"/>
     </g>
    </g>
    <g id="patch_25">
     <path d="M 643.025 87.467188 
L 663.025 87.467188 
L 663.025 80.467188 
L 643.025 80.467188 
z
" style="fill: #8fbc8f"/>
    </g>
    <g id="text_23">
     <!-- Otros Sectores (2) -->
     <g style="fill: #37539c" transform="translate(671.025 87.467188) scale(0.1 -0.1)">
      <defs>
       <path id="OpenSans-Bold-4f" d="M 4722 2291 
Q 4722 1763 4590 1330 
Q 4459 897 4192 584 
Q 3925 272 3515 104 
Q 3106 -63 2547 -63 
Q 1988 -63 1578 104 
Q 1169 272 901 584 
Q 634 897 503 1331 
Q 372 1766 372 2297 
Q 372 3006 605 3532 
Q 838 4059 1322 4350 
Q 1806 4641 2553 4641 
Q 3297 4641 3776 4350 
Q 4256 4059 4489 3531 
Q 4722 3003 4722 2291 
z
M 1388 2291 
Q 1388 1813 1508 1467 
Q 1628 1122 1884 936 
Q 2141 750 2547 750 
Q 2959 750 3215 936 
Q 3472 1122 3589 1467 
Q 3706 1813 3706 2291 
Q 3706 3009 3437 3421 
Q 3169 3834 2553 3834 
Q 2144 3834 1886 3648 
Q 1628 3463 1508 3117 
Q 1388 2772 1388 2291 
z
" transform="scale(0.015625)"/>
       <path id="OpenSans-Bold-73" d="M 2938 1038 
Q 2938 681 2770 436 
Q 2603 191 2272 64 
Q 1941 -63 1447 -63 
Q 1081 -63 820 -16 
Q 559 31 294 141 
L 294 928 
Q 578 800 904 717 
Q 1231 634 1478 634 
Q 1756 634 1876 717 
Q 1997 800 1997 934 
Q 1997 1022 1948 1092 
Q 1900 1163 1740 1252 
Q 1581 1341 1241 1484 
Q 913 1622 702 1762 
Q 491 1903 389 2095 
Q 288 2288 288 2584 
Q 288 3069 664 3314 
Q 1041 3559 1672 3559 
Q 1997 3559 2292 3493 
Q 2588 3428 2900 3284 
L 2613 2597 
Q 2353 2709 2123 2781 
Q 1894 2853 1656 2853 
Q 1447 2853 1340 2797 
Q 1234 2741 1234 2625 
Q 1234 2541 1289 2475 
Q 1344 2409 1501 2329 
Q 1659 2250 1966 2125 
Q 2263 2003 2481 1870 
Q 2700 1738 2819 1542 
Q 2938 1347 2938 1038 
z
" transform="scale(0.015625)"/>
       <path id="OpenSans-Bold-53" d="M 3272 1269 
Q 3272 863 3075 563 
Q 2878 263 2501 100 
Q 2125 -63 1588 -63 
Q 1350 -63 1123 -31 
Q 897 0 689 61 
Q 481 122 294 213 
L 294 1113 
Q 619 969 969 853 
Q 1319 738 1663 738 
Q 1900 738 2045 800 
Q 2191 863 2256 972 
Q 2322 1081 2322 1222 
Q 2322 1394 2206 1516 
Q 2091 1638 1889 1744 
Q 1688 1850 1434 1972 
Q 1275 2047 1087 2155 
Q 900 2263 731 2419 
Q 563 2575 455 2798 
Q 347 3022 347 3334 
Q 347 3744 534 4034 
Q 722 4325 1070 4479 
Q 1419 4634 1894 4634 
Q 2250 4634 2573 4551 
Q 2897 4469 3250 4313 
L 2938 3559 
Q 2622 3688 2372 3758 
Q 2122 3828 1863 3828 
Q 1681 3828 1553 3770 
Q 1425 3713 1359 3608 
Q 1294 3503 1294 3366 
Q 1294 3203 1389 3092 
Q 1484 2981 1676 2878 
Q 1869 2775 2156 2638 
Q 2506 2472 2754 2292 
Q 3003 2113 3137 1870 
Q 3272 1628 3272 1269 
z
" transform="scale(0.015625)"/>
      </defs>
      <use xlink:href="#OpenSans-Bold-4f"/>
      <use xlink:href="#OpenSans-Bold-74" x="79.589844"/>
      <use xlink:href="#OpenSans-Bold-72" x="122.998047"/>
      <use xlink:href="#OpenSans-Bold-6f" x="168.408203"/>
      <use xlink:href="#OpenSans-Bold-73" x="230.322266"/>
      <use xlink:href="#OpenSans-Bold-20" x="280.029297"/>
      <use xlink:href="#OpenSans-Bold-53" x="306.005859"/>
      <use xlink:href="#OpenSans-Bold-65" x="361.083984"/>
      <use xlink:href="#OpenSans-Bold-63" x="420.166016"/>
      <use xlink:href="#OpenSans-Bold-74" x="471.582031"/>
      <use xlink:href="#OpenSans-Bold-6f" x="514.990234"/>
      <use xlink:href="#OpenSans-Bold-72" x="576.904297"/>
      <use xlink:href="#OpenSans-Bold-65" x="622.314453"/>
      <use xlink:href="#OpenSans-Bold-73" x="681.396484"/>
      <use xlink:href="#OpenSans-Bold-20" x="731.103516"/>
      <use xlink:href="#OpenSans-Bold-28" x="757.080078"/>
      <use xlink:href="#OpenSans-Bold-32" x="790.966797"/>
      <use xlink:href="#OpenSans-Bold-29" x="848.144531"/>
     </g>
    </g>
    <g id="patch_26">
     <path d="M 643.025 102.53125 
L 663.025 102.53125 
L 663.025 95.53125 
L 643.025 95.53125 
z
" style="fill: #d2691e"/>
    </g>
    <g id="text_24">
     <!-- Exploración Minera -->
     <g style="fill: #37539c" transform="translate(671.025 102.53125) scale(0.1 -0.1)">
      <defs>
       <path id="OpenSans-Bold-78" d="M 1216 1784 
L 91 3494 
L 1172 3494 
L 1850 2381 
L 2534 3494 
L 3616 3494 
L 2478 1784 
L 3669 0 
L 2584 0 
L 1850 1197 
L 1113 0 
L 31 0 
L 1216 1784 
z
" transform="scale(0.015625)"/>
       <path id="OpenSans-Bold-70" d="M 2444 3559 
Q 3034 3559 3398 3100 
Q 3763 2641 3763 1753 
Q 3763 1159 3591 754 
Q 3419 350 3116 143 
Q 2813 -63 2419 -63 
Q 2166 -63 1984 1 
Q 1803 66 1675 167 
Q 1547 269 1453 384 
L 1403 384 
Q 1428 259 1440 128 
Q 1453 -3 1453 -128 
L 1453 -1538 
L 500 -1538 
L 500 3494 
L 1275 3494 
L 1409 3041 
L 1453 3041 
Q 1547 3181 1681 3300 
Q 1816 3419 2005 3489 
Q 2194 3559 2444 3559 
z
M 2138 2797 
Q 1888 2797 1741 2694 
Q 1594 2591 1526 2384 
Q 1459 2178 1453 1863 
L 1453 1759 
Q 1453 1422 1517 1187 
Q 1581 953 1732 831 
Q 1884 709 2150 709 
Q 2369 709 2509 831 
Q 2650 953 2720 1189 
Q 2791 1425 2791 1766 
Q 2791 2278 2631 2537 
Q 2472 2797 2138 2797 
z
" transform="scale(0.015625)"/>
       <path id="OpenSans-Bold-f3" d="M 3675 1753 
Q 3675 1316 3558 978 
Q 3441 641 3217 408 
Q 2994 175 2680 56 
Q 2366 -63 1972 -63 
Q 1603 -63 1295 56 
Q 988 175 761 408 
Q 534 641 411 978 
Q 288 1316 288 1753 
Q 288 2334 494 2737 
Q 700 3141 1081 3350 
Q 1463 3559 1991 3559 
Q 2481 3559 2861 3350 
Q 3241 3141 3458 2737 
Q 3675 2334 3675 1753 
z
M 1259 1753 
Q 1259 1409 1334 1175 
Q 1409 941 1568 822 
Q 1728 703 1984 703 
Q 2238 703 2395 822 
Q 2553 941 2626 1175 
Q 2700 1409 2700 1753 
Q 2700 2100 2626 2329 
Q 2553 2559 2393 2675 
Q 2234 2791 1978 2791 
Q 1600 2791 1429 2531 
Q 1259 2272 1259 1753 
z
M 3211 4903 
L 3211 4838 
Q 3121 4750 2974 4622 
Q 2827 4494 2658 4355 
Q 2490 4216 2327 4089 
Q 2165 3963 2043 3878 
L 1408 3878 
L 1408 3963 
Q 1511 4081 1647 4245 
Q 1783 4409 1917 4584 
Q 2052 4759 2143 4903 
L 3211 4903 
z
" transform="scale(0.015625)"/>
       <path id="OpenSans-Bold-4d" d="M 2509 0 
L 1409 3584 
L 1381 3584 
Q 1388 3456 1402 3198 
Q 1416 2941 1428 2650 
Q 1441 2359 1441 2125 
L 1441 0 
L 575 0 
L 575 4569 
L 1894 4569 
L 2975 1075 
L 2994 1075 
L 4141 4569 
L 5459 4569 
L 5459 0 
L 4556 0 
L 4556 2163 
Q 4556 2378 4564 2659 
Q 4572 2941 4584 3195 
Q 4597 3450 4603 3578 
L 4575 3578 
L 3397 0 
L 2509 0 
z
" transform="scale(0.015625)"/>
      </defs>
      <use xlink:href="#OpenSans-Bold-45"/>
      <use xlink:href="#OpenSans-Bold-78" x="56.005859"/>
      <use xlink:href="#OpenSans-Bold-70" x="113.818359"/>
      <use xlink:href="#OpenSans-Bold-6c" x="177.099609"/>
      <use xlink:href="#OpenSans-Bold-6f" x="207.617188"/>
      <use xlink:href="#OpenSans-Bold-72" x="269.53125"/>
      <use xlink:href="#OpenSans-Bold-61" x="314.941406"/>
      <use xlink:href="#OpenSans-Bold-63" x="375.341797"/>
      <use xlink:href="#OpenSans-Bold-69" x="426.757812"/>
      <use xlink:href="#OpenSans-Bold-f3" x="457.275391"/>
      <use xlink:href="#OpenSans-Bold-6e" x="519.189453"/>
      <use xlink:href="#OpenSans-Bold-20" x="584.912109"/>
      <use xlink:href="#OpenSans-Bold-4d" x="610.888672"/>
      <use xlink:href="#OpenSans-Bold-69" x="705.175781"/>
      <use xlink:href="#OpenSans-Bold-6e" x="735.693359"/>
      <use xlink:href="#OpenSans-Bold-65" x="801.416016"/>
      <use xlink:href="#OpenSans-Bold-72" x="860.498047"/>
      <use xlink:href="#OpenSans-Bold-61" x="905.908203"/>
     </g>
    </g>
    <g id="patch_27">
     <path d="M 643.025 117.595313 
L 663.025 117.595313 
L 663.025 110.595313 
L 643.025 110.595313 
z
" style="fill: #f0e68c"/>
    </g>
    <g id="text_25">
     <!-- Biotecnología -->
     <g style="fill: #37539c" transform="translate(671.025 117.595313) scale(0.1 -0.1)">
      <defs>
       <path id="OpenSans-Bold-42" d="M 575 4569 
L 1997 4569 
Q 2909 4569 3378 4312 
Q 3847 4056 3847 3413 
Q 3847 3153 3764 2943 
Q 3681 2734 3525 2600 
Q 3369 2466 3144 2425 
L 3144 2394 
Q 3372 2347 3556 2233 
Q 3741 2119 3852 1901 
Q 3963 1684 3963 1325 
Q 3963 909 3759 612 
Q 3556 316 3179 158 
Q 2803 0 2284 0 
L 575 0 
L 575 4569 
z
M 1544 2759 
L 2106 2759 
Q 2528 2759 2690 2892 
Q 2853 3025 2853 3284 
Q 2853 3547 2661 3661 
Q 2469 3775 2053 3775 
L 1544 3775 
L 1544 2759 
z
M 1544 1991 
L 1544 800 
L 2175 800 
Q 2613 800 2784 969 
Q 2956 1138 2956 1422 
Q 2956 1591 2881 1719 
Q 2806 1847 2629 1919 
Q 2453 1991 2144 1991 
L 1544 1991 
z
" transform="scale(0.015625)"/>
      </defs>
      <use xlink:href="#OpenSans-Bold-42"/>
      <use xlink:href="#OpenSans-Bold-69" x="67.1875"/>
      <use xlink:href="#OpenSans-Bold-6f" x="97.705078"/>
      <use xlink:href="#OpenSans-Bold-74" x="159.619141"/>
      <use xlink:href="#OpenSans-Bold-65" x="203.027344"/>
      <use xlink:href="#OpenSans-Bold-63" x="262.109375"/>
      <use xlink:href="#OpenSans-Bold-6e" x="313.525391"/>
      <use xlink:href="#OpenSans-Bold-6f" x="379.248047"/>
      <use xlink:href="#OpenSans-Bold-6c" x="441.162109"/>
      <use xlink:href="#OpenSans-Bold-6f" x="471.679688"/>
      <use xlink:href="#OpenSans-Bold-67" x="533.59375"/>
      <use xlink:href="#OpenSans-Bold-ed" x="590.087891"/>
      <use xlink:href="#OpenSans-Bold-61" x="620.605469"/>
     </g>
    </g>
    <g id="patch_28">
     <path d="M 643.025 132.596875 
L 663.025 132.596875 
L 663.025 125.596875 
L 643.025 125.596875 
z
" style="fill: #ffd700"/>
    </g>
    <g id="text_26">
     <!-- Prestación de Servicios -->
     <g style="fill: #37539c" transform="translate(671.025 132.596875) scale(0.1 -0.1)">
      <defs>
       <path id="OpenSans-Bold-50" d="M 2034 4569 
Q 2919 4569 3325 4189 
Q 3731 3809 3731 3144 
Q 3731 2844 3640 2570 
Q 3550 2297 3345 2084 
Q 3141 1872 2800 1748 
Q 2459 1625 1959 1625 
L 1544 1625 
L 1544 0 
L 575 0 
L 575 4569 
L 2034 4569 
z
M 1984 3775 
L 1544 3775 
L 1544 2419 
L 1863 2419 
Q 2134 2419 2334 2491 
Q 2534 2563 2643 2716 
Q 2753 2869 2753 3109 
Q 2753 3447 2565 3611 
Q 2378 3775 1984 3775 
z
" transform="scale(0.015625)"/>
       <path id="OpenSans-Bold-64" d="M 1606 -63 
Q 1022 -63 655 395 
Q 288 853 288 1741 
Q 288 2638 659 3098 
Q 1031 3559 1631 3559 
Q 1881 3559 2072 3490 
Q 2263 3422 2402 3306 
Q 2541 3191 2638 3047 
L 2669 3047 
Q 2650 3147 2623 3342 
Q 2597 3538 2597 3744 
L 2597 4863 
L 3553 4863 
L 3553 0 
L 2822 0 
L 2638 453 
L 2597 453 
Q 2506 309 2370 192 
Q 2234 75 2046 6 
Q 1859 -63 1606 -63 
z
M 1941 697 
Q 2331 697 2492 930 
Q 2653 1163 2663 1631 
L 2663 1734 
Q 2663 2244 2506 2514 
Q 2350 2784 1925 2784 
Q 1609 2784 1431 2512 
Q 1253 2241 1253 1728 
Q 1253 1216 1433 956 
Q 1613 697 1941 697 
z
" transform="scale(0.015625)"/>
       <path id="OpenSans-Bold-76" d="M 1331 0 
L 0 3494 
L 997 3494 
L 1672 1503 
Q 1728 1328 1761 1134 
Q 1794 941 1806 788 
L 1831 788 
Q 1841 953 1877 1140 
Q 1913 1328 1972 1503 
L 2644 3494 
L 3641 3494 
L 2309 0 
L 1331 0 
z
" transform="scale(0.015625)"/>
      </defs>
      <use xlink:href="#OpenSans-Bold-50"/>
      <use xlink:href="#OpenSans-Bold-72" x="62.792969"/>
      <use xlink:href="#OpenSans-Bold-65" x="108.203125"/>
      <use xlink:href="#OpenSans-Bold-73" x="167.285156"/>
      <use xlink:href="#OpenSans-Bold-74" x="216.992188"/>
      <use xlink:href="#OpenSans-Bold-61" x="260.400391"/>
      <use xlink:href="#OpenSans-Bold-63" x="320.800781"/>
      <use xlink:href="#OpenSans-Bold-69" x="372.216797"/>
      <use xlink:href="#OpenSans-Bold-f3" x="402.734375"/>
      <use xlink:href="#OpenSans-Bold-6e" x="464.648438"/>
      <use xlink:href="#OpenSans-Bold-20" x="530.371094"/>
      <use xlink:href="#OpenSans-Bold-64" x="556.347656"/>
      <use xlink:href="#OpenSans-Bold-65" x="619.628906"/>
      <use xlink:href="#OpenSans-Bold-20" x="678.710938"/>
      <use xlink:href="#OpenSans-Bold-53" x="704.6875"/>
      <use xlink:href="#OpenSans-Bold-65" x="759.765625"/>
      <use xlink:href="#OpenSans-Bold-72" x="818.847656"/>
      <use xlink:href="#OpenSans-Bold-76" x="864.257812"/>
      <use xlink:href="#OpenSans-Bold-69" x="921.142578"/>
      <use xlink:href="#OpenSans-Bold-63" x="951.660156"/>
      <use xlink:href="#OpenSans-Bold-69" x="1003.076172"/>
      <use xlink:href="#OpenSans-Bold-6f" x="1033.59375"/>
      <use xlink:href="#OpenSans-Bold-73" x="1095.507812"/>
     </g>
    </g>
    <g id="patch_29">
     <path d="M 643.025 147.660938 
L 663.025 147.660938 
L 663.025 140.660938 
L 643.025 140.660938 
z
" style="fill: #9fb7b9"/>
    </g>
    <g id="text_27">
     <!-- Explotación de Minas y Canteras -->
     <g style="fill: #37539c" transform="translate(671.025 147.660938) scale(0.1 -0.1)">
      <use xlink:href="#OpenSans-Bold-45"/>
      <use xlink:href="#OpenSans-Bold-78" x="56.005859"/>
      <use xlink:href="#OpenSans-Bold-70" x="113.818359"/>
      <use xlink:href="#OpenSans-Bold-6c" x="177.099609"/>
      <use xlink:href="#OpenSans-Bold-6f" x="207.617188"/>
      <use xlink:href="#OpenSans-Bold-74" x="269.53125"/>
      <use xlink:href="#OpenSans-Bold-61" x="312.939453"/>
      <use xlink:href="#OpenSans-Bold-63" x="373.339844"/>
      <use xlink:href="#OpenSans-Bold-69" x="424.755859"/>
      <use xlink:href="#OpenSans-Bold-f3" x="455.273438"/>
      <use xlink:href="#OpenSans-Bold-6e" x="517.1875"/>
      <use xlink:href="#OpenSans-Bold-20" x="582.910156"/>
      <use xlink:href="#OpenSans-Bold-64" x="608.886719"/>
      <use xlink:href="#OpenSans-Bold-65" x="672.167969"/>
      <use xlink:href="#OpenSans-Bold-20" x="731.25"/>
      <use xlink:href="#OpenSans-Bold-4d" x="757.226562"/>
      <use xlink:href="#OpenSans-Bold-69" x="851.513672"/>
      <use xlink:href="#OpenSans-Bold-6e" x="882.03125"/>
      <use xlink:href="#OpenSans-Bold-61" x="947.753906"/>
      <use xlink:href="#OpenSans-Bold-73" x="1008.154297"/>
      <use xlink:href="#OpenSans-Bold-20" x="1057.861328"/>
      <use xlink:href="#OpenSans-Bold-79" x="1083.837891"/>
      <use xlink:href="#OpenSans-Bold-20" x="1140.722656"/>
      <use xlink:href="#OpenSans-Bold-43" x="1166.699219"/>
      <use xlink:href="#OpenSans-Bold-61" x="1230.419922"/>
      <use xlink:href="#OpenSans-Bold-6e" x="1290.820312"/>
      <use xlink:href="#OpenSans-Bold-74" x="1356.542969"/>
      <use xlink:href="#OpenSans-Bold-65" x="1399.951172"/>
      <use xlink:href="#OpenSans-Bold-72" x="1459.033203"/>
      <use xlink:href="#OpenSans-Bold-61" x="1504.443359"/>
      <use xlink:href="#OpenSans-Bold-73" x="1564.84375"/>
     </g>
    </g>
    <g id="patch_30">
     <path d="M 643.025 162.6625 
L 663.025 162.6625 
L 663.025 155.6625 
L 643.025 155.6625 
z
" style="fill: #ff7f50"/>
    </g>
    <g id="text_28">
     <!-- Educación -->
     <g style="fill: #37539c" transform="translate(671.025 162.6625) scale(0.1 -0.1)">
      <use xlink:href="#OpenSans-Bold-45"/>
      <use xlink:href="#OpenSans-Bold-64" x="56.005859"/>
      <use xlink:href="#OpenSans-Bold-75" x="119.287109"/>
      <use xlink:href="#OpenSans-Bold-63" x="185.009766"/>
      <use xlink:href="#OpenSans-Bold-61" x="236.425781"/>
      <use xlink:href="#OpenSans-Bold-63" x="296.826172"/>
      <use xlink:href="#OpenSans-Bold-69" x="348.242188"/>
      <use xlink:href="#OpenSans-Bold-f3" x="378.759766"/>
      <use xlink:href="#OpenSans-Bold-6e" x="440.673828"/>
     </g>
    </g>
    <g id="patch_31">
     <path d="M 643.025 177.664062 
L 663.025 177.664062 
L 663.025 170.664062 
L 643.025 170.664062 
z
" style="fill: #696969"/>
    </g>
    <g id="text_29">
     <!-- Acuicultura y Pesca -->
     <g style="fill: #37539c" transform="translate(671.025 177.664062) scale(0.1 -0.1)">
      <use xlink:href="#OpenSans-Bold-41"/>
      <use xlink:href="#OpenSans-Bold-63" x="68.994141"/>
      <use xlink:href="#OpenSans-Bold-75" x="120.410156"/>
      <use xlink:href="#OpenSans-Bold-69" x="186.132812"/>
      <use xlink:href="#OpenSans-Bold-63" x="216.650391"/>
      <use xlink:href="#OpenSans-Bold-75" x="268.066406"/>
      <use xlink:href="#OpenSans-Bold-6c" x="333.789062"/>
      <use xlink:href="#OpenSans-Bold-74" x="364.306641"/>
      <use xlink:href="#OpenSans-Bold-75" x="407.714844"/>
      <use xlink:href="#OpenSans-Bold-72" x="473.4375"/>
      <use xlink:href="#OpenSans-Bold-61" x="518.847656"/>
      <use xlink:href="#OpenSans-Bold-20" x="579.248047"/>
      <use xlink:href="#OpenSans-Bold-79" x="605.224609"/>
      <use xlink:href="#OpenSans-Bold-20" x="662.109375"/>
      <use xlink:href="#OpenSans-Bold-50" x="688.085938"/>
      <use xlink:href="#OpenSans-Bold-65" x="750.878906"/>
      <use xlink:href="#OpenSans-Bold-73" x="809.960938"/>
      <use xlink:href="#OpenSans-Bold-63" x="859.667969"/>
      <use xlink:href="#OpenSans-Bold-61" x="911.083984"/>
     </g>
    </g>
    <g id="patch_32">
     <path d="M 643.025 192.665625 
L 663.025 192.665625 
L 663.025 185.665625 
L 643.025 185.665625 
z
" style="fill: #4062bb"/>
    </g>
    <g id="text_30">
     <!-- Productos Químicos -->
     <g style="fill: #37539c" transform="translate(671.025 192.665625) scale(0.1 -0.1)">
      <defs>
       <path id="OpenSans-Bold-51" d="M 4722 2291 
Q 4722 1781 4601 1357 
Q 4481 934 4231 625 
Q 3981 316 3597 141 
L 4697 -1088 
L 3456 -1088 
L 2619 -63 
Q 2597 -63 2581 -63 
Q 2566 -63 2547 -63 
Q 1988 -63 1578 104 
Q 1169 272 901 584 
Q 634 897 503 1331 
Q 372 1766 372 2297 
Q 372 3006 605 3532 
Q 838 4059 1322 4350 
Q 1806 4641 2553 4641 
Q 3297 4641 3776 4350 
Q 4256 4059 4489 3531 
Q 4722 3003 4722 2291 
z
M 1388 2291 
Q 1388 1813 1508 1467 
Q 1628 1122 1884 936 
Q 2141 750 2547 750 
Q 2959 750 3215 936 
Q 3472 1122 3589 1467 
Q 3706 1813 3706 2291 
Q 3706 3009 3437 3421 
Q 3169 3834 2553 3834 
Q 2144 3834 1886 3648 
Q 1628 3463 1508 3117 
Q 1388 2772 1388 2291 
z
" transform="scale(0.015625)"/>
      </defs>
      <use xlink:href="#OpenSans-Bold-50"/>
      <use xlink:href="#OpenSans-Bold-72" x="62.792969"/>
      <use xlink:href="#OpenSans-Bold-6f" x="108.203125"/>
      <use xlink:href="#OpenSans-Bold-64" x="170.117188"/>
      <use xlink:href="#OpenSans-Bold-75" x="233.398438"/>
      <use xlink:href="#OpenSans-Bold-63" x="299.121094"/>
      <use xlink:href="#OpenSans-Bold-74" x="350.537109"/>
      <use xlink:href="#OpenSans-Bold-6f" x="393.945312"/>
      <use xlink:href="#OpenSans-Bold-73" x="455.859375"/>
      <use xlink:href="#OpenSans-Bold-20" x="505.566406"/>
      <use xlink:href="#OpenSans-Bold-51" x="531.542969"/>
      <use xlink:href="#OpenSans-Bold-75" x="611.132812"/>
      <use xlink:href="#OpenSans-Bold-ed" x="676.855469"/>
      <use xlink:href="#OpenSans-Bold-6d" x="707.373047"/>
      <use xlink:href="#OpenSans-Bold-69" x="805.566406"/>
      <use xlink:href="#OpenSans-Bold-63" x="836.083984"/>
      <use xlink:href="#OpenSans-Bold-6f" x="887.5"/>
      <use xlink:href="#OpenSans-Bold-73" x="949.414062"/>
     </g>
    </g>
    <g id="patch_33">
     <path d="M 643.025 207.667188 
L 663.025 207.667188 
L 663.025 200.667188 
L 643.025 200.667188 
z
" style="fill: #46b1c9"/>
    </g>
    <g id="text_31">
     <!-- Productos Alimenticios -->
     <g style="fill: #37539c" transform="translate(671.025 207.667188) scale(0.1 -0.1)">
      <use xlink:href="#OpenSans-Bold-50"/>
      <use xlink:href="#OpenSans-Bold-72" x="62.792969"/>
      <use xlink:href="#OpenSans-Bold-6f" x="108.203125"/>
      <use xlink:href="#OpenSans-Bold-64" x="170.117188"/>
      <use xlink:href="#OpenSans-Bold-75" x="233.398438"/>
      <use xlink:href="#OpenSans-Bold-63" x="299.121094"/>
      <use xlink:href="#OpenSans-Bold-74" x="350.537109"/>
      <use xlink:href="#OpenSans-Bold-6f" x="393.945312"/>
      <use xlink:href="#OpenSans-Bold-73" x="455.859375"/>
      <use xlink:href="#OpenSans-Bold-20" x="505.566406"/>
      <use xlink:href="#OpenSans-Bold-41" x="531.542969"/>
      <use xlink:href="#OpenSans-Bold-6c" x="600.537109"/>
      <use xlink:href="#OpenSans-Bold-69" x="631.054688"/>
      <use xlink:href="#OpenSans-Bold-6d" x="661.572266"/>
      <use xlink:href="#OpenSans-Bold-65" x="759.765625"/>
      <use xlink:href="#OpenSans-Bold-6e" x="818.847656"/>
      <use xlink:href="#OpenSans-Bold-74" x="884.570312"/>
      <use xlink:href="#OpenSans-Bold-69" x="927.978516"/>
      <use xlink:href="#OpenSans-Bold-63" x="958.496094"/>
      <use xlink:href="#OpenSans-Bold-69" x="1009.912109"/>
      <use xlink:href="#OpenSans-Bold-6f" x="1040.429688"/>
      <use xlink:href="#OpenSans-Bold-73" x="1102.34375"/>
     </g>
    </g>
    <g id="patch_34">
     <path d="M 643.025 222.66875 
L 663.025 222.66875 
L 663.025 215.66875 
L 643.025 215.66875 
z
" style="fill: #b0e0e6"/>
    </g>
    <g id="text_32">
     <!-- Fabricación de Productos Minerales -->
     <g style="fill: #37539c" transform="translate(671.025 222.66875) scale(0.1 -0.1)">
      <defs>
       <path id="OpenSans-Bold-46" d="M 1528 0 
L 575 0 
L 575 4569 
L 3194 4569 
L 3194 3775 
L 1528 3775 
L 1528 2597 
L 3078 2597 
L 3078 1806 
L 1528 1806 
L 1528 0 
z
" transform="scale(0.015625)"/>
       <path id="OpenSans-Bold-62" d="M 1453 4863 
L 1453 3731 
Q 1453 3534 1442 3340 
Q 1431 3147 1416 3041 
L 1453 3041 
Q 1591 3256 1828 3407 
Q 2066 3559 2444 3559 
Q 3031 3559 3397 3100 
Q 3763 2641 3763 1753 
Q 3763 1156 3594 751 
Q 3425 347 3122 142 
Q 2819 -63 2419 -63 
Q 2034 -63 1812 75 
Q 1591 213 1453 384 
L 1388 384 
L 1228 0 
L 500 0 
L 500 4863 
L 1453 4863 
z
M 2138 2797 
Q 1888 2797 1741 2694 
Q 1594 2591 1526 2384 
Q 1459 2178 1453 1863 
L 1453 1759 
Q 1453 1250 1603 979 
Q 1753 709 2150 709 
Q 2444 709 2617 981 
Q 2791 1253 2791 1766 
Q 2791 2278 2616 2537 
Q 2441 2797 2138 2797 
z
" transform="scale(0.015625)"/>
      </defs>
      <use xlink:href="#OpenSans-Bold-46"/>
      <use xlink:href="#OpenSans-Bold-61" x="54.882812"/>
      <use xlink:href="#OpenSans-Bold-62" x="115.283203"/>
      <use xlink:href="#OpenSans-Bold-72" x="178.564453"/>
      <use xlink:href="#OpenSans-Bold-69" x="223.974609"/>
      <use xlink:href="#OpenSans-Bold-63" x="254.492188"/>
      <use xlink:href="#OpenSans-Bold-61" x="305.908203"/>
      <use xlink:href="#OpenSans-Bold-63" x="366.308594"/>
      <use xlink:href="#OpenSans-Bold-69" x="417.724609"/>
      <use xlink:href="#OpenSans-Bold-f3" x="448.242188"/>
      <use xlink:href="#OpenSans-Bold-6e" x="510.15625"/>
      <use xlink:href="#OpenSans-Bold-20" x="575.878906"/>
      <use xlink:href="#OpenSans-Bold-64" x="601.855469"/>
      <use xlink:href="#OpenSans-Bold-65" x="665.136719"/>
      <use xlink:href="#OpenSans-Bold-20" x="724.21875"/>
      <use xlink:href="#OpenSans-Bold-50" x="750.195312"/>
      <use xlink:href="#OpenSans-Bold-72" x="812.988281"/>
      <use xlink:href="#OpenSans-Bold-6f" x="858.398438"/>
      <use xlink:href="#OpenSans-Bold-64" x="920.3125"/>
      <use xlink:href="#OpenSans-Bold-75" x="983.59375"/>
      <use xlink:href="#OpenSans-Bold-63" x="1049.316406"/>
      <use xlink:href="#OpenSans-Bold-74" x="1100.732422"/>
      <use xlink:href="#OpenSans-Bold-6f" x="1144.140625"/>
      <use xlink:href="#OpenSans-Bold-73" x="1206.054688"/>
      <use xlink:href="#OpenSans-Bold-20" x="1255.761719"/>
      <use xlink:href="#OpenSans-Bold-4d" x="1281.738281"/>
      <use xlink:href="#OpenSans-Bold-69" x="1376.025391"/>
      <use xlink:href="#OpenSans-Bold-6e" x="1406.542969"/>
      <use xlink:href="#OpenSans-Bold-65" x="1472.265625"/>
      <use xlink:href="#OpenSans-Bold-72" x="1531.347656"/>
      <use xlink:href="#OpenSans-Bold-61" x="1576.757812"/>
      <use xlink:href="#OpenSans-Bold-6c" x="1637.158203"/>
      <use xlink:href="#OpenSans-Bold-65" x="1667.675781"/>
      <use xlink:href="#OpenSans-Bold-73" x="1726.757812"/>
     </g>
    </g>
    <g id="patch_35">
     <path d="M 643.025 237.670313 
L 663.025 237.670313 
L 663.025 230.670313 
L 643.025 230.670313 
z
" style="fill: #bcc1ba"/>
    </g>
    <g id="text_33">
     <!-- Reciclaje -->
     <g style="fill: #37539c" transform="translate(671.025 237.670313) scale(0.1 -0.1)">
      <defs>
       <path id="OpenSans-Bold-52" d="M 1906 4569 
Q 2528 4569 2933 4419 
Q 3338 4269 3534 3966 
Q 3731 3663 3731 3200 
Q 3731 2888 3612 2653 
Q 3494 2419 3300 2256 
Q 3106 2094 2881 1991 
L 4225 0 
L 3150 0 
L 2059 1753 
L 1544 1753 
L 1544 0 
L 575 0 
L 575 4569 
L 1906 4569 
z
M 1838 3775 
L 1544 3775 
L 1544 2541 
L 1856 2541 
Q 2338 2541 2545 2702 
Q 2753 2863 2753 3175 
Q 2753 3500 2529 3637 
Q 2306 3775 1838 3775 
z
" transform="scale(0.015625)"/>
       <path id="OpenSans-Bold-6a" d="M 219 -1538 
Q 56 -1538 -119 -1514 
Q -294 -1491 -409 -1459 
L -409 -709 
Q -294 -741 -192 -755 
Q -91 -769 38 -769 
Q 231 -769 365 -661 
Q 500 -553 500 -238 
L 500 3494 
L 1453 3494 
L 1453 -378 
Q 1453 -697 1331 -961 
Q 1209 -1225 937 -1381 
Q 666 -1538 219 -1538 
z
M 459 4397 
Q 459 4666 611 4764 
Q 763 4863 978 4863 
Q 1191 4863 1344 4764 
Q 1497 4666 1497 4397 
Q 1497 4131 1344 4029 
Q 1191 3928 978 3928 
Q 763 3928 611 4029 
Q 459 4131 459 4397 
z
" transform="scale(0.015625)"/>
      </defs>
      <use xlink:href="#OpenSans-Bold-52"/>
      <use xlink:href="#OpenSans-Bold-65" x="66.015625"/>
      <use xlink:href="#OpenSans-Bold-63" x="125.097656"/>
      <use xlink:href="#OpenSans-Bold-69" x="176.513672"/>
      <use xlink:href="#OpenSans-Bold-63" x="207.03125"/>
      <use xlink:href="#OpenSans-Bold-6c" x="258.447266"/>
      <use xlink:href="#OpenSans-Bold-61" x="288.964844"/>
      <use xlink:href="#OpenSans-Bold-6a" x="349.365234"/>
      <use xlink:href="#OpenSans-Bold-65" x="379.882812"/>
     </g>
    </g>
    <g id="patch_36">
     <path d="M 643.025 252.671875 
L 663.025 252.671875 
L 663.025 245.671875 
L 643.025 245.671875 
z
" style="fill: #84c0c6"/>
    </g>
    <g id="text_34">
     <!-- Otras Industrias Manufactureras -->
     <g style="fill: #37539c" transform="translate(671.025 252.671875) scale(0.1 -0.1)">
      <use xlink:href="#OpenSans-Bold-4f"/>
      <use xlink:href="#OpenSans-Bold-74" x="79.589844"/>
      <use xlink:href="#OpenSans-Bold-72" x="122.998047"/>
      <use xlink:href="#OpenSans-Bold-61" x="168.408203"/>
      <use xlink:href="#OpenSans-Bold-73" x="228.808594"/>
      <use xlink:href="#OpenSans-Bold-20" x="278.515625"/>
      <use xlink:href="#OpenSans-Bold-49" x="304.492188"/>
      <use xlink:href="#OpenSans-Bold-6e" x="337.597656"/>
      <use xlink:href="#OpenSans-Bold-64" x="403.320312"/>
      <use xlink:href="#OpenSans-Bold-75" x="466.601562"/>
      <use xlink:href="#OpenSans-Bold-73" x="532.324219"/>
      <use xlink:href="#OpenSans-Bold-74" x="582.03125"/>
      <use xlink:href="#OpenSans-Bold-72" x="625.439453"/>
      <use xlink:href="#OpenSans-Bold-69" x="670.849609"/>
      <use xlink:href="#OpenSans-Bold-61" x="701.367188"/>
      <use xlink:href="#OpenSans-Bold-73" x="761.767578"/>
      <use xlink:href="#OpenSans-Bold-20" x="811.474609"/>
      <use xlink:href="#OpenSans-Bold-4d" x="837.451172"/>
      <use xlink:href="#OpenSans-Bold-61" x="931.738281"/>
      <use xlink:href="#OpenSans-Bold-6e" x="992.138672"/>
      <use xlink:href="#OpenSans-Bold-75" x="1057.861328"/>
      <use xlink:href="#OpenSans-Bold-66" x="1123.583984"/>
      <use xlink:href="#OpenSans-Bold-61" x="1162.304688"/>
      <use xlink:href="#OpenSans-Bold-63" x="1222.705078"/>
      <use xlink:href="#OpenSans-Bold-74" x="1274.121094"/>
      <use xlink:href="#OpenSans-Bold-75" x="1317.529297"/>
      <use xlink:href="#OpenSans-Bold-72" x="1383.251953"/>
      <use xlink:href="#OpenSans-Bold-65" x="1428.662109"/>
      <use xlink:href="#OpenSans-Bold-72" x="1487.744141"/>
      <use xlink:href="#OpenSans-Bold-61" x="1533.154297"/>
      <use xlink:href="#OpenSans-Bold-73" x="1593.554688"/>
     </g>
    </g>
    <g id="patch_37">
     <path d="M 643.025 267.673438 
L 663.025 267.673438 
L 663.025 260.673438 
L 643.025 260.673438 
z
" style="fill: #9acd32"/>
    </g>
    <g id="text_35">
     <!-- Industria Alimentaria -->
     <g style="fill: #37539c" transform="translate(671.025 267.673438) scale(0.1 -0.1)">
      <use xlink:href="#OpenSans-Bold-49"/>
      <use xlink:href="#OpenSans-Bold-6e" x="33.105469"/>
      <use xlink:href="#OpenSans-Bold-64" x="98.828125"/>
      <use xlink:href="#OpenSans-Bold-75" x="162.109375"/>
      <use xlink:href="#OpenSans-Bold-73" x="227.832031"/>
      <use xlink:href="#OpenSans-Bold-74" x="277.539062"/>
      <use xlink:href="#OpenSans-Bold-72" x="320.947266"/>
      <use xlink:href="#OpenSans-Bold-69" x="366.357422"/>
      <use xlink:href="#OpenSans-Bold-61" x="396.875"/>
      <use xlink:href="#OpenSans-Bold-20" x="457.275391"/>
      <use xlink:href="#OpenSans-Bold-41" x="483.251953"/>
      <use xlink:href="#OpenSans-Bold-6c" x="552.246094"/>
      <use xlink:href="#OpenSans-Bold-69" x="582.763672"/>
      <use xlink:href="#OpenSans-Bold-6d" x="613.28125"/>
      <use xlink:href="#OpenSans-Bold-65" x="711.474609"/>
      <use xlink:href="#OpenSans-Bold-6e" x="770.556641"/>
      <use xlink:href="#OpenSans-Bold-74" x="836.279297"/>
      <use xlink:href="#OpenSans-Bold-61" x="879.6875"/>
      <use xlink:href="#OpenSans-Bold-72" x="940.087891"/>
      <use xlink:href="#OpenSans-Bold-69" x="985.498047"/>
      <use xlink:href="#OpenSans-Bold-61" x="1016.015625"/>
     </g>
    </g>
    <g id="patch_38">
     <path d="M 643.025 282.675 
L 663.025 282.675 
L 663.025 275.675 
L 643.025 275.675 
z
" style="fill: #fff0f5"/>
    </g>
    <g id="text_36">
     <!-- Fintech -->
     <g style="fill: #37539c" transform="translate(671.025 282.675) scale(0.1 -0.1)">
      <defs>
       <path id="OpenSans-Bold-68" d="M 1453 4863 
L 1453 3872 
Q 1453 3613 1436 3378 
Q 1419 3144 1409 3047 
L 1459 3047 
Q 1572 3228 1726 3340 
Q 1881 3453 2068 3506 
Q 2256 3559 2472 3559 
Q 2850 3559 3131 3426 
Q 3413 3294 3569 3011 
Q 3725 2728 3725 2278 
L 3725 0 
L 2772 0 
L 2772 2041 
Q 2772 2416 2634 2606 
Q 2497 2797 2209 2797 
Q 1922 2797 1756 2664 
Q 1591 2531 1522 2273 
Q 1453 2016 1453 1644 
L 1453 0 
L 500 0 
L 500 4863 
L 1453 4863 
z
" transform="scale(0.015625)"/>
      </defs>
      <use xlink:href="#OpenSans-Bold-46"/>
      <use xlink:href="#OpenSans-Bold-69" x="54.882812"/>
      <use xlink:href="#OpenSans-Bold-6e" x="85.400391"/>
      <use xlink:href="#OpenSans-Bold-74" x="151.123047"/>
      <use xlink:href="#OpenSans-Bold-65" x="194.53125"/>
      <use xlink:href="#OpenSans-Bold-63" x="253.613281"/>
      <use xlink:href="#OpenSans-Bold-68" x="305.029297"/>
     </g>
    </g>
   </g>
  </g>
 </g>
</svg>
