<?xml version="1.0" encoding="utf-8" standalone="no"?>
<!DOCTYPE svg PUBLIC "-//W3C//DTD SVG 1.1//EN"
  "http://www.w3.org/Graphics/SVG/1.1/DTD/svg11.dtd">
<svg xmlns:xlink="http://www.w3.org/1999/xlink" width="936pt" height="360pt" viewBox="0 0 936 360" xmlns="http://www.w3.org/2000/svg" version="1.1">
 <metadata>
  <rdf:RDF xmlns:dc="http://purl.org/dc/elements/1.1/" xmlns:cc="http://creativecommons.org/ns#" xmlns:rdf="http://www.w3.org/1999/02/22-rdf-syntax-ns#">
   <cc:Work>
    <dc:type rdf:resource="http://purl.org/dc/dcmitype/StillImage"/>
    <dc:date>2024-03-13T18:40:35.860684</dc:date>
    <dc:format>image/svg+xml</dc:format>
    <dc:creator>
     <cc:Agent>
      <dc:title>Matplotlib v3.7.1, https://matplotlib.org/</dc:title>
     </cc:Agent>
    </dc:creator>
   </cc:Work>
  </rdf:RDF>
 </metadata>
 <defs>
  <style type="text/css">*{stroke-linejoin: round; stroke-linecap: butt}</style>
 </defs>
 <g id="figure_1">
  <g id="patch_1">
   <path d="M 0 360 
L 936 360 
L 936 0 
L 0 0 
z
" style="fill: #ffffff"/>
  </g>
  <g id="axes_1">
   <g id="patch_2">
    <path d="M 27.07 273.899052 
L 925.2 273.899052 
L 925.2 10.8 
L 27.07 10.8 
z
" style="fill: #ffffff"/>
   </g>
   <g id="matplotlib.axis_1">
    <g id="xtick_1">
     <g id="line2d_1">
      <defs>
       <path id="m2ca997dac7" d="M 0 0 
L 0 3.5 
" style="stroke: #37539c; stroke-width: 0.8"/>
      </defs>
      <g>
       <use xlink:href="#m2ca997dac7" x="71.9765" y="273.899052" style="fill: #37539c; stroke: #37539c; stroke-width: 0.8"/>
      </g>
     </g>
     <g id="text_1">
      <!-- breast cancer -->
      <g style="fill: #37539c" transform="translate(54.192323 323.704645) rotate(-45) scale(0.08 -0.08)">
       <defs>
        <path id="OpenSans-Bold-62" d="M 1453 4863 
L 1453 3731 
Q 1453 3534 1442 3340 
Q 1431 3147 1416 3041 
L 1453 3041 
Q 1591 3256 1828 3407 
Q 2066 3559 2444 3559 
Q 3031 3559 3397 3100 
Q 3763 2641 3763 1753 
Q 3763 1156 3594 751 
Q 3425 347 3122 142 
Q 2819 -63 2419 -63 
Q 2034 -63 1812 75 
Q 1591 213 1453 384 
L 1388 384 
L 1228 0 
L 500 0 
L 500 4863 
L 1453 4863 
z
M 2138 2797 
Q 1888 2797 1741 2694 
Q 1594 2591 1526 2384 
Q 1459 2178 1453 1863 
L 1453 1759 
Q 1453 1250 1603 979 
Q 1753 709 2150 709 
Q 2444 709 2617 981 
Q 2791 1253 2791 1766 
Q 2791 2278 2616 2537 
Q 2441 2797 2138 2797 
z
" transform="scale(0.015625)"/>
        <path id="OpenSans-Bold-72" d="M 2450 3559 
Q 2522 3559 2617 3551 
Q 2713 3544 2772 3531 
L 2700 2638 
Q 2653 2653 2567 2661 
Q 2481 2669 2419 2669 
Q 2234 2669 2061 2622 
Q 1888 2575 1750 2470 
Q 1613 2366 1533 2195 
Q 1453 2025 1453 1778 
L 1453 0 
L 500 0 
L 500 3494 
L 1222 3494 
L 1363 2906 
L 1409 2906 
Q 1513 3084 1667 3232 
Q 1822 3381 2020 3470 
Q 2219 3559 2450 3559 
z
" transform="scale(0.015625)"/>
        <path id="OpenSans-Bold-65" d="M 1941 3559 
Q 2425 3559 2775 3373 
Q 3125 3188 3315 2834 
Q 3506 2481 3506 1972 
L 3506 1509 
L 1253 1509 
Q 1269 1106 1495 876 
Q 1722 647 2125 647 
Q 2459 647 2737 715 
Q 3016 784 3309 922 
L 3309 184 
Q 3050 56 2767 -3 
Q 2484 -63 2081 -63 
Q 1556 -63 1151 131 
Q 747 325 517 722 
Q 288 1119 288 1722 
Q 288 2334 495 2742 
Q 703 3150 1075 3354 
Q 1447 3559 1941 3559 
z
M 1947 2881 
Q 1669 2881 1486 2703 
Q 1303 2525 1275 2144 
L 2613 2144 
Q 2609 2356 2536 2522 
Q 2463 2688 2317 2784 
Q 2172 2881 1947 2881 
z
" transform="scale(0.015625)"/>
        <path id="OpenSans-Bold-61" d="M 1931 3566 
Q 2634 3566 3009 3259 
Q 3384 2953 3384 2328 
L 3384 0 
L 2719 0 
L 2534 475 
L 2509 475 
Q 2359 288 2203 169 
Q 2047 50 1844 -6 
Q 1641 -63 1350 -63 
Q 1041 -63 795 56 
Q 550 175 409 420 
Q 269 666 269 1044 
Q 269 1600 659 1864 
Q 1050 2128 1831 2156 
L 2438 2175 
L 2438 2328 
Q 2438 2603 2294 2731 
Q 2150 2859 1894 2859 
Q 1641 2859 1397 2787 
Q 1153 2716 909 2606 
L 594 3250 
Q 872 3397 1217 3481 
Q 1563 3566 1931 3566 
z
M 2438 1619 
L 2069 1606 
Q 1606 1594 1426 1441 
Q 1247 1288 1247 1038 
Q 1247 819 1375 726 
Q 1503 634 1709 634 
Q 2016 634 2227 815 
Q 2438 997 2438 1331 
L 2438 1619 
z
" transform="scale(0.015625)"/>
        <path id="OpenSans-Bold-73" d="M 2938 1038 
Q 2938 681 2770 436 
Q 2603 191 2272 64 
Q 1941 -63 1447 -63 
Q 1081 -63 820 -16 
Q 559 31 294 141 
L 294 928 
Q 578 800 904 717 
Q 1231 634 1478 634 
Q 1756 634 1876 717 
Q 1997 800 1997 934 
Q 1997 1022 1948 1092 
Q 1900 1163 1740 1252 
Q 1581 1341 1241 1484 
Q 913 1622 702 1762 
Q 491 1903 389 2095 
Q 288 2288 288 2584 
Q 288 3069 664 3314 
Q 1041 3559 1672 3559 
Q 1997 3559 2292 3493 
Q 2588 3428 2900 3284 
L 2613 2597 
Q 2353 2709 2123 2781 
Q 1894 2853 1656 2853 
Q 1447 2853 1340 2797 
Q 1234 2741 1234 2625 
Q 1234 2541 1289 2475 
Q 1344 2409 1501 2329 
Q 1659 2250 1966 2125 
Q 2263 2003 2481 1870 
Q 2700 1738 2819 1542 
Q 2938 1347 2938 1038 
z
" transform="scale(0.015625)"/>
        <path id="OpenSans-Bold-74" d="M 1972 697 
Q 2128 697 2276 728 
Q 2425 759 2572 806 
L 2572 97 
Q 2419 28 2192 -17 
Q 1966 -63 1697 -63 
Q 1384 -63 1136 39 
Q 888 141 745 392 
Q 603 644 603 1094 
L 603 2778 
L 147 2778 
L 147 3181 
L 672 3500 
L 947 4238 
L 1556 4238 
L 1556 3494 
L 2534 3494 
L 2534 2778 
L 1556 2778 
L 1556 1094 
Q 1556 894 1670 795 
Q 1784 697 1972 697 
z
" transform="scale(0.015625)"/>
        <path id="OpenSans-Bold-20" transform="scale(0.015625)"/>
        <path id="OpenSans-Bold-63" d="M 1919 -63 
Q 1400 -63 1034 126 
Q 669 316 478 712 
Q 288 1109 288 1728 
Q 288 2369 505 2773 
Q 722 3178 1108 3368 
Q 1494 3559 2003 3559 
Q 2366 3559 2630 3489 
Q 2894 3419 3091 3322 
L 2809 2584 
Q 2584 2675 2390 2733 
Q 2197 2791 2003 2791 
Q 1753 2791 1587 2673 
Q 1422 2556 1340 2322 
Q 1259 2088 1259 1734 
Q 1259 1388 1346 1159 
Q 1434 931 1600 820 
Q 1766 709 2003 709 
Q 2300 709 2531 789 
Q 2763 869 2981 1013 
L 2981 197 
Q 2763 59 2523 -2 
Q 2284 -63 1919 -63 
z
" transform="scale(0.015625)"/>
        <path id="OpenSans-Bold-6e" d="M 2484 3559 
Q 3044 3559 3384 3254 
Q 3725 2950 3725 2278 
L 3725 0 
L 2772 0 
L 2772 2041 
Q 2772 2416 2636 2606 
Q 2500 2797 2209 2797 
Q 1772 2797 1612 2500 
Q 1453 2203 1453 1644 
L 1453 0 
L 500 0 
L 500 3494 
L 1228 3494 
L 1356 3047 
L 1409 3047 
Q 1522 3228 1689 3340 
Q 1856 3453 2061 3506 
Q 2266 3559 2484 3559 
z
" transform="scale(0.015625)"/>
       </defs>
       <use xlink:href="#OpenSans-Bold-62"/>
       <use xlink:href="#OpenSans-Bold-72" x="63.28125"/>
       <use xlink:href="#OpenSans-Bold-65" x="108.691406"/>
       <use xlink:href="#OpenSans-Bold-61" x="167.773438"/>
       <use xlink:href="#OpenSans-Bold-73" x="228.173828"/>
       <use xlink:href="#OpenSans-Bold-74" x="277.880859"/>
       <use xlink:href="#OpenSans-Bold-20" x="321.289062"/>
       <use xlink:href="#OpenSans-Bold-63" x="347.265625"/>
       <use xlink:href="#OpenSans-Bold-61" x="398.681641"/>
       <use xlink:href="#OpenSans-Bold-6e" x="459.082031"/>
       <use xlink:href="#OpenSans-Bold-63" x="524.804688"/>
       <use xlink:href="#OpenSans-Bold-65" x="576.220703"/>
       <use xlink:href="#OpenSans-Bold-72" x="635.302734"/>
      </g>
     </g>
    </g>
    <g id="xtick_2">
     <g id="line2d_2">
      <g>
       <use xlink:href="#m2ca997dac7" x="161.7895" y="273.899052" style="fill: #37539c; stroke: #37539c; stroke-width: 0.8"/>
      </g>
     </g>
     <g id="text_2">
      <!-- prostate cancer -->
      <g style="fill: #37539c" transform="translate(141.026193 329.662903) rotate(-45) scale(0.08 -0.08)">
       <defs>
        <path id="OpenSans-Bold-70" d="M 2444 3559 
Q 3034 3559 3398 3100 
Q 3763 2641 3763 1753 
Q 3763 1159 3591 754 
Q 3419 350 3116 143 
Q 2813 -63 2419 -63 
Q 2166 -63 1984 1 
Q 1803 66 1675 167 
Q 1547 269 1453 384 
L 1403 384 
Q 1428 259 1440 128 
Q 1453 -3 1453 -128 
L 1453 -1538 
L 500 -1538 
L 500 3494 
L 1275 3494 
L 1409 3041 
L 1453 3041 
Q 1547 3181 1681 3300 
Q 1816 3419 2005 3489 
Q 2194 3559 2444 3559 
z
M 2138 2797 
Q 1888 2797 1741 2694 
Q 1594 2591 1526 2384 
Q 1459 2178 1453 1863 
L 1453 1759 
Q 1453 1422 1517 1187 
Q 1581 953 1732 831 
Q 1884 709 2150 709 
Q 2369 709 2509 831 
Q 2650 953 2720 1189 
Q 2791 1425 2791 1766 
Q 2791 2278 2631 2537 
Q 2472 2797 2138 2797 
z
" transform="scale(0.015625)"/>
        <path id="OpenSans-Bold-6f" d="M 3675 1753 
Q 3675 1316 3558 978 
Q 3441 641 3217 408 
Q 2994 175 2680 56 
Q 2366 -63 1972 -63 
Q 1603 -63 1295 56 
Q 988 175 761 408 
Q 534 641 411 978 
Q 288 1316 288 1753 
Q 288 2334 494 2737 
Q 700 3141 1081 3350 
Q 1463 3559 1991 3559 
Q 2481 3559 2861 3350 
Q 3241 3141 3458 2737 
Q 3675 2334 3675 1753 
z
M 1259 1753 
Q 1259 1409 1334 1175 
Q 1409 941 1568 822 
Q 1728 703 1984 703 
Q 2238 703 2395 822 
Q 2553 941 2626 1175 
Q 2700 1409 2700 1753 
Q 2700 2100 2626 2329 
Q 2553 2559 2393 2675 
Q 2234 2791 1978 2791 
Q 1600 2791 1429 2531 
Q 1259 2272 1259 1753 
z
" transform="scale(0.015625)"/>
       </defs>
       <use xlink:href="#OpenSans-Bold-70"/>
       <use xlink:href="#OpenSans-Bold-72" x="63.28125"/>
       <use xlink:href="#OpenSans-Bold-6f" x="108.691406"/>
       <use xlink:href="#OpenSans-Bold-73" x="170.605469"/>
       <use xlink:href="#OpenSans-Bold-74" x="220.3125"/>
       <use xlink:href="#OpenSans-Bold-61" x="263.720703"/>
       <use xlink:href="#OpenSans-Bold-74" x="324.121094"/>
       <use xlink:href="#OpenSans-Bold-65" x="367.529297"/>
       <use xlink:href="#OpenSans-Bold-20" x="426.611328"/>
       <use xlink:href="#OpenSans-Bold-63" x="452.587891"/>
       <use xlink:href="#OpenSans-Bold-61" x="504.003906"/>
       <use xlink:href="#OpenSans-Bold-6e" x="564.404297"/>
       <use xlink:href="#OpenSans-Bold-63" x="630.126953"/>
       <use xlink:href="#OpenSans-Bold-65" x="681.542969"/>
       <use xlink:href="#OpenSans-Bold-72" x="740.625"/>
      </g>
     </g>
    </g>
    <g id="xtick_3">
     <g id="line2d_3">
      <g>
       <use xlink:href="#m2ca997dac7" x="251.6025" y="273.899052" style="fill: #37539c; stroke: #37539c; stroke-width: 0.8"/>
      </g>
     </g>
     <g id="text_3">
      <!-- gastric cancer -->
      <g style="fill: #37539c" transform="translate(233.363564 324.614161) rotate(-45) scale(0.08 -0.08)">
       <defs>
        <path id="OpenSans-Bold-67" d="M 1522 -1538 
Q 791 -1538 405 -1283 
Q 19 -1028 19 -569 
Q 19 -253 216 -40 
Q 413 172 794 263 
Q 647 325 537 467 
Q 428 609 428 769 
Q 428 969 543 1101 
Q 659 1234 878 1363 
Q 603 1481 442 1743 
Q 281 2006 281 2363 
Q 281 2744 448 3011 
Q 616 3278 936 3418 
Q 1256 3559 1716 3559 
Q 1813 3559 1941 3546 
Q 2069 3534 2176 3518 
Q 2284 3503 2322 3494 
L 3541 3494 
L 3541 3009 
L 2994 2869 
Q 3069 2753 3106 2622 
Q 3144 2491 3144 2344 
Q 3144 1781 2751 1467 
Q 2359 1153 1663 1153 
Q 1497 1163 1350 1178 
Q 1278 1122 1240 1059 
Q 1203 997 1203 928 
Q 1203 859 1261 814 
Q 1319 769 1436 745 
Q 1553 722 1728 722 
L 2322 722 
Q 2897 722 3198 475 
Q 3500 228 3500 -250 
Q 3500 -863 2989 -1200 
Q 2478 -1538 1522 -1538 
z
M 1563 -916 
Q 1903 -916 2148 -852 
Q 2394 -788 2525 -670 
Q 2656 -553 2656 -391 
Q 2656 -259 2579 -182 
Q 2503 -106 2348 -75 
Q 2194 -44 1953 -44 
L 1459 -44 
Q 1284 -44 1145 -100 
Q 1006 -156 925 -257 
Q 844 -359 844 -494 
Q 844 -691 1033 -803 
Q 1222 -916 1563 -916 
z
M 1716 1734 
Q 1984 1734 2109 1900 
Q 2234 2066 2234 2350 
Q 2234 2666 2104 2823 
Q 1975 2981 1716 2981 
Q 1453 2981 1322 2823 
Q 1191 2666 1191 2350 
Q 1191 2066 1320 1900 
Q 1450 1734 1716 1734 
z
" transform="scale(0.015625)"/>
        <path id="OpenSans-Bold-69" d="M 1453 3494 
L 1453 0 
L 500 0 
L 500 3494 
L 1453 3494 
z
M 978 4863 
Q 1191 4863 1344 4764 
Q 1497 4666 1497 4397 
Q 1497 4131 1344 4029 
Q 1191 3928 978 3928 
Q 763 3928 611 4029 
Q 459 4131 459 4397 
Q 459 4666 611 4764 
Q 763 4863 978 4863 
z
" transform="scale(0.015625)"/>
       </defs>
       <use xlink:href="#OpenSans-Bold-67"/>
       <use xlink:href="#OpenSans-Bold-61" x="56.494141"/>
       <use xlink:href="#OpenSans-Bold-73" x="116.894531"/>
       <use xlink:href="#OpenSans-Bold-74" x="166.601562"/>
       <use xlink:href="#OpenSans-Bold-72" x="210.009766"/>
       <use xlink:href="#OpenSans-Bold-69" x="255.419922"/>
       <use xlink:href="#OpenSans-Bold-63" x="285.9375"/>
       <use xlink:href="#OpenSans-Bold-20" x="337.353516"/>
       <use xlink:href="#OpenSans-Bold-63" x="363.330078"/>
       <use xlink:href="#OpenSans-Bold-61" x="414.746094"/>
       <use xlink:href="#OpenSans-Bold-6e" x="475.146484"/>
       <use xlink:href="#OpenSans-Bold-63" x="540.869141"/>
       <use xlink:href="#OpenSans-Bold-65" x="592.285156"/>
       <use xlink:href="#OpenSans-Bold-72" x="651.367188"/>
      </g>
     </g>
    </g>
    <g id="xtick_4">
     <g id="line2d_4">
      <g>
       <use xlink:href="#m2ca997dac7" x="341.4155" y="273.899052" style="fill: #37539c; stroke: #37539c; stroke-width: 0.8"/>
      </g>
     </g>
     <g id="text_4">
      <!-- chemotherapy -->
      <g style="fill: #37539c" transform="translate(322.222854 326.521582) rotate(-45) scale(0.08 -0.08)">
       <defs>
        <path id="OpenSans-Bold-68" d="M 1453 4863 
L 1453 3872 
Q 1453 3613 1436 3378 
Q 1419 3144 1409 3047 
L 1459 3047 
Q 1572 3228 1726 3340 
Q 1881 3453 2068 3506 
Q 2256 3559 2472 3559 
Q 2850 3559 3131 3426 
Q 3413 3294 3569 3011 
Q 3725 2728 3725 2278 
L 3725 0 
L 2772 0 
L 2772 2041 
Q 2772 2416 2634 2606 
Q 2497 2797 2209 2797 
Q 1922 2797 1756 2664 
Q 1591 2531 1522 2273 
Q 1453 2016 1453 1644 
L 1453 0 
L 500 0 
L 500 4863 
L 1453 4863 
z
" transform="scale(0.015625)"/>
        <path id="OpenSans-Bold-6d" d="M 4603 3559 
Q 5197 3559 5501 3254 
Q 5806 2950 5806 2278 
L 5806 0 
L 4850 0 
L 4850 2041 
Q 4850 2416 4722 2606 
Q 4594 2797 4325 2797 
Q 3947 2797 3787 2526 
Q 3628 2256 3628 1753 
L 3628 0 
L 2675 0 
L 2675 2041 
Q 2675 2291 2619 2459 
Q 2563 2628 2447 2712 
Q 2331 2797 2150 2797 
Q 1884 2797 1732 2664 
Q 1581 2531 1517 2273 
Q 1453 2016 1453 1644 
L 1453 0 
L 500 0 
L 500 3494 
L 1228 3494 
L 1356 3047 
L 1409 3047 
Q 1516 3228 1677 3340 
Q 1838 3453 2031 3506 
Q 2225 3559 2425 3559 
Q 2809 3559 3076 3434 
Q 3344 3309 3488 3047 
L 3572 3047 
Q 3728 3316 4014 3437 
Q 4300 3559 4603 3559 
z
" transform="scale(0.015625)"/>
        <path id="OpenSans-Bold-79" d="M 0 3494 
L 1044 3494 
L 1703 1528 
Q 1734 1434 1756 1337 
Q 1778 1241 1793 1137 
Q 1809 1034 1819 922 
L 1838 922 
Q 1856 1091 1889 1237 
Q 1922 1384 1972 1528 
L 2619 3494 
L 3641 3494 
L 2163 -447 
Q 2028 -809 1812 -1051 
Q 1597 -1294 1317 -1416 
Q 1038 -1538 703 -1538 
Q 541 -1538 422 -1520 
Q 303 -1503 219 -1484 
L 219 -728 
Q 284 -744 384 -756 
Q 484 -769 594 -769 
Q 794 -769 937 -684 
Q 1081 -600 1178 -458 
Q 1275 -316 1331 -147 
L 1388 25 
L 0 3494 
z
" transform="scale(0.015625)"/>
       </defs>
       <use xlink:href="#OpenSans-Bold-63"/>
       <use xlink:href="#OpenSans-Bold-68" x="51.416016"/>
       <use xlink:href="#OpenSans-Bold-65" x="117.138672"/>
       <use xlink:href="#OpenSans-Bold-6d" x="176.220703"/>
       <use xlink:href="#OpenSans-Bold-6f" x="274.414062"/>
       <use xlink:href="#OpenSans-Bold-74" x="336.328125"/>
       <use xlink:href="#OpenSans-Bold-68" x="379.736328"/>
       <use xlink:href="#OpenSans-Bold-65" x="445.458984"/>
       <use xlink:href="#OpenSans-Bold-72" x="504.541016"/>
       <use xlink:href="#OpenSans-Bold-61" x="549.951172"/>
       <use xlink:href="#OpenSans-Bold-70" x="610.351562"/>
       <use xlink:href="#OpenSans-Bold-79" x="673.632812"/>
      </g>
     </g>
    </g>
    <g id="xtick_5">
     <g id="line2d_5">
      <g>
       <use xlink:href="#m2ca997dac7" x="431.2285" y="273.899052" style="fill: #37539c; stroke: #37539c; stroke-width: 0.8"/>
      </g>
     </g>
     <g id="text_5">
      <!-- lung cancer -->
      <g style="fill: #37539c" transform="translate(416.352741 317.887808) rotate(-45) scale(0.08 -0.08)">
       <defs>
        <path id="OpenSans-Bold-6c" d="M 1453 0 
L 500 0 
L 500 4863 
L 1453 4863 
L 1453 0 
z
" transform="scale(0.015625)"/>
        <path id="OpenSans-Bold-75" d="M 3706 3494 
L 3706 0 
L 2975 0 
L 2847 447 
L 2797 447 
Q 2684 269 2515 156 
Q 2347 44 2144 -9 
Q 1941 -63 1722 -63 
Q 1347 -63 1069 70 
Q 791 203 636 484 
Q 481 766 481 1216 
L 481 3494 
L 1434 3494 
L 1434 1453 
Q 1434 1078 1568 887 
Q 1703 697 1997 697 
Q 2288 697 2453 830 
Q 2619 963 2686 1220 
Q 2753 1478 2753 1850 
L 2753 3494 
L 3706 3494 
z
" transform="scale(0.015625)"/>
       </defs>
       <use xlink:href="#OpenSans-Bold-6c"/>
       <use xlink:href="#OpenSans-Bold-75" x="30.517578"/>
       <use xlink:href="#OpenSans-Bold-6e" x="96.240234"/>
       <use xlink:href="#OpenSans-Bold-67" x="161.962891"/>
       <use xlink:href="#OpenSans-Bold-20" x="218.457031"/>
       <use xlink:href="#OpenSans-Bold-63" x="244.433594"/>
       <use xlink:href="#OpenSans-Bold-61" x="295.849609"/>
       <use xlink:href="#OpenSans-Bold-6e" x="356.25"/>
       <use xlink:href="#OpenSans-Bold-63" x="421.972656"/>
       <use xlink:href="#OpenSans-Bold-65" x="473.388672"/>
       <use xlink:href="#OpenSans-Bold-72" x="532.470703"/>
      </g>
     </g>
    </g>
    <g id="xtick_6">
     <g id="line2d_6">
      <g>
       <use xlink:href="#m2ca997dac7" x="521.0415" y="273.899052" style="fill: #37539c; stroke: #37539c; stroke-width: 0.8"/>
      </g>
     </g>
     <g id="text_6">
      <!-- pembrolizumab -->
      <g style="fill: #37539c" transform="translate(500.207041 329.805209) rotate(-45) scale(0.08 -0.08)">
       <defs>
        <path id="OpenSans-Bold-7a" d="M 2931 0 
L 172 0 
L 172 563 
L 1791 2766 
L 269 2766 
L 269 3494 
L 2875 3494 
L 2875 2875 
L 1300 728 
L 2931 728 
L 2931 0 
z
" transform="scale(0.015625)"/>
       </defs>
       <use xlink:href="#OpenSans-Bold-70"/>
       <use xlink:href="#OpenSans-Bold-65" x="63.28125"/>
       <use xlink:href="#OpenSans-Bold-6d" x="122.363281"/>
       <use xlink:href="#OpenSans-Bold-62" x="220.556641"/>
       <use xlink:href="#OpenSans-Bold-72" x="283.837891"/>
       <use xlink:href="#OpenSans-Bold-6f" x="329.248047"/>
       <use xlink:href="#OpenSans-Bold-6c" x="391.162109"/>
       <use xlink:href="#OpenSans-Bold-69" x="421.679688"/>
       <use xlink:href="#OpenSans-Bold-7a" x="452.197266"/>
       <use xlink:href="#OpenSans-Bold-75" x="500.976562"/>
       <use xlink:href="#OpenSans-Bold-6d" x="566.699219"/>
       <use xlink:href="#OpenSans-Bold-61" x="664.892578"/>
       <use xlink:href="#OpenSans-Bold-62" x="725.292969"/>
      </g>
     </g>
    </g>
    <g id="xtick_7">
     <g id="line2d_7">
      <g>
       <use xlink:href="#m2ca997dac7" x="610.8545" y="273.899052" style="fill: #37539c; stroke: #37539c; stroke-width: 0.8"/>
      </g>
     </g>
     <g id="text_7">
      <!-- colorectal cancer -->
      <g style="fill: #37539c" transform="translate(588.128088 333.589114) rotate(-45) scale(0.08 -0.08)">
       <use xlink:href="#OpenSans-Bold-63"/>
       <use xlink:href="#OpenSans-Bold-6f" x="51.416016"/>
       <use xlink:href="#OpenSans-Bold-6c" x="113.330078"/>
       <use xlink:href="#OpenSans-Bold-6f" x="143.847656"/>
       <use xlink:href="#OpenSans-Bold-72" x="205.761719"/>
       <use xlink:href="#OpenSans-Bold-65" x="251.171875"/>
       <use xlink:href="#OpenSans-Bold-63" x="310.253906"/>
       <use xlink:href="#OpenSans-Bold-74" x="361.669922"/>
       <use xlink:href="#OpenSans-Bold-61" x="405.078125"/>
       <use xlink:href="#OpenSans-Bold-6c" x="465.478516"/>
       <use xlink:href="#OpenSans-Bold-20" x="495.996094"/>
       <use xlink:href="#OpenSans-Bold-63" x="521.972656"/>
       <use xlink:href="#OpenSans-Bold-61" x="573.388672"/>
       <use xlink:href="#OpenSans-Bold-6e" x="633.789062"/>
       <use xlink:href="#OpenSans-Bold-63" x="699.511719"/>
       <use xlink:href="#OpenSans-Bold-65" x="750.927734"/>
       <use xlink:href="#OpenSans-Bold-72" x="810.009766"/>
      </g>
     </g>
    </g>
    <g id="xtick_8">
     <g id="line2d_8">
      <g>
       <use xlink:href="#m2ca997dac7" x="700.6675" y="273.899052" style="fill: #37539c; stroke: #37539c; stroke-width: 0.8"/>
      </g>
     </g>
     <g id="text_8">
      <!-- cancer cells -->
      <g style="fill: #37539c" transform="translate(685.713075 318.045139) rotate(-45) scale(0.08 -0.08)">
       <use xlink:href="#OpenSans-Bold-63"/>
       <use xlink:href="#OpenSans-Bold-61" x="51.416016"/>
       <use xlink:href="#OpenSans-Bold-6e" x="111.816406"/>
       <use xlink:href="#OpenSans-Bold-63" x="177.539062"/>
       <use xlink:href="#OpenSans-Bold-65" x="228.955078"/>
       <use xlink:href="#OpenSans-Bold-72" x="288.037109"/>
       <use xlink:href="#OpenSans-Bold-20" x="333.447266"/>
       <use xlink:href="#OpenSans-Bold-63" x="359.423828"/>
       <use xlink:href="#OpenSans-Bold-65" x="410.839844"/>
       <use xlink:href="#OpenSans-Bold-6c" x="469.921875"/>
       <use xlink:href="#OpenSans-Bold-6c" x="500.439453"/>
       <use xlink:href="#OpenSans-Bold-73" x="530.957031"/>
      </g>
     </g>
    </g>
    <g id="xtick_9">
     <g id="line2d_9">
      <g>
       <use xlink:href="#m2ca997dac7" x="790.4805" y="273.899052" style="fill: #37539c; stroke: #37539c; stroke-width: 0.8"/>
      </g>
     </g>
     <g id="text_9">
      <!-- first-line -->
      <g style="fill: #37539c" transform="translate(779.907928 309.281434) rotate(-45) scale(0.08 -0.08)">
       <defs>
        <path id="OpenSans-Bold-66" d="M 2431 2778 
L 1606 2778 
L 1606 0 
L 653 0 
L 653 2778 
L 128 2778 
L 128 3238 
L 653 3494 
L 653 3750 
Q 653 4197 804 4445 
Q 956 4694 1232 4795 
Q 1509 4897 1888 4897 
Q 2166 4897 2394 4851 
Q 2622 4806 2766 4750 
L 2522 4050 
Q 2413 4084 2284 4112 
Q 2156 4141 1991 4141 
Q 1791 4141 1698 4020 
Q 1606 3900 1606 3713 
L 1606 3494 
L 2431 3494 
L 2431 2778 
z
" transform="scale(0.015625)"/>
        <path id="OpenSans-Bold-2d" d="M 191 1325 
L 191 2106 
L 1869 2106 
L 1869 1325 
L 191 1325 
z
" transform="scale(0.015625)"/>
       </defs>
       <use xlink:href="#OpenSans-Bold-66"/>
       <use xlink:href="#OpenSans-Bold-69" x="38.720703"/>
       <use xlink:href="#OpenSans-Bold-72" x="69.238281"/>
       <use xlink:href="#OpenSans-Bold-73" x="114.648438"/>
       <use xlink:href="#OpenSans-Bold-74" x="164.355469"/>
       <use xlink:href="#OpenSans-Bold-2d" x="207.763672"/>
       <use xlink:href="#OpenSans-Bold-6c" x="239.941406"/>
       <use xlink:href="#OpenSans-Bold-69" x="270.458984"/>
       <use xlink:href="#OpenSans-Bold-6e" x="300.976562"/>
       <use xlink:href="#OpenSans-Bold-65" x="366.699219"/>
      </g>
     </g>
    </g>
    <g id="xtick_10">
     <g id="line2d_10">
      <g>
       <use xlink:href="#m2ca997dac7" x="880.2935" y="273.899052" style="fill: #37539c; stroke: #37539c; stroke-width: 0.8"/>
      </g>
     </g>
     <g id="text_10">
      <!-- ovarian cancer -->
      <g style="fill: #37539c" transform="translate(860.812708 327.097874) rotate(-45) scale(0.08 -0.08)">
       <defs>
        <path id="OpenSans-Bold-76" d="M 1331 0 
L 0 3494 
L 997 3494 
L 1672 1503 
Q 1728 1328 1761 1134 
Q 1794 941 1806 788 
L 1831 788 
Q 1841 953 1877 1140 
Q 1913 1328 1972 1503 
L 2644 3494 
L 3641 3494 
L 2309 0 
L 1331 0 
z
" transform="scale(0.015625)"/>
       </defs>
       <use xlink:href="#OpenSans-Bold-6f"/>
       <use xlink:href="#OpenSans-Bold-76" x="61.914062"/>
       <use xlink:href="#OpenSans-Bold-61" x="118.798828"/>
       <use xlink:href="#OpenSans-Bold-72" x="179.199219"/>
       <use xlink:href="#OpenSans-Bold-69" x="224.609375"/>
       <use xlink:href="#OpenSans-Bold-61" x="255.126953"/>
       <use xlink:href="#OpenSans-Bold-6e" x="315.527344"/>
       <use xlink:href="#OpenSans-Bold-20" x="381.25"/>
       <use xlink:href="#OpenSans-Bold-63" x="407.226562"/>
       <use xlink:href="#OpenSans-Bold-61" x="458.642578"/>
       <use xlink:href="#OpenSans-Bold-6e" x="519.042969"/>
       <use xlink:href="#OpenSans-Bold-63" x="584.765625"/>
       <use xlink:href="#OpenSans-Bold-65" x="636.181641"/>
       <use xlink:href="#OpenSans-Bold-72" x="695.263672"/>
      </g>
     </g>
    </g>
    <g id="text_11">
     <!-- Keyword -->
     <g style="fill: #37539c" transform="translate(454.206094 346.546964) scale(0.1 -0.1)">
      <defs>
       <path id="OpenSans-Bold-4b" d="M 4250 0 
L 3150 0 
L 1953 1925 
L 1544 1631 
L 1544 0 
L 575 0 
L 575 4569 
L 1544 4569 
L 1544 2478 
Q 1641 2613 1734 2747 
Q 1828 2881 1925 3016 
L 3163 4569 
L 4238 4569 
L 2644 2547 
L 4250 0 
z
" transform="scale(0.015625)"/>
       <path id="OpenSans-Bold-77" d="M 3372 0 
L 3103 1222 
Q 3081 1331 3031 1545 
Q 2981 1759 2923 2004 
Q 2866 2250 2817 2459 
Q 2769 2669 2747 2766 
L 2719 2766 
Q 2697 2669 2650 2459 
Q 2603 2250 2545 2003 
Q 2488 1756 2438 1539 
Q 2388 1322 2363 1209 
L 2081 0 
L 1056 0 
L 63 3494 
L 1013 3494 
L 1416 1947 
Q 1456 1784 1493 1561 
Q 1531 1338 1561 1130 
Q 1591 922 1606 800 
L 1631 800 
Q 1638 891 1658 1041 
Q 1678 1191 1704 1352 
Q 1731 1513 1754 1642 
Q 1778 1772 1791 1819 
L 2222 3494 
L 3272 3494 
L 3681 1819 
Q 3703 1728 3739 1531 
Q 3775 1334 3803 1126 
Q 3831 919 3834 800 
L 3859 800 
Q 3872 906 3903 1115 
Q 3934 1325 3976 1554 
Q 4019 1784 4063 1947 
L 4481 3494 
L 5416 3494 
L 4409 0 
L 3372 0 
z
" transform="scale(0.015625)"/>
       <path id="OpenSans-Bold-64" d="M 1606 -63 
Q 1022 -63 655 395 
Q 288 853 288 1741 
Q 288 2638 659 3098 
Q 1031 3559 1631 3559 
Q 1881 3559 2072 3490 
Q 2263 3422 2402 3306 
Q 2541 3191 2638 3047 
L 2669 3047 
Q 2650 3147 2623 3342 
Q 2597 3538 2597 3744 
L 2597 4863 
L 3553 4863 
L 3553 0 
L 2822 0 
L 2638 453 
L 2597 453 
Q 2506 309 2370 192 
Q 2234 75 2046 6 
Q 1859 -63 1606 -63 
z
M 1941 697 
Q 2331 697 2492 930 
Q 2653 1163 2663 1631 
L 2663 1734 
Q 2663 2244 2506 2514 
Q 2350 2784 1925 2784 
Q 1609 2784 1431 2512 
Q 1253 2241 1253 1728 
Q 1253 1216 1433 956 
Q 1613 697 1941 697 
z
" transform="scale(0.015625)"/>
      </defs>
      <use xlink:href="#OpenSans-Bold-4b"/>
      <use xlink:href="#OpenSans-Bold-65" x="66.40625"/>
      <use xlink:href="#OpenSans-Bold-79" x="125.488281"/>
      <use xlink:href="#OpenSans-Bold-77" x="182.373047"/>
      <use xlink:href="#OpenSans-Bold-6f" x="267.96875"/>
      <use xlink:href="#OpenSans-Bold-72" x="329.882812"/>
      <use xlink:href="#OpenSans-Bold-64" x="375.292969"/>
     </g>
    </g>
   </g>
   <g id="matplotlib.axis_2">
    <g id="ytick_1">
     <g id="line2d_11">
      <path d="M 27.07 273.899052 
L 925.2 273.899052 
" clip-path="url(#p6589f11b43)" style="fill: none; stroke-dasharray: 2.96,1.28; stroke-dashoffset: 0; stroke: #b0b0b0; stroke-width: 0.8"/>
     </g>
     <g id="line2d_12">
      <defs>
       <path id="mfbe7ae7b5b" d="M 0 0 
L -3.5 0 
" style="stroke: #37539c; stroke-width: 0.8"/>
      </defs>
      <g>
       <use xlink:href="#mfbe7ae7b5b" x="27.07" y="273.899052" style="fill: #37539c; stroke: #37539c; stroke-width: 0.8"/>
      </g>
     </g>
     <g id="text_12">
      <!-- 0 -->
      <g style="fill: #37539c" transform="translate(15.49625 276.938427) scale(0.08 -0.08)">
       <defs>
        <path id="OpenSans-Bold-30" d="M 3425 2284 
Q 3425 1731 3339 1297 
Q 3253 863 3064 559 
Q 2875 256 2569 96 
Q 2263 -63 1825 -63 
Q 1275 -63 922 217 
Q 569 497 400 1023 
Q 231 1550 231 2284 
Q 231 3025 386 3551 
Q 541 4078 891 4359 
Q 1241 4641 1825 4641 
Q 2372 4641 2726 4361 
Q 3081 4081 3253 3554 
Q 3425 3028 3425 2284 
z
M 1191 2284 
Q 1191 1763 1248 1414 
Q 1306 1066 1443 891 
Q 1581 716 1825 716 
Q 2066 716 2205 889 
Q 2344 1063 2403 1411 
Q 2463 1759 2463 2284 
Q 2463 2806 2403 3156 
Q 2344 3506 2205 3682 
Q 2066 3859 1825 3859 
Q 1581 3859 1443 3682 
Q 1306 3506 1248 3156 
Q 1191 2806 1191 2284 
z
" transform="scale(0.015625)"/>
       </defs>
       <use xlink:href="#OpenSans-Bold-30"/>
      </g>
     </g>
    </g>
    <g id="ytick_2">
     <g id="line2d_13">
      <path d="M 27.07 219.427199 
L 925.2 219.427199 
" clip-path="url(#p6589f11b43)" style="fill: none; stroke-dasharray: 2.96,1.28; stroke-dashoffset: 0; stroke: #b0b0b0; stroke-width: 0.8"/>
     </g>
     <g id="line2d_14">
      <g>
       <use xlink:href="#mfbe7ae7b5b" x="27.07" y="219.427199" style="fill: #37539c; stroke: #37539c; stroke-width: 0.8"/>
      </g>
     </g>
     <g id="text_13">
      <!-- 10 -->
      <g style="fill: #37539c" transform="translate(10.9225 222.466574) scale(0.08 -0.08)">
       <defs>
        <path id="OpenSans-Bold-31" d="M 2644 0 
L 1678 0 
L 1678 2644 
Q 1678 2753 1681 2914 
Q 1684 3075 1690 3245 
Q 1697 3416 1703 3553 
Q 1669 3513 1564 3414 
Q 1459 3316 1369 3238 
L 844 2816 
L 378 3397 
L 1850 4569 
L 2644 4569 
L 2644 0 
z
" transform="scale(0.015625)"/>
       </defs>
       <use xlink:href="#OpenSans-Bold-31"/>
       <use xlink:href="#OpenSans-Bold-30" x="57.177734"/>
      </g>
     </g>
    </g>
    <g id="ytick_3">
     <g id="line2d_15">
      <path d="M 27.07 164.955345 
L 925.2 164.955345 
" clip-path="url(#p6589f11b43)" style="fill: none; stroke-dasharray: 2.96,1.28; stroke-dashoffset: 0; stroke: #b0b0b0; stroke-width: 0.8"/>
     </g>
     <g id="line2d_16">
      <g>
       <use xlink:href="#mfbe7ae7b5b" x="27.07" y="164.955345" style="fill: #37539c; stroke: #37539c; stroke-width: 0.8"/>
      </g>
     </g>
     <g id="text_14">
      <!-- 20 -->
      <g style="fill: #37539c" transform="translate(10.9225 167.99472) scale(0.08 -0.08)">
       <defs>
        <path id="OpenSans-Bold-32" d="M 3450 0 
L 256 0 
L 256 672 
L 1403 1831 
Q 1750 2188 1961 2427 
Q 2172 2666 2267 2862 
Q 2363 3059 2363 3284 
Q 2363 3556 2211 3692 
Q 2059 3828 1806 3828 
Q 1541 3828 1291 3706 
Q 1041 3584 769 3359 
L 244 3981 
Q 441 4150 661 4300 
Q 881 4450 1173 4542 
Q 1466 4634 1875 4634 
Q 2325 4634 2648 4471 
Q 2972 4309 3147 4029 
Q 3322 3750 3322 3397 
Q 3322 3019 3172 2706 
Q 3022 2394 2736 2087 
Q 2450 1781 2047 1409 
L 1459 856 
L 1459 813 
L 3450 813 
L 3450 0 
z
" transform="scale(0.015625)"/>
       </defs>
       <use xlink:href="#OpenSans-Bold-32"/>
       <use xlink:href="#OpenSans-Bold-30" x="57.177734"/>
      </g>
     </g>
    </g>
    <g id="ytick_4">
     <g id="line2d_17">
      <path d="M 27.07 110.483492 
L 925.2 110.483492 
" clip-path="url(#p6589f11b43)" style="fill: none; stroke-dasharray: 2.96,1.28; stroke-dashoffset: 0; stroke: #b0b0b0; stroke-width: 0.8"/>
     </g>
     <g id="line2d_18">
      <g>
       <use xlink:href="#mfbe7ae7b5b" x="27.07" y="110.483492" style="fill: #37539c; stroke: #37539c; stroke-width: 0.8"/>
      </g>
     </g>
     <g id="text_15">
      <!-- 30 -->
      <g style="fill: #37539c" transform="translate(10.9225 113.522867) scale(0.08 -0.08)">
       <defs>
        <path id="OpenSans-Bold-33" d="M 3272 3547 
Q 3272 3231 3140 3000 
Q 3009 2769 2786 2622 
Q 2563 2475 2284 2406 
L 2284 2388 
Q 2834 2319 3120 2050 
Q 3406 1781 3406 1331 
Q 3406 931 3211 615 
Q 3016 300 2609 118 
Q 2203 -63 1563 -63 
Q 1184 -63 857 -2 
Q 531 59 244 184 
L 244 1006 
Q 538 856 859 779 
Q 1181 703 1459 703 
Q 1978 703 2186 883 
Q 2394 1063 2394 1388 
Q 2394 1578 2297 1709 
Q 2200 1841 1961 1909 
Q 1722 1978 1294 1978 
L 947 1978 
L 947 2719 
L 1300 2719 
Q 1722 2719 1942 2798 
Q 2163 2878 2242 3017 
Q 2322 3156 2322 3334 
Q 2322 3578 2172 3715 
Q 2022 3853 1672 3853 
Q 1453 3853 1273 3798 
Q 1094 3744 950 3667 
Q 806 3591 697 3519 
L 250 4184 
Q 519 4378 880 4506 
Q 1241 4634 1741 4634 
Q 2447 4634 2859 4350 
Q 3272 4066 3272 3547 
z
" transform="scale(0.015625)"/>
       </defs>
       <use xlink:href="#OpenSans-Bold-33"/>
       <use xlink:href="#OpenSans-Bold-30" x="57.177734"/>
      </g>
     </g>
    </g>
    <g id="ytick_5">
     <g id="line2d_19">
      <path d="M 27.07 56.011638 
L 925.2 56.011638 
" clip-path="url(#p6589f11b43)" style="fill: none; stroke-dasharray: 2.96,1.28; stroke-dashoffset: 0; stroke: #b0b0b0; stroke-width: 0.8"/>
     </g>
     <g id="line2d_20">
      <g>
       <use xlink:href="#mfbe7ae7b5b" x="27.07" y="56.011638" style="fill: #37539c; stroke: #37539c; stroke-width: 0.8"/>
      </g>
     </g>
     <g id="text_16">
      <!-- 40 -->
      <g style="fill: #37539c" transform="translate(10.9225 59.051013) scale(0.08 -0.08)">
       <defs>
        <path id="OpenSans-Bold-34" d="M 3553 947 
L 3003 947 
L 3003 0 
L 2059 0 
L 2059 947 
L 109 947 
L 109 1619 
L 2113 4569 
L 3003 4569 
L 3003 1697 
L 3553 1697 
L 3553 947 
z
M 2059 1697 
L 2059 2472 
Q 2059 2581 2064 2731 
Q 2069 2881 2075 3031 
Q 2081 3181 2089 3298 
Q 2097 3416 2100 3463 
L 2075 3463 
Q 2016 3334 1950 3214 
Q 1884 3094 1797 2963 
L 959 1697 
L 2059 1697 
z
" transform="scale(0.015625)"/>
       </defs>
       <use xlink:href="#OpenSans-Bold-34"/>
       <use xlink:href="#OpenSans-Bold-30" x="57.177734"/>
      </g>
     </g>
    </g>
   </g>
   <g id="patch_3">
    <path d="M 49.52325 273.899052 
L 53.605659 273.899052 
L 53.605659 219.427199 
L 49.52325 219.427199 
z
" clip-path="url(#p6589f11b43)" style="fill: #37539c"/>
   </g>
   <g id="patch_4">
    <path d="M 139.33625 273.899052 
L 143.418659 273.899052 
L 143.418659 181.296901 
L 139.33625 181.296901 
z
" clip-path="url(#p6589f11b43)" style="fill: #37539c"/>
   </g>
   <g id="patch_5">
    <path d="M 229.14925 273.899052 
L 233.231659 273.899052 
L 233.231659 241.21594 
L 229.14925 241.21594 
z
" clip-path="url(#p6589f11b43)" style="fill: #37539c"/>
   </g>
   <g id="patch_6">
    <path d="M 318.96225 273.899052 
L 323.044659 273.899052 
L 323.044659 263.004681 
L 318.96225 263.004681 
z
" clip-path="url(#p6589f11b43)" style="fill: #37539c"/>
   </g>
   <g id="patch_7">
    <path d="M 408.77525 273.899052 
L 412.857659 273.899052 
L 412.857659 263.004681 
L 408.77525 263.004681 
z
" clip-path="url(#p6589f11b43)" style="fill: #37539c"/>
   </g>
   <g id="patch_8">
    <path d="M 498.58825 273.899052 
L 502.670659 273.899052 
L 502.670659 273.899052 
L 498.58825 273.899052 
z
" clip-path="url(#p6589f11b43)" style="fill: #37539c"/>
   </g>
   <g id="patch_9">
    <path d="M 588.40125 273.899052 
L 592.483659 273.899052 
L 592.483659 230.321569 
L 588.40125 230.321569 
z
" clip-path="url(#p6589f11b43)" style="fill: #37539c"/>
   </g>
   <g id="patch_10">
    <path d="M 678.21425 273.899052 
L 682.296659 273.899052 
L 682.296659 263.004681 
L 678.21425 263.004681 
z
" clip-path="url(#p6589f11b43)" style="fill: #37539c"/>
   </g>
   <g id="patch_11">
    <path d="M 768.02725 273.899052 
L 772.109659 273.899052 
L 772.109659 268.451867 
L 768.02725 268.451867 
z
" clip-path="url(#p6589f11b43)" style="fill: #37539c"/>
   </g>
   <g id="patch_12">
    <path d="M 857.84025 273.899052 
L 861.922659 273.899052 
L 861.922659 257.557496 
L 857.84025 257.557496 
z
" clip-path="url(#p6589f11b43)" style="fill: #37539c"/>
   </g>
   <g id="patch_13">
    <path d="M 53.605659 273.899052 
L 57.688068 273.899052 
L 57.688068 186.744087 
L 53.605659 186.744087 
z
" clip-path="url(#p6589f11b43)" style="fill: #59c3c3"/>
   </g>
   <g id="patch_14">
    <path d="M 143.418659 273.899052 
L 147.501068 273.899052 
L 147.501068 197.638457 
L 143.418659 197.638457 
z
" clip-path="url(#p6589f11b43)" style="fill: #59c3c3"/>
   </g>
   <g id="patch_15">
    <path d="M 233.231659 273.899052 
L 237.314068 273.899052 
L 237.314068 252.110311 
L 233.231659 252.110311 
z
" clip-path="url(#p6589f11b43)" style="fill: #59c3c3"/>
   </g>
   <g id="patch_16">
    <path d="M 323.044659 273.899052 
L 327.127068 273.899052 
L 327.127068 263.004681 
L 323.044659 263.004681 
z
" clip-path="url(#p6589f11b43)" style="fill: #59c3c3"/>
   </g>
   <g id="patch_17">
    <path d="M 412.857659 273.899052 
L 416.940068 273.899052 
L 416.940068 252.110311 
L 412.857659 252.110311 
z
" clip-path="url(#p6589f11b43)" style="fill: #59c3c3"/>
   </g>
   <g id="patch_18">
    <path d="M 502.670659 273.899052 
L 506.753068 273.899052 
L 506.753068 273.899052 
L 502.670659 273.899052 
z
" clip-path="url(#p6589f11b43)" style="fill: #59c3c3"/>
   </g>
   <g id="patch_19">
    <path d="M 592.483659 273.899052 
L 596.566068 273.899052 
L 596.566068 263.004681 
L 592.483659 263.004681 
z
" clip-path="url(#p6589f11b43)" style="fill: #59c3c3"/>
   </g>
   <g id="patch_20">
    <path d="M 682.296659 273.899052 
L 686.379068 273.899052 
L 686.379068 241.21594 
L 682.296659 241.21594 
z
" clip-path="url(#p6589f11b43)" style="fill: #59c3c3"/>
   </g>
   <g id="patch_21">
    <path d="M 772.109659 273.899052 
L 776.192068 273.899052 
L 776.192068 268.451867 
L 772.109659 268.451867 
z
" clip-path="url(#p6589f11b43)" style="fill: #59c3c3"/>
   </g>
   <g id="patch_22">
    <path d="M 861.922659 273.899052 
L 866.005068 273.899052 
L 866.005068 257.557496 
L 861.922659 257.557496 
z
" clip-path="url(#p6589f11b43)" style="fill: #59c3c3"/>
   </g>
   <g id="patch_23">
    <path d="M 57.688068 273.899052 
L 61.770477 273.899052 
L 61.770477 159.50816 
L 57.688068 159.50816 
z
" clip-path="url(#p6589f11b43)" style="fill: #f45b69"/>
   </g>
   <g id="patch_24">
    <path d="M 147.501068 273.899052 
L 151.583477 273.899052 
L 151.583477 154.060974 
L 147.501068 154.060974 
z
" clip-path="url(#p6589f11b43)" style="fill: #f45b69"/>
   </g>
   <g id="patch_25">
    <path d="M 237.314068 273.899052 
L 241.396477 273.899052 
L 241.396477 224.874384 
L 237.314068 224.874384 
z
" clip-path="url(#p6589f11b43)" style="fill: #f45b69"/>
   </g>
   <g id="patch_26">
    <path d="M 327.127068 273.899052 
L 331.209477 273.899052 
L 331.209477 268.451867 
L 327.127068 268.451867 
z
" clip-path="url(#p6589f11b43)" style="fill: #f45b69"/>
   </g>
   <g id="patch_27">
    <path d="M 416.940068 273.899052 
L 421.022477 273.899052 
L 421.022477 241.21594 
L 416.940068 241.21594 
z
" clip-path="url(#p6589f11b43)" style="fill: #f45b69"/>
   </g>
   <g id="patch_28">
    <path d="M 506.753068 273.899052 
L 510.835477 273.899052 
L 510.835477 268.451867 
L 506.753068 268.451867 
z
" clip-path="url(#p6589f11b43)" style="fill: #f45b69"/>
   </g>
   <g id="patch_29">
    <path d="M 596.566068 273.899052 
L 600.648477 273.899052 
L 600.648477 257.557496 
L 596.566068 257.557496 
z
" clip-path="url(#p6589f11b43)" style="fill: #f45b69"/>
   </g>
   <g id="patch_30">
    <path d="M 686.379068 273.899052 
L 690.461477 273.899052 
L 690.461477 246.663125 
L 686.379068 246.663125 
z
" clip-path="url(#p6589f11b43)" style="fill: #f45b69"/>
   </g>
   <g id="patch_31">
    <path d="M 776.192068 273.899052 
L 780.274477 273.899052 
L 780.274477 268.451867 
L 776.192068 268.451867 
z
" clip-path="url(#p6589f11b43)" style="fill: #f45b69"/>
   </g>
   <g id="patch_32">
    <path d="M 866.005068 273.899052 
L 870.087477 273.899052 
L 870.087477 213.980013 
L 866.005068 213.980013 
z
" clip-path="url(#p6589f11b43)" style="fill: #f45b69"/>
   </g>
   <g id="patch_33">
    <path d="M 61.770477 273.899052 
L 65.852886 273.899052 
L 65.852886 143.166604 
L 61.770477 143.166604 
z
" clip-path="url(#p6589f11b43)" style="fill: #52489c"/>
   </g>
   <g id="patch_34">
    <path d="M 151.583477 273.899052 
L 155.665886 273.899052 
L 155.665886 208.532828 
L 151.583477 208.532828 
z
" clip-path="url(#p6589f11b43)" style="fill: #52489c"/>
   </g>
   <g id="patch_35">
    <path d="M 241.396477 273.899052 
L 245.478886 273.899052 
L 245.478886 197.638457 
L 241.396477 197.638457 
z
" clip-path="url(#p6589f11b43)" style="fill: #52489c"/>
   </g>
   <g id="patch_36">
    <path d="M 331.209477 273.899052 
L 335.291886 273.899052 
L 335.291886 235.768755 
L 331.209477 235.768755 
z
" clip-path="url(#p6589f11b43)" style="fill: #52489c"/>
   </g>
   <g id="patch_37">
    <path d="M 421.022477 273.899052 
L 425.104886 273.899052 
L 425.104886 252.110311 
L 421.022477 252.110311 
z
" clip-path="url(#p6589f11b43)" style="fill: #52489c"/>
   </g>
   <g id="patch_38">
    <path d="M 510.835477 273.899052 
L 514.917886 273.899052 
L 514.917886 219.427199 
L 510.835477 219.427199 
z
" clip-path="url(#p6589f11b43)" style="fill: #52489c"/>
   </g>
   <g id="patch_39">
    <path d="M 600.648477 273.899052 
L 604.730886 273.899052 
L 604.730886 252.110311 
L 600.648477 252.110311 
z
" clip-path="url(#p6589f11b43)" style="fill: #52489c"/>
   </g>
   <g id="patch_40">
    <path d="M 690.461477 273.899052 
L 694.543886 273.899052 
L 694.543886 252.110311 
L 690.461477 252.110311 
z
" clip-path="url(#p6589f11b43)" style="fill: #52489c"/>
   </g>
   <g id="patch_41">
    <path d="M 780.274477 273.899052 
L 784.356886 273.899052 
L 784.356886 252.110311 
L 780.274477 252.110311 
z
" clip-path="url(#p6589f11b43)" style="fill: #52489c"/>
   </g>
   <g id="patch_42">
    <path d="M 870.087477 273.899052 
L 874.169886 273.899052 
L 874.169886 268.451867 
L 870.087477 268.451867 
z
" clip-path="url(#p6589f11b43)" style="fill: #52489c"/>
   </g>
   <g id="patch_43">
    <path d="M 65.852886 273.899052 
L 69.935295 273.899052 
L 69.935295 181.296901 
L 65.852886 181.296901 
z
" clip-path="url(#p6589f11b43)" style="fill: #9fb7b9"/>
   </g>
   <g id="patch_44">
    <path d="M 155.665886 273.899052 
L 159.748295 273.899052 
L 159.748295 235.768755 
L 155.665886 235.768755 
z
" clip-path="url(#p6589f11b43)" style="fill: #9fb7b9"/>
   </g>
   <g id="patch_45">
    <path d="M 245.478886 273.899052 
L 249.561295 273.899052 
L 249.561295 213.980013 
L 245.478886 213.980013 
z
" clip-path="url(#p6589f11b43)" style="fill: #9fb7b9"/>
   </g>
   <g id="patch_46">
    <path d="M 335.291886 273.899052 
L 339.374295 273.899052 
L 339.374295 252.110311 
L 335.291886 252.110311 
z
" clip-path="url(#p6589f11b43)" style="fill: #9fb7b9"/>
   </g>
   <g id="patch_47">
    <path d="M 425.104886 273.899052 
L 429.187295 273.899052 
L 429.187295 219.427199 
L 425.104886 219.427199 
z
" clip-path="url(#p6589f11b43)" style="fill: #9fb7b9"/>
   </g>
   <g id="patch_48">
    <path d="M 514.917886 273.899052 
L 519.000295 273.899052 
L 519.000295 246.663125 
L 514.917886 246.663125 
z
" clip-path="url(#p6589f11b43)" style="fill: #9fb7b9"/>
   </g>
   <g id="patch_49">
    <path d="M 604.730886 273.899052 
L 608.813295 273.899052 
L 608.813295 246.663125 
L 604.730886 246.663125 
z
" clip-path="url(#p6589f11b43)" style="fill: #9fb7b9"/>
   </g>
   <g id="patch_50">
    <path d="M 694.543886 273.899052 
L 698.626295 273.899052 
L 698.626295 224.874384 
L 694.543886 224.874384 
z
" clip-path="url(#p6589f11b43)" style="fill: #9fb7b9"/>
   </g>
   <g id="patch_51">
    <path d="M 784.356886 273.899052 
L 788.439295 273.899052 
L 788.439295 257.557496 
L 784.356886 257.557496 
z
" clip-path="url(#p6589f11b43)" style="fill: #9fb7b9"/>
   </g>
   <g id="patch_52">
    <path d="M 874.169886 273.899052 
L 878.252295 273.899052 
L 878.252295 230.321569 
L 874.169886 230.321569 
z
" clip-path="url(#p6589f11b43)" style="fill: #9fb7b9"/>
   </g>
   <g id="patch_53">
    <path d="M 69.935295 273.899052 
L 74.017705 273.899052 
L 74.017705 72.353194 
L 69.935295 72.353194 
z
" clip-path="url(#p6589f11b43)" style="fill: #ebebeb"/>
   </g>
   <g id="patch_54">
    <path d="M 159.748295 273.899052 
L 163.830705 273.899052 
L 163.830705 186.744087 
L 159.748295 186.744087 
z
" clip-path="url(#p6589f11b43)" style="fill: #ebebeb"/>
   </g>
   <g id="patch_55">
    <path d="M 249.561295 273.899052 
L 253.643705 273.899052 
L 253.643705 192.191272 
L 249.561295 192.191272 
z
" clip-path="url(#p6589f11b43)" style="fill: #ebebeb"/>
   </g>
   <g id="patch_56">
    <path d="M 339.374295 273.899052 
L 343.456705 273.899052 
L 343.456705 213.980013 
L 339.374295 213.980013 
z
" clip-path="url(#p6589f11b43)" style="fill: #ebebeb"/>
   </g>
   <g id="patch_57">
    <path d="M 429.187295 273.899052 
L 433.269705 273.899052 
L 433.269705 203.085643 
L 429.187295 203.085643 
z
" clip-path="url(#p6589f11b43)" style="fill: #ebebeb"/>
   </g>
   <g id="patch_58">
    <path d="M 519.000295 273.899052 
L 523.082705 273.899052 
L 523.082705 230.321569 
L 519.000295 230.321569 
z
" clip-path="url(#p6589f11b43)" style="fill: #ebebeb"/>
   </g>
   <g id="patch_59">
    <path d="M 608.813295 273.899052 
L 612.895705 273.899052 
L 612.895705 230.321569 
L 608.813295 230.321569 
z
" clip-path="url(#p6589f11b43)" style="fill: #ebebeb"/>
   </g>
   <g id="patch_60">
    <path d="M 698.626295 273.899052 
L 702.708705 273.899052 
L 702.708705 241.21594 
L 698.626295 241.21594 
z
" clip-path="url(#p6589f11b43)" style="fill: #ebebeb"/>
   </g>
   <g id="patch_61">
    <path d="M 788.439295 273.899052 
L 792.521705 273.899052 
L 792.521705 252.110311 
L 788.439295 252.110311 
z
" clip-path="url(#p6589f11b43)" style="fill: #ebebeb"/>
   </g>
   <g id="patch_62">
    <path d="M 878.252295 273.899052 
L 882.334705 273.899052 
L 882.334705 241.21594 
L 878.252295 241.21594 
z
" clip-path="url(#p6589f11b43)" style="fill: #ebebeb"/>
   </g>
   <g id="patch_63">
    <path d="M 74.017705 273.899052 
L 78.100114 273.899052 
L 78.100114 115.930677 
L 74.017705 115.930677 
z
" clip-path="url(#p6589f11b43)" style="fill: #4062bb"/>
   </g>
   <g id="patch_64">
    <path d="M 163.830705 273.899052 
L 167.913114 273.899052 
L 167.913114 224.874384 
L 163.830705 224.874384 
z
" clip-path="url(#p6589f11b43)" style="fill: #4062bb"/>
   </g>
   <g id="patch_65">
    <path d="M 253.643705 273.899052 
L 257.726114 273.899052 
L 257.726114 186.744087 
L 253.643705 186.744087 
z
" clip-path="url(#p6589f11b43)" style="fill: #4062bb"/>
   </g>
   <g id="patch_66">
    <path d="M 343.456705 273.899052 
L 347.539114 273.899052 
L 347.539114 219.427199 
L 343.456705 219.427199 
z
" clip-path="url(#p6589f11b43)" style="fill: #4062bb"/>
   </g>
   <g id="patch_67">
    <path d="M 433.269705 273.899052 
L 437.352114 273.899052 
L 437.352114 197.638457 
L 433.269705 197.638457 
z
" clip-path="url(#p6589f11b43)" style="fill: #4062bb"/>
   </g>
   <g id="patch_68">
    <path d="M 523.082705 273.899052 
L 527.165114 273.899052 
L 527.165114 235.768755 
L 523.082705 235.768755 
z
" clip-path="url(#p6589f11b43)" style="fill: #4062bb"/>
   </g>
   <g id="patch_69">
    <path d="M 612.895705 273.899052 
L 616.978114 273.899052 
L 616.978114 213.980013 
L 612.895705 213.980013 
z
" clip-path="url(#p6589f11b43)" style="fill: #4062bb"/>
   </g>
   <g id="patch_70">
    <path d="M 702.708705 273.899052 
L 706.791114 273.899052 
L 706.791114 235.768755 
L 702.708705 235.768755 
z
" clip-path="url(#p6589f11b43)" style="fill: #4062bb"/>
   </g>
   <g id="patch_71">
    <path d="M 792.521705 273.899052 
L 796.604114 273.899052 
L 796.604114 213.980013 
L 792.521705 213.980013 
z
" clip-path="url(#p6589f11b43)" style="fill: #4062bb"/>
   </g>
   <g id="patch_72">
    <path d="M 882.334705 273.899052 
L 886.417114 273.899052 
L 886.417114 241.21594 
L 882.334705 241.21594 
z
" clip-path="url(#p6589f11b43)" style="fill: #4062bb"/>
   </g>
   <g id="patch_73">
    <path d="M 78.100114 273.899052 
L 82.182523 273.899052 
L 82.182523 23.328526 
L 78.100114 23.328526 
z
" clip-path="url(#p6589f11b43)" style="fill: #46b1c9"/>
   </g>
   <g id="patch_74">
    <path d="M 167.913114 273.899052 
L 171.995523 273.899052 
L 171.995523 203.085643 
L 167.913114 203.085643 
z
" clip-path="url(#p6589f11b43)" style="fill: #46b1c9"/>
   </g>
   <g id="patch_75">
    <path d="M 257.726114 273.899052 
L 261.808523 273.899052 
L 261.808523 170.402531 
L 257.726114 170.402531 
z
" clip-path="url(#p6589f11b43)" style="fill: #46b1c9"/>
   </g>
   <g id="patch_76">
    <path d="M 347.539114 273.899052 
L 351.621523 273.899052 
L 351.621523 203.085643 
L 347.539114 203.085643 
z
" clip-path="url(#p6589f11b43)" style="fill: #46b1c9"/>
   </g>
   <g id="patch_77">
    <path d="M 437.352114 273.899052 
L 441.434523 273.899052 
L 441.434523 219.427199 
L 437.352114 219.427199 
z
" clip-path="url(#p6589f11b43)" style="fill: #46b1c9"/>
   </g>
   <g id="patch_78">
    <path d="M 527.165114 273.899052 
L 531.247523 273.899052 
L 531.247523 197.638457 
L 527.165114 197.638457 
z
" clip-path="url(#p6589f11b43)" style="fill: #46b1c9"/>
   </g>
   <g id="patch_79">
    <path d="M 616.978114 273.899052 
L 621.060523 273.899052 
L 621.060523 224.874384 
L 616.978114 224.874384 
z
" clip-path="url(#p6589f11b43)" style="fill: #46b1c9"/>
   </g>
   <g id="patch_80">
    <path d="M 706.791114 273.899052 
L 710.873523 273.899052 
L 710.873523 213.980013 
L 706.791114 213.980013 
z
" clip-path="url(#p6589f11b43)" style="fill: #46b1c9"/>
   </g>
   <g id="patch_81">
    <path d="M 796.604114 273.899052 
L 800.686523 273.899052 
L 800.686523 230.321569 
L 796.604114 230.321569 
z
" clip-path="url(#p6589f11b43)" style="fill: #46b1c9"/>
   </g>
   <g id="patch_82">
    <path d="M 886.417114 273.899052 
L 890.499523 273.899052 
L 890.499523 224.874384 
L 886.417114 224.874384 
z
" clip-path="url(#p6589f11b43)" style="fill: #46b1c9"/>
   </g>
   <g id="patch_83">
    <path d="M 82.182523 273.899052 
L 86.264932 273.899052 
L 86.264932 132.272233 
L 82.182523 132.272233 
z
" clip-path="url(#p6589f11b43)" style="fill: #84c0c6"/>
   </g>
   <g id="patch_84">
    <path d="M 171.995523 273.899052 
L 176.077932 273.899052 
L 176.077932 175.849716 
L 171.995523 175.849716 
z
" clip-path="url(#p6589f11b43)" style="fill: #84c0c6"/>
   </g>
   <g id="patch_85">
    <path d="M 261.808523 273.899052 
L 265.890932 273.899052 
L 265.890932 186.744087 
L 261.808523 186.744087 
z
" clip-path="url(#p6589f11b43)" style="fill: #84c0c6"/>
   </g>
   <g id="patch_86">
    <path d="M 351.621523 273.899052 
L 355.703932 273.899052 
L 355.703932 181.296901 
L 351.621523 181.296901 
z
" clip-path="url(#p6589f11b43)" style="fill: #84c0c6"/>
   </g>
   <g id="patch_87">
    <path d="M 441.434523 273.899052 
L 445.516932 273.899052 
L 445.516932 208.532828 
L 441.434523 208.532828 
z
" clip-path="url(#p6589f11b43)" style="fill: #84c0c6"/>
   </g>
   <g id="patch_88">
    <path d="M 531.247523 273.899052 
L 535.329932 273.899052 
L 535.329932 186.744087 
L 531.247523 186.744087 
z
" clip-path="url(#p6589f11b43)" style="fill: #84c0c6"/>
   </g>
   <g id="patch_89">
    <path d="M 621.060523 273.899052 
L 625.142932 273.899052 
L 625.142932 186.744087 
L 621.060523 186.744087 
z
" clip-path="url(#p6589f11b43)" style="fill: #84c0c6"/>
   </g>
   <g id="patch_90">
    <path d="M 710.873523 273.899052 
L 714.955932 273.899052 
L 714.955932 230.321569 
L 710.873523 230.321569 
z
" clip-path="url(#p6589f11b43)" style="fill: #84c0c6"/>
   </g>
   <g id="patch_91">
    <path d="M 800.686523 273.899052 
L 804.768932 273.899052 
L 804.768932 203.085643 
L 800.686523 203.085643 
z
" clip-path="url(#p6589f11b43)" style="fill: #84c0c6"/>
   </g>
   <g id="patch_92">
    <path d="M 890.499523 273.899052 
L 894.581932 273.899052 
L 894.581932 257.557496 
L 890.499523 257.557496 
z
" clip-path="url(#p6589f11b43)" style="fill: #84c0c6"/>
   </g>
   <g id="patch_93">
    <path d="M 86.264932 273.899052 
L 90.347341 273.899052 
L 90.347341 28.775712 
L 86.264932 28.775712 
z
" clip-path="url(#p6589f11b43)" style="fill: #bcc1ba"/>
   </g>
   <g id="patch_94">
    <path d="M 176.077932 273.899052 
L 180.160341 273.899052 
L 180.160341 208.532828 
L 176.077932 208.532828 
z
" clip-path="url(#p6589f11b43)" style="fill: #bcc1ba"/>
   </g>
   <g id="patch_95">
    <path d="M 265.890932 273.899052 
L 269.973341 273.899052 
L 269.973341 203.085643 
L 265.890932 203.085643 
z
" clip-path="url(#p6589f11b43)" style="fill: #bcc1ba"/>
   </g>
   <g id="patch_96">
    <path d="M 355.703932 273.899052 
L 359.786341 273.899052 
L 359.786341 186.744087 
L 355.703932 186.744087 
z
" clip-path="url(#p6589f11b43)" style="fill: #bcc1ba"/>
   </g>
   <g id="patch_97">
    <path d="M 445.516932 273.899052 
L 449.599341 273.899052 
L 449.599341 208.532828 
L 445.516932 208.532828 
z
" clip-path="url(#p6589f11b43)" style="fill: #bcc1ba"/>
   </g>
   <g id="patch_98">
    <path d="M 535.329932 273.899052 
L 539.412341 273.899052 
L 539.412341 213.980013 
L 535.329932 213.980013 
z
" clip-path="url(#p6589f11b43)" style="fill: #bcc1ba"/>
   </g>
   <g id="patch_99">
    <path d="M 625.142932 273.899052 
L 629.225341 273.899052 
L 629.225341 197.638457 
L 625.142932 197.638457 
z
" clip-path="url(#p6589f11b43)" style="fill: #bcc1ba"/>
   </g>
   <g id="patch_100">
    <path d="M 714.955932 273.899052 
L 719.038341 273.899052 
L 719.038341 241.21594 
L 714.955932 241.21594 
z
" clip-path="url(#p6589f11b43)" style="fill: #bcc1ba"/>
   </g>
   <g id="patch_101">
    <path d="M 804.768932 273.899052 
L 808.851341 273.899052 
L 808.851341 224.874384 
L 804.768932 224.874384 
z
" clip-path="url(#p6589f11b43)" style="fill: #bcc1ba"/>
   </g>
   <g id="patch_102">
    <path d="M 894.581932 273.899052 
L 898.664341 273.899052 
L 898.664341 246.663125 
L 894.581932 246.663125 
z
" clip-path="url(#p6589f11b43)" style="fill: #bcc1ba"/>
   </g>
   <g id="patch_103">
    <path d="M 90.347341 273.899052 
L 94.42975 273.899052 
L 94.42975 61.458824 
L 90.347341 61.458824 
z
" clip-path="url(#p6589f11b43)" style="fill: #f2e2d2"/>
   </g>
   <g id="patch_104">
    <path d="M 180.160341 273.899052 
L 184.24275 273.899052 
L 184.24275 235.768755 
L 180.160341 235.768755 
z
" clip-path="url(#p6589f11b43)" style="fill: #f2e2d2"/>
   </g>
   <g id="patch_105">
    <path d="M 269.973341 273.899052 
L 274.05575 273.899052 
L 274.05575 175.849716 
L 269.973341 175.849716 
z
" clip-path="url(#p6589f11b43)" style="fill: #f2e2d2"/>
   </g>
   <g id="patch_106">
    <path d="M 359.786341 273.899052 
L 363.86875 273.899052 
L 363.86875 148.613789 
L 359.786341 148.613789 
z
" clip-path="url(#p6589f11b43)" style="fill: #f2e2d2"/>
   </g>
   <g id="patch_107">
    <path d="M 449.599341 273.899052 
L 453.68175 273.899052 
L 453.68175 197.638457 
L 449.599341 197.638457 
z
" clip-path="url(#p6589f11b43)" style="fill: #f2e2d2"/>
   </g>
   <g id="patch_108">
    <path d="M 539.412341 273.899052 
L 543.49475 273.899052 
L 543.49475 170.402531 
L 539.412341 170.402531 
z
" clip-path="url(#p6589f11b43)" style="fill: #f2e2d2"/>
   </g>
   <g id="patch_109">
    <path d="M 629.225341 273.899052 
L 633.30775 273.899052 
L 633.30775 230.321569 
L 629.225341 230.321569 
z
" clip-path="url(#p6589f11b43)" style="fill: #f2e2d2"/>
   </g>
   <g id="patch_110">
    <path d="M 719.038341 273.899052 
L 723.12075 273.899052 
L 723.12075 235.768755 
L 719.038341 235.768755 
z
" clip-path="url(#p6589f11b43)" style="fill: #f2e2d2"/>
   </g>
   <g id="patch_111">
    <path d="M 808.851341 273.899052 
L 812.93375 273.899052 
L 812.93375 197.638457 
L 808.851341 197.638457 
z
" clip-path="url(#p6589f11b43)" style="fill: #f2e2d2"/>
   </g>
   <g id="patch_112">
    <path d="M 898.664341 273.899052 
L 902.74675 273.899052 
L 902.74675 224.874384 
L 898.664341 224.874384 
z
" clip-path="url(#p6589f11b43)" style="fill: #f2e2d2"/>
   </g>
   <g id="patch_113">
    <path d="M 27.07 273.899052 
L 27.07 10.8 
" style="fill: none; stroke: #000000; stroke-width: 0.8; stroke-linejoin: miter; stroke-linecap: square"/>
   </g>
   <g id="patch_114">
    <path d="M 27.07 273.899052 
L 925.2 273.899052 
" style="fill: none; stroke: #000000; stroke-width: 0.8; stroke-linejoin: miter; stroke-linecap: square"/>
   </g>
   <g id="legend_1">
    <g id="patch_115">
     <path d="M 875.705 149.21375 
L 919.6 149.21375 
Q 921.2 149.21375 921.2 147.61375 
L 921.2 16.4 
Q 921.2 14.8 919.6 14.8 
L 875.705 14.8 
Q 874.105 14.8 874.105 16.4 
L 874.105 147.61375 
Q 874.105 149.21375 875.705 149.21375 
z
" style="fill: #ffffff; opacity: 0.8; stroke: #cccccc; stroke-linejoin: miter"/>
    </g>
    <g id="patch_116">
     <path d="M 877.305 24.07875 
L 893.305 24.07875 
L 893.305 18.47875 
L 877.305 18.47875 
z
" style="fill: #37539c"/>
    </g>
    <g id="text_17">
     <!-- 2013 -->
     <g style="fill: #37539c" transform="translate(899.705 24.07875) scale(0.08 -0.08)">
      <use xlink:href="#OpenSans-Bold-32"/>
      <use xlink:href="#OpenSans-Bold-30" x="57.177734"/>
      <use xlink:href="#OpenSans-Bold-31" x="114.355469"/>
      <use xlink:href="#OpenSans-Bold-33" x="171.533203"/>
     </g>
    </g>
    <g id="patch_117">
     <path d="M 877.305 36.08 
L 893.305 36.08 
L 893.305 30.48 
L 877.305 30.48 
z
" style="fill: #59c3c3"/>
    </g>
    <g id="text_18">
     <!-- 2014 -->
     <g style="fill: #37539c" transform="translate(899.705 36.08) scale(0.08 -0.08)">
      <use xlink:href="#OpenSans-Bold-32"/>
      <use xlink:href="#OpenSans-Bold-30" x="57.177734"/>
      <use xlink:href="#OpenSans-Bold-31" x="114.355469"/>
      <use xlink:href="#OpenSans-Bold-34" x="171.533203"/>
     </g>
    </g>
    <g id="patch_118">
     <path d="M 877.305 48.08125 
L 893.305 48.08125 
L 893.305 42.48125 
L 877.305 42.48125 
z
" style="fill: #f45b69"/>
    </g>
    <g id="text_19">
     <!-- 2015 -->
     <g style="fill: #37539c" transform="translate(899.705 48.08125) scale(0.08 -0.08)">
      <defs>
       <path id="OpenSans-Bold-35" d="M 1919 2919 
Q 2338 2919 2664 2759 
Q 2991 2600 3178 2290 
Q 3366 1981 3366 1528 
Q 3366 1034 3161 676 
Q 2956 319 2551 128 
Q 2147 -63 1544 -63 
Q 1184 -63 867 -2 
Q 550 59 313 184 
L 313 1019 
Q 550 894 883 808 
Q 1216 722 1509 722 
Q 1797 722 1994 798 
Q 2191 875 2292 1036 
Q 2394 1197 2394 1447 
Q 2394 1781 2169 1959 
Q 1944 2138 1478 2138 
Q 1300 2138 1108 2103 
Q 916 2069 788 2034 
L 403 2241 
L 575 4569 
L 3053 4569 
L 3053 3750 
L 1422 3750 
L 1338 2853 
Q 1444 2875 1569 2897 
Q 1694 2919 1919 2919 
z
" transform="scale(0.015625)"/>
      </defs>
      <use xlink:href="#OpenSans-Bold-32"/>
      <use xlink:href="#OpenSans-Bold-30" x="57.177734"/>
      <use xlink:href="#OpenSans-Bold-31" x="114.355469"/>
      <use xlink:href="#OpenSans-Bold-35" x="171.533203"/>
     </g>
    </g>
    <g id="patch_119">
     <path d="M 877.305 60.0825 
L 893.305 60.0825 
L 893.305 54.4825 
L 877.305 54.4825 
z
" style="fill: #52489c"/>
    </g>
    <g id="text_20">
     <!-- 2016 -->
     <g style="fill: #37539c" transform="translate(899.705 60.0825) scale(0.08 -0.08)">
      <defs>
       <path id="OpenSans-Bold-36" d="M 225 1941 
Q 225 2334 283 2720 
Q 341 3106 484 3448 
Q 628 3791 887 4055 
Q 1147 4319 1547 4470 
Q 1947 4622 2516 4622 
Q 2650 4622 2829 4611 
Q 3009 4600 3128 4575 
L 3128 3803 
Q 3003 3831 2861 3848 
Q 2719 3866 2578 3866 
Q 2009 3866 1698 3684 
Q 1388 3503 1261 3183 
Q 1134 2863 1113 2438 
L 1153 2438 
Q 1241 2591 1373 2709 
Q 1506 2828 1697 2898 
Q 1888 2969 2144 2969 
Q 2544 2969 2837 2798 
Q 3131 2628 3290 2306 
Q 3450 1984 3450 1522 
Q 3450 1028 3259 672 
Q 3069 316 2720 126 
Q 2372 -63 1894 -63 
Q 1544 -63 1241 57 
Q 938 178 709 425 
Q 481 672 353 1048 
Q 225 1425 225 1941 
z
M 1875 709 
Q 2159 709 2337 903 
Q 2516 1097 2516 1509 
Q 2516 1844 2361 2036 
Q 2206 2228 1894 2228 
Q 1681 2228 1520 2133 
Q 1359 2038 1271 1892 
Q 1184 1747 1184 1594 
Q 1184 1434 1228 1278 
Q 1272 1122 1359 994 
Q 1447 866 1576 787 
Q 1706 709 1875 709 
z
" transform="scale(0.015625)"/>
      </defs>
      <use xlink:href="#OpenSans-Bold-32"/>
      <use xlink:href="#OpenSans-Bold-30" x="57.177734"/>
      <use xlink:href="#OpenSans-Bold-31" x="114.355469"/>
      <use xlink:href="#OpenSans-Bold-36" x="171.533203"/>
     </g>
    </g>
    <g id="patch_120">
     <path d="M 877.305 72.08375 
L 893.305 72.08375 
L 893.305 66.48375 
L 877.305 66.48375 
z
" style="fill: #9fb7b9"/>
    </g>
    <g id="text_21">
     <!-- 2017 -->
     <g style="fill: #37539c" transform="translate(899.705 72.08375) scale(0.08 -0.08)">
      <defs>
       <path id="OpenSans-Bold-37" d="M 709 0 
L 2425 3756 
L 172 3756 
L 172 4569 
L 3450 4569 
L 3450 3963 
L 1722 0 
L 709 0 
z
" transform="scale(0.015625)"/>
      </defs>
      <use xlink:href="#OpenSans-Bold-32"/>
      <use xlink:href="#OpenSans-Bold-30" x="57.177734"/>
      <use xlink:href="#OpenSans-Bold-31" x="114.355469"/>
      <use xlink:href="#OpenSans-Bold-37" x="171.533203"/>
     </g>
    </g>
    <g id="patch_121">
     <path d="M 877.305 84.085 
L 893.305 84.085 
L 893.305 78.485 
L 877.305 78.485 
z
" style="fill: #ebebeb"/>
    </g>
    <g id="text_22">
     <!-- 2018 -->
     <g style="fill: #37539c" transform="translate(899.705 84.085) scale(0.08 -0.08)">
      <defs>
       <path id="OpenSans-Bold-38" d="M 1831 4628 
Q 2225 4628 2558 4506 
Q 2891 4384 3091 4139 
Q 3291 3894 3291 3525 
Q 3291 3250 3183 3044 
Q 3075 2838 2890 2683 
Q 2706 2528 2472 2413 
Q 2716 2284 2934 2114 
Q 3153 1944 3292 1716 
Q 3431 1488 3431 1184 
Q 3431 803 3228 523 
Q 3025 244 2665 90 
Q 2306 -63 1831 -63 
Q 1319 -63 959 84 
Q 600 231 412 504 
Q 225 778 225 1159 
Q 225 1472 342 1703 
Q 459 1934 659 2101 
Q 859 2269 1100 2388 
Q 897 2516 730 2678 
Q 563 2841 464 3050 
Q 366 3259 366 3531 
Q 366 3894 570 4137 
Q 775 4381 1109 4504 
Q 1444 4628 1831 4628 
z
M 1119 1216 
Q 1119 969 1295 808 
Q 1472 647 1819 647 
Q 2178 647 2356 801 
Q 2534 956 2534 1209 
Q 2534 1384 2432 1515 
Q 2331 1647 2178 1751 
Q 2025 1856 1869 1947 
L 1784 1991 
Q 1584 1900 1436 1787 
Q 1288 1675 1203 1534 
Q 1119 1394 1119 1216 
z
M 1825 3922 
Q 1588 3922 1431 3800 
Q 1275 3678 1275 3456 
Q 1275 3300 1351 3183 
Q 1428 3066 1554 2978 
Q 1681 2891 1831 2816 
Q 1975 2884 2100 2968 
Q 2225 3053 2303 3172 
Q 2381 3291 2381 3456 
Q 2381 3678 2223 3800 
Q 2066 3922 1825 3922 
z
" transform="scale(0.015625)"/>
      </defs>
      <use xlink:href="#OpenSans-Bold-32"/>
      <use xlink:href="#OpenSans-Bold-30" x="57.177734"/>
      <use xlink:href="#OpenSans-Bold-31" x="114.355469"/>
      <use xlink:href="#OpenSans-Bold-38" x="171.533203"/>
     </g>
    </g>
    <g id="patch_122">
     <path d="M 877.305 96.08625 
L 893.305 96.08625 
L 893.305 90.48625 
L 877.305 90.48625 
z
" style="fill: #4062bb"/>
    </g>
    <g id="text_23">
     <!-- 2019 -->
     <g style="fill: #37539c" transform="translate(899.705 96.08625) scale(0.08 -0.08)">
      <defs>
       <path id="OpenSans-Bold-39" d="M 3431 2619 
Q 3431 2225 3373 1837 
Q 3316 1450 3172 1108 
Q 3028 766 2768 502 
Q 2509 238 2109 87 
Q 1709 -63 1141 -63 
Q 1006 -63 825 -52 
Q 644 -41 525 -19 
L 525 756 
Q 650 725 790 708 
Q 931 691 1075 691 
Q 1647 691 1958 872 
Q 2269 1053 2395 1375 
Q 2522 1697 2541 2119 
L 2503 2119 
Q 2413 1969 2289 1848 
Q 2166 1728 1975 1658 
Q 1784 1588 1491 1588 
Q 1100 1588 811 1758 
Q 522 1928 364 2251 
Q 206 2575 206 3034 
Q 206 3531 395 3886 
Q 584 4241 934 4431 
Q 1284 4622 1759 4622 
Q 2109 4622 2412 4501 
Q 2716 4381 2945 4134 
Q 3175 3888 3303 3509 
Q 3431 3131 3431 2619 
z
M 1778 3847 
Q 1497 3847 1319 3653 
Q 1141 3459 1141 3047 
Q 1141 2716 1294 2522 
Q 1447 2328 1759 2328 
Q 1975 2328 2134 2423 
Q 2294 2519 2383 2664 
Q 2472 2809 2472 2963 
Q 2472 3122 2428 3278 
Q 2384 3434 2296 3562 
Q 2209 3691 2079 3769 
Q 1950 3847 1778 3847 
z
" transform="scale(0.015625)"/>
      </defs>
      <use xlink:href="#OpenSans-Bold-32"/>
      <use xlink:href="#OpenSans-Bold-30" x="57.177734"/>
      <use xlink:href="#OpenSans-Bold-31" x="114.355469"/>
      <use xlink:href="#OpenSans-Bold-39" x="171.533203"/>
     </g>
    </g>
    <g id="patch_123">
     <path d="M 877.305 108.0875 
L 893.305 108.0875 
L 893.305 102.4875 
L 877.305 102.4875 
z
" style="fill: #46b1c9"/>
    </g>
    <g id="text_24">
     <!-- 2020 -->
     <g style="fill: #37539c" transform="translate(899.705 108.0875) scale(0.08 -0.08)">
      <use xlink:href="#OpenSans-Bold-32"/>
      <use xlink:href="#OpenSans-Bold-30" x="57.177734"/>
      <use xlink:href="#OpenSans-Bold-32" x="114.355469"/>
      <use xlink:href="#OpenSans-Bold-30" x="171.533203"/>
     </g>
    </g>
    <g id="patch_124">
     <path d="M 877.305 120.08875 
L 893.305 120.08875 
L 893.305 114.48875 
L 877.305 114.48875 
z
" style="fill: #84c0c6"/>
    </g>
    <g id="text_25">
     <!-- 2021 -->
     <g style="fill: #37539c" transform="translate(899.705 120.08875) scale(0.08 -0.08)">
      <use xlink:href="#OpenSans-Bold-32"/>
      <use xlink:href="#OpenSans-Bold-30" x="57.177734"/>
      <use xlink:href="#OpenSans-Bold-32" x="114.355469"/>
      <use xlink:href="#OpenSans-Bold-31" x="171.533203"/>
     </g>
    </g>
    <g id="patch_125">
     <path d="M 877.305 132.09 
L 893.305 132.09 
L 893.305 126.49 
L 877.305 126.49 
z
" style="fill: #bcc1ba"/>
    </g>
    <g id="text_26">
     <!-- 2022 -->
     <g style="fill: #37539c" transform="translate(899.705 132.09) scale(0.08 -0.08)">
      <use xlink:href="#OpenSans-Bold-32"/>
      <use xlink:href="#OpenSans-Bold-30" x="57.177734"/>
      <use xlink:href="#OpenSans-Bold-32" x="114.355469"/>
      <use xlink:href="#OpenSans-Bold-32" x="171.533203"/>
     </g>
    </g>
    <g id="patch_126">
     <path d="M 877.305 144.09125 
L 893.305 144.09125 
L 893.305 138.49125 
L 877.305 138.49125 
z
" style="fill: #f2e2d2"/>
    </g>
    <g id="text_27">
     <!-- 2023 -->
     <g style="fill: #37539c" transform="translate(899.705 144.09125) scale(0.08 -0.08)">
      <use xlink:href="#OpenSans-Bold-32"/>
      <use xlink:href="#OpenSans-Bold-30" x="57.177734"/>
      <use xlink:href="#OpenSans-Bold-32" x="114.355469"/>
      <use xlink:href="#OpenSans-Bold-33" x="171.533203"/>
     </g>
    </g>
   </g>
  </g>
 </g>
 <defs>
  <clipPath id="p6589f11b43">
   <rect x="27.07" y="10.8" width="898.13" height="263.099052"/>
  </clipPath>
 </defs>
</svg>
