<?xml version="1.0" encoding="utf-8" standalone="no"?>
<!DOCTYPE svg PUBLIC "-//W3C//DTD SVG 1.1//EN"
  "http://www.w3.org/Graphics/SVG/1.1/DTD/svg11.dtd">
<svg xmlns:xlink="http://www.w3.org/1999/xlink" width="1152pt" height="360pt" viewBox="0 0 1152 360" xmlns="http://www.w3.org/2000/svg" version="1.1">
 <metadata>
  <rdf:RDF xmlns:dc="http://purl.org/dc/elements/1.1/" xmlns:cc="http://creativecommons.org/ns#" xmlns:rdf="http://www.w3.org/1999/02/22-rdf-syntax-ns#">
   <cc:Work>
    <dc:type rdf:resource="http://purl.org/dc/dcmitype/StillImage"/>
    <dc:date>2024-03-13T18:44:01.740505</dc:date>
    <dc:format>image/svg+xml</dc:format>
    <dc:creator>
     <cc:Agent>
      <dc:title>Matplotlib v3.7.1, https://matplotlib.org/</dc:title>
     </cc:Agent>
    </dc:creator>
   </cc:Work>
  </rdf:RDF>
 </metadata>
 <defs>
  <style type="text/css">*{stroke-linejoin: round; stroke-linecap: butt}</style>
 </defs>
 <g id="figure_1">
  <g id="patch_1">
   <path d="M 0 360 
L 1152 360 
L 1152 0 
L 0 0 
z
" style="fill: #ffffff"/>
  </g>
  <g id="axes_1">
   <g id="patch_2">
    <path d="M 35.08 304.827903 
L 1141.2 304.827903 
L 1141.2 14.664354 
L 35.08 14.664354 
z
" style="fill: #ffffff"/>
   </g>
   <g id="matplotlib.axis_1">
    <g id="xtick_1">
     <g id="line2d_1">
      <defs>
       <path id="maf8ca0fdb1" d="M 0 0 
L 0 3.5 
" style="stroke: #37539c; stroke-width: 0.8"/>
      </defs>
      <g>
       <use xlink:href="#maf8ca0fdb1" x="98.706372" y="304.827903" style="fill: #37539c; stroke: #37539c; stroke-width: 0.8"/>
      </g>
     </g>
     <g id="text_1">
      <!-- 2013 -->
      <g style="fill: #37539c" transform="translate(92.457868 333.371458) rotate(-45) scale(0.1 -0.1)">
       <defs>
        <path id="OpenSans-Bold-32" d="M 3450 0 
L 256 0 
L 256 672 
L 1403 1831 
Q 1750 2188 1961 2427 
Q 2172 2666 2267 2862 
Q 2363 3059 2363 3284 
Q 2363 3556 2211 3692 
Q 2059 3828 1806 3828 
Q 1541 3828 1291 3706 
Q 1041 3584 769 3359 
L 244 3981 
Q 441 4150 661 4300 
Q 881 4450 1173 4542 
Q 1466 4634 1875 4634 
Q 2325 4634 2648 4471 
Q 2972 4309 3147 4029 
Q 3322 3750 3322 3397 
Q 3322 3019 3172 2706 
Q 3022 2394 2736 2087 
Q 2450 1781 2047 1409 
L 1459 856 
L 1459 813 
L 3450 813 
L 3450 0 
z
" transform="scale(0.015625)"/>
        <path id="OpenSans-Bold-30" d="M 3425 2284 
Q 3425 1731 3339 1297 
Q 3253 863 3064 559 
Q 2875 256 2569 96 
Q 2263 -63 1825 -63 
Q 1275 -63 922 217 
Q 569 497 400 1023 
Q 231 1550 231 2284 
Q 231 3025 386 3551 
Q 541 4078 891 4359 
Q 1241 4641 1825 4641 
Q 2372 4641 2726 4361 
Q 3081 4081 3253 3554 
Q 3425 3028 3425 2284 
z
M 1191 2284 
Q 1191 1763 1248 1414 
Q 1306 1066 1443 891 
Q 1581 716 1825 716 
Q 2066 716 2205 889 
Q 2344 1063 2403 1411 
Q 2463 1759 2463 2284 
Q 2463 2806 2403 3156 
Q 2344 3506 2205 3682 
Q 2066 3859 1825 3859 
Q 1581 3859 1443 3682 
Q 1306 3506 1248 3156 
Q 1191 2806 1191 2284 
z
" transform="scale(0.015625)"/>
        <path id="OpenSans-Bold-31" d="M 2644 0 
L 1678 0 
L 1678 2644 
Q 1678 2753 1681 2914 
Q 1684 3075 1690 3245 
Q 1697 3416 1703 3553 
Q 1669 3513 1564 3414 
Q 1459 3316 1369 3238 
L 844 2816 
L 378 3397 
L 1850 4569 
L 2644 4569 
L 2644 0 
z
" transform="scale(0.015625)"/>
        <path id="OpenSans-Bold-33" d="M 3272 3547 
Q 3272 3231 3140 3000 
Q 3009 2769 2786 2622 
Q 2563 2475 2284 2406 
L 2284 2388 
Q 2834 2319 3120 2050 
Q 3406 1781 3406 1331 
Q 3406 931 3211 615 
Q 3016 300 2609 118 
Q 2203 -63 1563 -63 
Q 1184 -63 857 -2 
Q 531 59 244 184 
L 244 1006 
Q 538 856 859 779 
Q 1181 703 1459 703 
Q 1978 703 2186 883 
Q 2394 1063 2394 1388 
Q 2394 1578 2297 1709 
Q 2200 1841 1961 1909 
Q 1722 1978 1294 1978 
L 947 1978 
L 947 2719 
L 1300 2719 
Q 1722 2719 1942 2798 
Q 2163 2878 2242 3017 
Q 2322 3156 2322 3334 
Q 2322 3578 2172 3715 
Q 2022 3853 1672 3853 
Q 1453 3853 1273 3798 
Q 1094 3744 950 3667 
Q 806 3591 697 3519 
L 250 4184 
Q 519 4378 880 4506 
Q 1241 4634 1741 4634 
Q 2447 4634 2859 4350 
Q 3272 4066 3272 3547 
z
" transform="scale(0.015625)"/>
       </defs>
       <use xlink:href="#OpenSans-Bold-32"/>
       <use xlink:href="#OpenSans-Bold-30" x="57.177734"/>
       <use xlink:href="#OpenSans-Bold-31" x="114.355469"/>
       <use xlink:href="#OpenSans-Bold-33" x="171.533203"/>
      </g>
     </g>
    </g>
    <g id="xtick_2">
     <g id="line2d_2">
      <g>
       <use xlink:href="#maf8ca0fdb1" x="196.593097" y="304.827903" style="fill: #37539c; stroke: #37539c; stroke-width: 0.8"/>
      </g>
     </g>
     <g id="text_2">
      <!-- 2014 -->
      <g style="fill: #37539c" transform="translate(190.344594 333.371458) rotate(-45) scale(0.1 -0.1)">
       <defs>
        <path id="OpenSans-Bold-34" d="M 3553 947 
L 3003 947 
L 3003 0 
L 2059 0 
L 2059 947 
L 109 947 
L 109 1619 
L 2113 4569 
L 3003 4569 
L 3003 1697 
L 3553 1697 
L 3553 947 
z
M 2059 1697 
L 2059 2472 
Q 2059 2581 2064 2731 
Q 2069 2881 2075 3031 
Q 2081 3181 2089 3298 
Q 2097 3416 2100 3463 
L 2075 3463 
Q 2016 3334 1950 3214 
Q 1884 3094 1797 2963 
L 959 1697 
L 2059 1697 
z
" transform="scale(0.015625)"/>
       </defs>
       <use xlink:href="#OpenSans-Bold-32"/>
       <use xlink:href="#OpenSans-Bold-30" x="57.177734"/>
       <use xlink:href="#OpenSans-Bold-31" x="114.355469"/>
       <use xlink:href="#OpenSans-Bold-34" x="171.533203"/>
      </g>
     </g>
    </g>
    <g id="xtick_3">
     <g id="line2d_3">
      <g>
       <use xlink:href="#maf8ca0fdb1" x="294.479823" y="304.827903" style="fill: #37539c; stroke: #37539c; stroke-width: 0.8"/>
      </g>
     </g>
     <g id="text_3">
      <!-- 2015 -->
      <g style="fill: #37539c" transform="translate(288.231319 333.371458) rotate(-45) scale(0.1 -0.1)">
       <defs>
        <path id="OpenSans-Bold-35" d="M 1919 2919 
Q 2338 2919 2664 2759 
Q 2991 2600 3178 2290 
Q 3366 1981 3366 1528 
Q 3366 1034 3161 676 
Q 2956 319 2551 128 
Q 2147 -63 1544 -63 
Q 1184 -63 867 -2 
Q 550 59 313 184 
L 313 1019 
Q 550 894 883 808 
Q 1216 722 1509 722 
Q 1797 722 1994 798 
Q 2191 875 2292 1036 
Q 2394 1197 2394 1447 
Q 2394 1781 2169 1959 
Q 1944 2138 1478 2138 
Q 1300 2138 1108 2103 
Q 916 2069 788 2034 
L 403 2241 
L 575 4569 
L 3053 4569 
L 3053 3750 
L 1422 3750 
L 1338 2853 
Q 1444 2875 1569 2897 
Q 1694 2919 1919 2919 
z
" transform="scale(0.015625)"/>
       </defs>
       <use xlink:href="#OpenSans-Bold-32"/>
       <use xlink:href="#OpenSans-Bold-30" x="57.177734"/>
       <use xlink:href="#OpenSans-Bold-31" x="114.355469"/>
       <use xlink:href="#OpenSans-Bold-35" x="171.533203"/>
      </g>
     </g>
    </g>
    <g id="xtick_4">
     <g id="line2d_4">
      <g>
       <use xlink:href="#maf8ca0fdb1" x="392.366549" y="304.827903" style="fill: #37539c; stroke: #37539c; stroke-width: 0.8"/>
      </g>
     </g>
     <g id="text_4">
      <!-- 2016 -->
      <g style="fill: #37539c" transform="translate(386.118045 333.371458) rotate(-45) scale(0.1 -0.1)">
       <defs>
        <path id="OpenSans-Bold-36" d="M 225 1941 
Q 225 2334 283 2720 
Q 341 3106 484 3448 
Q 628 3791 887 4055 
Q 1147 4319 1547 4470 
Q 1947 4622 2516 4622 
Q 2650 4622 2829 4611 
Q 3009 4600 3128 4575 
L 3128 3803 
Q 3003 3831 2861 3848 
Q 2719 3866 2578 3866 
Q 2009 3866 1698 3684 
Q 1388 3503 1261 3183 
Q 1134 2863 1113 2438 
L 1153 2438 
Q 1241 2591 1373 2709 
Q 1506 2828 1697 2898 
Q 1888 2969 2144 2969 
Q 2544 2969 2837 2798 
Q 3131 2628 3290 2306 
Q 3450 1984 3450 1522 
Q 3450 1028 3259 672 
Q 3069 316 2720 126 
Q 2372 -63 1894 -63 
Q 1544 -63 1241 57 
Q 938 178 709 425 
Q 481 672 353 1048 
Q 225 1425 225 1941 
z
M 1875 709 
Q 2159 709 2337 903 
Q 2516 1097 2516 1509 
Q 2516 1844 2361 2036 
Q 2206 2228 1894 2228 
Q 1681 2228 1520 2133 
Q 1359 2038 1271 1892 
Q 1184 1747 1184 1594 
Q 1184 1434 1228 1278 
Q 1272 1122 1359 994 
Q 1447 866 1576 787 
Q 1706 709 1875 709 
z
" transform="scale(0.015625)"/>
       </defs>
       <use xlink:href="#OpenSans-Bold-32"/>
       <use xlink:href="#OpenSans-Bold-30" x="57.177734"/>
       <use xlink:href="#OpenSans-Bold-31" x="114.355469"/>
       <use xlink:href="#OpenSans-Bold-36" x="171.533203"/>
      </g>
     </g>
    </g>
    <g id="xtick_5">
     <g id="line2d_5">
      <g>
       <use xlink:href="#maf8ca0fdb1" x="490.253274" y="304.827903" style="fill: #37539c; stroke: #37539c; stroke-width: 0.8"/>
      </g>
     </g>
     <g id="text_5">
      <!-- 2017 -->
      <g style="fill: #37539c" transform="translate(484.004771 333.371458) rotate(-45) scale(0.1 -0.1)">
       <defs>
        <path id="OpenSans-Bold-37" d="M 709 0 
L 2425 3756 
L 172 3756 
L 172 4569 
L 3450 4569 
L 3450 3963 
L 1722 0 
L 709 0 
z
" transform="scale(0.015625)"/>
       </defs>
       <use xlink:href="#OpenSans-Bold-32"/>
       <use xlink:href="#OpenSans-Bold-30" x="57.177734"/>
       <use xlink:href="#OpenSans-Bold-31" x="114.355469"/>
       <use xlink:href="#OpenSans-Bold-37" x="171.533203"/>
      </g>
     </g>
    </g>
    <g id="xtick_6">
     <g id="line2d_6">
      <g>
       <use xlink:href="#maf8ca0fdb1" x="588.14" y="304.827903" style="fill: #37539c; stroke: #37539c; stroke-width: 0.8"/>
      </g>
     </g>
     <g id="text_6">
      <!-- 2018 -->
      <g style="fill: #37539c" transform="translate(581.891496 333.371458) rotate(-45) scale(0.1 -0.1)">
       <defs>
        <path id="OpenSans-Bold-38" d="M 1831 4628 
Q 2225 4628 2558 4506 
Q 2891 4384 3091 4139 
Q 3291 3894 3291 3525 
Q 3291 3250 3183 3044 
Q 3075 2838 2890 2683 
Q 2706 2528 2472 2413 
Q 2716 2284 2934 2114 
Q 3153 1944 3292 1716 
Q 3431 1488 3431 1184 
Q 3431 803 3228 523 
Q 3025 244 2665 90 
Q 2306 -63 1831 -63 
Q 1319 -63 959 84 
Q 600 231 412 504 
Q 225 778 225 1159 
Q 225 1472 342 1703 
Q 459 1934 659 2101 
Q 859 2269 1100 2388 
Q 897 2516 730 2678 
Q 563 2841 464 3050 
Q 366 3259 366 3531 
Q 366 3894 570 4137 
Q 775 4381 1109 4504 
Q 1444 4628 1831 4628 
z
M 1119 1216 
Q 1119 969 1295 808 
Q 1472 647 1819 647 
Q 2178 647 2356 801 
Q 2534 956 2534 1209 
Q 2534 1384 2432 1515 
Q 2331 1647 2178 1751 
Q 2025 1856 1869 1947 
L 1784 1991 
Q 1584 1900 1436 1787 
Q 1288 1675 1203 1534 
Q 1119 1394 1119 1216 
z
M 1825 3922 
Q 1588 3922 1431 3800 
Q 1275 3678 1275 3456 
Q 1275 3300 1351 3183 
Q 1428 3066 1554 2978 
Q 1681 2891 1831 2816 
Q 1975 2884 2100 2968 
Q 2225 3053 2303 3172 
Q 2381 3291 2381 3456 
Q 2381 3678 2223 3800 
Q 2066 3922 1825 3922 
z
" transform="scale(0.015625)"/>
       </defs>
       <use xlink:href="#OpenSans-Bold-32"/>
       <use xlink:href="#OpenSans-Bold-30" x="57.177734"/>
       <use xlink:href="#OpenSans-Bold-31" x="114.355469"/>
       <use xlink:href="#OpenSans-Bold-38" x="171.533203"/>
      </g>
     </g>
    </g>
    <g id="xtick_7">
     <g id="line2d_7">
      <g>
       <use xlink:href="#maf8ca0fdb1" x="686.026726" y="304.827903" style="fill: #37539c; stroke: #37539c; stroke-width: 0.8"/>
      </g>
     </g>
     <g id="text_7">
      <!-- 2019 -->
      <g style="fill: #37539c" transform="translate(679.778222 333.371458) rotate(-45) scale(0.1 -0.1)">
       <defs>
        <path id="OpenSans-Bold-39" d="M 3431 2619 
Q 3431 2225 3373 1837 
Q 3316 1450 3172 1108 
Q 3028 766 2768 502 
Q 2509 238 2109 87 
Q 1709 -63 1141 -63 
Q 1006 -63 825 -52 
Q 644 -41 525 -19 
L 525 756 
Q 650 725 790 708 
Q 931 691 1075 691 
Q 1647 691 1958 872 
Q 2269 1053 2395 1375 
Q 2522 1697 2541 2119 
L 2503 2119 
Q 2413 1969 2289 1848 
Q 2166 1728 1975 1658 
Q 1784 1588 1491 1588 
Q 1100 1588 811 1758 
Q 522 1928 364 2251 
Q 206 2575 206 3034 
Q 206 3531 395 3886 
Q 584 4241 934 4431 
Q 1284 4622 1759 4622 
Q 2109 4622 2412 4501 
Q 2716 4381 2945 4134 
Q 3175 3888 3303 3509 
Q 3431 3131 3431 2619 
z
M 1778 3847 
Q 1497 3847 1319 3653 
Q 1141 3459 1141 3047 
Q 1141 2716 1294 2522 
Q 1447 2328 1759 2328 
Q 1975 2328 2134 2423 
Q 2294 2519 2383 2664 
Q 2472 2809 2472 2963 
Q 2472 3122 2428 3278 
Q 2384 3434 2296 3562 
Q 2209 3691 2079 3769 
Q 1950 3847 1778 3847 
z
" transform="scale(0.015625)"/>
       </defs>
       <use xlink:href="#OpenSans-Bold-32"/>
       <use xlink:href="#OpenSans-Bold-30" x="57.177734"/>
       <use xlink:href="#OpenSans-Bold-31" x="114.355469"/>
       <use xlink:href="#OpenSans-Bold-39" x="171.533203"/>
      </g>
     </g>
    </g>
    <g id="xtick_8">
     <g id="line2d_8">
      <g>
       <use xlink:href="#maf8ca0fdb1" x="783.913451" y="304.827903" style="fill: #37539c; stroke: #37539c; stroke-width: 0.8"/>
      </g>
     </g>
     <g id="text_8">
      <!-- 2020 -->
      <g style="fill: #37539c" transform="translate(777.664948 333.371458) rotate(-45) scale(0.1 -0.1)">
       <use xlink:href="#OpenSans-Bold-32"/>
       <use xlink:href="#OpenSans-Bold-30" x="57.177734"/>
       <use xlink:href="#OpenSans-Bold-32" x="114.355469"/>
       <use xlink:href="#OpenSans-Bold-30" x="171.533203"/>
      </g>
     </g>
    </g>
    <g id="xtick_9">
     <g id="line2d_9">
      <g>
       <use xlink:href="#maf8ca0fdb1" x="881.800177" y="304.827903" style="fill: #37539c; stroke: #37539c; stroke-width: 0.8"/>
      </g>
     </g>
     <g id="text_9">
      <!-- 2021 -->
      <g style="fill: #37539c" transform="translate(875.551673 333.371458) rotate(-45) scale(0.1 -0.1)">
       <use xlink:href="#OpenSans-Bold-32"/>
       <use xlink:href="#OpenSans-Bold-30" x="57.177734"/>
       <use xlink:href="#OpenSans-Bold-32" x="114.355469"/>
       <use xlink:href="#OpenSans-Bold-31" x="171.533203"/>
      </g>
     </g>
    </g>
    <g id="xtick_10">
     <g id="line2d_10">
      <g>
       <use xlink:href="#maf8ca0fdb1" x="979.686903" y="304.827903" style="fill: #37539c; stroke: #37539c; stroke-width: 0.8"/>
      </g>
     </g>
     <g id="text_10">
      <!-- 2022 -->
      <g style="fill: #37539c" transform="translate(973.438399 333.371458) rotate(-45) scale(0.1 -0.1)">
       <use xlink:href="#OpenSans-Bold-32"/>
       <use xlink:href="#OpenSans-Bold-30" x="57.177734"/>
       <use xlink:href="#OpenSans-Bold-32" x="114.355469"/>
       <use xlink:href="#OpenSans-Bold-32" x="171.533203"/>
      </g>
     </g>
    </g>
    <g id="xtick_11">
     <g id="line2d_11">
      <g>
       <use xlink:href="#maf8ca0fdb1" x="1077.573628" y="304.827903" style="fill: #37539c; stroke: #37539c; stroke-width: 0.8"/>
      </g>
     </g>
     <g id="text_11">
      <!-- 2023 -->
      <g style="fill: #37539c" transform="translate(1071.325125 333.371458) rotate(-45) scale(0.1 -0.1)">
       <use xlink:href="#OpenSans-Bold-32"/>
       <use xlink:href="#OpenSans-Bold-30" x="57.177734"/>
       <use xlink:href="#OpenSans-Bold-32" x="114.355469"/>
       <use xlink:href="#OpenSans-Bold-33" x="171.533203"/>
      </g>
     </g>
    </g>
    <g id="text_12">
     <!-- Año -->
     <g style="fill: #37539c" transform="translate(578.307969 346.669161) scale(0.1 -0.1)">
      <defs>
       <path id="OpenSans-Bold-41" d="M 3372 0 
L 3041 1088 
L 1375 1088 
L 1044 0 
L 0 0 
L 1613 4588 
L 2797 4588 
L 4416 0 
L 3372 0 
z
M 2809 1900 
L 2478 2963 
Q 2447 3069 2395 3236 
Q 2344 3403 2292 3576 
Q 2241 3750 2209 3878 
Q 2178 3750 2123 3561 
Q 2069 3372 2019 3203 
Q 1969 3034 1947 2963 
L 1619 1900 
L 2809 1900 
z
" transform="scale(0.015625)"/>
       <path id="OpenSans-Bold-f1" d="M 2484 3559 
Q 3044 3559 3384 3254 
Q 3725 2950 3725 2278 
L 3725 0 
L 2772 0 
L 2772 2041 
Q 2772 2416 2636 2606 
Q 2500 2797 2209 2797 
Q 1772 2797 1612 2500 
Q 1453 2203 1453 1644 
L 1453 0 
L 500 0 
L 500 3494 
L 1228 3494 
L 1356 3047 
L 1409 3047 
Q 1522 3228 1689 3340 
Q 1856 3453 2061 3506 
Q 2266 3559 2484 3559 
z
M 808 3872 
Q 827 4122 899 4305 
Q 971 4488 1086 4605 
Q 1202 4722 1347 4780 
Q 1493 4838 1658 4838 
Q 1786 4838 1909 4789 
Q 2033 4741 2153 4675 
Q 2274 4609 2391 4561 
Q 2508 4513 2621 4513 
Q 2715 4513 2804 4595 
Q 2893 4678 2933 4844 
L 3399 4844 
Q 3361 4350 3117 4114 
Q 2874 3878 2549 3878 
Q 2421 3878 2297 3928 
Q 2174 3978 2053 4042 
Q 1933 4106 1817 4156 
Q 1702 4206 1590 4206 
Q 1493 4206 1404 4123 
Q 1315 4041 1274 3872 
L 808 3872 
z
" transform="scale(0.015625)"/>
       <path id="OpenSans-Bold-6f" d="M 3675 1753 
Q 3675 1316 3558 978 
Q 3441 641 3217 408 
Q 2994 175 2680 56 
Q 2366 -63 1972 -63 
Q 1603 -63 1295 56 
Q 988 175 761 408 
Q 534 641 411 978 
Q 288 1316 288 1753 
Q 288 2334 494 2737 
Q 700 3141 1081 3350 
Q 1463 3559 1991 3559 
Q 2481 3559 2861 3350 
Q 3241 3141 3458 2737 
Q 3675 2334 3675 1753 
z
M 1259 1753 
Q 1259 1409 1334 1175 
Q 1409 941 1568 822 
Q 1728 703 1984 703 
Q 2238 703 2395 822 
Q 2553 941 2626 1175 
Q 2700 1409 2700 1753 
Q 2700 2100 2626 2329 
Q 2553 2559 2393 2675 
Q 2234 2791 1978 2791 
Q 1600 2791 1429 2531 
Q 1259 2272 1259 1753 
z
" transform="scale(0.015625)"/>
      </defs>
      <use xlink:href="#OpenSans-Bold-41"/>
      <use xlink:href="#OpenSans-Bold-f1" x="68.994141"/>
      <use xlink:href="#OpenSans-Bold-6f" x="134.716797"/>
     </g>
    </g>
   </g>
   <g id="matplotlib.axis_2">
    <g id="ytick_1">
     <g id="line2d_12">
      <path d="M 35.08 304.827903 
L 1141.2 304.827903 
" clip-path="url(#p30424e0edd)" style="fill: none; stroke-dasharray: 2.96,1.28; stroke-dashoffset: 0; stroke: #b0b0b0; stroke-width: 0.8"/>
     </g>
     <g id="line2d_13">
      <defs>
       <path id="m0fe6bcd64b" d="M 0 0 
L -3.5 0 
" style="stroke: #37539c; stroke-width: 0.8"/>
      </defs>
      <g>
       <use xlink:href="#m0fe6bcd64b" x="35.08" y="304.827903" style="fill: #37539c; stroke: #37539c; stroke-width: 0.8"/>
      </g>
     </g>
     <g id="text_13">
      <!-- 0 -->
      <g style="fill: #37539c" transform="translate(22.362813 308.627121) scale(0.1 -0.1)">
       <use xlink:href="#OpenSans-Bold-30"/>
      </g>
     </g>
    </g>
    <g id="ytick_2">
     <g id="line2d_14">
      <path d="M 35.08 249.00038 
L 1141.2 249.00038 
" clip-path="url(#p30424e0edd)" style="fill: none; stroke-dasharray: 2.96,1.28; stroke-dashoffset: 0; stroke: #b0b0b0; stroke-width: 0.8"/>
     </g>
     <g id="line2d_15">
      <g>
       <use xlink:href="#m0fe6bcd64b" x="35.08" y="249.00038" style="fill: #37539c; stroke: #37539c; stroke-width: 0.8"/>
      </g>
     </g>
     <g id="text_14">
      <!-- 100 -->
      <g style="fill: #37539c" transform="translate(10.928438 252.799599) scale(0.1 -0.1)">
       <use xlink:href="#OpenSans-Bold-31"/>
       <use xlink:href="#OpenSans-Bold-30" x="57.177734"/>
       <use xlink:href="#OpenSans-Bold-30" x="114.355469"/>
      </g>
     </g>
    </g>
    <g id="ytick_3">
     <g id="line2d_16">
      <path d="M 35.08 193.172857 
L 1141.2 193.172857 
" clip-path="url(#p30424e0edd)" style="fill: none; stroke-dasharray: 2.96,1.28; stroke-dashoffset: 0; stroke: #b0b0b0; stroke-width: 0.8"/>
     </g>
     <g id="line2d_17">
      <g>
       <use xlink:href="#m0fe6bcd64b" x="35.08" y="193.172857" style="fill: #37539c; stroke: #37539c; stroke-width: 0.8"/>
      </g>
     </g>
     <g id="text_15">
      <!-- 200 -->
      <g style="fill: #37539c" transform="translate(10.928438 196.972076) scale(0.1 -0.1)">
       <use xlink:href="#OpenSans-Bold-32"/>
       <use xlink:href="#OpenSans-Bold-30" x="57.177734"/>
       <use xlink:href="#OpenSans-Bold-30" x="114.355469"/>
      </g>
     </g>
    </g>
    <g id="ytick_4">
     <g id="line2d_18">
      <path d="M 35.08 137.345335 
L 1141.2 137.345335 
" clip-path="url(#p30424e0edd)" style="fill: none; stroke-dasharray: 2.96,1.28; stroke-dashoffset: 0; stroke: #b0b0b0; stroke-width: 0.8"/>
     </g>
     <g id="line2d_19">
      <g>
       <use xlink:href="#m0fe6bcd64b" x="35.08" y="137.345335" style="fill: #37539c; stroke: #37539c; stroke-width: 0.8"/>
      </g>
     </g>
     <g id="text_16">
      <!-- 300 -->
      <g style="fill: #37539c" transform="translate(10.928438 141.144554) scale(0.1 -0.1)">
       <use xlink:href="#OpenSans-Bold-33"/>
       <use xlink:href="#OpenSans-Bold-30" x="57.177734"/>
       <use xlink:href="#OpenSans-Bold-30" x="114.355469"/>
      </g>
     </g>
    </g>
    <g id="ytick_5">
     <g id="line2d_20">
      <path d="M 35.08 81.517812 
L 1141.2 81.517812 
" clip-path="url(#p30424e0edd)" style="fill: none; stroke-dasharray: 2.96,1.28; stroke-dashoffset: 0; stroke: #b0b0b0; stroke-width: 0.8"/>
     </g>
     <g id="line2d_21">
      <g>
       <use xlink:href="#m0fe6bcd64b" x="35.08" y="81.517812" style="fill: #37539c; stroke: #37539c; stroke-width: 0.8"/>
      </g>
     </g>
     <g id="text_17">
      <!-- 400 -->
      <g style="fill: #37539c" transform="translate(10.928438 85.317031) scale(0.1 -0.1)">
       <use xlink:href="#OpenSans-Bold-34"/>
       <use xlink:href="#OpenSans-Bold-30" x="57.177734"/>
       <use xlink:href="#OpenSans-Bold-30" x="114.355469"/>
      </g>
     </g>
    </g>
    <g id="ytick_6">
     <g id="line2d_22">
      <path d="M 35.08 25.69029 
L 1141.2 25.69029 
" clip-path="url(#p30424e0edd)" style="fill: none; stroke-dasharray: 2.96,1.28; stroke-dashoffset: 0; stroke: #b0b0b0; stroke-width: 0.8"/>
     </g>
     <g id="line2d_23">
      <g>
       <use xlink:href="#m0fe6bcd64b" x="35.08" y="25.69029" style="fill: #37539c; stroke: #37539c; stroke-width: 0.8"/>
      </g>
     </g>
     <g id="text_18">
      <!-- 500 -->
      <g style="fill: #37539c" transform="translate(10.928438 29.489508) scale(0.1 -0.1)">
       <use xlink:href="#OpenSans-Bold-35"/>
       <use xlink:href="#OpenSans-Bold-30" x="57.177734"/>
       <use xlink:href="#OpenSans-Bold-30" x="114.355469"/>
      </g>
     </g>
    </g>
   </g>
   <g id="patch_3">
    <path d="M 1105.541264 304.827903 
L 1116.728319 304.827903 
L 1116.728319 304.827903 
L 1105.541264 304.827903 
z
" clip-path="url(#p30424e0edd)" style="fill: #ebebeb"/>
   </g>
   <g id="patch_4">
    <path d="M 1007.654539 304.827903 
L 1018.841593 304.827903 
L 1018.841593 304.827903 
L 1007.654539 304.827903 
z
" clip-path="url(#p30424e0edd)" style="fill: #ebebeb"/>
   </g>
   <g id="patch_5">
    <path d="M 909.767813 304.827903 
L 920.954867 304.827903 
L 920.954867 304.827903 
L 909.767813 304.827903 
z
" clip-path="url(#p30424e0edd)" style="fill: #ebebeb"/>
   </g>
   <g id="patch_6">
    <path d="M 811.881087 304.827903 
L 823.068142 304.827903 
L 823.068142 304.827903 
L 811.881087 304.827903 
z
" clip-path="url(#p30424e0edd)" style="fill: #ebebeb"/>
   </g>
   <g id="patch_7">
    <path d="M 713.994362 304.827903 
L 725.181416 304.827903 
L 725.181416 304.827903 
L 713.994362 304.827903 
z
" clip-path="url(#p30424e0edd)" style="fill: #ebebeb"/>
   </g>
   <g id="patch_8">
    <path d="M 626.287855 304.81897 
L 617.114471 304.81897 
Q 626.903143 304.81897 626.903143 304.59566 
L 626.903143 303.385319 
Q 626.903143 303.162009 617.114471 303.162009 
L 626.287855 303.162009 
Q 616.499183 303.162009 616.499183 303.385319 
L 616.499183 304.59566 
Q 616.499183 304.81897 626.287855 304.81897 
z
" clip-path="url(#p30424e0edd)" style="fill: #ebebeb"/>
   </g>
   <g id="patch_9">
    <path d="M 518.22091 304.827903 
L 529.407965 304.827903 
L 529.407965 304.827903 
L 518.22091 304.827903 
z
" clip-path="url(#p30424e0edd)" style="fill: #ebebeb"/>
   </g>
   <g id="patch_10">
    <path d="M 420.334185 304.827903 
L 431.521239 304.827903 
L 431.521239 304.827903 
L 420.334185 304.827903 
z
" clip-path="url(#p30424e0edd)" style="fill: #ebebeb"/>
   </g>
   <g id="patch_11">
    <path d="M 322.447459 304.827903 
L 333.634513 304.827903 
L 333.634513 304.827903 
L 322.447459 304.827903 
z
" clip-path="url(#p30424e0edd)" style="fill: #ebebeb"/>
   </g>
   <g id="patch_12">
    <path d="M 224.560733 304.827903 
L 235.747788 304.827903 
L 235.747788 304.827903 
L 224.560733 304.827903 
z
" clip-path="url(#p30424e0edd)" style="fill: #ebebeb"/>
   </g>
   <g id="patch_13">
    <path d="M 126.674008 304.827903 
L 137.861062 304.827903 
L 137.861062 304.827903 
L 126.674008 304.827903 
z
" clip-path="url(#p30424e0edd)" style="fill: #ebebeb"/>
   </g>
   <g id="patch_14">
    <path d="M 1094.35421 304.827903 
L 1105.541264 304.827903 
L 1105.541264 304.827903 
L 1094.35421 304.827903 
z
" clip-path="url(#p30424e0edd)" style="fill: #4062bb"/>
   </g>
   <g id="patch_15">
    <path d="M 1006.647704 304.81897 
L 997.474319 304.81897 
Q 1007.262992 304.81897 1007.262992 304.59566 
L 1007.262992 304.50187 
Q 1007.262992 304.27856 997.474319 304.27856 
L 1006.647704 304.27856 
Q 996.859031 304.27856 996.859031 304.50187 
L 996.859031 304.59566 
Q 996.859031 304.81897 1006.647704 304.81897 
z
" clip-path="url(#p30424e0edd)" style="fill: #4062bb"/>
   </g>
   <g id="patch_16">
    <path d="M 908.760978 304.81897 
L 899.587593 304.81897 
Q 909.376266 304.81897 909.376266 304.59566 
L 909.376266 302.827044 
Q 909.376266 302.603734 899.587593 302.603734 
L 908.760978 302.603734 
Q 898.972305 302.603734 898.972305 302.827044 
L 898.972305 304.59566 
Q 898.972305 304.81897 908.760978 304.81897 
z
" clip-path="url(#p30424e0edd)" style="fill: #4062bb"/>
   </g>
   <g id="patch_17">
    <path d="M 810.874252 304.81897 
L 801.700868 304.81897 
Q 811.48954 304.81897 811.48954 304.59566 
L 811.48954 304.50187 
Q 811.48954 304.27856 801.700868 304.27856 
L 810.874252 304.27856 
Q 801.08558 304.27856 801.08558 304.50187 
L 801.08558 304.59566 
Q 801.08558 304.81897 810.874252 304.81897 
z
" clip-path="url(#p30424e0edd)" style="fill: #4062bb"/>
   </g>
   <g id="patch_18">
    <path d="M 702.807307 304.827903 
L 713.994362 304.827903 
L 713.994362 304.827903 
L 702.807307 304.827903 
z
" clip-path="url(#p30424e0edd)" style="fill: #4062bb"/>
   </g>
   <g id="patch_19">
    <path d="M 604.920582 304.827903 
L 616.107636 304.827903 
L 616.107636 304.827903 
L 604.920582 304.827903 
z
" clip-path="url(#p30424e0edd)" style="fill: #4062bb"/>
   </g>
   <g id="patch_20">
    <path d="M 507.033856 304.827903 
L 518.22091 304.827903 
L 518.22091 304.827903 
L 507.033856 304.827903 
z
" clip-path="url(#p30424e0edd)" style="fill: #4062bb"/>
   </g>
   <g id="patch_21">
    <path d="M 419.32735 304.81897 
L 410.153965 304.81897 
Q 419.942638 304.81897 419.942638 304.59566 
L 419.942638 304.50187 
Q 419.942638 304.27856 410.153965 304.27856 
L 419.32735 304.27856 
Q 409.538677 304.27856 409.538677 304.50187 
L 409.538677 304.59566 
Q 409.538677 304.81897 419.32735 304.81897 
z
" clip-path="url(#p30424e0edd)" style="fill: #4062bb"/>
   </g>
   <g id="patch_22">
    <path d="M 311.260405 304.827903 
L 322.447459 304.827903 
L 322.447459 304.827903 
L 311.260405 304.827903 
z
" clip-path="url(#p30424e0edd)" style="fill: #4062bb"/>
   </g>
   <g id="patch_23">
    <path d="M 223.553898 304.81897 
L 214.380514 304.81897 
Q 224.169186 304.81897 224.169186 304.59566 
L 224.169186 304.50187 
Q 224.169186 304.27856 214.380514 304.27856 
L 223.553898 304.27856 
Q 213.765226 304.27856 213.765226 304.50187 
L 213.765226 304.59566 
Q 213.765226 304.81897 223.553898 304.81897 
z
" clip-path="url(#p30424e0edd)" style="fill: #4062bb"/>
   </g>
   <g id="patch_24">
    <path d="M 115.486953 304.827903 
L 126.674008 304.827903 
L 126.674008 304.827903 
L 115.486953 304.827903 
z
" clip-path="url(#p30424e0edd)" style="fill: #4062bb"/>
   </g>
   <g id="patch_25">
    <path d="M 1093.347375 304.81897 
L 1084.17399 304.81897 
Q 1093.962663 304.81897 1093.962663 304.59566 
L 1093.962663 303.943595 
Q 1093.962663 303.720285 1084.17399 303.720285 
L 1093.347375 303.720285 
Q 1083.558702 303.720285 1083.558702 303.943595 
L 1083.558702 304.59566 
Q 1083.558702 304.81897 1093.347375 304.81897 
z
" clip-path="url(#p30424e0edd)" style="fill: #52489c"/>
   </g>
   <g id="patch_26">
    <path d="M 995.460649 304.81897 
L 986.287265 304.81897 
Q 996.075937 304.81897 996.075937 304.59566 
L 996.075937 298.919118 
Q 996.075937 298.695808 986.287265 298.695808 
L 995.460649 298.695808 
Q 985.671977 298.695808 985.671977 298.919118 
L 985.671977 304.59566 
Q 985.671977 304.81897 995.460649 304.81897 
z
" clip-path="url(#p30424e0edd)" style="fill: #52489c"/>
   </g>
   <g id="patch_27">
    <path d="M 897.573924 304.81897 
L 888.400539 304.81897 
Q 898.189212 304.81897 898.189212 304.59566 
L 898.189212 302.827044 
Q 898.189212 302.603734 888.400539 302.603734 
L 897.573924 302.603734 
Q 887.785251 302.603734 887.785251 302.827044 
L 887.785251 304.59566 
Q 887.785251 304.81897 897.573924 304.81897 
z
" clip-path="url(#p30424e0edd)" style="fill: #52489c"/>
   </g>
   <g id="patch_28">
    <path d="M 799.687198 304.81897 
L 790.513813 304.81897 
Q 800.302486 304.81897 800.302486 304.59566 
L 800.302486 303.385319 
Q 800.302486 303.162009 790.513813 303.162009 
L 799.687198 303.162009 
Q 789.898525 303.162009 789.898525 303.385319 
L 789.898525 304.59566 
Q 789.898525 304.81897 799.687198 304.81897 
z
" clip-path="url(#p30424e0edd)" style="fill: #52489c"/>
   </g>
   <g id="patch_29">
    <path d="M 701.800472 304.81897 
L 692.627088 304.81897 
Q 702.41576 304.81897 702.41576 304.59566 
L 702.41576 302.268769 
Q 702.41576 302.045459 692.627088 302.045459 
L 701.800472 302.045459 
Q 692.0118 302.045459 692.0118 302.268769 
L 692.0118 304.59566 
Q 692.0118 304.81897 701.800472 304.81897 
z
" clip-path="url(#p30424e0edd)" style="fill: #52489c"/>
   </g>
   <g id="patch_30">
    <path d="M 603.913747 304.81897 
L 594.740362 304.81897 
Q 604.529035 304.81897 604.529035 304.59566 
L 604.529035 303.385319 
Q 604.529035 303.162009 594.740362 303.162009 
L 603.913747 303.162009 
Q 594.125074 303.162009 594.125074 303.385319 
L 594.125074 304.59566 
Q 594.125074 304.81897 603.913747 304.81897 
z
" clip-path="url(#p30424e0edd)" style="fill: #52489c"/>
   </g>
   <g id="patch_31">
    <path d="M 506.027021 304.81897 
L 496.853636 304.81897 
Q 506.642309 304.81897 506.642309 304.59566 
L 506.642309 303.943595 
Q 506.642309 303.720285 496.853636 303.720285 
L 506.027021 303.720285 
Q 496.238348 303.720285 496.238348 303.943595 
L 496.238348 304.59566 
Q 496.238348 304.81897 506.027021 304.81897 
z
" clip-path="url(#p30424e0edd)" style="fill: #52489c"/>
   </g>
   <g id="patch_32">
    <path d="M 408.140295 304.81897 
L 398.966911 304.81897 
Q 408.755583 304.81897 408.755583 304.59566 
L 408.755583 303.943595 
Q 408.755583 303.720285 398.966911 303.720285 
L 408.140295 303.720285 
Q 398.351623 303.720285 398.351623 303.943595 
L 398.351623 304.59566 
Q 398.351623 304.81897 408.140295 304.81897 
z
" clip-path="url(#p30424e0edd)" style="fill: #52489c"/>
   </g>
   <g id="patch_33">
    <path d="M 310.25357 304.81897 
L 301.080185 304.81897 
Q 310.868858 304.81897 310.868858 304.59566 
L 310.868858 304.50187 
Q 310.868858 304.27856 301.080185 304.27856 
L 310.25357 304.27856 
Q 300.464897 304.27856 300.464897 304.50187 
L 300.464897 304.59566 
Q 300.464897 304.81897 310.25357 304.81897 
z
" clip-path="url(#p30424e0edd)" style="fill: #52489c"/>
   </g>
   <g id="patch_34">
    <path d="M 212.366844 304.81897 
L 203.193459 304.81897 
Q 212.982132 304.81897 212.982132 304.59566 
L 212.982132 303.943595 
Q 212.982132 303.720285 203.193459 303.720285 
L 212.366844 303.720285 
Q 202.578171 303.720285 202.578171 303.943595 
L 202.578171 304.59566 
Q 202.578171 304.81897 212.366844 304.81897 
z
" clip-path="url(#p30424e0edd)" style="fill: #52489c"/>
   </g>
   <g id="patch_35">
    <path d="M 114.480118 304.81897 
L 105.306734 304.81897 
Q 115.095406 304.81897 115.095406 304.59566 
L 115.095406 303.943595 
Q 115.095406 303.720285 105.306734 303.720285 
L 114.480118 303.720285 
Q 104.691446 303.720285 104.691446 303.943595 
L 104.691446 304.59566 
Q 104.691446 304.81897 114.480118 304.81897 
z
" clip-path="url(#p30424e0edd)" style="fill: #52489c"/>
   </g>
   <g id="patch_36">
    <path d="M 1082.160321 304.81897 
L 1072.986936 304.81897 
Q 1082.775609 304.81897 1082.775609 304.59566 
L 1082.775609 302.827044 
Q 1082.775609 302.603734 1072.986936 302.603734 
L 1082.160321 302.603734 
Q 1072.371648 302.603734 1072.371648 302.827044 
L 1072.371648 304.59566 
Q 1072.371648 304.81897 1082.160321 304.81897 
z
" clip-path="url(#p30424e0edd)" style="fill: #9fb7b9"/>
   </g>
   <g id="patch_37">
    <path d="M 984.273595 304.81897 
L 975.10021 304.81897 
Q 984.888883 304.81897 984.888883 304.59566 
L 984.888883 297.244292 
Q 984.888883 297.020982 975.10021 297.020982 
L 984.273595 297.020982 
Q 974.484922 297.020982 974.484922 297.244292 
L 974.484922 304.59566 
Q 974.484922 304.81897 984.273595 304.81897 
z
" clip-path="url(#p30424e0edd)" style="fill: #9fb7b9"/>
   </g>
   <g id="patch_38">
    <path d="M 886.386869 304.81897 
L 877.213485 304.81897 
Q 887.002157 304.81897 887.002157 304.59566 
L 887.002157 291.103264 
Q 887.002157 290.879954 877.213485 290.879954 
L 886.386869 290.879954 
Q 876.598197 290.879954 876.598197 291.103264 
L 876.598197 304.59566 
Q 876.598197 304.81897 886.386869 304.81897 
z
" clip-path="url(#p30424e0edd)" style="fill: #9fb7b9"/>
   </g>
   <g id="patch_39">
    <path d="M 788.500144 304.81897 
L 779.326759 304.81897 
Q 789.115432 304.81897 789.115432 304.59566 
L 789.115432 288.311888 
Q 789.115432 288.088578 779.326759 288.088578 
L 788.500144 288.088578 
Q 778.711471 288.088578 778.711471 288.311888 
L 778.711471 304.59566 
Q 778.711471 304.81897 788.500144 304.81897 
z
" clip-path="url(#p30424e0edd)" style="fill: #9fb7b9"/>
   </g>
   <g id="patch_40">
    <path d="M 690.613418 304.81897 
L 681.440033 304.81897 
Q 691.228706 304.81897 691.228706 304.59566 
L 691.228706 292.219815 
Q 691.228706 291.996505 681.440033 291.996505 
L 690.613418 291.996505 
Q 680.824745 291.996505 680.824745 292.219815 
L 680.824745 304.59566 
Q 680.824745 304.81897 690.613418 304.81897 
z
" clip-path="url(#p30424e0edd)" style="fill: #9fb7b9"/>
   </g>
   <g id="patch_41">
    <path d="M 592.726692 304.81897 
L 583.553308 304.81897 
Q 593.34198 304.81897 593.34198 304.59566 
L 593.34198 292.77809 
Q 593.34198 292.55478 583.553308 292.55478 
L 592.726692 292.55478 
Q 582.93802 292.55478 582.93802 292.77809 
L 582.93802 304.59566 
Q 582.93802 304.81897 592.726692 304.81897 
z
" clip-path="url(#p30424e0edd)" style="fill: #9fb7b9"/>
   </g>
   <g id="patch_42">
    <path d="M 494.839967 304.81897 
L 485.666582 304.81897 
Q 495.455255 304.81897 495.455255 304.59566 
L 495.455255 301.152219 
Q 495.455255 300.928908 485.666582 300.928908 
L 494.839967 300.928908 
Q 485.051294 300.928908 485.051294 301.152219 
L 485.051294 304.59566 
Q 485.051294 304.81897 494.839967 304.81897 
z
" clip-path="url(#p30424e0edd)" style="fill: #9fb7b9"/>
   </g>
   <g id="patch_43">
    <path d="M 396.953241 304.81897 
L 387.779856 304.81897 
Q 397.568529 304.81897 397.568529 304.59566 
L 397.568529 293.894641 
Q 397.568529 293.671331 387.779856 293.671331 
L 396.953241 293.671331 
Q 387.164568 293.671331 387.164568 293.894641 
L 387.164568 304.59566 
Q 387.164568 304.81897 396.953241 304.81897 
z
" clip-path="url(#p30424e0edd)" style="fill: #9fb7b9"/>
   </g>
   <g id="patch_44">
    <path d="M 299.066515 304.81897 
L 289.893131 304.81897 
Q 299.681803 304.81897 299.681803 304.59566 
L 299.681803 297.244292 
Q 299.681803 297.020982 289.893131 297.020982 
L 299.066515 297.020982 
Q 289.277843 297.020982 289.277843 297.244292 
L 289.277843 304.59566 
Q 289.277843 304.81897 299.066515 304.81897 
z
" clip-path="url(#p30424e0edd)" style="fill: #9fb7b9"/>
   </g>
   <g id="patch_45">
    <path d="M 201.17979 304.81897 
L 192.006405 304.81897 
Q 201.795078 304.81897 201.795078 304.59566 
L 201.795078 301.710494 
Q 201.795078 301.487184 192.006405 301.487184 
L 201.17979 301.487184 
Q 191.391117 301.487184 191.391117 301.710494 
L 191.391117 304.59566 
Q 191.391117 304.81897 201.17979 304.81897 
z
" clip-path="url(#p30424e0edd)" style="fill: #9fb7b9"/>
   </g>
   <g id="patch_46">
    <path d="M 93.112845 304.827903 
L 104.299899 304.827903 
L 104.299899 304.827903 
L 93.112845 304.827903 
z
" clip-path="url(#p30424e0edd)" style="fill: #9fb7b9"/>
   </g>
   <g id="patch_47">
    <path d="M 1070.973266 304.81897 
L 1061.799882 304.81897 
Q 1071.588554 304.81897 1071.588554 304.59566 
L 1071.588554 304.50187 
Q 1071.588554 304.27856 1061.799882 304.27856 
L 1070.973266 304.27856 
Q 1061.184594 304.27856 1061.184594 304.50187 
L 1061.184594 304.59566 
Q 1061.184594 304.81897 1070.973266 304.81897 
z
" clip-path="url(#p30424e0edd)" style="fill: #37539c"/>
   </g>
   <g id="patch_48">
    <path d="M 973.086541 304.81897 
L 963.913156 304.81897 
Q 973.701829 304.81897 973.701829 304.59566 
L 973.701829 303.943595 
Q 973.701829 303.720285 963.913156 303.720285 
L 973.086541 303.720285 
Q 963.297868 303.720285 963.297868 303.943595 
L 963.297868 304.59566 
Q 963.297868 304.81897 973.086541 304.81897 
z
" clip-path="url(#p30424e0edd)" style="fill: #37539c"/>
   </g>
   <g id="patch_49">
    <path d="M 875.199815 304.81897 
L 866.02643 304.81897 
Q 875.815103 304.81897 875.815103 304.59566 
L 875.815103 302.827044 
Q 875.815103 302.603734 866.02643 302.603734 
L 875.199815 302.603734 
Q 865.411142 302.603734 865.411142 302.827044 
L 865.411142 304.59566 
Q 865.411142 304.81897 875.199815 304.81897 
z
" clip-path="url(#p30424e0edd)" style="fill: #37539c"/>
   </g>
   <g id="patch_50">
    <path d="M 777.313089 304.81897 
L 768.139705 304.81897 
Q 777.928377 304.81897 777.928377 304.59566 
L 777.928377 301.710494 
Q 777.928377 301.487184 768.139705 301.487184 
L 777.313089 301.487184 
Q 767.524417 301.487184 767.524417 301.710494 
L 767.524417 304.59566 
Q 767.524417 304.81897 777.313089 304.81897 
z
" clip-path="url(#p30424e0edd)" style="fill: #37539c"/>
   </g>
   <g id="patch_51">
    <path d="M 679.426364 304.81897 
L 670.252979 304.81897 
Q 680.041652 304.81897 680.041652 304.59566 
L 680.041652 301.152219 
Q 680.041652 300.928908 670.252979 300.928908 
L 679.426364 300.928908 
Q 669.637691 300.928908 669.637691 301.152219 
L 669.637691 304.59566 
Q 669.637691 304.81897 679.426364 304.81897 
z
" clip-path="url(#p30424e0edd)" style="fill: #37539c"/>
   </g>
   <g id="patch_52">
    <path d="M 581.539638 304.81897 
L 572.366253 304.81897 
Q 582.154926 304.81897 582.154926 304.59566 
L 582.154926 300.593943 
Q 582.154926 300.370633 572.366253 300.370633 
L 581.539638 300.370633 
Q 571.750965 300.370633 571.750965 300.593943 
L 571.750965 304.59566 
Q 571.750965 304.81897 581.539638 304.81897 
z
" clip-path="url(#p30424e0edd)" style="fill: #37539c"/>
   </g>
   <g id="patch_53">
    <path d="M 483.652912 304.81897 
L 474.479528 304.81897 
Q 484.2682 304.81897 484.2682 304.59566 
L 484.2682 302.827044 
Q 484.2682 302.603734 474.479528 302.603734 
L 483.652912 302.603734 
Q 473.86424 302.603734 473.86424 302.827044 
L 473.86424 304.59566 
Q 473.86424 304.81897 483.652912 304.81897 
z
" clip-path="url(#p30424e0edd)" style="fill: #37539c"/>
   </g>
   <g id="patch_54">
    <path d="M 385.766187 304.81897 
L 376.592802 304.81897 
Q 386.381475 304.81897 386.381475 304.59566 
L 386.381475 304.50187 
Q 386.381475 304.27856 376.592802 304.27856 
L 385.766187 304.27856 
Q 375.977514 304.27856 375.977514 304.50187 
L 375.977514 304.59566 
Q 375.977514 304.81897 385.766187 304.81897 
z
" clip-path="url(#p30424e0edd)" style="fill: #37539c"/>
   </g>
   <g id="patch_55">
    <path d="M 287.879461 304.81897 
L 278.706076 304.81897 
Q 288.494749 304.81897 288.494749 304.59566 
L 288.494749 302.268769 
Q 288.494749 302.045459 278.706076 302.045459 
L 287.879461 302.045459 
Q 278.090788 302.045459 278.090788 302.268769 
L 278.090788 304.59566 
Q 278.090788 304.81897 287.879461 304.81897 
z
" clip-path="url(#p30424e0edd)" style="fill: #37539c"/>
   </g>
   <g id="patch_56">
    <path d="M 189.992735 304.81897 
L 180.819351 304.81897 
Q 190.608023 304.81897 190.608023 304.59566 
L 190.608023 302.268769 
Q 190.608023 302.045459 180.819351 302.045459 
L 189.992735 302.045459 
Q 180.204063 302.045459 180.204063 302.268769 
L 180.204063 304.59566 
Q 180.204063 304.81897 189.992735 304.81897 
z
" clip-path="url(#p30424e0edd)" style="fill: #37539c"/>
   </g>
   <g id="patch_57">
    <path d="M 92.10601 304.81897 
L 82.932625 304.81897 
Q 92.721298 304.81897 92.721298 304.59566 
L 92.721298 303.385319 
Q 92.721298 303.162009 82.932625 303.162009 
L 92.10601 303.162009 
Q 82.317337 303.162009 82.317337 303.385319 
L 82.317337 304.59566 
Q 82.317337 304.81897 92.10601 304.81897 
z
" clip-path="url(#p30424e0edd)" style="fill: #37539c"/>
   </g>
   <g id="patch_58">
    <path d="M 1059.786212 304.81897 
L 1050.612827 304.81897 
Q 1060.4015 304.81897 1060.4015 304.59566 
L 1060.4015 282.170861 
Q 1060.4015 281.947551 1050.612827 281.947551 
L 1059.786212 281.947551 
Q 1049.997539 281.947551 1049.997539 282.170861 
L 1049.997539 304.59566 
Q 1049.997539 304.81897 1059.786212 304.81897 
z
" clip-path="url(#p30424e0edd)" style="fill: #f45b69"/>
   </g>
   <g id="patch_59">
    <path d="M 961.899486 304.81897 
L 952.726102 304.81897 
Q 962.514774 304.81897 962.514774 304.59566 
L 962.514774 248.674347 
Q 962.514774 248.451037 952.726102 248.451037 
L 961.899486 248.451037 
Q 952.110814 248.451037 952.110814 248.674347 
L 952.110814 304.59566 
Q 952.110814 304.81897 961.899486 304.81897 
z
" clip-path="url(#p30424e0edd)" style="fill: #f45b69"/>
   </g>
   <g id="patch_60">
    <path d="M 864.012761 304.81897 
L 854.839376 304.81897 
Q 864.628049 304.81897 864.628049 304.59566 
L 864.628049 269.330531 
Q 864.628049 269.107221 854.839376 269.107221 
L 864.012761 269.107221 
Q 854.224088 269.107221 854.224088 269.330531 
L 854.224088 304.59566 
Q 854.224088 304.81897 864.012761 304.81897 
z
" clip-path="url(#p30424e0edd)" style="fill: #f45b69"/>
   </g>
   <g id="patch_61">
    <path d="M 766.126035 304.81897 
L 756.95265 304.81897 
Q 766.741323 304.81897 766.741323 304.59566 
L 766.741323 264.864329 
Q 766.741323 264.641019 756.95265 264.641019 
L 766.126035 264.641019 
Q 756.337362 264.641019 756.337362 264.864329 
L 756.337362 304.59566 
Q 756.337362 304.81897 766.126035 304.81897 
z
" clip-path="url(#p30424e0edd)" style="fill: #f45b69"/>
   </g>
   <g id="patch_62">
    <path d="M 668.239309 304.81897 
L 659.065925 304.81897 
Q 668.854597 304.81897 668.854597 304.59566 
L 668.854597 265.422604 
Q 668.854597 265.199294 659.065925 265.199294 
L 668.239309 265.199294 
Q 658.450637 265.199294 658.450637 265.422604 
L 658.450637 304.59566 
Q 658.450637 304.81897 668.239309 304.81897 
z
" clip-path="url(#p30424e0edd)" style="fill: #f45b69"/>
   </g>
   <g id="patch_63">
    <path d="M 570.352584 304.81897 
L 561.179199 304.81897 
Q 570.967872 304.81897 570.967872 304.59566 
L 570.967872 273.796732 
Q 570.967872 273.573422 561.179199 273.573422 
L 570.352584 273.573422 
Q 560.563911 273.573422 560.563911 273.796732 
L 560.563911 304.59566 
Q 560.563911 304.81897 570.352584 304.81897 
z
" clip-path="url(#p30424e0edd)" style="fill: #f45b69"/>
   </g>
   <g id="patch_64">
    <path d="M 472.465858 304.81897 
L 463.292473 304.81897 
Q 473.081146 304.81897 473.081146 304.59566 
L 473.081146 265.980879 
Q 473.081146 265.757569 463.292473 265.757569 
L 472.465858 265.757569 
Q 462.677185 265.757569 462.677185 265.980879 
L 462.677185 304.59566 
Q 462.677185 304.81897 472.465858 304.81897 
z
" clip-path="url(#p30424e0edd)" style="fill: #f45b69"/>
   </g>
   <g id="patch_65">
    <path d="M 374.579132 304.81897 
L 365.405748 304.81897 
Q 375.19442 304.81897 375.19442 304.59566 
L 375.19442 272.121907 
Q 375.19442 271.898597 365.405748 271.898597 
L 374.579132 271.898597 
Q 364.79046 271.898597 364.79046 272.121907 
L 364.79046 304.59566 
Q 364.79046 304.81897 374.579132 304.81897 
z
" clip-path="url(#p30424e0edd)" style="fill: #f45b69"/>
   </g>
   <g id="patch_66">
    <path d="M 276.692407 304.81897 
L 267.519022 304.81897 
Q 277.307695 304.81897 277.307695 304.59566 
L 277.307695 244.766421 
Q 277.307695 244.543111 267.519022 244.543111 
L 276.692407 244.543111 
Q 266.903734 244.543111 266.903734 244.766421 
L 266.903734 304.59566 
Q 266.903734 304.81897 276.692407 304.81897 
z
" clip-path="url(#p30424e0edd)" style="fill: #f45b69"/>
   </g>
   <g id="patch_67">
    <path d="M 178.805681 304.81897 
L 169.632296 304.81897 
Q 179.420969 304.81897 179.420969 304.59566 
L 179.420969 287.195338 
Q 179.420969 286.972028 169.632296 286.972028 
L 178.805681 286.972028 
Q 169.017008 286.972028 169.017008 287.195338 
L 169.017008 304.59566 
Q 169.017008 304.81897 178.805681 304.81897 
z
" clip-path="url(#p30424e0edd)" style="fill: #f45b69"/>
   </g>
   <g id="patch_68">
    <path d="M 80.918955 304.81897 
L 71.745571 304.81897 
Q 81.534243 304.81897 81.534243 304.59566 
L 81.534243 263.189503 
Q 81.534243 262.966193 71.745571 262.966193 
L 80.918955 262.966193 
Q 71.130283 262.966193 71.130283 263.189503 
L 71.130283 304.59566 
Q 71.130283 304.81897 80.918955 304.81897 
z
" clip-path="url(#p30424e0edd)" style="fill: #f45b69"/>
   </g>
   <g id="patch_69">
    <path d="M 1048.599158 304.81897 
L 1039.425773 304.81897 
Q 1049.214446 304.81897 1049.214446 304.59566 
L 1049.214446 81.750055 
Q 1049.214446 81.526745 1039.425773 81.526745 
L 1048.599158 81.526745 
Q 1038.810485 81.526745 1038.810485 81.750055 
L 1038.810485 304.59566 
Q 1038.810485 304.81897 1048.599158 304.81897 
z
" clip-path="url(#p30424e0edd)" style="fill: #59c3c3"/>
   </g>
   <g id="patch_70">
    <path d="M 950.712432 304.81897 
L 941.539047 304.81897 
Q 951.32772 304.81897 951.32772 304.59566 
L 951.32772 88.449357 
Q 951.32772 88.226047 941.539047 88.226047 
L 950.712432 88.226047 
Q 940.923759 88.226047 940.923759 88.449357 
L 940.923759 304.59566 
Q 940.923759 304.81897 950.712432 304.81897 
z
" clip-path="url(#p30424e0edd)" style="fill: #59c3c3"/>
   </g>
   <g id="patch_71">
    <path d="M 852.825706 304.81897 
L 843.652322 304.81897 
Q 853.440994 304.81897 853.440994 304.59566 
L 853.440994 66.118348 
Q 853.440994 65.895038 843.652322 65.895038 
L 852.825706 65.895038 
Q 843.037034 65.895038 843.037034 66.118348 
L 843.037034 304.59566 
Q 843.037034 304.81897 852.825706 304.81897 
z
" clip-path="url(#p30424e0edd)" style="fill: #59c3c3"/>
   </g>
   <g id="patch_72">
    <path d="M 754.938981 304.81897 
L 745.765596 304.81897 
Q 755.554269 304.81897 755.554269 304.59566 
L 755.554269 34.854936 
Q 755.554269 34.631626 745.765596 34.631626 
L 754.938981 34.631626 
Q 745.150308 34.631626 745.150308 34.854936 
L 745.150308 304.59566 
Q 745.150308 304.81897 754.938981 304.81897 
z
" clip-path="url(#p30424e0edd)" style="fill: #59c3c3"/>
   </g>
   <g id="patch_73">
    <path d="M 657.052255 304.81897 
L 647.87887 304.81897 
Q 657.667543 304.81897 657.667543 304.59566 
L 657.667543 87.332807 
Q 657.667543 87.109497 647.87887 87.109497 
L 657.052255 87.109497 
Q 647.263582 87.109497 647.263582 87.332807 
L 647.263582 304.59566 
Q 647.263582 304.81897 657.052255 304.81897 
z
" clip-path="url(#p30424e0edd)" style="fill: #59c3c3"/>
   </g>
   <g id="patch_74">
    <path d="M 559.165529 304.81897 
L 549.992145 304.81897 
Q 559.780817 304.81897 559.780817 304.59566 
L 559.780817 75.050752 
Q 559.780817 74.827442 549.992145 74.827442 
L 559.165529 74.827442 
Q 549.376857 74.827442 549.376857 75.050752 
L 549.376857 304.59566 
Q 549.376857 304.81897 559.165529 304.81897 
z
" clip-path="url(#p30424e0edd)" style="fill: #59c3c3"/>
   </g>
   <g id="patch_75">
    <path d="M 461.278804 304.81897 
L 452.105419 304.81897 
Q 461.894092 304.81897 461.894092 304.59566 
L 461.894092 111.896917 
Q 461.894092 111.673607 452.105419 111.673607 
L 461.278804 111.673607 
Q 451.490131 111.673607 451.490131 111.896917 
L 451.490131 304.59566 
Q 451.490131 304.81897 461.278804 304.81897 
z
" clip-path="url(#p30424e0edd)" style="fill: #59c3c3"/>
   </g>
   <g id="patch_76">
    <path d="M 363.392078 304.81897 
L 354.218693 304.81897 
Q 364.007366 304.81897 364.007366 304.59566 
L 364.007366 122.504146 
Q 364.007366 122.280836 354.218693 122.280836 
L 363.392078 122.280836 
Q 353.603405 122.280836 353.603405 122.504146 
L 353.603405 304.59566 
Q 353.603405 304.81897 363.392078 304.81897 
z
" clip-path="url(#p30424e0edd)" style="fill: #59c3c3"/>
   </g>
   <g id="patch_77">
    <path d="M 265.505352 304.81897 
L 256.331968 304.81897 
Q 266.12064 304.81897 266.12064 304.59566 
L 266.12064 28.713908 
Q 266.12064 28.490598 256.331968 28.490598 
L 265.505352 28.490598 
Q 255.71668 28.490598 255.71668 28.713908 
L 255.71668 304.59566 
Q 255.71668 304.81897 265.505352 304.81897 
z
" clip-path="url(#p30424e0edd)" style="fill: #59c3c3"/>
   </g>
   <g id="patch_78">
    <path d="M 167.618627 304.81897 
L 158.445242 304.81897 
Q 168.233915 304.81897 168.233915 304.59566 
L 168.233915 147.626531 
Q 168.233915 147.403221 158.445242 147.403221 
L 167.618627 147.403221 
Q 157.829954 147.403221 157.829954 147.626531 
L 157.829954 304.59566 
Q 157.829954 304.81897 167.618627 304.81897 
z
" clip-path="url(#p30424e0edd)" style="fill: #59c3c3"/>
   </g>
   <g id="patch_79">
    <path d="M 69.731901 304.81897 
L 60.558516 304.81897 
Q 70.347189 304.81897 70.347189 304.59566 
L 70.347189 187.822348 
Q 70.347189 187.599038 60.558516 187.599038 
L 69.731901 187.599038 
Q 59.943228 187.599038 59.943228 187.822348 
L 59.943228 304.59566 
Q 59.943228 304.81897 69.731901 304.81897 
z
" clip-path="url(#p30424e0edd)" style="fill: #59c3c3"/>
   </g>
   <g id="line2d_24">
    <path d="M 147.649735 304.827903 
L 147.649735 14.664354 
" clip-path="url(#p30424e0edd)" style="fill: none; stroke-dasharray: 1.48,0.64; stroke-dashoffset: 0; stroke: #808080; stroke-width: 0.4"/>
    <defs>
     <path id="ma1beefb1ef" d="M 0 0.00005 
C 0.000013 0.00005 0.000026 0.000045 0.000035 0.000035 
C 0.000045 0.000026 0.00005 0.000013 0.00005 0 
C 0.00005 -0.000013 0.000045 -0.000026 0.000035 -0.000035 
C 0.000026 -0.000045 0.000013 -0.00005 0 -0.00005 
C -0.000013 -0.00005 -0.000026 -0.000045 -0.000035 -0.000035 
C -0.000045 -0.000026 -0.00005 -0.000013 -0.00005 0 
C -0.00005 0.000013 -0.000045 0.000026 -0.000035 0.000035 
C -0.000026 0.000045 -0.000013 0.00005 0 0.00005 
z
" style="stroke: #808080"/>
    </defs>
    <g clip-path="url(#p30424e0edd)">
     <use xlink:href="#ma1beefb1ef" x="147.649735" y="304.827903" style="fill: #808080; stroke: #808080"/>
     <use xlink:href="#ma1beefb1ef" x="147.649735" y="14.664354" style="fill: #808080; stroke: #808080"/>
    </g>
   </g>
   <g id="line2d_25">
    <path d="M 245.53646 304.827903 
L 245.53646 14.664354 
" clip-path="url(#p30424e0edd)" style="fill: none; stroke-dasharray: 1.48,0.64; stroke-dashoffset: 0; stroke: #808080; stroke-width: 0.4"/>
    <g clip-path="url(#p30424e0edd)">
     <use xlink:href="#ma1beefb1ef" x="245.53646" y="304.827903" style="fill: #808080; stroke: #808080"/>
     <use xlink:href="#ma1beefb1ef" x="245.53646" y="14.664354" style="fill: #808080; stroke: #808080"/>
    </g>
   </g>
   <g id="line2d_26">
    <path d="M 343.423186 304.827903 
L 343.423186 14.664354 
" clip-path="url(#p30424e0edd)" style="fill: none; stroke-dasharray: 1.48,0.64; stroke-dashoffset: 0; stroke: #808080; stroke-width: 0.4"/>
    <g clip-path="url(#p30424e0edd)">
     <use xlink:href="#ma1beefb1ef" x="343.423186" y="304.827903" style="fill: #808080; stroke: #808080"/>
     <use xlink:href="#ma1beefb1ef" x="343.423186" y="14.664354" style="fill: #808080; stroke: #808080"/>
    </g>
   </g>
   <g id="line2d_27">
    <path d="M 441.309912 304.827903 
L 441.309912 14.664354 
" clip-path="url(#p30424e0edd)" style="fill: none; stroke-dasharray: 1.48,0.64; stroke-dashoffset: 0; stroke: #808080; stroke-width: 0.4"/>
    <g clip-path="url(#p30424e0edd)">
     <use xlink:href="#ma1beefb1ef" x="441.309912" y="304.827903" style="fill: #808080; stroke: #808080"/>
     <use xlink:href="#ma1beefb1ef" x="441.309912" y="14.664354" style="fill: #808080; stroke: #808080"/>
    </g>
   </g>
   <g id="line2d_28">
    <path d="M 539.196637 304.827903 
L 539.196637 14.664354 
" clip-path="url(#p30424e0edd)" style="fill: none; stroke-dasharray: 1.48,0.64; stroke-dashoffset: 0; stroke: #808080; stroke-width: 0.4"/>
    <g clip-path="url(#p30424e0edd)">
     <use xlink:href="#ma1beefb1ef" x="539.196637" y="304.827903" style="fill: #808080; stroke: #808080"/>
     <use xlink:href="#ma1beefb1ef" x="539.196637" y="14.664354" style="fill: #808080; stroke: #808080"/>
    </g>
   </g>
   <g id="line2d_29">
    <path d="M 637.083363 304.827903 
L 637.083363 14.664354 
" clip-path="url(#p30424e0edd)" style="fill: none; stroke-dasharray: 1.48,0.64; stroke-dashoffset: 0; stroke: #808080; stroke-width: 0.4"/>
    <g clip-path="url(#p30424e0edd)">
     <use xlink:href="#ma1beefb1ef" x="637.083363" y="304.827903" style="fill: #808080; stroke: #808080"/>
     <use xlink:href="#ma1beefb1ef" x="637.083363" y="14.664354" style="fill: #808080; stroke: #808080"/>
    </g>
   </g>
   <g id="line2d_30">
    <path d="M 734.970088 304.827903 
L 734.970088 14.664354 
" clip-path="url(#p30424e0edd)" style="fill: none; stroke-dasharray: 1.48,0.64; stroke-dashoffset: 0; stroke: #808080; stroke-width: 0.4"/>
    <g clip-path="url(#p30424e0edd)">
     <use xlink:href="#ma1beefb1ef" x="734.970088" y="304.827903" style="fill: #808080; stroke: #808080"/>
     <use xlink:href="#ma1beefb1ef" x="734.970088" y="14.664354" style="fill: #808080; stroke: #808080"/>
    </g>
   </g>
   <g id="line2d_31">
    <path d="M 832.856814 304.827903 
L 832.856814 14.664354 
" clip-path="url(#p30424e0edd)" style="fill: none; stroke-dasharray: 1.48,0.64; stroke-dashoffset: 0; stroke: #808080; stroke-width: 0.4"/>
    <g clip-path="url(#p30424e0edd)">
     <use xlink:href="#ma1beefb1ef" x="832.856814" y="304.827903" style="fill: #808080; stroke: #808080"/>
     <use xlink:href="#ma1beefb1ef" x="832.856814" y="14.664354" style="fill: #808080; stroke: #808080"/>
    </g>
   </g>
   <g id="line2d_32">
    <path d="M 930.74354 304.827903 
L 930.74354 14.664354 
" clip-path="url(#p30424e0edd)" style="fill: none; stroke-dasharray: 1.48,0.64; stroke-dashoffset: 0; stroke: #808080; stroke-width: 0.4"/>
    <g clip-path="url(#p30424e0edd)">
     <use xlink:href="#ma1beefb1ef" x="930.74354" y="304.827903" style="fill: #808080; stroke: #808080"/>
     <use xlink:href="#ma1beefb1ef" x="930.74354" y="14.664354" style="fill: #808080; stroke: #808080"/>
    </g>
   </g>
   <g id="line2d_33">
    <path d="M 1028.630265 304.827903 
L 1028.630265 14.664354 
" clip-path="url(#p30424e0edd)" style="fill: none; stroke-dasharray: 1.48,0.64; stroke-dashoffset: 0; stroke: #808080; stroke-width: 0.4"/>
    <g clip-path="url(#p30424e0edd)">
     <use xlink:href="#ma1beefb1ef" x="1028.630265" y="304.827903" style="fill: #808080; stroke: #808080"/>
     <use xlink:href="#ma1beefb1ef" x="1028.630265" y="14.664354" style="fill: #808080; stroke: #808080"/>
    </g>
   </g>
   <g id="patch_80">
    <path d="M 35.08 304.827903 
L 35.08 14.664354 
" style="fill: none; stroke: #000000; stroke-width: 0.8; stroke-linejoin: miter; stroke-linecap: square"/>
   </g>
   <g id="patch_81">
    <path d="M 35.08 304.827903 
L 1141.2 304.827903 
" style="fill: none; stroke: #000000; stroke-width: 0.8; stroke-linejoin: miter; stroke-linecap: square"/>
   </g>
   <g id="text_19">
    <!-- 210 -->
    <g style="fill: #37539c" transform="translate(62.186188 183.400619) rotate(-45) scale(0.07 -0.07)">
     <use xlink:href="#OpenSans-Bold-32"/>
     <use xlink:href="#OpenSans-Bold-31" x="57.177734"/>
     <use xlink:href="#OpenSans-Bold-30" x="114.355469"/>
    </g>
   </g>
   <g id="text_20">
    <!-- 282 -->
    <g style="fill: #37539c" transform="translate(160.072913 143.204803) rotate(-45) scale(0.07 -0.07)">
     <use xlink:href="#OpenSans-Bold-32"/>
     <use xlink:href="#OpenSans-Bold-38" x="57.177734"/>
     <use xlink:href="#OpenSans-Bold-32" x="114.355469"/>
    </g>
   </g>
   <g id="text_21">
    <!-- 495 -->
    <g style="fill: #37539c" transform="translate(257.959639 24.29218) rotate(-45) scale(0.07 -0.07)">
     <use xlink:href="#OpenSans-Bold-34"/>
     <use xlink:href="#OpenSans-Bold-39" x="57.177734"/>
     <use xlink:href="#OpenSans-Bold-35" x="114.355469"/>
    </g>
   </g>
   <g id="text_22">
    <!-- 327 -->
    <g style="fill: #37539c" transform="translate(355.846365 118.082418) rotate(-45) scale(0.07 -0.07)">
     <use xlink:href="#OpenSans-Bold-33"/>
     <use xlink:href="#OpenSans-Bold-32" x="57.177734"/>
     <use xlink:href="#OpenSans-Bold-37" x="114.355469"/>
    </g>
   </g>
   <g id="text_23">
    <!-- 346 -->
    <g style="fill: #37539c" transform="translate(453.73309 107.475188) rotate(-45) scale(0.07 -0.07)">
     <use xlink:href="#OpenSans-Bold-33"/>
     <use xlink:href="#OpenSans-Bold-34" x="57.177734"/>
     <use xlink:href="#OpenSans-Bold-36" x="114.355469"/>
    </g>
   </g>
   <g id="text_24">
    <!-- 412 -->
    <g style="fill: #37539c" transform="translate(551.619816 70.629023) rotate(-45) scale(0.07 -0.07)">
     <use xlink:href="#OpenSans-Bold-34"/>
     <use xlink:href="#OpenSans-Bold-31" x="57.177734"/>
     <use xlink:href="#OpenSans-Bold-32" x="114.355469"/>
    </g>
   </g>
   <g id="text_25">
    <!-- 390 -->
    <g style="fill: #37539c" transform="translate(649.506542 82.911078) rotate(-45) scale(0.07 -0.07)">
     <use xlink:href="#OpenSans-Bold-33"/>
     <use xlink:href="#OpenSans-Bold-39" x="57.177734"/>
     <use xlink:href="#OpenSans-Bold-30" x="114.355469"/>
    </g>
   </g>
   <g id="text_26">
    <!-- 484 -->
    <g style="fill: #37539c" transform="translate(747.393267 30.433207) rotate(-45) scale(0.07 -0.07)">
     <use xlink:href="#OpenSans-Bold-34"/>
     <use xlink:href="#OpenSans-Bold-38" x="57.177734"/>
     <use xlink:href="#OpenSans-Bold-34" x="114.355469"/>
    </g>
   </g>
   <g id="text_27">
    <!-- 428 -->
    <g style="fill: #37539c" transform="translate(845.279993 61.69662) rotate(-45) scale(0.07 -0.07)">
     <use xlink:href="#OpenSans-Bold-34"/>
     <use xlink:href="#OpenSans-Bold-32" x="57.177734"/>
     <use xlink:href="#OpenSans-Bold-38" x="114.355469"/>
    </g>
   </g>
   <g id="text_28">
    <!-- 388 -->
    <g style="fill: #37539c" transform="translate(943.166719 84.027629) rotate(-45) scale(0.07 -0.07)">
     <use xlink:href="#OpenSans-Bold-33"/>
     <use xlink:href="#OpenSans-Bold-38" x="57.177734"/>
     <use xlink:href="#OpenSans-Bold-38" x="114.355469"/>
    </g>
   </g>
   <g id="text_29">
    <!-- 400 -->
    <g style="fill: #37539c" transform="translate(1041.053444 77.328326) rotate(-45) scale(0.07 -0.07)">
     <use xlink:href="#OpenSans-Bold-34"/>
     <use xlink:href="#OpenSans-Bold-30" x="57.177734"/>
     <use xlink:href="#OpenSans-Bold-30" x="114.355469"/>
    </g>
   </g>
   <g id="text_30">
    <!-- 75 -->
    <g style="fill: #37539c" transform="translate(74.788174 258.767774) rotate(-45) scale(0.07 -0.07)">
     <use xlink:href="#OpenSans-Bold-37"/>
     <use xlink:href="#OpenSans-Bold-35" x="57.177734"/>
    </g>
   </g>
   <g id="text_31">
    <!-- 32 -->
    <g style="fill: #37539c" transform="translate(172.674899 282.773609) rotate(-45) scale(0.07 -0.07)">
     <use xlink:href="#OpenSans-Bold-33"/>
     <use xlink:href="#OpenSans-Bold-32" x="57.177734"/>
    </g>
   </g>
   <g id="text_32">
    <!-- 108 -->
    <g style="fill: #37539c" transform="translate(269.146693 240.344692) rotate(-45) scale(0.07 -0.07)">
     <use xlink:href="#OpenSans-Bold-31"/>
     <use xlink:href="#OpenSans-Bold-30" x="57.177734"/>
     <use xlink:href="#OpenSans-Bold-38" x="114.355469"/>
    </g>
   </g>
   <g id="text_33">
    <!-- 59 -->
    <g style="fill: #37539c" transform="translate(368.448351 267.700178) rotate(-45) scale(0.07 -0.07)">
     <use xlink:href="#OpenSans-Bold-35"/>
     <use xlink:href="#OpenSans-Bold-39" x="57.177734"/>
    </g>
   </g>
   <g id="text_34">
    <!-- 70 -->
    <g style="fill: #37539c" transform="translate(466.335076 261.559151) rotate(-45) scale(0.07 -0.07)">
     <use xlink:href="#OpenSans-Bold-37"/>
     <use xlink:href="#OpenSans-Bold-30" x="57.177734"/>
    </g>
   </g>
   <g id="text_35">
    <!-- 56 -->
    <g style="fill: #37539c" transform="translate(564.221802 269.375004) rotate(-45) scale(0.07 -0.07)">
     <use xlink:href="#OpenSans-Bold-35"/>
     <use xlink:href="#OpenSans-Bold-36" x="57.177734"/>
    </g>
   </g>
   <g id="text_36">
    <!-- 71 -->
    <g style="fill: #37539c" transform="translate(662.108528 261.000875) rotate(-45) scale(0.07 -0.07)">
     <use xlink:href="#OpenSans-Bold-37"/>
     <use xlink:href="#OpenSans-Bold-31" x="57.177734"/>
    </g>
   </g>
   <g id="text_37">
    <!-- 72 -->
    <g style="fill: #37539c" transform="translate(759.995253 260.4426) rotate(-45) scale(0.07 -0.07)">
     <use xlink:href="#OpenSans-Bold-37"/>
     <use xlink:href="#OpenSans-Bold-32" x="57.177734"/>
    </g>
   </g>
   <g id="text_38">
    <!-- 64 -->
    <g style="fill: #37539c" transform="translate(857.881979 264.908802) rotate(-45) scale(0.07 -0.07)">
     <use xlink:href="#OpenSans-Bold-36"/>
     <use xlink:href="#OpenSans-Bold-34" x="57.177734"/>
    </g>
   </g>
   <g id="text_39">
    <!-- 101 -->
    <g style="fill: #37539c" transform="translate(954.353773 244.252619) rotate(-45) scale(0.07 -0.07)">
     <use xlink:href="#OpenSans-Bold-31"/>
     <use xlink:href="#OpenSans-Bold-30" x="57.177734"/>
     <use xlink:href="#OpenSans-Bold-31" x="114.355469"/>
    </g>
   </g>
   <g id="text_40">
    <!-- 41 -->
    <g style="fill: #37539c" transform="translate(1053.65543 277.749132) rotate(-45) scale(0.07 -0.07)">
     <use xlink:href="#OpenSans-Bold-34"/>
     <use xlink:href="#OpenSans-Bold-31" x="57.177734"/>
    </g>
   </g>
   <g id="text_41">
    <!-- 3 -->
    <g style="fill: #37539c" transform="translate(87.39016 298.963591) rotate(-45) scale(0.07 -0.07)">
     <use xlink:href="#OpenSans-Bold-33"/>
    </g>
   </g>
   <g id="text_42">
    <!-- 5 -->
    <g style="fill: #37539c" transform="translate(185.276886 297.84704) rotate(-45) scale(0.07 -0.07)">
     <use xlink:href="#OpenSans-Bold-35"/>
    </g>
   </g>
   <g id="text_43">
    <!-- 5 -->
    <g style="fill: #37539c" transform="translate(283.163611 297.84704) rotate(-45) scale(0.07 -0.07)">
     <use xlink:href="#OpenSans-Bold-35"/>
    </g>
   </g>
   <g id="text_44">
    <!-- 1 -->
    <g style="fill: #37539c" transform="translate(381.050337 300.080141) rotate(-45) scale(0.07 -0.07)">
     <use xlink:href="#OpenSans-Bold-31"/>
    </g>
   </g>
   <g id="text_45">
    <!-- 4 -->
    <g style="fill: #37539c" transform="translate(478.937063 298.405316) rotate(-45) scale(0.07 -0.07)">
     <use xlink:href="#OpenSans-Bold-34"/>
    </g>
   </g>
   <g id="text_46">
    <!-- 8 -->
    <g style="fill: #37539c" transform="translate(576.823788 296.172215) rotate(-45) scale(0.07 -0.07)">
     <use xlink:href="#OpenSans-Bold-38"/>
    </g>
   </g>
   <g id="text_47">
    <!-- 7 -->
    <g style="fill: #37539c" transform="translate(674.710514 296.73049) rotate(-45) scale(0.07 -0.07)">
     <use xlink:href="#OpenSans-Bold-37"/>
    </g>
   </g>
   <g id="text_48">
    <!-- 6 -->
    <g style="fill: #37539c" transform="translate(772.597239 297.288765) rotate(-45) scale(0.07 -0.07)">
     <use xlink:href="#OpenSans-Bold-36"/>
    </g>
   </g>
   <g id="text_49">
    <!-- 4 -->
    <g style="fill: #37539c" transform="translate(870.483965 298.405316) rotate(-45) scale(0.07 -0.07)">
     <use xlink:href="#OpenSans-Bold-34"/>
    </g>
   </g>
   <g id="text_50">
    <!-- 2 -->
    <g style="fill: #37539c" transform="translate(968.370691 299.521866) rotate(-45) scale(0.07 -0.07)">
     <use xlink:href="#OpenSans-Bold-32"/>
    </g>
   </g>
   <g id="text_51">
    <!-- 1 -->
    <g style="fill: #37539c" transform="translate(1066.257416 300.080141) rotate(-45) scale(0.07 -0.07)">
     <use xlink:href="#OpenSans-Bold-31"/>
    </g>
   </g>
   <g id="text_52">
    <!-- 0 -->
    <g style="fill: #37539c" transform="translate(98.577214 300.638416) rotate(-45) scale(0.07 -0.07)">
     <use xlink:href="#OpenSans-Bold-30"/>
    </g>
   </g>
   <g id="text_53">
    <!-- 6 -->
    <g style="fill: #37539c" transform="translate(196.46394 297.288765) rotate(-45) scale(0.07 -0.07)">
     <use xlink:href="#OpenSans-Bold-36"/>
    </g>
   </g>
   <g id="text_54">
    <!-- 14 -->
    <g style="fill: #37539c" transform="translate(292.935734 292.822563) rotate(-45) scale(0.07 -0.07)">
     <use xlink:href="#OpenSans-Bold-31"/>
     <use xlink:href="#OpenSans-Bold-34" x="57.177734"/>
    </g>
   </g>
   <g id="text_55">
    <!-- 20 -->
    <g style="fill: #37539c" transform="translate(390.822459 289.472912) rotate(-45) scale(0.07 -0.07)">
     <use xlink:href="#OpenSans-Bold-32"/>
     <use xlink:href="#OpenSans-Bold-30" x="57.177734"/>
    </g>
   </g>
   <g id="text_56">
    <!-- 7 -->
    <g style="fill: #37539c" transform="translate(490.124117 296.73049) rotate(-45) scale(0.07 -0.07)">
     <use xlink:href="#OpenSans-Bold-37"/>
    </g>
   </g>
   <g id="text_57">
    <!-- 22 -->
    <g style="fill: #37539c" transform="translate(586.595911 288.356361) rotate(-45) scale(0.07 -0.07)">
     <use xlink:href="#OpenSans-Bold-32"/>
     <use xlink:href="#OpenSans-Bold-32" x="57.177734"/>
    </g>
   </g>
   <g id="text_58">
    <!-- 23 -->
    <g style="fill: #37539c" transform="translate(684.482636 287.798086) rotate(-45) scale(0.07 -0.07)">
     <use xlink:href="#OpenSans-Bold-32"/>
     <use xlink:href="#OpenSans-Bold-33" x="57.177734"/>
    </g>
   </g>
   <g id="text_59">
    <!-- 30 -->
    <g style="fill: #37539c" transform="translate(782.369362 283.89016) rotate(-45) scale(0.07 -0.07)">
     <use xlink:href="#OpenSans-Bold-33"/>
     <use xlink:href="#OpenSans-Bold-30" x="57.177734"/>
    </g>
   </g>
   <g id="text_60">
    <!-- 25 -->
    <g style="fill: #37539c" transform="translate(880.256088 286.681536) rotate(-45) scale(0.07 -0.07)">
     <use xlink:href="#OpenSans-Bold-32"/>
     <use xlink:href="#OpenSans-Bold-35" x="57.177734"/>
    </g>
   </g>
   <g id="text_61">
    <!-- 14 -->
    <g style="fill: #37539c" transform="translate(978.142813 292.822563) rotate(-45) scale(0.07 -0.07)">
     <use xlink:href="#OpenSans-Bold-31"/>
     <use xlink:href="#OpenSans-Bold-34" x="57.177734"/>
    </g>
   </g>
   <g id="text_62">
    <!-- 4 -->
    <g style="fill: #37539c" transform="translate(1077.444471 298.405316) rotate(-45) scale(0.07 -0.07)">
     <use xlink:href="#OpenSans-Bold-34"/>
    </g>
   </g>
   <g id="text_63">
    <!-- 2 -->
    <g style="fill: #37539c" transform="translate(109.764269 299.521866) rotate(-45) scale(0.07 -0.07)">
     <use xlink:href="#OpenSans-Bold-32"/>
    </g>
   </g>
   <g id="text_64">
    <!-- 2 -->
    <g style="fill: #37539c" transform="translate(207.650994 299.521866) rotate(-45) scale(0.07 -0.07)">
     <use xlink:href="#OpenSans-Bold-32"/>
    </g>
   </g>
   <g id="text_65">
    <!-- 1 -->
    <g style="fill: #37539c" transform="translate(305.53772 300.080141) rotate(-45) scale(0.07 -0.07)">
     <use xlink:href="#OpenSans-Bold-31"/>
    </g>
   </g>
   <g id="text_66">
    <!-- 2 -->
    <g style="fill: #37539c" transform="translate(403.424446 299.521866) rotate(-45) scale(0.07 -0.07)">
     <use xlink:href="#OpenSans-Bold-32"/>
    </g>
   </g>
   <g id="text_67">
    <!-- 2 -->
    <g style="fill: #37539c" transform="translate(501.311171 299.521866) rotate(-45) scale(0.07 -0.07)">
     <use xlink:href="#OpenSans-Bold-32"/>
    </g>
   </g>
   <g id="text_68">
    <!-- 3 -->
    <g style="fill: #37539c" transform="translate(599.197897 298.963591) rotate(-45) scale(0.07 -0.07)">
     <use xlink:href="#OpenSans-Bold-33"/>
    </g>
   </g>
   <g id="text_69">
    <!-- 5 -->
    <g style="fill: #37539c" transform="translate(697.084623 297.84704) rotate(-45) scale(0.07 -0.07)">
     <use xlink:href="#OpenSans-Bold-35"/>
    </g>
   </g>
   <g id="text_70">
    <!-- 3 -->
    <g style="fill: #37539c" transform="translate(794.971348 298.963591) rotate(-45) scale(0.07 -0.07)">
     <use xlink:href="#OpenSans-Bold-33"/>
    </g>
   </g>
   <g id="text_71">
    <!-- 4 -->
    <g style="fill: #37539c" transform="translate(892.858074 298.405316) rotate(-45) scale(0.07 -0.07)">
     <use xlink:href="#OpenSans-Bold-34"/>
    </g>
   </g>
   <g id="text_72">
    <!-- 11 -->
    <g style="fill: #37539c" transform="translate(989.329868 294.497389) rotate(-45) scale(0.07 -0.07)">
     <use xlink:href="#OpenSans-Bold-31"/>
     <use xlink:href="#OpenSans-Bold-31" x="57.177734"/>
    </g>
   </g>
   <g id="text_73">
    <!-- 2 -->
    <g style="fill: #37539c" transform="translate(1088.631525 299.521866) rotate(-45) scale(0.07 -0.07)">
     <use xlink:href="#OpenSans-Bold-32"/>
    </g>
   </g>
   <g id="text_74">
    <!-- 0 -->
    <g style="fill: #37539c" transform="translate(120.951323 300.638416) rotate(-45) scale(0.07 -0.07)">
     <use xlink:href="#OpenSans-Bold-30"/>
    </g>
   </g>
   <g id="text_75">
    <!-- 1 -->
    <g style="fill: #37539c" transform="translate(218.838049 300.080141) rotate(-45) scale(0.07 -0.07)">
     <use xlink:href="#OpenSans-Bold-31"/>
    </g>
   </g>
   <g id="text_76">
    <!-- 0 -->
    <g style="fill: #37539c" transform="translate(316.724774 300.638416) rotate(-45) scale(0.07 -0.07)">
     <use xlink:href="#OpenSans-Bold-30"/>
    </g>
   </g>
   <g id="text_77">
    <!-- 1 -->
    <g style="fill: #37539c" transform="translate(414.6115 300.080141) rotate(-45) scale(0.07 -0.07)">
     <use xlink:href="#OpenSans-Bold-31"/>
    </g>
   </g>
   <g id="text_78">
    <!-- 0 -->
    <g style="fill: #37539c" transform="translate(512.498226 300.638416) rotate(-45) scale(0.07 -0.07)">
     <use xlink:href="#OpenSans-Bold-30"/>
    </g>
   </g>
   <g id="text_79">
    <!-- 0 -->
    <g style="fill: #37539c" transform="translate(610.384951 300.638416) rotate(-45) scale(0.07 -0.07)">
     <use xlink:href="#OpenSans-Bold-30"/>
    </g>
   </g>
   <g id="text_80">
    <!-- 0 -->
    <g style="fill: #37539c" transform="translate(708.271677 300.638416) rotate(-45) scale(0.07 -0.07)">
     <use xlink:href="#OpenSans-Bold-30"/>
    </g>
   </g>
   <g id="text_81">
    <!-- 1 -->
    <g style="fill: #37539c" transform="translate(806.158403 300.080141) rotate(-45) scale(0.07 -0.07)">
     <use xlink:href="#OpenSans-Bold-31"/>
    </g>
   </g>
   <g id="text_82">
    <!-- 4 -->
    <g style="fill: #37539c" transform="translate(904.045128 298.405316) rotate(-45) scale(0.07 -0.07)">
     <use xlink:href="#OpenSans-Bold-34"/>
    </g>
   </g>
   <g id="text_83">
    <!-- 1 -->
    <g style="fill: #37539c" transform="translate(1001.931854 300.080141) rotate(-45) scale(0.07 -0.07)">
     <use xlink:href="#OpenSans-Bold-31"/>
    </g>
   </g>
   <g id="text_84">
    <!-- 0 -->
    <g style="fill: #37539c" transform="translate(1099.81858 300.638416) rotate(-45) scale(0.07 -0.07)">
     <use xlink:href="#OpenSans-Bold-30"/>
    </g>
   </g>
   <g id="text_85">
    <!-- 0 -->
    <g style="fill: #37539c" transform="translate(132.138377 300.638416) rotate(-45) scale(0.07 -0.07)">
     <use xlink:href="#OpenSans-Bold-30"/>
    </g>
   </g>
   <g id="text_86">
    <!-- 0 -->
    <g style="fill: #37539c" transform="translate(230.025103 300.638416) rotate(-45) scale(0.07 -0.07)">
     <use xlink:href="#OpenSans-Bold-30"/>
    </g>
   </g>
   <g id="text_87">
    <!-- 0 -->
    <g style="fill: #37539c" transform="translate(327.911829 300.638416) rotate(-45) scale(0.07 -0.07)">
     <use xlink:href="#OpenSans-Bold-30"/>
    </g>
   </g>
   <g id="text_88">
    <!-- 0 -->
    <g style="fill: #37539c" transform="translate(425.798554 300.638416) rotate(-45) scale(0.07 -0.07)">
     <use xlink:href="#OpenSans-Bold-30"/>
    </g>
   </g>
   <g id="text_89">
    <!-- 0 -->
    <g style="fill: #37539c" transform="translate(523.68528 300.638416) rotate(-45) scale(0.07 -0.07)">
     <use xlink:href="#OpenSans-Bold-30"/>
    </g>
   </g>
   <g id="text_90">
    <!-- 3 -->
    <g style="fill: #37539c" transform="translate(621.572006 298.963591) rotate(-45) scale(0.07 -0.07)">
     <use xlink:href="#OpenSans-Bold-33"/>
    </g>
   </g>
   <g id="text_91">
    <!-- 0 -->
    <g style="fill: #37539c" transform="translate(719.458731 300.638416) rotate(-45) scale(0.07 -0.07)">
     <use xlink:href="#OpenSans-Bold-30"/>
    </g>
   </g>
   <g id="text_92">
    <!-- 0 -->
    <g style="fill: #37539c" transform="translate(817.345457 300.638416) rotate(-45) scale(0.07 -0.07)">
     <use xlink:href="#OpenSans-Bold-30"/>
    </g>
   </g>
   <g id="text_93">
    <!-- 0 -->
    <g style="fill: #37539c" transform="translate(915.232183 300.638416) rotate(-45) scale(0.07 -0.07)">
     <use xlink:href="#OpenSans-Bold-30"/>
    </g>
   </g>
   <g id="text_94">
    <!-- 0 -->
    <g style="fill: #37539c" transform="translate(1013.118908 300.638416) rotate(-45) scale(0.07 -0.07)">
     <use xlink:href="#OpenSans-Bold-30"/>
    </g>
   </g>
   <g id="text_95">
    <!-- 0 -->
    <g style="fill: #37539c" transform="translate(1111.005634 300.638416) rotate(-45) scale(0.07 -0.07)">
     <use xlink:href="#OpenSans-Bold-30"/>
    </g>
   </g>
   <g id="legend_1">
    <g id="patch_82">
     <path d="M 42.08 150.792791 
L 153.012813 150.792791 
Q 155.012813 150.792791 155.012813 148.792791 
L 155.012813 21.664354 
Q 155.012813 19.664354 153.012813 19.664354 
L 42.08 19.664354 
Q 40.08 19.664354 40.08 21.664354 
L 40.08 148.792791 
Q 40.08 150.792791 42.08 150.792791 
z
" style="fill: #ffffff; opacity: 0.8; stroke: #cccccc; stroke-linejoin: miter"/>
    </g>
    <g id="patch_83">
     <path d="M 44.08 31.262791 
L 64.08 31.262791 
L 64.08 24.262791 
L 44.08 24.262791 
z
" style="fill: #59c3c3"/>
    </g>
    <g id="text_96">
     <!-- Educacional -->
     <g style="fill: #37539c" transform="translate(72.08 31.262791) scale(0.1 -0.1)">
      <defs>
       <path id="OpenSans-Bold-45" d="M 3206 0 
L 575 0 
L 575 4569 
L 3206 4569 
L 3206 3775 
L 1544 3775 
L 1544 2772 
L 3091 2772 
L 3091 1978 
L 1544 1978 
L 1544 800 
L 3206 800 
L 3206 0 
z
" transform="scale(0.015625)"/>
       <path id="OpenSans-Bold-64" d="M 1606 -63 
Q 1022 -63 655 395 
Q 288 853 288 1741 
Q 288 2638 659 3098 
Q 1031 3559 1631 3559 
Q 1881 3559 2072 3490 
Q 2263 3422 2402 3306 
Q 2541 3191 2638 3047 
L 2669 3047 
Q 2650 3147 2623 3342 
Q 2597 3538 2597 3744 
L 2597 4863 
L 3553 4863 
L 3553 0 
L 2822 0 
L 2638 453 
L 2597 453 
Q 2506 309 2370 192 
Q 2234 75 2046 6 
Q 1859 -63 1606 -63 
z
M 1941 697 
Q 2331 697 2492 930 
Q 2653 1163 2663 1631 
L 2663 1734 
Q 2663 2244 2506 2514 
Q 2350 2784 1925 2784 
Q 1609 2784 1431 2512 
Q 1253 2241 1253 1728 
Q 1253 1216 1433 956 
Q 1613 697 1941 697 
z
" transform="scale(0.015625)"/>
       <path id="OpenSans-Bold-75" d="M 3706 3494 
L 3706 0 
L 2975 0 
L 2847 447 
L 2797 447 
Q 2684 269 2515 156 
Q 2347 44 2144 -9 
Q 1941 -63 1722 -63 
Q 1347 -63 1069 70 
Q 791 203 636 484 
Q 481 766 481 1216 
L 481 3494 
L 1434 3494 
L 1434 1453 
Q 1434 1078 1568 887 
Q 1703 697 1997 697 
Q 2288 697 2453 830 
Q 2619 963 2686 1220 
Q 2753 1478 2753 1850 
L 2753 3494 
L 3706 3494 
z
" transform="scale(0.015625)"/>
       <path id="OpenSans-Bold-63" d="M 1919 -63 
Q 1400 -63 1034 126 
Q 669 316 478 712 
Q 288 1109 288 1728 
Q 288 2369 505 2773 
Q 722 3178 1108 3368 
Q 1494 3559 2003 3559 
Q 2366 3559 2630 3489 
Q 2894 3419 3091 3322 
L 2809 2584 
Q 2584 2675 2390 2733 
Q 2197 2791 2003 2791 
Q 1753 2791 1587 2673 
Q 1422 2556 1340 2322 
Q 1259 2088 1259 1734 
Q 1259 1388 1346 1159 
Q 1434 931 1600 820 
Q 1766 709 2003 709 
Q 2300 709 2531 789 
Q 2763 869 2981 1013 
L 2981 197 
Q 2763 59 2523 -2 
Q 2284 -63 1919 -63 
z
" transform="scale(0.015625)"/>
       <path id="OpenSans-Bold-61" d="M 1931 3566 
Q 2634 3566 3009 3259 
Q 3384 2953 3384 2328 
L 3384 0 
L 2719 0 
L 2534 475 
L 2509 475 
Q 2359 288 2203 169 
Q 2047 50 1844 -6 
Q 1641 -63 1350 -63 
Q 1041 -63 795 56 
Q 550 175 409 420 
Q 269 666 269 1044 
Q 269 1600 659 1864 
Q 1050 2128 1831 2156 
L 2438 2175 
L 2438 2328 
Q 2438 2603 2294 2731 
Q 2150 2859 1894 2859 
Q 1641 2859 1397 2787 
Q 1153 2716 909 2606 
L 594 3250 
Q 872 3397 1217 3481 
Q 1563 3566 1931 3566 
z
M 2438 1619 
L 2069 1606 
Q 1606 1594 1426 1441 
Q 1247 1288 1247 1038 
Q 1247 819 1375 726 
Q 1503 634 1709 634 
Q 2016 634 2227 815 
Q 2438 997 2438 1331 
L 2438 1619 
z
" transform="scale(0.015625)"/>
       <path id="OpenSans-Bold-69" d="M 1453 3494 
L 1453 0 
L 500 0 
L 500 3494 
L 1453 3494 
z
M 978 4863 
Q 1191 4863 1344 4764 
Q 1497 4666 1497 4397 
Q 1497 4131 1344 4029 
Q 1191 3928 978 3928 
Q 763 3928 611 4029 
Q 459 4131 459 4397 
Q 459 4666 611 4764 
Q 763 4863 978 4863 
z
" transform="scale(0.015625)"/>
       <path id="OpenSans-Bold-6e" d="M 2484 3559 
Q 3044 3559 3384 3254 
Q 3725 2950 3725 2278 
L 3725 0 
L 2772 0 
L 2772 2041 
Q 2772 2416 2636 2606 
Q 2500 2797 2209 2797 
Q 1772 2797 1612 2500 
Q 1453 2203 1453 1644 
L 1453 0 
L 500 0 
L 500 3494 
L 1228 3494 
L 1356 3047 
L 1409 3047 
Q 1522 3228 1689 3340 
Q 1856 3453 2061 3506 
Q 2266 3559 2484 3559 
z
" transform="scale(0.015625)"/>
       <path id="OpenSans-Bold-6c" d="M 1453 0 
L 500 0 
L 500 4863 
L 1453 4863 
L 1453 0 
z
" transform="scale(0.015625)"/>
      </defs>
      <use xlink:href="#OpenSans-Bold-45"/>
      <use xlink:href="#OpenSans-Bold-64" x="56.005859"/>
      <use xlink:href="#OpenSans-Bold-75" x="119.287109"/>
      <use xlink:href="#OpenSans-Bold-63" x="185.009766"/>
      <use xlink:href="#OpenSans-Bold-61" x="236.425781"/>
      <use xlink:href="#OpenSans-Bold-63" x="296.826172"/>
      <use xlink:href="#OpenSans-Bold-69" x="348.242188"/>
      <use xlink:href="#OpenSans-Bold-6f" x="378.759766"/>
      <use xlink:href="#OpenSans-Bold-6e" x="440.673828"/>
      <use xlink:href="#OpenSans-Bold-61" x="506.396484"/>
      <use xlink:href="#OpenSans-Bold-6c" x="566.796875"/>
     </g>
    </g>
    <g id="patch_84">
     <path d="M 44.08 46.264354 
L 64.08 46.264354 
L 64.08 39.264354 
L 44.08 39.264354 
z
" style="fill: #f45b69"/>
    </g>
    <g id="text_97">
     <!-- Salud -->
     <g style="fill: #37539c" transform="translate(72.08 46.264354) scale(0.1 -0.1)">
      <defs>
       <path id="OpenSans-Bold-53" d="M 3272 1269 
Q 3272 863 3075 563 
Q 2878 263 2501 100 
Q 2125 -63 1588 -63 
Q 1350 -63 1123 -31 
Q 897 0 689 61 
Q 481 122 294 213 
L 294 1113 
Q 619 969 969 853 
Q 1319 738 1663 738 
Q 1900 738 2045 800 
Q 2191 863 2256 972 
Q 2322 1081 2322 1222 
Q 2322 1394 2206 1516 
Q 2091 1638 1889 1744 
Q 1688 1850 1434 1972 
Q 1275 2047 1087 2155 
Q 900 2263 731 2419 
Q 563 2575 455 2798 
Q 347 3022 347 3334 
Q 347 3744 534 4034 
Q 722 4325 1070 4479 
Q 1419 4634 1894 4634 
Q 2250 4634 2573 4551 
Q 2897 4469 3250 4313 
L 2938 3559 
Q 2622 3688 2372 3758 
Q 2122 3828 1863 3828 
Q 1681 3828 1553 3770 
Q 1425 3713 1359 3608 
Q 1294 3503 1294 3366 
Q 1294 3203 1389 3092 
Q 1484 2981 1676 2878 
Q 1869 2775 2156 2638 
Q 2506 2472 2754 2292 
Q 3003 2113 3137 1870 
Q 3272 1628 3272 1269 
z
" transform="scale(0.015625)"/>
      </defs>
      <use xlink:href="#OpenSans-Bold-53"/>
      <use xlink:href="#OpenSans-Bold-61" x="55.078125"/>
      <use xlink:href="#OpenSans-Bold-6c" x="115.478516"/>
      <use xlink:href="#OpenSans-Bold-75" x="145.996094"/>
      <use xlink:href="#OpenSans-Bold-64" x="211.71875"/>
     </g>
    </g>
    <g id="patch_85">
     <path d="M 44.08 68.228104 
L 64.08 68.228104 
L 64.08 61.228104 
L 44.08 61.228104 
z
" style="fill: #37539c"/>
    </g>
    <g id="text_98">
     <!-- Sin fines de -->
     <g style="fill: #37539c" transform="translate(72.08 61.265916) scale(0.1 -0.1)">
      <defs>
       <path id="OpenSans-Bold-20" transform="scale(0.015625)"/>
       <path id="OpenSans-Bold-66" d="M 2431 2778 
L 1606 2778 
L 1606 0 
L 653 0 
L 653 2778 
L 128 2778 
L 128 3238 
L 653 3494 
L 653 3750 
Q 653 4197 804 4445 
Q 956 4694 1232 4795 
Q 1509 4897 1888 4897 
Q 2166 4897 2394 4851 
Q 2622 4806 2766 4750 
L 2522 4050 
Q 2413 4084 2284 4112 
Q 2156 4141 1991 4141 
Q 1791 4141 1698 4020 
Q 1606 3900 1606 3713 
L 1606 3494 
L 2431 3494 
L 2431 2778 
z
" transform="scale(0.015625)"/>
       <path id="OpenSans-Bold-65" d="M 1941 3559 
Q 2425 3559 2775 3373 
Q 3125 3188 3315 2834 
Q 3506 2481 3506 1972 
L 3506 1509 
L 1253 1509 
Q 1269 1106 1495 876 
Q 1722 647 2125 647 
Q 2459 647 2737 715 
Q 3016 784 3309 922 
L 3309 184 
Q 3050 56 2767 -3 
Q 2484 -63 2081 -63 
Q 1556 -63 1151 131 
Q 747 325 517 722 
Q 288 1119 288 1722 
Q 288 2334 495 2742 
Q 703 3150 1075 3354 
Q 1447 3559 1941 3559 
z
M 1947 2881 
Q 1669 2881 1486 2703 
Q 1303 2525 1275 2144 
L 2613 2144 
Q 2609 2356 2536 2522 
Q 2463 2688 2317 2784 
Q 2172 2881 1947 2881 
z
" transform="scale(0.015625)"/>
       <path id="OpenSans-Bold-73" d="M 2938 1038 
Q 2938 681 2770 436 
Q 2603 191 2272 64 
Q 1941 -63 1447 -63 
Q 1081 -63 820 -16 
Q 559 31 294 141 
L 294 928 
Q 578 800 904 717 
Q 1231 634 1478 634 
Q 1756 634 1876 717 
Q 1997 800 1997 934 
Q 1997 1022 1948 1092 
Q 1900 1163 1740 1252 
Q 1581 1341 1241 1484 
Q 913 1622 702 1762 
Q 491 1903 389 2095 
Q 288 2288 288 2584 
Q 288 3069 664 3314 
Q 1041 3559 1672 3559 
Q 1997 3559 2292 3493 
Q 2588 3428 2900 3284 
L 2613 2597 
Q 2353 2709 2123 2781 
Q 1894 2853 1656 2853 
Q 1447 2853 1340 2797 
Q 1234 2741 1234 2625 
Q 1234 2541 1289 2475 
Q 1344 2409 1501 2329 
Q 1659 2250 1966 2125 
Q 2263 2003 2481 1870 
Q 2700 1738 2819 1542 
Q 2938 1347 2938 1038 
z
" transform="scale(0.015625)"/>
      </defs>
      <use xlink:href="#OpenSans-Bold-53"/>
      <use xlink:href="#OpenSans-Bold-69" x="55.078125"/>
      <use xlink:href="#OpenSans-Bold-6e" x="85.595703"/>
      <use xlink:href="#OpenSans-Bold-20" x="151.318359"/>
      <use xlink:href="#OpenSans-Bold-66" x="177.294922"/>
      <use xlink:href="#OpenSans-Bold-69" x="216.015625"/>
      <use xlink:href="#OpenSans-Bold-6e" x="246.533203"/>
      <use xlink:href="#OpenSans-Bold-65" x="312.255859"/>
      <use xlink:href="#OpenSans-Bold-73" x="371.337891"/>
      <use xlink:href="#OpenSans-Bold-20" x="421.044922"/>
      <use xlink:href="#OpenSans-Bold-64" x="447.021484"/>
      <use xlink:href="#OpenSans-Bold-65" x="510.302734"/>
     </g>
     <!-- lucro -->
     <g style="fill: #37539c" transform="translate(72.08 72.787166) scale(0.1 -0.1)">
      <defs>
       <path id="OpenSans-Bold-72" d="M 2450 3559 
Q 2522 3559 2617 3551 
Q 2713 3544 2772 3531 
L 2700 2638 
Q 2653 2653 2567 2661 
Q 2481 2669 2419 2669 
Q 2234 2669 2061 2622 
Q 1888 2575 1750 2470 
Q 1613 2366 1533 2195 
Q 1453 2025 1453 1778 
L 1453 0 
L 500 0 
L 500 3494 
L 1222 3494 
L 1363 2906 
L 1409 2906 
Q 1513 3084 1667 3232 
Q 1822 3381 2020 3470 
Q 2219 3559 2450 3559 
z
" transform="scale(0.015625)"/>
      </defs>
      <use xlink:href="#OpenSans-Bold-6c"/>
      <use xlink:href="#OpenSans-Bold-75" x="30.517578"/>
      <use xlink:href="#OpenSans-Bold-63" x="96.240234"/>
      <use xlink:href="#OpenSans-Bold-72" x="147.65625"/>
      <use xlink:href="#OpenSans-Bold-6f" x="193.066406"/>
     </g>
    </g>
    <g id="patch_86">
     <path d="M 44.08 94.788416 
L 64.08 94.788416 
L 64.08 87.788416 
L 44.08 87.788416 
z
" style="fill: #9fb7b9"/>
    </g>
    <g id="text_99">
     <!-- Centro de -->
     <g style="fill: #37539c" transform="translate(72.08 87.788729) scale(0.1 -0.1)">
      <defs>
       <path id="OpenSans-Bold-43" d="M 2516 3828 
Q 2238 3828 2023 3720 
Q 1809 3613 1664 3409 
Q 1519 3206 1444 2918 
Q 1369 2631 1369 2272 
Q 1369 1788 1489 1445 
Q 1609 1103 1862 923 
Q 2116 744 2516 744 
Q 2794 744 3073 806 
Q 3353 869 3681 984 
L 3681 172 
Q 3378 47 3084 -8 
Q 2791 -63 2425 -63 
Q 1719 -63 1264 229 
Q 809 522 590 1048 
Q 372 1575 372 2278 
Q 372 2797 512 3228 
Q 653 3659 925 3975 
Q 1197 4291 1597 4462 
Q 1997 4634 2516 4634 
Q 2856 4634 3198 4548 
Q 3541 4463 3853 4313 
L 3541 3525 
Q 3284 3647 3025 3737 
Q 2766 3828 2516 3828 
z
" transform="scale(0.015625)"/>
       <path id="OpenSans-Bold-74" d="M 1972 697 
Q 2128 697 2276 728 
Q 2425 759 2572 806 
L 2572 97 
Q 2419 28 2192 -17 
Q 1966 -63 1697 -63 
Q 1384 -63 1136 39 
Q 888 141 745 392 
Q 603 644 603 1094 
L 603 2778 
L 147 2778 
L 147 3181 
L 672 3500 
L 947 4238 
L 1556 4238 
L 1556 3494 
L 2534 3494 
L 2534 2778 
L 1556 2778 
L 1556 1094 
Q 1556 894 1670 795 
Q 1784 697 1972 697 
z
" transform="scale(0.015625)"/>
      </defs>
      <use xlink:href="#OpenSans-Bold-43"/>
      <use xlink:href="#OpenSans-Bold-65" x="63.720703"/>
      <use xlink:href="#OpenSans-Bold-6e" x="122.802734"/>
      <use xlink:href="#OpenSans-Bold-74" x="188.525391"/>
      <use xlink:href="#OpenSans-Bold-72" x="231.933594"/>
      <use xlink:href="#OpenSans-Bold-6f" x="277.34375"/>
      <use xlink:href="#OpenSans-Bold-20" x="339.257812"/>
      <use xlink:href="#OpenSans-Bold-64" x="365.234375"/>
      <use xlink:href="#OpenSans-Bold-65" x="428.515625"/>
     </g>
     <!-- investigación -->
     <g style="fill: #37539c" transform="translate(72.08 99.384979) scale(0.1 -0.1)">
      <defs>
       <path id="OpenSans-Bold-76" d="M 1331 0 
L 0 3494 
L 997 3494 
L 1672 1503 
Q 1728 1328 1761 1134 
Q 1794 941 1806 788 
L 1831 788 
Q 1841 953 1877 1140 
Q 1913 1328 1972 1503 
L 2644 3494 
L 3641 3494 
L 2309 0 
L 1331 0 
z
" transform="scale(0.015625)"/>
       <path id="OpenSans-Bold-67" d="M 1522 -1538 
Q 791 -1538 405 -1283 
Q 19 -1028 19 -569 
Q 19 -253 216 -40 
Q 413 172 794 263 
Q 647 325 537 467 
Q 428 609 428 769 
Q 428 969 543 1101 
Q 659 1234 878 1363 
Q 603 1481 442 1743 
Q 281 2006 281 2363 
Q 281 2744 448 3011 
Q 616 3278 936 3418 
Q 1256 3559 1716 3559 
Q 1813 3559 1941 3546 
Q 2069 3534 2176 3518 
Q 2284 3503 2322 3494 
L 3541 3494 
L 3541 3009 
L 2994 2869 
Q 3069 2753 3106 2622 
Q 3144 2491 3144 2344 
Q 3144 1781 2751 1467 
Q 2359 1153 1663 1153 
Q 1497 1163 1350 1178 
Q 1278 1122 1240 1059 
Q 1203 997 1203 928 
Q 1203 859 1261 814 
Q 1319 769 1436 745 
Q 1553 722 1728 722 
L 2322 722 
Q 2897 722 3198 475 
Q 3500 228 3500 -250 
Q 3500 -863 2989 -1200 
Q 2478 -1538 1522 -1538 
z
M 1563 -916 
Q 1903 -916 2148 -852 
Q 2394 -788 2525 -670 
Q 2656 -553 2656 -391 
Q 2656 -259 2579 -182 
Q 2503 -106 2348 -75 
Q 2194 -44 1953 -44 
L 1459 -44 
Q 1284 -44 1145 -100 
Q 1006 -156 925 -257 
Q 844 -359 844 -494 
Q 844 -691 1033 -803 
Q 1222 -916 1563 -916 
z
M 1716 1734 
Q 1984 1734 2109 1900 
Q 2234 2066 2234 2350 
Q 2234 2666 2104 2823 
Q 1975 2981 1716 2981 
Q 1453 2981 1322 2823 
Q 1191 2666 1191 2350 
Q 1191 2066 1320 1900 
Q 1450 1734 1716 1734 
z
" transform="scale(0.015625)"/>
       <path id="OpenSans-Bold-f3" d="M 3675 1753 
Q 3675 1316 3558 978 
Q 3441 641 3217 408 
Q 2994 175 2680 56 
Q 2366 -63 1972 -63 
Q 1603 -63 1295 56 
Q 988 175 761 408 
Q 534 641 411 978 
Q 288 1316 288 1753 
Q 288 2334 494 2737 
Q 700 3141 1081 3350 
Q 1463 3559 1991 3559 
Q 2481 3559 2861 3350 
Q 3241 3141 3458 2737 
Q 3675 2334 3675 1753 
z
M 1259 1753 
Q 1259 1409 1334 1175 
Q 1409 941 1568 822 
Q 1728 703 1984 703 
Q 2238 703 2395 822 
Q 2553 941 2626 1175 
Q 2700 1409 2700 1753 
Q 2700 2100 2626 2329 
Q 2553 2559 2393 2675 
Q 2234 2791 1978 2791 
Q 1600 2791 1429 2531 
Q 1259 2272 1259 1753 
z
M 3211 4903 
L 3211 4838 
Q 3121 4750 2974 4622 
Q 2827 4494 2658 4355 
Q 2490 4216 2327 4089 
Q 2165 3963 2043 3878 
L 1408 3878 
L 1408 3963 
Q 1511 4081 1647 4245 
Q 1783 4409 1917 4584 
Q 2052 4759 2143 4903 
L 3211 4903 
z
" transform="scale(0.015625)"/>
      </defs>
      <use xlink:href="#OpenSans-Bold-69"/>
      <use xlink:href="#OpenSans-Bold-6e" x="30.517578"/>
      <use xlink:href="#OpenSans-Bold-76" x="96.240234"/>
      <use xlink:href="#OpenSans-Bold-65" x="153.125"/>
      <use xlink:href="#OpenSans-Bold-73" x="212.207031"/>
      <use xlink:href="#OpenSans-Bold-74" x="261.914062"/>
      <use xlink:href="#OpenSans-Bold-69" x="305.322266"/>
      <use xlink:href="#OpenSans-Bold-67" x="335.839844"/>
      <use xlink:href="#OpenSans-Bold-61" x="392.333984"/>
      <use xlink:href="#OpenSans-Bold-63" x="452.734375"/>
      <use xlink:href="#OpenSans-Bold-69" x="504.150391"/>
      <use xlink:href="#OpenSans-Bold-f3" x="534.667969"/>
      <use xlink:href="#OpenSans-Bold-6e" x="596.582031"/>
     </g>
    </g>
    <g id="patch_87">
     <path d="M 44.08 114.386541 
L 64.08 114.386541 
L 64.08 107.386541 
L 44.08 107.386541 
z
" style="fill: #52489c"/>
    </g>
    <g id="text_100">
     <!-- Gubernamental -->
     <g style="fill: #37539c" transform="translate(72.08 114.386541) scale(0.1 -0.1)">
      <defs>
       <path id="OpenSans-Bold-47" d="M 2309 2566 
L 4122 2566 
L 4122 197 
Q 3763 78 3375 7 
Q 2988 -63 2497 -63 
Q 1816 -63 1341 206 
Q 866 475 619 1000 
Q 372 1525 372 2291 
Q 372 3009 648 3534 
Q 925 4059 1458 4346 
Q 1991 4634 2759 4634 
Q 3122 4634 3475 4556 
Q 3828 4478 4116 4353 
L 3794 3578 
Q 3584 3684 3315 3756 
Q 3047 3828 2753 3828 
Q 2331 3828 2020 3634 
Q 1709 3441 1539 3092 
Q 1369 2744 1369 2272 
Q 1369 1825 1491 1479 
Q 1613 1134 1875 939 
Q 2138 744 2559 744 
Q 2766 744 2908 764 
Q 3050 784 3175 806 
L 3175 1759 
L 2309 1759 
L 2309 2566 
z
" transform="scale(0.015625)"/>
       <path id="OpenSans-Bold-62" d="M 1453 4863 
L 1453 3731 
Q 1453 3534 1442 3340 
Q 1431 3147 1416 3041 
L 1453 3041 
Q 1591 3256 1828 3407 
Q 2066 3559 2444 3559 
Q 3031 3559 3397 3100 
Q 3763 2641 3763 1753 
Q 3763 1156 3594 751 
Q 3425 347 3122 142 
Q 2819 -63 2419 -63 
Q 2034 -63 1812 75 
Q 1591 213 1453 384 
L 1388 384 
L 1228 0 
L 500 0 
L 500 4863 
L 1453 4863 
z
M 2138 2797 
Q 1888 2797 1741 2694 
Q 1594 2591 1526 2384 
Q 1459 2178 1453 1863 
L 1453 1759 
Q 1453 1250 1603 979 
Q 1753 709 2150 709 
Q 2444 709 2617 981 
Q 2791 1253 2791 1766 
Q 2791 2278 2616 2537 
Q 2441 2797 2138 2797 
z
" transform="scale(0.015625)"/>
       <path id="OpenSans-Bold-6d" d="M 4603 3559 
Q 5197 3559 5501 3254 
Q 5806 2950 5806 2278 
L 5806 0 
L 4850 0 
L 4850 2041 
Q 4850 2416 4722 2606 
Q 4594 2797 4325 2797 
Q 3947 2797 3787 2526 
Q 3628 2256 3628 1753 
L 3628 0 
L 2675 0 
L 2675 2041 
Q 2675 2291 2619 2459 
Q 2563 2628 2447 2712 
Q 2331 2797 2150 2797 
Q 1884 2797 1732 2664 
Q 1581 2531 1517 2273 
Q 1453 2016 1453 1644 
L 1453 0 
L 500 0 
L 500 3494 
L 1228 3494 
L 1356 3047 
L 1409 3047 
Q 1516 3228 1677 3340 
Q 1838 3453 2031 3506 
Q 2225 3559 2425 3559 
Q 2809 3559 3076 3434 
Q 3344 3309 3488 3047 
L 3572 3047 
Q 3728 3316 4014 3437 
Q 4300 3559 4603 3559 
z
" transform="scale(0.015625)"/>
      </defs>
      <use xlink:href="#OpenSans-Bold-47"/>
      <use xlink:href="#OpenSans-Bold-75" x="72.412109"/>
      <use xlink:href="#OpenSans-Bold-62" x="138.134766"/>
      <use xlink:href="#OpenSans-Bold-65" x="201.416016"/>
      <use xlink:href="#OpenSans-Bold-72" x="260.498047"/>
      <use xlink:href="#OpenSans-Bold-6e" x="305.908203"/>
      <use xlink:href="#OpenSans-Bold-61" x="371.630859"/>
      <use xlink:href="#OpenSans-Bold-6d" x="432.03125"/>
      <use xlink:href="#OpenSans-Bold-65" x="530.224609"/>
      <use xlink:href="#OpenSans-Bold-6e" x="589.306641"/>
      <use xlink:href="#OpenSans-Bold-74" x="655.029297"/>
      <use xlink:href="#OpenSans-Bold-61" x="698.4375"/>
      <use xlink:href="#OpenSans-Bold-6c" x="758.837891"/>
     </g>
    </g>
    <g id="patch_88">
     <path d="M 44.08 129.388104 
L 64.08 129.388104 
L 64.08 122.388104 
L 44.08 122.388104 
z
" style="fill: #4062bb"/>
    </g>
    <g id="text_101">
     <!-- Otro -->
     <g style="fill: #37539c" transform="translate(72.08 129.388104) scale(0.1 -0.1)">
      <defs>
       <path id="OpenSans-Bold-4f" d="M 4722 2291 
Q 4722 1763 4590 1330 
Q 4459 897 4192 584 
Q 3925 272 3515 104 
Q 3106 -63 2547 -63 
Q 1988 -63 1578 104 
Q 1169 272 901 584 
Q 634 897 503 1331 
Q 372 1766 372 2297 
Q 372 3006 605 3532 
Q 838 4059 1322 4350 
Q 1806 4641 2553 4641 
Q 3297 4641 3776 4350 
Q 4256 4059 4489 3531 
Q 4722 3003 4722 2291 
z
M 1388 2291 
Q 1388 1813 1508 1467 
Q 1628 1122 1884 936 
Q 2141 750 2547 750 
Q 2959 750 3215 936 
Q 3472 1122 3589 1467 
Q 3706 1813 3706 2291 
Q 3706 3009 3437 3421 
Q 3169 3834 2553 3834 
Q 2144 3834 1886 3648 
Q 1628 3463 1508 3117 
Q 1388 2772 1388 2291 
z
" transform="scale(0.015625)"/>
      </defs>
      <use xlink:href="#OpenSans-Bold-4f"/>
      <use xlink:href="#OpenSans-Bold-74" x="79.589844"/>
      <use xlink:href="#OpenSans-Bold-72" x="122.998047"/>
      <use xlink:href="#OpenSans-Bold-6f" x="168.408203"/>
     </g>
    </g>
    <g id="patch_89">
     <path d="M 44.08 144.389666 
L 64.08 144.389666 
L 64.08 137.389666 
L 44.08 137.389666 
z
" style="fill: #ebebeb"/>
    </g>
    <g id="text_102">
     <!-- Compañia -->
     <g style="fill: #37539c" transform="translate(72.08 144.389666) scale(0.1 -0.1)">
      <defs>
       <path id="OpenSans-Bold-70" d="M 2444 3559 
Q 3034 3559 3398 3100 
Q 3763 2641 3763 1753 
Q 3763 1159 3591 754 
Q 3419 350 3116 143 
Q 2813 -63 2419 -63 
Q 2166 -63 1984 1 
Q 1803 66 1675 167 
Q 1547 269 1453 384 
L 1403 384 
Q 1428 259 1440 128 
Q 1453 -3 1453 -128 
L 1453 -1538 
L 500 -1538 
L 500 3494 
L 1275 3494 
L 1409 3041 
L 1453 3041 
Q 1547 3181 1681 3300 
Q 1816 3419 2005 3489 
Q 2194 3559 2444 3559 
z
M 2138 2797 
Q 1888 2797 1741 2694 
Q 1594 2591 1526 2384 
Q 1459 2178 1453 1863 
L 1453 1759 
Q 1453 1422 1517 1187 
Q 1581 953 1732 831 
Q 1884 709 2150 709 
Q 2369 709 2509 831 
Q 2650 953 2720 1189 
Q 2791 1425 2791 1766 
Q 2791 2278 2631 2537 
Q 2472 2797 2138 2797 
z
" transform="scale(0.015625)"/>
      </defs>
      <use xlink:href="#OpenSans-Bold-43"/>
      <use xlink:href="#OpenSans-Bold-6f" x="63.720703"/>
      <use xlink:href="#OpenSans-Bold-6d" x="125.634766"/>
      <use xlink:href="#OpenSans-Bold-70" x="223.828125"/>
      <use xlink:href="#OpenSans-Bold-61" x="287.109375"/>
      <use xlink:href="#OpenSans-Bold-f1" x="347.509766"/>
      <use xlink:href="#OpenSans-Bold-69" x="413.232422"/>
      <use xlink:href="#OpenSans-Bold-61" x="443.75"/>
     </g>
    </g>
   </g>
  </g>
 </g>
 <defs>
  <clipPath id="p30424e0edd">
   <rect x="35.08" y="14.664354" width="1106.12" height="290.163549"/>
  </clipPath>
 </defs>
</svg>
