<?xml version="1.0" encoding="utf-8" standalone="no"?>
<!DOCTYPE svg PUBLIC "-//W3C//DTD SVG 1.1//EN"
  "http://www.w3.org/Graphics/SVG/1.1/DTD/svg11.dtd">
<svg xmlns:xlink="http://www.w3.org/1999/xlink" width="936pt" height="360pt" viewBox="0 0 936 360" xmlns="http://www.w3.org/2000/svg" version="1.1">
 <metadata>
  <rdf:RDF xmlns:dc="http://purl.org/dc/elements/1.1/" xmlns:cc="http://creativecommons.org/ns#" xmlns:rdf="http://www.w3.org/1999/02/22-rdf-syntax-ns#">
   <cc:Work>
    <dc:type rdf:resource="http://purl.org/dc/dcmitype/StillImage"/>
    <dc:date>2024-03-13T18:43:56.720178</dc:date>
    <dc:format>image/svg+xml</dc:format>
    <dc:creator>
     <cc:Agent>
      <dc:title>Matplotlib v3.7.1, https://matplotlib.org/</dc:title>
     </cc:Agent>
    </dc:creator>
   </cc:Work>
  </rdf:RDF>
 </metadata>
 <defs>
  <style type="text/css">*{stroke-linejoin: round; stroke-linecap: butt}</style>
 </defs>
 <g id="figure_1">
  <g id="patch_1">
   <path d="M 0 360 
L 936 360 
L 936 0 
L 0 0 
z
" style="fill: #ffffff"/>
  </g>
  <g id="axes_1">
   <g id="patch_2">
    <path d="M 27.07 258.434627 
L 925.2 258.434627 
L 925.2 10.8 
L 27.07 10.8 
z
" style="fill: #ffffff"/>
   </g>
   <g id="matplotlib.axis_1">
    <g id="xtick_1">
     <g id="line2d_1">
      <defs>
       <path id="mc4f00f79d2" d="M 0 0 
L 0 3.5 
" style="stroke: #37539c; stroke-width: 0.8"/>
      </defs>
      <g>
       <use xlink:href="#mc4f00f79d2" x="71.9765" y="258.434627" style="fill: #37539c; stroke: #37539c; stroke-width: 0.8"/>
      </g>
     </g>
     <g id="text_1">
      <!-- gestational diabetes -->
      <g style="fill: #37539c" transform="translate(44.700298 327.224269) rotate(-45) scale(0.08 -0.08)">
       <defs>
        <path id="OpenSans-Bold-67" d="M 1522 -1538 
Q 791 -1538 405 -1283 
Q 19 -1028 19 -569 
Q 19 -253 216 -40 
Q 413 172 794 263 
Q 647 325 537 467 
Q 428 609 428 769 
Q 428 969 543 1101 
Q 659 1234 878 1363 
Q 603 1481 442 1743 
Q 281 2006 281 2363 
Q 281 2744 448 3011 
Q 616 3278 936 3418 
Q 1256 3559 1716 3559 
Q 1813 3559 1941 3546 
Q 2069 3534 2176 3518 
Q 2284 3503 2322 3494 
L 3541 3494 
L 3541 3009 
L 2994 2869 
Q 3069 2753 3106 2622 
Q 3144 2491 3144 2344 
Q 3144 1781 2751 1467 
Q 2359 1153 1663 1153 
Q 1497 1163 1350 1178 
Q 1278 1122 1240 1059 
Q 1203 997 1203 928 
Q 1203 859 1261 814 
Q 1319 769 1436 745 
Q 1553 722 1728 722 
L 2322 722 
Q 2897 722 3198 475 
Q 3500 228 3500 -250 
Q 3500 -863 2989 -1200 
Q 2478 -1538 1522 -1538 
z
M 1563 -916 
Q 1903 -916 2148 -852 
Q 2394 -788 2525 -670 
Q 2656 -553 2656 -391 
Q 2656 -259 2579 -182 
Q 2503 -106 2348 -75 
Q 2194 -44 1953 -44 
L 1459 -44 
Q 1284 -44 1145 -100 
Q 1006 -156 925 -257 
Q 844 -359 844 -494 
Q 844 -691 1033 -803 
Q 1222 -916 1563 -916 
z
M 1716 1734 
Q 1984 1734 2109 1900 
Q 2234 2066 2234 2350 
Q 2234 2666 2104 2823 
Q 1975 2981 1716 2981 
Q 1453 2981 1322 2823 
Q 1191 2666 1191 2350 
Q 1191 2066 1320 1900 
Q 1450 1734 1716 1734 
z
" transform="scale(0.015625)"/>
        <path id="OpenSans-Bold-65" d="M 1941 3559 
Q 2425 3559 2775 3373 
Q 3125 3188 3315 2834 
Q 3506 2481 3506 1972 
L 3506 1509 
L 1253 1509 
Q 1269 1106 1495 876 
Q 1722 647 2125 647 
Q 2459 647 2737 715 
Q 3016 784 3309 922 
L 3309 184 
Q 3050 56 2767 -3 
Q 2484 -63 2081 -63 
Q 1556 -63 1151 131 
Q 747 325 517 722 
Q 288 1119 288 1722 
Q 288 2334 495 2742 
Q 703 3150 1075 3354 
Q 1447 3559 1941 3559 
z
M 1947 2881 
Q 1669 2881 1486 2703 
Q 1303 2525 1275 2144 
L 2613 2144 
Q 2609 2356 2536 2522 
Q 2463 2688 2317 2784 
Q 2172 2881 1947 2881 
z
" transform="scale(0.015625)"/>
        <path id="OpenSans-Bold-73" d="M 2938 1038 
Q 2938 681 2770 436 
Q 2603 191 2272 64 
Q 1941 -63 1447 -63 
Q 1081 -63 820 -16 
Q 559 31 294 141 
L 294 928 
Q 578 800 904 717 
Q 1231 634 1478 634 
Q 1756 634 1876 717 
Q 1997 800 1997 934 
Q 1997 1022 1948 1092 
Q 1900 1163 1740 1252 
Q 1581 1341 1241 1484 
Q 913 1622 702 1762 
Q 491 1903 389 2095 
Q 288 2288 288 2584 
Q 288 3069 664 3314 
Q 1041 3559 1672 3559 
Q 1997 3559 2292 3493 
Q 2588 3428 2900 3284 
L 2613 2597 
Q 2353 2709 2123 2781 
Q 1894 2853 1656 2853 
Q 1447 2853 1340 2797 
Q 1234 2741 1234 2625 
Q 1234 2541 1289 2475 
Q 1344 2409 1501 2329 
Q 1659 2250 1966 2125 
Q 2263 2003 2481 1870 
Q 2700 1738 2819 1542 
Q 2938 1347 2938 1038 
z
" transform="scale(0.015625)"/>
        <path id="OpenSans-Bold-74" d="M 1972 697 
Q 2128 697 2276 728 
Q 2425 759 2572 806 
L 2572 97 
Q 2419 28 2192 -17 
Q 1966 -63 1697 -63 
Q 1384 -63 1136 39 
Q 888 141 745 392 
Q 603 644 603 1094 
L 603 2778 
L 147 2778 
L 147 3181 
L 672 3500 
L 947 4238 
L 1556 4238 
L 1556 3494 
L 2534 3494 
L 2534 2778 
L 1556 2778 
L 1556 1094 
Q 1556 894 1670 795 
Q 1784 697 1972 697 
z
" transform="scale(0.015625)"/>
        <path id="OpenSans-Bold-61" d="M 1931 3566 
Q 2634 3566 3009 3259 
Q 3384 2953 3384 2328 
L 3384 0 
L 2719 0 
L 2534 475 
L 2509 475 
Q 2359 288 2203 169 
Q 2047 50 1844 -6 
Q 1641 -63 1350 -63 
Q 1041 -63 795 56 
Q 550 175 409 420 
Q 269 666 269 1044 
Q 269 1600 659 1864 
Q 1050 2128 1831 2156 
L 2438 2175 
L 2438 2328 
Q 2438 2603 2294 2731 
Q 2150 2859 1894 2859 
Q 1641 2859 1397 2787 
Q 1153 2716 909 2606 
L 594 3250 
Q 872 3397 1217 3481 
Q 1563 3566 1931 3566 
z
M 2438 1619 
L 2069 1606 
Q 1606 1594 1426 1441 
Q 1247 1288 1247 1038 
Q 1247 819 1375 726 
Q 1503 634 1709 634 
Q 2016 634 2227 815 
Q 2438 997 2438 1331 
L 2438 1619 
z
" transform="scale(0.015625)"/>
        <path id="OpenSans-Bold-69" d="M 1453 3494 
L 1453 0 
L 500 0 
L 500 3494 
L 1453 3494 
z
M 978 4863 
Q 1191 4863 1344 4764 
Q 1497 4666 1497 4397 
Q 1497 4131 1344 4029 
Q 1191 3928 978 3928 
Q 763 3928 611 4029 
Q 459 4131 459 4397 
Q 459 4666 611 4764 
Q 763 4863 978 4863 
z
" transform="scale(0.015625)"/>
        <path id="OpenSans-Bold-6f" d="M 3675 1753 
Q 3675 1316 3558 978 
Q 3441 641 3217 408 
Q 2994 175 2680 56 
Q 2366 -63 1972 -63 
Q 1603 -63 1295 56 
Q 988 175 761 408 
Q 534 641 411 978 
Q 288 1316 288 1753 
Q 288 2334 494 2737 
Q 700 3141 1081 3350 
Q 1463 3559 1991 3559 
Q 2481 3559 2861 3350 
Q 3241 3141 3458 2737 
Q 3675 2334 3675 1753 
z
M 1259 1753 
Q 1259 1409 1334 1175 
Q 1409 941 1568 822 
Q 1728 703 1984 703 
Q 2238 703 2395 822 
Q 2553 941 2626 1175 
Q 2700 1409 2700 1753 
Q 2700 2100 2626 2329 
Q 2553 2559 2393 2675 
Q 2234 2791 1978 2791 
Q 1600 2791 1429 2531 
Q 1259 2272 1259 1753 
z
" transform="scale(0.015625)"/>
        <path id="OpenSans-Bold-6e" d="M 2484 3559 
Q 3044 3559 3384 3254 
Q 3725 2950 3725 2278 
L 3725 0 
L 2772 0 
L 2772 2041 
Q 2772 2416 2636 2606 
Q 2500 2797 2209 2797 
Q 1772 2797 1612 2500 
Q 1453 2203 1453 1644 
L 1453 0 
L 500 0 
L 500 3494 
L 1228 3494 
L 1356 3047 
L 1409 3047 
Q 1522 3228 1689 3340 
Q 1856 3453 2061 3506 
Q 2266 3559 2484 3559 
z
" transform="scale(0.015625)"/>
        <path id="OpenSans-Bold-6c" d="M 1453 0 
L 500 0 
L 500 4863 
L 1453 4863 
L 1453 0 
z
" transform="scale(0.015625)"/>
        <path id="OpenSans-Bold-20" transform="scale(0.015625)"/>
        <path id="OpenSans-Bold-64" d="M 1606 -63 
Q 1022 -63 655 395 
Q 288 853 288 1741 
Q 288 2638 659 3098 
Q 1031 3559 1631 3559 
Q 1881 3559 2072 3490 
Q 2263 3422 2402 3306 
Q 2541 3191 2638 3047 
L 2669 3047 
Q 2650 3147 2623 3342 
Q 2597 3538 2597 3744 
L 2597 4863 
L 3553 4863 
L 3553 0 
L 2822 0 
L 2638 453 
L 2597 453 
Q 2506 309 2370 192 
Q 2234 75 2046 6 
Q 1859 -63 1606 -63 
z
M 1941 697 
Q 2331 697 2492 930 
Q 2653 1163 2663 1631 
L 2663 1734 
Q 2663 2244 2506 2514 
Q 2350 2784 1925 2784 
Q 1609 2784 1431 2512 
Q 1253 2241 1253 1728 
Q 1253 1216 1433 956 
Q 1613 697 1941 697 
z
" transform="scale(0.015625)"/>
        <path id="OpenSans-Bold-62" d="M 1453 4863 
L 1453 3731 
Q 1453 3534 1442 3340 
Q 1431 3147 1416 3041 
L 1453 3041 
Q 1591 3256 1828 3407 
Q 2066 3559 2444 3559 
Q 3031 3559 3397 3100 
Q 3763 2641 3763 1753 
Q 3763 1156 3594 751 
Q 3425 347 3122 142 
Q 2819 -63 2419 -63 
Q 2034 -63 1812 75 
Q 1591 213 1453 384 
L 1388 384 
L 1228 0 
L 500 0 
L 500 4863 
L 1453 4863 
z
M 2138 2797 
Q 1888 2797 1741 2694 
Q 1594 2591 1526 2384 
Q 1459 2178 1453 1863 
L 1453 1759 
Q 1453 1250 1603 979 
Q 1753 709 2150 709 
Q 2444 709 2617 981 
Q 2791 1253 2791 1766 
Q 2791 2278 2616 2537 
Q 2441 2797 2138 2797 
z
" transform="scale(0.015625)"/>
       </defs>
       <use xlink:href="#OpenSans-Bold-67"/>
       <use xlink:href="#OpenSans-Bold-65" x="56.494141"/>
       <use xlink:href="#OpenSans-Bold-73" x="115.576172"/>
       <use xlink:href="#OpenSans-Bold-74" x="165.283203"/>
       <use xlink:href="#OpenSans-Bold-61" x="208.691406"/>
       <use xlink:href="#OpenSans-Bold-74" x="269.091797"/>
       <use xlink:href="#OpenSans-Bold-69" x="312.5"/>
       <use xlink:href="#OpenSans-Bold-6f" x="343.017578"/>
       <use xlink:href="#OpenSans-Bold-6e" x="404.931641"/>
       <use xlink:href="#OpenSans-Bold-61" x="470.654297"/>
       <use xlink:href="#OpenSans-Bold-6c" x="531.054688"/>
       <use xlink:href="#OpenSans-Bold-20" x="561.572266"/>
       <use xlink:href="#OpenSans-Bold-64" x="587.548828"/>
       <use xlink:href="#OpenSans-Bold-69" x="650.830078"/>
       <use xlink:href="#OpenSans-Bold-61" x="681.347656"/>
       <use xlink:href="#OpenSans-Bold-62" x="741.748047"/>
       <use xlink:href="#OpenSans-Bold-65" x="805.029297"/>
       <use xlink:href="#OpenSans-Bold-74" x="864.111328"/>
       <use xlink:href="#OpenSans-Bold-65" x="907.519531"/>
       <use xlink:href="#OpenSans-Bold-73" x="966.601562"/>
      </g>
     </g>
    </g>
    <g id="xtick_2">
     <g id="line2d_2">
      <g>
       <use xlink:href="#mc4f00f79d2" x="161.7895" y="258.434627" style="fill: #37539c; stroke: #37539c; stroke-width: 0.8"/>
      </g>
     </g>
     <g id="text_2">
      <!-- diabetes mellitus -->
      <g style="fill: #37539c" transform="translate(138.867308 318.516249) rotate(-45) scale(0.08 -0.08)">
       <defs>
        <path id="OpenSans-Bold-6d" d="M 4603 3559 
Q 5197 3559 5501 3254 
Q 5806 2950 5806 2278 
L 5806 0 
L 4850 0 
L 4850 2041 
Q 4850 2416 4722 2606 
Q 4594 2797 4325 2797 
Q 3947 2797 3787 2526 
Q 3628 2256 3628 1753 
L 3628 0 
L 2675 0 
L 2675 2041 
Q 2675 2291 2619 2459 
Q 2563 2628 2447 2712 
Q 2331 2797 2150 2797 
Q 1884 2797 1732 2664 
Q 1581 2531 1517 2273 
Q 1453 2016 1453 1644 
L 1453 0 
L 500 0 
L 500 3494 
L 1228 3494 
L 1356 3047 
L 1409 3047 
Q 1516 3228 1677 3340 
Q 1838 3453 2031 3506 
Q 2225 3559 2425 3559 
Q 2809 3559 3076 3434 
Q 3344 3309 3488 3047 
L 3572 3047 
Q 3728 3316 4014 3437 
Q 4300 3559 4603 3559 
z
" transform="scale(0.015625)"/>
        <path id="OpenSans-Bold-75" d="M 3706 3494 
L 3706 0 
L 2975 0 
L 2847 447 
L 2797 447 
Q 2684 269 2515 156 
Q 2347 44 2144 -9 
Q 1941 -63 1722 -63 
Q 1347 -63 1069 70 
Q 791 203 636 484 
Q 481 766 481 1216 
L 481 3494 
L 1434 3494 
L 1434 1453 
Q 1434 1078 1568 887 
Q 1703 697 1997 697 
Q 2288 697 2453 830 
Q 2619 963 2686 1220 
Q 2753 1478 2753 1850 
L 2753 3494 
L 3706 3494 
z
" transform="scale(0.015625)"/>
       </defs>
       <use xlink:href="#OpenSans-Bold-64"/>
       <use xlink:href="#OpenSans-Bold-69" x="63.28125"/>
       <use xlink:href="#OpenSans-Bold-61" x="93.798828"/>
       <use xlink:href="#OpenSans-Bold-62" x="154.199219"/>
       <use xlink:href="#OpenSans-Bold-65" x="217.480469"/>
       <use xlink:href="#OpenSans-Bold-74" x="276.5625"/>
       <use xlink:href="#OpenSans-Bold-65" x="319.970703"/>
       <use xlink:href="#OpenSans-Bold-73" x="379.052734"/>
       <use xlink:href="#OpenSans-Bold-20" x="428.759766"/>
       <use xlink:href="#OpenSans-Bold-6d" x="454.736328"/>
       <use xlink:href="#OpenSans-Bold-65" x="552.929688"/>
       <use xlink:href="#OpenSans-Bold-6c" x="612.011719"/>
       <use xlink:href="#OpenSans-Bold-6c" x="642.529297"/>
       <use xlink:href="#OpenSans-Bold-69" x="673.046875"/>
       <use xlink:href="#OpenSans-Bold-74" x="703.564453"/>
       <use xlink:href="#OpenSans-Bold-75" x="746.972656"/>
       <use xlink:href="#OpenSans-Bold-73" x="812.695312"/>
      </g>
     </g>
    </g>
    <g id="xtick_3">
     <g id="line2d_3">
      <g>
       <use xlink:href="#mc4f00f79d2" x="251.6025" y="258.434627" style="fill: #37539c; stroke: #37539c; stroke-width: 0.8"/>
      </g>
     </g>
     <g id="text_3">
      <!-- metabolic syndrome -->
      <g style="fill: #37539c" transform="translate(224.08323 327.710405) rotate(-45) scale(0.08 -0.08)">
       <defs>
        <path id="OpenSans-Bold-63" d="M 1919 -63 
Q 1400 -63 1034 126 
Q 669 316 478 712 
Q 288 1109 288 1728 
Q 288 2369 505 2773 
Q 722 3178 1108 3368 
Q 1494 3559 2003 3559 
Q 2366 3559 2630 3489 
Q 2894 3419 3091 3322 
L 2809 2584 
Q 2584 2675 2390 2733 
Q 2197 2791 2003 2791 
Q 1753 2791 1587 2673 
Q 1422 2556 1340 2322 
Q 1259 2088 1259 1734 
Q 1259 1388 1346 1159 
Q 1434 931 1600 820 
Q 1766 709 2003 709 
Q 2300 709 2531 789 
Q 2763 869 2981 1013 
L 2981 197 
Q 2763 59 2523 -2 
Q 2284 -63 1919 -63 
z
" transform="scale(0.015625)"/>
        <path id="OpenSans-Bold-79" d="M 0 3494 
L 1044 3494 
L 1703 1528 
Q 1734 1434 1756 1337 
Q 1778 1241 1793 1137 
Q 1809 1034 1819 922 
L 1838 922 
Q 1856 1091 1889 1237 
Q 1922 1384 1972 1528 
L 2619 3494 
L 3641 3494 
L 2163 -447 
Q 2028 -809 1812 -1051 
Q 1597 -1294 1317 -1416 
Q 1038 -1538 703 -1538 
Q 541 -1538 422 -1520 
Q 303 -1503 219 -1484 
L 219 -728 
Q 284 -744 384 -756 
Q 484 -769 594 -769 
Q 794 -769 937 -684 
Q 1081 -600 1178 -458 
Q 1275 -316 1331 -147 
L 1388 25 
L 0 3494 
z
" transform="scale(0.015625)"/>
        <path id="OpenSans-Bold-72" d="M 2450 3559 
Q 2522 3559 2617 3551 
Q 2713 3544 2772 3531 
L 2700 2638 
Q 2653 2653 2567 2661 
Q 2481 2669 2419 2669 
Q 2234 2669 2061 2622 
Q 1888 2575 1750 2470 
Q 1613 2366 1533 2195 
Q 1453 2025 1453 1778 
L 1453 0 
L 500 0 
L 500 3494 
L 1222 3494 
L 1363 2906 
L 1409 2906 
Q 1513 3084 1667 3232 
Q 1822 3381 2020 3470 
Q 2219 3559 2450 3559 
z
" transform="scale(0.015625)"/>
       </defs>
       <use xlink:href="#OpenSans-Bold-6d"/>
       <use xlink:href="#OpenSans-Bold-65" x="98.193359"/>
       <use xlink:href="#OpenSans-Bold-74" x="157.275391"/>
       <use xlink:href="#OpenSans-Bold-61" x="200.683594"/>
       <use xlink:href="#OpenSans-Bold-62" x="261.083984"/>
       <use xlink:href="#OpenSans-Bold-6f" x="324.365234"/>
       <use xlink:href="#OpenSans-Bold-6c" x="386.279297"/>
       <use xlink:href="#OpenSans-Bold-69" x="416.796875"/>
       <use xlink:href="#OpenSans-Bold-63" x="447.314453"/>
       <use xlink:href="#OpenSans-Bold-20" x="498.730469"/>
       <use xlink:href="#OpenSans-Bold-73" x="524.707031"/>
       <use xlink:href="#OpenSans-Bold-79" x="574.414062"/>
       <use xlink:href="#OpenSans-Bold-6e" x="631.298828"/>
       <use xlink:href="#OpenSans-Bold-64" x="697.021484"/>
       <use xlink:href="#OpenSans-Bold-72" x="760.302734"/>
       <use xlink:href="#OpenSans-Bold-6f" x="805.712891"/>
       <use xlink:href="#OpenSans-Bold-6d" x="867.626953"/>
       <use xlink:href="#OpenSans-Bold-65" x="965.820312"/>
      </g>
     </g>
    </g>
    <g id="xtick_4">
     <g id="line2d_4">
      <g>
       <use xlink:href="#mc4f00f79d2" x="341.4155" y="258.434627" style="fill: #37539c; stroke: #37539c; stroke-width: 0.8"/>
      </g>
     </g>
     <g id="text_4">
      <!-- obesity -->
      <g style="fill: #37539c" transform="translate(332.566943 290.36898) rotate(-45) scale(0.08 -0.08)">
       <use xlink:href="#OpenSans-Bold-6f"/>
       <use xlink:href="#OpenSans-Bold-62" x="61.914062"/>
       <use xlink:href="#OpenSans-Bold-65" x="125.195312"/>
       <use xlink:href="#OpenSans-Bold-73" x="184.277344"/>
       <use xlink:href="#OpenSans-Bold-69" x="233.984375"/>
       <use xlink:href="#OpenSans-Bold-74" x="264.501953"/>
       <use xlink:href="#OpenSans-Bold-79" x="307.910156"/>
      </g>
     </g>
    </g>
    <g id="xtick_5">
     <g id="line2d_5">
      <g>
       <use xlink:href="#mc4f00f79d2" x="431.2285" y="258.434627" style="fill: #37539c; stroke: #37539c; stroke-width: 0.8"/>
      </g>
     </g>
     <g id="text_5">
      <!-- insulin resistance -->
      <g style="fill: #37539c" transform="translate(407.840943 319.446978) rotate(-45) scale(0.08 -0.08)">
       <use xlink:href="#OpenSans-Bold-69"/>
       <use xlink:href="#OpenSans-Bold-6e" x="30.517578"/>
       <use xlink:href="#OpenSans-Bold-73" x="96.240234"/>
       <use xlink:href="#OpenSans-Bold-75" x="145.947266"/>
       <use xlink:href="#OpenSans-Bold-6c" x="211.669922"/>
       <use xlink:href="#OpenSans-Bold-69" x="242.1875"/>
       <use xlink:href="#OpenSans-Bold-6e" x="272.705078"/>
       <use xlink:href="#OpenSans-Bold-20" x="338.427734"/>
       <use xlink:href="#OpenSans-Bold-72" x="364.404297"/>
       <use xlink:href="#OpenSans-Bold-65" x="409.814453"/>
       <use xlink:href="#OpenSans-Bold-73" x="468.896484"/>
       <use xlink:href="#OpenSans-Bold-69" x="518.603516"/>
       <use xlink:href="#OpenSans-Bold-73" x="549.121094"/>
       <use xlink:href="#OpenSans-Bold-74" x="598.828125"/>
       <use xlink:href="#OpenSans-Bold-61" x="642.236328"/>
       <use xlink:href="#OpenSans-Bold-6e" x="702.636719"/>
       <use xlink:href="#OpenSans-Bold-63" x="768.359375"/>
       <use xlink:href="#OpenSans-Bold-65" x="819.775391"/>
      </g>
     </g>
    </g>
    <g id="xtick_6">
     <g id="line2d_6">
      <g>
       <use xlink:href="#mc4f00f79d2" x="521.0415" y="258.434627" style="fill: #37539c; stroke: #37539c; stroke-width: 0.8"/>
      </g>
     </g>
     <g id="text_6">
      <!-- hypertension -->
      <g style="fill: #37539c" transform="translate(503.661257 307.43235) rotate(-45) scale(0.08 -0.08)">
       <defs>
        <path id="OpenSans-Bold-68" d="M 1453 4863 
L 1453 3872 
Q 1453 3613 1436 3378 
Q 1419 3144 1409 3047 
L 1459 3047 
Q 1572 3228 1726 3340 
Q 1881 3453 2068 3506 
Q 2256 3559 2472 3559 
Q 2850 3559 3131 3426 
Q 3413 3294 3569 3011 
Q 3725 2728 3725 2278 
L 3725 0 
L 2772 0 
L 2772 2041 
Q 2772 2416 2634 2606 
Q 2497 2797 2209 2797 
Q 1922 2797 1756 2664 
Q 1591 2531 1522 2273 
Q 1453 2016 1453 1644 
L 1453 0 
L 500 0 
L 500 4863 
L 1453 4863 
z
" transform="scale(0.015625)"/>
        <path id="OpenSans-Bold-70" d="M 2444 3559 
Q 3034 3559 3398 3100 
Q 3763 2641 3763 1753 
Q 3763 1159 3591 754 
Q 3419 350 3116 143 
Q 2813 -63 2419 -63 
Q 2166 -63 1984 1 
Q 1803 66 1675 167 
Q 1547 269 1453 384 
L 1403 384 
Q 1428 259 1440 128 
Q 1453 -3 1453 -128 
L 1453 -1538 
L 500 -1538 
L 500 3494 
L 1275 3494 
L 1409 3041 
L 1453 3041 
Q 1547 3181 1681 3300 
Q 1816 3419 2005 3489 
Q 2194 3559 2444 3559 
z
M 2138 2797 
Q 1888 2797 1741 2694 
Q 1594 2591 1526 2384 
Q 1459 2178 1453 1863 
L 1453 1759 
Q 1453 1422 1517 1187 
Q 1581 953 1732 831 
Q 1884 709 2150 709 
Q 2369 709 2509 831 
Q 2650 953 2720 1189 
Q 2791 1425 2791 1766 
Q 2791 2278 2631 2537 
Q 2472 2797 2138 2797 
z
" transform="scale(0.015625)"/>
       </defs>
       <use xlink:href="#OpenSans-Bold-68"/>
       <use xlink:href="#OpenSans-Bold-79" x="65.722656"/>
       <use xlink:href="#OpenSans-Bold-70" x="122.607422"/>
       <use xlink:href="#OpenSans-Bold-65" x="185.888672"/>
       <use xlink:href="#OpenSans-Bold-72" x="244.970703"/>
       <use xlink:href="#OpenSans-Bold-74" x="290.380859"/>
       <use xlink:href="#OpenSans-Bold-65" x="333.789062"/>
       <use xlink:href="#OpenSans-Bold-6e" x="392.871094"/>
       <use xlink:href="#OpenSans-Bold-73" x="458.59375"/>
       <use xlink:href="#OpenSans-Bold-69" x="508.300781"/>
       <use xlink:href="#OpenSans-Bold-6f" x="538.818359"/>
       <use xlink:href="#OpenSans-Bold-6e" x="600.732422"/>
      </g>
     </g>
    </g>
    <g id="xtick_7">
     <g id="line2d_7">
      <g>
       <use xlink:href="#mc4f00f79d2" x="610.8545" y="258.434627" style="fill: #37539c; stroke: #37539c; stroke-width: 0.8"/>
      </g>
     </g>
     <g id="text_7">
      <!-- physical activity -->
      <g style="fill: #37539c" transform="translate(589.473359 315.434147) rotate(-45) scale(0.08 -0.08)">
       <defs>
        <path id="OpenSans-Bold-76" d="M 1331 0 
L 0 3494 
L 997 3494 
L 1672 1503 
Q 1728 1328 1761 1134 
Q 1794 941 1806 788 
L 1831 788 
Q 1841 953 1877 1140 
Q 1913 1328 1972 1503 
L 2644 3494 
L 3641 3494 
L 2309 0 
L 1331 0 
z
" transform="scale(0.015625)"/>
       </defs>
       <use xlink:href="#OpenSans-Bold-70"/>
       <use xlink:href="#OpenSans-Bold-68" x="63.28125"/>
       <use xlink:href="#OpenSans-Bold-79" x="129.003906"/>
       <use xlink:href="#OpenSans-Bold-73" x="185.888672"/>
       <use xlink:href="#OpenSans-Bold-69" x="235.595703"/>
       <use xlink:href="#OpenSans-Bold-63" x="266.113281"/>
       <use xlink:href="#OpenSans-Bold-61" x="317.529297"/>
       <use xlink:href="#OpenSans-Bold-6c" x="377.929688"/>
       <use xlink:href="#OpenSans-Bold-20" x="408.447266"/>
       <use xlink:href="#OpenSans-Bold-61" x="434.423828"/>
       <use xlink:href="#OpenSans-Bold-63" x="494.824219"/>
       <use xlink:href="#OpenSans-Bold-74" x="546.240234"/>
       <use xlink:href="#OpenSans-Bold-69" x="589.648438"/>
       <use xlink:href="#OpenSans-Bold-76" x="620.166016"/>
       <use xlink:href="#OpenSans-Bold-69" x="677.050781"/>
       <use xlink:href="#OpenSans-Bold-74" x="707.568359"/>
       <use xlink:href="#OpenSans-Bold-79" x="750.976562"/>
      </g>
     </g>
    </g>
    <g id="xtick_8">
     <g id="line2d_8">
      <g>
       <use xlink:href="#mc4f00f79d2" x="700.6675" y="258.434627" style="fill: #37539c; stroke: #37539c; stroke-width: 0.8"/>
      </g>
     </g>
     <g id="text_8">
      <!-- cardiovascular disease -->
      <g style="fill: #37539c" transform="translate(670.142584 333.721696) rotate(-45) scale(0.08 -0.08)">
       <use xlink:href="#OpenSans-Bold-63"/>
       <use xlink:href="#OpenSans-Bold-61" x="51.416016"/>
       <use xlink:href="#OpenSans-Bold-72" x="111.816406"/>
       <use xlink:href="#OpenSans-Bold-64" x="157.226562"/>
       <use xlink:href="#OpenSans-Bold-69" x="220.507812"/>
       <use xlink:href="#OpenSans-Bold-6f" x="251.025391"/>
       <use xlink:href="#OpenSans-Bold-76" x="312.939453"/>
       <use xlink:href="#OpenSans-Bold-61" x="369.824219"/>
       <use xlink:href="#OpenSans-Bold-73" x="430.224609"/>
       <use xlink:href="#OpenSans-Bold-63" x="479.931641"/>
       <use xlink:href="#OpenSans-Bold-75" x="531.347656"/>
       <use xlink:href="#OpenSans-Bold-6c" x="597.070312"/>
       <use xlink:href="#OpenSans-Bold-61" x="627.587891"/>
       <use xlink:href="#OpenSans-Bold-72" x="687.988281"/>
       <use xlink:href="#OpenSans-Bold-20" x="733.398438"/>
       <use xlink:href="#OpenSans-Bold-64" x="759.375"/>
       <use xlink:href="#OpenSans-Bold-69" x="822.65625"/>
       <use xlink:href="#OpenSans-Bold-73" x="853.173828"/>
       <use xlink:href="#OpenSans-Bold-65" x="902.880859"/>
       <use xlink:href="#OpenSans-Bold-61" x="961.962891"/>
       <use xlink:href="#OpenSans-Bold-73" x="1022.363281"/>
       <use xlink:href="#OpenSans-Bold-65" x="1072.070312"/>
      </g>
     </g>
    </g>
    <g id="xtick_9">
     <g id="line2d_9">
      <g>
       <use xlink:href="#mc4f00f79d2" x="790.4805" y="258.434627" style="fill: #37539c; stroke: #37539c; stroke-width: 0.8"/>
      </g>
     </g>
     <g id="text_9">
      <!-- diabetic patients -->
      <g style="fill: #37539c" transform="translate(768.094825 317.443214) rotate(-45) scale(0.08 -0.08)">
       <use xlink:href="#OpenSans-Bold-64"/>
       <use xlink:href="#OpenSans-Bold-69" x="63.28125"/>
       <use xlink:href="#OpenSans-Bold-61" x="93.798828"/>
       <use xlink:href="#OpenSans-Bold-62" x="154.199219"/>
       <use xlink:href="#OpenSans-Bold-65" x="217.480469"/>
       <use xlink:href="#OpenSans-Bold-74" x="276.5625"/>
       <use xlink:href="#OpenSans-Bold-69" x="319.970703"/>
       <use xlink:href="#OpenSans-Bold-63" x="350.488281"/>
       <use xlink:href="#OpenSans-Bold-20" x="401.904297"/>
       <use xlink:href="#OpenSans-Bold-70" x="427.880859"/>
       <use xlink:href="#OpenSans-Bold-61" x="491.162109"/>
       <use xlink:href="#OpenSans-Bold-74" x="551.5625"/>
       <use xlink:href="#OpenSans-Bold-69" x="594.970703"/>
       <use xlink:href="#OpenSans-Bold-65" x="625.488281"/>
       <use xlink:href="#OpenSans-Bold-6e" x="684.570312"/>
       <use xlink:href="#OpenSans-Bold-74" x="750.292969"/>
       <use xlink:href="#OpenSans-Bold-73" x="793.701172"/>
      </g>
     </g>
    </g>
    <g id="xtick_10">
     <g id="line2d_10">
      <g>
       <use xlink:href="#mc4f00f79d2" x="880.2935" y="258.434627" style="fill: #37539c; stroke: #37539c; stroke-width: 0.8"/>
      </g>
     </g>
     <g id="text_10">
      <!-- insulin -->
      <g style="fill: #37539c" transform="translate(872.191382 288.8761) rotate(-45) scale(0.08 -0.08)">
       <use xlink:href="#OpenSans-Bold-69"/>
       <use xlink:href="#OpenSans-Bold-6e" x="30.517578"/>
       <use xlink:href="#OpenSans-Bold-73" x="96.240234"/>
       <use xlink:href="#OpenSans-Bold-75" x="145.947266"/>
       <use xlink:href="#OpenSans-Bold-6c" x="211.669922"/>
       <use xlink:href="#OpenSans-Bold-69" x="242.1875"/>
       <use xlink:href="#OpenSans-Bold-6e" x="272.705078"/>
      </g>
     </g>
    </g>
    <g id="text_11">
     <!-- Keyword -->
     <g style="fill: #37539c" transform="translate(454.206094 346.679547) scale(0.1 -0.1)">
      <defs>
       <path id="OpenSans-Bold-4b" d="M 4250 0 
L 3150 0 
L 1953 1925 
L 1544 1631 
L 1544 0 
L 575 0 
L 575 4569 
L 1544 4569 
L 1544 2478 
Q 1641 2613 1734 2747 
Q 1828 2881 1925 3016 
L 3163 4569 
L 4238 4569 
L 2644 2547 
L 4250 0 
z
" transform="scale(0.015625)"/>
       <path id="OpenSans-Bold-77" d="M 3372 0 
L 3103 1222 
Q 3081 1331 3031 1545 
Q 2981 1759 2923 2004 
Q 2866 2250 2817 2459 
Q 2769 2669 2747 2766 
L 2719 2766 
Q 2697 2669 2650 2459 
Q 2603 2250 2545 2003 
Q 2488 1756 2438 1539 
Q 2388 1322 2363 1209 
L 2081 0 
L 1056 0 
L 63 3494 
L 1013 3494 
L 1416 1947 
Q 1456 1784 1493 1561 
Q 1531 1338 1561 1130 
Q 1591 922 1606 800 
L 1631 800 
Q 1638 891 1658 1041 
Q 1678 1191 1704 1352 
Q 1731 1513 1754 1642 
Q 1778 1772 1791 1819 
L 2222 3494 
L 3272 3494 
L 3681 1819 
Q 3703 1728 3739 1531 
Q 3775 1334 3803 1126 
Q 3831 919 3834 800 
L 3859 800 
Q 3872 906 3903 1115 
Q 3934 1325 3976 1554 
Q 4019 1784 4063 1947 
L 4481 3494 
L 5416 3494 
L 4409 0 
L 3372 0 
z
" transform="scale(0.015625)"/>
      </defs>
      <use xlink:href="#OpenSans-Bold-4b"/>
      <use xlink:href="#OpenSans-Bold-65" x="66.40625"/>
      <use xlink:href="#OpenSans-Bold-79" x="125.488281"/>
      <use xlink:href="#OpenSans-Bold-77" x="182.373047"/>
      <use xlink:href="#OpenSans-Bold-6f" x="267.96875"/>
      <use xlink:href="#OpenSans-Bold-72" x="329.882812"/>
      <use xlink:href="#OpenSans-Bold-64" x="375.292969"/>
     </g>
    </g>
   </g>
   <g id="matplotlib.axis_2">
    <g id="ytick_1">
     <g id="line2d_11">
      <path d="M 27.07 258.434627 
L 925.2 258.434627 
" clip-path="url(#p3e3987782f)" style="fill: none; stroke-dasharray: 2.96,1.28; stroke-dashoffset: 0; stroke: #b0b0b0; stroke-width: 0.8"/>
     </g>
     <g id="line2d_12">
      <defs>
       <path id="mae4e70b833" d="M 0 0 
L -3.5 0 
" style="stroke: #37539c; stroke-width: 0.8"/>
      </defs>
      <g>
       <use xlink:href="#mae4e70b833" x="27.07" y="258.434627" style="fill: #37539c; stroke: #37539c; stroke-width: 0.8"/>
      </g>
     </g>
     <g id="text_12">
      <!-- 0 -->
      <g style="fill: #37539c" transform="translate(15.49625 261.474002) scale(0.08 -0.08)">
       <defs>
        <path id="OpenSans-Bold-30" d="M 3425 2284 
Q 3425 1731 3339 1297 
Q 3253 863 3064 559 
Q 2875 256 2569 96 
Q 2263 -63 1825 -63 
Q 1275 -63 922 217 
Q 569 497 400 1023 
Q 231 1550 231 2284 
Q 231 3025 386 3551 
Q 541 4078 891 4359 
Q 1241 4641 1825 4641 
Q 2372 4641 2726 4361 
Q 3081 4081 3253 3554 
Q 3425 3028 3425 2284 
z
M 1191 2284 
Q 1191 1763 1248 1414 
Q 1306 1066 1443 891 
Q 1581 716 1825 716 
Q 2066 716 2205 889 
Q 2344 1063 2403 1411 
Q 2463 1759 2463 2284 
Q 2463 2806 2403 3156 
Q 2344 3506 2205 3682 
Q 2066 3859 1825 3859 
Q 1581 3859 1443 3682 
Q 1306 3506 1248 3156 
Q 1191 2806 1191 2284 
z
" transform="scale(0.015625)"/>
       </defs>
       <use xlink:href="#OpenSans-Bold-30"/>
      </g>
     </g>
    </g>
    <g id="ytick_2">
     <g id="line2d_13">
      <path d="M 27.07 217.772126 
L 925.2 217.772126 
" clip-path="url(#p3e3987782f)" style="fill: none; stroke-dasharray: 2.96,1.28; stroke-dashoffset: 0; stroke: #b0b0b0; stroke-width: 0.8"/>
     </g>
     <g id="line2d_14">
      <g>
       <use xlink:href="#mae4e70b833" x="27.07" y="217.772126" style="fill: #37539c; stroke: #37539c; stroke-width: 0.8"/>
      </g>
     </g>
     <g id="text_13">
      <!-- 5 -->
      <g style="fill: #37539c" transform="translate(15.49625 220.811501) scale(0.08 -0.08)">
       <defs>
        <path id="OpenSans-Bold-35" d="M 1919 2919 
Q 2338 2919 2664 2759 
Q 2991 2600 3178 2290 
Q 3366 1981 3366 1528 
Q 3366 1034 3161 676 
Q 2956 319 2551 128 
Q 2147 -63 1544 -63 
Q 1184 -63 867 -2 
Q 550 59 313 184 
L 313 1019 
Q 550 894 883 808 
Q 1216 722 1509 722 
Q 1797 722 1994 798 
Q 2191 875 2292 1036 
Q 2394 1197 2394 1447 
Q 2394 1781 2169 1959 
Q 1944 2138 1478 2138 
Q 1300 2138 1108 2103 
Q 916 2069 788 2034 
L 403 2241 
L 575 4569 
L 3053 4569 
L 3053 3750 
L 1422 3750 
L 1338 2853 
Q 1444 2875 1569 2897 
Q 1694 2919 1919 2919 
z
" transform="scale(0.015625)"/>
       </defs>
       <use xlink:href="#OpenSans-Bold-35"/>
      </g>
     </g>
    </g>
    <g id="ytick_3">
     <g id="line2d_15">
      <path d="M 27.07 177.109626 
L 925.2 177.109626 
" clip-path="url(#p3e3987782f)" style="fill: none; stroke-dasharray: 2.96,1.28; stroke-dashoffset: 0; stroke: #b0b0b0; stroke-width: 0.8"/>
     </g>
     <g id="line2d_16">
      <g>
       <use xlink:href="#mae4e70b833" x="27.07" y="177.109626" style="fill: #37539c; stroke: #37539c; stroke-width: 0.8"/>
      </g>
     </g>
     <g id="text_14">
      <!-- 10 -->
      <g style="fill: #37539c" transform="translate(10.9225 180.149001) scale(0.08 -0.08)">
       <defs>
        <path id="OpenSans-Bold-31" d="M 2644 0 
L 1678 0 
L 1678 2644 
Q 1678 2753 1681 2914 
Q 1684 3075 1690 3245 
Q 1697 3416 1703 3553 
Q 1669 3513 1564 3414 
Q 1459 3316 1369 3238 
L 844 2816 
L 378 3397 
L 1850 4569 
L 2644 4569 
L 2644 0 
z
" transform="scale(0.015625)"/>
       </defs>
       <use xlink:href="#OpenSans-Bold-31"/>
       <use xlink:href="#OpenSans-Bold-30" x="57.177734"/>
      </g>
     </g>
    </g>
    <g id="ytick_4">
     <g id="line2d_17">
      <path d="M 27.07 136.447126 
L 925.2 136.447126 
" clip-path="url(#p3e3987782f)" style="fill: none; stroke-dasharray: 2.96,1.28; stroke-dashoffset: 0; stroke: #b0b0b0; stroke-width: 0.8"/>
     </g>
     <g id="line2d_18">
      <g>
       <use xlink:href="#mae4e70b833" x="27.07" y="136.447126" style="fill: #37539c; stroke: #37539c; stroke-width: 0.8"/>
      </g>
     </g>
     <g id="text_15">
      <!-- 15 -->
      <g style="fill: #37539c" transform="translate(10.9225 139.486501) scale(0.08 -0.08)">
       <use xlink:href="#OpenSans-Bold-31"/>
       <use xlink:href="#OpenSans-Bold-35" x="57.177734"/>
      </g>
     </g>
    </g>
    <g id="ytick_5">
     <g id="line2d_19">
      <path d="M 27.07 95.784626 
L 925.2 95.784626 
" clip-path="url(#p3e3987782f)" style="fill: none; stroke-dasharray: 2.96,1.28; stroke-dashoffset: 0; stroke: #b0b0b0; stroke-width: 0.8"/>
     </g>
     <g id="line2d_20">
      <g>
       <use xlink:href="#mae4e70b833" x="27.07" y="95.784626" style="fill: #37539c; stroke: #37539c; stroke-width: 0.8"/>
      </g>
     </g>
     <g id="text_16">
      <!-- 20 -->
      <g style="fill: #37539c" transform="translate(10.9225 98.824001) scale(0.08 -0.08)">
       <defs>
        <path id="OpenSans-Bold-32" d="M 3450 0 
L 256 0 
L 256 672 
L 1403 1831 
Q 1750 2188 1961 2427 
Q 2172 2666 2267 2862 
Q 2363 3059 2363 3284 
Q 2363 3556 2211 3692 
Q 2059 3828 1806 3828 
Q 1541 3828 1291 3706 
Q 1041 3584 769 3359 
L 244 3981 
Q 441 4150 661 4300 
Q 881 4450 1173 4542 
Q 1466 4634 1875 4634 
Q 2325 4634 2648 4471 
Q 2972 4309 3147 4029 
Q 3322 3750 3322 3397 
Q 3322 3019 3172 2706 
Q 3022 2394 2736 2087 
Q 2450 1781 2047 1409 
L 1459 856 
L 1459 813 
L 3450 813 
L 3450 0 
z
" transform="scale(0.015625)"/>
       </defs>
       <use xlink:href="#OpenSans-Bold-32"/>
       <use xlink:href="#OpenSans-Bold-30" x="57.177734"/>
      </g>
     </g>
    </g>
    <g id="ytick_6">
     <g id="line2d_21">
      <path d="M 27.07 55.122125 
L 925.2 55.122125 
" clip-path="url(#p3e3987782f)" style="fill: none; stroke-dasharray: 2.96,1.28; stroke-dashoffset: 0; stroke: #b0b0b0; stroke-width: 0.8"/>
     </g>
     <g id="line2d_22">
      <g>
       <use xlink:href="#mae4e70b833" x="27.07" y="55.122125" style="fill: #37539c; stroke: #37539c; stroke-width: 0.8"/>
      </g>
     </g>
     <g id="text_17">
      <!-- 25 -->
      <g style="fill: #37539c" transform="translate(10.9225 58.1615) scale(0.08 -0.08)">
       <use xlink:href="#OpenSans-Bold-32"/>
       <use xlink:href="#OpenSans-Bold-35" x="57.177734"/>
      </g>
     </g>
    </g>
    <g id="ytick_7">
     <g id="line2d_23">
      <path d="M 27.07 14.459625 
L 925.2 14.459625 
" clip-path="url(#p3e3987782f)" style="fill: none; stroke-dasharray: 2.96,1.28; stroke-dashoffset: 0; stroke: #b0b0b0; stroke-width: 0.8"/>
     </g>
     <g id="line2d_24">
      <g>
       <use xlink:href="#mae4e70b833" x="27.07" y="14.459625" style="fill: #37539c; stroke: #37539c; stroke-width: 0.8"/>
      </g>
     </g>
     <g id="text_18">
      <!-- 30 -->
      <g style="fill: #37539c" transform="translate(10.9225 17.499) scale(0.08 -0.08)">
       <defs>
        <path id="OpenSans-Bold-33" d="M 3272 3547 
Q 3272 3231 3140 3000 
Q 3009 2769 2786 2622 
Q 2563 2475 2284 2406 
L 2284 2388 
Q 2834 2319 3120 2050 
Q 3406 1781 3406 1331 
Q 3406 931 3211 615 
Q 3016 300 2609 118 
Q 2203 -63 1563 -63 
Q 1184 -63 857 -2 
Q 531 59 244 184 
L 244 1006 
Q 538 856 859 779 
Q 1181 703 1459 703 
Q 1978 703 2186 883 
Q 2394 1063 2394 1388 
Q 2394 1578 2297 1709 
Q 2200 1841 1961 1909 
Q 1722 1978 1294 1978 
L 947 1978 
L 947 2719 
L 1300 2719 
Q 1722 2719 1942 2798 
Q 2163 2878 2242 3017 
Q 2322 3156 2322 3334 
Q 2322 3578 2172 3715 
Q 2022 3853 1672 3853 
Q 1453 3853 1273 3798 
Q 1094 3744 950 3667 
Q 806 3591 697 3519 
L 250 4184 
Q 519 4378 880 4506 
Q 1241 4634 1741 4634 
Q 2447 4634 2859 4350 
Q 3272 4066 3272 3547 
z
" transform="scale(0.015625)"/>
       </defs>
       <use xlink:href="#OpenSans-Bold-33"/>
       <use xlink:href="#OpenSans-Bold-30" x="57.177734"/>
      </g>
     </g>
    </g>
   </g>
   <g id="patch_3">
    <path d="M 49.52325 258.434627 
L 53.605659 258.434627 
L 53.605659 250.302127 
L 49.52325 250.302127 
z
" clip-path="url(#p3e3987782f)" style="fill: #37539c"/>
   </g>
   <g id="patch_4">
    <path d="M 139.33625 258.434627 
L 143.418659 258.434627 
L 143.418659 168.977126 
L 139.33625 168.977126 
z
" clip-path="url(#p3e3987782f)" style="fill: #37539c"/>
   </g>
   <g id="patch_5">
    <path d="M 229.14925 258.434627 
L 233.231659 258.434627 
L 233.231659 193.374626 
L 229.14925 193.374626 
z
" clip-path="url(#p3e3987782f)" style="fill: #37539c"/>
   </g>
   <g id="patch_6">
    <path d="M 318.96225 258.434627 
L 323.044659 258.434627 
L 323.044659 250.302127 
L 318.96225 250.302127 
z
" clip-path="url(#p3e3987782f)" style="fill: #37539c"/>
   </g>
   <g id="patch_7">
    <path d="M 408.77525 258.434627 
L 412.857659 258.434627 
L 412.857659 250.302127 
L 408.77525 250.302127 
z
" clip-path="url(#p3e3987782f)" style="fill: #37539c"/>
   </g>
   <g id="patch_8">
    <path d="M 498.58825 258.434627 
L 502.670659 258.434627 
L 502.670659 234.037127 
L 498.58825 234.037127 
z
" clip-path="url(#p3e3987782f)" style="fill: #37539c"/>
   </g>
   <g id="patch_9">
    <path d="M 588.40125 258.434627 
L 592.483659 258.434627 
L 592.483659 258.434627 
L 588.40125 258.434627 
z
" clip-path="url(#p3e3987782f)" style="fill: #37539c"/>
   </g>
   <g id="patch_10">
    <path d="M 678.21425 258.434627 
L 682.296659 258.434627 
L 682.296659 258.434627 
L 678.21425 258.434627 
z
" clip-path="url(#p3e3987782f)" style="fill: #37539c"/>
   </g>
   <g id="patch_11">
    <path d="M 768.02725 258.434627 
L 772.109659 258.434627 
L 772.109659 250.302127 
L 768.02725 250.302127 
z
" clip-path="url(#p3e3987782f)" style="fill: #37539c"/>
   </g>
   <g id="patch_12">
    <path d="M 857.84025 258.434627 
L 861.922659 258.434627 
L 861.922659 258.434627 
L 857.84025 258.434627 
z
" clip-path="url(#p3e3987782f)" style="fill: #37539c"/>
   </g>
   <g id="patch_13">
    <path d="M 53.605659 258.434627 
L 57.688068 258.434627 
L 57.688068 225.904626 
L 53.605659 225.904626 
z
" clip-path="url(#p3e3987782f)" style="fill: #59c3c3"/>
   </g>
   <g id="patch_14">
    <path d="M 143.418659 258.434627 
L 147.501068 258.434627 
L 147.501068 209.639626 
L 143.418659 209.639626 
z
" clip-path="url(#p3e3987782f)" style="fill: #59c3c3"/>
   </g>
   <g id="patch_15">
    <path d="M 233.231659 258.434627 
L 237.314068 258.434627 
L 237.314068 258.434627 
L 233.231659 258.434627 
z
" clip-path="url(#p3e3987782f)" style="fill: #59c3c3"/>
   </g>
   <g id="patch_16">
    <path d="M 323.044659 258.434627 
L 327.127068 258.434627 
L 327.127068 242.169627 
L 323.044659 242.169627 
z
" clip-path="url(#p3e3987782f)" style="fill: #59c3c3"/>
   </g>
   <g id="patch_17">
    <path d="M 412.857659 258.434627 
L 416.940068 258.434627 
L 416.940068 250.302127 
L 412.857659 250.302127 
z
" clip-path="url(#p3e3987782f)" style="fill: #59c3c3"/>
   </g>
   <g id="patch_18">
    <path d="M 502.670659 258.434627 
L 506.753068 258.434627 
L 506.753068 258.434627 
L 502.670659 258.434627 
z
" clip-path="url(#p3e3987782f)" style="fill: #59c3c3"/>
   </g>
   <g id="patch_19">
    <path d="M 592.483659 258.434627 
L 596.566068 258.434627 
L 596.566068 242.169627 
L 592.483659 242.169627 
z
" clip-path="url(#p3e3987782f)" style="fill: #59c3c3"/>
   </g>
   <g id="patch_20">
    <path d="M 682.296659 258.434627 
L 686.379068 258.434627 
L 686.379068 250.302127 
L 682.296659 250.302127 
z
" clip-path="url(#p3e3987782f)" style="fill: #59c3c3"/>
   </g>
   <g id="patch_21">
    <path d="M 772.109659 258.434627 
L 776.192068 258.434627 
L 776.192068 242.169627 
L 772.109659 242.169627 
z
" clip-path="url(#p3e3987782f)" style="fill: #59c3c3"/>
   </g>
   <g id="patch_22">
    <path d="M 861.922659 258.434627 
L 866.005068 258.434627 
L 866.005068 258.434627 
L 861.922659 258.434627 
z
" clip-path="url(#p3e3987782f)" style="fill: #59c3c3"/>
   </g>
   <g id="patch_23">
    <path d="M 57.688068 258.434627 
L 61.770477 258.434627 
L 61.770477 193.374626 
L 57.688068 193.374626 
z
" clip-path="url(#p3e3987782f)" style="fill: #f45b69"/>
   </g>
   <g id="patch_24">
    <path d="M 147.501068 258.434627 
L 151.583477 258.434627 
L 151.583477 112.049626 
L 147.501068 112.049626 
z
" clip-path="url(#p3e3987782f)" style="fill: #f45b69"/>
   </g>
   <g id="patch_25">
    <path d="M 237.314068 258.434627 
L 241.396477 258.434627 
L 241.396477 209.639626 
L 237.314068 209.639626 
z
" clip-path="url(#p3e3987782f)" style="fill: #f45b69"/>
   </g>
   <g id="patch_26">
    <path d="M 327.127068 258.434627 
L 331.209477 258.434627 
L 331.209477 250.302127 
L 327.127068 250.302127 
z
" clip-path="url(#p3e3987782f)" style="fill: #f45b69"/>
   </g>
   <g id="patch_27">
    <path d="M 416.940068 258.434627 
L 421.022477 258.434627 
L 421.022477 258.434627 
L 416.940068 258.434627 
z
" clip-path="url(#p3e3987782f)" style="fill: #f45b69"/>
   </g>
   <g id="patch_28">
    <path d="M 506.753068 258.434627 
L 510.835477 258.434627 
L 510.835477 242.169627 
L 506.753068 242.169627 
z
" clip-path="url(#p3e3987782f)" style="fill: #f45b69"/>
   </g>
   <g id="patch_29">
    <path d="M 596.566068 258.434627 
L 600.648477 258.434627 
L 600.648477 234.037127 
L 596.566068 234.037127 
z
" clip-path="url(#p3e3987782f)" style="fill: #f45b69"/>
   </g>
   <g id="patch_30">
    <path d="M 686.379068 258.434627 
L 690.461477 258.434627 
L 690.461477 250.302127 
L 686.379068 250.302127 
z
" clip-path="url(#p3e3987782f)" style="fill: #f45b69"/>
   </g>
   <g id="patch_31">
    <path d="M 776.192068 258.434627 
L 780.274477 258.434627 
L 780.274477 242.169627 
L 776.192068 242.169627 
z
" clip-path="url(#p3e3987782f)" style="fill: #f45b69"/>
   </g>
   <g id="patch_32">
    <path d="M 866.005068 258.434627 
L 870.087477 258.434627 
L 870.087477 201.507126 
L 866.005068 201.507126 
z
" clip-path="url(#p3e3987782f)" style="fill: #f45b69"/>
   </g>
   <g id="patch_33">
    <path d="M 61.770477 258.434627 
L 65.852886 258.434627 
L 65.852886 250.302127 
L 61.770477 250.302127 
z
" clip-path="url(#p3e3987782f)" style="fill: #52489c"/>
   </g>
   <g id="patch_34">
    <path d="M 151.583477 258.434627 
L 155.665886 258.434627 
L 155.665886 136.447126 
L 151.583477 136.447126 
z
" clip-path="url(#p3e3987782f)" style="fill: #52489c"/>
   </g>
   <g id="patch_35">
    <path d="M 241.396477 258.434627 
L 245.478886 258.434627 
L 245.478886 250.302127 
L 241.396477 250.302127 
z
" clip-path="url(#p3e3987782f)" style="fill: #52489c"/>
   </g>
   <g id="patch_36">
    <path d="M 331.209477 258.434627 
L 335.291886 258.434627 
L 335.291886 258.434627 
L 331.209477 258.434627 
z
" clip-path="url(#p3e3987782f)" style="fill: #52489c"/>
   </g>
   <g id="patch_37">
    <path d="M 421.022477 258.434627 
L 425.104886 258.434627 
L 425.104886 258.434627 
L 421.022477 258.434627 
z
" clip-path="url(#p3e3987782f)" style="fill: #52489c"/>
   </g>
   <g id="patch_38">
    <path d="M 510.835477 258.434627 
L 514.917886 258.434627 
L 514.917886 250.302127 
L 510.835477 250.302127 
z
" clip-path="url(#p3e3987782f)" style="fill: #52489c"/>
   </g>
   <g id="patch_39">
    <path d="M 600.648477 258.434627 
L 604.730886 258.434627 
L 604.730886 250.302127 
L 600.648477 250.302127 
z
" clip-path="url(#p3e3987782f)" style="fill: #52489c"/>
   </g>
   <g id="patch_40">
    <path d="M 690.461477 258.434627 
L 694.543886 258.434627 
L 694.543886 258.434627 
L 690.461477 258.434627 
z
" clip-path="url(#p3e3987782f)" style="fill: #52489c"/>
   </g>
   <g id="patch_41">
    <path d="M 780.274477 258.434627 
L 784.356886 258.434627 
L 784.356886 250.302127 
L 780.274477 250.302127 
z
" clip-path="url(#p3e3987782f)" style="fill: #52489c"/>
   </g>
   <g id="patch_42">
    <path d="M 870.087477 258.434627 
L 874.169886 258.434627 
L 874.169886 250.302127 
L 870.087477 250.302127 
z
" clip-path="url(#p3e3987782f)" style="fill: #52489c"/>
   </g>
   <g id="patch_43">
    <path d="M 65.852886 258.434627 
L 69.935295 258.434627 
L 69.935295 201.507126 
L 65.852886 201.507126 
z
" clip-path="url(#p3e3987782f)" style="fill: #9fb7b9"/>
   </g>
   <g id="patch_44">
    <path d="M 155.665886 258.434627 
L 159.748295 258.434627 
L 159.748295 87.652126 
L 155.665886 87.652126 
z
" clip-path="url(#p3e3987782f)" style="fill: #9fb7b9"/>
   </g>
   <g id="patch_45">
    <path d="M 245.478886 258.434627 
L 249.561295 258.434627 
L 249.561295 234.037127 
L 245.478886 234.037127 
z
" clip-path="url(#p3e3987782f)" style="fill: #9fb7b9"/>
   </g>
   <g id="patch_46">
    <path d="M 335.291886 258.434627 
L 339.374295 258.434627 
L 339.374295 225.904626 
L 335.291886 225.904626 
z
" clip-path="url(#p3e3987782f)" style="fill: #9fb7b9"/>
   </g>
   <g id="patch_47">
    <path d="M 425.104886 258.434627 
L 429.187295 258.434627 
L 429.187295 242.169627 
L 425.104886 242.169627 
z
" clip-path="url(#p3e3987782f)" style="fill: #9fb7b9"/>
   </g>
   <g id="patch_48">
    <path d="M 514.917886 258.434627 
L 519.000295 258.434627 
L 519.000295 234.037127 
L 514.917886 234.037127 
z
" clip-path="url(#p3e3987782f)" style="fill: #9fb7b9"/>
   </g>
   <g id="patch_49">
    <path d="M 604.730886 258.434627 
L 608.813295 258.434627 
L 608.813295 234.037127 
L 604.730886 234.037127 
z
" clip-path="url(#p3e3987782f)" style="fill: #9fb7b9"/>
   </g>
   <g id="patch_50">
    <path d="M 694.543886 258.434627 
L 698.626295 258.434627 
L 698.626295 234.037127 
L 694.543886 234.037127 
z
" clip-path="url(#p3e3987782f)" style="fill: #9fb7b9"/>
   </g>
   <g id="patch_51">
    <path d="M 784.356886 258.434627 
L 788.439295 258.434627 
L 788.439295 258.434627 
L 784.356886 258.434627 
z
" clip-path="url(#p3e3987782f)" style="fill: #9fb7b9"/>
   </g>
   <g id="patch_52">
    <path d="M 874.169886 258.434627 
L 878.252295 258.434627 
L 878.252295 242.169627 
L 874.169886 242.169627 
z
" clip-path="url(#p3e3987782f)" style="fill: #9fb7b9"/>
   </g>
   <g id="patch_53">
    <path d="M 69.935295 258.434627 
L 74.017705 258.434627 
L 74.017705 201.507126 
L 69.935295 201.507126 
z
" clip-path="url(#p3e3987782f)" style="fill: #ebebeb"/>
   </g>
   <g id="patch_54">
    <path d="M 159.748295 258.434627 
L 163.830705 258.434627 
L 163.830705 63.254625 
L 159.748295 63.254625 
z
" clip-path="url(#p3e3987782f)" style="fill: #ebebeb"/>
   </g>
   <g id="patch_55">
    <path d="M 249.561295 258.434627 
L 253.643705 258.434627 
L 253.643705 250.302127 
L 249.561295 250.302127 
z
" clip-path="url(#p3e3987782f)" style="fill: #ebebeb"/>
   </g>
   <g id="patch_56">
    <path d="M 339.374295 258.434627 
L 343.456705 258.434627 
L 343.456705 225.904626 
L 339.374295 225.904626 
z
" clip-path="url(#p3e3987782f)" style="fill: #ebebeb"/>
   </g>
   <g id="patch_57">
    <path d="M 429.187295 258.434627 
L 433.269705 258.434627 
L 433.269705 250.302127 
L 429.187295 250.302127 
z
" clip-path="url(#p3e3987782f)" style="fill: #ebebeb"/>
   </g>
   <g id="patch_58">
    <path d="M 519.000295 258.434627 
L 523.082705 258.434627 
L 523.082705 250.302127 
L 519.000295 250.302127 
z
" clip-path="url(#p3e3987782f)" style="fill: #ebebeb"/>
   </g>
   <g id="patch_59">
    <path d="M 608.813295 258.434627 
L 612.895705 258.434627 
L 612.895705 242.169627 
L 608.813295 242.169627 
z
" clip-path="url(#p3e3987782f)" style="fill: #ebebeb"/>
   </g>
   <g id="patch_60">
    <path d="M 698.626295 258.434627 
L 702.708705 258.434627 
L 702.708705 242.169627 
L 698.626295 242.169627 
z
" clip-path="url(#p3e3987782f)" style="fill: #ebebeb"/>
   </g>
   <g id="patch_61">
    <path d="M 788.439295 258.434627 
L 792.521705 258.434627 
L 792.521705 250.302127 
L 788.439295 250.302127 
z
" clip-path="url(#p3e3987782f)" style="fill: #ebebeb"/>
   </g>
   <g id="patch_62">
    <path d="M 878.252295 258.434627 
L 882.334705 258.434627 
L 882.334705 258.434627 
L 878.252295 258.434627 
z
" clip-path="url(#p3e3987782f)" style="fill: #ebebeb"/>
   </g>
   <g id="patch_63">
    <path d="M 74.017705 258.434627 
L 78.100114 258.434627 
L 78.100114 144.579626 
L 74.017705 144.579626 
z
" clip-path="url(#p3e3987782f)" style="fill: #4062bb"/>
   </g>
   <g id="patch_64">
    <path d="M 163.830705 258.434627 
L 167.913114 258.434627 
L 167.913114 112.049626 
L 163.830705 112.049626 
z
" clip-path="url(#p3e3987782f)" style="fill: #4062bb"/>
   </g>
   <g id="patch_65">
    <path d="M 253.643705 258.434627 
L 257.726114 258.434627 
L 257.726114 217.772126 
L 253.643705 217.772126 
z
" clip-path="url(#p3e3987782f)" style="fill: #4062bb"/>
   </g>
   <g id="patch_66">
    <path d="M 343.456705 258.434627 
L 347.539114 258.434627 
L 347.539114 258.434627 
L 343.456705 258.434627 
z
" clip-path="url(#p3e3987782f)" style="fill: #4062bb"/>
   </g>
   <g id="patch_67">
    <path d="M 433.269705 258.434627 
L 437.352114 258.434627 
L 437.352114 217.772126 
L 433.269705 217.772126 
z
" clip-path="url(#p3e3987782f)" style="fill: #4062bb"/>
   </g>
   <g id="patch_68">
    <path d="M 523.082705 258.434627 
L 527.165114 258.434627 
L 527.165114 217.772126 
L 523.082705 217.772126 
z
" clip-path="url(#p3e3987782f)" style="fill: #4062bb"/>
   </g>
   <g id="patch_69">
    <path d="M 612.895705 258.434627 
L 616.978114 258.434627 
L 616.978114 234.037127 
L 612.895705 234.037127 
z
" clip-path="url(#p3e3987782f)" style="fill: #4062bb"/>
   </g>
   <g id="patch_70">
    <path d="M 702.708705 258.434627 
L 706.791114 258.434627 
L 706.791114 250.302127 
L 702.708705 250.302127 
z
" clip-path="url(#p3e3987782f)" style="fill: #4062bb"/>
   </g>
   <g id="patch_71">
    <path d="M 792.521705 258.434627 
L 796.604114 258.434627 
L 796.604114 234.037127 
L 792.521705 234.037127 
z
" clip-path="url(#p3e3987782f)" style="fill: #4062bb"/>
   </g>
   <g id="patch_72">
    <path d="M 882.334705 258.434627 
L 886.417114 258.434627 
L 886.417114 242.169627 
L 882.334705 242.169627 
z
" clip-path="url(#p3e3987782f)" style="fill: #4062bb"/>
   </g>
   <g id="patch_73">
    <path d="M 78.100114 258.434627 
L 82.182523 258.434627 
L 82.182523 217.772126 
L 78.100114 217.772126 
z
" clip-path="url(#p3e3987782f)" style="fill: #46b1c9"/>
   </g>
   <g id="patch_74">
    <path d="M 167.913114 258.434627 
L 171.995523 258.434627 
L 171.995523 22.592125 
L 167.913114 22.592125 
z
" clip-path="url(#p3e3987782f)" style="fill: #46b1c9"/>
   </g>
   <g id="patch_75">
    <path d="M 257.726114 258.434627 
L 261.808523 258.434627 
L 261.808523 225.904626 
L 257.726114 225.904626 
z
" clip-path="url(#p3e3987782f)" style="fill: #46b1c9"/>
   </g>
   <g id="patch_76">
    <path d="M 347.539114 258.434627 
L 351.621523 258.434627 
L 351.621523 209.639626 
L 347.539114 209.639626 
z
" clip-path="url(#p3e3987782f)" style="fill: #46b1c9"/>
   </g>
   <g id="patch_77">
    <path d="M 437.352114 258.434627 
L 441.434523 258.434627 
L 441.434523 258.434627 
L 437.352114 258.434627 
z
" clip-path="url(#p3e3987782f)" style="fill: #46b1c9"/>
   </g>
   <g id="patch_78">
    <path d="M 527.165114 258.434627 
L 531.247523 258.434627 
L 531.247523 234.037127 
L 527.165114 234.037127 
z
" clip-path="url(#p3e3987782f)" style="fill: #46b1c9"/>
   </g>
   <g id="patch_79">
    <path d="M 616.978114 258.434627 
L 621.060523 258.434627 
L 621.060523 250.302127 
L 616.978114 250.302127 
z
" clip-path="url(#p3e3987782f)" style="fill: #46b1c9"/>
   </g>
   <g id="patch_80">
    <path d="M 706.791114 258.434627 
L 710.873523 258.434627 
L 710.873523 250.302127 
L 706.791114 250.302127 
z
" clip-path="url(#p3e3987782f)" style="fill: #46b1c9"/>
   </g>
   <g id="patch_81">
    <path d="M 796.604114 258.434627 
L 800.686523 258.434627 
L 800.686523 250.302127 
L 796.604114 250.302127 
z
" clip-path="url(#p3e3987782f)" style="fill: #46b1c9"/>
   </g>
   <g id="patch_82">
    <path d="M 886.417114 258.434627 
L 890.499523 258.434627 
L 890.499523 234.037127 
L 886.417114 234.037127 
z
" clip-path="url(#p3e3987782f)" style="fill: #46b1c9"/>
   </g>
   <g id="patch_83">
    <path d="M 82.182523 258.434627 
L 86.264932 258.434627 
L 86.264932 185.242126 
L 82.182523 185.242126 
z
" clip-path="url(#p3e3987782f)" style="fill: #84c0c6"/>
   </g>
   <g id="patch_84">
    <path d="M 171.995523 258.434627 
L 176.077932 258.434627 
L 176.077932 55.122125 
L 171.995523 55.122125 
z
" clip-path="url(#p3e3987782f)" style="fill: #84c0c6"/>
   </g>
   <g id="patch_85">
    <path d="M 261.808523 258.434627 
L 265.890932 258.434627 
L 265.890932 209.639626 
L 261.808523 209.639626 
z
" clip-path="url(#p3e3987782f)" style="fill: #84c0c6"/>
   </g>
   <g id="patch_86">
    <path d="M 351.621523 258.434627 
L 355.703932 258.434627 
L 355.703932 234.037127 
L 351.621523 234.037127 
z
" clip-path="url(#p3e3987782f)" style="fill: #84c0c6"/>
   </g>
   <g id="patch_87">
    <path d="M 441.434523 258.434627 
L 445.516932 258.434627 
L 445.516932 225.904626 
L 441.434523 225.904626 
z
" clip-path="url(#p3e3987782f)" style="fill: #84c0c6"/>
   </g>
   <g id="patch_88">
    <path d="M 531.247523 258.434627 
L 535.329932 258.434627 
L 535.329932 250.302127 
L 531.247523 250.302127 
z
" clip-path="url(#p3e3987782f)" style="fill: #84c0c6"/>
   </g>
   <g id="patch_89">
    <path d="M 621.060523 258.434627 
L 625.142932 258.434627 
L 625.142932 250.302127 
L 621.060523 250.302127 
z
" clip-path="url(#p3e3987782f)" style="fill: #84c0c6"/>
   </g>
   <g id="patch_90">
    <path d="M 710.873523 258.434627 
L 714.955932 258.434627 
L 714.955932 225.904626 
L 710.873523 225.904626 
z
" clip-path="url(#p3e3987782f)" style="fill: #84c0c6"/>
   </g>
   <g id="patch_91">
    <path d="M 800.686523 258.434627 
L 804.768932 258.434627 
L 804.768932 242.169627 
L 800.686523 242.169627 
z
" clip-path="url(#p3e3987782f)" style="fill: #84c0c6"/>
   </g>
   <g id="patch_92">
    <path d="M 890.499523 258.434627 
L 894.581932 258.434627 
L 894.581932 258.434627 
L 890.499523 258.434627 
z
" clip-path="url(#p3e3987782f)" style="fill: #84c0c6"/>
   </g>
   <g id="patch_93">
    <path d="M 86.264932 258.434627 
L 90.347341 258.434627 
L 90.347341 160.844626 
L 86.264932 160.844626 
z
" clip-path="url(#p3e3987782f)" style="fill: #bcc1ba"/>
   </g>
   <g id="patch_94">
    <path d="M 176.077932 258.434627 
L 180.160341 258.434627 
L 180.160341 79.519625 
L 176.077932 79.519625 
z
" clip-path="url(#p3e3987782f)" style="fill: #bcc1ba"/>
   </g>
   <g id="patch_95">
    <path d="M 265.890932 258.434627 
L 269.973341 258.434627 
L 269.973341 250.302127 
L 265.890932 250.302127 
z
" clip-path="url(#p3e3987782f)" style="fill: #bcc1ba"/>
   </g>
   <g id="patch_96">
    <path d="M 355.703932 258.434627 
L 359.786341 258.434627 
L 359.786341 225.904626 
L 355.703932 225.904626 
z
" clip-path="url(#p3e3987782f)" style="fill: #bcc1ba"/>
   </g>
   <g id="patch_97">
    <path d="M 445.516932 258.434627 
L 449.599341 258.434627 
L 449.599341 242.169627 
L 445.516932 242.169627 
z
" clip-path="url(#p3e3987782f)" style="fill: #bcc1ba"/>
   </g>
   <g id="patch_98">
    <path d="M 535.329932 258.434627 
L 539.412341 258.434627 
L 539.412341 250.302127 
L 535.329932 250.302127 
z
" clip-path="url(#p3e3987782f)" style="fill: #bcc1ba"/>
   </g>
   <g id="patch_99">
    <path d="M 625.142932 258.434627 
L 629.225341 258.434627 
L 629.225341 250.302127 
L 625.142932 250.302127 
z
" clip-path="url(#p3e3987782f)" style="fill: #bcc1ba"/>
   </g>
   <g id="patch_100">
    <path d="M 714.955932 258.434627 
L 719.038341 258.434627 
L 719.038341 258.434627 
L 714.955932 258.434627 
z
" clip-path="url(#p3e3987782f)" style="fill: #bcc1ba"/>
   </g>
   <g id="patch_101">
    <path d="M 804.768932 258.434627 
L 808.851341 258.434627 
L 808.851341 250.302127 
L 804.768932 250.302127 
z
" clip-path="url(#p3e3987782f)" style="fill: #bcc1ba"/>
   </g>
   <g id="patch_102">
    <path d="M 894.581932 258.434627 
L 898.664341 258.434627 
L 898.664341 250.302127 
L 894.581932 250.302127 
z
" clip-path="url(#p3e3987782f)" style="fill: #bcc1ba"/>
   </g>
   <g id="patch_103">
    <path d="M 90.347341 258.434627 
L 94.42975 258.434627 
L 94.42975 185.242126 
L 90.347341 185.242126 
z
" clip-path="url(#p3e3987782f)" style="fill: #f2e2d2"/>
   </g>
   <g id="patch_104">
    <path d="M 180.160341 258.434627 
L 184.24275 258.434627 
L 184.24275 152.712126 
L 180.160341 152.712126 
z
" clip-path="url(#p3e3987782f)" style="fill: #f2e2d2"/>
   </g>
   <g id="patch_105">
    <path d="M 269.973341 258.434627 
L 274.05575 258.434627 
L 274.05575 234.037127 
L 269.973341 234.037127 
z
" clip-path="url(#p3e3987782f)" style="fill: #f2e2d2"/>
   </g>
   <g id="patch_106">
    <path d="M 359.786341 258.434627 
L 363.86875 258.434627 
L 363.86875 217.772126 
L 359.786341 217.772126 
z
" clip-path="url(#p3e3987782f)" style="fill: #f2e2d2"/>
   </g>
   <g id="patch_107">
    <path d="M 449.599341 258.434627 
L 453.68175 258.434627 
L 453.68175 225.904626 
L 449.599341 225.904626 
z
" clip-path="url(#p3e3987782f)" style="fill: #f2e2d2"/>
   </g>
   <g id="patch_108">
    <path d="M 539.412341 258.434627 
L 543.49475 258.434627 
L 543.49475 258.434627 
L 539.412341 258.434627 
z
" clip-path="url(#p3e3987782f)" style="fill: #f2e2d2"/>
   </g>
   <g id="patch_109">
    <path d="M 629.225341 258.434627 
L 633.30775 258.434627 
L 633.30775 242.169627 
L 629.225341 242.169627 
z
" clip-path="url(#p3e3987782f)" style="fill: #f2e2d2"/>
   </g>
   <g id="patch_110">
    <path d="M 719.038341 258.434627 
L 723.12075 258.434627 
L 723.12075 225.904626 
L 719.038341 225.904626 
z
" clip-path="url(#p3e3987782f)" style="fill: #f2e2d2"/>
   </g>
   <g id="patch_111">
    <path d="M 808.851341 258.434627 
L 812.93375 258.434627 
L 812.93375 234.037127 
L 808.851341 234.037127 
z
" clip-path="url(#p3e3987782f)" style="fill: #f2e2d2"/>
   </g>
   <g id="patch_112">
    <path d="M 898.664341 258.434627 
L 902.74675 258.434627 
L 902.74675 258.434627 
L 898.664341 258.434627 
z
" clip-path="url(#p3e3987782f)" style="fill: #f2e2d2"/>
   </g>
   <g id="patch_113">
    <path d="M 27.07 258.434627 
L 27.07 10.8 
" style="fill: none; stroke: #000000; stroke-width: 0.8; stroke-linejoin: miter; stroke-linecap: square"/>
   </g>
   <g id="patch_114">
    <path d="M 27.07 258.434627 
L 925.2 258.434627 
" style="fill: none; stroke: #000000; stroke-width: 0.8; stroke-linejoin: miter; stroke-linecap: square"/>
   </g>
   <g id="legend_1">
    <g id="patch_115">
     <path d="M 875.705 149.21375 
L 919.6 149.21375 
Q 921.2 149.21375 921.2 147.61375 
L 921.2 16.4 
Q 921.2 14.8 919.6 14.8 
L 875.705 14.8 
Q 874.105 14.8 874.105 16.4 
L 874.105 147.61375 
Q 874.105 149.21375 875.705 149.21375 
z
" style="fill: #ffffff; opacity: 0.8; stroke: #cccccc; stroke-linejoin: miter"/>
    </g>
    <g id="patch_116">
     <path d="M 877.305 24.07875 
L 893.305 24.07875 
L 893.305 18.47875 
L 877.305 18.47875 
z
" style="fill: #37539c"/>
    </g>
    <g id="text_19">
     <!-- 2013 -->
     <g style="fill: #37539c" transform="translate(899.705 24.07875) scale(0.08 -0.08)">
      <use xlink:href="#OpenSans-Bold-32"/>
      <use xlink:href="#OpenSans-Bold-30" x="57.177734"/>
      <use xlink:href="#OpenSans-Bold-31" x="114.355469"/>
      <use xlink:href="#OpenSans-Bold-33" x="171.533203"/>
     </g>
    </g>
    <g id="patch_117">
     <path d="M 877.305 36.08 
L 893.305 36.08 
L 893.305 30.48 
L 877.305 30.48 
z
" style="fill: #59c3c3"/>
    </g>
    <g id="text_20">
     <!-- 2014 -->
     <g style="fill: #37539c" transform="translate(899.705 36.08) scale(0.08 -0.08)">
      <defs>
       <path id="OpenSans-Bold-34" d="M 3553 947 
L 3003 947 
L 3003 0 
L 2059 0 
L 2059 947 
L 109 947 
L 109 1619 
L 2113 4569 
L 3003 4569 
L 3003 1697 
L 3553 1697 
L 3553 947 
z
M 2059 1697 
L 2059 2472 
Q 2059 2581 2064 2731 
Q 2069 2881 2075 3031 
Q 2081 3181 2089 3298 
Q 2097 3416 2100 3463 
L 2075 3463 
Q 2016 3334 1950 3214 
Q 1884 3094 1797 2963 
L 959 1697 
L 2059 1697 
z
" transform="scale(0.015625)"/>
      </defs>
      <use xlink:href="#OpenSans-Bold-32"/>
      <use xlink:href="#OpenSans-Bold-30" x="57.177734"/>
      <use xlink:href="#OpenSans-Bold-31" x="114.355469"/>
      <use xlink:href="#OpenSans-Bold-34" x="171.533203"/>
     </g>
    </g>
    <g id="patch_118">
     <path d="M 877.305 48.08125 
L 893.305 48.08125 
L 893.305 42.48125 
L 877.305 42.48125 
z
" style="fill: #f45b69"/>
    </g>
    <g id="text_21">
     <!-- 2015 -->
     <g style="fill: #37539c" transform="translate(899.705 48.08125) scale(0.08 -0.08)">
      <use xlink:href="#OpenSans-Bold-32"/>
      <use xlink:href="#OpenSans-Bold-30" x="57.177734"/>
      <use xlink:href="#OpenSans-Bold-31" x="114.355469"/>
      <use xlink:href="#OpenSans-Bold-35" x="171.533203"/>
     </g>
    </g>
    <g id="patch_119">
     <path d="M 877.305 60.0825 
L 893.305 60.0825 
L 893.305 54.4825 
L 877.305 54.4825 
z
" style="fill: #52489c"/>
    </g>
    <g id="text_22">
     <!-- 2016 -->
     <g style="fill: #37539c" transform="translate(899.705 60.0825) scale(0.08 -0.08)">
      <defs>
       <path id="OpenSans-Bold-36" d="M 225 1941 
Q 225 2334 283 2720 
Q 341 3106 484 3448 
Q 628 3791 887 4055 
Q 1147 4319 1547 4470 
Q 1947 4622 2516 4622 
Q 2650 4622 2829 4611 
Q 3009 4600 3128 4575 
L 3128 3803 
Q 3003 3831 2861 3848 
Q 2719 3866 2578 3866 
Q 2009 3866 1698 3684 
Q 1388 3503 1261 3183 
Q 1134 2863 1113 2438 
L 1153 2438 
Q 1241 2591 1373 2709 
Q 1506 2828 1697 2898 
Q 1888 2969 2144 2969 
Q 2544 2969 2837 2798 
Q 3131 2628 3290 2306 
Q 3450 1984 3450 1522 
Q 3450 1028 3259 672 
Q 3069 316 2720 126 
Q 2372 -63 1894 -63 
Q 1544 -63 1241 57 
Q 938 178 709 425 
Q 481 672 353 1048 
Q 225 1425 225 1941 
z
M 1875 709 
Q 2159 709 2337 903 
Q 2516 1097 2516 1509 
Q 2516 1844 2361 2036 
Q 2206 2228 1894 2228 
Q 1681 2228 1520 2133 
Q 1359 2038 1271 1892 
Q 1184 1747 1184 1594 
Q 1184 1434 1228 1278 
Q 1272 1122 1359 994 
Q 1447 866 1576 787 
Q 1706 709 1875 709 
z
" transform="scale(0.015625)"/>
      </defs>
      <use xlink:href="#OpenSans-Bold-32"/>
      <use xlink:href="#OpenSans-Bold-30" x="57.177734"/>
      <use xlink:href="#OpenSans-Bold-31" x="114.355469"/>
      <use xlink:href="#OpenSans-Bold-36" x="171.533203"/>
     </g>
    </g>
    <g id="patch_120">
     <path d="M 877.305 72.08375 
L 893.305 72.08375 
L 893.305 66.48375 
L 877.305 66.48375 
z
" style="fill: #9fb7b9"/>
    </g>
    <g id="text_23">
     <!-- 2017 -->
     <g style="fill: #37539c" transform="translate(899.705 72.08375) scale(0.08 -0.08)">
      <defs>
       <path id="OpenSans-Bold-37" d="M 709 0 
L 2425 3756 
L 172 3756 
L 172 4569 
L 3450 4569 
L 3450 3963 
L 1722 0 
L 709 0 
z
" transform="scale(0.015625)"/>
      </defs>
      <use xlink:href="#OpenSans-Bold-32"/>
      <use xlink:href="#OpenSans-Bold-30" x="57.177734"/>
      <use xlink:href="#OpenSans-Bold-31" x="114.355469"/>
      <use xlink:href="#OpenSans-Bold-37" x="171.533203"/>
     </g>
    </g>
    <g id="patch_121">
     <path d="M 877.305 84.085 
L 893.305 84.085 
L 893.305 78.485 
L 877.305 78.485 
z
" style="fill: #ebebeb"/>
    </g>
    <g id="text_24">
     <!-- 2018 -->
     <g style="fill: #37539c" transform="translate(899.705 84.085) scale(0.08 -0.08)">
      <defs>
       <path id="OpenSans-Bold-38" d="M 1831 4628 
Q 2225 4628 2558 4506 
Q 2891 4384 3091 4139 
Q 3291 3894 3291 3525 
Q 3291 3250 3183 3044 
Q 3075 2838 2890 2683 
Q 2706 2528 2472 2413 
Q 2716 2284 2934 2114 
Q 3153 1944 3292 1716 
Q 3431 1488 3431 1184 
Q 3431 803 3228 523 
Q 3025 244 2665 90 
Q 2306 -63 1831 -63 
Q 1319 -63 959 84 
Q 600 231 412 504 
Q 225 778 225 1159 
Q 225 1472 342 1703 
Q 459 1934 659 2101 
Q 859 2269 1100 2388 
Q 897 2516 730 2678 
Q 563 2841 464 3050 
Q 366 3259 366 3531 
Q 366 3894 570 4137 
Q 775 4381 1109 4504 
Q 1444 4628 1831 4628 
z
M 1119 1216 
Q 1119 969 1295 808 
Q 1472 647 1819 647 
Q 2178 647 2356 801 
Q 2534 956 2534 1209 
Q 2534 1384 2432 1515 
Q 2331 1647 2178 1751 
Q 2025 1856 1869 1947 
L 1784 1991 
Q 1584 1900 1436 1787 
Q 1288 1675 1203 1534 
Q 1119 1394 1119 1216 
z
M 1825 3922 
Q 1588 3922 1431 3800 
Q 1275 3678 1275 3456 
Q 1275 3300 1351 3183 
Q 1428 3066 1554 2978 
Q 1681 2891 1831 2816 
Q 1975 2884 2100 2968 
Q 2225 3053 2303 3172 
Q 2381 3291 2381 3456 
Q 2381 3678 2223 3800 
Q 2066 3922 1825 3922 
z
" transform="scale(0.015625)"/>
      </defs>
      <use xlink:href="#OpenSans-Bold-32"/>
      <use xlink:href="#OpenSans-Bold-30" x="57.177734"/>
      <use xlink:href="#OpenSans-Bold-31" x="114.355469"/>
      <use xlink:href="#OpenSans-Bold-38" x="171.533203"/>
     </g>
    </g>
    <g id="patch_122">
     <path d="M 877.305 96.08625 
L 893.305 96.08625 
L 893.305 90.48625 
L 877.305 90.48625 
z
" style="fill: #4062bb"/>
    </g>
    <g id="text_25">
     <!-- 2019 -->
     <g style="fill: #37539c" transform="translate(899.705 96.08625) scale(0.08 -0.08)">
      <defs>
       <path id="OpenSans-Bold-39" d="M 3431 2619 
Q 3431 2225 3373 1837 
Q 3316 1450 3172 1108 
Q 3028 766 2768 502 
Q 2509 238 2109 87 
Q 1709 -63 1141 -63 
Q 1006 -63 825 -52 
Q 644 -41 525 -19 
L 525 756 
Q 650 725 790 708 
Q 931 691 1075 691 
Q 1647 691 1958 872 
Q 2269 1053 2395 1375 
Q 2522 1697 2541 2119 
L 2503 2119 
Q 2413 1969 2289 1848 
Q 2166 1728 1975 1658 
Q 1784 1588 1491 1588 
Q 1100 1588 811 1758 
Q 522 1928 364 2251 
Q 206 2575 206 3034 
Q 206 3531 395 3886 
Q 584 4241 934 4431 
Q 1284 4622 1759 4622 
Q 2109 4622 2412 4501 
Q 2716 4381 2945 4134 
Q 3175 3888 3303 3509 
Q 3431 3131 3431 2619 
z
M 1778 3847 
Q 1497 3847 1319 3653 
Q 1141 3459 1141 3047 
Q 1141 2716 1294 2522 
Q 1447 2328 1759 2328 
Q 1975 2328 2134 2423 
Q 2294 2519 2383 2664 
Q 2472 2809 2472 2963 
Q 2472 3122 2428 3278 
Q 2384 3434 2296 3562 
Q 2209 3691 2079 3769 
Q 1950 3847 1778 3847 
z
" transform="scale(0.015625)"/>
      </defs>
      <use xlink:href="#OpenSans-Bold-32"/>
      <use xlink:href="#OpenSans-Bold-30" x="57.177734"/>
      <use xlink:href="#OpenSans-Bold-31" x="114.355469"/>
      <use xlink:href="#OpenSans-Bold-39" x="171.533203"/>
     </g>
    </g>
    <g id="patch_123">
     <path d="M 877.305 108.0875 
L 893.305 108.0875 
L 893.305 102.4875 
L 877.305 102.4875 
z
" style="fill: #46b1c9"/>
    </g>
    <g id="text_26">
     <!-- 2020 -->
     <g style="fill: #37539c" transform="translate(899.705 108.0875) scale(0.08 -0.08)">
      <use xlink:href="#OpenSans-Bold-32"/>
      <use xlink:href="#OpenSans-Bold-30" x="57.177734"/>
      <use xlink:href="#OpenSans-Bold-32" x="114.355469"/>
      <use xlink:href="#OpenSans-Bold-30" x="171.533203"/>
     </g>
    </g>
    <g id="patch_124">
     <path d="M 877.305 120.08875 
L 893.305 120.08875 
L 893.305 114.48875 
L 877.305 114.48875 
z
" style="fill: #84c0c6"/>
    </g>
    <g id="text_27">
     <!-- 2021 -->
     <g style="fill: #37539c" transform="translate(899.705 120.08875) scale(0.08 -0.08)">
      <use xlink:href="#OpenSans-Bold-32"/>
      <use xlink:href="#OpenSans-Bold-30" x="57.177734"/>
      <use xlink:href="#OpenSans-Bold-32" x="114.355469"/>
      <use xlink:href="#OpenSans-Bold-31" x="171.533203"/>
     </g>
    </g>
    <g id="patch_125">
     <path d="M 877.305 132.09 
L 893.305 132.09 
L 893.305 126.49 
L 877.305 126.49 
z
" style="fill: #bcc1ba"/>
    </g>
    <g id="text_28">
     <!-- 2022 -->
     <g style="fill: #37539c" transform="translate(899.705 132.09) scale(0.08 -0.08)">
      <use xlink:href="#OpenSans-Bold-32"/>
      <use xlink:href="#OpenSans-Bold-30" x="57.177734"/>
      <use xlink:href="#OpenSans-Bold-32" x="114.355469"/>
      <use xlink:href="#OpenSans-Bold-32" x="171.533203"/>
     </g>
    </g>
    <g id="patch_126">
     <path d="M 877.305 144.09125 
L 893.305 144.09125 
L 893.305 138.49125 
L 877.305 138.49125 
z
" style="fill: #f2e2d2"/>
    </g>
    <g id="text_29">
     <!-- 2023 -->
     <g style="fill: #37539c" transform="translate(899.705 144.09125) scale(0.08 -0.08)">
      <use xlink:href="#OpenSans-Bold-32"/>
      <use xlink:href="#OpenSans-Bold-30" x="57.177734"/>
      <use xlink:href="#OpenSans-Bold-32" x="114.355469"/>
      <use xlink:href="#OpenSans-Bold-33" x="171.533203"/>
     </g>
    </g>
   </g>
  </g>
 </g>
 <defs>
  <clipPath id="p3e3987782f">
   <rect x="27.07" y="10.8" width="898.13" height="247.634627"/>
  </clipPath>
 </defs>
</svg>
