<?xml version="1.0" encoding="utf-8" standalone="no"?>
<!DOCTYPE svg PUBLIC "-//W3C//DTD SVG 1.1//EN"
  "http://www.w3.org/Graphics/SVG/1.1/DTD/svg11.dtd">
<svg xmlns:xlink="http://www.w3.org/1999/xlink" width="1152pt" height="360pt" viewBox="0 0 1152 360" xmlns="http://www.w3.org/2000/svg" version="1.1">
 <metadata>
  <rdf:RDF xmlns:dc="http://purl.org/dc/elements/1.1/" xmlns:cc="http://creativecommons.org/ns#" xmlns:rdf="http://www.w3.org/1999/02/22-rdf-syntax-ns#">
   <cc:Work>
    <dc:type rdf:resource="http://purl.org/dc/dcmitype/StillImage"/>
    <dc:date>2024-03-13T18:50:54.605982</dc:date>
    <dc:format>image/svg+xml</dc:format>
    <dc:creator>
     <cc:Agent>
      <dc:title>Matplotlib v3.7.1, https://matplotlib.org/</dc:title>
     </cc:Agent>
    </dc:creator>
   </cc:Work>
  </rdf:RDF>
 </metadata>
 <defs>
  <style type="text/css">*{stroke-linejoin: round; stroke-linecap: butt}</style>
 </defs>
 <g id="figure_1">
  <g id="patch_1">
   <path d="M 0 360 
L 1152 360 
L 1152 0 
L 0 0 
z
" style="fill: #ffffff"/>
  </g>
  <g id="axes_1">
   <g id="patch_2">
    <path d="M 34.99 304.827903 
L 1141.2 304.827903 
L 1141.2 14.727993 
L 34.99 14.727993 
z
" style="fill: #ffffff"/>
   </g>
   <g id="matplotlib.axis_1">
    <g id="xtick_1">
     <g id="line2d_1">
      <defs>
       <path id="m0f6387e3fa" d="M 0 0 
L 0 3.5 
" style="stroke: #37539c; stroke-width: 0.8"/>
      </defs>
      <g>
       <use xlink:href="#m0f6387e3fa" x="98.621549" y="304.827903" style="fill: #37539c; stroke: #37539c; stroke-width: 0.8"/>
      </g>
     </g>
     <g id="text_1">
      <!-- 2013 -->
      <g style="fill: #37539c" transform="translate(92.373045 333.371458) rotate(-45) scale(0.1 -0.1)">
       <defs>
        <path id="OpenSans-Bold-32" d="M 3450 0 
L 256 0 
L 256 672 
L 1403 1831 
Q 1750 2188 1961 2427 
Q 2172 2666 2267 2862 
Q 2363 3059 2363 3284 
Q 2363 3556 2211 3692 
Q 2059 3828 1806 3828 
Q 1541 3828 1291 3706 
Q 1041 3584 769 3359 
L 244 3981 
Q 441 4150 661 4300 
Q 881 4450 1173 4542 
Q 1466 4634 1875 4634 
Q 2325 4634 2648 4471 
Q 2972 4309 3147 4029 
Q 3322 3750 3322 3397 
Q 3322 3019 3172 2706 
Q 3022 2394 2736 2087 
Q 2450 1781 2047 1409 
L 1459 856 
L 1459 813 
L 3450 813 
L 3450 0 
z
" transform="scale(0.015625)"/>
        <path id="OpenSans-Bold-30" d="M 3425 2284 
Q 3425 1731 3339 1297 
Q 3253 863 3064 559 
Q 2875 256 2569 96 
Q 2263 -63 1825 -63 
Q 1275 -63 922 217 
Q 569 497 400 1023 
Q 231 1550 231 2284 
Q 231 3025 386 3551 
Q 541 4078 891 4359 
Q 1241 4641 1825 4641 
Q 2372 4641 2726 4361 
Q 3081 4081 3253 3554 
Q 3425 3028 3425 2284 
z
M 1191 2284 
Q 1191 1763 1248 1414 
Q 1306 1066 1443 891 
Q 1581 716 1825 716 
Q 2066 716 2205 889 
Q 2344 1063 2403 1411 
Q 2463 1759 2463 2284 
Q 2463 2806 2403 3156 
Q 2344 3506 2205 3682 
Q 2066 3859 1825 3859 
Q 1581 3859 1443 3682 
Q 1306 3506 1248 3156 
Q 1191 2806 1191 2284 
z
" transform="scale(0.015625)"/>
        <path id="OpenSans-Bold-31" d="M 2644 0 
L 1678 0 
L 1678 2644 
Q 1678 2753 1681 2914 
Q 1684 3075 1690 3245 
Q 1697 3416 1703 3553 
Q 1669 3513 1564 3414 
Q 1459 3316 1369 3238 
L 844 2816 
L 378 3397 
L 1850 4569 
L 2644 4569 
L 2644 0 
z
" transform="scale(0.015625)"/>
        <path id="OpenSans-Bold-33" d="M 3272 3547 
Q 3272 3231 3140 3000 
Q 3009 2769 2786 2622 
Q 2563 2475 2284 2406 
L 2284 2388 
Q 2834 2319 3120 2050 
Q 3406 1781 3406 1331 
Q 3406 931 3211 615 
Q 3016 300 2609 118 
Q 2203 -63 1563 -63 
Q 1184 -63 857 -2 
Q 531 59 244 184 
L 244 1006 
Q 538 856 859 779 
Q 1181 703 1459 703 
Q 1978 703 2186 883 
Q 2394 1063 2394 1388 
Q 2394 1578 2297 1709 
Q 2200 1841 1961 1909 
Q 1722 1978 1294 1978 
L 947 1978 
L 947 2719 
L 1300 2719 
Q 1722 2719 1942 2798 
Q 2163 2878 2242 3017 
Q 2322 3156 2322 3334 
Q 2322 3578 2172 3715 
Q 2022 3853 1672 3853 
Q 1453 3853 1273 3798 
Q 1094 3744 950 3667 
Q 806 3591 697 3519 
L 250 4184 
Q 519 4378 880 4506 
Q 1241 4634 1741 4634 
Q 2447 4634 2859 4350 
Q 3272 4066 3272 3547 
z
" transform="scale(0.015625)"/>
       </defs>
       <use xlink:href="#OpenSans-Bold-32"/>
       <use xlink:href="#OpenSans-Bold-30" x="57.177734"/>
       <use xlink:href="#OpenSans-Bold-31" x="114.355469"/>
       <use xlink:href="#OpenSans-Bold-33" x="171.533203"/>
      </g>
     </g>
    </g>
    <g id="xtick_2">
     <g id="line2d_2">
      <g>
       <use xlink:href="#m0f6387e3fa" x="196.516239" y="304.827903" style="fill: #37539c; stroke: #37539c; stroke-width: 0.8"/>
      </g>
     </g>
     <g id="text_2">
      <!-- 2014 -->
      <g style="fill: #37539c" transform="translate(190.267735 333.371458) rotate(-45) scale(0.1 -0.1)">
       <defs>
        <path id="OpenSans-Bold-34" d="M 3553 947 
L 3003 947 
L 3003 0 
L 2059 0 
L 2059 947 
L 109 947 
L 109 1619 
L 2113 4569 
L 3003 4569 
L 3003 1697 
L 3553 1697 
L 3553 947 
z
M 2059 1697 
L 2059 2472 
Q 2059 2581 2064 2731 
Q 2069 2881 2075 3031 
Q 2081 3181 2089 3298 
Q 2097 3416 2100 3463 
L 2075 3463 
Q 2016 3334 1950 3214 
Q 1884 3094 1797 2963 
L 959 1697 
L 2059 1697 
z
" transform="scale(0.015625)"/>
       </defs>
       <use xlink:href="#OpenSans-Bold-32"/>
       <use xlink:href="#OpenSans-Bold-30" x="57.177734"/>
       <use xlink:href="#OpenSans-Bold-31" x="114.355469"/>
       <use xlink:href="#OpenSans-Bold-34" x="171.533203"/>
      </g>
     </g>
    </g>
    <g id="xtick_3">
     <g id="line2d_3">
      <g>
       <use xlink:href="#m0f6387e3fa" x="294.410929" y="304.827903" style="fill: #37539c; stroke: #37539c; stroke-width: 0.8"/>
      </g>
     </g>
     <g id="text_3">
      <!-- 2015 -->
      <g style="fill: #37539c" transform="translate(288.162425 333.371458) rotate(-45) scale(0.1 -0.1)">
       <defs>
        <path id="OpenSans-Bold-35" d="M 1919 2919 
Q 2338 2919 2664 2759 
Q 2991 2600 3178 2290 
Q 3366 1981 3366 1528 
Q 3366 1034 3161 676 
Q 2956 319 2551 128 
Q 2147 -63 1544 -63 
Q 1184 -63 867 -2 
Q 550 59 313 184 
L 313 1019 
Q 550 894 883 808 
Q 1216 722 1509 722 
Q 1797 722 1994 798 
Q 2191 875 2292 1036 
Q 2394 1197 2394 1447 
Q 2394 1781 2169 1959 
Q 1944 2138 1478 2138 
Q 1300 2138 1108 2103 
Q 916 2069 788 2034 
L 403 2241 
L 575 4569 
L 3053 4569 
L 3053 3750 
L 1422 3750 
L 1338 2853 
Q 1444 2875 1569 2897 
Q 1694 2919 1919 2919 
z
" transform="scale(0.015625)"/>
       </defs>
       <use xlink:href="#OpenSans-Bold-32"/>
       <use xlink:href="#OpenSans-Bold-30" x="57.177734"/>
       <use xlink:href="#OpenSans-Bold-31" x="114.355469"/>
       <use xlink:href="#OpenSans-Bold-35" x="171.533203"/>
      </g>
     </g>
    </g>
    <g id="xtick_4">
     <g id="line2d_4">
      <g>
       <use xlink:href="#m0f6387e3fa" x="392.305619" y="304.827903" style="fill: #37539c; stroke: #37539c; stroke-width: 0.8"/>
      </g>
     </g>
     <g id="text_4">
      <!-- 2016 -->
      <g style="fill: #37539c" transform="translate(386.057116 333.371458) rotate(-45) scale(0.1 -0.1)">
       <defs>
        <path id="OpenSans-Bold-36" d="M 225 1941 
Q 225 2334 283 2720 
Q 341 3106 484 3448 
Q 628 3791 887 4055 
Q 1147 4319 1547 4470 
Q 1947 4622 2516 4622 
Q 2650 4622 2829 4611 
Q 3009 4600 3128 4575 
L 3128 3803 
Q 3003 3831 2861 3848 
Q 2719 3866 2578 3866 
Q 2009 3866 1698 3684 
Q 1388 3503 1261 3183 
Q 1134 2863 1113 2438 
L 1153 2438 
Q 1241 2591 1373 2709 
Q 1506 2828 1697 2898 
Q 1888 2969 2144 2969 
Q 2544 2969 2837 2798 
Q 3131 2628 3290 2306 
Q 3450 1984 3450 1522 
Q 3450 1028 3259 672 
Q 3069 316 2720 126 
Q 2372 -63 1894 -63 
Q 1544 -63 1241 57 
Q 938 178 709 425 
Q 481 672 353 1048 
Q 225 1425 225 1941 
z
M 1875 709 
Q 2159 709 2337 903 
Q 2516 1097 2516 1509 
Q 2516 1844 2361 2036 
Q 2206 2228 1894 2228 
Q 1681 2228 1520 2133 
Q 1359 2038 1271 1892 
Q 1184 1747 1184 1594 
Q 1184 1434 1228 1278 
Q 1272 1122 1359 994 
Q 1447 866 1576 787 
Q 1706 709 1875 709 
z
" transform="scale(0.015625)"/>
       </defs>
       <use xlink:href="#OpenSans-Bold-32"/>
       <use xlink:href="#OpenSans-Bold-30" x="57.177734"/>
       <use xlink:href="#OpenSans-Bold-31" x="114.355469"/>
       <use xlink:href="#OpenSans-Bold-36" x="171.533203"/>
      </g>
     </g>
    </g>
    <g id="xtick_5">
     <g id="line2d_5">
      <g>
       <use xlink:href="#m0f6387e3fa" x="490.20031" y="304.827903" style="fill: #37539c; stroke: #37539c; stroke-width: 0.8"/>
      </g>
     </g>
     <g id="text_5">
      <!-- 2017 -->
      <g style="fill: #37539c" transform="translate(483.951806 333.371458) rotate(-45) scale(0.1 -0.1)">
       <defs>
        <path id="OpenSans-Bold-37" d="M 709 0 
L 2425 3756 
L 172 3756 
L 172 4569 
L 3450 4569 
L 3450 3963 
L 1722 0 
L 709 0 
z
" transform="scale(0.015625)"/>
       </defs>
       <use xlink:href="#OpenSans-Bold-32"/>
       <use xlink:href="#OpenSans-Bold-30" x="57.177734"/>
       <use xlink:href="#OpenSans-Bold-31" x="114.355469"/>
       <use xlink:href="#OpenSans-Bold-37" x="171.533203"/>
      </g>
     </g>
    </g>
    <g id="xtick_6">
     <g id="line2d_6">
      <g>
       <use xlink:href="#m0f6387e3fa" x="588.095" y="304.827903" style="fill: #37539c; stroke: #37539c; stroke-width: 0.8"/>
      </g>
     </g>
     <g id="text_6">
      <!-- 2018 -->
      <g style="fill: #37539c" transform="translate(581.846496 333.371458) rotate(-45) scale(0.1 -0.1)">
       <defs>
        <path id="OpenSans-Bold-38" d="M 1831 4628 
Q 2225 4628 2558 4506 
Q 2891 4384 3091 4139 
Q 3291 3894 3291 3525 
Q 3291 3250 3183 3044 
Q 3075 2838 2890 2683 
Q 2706 2528 2472 2413 
Q 2716 2284 2934 2114 
Q 3153 1944 3292 1716 
Q 3431 1488 3431 1184 
Q 3431 803 3228 523 
Q 3025 244 2665 90 
Q 2306 -63 1831 -63 
Q 1319 -63 959 84 
Q 600 231 412 504 
Q 225 778 225 1159 
Q 225 1472 342 1703 
Q 459 1934 659 2101 
Q 859 2269 1100 2388 
Q 897 2516 730 2678 
Q 563 2841 464 3050 
Q 366 3259 366 3531 
Q 366 3894 570 4137 
Q 775 4381 1109 4504 
Q 1444 4628 1831 4628 
z
M 1119 1216 
Q 1119 969 1295 808 
Q 1472 647 1819 647 
Q 2178 647 2356 801 
Q 2534 956 2534 1209 
Q 2534 1384 2432 1515 
Q 2331 1647 2178 1751 
Q 2025 1856 1869 1947 
L 1784 1991 
Q 1584 1900 1436 1787 
Q 1288 1675 1203 1534 
Q 1119 1394 1119 1216 
z
M 1825 3922 
Q 1588 3922 1431 3800 
Q 1275 3678 1275 3456 
Q 1275 3300 1351 3183 
Q 1428 3066 1554 2978 
Q 1681 2891 1831 2816 
Q 1975 2884 2100 2968 
Q 2225 3053 2303 3172 
Q 2381 3291 2381 3456 
Q 2381 3678 2223 3800 
Q 2066 3922 1825 3922 
z
" transform="scale(0.015625)"/>
       </defs>
       <use xlink:href="#OpenSans-Bold-32"/>
       <use xlink:href="#OpenSans-Bold-30" x="57.177734"/>
       <use xlink:href="#OpenSans-Bold-31" x="114.355469"/>
       <use xlink:href="#OpenSans-Bold-38" x="171.533203"/>
      </g>
     </g>
    </g>
    <g id="xtick_7">
     <g id="line2d_7">
      <g>
       <use xlink:href="#m0f6387e3fa" x="685.98969" y="304.827903" style="fill: #37539c; stroke: #37539c; stroke-width: 0.8"/>
      </g>
     </g>
     <g id="text_7">
      <!-- 2019 -->
      <g style="fill: #37539c" transform="translate(679.741187 333.371458) rotate(-45) scale(0.1 -0.1)">
       <defs>
        <path id="OpenSans-Bold-39" d="M 3431 2619 
Q 3431 2225 3373 1837 
Q 3316 1450 3172 1108 
Q 3028 766 2768 502 
Q 2509 238 2109 87 
Q 1709 -63 1141 -63 
Q 1006 -63 825 -52 
Q 644 -41 525 -19 
L 525 756 
Q 650 725 790 708 
Q 931 691 1075 691 
Q 1647 691 1958 872 
Q 2269 1053 2395 1375 
Q 2522 1697 2541 2119 
L 2503 2119 
Q 2413 1969 2289 1848 
Q 2166 1728 1975 1658 
Q 1784 1588 1491 1588 
Q 1100 1588 811 1758 
Q 522 1928 364 2251 
Q 206 2575 206 3034 
Q 206 3531 395 3886 
Q 584 4241 934 4431 
Q 1284 4622 1759 4622 
Q 2109 4622 2412 4501 
Q 2716 4381 2945 4134 
Q 3175 3888 3303 3509 
Q 3431 3131 3431 2619 
z
M 1778 3847 
Q 1497 3847 1319 3653 
Q 1141 3459 1141 3047 
Q 1141 2716 1294 2522 
Q 1447 2328 1759 2328 
Q 1975 2328 2134 2423 
Q 2294 2519 2383 2664 
Q 2472 2809 2472 2963 
Q 2472 3122 2428 3278 
Q 2384 3434 2296 3562 
Q 2209 3691 2079 3769 
Q 1950 3847 1778 3847 
z
" transform="scale(0.015625)"/>
       </defs>
       <use xlink:href="#OpenSans-Bold-32"/>
       <use xlink:href="#OpenSans-Bold-30" x="57.177734"/>
       <use xlink:href="#OpenSans-Bold-31" x="114.355469"/>
       <use xlink:href="#OpenSans-Bold-39" x="171.533203"/>
      </g>
     </g>
    </g>
    <g id="xtick_8">
     <g id="line2d_8">
      <g>
       <use xlink:href="#m0f6387e3fa" x="783.884381" y="304.827903" style="fill: #37539c; stroke: #37539c; stroke-width: 0.8"/>
      </g>
     </g>
     <g id="text_8">
      <!-- 2020 -->
      <g style="fill: #37539c" transform="translate(777.635877 333.371458) rotate(-45) scale(0.1 -0.1)">
       <use xlink:href="#OpenSans-Bold-32"/>
       <use xlink:href="#OpenSans-Bold-30" x="57.177734"/>
       <use xlink:href="#OpenSans-Bold-32" x="114.355469"/>
       <use xlink:href="#OpenSans-Bold-30" x="171.533203"/>
      </g>
     </g>
    </g>
    <g id="xtick_9">
     <g id="line2d_9">
      <g>
       <use xlink:href="#m0f6387e3fa" x="881.779071" y="304.827903" style="fill: #37539c; stroke: #37539c; stroke-width: 0.8"/>
      </g>
     </g>
     <g id="text_9">
      <!-- 2021 -->
      <g style="fill: #37539c" transform="translate(875.530567 333.371458) rotate(-45) scale(0.1 -0.1)">
       <use xlink:href="#OpenSans-Bold-32"/>
       <use xlink:href="#OpenSans-Bold-30" x="57.177734"/>
       <use xlink:href="#OpenSans-Bold-32" x="114.355469"/>
       <use xlink:href="#OpenSans-Bold-31" x="171.533203"/>
      </g>
     </g>
    </g>
    <g id="xtick_10">
     <g id="line2d_10">
      <g>
       <use xlink:href="#m0f6387e3fa" x="979.673761" y="304.827903" style="fill: #37539c; stroke: #37539c; stroke-width: 0.8"/>
      </g>
     </g>
     <g id="text_10">
      <!-- 2022 -->
      <g style="fill: #37539c" transform="translate(973.425257 333.371458) rotate(-45) scale(0.1 -0.1)">
       <use xlink:href="#OpenSans-Bold-32"/>
       <use xlink:href="#OpenSans-Bold-30" x="57.177734"/>
       <use xlink:href="#OpenSans-Bold-32" x="114.355469"/>
       <use xlink:href="#OpenSans-Bold-32" x="171.533203"/>
      </g>
     </g>
    </g>
    <g id="xtick_11">
     <g id="line2d_11">
      <g>
       <use xlink:href="#m0f6387e3fa" x="1077.568451" y="304.827903" style="fill: #37539c; stroke: #37539c; stroke-width: 0.8"/>
      </g>
     </g>
     <g id="text_11">
      <!-- 2023 -->
      <g style="fill: #37539c" transform="translate(1071.319948 333.371458) rotate(-45) scale(0.1 -0.1)">
       <use xlink:href="#OpenSans-Bold-32"/>
       <use xlink:href="#OpenSans-Bold-30" x="57.177734"/>
       <use xlink:href="#OpenSans-Bold-32" x="114.355469"/>
       <use xlink:href="#OpenSans-Bold-33" x="171.533203"/>
      </g>
     </g>
    </g>
    <g id="text_12">
     <!-- Año -->
     <g style="fill: #37539c" transform="translate(578.262969 346.669161) scale(0.1 -0.1)">
      <defs>
       <path id="OpenSans-Bold-41" d="M 3372 0 
L 3041 1088 
L 1375 1088 
L 1044 0 
L 0 0 
L 1613 4588 
L 2797 4588 
L 4416 0 
L 3372 0 
z
M 2809 1900 
L 2478 2963 
Q 2447 3069 2395 3236 
Q 2344 3403 2292 3576 
Q 2241 3750 2209 3878 
Q 2178 3750 2123 3561 
Q 2069 3372 2019 3203 
Q 1969 3034 1947 2963 
L 1619 1900 
L 2809 1900 
z
" transform="scale(0.015625)"/>
       <path id="OpenSans-Bold-f1" d="M 2484 3559 
Q 3044 3559 3384 3254 
Q 3725 2950 3725 2278 
L 3725 0 
L 2772 0 
L 2772 2041 
Q 2772 2416 2636 2606 
Q 2500 2797 2209 2797 
Q 1772 2797 1612 2500 
Q 1453 2203 1453 1644 
L 1453 0 
L 500 0 
L 500 3494 
L 1228 3494 
L 1356 3047 
L 1409 3047 
Q 1522 3228 1689 3340 
Q 1856 3453 2061 3506 
Q 2266 3559 2484 3559 
z
M 808 3872 
Q 827 4122 899 4305 
Q 971 4488 1086 4605 
Q 1202 4722 1347 4780 
Q 1493 4838 1658 4838 
Q 1786 4838 1909 4789 
Q 2033 4741 2153 4675 
Q 2274 4609 2391 4561 
Q 2508 4513 2621 4513 
Q 2715 4513 2804 4595 
Q 2893 4678 2933 4844 
L 3399 4844 
Q 3361 4350 3117 4114 
Q 2874 3878 2549 3878 
Q 2421 3878 2297 3928 
Q 2174 3978 2053 4042 
Q 1933 4106 1817 4156 
Q 1702 4206 1590 4206 
Q 1493 4206 1404 4123 
Q 1315 4041 1274 3872 
L 808 3872 
z
" transform="scale(0.015625)"/>
       <path id="OpenSans-Bold-6f" d="M 3675 1753 
Q 3675 1316 3558 978 
Q 3441 641 3217 408 
Q 2994 175 2680 56 
Q 2366 -63 1972 -63 
Q 1603 -63 1295 56 
Q 988 175 761 408 
Q 534 641 411 978 
Q 288 1316 288 1753 
Q 288 2334 494 2737 
Q 700 3141 1081 3350 
Q 1463 3559 1991 3559 
Q 2481 3559 2861 3350 
Q 3241 3141 3458 2737 
Q 3675 2334 3675 1753 
z
M 1259 1753 
Q 1259 1409 1334 1175 
Q 1409 941 1568 822 
Q 1728 703 1984 703 
Q 2238 703 2395 822 
Q 2553 941 2626 1175 
Q 2700 1409 2700 1753 
Q 2700 2100 2626 2329 
Q 2553 2559 2393 2675 
Q 2234 2791 1978 2791 
Q 1600 2791 1429 2531 
Q 1259 2272 1259 1753 
z
" transform="scale(0.015625)"/>
      </defs>
      <use xlink:href="#OpenSans-Bold-41"/>
      <use xlink:href="#OpenSans-Bold-f1" x="68.994141"/>
      <use xlink:href="#OpenSans-Bold-6f" x="134.716797"/>
     </g>
    </g>
   </g>
   <g id="matplotlib.axis_2">
    <g id="ytick_1">
     <g id="line2d_12">
      <path d="M 34.99 304.827903 
L 1141.2 304.827903 
" clip-path="url(#pfd2cf1f37c)" style="fill: none; stroke-dasharray: 2.96,1.28; stroke-dashoffset: 0; stroke: #b0b0b0; stroke-width: 0.8"/>
     </g>
     <g id="line2d_13">
      <defs>
       <path id="m7293713d53" d="M 0 0 
L -3.5 0 
" style="stroke: #37539c; stroke-width: 0.8"/>
      </defs>
      <g>
       <use xlink:href="#m7293713d53" x="34.99" y="304.827903" style="fill: #37539c; stroke: #37539c; stroke-width: 0.8"/>
      </g>
     </g>
     <g id="text_13">
      <!-- 0 -->
      <g style="fill: #37539c" transform="translate(22.272813 308.627121) scale(0.1 -0.1)">
       <use xlink:href="#OpenSans-Bold-30"/>
      </g>
     </g>
    </g>
    <g id="ytick_2">
     <g id="line2d_14">
      <path d="M 34.99 252.501079 
L 1141.2 252.501079 
" clip-path="url(#pfd2cf1f37c)" style="fill: none; stroke-dasharray: 2.96,1.28; stroke-dashoffset: 0; stroke: #b0b0b0; stroke-width: 0.8"/>
     </g>
     <g id="line2d_15">
      <g>
       <use xlink:href="#m7293713d53" x="34.99" y="252.501079" style="fill: #37539c; stroke: #37539c; stroke-width: 0.8"/>
      </g>
     </g>
     <g id="text_14">
      <!-- 50 -->
      <g style="fill: #37539c" transform="translate(16.555625 256.300298) scale(0.1 -0.1)">
       <use xlink:href="#OpenSans-Bold-35"/>
       <use xlink:href="#OpenSans-Bold-30" x="57.177734"/>
      </g>
     </g>
    </g>
    <g id="ytick_3">
     <g id="line2d_16">
      <path d="M 34.99 200.174256 
L 1141.2 200.174256 
" clip-path="url(#pfd2cf1f37c)" style="fill: none; stroke-dasharray: 2.96,1.28; stroke-dashoffset: 0; stroke: #b0b0b0; stroke-width: 0.8"/>
     </g>
     <g id="line2d_17">
      <g>
       <use xlink:href="#m7293713d53" x="34.99" y="200.174256" style="fill: #37539c; stroke: #37539c; stroke-width: 0.8"/>
      </g>
     </g>
     <g id="text_15">
      <!-- 100 -->
      <g style="fill: #37539c" transform="translate(10.838438 203.973475) scale(0.1 -0.1)">
       <use xlink:href="#OpenSans-Bold-31"/>
       <use xlink:href="#OpenSans-Bold-30" x="57.177734"/>
       <use xlink:href="#OpenSans-Bold-30" x="114.355469"/>
      </g>
     </g>
    </g>
    <g id="ytick_4">
     <g id="line2d_18">
      <path d="M 34.99 147.847432 
L 1141.2 147.847432 
" clip-path="url(#pfd2cf1f37c)" style="fill: none; stroke-dasharray: 2.96,1.28; stroke-dashoffset: 0; stroke: #b0b0b0; stroke-width: 0.8"/>
     </g>
     <g id="line2d_19">
      <g>
       <use xlink:href="#m7293713d53" x="34.99" y="147.847432" style="fill: #37539c; stroke: #37539c; stroke-width: 0.8"/>
      </g>
     </g>
     <g id="text_16">
      <!-- 150 -->
      <g style="fill: #37539c" transform="translate(10.838438 151.646651) scale(0.1 -0.1)">
       <use xlink:href="#OpenSans-Bold-31"/>
       <use xlink:href="#OpenSans-Bold-35" x="57.177734"/>
       <use xlink:href="#OpenSans-Bold-30" x="114.355469"/>
      </g>
     </g>
    </g>
    <g id="ytick_5">
     <g id="line2d_20">
      <path d="M 34.99 95.520609 
L 1141.2 95.520609 
" clip-path="url(#pfd2cf1f37c)" style="fill: none; stroke-dasharray: 2.96,1.28; stroke-dashoffset: 0; stroke: #b0b0b0; stroke-width: 0.8"/>
     </g>
     <g id="line2d_21">
      <g>
       <use xlink:href="#m7293713d53" x="34.99" y="95.520609" style="fill: #37539c; stroke: #37539c; stroke-width: 0.8"/>
      </g>
     </g>
     <g id="text_17">
      <!-- 200 -->
      <g style="fill: #37539c" transform="translate(10.838438 99.319828) scale(0.1 -0.1)">
       <use xlink:href="#OpenSans-Bold-32"/>
       <use xlink:href="#OpenSans-Bold-30" x="57.177734"/>
       <use xlink:href="#OpenSans-Bold-30" x="114.355469"/>
      </g>
     </g>
    </g>
    <g id="ytick_6">
     <g id="line2d_22">
      <path d="M 34.99 43.193785 
L 1141.2 43.193785 
" clip-path="url(#pfd2cf1f37c)" style="fill: none; stroke-dasharray: 2.96,1.28; stroke-dashoffset: 0; stroke: #b0b0b0; stroke-width: 0.8"/>
     </g>
     <g id="line2d_23">
      <g>
       <use xlink:href="#m7293713d53" x="34.99" y="43.193785" style="fill: #37539c; stroke: #37539c; stroke-width: 0.8"/>
      </g>
     </g>
     <g id="text_18">
      <!-- 250 -->
      <g style="fill: #37539c" transform="translate(10.838438 46.993004) scale(0.1 -0.1)">
       <use xlink:href="#OpenSans-Bold-32"/>
       <use xlink:href="#OpenSans-Bold-35" x="57.177734"/>
       <use xlink:href="#OpenSans-Bold-30" x="114.355469"/>
      </g>
     </g>
    </g>
   </g>
   <g id="patch_3">
    <path d="M 1105.538363 304.827903 
L 1116.726327 304.827903 
L 1116.726327 304.827903 
L 1105.538363 304.827903 
z
" clip-path="url(#pfd2cf1f37c)" style="fill: #ebebeb"/>
   </g>
   <g id="patch_4">
    <path d="M 1007.643673 304.827903 
L 1018.831637 304.827903 
L 1018.831637 304.827903 
L 1007.643673 304.827903 
z
" clip-path="url(#pfd2cf1f37c)" style="fill: #ebebeb"/>
   </g>
   <g id="patch_5">
    <path d="M 909.748982 304.827903 
L 920.936947 304.827903 
L 920.936947 304.827903 
L 909.748982 304.827903 
z
" clip-path="url(#pfd2cf1f37c)" style="fill: #ebebeb"/>
   </g>
   <g id="patch_6">
    <path d="M 811.854292 304.827903 
L 823.042257 304.827903 
L 823.042257 304.827903 
L 811.854292 304.827903 
z
" clip-path="url(#pfd2cf1f37c)" style="fill: #ebebeb"/>
   </g>
   <g id="patch_7">
    <path d="M 724.14065 304.811158 
L 714.966519 304.811158 
Q 724.755988 304.811158 724.755988 304.392543 
L 724.755988 304.216725 
Q 724.755988 303.798111 714.966519 303.798111 
L 724.14065 303.798111 
Q 714.351181 303.798111 714.351181 304.216725 
L 714.351181 304.392543 
Q 714.351181 304.811158 724.14065 304.811158 
z
" clip-path="url(#pfd2cf1f37c)" style="fill: #ebebeb"/>
   </g>
   <g id="patch_8">
    <path d="M 616.064912 304.827903 
L 627.252876 304.827903 
L 627.252876 304.827903 
L 616.064912 304.827903 
z
" clip-path="url(#pfd2cf1f37c)" style="fill: #ebebeb"/>
   </g>
   <g id="patch_9">
    <path d="M 518.170221 304.827903 
L 529.358186 304.827903 
L 529.358186 304.827903 
L 518.170221 304.827903 
z
" clip-path="url(#pfd2cf1f37c)" style="fill: #ebebeb"/>
   </g>
   <g id="patch_10">
    <path d="M 420.275531 304.827903 
L 431.463496 304.827903 
L 431.463496 304.827903 
L 420.275531 304.827903 
z
" clip-path="url(#pfd2cf1f37c)" style="fill: #ebebeb"/>
   </g>
   <g id="patch_11">
    <path d="M 322.380841 304.827903 
L 333.568805 304.827903 
L 333.568805 304.827903 
L 322.380841 304.827903 
z
" clip-path="url(#pfd2cf1f37c)" style="fill: #ebebeb"/>
   </g>
   <g id="patch_12">
    <path d="M 224.48615 304.827903 
L 235.674115 304.827903 
L 235.674115 304.827903 
L 224.48615 304.827903 
z
" clip-path="url(#pfd2cf1f37c)" style="fill: #ebebeb"/>
   </g>
   <g id="patch_13">
    <path d="M 126.59146 304.827903 
L 137.779425 304.827903 
L 137.779425 304.827903 
L 126.59146 304.827903 
z
" clip-path="url(#pfd2cf1f37c)" style="fill: #ebebeb"/>
   </g>
   <g id="patch_14">
    <path d="M 1094.350398 304.827903 
L 1105.538363 304.827903 
L 1105.538363 304.827903 
L 1094.350398 304.827903 
z
" clip-path="url(#pfd2cf1f37c)" style="fill: #52489c"/>
   </g>
   <g id="patch_15">
    <path d="M 996.455708 304.827903 
L 1007.643673 304.827903 
L 1007.643673 304.827903 
L 996.455708 304.827903 
z
" clip-path="url(#pfd2cf1f37c)" style="fill: #52489c"/>
   </g>
   <g id="patch_16">
    <path d="M 908.742065 304.811158 
L 899.567935 304.811158 
Q 909.357404 304.811158 909.357404 304.392543 
L 909.357404 302.123652 
Q 909.357404 301.705038 899.567935 301.705038 
L 908.742065 301.705038 
Q 898.952596 301.705038 898.952596 302.123652 
L 898.952596 304.392543 
Q 898.952596 304.811158 908.742065 304.811158 
z
" clip-path="url(#pfd2cf1f37c)" style="fill: #52489c"/>
   </g>
   <g id="patch_17">
    <path d="M 810.847375 304.811158 
L 801.673244 304.811158 
Q 811.462713 304.811158 811.462713 304.392543 
L 811.462713 304.216725 
Q 811.462713 303.798111 801.673244 303.798111 
L 810.847375 303.798111 
Q 801.057906 303.798111 801.057906 304.216725 
L 801.057906 304.392543 
Q 801.057906 304.811158 810.847375 304.811158 
z
" clip-path="url(#pfd2cf1f37c)" style="fill: #52489c"/>
   </g>
   <g id="patch_18">
    <path d="M 702.771637 304.827903 
L 713.959602 304.827903 
L 713.959602 304.827903 
L 702.771637 304.827903 
z
" clip-path="url(#pfd2cf1f37c)" style="fill: #52489c"/>
   </g>
   <g id="patch_19">
    <path d="M 615.057995 304.811158 
L 605.883864 304.811158 
Q 615.673333 304.811158 615.673333 304.392543 
L 615.673333 304.216725 
Q 615.673333 303.798111 605.883864 303.798111 
L 615.057995 303.798111 
Q 605.268526 303.798111 605.268526 304.216725 
L 605.268526 304.392543 
Q 605.268526 304.811158 615.057995 304.811158 
z
" clip-path="url(#pfd2cf1f37c)" style="fill: #52489c"/>
   </g>
   <g id="patch_20">
    <path d="M 506.982257 304.827903 
L 518.170221 304.827903 
L 518.170221 304.827903 
L 506.982257 304.827903 
z
" clip-path="url(#pfd2cf1f37c)" style="fill: #52489c"/>
   </g>
   <g id="patch_21">
    <path d="M 409.087566 304.827903 
L 420.275531 304.827903 
L 420.275531 304.827903 
L 409.087566 304.827903 
z
" clip-path="url(#pfd2cf1f37c)" style="fill: #52489c"/>
   </g>
   <g id="patch_22">
    <path d="M 321.373924 304.811158 
L 312.199793 304.811158 
Q 321.989262 304.811158 321.989262 304.392543 
L 321.989262 304.216725 
Q 321.989262 303.798111 312.199793 303.798111 
L 321.373924 303.798111 
Q 311.584455 303.798111 311.584455 304.216725 
L 311.584455 304.392543 
Q 311.584455 304.811158 321.373924 304.811158 
z
" clip-path="url(#pfd2cf1f37c)" style="fill: #52489c"/>
   </g>
   <g id="patch_23">
    <path d="M 223.479234 304.811158 
L 214.305103 304.811158 
Q 224.094572 304.811158 224.094572 304.392543 
L 224.094572 304.216725 
Q 224.094572 303.798111 214.305103 303.798111 
L 223.479234 303.798111 
Q 213.689765 303.798111 213.689765 304.216725 
L 213.689765 304.392543 
Q 213.689765 304.811158 223.479234 304.811158 
z
" clip-path="url(#pfd2cf1f37c)" style="fill: #52489c"/>
   </g>
   <g id="patch_24">
    <path d="M 115.403496 304.827903 
L 126.59146 304.827903 
L 126.59146 304.827903 
L 115.403496 304.827903 
z
" clip-path="url(#pfd2cf1f37c)" style="fill: #52489c"/>
   </g>
   <g id="patch_25">
    <path d="M 1093.343481 304.811158 
L 1084.16935 304.811158 
Q 1093.958819 304.811158 1093.958819 304.392543 
L 1093.958819 302.123652 
Q 1093.958819 301.705038 1084.16935 301.705038 
L 1093.343481 301.705038 
Q 1083.554012 301.705038 1083.554012 302.123652 
L 1083.554012 304.392543 
Q 1083.554012 304.811158 1093.343481 304.811158 
z
" clip-path="url(#pfd2cf1f37c)" style="fill: #37539c"/>
   </g>
   <g id="patch_26">
    <path d="M 995.448791 304.811158 
L 986.27466 304.811158 
Q 996.064129 304.811158 996.064129 304.392543 
L 996.064129 303.170189 
Q 996.064129 302.751574 986.27466 302.751574 
L 995.448791 302.751574 
Q 985.659322 302.751574 985.659322 303.170189 
L 985.659322 304.392543 
Q 985.659322 304.811158 995.448791 304.811158 
z
" clip-path="url(#pfd2cf1f37c)" style="fill: #37539c"/>
   </g>
   <g id="patch_27">
    <path d="M 897.554101 304.811158 
L 888.37997 304.811158 
Q 898.169439 304.811158 898.169439 304.392543 
L 898.169439 296.89097 
Q 898.169439 296.472355 888.37997 296.472355 
L 897.554101 296.472355 
Q 887.764632 296.472355 887.764632 296.89097 
L 887.764632 304.392543 
Q 887.764632 304.811158 897.554101 304.811158 
z
" clip-path="url(#pfd2cf1f37c)" style="fill: #37539c"/>
   </g>
   <g id="patch_28">
    <path d="M 799.659411 304.811158 
L 790.48528 304.811158 
Q 800.274749 304.811158 800.274749 304.392543 
L 800.274749 303.170189 
Q 800.274749 302.751574 790.48528 302.751574 
L 799.659411 302.751574 
Q 789.869942 302.751574 789.869942 303.170189 
L 789.869942 304.392543 
Q 789.869942 304.811158 799.659411 304.811158 
z
" clip-path="url(#pfd2cf1f37c)" style="fill: #37539c"/>
   </g>
   <g id="patch_29">
    <path d="M 701.76472 304.811158 
L 692.590589 304.811158 
Q 702.380058 304.811158 702.380058 304.392543 
L 702.380058 304.216725 
Q 702.380058 303.798111 692.590589 303.798111 
L 701.76472 303.798111 
Q 691.975251 303.798111 691.975251 304.216725 
L 691.975251 304.392543 
Q 691.975251 304.811158 701.76472 304.811158 
z
" clip-path="url(#pfd2cf1f37c)" style="fill: #37539c"/>
   </g>
   <g id="patch_30">
    <path d="M 593.688982 304.827903 
L 604.876947 304.827903 
L 604.876947 304.827903 
L 593.688982 304.827903 
z
" clip-path="url(#pfd2cf1f37c)" style="fill: #37539c"/>
   </g>
   <g id="patch_31">
    <path d="M 495.794292 304.827903 
L 506.982257 304.827903 
L 506.982257 304.827903 
L 495.794292 304.827903 
z
" clip-path="url(#pfd2cf1f37c)" style="fill: #37539c"/>
   </g>
   <g id="patch_32">
    <path d="M 408.08065 304.811158 
L 398.906519 304.811158 
Q 408.695988 304.811158 408.695988 304.392543 
L 408.695988 304.216725 
Q 408.695988 303.798111 398.906519 303.798111 
L 408.08065 303.798111 
Q 398.291181 303.798111 398.291181 304.216725 
L 398.291181 304.392543 
Q 398.291181 304.811158 408.08065 304.811158 
z
" clip-path="url(#pfd2cf1f37c)" style="fill: #37539c"/>
   </g>
   <g id="patch_33">
    <path d="M 310.185959 304.811158 
L 301.011828 304.811158 
Q 310.801297 304.811158 310.801297 304.392543 
L 310.801297 304.216725 
Q 310.801297 303.798111 301.011828 303.798111 
L 310.185959 303.798111 
Q 300.39649 303.798111 300.39649 304.216725 
L 300.39649 304.392543 
Q 300.39649 304.811158 310.185959 304.811158 
z
" clip-path="url(#pfd2cf1f37c)" style="fill: #37539c"/>
   </g>
   <g id="patch_34">
    <path d="M 212.291269 304.811158 
L 203.117138 304.811158 
Q 212.906607 304.811158 212.906607 304.392543 
L 212.906607 304.216725 
Q 212.906607 303.798111 203.117138 303.798111 
L 212.291269 303.798111 
Q 202.5018 303.798111 202.5018 304.216725 
L 202.5018 304.392543 
Q 202.5018 304.811158 212.291269 304.811158 
z
" clip-path="url(#pfd2cf1f37c)" style="fill: #37539c"/>
   </g>
   <g id="patch_35">
    <path d="M 104.215531 304.827903 
L 115.403496 304.827903 
L 115.403496 304.827903 
L 104.215531 304.827903 
z
" clip-path="url(#pfd2cf1f37c)" style="fill: #37539c"/>
   </g>
   <g id="patch_36">
    <path d="M 1082.155517 304.811158 
L 1072.981386 304.811158 
Q 1082.770855 304.811158 1082.770855 304.392543 
L 1082.770855 286.425605 
Q 1082.770855 286.006991 1072.981386 286.006991 
L 1082.155517 286.006991 
Q 1072.366048 286.006991 1072.366048 286.425605 
L 1072.366048 304.392543 
Q 1072.366048 304.811158 1082.155517 304.811158 
z
" clip-path="url(#pfd2cf1f37c)" style="fill: #9fb7b9"/>
   </g>
   <g id="patch_37">
    <path d="M 984.260827 304.811158 
L 975.086696 304.811158 
Q 984.876165 304.811158 984.876165 304.392543 
L 984.876165 290.611751 
Q 984.876165 290.193137 975.086696 290.193137 
L 984.260827 290.193137 
Q 974.471358 290.193137 974.471358 290.611751 
L 974.471358 304.392543 
Q 974.471358 304.811158 984.260827 304.811158 
z
" clip-path="url(#pfd2cf1f37c)" style="fill: #9fb7b9"/>
   </g>
   <g id="patch_38">
    <path d="M 886.366136 304.811158 
L 877.192005 304.811158 
Q 886.981474 304.811158 886.981474 304.392543 
L 886.981474 279.09985 
Q 886.981474 278.681235 877.192005 278.681235 
L 886.366136 278.681235 
Q 876.576667 278.681235 876.576667 279.09985 
L 876.576667 304.392543 
Q 876.576667 304.811158 886.366136 304.811158 
z
" clip-path="url(#pfd2cf1f37c)" style="fill: #9fb7b9"/>
   </g>
   <g id="patch_39">
    <path d="M 788.471446 304.811158 
L 779.297315 304.811158 
Q 789.086784 304.811158 789.086784 304.392543 
L 789.086784 273.867168 
Q 789.086784 273.448553 779.297315 273.448553 
L 788.471446 273.448553 
Q 778.681977 273.448553 778.681977 273.867168 
L 778.681977 304.392543 
Q 778.681977 304.811158 788.471446 304.811158 
z
" clip-path="url(#pfd2cf1f37c)" style="fill: #9fb7b9"/>
   </g>
   <g id="patch_40">
    <path d="M 690.576756 304.811158 
L 681.402625 304.811158 
Q 691.192094 304.811158 691.192094 304.392543 
L 691.192094 302.123652 
Q 691.192094 301.705038 681.402625 301.705038 
L 690.576756 301.705038 
Q 680.787287 301.705038 680.787287 302.123652 
L 680.787287 304.392543 
Q 680.787287 304.811158 690.576756 304.811158 
z
" clip-path="url(#pfd2cf1f37c)" style="fill: #9fb7b9"/>
   </g>
   <g id="patch_41">
    <path d="M 592.682065 304.811158 
L 583.507935 304.811158 
Q 593.297404 304.811158 593.297404 304.392543 
L 593.297404 288.518678 
Q 593.297404 288.100064 583.507935 288.100064 
L 592.682065 288.100064 
Q 582.892596 288.100064 582.892596 288.518678 
L 582.892596 304.392543 
Q 582.892596 304.811158 592.682065 304.811158 
z
" clip-path="url(#pfd2cf1f37c)" style="fill: #9fb7b9"/>
   </g>
   <g id="patch_42">
    <path d="M 494.787375 304.811158 
L 485.613244 304.811158 
Q 495.402713 304.811158 495.402713 304.392543 
L 495.402713 295.844434 
Q 495.402713 295.425819 485.613244 295.425819 
L 494.787375 295.425819 
Q 484.997906 295.425819 484.997906 295.844434 
L 484.997906 304.392543 
Q 484.997906 304.811158 494.787375 304.811158 
z
" clip-path="url(#pfd2cf1f37c)" style="fill: #9fb7b9"/>
   </g>
   <g id="patch_43">
    <path d="M 396.892685 304.811158 
L 387.718554 304.811158 
Q 397.508023 304.811158 397.508023 304.392543 
L 397.508023 297.937507 
Q 397.508023 297.518892 387.718554 297.518892 
L 396.892685 297.518892 
Q 387.103216 297.518892 387.103216 297.937507 
L 387.103216 304.392543 
Q 387.103216 304.811158 396.892685 304.811158 
z
" clip-path="url(#pfd2cf1f37c)" style="fill: #9fb7b9"/>
   </g>
   <g id="patch_44">
    <path d="M 298.997995 304.811158 
L 289.823864 304.811158 
Q 299.613333 304.811158 299.613333 304.392543 
L 299.613333 281.192923 
Q 299.613333 280.774308 289.823864 280.774308 
L 298.997995 280.774308 
Q 289.208526 280.774308 289.208526 281.192923 
L 289.208526 304.392543 
Q 289.208526 304.811158 298.997995 304.811158 
z
" clip-path="url(#pfd2cf1f37c)" style="fill: #9fb7b9"/>
   </g>
   <g id="patch_45">
    <path d="M 201.103304 304.811158 
L 191.929173 304.811158 
Q 201.718642 304.811158 201.718642 304.392543 
L 201.718642 304.216725 
Q 201.718642 303.798111 191.929173 303.798111 
L 201.103304 303.798111 
Q 191.313835 303.798111 191.313835 304.216725 
L 191.313835 304.392543 
Q 191.313835 304.811158 201.103304 304.811158 
z
" clip-path="url(#pfd2cf1f37c)" style="fill: #9fb7b9"/>
   </g>
   <g id="patch_46">
    <path d="M 93.027566 304.827903 
L 104.215531 304.827903 
L 104.215531 304.827903 
L 93.027566 304.827903 
z
" clip-path="url(#pfd2cf1f37c)" style="fill: #9fb7b9"/>
   </g>
   <g id="patch_47">
    <path d="M 1070.967552 304.811158 
L 1061.793421 304.811158 
Q 1071.58289 304.811158 1071.58289 304.392543 
L 1071.58289 288.518678 
Q 1071.58289 288.100064 1061.793421 288.100064 
L 1070.967552 288.100064 
Q 1061.178083 288.100064 1061.178083 288.518678 
L 1061.178083 304.392543 
Q 1061.178083 304.811158 1070.967552 304.811158 
z
" clip-path="url(#pfd2cf1f37c)" style="fill: #4062bb"/>
   </g>
   <g id="patch_48">
    <path d="M 962.891814 304.827903 
L 974.079779 304.827903 
L 974.079779 304.827903 
L 962.891814 304.827903 
z
" clip-path="url(#pfd2cf1f37c)" style="fill: #4062bb"/>
   </g>
   <g id="patch_49">
    <path d="M 864.997124 304.827903 
L 876.185088 304.827903 
L 876.185088 304.827903 
L 864.997124 304.827903 
z
" clip-path="url(#pfd2cf1f37c)" style="fill: #4062bb"/>
   </g>
   <g id="patch_50">
    <path d="M 767.102434 304.827903 
L 778.290398 304.827903 
L 778.290398 304.827903 
L 767.102434 304.827903 
z
" clip-path="url(#pfd2cf1f37c)" style="fill: #4062bb"/>
   </g>
   <g id="patch_51">
    <path d="M 679.388791 304.811158 
L 670.21466 304.811158 
Q 680.004129 304.811158 680.004129 304.392543 
L 680.004129 303.170189 
Q 680.004129 302.751574 670.21466 302.751574 
L 679.388791 302.751574 
Q 669.599322 302.751574 669.599322 303.170189 
L 669.599322 304.392543 
Q 669.599322 304.811158 679.388791 304.811158 
z
" clip-path="url(#pfd2cf1f37c)" style="fill: #4062bb"/>
   </g>
   <g id="patch_52">
    <path d="M 571.313053 304.827903 
L 582.501018 304.827903 
L 582.501018 304.827903 
L 571.313053 304.827903 
z
" clip-path="url(#pfd2cf1f37c)" style="fill: #4062bb"/>
   </g>
   <g id="patch_53">
    <path d="M 473.418363 304.827903 
L 484.606327 304.827903 
L 484.606327 304.827903 
L 473.418363 304.827903 
z
" clip-path="url(#pfd2cf1f37c)" style="fill: #4062bb"/>
   </g>
   <g id="patch_54">
    <path d="M 385.70472 304.811158 
L 376.530589 304.811158 
Q 386.320058 304.811158 386.320058 304.392543 
L 386.320058 303.170189 
Q 386.320058 302.751574 376.530589 302.751574 
L 385.70472 302.751574 
Q 375.915251 302.751574 375.915251 303.170189 
L 375.915251 304.392543 
Q 375.915251 304.811158 385.70472 304.811158 
z
" clip-path="url(#pfd2cf1f37c)" style="fill: #4062bb"/>
   </g>
   <g id="patch_55">
    <path d="M 287.81003 304.811158 
L 278.635899 304.811158 
Q 288.425368 304.811158 288.425368 304.392543 
L 288.425368 301.077116 
Q 288.425368 300.658501 278.635899 300.658501 
L 287.81003 300.658501 
Q 278.020561 300.658501 278.020561 301.077116 
L 278.020561 304.392543 
Q 278.020561 304.811158 287.81003 304.811158 
z
" clip-path="url(#pfd2cf1f37c)" style="fill: #4062bb"/>
   </g>
   <g id="patch_56">
    <path d="M 179.734292 304.827903 
L 190.922257 304.827903 
L 190.922257 304.827903 
L 179.734292 304.827903 
z
" clip-path="url(#pfd2cf1f37c)" style="fill: #4062bb"/>
   </g>
   <g id="patch_57">
    <path d="M 92.02065 304.811158 
L 82.846519 304.811158 
Q 92.635988 304.811158 92.635988 304.392543 
L 92.635988 301.077116 
Q 92.635988 300.658501 82.846519 300.658501 
L 92.02065 300.658501 
Q 82.231181 300.658501 82.231181 301.077116 
L 82.231181 304.392543 
Q 82.231181 304.811158 92.02065 304.811158 
z
" clip-path="url(#pfd2cf1f37c)" style="fill: #4062bb"/>
   </g>
   <g id="patch_58">
    <path d="M 1059.779588 304.811158 
L 1050.605457 304.811158 
Q 1060.394926 304.811158 1060.394926 304.392543 
L 1060.394926 245.610683 
Q 1060.394926 245.192068 1050.605457 245.192068 
L 1059.779588 245.192068 
Q 1049.990119 245.192068 1049.990119 245.610683 
L 1049.990119 304.392543 
Q 1049.990119 304.811158 1059.779588 304.811158 
z
" clip-path="url(#pfd2cf1f37c)" style="fill: #f45b69"/>
   </g>
   <g id="patch_59">
    <path d="M 961.884897 304.811158 
L 952.710766 304.811158 
Q 962.500235 304.811158 962.500235 304.392543 
L 962.500235 180.725422 
Q 962.500235 180.306807 952.710766 180.306807 
L 961.884897 180.306807 
Q 952.095428 180.306807 952.095428 180.725422 
L 952.095428 304.392543 
Q 952.095428 304.811158 961.884897 304.811158 
z
" clip-path="url(#pfd2cf1f37c)" style="fill: #f45b69"/>
   </g>
   <g id="patch_60">
    <path d="M 863.990207 304.811158 
L 854.816076 304.811158 
Q 864.605545 304.811158 864.605545 304.392543 
L 864.605545 130.491672 
Q 864.605545 130.073057 854.816076 130.073057 
L 863.990207 130.073057 
Q 854.200738 130.073057 854.200738 130.491672 
L 854.200738 304.392543 
Q 854.200738 304.811158 863.990207 304.811158 
z
" clip-path="url(#pfd2cf1f37c)" style="fill: #f45b69"/>
   </g>
   <g id="patch_61">
    <path d="M 766.095517 304.811158 
L 756.921386 304.811158 
Q 766.710855 304.811158 766.710855 304.392543 
L 766.710855 208.981907 
Q 766.710855 208.563292 756.921386 208.563292 
L 766.095517 208.563292 
Q 756.306048 208.563292 756.306048 208.981907 
L 756.306048 304.392543 
Q 756.306048 304.811158 766.095517 304.811158 
z
" clip-path="url(#pfd2cf1f37c)" style="fill: #f45b69"/>
   </g>
   <g id="patch_62">
    <path d="M 668.200827 304.811158 
L 659.026696 304.811158 
Q 668.816165 304.811158 668.816165 304.392543 
L 668.816165 203.749224 
Q 668.816165 203.33061 659.026696 203.33061 
L 668.200827 203.33061 
Q 658.411358 203.33061 658.411358 203.749224 
L 658.411358 304.392543 
Q 658.411358 304.811158 668.200827 304.811158 
z
" clip-path="url(#pfd2cf1f37c)" style="fill: #f45b69"/>
   </g>
   <g id="patch_63">
    <path d="M 570.306136 304.811158 
L 561.132005 304.811158 
Q 570.921474 304.811158 570.921474 304.392543 
L 570.921474 249.796829 
Q 570.921474 249.378214 561.132005 249.378214 
L 570.306136 249.378214 
Q 560.516667 249.378214 560.516667 249.796829 
L 560.516667 304.392543 
Q 560.516667 304.811158 570.306136 304.811158 
z
" clip-path="url(#pfd2cf1f37c)" style="fill: #f45b69"/>
   </g>
   <g id="patch_64">
    <path d="M 472.411446 304.811158 
L 463.237315 304.811158 
Q 473.026784 304.811158 473.026784 304.392543 
L 473.026784 139.9105 
Q 473.026784 139.491885 463.237315 139.491885 
L 472.411446 139.491885 
Q 462.621977 139.491885 462.621977 139.9105 
L 462.621977 304.392543 
Q 462.621977 304.811158 472.411446 304.811158 
z
" clip-path="url(#pfd2cf1f37c)" style="fill: #f45b69"/>
   </g>
   <g id="patch_65">
    <path d="M 374.516756 304.811158 
L 365.342625 304.811158 
Q 375.132094 304.811158 375.132094 304.392543 
L 375.132094 211.07498 
Q 375.132094 210.656365 365.342625 210.656365 
L 374.516756 210.656365 
Q 364.727287 210.656365 364.727287 211.07498 
L 364.727287 304.392543 
Q 364.727287 304.811158 374.516756 304.811158 
z
" clip-path="url(#pfd2cf1f37c)" style="fill: #f45b69"/>
   </g>
   <g id="patch_66">
    <path d="M 276.622065 304.811158 
L 267.447935 304.811158 
Q 277.237404 304.811158 277.237404 304.392543 
L 277.237404 152.468937 
Q 277.237404 152.050323 267.447935 152.050323 
L 276.622065 152.050323 
Q 266.832596 152.050323 266.832596 152.468937 
L 266.832596 304.392543 
Q 266.832596 304.811158 276.622065 304.811158 
z
" clip-path="url(#pfd2cf1f37c)" style="fill: #f45b69"/>
   </g>
   <g id="patch_67">
    <path d="M 178.727375 304.811158 
L 169.553244 304.811158 
Q 179.342713 304.811158 179.342713 304.392543 
L 179.342713 226.773027 
Q 179.342713 226.354412 169.553244 226.354412 
L 178.727375 226.354412 
Q 168.937906 226.354412 168.937906 226.773027 
L 168.937906 304.392543 
Q 168.937906 304.811158 178.727375 304.811158 
z
" clip-path="url(#pfd2cf1f37c)" style="fill: #f45b69"/>
   </g>
   <g id="patch_68">
    <path d="M 80.832685 304.811158 
L 71.658554 304.811158 
Q 81.448023 304.811158 81.448023 304.392543 
L 81.448023 235.145318 
Q 81.448023 234.726704 71.658554 234.726704 
L 80.832685 234.726704 
Q 71.043216 234.726704 71.043216 235.145318 
L 71.043216 304.392543 
Q 71.043216 304.811158 80.832685 304.811158 
z
" clip-path="url(#pfd2cf1f37c)" style="fill: #f45b69"/>
   </g>
   <g id="patch_69">
    <path d="M 1048.591623 304.811158 
L 1039.417492 304.811158 
Q 1049.206961 304.811158 1049.206961 304.392543 
L 1049.206961 103.281723 
Q 1049.206961 102.863109 1039.417492 102.863109 
L 1048.591623 102.863109 
Q 1038.802154 102.863109 1038.802154 103.281723 
L 1038.802154 304.392543 
Q 1038.802154 304.811158 1048.591623 304.811158 
z
" clip-path="url(#pfd2cf1f37c)" style="fill: #59c3c3"/>
   </g>
   <g id="patch_70">
    <path d="M 950.696933 304.811158 
L 941.522802 304.811158 
Q 951.312271 304.811158 951.312271 304.392543 
L 951.312271 99.095577 
Q 951.312271 98.676963 941.522802 98.676963 
L 950.696933 98.676963 
Q 940.907464 98.676963 940.907464 99.095577 
L 940.907464 304.392543 
Q 940.907464 304.811158 950.696933 304.811158 
z
" clip-path="url(#pfd2cf1f37c)" style="fill: #59c3c3"/>
   </g>
   <g id="patch_71">
    <path d="M 852.802242 304.811158 
L 843.628112 304.811158 
Q 853.417581 304.811158 853.417581 304.392543 
L 853.417581 114.793624 
Q 853.417581 114.37501 843.628112 114.37501 
L 852.802242 114.37501 
Q 843.012773 114.37501 843.012773 114.793624 
L 843.012773 304.392543 
Q 843.012773 304.811158 852.802242 304.811158 
z
" clip-path="url(#pfd2cf1f37c)" style="fill: #59c3c3"/>
   </g>
   <g id="patch_72">
    <path d="M 754.907552 304.811158 
L 745.733421 304.811158 
Q 755.52289 304.811158 755.52289 304.392543 
L 755.52289 127.352062 
Q 755.52289 126.933448 745.733421 126.933448 
L 754.907552 126.933448 
Q 745.118083 126.933448 745.118083 127.352062 
L 745.118083 304.392543 
Q 745.118083 304.811158 754.907552 304.811158 
z
" clip-path="url(#pfd2cf1f37c)" style="fill: #59c3c3"/>
   </g>
   <g id="patch_73">
    <path d="M 657.012862 304.811158 
L 647.838731 304.811158 
Q 657.6282 304.811158 657.6282 304.392543 
L 657.6282 153.515474 
Q 657.6282 153.096859 647.838731 153.096859 
L 657.012862 153.096859 
Q 647.223393 153.096859 647.223393 153.515474 
L 647.223393 304.392543 
Q 647.223393 304.811158 657.012862 304.811158 
z
" clip-path="url(#pfd2cf1f37c)" style="fill: #59c3c3"/>
   </g>
   <g id="patch_74">
    <path d="M 559.118172 304.811158 
L 549.944041 304.811158 
Q 559.73351 304.811158 559.73351 304.392543 
L 559.73351 169.213521 
Q 559.73351 168.794906 549.944041 168.794906 
L 559.118172 168.794906 
Q 549.328703 168.794906 549.328703 169.213521 
L 549.328703 304.392543 
Q 549.328703 304.811158 559.118172 304.811158 
z
" clip-path="url(#pfd2cf1f37c)" style="fill: #59c3c3"/>
   </g>
   <g id="patch_75">
    <path d="M 461.223481 304.811158 
L 452.04935 304.811158 
Q 461.838819 304.811158 461.838819 304.392543 
L 461.838819 28.977634 
Q 461.838819 28.559019 452.04935 28.559019 
L 461.223481 28.559019 
Q 451.434012 28.559019 451.434012 28.977634 
L 451.434012 304.392543 
Q 451.434012 304.811158 461.223481 304.811158 
z
" clip-path="url(#pfd2cf1f37c)" style="fill: #59c3c3"/>
   </g>
   <g id="patch_76">
    <path d="M 363.328791 304.811158 
L 354.15466 304.811158 
Q 363.944129 304.811158 363.944129 304.392543 
L 363.944129 125.258989 
Q 363.944129 124.840375 354.15466 124.840375 
L 363.328791 124.840375 
Q 353.539322 124.840375 353.539322 125.258989 
L 353.539322 304.392543 
Q 353.539322 304.811158 363.328791 304.811158 
z
" clip-path="url(#pfd2cf1f37c)" style="fill: #59c3c3"/>
   </g>
   <g id="patch_77">
    <path d="M 265.434101 304.811158 
L 256.25997 304.811158 
Q 266.049439 304.811158 266.049439 304.392543 
L 266.049439 39.442999 
Q 266.049439 39.024384 256.25997 39.024384 
L 265.434101 39.024384 
Q 255.644632 39.024384 255.644632 39.442999 
L 255.644632 304.392543 
Q 255.644632 304.811158 265.434101 304.811158 
z
" clip-path="url(#pfd2cf1f37c)" style="fill: #59c3c3"/>
   </g>
   <g id="patch_78">
    <path d="M 167.539411 304.811158 
L 158.36528 304.811158 
Q 168.154749 304.811158 168.154749 304.392543 
L 168.154749 166.073911 
Q 168.154749 165.655297 158.36528 165.655297 
L 167.539411 165.655297 
Q 157.749942 165.655297 157.749942 166.073911 
L 157.749942 304.392543 
Q 157.749942 304.811158 167.539411 304.811158 
z
" clip-path="url(#pfd2cf1f37c)" style="fill: #59c3c3"/>
   </g>
   <g id="patch_79">
    <path d="M 69.64472 304.811158 
L 60.470589 304.811158 
Q 70.260058 304.811158 70.260058 304.392543 
L 70.260058 169.213521 
Q 70.260058 168.794906 60.470589 168.794906 
L 69.64472 168.794906 
Q 59.855251 168.794906 59.855251 169.213521 
L 59.855251 304.392543 
Q 59.855251 304.811158 69.64472 304.811158 
z
" clip-path="url(#pfd2cf1f37c)" style="fill: #59c3c3"/>
   </g>
   <g id="line2d_24">
    <path d="M 147.568894 304.827903 
L 147.568894 14.727993 
" clip-path="url(#pfd2cf1f37c)" style="fill: none; stroke-dasharray: 1.48,0.64; stroke-dashoffset: 0; stroke: #808080; stroke-width: 0.4"/>
    <defs>
     <path id="m0bf151194c" d="M 0 0.00005 
C 0.000013 0.00005 0.000026 0.000045 0.000035 0.000035 
C 0.000045 0.000026 0.00005 0.000013 0.00005 0 
C 0.00005 -0.000013 0.000045 -0.000026 0.000035 -0.000035 
C 0.000026 -0.000045 0.000013 -0.00005 0 -0.00005 
C -0.000013 -0.00005 -0.000026 -0.000045 -0.000035 -0.000035 
C -0.000045 -0.000026 -0.00005 -0.000013 -0.00005 0 
C -0.00005 0.000013 -0.000045 0.000026 -0.000035 0.000035 
C -0.000026 0.000045 -0.000013 0.00005 0 0.00005 
z
" style="stroke: #808080"/>
    </defs>
    <g clip-path="url(#pfd2cf1f37c)">
     <use xlink:href="#m0bf151194c" x="147.568894" y="304.827903" style="fill: #808080; stroke: #808080"/>
     <use xlink:href="#m0bf151194c" x="147.568894" y="14.727993" style="fill: #808080; stroke: #808080"/>
    </g>
   </g>
   <g id="line2d_25">
    <path d="M 245.463584 304.827903 
L 245.463584 14.727993 
" clip-path="url(#pfd2cf1f37c)" style="fill: none; stroke-dasharray: 1.48,0.64; stroke-dashoffset: 0; stroke: #808080; stroke-width: 0.4"/>
    <g clip-path="url(#pfd2cf1f37c)">
     <use xlink:href="#m0bf151194c" x="245.463584" y="304.827903" style="fill: #808080; stroke: #808080"/>
     <use xlink:href="#m0bf151194c" x="245.463584" y="14.727993" style="fill: #808080; stroke: #808080"/>
    </g>
   </g>
   <g id="line2d_26">
    <path d="M 343.358274 304.827903 
L 343.358274 14.727993 
" clip-path="url(#pfd2cf1f37c)" style="fill: none; stroke-dasharray: 1.48,0.64; stroke-dashoffset: 0; stroke: #808080; stroke-width: 0.4"/>
    <g clip-path="url(#pfd2cf1f37c)">
     <use xlink:href="#m0bf151194c" x="343.358274" y="304.827903" style="fill: #808080; stroke: #808080"/>
     <use xlink:href="#m0bf151194c" x="343.358274" y="14.727993" style="fill: #808080; stroke: #808080"/>
    </g>
   </g>
   <g id="line2d_27">
    <path d="M 441.252965 304.827903 
L 441.252965 14.727993 
" clip-path="url(#pfd2cf1f37c)" style="fill: none; stroke-dasharray: 1.48,0.64; stroke-dashoffset: 0; stroke: #808080; stroke-width: 0.4"/>
    <g clip-path="url(#pfd2cf1f37c)">
     <use xlink:href="#m0bf151194c" x="441.252965" y="304.827903" style="fill: #808080; stroke: #808080"/>
     <use xlink:href="#m0bf151194c" x="441.252965" y="14.727993" style="fill: #808080; stroke: #808080"/>
    </g>
   </g>
   <g id="line2d_28">
    <path d="M 539.147655 304.827903 
L 539.147655 14.727993 
" clip-path="url(#pfd2cf1f37c)" style="fill: none; stroke-dasharray: 1.48,0.64; stroke-dashoffset: 0; stroke: #808080; stroke-width: 0.4"/>
    <g clip-path="url(#pfd2cf1f37c)">
     <use xlink:href="#m0bf151194c" x="539.147655" y="304.827903" style="fill: #808080; stroke: #808080"/>
     <use xlink:href="#m0bf151194c" x="539.147655" y="14.727993" style="fill: #808080; stroke: #808080"/>
    </g>
   </g>
   <g id="line2d_29">
    <path d="M 637.042345 304.827903 
L 637.042345 14.727993 
" clip-path="url(#pfd2cf1f37c)" style="fill: none; stroke-dasharray: 1.48,0.64; stroke-dashoffset: 0; stroke: #808080; stroke-width: 0.4"/>
    <g clip-path="url(#pfd2cf1f37c)">
     <use xlink:href="#m0bf151194c" x="637.042345" y="304.827903" style="fill: #808080; stroke: #808080"/>
     <use xlink:href="#m0bf151194c" x="637.042345" y="14.727993" style="fill: #808080; stroke: #808080"/>
    </g>
   </g>
   <g id="line2d_30">
    <path d="M 734.937035 304.827903 
L 734.937035 14.727993 
" clip-path="url(#pfd2cf1f37c)" style="fill: none; stroke-dasharray: 1.48,0.64; stroke-dashoffset: 0; stroke: #808080; stroke-width: 0.4"/>
    <g clip-path="url(#pfd2cf1f37c)">
     <use xlink:href="#m0bf151194c" x="734.937035" y="304.827903" style="fill: #808080; stroke: #808080"/>
     <use xlink:href="#m0bf151194c" x="734.937035" y="14.727993" style="fill: #808080; stroke: #808080"/>
    </g>
   </g>
   <g id="line2d_31">
    <path d="M 832.831726 304.827903 
L 832.831726 14.727993 
" clip-path="url(#pfd2cf1f37c)" style="fill: none; stroke-dasharray: 1.48,0.64; stroke-dashoffset: 0; stroke: #808080; stroke-width: 0.4"/>
    <g clip-path="url(#pfd2cf1f37c)">
     <use xlink:href="#m0bf151194c" x="832.831726" y="304.827903" style="fill: #808080; stroke: #808080"/>
     <use xlink:href="#m0bf151194c" x="832.831726" y="14.727993" style="fill: #808080; stroke: #808080"/>
    </g>
   </g>
   <g id="line2d_32">
    <path d="M 930.726416 304.827903 
L 930.726416 14.727993 
" clip-path="url(#pfd2cf1f37c)" style="fill: none; stroke-dasharray: 1.48,0.64; stroke-dashoffset: 0; stroke: #808080; stroke-width: 0.4"/>
    <g clip-path="url(#pfd2cf1f37c)">
     <use xlink:href="#m0bf151194c" x="930.726416" y="304.827903" style="fill: #808080; stroke: #808080"/>
     <use xlink:href="#m0bf151194c" x="930.726416" y="14.727993" style="fill: #808080; stroke: #808080"/>
    </g>
   </g>
   <g id="line2d_33">
    <path d="M 1028.621106 304.827903 
L 1028.621106 14.727993 
" clip-path="url(#pfd2cf1f37c)" style="fill: none; stroke-dasharray: 1.48,0.64; stroke-dashoffset: 0; stroke: #808080; stroke-width: 0.4"/>
    <g clip-path="url(#pfd2cf1f37c)">
     <use xlink:href="#m0bf151194c" x="1028.621106" y="304.827903" style="fill: #808080; stroke: #808080"/>
     <use xlink:href="#m0bf151194c" x="1028.621106" y="14.727993" style="fill: #808080; stroke: #808080"/>
    </g>
   </g>
   <g id="patch_80">
    <path d="M 34.99 304.827903 
L 34.99 14.727993 
" style="fill: none; stroke: #000000; stroke-width: 0.8; stroke-linejoin: miter; stroke-linecap: square"/>
   </g>
   <g id="patch_81">
    <path d="M 34.99 304.827903 
L 1141.2 304.827903 
" style="fill: none; stroke: #000000; stroke-width: 0.8; stroke-linejoin: miter; stroke-linecap: square"/>
   </g>
   <g id="text_19">
    <!-- 130 -->
    <g style="fill: #37539c" transform="translate(62.098634 164.588676) rotate(-45) scale(0.07 -0.07)">
     <use xlink:href="#OpenSans-Bold-31"/>
     <use xlink:href="#OpenSans-Bold-33" x="57.177734"/>
     <use xlink:href="#OpenSans-Bold-30" x="114.355469"/>
    </g>
   </g>
   <g id="text_20">
    <!-- 133 -->
    <g style="fill: #37539c" transform="translate(159.993324 161.449066) rotate(-45) scale(0.07 -0.07)">
     <use xlink:href="#OpenSans-Bold-31"/>
     <use xlink:href="#OpenSans-Bold-33" x="57.177734"/>
     <use xlink:href="#OpenSans-Bold-33" x="114.355469"/>
    </g>
   </g>
   <g id="text_21">
    <!-- 254 -->
    <g style="fill: #37539c" transform="translate(257.888014 34.818153) rotate(-45) scale(0.07 -0.07)">
     <use xlink:href="#OpenSans-Bold-32"/>
     <use xlink:href="#OpenSans-Bold-35" x="57.177734"/>
     <use xlink:href="#OpenSans-Bold-34" x="114.355469"/>
    </g>
   </g>
   <g id="text_22">
    <!-- 172 -->
    <g style="fill: #37539c" transform="translate(355.782705 120.634144) rotate(-45) scale(0.07 -0.07)">
     <use xlink:href="#OpenSans-Bold-31"/>
     <use xlink:href="#OpenSans-Bold-37" x="57.177734"/>
     <use xlink:href="#OpenSans-Bold-32" x="114.355469"/>
    </g>
   </g>
   <g id="text_23">
    <!-- 264 -->
    <g style="fill: #37539c" transform="translate(453.677395 24.352789) rotate(-45) scale(0.07 -0.07)">
     <use xlink:href="#OpenSans-Bold-32"/>
     <use xlink:href="#OpenSans-Bold-36" x="57.177734"/>
     <use xlink:href="#OpenSans-Bold-34" x="114.355469"/>
    </g>
   </g>
   <g id="text_24">
    <!-- 130 -->
    <g style="fill: #37539c" transform="translate(551.572085 164.588676) rotate(-45) scale(0.07 -0.07)">
     <use xlink:href="#OpenSans-Bold-31"/>
     <use xlink:href="#OpenSans-Bold-33" x="57.177734"/>
     <use xlink:href="#OpenSans-Bold-30" x="114.355469"/>
    </g>
   </g>
   <g id="text_25">
    <!-- 145 -->
    <g style="fill: #37539c" transform="translate(649.466776 148.890628) rotate(-45) scale(0.07 -0.07)">
     <use xlink:href="#OpenSans-Bold-31"/>
     <use xlink:href="#OpenSans-Bold-34" x="57.177734"/>
     <use xlink:href="#OpenSans-Bold-35" x="114.355469"/>
    </g>
   </g>
   <g id="text_26">
    <!-- 170 -->
    <g style="fill: #37539c" transform="translate(747.361466 122.727217) rotate(-45) scale(0.07 -0.07)">
     <use xlink:href="#OpenSans-Bold-31"/>
     <use xlink:href="#OpenSans-Bold-37" x="57.177734"/>
     <use xlink:href="#OpenSans-Bold-30" x="114.355469"/>
    </g>
   </g>
   <g id="text_27">
    <!-- 182 -->
    <g style="fill: #37539c" transform="translate(845.256156 110.168779) rotate(-45) scale(0.07 -0.07)">
     <use xlink:href="#OpenSans-Bold-31"/>
     <use xlink:href="#OpenSans-Bold-38" x="57.177734"/>
     <use xlink:href="#OpenSans-Bold-32" x="114.355469"/>
    </g>
   </g>
   <g id="text_28">
    <!-- 197 -->
    <g style="fill: #37539c" transform="translate(943.150846 94.470732) rotate(-45) scale(0.07 -0.07)">
     <use xlink:href="#OpenSans-Bold-31"/>
     <use xlink:href="#OpenSans-Bold-39" x="57.177734"/>
     <use xlink:href="#OpenSans-Bold-37" x="114.355469"/>
    </g>
   </g>
   <g id="text_29">
    <!-- 193 -->
    <g style="fill: #37539c" transform="translate(1041.045537 98.656878) rotate(-45) scale(0.07 -0.07)">
     <use xlink:href="#OpenSans-Bold-31"/>
     <use xlink:href="#OpenSans-Bold-39" x="57.177734"/>
     <use xlink:href="#OpenSans-Bold-33" x="114.355469"/>
    </g>
   </g>
   <g id="text_30">
    <!-- 67 -->
    <g style="fill: #37539c" transform="translate(74.70153 230.520473) rotate(-45) scale(0.07 -0.07)">
     <use xlink:href="#OpenSans-Bold-36"/>
     <use xlink:href="#OpenSans-Bold-37" x="57.177734"/>
    </g>
   </g>
   <g id="text_31">
    <!-- 75 -->
    <g style="fill: #37539c" transform="translate(172.596221 222.148181) rotate(-45) scale(0.07 -0.07)">
     <use xlink:href="#OpenSans-Bold-37"/>
     <use xlink:href="#OpenSans-Bold-35" x="57.177734"/>
    </g>
   </g>
   <g id="text_32">
    <!-- 146 -->
    <g style="fill: #37539c" transform="translate(269.075979 147.844092) rotate(-45) scale(0.07 -0.07)">
     <use xlink:href="#OpenSans-Bold-31"/>
     <use xlink:href="#OpenSans-Bold-34" x="57.177734"/>
     <use xlink:href="#OpenSans-Bold-36" x="114.355469"/>
    </g>
   </g>
   <g id="text_33">
    <!-- 90 -->
    <g style="fill: #37539c" transform="translate(368.385601 206.450134) rotate(-45) scale(0.07 -0.07)">
     <use xlink:href="#OpenSans-Bold-39"/>
     <use xlink:href="#OpenSans-Bold-30" x="57.177734"/>
    </g>
   </g>
   <g id="text_34">
    <!-- 158 -->
    <g style="fill: #37539c" transform="translate(464.86536 135.285654) rotate(-45) scale(0.07 -0.07)">
     <use xlink:href="#OpenSans-Bold-31"/>
     <use xlink:href="#OpenSans-Bold-35" x="57.177734"/>
     <use xlink:href="#OpenSans-Bold-38" x="114.355469"/>
    </g>
   </g>
   <g id="text_35">
    <!-- 53 -->
    <g style="fill: #37539c" transform="translate(564.174982 245.171984) rotate(-45) scale(0.07 -0.07)">
     <use xlink:href="#OpenSans-Bold-35"/>
     <use xlink:href="#OpenSans-Bold-33" x="57.177734"/>
    </g>
   </g>
   <g id="text_36">
    <!-- 97 -->
    <g style="fill: #37539c" transform="translate(662.069672 199.124379) rotate(-45) scale(0.07 -0.07)">
     <use xlink:href="#OpenSans-Bold-39"/>
     <use xlink:href="#OpenSans-Bold-37" x="57.177734"/>
    </g>
   </g>
   <g id="text_37">
    <!-- 92 -->
    <g style="fill: #37539c" transform="translate(759.964362 204.357061) rotate(-45) scale(0.07 -0.07)">
     <use xlink:href="#OpenSans-Bold-39"/>
     <use xlink:href="#OpenSans-Bold-32" x="57.177734"/>
    </g>
   </g>
   <g id="text_38">
    <!-- 167 -->
    <g style="fill: #37539c" transform="translate(856.444121 125.866826) rotate(-45) scale(0.07 -0.07)">
     <use xlink:href="#OpenSans-Bold-31"/>
     <use xlink:href="#OpenSans-Bold-36" x="57.177734"/>
     <use xlink:href="#OpenSans-Bold-37" x="114.355469"/>
    </g>
   </g>
   <g id="text_39">
    <!-- 119 -->
    <g style="fill: #37539c" transform="translate(954.338811 176.100577) rotate(-45) scale(0.07 -0.07)">
     <use xlink:href="#OpenSans-Bold-31"/>
     <use xlink:href="#OpenSans-Bold-31" x="57.177734"/>
     <use xlink:href="#OpenSans-Bold-39" x="114.355469"/>
    </g>
   </g>
   <g id="text_40">
    <!-- 57 -->
    <g style="fill: #37539c" transform="translate(1053.648433 240.985838) rotate(-45) scale(0.07 -0.07)">
     <use xlink:href="#OpenSans-Bold-35"/>
     <use xlink:href="#OpenSans-Bold-37" x="57.177734"/>
    </g>
   </g>
   <g id="text_41">
    <!-- 4 -->
    <g style="fill: #37539c" transform="translate(87.304427 296.452271) rotate(-45) scale(0.07 -0.07)">
     <use xlink:href="#OpenSans-Bold-34"/>
    </g>
   </g>
   <g id="text_42">
    <!-- 0 -->
    <g style="fill: #37539c" transform="translate(185.199117 300.638416) rotate(-45) scale(0.07 -0.07)">
     <use xlink:href="#OpenSans-Bold-30"/>
    </g>
   </g>
   <g id="text_43">
    <!-- 4 -->
    <g style="fill: #37539c" transform="translate(283.093807 296.452271) rotate(-45) scale(0.07 -0.07)">
     <use xlink:href="#OpenSans-Bold-34"/>
    </g>
   </g>
   <g id="text_44">
    <!-- 2 -->
    <g style="fill: #37539c" transform="translate(380.988497 298.545344) rotate(-45) scale(0.07 -0.07)">
     <use xlink:href="#OpenSans-Bold-32"/>
    </g>
   </g>
   <g id="text_45">
    <!-- 0 -->
    <g style="fill: #37539c" transform="translate(478.883188 300.638416) rotate(-45) scale(0.07 -0.07)">
     <use xlink:href="#OpenSans-Bold-30"/>
    </g>
   </g>
   <g id="text_46">
    <!-- 0 -->
    <g style="fill: #37539c" transform="translate(576.777878 300.638416) rotate(-45) scale(0.07 -0.07)">
     <use xlink:href="#OpenSans-Bold-30"/>
    </g>
   </g>
   <g id="text_47">
    <!-- 2 -->
    <g style="fill: #37539c" transform="translate(674.672568 298.545344) rotate(-45) scale(0.07 -0.07)">
     <use xlink:href="#OpenSans-Bold-32"/>
    </g>
   </g>
   <g id="text_48">
    <!-- 0 -->
    <g style="fill: #37539c" transform="translate(772.567258 300.638416) rotate(-45) scale(0.07 -0.07)">
     <use xlink:href="#OpenSans-Bold-30"/>
    </g>
   </g>
   <g id="text_49">
    <!-- 0 -->
    <g style="fill: #37539c" transform="translate(870.461949 300.638416) rotate(-45) scale(0.07 -0.07)">
     <use xlink:href="#OpenSans-Bold-30"/>
    </g>
   </g>
   <g id="text_50">
    <!-- 0 -->
    <g style="fill: #37539c" transform="translate(968.356639 300.638416) rotate(-45) scale(0.07 -0.07)">
     <use xlink:href="#OpenSans-Bold-30"/>
    </g>
   </g>
   <g id="text_51">
    <!-- 16 -->
    <g style="fill: #37539c" transform="translate(1064.836398 283.893833) rotate(-45) scale(0.07 -0.07)">
     <use xlink:href="#OpenSans-Bold-31"/>
     <use xlink:href="#OpenSans-Bold-36" x="57.177734"/>
    </g>
   </g>
   <g id="text_52">
    <!-- 0 -->
    <g style="fill: #37539c" transform="translate(98.492391 300.638416) rotate(-45) scale(0.07 -0.07)">
     <use xlink:href="#OpenSans-Bold-30"/>
    </g>
   </g>
   <g id="text_53">
    <!-- 1 -->
    <g style="fill: #37539c" transform="translate(196.387081 299.59188) rotate(-45) scale(0.07 -0.07)">
     <use xlink:href="#OpenSans-Bold-31"/>
    </g>
   </g>
   <g id="text_54">
    <!-- 23 -->
    <g style="fill: #37539c" transform="translate(292.86684 276.568078) rotate(-45) scale(0.07 -0.07)">
     <use xlink:href="#OpenSans-Bold-32"/>
     <use xlink:href="#OpenSans-Bold-33" x="57.177734"/>
    </g>
   </g>
   <g id="text_55">
    <!-- 7 -->
    <g style="fill: #37539c" transform="translate(392.176462 293.312661) rotate(-45) scale(0.07 -0.07)">
     <use xlink:href="#OpenSans-Bold-37"/>
    </g>
   </g>
   <g id="text_56">
    <!-- 9 -->
    <g style="fill: #37539c" transform="translate(490.071152 291.219588) rotate(-45) scale(0.07 -0.07)">
     <use xlink:href="#OpenSans-Bold-39"/>
    </g>
   </g>
   <g id="text_57">
    <!-- 16 -->
    <g style="fill: #37539c" transform="translate(586.550911 283.893833) rotate(-45) scale(0.07 -0.07)">
     <use xlink:href="#OpenSans-Bold-31"/>
     <use xlink:href="#OpenSans-Bold-36" x="57.177734"/>
    </g>
   </g>
   <g id="text_58">
    <!-- 3 -->
    <g style="fill: #37539c" transform="translate(685.860533 297.498807) rotate(-45) scale(0.07 -0.07)">
     <use xlink:href="#OpenSans-Bold-33"/>
    </g>
   </g>
   <g id="text_59">
    <!-- 30 -->
    <g style="fill: #37539c" transform="translate(782.340291 269.242322) rotate(-45) scale(0.07 -0.07)">
     <use xlink:href="#OpenSans-Bold-33"/>
     <use xlink:href="#OpenSans-Bold-30" x="57.177734"/>
    </g>
   </g>
   <g id="text_60">
    <!-- 25 -->
    <g style="fill: #37539c" transform="translate(880.234982 274.475005) rotate(-45) scale(0.07 -0.07)">
     <use xlink:href="#OpenSans-Bold-32"/>
     <use xlink:href="#OpenSans-Bold-35" x="57.177734"/>
    </g>
   </g>
   <g id="text_61">
    <!-- 14 -->
    <g style="fill: #37539c" transform="translate(978.129672 285.986906) rotate(-45) scale(0.07 -0.07)">
     <use xlink:href="#OpenSans-Bold-31"/>
     <use xlink:href="#OpenSans-Bold-34" x="57.177734"/>
    </g>
   </g>
   <g id="text_62">
    <!-- 18 -->
    <g style="fill: #37539c" transform="translate(1076.024362 281.80076) rotate(-45) scale(0.07 -0.07)">
     <use xlink:href="#OpenSans-Bold-31"/>
     <use xlink:href="#OpenSans-Bold-38" x="57.177734"/>
    </g>
   </g>
   <g id="text_63">
    <!-- 0 -->
    <g style="fill: #37539c" transform="translate(109.680356 300.638416) rotate(-45) scale(0.07 -0.07)">
     <use xlink:href="#OpenSans-Bold-30"/>
    </g>
   </g>
   <g id="text_64">
    <!-- 1 -->
    <g style="fill: #37539c" transform="translate(207.575046 299.59188) rotate(-45) scale(0.07 -0.07)">
     <use xlink:href="#OpenSans-Bold-31"/>
    </g>
   </g>
   <g id="text_65">
    <!-- 1 -->
    <g style="fill: #37539c" transform="translate(305.469736 299.59188) rotate(-45) scale(0.07 -0.07)">
     <use xlink:href="#OpenSans-Bold-31"/>
    </g>
   </g>
   <g id="text_66">
    <!-- 1 -->
    <g style="fill: #37539c" transform="translate(403.364427 299.59188) rotate(-45) scale(0.07 -0.07)">
     <use xlink:href="#OpenSans-Bold-31"/>
    </g>
   </g>
   <g id="text_67">
    <!-- 0 -->
    <g style="fill: #37539c" transform="translate(501.259117 300.638416) rotate(-45) scale(0.07 -0.07)">
     <use xlink:href="#OpenSans-Bold-30"/>
    </g>
   </g>
   <g id="text_68">
    <!-- 0 -->
    <g style="fill: #37539c" transform="translate(599.153807 300.638416) rotate(-45) scale(0.07 -0.07)">
     <use xlink:href="#OpenSans-Bold-30"/>
    </g>
   </g>
   <g id="text_69">
    <!-- 1 -->
    <g style="fill: #37539c" transform="translate(697.048497 299.59188) rotate(-45) scale(0.07 -0.07)">
     <use xlink:href="#OpenSans-Bold-31"/>
    </g>
   </g>
   <g id="text_70">
    <!-- 2 -->
    <g style="fill: #37539c" transform="translate(794.943188 298.545344) rotate(-45) scale(0.07 -0.07)">
     <use xlink:href="#OpenSans-Bold-32"/>
    </g>
   </g>
   <g id="text_71">
    <!-- 8 -->
    <g style="fill: #37539c" transform="translate(892.837878 292.266125) rotate(-45) scale(0.07 -0.07)">
     <use xlink:href="#OpenSans-Bold-38"/>
    </g>
   </g>
   <g id="text_72">
    <!-- 2 -->
    <g style="fill: #37539c" transform="translate(990.732568 298.545344) rotate(-45) scale(0.07 -0.07)">
     <use xlink:href="#OpenSans-Bold-32"/>
    </g>
   </g>
   <g id="text_73">
    <!-- 3 -->
    <g style="fill: #37539c" transform="translate(1088.627258 297.498807) rotate(-45) scale(0.07 -0.07)">
     <use xlink:href="#OpenSans-Bold-33"/>
    </g>
   </g>
   <g id="text_74">
    <!-- 0 -->
    <g style="fill: #37539c" transform="translate(120.86832 300.638416) rotate(-45) scale(0.07 -0.07)">
     <use xlink:href="#OpenSans-Bold-30"/>
    </g>
   </g>
   <g id="text_75">
    <!-- 1 -->
    <g style="fill: #37539c" transform="translate(218.763011 299.59188) rotate(-45) scale(0.07 -0.07)">
     <use xlink:href="#OpenSans-Bold-31"/>
    </g>
   </g>
   <g id="text_76">
    <!-- 1 -->
    <g style="fill: #37539c" transform="translate(316.657701 299.59188) rotate(-45) scale(0.07 -0.07)">
     <use xlink:href="#OpenSans-Bold-31"/>
    </g>
   </g>
   <g id="text_77">
    <!-- 0 -->
    <g style="fill: #37539c" transform="translate(414.552391 300.638416) rotate(-45) scale(0.07 -0.07)">
     <use xlink:href="#OpenSans-Bold-30"/>
    </g>
   </g>
   <g id="text_78">
    <!-- 0 -->
    <g style="fill: #37539c" transform="translate(512.447081 300.638416) rotate(-45) scale(0.07 -0.07)">
     <use xlink:href="#OpenSans-Bold-30"/>
    </g>
   </g>
   <g id="text_79">
    <!-- 1 -->
    <g style="fill: #37539c" transform="translate(610.341772 299.59188) rotate(-45) scale(0.07 -0.07)">
     <use xlink:href="#OpenSans-Bold-31"/>
    </g>
   </g>
   <g id="text_80">
    <!-- 0 -->
    <g style="fill: #37539c" transform="translate(708.236462 300.638416) rotate(-45) scale(0.07 -0.07)">
     <use xlink:href="#OpenSans-Bold-30"/>
    </g>
   </g>
   <g id="text_81">
    <!-- 1 -->
    <g style="fill: #37539c" transform="translate(806.131152 299.59188) rotate(-45) scale(0.07 -0.07)">
     <use xlink:href="#OpenSans-Bold-31"/>
    </g>
   </g>
   <g id="text_82">
    <!-- 3 -->
    <g style="fill: #37539c" transform="translate(904.025843 297.498807) rotate(-45) scale(0.07 -0.07)">
     <use xlink:href="#OpenSans-Bold-33"/>
    </g>
   </g>
   <g id="text_83">
    <!-- 0 -->
    <g style="fill: #37539c" transform="translate(1001.920533 300.638416) rotate(-45) scale(0.07 -0.07)">
     <use xlink:href="#OpenSans-Bold-30"/>
    </g>
   </g>
   <g id="text_84">
    <!-- 0 -->
    <g style="fill: #37539c" transform="translate(1099.815223 300.638416) rotate(-45) scale(0.07 -0.07)">
     <use xlink:href="#OpenSans-Bold-30"/>
    </g>
   </g>
   <g id="text_85">
    <!-- 0 -->
    <g style="fill: #37539c" transform="translate(132.056285 300.638416) rotate(-45) scale(0.07 -0.07)">
     <use xlink:href="#OpenSans-Bold-30"/>
    </g>
   </g>
   <g id="text_86">
    <!-- 0 -->
    <g style="fill: #37539c" transform="translate(229.950975 300.638416) rotate(-45) scale(0.07 -0.07)">
     <use xlink:href="#OpenSans-Bold-30"/>
    </g>
   </g>
   <g id="text_87">
    <!-- 0 -->
    <g style="fill: #37539c" transform="translate(327.845666 300.638416) rotate(-45) scale(0.07 -0.07)">
     <use xlink:href="#OpenSans-Bold-30"/>
    </g>
   </g>
   <g id="text_88">
    <!-- 0 -->
    <g style="fill: #37539c" transform="translate(425.740356 300.638416) rotate(-45) scale(0.07 -0.07)">
     <use xlink:href="#OpenSans-Bold-30"/>
    </g>
   </g>
   <g id="text_89">
    <!-- 0 -->
    <g style="fill: #37539c" transform="translate(523.635046 300.638416) rotate(-45) scale(0.07 -0.07)">
     <use xlink:href="#OpenSans-Bold-30"/>
    </g>
   </g>
   <g id="text_90">
    <!-- 0 -->
    <g style="fill: #37539c" transform="translate(621.529736 300.638416) rotate(-45) scale(0.07 -0.07)">
     <use xlink:href="#OpenSans-Bold-30"/>
    </g>
   </g>
   <g id="text_91">
    <!-- 1 -->
    <g style="fill: #37539c" transform="translate(719.424427 299.59188) rotate(-45) scale(0.07 -0.07)">
     <use xlink:href="#OpenSans-Bold-31"/>
    </g>
   </g>
   <g id="text_92">
    <!-- 0 -->
    <g style="fill: #37539c" transform="translate(817.319117 300.638416) rotate(-45) scale(0.07 -0.07)">
     <use xlink:href="#OpenSans-Bold-30"/>
    </g>
   </g>
   <g id="text_93">
    <!-- 0 -->
    <g style="fill: #37539c" transform="translate(915.213807 300.638416) rotate(-45) scale(0.07 -0.07)">
     <use xlink:href="#OpenSans-Bold-30"/>
    </g>
   </g>
   <g id="text_94">
    <!-- 0 -->
    <g style="fill: #37539c" transform="translate(1013.108497 300.638416) rotate(-45) scale(0.07 -0.07)">
     <use xlink:href="#OpenSans-Bold-30"/>
    </g>
   </g>
   <g id="text_95">
    <!-- 0 -->
    <g style="fill: #37539c" transform="translate(1111.003188 300.638416) rotate(-45) scale(0.07 -0.07)">
     <use xlink:href="#OpenSans-Bold-30"/>
    </g>
   </g>
   <g id="legend_1">
    <g id="patch_82">
     <path d="M 41.99 150.856431 
L 152.922813 150.856431 
Q 154.922813 150.856431 154.922813 148.856431 
L 154.922813 21.727993 
Q 154.922813 19.727993 152.922813 19.727993 
L 41.99 19.727993 
Q 39.99 19.727993 39.99 21.727993 
L 39.99 148.856431 
Q 39.99 150.856431 41.99 150.856431 
z
" style="fill: #ffffff; opacity: 0.8; stroke: #cccccc; stroke-linejoin: miter"/>
    </g>
    <g id="patch_83">
     <path d="M 43.99 31.326431 
L 63.99 31.326431 
L 63.99 24.326431 
L 43.99 24.326431 
z
" style="fill: #59c3c3"/>
    </g>
    <g id="text_96">
     <!-- Educacional -->
     <g style="fill: #37539c" transform="translate(71.99 31.326431) scale(0.1 -0.1)">
      <defs>
       <path id="OpenSans-Bold-45" d="M 3206 0 
L 575 0 
L 575 4569 
L 3206 4569 
L 3206 3775 
L 1544 3775 
L 1544 2772 
L 3091 2772 
L 3091 1978 
L 1544 1978 
L 1544 800 
L 3206 800 
L 3206 0 
z
" transform="scale(0.015625)"/>
       <path id="OpenSans-Bold-64" d="M 1606 -63 
Q 1022 -63 655 395 
Q 288 853 288 1741 
Q 288 2638 659 3098 
Q 1031 3559 1631 3559 
Q 1881 3559 2072 3490 
Q 2263 3422 2402 3306 
Q 2541 3191 2638 3047 
L 2669 3047 
Q 2650 3147 2623 3342 
Q 2597 3538 2597 3744 
L 2597 4863 
L 3553 4863 
L 3553 0 
L 2822 0 
L 2638 453 
L 2597 453 
Q 2506 309 2370 192 
Q 2234 75 2046 6 
Q 1859 -63 1606 -63 
z
M 1941 697 
Q 2331 697 2492 930 
Q 2653 1163 2663 1631 
L 2663 1734 
Q 2663 2244 2506 2514 
Q 2350 2784 1925 2784 
Q 1609 2784 1431 2512 
Q 1253 2241 1253 1728 
Q 1253 1216 1433 956 
Q 1613 697 1941 697 
z
" transform="scale(0.015625)"/>
       <path id="OpenSans-Bold-75" d="M 3706 3494 
L 3706 0 
L 2975 0 
L 2847 447 
L 2797 447 
Q 2684 269 2515 156 
Q 2347 44 2144 -9 
Q 1941 -63 1722 -63 
Q 1347 -63 1069 70 
Q 791 203 636 484 
Q 481 766 481 1216 
L 481 3494 
L 1434 3494 
L 1434 1453 
Q 1434 1078 1568 887 
Q 1703 697 1997 697 
Q 2288 697 2453 830 
Q 2619 963 2686 1220 
Q 2753 1478 2753 1850 
L 2753 3494 
L 3706 3494 
z
" transform="scale(0.015625)"/>
       <path id="OpenSans-Bold-63" d="M 1919 -63 
Q 1400 -63 1034 126 
Q 669 316 478 712 
Q 288 1109 288 1728 
Q 288 2369 505 2773 
Q 722 3178 1108 3368 
Q 1494 3559 2003 3559 
Q 2366 3559 2630 3489 
Q 2894 3419 3091 3322 
L 2809 2584 
Q 2584 2675 2390 2733 
Q 2197 2791 2003 2791 
Q 1753 2791 1587 2673 
Q 1422 2556 1340 2322 
Q 1259 2088 1259 1734 
Q 1259 1388 1346 1159 
Q 1434 931 1600 820 
Q 1766 709 2003 709 
Q 2300 709 2531 789 
Q 2763 869 2981 1013 
L 2981 197 
Q 2763 59 2523 -2 
Q 2284 -63 1919 -63 
z
" transform="scale(0.015625)"/>
       <path id="OpenSans-Bold-61" d="M 1931 3566 
Q 2634 3566 3009 3259 
Q 3384 2953 3384 2328 
L 3384 0 
L 2719 0 
L 2534 475 
L 2509 475 
Q 2359 288 2203 169 
Q 2047 50 1844 -6 
Q 1641 -63 1350 -63 
Q 1041 -63 795 56 
Q 550 175 409 420 
Q 269 666 269 1044 
Q 269 1600 659 1864 
Q 1050 2128 1831 2156 
L 2438 2175 
L 2438 2328 
Q 2438 2603 2294 2731 
Q 2150 2859 1894 2859 
Q 1641 2859 1397 2787 
Q 1153 2716 909 2606 
L 594 3250 
Q 872 3397 1217 3481 
Q 1563 3566 1931 3566 
z
M 2438 1619 
L 2069 1606 
Q 1606 1594 1426 1441 
Q 1247 1288 1247 1038 
Q 1247 819 1375 726 
Q 1503 634 1709 634 
Q 2016 634 2227 815 
Q 2438 997 2438 1331 
L 2438 1619 
z
" transform="scale(0.015625)"/>
       <path id="OpenSans-Bold-69" d="M 1453 3494 
L 1453 0 
L 500 0 
L 500 3494 
L 1453 3494 
z
M 978 4863 
Q 1191 4863 1344 4764 
Q 1497 4666 1497 4397 
Q 1497 4131 1344 4029 
Q 1191 3928 978 3928 
Q 763 3928 611 4029 
Q 459 4131 459 4397 
Q 459 4666 611 4764 
Q 763 4863 978 4863 
z
" transform="scale(0.015625)"/>
       <path id="OpenSans-Bold-6e" d="M 2484 3559 
Q 3044 3559 3384 3254 
Q 3725 2950 3725 2278 
L 3725 0 
L 2772 0 
L 2772 2041 
Q 2772 2416 2636 2606 
Q 2500 2797 2209 2797 
Q 1772 2797 1612 2500 
Q 1453 2203 1453 1644 
L 1453 0 
L 500 0 
L 500 3494 
L 1228 3494 
L 1356 3047 
L 1409 3047 
Q 1522 3228 1689 3340 
Q 1856 3453 2061 3506 
Q 2266 3559 2484 3559 
z
" transform="scale(0.015625)"/>
       <path id="OpenSans-Bold-6c" d="M 1453 0 
L 500 0 
L 500 4863 
L 1453 4863 
L 1453 0 
z
" transform="scale(0.015625)"/>
      </defs>
      <use xlink:href="#OpenSans-Bold-45"/>
      <use xlink:href="#OpenSans-Bold-64" x="56.005859"/>
      <use xlink:href="#OpenSans-Bold-75" x="119.287109"/>
      <use xlink:href="#OpenSans-Bold-63" x="185.009766"/>
      <use xlink:href="#OpenSans-Bold-61" x="236.425781"/>
      <use xlink:href="#OpenSans-Bold-63" x="296.826172"/>
      <use xlink:href="#OpenSans-Bold-69" x="348.242188"/>
      <use xlink:href="#OpenSans-Bold-6f" x="378.759766"/>
      <use xlink:href="#OpenSans-Bold-6e" x="440.673828"/>
      <use xlink:href="#OpenSans-Bold-61" x="506.396484"/>
      <use xlink:href="#OpenSans-Bold-6c" x="566.796875"/>
     </g>
    </g>
    <g id="patch_84">
     <path d="M 43.99 46.327993 
L 63.99 46.327993 
L 63.99 39.327993 
L 43.99 39.327993 
z
" style="fill: #f45b69"/>
    </g>
    <g id="text_97">
     <!-- Salud -->
     <g style="fill: #37539c" transform="translate(71.99 46.327993) scale(0.1 -0.1)">
      <defs>
       <path id="OpenSans-Bold-53" d="M 3272 1269 
Q 3272 863 3075 563 
Q 2878 263 2501 100 
Q 2125 -63 1588 -63 
Q 1350 -63 1123 -31 
Q 897 0 689 61 
Q 481 122 294 213 
L 294 1113 
Q 619 969 969 853 
Q 1319 738 1663 738 
Q 1900 738 2045 800 
Q 2191 863 2256 972 
Q 2322 1081 2322 1222 
Q 2322 1394 2206 1516 
Q 2091 1638 1889 1744 
Q 1688 1850 1434 1972 
Q 1275 2047 1087 2155 
Q 900 2263 731 2419 
Q 563 2575 455 2798 
Q 347 3022 347 3334 
Q 347 3744 534 4034 
Q 722 4325 1070 4479 
Q 1419 4634 1894 4634 
Q 2250 4634 2573 4551 
Q 2897 4469 3250 4313 
L 2938 3559 
Q 2622 3688 2372 3758 
Q 2122 3828 1863 3828 
Q 1681 3828 1553 3770 
Q 1425 3713 1359 3608 
Q 1294 3503 1294 3366 
Q 1294 3203 1389 3092 
Q 1484 2981 1676 2878 
Q 1869 2775 2156 2638 
Q 2506 2472 2754 2292 
Q 3003 2113 3137 1870 
Q 3272 1628 3272 1269 
z
" transform="scale(0.015625)"/>
      </defs>
      <use xlink:href="#OpenSans-Bold-53"/>
      <use xlink:href="#OpenSans-Bold-61" x="55.078125"/>
      <use xlink:href="#OpenSans-Bold-6c" x="115.478516"/>
      <use xlink:href="#OpenSans-Bold-75" x="145.996094"/>
      <use xlink:href="#OpenSans-Bold-64" x="211.71875"/>
     </g>
    </g>
    <g id="patch_85">
     <path d="M 43.99 61.329556 
L 63.99 61.329556 
L 63.99 54.329556 
L 43.99 54.329556 
z
" style="fill: #4062bb"/>
    </g>
    <g id="text_98">
     <!-- Otro -->
     <g style="fill: #37539c" transform="translate(71.99 61.329556) scale(0.1 -0.1)">
      <defs>
       <path id="OpenSans-Bold-4f" d="M 4722 2291 
Q 4722 1763 4590 1330 
Q 4459 897 4192 584 
Q 3925 272 3515 104 
Q 3106 -63 2547 -63 
Q 1988 -63 1578 104 
Q 1169 272 901 584 
Q 634 897 503 1331 
Q 372 1766 372 2297 
Q 372 3006 605 3532 
Q 838 4059 1322 4350 
Q 1806 4641 2553 4641 
Q 3297 4641 3776 4350 
Q 4256 4059 4489 3531 
Q 4722 3003 4722 2291 
z
M 1388 2291 
Q 1388 1813 1508 1467 
Q 1628 1122 1884 936 
Q 2141 750 2547 750 
Q 2959 750 3215 936 
Q 3472 1122 3589 1467 
Q 3706 1813 3706 2291 
Q 3706 3009 3437 3421 
Q 3169 3834 2553 3834 
Q 2144 3834 1886 3648 
Q 1628 3463 1508 3117 
Q 1388 2772 1388 2291 
z
" transform="scale(0.015625)"/>
       <path id="OpenSans-Bold-74" d="M 1972 697 
Q 2128 697 2276 728 
Q 2425 759 2572 806 
L 2572 97 
Q 2419 28 2192 -17 
Q 1966 -63 1697 -63 
Q 1384 -63 1136 39 
Q 888 141 745 392 
Q 603 644 603 1094 
L 603 2778 
L 147 2778 
L 147 3181 
L 672 3500 
L 947 4238 
L 1556 4238 
L 1556 3494 
L 2534 3494 
L 2534 2778 
L 1556 2778 
L 1556 1094 
Q 1556 894 1670 795 
Q 1784 697 1972 697 
z
" transform="scale(0.015625)"/>
       <path id="OpenSans-Bold-72" d="M 2450 3559 
Q 2522 3559 2617 3551 
Q 2713 3544 2772 3531 
L 2700 2638 
Q 2653 2653 2567 2661 
Q 2481 2669 2419 2669 
Q 2234 2669 2061 2622 
Q 1888 2575 1750 2470 
Q 1613 2366 1533 2195 
Q 1453 2025 1453 1778 
L 1453 0 
L 500 0 
L 500 3494 
L 1222 3494 
L 1363 2906 
L 1409 2906 
Q 1513 3084 1667 3232 
Q 1822 3381 2020 3470 
Q 2219 3559 2450 3559 
z
" transform="scale(0.015625)"/>
      </defs>
      <use xlink:href="#OpenSans-Bold-4f"/>
      <use xlink:href="#OpenSans-Bold-74" x="79.589844"/>
      <use xlink:href="#OpenSans-Bold-72" x="122.998047"/>
      <use xlink:href="#OpenSans-Bold-6f" x="168.408203"/>
     </g>
    </g>
    <g id="patch_86">
     <path d="M 43.99 83.330806 
L 63.99 83.330806 
L 63.99 76.330806 
L 43.99 76.330806 
z
" style="fill: #9fb7b9"/>
    </g>
    <g id="text_99">
     <!-- Centro de -->
     <g style="fill: #37539c" transform="translate(71.99 76.331118) scale(0.1 -0.1)">
      <defs>
       <path id="OpenSans-Bold-43" d="M 2516 3828 
Q 2238 3828 2023 3720 
Q 1809 3613 1664 3409 
Q 1519 3206 1444 2918 
Q 1369 2631 1369 2272 
Q 1369 1788 1489 1445 
Q 1609 1103 1862 923 
Q 2116 744 2516 744 
Q 2794 744 3073 806 
Q 3353 869 3681 984 
L 3681 172 
Q 3378 47 3084 -8 
Q 2791 -63 2425 -63 
Q 1719 -63 1264 229 
Q 809 522 590 1048 
Q 372 1575 372 2278 
Q 372 2797 512 3228 
Q 653 3659 925 3975 
Q 1197 4291 1597 4462 
Q 1997 4634 2516 4634 
Q 2856 4634 3198 4548 
Q 3541 4463 3853 4313 
L 3541 3525 
Q 3284 3647 3025 3737 
Q 2766 3828 2516 3828 
z
" transform="scale(0.015625)"/>
       <path id="OpenSans-Bold-65" d="M 1941 3559 
Q 2425 3559 2775 3373 
Q 3125 3188 3315 2834 
Q 3506 2481 3506 1972 
L 3506 1509 
L 1253 1509 
Q 1269 1106 1495 876 
Q 1722 647 2125 647 
Q 2459 647 2737 715 
Q 3016 784 3309 922 
L 3309 184 
Q 3050 56 2767 -3 
Q 2484 -63 2081 -63 
Q 1556 -63 1151 131 
Q 747 325 517 722 
Q 288 1119 288 1722 
Q 288 2334 495 2742 
Q 703 3150 1075 3354 
Q 1447 3559 1941 3559 
z
M 1947 2881 
Q 1669 2881 1486 2703 
Q 1303 2525 1275 2144 
L 2613 2144 
Q 2609 2356 2536 2522 
Q 2463 2688 2317 2784 
Q 2172 2881 1947 2881 
z
" transform="scale(0.015625)"/>
       <path id="OpenSans-Bold-20" transform="scale(0.015625)"/>
      </defs>
      <use xlink:href="#OpenSans-Bold-43"/>
      <use xlink:href="#OpenSans-Bold-65" x="63.720703"/>
      <use xlink:href="#OpenSans-Bold-6e" x="122.802734"/>
      <use xlink:href="#OpenSans-Bold-74" x="188.525391"/>
      <use xlink:href="#OpenSans-Bold-72" x="231.933594"/>
      <use xlink:href="#OpenSans-Bold-6f" x="277.34375"/>
      <use xlink:href="#OpenSans-Bold-20" x="339.257812"/>
      <use xlink:href="#OpenSans-Bold-64" x="365.234375"/>
      <use xlink:href="#OpenSans-Bold-65" x="428.515625"/>
     </g>
     <!-- investigación -->
     <g style="fill: #37539c" transform="translate(71.99 87.927368) scale(0.1 -0.1)">
      <defs>
       <path id="OpenSans-Bold-76" d="M 1331 0 
L 0 3494 
L 997 3494 
L 1672 1503 
Q 1728 1328 1761 1134 
Q 1794 941 1806 788 
L 1831 788 
Q 1841 953 1877 1140 
Q 1913 1328 1972 1503 
L 2644 3494 
L 3641 3494 
L 2309 0 
L 1331 0 
z
" transform="scale(0.015625)"/>
       <path id="OpenSans-Bold-73" d="M 2938 1038 
Q 2938 681 2770 436 
Q 2603 191 2272 64 
Q 1941 -63 1447 -63 
Q 1081 -63 820 -16 
Q 559 31 294 141 
L 294 928 
Q 578 800 904 717 
Q 1231 634 1478 634 
Q 1756 634 1876 717 
Q 1997 800 1997 934 
Q 1997 1022 1948 1092 
Q 1900 1163 1740 1252 
Q 1581 1341 1241 1484 
Q 913 1622 702 1762 
Q 491 1903 389 2095 
Q 288 2288 288 2584 
Q 288 3069 664 3314 
Q 1041 3559 1672 3559 
Q 1997 3559 2292 3493 
Q 2588 3428 2900 3284 
L 2613 2597 
Q 2353 2709 2123 2781 
Q 1894 2853 1656 2853 
Q 1447 2853 1340 2797 
Q 1234 2741 1234 2625 
Q 1234 2541 1289 2475 
Q 1344 2409 1501 2329 
Q 1659 2250 1966 2125 
Q 2263 2003 2481 1870 
Q 2700 1738 2819 1542 
Q 2938 1347 2938 1038 
z
" transform="scale(0.015625)"/>
       <path id="OpenSans-Bold-67" d="M 1522 -1538 
Q 791 -1538 405 -1283 
Q 19 -1028 19 -569 
Q 19 -253 216 -40 
Q 413 172 794 263 
Q 647 325 537 467 
Q 428 609 428 769 
Q 428 969 543 1101 
Q 659 1234 878 1363 
Q 603 1481 442 1743 
Q 281 2006 281 2363 
Q 281 2744 448 3011 
Q 616 3278 936 3418 
Q 1256 3559 1716 3559 
Q 1813 3559 1941 3546 
Q 2069 3534 2176 3518 
Q 2284 3503 2322 3494 
L 3541 3494 
L 3541 3009 
L 2994 2869 
Q 3069 2753 3106 2622 
Q 3144 2491 3144 2344 
Q 3144 1781 2751 1467 
Q 2359 1153 1663 1153 
Q 1497 1163 1350 1178 
Q 1278 1122 1240 1059 
Q 1203 997 1203 928 
Q 1203 859 1261 814 
Q 1319 769 1436 745 
Q 1553 722 1728 722 
L 2322 722 
Q 2897 722 3198 475 
Q 3500 228 3500 -250 
Q 3500 -863 2989 -1200 
Q 2478 -1538 1522 -1538 
z
M 1563 -916 
Q 1903 -916 2148 -852 
Q 2394 -788 2525 -670 
Q 2656 -553 2656 -391 
Q 2656 -259 2579 -182 
Q 2503 -106 2348 -75 
Q 2194 -44 1953 -44 
L 1459 -44 
Q 1284 -44 1145 -100 
Q 1006 -156 925 -257 
Q 844 -359 844 -494 
Q 844 -691 1033 -803 
Q 1222 -916 1563 -916 
z
M 1716 1734 
Q 1984 1734 2109 1900 
Q 2234 2066 2234 2350 
Q 2234 2666 2104 2823 
Q 1975 2981 1716 2981 
Q 1453 2981 1322 2823 
Q 1191 2666 1191 2350 
Q 1191 2066 1320 1900 
Q 1450 1734 1716 1734 
z
" transform="scale(0.015625)"/>
       <path id="OpenSans-Bold-f3" d="M 3675 1753 
Q 3675 1316 3558 978 
Q 3441 641 3217 408 
Q 2994 175 2680 56 
Q 2366 -63 1972 -63 
Q 1603 -63 1295 56 
Q 988 175 761 408 
Q 534 641 411 978 
Q 288 1316 288 1753 
Q 288 2334 494 2737 
Q 700 3141 1081 3350 
Q 1463 3559 1991 3559 
Q 2481 3559 2861 3350 
Q 3241 3141 3458 2737 
Q 3675 2334 3675 1753 
z
M 1259 1753 
Q 1259 1409 1334 1175 
Q 1409 941 1568 822 
Q 1728 703 1984 703 
Q 2238 703 2395 822 
Q 2553 941 2626 1175 
Q 2700 1409 2700 1753 
Q 2700 2100 2626 2329 
Q 2553 2559 2393 2675 
Q 2234 2791 1978 2791 
Q 1600 2791 1429 2531 
Q 1259 2272 1259 1753 
z
M 3211 4903 
L 3211 4838 
Q 3121 4750 2974 4622 
Q 2827 4494 2658 4355 
Q 2490 4216 2327 4089 
Q 2165 3963 2043 3878 
L 1408 3878 
L 1408 3963 
Q 1511 4081 1647 4245 
Q 1783 4409 1917 4584 
Q 2052 4759 2143 4903 
L 3211 4903 
z
" transform="scale(0.015625)"/>
      </defs>
      <use xlink:href="#OpenSans-Bold-69"/>
      <use xlink:href="#OpenSans-Bold-6e" x="30.517578"/>
      <use xlink:href="#OpenSans-Bold-76" x="96.240234"/>
      <use xlink:href="#OpenSans-Bold-65" x="153.125"/>
      <use xlink:href="#OpenSans-Bold-73" x="212.207031"/>
      <use xlink:href="#OpenSans-Bold-74" x="261.914062"/>
      <use xlink:href="#OpenSans-Bold-69" x="305.322266"/>
      <use xlink:href="#OpenSans-Bold-67" x="335.839844"/>
      <use xlink:href="#OpenSans-Bold-61" x="392.333984"/>
      <use xlink:href="#OpenSans-Bold-63" x="452.734375"/>
      <use xlink:href="#OpenSans-Bold-69" x="504.150391"/>
      <use xlink:href="#OpenSans-Bold-f3" x="534.667969"/>
      <use xlink:href="#OpenSans-Bold-6e" x="596.582031"/>
     </g>
    </g>
    <g id="patch_87">
     <path d="M 43.99 109.891118 
L 63.99 109.891118 
L 63.99 102.891118 
L 43.99 102.891118 
z
" style="fill: #37539c"/>
    </g>
    <g id="text_100">
     <!-- Sin fines de -->
     <g style="fill: #37539c" transform="translate(71.99 102.928931) scale(0.1 -0.1)">
      <defs>
       <path id="OpenSans-Bold-66" d="M 2431 2778 
L 1606 2778 
L 1606 0 
L 653 0 
L 653 2778 
L 128 2778 
L 128 3238 
L 653 3494 
L 653 3750 
Q 653 4197 804 4445 
Q 956 4694 1232 4795 
Q 1509 4897 1888 4897 
Q 2166 4897 2394 4851 
Q 2622 4806 2766 4750 
L 2522 4050 
Q 2413 4084 2284 4112 
Q 2156 4141 1991 4141 
Q 1791 4141 1698 4020 
Q 1606 3900 1606 3713 
L 1606 3494 
L 2431 3494 
L 2431 2778 
z
" transform="scale(0.015625)"/>
      </defs>
      <use xlink:href="#OpenSans-Bold-53"/>
      <use xlink:href="#OpenSans-Bold-69" x="55.078125"/>
      <use xlink:href="#OpenSans-Bold-6e" x="85.595703"/>
      <use xlink:href="#OpenSans-Bold-20" x="151.318359"/>
      <use xlink:href="#OpenSans-Bold-66" x="177.294922"/>
      <use xlink:href="#OpenSans-Bold-69" x="216.015625"/>
      <use xlink:href="#OpenSans-Bold-6e" x="246.533203"/>
      <use xlink:href="#OpenSans-Bold-65" x="312.255859"/>
      <use xlink:href="#OpenSans-Bold-73" x="371.337891"/>
      <use xlink:href="#OpenSans-Bold-20" x="421.044922"/>
      <use xlink:href="#OpenSans-Bold-64" x="447.021484"/>
      <use xlink:href="#OpenSans-Bold-65" x="510.302734"/>
     </g>
     <!-- lucro -->
     <g style="fill: #37539c" transform="translate(71.99 114.450181) scale(0.1 -0.1)">
      <use xlink:href="#OpenSans-Bold-6c"/>
      <use xlink:href="#OpenSans-Bold-75" x="30.517578"/>
      <use xlink:href="#OpenSans-Bold-63" x="96.240234"/>
      <use xlink:href="#OpenSans-Bold-72" x="147.65625"/>
      <use xlink:href="#OpenSans-Bold-6f" x="193.066406"/>
     </g>
    </g>
    <g id="patch_88">
     <path d="M 43.99 129.451743 
L 63.99 129.451743 
L 63.99 122.451743 
L 43.99 122.451743 
z
" style="fill: #52489c"/>
    </g>
    <g id="text_101">
     <!-- Gubernamental -->
     <g style="fill: #37539c" transform="translate(71.99 129.451743) scale(0.1 -0.1)">
      <defs>
       <path id="OpenSans-Bold-47" d="M 2309 2566 
L 4122 2566 
L 4122 197 
Q 3763 78 3375 7 
Q 2988 -63 2497 -63 
Q 1816 -63 1341 206 
Q 866 475 619 1000 
Q 372 1525 372 2291 
Q 372 3009 648 3534 
Q 925 4059 1458 4346 
Q 1991 4634 2759 4634 
Q 3122 4634 3475 4556 
Q 3828 4478 4116 4353 
L 3794 3578 
Q 3584 3684 3315 3756 
Q 3047 3828 2753 3828 
Q 2331 3828 2020 3634 
Q 1709 3441 1539 3092 
Q 1369 2744 1369 2272 
Q 1369 1825 1491 1479 
Q 1613 1134 1875 939 
Q 2138 744 2559 744 
Q 2766 744 2908 764 
Q 3050 784 3175 806 
L 3175 1759 
L 2309 1759 
L 2309 2566 
z
" transform="scale(0.015625)"/>
       <path id="OpenSans-Bold-62" d="M 1453 4863 
L 1453 3731 
Q 1453 3534 1442 3340 
Q 1431 3147 1416 3041 
L 1453 3041 
Q 1591 3256 1828 3407 
Q 2066 3559 2444 3559 
Q 3031 3559 3397 3100 
Q 3763 2641 3763 1753 
Q 3763 1156 3594 751 
Q 3425 347 3122 142 
Q 2819 -63 2419 -63 
Q 2034 -63 1812 75 
Q 1591 213 1453 384 
L 1388 384 
L 1228 0 
L 500 0 
L 500 4863 
L 1453 4863 
z
M 2138 2797 
Q 1888 2797 1741 2694 
Q 1594 2591 1526 2384 
Q 1459 2178 1453 1863 
L 1453 1759 
Q 1453 1250 1603 979 
Q 1753 709 2150 709 
Q 2444 709 2617 981 
Q 2791 1253 2791 1766 
Q 2791 2278 2616 2537 
Q 2441 2797 2138 2797 
z
" transform="scale(0.015625)"/>
       <path id="OpenSans-Bold-6d" d="M 4603 3559 
Q 5197 3559 5501 3254 
Q 5806 2950 5806 2278 
L 5806 0 
L 4850 0 
L 4850 2041 
Q 4850 2416 4722 2606 
Q 4594 2797 4325 2797 
Q 3947 2797 3787 2526 
Q 3628 2256 3628 1753 
L 3628 0 
L 2675 0 
L 2675 2041 
Q 2675 2291 2619 2459 
Q 2563 2628 2447 2712 
Q 2331 2797 2150 2797 
Q 1884 2797 1732 2664 
Q 1581 2531 1517 2273 
Q 1453 2016 1453 1644 
L 1453 0 
L 500 0 
L 500 3494 
L 1228 3494 
L 1356 3047 
L 1409 3047 
Q 1516 3228 1677 3340 
Q 1838 3453 2031 3506 
Q 2225 3559 2425 3559 
Q 2809 3559 3076 3434 
Q 3344 3309 3488 3047 
L 3572 3047 
Q 3728 3316 4014 3437 
Q 4300 3559 4603 3559 
z
" transform="scale(0.015625)"/>
      </defs>
      <use xlink:href="#OpenSans-Bold-47"/>
      <use xlink:href="#OpenSans-Bold-75" x="72.412109"/>
      <use xlink:href="#OpenSans-Bold-62" x="138.134766"/>
      <use xlink:href="#OpenSans-Bold-65" x="201.416016"/>
      <use xlink:href="#OpenSans-Bold-72" x="260.498047"/>
      <use xlink:href="#OpenSans-Bold-6e" x="305.908203"/>
      <use xlink:href="#OpenSans-Bold-61" x="371.630859"/>
      <use xlink:href="#OpenSans-Bold-6d" x="432.03125"/>
      <use xlink:href="#OpenSans-Bold-65" x="530.224609"/>
      <use xlink:href="#OpenSans-Bold-6e" x="589.306641"/>
      <use xlink:href="#OpenSans-Bold-74" x="655.029297"/>
      <use xlink:href="#OpenSans-Bold-61" x="698.4375"/>
      <use xlink:href="#OpenSans-Bold-6c" x="758.837891"/>
     </g>
    </g>
    <g id="patch_89">
     <path d="M 43.99 144.453306 
L 63.99 144.453306 
L 63.99 137.453306 
L 43.99 137.453306 
z
" style="fill: #ebebeb"/>
    </g>
    <g id="text_102">
     <!-- Compañia -->
     <g style="fill: #37539c" transform="translate(71.99 144.453306) scale(0.1 -0.1)">
      <defs>
       <path id="OpenSans-Bold-70" d="M 2444 3559 
Q 3034 3559 3398 3100 
Q 3763 2641 3763 1753 
Q 3763 1159 3591 754 
Q 3419 350 3116 143 
Q 2813 -63 2419 -63 
Q 2166 -63 1984 1 
Q 1803 66 1675 167 
Q 1547 269 1453 384 
L 1403 384 
Q 1428 259 1440 128 
Q 1453 -3 1453 -128 
L 1453 -1538 
L 500 -1538 
L 500 3494 
L 1275 3494 
L 1409 3041 
L 1453 3041 
Q 1547 3181 1681 3300 
Q 1816 3419 2005 3489 
Q 2194 3559 2444 3559 
z
M 2138 2797 
Q 1888 2797 1741 2694 
Q 1594 2591 1526 2384 
Q 1459 2178 1453 1863 
L 1453 1759 
Q 1453 1422 1517 1187 
Q 1581 953 1732 831 
Q 1884 709 2150 709 
Q 2369 709 2509 831 
Q 2650 953 2720 1189 
Q 2791 1425 2791 1766 
Q 2791 2278 2631 2537 
Q 2472 2797 2138 2797 
z
" transform="scale(0.015625)"/>
      </defs>
      <use xlink:href="#OpenSans-Bold-43"/>
      <use xlink:href="#OpenSans-Bold-6f" x="63.720703"/>
      <use xlink:href="#OpenSans-Bold-6d" x="125.634766"/>
      <use xlink:href="#OpenSans-Bold-70" x="223.828125"/>
      <use xlink:href="#OpenSans-Bold-61" x="287.109375"/>
      <use xlink:href="#OpenSans-Bold-f1" x="347.509766"/>
      <use xlink:href="#OpenSans-Bold-69" x="413.232422"/>
      <use xlink:href="#OpenSans-Bold-61" x="443.75"/>
     </g>
    </g>
   </g>
  </g>
 </g>
 <defs>
  <clipPath id="pfd2cf1f37c">
   <rect x="34.99" y="14.727993" width="1106.21" height="290.099909"/>
  </clipPath>
 </defs>
</svg>
