<?xml version="1.0" encoding="utf-8" standalone="no"?>
<!DOCTYPE svg PUBLIC "-//W3C//DTD SVG 1.1//EN"
  "http://www.w3.org/Graphics/SVG/1.1/DTD/svg11.dtd">
<svg xmlns:xlink="http://www.w3.org/1999/xlink" width="936pt" height="360pt" viewBox="0 0 936 360" xmlns="http://www.w3.org/2000/svg" version="1.1">
 <metadata>
  <rdf:RDF xmlns:dc="http://purl.org/dc/elements/1.1/" xmlns:cc="http://creativecommons.org/ns#" xmlns:rdf="http://www.w3.org/1999/02/22-rdf-syntax-ns#">
   <cc:Work>
    <dc:type rdf:resource="http://purl.org/dc/dcmitype/StillImage"/>
    <dc:date>2024-03-13T18:50:49.113601</dc:date>
    <dc:format>image/svg+xml</dc:format>
    <dc:creator>
     <cc:Agent>
      <dc:title>Matplotlib v3.7.1, https://matplotlib.org/</dc:title>
     </cc:Agent>
    </dc:creator>
   </cc:Work>
  </rdf:RDF>
 </metadata>
 <defs>
  <style type="text/css">*{stroke-linejoin: round; stroke-linecap: butt}</style>
 </defs>
 <g id="figure_1">
  <g id="patch_1">
   <path d="M 0 360 
L 936 360 
L 936 0 
L 0 0 
z
" style="fill: #ffffff"/>
  </g>
  <g id="axes_1">
   <g id="patch_2">
    <path d="M 22.48 219.168987 
L 925.2 219.168987 
L 925.2 20.66 
L 22.48 20.66 
z
" style="fill: #ffffff"/>
   </g>
   <g id="matplotlib.axis_1">
    <g id="xtick_1">
     <g id="line2d_1">
      <defs>
       <path id="m056090840f" d="M 0 0 
L 0 3.5 
" style="stroke: #37539c; stroke-width: 0.8"/>
      </defs>
      <g>
       <use xlink:href="#m056090840f" x="67.616" y="219.168987" style="fill: #37539c; stroke: #37539c; stroke-width: 0.8"/>
      </g>
     </g>
     <g id="text_1">
      <!-- myocardial infarction -->
      <g style="fill: #37539c" transform="translate(38.590592 291.517144) rotate(-45) scale(0.08 -0.08)">
       <defs>
        <path id="OpenSans-Bold-6d" d="M 4603 3559 
Q 5197 3559 5501 3254 
Q 5806 2950 5806 2278 
L 5806 0 
L 4850 0 
L 4850 2041 
Q 4850 2416 4722 2606 
Q 4594 2797 4325 2797 
Q 3947 2797 3787 2526 
Q 3628 2256 3628 1753 
L 3628 0 
L 2675 0 
L 2675 2041 
Q 2675 2291 2619 2459 
Q 2563 2628 2447 2712 
Q 2331 2797 2150 2797 
Q 1884 2797 1732 2664 
Q 1581 2531 1517 2273 
Q 1453 2016 1453 1644 
L 1453 0 
L 500 0 
L 500 3494 
L 1228 3494 
L 1356 3047 
L 1409 3047 
Q 1516 3228 1677 3340 
Q 1838 3453 2031 3506 
Q 2225 3559 2425 3559 
Q 2809 3559 3076 3434 
Q 3344 3309 3488 3047 
L 3572 3047 
Q 3728 3316 4014 3437 
Q 4300 3559 4603 3559 
z
" transform="scale(0.015625)"/>
        <path id="OpenSans-Bold-79" d="M 0 3494 
L 1044 3494 
L 1703 1528 
Q 1734 1434 1756 1337 
Q 1778 1241 1793 1137 
Q 1809 1034 1819 922 
L 1838 922 
Q 1856 1091 1889 1237 
Q 1922 1384 1972 1528 
L 2619 3494 
L 3641 3494 
L 2163 -447 
Q 2028 -809 1812 -1051 
Q 1597 -1294 1317 -1416 
Q 1038 -1538 703 -1538 
Q 541 -1538 422 -1520 
Q 303 -1503 219 -1484 
L 219 -728 
Q 284 -744 384 -756 
Q 484 -769 594 -769 
Q 794 -769 937 -684 
Q 1081 -600 1178 -458 
Q 1275 -316 1331 -147 
L 1388 25 
L 0 3494 
z
" transform="scale(0.015625)"/>
        <path id="OpenSans-Bold-6f" d="M 3675 1753 
Q 3675 1316 3558 978 
Q 3441 641 3217 408 
Q 2994 175 2680 56 
Q 2366 -63 1972 -63 
Q 1603 -63 1295 56 
Q 988 175 761 408 
Q 534 641 411 978 
Q 288 1316 288 1753 
Q 288 2334 494 2737 
Q 700 3141 1081 3350 
Q 1463 3559 1991 3559 
Q 2481 3559 2861 3350 
Q 3241 3141 3458 2737 
Q 3675 2334 3675 1753 
z
M 1259 1753 
Q 1259 1409 1334 1175 
Q 1409 941 1568 822 
Q 1728 703 1984 703 
Q 2238 703 2395 822 
Q 2553 941 2626 1175 
Q 2700 1409 2700 1753 
Q 2700 2100 2626 2329 
Q 2553 2559 2393 2675 
Q 2234 2791 1978 2791 
Q 1600 2791 1429 2531 
Q 1259 2272 1259 1753 
z
" transform="scale(0.015625)"/>
        <path id="OpenSans-Bold-63" d="M 1919 -63 
Q 1400 -63 1034 126 
Q 669 316 478 712 
Q 288 1109 288 1728 
Q 288 2369 505 2773 
Q 722 3178 1108 3368 
Q 1494 3559 2003 3559 
Q 2366 3559 2630 3489 
Q 2894 3419 3091 3322 
L 2809 2584 
Q 2584 2675 2390 2733 
Q 2197 2791 2003 2791 
Q 1753 2791 1587 2673 
Q 1422 2556 1340 2322 
Q 1259 2088 1259 1734 
Q 1259 1388 1346 1159 
Q 1434 931 1600 820 
Q 1766 709 2003 709 
Q 2300 709 2531 789 
Q 2763 869 2981 1013 
L 2981 197 
Q 2763 59 2523 -2 
Q 2284 -63 1919 -63 
z
" transform="scale(0.015625)"/>
        <path id="OpenSans-Bold-61" d="M 1931 3566 
Q 2634 3566 3009 3259 
Q 3384 2953 3384 2328 
L 3384 0 
L 2719 0 
L 2534 475 
L 2509 475 
Q 2359 288 2203 169 
Q 2047 50 1844 -6 
Q 1641 -63 1350 -63 
Q 1041 -63 795 56 
Q 550 175 409 420 
Q 269 666 269 1044 
Q 269 1600 659 1864 
Q 1050 2128 1831 2156 
L 2438 2175 
L 2438 2328 
Q 2438 2603 2294 2731 
Q 2150 2859 1894 2859 
Q 1641 2859 1397 2787 
Q 1153 2716 909 2606 
L 594 3250 
Q 872 3397 1217 3481 
Q 1563 3566 1931 3566 
z
M 2438 1619 
L 2069 1606 
Q 1606 1594 1426 1441 
Q 1247 1288 1247 1038 
Q 1247 819 1375 726 
Q 1503 634 1709 634 
Q 2016 634 2227 815 
Q 2438 997 2438 1331 
L 2438 1619 
z
" transform="scale(0.015625)"/>
        <path id="OpenSans-Bold-72" d="M 2450 3559 
Q 2522 3559 2617 3551 
Q 2713 3544 2772 3531 
L 2700 2638 
Q 2653 2653 2567 2661 
Q 2481 2669 2419 2669 
Q 2234 2669 2061 2622 
Q 1888 2575 1750 2470 
Q 1613 2366 1533 2195 
Q 1453 2025 1453 1778 
L 1453 0 
L 500 0 
L 500 3494 
L 1222 3494 
L 1363 2906 
L 1409 2906 
Q 1513 3084 1667 3232 
Q 1822 3381 2020 3470 
Q 2219 3559 2450 3559 
z
" transform="scale(0.015625)"/>
        <path id="OpenSans-Bold-64" d="M 1606 -63 
Q 1022 -63 655 395 
Q 288 853 288 1741 
Q 288 2638 659 3098 
Q 1031 3559 1631 3559 
Q 1881 3559 2072 3490 
Q 2263 3422 2402 3306 
Q 2541 3191 2638 3047 
L 2669 3047 
Q 2650 3147 2623 3342 
Q 2597 3538 2597 3744 
L 2597 4863 
L 3553 4863 
L 3553 0 
L 2822 0 
L 2638 453 
L 2597 453 
Q 2506 309 2370 192 
Q 2234 75 2046 6 
Q 1859 -63 1606 -63 
z
M 1941 697 
Q 2331 697 2492 930 
Q 2653 1163 2663 1631 
L 2663 1734 
Q 2663 2244 2506 2514 
Q 2350 2784 1925 2784 
Q 1609 2784 1431 2512 
Q 1253 2241 1253 1728 
Q 1253 1216 1433 956 
Q 1613 697 1941 697 
z
" transform="scale(0.015625)"/>
        <path id="OpenSans-Bold-69" d="M 1453 3494 
L 1453 0 
L 500 0 
L 500 3494 
L 1453 3494 
z
M 978 4863 
Q 1191 4863 1344 4764 
Q 1497 4666 1497 4397 
Q 1497 4131 1344 4029 
Q 1191 3928 978 3928 
Q 763 3928 611 4029 
Q 459 4131 459 4397 
Q 459 4666 611 4764 
Q 763 4863 978 4863 
z
" transform="scale(0.015625)"/>
        <path id="OpenSans-Bold-6c" d="M 1453 0 
L 500 0 
L 500 4863 
L 1453 4863 
L 1453 0 
z
" transform="scale(0.015625)"/>
        <path id="OpenSans-Bold-20" transform="scale(0.015625)"/>
        <path id="OpenSans-Bold-6e" d="M 2484 3559 
Q 3044 3559 3384 3254 
Q 3725 2950 3725 2278 
L 3725 0 
L 2772 0 
L 2772 2041 
Q 2772 2416 2636 2606 
Q 2500 2797 2209 2797 
Q 1772 2797 1612 2500 
Q 1453 2203 1453 1644 
L 1453 0 
L 500 0 
L 500 3494 
L 1228 3494 
L 1356 3047 
L 1409 3047 
Q 1522 3228 1689 3340 
Q 1856 3453 2061 3506 
Q 2266 3559 2484 3559 
z
" transform="scale(0.015625)"/>
        <path id="OpenSans-Bold-66" d="M 2431 2778 
L 1606 2778 
L 1606 0 
L 653 0 
L 653 2778 
L 128 2778 
L 128 3238 
L 653 3494 
L 653 3750 
Q 653 4197 804 4445 
Q 956 4694 1232 4795 
Q 1509 4897 1888 4897 
Q 2166 4897 2394 4851 
Q 2622 4806 2766 4750 
L 2522 4050 
Q 2413 4084 2284 4112 
Q 2156 4141 1991 4141 
Q 1791 4141 1698 4020 
Q 1606 3900 1606 3713 
L 1606 3494 
L 2431 3494 
L 2431 2778 
z
" transform="scale(0.015625)"/>
        <path id="OpenSans-Bold-74" d="M 1972 697 
Q 2128 697 2276 728 
Q 2425 759 2572 806 
L 2572 97 
Q 2419 28 2192 -17 
Q 1966 -63 1697 -63 
Q 1384 -63 1136 39 
Q 888 141 745 392 
Q 603 644 603 1094 
L 603 2778 
L 147 2778 
L 147 3181 
L 672 3500 
L 947 4238 
L 1556 4238 
L 1556 3494 
L 2534 3494 
L 2534 2778 
L 1556 2778 
L 1556 1094 
Q 1556 894 1670 795 
Q 1784 697 1972 697 
z
" transform="scale(0.015625)"/>
       </defs>
       <use xlink:href="#OpenSans-Bold-6d"/>
       <use xlink:href="#OpenSans-Bold-79" x="98.193359"/>
       <use xlink:href="#OpenSans-Bold-6f" x="155.078125"/>
       <use xlink:href="#OpenSans-Bold-63" x="216.992188"/>
       <use xlink:href="#OpenSans-Bold-61" x="268.408203"/>
       <use xlink:href="#OpenSans-Bold-72" x="328.808594"/>
       <use xlink:href="#OpenSans-Bold-64" x="374.21875"/>
       <use xlink:href="#OpenSans-Bold-69" x="437.5"/>
       <use xlink:href="#OpenSans-Bold-61" x="468.017578"/>
       <use xlink:href="#OpenSans-Bold-6c" x="528.417969"/>
       <use xlink:href="#OpenSans-Bold-20" x="558.935547"/>
       <use xlink:href="#OpenSans-Bold-69" x="584.912109"/>
       <use xlink:href="#OpenSans-Bold-6e" x="615.429688"/>
       <use xlink:href="#OpenSans-Bold-66" x="681.152344"/>
       <use xlink:href="#OpenSans-Bold-61" x="719.873047"/>
       <use xlink:href="#OpenSans-Bold-72" x="780.273438"/>
       <use xlink:href="#OpenSans-Bold-63" x="825.683594"/>
       <use xlink:href="#OpenSans-Bold-74" x="877.099609"/>
       <use xlink:href="#OpenSans-Bold-69" x="920.507812"/>
       <use xlink:href="#OpenSans-Bold-6f" x="951.025391"/>
       <use xlink:href="#OpenSans-Bold-6e" x="1012.939453"/>
      </g>
     </g>
    </g>
    <g id="xtick_2">
     <g id="line2d_2">
      <g>
       <use xlink:href="#m056090840f" x="157.888" y="219.168987" style="fill: #37539c; stroke: #37539c; stroke-width: 0.8"/>
      </g>
     </g>
     <g id="text_2">
      <!-- ischemic stroke -->
      <g style="fill: #37539c" transform="translate(137.180378 274.821469) rotate(-45) scale(0.08 -0.08)">
       <defs>
        <path id="OpenSans-Bold-73" d="M 2938 1038 
Q 2938 681 2770 436 
Q 2603 191 2272 64 
Q 1941 -63 1447 -63 
Q 1081 -63 820 -16 
Q 559 31 294 141 
L 294 928 
Q 578 800 904 717 
Q 1231 634 1478 634 
Q 1756 634 1876 717 
Q 1997 800 1997 934 
Q 1997 1022 1948 1092 
Q 1900 1163 1740 1252 
Q 1581 1341 1241 1484 
Q 913 1622 702 1762 
Q 491 1903 389 2095 
Q 288 2288 288 2584 
Q 288 3069 664 3314 
Q 1041 3559 1672 3559 
Q 1997 3559 2292 3493 
Q 2588 3428 2900 3284 
L 2613 2597 
Q 2353 2709 2123 2781 
Q 1894 2853 1656 2853 
Q 1447 2853 1340 2797 
Q 1234 2741 1234 2625 
Q 1234 2541 1289 2475 
Q 1344 2409 1501 2329 
Q 1659 2250 1966 2125 
Q 2263 2003 2481 1870 
Q 2700 1738 2819 1542 
Q 2938 1347 2938 1038 
z
" transform="scale(0.015625)"/>
        <path id="OpenSans-Bold-68" d="M 1453 4863 
L 1453 3872 
Q 1453 3613 1436 3378 
Q 1419 3144 1409 3047 
L 1459 3047 
Q 1572 3228 1726 3340 
Q 1881 3453 2068 3506 
Q 2256 3559 2472 3559 
Q 2850 3559 3131 3426 
Q 3413 3294 3569 3011 
Q 3725 2728 3725 2278 
L 3725 0 
L 2772 0 
L 2772 2041 
Q 2772 2416 2634 2606 
Q 2497 2797 2209 2797 
Q 1922 2797 1756 2664 
Q 1591 2531 1522 2273 
Q 1453 2016 1453 1644 
L 1453 0 
L 500 0 
L 500 4863 
L 1453 4863 
z
" transform="scale(0.015625)"/>
        <path id="OpenSans-Bold-65" d="M 1941 3559 
Q 2425 3559 2775 3373 
Q 3125 3188 3315 2834 
Q 3506 2481 3506 1972 
L 3506 1509 
L 1253 1509 
Q 1269 1106 1495 876 
Q 1722 647 2125 647 
Q 2459 647 2737 715 
Q 3016 784 3309 922 
L 3309 184 
Q 3050 56 2767 -3 
Q 2484 -63 2081 -63 
Q 1556 -63 1151 131 
Q 747 325 517 722 
Q 288 1119 288 1722 
Q 288 2334 495 2742 
Q 703 3150 1075 3354 
Q 1447 3559 1941 3559 
z
M 1947 2881 
Q 1669 2881 1486 2703 
Q 1303 2525 1275 2144 
L 2613 2144 
Q 2609 2356 2536 2522 
Q 2463 2688 2317 2784 
Q 2172 2881 1947 2881 
z
" transform="scale(0.015625)"/>
        <path id="OpenSans-Bold-6b" d="M 1453 4863 
L 1453 2688 
Q 1453 2491 1437 2294 
Q 1422 2097 1403 1900 
L 1416 1900 
Q 1513 2038 1614 2172 
Q 1716 2306 1831 2431 
L 2809 3494 
L 3884 3494 
L 2497 1978 
L 3969 0 
L 2869 0 
L 1863 1416 
L 1453 1088 
L 1453 0 
L 500 0 
L 500 4863 
L 1453 4863 
z
" transform="scale(0.015625)"/>
       </defs>
       <use xlink:href="#OpenSans-Bold-69"/>
       <use xlink:href="#OpenSans-Bold-73" x="30.517578"/>
       <use xlink:href="#OpenSans-Bold-63" x="80.224609"/>
       <use xlink:href="#OpenSans-Bold-68" x="131.640625"/>
       <use xlink:href="#OpenSans-Bold-65" x="197.363281"/>
       <use xlink:href="#OpenSans-Bold-6d" x="256.445312"/>
       <use xlink:href="#OpenSans-Bold-69" x="354.638672"/>
       <use xlink:href="#OpenSans-Bold-63" x="385.15625"/>
       <use xlink:href="#OpenSans-Bold-20" x="436.572266"/>
       <use xlink:href="#OpenSans-Bold-73" x="462.548828"/>
       <use xlink:href="#OpenSans-Bold-74" x="512.255859"/>
       <use xlink:href="#OpenSans-Bold-72" x="555.664062"/>
       <use xlink:href="#OpenSans-Bold-6f" x="601.074219"/>
       <use xlink:href="#OpenSans-Bold-6b" x="662.988281"/>
       <use xlink:href="#OpenSans-Bold-65" x="725"/>
      </g>
     </g>
    </g>
    <g id="xtick_3">
     <g id="line2d_3">
      <g>
       <use xlink:href="#m056090840f" x="248.16" y="219.168987" style="fill: #37539c; stroke: #37539c; stroke-width: 0.8"/>
      </g>
     </g>
     <g id="text_3">
      <!-- stroke -->
      <g style="fill: #37539c" transform="translate(240.535179 248.655867) rotate(-45) scale(0.08 -0.08)">
       <use xlink:href="#OpenSans-Bold-73"/>
       <use xlink:href="#OpenSans-Bold-74" x="49.707031"/>
       <use xlink:href="#OpenSans-Bold-72" x="93.115234"/>
       <use xlink:href="#OpenSans-Bold-6f" x="138.525391"/>
       <use xlink:href="#OpenSans-Bold-6b" x="200.439453"/>
       <use xlink:href="#OpenSans-Bold-65" x="262.451172"/>
      </g>
     </g>
    </g>
    <g id="xtick_4">
     <g id="line2d_4">
      <g>
       <use xlink:href="#m056090840f" x="338.432" y="219.168987" style="fill: #37539c; stroke: #37539c; stroke-width: 0.8"/>
      </g>
     </g>
     <g id="text_4">
      <!-- acute ischemic stroke -->
      <g style="fill: #37539c" transform="translate(309.068949 292.132327) rotate(-45) scale(0.08 -0.08)">
       <defs>
        <path id="OpenSans-Bold-75" d="M 3706 3494 
L 3706 0 
L 2975 0 
L 2847 447 
L 2797 447 
Q 2684 269 2515 156 
Q 2347 44 2144 -9 
Q 1941 -63 1722 -63 
Q 1347 -63 1069 70 
Q 791 203 636 484 
Q 481 766 481 1216 
L 481 3494 
L 1434 3494 
L 1434 1453 
Q 1434 1078 1568 887 
Q 1703 697 1997 697 
Q 2288 697 2453 830 
Q 2619 963 2686 1220 
Q 2753 1478 2753 1850 
L 2753 3494 
L 3706 3494 
z
" transform="scale(0.015625)"/>
       </defs>
       <use xlink:href="#OpenSans-Bold-61"/>
       <use xlink:href="#OpenSans-Bold-63" x="60.400391"/>
       <use xlink:href="#OpenSans-Bold-75" x="111.816406"/>
       <use xlink:href="#OpenSans-Bold-74" x="177.539062"/>
       <use xlink:href="#OpenSans-Bold-65" x="220.947266"/>
       <use xlink:href="#OpenSans-Bold-20" x="280.029297"/>
       <use xlink:href="#OpenSans-Bold-69" x="306.005859"/>
       <use xlink:href="#OpenSans-Bold-73" x="336.523438"/>
       <use xlink:href="#OpenSans-Bold-63" x="386.230469"/>
       <use xlink:href="#OpenSans-Bold-68" x="437.646484"/>
       <use xlink:href="#OpenSans-Bold-65" x="503.369141"/>
       <use xlink:href="#OpenSans-Bold-6d" x="562.451172"/>
       <use xlink:href="#OpenSans-Bold-69" x="660.644531"/>
       <use xlink:href="#OpenSans-Bold-63" x="691.162109"/>
       <use xlink:href="#OpenSans-Bold-20" x="742.578125"/>
       <use xlink:href="#OpenSans-Bold-73" x="768.554688"/>
       <use xlink:href="#OpenSans-Bold-74" x="818.261719"/>
       <use xlink:href="#OpenSans-Bold-72" x="861.669922"/>
       <use xlink:href="#OpenSans-Bold-6f" x="907.080078"/>
       <use xlink:href="#OpenSans-Bold-6b" x="968.994141"/>
       <use xlink:href="#OpenSans-Bold-65" x="1031.005859"/>
      </g>
     </g>
    </g>
    <g id="xtick_5">
     <g id="line2d_5">
      <g>
       <use xlink:href="#m056090840f" x="428.704" y="219.168987" style="fill: #37539c; stroke: #37539c; stroke-width: 0.8"/>
      </g>
     </g>
     <g id="text_5">
      <!-- coronary artery disease -->
      <g style="fill: #37539c" transform="translate(396.701231 297.411763) rotate(-45) scale(0.08 -0.08)">
       <use xlink:href="#OpenSans-Bold-63"/>
       <use xlink:href="#OpenSans-Bold-6f" x="51.416016"/>
       <use xlink:href="#OpenSans-Bold-72" x="113.330078"/>
       <use xlink:href="#OpenSans-Bold-6f" x="158.740234"/>
       <use xlink:href="#OpenSans-Bold-6e" x="220.654297"/>
       <use xlink:href="#OpenSans-Bold-61" x="286.376953"/>
       <use xlink:href="#OpenSans-Bold-72" x="346.777344"/>
       <use xlink:href="#OpenSans-Bold-79" x="392.1875"/>
       <use xlink:href="#OpenSans-Bold-20" x="449.072266"/>
       <use xlink:href="#OpenSans-Bold-61" x="475.048828"/>
       <use xlink:href="#OpenSans-Bold-72" x="535.449219"/>
       <use xlink:href="#OpenSans-Bold-74" x="580.859375"/>
       <use xlink:href="#OpenSans-Bold-65" x="624.267578"/>
       <use xlink:href="#OpenSans-Bold-72" x="683.349609"/>
       <use xlink:href="#OpenSans-Bold-79" x="728.759766"/>
       <use xlink:href="#OpenSans-Bold-20" x="785.644531"/>
       <use xlink:href="#OpenSans-Bold-64" x="811.621094"/>
       <use xlink:href="#OpenSans-Bold-69" x="874.902344"/>
       <use xlink:href="#OpenSans-Bold-73" x="905.419922"/>
       <use xlink:href="#OpenSans-Bold-65" x="955.126953"/>
       <use xlink:href="#OpenSans-Bold-61" x="1014.208984"/>
       <use xlink:href="#OpenSans-Bold-73" x="1074.609375"/>
       <use xlink:href="#OpenSans-Bold-65" x="1124.316406"/>
      </g>
     </g>
    </g>
    <g id="xtick_6">
     <g id="line2d_6">
      <g>
       <use xlink:href="#m056090840f" x="518.976" y="219.168987" style="fill: #37539c; stroke: #37539c; stroke-width: 0.8"/>
      </g>
     </g>
     <g id="text_6">
      <!-- acute myocardial infarction -->
      <g style="fill: #37539c" transform="translate(481.295164 308.828002) rotate(-45) scale(0.08 -0.08)">
       <use xlink:href="#OpenSans-Bold-61"/>
       <use xlink:href="#OpenSans-Bold-63" x="60.400391"/>
       <use xlink:href="#OpenSans-Bold-75" x="111.816406"/>
       <use xlink:href="#OpenSans-Bold-74" x="177.539062"/>
       <use xlink:href="#OpenSans-Bold-65" x="220.947266"/>
       <use xlink:href="#OpenSans-Bold-20" x="280.029297"/>
       <use xlink:href="#OpenSans-Bold-6d" x="306.005859"/>
       <use xlink:href="#OpenSans-Bold-79" x="404.199219"/>
       <use xlink:href="#OpenSans-Bold-6f" x="461.083984"/>
       <use xlink:href="#OpenSans-Bold-63" x="522.998047"/>
       <use xlink:href="#OpenSans-Bold-61" x="574.414062"/>
       <use xlink:href="#OpenSans-Bold-72" x="634.814453"/>
       <use xlink:href="#OpenSans-Bold-64" x="680.224609"/>
       <use xlink:href="#OpenSans-Bold-69" x="743.505859"/>
       <use xlink:href="#OpenSans-Bold-61" x="774.023438"/>
       <use xlink:href="#OpenSans-Bold-6c" x="834.423828"/>
       <use xlink:href="#OpenSans-Bold-20" x="864.941406"/>
       <use xlink:href="#OpenSans-Bold-69" x="890.917969"/>
       <use xlink:href="#OpenSans-Bold-6e" x="921.435547"/>
       <use xlink:href="#OpenSans-Bold-66" x="987.158203"/>
       <use xlink:href="#OpenSans-Bold-61" x="1025.878906"/>
       <use xlink:href="#OpenSans-Bold-72" x="1086.279297"/>
       <use xlink:href="#OpenSans-Bold-63" x="1131.689453"/>
       <use xlink:href="#OpenSans-Bold-74" x="1183.105469"/>
       <use xlink:href="#OpenSans-Bold-69" x="1226.513672"/>
       <use xlink:href="#OpenSans-Bold-6f" x="1257.03125"/>
       <use xlink:href="#OpenSans-Bold-6e" x="1318.945312"/>
      </g>
     </g>
    </g>
    <g id="xtick_7">
     <g id="line2d_7">
      <g>
       <use xlink:href="#m056090840f" x="609.248" y="219.168987" style="fill: #37539c; stroke: #37539c; stroke-width: 0.8"/>
      </g>
     </g>
     <g id="text_7">
      <!-- latin america -->
      <g style="fill: #37539c" transform="translate(591.994153 267.91392) rotate(-45) scale(0.08 -0.08)">
       <use xlink:href="#OpenSans-Bold-6c"/>
       <use xlink:href="#OpenSans-Bold-61" x="30.517578"/>
       <use xlink:href="#OpenSans-Bold-74" x="90.917969"/>
       <use xlink:href="#OpenSans-Bold-69" x="134.326172"/>
       <use xlink:href="#OpenSans-Bold-6e" x="164.84375"/>
       <use xlink:href="#OpenSans-Bold-20" x="230.566406"/>
       <use xlink:href="#OpenSans-Bold-61" x="256.542969"/>
       <use xlink:href="#OpenSans-Bold-6d" x="316.943359"/>
       <use xlink:href="#OpenSans-Bold-65" x="415.136719"/>
       <use xlink:href="#OpenSans-Bold-72" x="474.21875"/>
       <use xlink:href="#OpenSans-Bold-69" x="519.628906"/>
       <use xlink:href="#OpenSans-Bold-63" x="550.146484"/>
       <use xlink:href="#OpenSans-Bold-61" x="601.5625"/>
      </g>
     </g>
    </g>
    <g id="xtick_8">
     <g id="line2d_8">
      <g>
       <use xlink:href="#m056090840f" x="699.52" y="219.168987" style="fill: #37539c; stroke: #37539c; stroke-width: 0.8"/>
      </g>
     </g>
     <g id="text_8">
      <!-- percutaneous coronary intervention -->
      <g style="fill: #37539c" transform="translate(649.53197 333.382285) rotate(-45) scale(0.08 -0.08)">
       <defs>
        <path id="OpenSans-Bold-70" d="M 2444 3559 
Q 3034 3559 3398 3100 
Q 3763 2641 3763 1753 
Q 3763 1159 3591 754 
Q 3419 350 3116 143 
Q 2813 -63 2419 -63 
Q 2166 -63 1984 1 
Q 1803 66 1675 167 
Q 1547 269 1453 384 
L 1403 384 
Q 1428 259 1440 128 
Q 1453 -3 1453 -128 
L 1453 -1538 
L 500 -1538 
L 500 3494 
L 1275 3494 
L 1409 3041 
L 1453 3041 
Q 1547 3181 1681 3300 
Q 1816 3419 2005 3489 
Q 2194 3559 2444 3559 
z
M 2138 2797 
Q 1888 2797 1741 2694 
Q 1594 2591 1526 2384 
Q 1459 2178 1453 1863 
L 1453 1759 
Q 1453 1422 1517 1187 
Q 1581 953 1732 831 
Q 1884 709 2150 709 
Q 2369 709 2509 831 
Q 2650 953 2720 1189 
Q 2791 1425 2791 1766 
Q 2791 2278 2631 2537 
Q 2472 2797 2138 2797 
z
" transform="scale(0.015625)"/>
        <path id="OpenSans-Bold-76" d="M 1331 0 
L 0 3494 
L 997 3494 
L 1672 1503 
Q 1728 1328 1761 1134 
Q 1794 941 1806 788 
L 1831 788 
Q 1841 953 1877 1140 
Q 1913 1328 1972 1503 
L 2644 3494 
L 3641 3494 
L 2309 0 
L 1331 0 
z
" transform="scale(0.015625)"/>
       </defs>
       <use xlink:href="#OpenSans-Bold-70"/>
       <use xlink:href="#OpenSans-Bold-65" x="63.28125"/>
       <use xlink:href="#OpenSans-Bold-72" x="122.363281"/>
       <use xlink:href="#OpenSans-Bold-63" x="167.773438"/>
       <use xlink:href="#OpenSans-Bold-75" x="219.189453"/>
       <use xlink:href="#OpenSans-Bold-74" x="284.912109"/>
       <use xlink:href="#OpenSans-Bold-61" x="328.320312"/>
       <use xlink:href="#OpenSans-Bold-6e" x="388.720703"/>
       <use xlink:href="#OpenSans-Bold-65" x="454.443359"/>
       <use xlink:href="#OpenSans-Bold-6f" x="513.525391"/>
       <use xlink:href="#OpenSans-Bold-75" x="575.439453"/>
       <use xlink:href="#OpenSans-Bold-73" x="641.162109"/>
       <use xlink:href="#OpenSans-Bold-20" x="690.869141"/>
       <use xlink:href="#OpenSans-Bold-63" x="716.845703"/>
       <use xlink:href="#OpenSans-Bold-6f" x="768.261719"/>
       <use xlink:href="#OpenSans-Bold-72" x="830.175781"/>
       <use xlink:href="#OpenSans-Bold-6f" x="875.585938"/>
       <use xlink:href="#OpenSans-Bold-6e" x="937.5"/>
       <use xlink:href="#OpenSans-Bold-61" x="1003.222656"/>
       <use xlink:href="#OpenSans-Bold-72" x="1063.623047"/>
       <use xlink:href="#OpenSans-Bold-79" x="1109.033203"/>
       <use xlink:href="#OpenSans-Bold-20" x="1165.917969"/>
       <use xlink:href="#OpenSans-Bold-69" x="1191.894531"/>
       <use xlink:href="#OpenSans-Bold-6e" x="1222.412109"/>
       <use xlink:href="#OpenSans-Bold-74" x="1288.134766"/>
       <use xlink:href="#OpenSans-Bold-65" x="1331.542969"/>
       <use xlink:href="#OpenSans-Bold-72" x="1390.625"/>
       <use xlink:href="#OpenSans-Bold-76" x="1436.035156"/>
       <use xlink:href="#OpenSans-Bold-65" x="1492.919922"/>
       <use xlink:href="#OpenSans-Bold-6e" x="1552.001953"/>
       <use xlink:href="#OpenSans-Bold-74" x="1617.724609"/>
       <use xlink:href="#OpenSans-Bold-69" x="1661.132812"/>
       <use xlink:href="#OpenSans-Bold-6f" x="1691.650391"/>
       <use xlink:href="#OpenSans-Bold-6e" x="1753.564453"/>
      </g>
     </g>
    </g>
    <g id="xtick_9">
     <g id="line2d_9">
      <g>
       <use xlink:href="#m056090840f" x="789.792" y="219.168987" style="fill: #37539c; stroke: #37539c; stroke-width: 0.8"/>
      </g>
     </g>
     <g id="text_9">
      <!-- acute coronary syndrome -->
      <g style="fill: #37539c" transform="translate(755.02135 302.947525) rotate(-45) scale(0.08 -0.08)">
       <use xlink:href="#OpenSans-Bold-61"/>
       <use xlink:href="#OpenSans-Bold-63" x="60.400391"/>
       <use xlink:href="#OpenSans-Bold-75" x="111.816406"/>
       <use xlink:href="#OpenSans-Bold-74" x="177.539062"/>
       <use xlink:href="#OpenSans-Bold-65" x="220.947266"/>
       <use xlink:href="#OpenSans-Bold-20" x="280.029297"/>
       <use xlink:href="#OpenSans-Bold-63" x="306.005859"/>
       <use xlink:href="#OpenSans-Bold-6f" x="357.421875"/>
       <use xlink:href="#OpenSans-Bold-72" x="419.335938"/>
       <use xlink:href="#OpenSans-Bold-6f" x="464.746094"/>
       <use xlink:href="#OpenSans-Bold-6e" x="526.660156"/>
       <use xlink:href="#OpenSans-Bold-61" x="592.382812"/>
       <use xlink:href="#OpenSans-Bold-72" x="652.783203"/>
       <use xlink:href="#OpenSans-Bold-79" x="698.193359"/>
       <use xlink:href="#OpenSans-Bold-20" x="755.078125"/>
       <use xlink:href="#OpenSans-Bold-73" x="781.054688"/>
       <use xlink:href="#OpenSans-Bold-79" x="830.761719"/>
       <use xlink:href="#OpenSans-Bold-6e" x="887.646484"/>
       <use xlink:href="#OpenSans-Bold-64" x="953.369141"/>
       <use xlink:href="#OpenSans-Bold-72" x="1016.650391"/>
       <use xlink:href="#OpenSans-Bold-6f" x="1062.060547"/>
       <use xlink:href="#OpenSans-Bold-6d" x="1123.974609"/>
       <use xlink:href="#OpenSans-Bold-65" x="1222.167969"/>
      </g>
     </g>
    </g>
    <g id="xtick_10">
     <g id="line2d_10">
      <g>
       <use xlink:href="#m056090840f" x="880.064" y="219.168987" style="fill: #37539c; stroke: #37539c; stroke-width: 0.8"/>
      </g>
     </g>
     <g id="text_10">
      <!-- long-term -->
      <g style="fill: #37539c" transform="translate(867.591962 258.350301) rotate(-45) scale(0.08 -0.08)">
       <defs>
        <path id="OpenSans-Bold-67" d="M 1522 -1538 
Q 791 -1538 405 -1283 
Q 19 -1028 19 -569 
Q 19 -253 216 -40 
Q 413 172 794 263 
Q 647 325 537 467 
Q 428 609 428 769 
Q 428 969 543 1101 
Q 659 1234 878 1363 
Q 603 1481 442 1743 
Q 281 2006 281 2363 
Q 281 2744 448 3011 
Q 616 3278 936 3418 
Q 1256 3559 1716 3559 
Q 1813 3559 1941 3546 
Q 2069 3534 2176 3518 
Q 2284 3503 2322 3494 
L 3541 3494 
L 3541 3009 
L 2994 2869 
Q 3069 2753 3106 2622 
Q 3144 2491 3144 2344 
Q 3144 1781 2751 1467 
Q 2359 1153 1663 1153 
Q 1497 1163 1350 1178 
Q 1278 1122 1240 1059 
Q 1203 997 1203 928 
Q 1203 859 1261 814 
Q 1319 769 1436 745 
Q 1553 722 1728 722 
L 2322 722 
Q 2897 722 3198 475 
Q 3500 228 3500 -250 
Q 3500 -863 2989 -1200 
Q 2478 -1538 1522 -1538 
z
M 1563 -916 
Q 1903 -916 2148 -852 
Q 2394 -788 2525 -670 
Q 2656 -553 2656 -391 
Q 2656 -259 2579 -182 
Q 2503 -106 2348 -75 
Q 2194 -44 1953 -44 
L 1459 -44 
Q 1284 -44 1145 -100 
Q 1006 -156 925 -257 
Q 844 -359 844 -494 
Q 844 -691 1033 -803 
Q 1222 -916 1563 -916 
z
M 1716 1734 
Q 1984 1734 2109 1900 
Q 2234 2066 2234 2350 
Q 2234 2666 2104 2823 
Q 1975 2981 1716 2981 
Q 1453 2981 1322 2823 
Q 1191 2666 1191 2350 
Q 1191 2066 1320 1900 
Q 1450 1734 1716 1734 
z
" transform="scale(0.015625)"/>
        <path id="OpenSans-Bold-2d" d="M 191 1325 
L 191 2106 
L 1869 2106 
L 1869 1325 
L 191 1325 
z
" transform="scale(0.015625)"/>
       </defs>
       <use xlink:href="#OpenSans-Bold-6c"/>
       <use xlink:href="#OpenSans-Bold-6f" x="30.517578"/>
       <use xlink:href="#OpenSans-Bold-6e" x="92.431641"/>
       <use xlink:href="#OpenSans-Bold-67" x="158.154297"/>
       <use xlink:href="#OpenSans-Bold-2d" x="214.648438"/>
       <use xlink:href="#OpenSans-Bold-74" x="246.826172"/>
       <use xlink:href="#OpenSans-Bold-65" x="290.234375"/>
       <use xlink:href="#OpenSans-Bold-72" x="349.316406"/>
       <use xlink:href="#OpenSans-Bold-6d" x="394.726562"/>
      </g>
     </g>
    </g>
    <g id="text_11">
     <!-- Keyword -->
     <g style="fill: #37539c" transform="translate(451.911094 346.340135) scale(0.1 -0.1)">
      <defs>
       <path id="OpenSans-Bold-4b" d="M 4250 0 
L 3150 0 
L 1953 1925 
L 1544 1631 
L 1544 0 
L 575 0 
L 575 4569 
L 1544 4569 
L 1544 2478 
Q 1641 2613 1734 2747 
Q 1828 2881 1925 3016 
L 3163 4569 
L 4238 4569 
L 2644 2547 
L 4250 0 
z
" transform="scale(0.015625)"/>
       <path id="OpenSans-Bold-77" d="M 3372 0 
L 3103 1222 
Q 3081 1331 3031 1545 
Q 2981 1759 2923 2004 
Q 2866 2250 2817 2459 
Q 2769 2669 2747 2766 
L 2719 2766 
Q 2697 2669 2650 2459 
Q 2603 2250 2545 2003 
Q 2488 1756 2438 1539 
Q 2388 1322 2363 1209 
L 2081 0 
L 1056 0 
L 63 3494 
L 1013 3494 
L 1416 1947 
Q 1456 1784 1493 1561 
Q 1531 1338 1561 1130 
Q 1591 922 1606 800 
L 1631 800 
Q 1638 891 1658 1041 
Q 1678 1191 1704 1352 
Q 1731 1513 1754 1642 
Q 1778 1772 1791 1819 
L 2222 3494 
L 3272 3494 
L 3681 1819 
Q 3703 1728 3739 1531 
Q 3775 1334 3803 1126 
Q 3831 919 3834 800 
L 3859 800 
Q 3872 906 3903 1115 
Q 3934 1325 3976 1554 
Q 4019 1784 4063 1947 
L 4481 3494 
L 5416 3494 
L 4409 0 
L 3372 0 
z
" transform="scale(0.015625)"/>
      </defs>
      <use xlink:href="#OpenSans-Bold-4b"/>
      <use xlink:href="#OpenSans-Bold-65" x="66.40625"/>
      <use xlink:href="#OpenSans-Bold-79" x="125.488281"/>
      <use xlink:href="#OpenSans-Bold-77" x="182.373047"/>
      <use xlink:href="#OpenSans-Bold-6f" x="267.96875"/>
      <use xlink:href="#OpenSans-Bold-72" x="329.882812"/>
      <use xlink:href="#OpenSans-Bold-64" x="375.292969"/>
     </g>
    </g>
   </g>
   <g id="matplotlib.axis_2">
    <g id="ytick_1">
     <g id="line2d_11">
      <path d="M 22.48 219.168987 
L 925.2 219.168987 
" clip-path="url(#pee4163d1f9)" style="fill: none; stroke-dasharray: 2.96,1.28; stroke-dashoffset: 0; stroke: #b0b0b0; stroke-width: 0.8"/>
     </g>
     <g id="line2d_12">
      <defs>
       <path id="m22ed20a973" d="M 0 0 
L -3.5 0 
" style="stroke: #37539c; stroke-width: 0.8"/>
      </defs>
      <g>
       <use xlink:href="#m22ed20a973" x="22.48" y="219.168987" style="fill: #37539c; stroke: #37539c; stroke-width: 0.8"/>
      </g>
     </g>
     <g id="text_12">
      <!-- 0 -->
      <g style="fill: #37539c" transform="translate(10.90625 222.208362) scale(0.08 -0.08)">
       <defs>
        <path id="OpenSans-Bold-30" d="M 3425 2284 
Q 3425 1731 3339 1297 
Q 3253 863 3064 559 
Q 2875 256 2569 96 
Q 2263 -63 1825 -63 
Q 1275 -63 922 217 
Q 569 497 400 1023 
Q 231 1550 231 2284 
Q 231 3025 386 3551 
Q 541 4078 891 4359 
Q 1241 4641 1825 4641 
Q 2372 4641 2726 4361 
Q 3081 4081 3253 3554 
Q 3425 3028 3425 2284 
z
M 1191 2284 
Q 1191 1763 1248 1414 
Q 1306 1066 1443 891 
Q 1581 716 1825 716 
Q 2066 716 2205 889 
Q 2344 1063 2403 1411 
Q 2463 1759 2463 2284 
Q 2463 2806 2403 3156 
Q 2344 3506 2205 3682 
Q 2066 3859 1825 3859 
Q 1581 3859 1443 3682 
Q 1306 3506 1248 3156 
Q 1191 2806 1191 2284 
z
" transform="scale(0.015625)"/>
       </defs>
       <use xlink:href="#OpenSans-Bold-30"/>
      </g>
     </g>
    </g>
    <g id="ytick_2">
     <g id="line2d_13">
      <path d="M 22.48 195.536965 
L 925.2 195.536965 
" clip-path="url(#pee4163d1f9)" style="fill: none; stroke-dasharray: 2.96,1.28; stroke-dashoffset: 0; stroke: #b0b0b0; stroke-width: 0.8"/>
     </g>
     <g id="line2d_14">
      <g>
       <use xlink:href="#m22ed20a973" x="22.48" y="195.536965" style="fill: #37539c; stroke: #37539c; stroke-width: 0.8"/>
      </g>
     </g>
     <g id="text_13">
      <!-- 1 -->
      <g style="fill: #37539c" transform="translate(10.90625 198.57634) scale(0.08 -0.08)">
       <defs>
        <path id="OpenSans-Bold-31" d="M 2644 0 
L 1678 0 
L 1678 2644 
Q 1678 2753 1681 2914 
Q 1684 3075 1690 3245 
Q 1697 3416 1703 3553 
Q 1669 3513 1564 3414 
Q 1459 3316 1369 3238 
L 844 2816 
L 378 3397 
L 1850 4569 
L 2644 4569 
L 2644 0 
z
" transform="scale(0.015625)"/>
       </defs>
       <use xlink:href="#OpenSans-Bold-31"/>
      </g>
     </g>
    </g>
    <g id="ytick_3">
     <g id="line2d_15">
      <path d="M 22.48 171.904943 
L 925.2 171.904943 
" clip-path="url(#pee4163d1f9)" style="fill: none; stroke-dasharray: 2.96,1.28; stroke-dashoffset: 0; stroke: #b0b0b0; stroke-width: 0.8"/>
     </g>
     <g id="line2d_16">
      <g>
       <use xlink:href="#m22ed20a973" x="22.48" y="171.904943" style="fill: #37539c; stroke: #37539c; stroke-width: 0.8"/>
      </g>
     </g>
     <g id="text_14">
      <!-- 2 -->
      <g style="fill: #37539c" transform="translate(10.90625 174.944318) scale(0.08 -0.08)">
       <defs>
        <path id="OpenSans-Bold-32" d="M 3450 0 
L 256 0 
L 256 672 
L 1403 1831 
Q 1750 2188 1961 2427 
Q 2172 2666 2267 2862 
Q 2363 3059 2363 3284 
Q 2363 3556 2211 3692 
Q 2059 3828 1806 3828 
Q 1541 3828 1291 3706 
Q 1041 3584 769 3359 
L 244 3981 
Q 441 4150 661 4300 
Q 881 4450 1173 4542 
Q 1466 4634 1875 4634 
Q 2325 4634 2648 4471 
Q 2972 4309 3147 4029 
Q 3322 3750 3322 3397 
Q 3322 3019 3172 2706 
Q 3022 2394 2736 2087 
Q 2450 1781 2047 1409 
L 1459 856 
L 1459 813 
L 3450 813 
L 3450 0 
z
" transform="scale(0.015625)"/>
       </defs>
       <use xlink:href="#OpenSans-Bold-32"/>
      </g>
     </g>
    </g>
    <g id="ytick_4">
     <g id="line2d_17">
      <path d="M 22.48 148.27292 
L 925.2 148.27292 
" clip-path="url(#pee4163d1f9)" style="fill: none; stroke-dasharray: 2.96,1.28; stroke-dashoffset: 0; stroke: #b0b0b0; stroke-width: 0.8"/>
     </g>
     <g id="line2d_18">
      <g>
       <use xlink:href="#m22ed20a973" x="22.48" y="148.27292" style="fill: #37539c; stroke: #37539c; stroke-width: 0.8"/>
      </g>
     </g>
     <g id="text_15">
      <!-- 3 -->
      <g style="fill: #37539c" transform="translate(10.90625 151.312295) scale(0.08 -0.08)">
       <defs>
        <path id="OpenSans-Bold-33" d="M 3272 3547 
Q 3272 3231 3140 3000 
Q 3009 2769 2786 2622 
Q 2563 2475 2284 2406 
L 2284 2388 
Q 2834 2319 3120 2050 
Q 3406 1781 3406 1331 
Q 3406 931 3211 615 
Q 3016 300 2609 118 
Q 2203 -63 1563 -63 
Q 1184 -63 857 -2 
Q 531 59 244 184 
L 244 1006 
Q 538 856 859 779 
Q 1181 703 1459 703 
Q 1978 703 2186 883 
Q 2394 1063 2394 1388 
Q 2394 1578 2297 1709 
Q 2200 1841 1961 1909 
Q 1722 1978 1294 1978 
L 947 1978 
L 947 2719 
L 1300 2719 
Q 1722 2719 1942 2798 
Q 2163 2878 2242 3017 
Q 2322 3156 2322 3334 
Q 2322 3578 2172 3715 
Q 2022 3853 1672 3853 
Q 1453 3853 1273 3798 
Q 1094 3744 950 3667 
Q 806 3591 697 3519 
L 250 4184 
Q 519 4378 880 4506 
Q 1241 4634 1741 4634 
Q 2447 4634 2859 4350 
Q 3272 4066 3272 3547 
z
" transform="scale(0.015625)"/>
       </defs>
       <use xlink:href="#OpenSans-Bold-33"/>
      </g>
     </g>
    </g>
    <g id="ytick_5">
     <g id="line2d_19">
      <path d="M 22.48 124.640898 
L 925.2 124.640898 
" clip-path="url(#pee4163d1f9)" style="fill: none; stroke-dasharray: 2.96,1.28; stroke-dashoffset: 0; stroke: #b0b0b0; stroke-width: 0.8"/>
     </g>
     <g id="line2d_20">
      <g>
       <use xlink:href="#m22ed20a973" x="22.48" y="124.640898" style="fill: #37539c; stroke: #37539c; stroke-width: 0.8"/>
      </g>
     </g>
     <g id="text_16">
      <!-- 4 -->
      <g style="fill: #37539c" transform="translate(10.90625 127.680273) scale(0.08 -0.08)">
       <defs>
        <path id="OpenSans-Bold-34" d="M 3553 947 
L 3003 947 
L 3003 0 
L 2059 0 
L 2059 947 
L 109 947 
L 109 1619 
L 2113 4569 
L 3003 4569 
L 3003 1697 
L 3553 1697 
L 3553 947 
z
M 2059 1697 
L 2059 2472 
Q 2059 2581 2064 2731 
Q 2069 2881 2075 3031 
Q 2081 3181 2089 3298 
Q 2097 3416 2100 3463 
L 2075 3463 
Q 2016 3334 1950 3214 
Q 1884 3094 1797 2963 
L 959 1697 
L 2059 1697 
z
" transform="scale(0.015625)"/>
       </defs>
       <use xlink:href="#OpenSans-Bold-34"/>
      </g>
     </g>
    </g>
    <g id="ytick_6">
     <g id="line2d_21">
      <path d="M 22.48 101.008876 
L 925.2 101.008876 
" clip-path="url(#pee4163d1f9)" style="fill: none; stroke-dasharray: 2.96,1.28; stroke-dashoffset: 0; stroke: #b0b0b0; stroke-width: 0.8"/>
     </g>
     <g id="line2d_22">
      <g>
       <use xlink:href="#m22ed20a973" x="22.48" y="101.008876" style="fill: #37539c; stroke: #37539c; stroke-width: 0.8"/>
      </g>
     </g>
     <g id="text_17">
      <!-- 5 -->
      <g style="fill: #37539c" transform="translate(10.90625 104.048251) scale(0.08 -0.08)">
       <defs>
        <path id="OpenSans-Bold-35" d="M 1919 2919 
Q 2338 2919 2664 2759 
Q 2991 2600 3178 2290 
Q 3366 1981 3366 1528 
Q 3366 1034 3161 676 
Q 2956 319 2551 128 
Q 2147 -63 1544 -63 
Q 1184 -63 867 -2 
Q 550 59 313 184 
L 313 1019 
Q 550 894 883 808 
Q 1216 722 1509 722 
Q 1797 722 1994 798 
Q 2191 875 2292 1036 
Q 2394 1197 2394 1447 
Q 2394 1781 2169 1959 
Q 1944 2138 1478 2138 
Q 1300 2138 1108 2103 
Q 916 2069 788 2034 
L 403 2241 
L 575 4569 
L 3053 4569 
L 3053 3750 
L 1422 3750 
L 1338 2853 
Q 1444 2875 1569 2897 
Q 1694 2919 1919 2919 
z
" transform="scale(0.015625)"/>
       </defs>
       <use xlink:href="#OpenSans-Bold-35"/>
      </g>
     </g>
    </g>
    <g id="ytick_7">
     <g id="line2d_23">
      <path d="M 22.48 77.376853 
L 925.2 77.376853 
" clip-path="url(#pee4163d1f9)" style="fill: none; stroke-dasharray: 2.96,1.28; stroke-dashoffset: 0; stroke: #b0b0b0; stroke-width: 0.8"/>
     </g>
     <g id="line2d_24">
      <g>
       <use xlink:href="#m22ed20a973" x="22.48" y="77.376853" style="fill: #37539c; stroke: #37539c; stroke-width: 0.8"/>
      </g>
     </g>
     <g id="text_18">
      <!-- 6 -->
      <g style="fill: #37539c" transform="translate(10.90625 80.416228) scale(0.08 -0.08)">
       <defs>
        <path id="OpenSans-Bold-36" d="M 225 1941 
Q 225 2334 283 2720 
Q 341 3106 484 3448 
Q 628 3791 887 4055 
Q 1147 4319 1547 4470 
Q 1947 4622 2516 4622 
Q 2650 4622 2829 4611 
Q 3009 4600 3128 4575 
L 3128 3803 
Q 3003 3831 2861 3848 
Q 2719 3866 2578 3866 
Q 2009 3866 1698 3684 
Q 1388 3503 1261 3183 
Q 1134 2863 1113 2438 
L 1153 2438 
Q 1241 2591 1373 2709 
Q 1506 2828 1697 2898 
Q 1888 2969 2144 2969 
Q 2544 2969 2837 2798 
Q 3131 2628 3290 2306 
Q 3450 1984 3450 1522 
Q 3450 1028 3259 672 
Q 3069 316 2720 126 
Q 2372 -63 1894 -63 
Q 1544 -63 1241 57 
Q 938 178 709 425 
Q 481 672 353 1048 
Q 225 1425 225 1941 
z
M 1875 709 
Q 2159 709 2337 903 
Q 2516 1097 2516 1509 
Q 2516 1844 2361 2036 
Q 2206 2228 1894 2228 
Q 1681 2228 1520 2133 
Q 1359 2038 1271 1892 
Q 1184 1747 1184 1594 
Q 1184 1434 1228 1278 
Q 1272 1122 1359 994 
Q 1447 866 1576 787 
Q 1706 709 1875 709 
z
" transform="scale(0.015625)"/>
       </defs>
       <use xlink:href="#OpenSans-Bold-36"/>
      </g>
     </g>
    </g>
    <g id="ytick_8">
     <g id="line2d_25">
      <path d="M 22.48 53.744831 
L 925.2 53.744831 
" clip-path="url(#pee4163d1f9)" style="fill: none; stroke-dasharray: 2.96,1.28; stroke-dashoffset: 0; stroke: #b0b0b0; stroke-width: 0.8"/>
     </g>
     <g id="line2d_26">
      <g>
       <use xlink:href="#m22ed20a973" x="22.48" y="53.744831" style="fill: #37539c; stroke: #37539c; stroke-width: 0.8"/>
      </g>
     </g>
     <g id="text_19">
      <!-- 7 -->
      <g style="fill: #37539c" transform="translate(10.90625 56.784206) scale(0.08 -0.08)">
       <defs>
        <path id="OpenSans-Bold-37" d="M 709 0 
L 2425 3756 
L 172 3756 
L 172 4569 
L 3450 4569 
L 3450 3963 
L 1722 0 
L 709 0 
z
" transform="scale(0.015625)"/>
       </defs>
       <use xlink:href="#OpenSans-Bold-37"/>
      </g>
     </g>
    </g>
    <g id="ytick_9">
     <g id="line2d_27">
      <path d="M 22.48 30.112809 
L 925.2 30.112809 
" clip-path="url(#pee4163d1f9)" style="fill: none; stroke-dasharray: 2.96,1.28; stroke-dashoffset: 0; stroke: #b0b0b0; stroke-width: 0.8"/>
     </g>
     <g id="line2d_28">
      <g>
       <use xlink:href="#m22ed20a973" x="22.48" y="30.112809" style="fill: #37539c; stroke: #37539c; stroke-width: 0.8"/>
      </g>
     </g>
     <g id="text_20">
      <!-- 8 -->
      <g style="fill: #37539c" transform="translate(10.90625 33.152184) scale(0.08 -0.08)">
       <defs>
        <path id="OpenSans-Bold-38" d="M 1831 4628 
Q 2225 4628 2558 4506 
Q 2891 4384 3091 4139 
Q 3291 3894 3291 3525 
Q 3291 3250 3183 3044 
Q 3075 2838 2890 2683 
Q 2706 2528 2472 2413 
Q 2716 2284 2934 2114 
Q 3153 1944 3292 1716 
Q 3431 1488 3431 1184 
Q 3431 803 3228 523 
Q 3025 244 2665 90 
Q 2306 -63 1831 -63 
Q 1319 -63 959 84 
Q 600 231 412 504 
Q 225 778 225 1159 
Q 225 1472 342 1703 
Q 459 1934 659 2101 
Q 859 2269 1100 2388 
Q 897 2516 730 2678 
Q 563 2841 464 3050 
Q 366 3259 366 3531 
Q 366 3894 570 4137 
Q 775 4381 1109 4504 
Q 1444 4628 1831 4628 
z
M 1119 1216 
Q 1119 969 1295 808 
Q 1472 647 1819 647 
Q 2178 647 2356 801 
Q 2534 956 2534 1209 
Q 2534 1384 2432 1515 
Q 2331 1647 2178 1751 
Q 2025 1856 1869 1947 
L 1784 1991 
Q 1584 1900 1436 1787 
Q 1288 1675 1203 1534 
Q 1119 1394 1119 1216 
z
M 1825 3922 
Q 1588 3922 1431 3800 
Q 1275 3678 1275 3456 
Q 1275 3300 1351 3183 
Q 1428 3066 1554 2978 
Q 1681 2891 1831 2816 
Q 1975 2884 2100 2968 
Q 2225 3053 2303 3172 
Q 2381 3291 2381 3456 
Q 2381 3678 2223 3800 
Q 2066 3922 1825 3922 
z
" transform="scale(0.015625)"/>
       </defs>
       <use xlink:href="#OpenSans-Bold-38"/>
      </g>
     </g>
    </g>
   </g>
   <g id="patch_3">
    <path d="M 45.048 219.168987 
L 49.151273 219.168987 
L 49.151273 77.376853 
L 45.048 77.376853 
z
" clip-path="url(#pee4163d1f9)" style="fill: #37539c"/>
   </g>
   <g id="patch_4">
    <path d="M 135.32 219.168987 
L 139.423273 219.168987 
L 139.423273 171.904943 
L 135.32 171.904943 
z
" clip-path="url(#pee4163d1f9)" style="fill: #37539c"/>
   </g>
   <g id="patch_5">
    <path d="M 225.592 219.168987 
L 229.695273 219.168987 
L 229.695273 195.536965 
L 225.592 195.536965 
z
" clip-path="url(#pee4163d1f9)" style="fill: #37539c"/>
   </g>
   <g id="patch_6">
    <path d="M 315.864 219.168987 
L 319.967273 219.168987 
L 319.967273 148.27292 
L 315.864 148.27292 
z
" clip-path="url(#pee4163d1f9)" style="fill: #37539c"/>
   </g>
   <g id="patch_7">
    <path d="M 406.136 219.168987 
L 410.239273 219.168987 
L 410.239273 219.168987 
L 406.136 219.168987 
z
" clip-path="url(#pee4163d1f9)" style="fill: #37539c"/>
   </g>
   <g id="patch_8">
    <path d="M 496.408 219.168987 
L 500.511273 219.168987 
L 500.511273 101.008876 
L 496.408 101.008876 
z
" clip-path="url(#pee4163d1f9)" style="fill: #37539c"/>
   </g>
   <g id="patch_9">
    <path d="M 586.68 219.168987 
L 590.783273 219.168987 
L 590.783273 195.536965 
L 586.68 195.536965 
z
" clip-path="url(#pee4163d1f9)" style="fill: #37539c"/>
   </g>
   <g id="patch_10">
    <path d="M 676.952 219.168987 
L 681.055273 219.168987 
L 681.055273 219.168987 
L 676.952 219.168987 
z
" clip-path="url(#pee4163d1f9)" style="fill: #37539c"/>
   </g>
   <g id="patch_11">
    <path d="M 767.224 219.168987 
L 771.327273 219.168987 
L 771.327273 219.168987 
L 767.224 219.168987 
z
" clip-path="url(#pee4163d1f9)" style="fill: #37539c"/>
   </g>
   <g id="patch_12">
    <path d="M 857.496 219.168987 
L 861.599273 219.168987 
L 861.599273 219.168987 
L 857.496 219.168987 
z
" clip-path="url(#pee4163d1f9)" style="fill: #37539c"/>
   </g>
   <g id="patch_13">
    <path d="M 49.151273 219.168987 
L 53.254545 219.168987 
L 53.254545 171.904943 
L 49.151273 171.904943 
z
" clip-path="url(#pee4163d1f9)" style="fill: #59c3c3"/>
   </g>
   <g id="patch_14">
    <path d="M 139.423273 219.168987 
L 143.526545 219.168987 
L 143.526545 195.536965 
L 139.423273 195.536965 
z
" clip-path="url(#pee4163d1f9)" style="fill: #59c3c3"/>
   </g>
   <g id="patch_15">
    <path d="M 229.695273 219.168987 
L 233.798545 219.168987 
L 233.798545 195.536965 
L 229.695273 195.536965 
z
" clip-path="url(#pee4163d1f9)" style="fill: #59c3c3"/>
   </g>
   <g id="patch_16">
    <path d="M 319.967273 219.168987 
L 324.070545 219.168987 
L 324.070545 219.168987 
L 319.967273 219.168987 
z
" clip-path="url(#pee4163d1f9)" style="fill: #59c3c3"/>
   </g>
   <g id="patch_17">
    <path d="M 410.239273 219.168987 
L 414.342545 219.168987 
L 414.342545 148.27292 
L 410.239273 148.27292 
z
" clip-path="url(#pee4163d1f9)" style="fill: #59c3c3"/>
   </g>
   <g id="patch_18">
    <path d="M 500.511273 219.168987 
L 504.614545 219.168987 
L 504.614545 171.904943 
L 500.511273 171.904943 
z
" clip-path="url(#pee4163d1f9)" style="fill: #59c3c3"/>
   </g>
   <g id="patch_19">
    <path d="M 590.783273 219.168987 
L 594.886545 219.168987 
L 594.886545 195.536965 
L 590.783273 195.536965 
z
" clip-path="url(#pee4163d1f9)" style="fill: #59c3c3"/>
   </g>
   <g id="patch_20">
    <path d="M 681.055273 219.168987 
L 685.158545 219.168987 
L 685.158545 219.168987 
L 681.055273 219.168987 
z
" clip-path="url(#pee4163d1f9)" style="fill: #59c3c3"/>
   </g>
   <g id="patch_21">
    <path d="M 771.327273 219.168987 
L 775.430545 219.168987 
L 775.430545 219.168987 
L 771.327273 219.168987 
z
" clip-path="url(#pee4163d1f9)" style="fill: #59c3c3"/>
   </g>
   <g id="patch_22">
    <path d="M 861.599273 219.168987 
L 865.702545 219.168987 
L 865.702545 219.168987 
L 861.599273 219.168987 
z
" clip-path="url(#pee4163d1f9)" style="fill: #59c3c3"/>
   </g>
   <g id="patch_23">
    <path d="M 53.254545 219.168987 
L 57.357818 219.168987 
L 57.357818 101.008876 
L 53.254545 101.008876 
z
" clip-path="url(#pee4163d1f9)" style="fill: #f45b69"/>
   </g>
   <g id="patch_24">
    <path d="M 143.526545 219.168987 
L 147.629818 219.168987 
L 147.629818 124.640898 
L 143.526545 124.640898 
z
" clip-path="url(#pee4163d1f9)" style="fill: #f45b69"/>
   </g>
   <g id="patch_25">
    <path d="M 233.798545 219.168987 
L 237.901818 219.168987 
L 237.901818 77.376853 
L 233.798545 77.376853 
z
" clip-path="url(#pee4163d1f9)" style="fill: #f45b69"/>
   </g>
   <g id="patch_26">
    <path d="M 324.070545 219.168987 
L 328.173818 219.168987 
L 328.173818 124.640898 
L 324.070545 124.640898 
z
" clip-path="url(#pee4163d1f9)" style="fill: #f45b69"/>
   </g>
   <g id="patch_27">
    <path d="M 414.342545 219.168987 
L 418.445818 219.168987 
L 418.445818 195.536965 
L 414.342545 195.536965 
z
" clip-path="url(#pee4163d1f9)" style="fill: #f45b69"/>
   </g>
   <g id="patch_28">
    <path d="M 504.614545 219.168987 
L 508.717818 219.168987 
L 508.717818 195.536965 
L 504.614545 195.536965 
z
" clip-path="url(#pee4163d1f9)" style="fill: #f45b69"/>
   </g>
   <g id="patch_29">
    <path d="M 594.886545 219.168987 
L 598.989818 219.168987 
L 598.989818 219.168987 
L 594.886545 219.168987 
z
" clip-path="url(#pee4163d1f9)" style="fill: #f45b69"/>
   </g>
   <g id="patch_30">
    <path d="M 685.158545 219.168987 
L 689.261818 219.168987 
L 689.261818 219.168987 
L 685.158545 219.168987 
z
" clip-path="url(#pee4163d1f9)" style="fill: #f45b69"/>
   </g>
   <g id="patch_31">
    <path d="M 775.430545 219.168987 
L 779.533818 219.168987 
L 779.533818 195.536965 
L 775.430545 195.536965 
z
" clip-path="url(#pee4163d1f9)" style="fill: #f45b69"/>
   </g>
   <g id="patch_32">
    <path d="M 865.702545 219.168987 
L 869.805818 219.168987 
L 869.805818 124.640898 
L 865.702545 124.640898 
z
" clip-path="url(#pee4163d1f9)" style="fill: #f45b69"/>
   </g>
   <g id="patch_33">
    <path d="M 57.357818 219.168987 
L 61.461091 219.168987 
L 61.461091 53.744831 
L 57.357818 53.744831 
z
" clip-path="url(#pee4163d1f9)" style="fill: #52489c"/>
   </g>
   <g id="patch_34">
    <path d="M 147.629818 219.168987 
L 151.733091 219.168987 
L 151.733091 195.536965 
L 147.629818 195.536965 
z
" clip-path="url(#pee4163d1f9)" style="fill: #52489c"/>
   </g>
   <g id="patch_35">
    <path d="M 237.901818 219.168987 
L 242.005091 219.168987 
L 242.005091 219.168987 
L 237.901818 219.168987 
z
" clip-path="url(#pee4163d1f9)" style="fill: #52489c"/>
   </g>
   <g id="patch_36">
    <path d="M 328.173818 219.168987 
L 332.277091 219.168987 
L 332.277091 171.904943 
L 328.173818 171.904943 
z
" clip-path="url(#pee4163d1f9)" style="fill: #52489c"/>
   </g>
   <g id="patch_37">
    <path d="M 418.445818 219.168987 
L 422.549091 219.168987 
L 422.549091 195.536965 
L 418.445818 195.536965 
z
" clip-path="url(#pee4163d1f9)" style="fill: #52489c"/>
   </g>
   <g id="patch_38">
    <path d="M 508.717818 219.168987 
L 512.821091 219.168987 
L 512.821091 148.27292 
L 508.717818 148.27292 
z
" clip-path="url(#pee4163d1f9)" style="fill: #52489c"/>
   </g>
   <g id="patch_39">
    <path d="M 598.989818 219.168987 
L 603.093091 219.168987 
L 603.093091 195.536965 
L 598.989818 195.536965 
z
" clip-path="url(#pee4163d1f9)" style="fill: #52489c"/>
   </g>
   <g id="patch_40">
    <path d="M 689.261818 219.168987 
L 693.365091 219.168987 
L 693.365091 171.904943 
L 689.261818 171.904943 
z
" clip-path="url(#pee4163d1f9)" style="fill: #52489c"/>
   </g>
   <g id="patch_41">
    <path d="M 779.533818 219.168987 
L 783.637091 219.168987 
L 783.637091 195.536965 
L 779.533818 195.536965 
z
" clip-path="url(#pee4163d1f9)" style="fill: #52489c"/>
   </g>
   <g id="patch_42">
    <path d="M 869.805818 219.168987 
L 873.909091 219.168987 
L 873.909091 171.904943 
L 869.805818 171.904943 
z
" clip-path="url(#pee4163d1f9)" style="fill: #52489c"/>
   </g>
   <g id="patch_43">
    <path d="M 61.461091 219.168987 
L 65.564364 219.168987 
L 65.564364 124.640898 
L 61.461091 124.640898 
z
" clip-path="url(#pee4163d1f9)" style="fill: #9fb7b9"/>
   </g>
   <g id="patch_44">
    <path d="M 151.733091 219.168987 
L 155.836364 219.168987 
L 155.836364 30.112809 
L 151.733091 30.112809 
z
" clip-path="url(#pee4163d1f9)" style="fill: #9fb7b9"/>
   </g>
   <g id="patch_45">
    <path d="M 242.005091 219.168987 
L 246.108364 219.168987 
L 246.108364 171.904943 
L 242.005091 171.904943 
z
" clip-path="url(#pee4163d1f9)" style="fill: #9fb7b9"/>
   </g>
   <g id="patch_46">
    <path d="M 332.277091 219.168987 
L 336.380364 219.168987 
L 336.380364 101.008876 
L 332.277091 101.008876 
z
" clip-path="url(#pee4163d1f9)" style="fill: #9fb7b9"/>
   </g>
   <g id="patch_47">
    <path d="M 422.549091 219.168987 
L 426.652364 219.168987 
L 426.652364 171.904943 
L 422.549091 171.904943 
z
" clip-path="url(#pee4163d1f9)" style="fill: #9fb7b9"/>
   </g>
   <g id="patch_48">
    <path d="M 512.821091 219.168987 
L 516.924364 219.168987 
L 516.924364 148.27292 
L 512.821091 148.27292 
z
" clip-path="url(#pee4163d1f9)" style="fill: #9fb7b9"/>
   </g>
   <g id="patch_49">
    <path d="M 603.093091 219.168987 
L 607.196364 219.168987 
L 607.196364 219.168987 
L 603.093091 219.168987 
z
" clip-path="url(#pee4163d1f9)" style="fill: #9fb7b9"/>
   </g>
   <g id="patch_50">
    <path d="M 693.365091 219.168987 
L 697.468364 219.168987 
L 697.468364 195.536965 
L 693.365091 195.536965 
z
" clip-path="url(#pee4163d1f9)" style="fill: #9fb7b9"/>
   </g>
   <g id="patch_51">
    <path d="M 783.637091 219.168987 
L 787.740364 219.168987 
L 787.740364 171.904943 
L 783.637091 171.904943 
z
" clip-path="url(#pee4163d1f9)" style="fill: #9fb7b9"/>
   </g>
   <g id="patch_52">
    <path d="M 873.909091 219.168987 
L 878.012364 219.168987 
L 878.012364 171.904943 
L 873.909091 171.904943 
z
" clip-path="url(#pee4163d1f9)" style="fill: #9fb7b9"/>
   </g>
   <g id="patch_53">
    <path d="M 65.564364 219.168987 
L 69.667636 219.168987 
L 69.667636 77.376853 
L 65.564364 77.376853 
z
" clip-path="url(#pee4163d1f9)" style="fill: #ebebeb"/>
   </g>
   <g id="patch_54">
    <path d="M 155.836364 219.168987 
L 159.939636 219.168987 
L 159.939636 195.536965 
L 155.836364 195.536965 
z
" clip-path="url(#pee4163d1f9)" style="fill: #ebebeb"/>
   </g>
   <g id="patch_55">
    <path d="M 246.108364 219.168987 
L 250.211636 219.168987 
L 250.211636 195.536965 
L 246.108364 195.536965 
z
" clip-path="url(#pee4163d1f9)" style="fill: #ebebeb"/>
   </g>
   <g id="patch_56">
    <path d="M 336.380364 219.168987 
L 340.483636 219.168987 
L 340.483636 219.168987 
L 336.380364 219.168987 
z
" clip-path="url(#pee4163d1f9)" style="fill: #ebebeb"/>
   </g>
   <g id="patch_57">
    <path d="M 426.652364 219.168987 
L 430.755636 219.168987 
L 430.755636 148.27292 
L 426.652364 148.27292 
z
" clip-path="url(#pee4163d1f9)" style="fill: #ebebeb"/>
   </g>
   <g id="patch_58">
    <path d="M 516.924364 219.168987 
L 521.027636 219.168987 
L 521.027636 195.536965 
L 516.924364 195.536965 
z
" clip-path="url(#pee4163d1f9)" style="fill: #ebebeb"/>
   </g>
   <g id="patch_59">
    <path d="M 607.196364 219.168987 
L 611.299636 219.168987 
L 611.299636 195.536965 
L 607.196364 195.536965 
z
" clip-path="url(#pee4163d1f9)" style="fill: #ebebeb"/>
   </g>
   <g id="patch_60">
    <path d="M 697.468364 219.168987 
L 701.571636 219.168987 
L 701.571636 219.168987 
L 697.468364 219.168987 
z
" clip-path="url(#pee4163d1f9)" style="fill: #ebebeb"/>
   </g>
   <g id="patch_61">
    <path d="M 787.740364 219.168987 
L 791.843636 219.168987 
L 791.843636 195.536965 
L 787.740364 195.536965 
z
" clip-path="url(#pee4163d1f9)" style="fill: #ebebeb"/>
   </g>
   <g id="patch_62">
    <path d="M 878.012364 219.168987 
L 882.115636 219.168987 
L 882.115636 219.168987 
L 878.012364 219.168987 
z
" clip-path="url(#pee4163d1f9)" style="fill: #ebebeb"/>
   </g>
   <g id="patch_63">
    <path d="M 69.667636 219.168987 
L 73.770909 219.168987 
L 73.770909 148.27292 
L 69.667636 148.27292 
z
" clip-path="url(#pee4163d1f9)" style="fill: #4062bb"/>
   </g>
   <g id="patch_64">
    <path d="M 159.939636 219.168987 
L 164.042909 219.168987 
L 164.042909 171.904943 
L 159.939636 171.904943 
z
" clip-path="url(#pee4163d1f9)" style="fill: #4062bb"/>
   </g>
   <g id="patch_65">
    <path d="M 250.211636 219.168987 
L 254.314909 219.168987 
L 254.314909 124.640898 
L 250.211636 124.640898 
z
" clip-path="url(#pee4163d1f9)" style="fill: #4062bb"/>
   </g>
   <g id="patch_66">
    <path d="M 340.483636 219.168987 
L 344.586909 219.168987 
L 344.586909 148.27292 
L 340.483636 148.27292 
z
" clip-path="url(#pee4163d1f9)" style="fill: #4062bb"/>
   </g>
   <g id="patch_67">
    <path d="M 430.755636 219.168987 
L 434.858909 219.168987 
L 434.858909 219.168987 
L 430.755636 219.168987 
z
" clip-path="url(#pee4163d1f9)" style="fill: #4062bb"/>
   </g>
   <g id="patch_68">
    <path d="M 521.027636 219.168987 
L 525.130909 219.168987 
L 525.130909 219.168987 
L 521.027636 219.168987 
z
" clip-path="url(#pee4163d1f9)" style="fill: #4062bb"/>
   </g>
   <g id="patch_69">
    <path d="M 611.299636 219.168987 
L 615.402909 219.168987 
L 615.402909 195.536965 
L 611.299636 195.536965 
z
" clip-path="url(#pee4163d1f9)" style="fill: #4062bb"/>
   </g>
   <g id="patch_70">
    <path d="M 701.571636 219.168987 
L 705.674909 219.168987 
L 705.674909 195.536965 
L 701.571636 195.536965 
z
" clip-path="url(#pee4163d1f9)" style="fill: #4062bb"/>
   </g>
   <g id="patch_71">
    <path d="M 791.843636 219.168987 
L 795.946909 219.168987 
L 795.946909 195.536965 
L 791.843636 195.536965 
z
" clip-path="url(#pee4163d1f9)" style="fill: #4062bb"/>
   </g>
   <g id="patch_72">
    <path d="M 882.115636 219.168987 
L 886.218909 219.168987 
L 886.218909 195.536965 
L 882.115636 195.536965 
z
" clip-path="url(#pee4163d1f9)" style="fill: #4062bb"/>
   </g>
   <g id="patch_73">
    <path d="M 73.770909 219.168987 
L 77.874182 219.168987 
L 77.874182 195.536965 
L 73.770909 195.536965 
z
" clip-path="url(#pee4163d1f9)" style="fill: #46b1c9"/>
   </g>
   <g id="patch_74">
    <path d="M 164.042909 219.168987 
L 168.146182 219.168987 
L 168.146182 124.640898 
L 164.042909 124.640898 
z
" clip-path="url(#pee4163d1f9)" style="fill: #46b1c9"/>
   </g>
   <g id="patch_75">
    <path d="M 254.314909 219.168987 
L 258.418182 219.168987 
L 258.418182 148.27292 
L 254.314909 148.27292 
z
" clip-path="url(#pee4163d1f9)" style="fill: #46b1c9"/>
   </g>
   <g id="patch_76">
    <path d="M 344.586909 219.168987 
L 348.690182 219.168987 
L 348.690182 195.536965 
L 344.586909 195.536965 
z
" clip-path="url(#pee4163d1f9)" style="fill: #46b1c9"/>
   </g>
   <g id="patch_77">
    <path d="M 434.858909 219.168987 
L 438.962182 219.168987 
L 438.962182 195.536965 
L 434.858909 195.536965 
z
" clip-path="url(#pee4163d1f9)" style="fill: #46b1c9"/>
   </g>
   <g id="patch_78">
    <path d="M 525.130909 219.168987 
L 529.234182 219.168987 
L 529.234182 219.168987 
L 525.130909 219.168987 
z
" clip-path="url(#pee4163d1f9)" style="fill: #46b1c9"/>
   </g>
   <g id="patch_79">
    <path d="M 615.402909 219.168987 
L 619.506182 219.168987 
L 619.506182 124.640898 
L 615.402909 124.640898 
z
" clip-path="url(#pee4163d1f9)" style="fill: #46b1c9"/>
   </g>
   <g id="patch_80">
    <path d="M 705.674909 219.168987 
L 709.778182 219.168987 
L 709.778182 148.27292 
L 705.674909 148.27292 
z
" clip-path="url(#pee4163d1f9)" style="fill: #46b1c9"/>
   </g>
   <g id="patch_81">
    <path d="M 795.946909 219.168987 
L 800.050182 219.168987 
L 800.050182 171.904943 
L 795.946909 171.904943 
z
" clip-path="url(#pee4163d1f9)" style="fill: #46b1c9"/>
   </g>
   <g id="patch_82">
    <path d="M 886.218909 219.168987 
L 890.322182 219.168987 
L 890.322182 195.536965 
L 886.218909 195.536965 
z
" clip-path="url(#pee4163d1f9)" style="fill: #46b1c9"/>
   </g>
   <g id="patch_83">
    <path d="M 77.874182 219.168987 
L 81.977455 219.168987 
L 81.977455 77.376853 
L 77.874182 77.376853 
z
" clip-path="url(#pee4163d1f9)" style="fill: #84c0c6"/>
   </g>
   <g id="patch_84">
    <path d="M 168.146182 219.168987 
L 172.249455 219.168987 
L 172.249455 171.904943 
L 168.146182 171.904943 
z
" clip-path="url(#pee4163d1f9)" style="fill: #84c0c6"/>
   </g>
   <g id="patch_85">
    <path d="M 258.418182 219.168987 
L 262.521455 219.168987 
L 262.521455 124.640898 
L 258.418182 124.640898 
z
" clip-path="url(#pee4163d1f9)" style="fill: #84c0c6"/>
   </g>
   <g id="patch_86">
    <path d="M 348.690182 219.168987 
L 352.793455 219.168987 
L 352.793455 195.536965 
L 348.690182 195.536965 
z
" clip-path="url(#pee4163d1f9)" style="fill: #84c0c6"/>
   </g>
   <g id="patch_87">
    <path d="M 438.962182 219.168987 
L 443.065455 219.168987 
L 443.065455 171.904943 
L 438.962182 171.904943 
z
" clip-path="url(#pee4163d1f9)" style="fill: #84c0c6"/>
   </g>
   <g id="patch_88">
    <path d="M 529.234182 219.168987 
L 533.337455 219.168987 
L 533.337455 195.536965 
L 529.234182 195.536965 
z
" clip-path="url(#pee4163d1f9)" style="fill: #84c0c6"/>
   </g>
   <g id="patch_89">
    <path d="M 619.506182 219.168987 
L 623.609455 219.168987 
L 623.609455 171.904943 
L 619.506182 171.904943 
z
" clip-path="url(#pee4163d1f9)" style="fill: #84c0c6"/>
   </g>
   <g id="patch_90">
    <path d="M 709.778182 219.168987 
L 713.881455 219.168987 
L 713.881455 195.536965 
L 709.778182 195.536965 
z
" clip-path="url(#pee4163d1f9)" style="fill: #84c0c6"/>
   </g>
   <g id="patch_91">
    <path d="M 800.050182 219.168987 
L 804.153455 219.168987 
L 804.153455 171.904943 
L 800.050182 171.904943 
z
" clip-path="url(#pee4163d1f9)" style="fill: #84c0c6"/>
   </g>
   <g id="patch_92">
    <path d="M 890.322182 219.168987 
L 894.425455 219.168987 
L 894.425455 195.536965 
L 890.322182 195.536965 
z
" clip-path="url(#pee4163d1f9)" style="fill: #84c0c6"/>
   </g>
   <g id="patch_93">
    <path d="M 81.977455 219.168987 
L 86.080727 219.168987 
L 86.080727 148.27292 
L 81.977455 148.27292 
z
" clip-path="url(#pee4163d1f9)" style="fill: #bcc1ba"/>
   </g>
   <g id="patch_94">
    <path d="M 172.249455 219.168987 
L 176.352727 219.168987 
L 176.352727 148.27292 
L 172.249455 148.27292 
z
" clip-path="url(#pee4163d1f9)" style="fill: #bcc1ba"/>
   </g>
   <g id="patch_95">
    <path d="M 262.521455 219.168987 
L 266.624727 219.168987 
L 266.624727 195.536965 
L 262.521455 195.536965 
z
" clip-path="url(#pee4163d1f9)" style="fill: #bcc1ba"/>
   </g>
   <g id="patch_96">
    <path d="M 352.793455 219.168987 
L 356.896727 219.168987 
L 356.896727 148.27292 
L 352.793455 148.27292 
z
" clip-path="url(#pee4163d1f9)" style="fill: #bcc1ba"/>
   </g>
   <g id="patch_97">
    <path d="M 443.065455 219.168987 
L 447.168727 219.168987 
L 447.168727 101.008876 
L 443.065455 101.008876 
z
" clip-path="url(#pee4163d1f9)" style="fill: #bcc1ba"/>
   </g>
   <g id="patch_98">
    <path d="M 533.337455 219.168987 
L 537.440727 219.168987 
L 537.440727 195.536965 
L 533.337455 195.536965 
z
" clip-path="url(#pee4163d1f9)" style="fill: #bcc1ba"/>
   </g>
   <g id="patch_99">
    <path d="M 623.609455 219.168987 
L 627.712727 219.168987 
L 627.712727 171.904943 
L 623.609455 171.904943 
z
" clip-path="url(#pee4163d1f9)" style="fill: #bcc1ba"/>
   </g>
   <g id="patch_100">
    <path d="M 713.881455 219.168987 
L 717.984727 219.168987 
L 717.984727 171.904943 
L 713.881455 171.904943 
z
" clip-path="url(#pee4163d1f9)" style="fill: #bcc1ba"/>
   </g>
   <g id="patch_101">
    <path d="M 804.153455 219.168987 
L 808.256727 219.168987 
L 808.256727 195.536965 
L 804.153455 195.536965 
z
" clip-path="url(#pee4163d1f9)" style="fill: #bcc1ba"/>
   </g>
   <g id="patch_102">
    <path d="M 894.425455 219.168987 
L 898.528727 219.168987 
L 898.528727 195.536965 
L 894.425455 195.536965 
z
" clip-path="url(#pee4163d1f9)" style="fill: #bcc1ba"/>
   </g>
   <g id="patch_103">
    <path d="M 86.080727 219.168987 
L 90.184 219.168987 
L 90.184 124.640898 
L 86.080727 124.640898 
z
" clip-path="url(#pee4163d1f9)" style="fill: #f2e2d2"/>
   </g>
   <g id="patch_104">
    <path d="M 176.352727 219.168987 
L 180.456 219.168987 
L 180.456 171.904943 
L 176.352727 171.904943 
z
" clip-path="url(#pee4163d1f9)" style="fill: #f2e2d2"/>
   </g>
   <g id="patch_105">
    <path d="M 266.624727 219.168987 
L 270.728 219.168987 
L 270.728 148.27292 
L 266.624727 148.27292 
z
" clip-path="url(#pee4163d1f9)" style="fill: #f2e2d2"/>
   </g>
   <g id="patch_106">
    <path d="M 356.896727 219.168987 
L 361 219.168987 
L 361 195.536965 
L 356.896727 195.536965 
z
" clip-path="url(#pee4163d1f9)" style="fill: #f2e2d2"/>
   </g>
   <g id="patch_107">
    <path d="M 447.168727 219.168987 
L 451.272 219.168987 
L 451.272 148.27292 
L 447.168727 148.27292 
z
" clip-path="url(#pee4163d1f9)" style="fill: #f2e2d2"/>
   </g>
   <g id="patch_108">
    <path d="M 537.440727 219.168987 
L 541.544 219.168987 
L 541.544 171.904943 
L 537.440727 171.904943 
z
" clip-path="url(#pee4163d1f9)" style="fill: #f2e2d2"/>
   </g>
   <g id="patch_109">
    <path d="M 627.712727 219.168987 
L 631.816 219.168987 
L 631.816 219.168987 
L 627.712727 219.168987 
z
" clip-path="url(#pee4163d1f9)" style="fill: #f2e2d2"/>
   </g>
   <g id="patch_110">
    <path d="M 717.984727 219.168987 
L 722.088 219.168987 
L 722.088 171.904943 
L 717.984727 171.904943 
z
" clip-path="url(#pee4163d1f9)" style="fill: #f2e2d2"/>
   </g>
   <g id="patch_111">
    <path d="M 808.256727 219.168987 
L 812.36 219.168987 
L 812.36 195.536965 
L 808.256727 195.536965 
z
" clip-path="url(#pee4163d1f9)" style="fill: #f2e2d2"/>
   </g>
   <g id="patch_112">
    <path d="M 898.528727 219.168987 
L 902.632 219.168987 
L 902.632 219.168987 
L 898.528727 219.168987 
z
" clip-path="url(#pee4163d1f9)" style="fill: #f2e2d2"/>
   </g>
   <g id="patch_113">
    <path d="M 22.48 219.168987 
L 22.48 20.66 
" style="fill: none; stroke: #000000; stroke-width: 0.8; stroke-linejoin: miter; stroke-linecap: square"/>
   </g>
   <g id="patch_114">
    <path d="M 22.48 219.168987 
L 925.2 219.168987 
" style="fill: none; stroke: #000000; stroke-width: 0.8; stroke-linejoin: miter; stroke-linecap: square"/>
   </g>
   <g id="legend_1">
    <g id="patch_115">
     <path d="M 908.232 149.148301 
L 952.127 149.148301 
Q 953.727 149.148301 953.727 147.548301 
L 953.727 16.334551 
Q 953.727 14.734551 952.127 14.734551 
L 908.232 14.734551 
Q 906.632 14.734551 906.632 16.334551 
L 906.632 147.548301 
Q 906.632 149.148301 908.232 149.148301 
z
" style="fill: #ffffff; opacity: 0.8; stroke: #cccccc; stroke-linejoin: miter"/>
    </g>
    <g id="patch_116">
     <path d="M 909.832 24.013301 
L 925.832 24.013301 
L 925.832 18.413301 
L 909.832 18.413301 
z
" style="fill: #37539c"/>
    </g>
    <g id="text_21">
     <!-- 2013 -->
     <g style="fill: #37539c" transform="translate(932.232 24.013301) scale(0.08 -0.08)">
      <use xlink:href="#OpenSans-Bold-32"/>
      <use xlink:href="#OpenSans-Bold-30" x="57.177734"/>
      <use xlink:href="#OpenSans-Bold-31" x="114.355469"/>
      <use xlink:href="#OpenSans-Bold-33" x="171.533203"/>
     </g>
    </g>
    <g id="patch_117">
     <path d="M 909.832 36.014551 
L 925.832 36.014551 
L 925.832 30.414551 
L 909.832 30.414551 
z
" style="fill: #59c3c3"/>
    </g>
    <g id="text_22">
     <!-- 2014 -->
     <g style="fill: #37539c" transform="translate(932.232 36.014551) scale(0.08 -0.08)">
      <use xlink:href="#OpenSans-Bold-32"/>
      <use xlink:href="#OpenSans-Bold-30" x="57.177734"/>
      <use xlink:href="#OpenSans-Bold-31" x="114.355469"/>
      <use xlink:href="#OpenSans-Bold-34" x="171.533203"/>
     </g>
    </g>
    <g id="patch_118">
     <path d="M 909.832 48.015801 
L 925.832 48.015801 
L 925.832 42.415801 
L 909.832 42.415801 
z
" style="fill: #f45b69"/>
    </g>
    <g id="text_23">
     <!-- 2015 -->
     <g style="fill: #37539c" transform="translate(932.232 48.015801) scale(0.08 -0.08)">
      <use xlink:href="#OpenSans-Bold-32"/>
      <use xlink:href="#OpenSans-Bold-30" x="57.177734"/>
      <use xlink:href="#OpenSans-Bold-31" x="114.355469"/>
      <use xlink:href="#OpenSans-Bold-35" x="171.533203"/>
     </g>
    </g>
    <g id="patch_119">
     <path d="M 909.832 60.017051 
L 925.832 60.017051 
L 925.832 54.417051 
L 909.832 54.417051 
z
" style="fill: #52489c"/>
    </g>
    <g id="text_24">
     <!-- 2016 -->
     <g style="fill: #37539c" transform="translate(932.232 60.017051) scale(0.08 -0.08)">
      <use xlink:href="#OpenSans-Bold-32"/>
      <use xlink:href="#OpenSans-Bold-30" x="57.177734"/>
      <use xlink:href="#OpenSans-Bold-31" x="114.355469"/>
      <use xlink:href="#OpenSans-Bold-36" x="171.533203"/>
     </g>
    </g>
    <g id="patch_120">
     <path d="M 909.832 72.018301 
L 925.832 72.018301 
L 925.832 66.418301 
L 909.832 66.418301 
z
" style="fill: #9fb7b9"/>
    </g>
    <g id="text_25">
     <!-- 2017 -->
     <g style="fill: #37539c" transform="translate(932.232 72.018301) scale(0.08 -0.08)">
      <use xlink:href="#OpenSans-Bold-32"/>
      <use xlink:href="#OpenSans-Bold-30" x="57.177734"/>
      <use xlink:href="#OpenSans-Bold-31" x="114.355469"/>
      <use xlink:href="#OpenSans-Bold-37" x="171.533203"/>
     </g>
    </g>
    <g id="patch_121">
     <path d="M 909.832 84.019551 
L 925.832 84.019551 
L 925.832 78.419551 
L 909.832 78.419551 
z
" style="fill: #ebebeb"/>
    </g>
    <g id="text_26">
     <!-- 2018 -->
     <g style="fill: #37539c" transform="translate(932.232 84.019551) scale(0.08 -0.08)">
      <use xlink:href="#OpenSans-Bold-32"/>
      <use xlink:href="#OpenSans-Bold-30" x="57.177734"/>
      <use xlink:href="#OpenSans-Bold-31" x="114.355469"/>
      <use xlink:href="#OpenSans-Bold-38" x="171.533203"/>
     </g>
    </g>
    <g id="patch_122">
     <path d="M 909.832 96.020801 
L 925.832 96.020801 
L 925.832 90.420801 
L 909.832 90.420801 
z
" style="fill: #4062bb"/>
    </g>
    <g id="text_27">
     <!-- 2019 -->
     <g style="fill: #37539c" transform="translate(932.232 96.020801) scale(0.08 -0.08)">
      <defs>
       <path id="OpenSans-Bold-39" d="M 3431 2619 
Q 3431 2225 3373 1837 
Q 3316 1450 3172 1108 
Q 3028 766 2768 502 
Q 2509 238 2109 87 
Q 1709 -63 1141 -63 
Q 1006 -63 825 -52 
Q 644 -41 525 -19 
L 525 756 
Q 650 725 790 708 
Q 931 691 1075 691 
Q 1647 691 1958 872 
Q 2269 1053 2395 1375 
Q 2522 1697 2541 2119 
L 2503 2119 
Q 2413 1969 2289 1848 
Q 2166 1728 1975 1658 
Q 1784 1588 1491 1588 
Q 1100 1588 811 1758 
Q 522 1928 364 2251 
Q 206 2575 206 3034 
Q 206 3531 395 3886 
Q 584 4241 934 4431 
Q 1284 4622 1759 4622 
Q 2109 4622 2412 4501 
Q 2716 4381 2945 4134 
Q 3175 3888 3303 3509 
Q 3431 3131 3431 2619 
z
M 1778 3847 
Q 1497 3847 1319 3653 
Q 1141 3459 1141 3047 
Q 1141 2716 1294 2522 
Q 1447 2328 1759 2328 
Q 1975 2328 2134 2423 
Q 2294 2519 2383 2664 
Q 2472 2809 2472 2963 
Q 2472 3122 2428 3278 
Q 2384 3434 2296 3562 
Q 2209 3691 2079 3769 
Q 1950 3847 1778 3847 
z
" transform="scale(0.015625)"/>
      </defs>
      <use xlink:href="#OpenSans-Bold-32"/>
      <use xlink:href="#OpenSans-Bold-30" x="57.177734"/>
      <use xlink:href="#OpenSans-Bold-31" x="114.355469"/>
      <use xlink:href="#OpenSans-Bold-39" x="171.533203"/>
     </g>
    </g>
    <g id="patch_123">
     <path d="M 909.832 108.022051 
L 925.832 108.022051 
L 925.832 102.422051 
L 909.832 102.422051 
z
" style="fill: #46b1c9"/>
    </g>
    <g id="text_28">
     <!-- 2020 -->
     <g style="fill: #37539c" transform="translate(932.232 108.022051) scale(0.08 -0.08)">
      <use xlink:href="#OpenSans-Bold-32"/>
      <use xlink:href="#OpenSans-Bold-30" x="57.177734"/>
      <use xlink:href="#OpenSans-Bold-32" x="114.355469"/>
      <use xlink:href="#OpenSans-Bold-30" x="171.533203"/>
     </g>
    </g>
    <g id="patch_124">
     <path d="M 909.832 120.023301 
L 925.832 120.023301 
L 925.832 114.423301 
L 909.832 114.423301 
z
" style="fill: #84c0c6"/>
    </g>
    <g id="text_29">
     <!-- 2021 -->
     <g style="fill: #37539c" transform="translate(932.232 120.023301) scale(0.08 -0.08)">
      <use xlink:href="#OpenSans-Bold-32"/>
      <use xlink:href="#OpenSans-Bold-30" x="57.177734"/>
      <use xlink:href="#OpenSans-Bold-32" x="114.355469"/>
      <use xlink:href="#OpenSans-Bold-31" x="171.533203"/>
     </g>
    </g>
    <g id="patch_125">
     <path d="M 909.832 132.024551 
L 925.832 132.024551 
L 925.832 126.424551 
L 909.832 126.424551 
z
" style="fill: #bcc1ba"/>
    </g>
    <g id="text_30">
     <!-- 2022 -->
     <g style="fill: #37539c" transform="translate(932.232 132.024551) scale(0.08 -0.08)">
      <use xlink:href="#OpenSans-Bold-32"/>
      <use xlink:href="#OpenSans-Bold-30" x="57.177734"/>
      <use xlink:href="#OpenSans-Bold-32" x="114.355469"/>
      <use xlink:href="#OpenSans-Bold-32" x="171.533203"/>
     </g>
    </g>
    <g id="patch_126">
     <path d="M 909.832 144.025801 
L 925.832 144.025801 
L 925.832 138.425801 
L 909.832 138.425801 
z
" style="fill: #f2e2d2"/>
    </g>
    <g id="text_31">
     <!-- 2023 -->
     <g style="fill: #37539c" transform="translate(932.232 144.025801) scale(0.08 -0.08)">
      <use xlink:href="#OpenSans-Bold-32"/>
      <use xlink:href="#OpenSans-Bold-30" x="57.177734"/>
      <use xlink:href="#OpenSans-Bold-32" x="114.355469"/>
      <use xlink:href="#OpenSans-Bold-33" x="171.533203"/>
     </g>
    </g>
   </g>
  </g>
 </g>
 <defs>
  <clipPath id="pee4163d1f9">
   <rect x="22.48" y="20.66" width="902.72" height="198.508987"/>
  </clipPath>
 </defs>
</svg>
