<?xml version="1.0" encoding="utf-8" standalone="no"?>
<!DOCTYPE svg PUBLIC "-//W3C//DTD SVG 1.1//EN"
  "http://www.w3.org/Graphics/SVG/1.1/DTD/svg11.dtd">
<svg xmlns:xlink="http://www.w3.org/1999/xlink" width="1152pt" height="360pt" viewBox="0 0 1152 360" xmlns="http://www.w3.org/2000/svg" version="1.1">
 <metadata>
  <rdf:RDF xmlns:dc="http://purl.org/dc/elements/1.1/" xmlns:cc="http://creativecommons.org/ns#" xmlns:rdf="http://www.w3.org/1999/02/22-rdf-syntax-ns#">
   <cc:Work>
    <dc:type rdf:resource="http://purl.org/dc/dcmitype/StillImage"/>
    <dc:date>2024-03-13T18:40:40.698501</dc:date>
    <dc:format>image/svg+xml</dc:format>
    <dc:creator>
     <cc:Agent>
      <dc:title>Matplotlib v3.7.1, https://matplotlib.org/</dc:title>
     </cc:Agent>
    </dc:creator>
   </cc:Work>
  </rdf:RDF>
 </metadata>
 <defs>
  <style type="text/css">*{stroke-linejoin: round; stroke-linecap: butt}</style>
 </defs>
 <g id="figure_1">
  <g id="patch_1">
   <path d="M 0 360 
L 1152 360 
L 1152 0 
L 0 0 
z
" style="fill: #ffffff"/>
  </g>
  <g id="axes_1">
   <g id="patch_2">
    <path d="M 40.75 304.827903 
L 1141.2 304.827903 
L 1141.2 17.528136 
L 40.75 17.528136 
z
" style="fill: #ffffff"/>
   </g>
   <g id="matplotlib.axis_1">
    <g id="xtick_1">
     <g id="line2d_1">
      <defs>
       <path id="m96fca46588" d="M 0 0 
L 0 3.5 
" style="stroke: #37539c; stroke-width: 0.8"/>
      </defs>
      <g>
       <use xlink:href="#m96fca46588" x="104.050221" y="304.827903" style="fill: #37539c; stroke: #37539c; stroke-width: 0.8"/>
      </g>
     </g>
     <g id="text_1">
      <!-- 2013 -->
      <g style="fill: #37539c" transform="translate(97.801717 333.371458) rotate(-45) scale(0.1 -0.1)">
       <defs>
        <path id="OpenSans-Bold-32" d="M 3450 0 
L 256 0 
L 256 672 
L 1403 1831 
Q 1750 2188 1961 2427 
Q 2172 2666 2267 2862 
Q 2363 3059 2363 3284 
Q 2363 3556 2211 3692 
Q 2059 3828 1806 3828 
Q 1541 3828 1291 3706 
Q 1041 3584 769 3359 
L 244 3981 
Q 441 4150 661 4300 
Q 881 4450 1173 4542 
Q 1466 4634 1875 4634 
Q 2325 4634 2648 4471 
Q 2972 4309 3147 4029 
Q 3322 3750 3322 3397 
Q 3322 3019 3172 2706 
Q 3022 2394 2736 2087 
Q 2450 1781 2047 1409 
L 1459 856 
L 1459 813 
L 3450 813 
L 3450 0 
z
" transform="scale(0.015625)"/>
        <path id="OpenSans-Bold-30" d="M 3425 2284 
Q 3425 1731 3339 1297 
Q 3253 863 3064 559 
Q 2875 256 2569 96 
Q 2263 -63 1825 -63 
Q 1275 -63 922 217 
Q 569 497 400 1023 
Q 231 1550 231 2284 
Q 231 3025 386 3551 
Q 541 4078 891 4359 
Q 1241 4641 1825 4641 
Q 2372 4641 2726 4361 
Q 3081 4081 3253 3554 
Q 3425 3028 3425 2284 
z
M 1191 2284 
Q 1191 1763 1248 1414 
Q 1306 1066 1443 891 
Q 1581 716 1825 716 
Q 2066 716 2205 889 
Q 2344 1063 2403 1411 
Q 2463 1759 2463 2284 
Q 2463 2806 2403 3156 
Q 2344 3506 2205 3682 
Q 2066 3859 1825 3859 
Q 1581 3859 1443 3682 
Q 1306 3506 1248 3156 
Q 1191 2806 1191 2284 
z
" transform="scale(0.015625)"/>
        <path id="OpenSans-Bold-31" d="M 2644 0 
L 1678 0 
L 1678 2644 
Q 1678 2753 1681 2914 
Q 1684 3075 1690 3245 
Q 1697 3416 1703 3553 
Q 1669 3513 1564 3414 
Q 1459 3316 1369 3238 
L 844 2816 
L 378 3397 
L 1850 4569 
L 2644 4569 
L 2644 0 
z
" transform="scale(0.015625)"/>
        <path id="OpenSans-Bold-33" d="M 3272 3547 
Q 3272 3231 3140 3000 
Q 3009 2769 2786 2622 
Q 2563 2475 2284 2406 
L 2284 2388 
Q 2834 2319 3120 2050 
Q 3406 1781 3406 1331 
Q 3406 931 3211 615 
Q 3016 300 2609 118 
Q 2203 -63 1563 -63 
Q 1184 -63 857 -2 
Q 531 59 244 184 
L 244 1006 
Q 538 856 859 779 
Q 1181 703 1459 703 
Q 1978 703 2186 883 
Q 2394 1063 2394 1388 
Q 2394 1578 2297 1709 
Q 2200 1841 1961 1909 
Q 1722 1978 1294 1978 
L 947 1978 
L 947 2719 
L 1300 2719 
Q 1722 2719 1942 2798 
Q 2163 2878 2242 3017 
Q 2322 3156 2322 3334 
Q 2322 3578 2172 3715 
Q 2022 3853 1672 3853 
Q 1453 3853 1273 3798 
Q 1094 3744 950 3667 
Q 806 3591 697 3519 
L 250 4184 
Q 519 4378 880 4506 
Q 1241 4634 1741 4634 
Q 2447 4634 2859 4350 
Q 3272 4066 3272 3547 
z
" transform="scale(0.015625)"/>
       </defs>
       <use xlink:href="#OpenSans-Bold-32"/>
       <use xlink:href="#OpenSans-Bold-30" x="57.177734"/>
       <use xlink:href="#OpenSans-Bold-31" x="114.355469"/>
       <use xlink:href="#OpenSans-Bold-33" x="171.533203"/>
      </g>
     </g>
    </g>
    <g id="xtick_2">
     <g id="line2d_2">
      <g>
       <use xlink:href="#m96fca46588" x="201.435177" y="304.827903" style="fill: #37539c; stroke: #37539c; stroke-width: 0.8"/>
      </g>
     </g>
     <g id="text_2">
      <!-- 2014 -->
      <g style="fill: #37539c" transform="translate(195.186673 333.371458) rotate(-45) scale(0.1 -0.1)">
       <defs>
        <path id="OpenSans-Bold-34" d="M 3553 947 
L 3003 947 
L 3003 0 
L 2059 0 
L 2059 947 
L 109 947 
L 109 1619 
L 2113 4569 
L 3003 4569 
L 3003 1697 
L 3553 1697 
L 3553 947 
z
M 2059 1697 
L 2059 2472 
Q 2059 2581 2064 2731 
Q 2069 2881 2075 3031 
Q 2081 3181 2089 3298 
Q 2097 3416 2100 3463 
L 2075 3463 
Q 2016 3334 1950 3214 
Q 1884 3094 1797 2963 
L 959 1697 
L 2059 1697 
z
" transform="scale(0.015625)"/>
       </defs>
       <use xlink:href="#OpenSans-Bold-32"/>
       <use xlink:href="#OpenSans-Bold-30" x="57.177734"/>
       <use xlink:href="#OpenSans-Bold-31" x="114.355469"/>
       <use xlink:href="#OpenSans-Bold-34" x="171.533203"/>
      </g>
     </g>
    </g>
    <g id="xtick_3">
     <g id="line2d_3">
      <g>
       <use xlink:href="#m96fca46588" x="298.820133" y="304.827903" style="fill: #37539c; stroke: #37539c; stroke-width: 0.8"/>
      </g>
     </g>
     <g id="text_3">
      <!-- 2015 -->
      <g style="fill: #37539c" transform="translate(292.571629 333.371458) rotate(-45) scale(0.1 -0.1)">
       <defs>
        <path id="OpenSans-Bold-35" d="M 1919 2919 
Q 2338 2919 2664 2759 
Q 2991 2600 3178 2290 
Q 3366 1981 3366 1528 
Q 3366 1034 3161 676 
Q 2956 319 2551 128 
Q 2147 -63 1544 -63 
Q 1184 -63 867 -2 
Q 550 59 313 184 
L 313 1019 
Q 550 894 883 808 
Q 1216 722 1509 722 
Q 1797 722 1994 798 
Q 2191 875 2292 1036 
Q 2394 1197 2394 1447 
Q 2394 1781 2169 1959 
Q 1944 2138 1478 2138 
Q 1300 2138 1108 2103 
Q 916 2069 788 2034 
L 403 2241 
L 575 4569 
L 3053 4569 
L 3053 3750 
L 1422 3750 
L 1338 2853 
Q 1444 2875 1569 2897 
Q 1694 2919 1919 2919 
z
" transform="scale(0.015625)"/>
       </defs>
       <use xlink:href="#OpenSans-Bold-32"/>
       <use xlink:href="#OpenSans-Bold-30" x="57.177734"/>
       <use xlink:href="#OpenSans-Bold-31" x="114.355469"/>
       <use xlink:href="#OpenSans-Bold-35" x="171.533203"/>
      </g>
     </g>
    </g>
    <g id="xtick_4">
     <g id="line2d_4">
      <g>
       <use xlink:href="#m96fca46588" x="396.205088" y="304.827903" style="fill: #37539c; stroke: #37539c; stroke-width: 0.8"/>
      </g>
     </g>
     <g id="text_4">
      <!-- 2016 -->
      <g style="fill: #37539c" transform="translate(389.956585 333.371458) rotate(-45) scale(0.1 -0.1)">
       <defs>
        <path id="OpenSans-Bold-36" d="M 225 1941 
Q 225 2334 283 2720 
Q 341 3106 484 3448 
Q 628 3791 887 4055 
Q 1147 4319 1547 4470 
Q 1947 4622 2516 4622 
Q 2650 4622 2829 4611 
Q 3009 4600 3128 4575 
L 3128 3803 
Q 3003 3831 2861 3848 
Q 2719 3866 2578 3866 
Q 2009 3866 1698 3684 
Q 1388 3503 1261 3183 
Q 1134 2863 1113 2438 
L 1153 2438 
Q 1241 2591 1373 2709 
Q 1506 2828 1697 2898 
Q 1888 2969 2144 2969 
Q 2544 2969 2837 2798 
Q 3131 2628 3290 2306 
Q 3450 1984 3450 1522 
Q 3450 1028 3259 672 
Q 3069 316 2720 126 
Q 2372 -63 1894 -63 
Q 1544 -63 1241 57 
Q 938 178 709 425 
Q 481 672 353 1048 
Q 225 1425 225 1941 
z
M 1875 709 
Q 2159 709 2337 903 
Q 2516 1097 2516 1509 
Q 2516 1844 2361 2036 
Q 2206 2228 1894 2228 
Q 1681 2228 1520 2133 
Q 1359 2038 1271 1892 
Q 1184 1747 1184 1594 
Q 1184 1434 1228 1278 
Q 1272 1122 1359 994 
Q 1447 866 1576 787 
Q 1706 709 1875 709 
z
" transform="scale(0.015625)"/>
       </defs>
       <use xlink:href="#OpenSans-Bold-32"/>
       <use xlink:href="#OpenSans-Bold-30" x="57.177734"/>
       <use xlink:href="#OpenSans-Bold-31" x="114.355469"/>
       <use xlink:href="#OpenSans-Bold-36" x="171.533203"/>
      </g>
     </g>
    </g>
    <g id="xtick_5">
     <g id="line2d_5">
      <g>
       <use xlink:href="#m96fca46588" x="493.590044" y="304.827903" style="fill: #37539c; stroke: #37539c; stroke-width: 0.8"/>
      </g>
     </g>
     <g id="text_5">
      <!-- 2017 -->
      <g style="fill: #37539c" transform="translate(487.34154 333.371458) rotate(-45) scale(0.1 -0.1)">
       <defs>
        <path id="OpenSans-Bold-37" d="M 709 0 
L 2425 3756 
L 172 3756 
L 172 4569 
L 3450 4569 
L 3450 3963 
L 1722 0 
L 709 0 
z
" transform="scale(0.015625)"/>
       </defs>
       <use xlink:href="#OpenSans-Bold-32"/>
       <use xlink:href="#OpenSans-Bold-30" x="57.177734"/>
       <use xlink:href="#OpenSans-Bold-31" x="114.355469"/>
       <use xlink:href="#OpenSans-Bold-37" x="171.533203"/>
      </g>
     </g>
    </g>
    <g id="xtick_6">
     <g id="line2d_6">
      <g>
       <use xlink:href="#m96fca46588" x="590.975" y="304.827903" style="fill: #37539c; stroke: #37539c; stroke-width: 0.8"/>
      </g>
     </g>
     <g id="text_6">
      <!-- 2018 -->
      <g style="fill: #37539c" transform="translate(584.726496 333.371458) rotate(-45) scale(0.1 -0.1)">
       <defs>
        <path id="OpenSans-Bold-38" d="M 1831 4628 
Q 2225 4628 2558 4506 
Q 2891 4384 3091 4139 
Q 3291 3894 3291 3525 
Q 3291 3250 3183 3044 
Q 3075 2838 2890 2683 
Q 2706 2528 2472 2413 
Q 2716 2284 2934 2114 
Q 3153 1944 3292 1716 
Q 3431 1488 3431 1184 
Q 3431 803 3228 523 
Q 3025 244 2665 90 
Q 2306 -63 1831 -63 
Q 1319 -63 959 84 
Q 600 231 412 504 
Q 225 778 225 1159 
Q 225 1472 342 1703 
Q 459 1934 659 2101 
Q 859 2269 1100 2388 
Q 897 2516 730 2678 
Q 563 2841 464 3050 
Q 366 3259 366 3531 
Q 366 3894 570 4137 
Q 775 4381 1109 4504 
Q 1444 4628 1831 4628 
z
M 1119 1216 
Q 1119 969 1295 808 
Q 1472 647 1819 647 
Q 2178 647 2356 801 
Q 2534 956 2534 1209 
Q 2534 1384 2432 1515 
Q 2331 1647 2178 1751 
Q 2025 1856 1869 1947 
L 1784 1991 
Q 1584 1900 1436 1787 
Q 1288 1675 1203 1534 
Q 1119 1394 1119 1216 
z
M 1825 3922 
Q 1588 3922 1431 3800 
Q 1275 3678 1275 3456 
Q 1275 3300 1351 3183 
Q 1428 3066 1554 2978 
Q 1681 2891 1831 2816 
Q 1975 2884 2100 2968 
Q 2225 3053 2303 3172 
Q 2381 3291 2381 3456 
Q 2381 3678 2223 3800 
Q 2066 3922 1825 3922 
z
" transform="scale(0.015625)"/>
       </defs>
       <use xlink:href="#OpenSans-Bold-32"/>
       <use xlink:href="#OpenSans-Bold-30" x="57.177734"/>
       <use xlink:href="#OpenSans-Bold-31" x="114.355469"/>
       <use xlink:href="#OpenSans-Bold-38" x="171.533203"/>
      </g>
     </g>
    </g>
    <g id="xtick_7">
     <g id="line2d_7">
      <g>
       <use xlink:href="#m96fca46588" x="688.359956" y="304.827903" style="fill: #37539c; stroke: #37539c; stroke-width: 0.8"/>
      </g>
     </g>
     <g id="text_7">
      <!-- 2019 -->
      <g style="fill: #37539c" transform="translate(682.111452 333.371458) rotate(-45) scale(0.1 -0.1)">
       <defs>
        <path id="OpenSans-Bold-39" d="M 3431 2619 
Q 3431 2225 3373 1837 
Q 3316 1450 3172 1108 
Q 3028 766 2768 502 
Q 2509 238 2109 87 
Q 1709 -63 1141 -63 
Q 1006 -63 825 -52 
Q 644 -41 525 -19 
L 525 756 
Q 650 725 790 708 
Q 931 691 1075 691 
Q 1647 691 1958 872 
Q 2269 1053 2395 1375 
Q 2522 1697 2541 2119 
L 2503 2119 
Q 2413 1969 2289 1848 
Q 2166 1728 1975 1658 
Q 1784 1588 1491 1588 
Q 1100 1588 811 1758 
Q 522 1928 364 2251 
Q 206 2575 206 3034 
Q 206 3531 395 3886 
Q 584 4241 934 4431 
Q 1284 4622 1759 4622 
Q 2109 4622 2412 4501 
Q 2716 4381 2945 4134 
Q 3175 3888 3303 3509 
Q 3431 3131 3431 2619 
z
M 1778 3847 
Q 1497 3847 1319 3653 
Q 1141 3459 1141 3047 
Q 1141 2716 1294 2522 
Q 1447 2328 1759 2328 
Q 1975 2328 2134 2423 
Q 2294 2519 2383 2664 
Q 2472 2809 2472 2963 
Q 2472 3122 2428 3278 
Q 2384 3434 2296 3562 
Q 2209 3691 2079 3769 
Q 1950 3847 1778 3847 
z
" transform="scale(0.015625)"/>
       </defs>
       <use xlink:href="#OpenSans-Bold-32"/>
       <use xlink:href="#OpenSans-Bold-30" x="57.177734"/>
       <use xlink:href="#OpenSans-Bold-31" x="114.355469"/>
       <use xlink:href="#OpenSans-Bold-39" x="171.533203"/>
      </g>
     </g>
    </g>
    <g id="xtick_8">
     <g id="line2d_8">
      <g>
       <use xlink:href="#m96fca46588" x="785.744912" y="304.827903" style="fill: #37539c; stroke: #37539c; stroke-width: 0.8"/>
      </g>
     </g>
     <g id="text_8">
      <!-- 2020 -->
      <g style="fill: #37539c" transform="translate(779.496408 333.371458) rotate(-45) scale(0.1 -0.1)">
       <use xlink:href="#OpenSans-Bold-32"/>
       <use xlink:href="#OpenSans-Bold-30" x="57.177734"/>
       <use xlink:href="#OpenSans-Bold-32" x="114.355469"/>
       <use xlink:href="#OpenSans-Bold-30" x="171.533203"/>
      </g>
     </g>
    </g>
    <g id="xtick_9">
     <g id="line2d_9">
      <g>
       <use xlink:href="#m96fca46588" x="883.129867" y="304.827903" style="fill: #37539c; stroke: #37539c; stroke-width: 0.8"/>
      </g>
     </g>
     <g id="text_9">
      <!-- 2021 -->
      <g style="fill: #37539c" transform="translate(876.881364 333.371458) rotate(-45) scale(0.1 -0.1)">
       <use xlink:href="#OpenSans-Bold-32"/>
       <use xlink:href="#OpenSans-Bold-30" x="57.177734"/>
       <use xlink:href="#OpenSans-Bold-32" x="114.355469"/>
       <use xlink:href="#OpenSans-Bold-31" x="171.533203"/>
      </g>
     </g>
    </g>
    <g id="xtick_10">
     <g id="line2d_10">
      <g>
       <use xlink:href="#m96fca46588" x="980.514823" y="304.827903" style="fill: #37539c; stroke: #37539c; stroke-width: 0.8"/>
      </g>
     </g>
     <g id="text_10">
      <!-- 2022 -->
      <g style="fill: #37539c" transform="translate(974.266319 333.371458) rotate(-45) scale(0.1 -0.1)">
       <use xlink:href="#OpenSans-Bold-32"/>
       <use xlink:href="#OpenSans-Bold-30" x="57.177734"/>
       <use xlink:href="#OpenSans-Bold-32" x="114.355469"/>
       <use xlink:href="#OpenSans-Bold-32" x="171.533203"/>
      </g>
     </g>
    </g>
    <g id="xtick_11">
     <g id="line2d_11">
      <g>
       <use xlink:href="#m96fca46588" x="1077.899779" y="304.827903" style="fill: #37539c; stroke: #37539c; stroke-width: 0.8"/>
      </g>
     </g>
     <g id="text_11">
      <!-- 2023 -->
      <g style="fill: #37539c" transform="translate(1071.651275 333.371458) rotate(-45) scale(0.1 -0.1)">
       <use xlink:href="#OpenSans-Bold-32"/>
       <use xlink:href="#OpenSans-Bold-30" x="57.177734"/>
       <use xlink:href="#OpenSans-Bold-32" x="114.355469"/>
       <use xlink:href="#OpenSans-Bold-33" x="171.533203"/>
      </g>
     </g>
    </g>
    <g id="text_12">
     <!-- Año -->
     <g style="fill: #37539c" transform="translate(581.142969 346.669161) scale(0.1 -0.1)">
      <defs>
       <path id="OpenSans-Bold-41" d="M 3372 0 
L 3041 1088 
L 1375 1088 
L 1044 0 
L 0 0 
L 1613 4588 
L 2797 4588 
L 4416 0 
L 3372 0 
z
M 2809 1900 
L 2478 2963 
Q 2447 3069 2395 3236 
Q 2344 3403 2292 3576 
Q 2241 3750 2209 3878 
Q 2178 3750 2123 3561 
Q 2069 3372 2019 3203 
Q 1969 3034 1947 2963 
L 1619 1900 
L 2809 1900 
z
" transform="scale(0.015625)"/>
       <path id="OpenSans-Bold-f1" d="M 2484 3559 
Q 3044 3559 3384 3254 
Q 3725 2950 3725 2278 
L 3725 0 
L 2772 0 
L 2772 2041 
Q 2772 2416 2636 2606 
Q 2500 2797 2209 2797 
Q 1772 2797 1612 2500 
Q 1453 2203 1453 1644 
L 1453 0 
L 500 0 
L 500 3494 
L 1228 3494 
L 1356 3047 
L 1409 3047 
Q 1522 3228 1689 3340 
Q 1856 3453 2061 3506 
Q 2266 3559 2484 3559 
z
M 808 3872 
Q 827 4122 899 4305 
Q 971 4488 1086 4605 
Q 1202 4722 1347 4780 
Q 1493 4838 1658 4838 
Q 1786 4838 1909 4789 
Q 2033 4741 2153 4675 
Q 2274 4609 2391 4561 
Q 2508 4513 2621 4513 
Q 2715 4513 2804 4595 
Q 2893 4678 2933 4844 
L 3399 4844 
Q 3361 4350 3117 4114 
Q 2874 3878 2549 3878 
Q 2421 3878 2297 3928 
Q 2174 3978 2053 4042 
Q 1933 4106 1817 4156 
Q 1702 4206 1590 4206 
Q 1493 4206 1404 4123 
Q 1315 4041 1274 3872 
L 808 3872 
z
" transform="scale(0.015625)"/>
       <path id="OpenSans-Bold-6f" d="M 3675 1753 
Q 3675 1316 3558 978 
Q 3441 641 3217 408 
Q 2994 175 2680 56 
Q 2366 -63 1972 -63 
Q 1603 -63 1295 56 
Q 988 175 761 408 
Q 534 641 411 978 
Q 288 1316 288 1753 
Q 288 2334 494 2737 
Q 700 3141 1081 3350 
Q 1463 3559 1991 3559 
Q 2481 3559 2861 3350 
Q 3241 3141 3458 2737 
Q 3675 2334 3675 1753 
z
M 1259 1753 
Q 1259 1409 1334 1175 
Q 1409 941 1568 822 
Q 1728 703 1984 703 
Q 2238 703 2395 822 
Q 2553 941 2626 1175 
Q 2700 1409 2700 1753 
Q 2700 2100 2626 2329 
Q 2553 2559 2393 2675 
Q 2234 2791 1978 2791 
Q 1600 2791 1429 2531 
Q 1259 2272 1259 1753 
z
" transform="scale(0.015625)"/>
      </defs>
      <use xlink:href="#OpenSans-Bold-41"/>
      <use xlink:href="#OpenSans-Bold-f1" x="68.994141"/>
      <use xlink:href="#OpenSans-Bold-6f" x="134.716797"/>
     </g>
    </g>
   </g>
   <g id="matplotlib.axis_2">
    <g id="ytick_1">
     <g id="line2d_12">
      <path d="M 40.75 304.827903 
L 1141.2 304.827903 
" clip-path="url(#p7a07953541)" style="fill: none; stroke-dasharray: 2.96,1.28; stroke-dashoffset: 0; stroke: #b0b0b0; stroke-width: 0.8"/>
     </g>
     <g id="line2d_13">
      <defs>
       <path id="m65df8753ca" d="M 0 0 
L -3.5 0 
" style="stroke: #37539c; stroke-width: 0.8"/>
      </defs>
      <g>
       <use xlink:href="#m65df8753ca" x="40.75" y="304.827903" style="fill: #37539c; stroke: #37539c; stroke-width: 0.8"/>
      </g>
     </g>
     <g id="text_13">
      <!-- 0 -->
      <g style="fill: #37539c" transform="translate(28.032812 308.627121) scale(0.1 -0.1)">
       <use xlink:href="#OpenSans-Bold-30"/>
      </g>
     </g>
    </g>
    <g id="ytick_2">
     <g id="line2d_14">
      <path d="M 40.75 265.028801 
L 1141.2 265.028801 
" clip-path="url(#p7a07953541)" style="fill: none; stroke-dasharray: 2.96,1.28; stroke-dashoffset: 0; stroke: #b0b0b0; stroke-width: 0.8"/>
     </g>
     <g id="line2d_15">
      <g>
       <use xlink:href="#m65df8753ca" x="40.75" y="265.028801" style="fill: #37539c; stroke: #37539c; stroke-width: 0.8"/>
      </g>
     </g>
     <g id="text_14">
      <!-- 200 -->
      <g style="fill: #37539c" transform="translate(16.598437 268.82802) scale(0.1 -0.1)">
       <use xlink:href="#OpenSans-Bold-32"/>
       <use xlink:href="#OpenSans-Bold-30" x="57.177734"/>
       <use xlink:href="#OpenSans-Bold-30" x="114.355469"/>
      </g>
     </g>
    </g>
    <g id="ytick_3">
     <g id="line2d_16">
      <path d="M 40.75 225.229699 
L 1141.2 225.229699 
" clip-path="url(#p7a07953541)" style="fill: none; stroke-dasharray: 2.96,1.28; stroke-dashoffset: 0; stroke: #b0b0b0; stroke-width: 0.8"/>
     </g>
     <g id="line2d_17">
      <g>
       <use xlink:href="#m65df8753ca" x="40.75" y="225.229699" style="fill: #37539c; stroke: #37539c; stroke-width: 0.8"/>
      </g>
     </g>
     <g id="text_15">
      <!-- 400 -->
      <g style="fill: #37539c" transform="translate(16.598437 229.028918) scale(0.1 -0.1)">
       <use xlink:href="#OpenSans-Bold-34"/>
       <use xlink:href="#OpenSans-Bold-30" x="57.177734"/>
       <use xlink:href="#OpenSans-Bold-30" x="114.355469"/>
      </g>
     </g>
    </g>
    <g id="ytick_4">
     <g id="line2d_18">
      <path d="M 40.75 185.430597 
L 1141.2 185.430597 
" clip-path="url(#p7a07953541)" style="fill: none; stroke-dasharray: 2.96,1.28; stroke-dashoffset: 0; stroke: #b0b0b0; stroke-width: 0.8"/>
     </g>
     <g id="line2d_19">
      <g>
       <use xlink:href="#m65df8753ca" x="40.75" y="185.430597" style="fill: #37539c; stroke: #37539c; stroke-width: 0.8"/>
      </g>
     </g>
     <g id="text_16">
      <!-- 600 -->
      <g style="fill: #37539c" transform="translate(16.598437 189.229816) scale(0.1 -0.1)">
       <use xlink:href="#OpenSans-Bold-36"/>
       <use xlink:href="#OpenSans-Bold-30" x="57.177734"/>
       <use xlink:href="#OpenSans-Bold-30" x="114.355469"/>
      </g>
     </g>
    </g>
    <g id="ytick_5">
     <g id="line2d_20">
      <path d="M 40.75 145.631495 
L 1141.2 145.631495 
" clip-path="url(#p7a07953541)" style="fill: none; stroke-dasharray: 2.96,1.28; stroke-dashoffset: 0; stroke: #b0b0b0; stroke-width: 0.8"/>
     </g>
     <g id="line2d_21">
      <g>
       <use xlink:href="#m65df8753ca" x="40.75" y="145.631495" style="fill: #37539c; stroke: #37539c; stroke-width: 0.8"/>
      </g>
     </g>
     <g id="text_17">
      <!-- 800 -->
      <g style="fill: #37539c" transform="translate(16.598437 149.430714) scale(0.1 -0.1)">
       <use xlink:href="#OpenSans-Bold-38"/>
       <use xlink:href="#OpenSans-Bold-30" x="57.177734"/>
       <use xlink:href="#OpenSans-Bold-30" x="114.355469"/>
      </g>
     </g>
    </g>
    <g id="ytick_6">
     <g id="line2d_22">
      <path d="M 40.75 105.832394 
L 1141.2 105.832394 
" clip-path="url(#p7a07953541)" style="fill: none; stroke-dasharray: 2.96,1.28; stroke-dashoffset: 0; stroke: #b0b0b0; stroke-width: 0.8"/>
     </g>
     <g id="line2d_23">
      <g>
       <use xlink:href="#m65df8753ca" x="40.75" y="105.832394" style="fill: #37539c; stroke: #37539c; stroke-width: 0.8"/>
      </g>
     </g>
     <g id="text_18">
      <!-- 1000 -->
      <g style="fill: #37539c" transform="translate(10.88125 109.631612) scale(0.1 -0.1)">
       <use xlink:href="#OpenSans-Bold-31"/>
       <use xlink:href="#OpenSans-Bold-30" x="57.177734"/>
       <use xlink:href="#OpenSans-Bold-30" x="114.355469"/>
       <use xlink:href="#OpenSans-Bold-30" x="171.533203"/>
      </g>
     </g>
    </g>
    <g id="ytick_7">
     <g id="line2d_24">
      <path d="M 40.75 66.033292 
L 1141.2 66.033292 
" clip-path="url(#p7a07953541)" style="fill: none; stroke-dasharray: 2.96,1.28; stroke-dashoffset: 0; stroke: #b0b0b0; stroke-width: 0.8"/>
     </g>
     <g id="line2d_25">
      <g>
       <use xlink:href="#m65df8753ca" x="40.75" y="66.033292" style="fill: #37539c; stroke: #37539c; stroke-width: 0.8"/>
      </g>
     </g>
     <g id="text_19">
      <!-- 1200 -->
      <g style="fill: #37539c" transform="translate(10.88125 69.83251) scale(0.1 -0.1)">
       <use xlink:href="#OpenSans-Bold-31"/>
       <use xlink:href="#OpenSans-Bold-32" x="57.177734"/>
       <use xlink:href="#OpenSans-Bold-30" x="114.355469"/>
       <use xlink:href="#OpenSans-Bold-30" x="171.533203"/>
      </g>
     </g>
    </g>
    <g id="ytick_8">
     <g id="line2d_26">
      <path d="M 40.75 26.23419 
L 1141.2 26.23419 
" clip-path="url(#p7a07953541)" style="fill: none; stroke-dasharray: 2.96,1.28; stroke-dashoffset: 0; stroke: #b0b0b0; stroke-width: 0.8"/>
     </g>
     <g id="line2d_27">
      <g>
       <use xlink:href="#m65df8753ca" x="40.75" y="26.23419" style="fill: #37539c; stroke: #37539c; stroke-width: 0.8"/>
      </g>
     </g>
     <g id="text_20">
      <!-- 1400 -->
      <g style="fill: #37539c" transform="translate(10.88125 30.033409) scale(0.1 -0.1)">
       <use xlink:href="#OpenSans-Bold-31"/>
       <use xlink:href="#OpenSans-Bold-34" x="57.177734"/>
       <use xlink:href="#OpenSans-Bold-30" x="114.355469"/>
       <use xlink:href="#OpenSans-Bold-30" x="171.533203"/>
      </g>
     </g>
    </g>
   </g>
   <g id="patch_3">
    <path d="M 1115.852087 304.824719 
L 1106.725726 304.824719 
Q 1116.464221 304.824719 1116.464221 304.74512 
L 1116.464221 304.711689 
Q 1116.464221 304.632091 1106.725726 304.632091 
L 1115.852087 304.632091 
Q 1106.113592 304.632091 1106.113592 304.711689 
L 1106.113592 304.74512 
Q 1106.113592 304.824719 1115.852087 304.824719 
z
" clip-path="url(#p7a07953541)" style="fill: #ebebeb"/>
   </g>
   <g id="patch_4">
    <path d="M 1018.467131 304.824719 
L 1009.34077 304.824719 
Q 1019.079265 304.824719 1019.079265 304.74512 
L 1019.079265 304.512694 
Q 1019.079265 304.433096 1009.34077 304.433096 
L 1018.467131 304.433096 
Q 1008.728636 304.433096 1008.728636 304.512694 
L 1008.728636 304.74512 
Q 1008.728636 304.824719 1018.467131 304.824719 
z
" clip-path="url(#p7a07953541)" style="fill: #ebebeb"/>
   </g>
   <g id="patch_5">
    <path d="M 921.082176 304.824719 
L 911.955814 304.824719 
Q 921.69431 304.824719 921.69431 304.74512 
L 921.69431 304.711689 
Q 921.69431 304.632091 911.955814 304.632091 
L 921.082176 304.632091 
Q 911.34368 304.632091 911.34368 304.711689 
L 911.34368 304.74512 
Q 911.34368 304.824719 921.082176 304.824719 
z
" clip-path="url(#p7a07953541)" style="fill: #ebebeb"/>
   </g>
   <g id="patch_6">
    <path d="M 813.569185 304.827903 
L 824.698894 304.827903 
L 824.698894 304.827903 
L 813.569185 304.827903 
z
" clip-path="url(#p7a07953541)" style="fill: #ebebeb"/>
   </g>
   <g id="patch_7">
    <path d="M 716.184229 304.827903 
L 727.313938 304.827903 
L 727.313938 304.827903 
L 716.184229 304.827903 
z
" clip-path="url(#p7a07953541)" style="fill: #ebebeb"/>
   </g>
   <g id="patch_8">
    <path d="M 628.927308 304.824719 
L 619.800947 304.824719 
Q 629.539442 304.824719 629.539442 304.74512 
L 629.539442 304.512694 
Q 629.539442 304.433096 619.800947 304.433096 
L 628.927308 304.433096 
Q 619.188813 304.433096 619.188813 304.512694 
L 619.188813 304.74512 
Q 619.188813 304.824719 628.927308 304.824719 
z
" clip-path="url(#p7a07953541)" style="fill: #ebebeb"/>
   </g>
   <g id="patch_9">
    <path d="M 521.414317 304.827903 
L 532.544027 304.827903 
L 532.544027 304.827903 
L 521.414317 304.827903 
z
" clip-path="url(#p7a07953541)" style="fill: #ebebeb"/>
   </g>
   <g id="patch_10">
    <path d="M 434.157397 304.824719 
L 425.031035 304.824719 
Q 434.769531 304.824719 434.769531 304.74512 
L 434.769531 304.711689 
Q 434.769531 304.632091 425.031035 304.632091 
L 434.157397 304.632091 
Q 424.418901 304.632091 424.418901 304.711689 
L 424.418901 304.74512 
Q 424.418901 304.824719 434.157397 304.824719 
z
" clip-path="url(#p7a07953541)" style="fill: #ebebeb"/>
   </g>
   <g id="patch_11">
    <path d="M 336.772441 304.824719 
L 327.64608 304.824719 
Q 337.384575 304.824719 337.384575 304.74512 
L 337.384575 303.517716 
Q 337.384575 303.438118 327.64608 303.438118 
L 336.772441 303.438118 
Q 327.033946 303.438118 327.033946 303.517716 
L 327.033946 304.74512 
Q 327.033946 304.824719 336.772441 304.824719 
z
" clip-path="url(#p7a07953541)" style="fill: #ebebeb"/>
   </g>
   <g id="patch_12">
    <path d="M 239.387485 304.824719 
L 230.261124 304.824719 
Q 239.999619 304.824719 239.999619 304.74512 
L 239.999619 304.711689 
Q 239.999619 304.632091 230.261124 304.632091 
L 239.387485 304.632091 
Q 229.64899 304.632091 229.64899 304.711689 
L 229.64899 304.74512 
Q 229.64899 304.824719 239.387485 304.824719 
z
" clip-path="url(#p7a07953541)" style="fill: #ebebeb"/>
   </g>
   <g id="patch_13">
    <path d="M 142.00253 304.824719 
L 132.876168 304.824719 
Q 142.614664 304.824719 142.614664 304.74512 
L 142.614664 304.512694 
Q 142.614664 304.433096 132.876168 304.433096 
L 142.00253 304.433096 
Q 132.264034 304.433096 132.264034 304.512694 
L 132.264034 304.74512 
Q 132.264034 304.824719 142.00253 304.824719 
z
" clip-path="url(#p7a07953541)" style="fill: #ebebeb"/>
   </g>
   <g id="patch_14">
    <path d="M 1104.722378 304.824719 
L 1095.596016 304.824719 
Q 1105.334512 304.824719 1105.334512 304.74512 
L 1105.334512 303.517716 
Q 1105.334512 303.438118 1095.596016 303.438118 
L 1104.722378 303.438118 
Q 1094.983882 303.438118 1094.983882 303.517716 
L 1094.983882 304.74512 
Q 1094.983882 304.824719 1104.722378 304.824719 
z
" clip-path="url(#p7a07953541)" style="fill: #4062bb"/>
   </g>
   <g id="patch_15">
    <path d="M 1007.337422 304.824719 
L 998.211061 304.824719 
Q 1007.949556 304.824719 1007.949556 304.74512 
L 1007.949556 304.711689 
Q 1007.949556 304.632091 998.211061 304.632091 
L 1007.337422 304.632091 
Q 997.598927 304.632091 997.598927 304.711689 
L 997.598927 304.74512 
Q 997.598927 304.824719 1007.337422 304.824719 
z
" clip-path="url(#p7a07953541)" style="fill: #4062bb"/>
   </g>
   <g id="patch_16">
    <path d="M 909.952466 304.824719 
L 900.826105 304.824719 
Q 910.564601 304.824719 910.564601 304.74512 
L 910.564601 302.323743 
Q 910.564601 302.244145 900.826105 302.244145 
L 909.952466 302.244145 
Q 900.213971 302.244145 900.213971 302.323743 
L 900.213971 304.74512 
Q 900.213971 304.824719 909.952466 304.824719 
z
" clip-path="url(#p7a07953541)" style="fill: #4062bb"/>
   </g>
   <g id="patch_17">
    <path d="M 812.567511 304.824719 
L 803.441149 304.824719 
Q 813.179645 304.824719 813.179645 304.74512 
L 813.179645 303.716712 
Q 813.179645 303.637114 803.441149 303.637114 
L 812.567511 303.637114 
Q 802.829015 303.637114 802.829015 303.716712 
L 802.829015 304.74512 
Q 802.829015 304.824719 812.567511 304.824719 
z
" clip-path="url(#p7a07953541)" style="fill: #4062bb"/>
   </g>
   <g id="patch_18">
    <path d="M 715.182555 304.824719 
L 706.056193 304.824719 
Q 715.794689 304.824719 715.794689 304.74512 
L 715.794689 303.517716 
Q 715.794689 303.438118 706.056193 303.438118 
L 715.182555 303.438118 
Q 705.444059 303.438118 705.444059 303.517716 
L 705.444059 304.74512 
Q 705.444059 304.824719 715.182555 304.824719 
z
" clip-path="url(#p7a07953541)" style="fill: #4062bb"/>
   </g>
   <g id="patch_19">
    <path d="M 617.797599 304.824719 
L 608.671238 304.824719 
Q 618.409733 304.824719 618.409733 304.74512 
L 618.409733 304.114703 
Q 618.409733 304.035105 608.671238 304.035105 
L 617.797599 304.035105 
Q 608.059104 304.035105 608.059104 304.114703 
L 608.059104 304.74512 
Q 608.059104 304.824719 617.797599 304.824719 
z
" clip-path="url(#p7a07953541)" style="fill: #4062bb"/>
   </g>
   <g id="patch_20">
    <path d="M 520.412643 304.824719 
L 511.286282 304.824719 
Q 521.024777 304.824719 521.024777 304.74512 
L 521.024777 304.711689 
Q 521.024777 304.632091 511.286282 304.632091 
L 520.412643 304.632091 
Q 510.674148 304.632091 510.674148 304.711689 
L 510.674148 304.74512 
Q 510.674148 304.824719 520.412643 304.824719 
z
" clip-path="url(#p7a07953541)" style="fill: #4062bb"/>
   </g>
   <g id="patch_21">
    <path d="M 423.027688 304.824719 
L 413.901326 304.824719 
Q 423.639822 304.824719 423.639822 304.74512 
L 423.639822 304.512694 
Q 423.639822 304.433096 413.901326 304.433096 
L 423.027688 304.433096 
Q 413.289192 304.433096 413.289192 304.512694 
L 413.289192 304.74512 
Q 413.289192 304.824719 423.027688 304.824719 
z
" clip-path="url(#p7a07953541)" style="fill: #4062bb"/>
   </g>
   <g id="patch_22">
    <path d="M 315.514697 304.827903 
L 326.644406 304.827903 
L 326.644406 304.827903 
L 315.514697 304.827903 
z
" clip-path="url(#p7a07953541)" style="fill: #4062bb"/>
   </g>
   <g id="patch_23">
    <path d="M 228.257776 304.824719 
L 219.131415 304.824719 
Q 228.86991 304.824719 228.86991 304.74512 
L 228.86991 304.313698 
Q 228.86991 304.2341 219.131415 304.2341 
L 228.257776 304.2341 
Q 218.519281 304.2341 218.519281 304.313698 
L 218.519281 304.74512 
Q 218.519281 304.824719 228.257776 304.824719 
z
" clip-path="url(#p7a07953541)" style="fill: #4062bb"/>
   </g>
   <g id="patch_24">
    <path d="M 130.87282 304.824719 
L 121.746459 304.824719 
Q 131.484954 304.824719 131.484954 304.74512 
L 131.484954 304.313698 
Q 131.484954 304.2341 121.746459 304.2341 
L 130.87282 304.2341 
Q 121.134325 304.2341 121.134325 304.313698 
L 121.134325 304.74512 
Q 121.134325 304.824719 130.87282 304.824719 
z
" clip-path="url(#p7a07953541)" style="fill: #4062bb"/>
   </g>
   <g id="patch_25">
    <path d="M 1093.592669 304.824719 
L 1084.466307 304.824719 
Q 1094.204803 304.824719 1094.204803 304.74512 
L 1094.204803 282.026201 
Q 1094.204803 281.946603 1084.466307 281.946603 
L 1093.592669 281.946603 
Q 1083.854173 281.946603 1083.854173 282.026201 
L 1083.854173 304.74512 
Q 1083.854173 304.824719 1093.592669 304.824719 
z
" clip-path="url(#p7a07953541)" style="fill: #9fb7b9"/>
   </g>
   <g id="patch_26">
    <path d="M 996.207713 304.824719 
L 987.081351 304.824719 
Q 996.819847 304.824719 996.819847 304.74512 
L 996.819847 289.986022 
Q 996.819847 289.906423 987.081351 289.906423 
L 996.207713 289.906423 
Q 986.469217 289.906423 986.469217 289.986022 
L 986.469217 304.74512 
Q 986.469217 304.824719 996.207713 304.824719 
z
" clip-path="url(#p7a07953541)" style="fill: #9fb7b9"/>
   </g>
   <g id="patch_27">
    <path d="M 898.822757 304.824719 
L 889.696396 304.824719 
Q 899.434891 304.824719 899.434891 304.74512 
L 899.434891 286.205107 
Q 899.434891 286.125509 889.696396 286.125509 
L 898.822757 286.125509 
Q 889.084262 286.125509 889.084262 286.205107 
L 889.084262 304.74512 
Q 889.084262 304.824719 898.822757 304.824719 
z
" clip-path="url(#p7a07953541)" style="fill: #9fb7b9"/>
   </g>
   <g id="patch_28">
    <path d="M 801.437802 304.824719 
L 792.31144 304.824719 
Q 802.049936 304.824719 802.049936 304.74512 
L 802.049936 281.827206 
Q 802.049936 281.747607 792.31144 281.747607 
L 801.437802 281.747607 
Q 791.699306 281.747607 791.699306 281.827206 
L 791.699306 304.74512 
Q 791.699306 304.824719 801.437802 304.824719 
z
" clip-path="url(#p7a07953541)" style="fill: #9fb7b9"/>
   </g>
   <g id="patch_29">
    <path d="M 704.052846 304.824719 
L 694.926484 304.824719 
Q 704.66498 304.824719 704.66498 304.74512 
L 704.66498 283.618165 
Q 704.66498 283.538567 694.926484 283.538567 
L 704.052846 283.538567 
Q 694.31435 283.538567 694.31435 283.618165 
L 694.31435 304.74512 
Q 694.31435 304.824719 704.052846 304.824719 
z
" clip-path="url(#p7a07953541)" style="fill: #9fb7b9"/>
   </g>
   <g id="patch_30">
    <path d="M 606.66789 304.824719 
L 597.541528 304.824719 
Q 607.280024 304.824719 607.280024 304.74512 
L 607.280024 280.235242 
Q 607.280024 280.155643 597.541528 280.155643 
L 606.66789 280.155643 
Q 596.929394 280.155643 596.929394 280.235242 
L 596.929394 304.74512 
Q 596.929394 304.824719 606.66789 304.824719 
z
" clip-path="url(#p7a07953541)" style="fill: #9fb7b9"/>
   </g>
   <g id="patch_31">
    <path d="M 509.282934 304.824719 
L 500.156573 304.824719 
Q 509.895068 304.824719 509.895068 304.74512 
L 509.895068 288.593053 
Q 509.895068 288.513455 500.156573 288.513455 
L 509.282934 288.513455 
Q 499.544439 288.513455 499.544439 288.593053 
L 499.544439 304.74512 
Q 499.544439 304.824719 509.282934 304.824719 
z
" clip-path="url(#p7a07953541)" style="fill: #9fb7b9"/>
   </g>
   <g id="patch_32">
    <path d="M 411.897979 304.824719 
L 402.771617 304.824719 
Q 412.510113 304.824719 412.510113 304.74512 
L 412.510113 295.3589 
Q 412.510113 295.279302 402.771617 295.279302 
L 411.897979 295.279302 
Q 402.159483 295.279302 402.159483 295.3589 
L 402.159483 304.74512 
Q 402.159483 304.824719 411.897979 304.824719 
z
" clip-path="url(#p7a07953541)" style="fill: #9fb7b9"/>
   </g>
   <g id="patch_33">
    <path d="M 314.513023 304.824719 
L 305.386661 304.824719 
Q 315.125157 304.824719 315.125157 304.74512 
L 315.125157 294.164927 
Q 315.125157 294.085329 305.386661 294.085329 
L 314.513023 294.085329 
Q 304.774527 294.085329 304.774527 294.164927 
L 304.774527 304.74512 
Q 304.774527 304.824719 314.513023 304.824719 
z
" clip-path="url(#p7a07953541)" style="fill: #9fb7b9"/>
   </g>
   <g id="patch_34">
    <path d="M 217.128067 304.824719 
L 208.001705 304.824719 
Q 217.740201 304.824719 217.740201 304.74512 
L 217.740201 298.343833 
Q 217.740201 298.264235 208.001705 298.264235 
L 217.128067 298.264235 
Q 207.389571 298.264235 207.389571 298.343833 
L 207.389571 304.74512 
Q 207.389571 304.824719 217.128067 304.824719 
z
" clip-path="url(#p7a07953541)" style="fill: #9fb7b9"/>
   </g>
   <g id="patch_35">
    <path d="M 119.743111 304.824719 
L 110.61675 304.824719 
Q 120.355245 304.824719 120.355245 304.74512 
L 120.355245 303.119725 
Q 120.355245 303.040127 110.61675 303.040127 
L 119.743111 303.040127 
Q 110.004616 303.040127 110.004616 303.119725 
L 110.004616 304.74512 
Q 110.004616 304.824719 119.743111 304.824719 
z
" clip-path="url(#p7a07953541)" style="fill: #9fb7b9"/>
   </g>
   <g id="patch_36">
    <path d="M 1082.46296 304.824719 
L 1073.336598 304.824719 
Q 1083.075094 304.824719 1083.075094 304.74512 
L 1083.075094 299.537806 
Q 1083.075094 299.458208 1073.336598 299.458208 
L 1082.46296 299.458208 
Q 1072.724464 299.458208 1072.724464 299.537806 
L 1072.724464 304.74512 
Q 1072.724464 304.824719 1082.46296 304.824719 
z
" clip-path="url(#p7a07953541)" style="fill: #52489c"/>
   </g>
   <g id="patch_37">
    <path d="M 985.078004 304.824719 
L 975.951642 304.824719 
Q 985.690138 304.824719 985.690138 304.74512 
L 985.690138 303.119725 
Q 985.690138 303.040127 975.951642 303.040127 
L 985.078004 303.040127 
Q 975.339508 303.040127 975.339508 303.119725 
L 975.339508 304.74512 
Q 975.339508 304.824719 985.078004 304.824719 
z
" clip-path="url(#p7a07953541)" style="fill: #52489c"/>
   </g>
   <g id="patch_38">
    <path d="M 887.693048 304.824719 
L 878.566686 304.824719 
Q 888.305182 304.824719 888.305182 304.74512 
L 888.305182 300.333788 
Q 888.305182 300.25419 878.566686 300.25419 
L 887.693048 300.25419 
Q 877.954552 300.25419 877.954552 300.333788 
L 877.954552 304.74512 
Q 877.954552 304.824719 887.693048 304.824719 
z
" clip-path="url(#p7a07953541)" style="fill: #52489c"/>
   </g>
   <g id="patch_39">
    <path d="M 790.308092 304.824719 
L 781.181731 304.824719 
Q 790.920226 304.824719 790.920226 304.74512 
L 790.920226 302.92073 
Q 790.920226 302.841131 781.181731 302.841131 
L 790.308092 302.841131 
Q 780.569597 302.841131 780.569597 302.92073 
L 780.569597 304.74512 
Q 780.569597 304.824719 790.308092 304.824719 
z
" clip-path="url(#p7a07953541)" style="fill: #52489c"/>
   </g>
   <g id="patch_40">
    <path d="M 692.923137 304.824719 
L 683.796775 304.824719 
Q 693.535271 304.824719 693.535271 304.74512 
L 693.535271 303.716712 
Q 693.535271 303.637114 683.796775 303.637114 
L 692.923137 303.637114 
Q 683.184641 303.637114 683.184641 303.716712 
L 683.184641 304.74512 
Q 683.184641 304.824719 692.923137 304.824719 
z
" clip-path="url(#p7a07953541)" style="fill: #52489c"/>
   </g>
   <g id="patch_41">
    <path d="M 595.538181 304.824719 
L 586.411819 304.824719 
Q 596.150315 304.824719 596.150315 304.74512 
L 596.150315 303.915707 
Q 596.150315 303.836109 586.411819 303.836109 
L 595.538181 303.836109 
Q 585.799685 303.836109 585.799685 303.915707 
L 585.799685 304.74512 
Q 585.799685 304.824719 595.538181 304.824719 
z
" clip-path="url(#p7a07953541)" style="fill: #52489c"/>
   </g>
   <g id="patch_42">
    <path d="M 498.153225 304.824719 
L 489.026863 304.824719 
Q 498.765359 304.824719 498.765359 304.74512 
L 498.765359 303.716712 
Q 498.765359 303.637114 489.026863 303.637114 
L 498.153225 303.637114 
Q 488.414729 303.637114 488.414729 303.716712 
L 488.414729 304.74512 
Q 488.414729 304.824719 498.153225 304.824719 
z
" clip-path="url(#p7a07953541)" style="fill: #52489c"/>
   </g>
   <g id="patch_43">
    <path d="M 390.640234 304.827903 
L 401.769943 304.827903 
L 401.769943 304.827903 
L 390.640234 304.827903 
z
" clip-path="url(#p7a07953541)" style="fill: #52489c"/>
   </g>
   <g id="patch_44">
    <path d="M 303.383314 304.824719 
L 294.256952 304.824719 
Q 303.995448 304.824719 303.995448 304.74512 
L 303.995448 304.512694 
Q 303.995448 304.433096 294.256952 304.433096 
L 303.383314 304.433096 
Q 293.644818 304.433096 293.644818 304.512694 
L 293.644818 304.74512 
Q 293.644818 304.824719 303.383314 304.824719 
z
" clip-path="url(#p7a07953541)" style="fill: #52489c"/>
   </g>
   <g id="patch_45">
    <path d="M 195.870322 304.827903 
L 207.000032 304.827903 
L 207.000032 304.827903 
L 195.870322 304.827903 
z
" clip-path="url(#p7a07953541)" style="fill: #52489c"/>
   </g>
   <g id="patch_46">
    <path d="M 108.613402 304.824719 
L 99.48704 304.824719 
Q 109.225536 304.824719 109.225536 304.74512 
L 109.225536 301.726757 
Q 109.225536 301.647158 99.48704 301.647158 
L 108.613402 301.647158 
Q 98.874906 301.647158 98.874906 301.726757 
L 98.874906 304.74512 
Q 98.874906 304.824719 108.613402 304.824719 
z
" clip-path="url(#p7a07953541)" style="fill: #52489c"/>
   </g>
   <g id="patch_47">
    <path d="M 1071.33325 304.824719 
L 1062.206889 304.824719 
Q 1071.945384 304.824719 1071.945384 304.74512 
L 1071.945384 225.511477 
Q 1071.945384 225.431878 1062.206889 225.431878 
L 1071.33325 225.431878 
Q 1061.594755 225.431878 1061.594755 225.511477 
L 1061.594755 304.74512 
Q 1061.594755 304.824719 1071.33325 304.824719 
z
" clip-path="url(#p7a07953541)" style="fill: #f45b69"/>
   </g>
   <g id="patch_48">
    <path d="M 973.948295 304.824719 
L 964.821933 304.824719 
Q 974.560429 304.824719 974.560429 304.74512 
L 974.560429 219.939602 
Q 974.560429 219.860004 964.821933 219.860004 
L 973.948295 219.860004 
Q 964.209799 219.860004 964.209799 219.939602 
L 964.209799 304.74512 
Q 964.209799 304.824719 973.948295 304.824719 
z
" clip-path="url(#p7a07953541)" style="fill: #f45b69"/>
   </g>
   <g id="patch_49">
    <path d="M 876.563339 304.824719 
L 867.436977 304.824719 
Q 877.175473 304.824719 877.175473 304.74512 
L 877.175473 204.417953 
Q 877.175473 204.338354 867.436977 204.338354 
L 876.563339 204.338354 
Q 866.824843 204.338354 866.824843 204.417953 
L 866.824843 304.74512 
Q 866.824843 304.824719 876.563339 304.824719 
z
" clip-path="url(#p7a07953541)" style="fill: #f45b69"/>
   </g>
   <g id="patch_50">
    <path d="M 779.178383 304.824719 
L 770.052021 304.824719 
Q 779.790517 304.824719 779.790517 304.74512 
L 779.790517 216.357683 
Q 779.790517 216.278085 770.052021 216.278085 
L 779.178383 216.278085 
Q 769.439887 216.278085 769.439887 216.357683 
L 769.439887 304.74512 
Q 769.439887 304.824719 779.178383 304.824719 
z
" clip-path="url(#p7a07953541)" style="fill: #f45b69"/>
   </g>
   <g id="patch_51">
    <path d="M 681.793427 304.824719 
L 672.667066 304.824719 
Q 682.405561 304.824719 682.405561 304.74512 
L 682.405561 231.083351 
Q 682.405561 231.003753 672.667066 231.003753 
L 681.793427 231.003753 
Q 672.054932 231.003753 672.054932 231.083351 
L 672.054932 304.74512 
Q 672.054932 304.824719 681.793427 304.824719 
z
" clip-path="url(#p7a07953541)" style="fill: #f45b69"/>
   </g>
   <g id="patch_52">
    <path d="M 584.408472 304.824719 
L 575.28211 304.824719 
Q 585.020606 304.824719 585.020606 304.74512 
L 585.020606 213.372751 
Q 585.020606 213.293152 575.28211 213.293152 
L 584.408472 213.293152 
Q 574.669976 213.293152 574.669976 213.372751 
L 574.669976 304.74512 
Q 574.669976 304.824719 584.408472 304.824719 
z
" clip-path="url(#p7a07953541)" style="fill: #f45b69"/>
   </g>
   <g id="patch_53">
    <path d="M 487.023516 304.824719 
L 477.897154 304.824719 
Q 487.63565 304.824719 487.63565 304.74512 
L 487.63565 238.446185 
Q 487.63565 238.366587 477.897154 238.366587 
L 487.023516 238.366587 
Q 477.28502 238.366587 477.28502 238.446185 
L 477.28502 304.74512 
Q 477.28502 304.824719 487.023516 304.824719 
z
" clip-path="url(#p7a07953541)" style="fill: #f45b69"/>
   </g>
   <g id="patch_54">
    <path d="M 389.63856 304.824719 
L 380.512198 304.824719 
Q 390.250694 304.824719 390.250694 304.74512 
L 390.250694 229.889378 
Q 390.250694 229.80978 380.512198 229.80978 
L 389.63856 229.80978 
Q 379.900064 229.80978 379.900064 229.889378 
L 379.900064 304.74512 
Q 379.900064 304.824719 389.63856 304.824719 
z
" clip-path="url(#p7a07953541)" style="fill: #f45b69"/>
   </g>
   <g id="patch_55">
    <path d="M 292.253604 304.824719 
L 283.127243 304.824719 
Q 292.865738 304.824719 292.865738 304.74512 
L 292.865738 240.038149 
Q 292.865738 239.958551 283.127243 239.958551 
L 292.253604 239.958551 
Q 282.515109 239.958551 282.515109 240.038149 
L 282.515109 304.74512 
Q 282.515109 304.824719 292.253604 304.824719 
z
" clip-path="url(#p7a07953541)" style="fill: #f45b69"/>
   </g>
   <g id="patch_56">
    <path d="M 194.868649 304.824719 
L 185.742287 304.824719 
Q 195.480783 304.824719 195.480783 304.74512 
L 195.480783 247.798974 
Q 195.480783 247.719375 185.742287 247.719375 
L 194.868649 247.719375 
Q 185.130153 247.719375 185.130153 247.798974 
L 185.130153 304.74512 
Q 185.130153 304.824719 194.868649 304.824719 
z
" clip-path="url(#p7a07953541)" style="fill: #f45b69"/>
   </g>
   <g id="patch_57">
    <path d="M 97.483693 304.824719 
L 88.357331 304.824719 
Q 98.095827 304.824719 98.095827 304.74512 
L 98.095827 253.967834 
Q 98.095827 253.888236 88.357331 253.888236 
L 97.483693 253.888236 
Q 87.745197 253.888236 87.745197 253.967834 
L 87.745197 304.74512 
Q 87.745197 304.824719 97.483693 304.824719 
z
" clip-path="url(#p7a07953541)" style="fill: #f45b69"/>
   </g>
   <g id="patch_58">
    <path d="M 1060.203541 304.824719 
L 1051.07718 304.824719 
Q 1060.815675 304.824719 1060.815675 304.74512 
L 1060.815675 31.29186 
Q 1060.815675 31.212262 1051.07718 31.212262 
L 1060.203541 31.212262 
Q 1050.465046 31.212262 1050.465046 31.29186 
L 1050.465046 304.74512 
Q 1050.465046 304.824719 1060.203541 304.824719 
z
" clip-path="url(#p7a07953541)" style="fill: #59c3c3"/>
   </g>
   <g id="patch_59">
    <path d="M 962.818585 304.824719 
L 953.692224 304.824719 
Q 963.430719 304.824719 963.430719 304.74512 
L 963.430719 107.50714 
Q 963.430719 107.427542 953.692224 107.427542 
L 962.818585 107.427542 
Q 953.08009 107.427542 953.08009 107.50714 
L 953.08009 304.74512 
Q 953.08009 304.824719 962.818585 304.824719 
z
" clip-path="url(#p7a07953541)" style="fill: #59c3c3"/>
   </g>
   <g id="patch_60">
    <path d="M 865.43363 304.824719 
L 856.307268 304.824719 
Q 866.045764 304.824719 866.045764 304.74512 
L 866.045764 60.743195 
Q 866.045764 60.663597 856.307268 60.663597 
L 865.43363 60.663597 
Q 855.695134 60.663597 855.695134 60.743195 
L 855.695134 304.74512 
Q 855.695134 304.824719 865.43363 304.824719 
z
" clip-path="url(#p7a07953541)" style="fill: #59c3c3"/>
   </g>
   <g id="patch_61">
    <path d="M 768.048674 304.824719 
L 758.922312 304.824719 
Q 768.660808 304.824719 768.660808 304.74512 
L 768.660808 44.027572 
Q 768.660808 43.947974 758.922312 43.947974 
L 768.048674 43.947974 
Q 758.310178 43.947974 758.310178 44.027572 
L 758.310178 304.74512 
Q 758.310178 304.824719 768.048674 304.824719 
z
" clip-path="url(#p7a07953541)" style="fill: #59c3c3"/>
   </g>
   <g id="patch_62">
    <path d="M 670.663718 304.824719 
L 661.537357 304.824719 
Q 671.275852 304.824719 671.275852 304.74512 
L 671.275852 109.298099 
Q 671.275852 109.218501 661.537357 109.218501 
L 670.663718 109.218501 
Q 660.925223 109.218501 660.925223 109.298099 
L 660.925223 304.74512 
Q 660.925223 304.824719 670.663718 304.824719 
z
" clip-path="url(#p7a07953541)" style="fill: #59c3c3"/>
   </g>
   <g id="patch_63">
    <path d="M 573.278762 304.824719 
L 564.152401 304.824719 
Q 573.890896 304.824719 573.890896 304.74512 
L 573.890896 70.692971 
Q 573.890896 70.613372 564.152401 70.613372 
L 573.278762 70.613372 
Q 563.540267 70.613372 563.540267 70.692971 
L 563.540267 304.74512 
Q 563.540267 304.824719 573.278762 304.824719 
z
" clip-path="url(#p7a07953541)" style="fill: #59c3c3"/>
   </g>
   <g id="patch_64">
    <path d="M 475.893807 304.824719 
L 466.767445 304.824719 
Q 476.505941 304.824719 476.505941 304.74512 
L 476.505941 138.749435 
Q 476.505941 138.669836 466.767445 138.669836 
L 475.893807 138.669836 
Q 466.155311 138.669836 466.155311 138.749435 
L 466.155311 304.74512 
Q 466.155311 304.824719 475.893807 304.824719 
z
" clip-path="url(#p7a07953541)" style="fill: #59c3c3"/>
   </g>
   <g id="patch_65">
    <path d="M 378.508851 304.824719 
L 369.382489 304.824719 
Q 379.120985 304.824719 379.120985 304.74512 
L 379.120985 144.122313 
Q 379.120985 144.042715 369.382489 144.042715 
L 378.508851 144.042715 
Q 368.770355 144.042715 368.770355 144.122313 
L 368.770355 304.74512 
Q 368.770355 304.824719 378.508851 304.824719 
z
" clip-path="url(#p7a07953541)" style="fill: #59c3c3"/>
   </g>
   <g id="patch_66">
    <path d="M 281.123895 304.824719 
L 271.997534 304.824719 
Q 281.736029 304.824719 281.736029 304.74512 
L 281.736029 147.306242 
Q 281.736029 147.226643 271.997534 147.226643 
L 281.123895 147.226643 
Q 271.385399 147.226643 271.385399 147.306242 
L 271.385399 304.74512 
Q 271.385399 304.824719 281.123895 304.824719 
z
" clip-path="url(#p7a07953541)" style="fill: #59c3c3"/>
   </g>
   <g id="patch_67">
    <path d="M 183.738939 304.824719 
L 174.612578 304.824719 
Q 184.351073 304.824719 184.351073 304.74512 
L 184.351073 179.941505 
Q 184.351073 179.861907 174.612578 179.861907 
L 183.738939 179.861907 
Q 174.000444 179.861907 174.000444 179.941505 
L 174.000444 304.74512 
Q 174.000444 304.824719 183.738939 304.824719 
z
" clip-path="url(#p7a07953541)" style="fill: #59c3c3"/>
   </g>
   <g id="patch_68">
    <path d="M 86.353984 304.824719 
L 77.227622 304.824719 
Q 86.966118 304.824719 86.966118 304.74512 
L 86.966118 186.110366 
Q 86.966118 186.030768 77.227622 186.030768 
L 86.353984 186.030768 
Q 76.615488 186.030768 76.615488 186.110366 
L 76.615488 304.74512 
Q 76.615488 304.824719 86.353984 304.824719 
z
" clip-path="url(#p7a07953541)" style="fill: #59c3c3"/>
   </g>
   <g id="patch_69">
    <path d="M 1049.073832 304.824719 
L 1039.94747 304.824719 
Q 1049.685966 304.824719 1049.685966 304.74512 
L 1049.685966 298.542828 
Q 1049.685966 298.46323 1039.94747 298.46323 
L 1049.073832 298.46323 
Q 1039.335336 298.46323 1039.335336 298.542828 
L 1039.335336 304.74512 
Q 1039.335336 304.824719 1049.073832 304.824719 
z
" clip-path="url(#p7a07953541)" style="fill: #37539c"/>
   </g>
   <g id="patch_70">
    <path d="M 951.688876 304.824719 
L 942.562515 304.824719 
Q 952.30101 304.824719 952.30101 304.74512 
L 952.30101 302.721734 
Q 952.30101 302.642136 942.562515 302.642136 
L 951.688876 302.642136 
Q 941.950381 302.642136 941.950381 302.721734 
L 941.950381 304.74512 
Q 941.950381 304.824719 951.688876 304.824719 
z
" clip-path="url(#p7a07953541)" style="fill: #37539c"/>
   </g>
   <g id="patch_71">
    <path d="M 854.30392 304.824719 
L 845.177559 304.824719 
Q 854.916054 304.824719 854.916054 304.74512 
L 854.916054 301.925752 
Q 854.916054 301.846154 845.177559 301.846154 
L 854.30392 301.846154 
Q 844.565425 301.846154 844.565425 301.925752 
L 844.565425 304.74512 
Q 844.565425 304.824719 854.30392 304.824719 
z
" clip-path="url(#p7a07953541)" style="fill: #37539c"/>
   </g>
   <g id="patch_72">
    <path d="M 756.918965 304.824719 
L 747.792603 304.824719 
Q 757.531099 304.824719 757.531099 304.74512 
L 757.531099 298.542828 
Q 757.531099 298.46323 747.792603 298.46323 
L 756.918965 298.46323 
Q 747.180469 298.46323 747.180469 298.542828 
L 747.180469 304.74512 
Q 747.180469 304.824719 756.918965 304.824719 
z
" clip-path="url(#p7a07953541)" style="fill: #37539c"/>
   </g>
   <g id="patch_73">
    <path d="M 659.534009 304.824719 
L 650.407647 304.824719 
Q 660.146143 304.824719 660.146143 304.74512 
L 660.146143 300.134793 
Q 660.146143 300.055194 650.407647 300.055194 
L 659.534009 300.055194 
Q 649.795513 300.055194 649.795513 300.134793 
L 649.795513 304.74512 
Q 649.795513 304.824719 659.534009 304.824719 
z
" clip-path="url(#p7a07953541)" style="fill: #37539c"/>
   </g>
   <g id="patch_74">
    <path d="M 562.149053 304.824719 
L 553.022692 304.824719 
Q 562.761187 304.824719 562.761187 304.74512 
L 562.761187 299.537806 
Q 562.761187 299.458208 553.022692 299.458208 
L 562.149053 299.458208 
Q 552.410558 299.458208 552.410558 299.537806 
L 552.410558 304.74512 
Q 552.410558 304.824719 562.149053 304.824719 
z
" clip-path="url(#p7a07953541)" style="fill: #37539c"/>
   </g>
   <g id="patch_75">
    <path d="M 464.764097 304.824719 
L 455.637736 304.824719 
Q 465.376231 304.824719 465.376231 304.74512 
L 465.376231 296.751869 
Q 465.376231 296.672271 455.637736 296.672271 
L 464.764097 296.672271 
Q 455.025602 296.672271 455.025602 296.751869 
L 455.025602 304.74512 
Q 455.025602 304.824719 464.764097 304.824719 
z
" clip-path="url(#p7a07953541)" style="fill: #37539c"/>
   </g>
   <g id="patch_76">
    <path d="M 367.379142 304.824719 
L 358.25278 304.824719 
Q 367.991276 304.824719 367.991276 304.74512 
L 367.991276 295.159905 
Q 367.991276 295.080307 358.25278 295.080307 
L 367.379142 295.080307 
Q 357.640646 295.080307 357.640646 295.159905 
L 357.640646 304.74512 
Q 357.640646 304.824719 367.379142 304.824719 
z
" clip-path="url(#p7a07953541)" style="fill: #37539c"/>
   </g>
   <g id="patch_77">
    <path d="M 269.994186 304.824719 
L 260.867824 304.824719 
Q 270.60632 304.824719 270.60632 304.74512 
L 270.60632 302.721734 
Q 270.60632 302.642136 260.867824 302.642136 
L 269.994186 302.642136 
Q 260.25569 302.642136 260.25569 302.721734 
L 260.25569 304.74512 
Q 260.25569 304.824719 269.994186 304.824719 
z
" clip-path="url(#p7a07953541)" style="fill: #37539c"/>
   </g>
   <g id="patch_78">
    <path d="M 172.60923 304.824719 
L 163.482869 304.824719 
Q 173.221364 304.824719 173.221364 304.74512 
L 173.221364 299.537806 
Q 173.221364 299.458208 163.482869 299.458208 
L 172.60923 299.458208 
Q 162.870735 299.458208 162.870735 299.537806 
L 162.870735 304.74512 
Q 162.870735 304.824719 172.60923 304.824719 
z
" clip-path="url(#p7a07953541)" style="fill: #37539c"/>
   </g>
   <g id="patch_79">
    <path d="M 75.224274 304.824719 
L 66.097913 304.824719 
Q 75.836408 304.824719 75.836408 304.74512 
L 75.836408 301.527761 
Q 75.836408 301.448163 66.097913 301.448163 
L 75.224274 301.448163 
Q 65.485779 301.448163 65.485779 301.527761 
L 65.485779 304.74512 
Q 65.485779 304.824719 75.224274 304.824719 
z
" clip-path="url(#p7a07953541)" style="fill: #37539c"/>
   </g>
   <g id="line2d_28">
    <path d="M 152.742699 304.827903 
L 152.742699 17.528136 
" clip-path="url(#p7a07953541)" style="fill: none; stroke-dasharray: 1.48,0.64; stroke-dashoffset: 0; stroke: #808080; stroke-width: 0.4"/>
    <defs>
     <path id="ma09bda1346" d="M 0 0.00005 
C 0.000013 0.00005 0.000026 0.000045 0.000035 0.000035 
C 0.000045 0.000026 0.00005 0.000013 0.00005 0 
C 0.00005 -0.000013 0.000045 -0.000026 0.000035 -0.000035 
C 0.000026 -0.000045 0.000013 -0.00005 0 -0.00005 
C -0.000013 -0.00005 -0.000026 -0.000045 -0.000035 -0.000035 
C -0.000045 -0.000026 -0.00005 -0.000013 -0.00005 0 
C -0.00005 0.000013 -0.000045 0.000026 -0.000035 0.000035 
C -0.000026 0.000045 -0.000013 0.00005 0 0.00005 
z
" style="stroke: #808080"/>
    </defs>
    <g clip-path="url(#p7a07953541)">
     <use xlink:href="#ma09bda1346" x="152.742699" y="304.827903" style="fill: #808080; stroke: #808080"/>
     <use xlink:href="#ma09bda1346" x="152.742699" y="17.528136" style="fill: #808080; stroke: #808080"/>
    </g>
   </g>
   <g id="line2d_29">
    <path d="M 250.127655 304.827903 
L 250.127655 17.528136 
" clip-path="url(#p7a07953541)" style="fill: none; stroke-dasharray: 1.48,0.64; stroke-dashoffset: 0; stroke: #808080; stroke-width: 0.4"/>
    <g clip-path="url(#p7a07953541)">
     <use xlink:href="#ma09bda1346" x="250.127655" y="304.827903" style="fill: #808080; stroke: #808080"/>
     <use xlink:href="#ma09bda1346" x="250.127655" y="17.528136" style="fill: #808080; stroke: #808080"/>
    </g>
   </g>
   <g id="line2d_30">
    <path d="M 347.512611 304.827903 
L 347.512611 17.528136 
" clip-path="url(#p7a07953541)" style="fill: none; stroke-dasharray: 1.48,0.64; stroke-dashoffset: 0; stroke: #808080; stroke-width: 0.4"/>
    <g clip-path="url(#p7a07953541)">
     <use xlink:href="#ma09bda1346" x="347.512611" y="304.827903" style="fill: #808080; stroke: #808080"/>
     <use xlink:href="#ma09bda1346" x="347.512611" y="17.528136" style="fill: #808080; stroke: #808080"/>
    </g>
   </g>
   <g id="line2d_31">
    <path d="M 444.897566 304.827903 
L 444.897566 17.528136 
" clip-path="url(#p7a07953541)" style="fill: none; stroke-dasharray: 1.48,0.64; stroke-dashoffset: 0; stroke: #808080; stroke-width: 0.4"/>
    <g clip-path="url(#p7a07953541)">
     <use xlink:href="#ma09bda1346" x="444.897566" y="304.827903" style="fill: #808080; stroke: #808080"/>
     <use xlink:href="#ma09bda1346" x="444.897566" y="17.528136" style="fill: #808080; stroke: #808080"/>
    </g>
   </g>
   <g id="line2d_32">
    <path d="M 542.282522 304.827903 
L 542.282522 17.528136 
" clip-path="url(#p7a07953541)" style="fill: none; stroke-dasharray: 1.48,0.64; stroke-dashoffset: 0; stroke: #808080; stroke-width: 0.4"/>
    <g clip-path="url(#p7a07953541)">
     <use xlink:href="#ma09bda1346" x="542.282522" y="304.827903" style="fill: #808080; stroke: #808080"/>
     <use xlink:href="#ma09bda1346" x="542.282522" y="17.528136" style="fill: #808080; stroke: #808080"/>
    </g>
   </g>
   <g id="line2d_33">
    <path d="M 639.667478 304.827903 
L 639.667478 17.528136 
" clip-path="url(#p7a07953541)" style="fill: none; stroke-dasharray: 1.48,0.64; stroke-dashoffset: 0; stroke: #808080; stroke-width: 0.4"/>
    <g clip-path="url(#p7a07953541)">
     <use xlink:href="#ma09bda1346" x="639.667478" y="304.827903" style="fill: #808080; stroke: #808080"/>
     <use xlink:href="#ma09bda1346" x="639.667478" y="17.528136" style="fill: #808080; stroke: #808080"/>
    </g>
   </g>
   <g id="line2d_34">
    <path d="M 737.052434 304.827903 
L 737.052434 17.528136 
" clip-path="url(#p7a07953541)" style="fill: none; stroke-dasharray: 1.48,0.64; stroke-dashoffset: 0; stroke: #808080; stroke-width: 0.4"/>
    <g clip-path="url(#p7a07953541)">
     <use xlink:href="#ma09bda1346" x="737.052434" y="304.827903" style="fill: #808080; stroke: #808080"/>
     <use xlink:href="#ma09bda1346" x="737.052434" y="17.528136" style="fill: #808080; stroke: #808080"/>
    </g>
   </g>
   <g id="line2d_35">
    <path d="M 834.437389 304.827903 
L 834.437389 17.528136 
" clip-path="url(#p7a07953541)" style="fill: none; stroke-dasharray: 1.48,0.64; stroke-dashoffset: 0; stroke: #808080; stroke-width: 0.4"/>
    <g clip-path="url(#p7a07953541)">
     <use xlink:href="#ma09bda1346" x="834.437389" y="304.827903" style="fill: #808080; stroke: #808080"/>
     <use xlink:href="#ma09bda1346" x="834.437389" y="17.528136" style="fill: #808080; stroke: #808080"/>
    </g>
   </g>
   <g id="line2d_36">
    <path d="M 931.822345 304.827903 
L 931.822345 17.528136 
" clip-path="url(#p7a07953541)" style="fill: none; stroke-dasharray: 1.48,0.64; stroke-dashoffset: 0; stroke: #808080; stroke-width: 0.4"/>
    <g clip-path="url(#p7a07953541)">
     <use xlink:href="#ma09bda1346" x="931.822345" y="304.827903" style="fill: #808080; stroke: #808080"/>
     <use xlink:href="#ma09bda1346" x="931.822345" y="17.528136" style="fill: #808080; stroke: #808080"/>
    </g>
   </g>
   <g id="line2d_37">
    <path d="M 1029.207301 304.827903 
L 1029.207301 17.528136 
" clip-path="url(#p7a07953541)" style="fill: none; stroke-dasharray: 1.48,0.64; stroke-dashoffset: 0; stroke: #808080; stroke-width: 0.4"/>
    <g clip-path="url(#p7a07953541)">
     <use xlink:href="#ma09bda1346" x="1029.207301" y="304.827903" style="fill: #808080; stroke: #808080"/>
     <use xlink:href="#ma09bda1346" x="1029.207301" y="17.528136" style="fill: #808080; stroke: #808080"/>
    </g>
   </g>
   <g id="patch_80">
    <path d="M 40.75 304.827903 
L 40.75 17.528136 
" style="fill: none; stroke: #000000; stroke-width: 0.8; stroke-linejoin: miter; stroke-linecap: square"/>
   </g>
   <g id="patch_81">
    <path d="M 40.75 304.827903 
L 1141.2 304.827903 
" style="fill: none; stroke: #000000; stroke-width: 0.8; stroke-linejoin: miter; stroke-linecap: square"/>
   </g>
   <g id="text_21">
    <!-- 17 -->
    <g style="fill: #37539c" transform="translate(69.117004 297.255493) rotate(-45) scale(0.07 -0.07)">
     <use xlink:href="#OpenSans-Bold-31"/>
     <use xlink:href="#OpenSans-Bold-37" x="57.177734"/>
    </g>
   </g>
   <g id="text_22">
    <!-- 27 -->
    <g style="fill: #37539c" transform="translate(166.50196 295.265538) rotate(-45) scale(0.07 -0.07)">
     <use xlink:href="#OpenSans-Bold-32"/>
     <use xlink:href="#OpenSans-Bold-37" x="57.177734"/>
    </g>
   </g>
   <g id="text_23">
    <!-- 11 -->
    <g style="fill: #37539c" transform="translate(263.886916 298.449466) rotate(-45) scale(0.07 -0.07)">
     <use xlink:href="#OpenSans-Bold-31"/>
     <use xlink:href="#OpenSans-Bold-31" x="57.177734"/>
    </g>
   </g>
   <g id="text_24">
    <!-- 49 -->
    <g style="fill: #37539c" transform="translate(361.271872 290.887636) rotate(-45) scale(0.07 -0.07)">
     <use xlink:href="#OpenSans-Bold-34"/>
     <use xlink:href="#OpenSans-Bold-39" x="57.177734"/>
    </g>
   </g>
   <g id="text_25">
    <!-- 41 -->
    <g style="fill: #37539c" transform="translate(458.656827 292.479601) rotate(-45) scale(0.07 -0.07)">
     <use xlink:href="#OpenSans-Bold-34"/>
     <use xlink:href="#OpenSans-Bold-31" x="57.177734"/>
    </g>
   </g>
   <g id="text_26">
    <!-- 27 -->
    <g style="fill: #37539c" transform="translate(556.041783 295.265538) rotate(-45) scale(0.07 -0.07)">
     <use xlink:href="#OpenSans-Bold-32"/>
     <use xlink:href="#OpenSans-Bold-37" x="57.177734"/>
    </g>
   </g>
   <g id="text_27">
    <!-- 24 -->
    <g style="fill: #37539c" transform="translate(653.426739 295.862524) rotate(-45) scale(0.07 -0.07)">
     <use xlink:href="#OpenSans-Bold-32"/>
     <use xlink:href="#OpenSans-Bold-34" x="57.177734"/>
    </g>
   </g>
   <g id="text_28">
    <!-- 32 -->
    <g style="fill: #37539c" transform="translate(750.811695 294.27056) rotate(-45) scale(0.07 -0.07)">
     <use xlink:href="#OpenSans-Bold-33"/>
     <use xlink:href="#OpenSans-Bold-32" x="57.177734"/>
    </g>
   </g>
   <g id="text_29">
    <!-- 15 -->
    <g style="fill: #37539c" transform="translate(848.19665 297.653484) rotate(-45) scale(0.07 -0.07)">
     <use xlink:href="#OpenSans-Bold-31"/>
     <use xlink:href="#OpenSans-Bold-35" x="57.177734"/>
    </g>
   </g>
   <g id="text_30">
    <!-- 11 -->
    <g style="fill: #37539c" transform="translate(945.581606 298.449466) rotate(-45) scale(0.07 -0.07)">
     <use xlink:href="#OpenSans-Bold-31"/>
     <use xlink:href="#OpenSans-Bold-31" x="57.177734"/>
    </g>
   </g>
   <g id="text_31">
    <!-- 32 -->
    <g style="fill: #37539c" transform="translate(1042.966562 294.27056) rotate(-45) scale(0.07 -0.07)">
     <use xlink:href="#OpenSans-Bold-33"/>
     <use xlink:href="#OpenSans-Bold-32" x="57.177734"/>
    </g>
   </g>
   <g id="text_32">
    <!-- 597 -->
    <g style="fill: #37539c" transform="translate(78.831782 181.838097) rotate(-45) scale(0.07 -0.07)">
     <use xlink:href="#OpenSans-Bold-35"/>
     <use xlink:href="#OpenSans-Bold-39" x="57.177734"/>
     <use xlink:href="#OpenSans-Bold-37" x="114.355469"/>
    </g>
   </g>
   <g id="text_33">
    <!-- 628 -->
    <g style="fill: #37539c" transform="translate(176.216738 175.669237) rotate(-45) scale(0.07 -0.07)">
     <use xlink:href="#OpenSans-Bold-36"/>
     <use xlink:href="#OpenSans-Bold-32" x="57.177734"/>
     <use xlink:href="#OpenSans-Bold-38" x="114.355469"/>
    </g>
   </g>
   <g id="text_34">
    <!-- 792 -->
    <g style="fill: #37539c" transform="translate(273.601693 143.033973) rotate(-45) scale(0.07 -0.07)">
     <use xlink:href="#OpenSans-Bold-37"/>
     <use xlink:href="#OpenSans-Bold-39" x="57.177734"/>
     <use xlink:href="#OpenSans-Bold-32" x="114.355469"/>
    </g>
   </g>
   <g id="text_35">
    <!-- 808 -->
    <g style="fill: #37539c" transform="translate(370.986649 139.850045) rotate(-45) scale(0.07 -0.07)">
     <use xlink:href="#OpenSans-Bold-38"/>
     <use xlink:href="#OpenSans-Bold-30" x="57.177734"/>
     <use xlink:href="#OpenSans-Bold-38" x="114.355469"/>
    </g>
   </g>
   <g id="text_36">
    <!-- 835 -->
    <g style="fill: #37539c" transform="translate(468.371605 134.477166) rotate(-45) scale(0.07 -0.07)">
     <use xlink:href="#OpenSans-Bold-38"/>
     <use xlink:href="#OpenSans-Bold-33" x="57.177734"/>
     <use xlink:href="#OpenSans-Bold-35" x="114.355469"/>
    </g>
   </g>
   <g id="text_37">
    <!-- 1177 -->
    <g style="fill: #37539c" transform="translate(564.341629 66.420702) rotate(-45) scale(0.07 -0.07)">
     <use xlink:href="#OpenSans-Bold-31"/>
     <use xlink:href="#OpenSans-Bold-31" x="57.177734"/>
     <use xlink:href="#OpenSans-Bold-37" x="114.355469"/>
     <use xlink:href="#OpenSans-Bold-37" x="171.533203"/>
    </g>
   </g>
   <g id="text_38">
    <!-- 983 -->
    <g style="fill: #37539c" transform="translate(663.141516 105.025831) rotate(-45) scale(0.07 -0.07)">
     <use xlink:href="#OpenSans-Bold-39"/>
     <use xlink:href="#OpenSans-Bold-38" x="57.177734"/>
     <use xlink:href="#OpenSans-Bold-33" x="114.355469"/>
    </g>
   </g>
   <g id="text_39">
    <!-- 1311 -->
    <g style="fill: #37539c" transform="translate(759.11154 39.755304) rotate(-45) scale(0.07 -0.07)">
     <use xlink:href="#OpenSans-Bold-31"/>
     <use xlink:href="#OpenSans-Bold-33" x="57.177734"/>
     <use xlink:href="#OpenSans-Bold-31" x="114.355469"/>
     <use xlink:href="#OpenSans-Bold-31" x="171.533203"/>
    </g>
   </g>
   <g id="text_40">
    <!-- 1227 -->
    <g style="fill: #37539c" transform="translate(856.496496 56.470927) rotate(-45) scale(0.07 -0.07)">
     <use xlink:href="#OpenSans-Bold-31"/>
     <use xlink:href="#OpenSans-Bold-32" x="57.177734"/>
     <use xlink:href="#OpenSans-Bold-32" x="114.355469"/>
     <use xlink:href="#OpenSans-Bold-37" x="171.533203"/>
    </g>
   </g>
   <g id="text_41">
    <!-- 992 -->
    <g style="fill: #37539c" transform="translate(955.296384 103.234871) rotate(-45) scale(0.07 -0.07)">
     <use xlink:href="#OpenSans-Bold-39"/>
     <use xlink:href="#OpenSans-Bold-39" x="57.177734"/>
     <use xlink:href="#OpenSans-Bold-32" x="114.355469"/>
    </g>
   </g>
   <g id="text_42">
    <!-- 1375 -->
    <g style="fill: #37539c" transform="translate(1051.266408 27.019591) rotate(-45) scale(0.07 -0.07)">
     <use xlink:href="#OpenSans-Bold-31"/>
     <use xlink:href="#OpenSans-Bold-33" x="57.177734"/>
     <use xlink:href="#OpenSans-Bold-37" x="114.355469"/>
     <use xlink:href="#OpenSans-Bold-35" x="171.533203"/>
    </g>
   </g>
   <g id="text_43">
    <!-- 256 -->
    <g style="fill: #37539c" transform="translate(89.961491 249.695566) rotate(-45) scale(0.07 -0.07)">
     <use xlink:href="#OpenSans-Bold-32"/>
     <use xlink:href="#OpenSans-Bold-35" x="57.177734"/>
     <use xlink:href="#OpenSans-Bold-36" x="114.355469"/>
    </g>
   </g>
   <g id="text_44">
    <!-- 287 -->
    <g style="fill: #37539c" transform="translate(187.346447 243.526705) rotate(-45) scale(0.07 -0.07)">
     <use xlink:href="#OpenSans-Bold-32"/>
     <use xlink:href="#OpenSans-Bold-38" x="57.177734"/>
     <use xlink:href="#OpenSans-Bold-37" x="114.355469"/>
    </g>
   </g>
   <g id="text_45">
    <!-- 326 -->
    <g style="fill: #37539c" transform="translate(284.731403 235.76588) rotate(-45) scale(0.07 -0.07)">
     <use xlink:href="#OpenSans-Bold-33"/>
     <use xlink:href="#OpenSans-Bold-32" x="57.177734"/>
     <use xlink:href="#OpenSans-Bold-36" x="114.355469"/>
    </g>
   </g>
   <g id="text_46">
    <!-- 377 -->
    <g style="fill: #37539c" transform="translate(382.116358 225.61711) rotate(-45) scale(0.07 -0.07)">
     <use xlink:href="#OpenSans-Bold-33"/>
     <use xlink:href="#OpenSans-Bold-37" x="57.177734"/>
     <use xlink:href="#OpenSans-Bold-37" x="114.355469"/>
    </g>
   </g>
   <g id="text_47">
    <!-- 334 -->
    <g style="fill: #37539c" transform="translate(479.501314 234.173916) rotate(-45) scale(0.07 -0.07)">
     <use xlink:href="#OpenSans-Bold-33"/>
     <use xlink:href="#OpenSans-Bold-33" x="57.177734"/>
     <use xlink:href="#OpenSans-Bold-34" x="114.355469"/>
    </g>
   </g>
   <g id="text_48">
    <!-- 460 -->
    <g style="fill: #37539c" transform="translate(576.88627 209.100482) rotate(-45) scale(0.07 -0.07)">
     <use xlink:href="#OpenSans-Bold-34"/>
     <use xlink:href="#OpenSans-Bold-36" x="57.177734"/>
     <use xlink:href="#OpenSans-Bold-30" x="114.355469"/>
    </g>
   </g>
   <g id="text_49">
    <!-- 371 -->
    <g style="fill: #37539c" transform="translate(674.271226 226.811083) rotate(-45) scale(0.07 -0.07)">
     <use xlink:href="#OpenSans-Bold-33"/>
     <use xlink:href="#OpenSans-Bold-37" x="57.177734"/>
     <use xlink:href="#OpenSans-Bold-31" x="114.355469"/>
    </g>
   </g>
   <g id="text_50">
    <!-- 445 -->
    <g style="fill: #37539c" transform="translate(771.656181 212.085415) rotate(-45) scale(0.07 -0.07)">
     <use xlink:href="#OpenSans-Bold-34"/>
     <use xlink:href="#OpenSans-Bold-34" x="57.177734"/>
     <use xlink:href="#OpenSans-Bold-35" x="114.355469"/>
    </g>
   </g>
   <g id="text_51">
    <!-- 505 -->
    <g style="fill: #37539c" transform="translate(869.041137 200.145684) rotate(-45) scale(0.07 -0.07)">
     <use xlink:href="#OpenSans-Bold-35"/>
     <use xlink:href="#OpenSans-Bold-30" x="57.177734"/>
     <use xlink:href="#OpenSans-Bold-35" x="114.355469"/>
    </g>
   </g>
   <g id="text_52">
    <!-- 427 -->
    <g style="fill: #37539c" transform="translate(966.426093 215.667334) rotate(-45) scale(0.07 -0.07)">
     <use xlink:href="#OpenSans-Bold-34"/>
     <use xlink:href="#OpenSans-Bold-32" x="57.177734"/>
     <use xlink:href="#OpenSans-Bold-37" x="114.355469"/>
    </g>
   </g>
   <g id="text_53">
    <!-- 399 -->
    <g style="fill: #37539c" transform="translate(1063.811049 221.239208) rotate(-45) scale(0.07 -0.07)">
     <use xlink:href="#OpenSans-Bold-33"/>
     <use xlink:href="#OpenSans-Bold-39" x="57.177734"/>
     <use xlink:href="#OpenSans-Bold-39" x="114.355469"/>
    </g>
   </g>
   <g id="text_54">
    <!-- 16 -->
    <g style="fill: #37539c" transform="translate(102.506132 297.454488) rotate(-45) scale(0.07 -0.07)">
     <use xlink:href="#OpenSans-Bold-31"/>
     <use xlink:href="#OpenSans-Bold-36" x="57.177734"/>
    </g>
   </g>
   <g id="text_55">
    <!-- 0 -->
    <g style="fill: #37539c" transform="translate(201.30602 300.638416) rotate(-45) scale(0.07 -0.07)">
     <use xlink:href="#OpenSans-Bold-30"/>
    </g>
   </g>
   <g id="text_56">
    <!-- 2 -->
    <g style="fill: #37539c" transform="translate(298.690975 300.240425) rotate(-45) scale(0.07 -0.07)">
     <use xlink:href="#OpenSans-Bold-32"/>
    </g>
   </g>
   <g id="text_57">
    <!-- 0 -->
    <g style="fill: #37539c" transform="translate(396.075931 300.638416) rotate(-45) scale(0.07 -0.07)">
     <use xlink:href="#OpenSans-Bold-30"/>
    </g>
   </g>
   <g id="text_58">
    <!-- 6 -->
    <g style="fill: #37539c" transform="translate(493.460887 299.444443) rotate(-45) scale(0.07 -0.07)">
     <use xlink:href="#OpenSans-Bold-36"/>
    </g>
   </g>
   <g id="text_59">
    <!-- 5 -->
    <g style="fill: #37539c" transform="translate(590.845843 299.643439) rotate(-45) scale(0.07 -0.07)">
     <use xlink:href="#OpenSans-Bold-35"/>
    </g>
   </g>
   <g id="text_60">
    <!-- 6 -->
    <g style="fill: #37539c" transform="translate(688.230798 299.444443) rotate(-45) scale(0.07 -0.07)">
     <use xlink:href="#OpenSans-Bold-36"/>
    </g>
   </g>
   <g id="text_61">
    <!-- 10 -->
    <g style="fill: #37539c" transform="translate(784.200822 298.648461) rotate(-45) scale(0.07 -0.07)">
     <use xlink:href="#OpenSans-Bold-31"/>
     <use xlink:href="#OpenSans-Bold-30" x="57.177734"/>
    </g>
   </g>
   <g id="text_62">
    <!-- 23 -->
    <g style="fill: #37539c" transform="translate(881.585778 296.06152) rotate(-45) scale(0.07 -0.07)">
     <use xlink:href="#OpenSans-Bold-32"/>
     <use xlink:href="#OpenSans-Bold-33" x="57.177734"/>
    </g>
   </g>
   <g id="text_63">
    <!-- 9 -->
    <g style="fill: #37539c" transform="translate(980.385666 298.847457) rotate(-45) scale(0.07 -0.07)">
     <use xlink:href="#OpenSans-Bold-39"/>
    </g>
   </g>
   <g id="text_64">
    <!-- 27 -->
    <g style="fill: #37539c" transform="translate(1076.35569 295.265538) rotate(-45) scale(0.07 -0.07)">
     <use xlink:href="#OpenSans-Bold-32"/>
     <use xlink:href="#OpenSans-Bold-37" x="57.177734"/>
    </g>
   </g>
   <g id="text_65">
    <!-- 9 -->
    <g style="fill: #37539c" transform="translate(115.050773 298.847457) rotate(-45) scale(0.07 -0.07)">
     <use xlink:href="#OpenSans-Bold-39"/>
    </g>
   </g>
   <g id="text_66">
    <!-- 33 -->
    <g style="fill: #37539c" transform="translate(211.020797 294.071565) rotate(-45) scale(0.07 -0.07)">
     <use xlink:href="#OpenSans-Bold-33"/>
     <use xlink:href="#OpenSans-Bold-33" x="57.177734"/>
    </g>
   </g>
   <g id="text_67">
    <!-- 54 -->
    <g style="fill: #37539c" transform="translate(308.405753 289.892659) rotate(-45) scale(0.07 -0.07)">
     <use xlink:href="#OpenSans-Bold-35"/>
     <use xlink:href="#OpenSans-Bold-34" x="57.177734"/>
    </g>
   </g>
   <g id="text_68">
    <!-- 48 -->
    <g style="fill: #37539c" transform="translate(405.790709 291.086632) rotate(-45) scale(0.07 -0.07)">
     <use xlink:href="#OpenSans-Bold-34"/>
     <use xlink:href="#OpenSans-Bold-38" x="57.177734"/>
    </g>
   </g>
   <g id="text_69">
    <!-- 82 -->
    <g style="fill: #37539c" transform="translate(503.175664 284.320785) rotate(-45) scale(0.07 -0.07)">
     <use xlink:href="#OpenSans-Bold-38"/>
     <use xlink:href="#OpenSans-Bold-32" x="57.177734"/>
    </g>
   </g>
   <g id="text_70">
    <!-- 124 -->
    <g style="fill: #37539c" transform="translate(599.145688 275.962973) rotate(-45) scale(0.07 -0.07)">
     <use xlink:href="#OpenSans-Bold-31"/>
     <use xlink:href="#OpenSans-Bold-32" x="57.177734"/>
     <use xlink:href="#OpenSans-Bold-34" x="114.355469"/>
    </g>
   </g>
   <g id="text_71">
    <!-- 107 -->
    <g style="fill: #37539c" transform="translate(696.530644 279.345897) rotate(-45) scale(0.07 -0.07)">
     <use xlink:href="#OpenSans-Bold-31"/>
     <use xlink:href="#OpenSans-Bold-30" x="57.177734"/>
     <use xlink:href="#OpenSans-Bold-37" x="114.355469"/>
    </g>
   </g>
   <g id="text_72">
    <!-- 116 -->
    <g style="fill: #37539c" transform="translate(793.9156 277.554937) rotate(-45) scale(0.07 -0.07)">
     <use xlink:href="#OpenSans-Bold-31"/>
     <use xlink:href="#OpenSans-Bold-31" x="57.177734"/>
     <use xlink:href="#OpenSans-Bold-36" x="114.355469"/>
    </g>
   </g>
   <g id="text_73">
    <!-- 94 -->
    <g style="fill: #37539c" transform="translate(892.715487 281.932839) rotate(-45) scale(0.07 -0.07)">
     <use xlink:href="#OpenSans-Bold-39"/>
     <use xlink:href="#OpenSans-Bold-34" x="57.177734"/>
    </g>
   </g>
   <g id="text_74">
    <!-- 75 -->
    <g style="fill: #37539c" transform="translate(990.100443 285.713753) rotate(-45) scale(0.07 -0.07)">
     <use xlink:href="#OpenSans-Bold-37"/>
     <use xlink:href="#OpenSans-Bold-35" x="57.177734"/>
    </g>
   </g>
   <g id="text_75">
    <!-- 115 -->
    <g style="fill: #37539c" transform="translate(1086.070467 277.753933) rotate(-45) scale(0.07 -0.07)">
     <use xlink:href="#OpenSans-Bold-31"/>
     <use xlink:href="#OpenSans-Bold-31" x="57.177734"/>
     <use xlink:href="#OpenSans-Bold-35" x="114.355469"/>
    </g>
   </g>
   <g id="text_76">
    <!-- 3 -->
    <g style="fill: #37539c" transform="translate(126.180482 300.04143) rotate(-45) scale(0.07 -0.07)">
     <use xlink:href="#OpenSans-Bold-33"/>
    </g>
   </g>
   <g id="text_77">
    <!-- 3 -->
    <g style="fill: #37539c" transform="translate(223.565438 300.04143) rotate(-45) scale(0.07 -0.07)">
     <use xlink:href="#OpenSans-Bold-33"/>
    </g>
   </g>
   <g id="text_78">
    <!-- 0 -->
    <g style="fill: #37539c" transform="translate(320.950394 300.638416) rotate(-45) scale(0.07 -0.07)">
     <use xlink:href="#OpenSans-Bold-30"/>
    </g>
   </g>
   <g id="text_79">
    <!-- 2 -->
    <g style="fill: #37539c" transform="translate(418.335349 300.240425) rotate(-45) scale(0.07 -0.07)">
     <use xlink:href="#OpenSans-Bold-32"/>
    </g>
   </g>
   <g id="text_80">
    <!-- 1 -->
    <g style="fill: #37539c" transform="translate(515.720305 300.439421) rotate(-45) scale(0.07 -0.07)">
     <use xlink:href="#OpenSans-Bold-31"/>
    </g>
   </g>
   <g id="text_81">
    <!-- 4 -->
    <g style="fill: #37539c" transform="translate(613.105261 299.842434) rotate(-45) scale(0.07 -0.07)">
     <use xlink:href="#OpenSans-Bold-34"/>
    </g>
   </g>
   <g id="text_82">
    <!-- 7 -->
    <g style="fill: #37539c" transform="translate(710.490217 299.245448) rotate(-45) scale(0.07 -0.07)">
     <use xlink:href="#OpenSans-Bold-37"/>
    </g>
   </g>
   <g id="text_83">
    <!-- 6 -->
    <g style="fill: #37539c" transform="translate(807.875172 299.444443) rotate(-45) scale(0.07 -0.07)">
     <use xlink:href="#OpenSans-Bold-36"/>
    </g>
   </g>
   <g id="text_84">
    <!-- 13 -->
    <g style="fill: #37539c" transform="translate(903.845197 298.051475) rotate(-45) scale(0.07 -0.07)">
     <use xlink:href="#OpenSans-Bold-31"/>
     <use xlink:href="#OpenSans-Bold-33" x="57.177734"/>
    </g>
   </g>
   <g id="text_85">
    <!-- 1 -->
    <g style="fill: #37539c" transform="translate(1002.645084 300.439421) rotate(-45) scale(0.07 -0.07)">
     <use xlink:href="#OpenSans-Bold-31"/>
    </g>
   </g>
   <g id="text_86">
    <!-- 7 -->
    <g style="fill: #37539c" transform="translate(1100.03004 299.245448) rotate(-45) scale(0.07 -0.07)">
     <use xlink:href="#OpenSans-Bold-37"/>
    </g>
   </g>
   <g id="text_87">
    <!-- 2 -->
    <g style="fill: #37539c" transform="translate(137.310191 300.240425) rotate(-45) scale(0.07 -0.07)">
     <use xlink:href="#OpenSans-Bold-32"/>
    </g>
   </g>
   <g id="text_88">
    <!-- 1 -->
    <g style="fill: #37539c" transform="translate(234.695147 300.439421) rotate(-45) scale(0.07 -0.07)">
     <use xlink:href="#OpenSans-Bold-31"/>
    </g>
   </g>
   <g id="text_89">
    <!-- 7 -->
    <g style="fill: #37539c" transform="translate(332.080103 299.245448) rotate(-45) scale(0.07 -0.07)">
     <use xlink:href="#OpenSans-Bold-37"/>
    </g>
   </g>
   <g id="text_90">
    <!-- 1 -->
    <g style="fill: #37539c" transform="translate(429.465059 300.439421) rotate(-45) scale(0.07 -0.07)">
     <use xlink:href="#OpenSans-Bold-31"/>
    </g>
   </g>
   <g id="text_91">
    <!-- 0 -->
    <g style="fill: #37539c" transform="translate(526.850014 300.638416) rotate(-45) scale(0.07 -0.07)">
     <use xlink:href="#OpenSans-Bold-30"/>
    </g>
   </g>
   <g id="text_92">
    <!-- 2 -->
    <g style="fill: #37539c" transform="translate(624.23497 300.240425) rotate(-45) scale(0.07 -0.07)">
     <use xlink:href="#OpenSans-Bold-32"/>
    </g>
   </g>
   <g id="text_93">
    <!-- 0 -->
    <g style="fill: #37539c" transform="translate(721.619926 300.638416) rotate(-45) scale(0.07 -0.07)">
     <use xlink:href="#OpenSans-Bold-30"/>
    </g>
   </g>
   <g id="text_94">
    <!-- 0 -->
    <g style="fill: #37539c" transform="translate(819.004882 300.638416) rotate(-45) scale(0.07 -0.07)">
     <use xlink:href="#OpenSans-Bold-30"/>
    </g>
   </g>
   <g id="text_95">
    <!-- 1 -->
    <g style="fill: #37539c" transform="translate(916.389837 300.439421) rotate(-45) scale(0.07 -0.07)">
     <use xlink:href="#OpenSans-Bold-31"/>
    </g>
   </g>
   <g id="text_96">
    <!-- 2 -->
    <g style="fill: #37539c" transform="translate(1013.774793 300.240425) rotate(-45) scale(0.07 -0.07)">
     <use xlink:href="#OpenSans-Bold-32"/>
    </g>
   </g>
   <g id="text_97">
    <!-- 1 -->
    <g style="fill: #37539c" transform="translate(1111.159749 300.439421) rotate(-45) scale(0.07 -0.07)">
     <use xlink:href="#OpenSans-Bold-31"/>
    </g>
   </g>
   <g id="legend_1">
    <g id="patch_82">
     <path d="M 47.75 153.656574 
L 158.682813 153.656574 
Q 160.682813 153.656574 160.682813 151.656574 
L 160.682813 24.528136 
Q 160.682813 22.528136 158.682813 22.528136 
L 47.75 22.528136 
Q 45.75 22.528136 45.75 24.528136 
L 45.75 151.656574 
Q 45.75 153.656574 47.75 153.656574 
z
" style="fill: #ffffff; opacity: 0.8; stroke: #cccccc; stroke-linejoin: miter"/>
    </g>
    <g id="patch_83">
     <path d="M 49.75 41.088761 
L 69.75 41.088761 
L 69.75 34.088761 
L 49.75 34.088761 
z
" style="fill: #37539c"/>
    </g>
    <g id="text_98">
     <!-- Sin fines de -->
     <g style="fill: #37539c" transform="translate(77.75 34.126574) scale(0.1 -0.1)">
      <defs>
       <path id="OpenSans-Bold-53" d="M 3272 1269 
Q 3272 863 3075 563 
Q 2878 263 2501 100 
Q 2125 -63 1588 -63 
Q 1350 -63 1123 -31 
Q 897 0 689 61 
Q 481 122 294 213 
L 294 1113 
Q 619 969 969 853 
Q 1319 738 1663 738 
Q 1900 738 2045 800 
Q 2191 863 2256 972 
Q 2322 1081 2322 1222 
Q 2322 1394 2206 1516 
Q 2091 1638 1889 1744 
Q 1688 1850 1434 1972 
Q 1275 2047 1087 2155 
Q 900 2263 731 2419 
Q 563 2575 455 2798 
Q 347 3022 347 3334 
Q 347 3744 534 4034 
Q 722 4325 1070 4479 
Q 1419 4634 1894 4634 
Q 2250 4634 2573 4551 
Q 2897 4469 3250 4313 
L 2938 3559 
Q 2622 3688 2372 3758 
Q 2122 3828 1863 3828 
Q 1681 3828 1553 3770 
Q 1425 3713 1359 3608 
Q 1294 3503 1294 3366 
Q 1294 3203 1389 3092 
Q 1484 2981 1676 2878 
Q 1869 2775 2156 2638 
Q 2506 2472 2754 2292 
Q 3003 2113 3137 1870 
Q 3272 1628 3272 1269 
z
" transform="scale(0.015625)"/>
       <path id="OpenSans-Bold-69" d="M 1453 3494 
L 1453 0 
L 500 0 
L 500 3494 
L 1453 3494 
z
M 978 4863 
Q 1191 4863 1344 4764 
Q 1497 4666 1497 4397 
Q 1497 4131 1344 4029 
Q 1191 3928 978 3928 
Q 763 3928 611 4029 
Q 459 4131 459 4397 
Q 459 4666 611 4764 
Q 763 4863 978 4863 
z
" transform="scale(0.015625)"/>
       <path id="OpenSans-Bold-6e" d="M 2484 3559 
Q 3044 3559 3384 3254 
Q 3725 2950 3725 2278 
L 3725 0 
L 2772 0 
L 2772 2041 
Q 2772 2416 2636 2606 
Q 2500 2797 2209 2797 
Q 1772 2797 1612 2500 
Q 1453 2203 1453 1644 
L 1453 0 
L 500 0 
L 500 3494 
L 1228 3494 
L 1356 3047 
L 1409 3047 
Q 1522 3228 1689 3340 
Q 1856 3453 2061 3506 
Q 2266 3559 2484 3559 
z
" transform="scale(0.015625)"/>
       <path id="OpenSans-Bold-20" transform="scale(0.015625)"/>
       <path id="OpenSans-Bold-66" d="M 2431 2778 
L 1606 2778 
L 1606 0 
L 653 0 
L 653 2778 
L 128 2778 
L 128 3238 
L 653 3494 
L 653 3750 
Q 653 4197 804 4445 
Q 956 4694 1232 4795 
Q 1509 4897 1888 4897 
Q 2166 4897 2394 4851 
Q 2622 4806 2766 4750 
L 2522 4050 
Q 2413 4084 2284 4112 
Q 2156 4141 1991 4141 
Q 1791 4141 1698 4020 
Q 1606 3900 1606 3713 
L 1606 3494 
L 2431 3494 
L 2431 2778 
z
" transform="scale(0.015625)"/>
       <path id="OpenSans-Bold-65" d="M 1941 3559 
Q 2425 3559 2775 3373 
Q 3125 3188 3315 2834 
Q 3506 2481 3506 1972 
L 3506 1509 
L 1253 1509 
Q 1269 1106 1495 876 
Q 1722 647 2125 647 
Q 2459 647 2737 715 
Q 3016 784 3309 922 
L 3309 184 
Q 3050 56 2767 -3 
Q 2484 -63 2081 -63 
Q 1556 -63 1151 131 
Q 747 325 517 722 
Q 288 1119 288 1722 
Q 288 2334 495 2742 
Q 703 3150 1075 3354 
Q 1447 3559 1941 3559 
z
M 1947 2881 
Q 1669 2881 1486 2703 
Q 1303 2525 1275 2144 
L 2613 2144 
Q 2609 2356 2536 2522 
Q 2463 2688 2317 2784 
Q 2172 2881 1947 2881 
z
" transform="scale(0.015625)"/>
       <path id="OpenSans-Bold-73" d="M 2938 1038 
Q 2938 681 2770 436 
Q 2603 191 2272 64 
Q 1941 -63 1447 -63 
Q 1081 -63 820 -16 
Q 559 31 294 141 
L 294 928 
Q 578 800 904 717 
Q 1231 634 1478 634 
Q 1756 634 1876 717 
Q 1997 800 1997 934 
Q 1997 1022 1948 1092 
Q 1900 1163 1740 1252 
Q 1581 1341 1241 1484 
Q 913 1622 702 1762 
Q 491 1903 389 2095 
Q 288 2288 288 2584 
Q 288 3069 664 3314 
Q 1041 3559 1672 3559 
Q 1997 3559 2292 3493 
Q 2588 3428 2900 3284 
L 2613 2597 
Q 2353 2709 2123 2781 
Q 1894 2853 1656 2853 
Q 1447 2853 1340 2797 
Q 1234 2741 1234 2625 
Q 1234 2541 1289 2475 
Q 1344 2409 1501 2329 
Q 1659 2250 1966 2125 
Q 2263 2003 2481 1870 
Q 2700 1738 2819 1542 
Q 2938 1347 2938 1038 
z
" transform="scale(0.015625)"/>
       <path id="OpenSans-Bold-64" d="M 1606 -63 
Q 1022 -63 655 395 
Q 288 853 288 1741 
Q 288 2638 659 3098 
Q 1031 3559 1631 3559 
Q 1881 3559 2072 3490 
Q 2263 3422 2402 3306 
Q 2541 3191 2638 3047 
L 2669 3047 
Q 2650 3147 2623 3342 
Q 2597 3538 2597 3744 
L 2597 4863 
L 3553 4863 
L 3553 0 
L 2822 0 
L 2638 453 
L 2597 453 
Q 2506 309 2370 192 
Q 2234 75 2046 6 
Q 1859 -63 1606 -63 
z
M 1941 697 
Q 2331 697 2492 930 
Q 2653 1163 2663 1631 
L 2663 1734 
Q 2663 2244 2506 2514 
Q 2350 2784 1925 2784 
Q 1609 2784 1431 2512 
Q 1253 2241 1253 1728 
Q 1253 1216 1433 956 
Q 1613 697 1941 697 
z
" transform="scale(0.015625)"/>
      </defs>
      <use xlink:href="#OpenSans-Bold-53"/>
      <use xlink:href="#OpenSans-Bold-69" x="55.078125"/>
      <use xlink:href="#OpenSans-Bold-6e" x="85.595703"/>
      <use xlink:href="#OpenSans-Bold-20" x="151.318359"/>
      <use xlink:href="#OpenSans-Bold-66" x="177.294922"/>
      <use xlink:href="#OpenSans-Bold-69" x="216.015625"/>
      <use xlink:href="#OpenSans-Bold-6e" x="246.533203"/>
      <use xlink:href="#OpenSans-Bold-65" x="312.255859"/>
      <use xlink:href="#OpenSans-Bold-73" x="371.337891"/>
      <use xlink:href="#OpenSans-Bold-20" x="421.044922"/>
      <use xlink:href="#OpenSans-Bold-64" x="447.021484"/>
      <use xlink:href="#OpenSans-Bold-65" x="510.302734"/>
     </g>
     <!-- lucro -->
     <g style="fill: #37539c" transform="translate(77.75 45.647824) scale(0.1 -0.1)">
      <defs>
       <path id="OpenSans-Bold-6c" d="M 1453 0 
L 500 0 
L 500 4863 
L 1453 4863 
L 1453 0 
z
" transform="scale(0.015625)"/>
       <path id="OpenSans-Bold-75" d="M 3706 3494 
L 3706 0 
L 2975 0 
L 2847 447 
L 2797 447 
Q 2684 269 2515 156 
Q 2347 44 2144 -9 
Q 1941 -63 1722 -63 
Q 1347 -63 1069 70 
Q 791 203 636 484 
Q 481 766 481 1216 
L 481 3494 
L 1434 3494 
L 1434 1453 
Q 1434 1078 1568 887 
Q 1703 697 1997 697 
Q 2288 697 2453 830 
Q 2619 963 2686 1220 
Q 2753 1478 2753 1850 
L 2753 3494 
L 3706 3494 
z
" transform="scale(0.015625)"/>
       <path id="OpenSans-Bold-63" d="M 1919 -63 
Q 1400 -63 1034 126 
Q 669 316 478 712 
Q 288 1109 288 1728 
Q 288 2369 505 2773 
Q 722 3178 1108 3368 
Q 1494 3559 2003 3559 
Q 2366 3559 2630 3489 
Q 2894 3419 3091 3322 
L 2809 2584 
Q 2584 2675 2390 2733 
Q 2197 2791 2003 2791 
Q 1753 2791 1587 2673 
Q 1422 2556 1340 2322 
Q 1259 2088 1259 1734 
Q 1259 1388 1346 1159 
Q 1434 931 1600 820 
Q 1766 709 2003 709 
Q 2300 709 2531 789 
Q 2763 869 2981 1013 
L 2981 197 
Q 2763 59 2523 -2 
Q 2284 -63 1919 -63 
z
" transform="scale(0.015625)"/>
       <path id="OpenSans-Bold-72" d="M 2450 3559 
Q 2522 3559 2617 3551 
Q 2713 3544 2772 3531 
L 2700 2638 
Q 2653 2653 2567 2661 
Q 2481 2669 2419 2669 
Q 2234 2669 2061 2622 
Q 1888 2575 1750 2470 
Q 1613 2366 1533 2195 
Q 1453 2025 1453 1778 
L 1453 0 
L 500 0 
L 500 3494 
L 1222 3494 
L 1363 2906 
L 1409 2906 
Q 1513 3084 1667 3232 
Q 1822 3381 2020 3470 
Q 2219 3559 2450 3559 
z
" transform="scale(0.015625)"/>
      </defs>
      <use xlink:href="#OpenSans-Bold-6c"/>
      <use xlink:href="#OpenSans-Bold-75" x="30.517578"/>
      <use xlink:href="#OpenSans-Bold-63" x="96.240234"/>
      <use xlink:href="#OpenSans-Bold-72" x="147.65625"/>
      <use xlink:href="#OpenSans-Bold-6f" x="193.066406"/>
     </g>
    </g>
    <g id="patch_84">
     <path d="M 49.75 60.649386 
L 69.75 60.649386 
L 69.75 53.649386 
L 49.75 53.649386 
z
" style="fill: #59c3c3"/>
    </g>
    <g id="text_99">
     <!-- Educacional -->
     <g style="fill: #37539c" transform="translate(77.75 60.649386) scale(0.1 -0.1)">
      <defs>
       <path id="OpenSans-Bold-45" d="M 3206 0 
L 575 0 
L 575 4569 
L 3206 4569 
L 3206 3775 
L 1544 3775 
L 1544 2772 
L 3091 2772 
L 3091 1978 
L 1544 1978 
L 1544 800 
L 3206 800 
L 3206 0 
z
" transform="scale(0.015625)"/>
       <path id="OpenSans-Bold-61" d="M 1931 3566 
Q 2634 3566 3009 3259 
Q 3384 2953 3384 2328 
L 3384 0 
L 2719 0 
L 2534 475 
L 2509 475 
Q 2359 288 2203 169 
Q 2047 50 1844 -6 
Q 1641 -63 1350 -63 
Q 1041 -63 795 56 
Q 550 175 409 420 
Q 269 666 269 1044 
Q 269 1600 659 1864 
Q 1050 2128 1831 2156 
L 2438 2175 
L 2438 2328 
Q 2438 2603 2294 2731 
Q 2150 2859 1894 2859 
Q 1641 2859 1397 2787 
Q 1153 2716 909 2606 
L 594 3250 
Q 872 3397 1217 3481 
Q 1563 3566 1931 3566 
z
M 2438 1619 
L 2069 1606 
Q 1606 1594 1426 1441 
Q 1247 1288 1247 1038 
Q 1247 819 1375 726 
Q 1503 634 1709 634 
Q 2016 634 2227 815 
Q 2438 997 2438 1331 
L 2438 1619 
z
" transform="scale(0.015625)"/>
      </defs>
      <use xlink:href="#OpenSans-Bold-45"/>
      <use xlink:href="#OpenSans-Bold-64" x="56.005859"/>
      <use xlink:href="#OpenSans-Bold-75" x="119.287109"/>
      <use xlink:href="#OpenSans-Bold-63" x="185.009766"/>
      <use xlink:href="#OpenSans-Bold-61" x="236.425781"/>
      <use xlink:href="#OpenSans-Bold-63" x="296.826172"/>
      <use xlink:href="#OpenSans-Bold-69" x="348.242188"/>
      <use xlink:href="#OpenSans-Bold-6f" x="378.759766"/>
      <use xlink:href="#OpenSans-Bold-6e" x="440.673828"/>
      <use xlink:href="#OpenSans-Bold-61" x="506.396484"/>
      <use xlink:href="#OpenSans-Bold-6c" x="566.796875"/>
     </g>
    </g>
    <g id="patch_85">
     <path d="M 49.75 75.650949 
L 69.75 75.650949 
L 69.75 68.650949 
L 49.75 68.650949 
z
" style="fill: #f45b69"/>
    </g>
    <g id="text_100">
     <!-- Salud -->
     <g style="fill: #37539c" transform="translate(77.75 75.650949) scale(0.1 -0.1)">
      <use xlink:href="#OpenSans-Bold-53"/>
      <use xlink:href="#OpenSans-Bold-61" x="55.078125"/>
      <use xlink:href="#OpenSans-Bold-6c" x="115.478516"/>
      <use xlink:href="#OpenSans-Bold-75" x="145.996094"/>
      <use xlink:href="#OpenSans-Bold-64" x="211.71875"/>
     </g>
    </g>
    <g id="patch_86">
     <path d="M 49.75 90.652511 
L 69.75 90.652511 
L 69.75 83.652511 
L 49.75 83.652511 
z
" style="fill: #52489c"/>
    </g>
    <g id="text_101">
     <!-- Gubernamental -->
     <g style="fill: #37539c" transform="translate(77.75 90.652511) scale(0.1 -0.1)">
      <defs>
       <path id="OpenSans-Bold-47" d="M 2309 2566 
L 4122 2566 
L 4122 197 
Q 3763 78 3375 7 
Q 2988 -63 2497 -63 
Q 1816 -63 1341 206 
Q 866 475 619 1000 
Q 372 1525 372 2291 
Q 372 3009 648 3534 
Q 925 4059 1458 4346 
Q 1991 4634 2759 4634 
Q 3122 4634 3475 4556 
Q 3828 4478 4116 4353 
L 3794 3578 
Q 3584 3684 3315 3756 
Q 3047 3828 2753 3828 
Q 2331 3828 2020 3634 
Q 1709 3441 1539 3092 
Q 1369 2744 1369 2272 
Q 1369 1825 1491 1479 
Q 1613 1134 1875 939 
Q 2138 744 2559 744 
Q 2766 744 2908 764 
Q 3050 784 3175 806 
L 3175 1759 
L 2309 1759 
L 2309 2566 
z
" transform="scale(0.015625)"/>
       <path id="OpenSans-Bold-62" d="M 1453 4863 
L 1453 3731 
Q 1453 3534 1442 3340 
Q 1431 3147 1416 3041 
L 1453 3041 
Q 1591 3256 1828 3407 
Q 2066 3559 2444 3559 
Q 3031 3559 3397 3100 
Q 3763 2641 3763 1753 
Q 3763 1156 3594 751 
Q 3425 347 3122 142 
Q 2819 -63 2419 -63 
Q 2034 -63 1812 75 
Q 1591 213 1453 384 
L 1388 384 
L 1228 0 
L 500 0 
L 500 4863 
L 1453 4863 
z
M 2138 2797 
Q 1888 2797 1741 2694 
Q 1594 2591 1526 2384 
Q 1459 2178 1453 1863 
L 1453 1759 
Q 1453 1250 1603 979 
Q 1753 709 2150 709 
Q 2444 709 2617 981 
Q 2791 1253 2791 1766 
Q 2791 2278 2616 2537 
Q 2441 2797 2138 2797 
z
" transform="scale(0.015625)"/>
       <path id="OpenSans-Bold-6d" d="M 4603 3559 
Q 5197 3559 5501 3254 
Q 5806 2950 5806 2278 
L 5806 0 
L 4850 0 
L 4850 2041 
Q 4850 2416 4722 2606 
Q 4594 2797 4325 2797 
Q 3947 2797 3787 2526 
Q 3628 2256 3628 1753 
L 3628 0 
L 2675 0 
L 2675 2041 
Q 2675 2291 2619 2459 
Q 2563 2628 2447 2712 
Q 2331 2797 2150 2797 
Q 1884 2797 1732 2664 
Q 1581 2531 1517 2273 
Q 1453 2016 1453 1644 
L 1453 0 
L 500 0 
L 500 3494 
L 1228 3494 
L 1356 3047 
L 1409 3047 
Q 1516 3228 1677 3340 
Q 1838 3453 2031 3506 
Q 2225 3559 2425 3559 
Q 2809 3559 3076 3434 
Q 3344 3309 3488 3047 
L 3572 3047 
Q 3728 3316 4014 3437 
Q 4300 3559 4603 3559 
z
" transform="scale(0.015625)"/>
       <path id="OpenSans-Bold-74" d="M 1972 697 
Q 2128 697 2276 728 
Q 2425 759 2572 806 
L 2572 97 
Q 2419 28 2192 -17 
Q 1966 -63 1697 -63 
Q 1384 -63 1136 39 
Q 888 141 745 392 
Q 603 644 603 1094 
L 603 2778 
L 147 2778 
L 147 3181 
L 672 3500 
L 947 4238 
L 1556 4238 
L 1556 3494 
L 2534 3494 
L 2534 2778 
L 1556 2778 
L 1556 1094 
Q 1556 894 1670 795 
Q 1784 697 1972 697 
z
" transform="scale(0.015625)"/>
      </defs>
      <use xlink:href="#OpenSans-Bold-47"/>
      <use xlink:href="#OpenSans-Bold-75" x="72.412109"/>
      <use xlink:href="#OpenSans-Bold-62" x="138.134766"/>
      <use xlink:href="#OpenSans-Bold-65" x="201.416016"/>
      <use xlink:href="#OpenSans-Bold-72" x="260.498047"/>
      <use xlink:href="#OpenSans-Bold-6e" x="305.908203"/>
      <use xlink:href="#OpenSans-Bold-61" x="371.630859"/>
      <use xlink:href="#OpenSans-Bold-6d" x="432.03125"/>
      <use xlink:href="#OpenSans-Bold-65" x="530.224609"/>
      <use xlink:href="#OpenSans-Bold-6e" x="589.306641"/>
      <use xlink:href="#OpenSans-Bold-74" x="655.029297"/>
      <use xlink:href="#OpenSans-Bold-61" x="698.4375"/>
      <use xlink:href="#OpenSans-Bold-6c" x="758.837891"/>
     </g>
    </g>
    <g id="patch_87">
     <path d="M 49.75 112.653761 
L 69.75 112.653761 
L 69.75 105.653761 
L 49.75 105.653761 
z
" style="fill: #9fb7b9"/>
    </g>
    <g id="text_102">
     <!-- Centro de -->
     <g style="fill: #37539c" transform="translate(77.75 105.654074) scale(0.1 -0.1)">
      <defs>
       <path id="OpenSans-Bold-43" d="M 2516 3828 
Q 2238 3828 2023 3720 
Q 1809 3613 1664 3409 
Q 1519 3206 1444 2918 
Q 1369 2631 1369 2272 
Q 1369 1788 1489 1445 
Q 1609 1103 1862 923 
Q 2116 744 2516 744 
Q 2794 744 3073 806 
Q 3353 869 3681 984 
L 3681 172 
Q 3378 47 3084 -8 
Q 2791 -63 2425 -63 
Q 1719 -63 1264 229 
Q 809 522 590 1048 
Q 372 1575 372 2278 
Q 372 2797 512 3228 
Q 653 3659 925 3975 
Q 1197 4291 1597 4462 
Q 1997 4634 2516 4634 
Q 2856 4634 3198 4548 
Q 3541 4463 3853 4313 
L 3541 3525 
Q 3284 3647 3025 3737 
Q 2766 3828 2516 3828 
z
" transform="scale(0.015625)"/>
      </defs>
      <use xlink:href="#OpenSans-Bold-43"/>
      <use xlink:href="#OpenSans-Bold-65" x="63.720703"/>
      <use xlink:href="#OpenSans-Bold-6e" x="122.802734"/>
      <use xlink:href="#OpenSans-Bold-74" x="188.525391"/>
      <use xlink:href="#OpenSans-Bold-72" x="231.933594"/>
      <use xlink:href="#OpenSans-Bold-6f" x="277.34375"/>
      <use xlink:href="#OpenSans-Bold-20" x="339.257812"/>
      <use xlink:href="#OpenSans-Bold-64" x="365.234375"/>
      <use xlink:href="#OpenSans-Bold-65" x="428.515625"/>
     </g>
     <!-- investigación -->
     <g style="fill: #37539c" transform="translate(77.75 117.250324) scale(0.1 -0.1)">
      <defs>
       <path id="OpenSans-Bold-76" d="M 1331 0 
L 0 3494 
L 997 3494 
L 1672 1503 
Q 1728 1328 1761 1134 
Q 1794 941 1806 788 
L 1831 788 
Q 1841 953 1877 1140 
Q 1913 1328 1972 1503 
L 2644 3494 
L 3641 3494 
L 2309 0 
L 1331 0 
z
" transform="scale(0.015625)"/>
       <path id="OpenSans-Bold-67" d="M 1522 -1538 
Q 791 -1538 405 -1283 
Q 19 -1028 19 -569 
Q 19 -253 216 -40 
Q 413 172 794 263 
Q 647 325 537 467 
Q 428 609 428 769 
Q 428 969 543 1101 
Q 659 1234 878 1363 
Q 603 1481 442 1743 
Q 281 2006 281 2363 
Q 281 2744 448 3011 
Q 616 3278 936 3418 
Q 1256 3559 1716 3559 
Q 1813 3559 1941 3546 
Q 2069 3534 2176 3518 
Q 2284 3503 2322 3494 
L 3541 3494 
L 3541 3009 
L 2994 2869 
Q 3069 2753 3106 2622 
Q 3144 2491 3144 2344 
Q 3144 1781 2751 1467 
Q 2359 1153 1663 1153 
Q 1497 1163 1350 1178 
Q 1278 1122 1240 1059 
Q 1203 997 1203 928 
Q 1203 859 1261 814 
Q 1319 769 1436 745 
Q 1553 722 1728 722 
L 2322 722 
Q 2897 722 3198 475 
Q 3500 228 3500 -250 
Q 3500 -863 2989 -1200 
Q 2478 -1538 1522 -1538 
z
M 1563 -916 
Q 1903 -916 2148 -852 
Q 2394 -788 2525 -670 
Q 2656 -553 2656 -391 
Q 2656 -259 2579 -182 
Q 2503 -106 2348 -75 
Q 2194 -44 1953 -44 
L 1459 -44 
Q 1284 -44 1145 -100 
Q 1006 -156 925 -257 
Q 844 -359 844 -494 
Q 844 -691 1033 -803 
Q 1222 -916 1563 -916 
z
M 1716 1734 
Q 1984 1734 2109 1900 
Q 2234 2066 2234 2350 
Q 2234 2666 2104 2823 
Q 1975 2981 1716 2981 
Q 1453 2981 1322 2823 
Q 1191 2666 1191 2350 
Q 1191 2066 1320 1900 
Q 1450 1734 1716 1734 
z
" transform="scale(0.015625)"/>
       <path id="OpenSans-Bold-f3" d="M 3675 1753 
Q 3675 1316 3558 978 
Q 3441 641 3217 408 
Q 2994 175 2680 56 
Q 2366 -63 1972 -63 
Q 1603 -63 1295 56 
Q 988 175 761 408 
Q 534 641 411 978 
Q 288 1316 288 1753 
Q 288 2334 494 2737 
Q 700 3141 1081 3350 
Q 1463 3559 1991 3559 
Q 2481 3559 2861 3350 
Q 3241 3141 3458 2737 
Q 3675 2334 3675 1753 
z
M 1259 1753 
Q 1259 1409 1334 1175 
Q 1409 941 1568 822 
Q 1728 703 1984 703 
Q 2238 703 2395 822 
Q 2553 941 2626 1175 
Q 2700 1409 2700 1753 
Q 2700 2100 2626 2329 
Q 2553 2559 2393 2675 
Q 2234 2791 1978 2791 
Q 1600 2791 1429 2531 
Q 1259 2272 1259 1753 
z
M 3211 4903 
L 3211 4838 
Q 3121 4750 2974 4622 
Q 2827 4494 2658 4355 
Q 2490 4216 2327 4089 
Q 2165 3963 2043 3878 
L 1408 3878 
L 1408 3963 
Q 1511 4081 1647 4245 
Q 1783 4409 1917 4584 
Q 2052 4759 2143 4903 
L 3211 4903 
z
" transform="scale(0.015625)"/>
      </defs>
      <use xlink:href="#OpenSans-Bold-69"/>
      <use xlink:href="#OpenSans-Bold-6e" x="30.517578"/>
      <use xlink:href="#OpenSans-Bold-76" x="96.240234"/>
      <use xlink:href="#OpenSans-Bold-65" x="153.125"/>
      <use xlink:href="#OpenSans-Bold-73" x="212.207031"/>
      <use xlink:href="#OpenSans-Bold-74" x="261.914062"/>
      <use xlink:href="#OpenSans-Bold-69" x="305.322266"/>
      <use xlink:href="#OpenSans-Bold-67" x="335.839844"/>
      <use xlink:href="#OpenSans-Bold-61" x="392.333984"/>
      <use xlink:href="#OpenSans-Bold-63" x="452.734375"/>
      <use xlink:href="#OpenSans-Bold-69" x="504.150391"/>
      <use xlink:href="#OpenSans-Bold-f3" x="534.667969"/>
      <use xlink:href="#OpenSans-Bold-6e" x="596.582031"/>
     </g>
    </g>
    <g id="patch_88">
     <path d="M 49.75 132.251886 
L 69.75 132.251886 
L 69.75 125.251886 
L 49.75 125.251886 
z
" style="fill: #4062bb"/>
    </g>
    <g id="text_103">
     <!-- Otro -->
     <g style="fill: #37539c" transform="translate(77.75 132.251886) scale(0.1 -0.1)">
      <defs>
       <path id="OpenSans-Bold-4f" d="M 4722 2291 
Q 4722 1763 4590 1330 
Q 4459 897 4192 584 
Q 3925 272 3515 104 
Q 3106 -63 2547 -63 
Q 1988 -63 1578 104 
Q 1169 272 901 584 
Q 634 897 503 1331 
Q 372 1766 372 2297 
Q 372 3006 605 3532 
Q 838 4059 1322 4350 
Q 1806 4641 2553 4641 
Q 3297 4641 3776 4350 
Q 4256 4059 4489 3531 
Q 4722 3003 4722 2291 
z
M 1388 2291 
Q 1388 1813 1508 1467 
Q 1628 1122 1884 936 
Q 2141 750 2547 750 
Q 2959 750 3215 936 
Q 3472 1122 3589 1467 
Q 3706 1813 3706 2291 
Q 3706 3009 3437 3421 
Q 3169 3834 2553 3834 
Q 2144 3834 1886 3648 
Q 1628 3463 1508 3117 
Q 1388 2772 1388 2291 
z
" transform="scale(0.015625)"/>
      </defs>
      <use xlink:href="#OpenSans-Bold-4f"/>
      <use xlink:href="#OpenSans-Bold-74" x="79.589844"/>
      <use xlink:href="#OpenSans-Bold-72" x="122.998047"/>
      <use xlink:href="#OpenSans-Bold-6f" x="168.408203"/>
     </g>
    </g>
    <g id="patch_89">
     <path d="M 49.75 147.253449 
L 69.75 147.253449 
L 69.75 140.253449 
L 49.75 140.253449 
z
" style="fill: #ebebeb"/>
    </g>
    <g id="text_104">
     <!-- Compañia -->
     <g style="fill: #37539c" transform="translate(77.75 147.253449) scale(0.1 -0.1)">
      <defs>
       <path id="OpenSans-Bold-70" d="M 2444 3559 
Q 3034 3559 3398 3100 
Q 3763 2641 3763 1753 
Q 3763 1159 3591 754 
Q 3419 350 3116 143 
Q 2813 -63 2419 -63 
Q 2166 -63 1984 1 
Q 1803 66 1675 167 
Q 1547 269 1453 384 
L 1403 384 
Q 1428 259 1440 128 
Q 1453 -3 1453 -128 
L 1453 -1538 
L 500 -1538 
L 500 3494 
L 1275 3494 
L 1409 3041 
L 1453 3041 
Q 1547 3181 1681 3300 
Q 1816 3419 2005 3489 
Q 2194 3559 2444 3559 
z
M 2138 2797 
Q 1888 2797 1741 2694 
Q 1594 2591 1526 2384 
Q 1459 2178 1453 1863 
L 1453 1759 
Q 1453 1422 1517 1187 
Q 1581 953 1732 831 
Q 1884 709 2150 709 
Q 2369 709 2509 831 
Q 2650 953 2720 1189 
Q 2791 1425 2791 1766 
Q 2791 2278 2631 2537 
Q 2472 2797 2138 2797 
z
" transform="scale(0.015625)"/>
      </defs>
      <use xlink:href="#OpenSans-Bold-43"/>
      <use xlink:href="#OpenSans-Bold-6f" x="63.720703"/>
      <use xlink:href="#OpenSans-Bold-6d" x="125.634766"/>
      <use xlink:href="#OpenSans-Bold-70" x="223.828125"/>
      <use xlink:href="#OpenSans-Bold-61" x="287.109375"/>
      <use xlink:href="#OpenSans-Bold-f1" x="347.509766"/>
      <use xlink:href="#OpenSans-Bold-69" x="413.232422"/>
      <use xlink:href="#OpenSans-Bold-61" x="443.75"/>
     </g>
    </g>
   </g>
  </g>
 </g>
 <defs>
  <clipPath id="p7a07953541">
   <rect x="40.75" y="17.528136" width="1100.45" height="287.299766"/>
  </clipPath>
 </defs>
</svg>
