<?xml version="1.0" encoding="utf-8" standalone="no"?>
<!DOCTYPE svg PUBLIC "-//W3C//DTD SVG 1.1//EN"
  "http://www.w3.org/Graphics/SVG/1.1/DTD/svg11.dtd">
<svg xmlns:xlink="http://www.w3.org/1999/xlink" width="432pt" height="216pt" viewBox="0 0 432 216" xmlns="http://www.w3.org/2000/svg" version="1.1">
 <metadata>
  <rdf:RDF xmlns:dc="http://purl.org/dc/elements/1.1/" xmlns:cc="http://creativecommons.org/ns#" xmlns:rdf="http://www.w3.org/1999/02/22-rdf-syntax-ns#">
   <cc:Work>
    <dc:type rdf:resource="http://purl.org/dc/dcmitype/StillImage"/>
    <dc:date>2024-03-13T18:50:59.401401</dc:date>
    <dc:format>image/svg+xml</dc:format>
    <dc:creator>
     <cc:Agent>
      <dc:title>Matplotlib v3.7.1, https://matplotlib.org/</dc:title>
     </cc:Agent>
    </dc:creator>
   </cc:Work>
  </rdf:RDF>
 </metadata>
 <defs>
  <style type="text/css">*{stroke-linejoin: round; stroke-linecap: butt}</style>
 </defs>
 <g id="figure_1">
  <g id="patch_1">
   <path d="M 0 216 
L 432 216 
L 432 0 
L 0 0 
z
" style="fill: #ffffff"/>
  </g>
  <g id="axes_1">
   <g id="patch_2">
    <path d="M 31.66 179.553594 
L 421.2 179.553594 
L 421.2 13.68 
L 31.66 13.68 
z
" style="fill: #ffffff"/>
   </g>
   <g id="matplotlib.axis_1">
    <g id="xtick_1">
     <g id="line2d_1">
      <defs>
       <path id="mbdc468a7b7" d="M 0 0 
L 0 3.5 
" style="stroke: #37539c; stroke-width: 0.8"/>
      </defs>
      <g>
       <use xlink:href="#mbdc468a7b7" x="49.366364" y="179.553594" style="fill: #37539c; stroke: #37539c; stroke-width: 0.8"/>
      </g>
     </g>
     <g id="text_1">
      <!-- 2013 -->
      <g style="fill: #37539c" transform="translate(44.367561 203.788438) rotate(-45) scale(0.08 -0.08)">
       <defs>
        <path id="OpenSans-Bold-32" d="M 3450 0 
L 256 0 
L 256 672 
L 1403 1831 
Q 1750 2188 1961 2427 
Q 2172 2666 2267 2862 
Q 2363 3059 2363 3284 
Q 2363 3556 2211 3692 
Q 2059 3828 1806 3828 
Q 1541 3828 1291 3706 
Q 1041 3584 769 3359 
L 244 3981 
Q 441 4150 661 4300 
Q 881 4450 1173 4542 
Q 1466 4634 1875 4634 
Q 2325 4634 2648 4471 
Q 2972 4309 3147 4029 
Q 3322 3750 3322 3397 
Q 3322 3019 3172 2706 
Q 3022 2394 2736 2087 
Q 2450 1781 2047 1409 
L 1459 856 
L 1459 813 
L 3450 813 
L 3450 0 
z
" transform="scale(0.015625)"/>
        <path id="OpenSans-Bold-30" d="M 3425 2284 
Q 3425 1731 3339 1297 
Q 3253 863 3064 559 
Q 2875 256 2569 96 
Q 2263 -63 1825 -63 
Q 1275 -63 922 217 
Q 569 497 400 1023 
Q 231 1550 231 2284 
Q 231 3025 386 3551 
Q 541 4078 891 4359 
Q 1241 4641 1825 4641 
Q 2372 4641 2726 4361 
Q 3081 4081 3253 3554 
Q 3425 3028 3425 2284 
z
M 1191 2284 
Q 1191 1763 1248 1414 
Q 1306 1066 1443 891 
Q 1581 716 1825 716 
Q 2066 716 2205 889 
Q 2344 1063 2403 1411 
Q 2463 1759 2463 2284 
Q 2463 2806 2403 3156 
Q 2344 3506 2205 3682 
Q 2066 3859 1825 3859 
Q 1581 3859 1443 3682 
Q 1306 3506 1248 3156 
Q 1191 2806 1191 2284 
z
" transform="scale(0.015625)"/>
        <path id="OpenSans-Bold-31" d="M 2644 0 
L 1678 0 
L 1678 2644 
Q 1678 2753 1681 2914 
Q 1684 3075 1690 3245 
Q 1697 3416 1703 3553 
Q 1669 3513 1564 3414 
Q 1459 3316 1369 3238 
L 844 2816 
L 378 3397 
L 1850 4569 
L 2644 4569 
L 2644 0 
z
" transform="scale(0.015625)"/>
        <path id="OpenSans-Bold-33" d="M 3272 3547 
Q 3272 3231 3140 3000 
Q 3009 2769 2786 2622 
Q 2563 2475 2284 2406 
L 2284 2388 
Q 2834 2319 3120 2050 
Q 3406 1781 3406 1331 
Q 3406 931 3211 615 
Q 3016 300 2609 118 
Q 2203 -63 1563 -63 
Q 1184 -63 857 -2 
Q 531 59 244 184 
L 244 1006 
Q 538 856 859 779 
Q 1181 703 1459 703 
Q 1978 703 2186 883 
Q 2394 1063 2394 1388 
Q 2394 1578 2297 1709 
Q 2200 1841 1961 1909 
Q 1722 1978 1294 1978 
L 947 1978 
L 947 2719 
L 1300 2719 
Q 1722 2719 1942 2798 
Q 2163 2878 2242 3017 
Q 2322 3156 2322 3334 
Q 2322 3578 2172 3715 
Q 2022 3853 1672 3853 
Q 1453 3853 1273 3798 
Q 1094 3744 950 3667 
Q 806 3591 697 3519 
L 250 4184 
Q 519 4378 880 4506 
Q 1241 4634 1741 4634 
Q 2447 4634 2859 4350 
Q 3272 4066 3272 3547 
z
" transform="scale(0.015625)"/>
       </defs>
       <use xlink:href="#OpenSans-Bold-32"/>
       <use xlink:href="#OpenSans-Bold-30" x="57.177734"/>
       <use xlink:href="#OpenSans-Bold-31" x="114.355469"/>
       <use xlink:href="#OpenSans-Bold-33" x="171.533203"/>
      </g>
     </g>
    </g>
    <g id="xtick_2">
     <g id="line2d_2">
      <g>
       <use xlink:href="#mbdc468a7b7" x="84.779091" y="179.553594" style="fill: #37539c; stroke: #37539c; stroke-width: 0.8"/>
      </g>
     </g>
     <g id="text_2">
      <!-- 2014 -->
      <g style="fill: #37539c" transform="translate(79.780288 203.788438) rotate(-45) scale(0.08 -0.08)">
       <defs>
        <path id="OpenSans-Bold-34" d="M 3553 947 
L 3003 947 
L 3003 0 
L 2059 0 
L 2059 947 
L 109 947 
L 109 1619 
L 2113 4569 
L 3003 4569 
L 3003 1697 
L 3553 1697 
L 3553 947 
z
M 2059 1697 
L 2059 2472 
Q 2059 2581 2064 2731 
Q 2069 2881 2075 3031 
Q 2081 3181 2089 3298 
Q 2097 3416 2100 3463 
L 2075 3463 
Q 2016 3334 1950 3214 
Q 1884 3094 1797 2963 
L 959 1697 
L 2059 1697 
z
" transform="scale(0.015625)"/>
       </defs>
       <use xlink:href="#OpenSans-Bold-32"/>
       <use xlink:href="#OpenSans-Bold-30" x="57.177734"/>
       <use xlink:href="#OpenSans-Bold-31" x="114.355469"/>
       <use xlink:href="#OpenSans-Bold-34" x="171.533203"/>
      </g>
     </g>
    </g>
    <g id="xtick_3">
     <g id="line2d_3">
      <g>
       <use xlink:href="#mbdc468a7b7" x="120.191818" y="179.553594" style="fill: #37539c; stroke: #37539c; stroke-width: 0.8"/>
      </g>
     </g>
     <g id="text_3">
      <!-- 2015 -->
      <g style="fill: #37539c" transform="translate(115.193015 203.788438) rotate(-45) scale(0.08 -0.08)">
       <defs>
        <path id="OpenSans-Bold-35" d="M 1919 2919 
Q 2338 2919 2664 2759 
Q 2991 2600 3178 2290 
Q 3366 1981 3366 1528 
Q 3366 1034 3161 676 
Q 2956 319 2551 128 
Q 2147 -63 1544 -63 
Q 1184 -63 867 -2 
Q 550 59 313 184 
L 313 1019 
Q 550 894 883 808 
Q 1216 722 1509 722 
Q 1797 722 1994 798 
Q 2191 875 2292 1036 
Q 2394 1197 2394 1447 
Q 2394 1781 2169 1959 
Q 1944 2138 1478 2138 
Q 1300 2138 1108 2103 
Q 916 2069 788 2034 
L 403 2241 
L 575 4569 
L 3053 4569 
L 3053 3750 
L 1422 3750 
L 1338 2853 
Q 1444 2875 1569 2897 
Q 1694 2919 1919 2919 
z
" transform="scale(0.015625)"/>
       </defs>
       <use xlink:href="#OpenSans-Bold-32"/>
       <use xlink:href="#OpenSans-Bold-30" x="57.177734"/>
       <use xlink:href="#OpenSans-Bold-31" x="114.355469"/>
       <use xlink:href="#OpenSans-Bold-35" x="171.533203"/>
      </g>
     </g>
    </g>
    <g id="xtick_4">
     <g id="line2d_4">
      <g>
       <use xlink:href="#mbdc468a7b7" x="155.604545" y="179.553594" style="fill: #37539c; stroke: #37539c; stroke-width: 0.8"/>
      </g>
     </g>
     <g id="text_4">
      <!-- 2016 -->
      <g style="fill: #37539c" transform="translate(150.605742 203.788438) rotate(-45) scale(0.08 -0.08)">
       <defs>
        <path id="OpenSans-Bold-36" d="M 225 1941 
Q 225 2334 283 2720 
Q 341 3106 484 3448 
Q 628 3791 887 4055 
Q 1147 4319 1547 4470 
Q 1947 4622 2516 4622 
Q 2650 4622 2829 4611 
Q 3009 4600 3128 4575 
L 3128 3803 
Q 3003 3831 2861 3848 
Q 2719 3866 2578 3866 
Q 2009 3866 1698 3684 
Q 1388 3503 1261 3183 
Q 1134 2863 1113 2438 
L 1153 2438 
Q 1241 2591 1373 2709 
Q 1506 2828 1697 2898 
Q 1888 2969 2144 2969 
Q 2544 2969 2837 2798 
Q 3131 2628 3290 2306 
Q 3450 1984 3450 1522 
Q 3450 1028 3259 672 
Q 3069 316 2720 126 
Q 2372 -63 1894 -63 
Q 1544 -63 1241 57 
Q 938 178 709 425 
Q 481 672 353 1048 
Q 225 1425 225 1941 
z
M 1875 709 
Q 2159 709 2337 903 
Q 2516 1097 2516 1509 
Q 2516 1844 2361 2036 
Q 2206 2228 1894 2228 
Q 1681 2228 1520 2133 
Q 1359 2038 1271 1892 
Q 1184 1747 1184 1594 
Q 1184 1434 1228 1278 
Q 1272 1122 1359 994 
Q 1447 866 1576 787 
Q 1706 709 1875 709 
z
" transform="scale(0.015625)"/>
       </defs>
       <use xlink:href="#OpenSans-Bold-32"/>
       <use xlink:href="#OpenSans-Bold-30" x="57.177734"/>
       <use xlink:href="#OpenSans-Bold-31" x="114.355469"/>
       <use xlink:href="#OpenSans-Bold-36" x="171.533203"/>
      </g>
     </g>
    </g>
    <g id="xtick_5">
     <g id="line2d_5">
      <g>
       <use xlink:href="#mbdc468a7b7" x="191.017273" y="179.553594" style="fill: #37539c; stroke: #37539c; stroke-width: 0.8"/>
      </g>
     </g>
     <g id="text_5">
      <!-- 2017 -->
      <g style="fill: #37539c" transform="translate(186.01847 203.788438) rotate(-45) scale(0.08 -0.08)">
       <defs>
        <path id="OpenSans-Bold-37" d="M 709 0 
L 2425 3756 
L 172 3756 
L 172 4569 
L 3450 4569 
L 3450 3963 
L 1722 0 
L 709 0 
z
" transform="scale(0.015625)"/>
       </defs>
       <use xlink:href="#OpenSans-Bold-32"/>
       <use xlink:href="#OpenSans-Bold-30" x="57.177734"/>
       <use xlink:href="#OpenSans-Bold-31" x="114.355469"/>
       <use xlink:href="#OpenSans-Bold-37" x="171.533203"/>
      </g>
     </g>
    </g>
    <g id="xtick_6">
     <g id="line2d_6">
      <g>
       <use xlink:href="#mbdc468a7b7" x="226.43" y="179.553594" style="fill: #37539c; stroke: #37539c; stroke-width: 0.8"/>
      </g>
     </g>
     <g id="text_6">
      <!-- 2018 -->
      <g style="fill: #37539c" transform="translate(221.431197 203.788438) rotate(-45) scale(0.08 -0.08)">
       <defs>
        <path id="OpenSans-Bold-38" d="M 1831 4628 
Q 2225 4628 2558 4506 
Q 2891 4384 3091 4139 
Q 3291 3894 3291 3525 
Q 3291 3250 3183 3044 
Q 3075 2838 2890 2683 
Q 2706 2528 2472 2413 
Q 2716 2284 2934 2114 
Q 3153 1944 3292 1716 
Q 3431 1488 3431 1184 
Q 3431 803 3228 523 
Q 3025 244 2665 90 
Q 2306 -63 1831 -63 
Q 1319 -63 959 84 
Q 600 231 412 504 
Q 225 778 225 1159 
Q 225 1472 342 1703 
Q 459 1934 659 2101 
Q 859 2269 1100 2388 
Q 897 2516 730 2678 
Q 563 2841 464 3050 
Q 366 3259 366 3531 
Q 366 3894 570 4137 
Q 775 4381 1109 4504 
Q 1444 4628 1831 4628 
z
M 1119 1216 
Q 1119 969 1295 808 
Q 1472 647 1819 647 
Q 2178 647 2356 801 
Q 2534 956 2534 1209 
Q 2534 1384 2432 1515 
Q 2331 1647 2178 1751 
Q 2025 1856 1869 1947 
L 1784 1991 
Q 1584 1900 1436 1787 
Q 1288 1675 1203 1534 
Q 1119 1394 1119 1216 
z
M 1825 3922 
Q 1588 3922 1431 3800 
Q 1275 3678 1275 3456 
Q 1275 3300 1351 3183 
Q 1428 3066 1554 2978 
Q 1681 2891 1831 2816 
Q 1975 2884 2100 2968 
Q 2225 3053 2303 3172 
Q 2381 3291 2381 3456 
Q 2381 3678 2223 3800 
Q 2066 3922 1825 3922 
z
" transform="scale(0.015625)"/>
       </defs>
       <use xlink:href="#OpenSans-Bold-32"/>
       <use xlink:href="#OpenSans-Bold-30" x="57.177734"/>
       <use xlink:href="#OpenSans-Bold-31" x="114.355469"/>
       <use xlink:href="#OpenSans-Bold-38" x="171.533203"/>
      </g>
     </g>
    </g>
    <g id="xtick_7">
     <g id="line2d_7">
      <g>
       <use xlink:href="#mbdc468a7b7" x="261.842727" y="179.553594" style="fill: #37539c; stroke: #37539c; stroke-width: 0.8"/>
      </g>
     </g>
     <g id="text_7">
      <!-- 2019 -->
      <g style="fill: #37539c" transform="translate(256.843924 203.788438) rotate(-45) scale(0.08 -0.08)">
       <defs>
        <path id="OpenSans-Bold-39" d="M 3431 2619 
Q 3431 2225 3373 1837 
Q 3316 1450 3172 1108 
Q 3028 766 2768 502 
Q 2509 238 2109 87 
Q 1709 -63 1141 -63 
Q 1006 -63 825 -52 
Q 644 -41 525 -19 
L 525 756 
Q 650 725 790 708 
Q 931 691 1075 691 
Q 1647 691 1958 872 
Q 2269 1053 2395 1375 
Q 2522 1697 2541 2119 
L 2503 2119 
Q 2413 1969 2289 1848 
Q 2166 1728 1975 1658 
Q 1784 1588 1491 1588 
Q 1100 1588 811 1758 
Q 522 1928 364 2251 
Q 206 2575 206 3034 
Q 206 3531 395 3886 
Q 584 4241 934 4431 
Q 1284 4622 1759 4622 
Q 2109 4622 2412 4501 
Q 2716 4381 2945 4134 
Q 3175 3888 3303 3509 
Q 3431 3131 3431 2619 
z
M 1778 3847 
Q 1497 3847 1319 3653 
Q 1141 3459 1141 3047 
Q 1141 2716 1294 2522 
Q 1447 2328 1759 2328 
Q 1975 2328 2134 2423 
Q 2294 2519 2383 2664 
Q 2472 2809 2472 2963 
Q 2472 3122 2428 3278 
Q 2384 3434 2296 3562 
Q 2209 3691 2079 3769 
Q 1950 3847 1778 3847 
z
" transform="scale(0.015625)"/>
       </defs>
       <use xlink:href="#OpenSans-Bold-32"/>
       <use xlink:href="#OpenSans-Bold-30" x="57.177734"/>
       <use xlink:href="#OpenSans-Bold-31" x="114.355469"/>
       <use xlink:href="#OpenSans-Bold-39" x="171.533203"/>
      </g>
     </g>
    </g>
    <g id="xtick_8">
     <g id="line2d_8">
      <g>
       <use xlink:href="#mbdc468a7b7" x="297.255455" y="179.553594" style="fill: #37539c; stroke: #37539c; stroke-width: 0.8"/>
      </g>
     </g>
     <g id="text_8">
      <!-- 2020 -->
      <g style="fill: #37539c" transform="translate(292.256652 203.788438) rotate(-45) scale(0.08 -0.08)">
       <use xlink:href="#OpenSans-Bold-32"/>
       <use xlink:href="#OpenSans-Bold-30" x="57.177734"/>
       <use xlink:href="#OpenSans-Bold-32" x="114.355469"/>
       <use xlink:href="#OpenSans-Bold-30" x="171.533203"/>
      </g>
     </g>
    </g>
    <g id="xtick_9">
     <g id="line2d_9">
      <g>
       <use xlink:href="#mbdc468a7b7" x="332.668182" y="179.553594" style="fill: #37539c; stroke: #37539c; stroke-width: 0.8"/>
      </g>
     </g>
     <g id="text_9">
      <!-- 2021 -->
      <g style="fill: #37539c" transform="translate(327.669379 203.788438) rotate(-45) scale(0.08 -0.08)">
       <use xlink:href="#OpenSans-Bold-32"/>
       <use xlink:href="#OpenSans-Bold-30" x="57.177734"/>
       <use xlink:href="#OpenSans-Bold-32" x="114.355469"/>
       <use xlink:href="#OpenSans-Bold-31" x="171.533203"/>
      </g>
     </g>
    </g>
    <g id="xtick_10">
     <g id="line2d_10">
      <g>
       <use xlink:href="#mbdc468a7b7" x="368.080909" y="179.553594" style="fill: #37539c; stroke: #37539c; stroke-width: 0.8"/>
      </g>
     </g>
     <g id="text_10">
      <!-- 2022 -->
      <g style="fill: #37539c" transform="translate(363.082106 203.788438) rotate(-45) scale(0.08 -0.08)">
       <use xlink:href="#OpenSans-Bold-32"/>
       <use xlink:href="#OpenSans-Bold-30" x="57.177734"/>
       <use xlink:href="#OpenSans-Bold-32" x="114.355469"/>
       <use xlink:href="#OpenSans-Bold-32" x="171.533203"/>
      </g>
     </g>
    </g>
    <g id="xtick_11">
     <g id="line2d_11">
      <g>
       <use xlink:href="#mbdc468a7b7" x="403.493636" y="179.553594" style="fill: #37539c; stroke: #37539c; stroke-width: 0.8"/>
      </g>
     </g>
     <g id="text_11">
      <!-- 2023 -->
      <g style="fill: #37539c" transform="translate(398.494833 203.788438) rotate(-45) scale(0.08 -0.08)">
       <use xlink:href="#OpenSans-Bold-32"/>
       <use xlink:href="#OpenSans-Bold-30" x="57.177734"/>
       <use xlink:href="#OpenSans-Bold-32" x="114.355469"/>
       <use xlink:href="#OpenSans-Bold-33" x="171.533203"/>
      </g>
     </g>
    </g>
   </g>
   <g id="matplotlib.axis_2">
    <g id="ytick_1">
     <g id="line2d_12">
      <path d="M 31.66 170.394502 
L 421.2 170.394502 
" clip-path="url(#p90ea13d9fe)" style="fill: none; stroke-dasharray: 2.96,1.28; stroke-dashoffset: 0; stroke: #b0b0b0; stroke-width: 0.8"/>
     </g>
     <g id="line2d_13">
      <defs>
       <path id="m6316eb88ac" d="M 0 0 
L -3.5 0 
" style="stroke: #37539c; stroke-width: 0.8"/>
      </defs>
      <g>
       <use xlink:href="#m6316eb88ac" x="31.66" y="170.394502" style="fill: #37539c; stroke: #37539c; stroke-width: 0.8"/>
      </g>
     </g>
     <g id="text_12">
      <!-- 50 -->
      <g style="fill: #37539c" transform="translate(15.5125 173.433877) scale(0.08 -0.08)">
       <use xlink:href="#OpenSans-Bold-35"/>
       <use xlink:href="#OpenSans-Bold-30" x="57.177734"/>
      </g>
     </g>
    </g>
    <g id="ytick_2">
     <g id="line2d_14">
      <path d="M 31.66 152.98178 
L 421.2 152.98178 
" clip-path="url(#p90ea13d9fe)" style="fill: none; stroke-dasharray: 2.96,1.28; stroke-dashoffset: 0; stroke: #b0b0b0; stroke-width: 0.8"/>
     </g>
     <g id="line2d_15">
      <g>
       <use xlink:href="#m6316eb88ac" x="31.66" y="152.98178" style="fill: #37539c; stroke: #37539c; stroke-width: 0.8"/>
      </g>
     </g>
     <g id="text_13">
      <!-- 100 -->
      <g style="fill: #37539c" transform="translate(10.93875 156.021155) scale(0.08 -0.08)">
       <use xlink:href="#OpenSans-Bold-31"/>
       <use xlink:href="#OpenSans-Bold-30" x="57.177734"/>
       <use xlink:href="#OpenSans-Bold-30" x="114.355469"/>
      </g>
     </g>
    </g>
    <g id="ytick_3">
     <g id="line2d_16">
      <path d="M 31.66 135.569057 
L 421.2 135.569057 
" clip-path="url(#p90ea13d9fe)" style="fill: none; stroke-dasharray: 2.96,1.28; stroke-dashoffset: 0; stroke: #b0b0b0; stroke-width: 0.8"/>
     </g>
     <g id="line2d_17">
      <g>
       <use xlink:href="#m6316eb88ac" x="31.66" y="135.569057" style="fill: #37539c; stroke: #37539c; stroke-width: 0.8"/>
      </g>
     </g>
     <g id="text_14">
      <!-- 150 -->
      <g style="fill: #37539c" transform="translate(10.93875 138.608432) scale(0.08 -0.08)">
       <use xlink:href="#OpenSans-Bold-31"/>
       <use xlink:href="#OpenSans-Bold-35" x="57.177734"/>
       <use xlink:href="#OpenSans-Bold-30" x="114.355469"/>
      </g>
     </g>
    </g>
    <g id="ytick_4">
     <g id="line2d_18">
      <path d="M 31.66 118.156335 
L 421.2 118.156335 
" clip-path="url(#p90ea13d9fe)" style="fill: none; stroke-dasharray: 2.96,1.28; stroke-dashoffset: 0; stroke: #b0b0b0; stroke-width: 0.8"/>
     </g>
     <g id="line2d_19">
      <g>
       <use xlink:href="#m6316eb88ac" x="31.66" y="118.156335" style="fill: #37539c; stroke: #37539c; stroke-width: 0.8"/>
      </g>
     </g>
     <g id="text_15">
      <!-- 200 -->
      <g style="fill: #37539c" transform="translate(10.93875 121.19571) scale(0.08 -0.08)">
       <use xlink:href="#OpenSans-Bold-32"/>
       <use xlink:href="#OpenSans-Bold-30" x="57.177734"/>
       <use xlink:href="#OpenSans-Bold-30" x="114.355469"/>
      </g>
     </g>
    </g>
    <g id="ytick_5">
     <g id="line2d_20">
      <path d="M 31.66 100.743612 
L 421.2 100.743612 
" clip-path="url(#p90ea13d9fe)" style="fill: none; stroke-dasharray: 2.96,1.28; stroke-dashoffset: 0; stroke: #b0b0b0; stroke-width: 0.8"/>
     </g>
     <g id="line2d_21">
      <g>
       <use xlink:href="#m6316eb88ac" x="31.66" y="100.743612" style="fill: #37539c; stroke: #37539c; stroke-width: 0.8"/>
      </g>
     </g>
     <g id="text_16">
      <!-- 250 -->
      <g style="fill: #37539c" transform="translate(10.93875 103.782987) scale(0.08 -0.08)">
       <use xlink:href="#OpenSans-Bold-32"/>
       <use xlink:href="#OpenSans-Bold-35" x="57.177734"/>
       <use xlink:href="#OpenSans-Bold-30" x="114.355469"/>
      </g>
     </g>
    </g>
    <g id="ytick_6">
     <g id="line2d_22">
      <path d="M 31.66 83.33089 
L 421.2 83.33089 
" clip-path="url(#p90ea13d9fe)" style="fill: none; stroke-dasharray: 2.96,1.28; stroke-dashoffset: 0; stroke: #b0b0b0; stroke-width: 0.8"/>
     </g>
     <g id="line2d_23">
      <g>
       <use xlink:href="#m6316eb88ac" x="31.66" y="83.33089" style="fill: #37539c; stroke: #37539c; stroke-width: 0.8"/>
      </g>
     </g>
     <g id="text_17">
      <!-- 300 -->
      <g style="fill: #37539c" transform="translate(10.93875 86.370265) scale(0.08 -0.08)">
       <use xlink:href="#OpenSans-Bold-33"/>
       <use xlink:href="#OpenSans-Bold-30" x="57.177734"/>
       <use xlink:href="#OpenSans-Bold-30" x="114.355469"/>
      </g>
     </g>
    </g>
    <g id="ytick_7">
     <g id="line2d_24">
      <path d="M 31.66 65.918167 
L 421.2 65.918167 
" clip-path="url(#p90ea13d9fe)" style="fill: none; stroke-dasharray: 2.96,1.28; stroke-dashoffset: 0; stroke: #b0b0b0; stroke-width: 0.8"/>
     </g>
     <g id="line2d_25">
      <g>
       <use xlink:href="#m6316eb88ac" x="31.66" y="65.918167" style="fill: #37539c; stroke: #37539c; stroke-width: 0.8"/>
      </g>
     </g>
     <g id="text_18">
      <!-- 350 -->
      <g style="fill: #37539c" transform="translate(10.93875 68.957542) scale(0.08 -0.08)">
       <use xlink:href="#OpenSans-Bold-33"/>
       <use xlink:href="#OpenSans-Bold-35" x="57.177734"/>
       <use xlink:href="#OpenSans-Bold-30" x="114.355469"/>
      </g>
     </g>
    </g>
    <g id="ytick_8">
     <g id="line2d_26">
      <path d="M 31.66 48.505445 
L 421.2 48.505445 
" clip-path="url(#p90ea13d9fe)" style="fill: none; stroke-dasharray: 2.96,1.28; stroke-dashoffset: 0; stroke: #b0b0b0; stroke-width: 0.8"/>
     </g>
     <g id="line2d_27">
      <g>
       <use xlink:href="#m6316eb88ac" x="31.66" y="48.505445" style="fill: #37539c; stroke: #37539c; stroke-width: 0.8"/>
      </g>
     </g>
     <g id="text_19">
      <!-- 400 -->
      <g style="fill: #37539c" transform="translate(10.93875 51.54482) scale(0.08 -0.08)">
       <use xlink:href="#OpenSans-Bold-34"/>
       <use xlink:href="#OpenSans-Bold-30" x="57.177734"/>
       <use xlink:href="#OpenSans-Bold-30" x="114.355469"/>
      </g>
     </g>
    </g>
    <g id="ytick_9">
     <g id="line2d_28">
      <path d="M 31.66 13.68 
L 421.2 13.68 
" clip-path="url(#p90ea13d9fe)" style="fill: none; stroke-dasharray: 2.96,1.28; stroke-dashoffset: 0; stroke: #b0b0b0; stroke-width: 0.8"/>
     </g>
     <g id="line2d_29">
      <g>
       <use xlink:href="#m6316eb88ac" x="31.66" y="13.68" style="fill: #37539c; stroke: #37539c; stroke-width: 0.8"/>
      </g>
     </g>
     <g id="text_20">
      <!-- 500 -->
      <g style="fill: #37539c" transform="translate(10.93875 16.719375) scale(0.08 -0.08)">
       <use xlink:href="#OpenSans-Bold-35"/>
       <use xlink:href="#OpenSans-Bold-30" x="57.177734"/>
       <use xlink:href="#OpenSans-Bold-30" x="114.355469"/>
      </g>
     </g>
    </g>
   </g>
   <g id="line2d_30">
    <path d="M 49.366364 116.763317 
L 84.779091 114.67379 
L 120.191818 99.00234 
L 155.604545 94.126778 
L 191.017273 87.161689 
L 226.43 62.783877 
L 261.842727 66.962931 
L 297.255455 49.550208 
L 332.668182 31.092722 
L 368.080909 63.132132 
L 403.493636 47.808936 
" clip-path="url(#p90ea13d9fe)" style="fill: none; stroke: #37539c; stroke-width: 1.5; stroke-linecap: square"/>
    <defs>
     <path id="mdee2f7d70c" d="M 0 2 
C 0.530406 2 1.03916 1.789267 1.414214 1.414214 
C 1.789267 1.03916 2 0.530406 2 0 
C 2 -0.530406 1.789267 -1.03916 1.414214 -1.414214 
C 1.03916 -1.789267 0.530406 -2 0 -2 
C -0.530406 -2 -1.03916 -1.789267 -1.414214 -1.414214 
C -1.789267 -1.03916 -2 -0.530406 -2 0 
C -2 0.530406 -1.789267 1.03916 -1.414214 1.414214 
C -1.03916 1.789267 -0.530406 2 0 2 
z
" style="stroke: #37539c"/>
    </defs>
    <g clip-path="url(#p90ea13d9fe)">
     <use xlink:href="#mdee2f7d70c" x="49.366364" y="116.763317" style="fill: #37539c; stroke: #37539c"/>
     <use xlink:href="#mdee2f7d70c" x="84.779091" y="114.67379" style="fill: #37539c; stroke: #37539c"/>
     <use xlink:href="#mdee2f7d70c" x="120.191818" y="99.00234" style="fill: #37539c; stroke: #37539c"/>
     <use xlink:href="#mdee2f7d70c" x="155.604545" y="94.126778" style="fill: #37539c; stroke: #37539c"/>
     <use xlink:href="#mdee2f7d70c" x="191.017273" y="87.161689" style="fill: #37539c; stroke: #37539c"/>
     <use xlink:href="#mdee2f7d70c" x="226.43" y="62.783877" style="fill: #37539c; stroke: #37539c"/>
     <use xlink:href="#mdee2f7d70c" x="261.842727" y="66.962931" style="fill: #37539c; stroke: #37539c"/>
     <use xlink:href="#mdee2f7d70c" x="297.255455" y="49.550208" style="fill: #37539c; stroke: #37539c"/>
     <use xlink:href="#mdee2f7d70c" x="332.668182" y="31.092722" style="fill: #37539c; stroke: #37539c"/>
     <use xlink:href="#mdee2f7d70c" x="368.080909" y="63.132132" style="fill: #37539c; stroke: #37539c"/>
     <use xlink:href="#mdee2f7d70c" x="403.493636" y="47.808936" style="fill: #37539c; stroke: #37539c"/>
    </g>
   </g>
   <g id="line2d_31">
    <path d="M 49.366364 164.125922 
L 84.779091 162.38465 
L 120.191818 150.892253 
L 155.604545 154.026543 
L 191.017273 148.802726 
L 226.43 150.543999 
L 261.842727 142.185892 
L 297.255455 131.738258 
L 332.668182 144.623673 
L 368.080909 141.141128 
L 403.493636 149.150981 
" clip-path="url(#p90ea13d9fe)" style="fill: none; stroke: #f45b69; stroke-width: 1.5; stroke-linecap: square"/>
    <defs>
     <path id="m2709b7cf15" d="M 0 2 
C 0.530406 2 1.03916 1.789267 1.414214 1.414214 
C 1.789267 1.03916 2 0.530406 2 0 
C 2 -0.530406 1.789267 -1.03916 1.414214 -1.414214 
C 1.03916 -1.789267 0.530406 -2 0 -2 
C -0.530406 -2 -1.03916 -1.789267 -1.414214 -1.414214 
C -1.789267 -1.03916 -2 -0.530406 -2 0 
C -2 0.530406 -1.789267 1.03916 -1.414214 1.414214 
C -1.03916 1.789267 -0.530406 2 0 2 
z
" style="stroke: #f45b69"/>
    </defs>
    <g clip-path="url(#p90ea13d9fe)">
     <use xlink:href="#m2709b7cf15" x="49.366364" y="164.125922" style="fill: #f45b69; stroke: #f45b69"/>
     <use xlink:href="#m2709b7cf15" x="84.779091" y="162.38465" style="fill: #f45b69; stroke: #f45b69"/>
     <use xlink:href="#m2709b7cf15" x="120.191818" y="150.892253" style="fill: #f45b69; stroke: #f45b69"/>
     <use xlink:href="#m2709b7cf15" x="155.604545" y="154.026543" style="fill: #f45b69; stroke: #f45b69"/>
     <use xlink:href="#m2709b7cf15" x="191.017273" y="148.802726" style="fill: #f45b69; stroke: #f45b69"/>
     <use xlink:href="#m2709b7cf15" x="226.43" y="150.543999" style="fill: #f45b69; stroke: #f45b69"/>
     <use xlink:href="#m2709b7cf15" x="261.842727" y="142.185892" style="fill: #f45b69; stroke: #f45b69"/>
     <use xlink:href="#m2709b7cf15" x="297.255455" y="131.738258" style="fill: #f45b69; stroke: #f45b69"/>
     <use xlink:href="#m2709b7cf15" x="332.668182" y="144.623673" style="fill: #f45b69; stroke: #f45b69"/>
     <use xlink:href="#m2709b7cf15" x="368.080909" y="141.141128" style="fill: #f45b69; stroke: #f45b69"/>
     <use xlink:href="#m2709b7cf15" x="403.493636" y="149.150981" style="fill: #f45b69; stroke: #f45b69"/>
    </g>
   </g>
   <g id="line2d_32">
    <path d="M 49.366364 172.484029 
L 84.779091 170.394502 
L 120.191818 164.474177 
L 155.604545 164.125922 
L 191.017273 164.822431 
L 226.43 167.608467 
L 261.842727 159.946869 
L 297.255455 158.205596 
L 332.668182 157.509088 
L 368.080909 161.339886 
L 403.493636 163.081159 
" clip-path="url(#p90ea13d9fe)" style="fill: none; stroke: #59c3c3; stroke-width: 1.5; stroke-linecap: square"/>
    <defs>
     <path id="mff724f834c" d="M 0 2 
C 0.530406 2 1.03916 1.789267 1.414214 1.414214 
C 1.789267 1.03916 2 0.530406 2 0 
C 2 -0.530406 1.789267 -1.03916 1.414214 -1.414214 
C 1.03916 -1.789267 0.530406 -2 0 -2 
C -0.530406 -2 -1.03916 -1.789267 -1.414214 -1.414214 
C -1.789267 -1.03916 -2 -0.530406 -2 0 
C -2 0.530406 -1.789267 1.03916 -1.414214 1.414214 
C -1.03916 1.789267 -0.530406 2 0 2 
z
" style="stroke: #59c3c3"/>
    </defs>
    <g clip-path="url(#p90ea13d9fe)">
     <use xlink:href="#mff724f834c" x="49.366364" y="172.484029" style="fill: #59c3c3; stroke: #59c3c3"/>
     <use xlink:href="#mff724f834c" x="84.779091" y="170.394502" style="fill: #59c3c3; stroke: #59c3c3"/>
     <use xlink:href="#mff724f834c" x="120.191818" y="164.474177" style="fill: #59c3c3; stroke: #59c3c3"/>
     <use xlink:href="#mff724f834c" x="155.604545" y="164.125922" style="fill: #59c3c3; stroke: #59c3c3"/>
     <use xlink:href="#mff724f834c" x="191.017273" y="164.822431" style="fill: #59c3c3; stroke: #59c3c3"/>
     <use xlink:href="#mff724f834c" x="226.43" y="167.608467" style="fill: #59c3c3; stroke: #59c3c3"/>
     <use xlink:href="#mff724f834c" x="261.842727" y="159.946869" style="fill: #59c3c3; stroke: #59c3c3"/>
     <use xlink:href="#mff724f834c" x="297.255455" y="158.205596" style="fill: #59c3c3; stroke: #59c3c3"/>
     <use xlink:href="#mff724f834c" x="332.668182" y="157.509088" style="fill: #59c3c3; stroke: #59c3c3"/>
     <use xlink:href="#mff724f834c" x="368.080909" y="161.339886" style="fill: #59c3c3; stroke: #59c3c3"/>
     <use xlink:href="#mff724f834c" x="403.493636" y="163.081159" style="fill: #59c3c3; stroke: #59c3c3"/>
    </g>
   </g>
   <g id="patch_3">
    <path d="M 31.66 179.553594 
L 31.66 13.68 
" style="fill: none; stroke: #000000; stroke-width: 0.8; stroke-linejoin: miter; stroke-linecap: square"/>
   </g>
   <g id="patch_4">
    <path d="M 31.66 179.553594 
L 421.2 179.553594 
" style="fill: none; stroke: #000000; stroke-width: 0.8; stroke-linejoin: miter; stroke-linecap: square"/>
   </g>
   <g id="legend_1">
    <g id="patch_5">
     <path d="M 37.26 56.08375 
L 147.43125 56.08375 
Q 149.03125 56.08375 149.03125 54.48375 
L 149.03125 19.28 
Q 149.03125 17.68 147.43125 17.68 
L 37.26 17.68 
Q 35.66 17.68 35.66 19.28 
L 35.66 54.48375 
Q 35.66 56.08375 37.26 56.08375 
z
" style="fill: #ffffff; opacity: 0.8; stroke: #cccccc; stroke-linejoin: miter"/>
    </g>
    <g id="line2d_33">
     <path d="M 38.86 24.15875 
L 46.86 24.15875 
L 54.86 24.15875 
" style="fill: none; stroke: #37539c; stroke-width: 1.5; stroke-linecap: square"/>
     <g>
      <use xlink:href="#mdee2f7d70c" x="46.86" y="24.15875" style="fill: #37539c; stroke: #37539c"/>
     </g>
    </g>
    <g id="text_21">
     <!-- Cancer -->
     <g style="fill: #37539c" transform="translate(61.26 26.95875) scale(0.08 -0.08)">
      <defs>
       <path id="OpenSans-Bold-43" d="M 2516 3828 
Q 2238 3828 2023 3720 
Q 1809 3613 1664 3409 
Q 1519 3206 1444 2918 
Q 1369 2631 1369 2272 
Q 1369 1788 1489 1445 
Q 1609 1103 1862 923 
Q 2116 744 2516 744 
Q 2794 744 3073 806 
Q 3353 869 3681 984 
L 3681 172 
Q 3378 47 3084 -8 
Q 2791 -63 2425 -63 
Q 1719 -63 1264 229 
Q 809 522 590 1048 
Q 372 1575 372 2278 
Q 372 2797 512 3228 
Q 653 3659 925 3975 
Q 1197 4291 1597 4462 
Q 1997 4634 2516 4634 
Q 2856 4634 3198 4548 
Q 3541 4463 3853 4313 
L 3541 3525 
Q 3284 3647 3025 3737 
Q 2766 3828 2516 3828 
z
" transform="scale(0.015625)"/>
       <path id="OpenSans-Bold-61" d="M 1931 3566 
Q 2634 3566 3009 3259 
Q 3384 2953 3384 2328 
L 3384 0 
L 2719 0 
L 2534 475 
L 2509 475 
Q 2359 288 2203 169 
Q 2047 50 1844 -6 
Q 1641 -63 1350 -63 
Q 1041 -63 795 56 
Q 550 175 409 420 
Q 269 666 269 1044 
Q 269 1600 659 1864 
Q 1050 2128 1831 2156 
L 2438 2175 
L 2438 2328 
Q 2438 2603 2294 2731 
Q 2150 2859 1894 2859 
Q 1641 2859 1397 2787 
Q 1153 2716 909 2606 
L 594 3250 
Q 872 3397 1217 3481 
Q 1563 3566 1931 3566 
z
M 2438 1619 
L 2069 1606 
Q 1606 1594 1426 1441 
Q 1247 1288 1247 1038 
Q 1247 819 1375 726 
Q 1503 634 1709 634 
Q 2016 634 2227 815 
Q 2438 997 2438 1331 
L 2438 1619 
z
" transform="scale(0.015625)"/>
       <path id="OpenSans-Bold-6e" d="M 2484 3559 
Q 3044 3559 3384 3254 
Q 3725 2950 3725 2278 
L 3725 0 
L 2772 0 
L 2772 2041 
Q 2772 2416 2636 2606 
Q 2500 2797 2209 2797 
Q 1772 2797 1612 2500 
Q 1453 2203 1453 1644 
L 1453 0 
L 500 0 
L 500 3494 
L 1228 3494 
L 1356 3047 
L 1409 3047 
Q 1522 3228 1689 3340 
Q 1856 3453 2061 3506 
Q 2266 3559 2484 3559 
z
" transform="scale(0.015625)"/>
       <path id="OpenSans-Bold-63" d="M 1919 -63 
Q 1400 -63 1034 126 
Q 669 316 478 712 
Q 288 1109 288 1728 
Q 288 2369 505 2773 
Q 722 3178 1108 3368 
Q 1494 3559 2003 3559 
Q 2366 3559 2630 3489 
Q 2894 3419 3091 3322 
L 2809 2584 
Q 2584 2675 2390 2733 
Q 2197 2791 2003 2791 
Q 1753 2791 1587 2673 
Q 1422 2556 1340 2322 
Q 1259 2088 1259 1734 
Q 1259 1388 1346 1159 
Q 1434 931 1600 820 
Q 1766 709 2003 709 
Q 2300 709 2531 789 
Q 2763 869 2981 1013 
L 2981 197 
Q 2763 59 2523 -2 
Q 2284 -63 1919 -63 
z
" transform="scale(0.015625)"/>
       <path id="OpenSans-Bold-65" d="M 1941 3559 
Q 2425 3559 2775 3373 
Q 3125 3188 3315 2834 
Q 3506 2481 3506 1972 
L 3506 1509 
L 1253 1509 
Q 1269 1106 1495 876 
Q 1722 647 2125 647 
Q 2459 647 2737 715 
Q 3016 784 3309 922 
L 3309 184 
Q 3050 56 2767 -3 
Q 2484 -63 2081 -63 
Q 1556 -63 1151 131 
Q 747 325 517 722 
Q 288 1119 288 1722 
Q 288 2334 495 2742 
Q 703 3150 1075 3354 
Q 1447 3559 1941 3559 
z
M 1947 2881 
Q 1669 2881 1486 2703 
Q 1303 2525 1275 2144 
L 2613 2144 
Q 2609 2356 2536 2522 
Q 2463 2688 2317 2784 
Q 2172 2881 1947 2881 
z
" transform="scale(0.015625)"/>
       <path id="OpenSans-Bold-72" d="M 2450 3559 
Q 2522 3559 2617 3551 
Q 2713 3544 2772 3531 
L 2700 2638 
Q 2653 2653 2567 2661 
Q 2481 2669 2419 2669 
Q 2234 2669 2061 2622 
Q 1888 2575 1750 2470 
Q 1613 2366 1533 2195 
Q 1453 2025 1453 1778 
L 1453 0 
L 500 0 
L 500 3494 
L 1222 3494 
L 1363 2906 
L 1409 2906 
Q 1513 3084 1667 3232 
Q 1822 3381 2020 3470 
Q 2219 3559 2450 3559 
z
" transform="scale(0.015625)"/>
      </defs>
      <use xlink:href="#OpenSans-Bold-43"/>
      <use xlink:href="#OpenSans-Bold-61" x="63.720703"/>
      <use xlink:href="#OpenSans-Bold-6e" x="124.121094"/>
      <use xlink:href="#OpenSans-Bold-63" x="189.84375"/>
      <use xlink:href="#OpenSans-Bold-65" x="241.259766"/>
      <use xlink:href="#OpenSans-Bold-72" x="300.341797"/>
     </g>
    </g>
    <g id="line2d_34">
     <path d="M 38.86 36.16 
L 46.86 36.16 
L 54.86 36.16 
" style="fill: none; stroke: #f45b69; stroke-width: 1.5; stroke-linecap: square"/>
     <g>
      <use xlink:href="#m2709b7cf15" x="46.86" y="36.16" style="fill: #f45b69; stroke: #f45b69"/>
     </g>
    </g>
    <g id="text_22">
     <!-- Diabetes -->
     <g style="fill: #37539c" transform="translate(61.26 38.96) scale(0.08 -0.08)">
      <defs>
       <path id="OpenSans-Bold-44" d="M 4366 2328 
Q 4366 1556 4070 1039 
Q 3775 522 3215 261 
Q 2656 0 1869 0 
L 575 0 
L 575 4569 
L 2009 4569 
Q 2728 4569 3256 4314 
Q 3784 4059 4075 3561 
Q 4366 3063 4366 2328 
z
M 3359 2303 
Q 3359 2809 3211 3136 
Q 3063 3463 2773 3619 
Q 2484 3775 2059 3775 
L 1544 3775 
L 1544 800 
L 1959 800 
Q 2669 800 3014 1178 
Q 3359 1556 3359 2303 
z
" transform="scale(0.015625)"/>
       <path id="OpenSans-Bold-69" d="M 1453 3494 
L 1453 0 
L 500 0 
L 500 3494 
L 1453 3494 
z
M 978 4863 
Q 1191 4863 1344 4764 
Q 1497 4666 1497 4397 
Q 1497 4131 1344 4029 
Q 1191 3928 978 3928 
Q 763 3928 611 4029 
Q 459 4131 459 4397 
Q 459 4666 611 4764 
Q 763 4863 978 4863 
z
" transform="scale(0.015625)"/>
       <path id="OpenSans-Bold-62" d="M 1453 4863 
L 1453 3731 
Q 1453 3534 1442 3340 
Q 1431 3147 1416 3041 
L 1453 3041 
Q 1591 3256 1828 3407 
Q 2066 3559 2444 3559 
Q 3031 3559 3397 3100 
Q 3763 2641 3763 1753 
Q 3763 1156 3594 751 
Q 3425 347 3122 142 
Q 2819 -63 2419 -63 
Q 2034 -63 1812 75 
Q 1591 213 1453 384 
L 1388 384 
L 1228 0 
L 500 0 
L 500 4863 
L 1453 4863 
z
M 2138 2797 
Q 1888 2797 1741 2694 
Q 1594 2591 1526 2384 
Q 1459 2178 1453 1863 
L 1453 1759 
Q 1453 1250 1603 979 
Q 1753 709 2150 709 
Q 2444 709 2617 981 
Q 2791 1253 2791 1766 
Q 2791 2278 2616 2537 
Q 2441 2797 2138 2797 
z
" transform="scale(0.015625)"/>
       <path id="OpenSans-Bold-74" d="M 1972 697 
Q 2128 697 2276 728 
Q 2425 759 2572 806 
L 2572 97 
Q 2419 28 2192 -17 
Q 1966 -63 1697 -63 
Q 1384 -63 1136 39 
Q 888 141 745 392 
Q 603 644 603 1094 
L 603 2778 
L 147 2778 
L 147 3181 
L 672 3500 
L 947 4238 
L 1556 4238 
L 1556 3494 
L 2534 3494 
L 2534 2778 
L 1556 2778 
L 1556 1094 
Q 1556 894 1670 795 
Q 1784 697 1972 697 
z
" transform="scale(0.015625)"/>
       <path id="OpenSans-Bold-73" d="M 2938 1038 
Q 2938 681 2770 436 
Q 2603 191 2272 64 
Q 1941 -63 1447 -63 
Q 1081 -63 820 -16 
Q 559 31 294 141 
L 294 928 
Q 578 800 904 717 
Q 1231 634 1478 634 
Q 1756 634 1876 717 
Q 1997 800 1997 934 
Q 1997 1022 1948 1092 
Q 1900 1163 1740 1252 
Q 1581 1341 1241 1484 
Q 913 1622 702 1762 
Q 491 1903 389 2095 
Q 288 2288 288 2584 
Q 288 3069 664 3314 
Q 1041 3559 1672 3559 
Q 1997 3559 2292 3493 
Q 2588 3428 2900 3284 
L 2613 2597 
Q 2353 2709 2123 2781 
Q 1894 2853 1656 2853 
Q 1447 2853 1340 2797 
Q 1234 2741 1234 2625 
Q 1234 2541 1289 2475 
Q 1344 2409 1501 2329 
Q 1659 2250 1966 2125 
Q 2263 2003 2481 1870 
Q 2700 1738 2819 1542 
Q 2938 1347 2938 1038 
z
" transform="scale(0.015625)"/>
      </defs>
      <use xlink:href="#OpenSans-Bold-44"/>
      <use xlink:href="#OpenSans-Bold-69" x="74.023438"/>
      <use xlink:href="#OpenSans-Bold-61" x="104.541016"/>
      <use xlink:href="#OpenSans-Bold-62" x="164.941406"/>
      <use xlink:href="#OpenSans-Bold-65" x="228.222656"/>
      <use xlink:href="#OpenSans-Bold-74" x="287.304688"/>
      <use xlink:href="#OpenSans-Bold-65" x="330.712891"/>
      <use xlink:href="#OpenSans-Bold-73" x="389.794922"/>
     </g>
    </g>
    <g id="line2d_35">
     <path d="M 38.86 48.16125 
L 46.86 48.16125 
L 54.86 48.16125 
" style="fill: none; stroke: #59c3c3; stroke-width: 1.5; stroke-linecap: square"/>
     <g>
      <use xlink:href="#mff724f834c" x="46.86" y="48.16125" style="fill: #59c3c3; stroke: #59c3c3"/>
     </g>
    </g>
    <g id="text_23">
     <!-- Enf. cardiovasculares -->
     <g style="fill: #37539c" transform="translate(61.26 50.96125) scale(0.08 -0.08)">
      <defs>
       <path id="OpenSans-Bold-45" d="M 3206 0 
L 575 0 
L 575 4569 
L 3206 4569 
L 3206 3775 
L 1544 3775 
L 1544 2772 
L 3091 2772 
L 3091 1978 
L 1544 1978 
L 1544 800 
L 3206 800 
L 3206 0 
z
" transform="scale(0.015625)"/>
       <path id="OpenSans-Bold-66" d="M 2431 2778 
L 1606 2778 
L 1606 0 
L 653 0 
L 653 2778 
L 128 2778 
L 128 3238 
L 653 3494 
L 653 3750 
Q 653 4197 804 4445 
Q 956 4694 1232 4795 
Q 1509 4897 1888 4897 
Q 2166 4897 2394 4851 
Q 2622 4806 2766 4750 
L 2522 4050 
Q 2413 4084 2284 4112 
Q 2156 4141 1991 4141 
Q 1791 4141 1698 4020 
Q 1606 3900 1606 3713 
L 1606 3494 
L 2431 3494 
L 2431 2778 
z
" transform="scale(0.015625)"/>
       <path id="OpenSans-Bold-2e" d="M 366 447 
Q 366 741 527 859 
Q 688 978 916 978 
Q 1138 978 1298 859 
Q 1459 741 1459 447 
Q 1459 166 1298 41 
Q 1138 -84 916 -84 
Q 688 -84 527 41 
Q 366 166 366 447 
z
" transform="scale(0.015625)"/>
       <path id="OpenSans-Bold-20" transform="scale(0.015625)"/>
       <path id="OpenSans-Bold-64" d="M 1606 -63 
Q 1022 -63 655 395 
Q 288 853 288 1741 
Q 288 2638 659 3098 
Q 1031 3559 1631 3559 
Q 1881 3559 2072 3490 
Q 2263 3422 2402 3306 
Q 2541 3191 2638 3047 
L 2669 3047 
Q 2650 3147 2623 3342 
Q 2597 3538 2597 3744 
L 2597 4863 
L 3553 4863 
L 3553 0 
L 2822 0 
L 2638 453 
L 2597 453 
Q 2506 309 2370 192 
Q 2234 75 2046 6 
Q 1859 -63 1606 -63 
z
M 1941 697 
Q 2331 697 2492 930 
Q 2653 1163 2663 1631 
L 2663 1734 
Q 2663 2244 2506 2514 
Q 2350 2784 1925 2784 
Q 1609 2784 1431 2512 
Q 1253 2241 1253 1728 
Q 1253 1216 1433 956 
Q 1613 697 1941 697 
z
" transform="scale(0.015625)"/>
       <path id="OpenSans-Bold-6f" d="M 3675 1753 
Q 3675 1316 3558 978 
Q 3441 641 3217 408 
Q 2994 175 2680 56 
Q 2366 -63 1972 -63 
Q 1603 -63 1295 56 
Q 988 175 761 408 
Q 534 641 411 978 
Q 288 1316 288 1753 
Q 288 2334 494 2737 
Q 700 3141 1081 3350 
Q 1463 3559 1991 3559 
Q 2481 3559 2861 3350 
Q 3241 3141 3458 2737 
Q 3675 2334 3675 1753 
z
M 1259 1753 
Q 1259 1409 1334 1175 
Q 1409 941 1568 822 
Q 1728 703 1984 703 
Q 2238 703 2395 822 
Q 2553 941 2626 1175 
Q 2700 1409 2700 1753 
Q 2700 2100 2626 2329 
Q 2553 2559 2393 2675 
Q 2234 2791 1978 2791 
Q 1600 2791 1429 2531 
Q 1259 2272 1259 1753 
z
" transform="scale(0.015625)"/>
       <path id="OpenSans-Bold-76" d="M 1331 0 
L 0 3494 
L 997 3494 
L 1672 1503 
Q 1728 1328 1761 1134 
Q 1794 941 1806 788 
L 1831 788 
Q 1841 953 1877 1140 
Q 1913 1328 1972 1503 
L 2644 3494 
L 3641 3494 
L 2309 0 
L 1331 0 
z
" transform="scale(0.015625)"/>
       <path id="OpenSans-Bold-75" d="M 3706 3494 
L 3706 0 
L 2975 0 
L 2847 447 
L 2797 447 
Q 2684 269 2515 156 
Q 2347 44 2144 -9 
Q 1941 -63 1722 -63 
Q 1347 -63 1069 70 
Q 791 203 636 484 
Q 481 766 481 1216 
L 481 3494 
L 1434 3494 
L 1434 1453 
Q 1434 1078 1568 887 
Q 1703 697 1997 697 
Q 2288 697 2453 830 
Q 2619 963 2686 1220 
Q 2753 1478 2753 1850 
L 2753 3494 
L 3706 3494 
z
" transform="scale(0.015625)"/>
       <path id="OpenSans-Bold-6c" d="M 1453 0 
L 500 0 
L 500 4863 
L 1453 4863 
L 1453 0 
z
" transform="scale(0.015625)"/>
      </defs>
      <use xlink:href="#OpenSans-Bold-45"/>
      <use xlink:href="#OpenSans-Bold-6e" x="56.005859"/>
      <use xlink:href="#OpenSans-Bold-66" x="121.728516"/>
      <use xlink:href="#OpenSans-Bold-2e" x="160.449219"/>
      <use xlink:href="#OpenSans-Bold-20" x="188.964844"/>
      <use xlink:href="#OpenSans-Bold-63" x="214.941406"/>
      <use xlink:href="#OpenSans-Bold-61" x="266.357422"/>
      <use xlink:href="#OpenSans-Bold-72" x="326.757812"/>
      <use xlink:href="#OpenSans-Bold-64" x="372.167969"/>
      <use xlink:href="#OpenSans-Bold-69" x="435.449219"/>
      <use xlink:href="#OpenSans-Bold-6f" x="465.966797"/>
      <use xlink:href="#OpenSans-Bold-76" x="527.880859"/>
      <use xlink:href="#OpenSans-Bold-61" x="584.765625"/>
      <use xlink:href="#OpenSans-Bold-73" x="645.166016"/>
      <use xlink:href="#OpenSans-Bold-63" x="694.873047"/>
      <use xlink:href="#OpenSans-Bold-75" x="746.289062"/>
      <use xlink:href="#OpenSans-Bold-6c" x="812.011719"/>
      <use xlink:href="#OpenSans-Bold-61" x="842.529297"/>
      <use xlink:href="#OpenSans-Bold-72" x="902.929688"/>
      <use xlink:href="#OpenSans-Bold-65" x="948.339844"/>
      <use xlink:href="#OpenSans-Bold-73" x="1007.421875"/>
     </g>
    </g>
   </g>
  </g>
 </g>
 <defs>
  <clipPath id="p90ea13d9fe">
   <rect x="31.66" y="13.68" width="389.54" height="165.873594"/>
  </clipPath>
 </defs>
</svg>
