<?xml version="1.0" encoding="utf-8" standalone="no"?>
<!DOCTYPE svg PUBLIC "-//W3C//DTD SVG 1.1//EN"
  "http://www.w3.org/Graphics/SVG/1.1/DTD/svg11.dtd">
<svg xmlns:xlink="http://www.w3.org/1999/xlink" width="720pt" height="216pt" viewBox="0 0 720 216" xmlns="http://www.w3.org/2000/svg" version="1.1">
 <metadata>
  <rdf:RDF xmlns:dc="http://purl.org/dc/elements/1.1/" xmlns:cc="http://creativecommons.org/ns#" xmlns:rdf="http://www.w3.org/1999/02/22-rdf-syntax-ns#">
   <cc:Work>
    <dc:type rdf:resource="http://purl.org/dc/dcmitype/StillImage"/>
    <dc:date>2024-03-13T18:50:57.657753</dc:date>
    <dc:format>image/svg+xml</dc:format>
    <dc:creator>
     <cc:Agent>
      <dc:title>Matplotlib v3.7.1, https://matplotlib.org/</dc:title>
     </cc:Agent>
    </dc:creator>
   </cc:Work>
  </rdf:RDF>
 </metadata>
 <defs>
  <style type="text/css">*{stroke-linejoin: round; stroke-linecap: butt}</style>
 </defs>
 <g id="figure_1">
  <g id="patch_1">
   <path d="M 0 216 
L 720 216 
L 720 0 
L 0 0 
z
" style="fill: #ffffff"/>
  </g>
  <g id="axes_1">
   <g id="patch_2">
    <path d="M 36.25 179.553594 
L 356.895 179.553594 
L 356.895 36 
L 36.25 36 
z
" style="fill: #ffffff"/>
   </g>
   <g id="matplotlib.axis_1">
    <g id="xtick_1">
     <g id="line2d_1">
      <defs>
       <path id="m43346d4bf3" d="M 0 0 
L 0 3.5 
" style="stroke: #37539c; stroke-width: 0.8"/>
      </defs>
      <g>
       <use xlink:href="#m43346d4bf3" x="50.824773" y="179.553594" style="fill: #37539c; stroke: #37539c; stroke-width: 0.8"/>
      </g>
     </g>
     <g id="text_1">
      <!-- 2013 -->
      <g style="fill: #37539c" transform="translate(45.82597 203.788438) rotate(-45) scale(0.08 -0.08)">
       <defs>
        <path id="OpenSans-Bold-32" d="M 3450 0 
L 256 0 
L 256 672 
L 1403 1831 
Q 1750 2188 1961 2427 
Q 2172 2666 2267 2862 
Q 2363 3059 2363 3284 
Q 2363 3556 2211 3692 
Q 2059 3828 1806 3828 
Q 1541 3828 1291 3706 
Q 1041 3584 769 3359 
L 244 3981 
Q 441 4150 661 4300 
Q 881 4450 1173 4542 
Q 1466 4634 1875 4634 
Q 2325 4634 2648 4471 
Q 2972 4309 3147 4029 
Q 3322 3750 3322 3397 
Q 3322 3019 3172 2706 
Q 3022 2394 2736 2087 
Q 2450 1781 2047 1409 
L 1459 856 
L 1459 813 
L 3450 813 
L 3450 0 
z
" transform="scale(0.015625)"/>
        <path id="OpenSans-Bold-30" d="M 3425 2284 
Q 3425 1731 3339 1297 
Q 3253 863 3064 559 
Q 2875 256 2569 96 
Q 2263 -63 1825 -63 
Q 1275 -63 922 217 
Q 569 497 400 1023 
Q 231 1550 231 2284 
Q 231 3025 386 3551 
Q 541 4078 891 4359 
Q 1241 4641 1825 4641 
Q 2372 4641 2726 4361 
Q 3081 4081 3253 3554 
Q 3425 3028 3425 2284 
z
M 1191 2284 
Q 1191 1763 1248 1414 
Q 1306 1066 1443 891 
Q 1581 716 1825 716 
Q 2066 716 2205 889 
Q 2344 1063 2403 1411 
Q 2463 1759 2463 2284 
Q 2463 2806 2403 3156 
Q 2344 3506 2205 3682 
Q 2066 3859 1825 3859 
Q 1581 3859 1443 3682 
Q 1306 3506 1248 3156 
Q 1191 2806 1191 2284 
z
" transform="scale(0.015625)"/>
        <path id="OpenSans-Bold-31" d="M 2644 0 
L 1678 0 
L 1678 2644 
Q 1678 2753 1681 2914 
Q 1684 3075 1690 3245 
Q 1697 3416 1703 3553 
Q 1669 3513 1564 3414 
Q 1459 3316 1369 3238 
L 844 2816 
L 378 3397 
L 1850 4569 
L 2644 4569 
L 2644 0 
z
" transform="scale(0.015625)"/>
        <path id="OpenSans-Bold-33" d="M 3272 3547 
Q 3272 3231 3140 3000 
Q 3009 2769 2786 2622 
Q 2563 2475 2284 2406 
L 2284 2388 
Q 2834 2319 3120 2050 
Q 3406 1781 3406 1331 
Q 3406 931 3211 615 
Q 3016 300 2609 118 
Q 2203 -63 1563 -63 
Q 1184 -63 857 -2 
Q 531 59 244 184 
L 244 1006 
Q 538 856 859 779 
Q 1181 703 1459 703 
Q 1978 703 2186 883 
Q 2394 1063 2394 1388 
Q 2394 1578 2297 1709 
Q 2200 1841 1961 1909 
Q 1722 1978 1294 1978 
L 947 1978 
L 947 2719 
L 1300 2719 
Q 1722 2719 1942 2798 
Q 2163 2878 2242 3017 
Q 2322 3156 2322 3334 
Q 2322 3578 2172 3715 
Q 2022 3853 1672 3853 
Q 1453 3853 1273 3798 
Q 1094 3744 950 3667 
Q 806 3591 697 3519 
L 250 4184 
Q 519 4378 880 4506 
Q 1241 4634 1741 4634 
Q 2447 4634 2859 4350 
Q 3272 4066 3272 3547 
z
" transform="scale(0.015625)"/>
       </defs>
       <use xlink:href="#OpenSans-Bold-32"/>
       <use xlink:href="#OpenSans-Bold-30" x="57.177734"/>
       <use xlink:href="#OpenSans-Bold-31" x="114.355469"/>
       <use xlink:href="#OpenSans-Bold-33" x="171.533203"/>
      </g>
     </g>
    </g>
    <g id="xtick_2">
     <g id="line2d_2">
      <g>
       <use xlink:href="#m43346d4bf3" x="79.974318" y="179.553594" style="fill: #37539c; stroke: #37539c; stroke-width: 0.8"/>
      </g>
     </g>
     <g id="text_2">
      <!-- 2014 -->
      <g style="fill: #37539c" transform="translate(74.975515 203.788438) rotate(-45) scale(0.08 -0.08)">
       <defs>
        <path id="OpenSans-Bold-34" d="M 3553 947 
L 3003 947 
L 3003 0 
L 2059 0 
L 2059 947 
L 109 947 
L 109 1619 
L 2113 4569 
L 3003 4569 
L 3003 1697 
L 3553 1697 
L 3553 947 
z
M 2059 1697 
L 2059 2472 
Q 2059 2581 2064 2731 
Q 2069 2881 2075 3031 
Q 2081 3181 2089 3298 
Q 2097 3416 2100 3463 
L 2075 3463 
Q 2016 3334 1950 3214 
Q 1884 3094 1797 2963 
L 959 1697 
L 2059 1697 
z
" transform="scale(0.015625)"/>
       </defs>
       <use xlink:href="#OpenSans-Bold-32"/>
       <use xlink:href="#OpenSans-Bold-30" x="57.177734"/>
       <use xlink:href="#OpenSans-Bold-31" x="114.355469"/>
       <use xlink:href="#OpenSans-Bold-34" x="171.533203"/>
      </g>
     </g>
    </g>
    <g id="xtick_3">
     <g id="line2d_3">
      <g>
       <use xlink:href="#m43346d4bf3" x="109.123864" y="179.553594" style="fill: #37539c; stroke: #37539c; stroke-width: 0.8"/>
      </g>
     </g>
     <g id="text_3">
      <!-- 2015 -->
      <g style="fill: #37539c" transform="translate(104.125061 203.788438) rotate(-45) scale(0.08 -0.08)">
       <defs>
        <path id="OpenSans-Bold-35" d="M 1919 2919 
Q 2338 2919 2664 2759 
Q 2991 2600 3178 2290 
Q 3366 1981 3366 1528 
Q 3366 1034 3161 676 
Q 2956 319 2551 128 
Q 2147 -63 1544 -63 
Q 1184 -63 867 -2 
Q 550 59 313 184 
L 313 1019 
Q 550 894 883 808 
Q 1216 722 1509 722 
Q 1797 722 1994 798 
Q 2191 875 2292 1036 
Q 2394 1197 2394 1447 
Q 2394 1781 2169 1959 
Q 1944 2138 1478 2138 
Q 1300 2138 1108 2103 
Q 916 2069 788 2034 
L 403 2241 
L 575 4569 
L 3053 4569 
L 3053 3750 
L 1422 3750 
L 1338 2853 
Q 1444 2875 1569 2897 
Q 1694 2919 1919 2919 
z
" transform="scale(0.015625)"/>
       </defs>
       <use xlink:href="#OpenSans-Bold-32"/>
       <use xlink:href="#OpenSans-Bold-30" x="57.177734"/>
       <use xlink:href="#OpenSans-Bold-31" x="114.355469"/>
       <use xlink:href="#OpenSans-Bold-35" x="171.533203"/>
      </g>
     </g>
    </g>
    <g id="xtick_4">
     <g id="line2d_4">
      <g>
       <use xlink:href="#m43346d4bf3" x="138.273409" y="179.553594" style="fill: #37539c; stroke: #37539c; stroke-width: 0.8"/>
      </g>
     </g>
     <g id="text_4">
      <!-- 2016 -->
      <g style="fill: #37539c" transform="translate(133.274606 203.788438) rotate(-45) scale(0.08 -0.08)">
       <defs>
        <path id="OpenSans-Bold-36" d="M 225 1941 
Q 225 2334 283 2720 
Q 341 3106 484 3448 
Q 628 3791 887 4055 
Q 1147 4319 1547 4470 
Q 1947 4622 2516 4622 
Q 2650 4622 2829 4611 
Q 3009 4600 3128 4575 
L 3128 3803 
Q 3003 3831 2861 3848 
Q 2719 3866 2578 3866 
Q 2009 3866 1698 3684 
Q 1388 3503 1261 3183 
Q 1134 2863 1113 2438 
L 1153 2438 
Q 1241 2591 1373 2709 
Q 1506 2828 1697 2898 
Q 1888 2969 2144 2969 
Q 2544 2969 2837 2798 
Q 3131 2628 3290 2306 
Q 3450 1984 3450 1522 
Q 3450 1028 3259 672 
Q 3069 316 2720 126 
Q 2372 -63 1894 -63 
Q 1544 -63 1241 57 
Q 938 178 709 425 
Q 481 672 353 1048 
Q 225 1425 225 1941 
z
M 1875 709 
Q 2159 709 2337 903 
Q 2516 1097 2516 1509 
Q 2516 1844 2361 2036 
Q 2206 2228 1894 2228 
Q 1681 2228 1520 2133 
Q 1359 2038 1271 1892 
Q 1184 1747 1184 1594 
Q 1184 1434 1228 1278 
Q 1272 1122 1359 994 
Q 1447 866 1576 787 
Q 1706 709 1875 709 
z
" transform="scale(0.015625)"/>
       </defs>
       <use xlink:href="#OpenSans-Bold-32"/>
       <use xlink:href="#OpenSans-Bold-30" x="57.177734"/>
       <use xlink:href="#OpenSans-Bold-31" x="114.355469"/>
       <use xlink:href="#OpenSans-Bold-36" x="171.533203"/>
      </g>
     </g>
    </g>
    <g id="xtick_5">
     <g id="line2d_5">
      <g>
       <use xlink:href="#m43346d4bf3" x="167.422955" y="179.553594" style="fill: #37539c; stroke: #37539c; stroke-width: 0.8"/>
      </g>
     </g>
     <g id="text_5">
      <!-- 2017 -->
      <g style="fill: #37539c" transform="translate(162.424152 203.788438) rotate(-45) scale(0.08 -0.08)">
       <defs>
        <path id="OpenSans-Bold-37" d="M 709 0 
L 2425 3756 
L 172 3756 
L 172 4569 
L 3450 4569 
L 3450 3963 
L 1722 0 
L 709 0 
z
" transform="scale(0.015625)"/>
       </defs>
       <use xlink:href="#OpenSans-Bold-32"/>
       <use xlink:href="#OpenSans-Bold-30" x="57.177734"/>
       <use xlink:href="#OpenSans-Bold-31" x="114.355469"/>
       <use xlink:href="#OpenSans-Bold-37" x="171.533203"/>
      </g>
     </g>
    </g>
    <g id="xtick_6">
     <g id="line2d_6">
      <g>
       <use xlink:href="#m43346d4bf3" x="196.5725" y="179.553594" style="fill: #37539c; stroke: #37539c; stroke-width: 0.8"/>
      </g>
     </g>
     <g id="text_6">
      <!-- 2018 -->
      <g style="fill: #37539c" transform="translate(191.573697 203.788438) rotate(-45) scale(0.08 -0.08)">
       <defs>
        <path id="OpenSans-Bold-38" d="M 1831 4628 
Q 2225 4628 2558 4506 
Q 2891 4384 3091 4139 
Q 3291 3894 3291 3525 
Q 3291 3250 3183 3044 
Q 3075 2838 2890 2683 
Q 2706 2528 2472 2413 
Q 2716 2284 2934 2114 
Q 3153 1944 3292 1716 
Q 3431 1488 3431 1184 
Q 3431 803 3228 523 
Q 3025 244 2665 90 
Q 2306 -63 1831 -63 
Q 1319 -63 959 84 
Q 600 231 412 504 
Q 225 778 225 1159 
Q 225 1472 342 1703 
Q 459 1934 659 2101 
Q 859 2269 1100 2388 
Q 897 2516 730 2678 
Q 563 2841 464 3050 
Q 366 3259 366 3531 
Q 366 3894 570 4137 
Q 775 4381 1109 4504 
Q 1444 4628 1831 4628 
z
M 1119 1216 
Q 1119 969 1295 808 
Q 1472 647 1819 647 
Q 2178 647 2356 801 
Q 2534 956 2534 1209 
Q 2534 1384 2432 1515 
Q 2331 1647 2178 1751 
Q 2025 1856 1869 1947 
L 1784 1991 
Q 1584 1900 1436 1787 
Q 1288 1675 1203 1534 
Q 1119 1394 1119 1216 
z
M 1825 3922 
Q 1588 3922 1431 3800 
Q 1275 3678 1275 3456 
Q 1275 3300 1351 3183 
Q 1428 3066 1554 2978 
Q 1681 2891 1831 2816 
Q 1975 2884 2100 2968 
Q 2225 3053 2303 3172 
Q 2381 3291 2381 3456 
Q 2381 3678 2223 3800 
Q 2066 3922 1825 3922 
z
" transform="scale(0.015625)"/>
       </defs>
       <use xlink:href="#OpenSans-Bold-32"/>
       <use xlink:href="#OpenSans-Bold-30" x="57.177734"/>
       <use xlink:href="#OpenSans-Bold-31" x="114.355469"/>
       <use xlink:href="#OpenSans-Bold-38" x="171.533203"/>
      </g>
     </g>
    </g>
    <g id="xtick_7">
     <g id="line2d_7">
      <g>
       <use xlink:href="#m43346d4bf3" x="225.722045" y="179.553594" style="fill: #37539c; stroke: #37539c; stroke-width: 0.8"/>
      </g>
     </g>
     <g id="text_7">
      <!-- 2019 -->
      <g style="fill: #37539c" transform="translate(220.723242 203.788438) rotate(-45) scale(0.08 -0.08)">
       <defs>
        <path id="OpenSans-Bold-39" d="M 3431 2619 
Q 3431 2225 3373 1837 
Q 3316 1450 3172 1108 
Q 3028 766 2768 502 
Q 2509 238 2109 87 
Q 1709 -63 1141 -63 
Q 1006 -63 825 -52 
Q 644 -41 525 -19 
L 525 756 
Q 650 725 790 708 
Q 931 691 1075 691 
Q 1647 691 1958 872 
Q 2269 1053 2395 1375 
Q 2522 1697 2541 2119 
L 2503 2119 
Q 2413 1969 2289 1848 
Q 2166 1728 1975 1658 
Q 1784 1588 1491 1588 
Q 1100 1588 811 1758 
Q 522 1928 364 2251 
Q 206 2575 206 3034 
Q 206 3531 395 3886 
Q 584 4241 934 4431 
Q 1284 4622 1759 4622 
Q 2109 4622 2412 4501 
Q 2716 4381 2945 4134 
Q 3175 3888 3303 3509 
Q 3431 3131 3431 2619 
z
M 1778 3847 
Q 1497 3847 1319 3653 
Q 1141 3459 1141 3047 
Q 1141 2716 1294 2522 
Q 1447 2328 1759 2328 
Q 1975 2328 2134 2423 
Q 2294 2519 2383 2664 
Q 2472 2809 2472 2963 
Q 2472 3122 2428 3278 
Q 2384 3434 2296 3562 
Q 2209 3691 2079 3769 
Q 1950 3847 1778 3847 
z
" transform="scale(0.015625)"/>
       </defs>
       <use xlink:href="#OpenSans-Bold-32"/>
       <use xlink:href="#OpenSans-Bold-30" x="57.177734"/>
       <use xlink:href="#OpenSans-Bold-31" x="114.355469"/>
       <use xlink:href="#OpenSans-Bold-39" x="171.533203"/>
      </g>
     </g>
    </g>
    <g id="xtick_8">
     <g id="line2d_8">
      <g>
       <use xlink:href="#m43346d4bf3" x="254.871591" y="179.553594" style="fill: #37539c; stroke: #37539c; stroke-width: 0.8"/>
      </g>
     </g>
     <g id="text_8">
      <!-- 2020 -->
      <g style="fill: #37539c" transform="translate(249.872788 203.788438) rotate(-45) scale(0.08 -0.08)">
       <use xlink:href="#OpenSans-Bold-32"/>
       <use xlink:href="#OpenSans-Bold-30" x="57.177734"/>
       <use xlink:href="#OpenSans-Bold-32" x="114.355469"/>
       <use xlink:href="#OpenSans-Bold-30" x="171.533203"/>
      </g>
     </g>
    </g>
    <g id="xtick_9">
     <g id="line2d_9">
      <g>
       <use xlink:href="#m43346d4bf3" x="284.021136" y="179.553594" style="fill: #37539c; stroke: #37539c; stroke-width: 0.8"/>
      </g>
     </g>
     <g id="text_9">
      <!-- 2021 -->
      <g style="fill: #37539c" transform="translate(279.022333 203.788438) rotate(-45) scale(0.08 -0.08)">
       <use xlink:href="#OpenSans-Bold-32"/>
       <use xlink:href="#OpenSans-Bold-30" x="57.177734"/>
       <use xlink:href="#OpenSans-Bold-32" x="114.355469"/>
       <use xlink:href="#OpenSans-Bold-31" x="171.533203"/>
      </g>
     </g>
    </g>
    <g id="xtick_10">
     <g id="line2d_10">
      <g>
       <use xlink:href="#m43346d4bf3" x="313.170682" y="179.553594" style="fill: #37539c; stroke: #37539c; stroke-width: 0.8"/>
      </g>
     </g>
     <g id="text_10">
      <!-- 2022 -->
      <g style="fill: #37539c" transform="translate(308.171879 203.788438) rotate(-45) scale(0.08 -0.08)">
       <use xlink:href="#OpenSans-Bold-32"/>
       <use xlink:href="#OpenSans-Bold-30" x="57.177734"/>
       <use xlink:href="#OpenSans-Bold-32" x="114.355469"/>
       <use xlink:href="#OpenSans-Bold-32" x="171.533203"/>
      </g>
     </g>
    </g>
    <g id="xtick_11">
     <g id="line2d_11">
      <g>
       <use xlink:href="#m43346d4bf3" x="342.320227" y="179.553594" style="fill: #37539c; stroke: #37539c; stroke-width: 0.8"/>
      </g>
     </g>
     <g id="text_11">
      <!-- 2023 -->
      <g style="fill: #37539c" transform="translate(337.321424 203.788438) rotate(-45) scale(0.08 -0.08)">
       <use xlink:href="#OpenSans-Bold-32"/>
       <use xlink:href="#OpenSans-Bold-30" x="57.177734"/>
       <use xlink:href="#OpenSans-Bold-32" x="114.355469"/>
       <use xlink:href="#OpenSans-Bold-33" x="171.533203"/>
      </g>
     </g>
    </g>
   </g>
   <g id="matplotlib.axis_2">
    <g id="ytick_1">
     <g id="line2d_12">
      <path d="M 36.25 173.850734 
L 356.895 173.850734 
" clip-path="url(#p99b6b9b0bb)" style="fill: none; stroke-dasharray: 2.96,1.28; stroke-dashoffset: 0; stroke: #b0b0b0; stroke-width: 0.8"/>
     </g>
     <g id="line2d_13">
      <defs>
       <path id="mcab0bdbecc" d="M 0 0 
L -3.5 0 
" style="stroke: #37539c; stroke-width: 0.8"/>
      </defs>
      <g>
       <use xlink:href="#mcab0bdbecc" x="36.25" y="173.850734" style="fill: #37539c; stroke: #37539c; stroke-width: 0.8"/>
      </g>
     </g>
     <g id="text_12">
      <!-- 0 -->
      <g style="fill: #37539c" transform="translate(24.67625 176.890109) scale(0.08 -0.08)">
       <use xlink:href="#OpenSans-Bold-30"/>
      </g>
     </g>
    </g>
    <g id="ytick_2">
     <g id="line2d_14">
      <path d="M 36.25 155.162023 
L 356.895 155.162023 
" clip-path="url(#p99b6b9b0bb)" style="fill: none; stroke-dasharray: 2.96,1.28; stroke-dashoffset: 0; stroke: #b0b0b0; stroke-width: 0.8"/>
     </g>
     <g id="line2d_15">
      <g>
       <use xlink:href="#mcab0bdbecc" x="36.25" y="155.162023" style="fill: #37539c; stroke: #37539c; stroke-width: 0.8"/>
      </g>
     </g>
     <g id="text_13">
      <!-- 1000 -->
      <g style="fill: #37539c" transform="translate(10.955 158.201398) scale(0.08 -0.08)">
       <use xlink:href="#OpenSans-Bold-31"/>
       <use xlink:href="#OpenSans-Bold-30" x="57.177734"/>
       <use xlink:href="#OpenSans-Bold-30" x="114.355469"/>
       <use xlink:href="#OpenSans-Bold-30" x="171.533203"/>
      </g>
     </g>
    </g>
    <g id="ytick_3">
     <g id="line2d_16">
      <path d="M 36.25 136.473313 
L 356.895 136.473313 
" clip-path="url(#p99b6b9b0bb)" style="fill: none; stroke-dasharray: 2.96,1.28; stroke-dashoffset: 0; stroke: #b0b0b0; stroke-width: 0.8"/>
     </g>
     <g id="line2d_17">
      <g>
       <use xlink:href="#mcab0bdbecc" x="36.25" y="136.473313" style="fill: #37539c; stroke: #37539c; stroke-width: 0.8"/>
      </g>
     </g>
     <g id="text_14">
      <!-- 2000 -->
      <g style="fill: #37539c" transform="translate(10.955 139.512688) scale(0.08 -0.08)">
       <use xlink:href="#OpenSans-Bold-32"/>
       <use xlink:href="#OpenSans-Bold-30" x="57.177734"/>
       <use xlink:href="#OpenSans-Bold-30" x="114.355469"/>
       <use xlink:href="#OpenSans-Bold-30" x="171.533203"/>
      </g>
     </g>
    </g>
    <g id="ytick_4">
     <g id="line2d_18">
      <path d="M 36.25 117.784602 
L 356.895 117.784602 
" clip-path="url(#p99b6b9b0bb)" style="fill: none; stroke-dasharray: 2.96,1.28; stroke-dashoffset: 0; stroke: #b0b0b0; stroke-width: 0.8"/>
     </g>
     <g id="line2d_19">
      <g>
       <use xlink:href="#mcab0bdbecc" x="36.25" y="117.784602" style="fill: #37539c; stroke: #37539c; stroke-width: 0.8"/>
      </g>
     </g>
     <g id="text_15">
      <!-- 3000 -->
      <g style="fill: #37539c" transform="translate(10.955 120.823977) scale(0.08 -0.08)">
       <use xlink:href="#OpenSans-Bold-33"/>
       <use xlink:href="#OpenSans-Bold-30" x="57.177734"/>
       <use xlink:href="#OpenSans-Bold-30" x="114.355469"/>
       <use xlink:href="#OpenSans-Bold-30" x="171.533203"/>
      </g>
     </g>
    </g>
    <g id="ytick_5">
     <g id="line2d_20">
      <path d="M 36.25 99.095891 
L 356.895 99.095891 
" clip-path="url(#p99b6b9b0bb)" style="fill: none; stroke-dasharray: 2.96,1.28; stroke-dashoffset: 0; stroke: #b0b0b0; stroke-width: 0.8"/>
     </g>
     <g id="line2d_21">
      <g>
       <use xlink:href="#mcab0bdbecc" x="36.25" y="99.095891" style="fill: #37539c; stroke: #37539c; stroke-width: 0.8"/>
      </g>
     </g>
     <g id="text_16">
      <!-- 4000 -->
      <g style="fill: #37539c" transform="translate(10.955 102.135266) scale(0.08 -0.08)">
       <use xlink:href="#OpenSans-Bold-34"/>
       <use xlink:href="#OpenSans-Bold-30" x="57.177734"/>
       <use xlink:href="#OpenSans-Bold-30" x="114.355469"/>
       <use xlink:href="#OpenSans-Bold-30" x="171.533203"/>
      </g>
     </g>
    </g>
    <g id="ytick_6">
     <g id="line2d_22">
      <path d="M 36.25 80.40718 
L 356.895 80.40718 
" clip-path="url(#p99b6b9b0bb)" style="fill: none; stroke-dasharray: 2.96,1.28; stroke-dashoffset: 0; stroke: #b0b0b0; stroke-width: 0.8"/>
     </g>
     <g id="line2d_23">
      <g>
       <use xlink:href="#mcab0bdbecc" x="36.25" y="80.40718" style="fill: #37539c; stroke: #37539c; stroke-width: 0.8"/>
      </g>
     </g>
     <g id="text_17">
      <!-- 5000 -->
      <g style="fill: #37539c" transform="translate(10.955 83.446555) scale(0.08 -0.08)">
       <use xlink:href="#OpenSans-Bold-35"/>
       <use xlink:href="#OpenSans-Bold-30" x="57.177734"/>
       <use xlink:href="#OpenSans-Bold-30" x="114.355469"/>
       <use xlink:href="#OpenSans-Bold-30" x="171.533203"/>
      </g>
     </g>
    </g>
    <g id="ytick_7">
     <g id="line2d_24">
      <path d="M 36.25 61.718469 
L 356.895 61.718469 
" clip-path="url(#p99b6b9b0bb)" style="fill: none; stroke-dasharray: 2.96,1.28; stroke-dashoffset: 0; stroke: #b0b0b0; stroke-width: 0.8"/>
     </g>
     <g id="line2d_25">
      <g>
       <use xlink:href="#mcab0bdbecc" x="36.25" y="61.718469" style="fill: #37539c; stroke: #37539c; stroke-width: 0.8"/>
      </g>
     </g>
     <g id="text_18">
      <!-- 6000 -->
      <g style="fill: #37539c" transform="translate(10.955 64.757844) scale(0.08 -0.08)">
       <use xlink:href="#OpenSans-Bold-36"/>
       <use xlink:href="#OpenSans-Bold-30" x="57.177734"/>
       <use xlink:href="#OpenSans-Bold-30" x="114.355469"/>
       <use xlink:href="#OpenSans-Bold-30" x="171.533203"/>
      </g>
     </g>
    </g>
    <g id="ytick_8">
     <g id="line2d_26">
      <path d="M 36.25 43.029759 
L 356.895 43.029759 
" clip-path="url(#p99b6b9b0bb)" style="fill: none; stroke-dasharray: 2.96,1.28; stroke-dashoffset: 0; stroke: #b0b0b0; stroke-width: 0.8"/>
     </g>
     <g id="line2d_27">
      <g>
       <use xlink:href="#mcab0bdbecc" x="36.25" y="43.029759" style="fill: #37539c; stroke: #37539c; stroke-width: 0.8"/>
      </g>
     </g>
     <g id="text_19">
      <!-- 7000 -->
      <g style="fill: #37539c" transform="translate(10.955 46.069134) scale(0.08 -0.08)">
       <use xlink:href="#OpenSans-Bold-37"/>
       <use xlink:href="#OpenSans-Bold-30" x="57.177734"/>
       <use xlink:href="#OpenSans-Bold-30" x="114.355469"/>
       <use xlink:href="#OpenSans-Bold-30" x="171.533203"/>
      </g>
     </g>
    </g>
   </g>
   <g id="line2d_28">
    <path d="M 50.824773 170.038237 
L 79.974318 169.926105 
L 109.123864 169.085113 
L 138.273409 168.823471 
L 167.422955 168.449697 
L 196.5725 167.141487 
L 225.722045 167.365751 
L 254.871591 166.431316 
L 284.021136 165.440814 
L 313.170682 167.160176 
L 342.320227 166.337872 
" clip-path="url(#p99b6b9b0bb)" style="fill: none; stroke: #37539c; stroke-width: 1.5; stroke-linecap: square"/>
    <defs>
     <path id="m4b107441e4" d="M 0 2 
C 0.530406 2 1.03916 1.789267 1.414214 1.414214 
C 1.789267 1.03916 2 0.530406 2 0 
C 2 -0.530406 1.789267 -1.03916 1.414214 -1.414214 
C 1.03916 -1.789267 0.530406 -2 0 -2 
C -0.530406 -2 -1.03916 -1.789267 -1.414214 -1.414214 
C -1.789267 -1.03916 -2 -0.530406 -2 0 
C -2 0.530406 -1.789267 1.03916 -1.414214 1.414214 
C -1.03916 1.789267 -0.530406 2 0 2 
z
" style="stroke: #37539c"/>
    </defs>
    <g clip-path="url(#p99b6b9b0bb)">
     <use xlink:href="#m4b107441e4" x="50.824773" y="170.038237" style="fill: #37539c; stroke: #37539c"/>
     <use xlink:href="#m4b107441e4" x="79.974318" y="169.926105" style="fill: #37539c; stroke: #37539c"/>
     <use xlink:href="#m4b107441e4" x="109.123864" y="169.085113" style="fill: #37539c; stroke: #37539c"/>
     <use xlink:href="#m4b107441e4" x="138.273409" y="168.823471" style="fill: #37539c; stroke: #37539c"/>
     <use xlink:href="#m4b107441e4" x="167.422955" y="168.449697" style="fill: #37539c; stroke: #37539c"/>
     <use xlink:href="#m4b107441e4" x="196.5725" y="167.141487" style="fill: #37539c; stroke: #37539c"/>
     <use xlink:href="#m4b107441e4" x="225.722045" y="167.365751" style="fill: #37539c; stroke: #37539c"/>
     <use xlink:href="#m4b107441e4" x="254.871591" y="166.431316" style="fill: #37539c; stroke: #37539c"/>
     <use xlink:href="#m4b107441e4" x="284.021136" y="165.440814" style="fill: #37539c; stroke: #37539c"/>
     <use xlink:href="#m4b107441e4" x="313.170682" y="167.160176" style="fill: #37539c; stroke: #37539c"/>
     <use xlink:href="#m4b107441e4" x="342.320227" y="166.337872" style="fill: #37539c; stroke: #37539c"/>
    </g>
   </g>
   <g id="line2d_29">
    <path d="M 50.824773 172.579902 
L 79.974318 172.486458 
L 109.123864 171.869731 
L 138.273409 172.037929 
L 167.422955 171.757598 
L 196.5725 171.851042 
L 225.722045 171.402513 
L 254.871591 170.841852 
L 284.021136 171.533334 
L 313.170682 171.346447 
L 342.320227 171.776287 
" clip-path="url(#p99b6b9b0bb)" style="fill: none; stroke: #59c3c3; stroke-width: 1.5; stroke-linecap: square"/>
    <defs>
     <path id="m1c8ac2ba55" d="M 0 2 
C 0.530406 2 1.03916 1.789267 1.414214 1.414214 
C 1.789267 1.03916 2 0.530406 2 0 
C 2 -0.530406 1.789267 -1.03916 1.414214 -1.414214 
C 1.03916 -1.789267 0.530406 -2 0 -2 
C -0.530406 -2 -1.03916 -1.789267 -1.414214 -1.414214 
C -1.789267 -1.03916 -2 -0.530406 -2 0 
C -2 0.530406 -1.789267 1.03916 -1.414214 1.414214 
C -1.03916 1.789267 -0.530406 2 0 2 
z
" style="stroke: #59c3c3"/>
    </defs>
    <g clip-path="url(#p99b6b9b0bb)">
     <use xlink:href="#m1c8ac2ba55" x="50.824773" y="172.579902" style="fill: #59c3c3; stroke: #59c3c3"/>
     <use xlink:href="#m1c8ac2ba55" x="79.974318" y="172.486458" style="fill: #59c3c3; stroke: #59c3c3"/>
     <use xlink:href="#m1c8ac2ba55" x="109.123864" y="171.869731" style="fill: #59c3c3; stroke: #59c3c3"/>
     <use xlink:href="#m1c8ac2ba55" x="138.273409" y="172.037929" style="fill: #59c3c3; stroke: #59c3c3"/>
     <use xlink:href="#m1c8ac2ba55" x="167.422955" y="171.757598" style="fill: #59c3c3; stroke: #59c3c3"/>
     <use xlink:href="#m1c8ac2ba55" x="196.5725" y="171.851042" style="fill: #59c3c3; stroke: #59c3c3"/>
     <use xlink:href="#m1c8ac2ba55" x="225.722045" y="171.402513" style="fill: #59c3c3; stroke: #59c3c3"/>
     <use xlink:href="#m1c8ac2ba55" x="254.871591" y="170.841852" style="fill: #59c3c3; stroke: #59c3c3"/>
     <use xlink:href="#m1c8ac2ba55" x="284.021136" y="171.533334" style="fill: #59c3c3; stroke: #59c3c3"/>
     <use xlink:href="#m1c8ac2ba55" x="313.170682" y="171.346447" style="fill: #59c3c3; stroke: #59c3c3"/>
     <use xlink:href="#m1c8ac2ba55" x="342.320227" y="171.776287" style="fill: #59c3c3; stroke: #59c3c3"/>
    </g>
   </g>
   <g id="line2d_30">
    <path d="M 50.824773 173.028431 
L 79.974318 172.916299 
L 109.123864 172.59859 
L 138.273409 172.579902 
L 167.422955 172.617279 
L 196.5725 172.766789 
L 225.722045 172.355637 
L 254.871591 172.262194 
L 284.021136 172.224816 
L 313.170682 172.430392 
L 342.320227 172.523836 
" clip-path="url(#p99b6b9b0bb)" style="fill: none; stroke: #f45b69; stroke-width: 1.5; stroke-linecap: square"/>
    <defs>
     <path id="md4ead6c9b6" d="M 0 2 
C 0.530406 2 1.03916 1.789267 1.414214 1.414214 
C 1.789267 1.03916 2 0.530406 2 0 
C 2 -0.530406 1.789267 -1.03916 1.414214 -1.414214 
C 1.03916 -1.789267 0.530406 -2 0 -2 
C -0.530406 -2 -1.03916 -1.789267 -1.414214 -1.414214 
C -1.789267 -1.03916 -2 -0.530406 -2 0 
C -2 0.530406 -1.789267 1.03916 -1.414214 1.414214 
C -1.03916 1.789267 -0.530406 2 0 2 
z
" style="stroke: #f45b69"/>
    </defs>
    <g clip-path="url(#p99b6b9b0bb)">
     <use xlink:href="#md4ead6c9b6" x="50.824773" y="173.028431" style="fill: #f45b69; stroke: #f45b69"/>
     <use xlink:href="#md4ead6c9b6" x="79.974318" y="172.916299" style="fill: #f45b69; stroke: #f45b69"/>
     <use xlink:href="#md4ead6c9b6" x="109.123864" y="172.59859" style="fill: #f45b69; stroke: #f45b69"/>
     <use xlink:href="#md4ead6c9b6" x="138.273409" y="172.579902" style="fill: #f45b69; stroke: #f45b69"/>
     <use xlink:href="#md4ead6c9b6" x="167.422955" y="172.617279" style="fill: #f45b69; stroke: #f45b69"/>
     <use xlink:href="#md4ead6c9b6" x="196.5725" y="172.766789" style="fill: #f45b69; stroke: #f45b69"/>
     <use xlink:href="#md4ead6c9b6" x="225.722045" y="172.355637" style="fill: #f45b69; stroke: #f45b69"/>
     <use xlink:href="#md4ead6c9b6" x="254.871591" y="172.262194" style="fill: #f45b69; stroke: #f45b69"/>
     <use xlink:href="#md4ead6c9b6" x="284.021136" y="172.224816" style="fill: #f45b69; stroke: #f45b69"/>
     <use xlink:href="#md4ead6c9b6" x="313.170682" y="172.430392" style="fill: #f45b69; stroke: #f45b69"/>
     <use xlink:href="#md4ead6c9b6" x="342.320227" y="172.523836" style="fill: #f45b69; stroke: #f45b69"/>
    </g>
   </g>
   <g id="line2d_31">
    <path d="M 50.824773 117.821979 
L 79.974318 113.336689 
L 109.123864 101.189027 
L 138.273409 97.80637 
L 167.422955 90.330886 
L 196.5725 83.229175 
L 225.722045 77.753383 
L 254.871591 47.739314 
L 284.021136 42.525163 
L 313.170682 58.279747 
L 342.320227 63.419142 
" clip-path="url(#p99b6b9b0bb)" style="fill: none; stroke: #52489c; stroke-width: 1.5; stroke-linecap: square"/>
    <defs>
     <path id="m989ccb43aa" d="M 0 2 
C 0.530406 2 1.03916 1.789267 1.414214 1.414214 
C 1.789267 1.03916 2 0.530406 2 0 
C 2 -0.530406 1.789267 -1.03916 1.414214 -1.414214 
C 1.03916 -1.789267 0.530406 -2 0 -2 
C -0.530406 -2 -1.03916 -1.789267 -1.414214 -1.414214 
C -1.789267 -1.03916 -2 -0.530406 -2 0 
C -2 0.530406 -1.789267 1.03916 -1.414214 1.414214 
C -1.03916 1.789267 -0.530406 2 0 2 
z
" style="stroke: #52489c"/>
    </defs>
    <g clip-path="url(#p99b6b9b0bb)">
     <use xlink:href="#m989ccb43aa" x="50.824773" y="117.821979" style="fill: #52489c; stroke: #52489c"/>
     <use xlink:href="#m989ccb43aa" x="79.974318" y="113.336689" style="fill: #52489c; stroke: #52489c"/>
     <use xlink:href="#m989ccb43aa" x="109.123864" y="101.189027" style="fill: #52489c; stroke: #52489c"/>
     <use xlink:href="#m989ccb43aa" x="138.273409" y="97.80637" style="fill: #52489c; stroke: #52489c"/>
     <use xlink:href="#m989ccb43aa" x="167.422955" y="90.330886" style="fill: #52489c; stroke: #52489c"/>
     <use xlink:href="#m989ccb43aa" x="196.5725" y="83.229175" style="fill: #52489c; stroke: #52489c"/>
     <use xlink:href="#m989ccb43aa" x="225.722045" y="77.753383" style="fill: #52489c; stroke: #52489c"/>
     <use xlink:href="#m989ccb43aa" x="254.871591" y="47.739314" style="fill: #52489c; stroke: #52489c"/>
     <use xlink:href="#m989ccb43aa" x="284.021136" y="42.525163" style="fill: #52489c; stroke: #52489c"/>
     <use xlink:href="#m989ccb43aa" x="313.170682" y="58.279747" style="fill: #52489c; stroke: #52489c"/>
     <use xlink:href="#m989ccb43aa" x="342.320227" y="63.419142" style="fill: #52489c; stroke: #52489c"/>
    </g>
   </g>
   <g id="patch_3">
    <path d="M 36.25 179.553594 
L 36.25 36 
" style="fill: none; stroke: #000000; stroke-width: 0.8; stroke-linejoin: miter; stroke-linecap: square"/>
   </g>
   <g id="patch_4">
    <path d="M 36.25 179.553594 
L 356.895 179.553594 
" style="fill: none; stroke: #000000; stroke-width: 0.8; stroke-linejoin: miter; stroke-linecap: square"/>
   </g>
   <g id="legend_1">
    <g id="patch_5">
     <path d="M 41.85 90.405 
L 152.02125 90.405 
Q 153.62125 90.405 153.62125 88.805 
L 153.62125 41.6 
Q 153.62125 40 152.02125 40 
L 41.85 40 
Q 40.25 40 40.25 41.6 
L 40.25 88.805 
Q 40.25 90.405 41.85 90.405 
z
" style="fill: #ffffff; opacity: 0.8; stroke: #cccccc; stroke-linejoin: miter"/>
    </g>
    <g id="line2d_32">
     <path d="M 43.45 46.47875 
L 51.45 46.47875 
L 59.45 46.47875 
" style="fill: none; stroke: #37539c; stroke-width: 1.5; stroke-linecap: square"/>
     <g>
      <use xlink:href="#m4b107441e4" x="51.45" y="46.47875" style="fill: #37539c; stroke: #37539c"/>
     </g>
    </g>
    <g id="text_20">
     <!-- Cancer -->
     <g style="fill: #37539c" transform="translate(65.85 49.27875) scale(0.08 -0.08)">
      <defs>
       <path id="OpenSans-Bold-43" d="M 2516 3828 
Q 2238 3828 2023 3720 
Q 1809 3613 1664 3409 
Q 1519 3206 1444 2918 
Q 1369 2631 1369 2272 
Q 1369 1788 1489 1445 
Q 1609 1103 1862 923 
Q 2116 744 2516 744 
Q 2794 744 3073 806 
Q 3353 869 3681 984 
L 3681 172 
Q 3378 47 3084 -8 
Q 2791 -63 2425 -63 
Q 1719 -63 1264 229 
Q 809 522 590 1048 
Q 372 1575 372 2278 
Q 372 2797 512 3228 
Q 653 3659 925 3975 
Q 1197 4291 1597 4462 
Q 1997 4634 2516 4634 
Q 2856 4634 3198 4548 
Q 3541 4463 3853 4313 
L 3541 3525 
Q 3284 3647 3025 3737 
Q 2766 3828 2516 3828 
z
" transform="scale(0.015625)"/>
       <path id="OpenSans-Bold-61" d="M 1931 3566 
Q 2634 3566 3009 3259 
Q 3384 2953 3384 2328 
L 3384 0 
L 2719 0 
L 2534 475 
L 2509 475 
Q 2359 288 2203 169 
Q 2047 50 1844 -6 
Q 1641 -63 1350 -63 
Q 1041 -63 795 56 
Q 550 175 409 420 
Q 269 666 269 1044 
Q 269 1600 659 1864 
Q 1050 2128 1831 2156 
L 2438 2175 
L 2438 2328 
Q 2438 2603 2294 2731 
Q 2150 2859 1894 2859 
Q 1641 2859 1397 2787 
Q 1153 2716 909 2606 
L 594 3250 
Q 872 3397 1217 3481 
Q 1563 3566 1931 3566 
z
M 2438 1619 
L 2069 1606 
Q 1606 1594 1426 1441 
Q 1247 1288 1247 1038 
Q 1247 819 1375 726 
Q 1503 634 1709 634 
Q 2016 634 2227 815 
Q 2438 997 2438 1331 
L 2438 1619 
z
" transform="scale(0.015625)"/>
       <path id="OpenSans-Bold-6e" d="M 2484 3559 
Q 3044 3559 3384 3254 
Q 3725 2950 3725 2278 
L 3725 0 
L 2772 0 
L 2772 2041 
Q 2772 2416 2636 2606 
Q 2500 2797 2209 2797 
Q 1772 2797 1612 2500 
Q 1453 2203 1453 1644 
L 1453 0 
L 500 0 
L 500 3494 
L 1228 3494 
L 1356 3047 
L 1409 3047 
Q 1522 3228 1689 3340 
Q 1856 3453 2061 3506 
Q 2266 3559 2484 3559 
z
" transform="scale(0.015625)"/>
       <path id="OpenSans-Bold-63" d="M 1919 -63 
Q 1400 -63 1034 126 
Q 669 316 478 712 
Q 288 1109 288 1728 
Q 288 2369 505 2773 
Q 722 3178 1108 3368 
Q 1494 3559 2003 3559 
Q 2366 3559 2630 3489 
Q 2894 3419 3091 3322 
L 2809 2584 
Q 2584 2675 2390 2733 
Q 2197 2791 2003 2791 
Q 1753 2791 1587 2673 
Q 1422 2556 1340 2322 
Q 1259 2088 1259 1734 
Q 1259 1388 1346 1159 
Q 1434 931 1600 820 
Q 1766 709 2003 709 
Q 2300 709 2531 789 
Q 2763 869 2981 1013 
L 2981 197 
Q 2763 59 2523 -2 
Q 2284 -63 1919 -63 
z
" transform="scale(0.015625)"/>
       <path id="OpenSans-Bold-65" d="M 1941 3559 
Q 2425 3559 2775 3373 
Q 3125 3188 3315 2834 
Q 3506 2481 3506 1972 
L 3506 1509 
L 1253 1509 
Q 1269 1106 1495 876 
Q 1722 647 2125 647 
Q 2459 647 2737 715 
Q 3016 784 3309 922 
L 3309 184 
Q 3050 56 2767 -3 
Q 2484 -63 2081 -63 
Q 1556 -63 1151 131 
Q 747 325 517 722 
Q 288 1119 288 1722 
Q 288 2334 495 2742 
Q 703 3150 1075 3354 
Q 1447 3559 1941 3559 
z
M 1947 2881 
Q 1669 2881 1486 2703 
Q 1303 2525 1275 2144 
L 2613 2144 
Q 2609 2356 2536 2522 
Q 2463 2688 2317 2784 
Q 2172 2881 1947 2881 
z
" transform="scale(0.015625)"/>
       <path id="OpenSans-Bold-72" d="M 2450 3559 
Q 2522 3559 2617 3551 
Q 2713 3544 2772 3531 
L 2700 2638 
Q 2653 2653 2567 2661 
Q 2481 2669 2419 2669 
Q 2234 2669 2061 2622 
Q 1888 2575 1750 2470 
Q 1613 2366 1533 2195 
Q 1453 2025 1453 1778 
L 1453 0 
L 500 0 
L 500 3494 
L 1222 3494 
L 1363 2906 
L 1409 2906 
Q 1513 3084 1667 3232 
Q 1822 3381 2020 3470 
Q 2219 3559 2450 3559 
z
" transform="scale(0.015625)"/>
      </defs>
      <use xlink:href="#OpenSans-Bold-43"/>
      <use xlink:href="#OpenSans-Bold-61" x="63.720703"/>
      <use xlink:href="#OpenSans-Bold-6e" x="124.121094"/>
      <use xlink:href="#OpenSans-Bold-63" x="189.84375"/>
      <use xlink:href="#OpenSans-Bold-65" x="241.259766"/>
      <use xlink:href="#OpenSans-Bold-72" x="300.341797"/>
     </g>
    </g>
    <g id="line2d_33">
     <path d="M 43.45 58.48 
L 51.45 58.48 
L 59.45 58.48 
" style="fill: none; stroke: #59c3c3; stroke-width: 1.5; stroke-linecap: square"/>
     <g>
      <use xlink:href="#m1c8ac2ba55" x="51.45" y="58.48" style="fill: #59c3c3; stroke: #59c3c3"/>
     </g>
    </g>
    <g id="text_21">
     <!-- Diabetes -->
     <g style="fill: #37539c" transform="translate(65.85 61.28) scale(0.08 -0.08)">
      <defs>
       <path id="OpenSans-Bold-44" d="M 4366 2328 
Q 4366 1556 4070 1039 
Q 3775 522 3215 261 
Q 2656 0 1869 0 
L 575 0 
L 575 4569 
L 2009 4569 
Q 2728 4569 3256 4314 
Q 3784 4059 4075 3561 
Q 4366 3063 4366 2328 
z
M 3359 2303 
Q 3359 2809 3211 3136 
Q 3063 3463 2773 3619 
Q 2484 3775 2059 3775 
L 1544 3775 
L 1544 800 
L 1959 800 
Q 2669 800 3014 1178 
Q 3359 1556 3359 2303 
z
" transform="scale(0.015625)"/>
       <path id="OpenSans-Bold-69" d="M 1453 3494 
L 1453 0 
L 500 0 
L 500 3494 
L 1453 3494 
z
M 978 4863 
Q 1191 4863 1344 4764 
Q 1497 4666 1497 4397 
Q 1497 4131 1344 4029 
Q 1191 3928 978 3928 
Q 763 3928 611 4029 
Q 459 4131 459 4397 
Q 459 4666 611 4764 
Q 763 4863 978 4863 
z
" transform="scale(0.015625)"/>
       <path id="OpenSans-Bold-62" d="M 1453 4863 
L 1453 3731 
Q 1453 3534 1442 3340 
Q 1431 3147 1416 3041 
L 1453 3041 
Q 1591 3256 1828 3407 
Q 2066 3559 2444 3559 
Q 3031 3559 3397 3100 
Q 3763 2641 3763 1753 
Q 3763 1156 3594 751 
Q 3425 347 3122 142 
Q 2819 -63 2419 -63 
Q 2034 -63 1812 75 
Q 1591 213 1453 384 
L 1388 384 
L 1228 0 
L 500 0 
L 500 4863 
L 1453 4863 
z
M 2138 2797 
Q 1888 2797 1741 2694 
Q 1594 2591 1526 2384 
Q 1459 2178 1453 1863 
L 1453 1759 
Q 1453 1250 1603 979 
Q 1753 709 2150 709 
Q 2444 709 2617 981 
Q 2791 1253 2791 1766 
Q 2791 2278 2616 2537 
Q 2441 2797 2138 2797 
z
" transform="scale(0.015625)"/>
       <path id="OpenSans-Bold-74" d="M 1972 697 
Q 2128 697 2276 728 
Q 2425 759 2572 806 
L 2572 97 
Q 2419 28 2192 -17 
Q 1966 -63 1697 -63 
Q 1384 -63 1136 39 
Q 888 141 745 392 
Q 603 644 603 1094 
L 603 2778 
L 147 2778 
L 147 3181 
L 672 3500 
L 947 4238 
L 1556 4238 
L 1556 3494 
L 2534 3494 
L 2534 2778 
L 1556 2778 
L 1556 1094 
Q 1556 894 1670 795 
Q 1784 697 1972 697 
z
" transform="scale(0.015625)"/>
       <path id="OpenSans-Bold-73" d="M 2938 1038 
Q 2938 681 2770 436 
Q 2603 191 2272 64 
Q 1941 -63 1447 -63 
Q 1081 -63 820 -16 
Q 559 31 294 141 
L 294 928 
Q 578 800 904 717 
Q 1231 634 1478 634 
Q 1756 634 1876 717 
Q 1997 800 1997 934 
Q 1997 1022 1948 1092 
Q 1900 1163 1740 1252 
Q 1581 1341 1241 1484 
Q 913 1622 702 1762 
Q 491 1903 389 2095 
Q 288 2288 288 2584 
Q 288 3069 664 3314 
Q 1041 3559 1672 3559 
Q 1997 3559 2292 3493 
Q 2588 3428 2900 3284 
L 2613 2597 
Q 2353 2709 2123 2781 
Q 1894 2853 1656 2853 
Q 1447 2853 1340 2797 
Q 1234 2741 1234 2625 
Q 1234 2541 1289 2475 
Q 1344 2409 1501 2329 
Q 1659 2250 1966 2125 
Q 2263 2003 2481 1870 
Q 2700 1738 2819 1542 
Q 2938 1347 2938 1038 
z
" transform="scale(0.015625)"/>
      </defs>
      <use xlink:href="#OpenSans-Bold-44"/>
      <use xlink:href="#OpenSans-Bold-69" x="74.023438"/>
      <use xlink:href="#OpenSans-Bold-61" x="104.541016"/>
      <use xlink:href="#OpenSans-Bold-62" x="164.941406"/>
      <use xlink:href="#OpenSans-Bold-65" x="228.222656"/>
      <use xlink:href="#OpenSans-Bold-74" x="287.304688"/>
      <use xlink:href="#OpenSans-Bold-65" x="330.712891"/>
      <use xlink:href="#OpenSans-Bold-73" x="389.794922"/>
     </g>
    </g>
    <g id="line2d_34">
     <path d="M 43.45 70.48125 
L 51.45 70.48125 
L 59.45 70.48125 
" style="fill: none; stroke: #f45b69; stroke-width: 1.5; stroke-linecap: square"/>
     <g>
      <use xlink:href="#md4ead6c9b6" x="51.45" y="70.48125" style="fill: #f45b69; stroke: #f45b69"/>
     </g>
    </g>
    <g id="text_22">
     <!-- Enf. cardiovasculares -->
     <g style="fill: #37539c" transform="translate(65.85 73.28125) scale(0.08 -0.08)">
      <defs>
       <path id="OpenSans-Bold-45" d="M 3206 0 
L 575 0 
L 575 4569 
L 3206 4569 
L 3206 3775 
L 1544 3775 
L 1544 2772 
L 3091 2772 
L 3091 1978 
L 1544 1978 
L 1544 800 
L 3206 800 
L 3206 0 
z
" transform="scale(0.015625)"/>
       <path id="OpenSans-Bold-66" d="M 2431 2778 
L 1606 2778 
L 1606 0 
L 653 0 
L 653 2778 
L 128 2778 
L 128 3238 
L 653 3494 
L 653 3750 
Q 653 4197 804 4445 
Q 956 4694 1232 4795 
Q 1509 4897 1888 4897 
Q 2166 4897 2394 4851 
Q 2622 4806 2766 4750 
L 2522 4050 
Q 2413 4084 2284 4112 
Q 2156 4141 1991 4141 
Q 1791 4141 1698 4020 
Q 1606 3900 1606 3713 
L 1606 3494 
L 2431 3494 
L 2431 2778 
z
" transform="scale(0.015625)"/>
       <path id="OpenSans-Bold-2e" d="M 366 447 
Q 366 741 527 859 
Q 688 978 916 978 
Q 1138 978 1298 859 
Q 1459 741 1459 447 
Q 1459 166 1298 41 
Q 1138 -84 916 -84 
Q 688 -84 527 41 
Q 366 166 366 447 
z
" transform="scale(0.015625)"/>
       <path id="OpenSans-Bold-20" transform="scale(0.015625)"/>
       <path id="OpenSans-Bold-64" d="M 1606 -63 
Q 1022 -63 655 395 
Q 288 853 288 1741 
Q 288 2638 659 3098 
Q 1031 3559 1631 3559 
Q 1881 3559 2072 3490 
Q 2263 3422 2402 3306 
Q 2541 3191 2638 3047 
L 2669 3047 
Q 2650 3147 2623 3342 
Q 2597 3538 2597 3744 
L 2597 4863 
L 3553 4863 
L 3553 0 
L 2822 0 
L 2638 453 
L 2597 453 
Q 2506 309 2370 192 
Q 2234 75 2046 6 
Q 1859 -63 1606 -63 
z
M 1941 697 
Q 2331 697 2492 930 
Q 2653 1163 2663 1631 
L 2663 1734 
Q 2663 2244 2506 2514 
Q 2350 2784 1925 2784 
Q 1609 2784 1431 2512 
Q 1253 2241 1253 1728 
Q 1253 1216 1433 956 
Q 1613 697 1941 697 
z
" transform="scale(0.015625)"/>
       <path id="OpenSans-Bold-6f" d="M 3675 1753 
Q 3675 1316 3558 978 
Q 3441 641 3217 408 
Q 2994 175 2680 56 
Q 2366 -63 1972 -63 
Q 1603 -63 1295 56 
Q 988 175 761 408 
Q 534 641 411 978 
Q 288 1316 288 1753 
Q 288 2334 494 2737 
Q 700 3141 1081 3350 
Q 1463 3559 1991 3559 
Q 2481 3559 2861 3350 
Q 3241 3141 3458 2737 
Q 3675 2334 3675 1753 
z
M 1259 1753 
Q 1259 1409 1334 1175 
Q 1409 941 1568 822 
Q 1728 703 1984 703 
Q 2238 703 2395 822 
Q 2553 941 2626 1175 
Q 2700 1409 2700 1753 
Q 2700 2100 2626 2329 
Q 2553 2559 2393 2675 
Q 2234 2791 1978 2791 
Q 1600 2791 1429 2531 
Q 1259 2272 1259 1753 
z
" transform="scale(0.015625)"/>
       <path id="OpenSans-Bold-76" d="M 1331 0 
L 0 3494 
L 997 3494 
L 1672 1503 
Q 1728 1328 1761 1134 
Q 1794 941 1806 788 
L 1831 788 
Q 1841 953 1877 1140 
Q 1913 1328 1972 1503 
L 2644 3494 
L 3641 3494 
L 2309 0 
L 1331 0 
z
" transform="scale(0.015625)"/>
       <path id="OpenSans-Bold-75" d="M 3706 3494 
L 3706 0 
L 2975 0 
L 2847 447 
L 2797 447 
Q 2684 269 2515 156 
Q 2347 44 2144 -9 
Q 1941 -63 1722 -63 
Q 1347 -63 1069 70 
Q 791 203 636 484 
Q 481 766 481 1216 
L 481 3494 
L 1434 3494 
L 1434 1453 
Q 1434 1078 1568 887 
Q 1703 697 1997 697 
Q 2288 697 2453 830 
Q 2619 963 2686 1220 
Q 2753 1478 2753 1850 
L 2753 3494 
L 3706 3494 
z
" transform="scale(0.015625)"/>
       <path id="OpenSans-Bold-6c" d="M 1453 0 
L 500 0 
L 500 4863 
L 1453 4863 
L 1453 0 
z
" transform="scale(0.015625)"/>
      </defs>
      <use xlink:href="#OpenSans-Bold-45"/>
      <use xlink:href="#OpenSans-Bold-6e" x="56.005859"/>
      <use xlink:href="#OpenSans-Bold-66" x="121.728516"/>
      <use xlink:href="#OpenSans-Bold-2e" x="160.449219"/>
      <use xlink:href="#OpenSans-Bold-20" x="188.964844"/>
      <use xlink:href="#OpenSans-Bold-63" x="214.941406"/>
      <use xlink:href="#OpenSans-Bold-61" x="266.357422"/>
      <use xlink:href="#OpenSans-Bold-72" x="326.757812"/>
      <use xlink:href="#OpenSans-Bold-64" x="372.167969"/>
      <use xlink:href="#OpenSans-Bold-69" x="435.449219"/>
      <use xlink:href="#OpenSans-Bold-6f" x="465.966797"/>
      <use xlink:href="#OpenSans-Bold-76" x="527.880859"/>
      <use xlink:href="#OpenSans-Bold-61" x="584.765625"/>
      <use xlink:href="#OpenSans-Bold-73" x="645.166016"/>
      <use xlink:href="#OpenSans-Bold-63" x="694.873047"/>
      <use xlink:href="#OpenSans-Bold-75" x="746.289062"/>
      <use xlink:href="#OpenSans-Bold-6c" x="812.011719"/>
      <use xlink:href="#OpenSans-Bold-61" x="842.529297"/>
      <use xlink:href="#OpenSans-Bold-72" x="902.929688"/>
      <use xlink:href="#OpenSans-Bold-65" x="948.339844"/>
      <use xlink:href="#OpenSans-Bold-73" x="1007.421875"/>
     </g>
    </g>
    <g id="line2d_35">
     <path d="M 43.45 82.4825 
L 51.45 82.4825 
L 59.45 82.4825 
" style="fill: none; stroke: #52489c; stroke-width: 1.5; stroke-linecap: square"/>
     <g>
      <use xlink:href="#m989ccb43aa" x="51.45" y="82.4825" style="fill: #52489c; stroke: #52489c"/>
     </g>
    </g>
    <g id="text_23">
     <!-- Medicina -->
     <g style="fill: #37539c" transform="translate(65.85 85.2825) scale(0.08 -0.08)">
      <defs>
       <path id="OpenSans-Bold-4d" d="M 2509 0 
L 1409 3584 
L 1381 3584 
Q 1388 3456 1402 3198 
Q 1416 2941 1428 2650 
Q 1441 2359 1441 2125 
L 1441 0 
L 575 0 
L 575 4569 
L 1894 4569 
L 2975 1075 
L 2994 1075 
L 4141 4569 
L 5459 4569 
L 5459 0 
L 4556 0 
L 4556 2163 
Q 4556 2378 4564 2659 
Q 4572 2941 4584 3195 
Q 4597 3450 4603 3578 
L 4575 3578 
L 3397 0 
L 2509 0 
z
" transform="scale(0.015625)"/>
      </defs>
      <use xlink:href="#OpenSans-Bold-4d"/>
      <use xlink:href="#OpenSans-Bold-65" x="94.287109"/>
      <use xlink:href="#OpenSans-Bold-64" x="153.369141"/>
      <use xlink:href="#OpenSans-Bold-69" x="216.650391"/>
      <use xlink:href="#OpenSans-Bold-63" x="247.167969"/>
      <use xlink:href="#OpenSans-Bold-69" x="298.583984"/>
      <use xlink:href="#OpenSans-Bold-6e" x="329.101562"/>
      <use xlink:href="#OpenSans-Bold-61" x="394.824219"/>
     </g>
    </g>
   </g>
  </g>
  <g id="axes_2">
   <g id="patch_6">
    <path d="M 388.555 179.553594 
L 709.2 179.553594 
L 709.2 36 
L 388.555 36 
z
" style="fill: #ffffff"/>
   </g>
   <g id="matplotlib.axis_3">
    <g id="xtick_12">
     <g id="line2d_36">
      <g>
       <use xlink:href="#m43346d4bf3" x="403.129773" y="179.553594" style="fill: #37539c; stroke: #37539c; stroke-width: 0.8"/>
      </g>
     </g>
     <g id="text_24">
      <!-- 2013 -->
      <g style="fill: #37539c" transform="translate(398.13097 203.788438) rotate(-45) scale(0.08 -0.08)">
       <use xlink:href="#OpenSans-Bold-32"/>
       <use xlink:href="#OpenSans-Bold-30" x="57.177734"/>
       <use xlink:href="#OpenSans-Bold-31" x="114.355469"/>
       <use xlink:href="#OpenSans-Bold-33" x="171.533203"/>
      </g>
     </g>
    </g>
    <g id="xtick_13">
     <g id="line2d_37">
      <g>
       <use xlink:href="#m43346d4bf3" x="432.279318" y="179.553594" style="fill: #37539c; stroke: #37539c; stroke-width: 0.8"/>
      </g>
     </g>
     <g id="text_25">
      <!-- 2014 -->
      <g style="fill: #37539c" transform="translate(427.280515 203.788438) rotate(-45) scale(0.08 -0.08)">
       <use xlink:href="#OpenSans-Bold-32"/>
       <use xlink:href="#OpenSans-Bold-30" x="57.177734"/>
       <use xlink:href="#OpenSans-Bold-31" x="114.355469"/>
       <use xlink:href="#OpenSans-Bold-34" x="171.533203"/>
      </g>
     </g>
    </g>
    <g id="xtick_14">
     <g id="line2d_38">
      <g>
       <use xlink:href="#m43346d4bf3" x="461.428864" y="179.553594" style="fill: #37539c; stroke: #37539c; stroke-width: 0.8"/>
      </g>
     </g>
     <g id="text_26">
      <!-- 2015 -->
      <g style="fill: #37539c" transform="translate(456.430061 203.788438) rotate(-45) scale(0.08 -0.08)">
       <use xlink:href="#OpenSans-Bold-32"/>
       <use xlink:href="#OpenSans-Bold-30" x="57.177734"/>
       <use xlink:href="#OpenSans-Bold-31" x="114.355469"/>
       <use xlink:href="#OpenSans-Bold-35" x="171.533203"/>
      </g>
     </g>
    </g>
    <g id="xtick_15">
     <g id="line2d_39">
      <g>
       <use xlink:href="#m43346d4bf3" x="490.578409" y="179.553594" style="fill: #37539c; stroke: #37539c; stroke-width: 0.8"/>
      </g>
     </g>
     <g id="text_27">
      <!-- 2016 -->
      <g style="fill: #37539c" transform="translate(485.579606 203.788438) rotate(-45) scale(0.08 -0.08)">
       <use xlink:href="#OpenSans-Bold-32"/>
       <use xlink:href="#OpenSans-Bold-30" x="57.177734"/>
       <use xlink:href="#OpenSans-Bold-31" x="114.355469"/>
       <use xlink:href="#OpenSans-Bold-36" x="171.533203"/>
      </g>
     </g>
    </g>
    <g id="xtick_16">
     <g id="line2d_40">
      <g>
       <use xlink:href="#m43346d4bf3" x="519.727955" y="179.553594" style="fill: #37539c; stroke: #37539c; stroke-width: 0.8"/>
      </g>
     </g>
     <g id="text_28">
      <!-- 2017 -->
      <g style="fill: #37539c" transform="translate(514.729152 203.788438) rotate(-45) scale(0.08 -0.08)">
       <use xlink:href="#OpenSans-Bold-32"/>
       <use xlink:href="#OpenSans-Bold-30" x="57.177734"/>
       <use xlink:href="#OpenSans-Bold-31" x="114.355469"/>
       <use xlink:href="#OpenSans-Bold-37" x="171.533203"/>
      </g>
     </g>
    </g>
    <g id="xtick_17">
     <g id="line2d_41">
      <g>
       <use xlink:href="#m43346d4bf3" x="548.8775" y="179.553594" style="fill: #37539c; stroke: #37539c; stroke-width: 0.8"/>
      </g>
     </g>
     <g id="text_29">
      <!-- 2018 -->
      <g style="fill: #37539c" transform="translate(543.878697 203.788438) rotate(-45) scale(0.08 -0.08)">
       <use xlink:href="#OpenSans-Bold-32"/>
       <use xlink:href="#OpenSans-Bold-30" x="57.177734"/>
       <use xlink:href="#OpenSans-Bold-31" x="114.355469"/>
       <use xlink:href="#OpenSans-Bold-38" x="171.533203"/>
      </g>
     </g>
    </g>
    <g id="xtick_18">
     <g id="line2d_42">
      <g>
       <use xlink:href="#m43346d4bf3" x="578.027045" y="179.553594" style="fill: #37539c; stroke: #37539c; stroke-width: 0.8"/>
      </g>
     </g>
     <g id="text_30">
      <!-- 2019 -->
      <g style="fill: #37539c" transform="translate(573.028242 203.788438) rotate(-45) scale(0.08 -0.08)">
       <use xlink:href="#OpenSans-Bold-32"/>
       <use xlink:href="#OpenSans-Bold-30" x="57.177734"/>
       <use xlink:href="#OpenSans-Bold-31" x="114.355469"/>
       <use xlink:href="#OpenSans-Bold-39" x="171.533203"/>
      </g>
     </g>
    </g>
    <g id="xtick_19">
     <g id="line2d_43">
      <g>
       <use xlink:href="#m43346d4bf3" x="607.176591" y="179.553594" style="fill: #37539c; stroke: #37539c; stroke-width: 0.8"/>
      </g>
     </g>
     <g id="text_31">
      <!-- 2020 -->
      <g style="fill: #37539c" transform="translate(602.177788 203.788438) rotate(-45) scale(0.08 -0.08)">
       <use xlink:href="#OpenSans-Bold-32"/>
       <use xlink:href="#OpenSans-Bold-30" x="57.177734"/>
       <use xlink:href="#OpenSans-Bold-32" x="114.355469"/>
       <use xlink:href="#OpenSans-Bold-30" x="171.533203"/>
      </g>
     </g>
    </g>
    <g id="xtick_20">
     <g id="line2d_44">
      <g>
       <use xlink:href="#m43346d4bf3" x="636.326136" y="179.553594" style="fill: #37539c; stroke: #37539c; stroke-width: 0.8"/>
      </g>
     </g>
     <g id="text_32">
      <!-- 2021 -->
      <g style="fill: #37539c" transform="translate(631.327333 203.788438) rotate(-45) scale(0.08 -0.08)">
       <use xlink:href="#OpenSans-Bold-32"/>
       <use xlink:href="#OpenSans-Bold-30" x="57.177734"/>
       <use xlink:href="#OpenSans-Bold-32" x="114.355469"/>
       <use xlink:href="#OpenSans-Bold-31" x="171.533203"/>
      </g>
     </g>
    </g>
    <g id="xtick_21">
     <g id="line2d_45">
      <g>
       <use xlink:href="#m43346d4bf3" x="665.475682" y="179.553594" style="fill: #37539c; stroke: #37539c; stroke-width: 0.8"/>
      </g>
     </g>
     <g id="text_33">
      <!-- 2022 -->
      <g style="fill: #37539c" transform="translate(660.476879 203.788438) rotate(-45) scale(0.08 -0.08)">
       <use xlink:href="#OpenSans-Bold-32"/>
       <use xlink:href="#OpenSans-Bold-30" x="57.177734"/>
       <use xlink:href="#OpenSans-Bold-32" x="114.355469"/>
       <use xlink:href="#OpenSans-Bold-32" x="171.533203"/>
      </g>
     </g>
    </g>
    <g id="xtick_22">
     <g id="line2d_46">
      <g>
       <use xlink:href="#m43346d4bf3" x="694.625227" y="179.553594" style="fill: #37539c; stroke: #37539c; stroke-width: 0.8"/>
      </g>
     </g>
     <g id="text_34">
      <!-- 2023 -->
      <g style="fill: #37539c" transform="translate(689.626424 203.788438) rotate(-45) scale(0.08 -0.08)">
       <use xlink:href="#OpenSans-Bold-32"/>
       <use xlink:href="#OpenSans-Bold-30" x="57.177734"/>
       <use xlink:href="#OpenSans-Bold-32" x="114.355469"/>
       <use xlink:href="#OpenSans-Bold-33" x="171.533203"/>
      </g>
     </g>
    </g>
   </g>
   <g id="matplotlib.axis_4">
    <g id="ytick_9">
     <g id="line2d_47">
      <path d="M 388.555 171.626952 
L 709.2 171.626952 
" clip-path="url(#p6492e9e6de)" style="fill: none; stroke-dasharray: 2.96,1.28; stroke-dashoffset: 0; stroke: #b0b0b0; stroke-width: 0.8"/>
     </g>
     <g id="line2d_48">
      <g>
       <use xlink:href="#mcab0bdbecc" x="388.555" y="171.626952" style="fill: #37539c; stroke: #37539c; stroke-width: 0.8"/>
      </g>
     </g>
     <g id="text_35">
      <!-- 50 -->
      <g style="fill: #37539c" transform="translate(372.4075 174.666327) scale(0.08 -0.08)">
       <use xlink:href="#OpenSans-Bold-35"/>
       <use xlink:href="#OpenSans-Bold-30" x="57.177734"/>
      </g>
     </g>
    </g>
    <g id="ytick_10">
     <g id="line2d_49">
      <path d="M 388.555 156.557291 
L 709.2 156.557291 
" clip-path="url(#p6492e9e6de)" style="fill: none; stroke-dasharray: 2.96,1.28; stroke-dashoffset: 0; stroke: #b0b0b0; stroke-width: 0.8"/>
     </g>
     <g id="line2d_50">
      <g>
       <use xlink:href="#mcab0bdbecc" x="388.555" y="156.557291" style="fill: #37539c; stroke: #37539c; stroke-width: 0.8"/>
      </g>
     </g>
     <g id="text_36">
      <!-- 100 -->
      <g style="fill: #37539c" transform="translate(367.83375 159.596666) scale(0.08 -0.08)">
       <use xlink:href="#OpenSans-Bold-31"/>
       <use xlink:href="#OpenSans-Bold-30" x="57.177734"/>
       <use xlink:href="#OpenSans-Bold-30" x="114.355469"/>
      </g>
     </g>
    </g>
    <g id="ytick_11">
     <g id="line2d_51">
      <path d="M 388.555 141.48763 
L 709.2 141.48763 
" clip-path="url(#p6492e9e6de)" style="fill: none; stroke-dasharray: 2.96,1.28; stroke-dashoffset: 0; stroke: #b0b0b0; stroke-width: 0.8"/>
     </g>
     <g id="line2d_52">
      <g>
       <use xlink:href="#mcab0bdbecc" x="388.555" y="141.48763" style="fill: #37539c; stroke: #37539c; stroke-width: 0.8"/>
      </g>
     </g>
     <g id="text_37">
      <!-- 150 -->
      <g style="fill: #37539c" transform="translate(367.83375 144.527005) scale(0.08 -0.08)">
       <use xlink:href="#OpenSans-Bold-31"/>
       <use xlink:href="#OpenSans-Bold-35" x="57.177734"/>
       <use xlink:href="#OpenSans-Bold-30" x="114.355469"/>
      </g>
     </g>
    </g>
    <g id="ytick_12">
     <g id="line2d_53">
      <path d="M 388.555 126.417968 
L 709.2 126.417968 
" clip-path="url(#p6492e9e6de)" style="fill: none; stroke-dasharray: 2.96,1.28; stroke-dashoffset: 0; stroke: #b0b0b0; stroke-width: 0.8"/>
     </g>
     <g id="line2d_54">
      <g>
       <use xlink:href="#mcab0bdbecc" x="388.555" y="126.417968" style="fill: #37539c; stroke: #37539c; stroke-width: 0.8"/>
      </g>
     </g>
     <g id="text_38">
      <!-- 200 -->
      <g style="fill: #37539c" transform="translate(367.83375 129.457343) scale(0.08 -0.08)">
       <use xlink:href="#OpenSans-Bold-32"/>
       <use xlink:href="#OpenSans-Bold-30" x="57.177734"/>
       <use xlink:href="#OpenSans-Bold-30" x="114.355469"/>
      </g>
     </g>
    </g>
    <g id="ytick_13">
     <g id="line2d_55">
      <path d="M 388.555 111.348307 
L 709.2 111.348307 
" clip-path="url(#p6492e9e6de)" style="fill: none; stroke-dasharray: 2.96,1.28; stroke-dashoffset: 0; stroke: #b0b0b0; stroke-width: 0.8"/>
     </g>
     <g id="line2d_56">
      <g>
       <use xlink:href="#mcab0bdbecc" x="388.555" y="111.348307" style="fill: #37539c; stroke: #37539c; stroke-width: 0.8"/>
      </g>
     </g>
     <g id="text_39">
      <!-- 250 -->
      <g style="fill: #37539c" transform="translate(367.83375 114.387682) scale(0.08 -0.08)">
       <use xlink:href="#OpenSans-Bold-32"/>
       <use xlink:href="#OpenSans-Bold-35" x="57.177734"/>
       <use xlink:href="#OpenSans-Bold-30" x="114.355469"/>
      </g>
     </g>
    </g>
    <g id="ytick_14">
     <g id="line2d_57">
      <path d="M 388.555 96.278645 
L 709.2 96.278645 
" clip-path="url(#p6492e9e6de)" style="fill: none; stroke-dasharray: 2.96,1.28; stroke-dashoffset: 0; stroke: #b0b0b0; stroke-width: 0.8"/>
     </g>
     <g id="line2d_58">
      <g>
       <use xlink:href="#mcab0bdbecc" x="388.555" y="96.278645" style="fill: #37539c; stroke: #37539c; stroke-width: 0.8"/>
      </g>
     </g>
     <g id="text_40">
      <!-- 300 -->
      <g style="fill: #37539c" transform="translate(367.83375 99.31802) scale(0.08 -0.08)">
       <use xlink:href="#OpenSans-Bold-33"/>
       <use xlink:href="#OpenSans-Bold-30" x="57.177734"/>
       <use xlink:href="#OpenSans-Bold-30" x="114.355469"/>
      </g>
     </g>
    </g>
    <g id="ytick_15">
     <g id="line2d_59">
      <path d="M 388.555 81.208984 
L 709.2 81.208984 
" clip-path="url(#p6492e9e6de)" style="fill: none; stroke-dasharray: 2.96,1.28; stroke-dashoffset: 0; stroke: #b0b0b0; stroke-width: 0.8"/>
     </g>
     <g id="line2d_60">
      <g>
       <use xlink:href="#mcab0bdbecc" x="388.555" y="81.208984" style="fill: #37539c; stroke: #37539c; stroke-width: 0.8"/>
      </g>
     </g>
     <g id="text_41">
      <!-- 350 -->
      <g style="fill: #37539c" transform="translate(367.83375 84.248359) scale(0.08 -0.08)">
       <use xlink:href="#OpenSans-Bold-33"/>
       <use xlink:href="#OpenSans-Bold-35" x="57.177734"/>
       <use xlink:href="#OpenSans-Bold-30" x="114.355469"/>
      </g>
     </g>
    </g>
    <g id="ytick_16">
     <g id="line2d_61">
      <path d="M 388.555 66.139323 
L 709.2 66.139323 
" clip-path="url(#p6492e9e6de)" style="fill: none; stroke-dasharray: 2.96,1.28; stroke-dashoffset: 0; stroke: #b0b0b0; stroke-width: 0.8"/>
     </g>
     <g id="line2d_62">
      <g>
       <use xlink:href="#mcab0bdbecc" x="388.555" y="66.139323" style="fill: #37539c; stroke: #37539c; stroke-width: 0.8"/>
      </g>
     </g>
     <g id="text_42">
      <!-- 400 -->
      <g style="fill: #37539c" transform="translate(367.83375 69.178698) scale(0.08 -0.08)">
       <use xlink:href="#OpenSans-Bold-34"/>
       <use xlink:href="#OpenSans-Bold-30" x="57.177734"/>
       <use xlink:href="#OpenSans-Bold-30" x="114.355469"/>
      </g>
     </g>
    </g>
    <g id="ytick_17">
     <g id="line2d_63">
      <path d="M 388.555 36 
L 709.2 36 
" clip-path="url(#p6492e9e6de)" style="fill: none; stroke-dasharray: 2.96,1.28; stroke-dashoffset: 0; stroke: #b0b0b0; stroke-width: 0.8"/>
     </g>
     <g id="line2d_64">
      <g>
       <use xlink:href="#mcab0bdbecc" x="388.555" y="36" style="fill: #37539c; stroke: #37539c; stroke-width: 0.8"/>
      </g>
     </g>
     <g id="text_43">
      <!-- 500 -->
      <g style="fill: #37539c" transform="translate(367.83375 39.039375) scale(0.08 -0.08)">
       <use xlink:href="#OpenSans-Bold-35"/>
       <use xlink:href="#OpenSans-Bold-30" x="57.177734"/>
       <use xlink:href="#OpenSans-Bold-30" x="114.355469"/>
      </g>
     </g>
    </g>
   </g>
   <g id="line2d_65">
    <path d="M 403.129773 125.212395 
L 432.279318 123.404036 
L 461.428864 109.841341 
L 490.578409 105.621836 
L 519.727955 99.593971 
L 548.8775 78.496445 
L 578.027045 82.113164 
L 607.176591 67.043502 
L 636.326136 51.069661 
L 665.475682 78.797838 
L 694.625227 65.536536 
" clip-path="url(#p6492e9e6de)" style="fill: none; stroke: #37539c; stroke-width: 1.5; stroke-linecap: square"/>
    <g clip-path="url(#p6492e9e6de)">
     <use xlink:href="#m4b107441e4" x="403.129773" y="125.212395" style="fill: #37539c; stroke: #37539c"/>
     <use xlink:href="#m4b107441e4" x="432.279318" y="123.404036" style="fill: #37539c; stroke: #37539c"/>
     <use xlink:href="#m4b107441e4" x="461.428864" y="109.841341" style="fill: #37539c; stroke: #37539c"/>
     <use xlink:href="#m4b107441e4" x="490.578409" y="105.621836" style="fill: #37539c; stroke: #37539c"/>
     <use xlink:href="#m4b107441e4" x="519.727955" y="99.593971" style="fill: #37539c; stroke: #37539c"/>
     <use xlink:href="#m4b107441e4" x="548.8775" y="78.496445" style="fill: #37539c; stroke: #37539c"/>
     <use xlink:href="#m4b107441e4" x="578.027045" y="82.113164" style="fill: #37539c; stroke: #37539c"/>
     <use xlink:href="#m4b107441e4" x="607.176591" y="67.043502" style="fill: #37539c; stroke: #37539c"/>
     <use xlink:href="#m4b107441e4" x="636.326136" y="51.069661" style="fill: #37539c; stroke: #37539c"/>
     <use xlink:href="#m4b107441e4" x="665.475682" y="78.797838" style="fill: #37539c; stroke: #37539c"/>
     <use xlink:href="#m4b107441e4" x="694.625227" y="65.536536" style="fill: #37539c; stroke: #37539c"/>
    </g>
   </g>
   <g id="line2d_66">
    <path d="M 403.129773 166.201874 
L 432.279318 164.694908 
L 461.428864 154.748932 
L 490.578409 157.461471 
L 519.727955 152.940572 
L 548.8775 154.447538 
L 578.027045 147.214101 
L 607.176591 138.172304 
L 636.326136 149.323853 
L 665.475682 146.309921 
L 694.625227 153.241965 
" clip-path="url(#p6492e9e6de)" style="fill: none; stroke: #59c3c3; stroke-width: 1.5; stroke-linecap: square"/>
    <g clip-path="url(#p6492e9e6de)">
     <use xlink:href="#m1c8ac2ba55" x="403.129773" y="166.201874" style="fill: #59c3c3; stroke: #59c3c3"/>
     <use xlink:href="#m1c8ac2ba55" x="432.279318" y="164.694908" style="fill: #59c3c3; stroke: #59c3c3"/>
     <use xlink:href="#m1c8ac2ba55" x="461.428864" y="154.748932" style="fill: #59c3c3; stroke: #59c3c3"/>
     <use xlink:href="#m1c8ac2ba55" x="490.578409" y="157.461471" style="fill: #59c3c3; stroke: #59c3c3"/>
     <use xlink:href="#m1c8ac2ba55" x="519.727955" y="152.940572" style="fill: #59c3c3; stroke: #59c3c3"/>
     <use xlink:href="#m1c8ac2ba55" x="548.8775" y="154.447538" style="fill: #59c3c3; stroke: #59c3c3"/>
     <use xlink:href="#m1c8ac2ba55" x="578.027045" y="147.214101" style="fill: #59c3c3; stroke: #59c3c3"/>
     <use xlink:href="#m1c8ac2ba55" x="607.176591" y="138.172304" style="fill: #59c3c3; stroke: #59c3c3"/>
     <use xlink:href="#m1c8ac2ba55" x="636.326136" y="149.323853" style="fill: #59c3c3; stroke: #59c3c3"/>
     <use xlink:href="#m1c8ac2ba55" x="665.475682" y="146.309921" style="fill: #59c3c3; stroke: #59c3c3"/>
     <use xlink:href="#m1c8ac2ba55" x="694.625227" y="153.241965" style="fill: #59c3c3; stroke: #59c3c3"/>
    </g>
   </g>
   <g id="line2d_67">
    <path d="M 403.129773 173.435312 
L 432.279318 171.626952 
L 461.428864 166.503267 
L 490.578409 166.201874 
L 519.727955 166.804661 
L 548.8775 169.215806 
L 578.027045 162.585155 
L 607.176591 161.078189 
L 636.326136 160.475403 
L 665.475682 163.790728 
L 694.625227 165.297695 
" clip-path="url(#p6492e9e6de)" style="fill: none; stroke: #f45b69; stroke-width: 1.5; stroke-linecap: square"/>
    <g clip-path="url(#p6492e9e6de)">
     <use xlink:href="#md4ead6c9b6" x="403.129773" y="173.435312" style="fill: #f45b69; stroke: #f45b69"/>
     <use xlink:href="#md4ead6c9b6" x="432.279318" y="171.626952" style="fill: #f45b69; stroke: #f45b69"/>
     <use xlink:href="#md4ead6c9b6" x="461.428864" y="166.503267" style="fill: #f45b69; stroke: #f45b69"/>
     <use xlink:href="#md4ead6c9b6" x="490.578409" y="166.201874" style="fill: #f45b69; stroke: #f45b69"/>
     <use xlink:href="#md4ead6c9b6" x="519.727955" y="166.804661" style="fill: #f45b69; stroke: #f45b69"/>
     <use xlink:href="#md4ead6c9b6" x="548.8775" y="169.215806" style="fill: #f45b69; stroke: #f45b69"/>
     <use xlink:href="#md4ead6c9b6" x="578.027045" y="162.585155" style="fill: #f45b69; stroke: #f45b69"/>
     <use xlink:href="#md4ead6c9b6" x="607.176591" y="161.078189" style="fill: #f45b69; stroke: #f45b69"/>
     <use xlink:href="#md4ead6c9b6" x="636.326136" y="160.475403" style="fill: #f45b69; stroke: #f45b69"/>
     <use xlink:href="#md4ead6c9b6" x="665.475682" y="163.790728" style="fill: #f45b69; stroke: #f45b69"/>
     <use xlink:href="#md4ead6c9b6" x="694.625227" y="165.297695" style="fill: #f45b69; stroke: #f45b69"/>
    </g>
   </g>
   <g id="patch_7">
    <path d="M 388.555 179.553594 
L 388.555 36 
" style="fill: none; stroke: #000000; stroke-width: 0.8; stroke-linejoin: miter; stroke-linecap: square"/>
   </g>
   <g id="patch_8">
    <path d="M 388.555 179.553594 
L 709.2 179.553594 
" style="fill: none; stroke: #000000; stroke-width: 0.8; stroke-linejoin: miter; stroke-linecap: square"/>
   </g>
   <g id="legend_2">
    <g id="patch_9">
     <path d="M 394.155 78.40375 
L 504.32625 78.40375 
Q 505.92625 78.40375 505.92625 76.80375 
L 505.92625 41.6 
Q 505.92625 40 504.32625 40 
L 394.155 40 
Q 392.555 40 392.555 41.6 
L 392.555 76.80375 
Q 392.555 78.40375 394.155 78.40375 
z
" style="fill: #ffffff; opacity: 0.8; stroke: #cccccc; stroke-linejoin: miter"/>
    </g>
    <g id="line2d_68">
     <path d="M 395.755 46.47875 
L 403.755 46.47875 
L 411.755 46.47875 
" style="fill: none; stroke: #37539c; stroke-width: 1.5; stroke-linecap: square"/>
     <g>
      <use xlink:href="#m4b107441e4" x="403.755" y="46.47875" style="fill: #37539c; stroke: #37539c"/>
     </g>
    </g>
    <g id="text_44">
     <!-- Cancer -->
     <g style="fill: #37539c" transform="translate(418.155 49.27875) scale(0.08 -0.08)">
      <use xlink:href="#OpenSans-Bold-43"/>
      <use xlink:href="#OpenSans-Bold-61" x="63.720703"/>
      <use xlink:href="#OpenSans-Bold-6e" x="124.121094"/>
      <use xlink:href="#OpenSans-Bold-63" x="189.84375"/>
      <use xlink:href="#OpenSans-Bold-65" x="241.259766"/>
      <use xlink:href="#OpenSans-Bold-72" x="300.341797"/>
     </g>
    </g>
    <g id="line2d_69">
     <path d="M 395.755 58.48 
L 403.755 58.48 
L 411.755 58.48 
" style="fill: none; stroke: #59c3c3; stroke-width: 1.5; stroke-linecap: square"/>
     <g>
      <use xlink:href="#m1c8ac2ba55" x="403.755" y="58.48" style="fill: #59c3c3; stroke: #59c3c3"/>
     </g>
    </g>
    <g id="text_45">
     <!-- Diabetes -->
     <g style="fill: #37539c" transform="translate(418.155 61.28) scale(0.08 -0.08)">
      <use xlink:href="#OpenSans-Bold-44"/>
      <use xlink:href="#OpenSans-Bold-69" x="74.023438"/>
      <use xlink:href="#OpenSans-Bold-61" x="104.541016"/>
      <use xlink:href="#OpenSans-Bold-62" x="164.941406"/>
      <use xlink:href="#OpenSans-Bold-65" x="228.222656"/>
      <use xlink:href="#OpenSans-Bold-74" x="287.304688"/>
      <use xlink:href="#OpenSans-Bold-65" x="330.712891"/>
      <use xlink:href="#OpenSans-Bold-73" x="389.794922"/>
     </g>
    </g>
    <g id="line2d_70">
     <path d="M 395.755 70.48125 
L 403.755 70.48125 
L 411.755 70.48125 
" style="fill: none; stroke: #f45b69; stroke-width: 1.5; stroke-linecap: square"/>
     <g>
      <use xlink:href="#md4ead6c9b6" x="403.755" y="70.48125" style="fill: #f45b69; stroke: #f45b69"/>
     </g>
    </g>
    <g id="text_46">
     <!-- Enf. cardiovasculares -->
     <g style="fill: #37539c" transform="translate(418.155 73.28125) scale(0.08 -0.08)">
      <use xlink:href="#OpenSans-Bold-45"/>
      <use xlink:href="#OpenSans-Bold-6e" x="56.005859"/>
      <use xlink:href="#OpenSans-Bold-66" x="121.728516"/>
      <use xlink:href="#OpenSans-Bold-2e" x="160.449219"/>
      <use xlink:href="#OpenSans-Bold-20" x="188.964844"/>
      <use xlink:href="#OpenSans-Bold-63" x="214.941406"/>
      <use xlink:href="#OpenSans-Bold-61" x="266.357422"/>
      <use xlink:href="#OpenSans-Bold-72" x="326.757812"/>
      <use xlink:href="#OpenSans-Bold-64" x="372.167969"/>
      <use xlink:href="#OpenSans-Bold-69" x="435.449219"/>
      <use xlink:href="#OpenSans-Bold-6f" x="465.966797"/>
      <use xlink:href="#OpenSans-Bold-76" x="527.880859"/>
      <use xlink:href="#OpenSans-Bold-61" x="584.765625"/>
      <use xlink:href="#OpenSans-Bold-73" x="645.166016"/>
      <use xlink:href="#OpenSans-Bold-63" x="694.873047"/>
      <use xlink:href="#OpenSans-Bold-75" x="746.289062"/>
      <use xlink:href="#OpenSans-Bold-6c" x="812.011719"/>
      <use xlink:href="#OpenSans-Bold-61" x="842.529297"/>
      <use xlink:href="#OpenSans-Bold-72" x="902.929688"/>
      <use xlink:href="#OpenSans-Bold-65" x="948.339844"/>
      <use xlink:href="#OpenSans-Bold-73" x="1007.421875"/>
     </g>
    </g>
   </g>
  </g>
  <g id="text_47">
   <!-- Cantidad de artculos publicados -->
   <g style="fill: #37539c" transform="translate(268.782188 13.513125) scale(0.12 -0.12)">
    <defs>
     <path id="OpenSans-Regular-43" d="M 2578 4166 
Q 2200 4166 1898 4036 
Q 1597 3906 1386 3661 
Q 1175 3416 1062 3069 
Q 950 2722 950 2288 
Q 950 1713 1129 1289 
Q 1309 866 1667 634 
Q 2025 403 2563 403 
Q 2869 403 3139 454 
Q 3409 506 3666 584 
L 3666 122 
Q 3416 28 3141 -17 
Q 2866 -63 2488 -63 
Q 1791 -63 1323 226 
Q 856 516 623 1044 
Q 391 1572 391 2291 
Q 391 2809 536 3239 
Q 681 3669 961 3981 
Q 1241 4294 1648 4464 
Q 2056 4634 2584 4634 
Q 2931 4634 3253 4565 
Q 3575 4497 3834 4369 
L 3622 3919 
Q 3403 4019 3142 4092 
Q 2881 4166 2578 4166 
z
" transform="scale(0.015625)"/>
     <path id="OpenSans-Regular-61" d="M 1828 3481 
Q 2441 3481 2737 3206 
Q 3034 2931 3034 2328 
L 3034 0 
L 2656 0 
L 2556 506 
L 2531 506 
Q 2388 319 2231 192 
Q 2075 66 1870 1 
Q 1666 -63 1369 -63 
Q 1056 -63 814 46 
Q 572 156 433 378 
Q 294 600 294 941 
Q 294 1453 700 1728 
Q 1106 2003 1938 2028 
L 2528 2053 
L 2528 2263 
Q 2528 2706 2337 2884 
Q 2147 3063 1800 3063 
Q 1531 3063 1287 2984 
Q 1044 2906 825 2800 
L 666 3194 
Q 897 3313 1197 3397 
Q 1497 3481 1828 3481 
z
M 2522 1688 
L 2000 1666 
Q 1359 1641 1096 1456 
Q 834 1272 834 934 
Q 834 641 1012 500 
Q 1191 359 1484 359 
Q 1941 359 2231 612 
Q 2522 866 2522 1372 
L 2522 1688 
z
" transform="scale(0.015625)"/>
     <path id="OpenSans-Regular-6e" d="M 2169 3488 
Q 2778 3488 3090 3189 
Q 3403 2891 3403 2231 
L 3403 0 
L 2891 0 
L 2891 2197 
Q 2891 2625 2695 2837 
Q 2500 3050 2097 3050 
Q 1528 3050 1297 2728 
Q 1066 2406 1066 1794 
L 1066 0 
L 547 0 
L 547 3425 
L 966 3425 
L 1044 2931 
L 1072 2931 
Q 1181 3113 1350 3236 
Q 1519 3359 1728 3423 
Q 1938 3488 2169 3488 
z
" transform="scale(0.015625)"/>
     <path id="OpenSans-Regular-74" d="M 1653 363 
Q 1781 363 1915 384 
Q 2050 406 2134 438 
L 2134 34 
Q 2044 -6 1883 -34 
Q 1722 -63 1569 -63 
Q 1297 -63 1075 32 
Q 853 128 720 356 
Q 588 584 588 988 
L 588 3019 
L 100 3019 
L 100 3272 
L 591 3475 
L 797 4219 
L 1109 4219 
L 1109 3425 
L 2113 3425 
L 2113 3019 
L 1109 3019 
L 1109 1003 
Q 1109 681 1257 522 
Q 1406 363 1653 363 
z
" transform="scale(0.015625)"/>
     <path id="OpenSans-Regular-69" d="M 1066 3425 
L 1066 0 
L 547 0 
L 547 3425 
L 1066 3425 
z
M 813 4706 
Q 941 4706 1033 4623 
Q 1125 4541 1125 4366 
Q 1125 4194 1033 4109 
Q 941 4025 813 4025 
Q 678 4025 589 4109 
Q 500 4194 500 4366 
Q 500 4541 589 4623 
Q 678 4706 813 4706 
z
" transform="scale(0.015625)"/>
     <path id="OpenSans-Regular-64" d="M 1766 -63 
Q 1116 -63 736 381 
Q 356 825 356 1700 
Q 356 2584 743 3036 
Q 1131 3488 1775 3488 
Q 2047 3488 2250 3416 
Q 2453 3344 2600 3223 
Q 2747 3103 2847 2950 
L 2884 2950 
Q 2872 3047 2859 3215 
Q 2847 3384 2847 3491 
L 2847 4863 
L 3366 4863 
L 3366 0 
L 2947 0 
L 2869 488 
L 2847 488 
Q 2750 334 2601 209 
Q 2453 84 2248 10 
Q 2044 -63 1766 -63 
z
M 1847 369 
Q 2397 369 2625 681 
Q 2853 994 2853 1609 
L 2853 1703 
Q 2853 2356 2636 2706 
Q 2419 3056 1847 3056 
Q 1369 3056 1131 2689 
Q 894 2322 894 1688 
Q 894 1056 1130 712 
Q 1366 369 1847 369 
z
" transform="scale(0.015625)"/>
     <path id="OpenSans-Regular-20" transform="scale(0.015625)"/>
     <path id="OpenSans-Regular-65" d="M 1866 3488 
Q 2303 3488 2615 3294 
Q 2928 3100 3093 2751 
Q 3259 2403 3259 1938 
L 3259 1616 
L 894 1616 
Q 903 1013 1193 697 
Q 1484 381 2013 381 
Q 2338 381 2588 440 
Q 2838 500 3106 616 
L 3106 159 
Q 2847 44 2592 -9 
Q 2338 -63 1991 -63 
Q 1497 -63 1130 139 
Q 763 341 559 731 
Q 356 1122 356 1688 
Q 356 2241 542 2645 
Q 728 3050 1067 3269 
Q 1406 3488 1866 3488 
z
M 1859 3063 
Q 1444 3063 1197 2791 
Q 950 2519 903 2031 
L 2716 2031 
Q 2713 2338 2620 2570 
Q 2528 2803 2340 2933 
Q 2153 3063 1859 3063 
z
" transform="scale(0.015625)"/>
     <path id="OpenSans-Regular-72" d="M 2103 3488 
Q 2206 3488 2318 3477 
Q 2431 3466 2519 3447 
L 2453 2966 
Q 2369 2988 2266 3000 
Q 2163 3013 2072 3013 
Q 1866 3013 1683 2930 
Q 1500 2847 1362 2692 
Q 1225 2538 1147 2320 
Q 1069 2103 1069 1838 
L 1069 0 
L 547 0 
L 547 3425 
L 978 3425 
L 1034 2794 
L 1056 2794 
Q 1163 2984 1313 3142 
Q 1463 3300 1661 3394 
Q 1859 3488 2103 3488 
z
" transform="scale(0.015625)"/>
     <path id="OpenSans-Regular-ed" d="M 1066 0 
L 547 0 
L 547 3425 
L 1066 3425 
L 1066 0 
z
M 1714 4903 
L 1714 4841 
Q 1651 4750 1543 4623 
Q 1436 4497 1304 4358 
Q 1173 4219 1040 4094 
Q 908 3969 795 3878 
L 448 3878 
L 448 3953 
Q 548 4072 667 4239 
Q 786 4406 898 4582 
Q 1011 4759 1086 4903 
L 1714 4903 
z
" transform="scale(0.015625)"/>
     <path id="OpenSans-Regular-63" d="M 1919 -63 
Q 1456 -63 1103 128 
Q 750 319 553 709 
Q 356 1100 356 1694 
Q 356 2316 564 2711 
Q 772 3106 1137 3297 
Q 1503 3488 1969 3488 
Q 2225 3488 2464 3436 
Q 2703 3384 2856 3306 
L 2700 2872 
Q 2544 2934 2339 2984 
Q 2134 3034 1956 3034 
Q 1600 3034 1364 2881 
Q 1128 2728 1011 2431 
Q 894 2134 894 1700 
Q 894 1284 1008 990 
Q 1122 697 1348 542 
Q 1575 388 1916 388 
Q 2188 388 2406 445 
Q 2625 503 2803 581 
L 2803 119 
Q 2631 31 2420 -16 
Q 2209 -63 1919 -63 
z
" transform="scale(0.015625)"/>
     <path id="OpenSans-Regular-75" d="M 3375 3425 
L 3375 0 
L 2950 0 
L 2875 481 
L 2847 481 
Q 2741 303 2572 181 
Q 2403 59 2192 -2 
Q 1981 -63 1744 -63 
Q 1338 -63 1063 68 
Q 788 200 648 475 
Q 509 750 509 1181 
L 509 3425 
L 1034 3425 
L 1034 1219 
Q 1034 791 1228 580 
Q 1422 369 1819 369 
Q 2200 369 2426 512 
Q 2653 656 2753 936 
Q 2853 1216 2853 1622 
L 2853 3425 
L 3375 3425 
z
" transform="scale(0.015625)"/>
     <path id="OpenSans-Regular-6c" d="M 1069 0 
L 547 0 
L 547 4863 
L 1069 4863 
L 1069 0 
z
" transform="scale(0.015625)"/>
     <path id="OpenSans-Regular-6f" d="M 3500 1719 
Q 3500 1297 3390 965 
Q 3281 634 3075 406 
Q 2869 178 2576 57 
Q 2284 -63 1916 -63 
Q 1572 -63 1286 57 
Q 1000 178 792 406 
Q 584 634 470 965 
Q 356 1297 356 1719 
Q 356 2281 547 2676 
Q 738 3072 1092 3280 
Q 1447 3488 1938 3488 
Q 2406 3488 2757 3278 
Q 3109 3069 3304 2673 
Q 3500 2278 3500 1719 
z
M 894 1719 
Q 894 1306 1003 1003 
Q 1113 700 1341 534 
Q 1569 369 1928 369 
Q 2284 369 2514 534 
Q 2744 700 2853 1003 
Q 2963 1306 2963 1719 
Q 2963 2128 2853 2426 
Q 2744 2725 2516 2887 
Q 2288 3050 1925 3050 
Q 1391 3050 1142 2697 
Q 894 2344 894 1719 
z
" transform="scale(0.015625)"/>
     <path id="OpenSans-Regular-73" d="M 2763 938 
Q 2763 609 2598 386 
Q 2434 163 2129 50 
Q 1825 -63 1403 -63 
Q 1044 -63 781 -6 
Q 519 50 322 153 
L 322 631 
Q 531 528 822 443 
Q 1113 359 1416 359 
Q 1859 359 2059 503 
Q 2259 647 2259 894 
Q 2259 1034 2179 1142 
Q 2100 1250 1912 1351 
Q 1725 1453 1394 1575 
Q 1066 1700 827 1823 
Q 588 1947 458 2125 
Q 328 2303 328 2588 
Q 328 3022 679 3255 
Q 1031 3488 1603 3488 
Q 1913 3488 2183 3427 
Q 2453 3366 2688 3263 
L 2513 2847 
Q 2300 2938 2059 3000 
Q 1819 3063 1569 3063 
Q 1209 3063 1017 2944 
Q 825 2825 825 2619 
Q 825 2459 914 2356 
Q 1003 2253 1200 2162 
Q 1397 2072 1719 1950 
Q 2041 1831 2275 1704 
Q 2509 1578 2636 1398 
Q 2763 1219 2763 938 
z
" transform="scale(0.015625)"/>
     <path id="OpenSans-Regular-70" d="M 2156 3488 
Q 2797 3488 3178 3047 
Q 3559 2606 3559 1722 
Q 3559 1138 3384 741 
Q 3209 344 2892 140 
Q 2575 -63 2144 -63 
Q 1872 -63 1665 9 
Q 1459 81 1312 203 
Q 1166 325 1069 469 
L 1031 469 
Q 1041 347 1055 175 
Q 1069 3 1069 -125 
L 1069 -1531 
L 547 -1531 
L 547 3425 
L 975 3425 
L 1044 2919 
L 1069 2919 
Q 1169 3075 1312 3204 
Q 1456 3334 1664 3411 
Q 1872 3488 2156 3488 
z
M 2066 3050 
Q 1709 3050 1492 2912 
Q 1275 2775 1175 2501 
Q 1075 2228 1069 1816 
L 1069 1716 
Q 1069 1281 1164 981 
Q 1259 681 1479 525 
Q 1700 369 2072 369 
Q 2391 369 2603 541 
Q 2816 713 2920 1020 
Q 3025 1328 3025 1728 
Q 3025 2334 2789 2692 
Q 2553 3050 2066 3050 
z
" transform="scale(0.015625)"/>
     <path id="OpenSans-Regular-62" d="M 1066 4863 
L 1066 3647 
Q 1066 3438 1055 3241 
Q 1044 3044 1038 2934 
L 1066 2934 
Q 1206 3166 1472 3325 
Q 1738 3484 2150 3484 
Q 2794 3484 3176 3039 
Q 3559 2594 3559 1716 
Q 3559 1138 3384 741 
Q 3209 344 2890 140 
Q 2572 -63 2138 -63 
Q 1731 -63 1470 89 
Q 1209 241 1069 459 
L 1028 459 
L 922 0 
L 547 0 
L 547 4863 
L 1066 4863 
z
M 2066 3050 
Q 1694 3050 1475 2904 
Q 1256 2759 1161 2467 
Q 1066 2175 1066 1728 
L 1066 1700 
Q 1066 1053 1281 711 
Q 1497 369 2066 369 
Q 2544 369 2783 719 
Q 3022 1069 3022 1719 
Q 3022 2381 2786 2715 
Q 2550 3050 2066 3050 
z
" transform="scale(0.015625)"/>
    </defs>
    <use xlink:href="#OpenSans-Regular-43"/>
    <use xlink:href="#OpenSans-Regular-61" x="62.988281"/>
    <use xlink:href="#OpenSans-Regular-6e" x="118.554688"/>
    <use xlink:href="#OpenSans-Regular-74" x="179.882812"/>
    <use xlink:href="#OpenSans-Regular-69" x="215.527344"/>
    <use xlink:href="#OpenSans-Regular-64" x="240.771484"/>
    <use xlink:href="#OpenSans-Regular-61" x="301.953125"/>
    <use xlink:href="#OpenSans-Regular-64" x="357.519531"/>
    <use xlink:href="#OpenSans-Regular-20" x="418.701172"/>
    <use xlink:href="#OpenSans-Regular-64" x="444.677734"/>
    <use xlink:href="#OpenSans-Regular-65" x="505.859375"/>
    <use xlink:href="#OpenSans-Regular-20" x="562.011719"/>
    <use xlink:href="#OpenSans-Regular-61" x="587.988281"/>
    <use xlink:href="#OpenSans-Regular-72" x="643.554688"/>
    <use xlink:href="#OpenSans-Regular-74" x="684.423828"/>
    <use xlink:href="#OpenSans-Regular-ed" x="720.068359"/>
    <use xlink:href="#OpenSans-Regular-63" x="745.3125"/>
    <use xlink:href="#OpenSans-Regular-75" x="793.212891"/>
    <use xlink:href="#OpenSans-Regular-6c" x="854.541016"/>
    <use xlink:href="#OpenSans-Regular-6f" x="879.785156"/>
    <use xlink:href="#OpenSans-Regular-73" x="939.941406"/>
    <use xlink:href="#OpenSans-Regular-20" x="987.597656"/>
    <use xlink:href="#OpenSans-Regular-70" x="1013.574219"/>
    <use xlink:href="#OpenSans-Regular-75" x="1074.755859"/>
    <use xlink:href="#OpenSans-Regular-62" x="1136.083984"/>
    <use xlink:href="#OpenSans-Regular-6c" x="1197.265625"/>
    <use xlink:href="#OpenSans-Regular-69" x="1222.509766"/>
    <use xlink:href="#OpenSans-Regular-63" x="1247.753906"/>
    <use xlink:href="#OpenSans-Regular-61" x="1295.654297"/>
    <use xlink:href="#OpenSans-Regular-64" x="1351.220703"/>
    <use xlink:href="#OpenSans-Regular-6f" x="1412.402344"/>
    <use xlink:href="#OpenSans-Regular-73" x="1472.558594"/>
   </g>
  </g>
 </g>
 <defs>
  <clipPath id="p99b6b9b0bb">
   <rect x="36.25" y="36" width="320.645" height="143.553594"/>
  </clipPath>
  <clipPath id="p6492e9e6de">
   <rect x="388.555" y="36" width="320.645" height="143.553594"/>
  </clipPath>
 </defs>
</svg>
